<?xml version="1.0" encoding="utf-8"?>
<!-- Generator: Adobe Illustrator 21.0.0, SVG Export Plug-In . SVG Version: 6.00 Build 0)  -->
<svg version="1.1" id="Capa_1" xmlns="http://www.w3.org/2000/svg" xmlns:xlink="http://www.w3.org/1999/xlink" x="0px" y="0px"
	 viewBox="0 0 64 64" style="enable-background:new 0 0 64 64;" xml:space="preserve">
<style type="text/css">
	.st0{opacity:0.2;fill-rule:evenodd;clip-rule:evenodd;}
	.st1{fill-rule:evenodd;clip-rule:evenodd;fill:#FFFFFF;}
	.st2{fill-rule:evenodd;clip-rule:evenodd;fill:#C12564;}
	.st3{fill-rule:evenodd;clip-rule:evenodd;fill:#5D1230;}
	.st4{fill-rule:evenodd;clip-rule:evenodd;fill:#961D4E;}
	.st5{fill-rule:evenodd;clip-rule:evenodd;fill:#DA3F7E;}
	.st6{fill-rule:evenodd;clip-rule:evenodd;fill:#EDA3C1;}
	.st7{fill-rule:evenodd;clip-rule:evenodd;fill:#E26A9A;}
	.st8{fill-rule:evenodd;clip-rule:evenodd;fill:#E6E6E6;}
	.st9{fill:#FFFFFF;}
	.st10{fill:#603813;}
	.st11{fill:#4FB1ED;}
	.st12{fill:#754C24;}
	.st13{fill:#76CAF4;}
</style>
<g>
	<g>
		<path class="st0" d="M6.9,9c-9.1,8.6-9.2,39.9,0,48.6c9,8.6,41.3,8.6,50.3,0c9.1-8.7,9.1-39.9,0-48.6C47.9,0.3,16.1,0.3,6.9,9z"/>
		<path class="st1" d="M6.9,6.5c-9.1,8.6-9.2,39.9,0,48.6c9,8.6,41.3,8.6,50.3,0c9.1-8.7,9.1-39.9,0-48.6C47.9-2.2,16.1-2.2,6.9,6.5
			z"/>
		<path class="st2" d="M9.2,7.3c-8.3,7.8-8.3,36.2,0,44c8.2,7.8,37.4,7.8,45.6,0c8.3-7.8,8.2-36.2,0-44C46.4-0.6,17.6-0.6,9.2,7.3z"
			/>
		<path class="st3" d="M54.8,45.4c-8.2,7.8-37.4,7.8-45.6,0c-3.7-3.5-5.7-11-6.1-19C2.6,36.3,4.6,47,9.2,51.3
			c8.2,7.8,37.4,7.8,45.6,0c4.6-4.3,6.6-15,6.1-24.9C60.5,34.4,58.5,41.9,54.8,45.4z"/>
		<path class="st4" d="M6.6,41.7c0.8,1.5,1.6,2.7,2.6,3.6c8.2,7.8,37.4,7.8,45.6,0c3.2-3,5.1-9,5.8-15.7
			C45.3,40.4,27.3,44.3,6.6,41.7z"/>
		<path class="st5" d="M9.2,7.3C6.8,9.6,5,13.8,4,18.7c14.3-14.2,43.1-16.4,55.2-3c-1-3.6-2.5-6.6-4.5-8.4
			C46.4-0.6,17.6-0.6,9.2,7.3z"/>
		<path class="st6" d="M15.8,5.4c-3.5,0.9-6.4,3.3-6.4,5.1c0,1.9,2.9,2.7,6.4,1.7c3.5-0.9,6.4-3.3,6.4-5.1
			C22.1,5.2,19.3,4.4,15.8,5.4z"/>
		<path class="st6" d="M26.3,2.8c-2,0.1-3.8,1-4,2c-0.2,1,1.2,1.7,3.2,1.6c2-0.1,3.8-1,4-2C29.7,3.4,28.3,2.7,26.3,2.8z"/>
		<path class="st7" d="M50.6,41.1c-2.2,1-3.8,2.9-3.6,4.1c0.2,1.3,2.2,1.5,4.4,0.4c2.2-1,3.8-2.9,3.6-4.1
			C54.8,40.3,52.8,40.1,50.6,41.1z"/>
		<path class="st7" d="M60.7,29.7c-0.7,6.7-2.7,12.7-5.8,15.7c-8.2,7.8-37.4,7.8-45.6,0c-1-0.9-1.9-2.2-2.6-3.6
			c-2-3.9-3.2-9.5-3.5-15.4C3,27.5,3,28.7,3,29.9c0-0.8,0-1.6,0.1-2.4c0.4,8,2.4,15.5,6.1,19c8.2,7.8,37.4,7.8,45.6,0
			c3.7-3.5,5.7-11,6.1-19c0,0.8,0.1,1.6,0.1,2.4c0-1.2,0-2.3-0.1-3.5C60.9,27.5,60.8,28.6,60.7,29.7z"/>
		<path class="st8" d="M6.8,53.8C2.4,49.6,0.1,39.9,0,30.2c-0.1,10.2,2.2,20.5,6.8,24.9c9,8.6,41.3,8.6,50.3,0
			c4.7-4.4,6.9-14.7,6.8-24.9c-0.1,9.7-2.4,19.3-6.8,23.6C48.1,62.3,15.9,62.3,6.8,53.8z"/>
	</g>
	<path class="st9" d="M16.3,47.1v-7.9h1.5V20C17.8,12.4,24,6.4,32,6.4s14.2,6,14.2,13.6v19.2h1.5v7.9H16.3z"/>
	<g>
		<path class="st10" d="M32,8C25,8,19.4,13.1,19.4,20v20.7h25.2V20C44.6,13.1,38.9,8,32,8z M42.7,38.8H21.3V20
			c0-5.8,4.6-10.1,10.7-10.1S42.7,14.3,42.7,20V38.8z"/>
		<g>
			<path class="st11" d="M21.3,38.8V20c0-5.8,4.6-10.1,10.7-10.1S42.7,14.3,42.7,20v18.8H21.3z"/>
		</g>
		<rect x="17.9" y="40.8" class="st12" width="28.2" height="4.8"/>
		<g>
			<path class="st13" d="M21.8,38.8h1.5l19.3-19.3c0-0.5-0.1-0.9-0.1-1.3L21.8,38.8z"/>
			<polygon class="st13" points="42.7,24.1 42.7,21.1 24.9,38.8 27.9,38.8 			"/>
			<path class="st13" d="M21.3,25.3v1.2L36.8,11c-0.3-0.1-0.5-0.2-0.8-0.3L21.3,25.3z"/>
		</g>
		<rect x="31" y="9" class="st10" width="1.9" height="30.8"/>
		<rect x="31" y="14" transform="matrix(3.009510e-11 -1 1 3.009510e-11 6.1846 57.8152)" class="st10" width="1.9" height="23.7"/>
	</g>
</g>
</svg>
