<?xml version="1.0" encoding="utf-8"?>
<!-- Generator: Adobe Illustrator 21.0.0, SVG Export Plug-In . SVG Version: 6.00 Build 0)  -->
<svg version="1.1" id="Capa_1" xmlns="http://www.w3.org/2000/svg" xmlns:xlink="http://www.w3.org/1999/xlink" x="0px" y="0px"
	 viewBox="0 0 40.8 40.8" style="enable-background:new 0 0 40.8 40.8;" xml:space="preserve">
<style type="text/css">
	.st0{fill-rule:evenodd;clip-rule:evenodd;fill:#2C6BBB;}
	.st1{fill:#333333;}
	.st2{fill:#999999;}
	.st3{fill:#4FB1ED;}
	.st4{fill:#FFFFFF;}
	.st5{fill:#666666;}
</style>
<g>
	<path class="st0" d="M4.4,4.3c-5.8,5.7-5.8,26.5,0,32.2c5.8,5.7,26.3,5.7,32.1,0c5.8-5.7,5.8-26.5,0-32.2
		C30.5-1.4,10.3-1.4,4.4,4.3z"/>
	<g>
		<g>
			<path class="st1" d="M19.4,7.6c0,0.2-0.1,0.3-0.3,0.3h-7.1c-0.2,0-0.3-0.1-0.3-0.3V7.3c0-0.2,0.1-0.3,0.3-0.3h7.1
				c0.2,0,0.3,0.1,0.3,0.3V7.6z"/>
			<path class="st1" d="M29,7.6c0,0.2-0.1,0.3-0.3,0.3h-7.1c-0.2,0-0.3-0.1-0.3-0.3V7.3c0-0.2,0.1-0.3,0.3-0.3h7.1
				C28.9,7,29,7.1,29,7.3V7.6z"/>
		</g>
		<rect x="8.8" y="7.6" class="st2" width="23.2" height="26.2"/>
		<path class="st1" d="M30.1,29.3c0,0.5-0.4,0.9-0.9,0.9H11.6c-0.5,0-0.9-0.4-0.9-0.9v-14c0-0.5,0.4-0.9,0.9-0.9h17.7
			c0.5,0,0.9,0.4,0.9,0.9V29.3z"/>
		<g>
			<rect x="11.7" y="16.8" class="st3" width="17.3" height="12.3"/>
		</g>
		<path class="st4" d="M28.6,15.9c0,0.1-0.1,0.3-0.3,0.3H12.5c-0.1,0-0.3-0.1-0.3-0.3v-0.5c0-0.1,0.1-0.3,0.3-0.3h15.9
			c0.1,0,0.3,0.1,0.3,0.3V15.9z"/>
		<g>
			<circle class="st1" cx="28.9" cy="9.9" r="1.3"/>
			<circle class="st1" cx="25.8" cy="9.9" r="1.3"/>
			<circle class="st1" cx="22.7" cy="9.9" r="1.3"/>
			<rect x="10.6" y="8.7" class="st5" width="9.8" height="2.5"/>
		</g>
	</g>
</g>
</svg>
