<?xml version="1.0" encoding="utf-8"?>
<!-- Generator: Adobe Illustrator 21.0.0, SVG Export Plug-In . SVG Version: 6.00 Build 0)  -->
<svg version="1.1" id="Capa_1" xmlns="http://www.w3.org/2000/svg" xmlns:xlink="http://www.w3.org/1999/xlink" x="0px" y="0px"
	 viewBox="0 0 51 35.7" style="enable-background:new 0 0 51 35.7;" xml:space="preserve">
<style type="text/css">
	.st0{fill:#028982;}
	.st1{fill:#53BBBC;}
	.st2{fill:#006059;}
	.st3{fill:#9F513A;}
	.st4{fill-rule:evenodd;clip-rule:evenodd;fill:#009E9A;}
</style>
<g>
	<polygon class="st0" points="25.5,0 2.3,31.8 48.7,31.8 	"/>
	<polygon class="st1" points="25.5,2.6 5.4,30.4 45.6,30.4 	"/>
	<rect y="31.8" class="st2" width="51" height="3.9"/>
	<polygon class="st3" points="23.6,15.2 19.2,11.3 17.1,14.2 20.1,16.9 15.1,16.9 12.7,20.4 38.3,20.4 35.9,16.9 31,16.9 33.9,14.2 
		31.6,11 27.4,14.8 27.4,5.2 25.5,2.6 23.6,5.2 	"/>
	<g>
		<path class="st4" d="M16.7,26H23c0.5,0,0.9-0.4,0.9-0.9v-1.3c0-0.5-0.4-0.9-0.9-0.9h-6.3c-0.5,0-0.9,0.4-0.9,0.9v1.3
			C15.8,25.6,16.2,26,16.7,26z"/>
		<path class="st4" d="M10.5,30.4h6.3c0.5,0,0.9-0.4,0.9-0.9v-1.3c0-0.5-0.4-0.9-0.9-0.9h-6.3c-0.5,0-0.9,0.4-0.9,0.9v1.3
			C9.7,30,10.1,30.4,10.5,30.4z"/>
	</g>
	<g>
		<path class="st4" d="M32.5,26h6.3c0.5,0,0.9-0.4,0.9-0.9v-1.3c0-0.5-0.4-0.9-0.9-0.9h-6.3c-0.5,0-0.9,0.4-0.9,0.9v1.3
			C31.7,25.6,32,26,32.5,26z"/>
		<path class="st4" d="M26.4,30.4h6.3c0.5,0,0.9-0.4,0.9-0.9v-1.3c0-0.5-0.4-0.9-0.9-0.9h-6.3c-0.5,0-0.9,0.4-0.9,0.9v1.3
			C25.5,30,25.9,30.4,26.4,30.4z"/>
	</g>
</g>
</svg>
