<?xml version="1.0" encoding="utf-8"?>
<!-- Generator: Adobe Illustrator 21.0.0, SVG Export Plug-In . SVG Version: 6.00 Build 0)  -->
<svg version="1.1" id="Capa_1" xmlns="http://www.w3.org/2000/svg" xmlns:xlink="http://www.w3.org/1999/xlink" x="0px" y="0px"
	 viewBox="0 0 36.9 48" style="enable-background:new 0 0 36.9 48;" xml:space="preserve">
<style type="text/css">
	.st0{fill:#A3D19F;}
	.st1{fill:#B3B3B3;}
	.st2{fill:#4D4D4D;}
	.st3{fill:#42210B;}
	.st4{fill:#86BC80;}
</style>
<g id="XMLID_999_">
	<g>
		<path id="XMLID_1008_" class="st0" d="M21.8,1.9c0-1,0.8-1.9,1.9-1.9l0,0c1,0,1.9,0.8,1.9,1.9v1.5c0,1,0.8,1.9,1.9,1.9h0
			c1,0,1.9,0.8,1.9,1.9S30.2,9,31.2,9h0c1,0,1.9-0.8,1.9-1.9V4.9C33.2,3.8,34,3,35,3h0c1,0,1.9,0.8,1.9,1.9v21.3L21.8,11.1L21.8,1.9
			z"/>
		<polygon id="XMLID_1007_" class="st1" points="13.9,19 29,34.1 31.7,31.4 31.8,31.4 16.6,16.2 		"/>
		<path id="XMLID_1006_" class="st2" d="M9.4,25.8l12.8,12.8c0.6,0.6,1.7,0.6,2.3,0l4.5-4.5L13.9,19l-4.5,4.5
			C8.8,24.1,8.8,25.1,9.4,25.8z"/>
		
			<rect id="XMLID_1005_" x="16.7" y="17.8" transform="matrix(-0.7071 -0.7071 0.7071 -0.7071 32.1129 54.5807)" width="21.4" height="5.7"/>
		<polygon id="XMLID_1004_" class="st2" points="16.6,16.2 31.8,31.4 32.9,30.2 31.4,28.7 17.8,15.1 		"/>
		<path id="XMLID_1000_" class="st3" d="M0.4,46c0.2,0.4,0.4,0.7,0.7,1c0,0,0.1,0.1,0.1,0.1c0.2,0.2,0.5,0.4,0.8,0.6
			c1.1,0.5,2.5,0.4,3.7-0.1c2-0.9,3.3-2.9,4.7-4.6c1.5-1.9,2.9-3.8,4.4-5.8c0.9-1.1,1.7-2.3,2.6-3.4c0,0-0.4-0.3-0.8-0.8
			c-0.2-0.2-0.5-0.5-0.8-0.8c-0.8-0.8-1.6-1.6-1.6-1.6c-1.1,0.9-2.3,1.7-3.4,2.6C8.9,34.7,7,36.1,5,37.6c-1.7,1.3-3.7,2.6-4.6,4.7
			C-0.1,43.4-0.2,44.8,0.4,46z M5.7,44.6c-0.6,0.6-1.7,0.6-2.4,0c-0.6-0.6-0.6-1.7,0-2.4c0.6-0.6,1.7-0.6,2.4,0
			C6.4,42.9,6.4,44,5.7,44.6z"/>
		<path class="st4" d="M36.9,26.2l-7.6-7.6l-7.6-7.6l-2,2c-0.3,0.3-0.3,0.7,0,0.9l0,0c0.3,0.3,0.7,0.3,0.9,0l0.6-0.6
			c0.3-0.3,0.7-0.3,0.9,0l0,0c0.3,0.3,0.3,0.7,0,0.9c-0.3,0.3-0.3,0.7,0,0.9l0,0c0.3,0.3,0.3,0.7,0,0.9l-0.4,0.4
			c-0.3,0.3-0.3,0.7,0,0.9l0,0c0.3,0.3,0.7,0.3,0.9,0l0.7-0.7c-0.3,0.3-0.3,0.7,0,0.9l0,0c0.3,0.3,0.7,0.3,0.9,0l0.6-0.6
			c0.3-0.3,0.7-0.3,0.9,0l0,0c0.3,0.3,0.3,0.7,0,0.9c-0.3,0.3-0.3,0.7,0,0.9l0,0c0.3,0.3,0.3,0.7,0,0.9l-0.4,0.4
			c-0.3,0.3-0.3,0.7,0,0.9l0,0c0.3,0.3,0.7,0.3,0.9,0l0.7-0.7c-0.2,0.3-0.2,0.7,0,0.9l0,0c0.3,0.3,0.7,0.3,0.9,0l0.6-0.6
			c0.3-0.3,0.7-0.3,0.9,0l0,0c0.3,0.3,0.3,0.7,0,0.9c-0.3,0.3-0.3,0.7,0,0.9l0,0c0.3,0.3,0.3,0.7,0,0.9l-0.4,0.4
			c-0.3,0.3-0.3,0.7,0,0.9l0,0c0.3,0.3,0.7,0.3,0.9,0l0.7-0.7c-0.3,0.3-0.3,0.7,0,0.9l0,0c0.3,0.3,0.7,0.3,0.9,0l0.6-0.6
			c0.3-0.3,0.7-0.3,0.9,0l0,0c0.3,0.3,0.3,0.7,0,0.9c-0.3,0.3-0.3,0.7,0,0.9l0,0c0.3,0.3,0.3,0.7,0,0.9L33.2,28
			c-0.3,0.3-0.3,0.7,0,0.9l0,0c0.3,0.3,0.7,0.3,0.9,0L36.9,26.2z"/>
	</g>
</g>
</svg>
