<?xml version="1.0" encoding="utf-8"?>
<!-- Generator: Adobe Illustrator 21.0.0, SVG Export Plug-In . SVG Version: 6.00 Build 0)  -->
<svg version="1.1" id="Capa_1" xmlns="http://www.w3.org/2000/svg" xmlns:xlink="http://www.w3.org/1999/xlink" x="0px" y="0px"
	 viewBox="0 0 42.3 40.8" style="enable-background:new 0 0 42.3 40.8;" xml:space="preserve">
<style type="text/css">
	.st0{fill:#42210B;}
	.st1{fill:#4FB1ED;}
	.st2{fill:#76CAF4;}
	.st3{fill:#A67C52;}
	.st4{fill:#603813;}
	.st5{fill:#C69C6D;}
</style>
<g>
	<rect y="37.3" class="st0" width="42.3" height="3.5"/>
	<g>
		<g>
			<g>
				<rect x="5.9" y="2.5" class="st1" width="30.4" height="21"/>
			</g>
			<g>
				<polygon class="st2" points="16.7,2.5 5.9,14.2 5.9,20.6 22.6,2.5 				"/>
				<polygon class="st2" points="24.9,2.5 5.9,23.1 5.9,23.5 7.5,23.5 26.8,2.5 				"/>
			</g>
			<g>
				<g>
					<path class="st3" d="M2.5,0v37.3h37.3V0H2.5z M37,35.5H5.3V1.8H37V35.5z"/>
				</g>
				<polygon class="st0" points="36.3,2.5 37,1.8 5.3,1.8 5.9,2.5 				"/>
				<polygon class="st4" points="5.9,2.5 5.3,1.8 5.3,35.5 5.9,34.9 				"/>
				<polygon class="st5" points="37,35.5 36.3,34.9 5.9,34.9 5.3,35.5 				"/>
				<polygon class="st4" points="36.3,2.5 36.3,34.9 37,35.5 37,1.8 				"/>
			</g>
			<rect x="5.3" y="23.5" class="st3" width="31.7" height="1.8"/>
			<g>
				<path d="M24.4,24.6H18c-0.4,0-0.7,0.3-0.7,0.7v0.1c0,0.4,0.3,0.7,0.7,0.7h6.4c0.4,0,0.7-0.3,0.7-0.7v-0.1
					C25,24.9,24.7,24.6,24.4,24.6z"/>
			</g>
		</g>
	</g>
</g>
</svg>
