<?xml version="1.0" encoding="utf-8"?>
<!-- Generator: Adobe Illustrator 21.0.0, SVG Export Plug-In . SVG Version: 6.00 Build 0)  -->
<svg version="1.1" id="Capa_1" xmlns="http://www.w3.org/2000/svg" xmlns:xlink="http://www.w3.org/1999/xlink" x="0px" y="0px"
	 viewBox="0 0 42.1 42.2" style="enable-background:new 0 0 42.1 42.2;" xml:space="preserve">
<style type="text/css">
	.st0{fill:#333333;}
	.st1{fill:#666666;}
</style>
<g>
	<rect y="35.7" class="st0" width="24.4" height="6.5"/>
	<rect x="35.6" class="st0" width="6.5" height="24.4"/>
	<path class="st1" d="M30,3.5C15.4,3.5,3.4,15.4,3.4,30.1h0l-1.7,3.9h20.9l-1.7-3.9h0c0-5,4.1-9.1,9.1-9.1v0l3.9,1.7V1.7L30,3.5z
		 M28.2,18.9c-5,0-9,4-9,9c0,0.8-0.6,1.4-1.4,1.4c-0.8,0-1.4-0.6-1.4-1.4c0-6.5,5.3-11.8,11.8-11.8c0.8,0,1.4,0.6,1.4,1.4
		C29.6,18.3,29,18.9,28.2,18.9z"/>
</g>
</svg>
