<?xml version="1.0" encoding="utf-8"?>
<!-- Generator: Adobe Illustrator 21.0.0, SVG Export Plug-In . SVG Version: 6.00 Build 0)  -->
<svg version="1.1" id="Capa_1" xmlns="http://www.w3.org/2000/svg" xmlns:xlink="http://www.w3.org/1999/xlink" x="0px" y="0px"
	 viewBox="0 0 42.3 40.8" style="enable-background:new 0 0 42.3 40.8;" xml:space="preserve">
<style type="text/css">
	.st0{fill:#4D4D4D;}
	.st1{fill:#808080;}
	.st2{fill:#1A1A1A;}
	.st3{fill:#B3B3B3;}
	.st4{fill:#4FB1ED;}
	.st5{fill:#76CAF4;}
</style>
<g>
	<rect y="37.3" class="st0" width="42.3" height="3.5"/>
	<g>
		<g>
			<g>
				<g>
					<g>
						<path class="st1" d="M2.5,0v37.3h37.3V0H2.5z M37,35.5H5.3V1.8H37V35.5z"/>
					</g>
					<polygon class="st2" points="36.3,2.5 37,1.8 5.3,1.8 5.9,2.5 					"/>
					<polygon class="st0" points="5.9,2.5 5.3,1.8 5.3,35.5 5.9,34.9 					"/>
					<polygon class="st0" points="37,35.5 36.3,34.9 5.9,34.9 5.3,35.5 					"/>
					<polygon class="st0" points="36.3,2.5 36.3,34.9 37,35.5 37,1.8 					"/>
				</g>
				<g>
					<g>
						<g>
							<g>
								<path class="st1" d="M5.9,2.5v32.4h30.4V2.5H5.9z M33.8,33.2H8.4v-29h25.4V33.2z"/>
							</g>
							<polygon class="st2" points="33.2,4.8 33.8,4.1 8.4,4.1 9,4.8 							"/>
							<polygon class="st0" points="9,4.8 8.4,4.1 8.4,33.2 9,32.5 							"/>
							<polygon class="st3" points="33.8,33.2 33.2,32.5 9,32.5 8.4,33.2 							"/>
							<polygon class="st0" points="33.2,4.8 33.2,32.5 33.8,33.2 33.8,4.1 							"/>
						</g>
					</g>
					<g>
						<rect x="9" y="4.8" class="st4" width="24.2" height="27.7"/>
					</g>
					<g>
						<polygon class="st5" points="23.2,4.8 9,20.2 9,28.7 31,4.8 						"/>
						<polygon class="st5" points="33.2,5.6 9,31.9 9,32.5 11,32.5 33.2,8.4 						"/>
					</g>
				</g>
			</g>
		</g>
		<path d="M6.9,16.8L6.9,16.8c0.2-0.1,0.5-0.1,0.6,0.1l3.3,3.3l-0.7,0.7l0,0l-3.3-3.3l0,0C6.7,17.4,6.7,17.1,6.9,16.8
			C6.9,16.8,6.9,16.8,6.9,16.8z"/>
	</g>
</g>
</svg>
