<?xml version="1.0" encoding="utf-8"?>
<!-- Generator: Adobe Illustrator 21.0.0, SVG Export Plug-In . SVG Version: 6.00 Build 0)  -->
<svg version="1.1" id="Capa_1" xmlns="http://www.w3.org/2000/svg" xmlns:xlink="http://www.w3.org/1999/xlink" x="0px" y="0px"
	 viewBox="0 0 22.2 48" style="enable-background:new 0 0 22.2 48;" xml:space="preserve">
<style type="text/css">
	.st0{fill:#1A1A1A;}
	.st1{fill:#FFD30E;}
	.st2{fill:#4D4D4D;}
</style>
<g>
	<path class="st0" d="M14.1,46.2H7.5c-0.3,0-0.6-0.8-0.7-1.1h7.9C14.7,45.4,14.4,46.2,14.1,46.2z"/>
	<rect x="6.9" y="42.1" class="st0" width="7.9" height="0.9"/>
	<rect x="6.9" y="43.6" class="st0" width="7.9" height="0.9"/>
	<path class="st0" d="M10.8,48C10,48,9.3,47.5,9,46.8h3.5C12.3,47.5,11.6,48,10.8,48z"/>
	<path class="st1" d="M22.2,13.3c-0.3,1-1.3,1.6-2.3,1.4L1.4,9.9C0.9,9.8,0.5,9.5,0.3,9C0,8.6-0.1,8.1,0.1,7.6
		c0.2-0.8,1-1.4,1.9-1.4c0.2,0,0.3,0,0.5,0.1l18.4,4.7C21.8,11.2,22.4,12.2,22.2,13.3z"/>
	<path class="st1" d="M19.8,9.2L9.7,6.6C9,6.4,8.4,5.8,8.3,5.1L7.8,2.2c-0.1-0.5,0-1,0.3-1.4C8.5,0.4,8.9,0.1,9.4,0
		c0.1,0,0.2,0,0.3,0c0.9,0,1.7,0.7,1.9,1.6l0.3,1.6l8.9,2.3c0.5,0.1,0.9,0.4,1.2,0.9c0.3,0.4,0.3,1,0.2,1.5
		C21.9,8.8,20.8,9.5,19.8,9.2z"/>
	<path class="st1" d="M15.3,30.6h-3.8v-4.6c0-0.5,0.2-0.9,0.5-1.3l0.8-0.9L1.4,20.8c-1-0.3-1.6-1.3-1.4-2.3c0.3-1,1.3-1.6,2.3-1.4
		l18.4,4.7c0.8,0.2,1.4,1,1.4,1.8c0,0.8-0.5,1.6-1.3,1.9l-5.6,1.8V30.6z"/>
	<path class="st1" d="M1.9,11.6c0.2,0,0.3,0,0.5,0.1l18.4,4.7c1,0.3,1.6,1.3,1.4,2.3c-0.3,1-1.3,1.6-2.3,1.4L1.4,15.3
		c-1-0.3-1.6-1.3-1.4-2.3C0.3,12.2,1,11.6,1.9,11.6z"/>
	<path class="st1" d="M2.8,22.7L9,25.8c0.7,0.3,1.1,1,1.1,1.7v3.1H6.2v-1.9l-5.2-2.5c-1-0.5-1.3-1.6-0.9-2.6
		C0.7,22.7,1.8,22.3,2.8,22.7z"/>
	<path class="st2" d="M18.8,32.1h-16V36c0,3.1,2.4,5.5,5.3,5.5h5.4c2.9,0,5.3-2.5,5.3-5.5V32.1z M17.5,35.2c0,2.9-2.3,5.2-5.2,5.2
		c-0.3,0-0.6-0.3-0.6-0.6c0-0.3,0.3-0.6,0.6-0.6c2.2,0,4-1.8,4-4c0-0.3,0.3-0.6,0.6-0.6C17.2,34.6,17.5,34.9,17.5,35.2z"/>
</g>
</svg>
