<?xml version="1.0" encoding="utf-8"?>
<!-- Generator: Adobe Illustrator 21.0.0, SVG Export Plug-In . SVG Version: 6.00 Build 0)  -->
<svg version="1.1" id="Capa_1" xmlns="http://www.w3.org/2000/svg" xmlns:xlink="http://www.w3.org/1999/xlink" x="0px" y="0px"
	 viewBox="0 0 200 83.6" style="enable-background:new 0 0 200 83.6;" xml:space="preserve">
<style type="text/css">
	.st0{opacity:0.2;fill-rule:evenodd;clip-rule:evenodd;}
	.st1{fill-rule:evenodd;clip-rule:evenodd;fill:#FFFFFF;}
	.st2{fill-rule:evenodd;clip-rule:evenodd;fill:#E6E6E6;}
	.st3{fill:#FFFFFF;}
</style>
<g>
	<g>
		<path class="st0" d="M6.3,30.9c-8.3,8.3-8.3,38.3,0,46.6c8.2,8.2,179.4,8.2,187.6,0c8.3-8.3,8.3-38.3,0-46.6
			C185.3,22.6,14.7,22.6,6.3,30.9z"/>
		<path class="st1" d="M6.3,28.6c-8.3,8.3-8.3,38.3,0,46.6c8.2,8.2,179.4,8.2,187.6,0c8.3-8.3,8.3-38.3,0-46.6
			C185.3,20.2,14.7,20.2,6.3,28.6z"/>
		<path class="st2" d="M6.2,73.8c-4.1-4-6.1-13.3-6.2-22.6C-0.1,61,2,70.9,6.2,75.1c8.2,8.2,179.3,8.2,187.6,0
			c4.2-4.2,6.3-14.1,6.2-23.9c-0.1,9.3-2.2,18.5-6.2,22.6C185.6,82,14.4,82,6.2,73.8z"/>
	</g>
	<g>
		<g>
			<path class="st3" d="M140.8,9.2l1.9-5.8L141,3c-1.6-0.3-3-0.5-4.2-0.5c-1.9,0-3.4,0.4-4.4,1.2c-0.6,0.5-1.1,0.9-1.4,1.4
				c-1.1-1.8-2.9-2.8-5.3-2.8c-0.6,0-1.2,0.1-1.9,0.2c-1.2,0.3-2.3,1-3.1,2.2c0-0.1,0-0.1-0.1-0.2c-0.7-1.4-1.9-2.2-3.4-2.2
				c-0.8,0-1.6,0.2-2.6,0.7l-0.1-0.6L109,3.3l0,0.3c-1.1-0.9-2.4-1.3-4-1.3c-0.6,0-1.2,0.1-1.9,0.2c-1.7,0.4-3,1.6-3.9,3.6l-0.1-1.7
				l-2.5,0.2L96.9,0l-6,0.4l-0.1,4.3c0,0,0-0.1,0-0.1c-0.7-1.4-1.9-2.2-3.4-2.2c-0.8,0-1.6,0.2-2.6,0.7l-0.1-0.6l-5.5,0.9
				c-1.2-1.1-2.6-1.4-3.9-1.4l-0.3,0l-0.1,0c-2.1,0.4-3.6,1.3-4.7,2.8l0.9-3L65,1.4l-1,3.3l-0.8-3.6l-6.6,1.8L60.3,18l1.3-0.2
				c0.4-0.1,0.8-0.1,1.2-0.1c0.7,0,1.4,0.1,2,0.2l1.4,0.4L69,9.2c0,0.3,0,0.5,0,0.8c0,3.4,1.1,5.8,3.4,7.1l0.1,0.1l0.1,0
				c1.1,0.4,2.1,0.6,3.1,0.6c1.2,0,2.7-0.3,3.9-1.5l0.1,1.4l5.8,0.2v-0.3l6.3-0.2l0.1-1c0.5,1.1,1.3,1.9,2.5,2.1
				c0.5,0.1,0.9,0.1,1.4,0.1c1.2,0,2.2-0.2,3.1-0.7c0.9-0.5,1.6-1.3,2-2.4c1,0.9,2.6,1.5,4.9,1.7l0,0.7l4-0.2l0,0l5.8,0.2v-0.3
				l6.3-0.2l0.1-1.4c0-0.1,0-0.2,0-0.3c1,0.8,2.5,1.3,4.6,1.5l0,0.7l5.9-0.4l0-0.1c1.7,0.5,3.1,0.7,4.3,0.7c1.4,0,2.5-0.4,3.4-1
				c1.7-1.4,2.5-3,2.4-4.8c0-1.2-0.5-2.3-1.4-3C140.9,9.3,140.9,9.2,140.8,9.2z M85.7,15.7l-0.2,1.6v-6.8c0.2-0.3,0.3-0.5,0.4-0.6
				c0.1,0.4,0.2,0.9,0.2,1.8C86,12.8,85.9,14.1,85.7,15.7z M96.5,11l-0.1,0.5c0-0.2,0-0.5,0-0.8l3.1-0.3l0-0.7l0.8,0.1
				c-0.3,0.4-0.5,1-0.6,1.6L96.5,11z M115.6,15.7l-0.2,1.6v-6.8c0.2-0.3,0.3-0.5,0.4-0.6c0.1,0.4,0.2,0.9,0.2,1.8
				C116,12.8,115.9,14.1,115.6,15.7z"/>
			<path d="M62.1,2.9l1.8,7.6l2.3-7.6l3.2,0.2l-4.1,13.4c-0.8-0.2-1.6-0.3-2.4-0.3c-0.5,0-0.9,0-1.4,0.1l-3-12.4L62.1,2.9z"/>
			<path d="M73,11.4c0.4,1.2,1.1,1.8,2.2,1.9c1.1,0.1,1.8-0.5,2.2-1.7l3.3-0.5c-0.8,3.4-2.5,5.1-5,5.1c-0.8,0-1.6-0.2-2.6-0.5
				c-1.8-1-2.6-2.9-2.6-5.8c0-0.2,0-0.5,0-0.8c0.2-3.3,1.8-5.2,4.8-5.7c2.9-0.1,4.5,1.9,5,6L73,11.4z M73.9,7.2
				c-0.4,0.5-0.7,1.1-0.7,1.9l4.4-1.3c-0.5-0.9-1.1-1.4-1.9-1.4S74.3,6.7,73.9,7.2z"/>
			<path d="M83.5,4.1l0.2,1.3c1.5-1.1,2.8-1.6,3.8-1.6c0.9,0,1.6,0.5,2,1.4c0.7,1.4,1,3.7,1,6.9c0,1.1,0,2.4-0.1,3.8L87.2,16
				c0.3-1.7,0.4-3.1,0.4-4.3c0-1.4-0.2-2.4-0.6-3.1C86.7,8.2,86.4,8,86.1,8c-0.6,0-1.3,0.7-2.2,2.1v6.2l-2.9-0.1L80.6,4.6L83.5,4.1z
				"/>
			<path d="M90.4,9.7l-0.1-2.9l2-0.2l0.1-4.8l2.9-0.2L95,6.4l2.7-0.2L97.9,9l-3,0.3c0,0.3,0,0.6,0,0.9c0,2.7,0.4,4.1,1.1,4.2
				c0.8,0.1,1.3-0.5,1.7-1.8l2.1,0.3c-0.1,1.9-0.7,3.1-1.6,3.5c-0.7,0.3-1.5,0.5-2.4,0.5c-0.4,0-0.8,0-1.2-0.1
				c-1.4-0.2-2.2-2.7-2.2-7.4L90.4,9.7z"/>
			<path d="M103.5,4c0.5-0.1,1-0.2,1.5-0.2c2.4,0,4,1.3,4.7,3.8c0.4,1.3,0.5,2.8,0.5,4.5l-0.1,4l-3,0.2l0-0.6
				c-3.8-0.1-5.8-1.1-6-2.8c0-0.3,0-0.4,0-0.6c0-1.4,0.6-2.3,1.7-2.7c0.6-0.2,1.1-0.3,1.7-0.3c0.8,0,1.5,0.2,2.3,0.5
				c0-1.3,0-2.1,0-2.1c-0.2-0.5-0.7-0.8-1.6-0.9c-0.8-0.1-1.5,0.6-2.2,1.9l-3-0.5C100.8,5.8,101.9,4.3,103.5,4z M105.4,11.5
				c-0.8,0-1.3,0.2-1.3,0.6c-0.1,0.6,0.9,1.1,2.8,1.5l-0.1-2C106.3,11.6,105.8,11.5,105.4,11.5z"/>
			<path d="M113.4,4.1l0.2,1.3c1.5-1.1,2.8-1.6,3.8-1.6c0.9,0,1.6,0.5,2,1.4c0.7,1.4,1,3.7,1,6.9c0,1.1,0,2.4-0.1,3.8l-3.2,0.1
				c0.3-1.7,0.4-3.1,0.4-4.3c0-1.4-0.2-2.4-0.6-3.1c-0.2-0.4-0.5-0.6-0.8-0.6c-0.6,0-1.3,0.7-2.2,2.1v6.2l-2.9-0.1l-0.5-11.6
				L113.4,4.1z"/>
			<path d="M124.3,4c0.5-0.1,1-0.2,1.5-0.2c2.4,0,4,1.3,4.7,3.8c0.4,1.3,0.5,2.8,0.5,4.5l-0.1,4l-3,0.2l0-0.6
				c-3.8-0.1-5.8-1.1-6-2.8c0-0.3,0-0.4,0-0.6c0-1.4,0.6-2.3,1.7-2.7c0.6-0.2,1.1-0.3,1.7-0.3c0.8,0,1.5,0.2,2.3,0.5
				c0-1.3,0-2.1,0-2.1c-0.2-0.5-0.7-0.8-1.6-0.9c-0.8-0.1-1.5,0.6-2.2,1.9l-3-0.5C121.6,5.8,122.7,4.3,124.3,4z M126.2,11.5
				c-0.8,0-1.3,0.2-1.3,0.6c-0.1,0.6,0.9,1.1,2.8,1.5l-0.1-2C127.1,11.6,126.6,11.5,126.2,11.5z"/>
			<path d="M131,15.5l1.4-3.1c1.8,1.1,3.1,1.7,4.1,1.7c0.3,0,0.7-0.1,1-0.3c0.4-0.2,0.5-0.5,0.5-0.8c0-0.5-0.7-0.9-2-1.2
				c-1.9-0.5-3.2-1.5-3.8-3c-0.2-0.5-0.3-1-0.3-1.4c0-0.9,0.5-1.7,1.4-2.4c0.8-0.6,2-0.9,3.5-0.9c1.1,0,2.4,0.1,3.9,0.4l-1,3
				c-1.1-0.5-2.1-0.8-2.8-0.8c-0.3,0-0.7,0.1-1,0.2c-0.4,0.2-0.6,0.4-0.6,0.7c0,0.3,0.3,0.6,0.8,0.9c0.3,0.2,1,0.5,2,0.9
				c0.8,0.3,1.5,0.7,1.8,1c0.5,0.5,0.8,1.1,0.9,1.9c0.1,1.3-0.6,2.5-1.9,3.6c-0.5,0.5-1.3,0.7-2.4,0.7
				C135.2,16.7,133.4,16.3,131,15.5z"/>
		</g>
	</g>
</g>
</svg>
