<?xml version="1.0" encoding="utf-8"?>
<!-- Generator: Adobe Illustrator 21.0.0, SVG Export Plug-In . SVG Version: 6.00 Build 0)  -->
<svg version="1.1" xmlns="http://www.w3.org/2000/svg" xmlns:xlink="http://www.w3.org/1999/xlink" x="0px" y="0px"
	 viewBox="0 0 37.844 37.844" style="enable-background:new 0 0 37.844 37.844;" xml:space="preserve">
<g id="Onda_3">
	<circle id="XMLID_32_" style="opacity:0.2;fill:#FCEE21;" cx="18.922" cy="18.922" r="18.922"/>
</g>
<g id="Onda_2">
	<circle id="XMLID_20_" style="opacity:0.3;fill:#FCEE21;" cx="18.922" cy="18.922" r="13.411"/>
</g>
<g id="Onda_1_1_">
	<circle id="XMLID_11_" style="opacity:0.4;fill:#FCEE21;" cx="18.85" cy="18.843" r="7.846"/>
</g>
<g id="Gotas_3">
	<g>
		<path style="fill:#0078D1;" d="M16.04,22.259l-0.093-1.837l-1.433,1.153c-0.317,0.255-0.434,0.686-0.289,1.066v0
			c0.185,0.485,0.727,0.728,1.212,0.543h0C15.817,23.04,16.061,22.666,16.04,22.259z"/>
		<path style="fill:#0078D1;" d="M21.804,22.259l0.093-1.837l1.433,1.153c0.317,0.255,0.434,0.686,0.289,1.066v0
			c-0.185,0.485-0.727,0.728-1.212,0.543h0C22.027,23.04,21.784,22.666,21.804,22.259z"/>
		<path style="fill:#0078D1;" d="M18.086,22.697l0.836-1.638l0.836,1.638c0.185,0.363,0.116,0.803-0.172,1.091v0
			c-0.367,0.367-0.961,0.367-1.328,0v0C17.97,23.5,17.901,23.059,18.086,22.697z"/>
	</g>
</g>
<g id="Gotas_2">
	<g>
		<path style="fill:#0078D1;" d="M17.528,18.939l-0.093-1.837l-1.433,1.153c-0.317,0.255-0.434,0.686-0.289,1.066l0,0
			c0.185,0.485,0.727,0.728,1.212,0.543l0,0C17.305,19.719,17.549,19.345,17.528,18.939z"/>
		<path style="fill:#0078D1;" d="M20.317,18.939l0.093-1.837l1.433,1.153c0.317,0.255,0.434,0.686,0.289,1.066v0
			c-0.185,0.485-0.727,0.728-1.212,0.543h0C20.54,19.719,20.296,19.345,20.317,18.939z"/>
		<path style="fill:#0078D1;" d="M18.086,19.058l0.836-1.638l0.836,1.638c0.185,0.363,0.116,0.803-0.172,1.091l0,0
			c-0.367,0.367-0.961,0.367-1.328,0l0,0C17.97,19.861,17.901,19.421,18.086,19.058z"/>
	</g>
</g>
<g id="Gota_1">
	<path style="fill:#0078D1;" d="M18.086,15.42l0.836-1.638l0.836,1.638c0.185,0.363,0.116,0.803-0.172,1.091l0,0
		c-0.367,0.367-0.961,0.367-1.328,0l0,0C17.97,16.223,17.901,15.782,18.086,15.42z"/>
</g>
</svg>
