<?xml version="1.0" encoding="utf-8"?>
<!-- Generator: Adobe Illustrator 21.0.0, SVG Export Plug-In . SVG Version: 6.00 Build 0)  -->
<svg version="1.1" xmlns="http://www.w3.org/2000/svg" xmlns:xlink="http://www.w3.org/1999/xlink" x="0px" y="0px"
	 viewBox="0 0 630.41 280.149" style="enable-background:new 0 0 630.41 280.149;" xml:space="preserve">
<g id="Tuberia">
	<g>
		<rect id="XMLID_87_" x="600.1" y="140.158" style="fill:#83DCFF;" width="17.148" height="4.287"/>
		<rect id="XMLID_94_" x="466.803" y="9.744" style="fill:#83DCFF;" width="146.805" height="4.287"/>
		<rect id="XMLID_109_" x="623.587" y="22.73" style="fill:#83DCFF;" width="4.287" height="175.055"/>
		<polygon id="XMLID_116_" style="fill:#83DCFF;" points="604.662,217.438 604.662,205.337 105.462,226.835 105.462,238.936 		"/>
	</g>
</g>
<g id="Conexiones">
	<g>
		<g>
			<path style="fill:#808080;" d="M302.002,263.062c-3,0-5.44-2.44-5.44-5.44V199.83c0-3,2.44-5.44,5.44-5.44h57.793
				c3,0,5.44,2.44,5.44,5.44v57.792c0,3-2.44,5.44-5.44,5.44H302.002z"/>
			<g>
				<g id="XMLID_72_">
					<g>
						<rect id="XMLID_75_" x="369.809" y="213.044" style="fill:#FEDF62;" width="14.668" height="15.682"/>
						<path id="XMLID_73_" style="fill:#F1B61E;" d="M384.48,234.525c-1.905,0-3.449-1.546-3.449-3.453v-20.381
							c0-1.907,1.544-3.453,3.449-3.453c1.905,0,3.449,1.546,3.449,3.453v20.381C387.928,232.979,386.384,234.525,384.48,234.525z"
							/>
					</g>
				</g>
				<g id="XMLID_67_">
					<g>
						<rect id="XMLID_70_" x="277.254" y="217.394" style="fill:#FEDF62;" width="14.668" height="15.682"/>
						<path id="XMLID_68_" style="fill:#F1B61E;" d="M277.251,211.595c1.905,0,3.449,1.546,3.449,3.453v20.381
							c0,1.907-1.544,3.453-3.449,3.453c-1.905,0-3.449-1.546-3.449-3.453v-20.381C273.803,213.141,275.347,211.595,277.251,211.595
							z"/>
					</g>
				</g>
				<path style="fill:#B3B3B3;" d="M359.795,187.389h-57.793c-6.842,0-12.44,5.598-12.44,12.44v57.793
					c0,6.842,5.598,12.44,12.44,12.44h57.793c6.842,0,12.44-5.598,12.44-12.44V199.83
					C372.235,192.987,366.637,187.389,359.795,187.389z M365.235,257.622c0,3-2.44,5.44-5.44,5.44h-57.793c-3,0-5.44-2.44-5.44-5.44
					V199.83c0-3,2.44-5.44,5.44-5.44h57.793c3,0,5.44,2.44,5.44,5.44V257.622z"/>
				<path id="XMLID_65_" style="fill:#F1B61E;" d="M352.543,183.941c0,1.905-1.546,3.449-3.453,3.449h-36.382
					c-1.907,0-3.453-1.544-3.453-3.449c0-1.905,1.546-3.449,3.453-3.449h36.382C350.997,180.492,352.543,182.036,352.543,183.941z"
					/>
			</g>
		</g>
		<g id="XMLID_148_">
			<g>
				<rect id="XMLID_159_" x="617.249" y="139.618" style="fill:#FEDF62;" width="11.178" height="5.366"/>
				<path id="XMLID_157_" style="fill:#F1B61E;" d="M617.248,137.634c0.652,0,1.18,0.529,1.18,1.182v6.974
					c0,0.653-0.528,1.182-1.18,1.182s-1.18-0.529-1.18-1.182v-6.974C616.068,138.163,616.596,137.634,617.248,137.634z"/>
			</g>
			<g>
				<rect id="XMLID_155_" x="623.071" y="135.686" style="fill:#FEDF62;" width="5.356" height="13.111"/>
				<path id="XMLID_153_" style="fill:#F1B61E;" d="M622.266,134.624h6.964c0.652,0,1.18,0.529,1.18,1.182l0,0
					c0,0.653-0.528,1.182-1.18,1.182h-6.964c-0.652,0-1.18-0.529-1.18-1.182l0,0C621.086,135.153,621.615,134.624,622.266,134.624z"
					/>
				<path id="XMLID_151_" style="fill:#F1B61E;" d="M622.266,147.617h6.964c0.652,0,1.18,0.529,1.18,1.182
					c0,0.653-0.528,1.182-1.18,1.182h-6.964c-0.652,0-1.18-0.529-1.18-1.182C621.086,148.146,621.615,147.617,622.266,147.617z"/>
			</g>
		</g>
		<g id="XMLID_12_">
			<g>
				<rect id="XMLID_146_" x="541.426" y="1.387" style="fill:#FEDF62;" width="5.366" height="13.179"/>
				<path id="XMLID_144_" style="fill:#F1B61E;" d="M548.776,1.386c0,0.652-0.529,1.18-1.182,1.18h-6.974
					c-0.653,0-1.182-0.528-1.182-1.18c0-0.652,0.529-1.18,1.182-1.18h6.974C548.247,0.206,548.776,0.735,548.776,1.386z"/>
			</g>
			<g>
				<rect id="XMLID_142_" x="537.612" y="9.21" style="fill:#FEDF62;" width="13.111" height="5.356"/>
				<path id="XMLID_15_" style="fill:#F1B61E;" d="M551.786,8.405v6.964c0,0.652-0.529,1.18-1.182,1.18l0,0
					c-0.653,0-1.182-0.528-1.182-1.18V8.405c0-0.652,0.529-1.18,1.182-1.18l0,0C551.256,7.225,551.786,7.753,551.786,8.405z"/>
				<path id="XMLID_13_" style="fill:#F1B61E;" d="M538.793,8.405v6.964c0,0.652-0.529,1.18-1.182,1.18s-1.182-0.528-1.182-1.18
					V8.405c0-0.652,0.529-1.18,1.182-1.18S538.793,7.753,538.793,8.405z"/>
			</g>
		</g>
		<g id="XMLID_9_">
			<path style="fill:#FEDF62;" d="M462.999,9.344c-2.418,0-4.386-1.967-4.386-4.386V1.245h-5.087v3.713
				c0,5.224,4.25,9.474,9.473,9.474h3.804V9.344H462.999z"/>
			<path id="XMLID_11_" style="fill:#F1B61E;" d="M452.738,0l6.837,0c0.688,0,1.245,0.557,1.245,1.245
				c0,0.688-0.557,1.245-1.245,1.245h-6.837c-0.688,0-1.245-0.557-1.245-1.245C451.492,0.557,452.05,0,452.738,0z"/>
			<path id="XMLID_10_" style="fill:#F1B61E;" d="M466.803,7.423c0.688,0,1.245,0.557,1.245,1.245v6.837
				c0,0.688-0.557,1.245-1.245,1.245c-0.688,0-1.245-0.557-1.245-1.245V8.669C465.558,7.981,466.115,7.423,466.803,7.423z"/>
		</g>
		<g id="XMLID_95_">
			<path style="fill:#FEDF62;" d="M596.296,139.693c-2.418,0-4.386-1.967-4.386-4.386v-3.713h-5.087v3.713
				c0,5.224,4.25,9.474,9.473,9.474h3.804v-5.088H596.296z"/>
			<path id="XMLID_8_" style="fill:#F1B61E;" d="M586.034,130.35h6.837c0.688,0,1.245,0.557,1.245,1.245
				c0,0.688-0.557,1.245-1.245,1.245h-6.837c-0.688,0-1.245-0.557-1.245-1.245C584.789,130.907,585.347,130.35,586.034,130.35z"/>
			<path id="XMLID_100_" style="fill:#F1B61E;" d="M600.1,137.773c0.688,0,1.245,0.557,1.245,1.245v6.837
				c0,0.688-0.557,1.245-1.245,1.245c-0.688,0-1.245-0.557-1.245-1.245v-6.837C598.855,138.331,599.412,137.773,600.1,137.773z"/>
		</g>
		<g>
			<path style="fill:#FEDF62;" d="M623.049,197.786v5.887h-3.83h-0.242h-14.312v15.691h7.936v-0.007
				c8.746-0.077,15.814-6.919,15.814-15.684v-5.887H623.049z"/>
			<path id="XMLID_63_" style="fill:#F1B61E;" d="M608.124,201.315v20.403c0,1.909-1.55,3.457-3.462,3.457
				c-1.912,0-3.462-1.548-3.462-3.457v-20.403c0-1.909,1.55-3.457,3.462-3.457C606.574,197.858,608.124,199.406,608.124,201.315z"/>
			<path id="XMLID_61_" style="fill:#F1B61E;" d="M630.4,197.785c0,0.652-0.529,1.18-1.182,1.18h-6.974
				c-0.653,0-1.182-0.528-1.182-1.18c0-0.652,0.529-1.18,1.182-1.18h6.974C629.871,196.605,630.4,197.133,630.4,197.785z"/>
		</g>
		<g>
			<path style="fill:#FEDF62;" d="M618.776,9.21h-8.981V1.387h-5.366V9.21h-3.814v5.356h18.16c2.418,0,4.386,2.033,4.386,4.452
				v3.713h5.087v-3.713C628.249,13.794,623.999,9.21,618.776,9.21z"/>
			<g>
				<path id="XMLID_60_" style="fill:#F1B61E;" d="M629.038,23.976h-6.837c-0.688,0-1.245-0.557-1.245-1.245
					c0-0.688,0.557-1.245,1.245-1.245h6.837c0.688,0,1.245,0.557,1.245,1.245C630.283,23.418,629.726,23.976,629.038,23.976z"/>
				<path id="XMLID_58_" style="fill:#F1B61E;" d="M611.78,1.386c0,0.652-0.529,1.18-1.182,1.18h-6.974
					c-0.653,0-1.182-0.528-1.182-1.18c0-0.652,0.529-1.18,1.182-1.18h6.974C611.251,0.206,611.78,0.735,611.78,1.386z"/>
				<path id="XMLID_56_" style="fill:#F1B61E;" d="M614.789,8.405v6.964c0,0.652-0.529,1.18-1.182,1.18l0,0
					c-0.653,0-1.182-0.528-1.182-1.18V8.405c0-0.652,0.529-1.18,1.182-1.18l0,0C614.26,7.225,614.789,7.753,614.789,8.405z"/>
				<path id="XMLID_1_" style="fill:#F1B61E;" d="M601.797,8.405v6.964c0,0.652-0.529,1.18-1.182,1.18s-1.182-0.528-1.182-1.18
					V8.405c0-0.652,0.529-1.18,1.182-1.18S601.797,7.753,601.797,8.405z"/>
			</g>
		</g>
		<g>
			<g id="XMLID_77_">
				<g>
					<rect id="XMLID_80_" x="90.791" y="225.045" style="fill:#FEDF62;" width="14.668" height="15.682"/>
					<path id="XMLID_78_" style="fill:#F1B61E;" d="M105.462,246.526c-1.905,0-3.449-1.546-3.449-3.453v-20.381
						c0-1.907,1.544-3.453,3.449-3.453c1.905,0,3.449,1.546,3.449,3.453v20.381C108.911,244.98,107.367,246.526,105.462,246.526z"/>
				</g>
			</g>
			<g>
				<g>
					<g>
						<g>
							<path style="fill:#B3B3B3;" d="M47.267,185.615C21.162,185.615,0,206.777,0,232.882c0,26.105,21.162,47.267,47.267,47.267
								c26.105,0,47.267-21.162,47.267-47.267C94.534,206.777,73.372,185.615,47.267,185.615z M47.267,273.318
								c-22.332,0-40.436-18.104-40.436-40.436c0-22.332,18.104-40.436,40.436-40.436c22.332,0,40.436,18.104,40.436,40.436
								C87.703,255.214,69.599,273.318,47.267,273.318z"/>
						</g>
					</g>
				</g>
			</g>
		</g>
	</g>
	<circle style="fill:#808080;" cx="47.267" cy="232.882" r="40.436"/>
</g>
<g id="TuboPpal">
	<g>
		<path style="fill:#83DCFF;" d="M73.257,212.55c-3.324,0-6.418-1.585-8.392-4.24c-0.123-0.11-0.238-0.231-0.335-0.374
			c-1.188-1.758-3.158-2.808-5.274-2.816c-2.117,0.008-4.087,1.059-5.275,2.816c-1.952,2.889-5.196,4.614-8.679,4.614
			c-0.008,0-0.016-0.001-0.024-0.001s-0.016,0.001-0.024,0.001c-3.483,0-6.727-1.725-8.679-4.614
			c-1.192-1.764-3.173-2.818-5.298-2.818c-2.125,0-4.106,1.053-5.298,2.818c-1.952,2.889-5.196,4.614-8.679,4.614
			c-1.544,0-3.033-0.356-4.391-0.985c-3.849,6.19-6.078,13.492-6.078,21.317c0,22.332,18.104,40.436,40.436,40.436
			c22.332,0,40.436-18.104,40.436-40.436c0-8.619-2.705-16.602-7.301-23.164C78.483,211.514,75.944,212.55,73.257,212.55z"/>
		<g>
			<path style="fill:#0078D1;" d="M26.301,232.551c3.483,0,6.727-1.725,8.679-4.614c1.192-1.764,3.173-2.818,5.298-2.818
				c2.126,0,4.106,1.053,5.298,2.818c1.952,2.889,5.196,4.614,8.679,4.614c3.483,0,6.727-1.725,8.679-4.614
				c1.192-1.764,3.173-2.818,5.298-2.818c2.126,0,4.106,1.053,5.298,2.818c0.631,0.933,1.899,1.18,2.832,0.548
				c0.934-0.631,1.179-1.899,0.548-2.833c-1.952-2.889-5.196-4.614-8.679-4.614c-3.483,0-6.727,1.725-8.679,4.614
				c-1.192,1.764-3.173,2.818-5.298,2.818c-2.126,0-4.106-1.053-5.298-2.818c-1.952-2.889-5.196-4.614-8.679-4.614
				c-3.483,0-6.727,1.725-8.679,4.614c-1.192,1.764-3.172,2.818-5.298,2.818c-2.126,0-4.106-1.053-5.298-2.818
				c-0.631-0.933-1.899-1.179-2.832-0.548c-0.934,0.631-1.179,1.899-0.548,2.833C19.574,230.827,22.819,232.551,26.301,232.551z"/>
			<path style="fill:#0078D1;" d="M34.98,241.931c1.192-1.765,3.173-2.818,5.298-2.818c2.126,0,4.106,1.053,5.298,2.818
				c1.952,2.889,5.196,4.614,8.679,4.614c3.483,0,6.727-1.725,8.679-4.614c0.631-0.934,0.385-2.202-0.548-2.833
				c-0.934-0.631-2.202-0.385-2.832,0.548c-1.192,1.764-3.173,2.818-5.298,2.818s-4.106-1.053-5.298-2.818
				c-1.952-2.889-5.196-4.614-8.679-4.614c-3.483,0-6.727,1.725-8.679,4.614c-1.192,1.764-3.172,2.818-5.298,2.818
				s-4.106-1.053-5.298-2.818c-0.631-0.933-1.899-1.179-2.832-0.548c-0.934,0.631-1.179,1.899-0.548,2.833
				c1.952,2.889,5.196,4.614,8.679,4.614S33.029,244.82,34.98,241.931z"/>
			<path style="fill:#0078D1;" d="M76.912,253.64c-1.952-2.889-5.196-4.614-8.679-4.614c-3.483,0-6.727,1.725-8.679,4.614
				c-1.192,1.764-3.173,2.818-5.298,2.818s-4.106-1.053-5.298-2.818c-1.952-2.889-5.196-4.614-8.679-4.614
				c-3.483,0-6.727,1.725-8.679,4.614c-0.631,0.934-0.385,2.202,0.548,2.833c0.933,0.63,2.202,0.385,2.832-0.548
				c1.192-1.764,3.173-2.818,5.298-2.818c2.126,0,4.106,1.053,5.298,2.818c1.952,2.889,5.196,4.614,8.679,4.614
				c3.483,0,6.727-1.725,8.679-4.614c1.192-1.764,3.173-2.818,5.298-2.818c2.125,0,4.106,1.053,5.298,2.818
				c0.631,0.933,1.899,1.179,2.832,0.548C77.297,255.842,77.543,254.574,76.912,253.64z"/>
			<circle style="fill:#0078D1;" cx="57.047" cy="219.024" r="2.58"/>
			<circle style="fill:#0078D1;" cx="31.544" cy="213.262" r="4.167"/>
		</g>
	</g>
</g>
<g id="Gotas_7">
	<g>
		<g id="Gotas-Pares-7">
			<path style="fill:#0078D1;" d="M208.609,226.236l5.061,2.307l-4.836,2.746c-1.07,0.608-2.411,0.457-3.319-0.374l0,0
				c-1.157-1.059-1.237-2.855-0.178-4.012l0,0C206.167,225.995,207.488,225.726,208.609,226.236z"/>
			<path style="fill:#0078D1;" d="M172.605,227.835l5.061,2.307l-4.836,2.746c-1.07,0.608-2.411,0.457-3.319-0.374l0,0
				c-1.157-1.059-1.237-2.855-0.178-4.012l0,0C170.163,227.594,171.484,227.325,172.605,227.835z"/>
			<path style="fill:#0078D1;" d="M243.374,229.755l4.836-2.746l-5.061-2.307c-1.12-0.511-2.442-0.241-3.272,0.667l0,0
				c-1.059,1.157-0.979,2.953,0.178,4.012l0,0C240.963,230.212,242.303,230.363,243.374,229.755z"/>
			<path style="fill:#0078D1;" d="M136.619,229.433l5.061,2.307l-4.836,2.746c-1.07,0.608-2.411,0.457-3.319-0.374l0,0
				c-1.157-1.059-1.237-2.855-0.178-4.012l0,0C134.178,229.192,135.499,228.923,136.619,229.433z"/>
		</g>
		<g id="Gotas-Impares-7">
			<path style="fill:#0078D1;" d="M261.151,223.903l5.061,2.307l-4.836,2.746c-1.07,0.608-2.411,0.457-3.319-0.374l0,0
				c-1.157-1.059-1.237-2.855-0.178-4.012l0,0C258.71,223.662,260.031,223.392,261.151,223.903z"/>
			<path style="fill:#0078D1;" d="M226.611,225.437l5.061,2.307l-4.836,2.746c-1.07,0.608-2.411,0.457-3.319-0.374l0,0
				c-1.157-1.059-1.237-2.855-0.178-4.012l0,0C224.169,225.196,225.49,224.926,226.611,225.437z"/>
			<path style="fill:#0078D1;" d="M190.831,232.089l4.836-2.746l-5.061-2.307c-1.12-0.511-2.442-0.241-3.272,0.667l0,0
				c-1.059,1.157-0.979,2.953,0.178,4.012l0,0C188.42,232.545,189.761,232.696,190.831,232.089z"/>
			<path style="fill:#0078D1;" d="M154.827,233.688l4.836-2.746l-5.061-2.307c-1.12-0.511-2.442-0.241-3.272,0.667l0,0
				c-1.059,1.157-0.979,2.953,0.178,4.012l0,0C152.416,234.144,153.757,234.295,154.827,233.688z"/>
			<path style="fill:#0078D1;" d="M118.841,235.286l4.836-2.746l-5.061-2.307c-1.12-0.511-2.442-0.241-3.272,0.667l0,0
				c-1.059,1.157-0.979,2.953,0.178,4.012l0,0C116.431,235.742,117.771,235.894,118.841,235.286z"/>
		</g>
	</g>
</g>
<g id="CajaCasa">
	<g>
		<path style="fill:#83DCFF;" d="M356.889,208.553c-3.324,0-6.418-1.585-8.392-4.24c-0.123-0.11-0.238-0.231-0.335-0.374
			c-1.188-1.758-3.158-2.808-5.274-2.816c-2.116,0.008-4.087,1.059-5.275,2.816c-1.952,2.889-5.196,4.614-8.679,4.614
			c-0.008,0-0.016-0.001-0.024-0.001s-0.016,0.001-0.024,0.001c-3.483,0-6.727-1.725-8.679-4.614
			c-1.192-1.764-3.173-2.818-5.298-2.818c-2.125,0-4.106,1.053-5.298,2.818c-1.952,2.889-5.196,4.614-8.679,4.614
			c-1.536,0-3.017-0.353-4.37-0.976v50.044c0,3,2.44,5.44,5.44,5.44h57.793c3,0,5.44-2.44,5.44-5.44v-53.25
			C363.26,206.992,360.188,208.553,356.889,208.553z"/>
		<g>
			<path style="fill:#0078D1;" d="M309.933,228.555c3.483,0,6.727-1.725,8.679-4.614c1.192-1.764,3.173-2.818,5.298-2.818
				c2.126,0,4.106,1.053,5.298,2.818c1.952,2.889,5.196,4.614,8.679,4.614c3.483,0,6.727-1.725,8.679-4.614
				c1.192-1.764,3.173-2.818,5.298-2.818c2.126,0,4.106,1.053,5.298,2.818c0.631,0.933,1.899,1.18,2.832,0.548
				c0.934-0.631,1.179-1.899,0.549-2.833c-1.952-2.889-5.196-4.614-8.679-4.614c-3.483,0-6.727,1.725-8.679,4.614
				c-1.192,1.764-3.173,2.818-5.298,2.818c-2.126,0-4.106-1.053-5.298-2.818c-1.952-2.889-5.196-4.614-8.679-4.614
				c-3.483,0-6.727,1.725-8.679,4.614c-1.192,1.764-3.172,2.818-5.298,2.818c-2.125,0-4.106-1.053-5.298-2.818
				c-0.631-0.933-1.899-1.179-2.832-0.548c-0.934,0.631-1.179,1.899-0.548,2.833C303.206,226.83,306.45,228.555,309.933,228.555z"/>
			<path style="fill:#0078D1;" d="M318.612,237.935c1.192-1.765,3.173-2.818,5.298-2.818c2.126,0,4.106,1.053,5.298,2.818
				c1.952,2.889,5.196,4.614,8.679,4.614c3.483,0,6.727-1.725,8.679-4.614c0.631-0.934,0.385-2.202-0.548-2.833
				c-0.934-0.631-2.202-0.385-2.832,0.548c-1.192,1.764-3.173,2.818-5.298,2.818s-4.106-1.053-5.298-2.818
				c-1.952-2.889-5.196-4.614-8.679-4.614c-3.483,0-6.727,1.725-8.679,4.614c-1.192,1.764-3.172,2.818-5.298,2.818
				s-4.106-1.053-5.298-2.818c-0.631-0.933-1.899-1.179-2.832-0.548c-0.934,0.631-1.179,1.899-0.548,2.833
				c1.952,2.889,5.196,4.614,8.679,4.614S316.66,240.824,318.612,237.935z"/>
			<path style="fill:#0078D1;" d="M360.544,249.644c-1.952-2.889-5.196-4.614-8.679-4.614c-3.483,0-6.727,1.725-8.679,4.614
				c-1.192,1.764-3.173,2.818-5.298,2.818s-4.106-1.053-5.298-2.818c-1.952-2.889-5.196-4.614-8.679-4.614s-6.727,1.725-8.679,4.614
				c-0.631,0.934-0.385,2.202,0.548,2.833c0.933,0.63,2.202,0.385,2.832-0.548c1.192-1.764,3.173-2.818,5.298-2.818
				c2.126,0,4.106,1.053,5.298,2.818c1.952,2.889,5.196,4.614,8.679,4.614c3.483,0,6.727-1.725,8.679-4.614
				c1.192-1.764,3.173-2.818,5.298-2.818c2.125,0,4.106,1.053,5.298,2.818c0.631,0.933,1.899,1.179,2.832,0.548
				C360.929,251.845,361.174,250.577,360.544,249.644z"/>
			<circle style="fill:#0078D1;" cx="340.678" cy="215.028" r="2.58"/>
			<circle style="fill:#0078D1;" cx="315.175" cy="209.266" r="4.167"/>
		</g>
	</g>
</g>
<g id="Gotas_6">
	<g>
		<g id="Gotas-Pares-6">
			<path style="fill:#0078D1;" d="M575.229,209.921l5.061,2.307l-4.836,2.746c-1.07,0.608-2.411,0.457-3.319-0.374l0,0
				c-1.157-1.059-1.237-2.855-0.178-4.012l0,0C572.788,209.679,574.109,209.41,575.229,209.921z"/>
			<path style="fill:#0078D1;" d="M539.45,216.572l4.836-2.746l-5.061-2.307c-1.12-0.511-2.442-0.241-3.273,0.667l0,0
				c-1.059,1.157-0.979,2.953,0.178,4.012l0,0C537.039,217.029,538.379,217.18,539.45,216.572z"/>
			<path style="fill:#0078D1;" d="M503.446,218.171l4.836-2.746l-5.061-2.307c-1.12-0.511-2.442-0.241-3.272,0.667l0,0
				c-1.059,1.157-0.979,2.953,0.178,4.012l0,0C501.035,218.628,502.375,218.779,503.446,218.171z"/>
			<path style="fill:#0078D1;" d="M432.695,216.251l5.061,2.307l-4.836,2.746c-1.07,0.608-2.411,0.457-3.319-0.374l0,0
				c-1.157-1.059-1.237-2.855-0.178-4.012l0,0C430.253,216.01,431.575,215.74,432.695,216.251z"/>
			<path style="fill:#0078D1;" d="M396.691,217.85l5.061,2.307l-4.836,2.746c-1.07,0.608-2.411,0.457-3.319-0.374l0,0
				c-1.157-1.059-1.237-2.855-0.178-4.012l0,0C394.249,217.609,395.571,217.339,396.691,217.85z"/>
			<path style="fill:#0078D1;" d="M467.46,219.77l4.836-2.746l-5.061-2.307c-1.12-0.511-2.442-0.241-3.272,0.667l0,0
				c-1.059,1.157-0.979,2.953,0.178,4.012l0,0C465.05,220.226,466.39,220.377,467.46,219.77z"/>
		</g>
		<g id="Gotas-Impares-6">
			<path style="fill:#0078D1;" d="M557.227,210.72l5.061,2.307l-4.836,2.746c-1.07,0.608-2.411,0.457-3.319-0.374l0,0
				c-1.157-1.059-1.237-2.855-0.178-4.012l0,0C554.786,210.479,556.107,210.21,557.227,210.72z"/>
			<path style="fill:#0078D1;" d="M521.223,212.319l5.061,2.307l-4.836,2.746c-1.07,0.608-2.411,0.457-3.319-0.374l0,0
				c-1.157-1.059-1.237-2.855-0.178-4.012l0,0C518.782,212.078,520.103,211.809,521.223,212.319z"/>
			<path style="fill:#0078D1;" d="M591.993,214.239l4.836-2.746l-5.061-2.307c-1.12-0.511-2.442-0.241-3.273,0.667l0,0
				c-1.059,1.157-0.979,2.953,0.178,4.012l0,0C589.582,214.696,590.922,214.847,591.993,214.239z"/>
			<path style="fill:#0078D1;" d="M485.238,213.917l5.061,2.307l-4.836,2.746c-1.07,0.608-2.411,0.457-3.319-0.374l0,0
				c-1.157-1.059-1.237-2.855-0.178-4.012l0,0C482.796,213.676,484.118,213.407,485.238,213.917z"/>
			<path style="fill:#0078D1;" d="M449.234,215.516l5.061,2.307l-4.836,2.746c-1.07,0.608-2.411,0.457-3.319-0.374l0,0
				c-1.157-1.059-1.237-2.855-0.178-4.012l0,0C446.792,215.275,448.114,215.006,449.234,215.516z"/>
			<path style="fill:#0078D1;" d="M414.917,222.103l4.836-2.746l-5.061-2.307c-1.12-0.511-2.442-0.241-3.272,0.667l0,0
				c-1.059,1.157-0.979,2.953,0.178,4.012l0,0C412.507,222.56,413.847,222.711,414.917,222.103z"/>
		</g>
	</g>
</g>
<g id="Gotas_5">
	<g>
		<g id="Gotas-Impares-5">
			<path style="fill:#0078D1;" d="M624.232,156.909l1.517-2.972l1.517,2.972c0.336,0.658,0.21,1.457-0.313,1.979l0,0
				c-0.665,0.665-1.744,0.665-2.409,0l0,0C624.022,158.366,623.896,157.567,624.232,156.909z"/>
			<path style="fill:#0078D1;" d="M624.232,178.533l1.517-2.972l1.517,2.972c0.336,0.658,0.21,1.457-0.313,1.979l0,0
				c-0.665,0.665-1.744,0.665-2.409,0l0,0C624.022,179.99,623.896,179.19,624.232,178.533z"/>
		</g>
		<g id="Gotas-Pares-5">
			<path style="fill:#0078D1;" d="M627.266,167.721l-1.517-2.972l-1.517,2.972c-0.336,0.658-0.21,1.457,0.313,1.979l0,0
				c0.665,0.665,1.744,0.665,2.409,0l0,0C627.476,169.178,627.602,168.379,627.266,167.721z"/>
			<path style="fill:#0078D1;" d="M627.266,189.344l-1.517-2.972l-1.517,2.972c-0.336,0.658-0.21,1.457,0.313,1.979l0,0
				c0.665,0.665,1.744,0.665,2.409,0l0,0C627.476,190.802,627.602,190.002,627.266,189.344z"/>
		</g>
	</g>
</g>
<g id="Gotas_4">
	<g>
		<path id="Gotas-Impares-4" style="fill:#0078D1;" d="M604.73,143.954l-2.972-1.517l2.972-1.517
			c0.658-0.336,1.457-0.21,1.979,0.313l0,0c0.665,0.665,0.665,1.744,0,2.409l0,0C606.187,144.164,605.388,144.29,604.73,143.954z"/>
		<path id="Gotas-Pares-4" style="fill:#0078D1;" d="M613.142,140.919l-2.972,1.517l2.972,1.517c0.658,0.336,1.457,0.21,1.979-0.313
			l0,0c0.665-0.665,0.665-1.744,0-2.409l0,0C614.599,140.71,613.8,140.583,613.142,140.919z"/>
	</g>
</g>
<g id="Gotas_3">
	<g>
		<g id="Gotas-Impares-3">
			<path style="fill:#0078D1;" d="M624.214,52.417l1.517-2.972l1.517,2.972c0.336,0.658,0.21,1.457-0.313,1.979l0,0
				c-0.665,0.665-1.744,0.665-2.409,0l0,0C624.004,53.874,623.878,53.075,624.214,52.417z"/>
			<path style="fill:#0078D1;" d="M624.214,74.041l1.517-2.972l1.517,2.972c0.336,0.658,0.21,1.457-0.313,1.979l0,0
				c-0.665,0.665-1.744,0.665-2.409,0l0,0C624.004,75.498,623.878,74.698,624.214,74.041z"/>
			<path style="fill:#0078D1;" d="M624.214,94.786l1.517-2.972l1.517,2.972c0.336,0.658,0.21,1.457-0.313,1.979l0,0
				c-0.665,0.665-1.744,0.665-2.409,0l0,0C624.004,96.243,623.878,95.443,624.214,94.786z"/>
			<path style="fill:#0078D1;" d="M627.248,116.409l-1.517-2.972l-1.517,2.972c-0.336,0.658-0.21,1.457,0.313,1.979l0,0
				c0.665,0.665,1.744,0.665,2.409,0l0,0C627.458,117.866,627.584,117.067,627.248,116.409z"/>
			<path style="fill:#0078D1;" d="M627.248,31.672l-1.517-2.972l-1.517,2.972c-0.336,0.658-0.21,1.457,0.313,1.979l0,0
				c0.665,0.665,1.744,0.665,2.409,0l0,0C627.458,33.129,627.584,32.33,627.248,31.672z"/>
		</g>
		<g id="Gotas-Pares-3">
			<path style="fill:#0078D1;" d="M624.214,42.484l1.517-2.972l1.517,2.972c0.336,0.658,0.21,1.457-0.313,1.979l0,0
				c-0.665,0.665-1.744,0.665-2.409,0l0,0C624.004,43.941,623.878,43.142,624.214,42.484z"/>
			<path style="fill:#0078D1;" d="M624.214,105.597l1.517-2.972l1.517,2.972c0.336,0.658,0.21,1.457-0.313,1.979l0,0
				c-0.665,0.665-1.744,0.665-2.409,0l0,0C624.004,107.055,623.878,106.255,624.214,105.597z"/>
			<path style="fill:#0078D1;" d="M624.214,127.221l1.517-2.972l1.517,2.972c0.336,0.658,0.21,1.457-0.313,1.979l0,0
				c-0.665,0.665-1.744,0.665-2.409,0l0,0C624.004,128.678,623.878,127.879,624.214,127.221z"/>
			<path style="fill:#0078D1;" d="M627.248,63.229l-1.517-2.972l-1.517,2.972c-0.336,0.658-0.21,1.457,0.313,1.979l0,0
				c0.665,0.665,1.744,0.665,2.409,0l0,0C627.458,64.686,627.584,63.887,627.248,63.229z"/>
			<path style="fill:#0078D1;" d="M627.248,84.853l-1.517-2.972l-1.517,2.972c-0.336,0.658-0.21,1.457,0.313,1.979l0,0
				c0.665,0.665,1.744,0.665,2.409,0l0,0C627.458,86.31,627.584,85.51,627.248,84.853z"/>
		</g>
	</g>
</g>
<g id="Gotas_2">
	<g>
		<g id="Gotas-Impares-2">
			<path style="fill:#0078D1;" d="M559.454,13.405l-2.972-1.517l2.972-1.517c0.658-0.336,1.457-0.21,1.979,0.313l0,0
				c0.665,0.665,0.665,1.744,0,2.409l0,0C560.911,13.615,560.112,13.741,559.454,13.405z"/>
			<path style="fill:#0078D1;" d="M581.078,13.405l-2.972-1.517l2.972-1.517c0.658-0.336,1.457-0.21,1.979,0.313l0,0
				c0.665,0.665,0.665,1.744,0,2.409l0,0C582.535,13.615,581.736,13.741,581.078,13.405z"/>
		</g>
		<g id="Gotas-Pares-2">
			<path style="fill:#0078D1;" d="M570.266,10.37l-2.972,1.517l2.972,1.517c0.658,0.336,1.457,0.21,1.979-0.313l0,0
				c0.665-0.665,0.665-1.744,0-2.409l0,0C571.723,10.161,570.924,10.034,570.266,10.37z"/>
			<path style="fill:#0078D1;" d="M591.89,10.37l-2.972,1.517l2.972,1.517c0.658,0.336,1.457,0.21,1.979-0.313l0,0
				c0.665-0.665,0.665-1.744,0-2.409l0,0C593.347,10.161,592.547,10.034,591.89,10.37z"/>
		</g>
	</g>
</g>
<g id="Gotas_1">
	<g>
		<g id="Gotas-Impares-1">
			<path style="fill:#0078D1;" d="M497.08,13.405l-2.972-1.517l2.972-1.517c0.658-0.336,1.457-0.21,1.979,0.313l0,0
				c0.665,0.665,0.665,1.744,0,2.409l0,0C498.537,13.615,497.738,13.741,497.08,13.405z"/>
			<path style="fill:#0078D1;" d="M518.703,13.405l-2.972-1.517l2.972-1.517c0.658-0.336,1.457-0.21,1.979,0.313l0,0
				c0.665,0.665,0.665,1.744,0,2.409l0,0C520.161,13.615,519.361,13.741,518.703,13.405z"/>
			<path style="fill:#0078D1;" d="M476.335,10.37l-2.972,1.517l2.972,1.517c0.658,0.336,1.457,0.21,1.979-0.313l0,0
				c0.665-0.665,0.665-1.744,0-2.409l0,0C477.792,10.161,476.993,10.034,476.335,10.37z"/>
		</g>
		<g id="Gotas-Pares-1">
			<path style="fill:#0078D1;" d="M487.147,13.405l-2.972-1.517l2.972-1.517c0.658-0.336,1.457-0.21,1.979,0.313l0,0
				c0.665,0.665,0.665,1.744,0,2.409l0,0C488.604,13.615,487.804,13.741,487.147,13.405z"/>
			<path style="fill:#0078D1;" d="M507.892,10.37l-2.972,1.517l2.972,1.517c0.658,0.336,1.457,0.21,1.979-0.313l0,0
				c0.665-0.665,0.665-1.744,0-2.409l0,0C509.349,10.161,508.549,10.034,507.892,10.37z"/>
			<path style="fill:#0078D1;" d="M529.515,10.37l-2.972,1.517l2.972,1.517c0.658,0.336,1.457,0.21,1.979-0.313l0,0
				c0.665-0.665,0.665-1.744,0-2.409l0,0C530.972,10.161,530.173,10.034,529.515,10.37z"/>
		</g>
	</g>
</g>
</svg>
