<?xml version="1.0" encoding="utf-8"?>
<!-- Generator: Adobe Illustrator 21.0.0, SVG Export Plug-In . SVG Version: 6.00 Build 0)  -->
<svg version="1.1" xmlns="http://www.w3.org/2000/svg" xmlns:xlink="http://www.w3.org/1999/xlink" x="0px" y="0px"
	 viewBox="0 0 37.844 67" style="enable-background:new 0 0 37.844 67;" xml:space="preserve">
<g id="Onda_3">
	<circle id="XMLID_39_" style="opacity:0.2;fill:#FCEE21;" cx="18.922" cy="33.5" r="18.922"/>
</g>
<g id="Onda_2">
	<circle id="XMLID_38_" style="opacity:0.3;fill:#FCEE21;" cx="18.922" cy="33.5" r="13.411"/>
</g>
<g id="Onda_1">
	<circle id="XMLID_5_" style="opacity:0.4;fill:#FCEE21;" cx="18.85" cy="33.421" r="7.846"/>
</g>
<g id="Gotas_13">
	<g>
		<path style="fill:#008DD3;" d="M20.872,65.262l1.064-2.084L23,65.262c0.235,0.461,0.147,1.022-0.219,1.388l0,0
			c-0.467,0.467-1.223,0.467-1.689,0l0,0C20.725,66.284,20.636,65.723,20.872,65.262z"/>
		<path style="fill:#008DD3;" d="M17.918,62.735l1.064-2.084l1.064,2.084c0.235,0.461,0.147,1.022-0.219,1.388v0
			c-0.467,0.467-1.223,0.467-1.689,0v0C17.771,63.757,17.683,63.196,17.918,62.735z"/>
		<path style="fill:#008DD3;" d="M14.968,65.262l1.064-2.084l1.064,2.084c0.235,0.461,0.147,1.022-0.219,1.388l0,0
			c-0.467,0.467-1.223,0.467-1.689,0l0,0C14.821,66.284,14.732,65.723,14.968,65.262z"/>
	</g>
</g>
<g id="Gotas_12">
	<g>
		<path style="fill:#008DD3;" d="M20.871,60.208l1.064-2.084l1.064,2.084c0.235,0.461,0.147,1.022-0.219,1.388l0,0
			c-0.467,0.467-1.223,0.467-1.689,0l0,0C20.724,61.23,20.636,60.669,20.871,60.208z"/>
		<path style="fill:#008DD3;" d="M17.918,57.681l1.064-2.084l1.064,2.084c0.235,0.461,0.147,1.022-0.219,1.388v0
			c-0.467,0.467-1.223,0.467-1.689,0v0C17.771,58.703,17.682,58.142,17.918,57.681z"/>
		<path style="fill:#008DD3;" d="M14.967,60.208l1.064-2.084l1.064,2.084c0.235,0.461,0.147,1.022-0.219,1.388l0,0
			c-0.467,0.467-1.223,0.467-1.689,0l0,0C14.82,61.23,14.732,60.669,14.967,60.208z"/>
	</g>
</g>
<g id="Gotas_11">
	<g>
		<path style="fill:#008DD3;" d="M20.872,55.154l1.064-2.084L23,55.154c0.235,0.461,0.147,1.022-0.219,1.388l0,0
			c-0.467,0.467-1.223,0.467-1.689,0l0,0C20.725,56.175,20.636,55.615,20.872,55.154z"/>
		<path style="fill:#008DD3;" d="M17.919,52.627l1.064-2.084l1.064,2.084c0.235,0.461,0.147,1.022-0.219,1.388v0
			c-0.467,0.467-1.223,0.467-1.689,0v0C17.772,53.648,17.683,53.088,17.919,52.627z"/>
		<path style="fill:#008DD3;" d="M14.968,55.154l1.064-2.084l1.064,2.084c0.235,0.461,0.147,1.022-0.219,1.388l0,0
			c-0.467,0.467-1.223,0.467-1.689,0l0,0C14.821,56.175,14.732,55.615,14.968,55.154z"/>
	</g>
</g>
<g id="Gotas_10">
	<g>
		<path style="fill:#008DD3;" d="M20.873,50.099l1.064-2.084l1.064,2.084c0.235,0.461,0.147,1.022-0.219,1.388l0,0
			c-0.467,0.467-1.223,0.467-1.689,0l0,0C20.726,51.121,20.638,50.561,20.873,50.099z"/>
		<path style="fill:#008DD3;" d="M17.92,47.572l1.064-2.084l1.064,2.084c0.235,0.461,0.147,1.022-0.219,1.388v0
			c-0.467,0.467-1.223,0.467-1.689,0v0C17.773,48.594,17.684,48.034,17.92,47.572z"/>
		<path style="fill:#008DD3;" d="M14.969,50.099l1.064-2.084l1.064,2.084c0.235,0.461,0.147,1.022-0.219,1.388l0,0
			c-0.467,0.467-1.223,0.467-1.689,0l0,0C14.822,51.121,14.734,50.561,14.969,50.099z"/>
	</g>
</g>
<g id="Gotas_9">
	<g>
		<path style="fill:#008DD3;" d="M20.873,45.045l1.064-2.084l1.064,2.084c0.235,0.461,0.147,1.022-0.219,1.388l0,0
			c-0.467,0.467-1.223,0.467-1.689,0l0,0C20.726,46.067,20.638,45.506,20.873,45.045z"/>
		<path style="fill:#008DD3;" d="M17.92,42.518l1.064-2.084l1.064,2.084c0.235,0.461,0.147,1.022-0.219,1.388l0,0
			c-0.467,0.467-1.223,0.467-1.689,0l0,0C17.773,43.54,17.684,42.979,17.92,42.518z"/>
		<path style="fill:#008DD3;" d="M14.969,45.045l1.064-2.084l1.064,2.084c0.235,0.461,0.147,1.022-0.219,1.388l0,0
			c-0.467,0.467-1.223,0.467-1.689,0l0,0C14.822,46.067,14.734,45.506,14.969,45.045z"/>
	</g>
</g>
<g id="Gotas_8">
	<g>
		<path style="fill:#008DD3;" d="M20.873,39.991l1.064-2.084l1.064,2.084c0.235,0.461,0.147,1.022-0.219,1.388l0,0
			c-0.467,0.467-1.223,0.467-1.689,0l0,0C20.726,41.013,20.638,40.452,20.873,39.991z"/>
		<path style="fill:#008DD3;" d="M17.92,37.464l1.064-2.084l1.064,2.084c0.235,0.461,0.147,1.022-0.219,1.388l0,0
			c-0.467,0.467-1.223,0.467-1.689,0l0,0C17.773,38.486,17.684,37.925,17.92,37.464z"/>
		<path style="fill:#008DD3;" d="M14.969,39.991l1.064-2.084l1.064,2.084c0.235,0.461,0.147,1.022-0.219,1.388l0,0
			c-0.467,0.467-1.223,0.467-1.689,0l0,0C14.822,41.013,14.734,40.452,14.969,39.991z"/>
	</g>
</g>
<g id="Gotas_7">
	<g>
		<path style="fill:#008DD3;" d="M20.873,34.937l1.064-2.084l1.064,2.084c0.235,0.461,0.147,1.022-0.219,1.388l0,0
			c-0.467,0.467-1.223,0.467-1.689,0l0,0C20.726,35.958,20.638,35.398,20.873,34.937z"/>
		<path style="fill:#008DD3;" d="M17.92,32.41l1.064-2.084l1.064,2.084c0.235,0.461,0.147,1.022-0.219,1.388l0,0
			c-0.467,0.467-1.223,0.467-1.689,0l0,0C17.773,33.431,17.684,32.871,17.92,32.41z"/>
		<path style="fill:#008DD3;" d="M14.969,34.937l1.064-2.084l1.064,2.084c0.235,0.461,0.147,1.022-0.219,1.388l0,0
			c-0.467,0.467-1.223,0.467-1.689,0l0,0C14.822,35.958,14.734,35.398,14.969,34.937z"/>
	</g>
</g>
<g id="Gotas_6">
	<g>
		<path style="fill:#008DD3;" d="M20.873,29.882l1.064-2.084l1.064,2.084c0.235,0.461,0.147,1.022-0.219,1.388l0,0
			c-0.467,0.467-1.223,0.467-1.689,0l0,0C20.726,30.904,20.638,30.344,20.873,29.882z"/>
		<path style="fill:#008DD3;" d="M17.92,27.355l1.064-2.084l1.064,2.084c0.235,0.461,0.147,1.022-0.219,1.388l0,0
			c-0.467,0.467-1.223,0.467-1.689,0l0,0C17.773,28.377,17.684,27.817,17.92,27.355z"/>
		<path style="fill:#008DD3;" d="M14.969,29.882l1.064-2.084l1.064,2.084c0.235,0.461,0.147,1.022-0.219,1.388l0,0
			c-0.467,0.467-1.223,0.467-1.689,0l0,0C14.822,30.904,14.734,30.344,14.969,29.882z"/>
	</g>
</g>
<g id="Gotas_5">
	<g>
		<path style="fill:#008DD3;" d="M20.873,24.828l1.064-2.084l1.064,2.084c0.235,0.461,0.147,1.022-0.219,1.388l0,0
			c-0.467,0.467-1.223,0.467-1.689,0l0,0C20.726,25.85,20.638,25.289,20.873,24.828z"/>
		<path style="fill:#008DD3;" d="M17.92,22.301l1.064-2.084l1.064,2.084c0.235,0.461,0.147,1.022-0.219,1.388l0,0
			c-0.467,0.467-1.223,0.467-1.689,0l0,0C17.773,23.323,17.684,22.762,17.92,22.301z"/>
		<path style="fill:#008DD3;" d="M14.969,24.828l1.064-2.084l1.064,2.084c0.235,0.461,0.147,1.022-0.219,1.388l0,0
			c-0.467,0.467-1.223,0.467-1.689,0l0,0C14.822,25.85,14.734,25.289,14.969,24.828z"/>
	</g>
</g>
<g id="Gotas_4">
	<g>
		<path style="fill:#008DD3;" d="M20.873,19.774l1.064-2.084l1.064,2.084c0.235,0.461,0.147,1.022-0.219,1.388l0,0
			c-0.467,0.467-1.223,0.467-1.689,0l0,0C20.726,20.796,20.638,20.235,20.873,19.774z"/>
		<path style="fill:#008DD3;" d="M17.92,17.247l1.064-2.084l1.064,2.084c0.235,0.461,0.147,1.022-0.219,1.388l0,0
			c-0.467,0.467-1.223,0.467-1.689,0l0,0C17.773,18.269,17.684,17.708,17.92,17.247z"/>
		<path style="fill:#008DD3;" d="M14.969,19.774l1.064-2.084l1.064,2.084c0.235,0.461,0.147,1.022-0.219,1.388l0,0
			c-0.467,0.467-1.223,0.467-1.689,0l0,0C14.822,20.796,14.734,20.235,14.969,19.774z"/>
	</g>
</g>
<g id="Gotas_3">
	<g>
		<path style="fill:#008DD3;" d="M20.873,14.72l1.064-2.084l1.064,2.084c0.235,0.461,0.147,1.022-0.219,1.388v0
			c-0.467,0.467-1.223,0.467-1.689,0v0C20.726,15.741,20.638,15.181,20.873,14.72z"/>
		<path style="fill:#008DD3;" d="M17.92,12.193l1.064-2.084l1.064,2.084c0.235,0.461,0.147,1.022-0.219,1.388l0,0
			c-0.467,0.467-1.223,0.467-1.689,0l0,0C17.773,13.214,17.684,12.654,17.92,12.193z"/>
		<path style="fill:#008DD3;" d="M14.969,14.72l1.064-2.084l1.064,2.084c0.235,0.461,0.147,1.022-0.219,1.388v0
			c-0.467,0.467-1.223,0.467-1.689,0v0C14.822,15.741,14.734,15.181,14.969,14.72z"/>
	</g>
</g>
<g id="Gotas_2">
	<g>
		<path style="fill:#008DD3;" d="M20.873,9.665l1.064-2.084l1.064,2.084c0.235,0.461,0.147,1.022-0.219,1.388l0,0
			c-0.467,0.467-1.223,0.467-1.689,0l0,0C20.726,10.687,20.638,10.127,20.873,9.665z"/>
		<path style="fill:#008DD3;" d="M17.92,7.138l1.064-2.084l1.064,2.084c0.235,0.461,0.147,1.022-0.219,1.388l0,0
			c-0.467,0.467-1.223,0.467-1.689,0l0,0C17.773,8.16,17.684,7.6,17.92,7.138z"/>
		<path style="fill:#008DD3;" d="M14.969,9.665l1.064-2.084l1.064,2.084c0.235,0.461,0.147,1.022-0.219,1.388l0,0
			c-0.467,0.467-1.223,0.467-1.689,0l0,0C14.822,10.687,14.734,10.127,14.969,9.665z"/>
	</g>
</g>
<g id="Gotas_1">
	<g>
		<path style="fill:#008DD3;" d="M20.873,4.611l1.064-2.084l1.064,2.084c0.235,0.461,0.147,1.022-0.219,1.388l0,0
			c-0.467,0.467-1.223,0.467-1.689,0l0,0C20.726,5.633,20.638,5.072,20.873,4.611z"/>
		<path style="fill:#008DD3;" d="M17.92,2.084L18.984,0l1.064,2.084c0.235,0.461,0.147,1.022-0.219,1.388l0,0
			c-0.467,0.467-1.223,0.467-1.689,0l0,0C17.773,3.106,17.684,2.545,17.92,2.084z"/>
		<path style="fill:#008DD3;" d="M14.969,4.611l1.064-2.084l1.064,2.084c0.235,0.461,0.147,1.022-0.219,1.388l0,0
			c-0.467,0.467-1.223,0.467-1.689,0l0,0C14.822,5.633,14.734,5.072,14.969,4.611z"/>
	</g>
</g>
</svg>
