<?xml version="1.0" encoding="utf-8"?>
<!-- Generator: Adobe Illustrator 21.0.0, SVG Export Plug-In . SVG Version: 6.00 Build 0)  -->
<svg version="1.1" id="Capa_1" xmlns="http://www.w3.org/2000/svg" xmlns:xlink="http://www.w3.org/1999/xlink" x="0px" y="0px"
	 viewBox="0 0 242 61.34" style="enable-background:new 0 0 242 61.34;" xml:space="preserve">
<g>
	<g>
		<path style="opacity:0.2;fill-rule:evenodd;clip-rule:evenodd;" d="M6.257,8.636c-8.321,8.28-8.348,38.26-0.04,46.553
			c8.215,8.202,221.353,8.2,229.566,0c8.307-8.294,8.282-38.273-0.04-46.553C227.342,0.279,14.657,0.279,6.257,8.636z"/>
		<path style="fill-rule:evenodd;clip-rule:evenodd;fill:#FFFFFF;" d="M6.257,6.268c-8.321,8.28-8.348,38.26-0.04,46.553
			c8.215,8.202,221.353,8.2,229.566,0c8.307-8.294,8.282-38.273-0.04-46.553C227.342-2.089,14.657-2.089,6.257,6.268z"/>
		<path style="fill-rule:evenodd;clip-rule:evenodd;fill:#FEC31D;" d="M8.406,6.982C0.867,14.486,0.843,41.646,8.371,49.16
			c7.443,7.431,217.817,7.431,225.259,0c7.527-7.513,7.504-34.674-0.035-42.178C225.982-0.589,16.018-0.589,8.406,6.982z"/>
		<path style="fill-rule:evenodd;clip-rule:evenodd;fill:#C96900;" d="M233.629,43.482c-7.443,7.43-217.816,7.43-225.259,0
			c-3.344-3.339-5.199-10.557-5.566-18.204C2.349,34.812,4.202,45.001,8.371,49.16c7.441,7.431,217.817,7.431,225.259,0
			c4.168-4.16,6.022-14.348,5.564-23.882C238.829,32.925,236.974,40.143,233.629,43.482z"/>
		<path style="fill-rule:evenodd;clip-rule:evenodd;fill:#FFAC04;" d="M5.995,40.013c0.683,1.392,1.476,2.571,2.376,3.469
			c7.443,7.43,217.816,7.43,225.259,0c2.871-2.868,4.646-8.597,5.322-15.002C224.982,38.739,24.808,42.499,5.995,40.013z"/>
		<path style="fill-rule:evenodd;clip-rule:evenodd;fill:#FFD30E;" d="M8.406,6.982C6.147,9.231,4.56,13.246,3.652,17.968
			c13.05-13.564,222.948-15.729,234.027-2.89c-0.941-3.451-2.304-6.322-4.085-8.095C225.982-0.591,16.016-0.591,8.406,6.982z"/>
		<path style="fill-rule:evenodd;clip-rule:evenodd;fill:#FFEF91;" d="M14.349,5.17c-3.204,0.908-5.8,3.118-5.8,4.934
			s2.596,2.553,5.8,1.645c3.202-0.908,5.798-3.118,5.798-4.935C20.148,4.999,17.551,4.262,14.349,5.17z"/>
		<path style="fill-rule:evenodd;clip-rule:evenodd;fill:#FFEF91;" d="M23.961,3.881c-1.806,0.112-3.439,0.985-3.648,1.951
			c-0.212,0.965,1.083,1.655,2.889,1.541c1.805-0.112,3.437-0.985,3.648-1.951C27.058,4.459,25.765,3.768,23.961,3.881z"/>
		<path style="fill-rule:evenodd;clip-rule:evenodd;fill:#FEE147;" d="M229.8,39.402c-2.022,0.982-3.488,2.758-3.275,3.966
			c0.214,1.208,2.026,1.392,4.05,0.411c2.024-0.982,3.489-2.757,3.275-3.966C233.637,38.605,231.822,38.421,229.8,39.402z"/>
		<path style="fill-rule:evenodd;clip-rule:evenodd;fill:#FEE147;" d="M238.951,28.48c-0.676,6.405-2.451,12.133-5.322,15.002
			c-7.443,7.43-217.816,7.43-225.259,0c-0.899-0.898-1.692-2.077-2.376-3.469c-1.859-3.784-2.923-9.144-3.19-14.735
			c-0.053,1.112-0.074,2.234-0.065,3.353c0.007-0.772,0.028-1.544,0.065-2.312c0.367,7.649,2.222,14.866,5.566,18.204
			c7.443,7.43,217.816,7.43,225.259,0c3.344-3.338,5.199-10.555,5.564-18.204c0.037,0.768,0.059,1.541,0.067,2.316
			c0.009-1.121-0.013-2.245-0.067-3.358C239.144,26.356,239.062,27.427,238.951,28.48z"/>
		<path style="fill-rule:evenodd;clip-rule:evenodd;fill:#E6E6E6;" d="M6.217,51.544c-4.054-4.046-6.123-13.256-6.214-22.588
			c-0.095,9.758,1.976,19.634,6.214,23.865c8.215,8.2,221.35,8.2,229.566,0c4.236-4.23,6.308-14.107,6.214-23.865
			c-0.09,9.332-2.161,18.543-6.214,22.588C227.569,59.745,14.431,59.745,6.217,51.544z"/>
	</g>
	<path style="fill:#FFFFFF;" d="M43.793,35.98l2.998-6.718c3.742,2.45,6.643,3.675,8.701,3.675c0.751,0,1.458-0.218,2.119-0.653
		c0.751-0.48,1.127-1.073,1.127-1.779c0-1.065-1.39-1.951-4.17-2.657c-4.058-1.035-6.793-3.159-8.205-6.372
		c-0.467-1.051-0.699-2.042-0.699-2.973c0-2.401,1.217-4.218,3.651-5.449c1.909-0.961,4.186-1.441,6.831-1.441
		c2.344,0,5.094,0.309,8.25,0.925l-2.142,6.401c-2.375-1.082-4.313-1.623-5.815-1.623c-0.677,0-1.353,0.166-2.029,0.496
		c-0.812,0.392-1.217,0.911-1.217,1.558c0,0.617,0.533,1.264,1.601,1.94c0.751,0.481,2.179,1.136,4.282,1.964
		c1.818,0.722,3.111,1.421,3.878,2.098c1.156,1.023,1.772,2.393,1.848,4.107c0.136,2.844-1.172,5.408-3.922,7.695
		c-1.172,0.978-2.886,1.467-5.14,1.467C52.72,38.64,48.738,37.753,43.793,35.98z"/>
	<path style="fill:#FFFFFF;" d="M69.153,12.266c0.331,0,0.632,0.045,0.902,0.135c1.262,0.421,2.088,1.202,2.479,2.345
		c0.12,0.346,0.18,0.691,0.18,1.036c0,0.767-0.308,1.526-0.924,2.277c-0.887,1.082-1.908,1.57-3.065,1.465
		c-1.157-0.104-2.097-0.729-2.818-1.871c-0.33-0.525-0.496-1.06-0.496-1.601c0-0.69,0.24-1.42,0.722-2.187
		C67.154,12.799,68.162,12.266,69.153,12.266z M72.58,21.868c-0.24,5.575-0.541,11.105-0.901,16.591L65.907,39
		c0.211-2.345,0.315-4.727,0.315-7.146c0-3.006-0.165-6.057-0.495-9.152L72.58,21.868z"/>
	<path style="fill:#FFFFFF;" d="M92.732,33.207c0.706,1.548,1.06,2.765,1.06,3.651c0,0.947-0.662,2.021-1.984,3.224
		c-1.908,1.743-5.102,2.539-9.58,2.39c-4.463-0.136-7.025-1.232-7.686-3.291c-0.211-0.646-0.316-1.24-0.316-1.781
		c0-1.247,0.526-2.299,1.578-3.156c-0.466-1.111-0.698-2.313-0.698-3.606c0-1.277,0.796-2.427,2.39-3.449
		c-1.939-1.518-2.908-3.298-2.908-5.342c0-0.586,0.09-1.218,0.271-1.894c0.75-2.855,2.682-4.696,5.792-5.522
		c1.292-0.346,2.494-0.519,3.606-0.519c1.608,0,3.044,0.346,4.306,1.036c0.496-1.036,1.225-1.87,2.187-2.502l4.171,3.652
		c-1.623,0.33-2.607,1.052-2.953,2.164c0.946,0.991,1.359,2.6,1.239,4.823c-0.12,2.24-1.074,3.938-2.862,5.095
		c-1.293,0.842-3.119,1.263-5.478,1.263c-0.917,0-1.916-0.061-2.998-0.181c-1.338,0.391-2.007,0.925-2.007,1.601
		c0,0.226,0.075,0.466,0.226,0.722c2.66-0.677,4.981-1.007,6.966-0.992C90.057,30.608,91.95,31.479,92.732,33.207z M88.99,35.935
		c-0.226-0.872-0.887-1.308-1.983-1.308c-0.512,0-1.496,0.112-2.953,0.338c-3.006,0.466-4.486,1.127-4.441,1.983
		c0.03,0.691,1.112,1.037,3.246,1.037c0.391,0,0.954-0.022,1.691-0.067c2.975-0.181,4.463-0.751,4.463-1.713
		C89.013,36.114,89.005,36.025,88.99,35.935z M87.75,21.688c-0.075-1.082-0.428-1.78-1.06-2.096
		c-0.421-0.211-1.322-0.331-2.705-0.361c-2.404-0.045-3.629,0.632-3.674,2.029c-0.045,1.412,1.209,2.239,3.765,2.479
		c0.315,0.03,0.623,0.045,0.924,0.045C86.938,23.784,87.855,23.085,87.75,21.688z"/>
	<path style="fill:#FFFFFF;" d="M105.31,37.648l-0.248-2.209c-2.449,1.653-4.463,2.479-6.041,2.479
		c-1.548,0-2.667-0.812-3.358-2.435c-1.383-3.246-2.014-10.609-1.894-22.091l5.41-0.203c-0.105,2.705-0.158,5.087-0.158,7.146
		c0,7.515,0.729,11.271,2.187,11.271c0.826,0,1.894-1.082,3.201-3.246V13.798h5.229l-0.721,23.579L105.31,37.648z"/>
	<path style="fill:#FFFFFF;" d="M114.372,12.266c0.331,0,0.632,0.045,0.902,0.135c1.262,0.421,2.088,1.202,2.479,2.345
		c0.12,0.346,0.18,0.691,0.18,1.036c0,0.767-0.308,1.526-0.924,2.277c-0.887,1.082-1.908,1.57-3.065,1.465
		c-1.157-0.104-2.097-0.729-2.818-1.871c-0.33-0.525-0.496-1.06-0.496-1.601c0-0.69,0.24-1.42,0.722-2.187
		C112.373,12.799,113.381,12.266,114.372,12.266z M117.799,21.868c-0.24,5.575-0.541,11.105-0.901,16.591L111.126,39
		c0.211-2.345,0.315-4.727,0.315-7.146c0-3.006-0.165-6.057-0.495-9.152L117.799,21.868z"/>
	<path style="fill:#FFFFFF;" d="M124.741,28.563c0.676,2.27,2.111,3.457,4.306,3.563c2.043,0.105,3.426-0.97,4.147-3.224
		l6.312-0.902c-1.607,6.598-4.801,9.896-9.58,9.896c-1.473,0-3.118-0.338-4.937-1.015c-3.366-1.923-5.05-5.62-5.05-11.091
		c0-0.465,0.015-0.983,0.045-1.555c0.331-6.327,3.411-10.001,9.241-11.023c5.529-0.12,8.715,3.724,9.557,11.532L124.741,28.563z
		 M126.466,20.526c-0.834,0.985-1.289,2.176-1.364,3.573l8.453-2.411c-0.977-1.759-2.194-2.638-3.651-2.638
		C128.445,19.051,127.3,19.543,126.466,20.526z"/>
	<path style="fill:#FFFFFF;" d="M144.984,14.654l0.36,2.525c2.931-2.059,5.335-3.089,7.214-3.089c1.743,0,3.035,0.88,3.877,2.638
		c1.277,2.675,1.916,7.07,1.916,13.188c0,2.194-0.083,4.613-0.248,7.258l-6.086,0.203c0.48-3.246,0.721-5.988,0.721-8.228
		c0-2.735-0.36-4.712-1.082-5.929c-0.466-0.781-0.999-1.172-1.601-1.172c-1.157,0-2.569,1.359-4.237,4.08v11.925l-5.501-0.158
		l-0.924-22.339L144.984,14.654z"/>
	<path style="fill:#FFFFFF;" d="M158.307,25.317l-0.181-5.613l3.787-0.338l0.181-9.22l5.545-0.361l-0.541,9.13l5.207-0.474
		l0.361,5.613l-5.816,0.519c-0.015,0.631-0.022,1.232-0.022,1.804c0,5.244,0.684,7.957,2.052,8.137
		c1.502,0.196,2.592-0.954,3.269-3.448l3.967,0.541c-0.271,3.606-1.314,5.876-3.133,6.808c-1.293,0.661-2.826,0.991-4.599,0.991
		c-0.736,0-1.488-0.053-2.254-0.157c-2.751-0.376-4.179-5.125-4.283-14.247L158.307,25.317z"/>
	<path style="fill:#FFFFFF;" d="M183.058,28.563c0.676,2.27,2.111,3.457,4.306,3.563c2.043,0.105,3.426-0.97,4.147-3.224
		l6.312-0.902c-1.607,6.598-4.801,9.896-9.58,9.896c-1.473,0-3.118-0.338-4.937-1.015c-3.366-1.923-5.05-5.62-5.05-11.091
		c0-0.465,0.015-0.983,0.045-1.555c0.331-6.327,3.411-10.001,9.241-11.023c5.529-0.12,8.715,3.724,9.557,11.532L183.058,28.563z
		 M184.782,20.526c-0.834,0.985-1.289,2.176-1.364,3.573l8.453-2.411c-0.977-1.759-2.194-2.638-3.651-2.638
		C186.762,19.051,185.616,19.543,184.782,20.526z"/>
	<g>
		<path style="fill:#C96900;" d="M64.981,22.782c0.19,1.787,0.319,3.57,0.399,5.339c-0.291-1.322-0.936-2.433-1.929-3.312
			c-0.84-0.741-2.18-1.472-4.1-2.233c-2.051-0.808-3.448-1.446-4.156-1.899c-1.162-0.737-1.252-1.187-1.252-1.307
			c0-0.137,0-0.5,0.795-0.883c0.58-0.283,1.136-0.42,1.701-0.42c1.387,0,3.239,0.523,5.504,1.556l0.758,0.345l2.677-8.001
			L64.541,11.8c-3.19-0.623-6.014-0.938-8.394-0.938c-2.75,0-5.163,0.512-7.169,1.522c-2.696,1.364-4.063,3.422-4.063,6.119
			c0,1.034,0.257,2.136,0.763,3.274c1.503,3.42,4.432,5.707,8.707,6.797c2.658,0.675,3.604,1.44,3.604,1.931
			c0,0.278-0.081,0.699-0.79,1.153c-0.541,0.356-1.099,0.529-1.707,0.529c-1.901,0-4.69-1.195-8.291-3.553l-0.737-0.482
			l-3.687,8.261l0.761,0.273c5.003,1.794,9.108,2.704,12.201,2.704c2.424,0,4.315-0.552,5.619-1.641
			c2.4-1.995,3.762-4.237,4.102-6.672c0.003,0.259,0.011,0.52,0.011,0.778c0,2.393-0.105,4.774-0.313,7.078l-0.081,0.898
			l7.306-0.685l0.042-0.639c0.36-5.479,0.664-11.067,0.902-16.607l0.038-0.884l-8.464,1.03L64.981,22.782z M60.4,36.597
			c-2.405,2.009-7.746,1.667-15.59-1.054l2.311-5.178c3.542,2.233,6.286,3.321,8.372,3.321c0.897,0,1.749-0.262,2.523-0.771
			c1.217-0.779,1.473-1.741,1.473-2.411c0-1.955-2.703-2.868-4.734-3.384c-3.858-0.984-6.378-2.93-7.705-5.95
			c-0.421-0.948-0.635-1.845-0.635-2.668c0-2.114,1.06-3.677,3.239-4.779c1.794-0.903,3.979-1.361,6.494-1.361
			c2.074,0,4.515,0.253,7.266,0.752l-1.608,4.806c-2.147-0.911-3.908-1.355-5.365-1.355c-0.787,0-1.58,0.192-2.355,0.571
			c-1.356,0.654-1.641,1.575-1.641,2.233c0,0.9,0.638,1.742,1.946,2.572c0.798,0.511,2.241,1.176,4.41,2.03
			c1.73,0.687,2.961,1.347,3.658,1.962c1.007,0.892,1.529,2.063,1.596,3.582C64.178,32.132,62.983,34.448,60.4,36.597z
			 M71.792,22.72c-0.222,5.024-0.498,10.08-0.82,15.052l-4.243,0.398c0.162-2.067,0.243-4.188,0.243-6.315
			c0-2.78-0.143-5.635-0.424-8.497L71.792,22.72z"/>
		<path style="fill:#C96900;" d="M70.292,11.689c-0.346-0.115-0.729-0.173-1.139-0.173c-1.2,0-2.398,0.616-3.562,1.831l-0.094,0.12
			c-0.555,0.884-0.836,1.754-0.836,2.585c0,0.682,0.206,1.354,0.612,2.001c0.85,1.346,1.989,2.092,3.385,2.218
			c0.128,0.012,0.254,0.017,0.379,0.017c1.259,0,2.379-0.588,3.333-1.753c0.726-0.885,1.094-1.811,1.094-2.753
			c0-0.428-0.074-0.86-0.22-1.279C72.775,13.132,71.782,12.186,70.292,11.689z M71.21,17.583c-0.726,0.885-1.519,1.278-2.418,1.193
			c-0.919-0.083-1.656-0.582-2.25-1.523c-0.257-0.408-0.381-0.801-0.381-1.202c0-0.527,0.191-1.106,0.567-1.723
			c0.851-0.872,1.666-1.313,2.425-1.313c0.249,0,0.473,0.033,0.665,0.096c1.037,0.346,1.693,0.959,2.008,1.879
			c0.092,0.264,0.138,0.53,0.138,0.79C71.964,16.376,71.718,16.965,71.21,17.583z"/>
		<path style="fill:#C96900;" d="M82.858,38.735c0.401,0,0.979-0.022,1.737-0.068c2.218-0.135,5.167-0.537,5.167-2.462
			c0-0.131-0.011-0.262-0.032-0.392l-0.014-0.066c-0.181-0.698-0.773-1.87-2.71-1.87c-0.558,0-1.561,0.113-3.068,0.347
			c-2.41,0.374-5.166,1.025-5.075,2.758C78.939,38.735,81.787,38.735,82.858,38.735z M84.169,35.706
			c1.756-0.272,2.513-0.329,2.838-0.329c0.907,0,1.144,0.337,1.248,0.711c0.005,0.039,0.008,0.078,0.008,0.117
			c0,0.008-0.161,0.746-3.759,0.964c-0.717,0.044-1.266,0.066-1.646,0.066c-2.005,0-2.445-0.317-2.494-0.317
			c-0.001,0-0.001,0-0.002,0C80.401,36.847,80.836,36.223,84.169,35.706z"/>
		<path style="fill:#C96900;" d="M87.026,18.922c-0.335-0.168-1.014-0.396-3.027-0.441c-3.567-0.082-4.396,1.461-4.438,2.755
			c-0.041,1.288,0.697,2.898,4.443,3.25c0.34,0.033,0.671,0.048,0.995,0.048c1.355,0,2.302-0.31,2.893-0.946
			c0.462-0.498,0.665-1.156,0.605-1.955C88.403,20.274,87.907,19.361,87.026,18.922z M87.002,21.744
			c0.042,0.553-0.147,0.757-0.209,0.824C86.51,22.873,85.89,23.034,85,23.034c-0.277,0-0.562-0.014-0.854-0.042
			c-2.077-0.195-3.115-0.771-3.085-1.709c0.01-0.327,0.041-1.306,2.694-1.306c0.069,0,0.141,0.001,0.213,0.002
			c1.721,0.038,2.241,0.209,2.387,0.282c0.374,0.187,0.591,0.684,0.646,1.477V21.744z"/>
		<path style="fill:#C96900;" d="M110.492,18.053c0.85,1.346,1.988,2.092,3.384,2.218c0.128,0.012,0.255,0.017,0.38,0.017
			c1.259,0,2.379-0.588,3.334-1.753c0.726-0.885,1.094-1.811,1.094-2.753c0-0.428-0.074-0.86-0.22-1.279
			c-0.47-1.37-1.463-2.316-2.953-2.813c-0.346-0.115-0.729-0.173-1.139-0.173c-1.2,0-2.398,0.616-3.563,1.831l-0.093,0.12
			c-0.128,0.204-0.238,0.407-0.337,0.609l0.031-1.028h-6.753V28.15c-1.619,2.629-2.369,2.707-2.451,2.707
			c-0.015,0-1.437-0.286-1.437-10.521c0-2.039,0.053-4.434,0.157-7.116l0.032-0.809l-6.934,0.26l-0.008,0.715
			c0,0.018,0,0.034,0,0.051l-2.205-1.931l-0.478,0.313c-0.858,0.564-1.559,1.282-2.088,2.139c-2.174-0.957-4.776-1.06-7.791-0.253
			c-3.377,0.897-5.505,2.935-6.325,6.054c-0.196,0.735-0.296,1.437-0.296,2.087c0,1.991,0.821,3.766,2.445,5.29
			c-1.279,1.032-1.927,2.206-1.927,3.501c0,1.195,0.189,2.334,0.563,3.393c-0.958,0.938-1.442,2.068-1.442,3.37
			c0,0.617,0.119,1.295,0.352,2.011c0.776,2.417,3.516,3.663,8.375,3.812c0.354,0.012,0.7,0.018,1.04,0.018
			c4.13,0,7.179-0.874,9.07-2.603c1.5-1.364,2.229-2.6,2.229-3.778c0-1.003-0.368-2.299-1.126-3.961
			c-0.814-1.8-2.615-2.813-5.357-3.017c1.05-0.23,1.95-0.589,2.691-1.071c1.156-0.748,1.994-1.712,2.529-2.869
			c0.305,4.638,0.866,7.896,1.693,9.837c1.019,2.389,2.764,2.891,4.049,2.891c1.511,0,3.295-0.638,5.431-1.944l0.193,1.726
			l5.002-0.375l0.487-15.924l0.067,0.632c0.326,3.055,0.491,6.107,0.491,9.073c0,2.393-0.105,4.774-0.313,7.078l-0.081,0.898
			l7.306-0.685l0.042-0.639c0.36-5.479,0.664-11.067,0.902-16.607l0.038-0.884l-8.45,1.029l0.134-4.399
			C110.338,17.783,110.408,17.919,110.492,18.053z M111.947,14.329c0.85-0.872,1.666-1.313,2.425-1.313
			c0.249,0,0.473,0.033,0.665,0.096c1.036,0.346,1.693,0.959,2.009,1.879c0.091,0.264,0.138,0.53,0.138,0.79
			c0,0.594-0.246,1.184-0.754,1.802c-0.725,0.885-1.509,1.28-2.418,1.193c-0.92-0.083-1.656-0.582-2.251-1.523
			c-0.256-0.408-0.381-0.801-0.381-1.202C111.38,15.525,111.57,14.946,111.947,14.329z M89.934,27.551
			c-1.63,1.062-4.304,1.373-7.983,0.966L81.801,28.5l-0.144,0.042c-1.69,0.493-2.547,1.273-2.547,2.32
			c0,0.359,0.11,0.73,0.329,1.102l0.285,0.486l0.546-0.14c2.583-0.657,4.843-0.977,6.777-0.969c2.71,0.014,4.346,0.726,5.001,2.175
			l0.001,0.002c0.658,1.442,0.992,2.566,0.992,3.34c0,0.712-0.602,1.635-1.74,2.67c-1.749,1.598-4.792,2.338-9.052,2.193
			c-4.091-0.124-6.444-1.057-6.995-2.773c-0.186-0.568-0.28-1.09-0.28-1.549c0-1.019,0.425-1.86,1.301-2.575l0.435-0.354
			l-0.217-0.517c-0.425-1.013-0.64-2.129-0.64-3.316c0-1.014,0.669-1.936,2.045-2.818l0.89-0.57l-0.833-0.651
			c-1.763-1.379-2.62-2.934-2.62-4.751c0-0.52,0.083-1.092,0.246-1.703c0.683-2.598,2.403-4.229,5.262-4.988
			c1.223-0.327,2.37-0.493,3.412-0.493c1.474,0,2.801,0.318,3.945,0.944l0.695,0.38l0.342-0.714c0.357-0.747,0.84-1.362,1.466-1.867
			l2.301,2.015c-0.001,0.196,0,0.384,0,0.577c-0.88,0.482-1.48,1.157-1.755,2.043l-0.131,0.421l0.304,0.319
			c0.794,0.831,1.142,2.266,1.033,4.265C92.349,25.048,91.524,26.522,89.934,27.551z M83.343,30.143
			c-0.842,0.131-1.722,0.304-2.639,0.519c0.159-0.188,0.538-0.42,1.233-0.638C82.421,30.075,82.89,30.115,83.343,30.143z
			 M92.834,18.129c0.047-0.084,0.118-0.155,0.178-0.232c0.002,0.187,0.004,0.367,0.006,0.551
			C92.954,18.345,92.906,18.224,92.834,18.129z M108.188,36.68l-2.213,0.166l-0.306-2.722l-1.027,0.692
			c-2.311,1.561-4.202,2.352-5.621,2.352c-1.245,0-2.094-0.629-2.668-1.979c-1.189-2.789-1.806-8.913-1.845-18.206
			c0.179-0.054,0.355-0.109,0.56-0.151l1.483-0.302l-2.042-1.789c0.001-0.211,0.001-0.413,0.002-0.627l3.888-0.146
			c-0.086,2.376-0.129,4.515-0.129,6.366c0,8.539,0.851,12.021,2.937,12.021c1.15,0,2.335-1.113,3.843-3.608l0.108-0.179V14.548
			h3.706L108.188,36.68z M117.011,22.72c-0.223,5.024-0.498,10.08-0.82,15.052l-4.242,0.398c0.161-2.067,0.243-4.188,0.243-6.315
			c0-2.78-0.143-5.635-0.424-8.497L117.011,22.72z"/>
		<path style="fill:#C96900;" d="M134.21,21.324c-1.113-2.006-2.563-3.023-4.307-3.023c-1.681,0-3.03,0.585-4.01,1.741v0
			c-0.938,1.109-1.457,2.46-1.541,4.017l-0.057,1.05l10.373-2.959L134.21,21.324z M126.002,23.063
			c0.185-0.773,0.527-1.451,1.036-2.052c0.691-0.814,1.628-1.21,2.865-1.21c0.941,0,1.758,0.474,2.479,1.442L126.002,23.063z"/>
		<path style="fill:#C96900;" d="M171.424,30.869c-0.845,3.111-2.048,2.952-2.447,2.901c-0.144-0.02-1.399-0.387-1.399-7.394
			c0-0.36,0.003-0.732,0.009-1.116l5.876-0.524l-0.458-7.112l-5.106,0.465l0.54-9.108l-7.08,0.461l-0.181,9.236l-3.154,0.281
			c-0.257-0.964-0.559-1.819-0.91-2.556c-0.96-2.004-2.535-3.064-4.554-3.064c-1.827,0-4.008,0.834-6.641,2.545l-0.299-2.094
			l-7.003,1.13l0.248,5.995c-1.459-5.72-4.708-8.579-9.655-8.455l-0.113,0.011c-6.192,1.086-9.51,5.03-9.86,11.723
			c-0.031,0.586-0.046,1.118-0.046,1.594c0,5.734,1.826,9.685,5.428,11.742l0.11,0.052c1.894,0.704,3.642,1.062,5.198,1.062
			c4.331,0,7.468-2.503,9.364-7.432l0.307,7.411l6.972,0.2V26.342c1.99-3.193,3.099-3.543,3.487-3.543
			c0.315,0,0.638,0.271,0.955,0.805c0.648,1.093,0.978,2.959,0.978,5.546c0,2.191-0.24,4.923-0.713,8.118l-0.132,0.889l7.666-0.256
			l0.043-0.68c0.165-2.653,0.249-5.11,0.249-7.305c0-1.399-0.037-2.691-0.102-3.908l2.109-0.188
			c0.188,9.23,1.758,13.739,4.919,14.171c0.798,0.108,1.591,0.164,2.355,0.164c1.885,0,3.547-0.361,4.94-1.073
			c2.059-1.055,3.249-3.551,3.539-7.42l0.053-0.703l-5.319-0.726L171.424,30.869z M129.926,37.146c-1.361,0-2.915-0.318-4.617-0.946
			c-3.108-1.804-4.619-5.209-4.619-10.409c0-0.453,0.015-0.958,0.044-1.516c0.312-5.964,3.113-9.338,8.565-10.314
			c4.889-0.076,7.772,3.267,8.663,10.229l-14.159,3.85l0.22,0.736c0.763,2.561,2.487,3.978,4.985,4.098
			c1.581,0.079,3.65-0.439,4.743-3.295l4.74-0.678C136.9,34.445,134.091,37.146,129.926,37.146z M132.623,28.226l-0.143,0.447
			c-0.619,1.933-1.712,2.794-3.397,2.703c-1.637-0.079-2.721-0.815-3.362-2.303l13.331-3.625l0.076,1.847L132.623,28.226z
			 M157.396,36.447l-4.509,0.15c0.399-2.89,0.602-5.392,0.602-7.448c0-2.9-0.389-4.965-1.188-6.313
			c-0.608-1.02-1.364-1.538-2.245-1.538c-1.471,0-3.021,1.41-4.877,4.438l-0.11,0.181v11.365l-4.03-0.116l-0.867-20.975l4.179-0.674
			l0.426,2.98l1-0.703c5.139-3.609,8.427-3.995,9.983-0.742c1.223,2.561,1.843,6.889,1.843,12.864
			C157.602,31.891,157.532,34.085,157.396,36.447z M175.302,32.253c-0.32,2.905-1.215,4.752-2.662,5.493
			c-1.68,0.858-3.956,1.093-6.409,0.759c-1.302-0.178-3.505-2.17-3.635-13.513l-0.01-0.811L159.03,24.5l-0.132-4.111l3.751-0.335
			l0.181-9.203l4.01-0.261l-0.542,9.152l5.308-0.482l0.265,4.114l-5.755,0.513l-0.016,0.67c-0.015,0.637-0.022,1.245-0.022,1.821
			c0,5.896,0.834,8.635,2.704,8.881c1.246,0.158,2.891-0.316,3.9-3.362L175.302,32.253z"/>
		<path style="fill:#C96900;" d="M192.526,21.324c-1.113-2.006-2.563-3.023-4.307-3.023c-1.681,0-3.03,0.585-4.01,1.741v0
			c-0.938,1.109-1.457,2.46-1.541,4.017l-0.057,1.05l10.373-2.959L192.526,21.324z M184.318,23.063
			c0.185-0.773,0.527-1.451,1.036-2.052c0.691-0.814,1.628-1.21,2.865-1.21c0.941,0,1.758,0.474,2.479,1.442L184.318,23.063z"/>
		<path style="fill:#C96900;" d="M190.939,28.226l-0.143,0.447c-0.619,1.933-1.703,2.794-3.397,2.703
			c-1.637-0.079-2.721-0.815-3.362-2.303l13.876-3.773l-0.068-0.636c-0.888-8.226-4.377-12.35-10.319-12.202l-0.113,0.011
			c-6.192,1.086-9.51,5.03-9.86,11.723c-0.031,0.586-0.046,1.118-0.046,1.594c0,5.734,1.826,9.685,5.428,11.742l0.11,0.052
			c1.894,0.704,3.642,1.062,5.198,1.062c5.147,0,8.616-3.522,10.309-10.469l0.263-1.077L190.939,28.226z M188.242,37.146
			c-1.361,0-2.915-0.318-4.617-0.946c-3.108-1.804-4.619-5.209-4.619-10.409c0-0.453,0.015-0.958,0.044-1.516
			c0.312-5.964,3.113-9.338,8.565-10.314c0.059-0.001,0.116-0.001,0.175-0.001c4.826,0,7.608,3.352,8.488,10.231l-14.159,3.85
			l0.22,0.736c0.763,2.561,2.487,3.978,4.985,4.098c1.579,0.079,3.65-0.439,4.743-3.295l4.74-0.678
			C195.217,34.445,192.407,37.146,188.242,37.146z"/>
	</g>
</g>
</svg>
