<?xml version="1.0" encoding="utf-8"?>
<!-- Generator: Adobe Illustrator 21.0.0, SVG Export Plug-In . SVG Version: 6.00 Build 0)  -->
<svg version="1.1" id="Capa_1" xmlns="http://www.w3.org/2000/svg" xmlns:xlink="http://www.w3.org/1999/xlink" x="0px" y="0px"
	 viewBox="0 0 518.147 400.661" style="enable-background:new 0 0 518.147 400.661;" xml:space="preserve">
<g>
	<g>
		<g>
			<path style="fill-rule:evenodd;clip-rule:evenodd;fill:#054700;" d="M153.241,0H364.67c7.8,0,5.414,26.362,5.414,39.544H147.826
				C147.826,26.362,146.494,0,153.241,0z"/>
			<path style="fill-rule:evenodd;clip-rule:evenodd;fill:#CCCCCC;" d="M152.201,24.459c0.05-10.068,0.612-20.388,3.388-23.51
				C154.919,0.335,154.14,0,153.241,0c-4.654,0-5.464,12.54-5.517,24.647C149.195,24.582,150.689,24.519,152.201,24.459z"/>
			<path style="fill-rule:evenodd;clip-rule:evenodd;fill:#CCCCCC;" d="M362.468,0.821c3.197,2.921,3.591,13.16,3.46,23.244
				c1.507,0.052,3,0.104,4.475,0.159C370.571,12.251,369.986,0,364.67,0C363.834,0,363.105,0.288,362.468,0.821z"/>
		</g>
		<g>
			<path style="opacity:0.2;fill-rule:evenodd;clip-rule:evenodd;" d="M45.579,397.52c-21.191-5.701-39.604-26.446-41.181-49.038
				c-5.741-82.246-5.857-174.403-0.381-261.887C5.662,60.327,25.54,38.88,51.108,34.957c74.247-11.394,341.686-11.394,415.932,0
				c25.57,3.923,45.449,25.372,47.092,51.638c5.473,87.483,5.357,179.642-0.381,261.887c-1.574,22.588-19.99,43.333-41.18,49.038
				C457.004,401.707,61.141,401.709,45.579,397.52z"/>
			<path style="fill-rule:evenodd;clip-rule:evenodd;fill:#FFFFFF;" d="M46.828,391.366c-21.1-5.701-39.44-26.443-41.009-49.035
				C0.102,260.083-0.012,167.928,5.441,80.442c1.638-26.268,21.43-47.713,46.894-51.638c73.937-11.394,339.545-11.394,413.481,0
				c25.461,3.924,45.258,25.37,46.894,51.638c5.452,87.483,5.33,179.641-0.382,261.889c-1.568,22.584-19.908,43.337-41.004,49.035
				C455.823,395.551,62.325,395.554,46.828,391.366z"/>
			<path style="fill-rule:evenodd;clip-rule:evenodd;fill:#C96900;" d="M53.889,382.36c-20.495-5.538-38.309-25.681-39.836-47.633
				c-5.557-79.89-5.666-166.675-0.366-251.655c1.59-25.513,20.821-46.349,45.551-50.16c71.82-11.069,327.854-11.069,399.674,0
				c24.731,3.811,43.963,24.653,45.552,50.16c5.295,84.98,5.18,171.765-0.368,251.655c-1.522,21.942-19.344,42.098-39.835,47.633
				C449.207,386.425,68.944,386.426,53.889,382.36z"/>
			<path style="fill-rule:evenodd;clip-rule:evenodd;fill:#FEE147;" d="M9.827,178.493c0.205-28.055,1.493-57.475,3.86-95.422
				c1.59-25.514,20.821-46.349,45.551-50.16c71.82-11.067,327.854-11.067,399.674,0c24.731,3.811,43.963,24.652,45.552,50.16
				c2.364,37.948,3.651,67.367,3.856,95.422c-0.22,29.14-1.63,102.852-4.225,140.253c-1.522,21.939-19.342,42.096-39.836,47.633
				c-15.05,4.065-395.317,4.066-410.37,0c-20.495-5.537-38.309-25.683-39.835-47.633C11.453,281.347,10.043,207.634,9.827,178.493z"
				/>
			<path style="fill-rule:evenodd;clip-rule:evenodd;fill:#FFD30E;" d="M9.835,177.438c0.231-27.739,1.513-56.895,3.852-94.367
				c1.59-25.514,20.821-46.349,45.551-50.16c71.82-11.067,327.854-11.067,399.674,0c24.731,3.811,43.963,24.652,45.552,50.16
				c2.333,37.441,3.616,66.579,3.847,94.295c-0.243,28.799-1.65,102.266-4.215,139.23c-1.522,21.938-19.342,42.096-39.836,47.633
				c-15.05,4.065-395.317,4.066-410.37,0c-20.495-5.537-38.307-25.683-39.835-47.633C11.486,279.662,10.078,206.213,9.835,177.438z"
				/>
			<path style="fill-rule:evenodd;clip-rule:evenodd;fill:#FEE147;" d="M62.588,38.527c78.009-10.587,325.563-10.423,396.324,0.481
				c24.731,3.811,43.964,24.646,45.552,50.161c0.586,9.417,1.109,20.041,1.563,31.583c-0.006-2.49-0.027-4.954-0.049-7.386
				c-0.443-11.047-0.95-21.23-1.514-30.296c-1.589-25.514-20.821-46.349-45.552-50.16c-71.82-11.069-327.854-11.069-399.674,0
				c-24.73,3.811-43.959,24.641-45.551,50.16c-0.774,12.375-1.431,26.812-1.973,42.699c-0.036,2.901-0.066,5.837-0.091,8.806
				c0.559-16.955,1.247-32.332,2.064-45.406c0.812-12.999,6.2-24.778,14.558-33.713c-1.286,3.016-1.475,6.005-0.304,8.59
				c3.227,7.116,15.511,8.501,27.441,3.094c11.93-5.407,18.985-15.559,15.763-22.671C69.743,41.378,66.633,39.368,62.588,38.527z"/>
			<path style="fill-rule:evenodd;clip-rule:evenodd;fill:#FFAC04;" d="M361.776,318.254c-66.56,0-300.41-16.544-350.26-42.846
				c0.659,12.77,1.505,26.328,2.538,41.188c1.527,21.949,19.339,42.096,39.835,47.633c15.053,4.066,395.32,4.065,410.37,0
				c20.494-5.537,38.316-25.693,39.836-47.633c0.423-6.107,0.817-11.996,1.178-17.7
				C463.607,311.168,428.336,318.254,361.776,318.254z"/>
		</g>
		<g>
			<path style="opacity:0.2;fill-rule:evenodd;clip-rule:evenodd;" d="M158.182,21.553c58.052-4.638,149.298-6.388,201.958,0.58
				c0.088,7.532,0.816,23.186,0.816,26.692c0,5.206-4.455,9.463-9.896,9.463h-91.988h-91.989c-5.443,0-9.895-4.257-9.895-9.463
				C157.189,45.376,158.082,28.953,158.182,21.553z"/>
			<path style="fill-rule:evenodd;clip-rule:evenodd;fill:#FFFFFF;" d="M259.073,53.133h-90.308c-5.344,0-9.715-4.371-9.715-9.714
				C159.05,34.24,162.448,0,153.358,0h105.715h105.714c-9.09,0-5.693,34.24-5.693,43.419c0,5.343-4.371,9.714-9.716,9.714H259.073z"
				/>
			<path style="fill-rule:evenodd;clip-rule:evenodd;fill:#0DA401;" d="M259.073,46.738h-84.938c-5.027,0-9.138-3.845-9.138-8.545
				c0-8.073,3.196-38.193-5.355-38.193h99.431h99.429c-8.549,0-5.353,30.12-5.353,38.193c0,4.7-4.112,8.545-9.138,8.545H259.073z"/>
			<path style="fill-rule:evenodd;clip-rule:evenodd;fill:#E6E6E6;" d="M168.765,51.447c-5.168,0-9.426-4.089-9.701-9.192
				c-0.009,0.423-0.014,0.811-0.014,1.164c0,5.343,4.371,9.714,9.715,9.714h90.308h90.306c5.344,0,9.716-4.371,9.716-9.714
				c0-0.352-0.006-0.741-0.015-1.164c-0.273,5.103-4.532,9.192-9.701,9.192h-90.306H168.765z"/>
			<path style="fill-rule:evenodd;clip-rule:evenodd;fill:#0A8300;" d="M250.751,39.544c-28.738-1.586-55.735-4.569-80.784-9.11
				c-1.553-0.281-3.099-0.568-4.637-0.862c-0.013,0.32-0.028,0.636-0.042,0.946c-0.146,3.225-0.291,5.952-0.291,7.675
				c0,0.459,0.039,0.911,0.114,1.35c0.698,4.064,4.488,7.195,9.023,7.195h84.938h84.938c4.409,0,8.114-2.959,8.957-6.858
				C316.931,41.348,282.762,41.31,250.751,39.544z"/>
			<path style="fill-rule:evenodd;clip-rule:evenodd;fill:#41BA2F;" d="M164.445,6.169C228.106,2.97,291.34,2.607,354.294,4.121
				C355.199,1.583,356.542,0,358.502,0h-198.86C162.088,0,163.571,2.462,164.445,6.169z"/>
		</g>
		<g>
			<path style="fill-rule:evenodd;clip-rule:evenodd;fill:#FEE147;" d="M40.23,328.207c-16.596-43.229-13.548-159.615,0.065-212.343
				c13.739-53.223,423.882-53.223,437.621,0c13.61,52.728,16.501,168.51,0.065,212.343
				C464.545,364.031,53.668,363.198,40.23,328.207z"/>
			<path style="fill-rule:evenodd;clip-rule:evenodd;fill:#FE8D00;" d="M40.23,317.024c-16.596-43.227-13.548-159.614,0.065-212.343
				c13.739-53.223,423.882-53.223,437.621,0c13.61,52.729,16.501,168.51,0.065,212.343
				C464.545,352.849,53.668,352.015,40.23,317.024z"/>
			<path style="fill-rule:evenodd;clip-rule:evenodd;fill:#FEC31D;" d="M40.23,322.958c-16.596-43.789-13.548-161.682,0.065-215.093
				c13.739-53.913,423.882-53.913,437.621,0c13.61,53.411,16.501,170.692,0.065,215.093
				C464.545,359.246,53.668,358.403,40.23,322.958z"/>
		</g>
	</g>
</g>
</svg>
