<?xml version="1.0" encoding="utf-8"?>
<!-- Generator: Adobe Illustrator 21.0.0, SVG Export Plug-In . SVG Version: 6.00 Build 0)  -->
<svg version="1.1" xmlns="http://www.w3.org/2000/svg" xmlns:xlink="http://www.w3.org/1999/xlink" x="0px" y="0px"
	 viewBox="0 0 164.209 251.855" style="enable-background:new 0 0 164.209 251.855;" xml:space="preserve">
<g id="Brazo-Mano">
	<g id="XMLID_1_">
		<g id="XMLID_804_">
			
				<path id="XMLID_775_" style="fill:#EFC392;stroke:#994900;stroke-linecap:round;stroke-linejoin:round;stroke-miterlimit:10;" d="
				M132.542,133.122c0,0-0.678-2.457-3.744-4.686c-3.069-2.235-0.84-5.32-0.84-5.32s1.691-2.74,4.524-0.648
				c0,0,1.899,1.129,2.336,4.349c0,0,0.271,1.016,0.657,1.655c0.645,1.069,0.985,1.426,0.985,1.426s1.027,0.609,1.446-0.273
				c0,0,0.993-2.463,1.144-5.292c0.042-0.805,0.911-8.036,1.541-11.172c0.539-2.66,2.108-2.767,2.93-2.847
				c0.906-0.092,2.389,0.343,2.503,1.688c0.217,2.496-1.549,11.019-1.54,12.703l2.642-11.603c0,0,0.69-2.784,3.025-3.053
				c0,0,3.295-0.674,3.712,2.57c0,0,0.108,0.575-0.405,1.944c-0.518,1.366-4.006,12.075-4.006,12.075l5.409-11.695
				c0,0,0.861-1.701,2.362-1.878c1.498-0.171,3.418,0.871,3.575,2.834c0.135,1.716-0.471,2.651-0.471,2.651l-6.526,10.666
				l4.354-5.923c0,0,1.111-1.511,2.698-1.657c1.584-0.137,2.975,1.517,2.843,2.849c0,0,0.138-0.228-0.491,1.18
				c-0.648,1.452-5.612,7.657-5.612,7.657s-1.242,2.086-2.112,3.677c-0.895,1.628-4.58,9.161-9.787,9.654
				c-5.207,0.497-11.567-3.569-12.069-7.353C133.269,136.64,133.028,134.214,132.542,133.122z"/>
			<path id="XMLID_3_" style="fill:#994900;stroke:#994900;stroke-linecap:round;stroke-linejoin:round;stroke-miterlimit:10;" d="
				M144.099,126.235c0,0,3.435,7.535,9.146,9.45C153.245,135.685,151.177,135.318,144.099,126.235z"/>
			
				<path id="XMLID_553_" style="fill:#994900;stroke:#994900;stroke-linecap:round;stroke-linejoin:round;stroke-miterlimit:10;" d="
				M139.542,128.463c0,0,6.028,8.549,2.484,15.648C142.026,144.112,143.945,136.93,139.542,128.463z"/>
		</g>
		<path id="XMLID_500_" style="fill:#D1D3D4;" d="M92.203,167.502c0,0,27.877-5.72,41.046-29.339l12.955,8.737
			c0,0-19.826,27.915-54.228,30.319L92.203,167.502z"/>
		<polygon id="XMLID_2_" style="fill:#FFFFFF;" points="133.249,138.163 146.291,146.97 142.633,151.231 130.08,142.993 		"/>
	</g>
</g>
<g id="Cuerpo-Cabeza">
	<defs>
		<filter id="Adobe_OpacityMaskFilter" filterUnits="userSpaceOnUse" x="21.69" y="232.53" width="96.81" height="19.325">
			<feFlood  style="flood-color:white;flood-opacity:1" result="back"/>
			<feBlend  in="SourceGraphic" in2="back" mode="normal"/>
		</filter>
	</defs>
	<mask maskUnits="userSpaceOnUse" x="21.69" y="232.53" width="96.81" height="19.325" id="XMLID_7_">
	</mask>
	
		<ellipse id="XMLID_6_" transform="matrix(1 -0.0098 0.0098 1 -2.364 0.6967)" style="opacity:0.5;mask:url(#XMLID_7_);fill:#999999;" cx="70.096" cy="242.193" rx="48.407" ry="9.651"/>
	<g>
		<g id="XMLID_572_">
			<g id="XMLID_621_">
				<g id="XMLID_634_">
					<rect id="XMLID_639_" x="50.648" y="213.648" style="fill:#0071BC;" width="12.911" height="29.754"/>
				</g>
				<rect id="XMLID_633_" x="75.357" y="213.648" style="fill:#0071BC;" width="12.911" height="29.754"/>
				<path id="XMLID_630_" style="fill:#0071BC;" d="M95.597,206.877c-3.053,13.84-11.786,13.134-24.612,13.134h-2.272
					c-1.184,0-2.344,0.006-3.457,0.006c-10.932,0-18.378-0.583-21.154-13.14H95.597z"/>
				<path id="XMLID_627_" style="fill:#4C2B18;" d="M64.517,240.484c-0.378-0.494-0.873-1.02-1.519-1.421
					c-0.629-0.429-1.361-0.806-2.158-1.135c-0.797-0.33-1.658-0.631-2.572-0.839c-1.821-0.448-3.806-0.716-5.796-0.803
					c-0.997-0.035-2.024,0.024-2.969,0.081c-0.955,0.006-1.944,0.224-2.877,0.357c-0.47,0.069-0.914,0.242-1.352,0.371
					c-0.438,0.129-0.861,0.275-1.245,0.508c-0.807,0.356-1.469,0.905-2.01,1.456c-0.226,0.322-0.448,0.625-0.634,0.924
					c-0.11,0.337-0.214,0.655-0.312,0.955c-0.079,0.612-0.139,1.156-0.072,1.588c0.047,0.439,0.198,0.769,0.305,0.971
					c0.13,0.192,0.199,0.294,0.199,0.294s-0.014-0.031-0.031-0.064c0.021,0.033,0.045,0.064,0.068,0.096
					c-0.018-0.015-0.037-0.031-0.037-0.031s0.05,0.062,0.128,0.16c0.008,0.01,0.015,0.02,0.024,0.03
					c0.007,0.009,0.01,0.012,0.017,0.022c0.116,0.135,0.243,0.365,0.554,0.527c0.278,0.22,0.658,0.378,1.1,0.541
					c0.441,0.163,0.958,0.278,1.523,0.378c1.129,0.166,2.452,0.322,3.864,0.356c1.409,0.026,2.914,0.054,4.417,0.082
					c1.506-0.029,3.012-0.076,4.427-0.168c1.415-0.089,2.733-0.308,3.851-0.563c1.119-0.255,2.014-0.672,2.553-1.08
					c0.541-0.42,0.681-0.797,0.697-0.779c0,0-0.024,0.023-0.062,0.061c0.024-0.033,0.054-0.063,0.076-0.097
					c-0.004,0.01-0.014,0.036-0.014,0.036s0.017-0.029,0.039-0.068c0.012-0.019,0.022-0.039,0.033-0.058
					c0.028-0.049,0.058-0.102,0.103-0.182c0.066-0.098,0.129-0.223,0.152-0.397c0.031-0.157,0.105-0.39,0.066-0.598
					C65.078,241.577,64.847,241.002,64.517,240.484z"/>
				<path id="XMLID_624_" style="fill:#4C2B18;" d="M97.882,240.938c-0.098-0.3-0.202-0.62-0.312-0.957
					c-0.186-0.297-0.41-0.601-0.634-0.923c-0.542-0.552-1.203-1.102-2.01-1.458c-0.385-0.233-0.807-0.378-1.247-0.507
					c-0.438-0.13-0.882-0.303-1.351-0.371c-0.934-0.133-1.923-0.352-2.878-0.357c-0.945-0.057-1.972-0.116-2.969-0.081
					c-1.991,0.086-3.976,0.355-5.796,0.803c-0.914,0.208-1.775,0.51-2.574,0.839c-0.797,0.331-1.529,0.706-2.158,1.137
					c-0.646,0.4-1.141,0.927-1.519,1.419c-0.329,0.519-0.561,1.093-0.536,1.512c-0.04,0.208,0.035,0.439,0.066,0.596
					c0.024,0.176,0.087,0.3,0.152,0.397c0.044,0.076,0.072,0.126,0.1,0.174c0.013,0.024,0.026,0.048,0.041,0.072
					c0.018,0.032,0.035,0.061,0.035,0.061s-0.009-0.024-0.012-0.032c0.02,0.03,0.047,0.057,0.068,0.087
					c-0.035-0.035-0.055-0.054-0.055-0.054c0.016-0.018,0.158,0.359,0.697,0.779c0.539,0.407,1.436,0.825,2.553,1.08
					c1.118,0.255,2.436,0.473,3.851,0.563c1.416,0.092,2.922,0.139,4.427,0.168c1.504-0.028,3.009-0.056,4.418-0.082
					c1.412-0.034,2.735-0.19,3.864-0.356c0.564-0.1,1.081-0.215,1.523-0.378c0.442-0.163,0.822-0.321,1.1-0.541
					c0.311-0.163,0.438-0.393,0.554-0.527c0.008-0.01,0.011-0.013,0.018-0.022c0.008-0.009,0.014-0.018,0.022-0.027
					c0.08-0.099,0.13-0.161,0.13-0.161s-0.02,0.017-0.038,0.032c0.023-0.032,0.047-0.064,0.069-0.097
					c-0.016,0.035-0.031,0.065-0.031,0.065s0.069-0.102,0.199-0.296c0.107-0.201,0.258-0.53,0.305-0.97
					C98.021,242.094,97.961,241.55,97.882,240.938z"/>
			</g>
			<g id="XMLID_597_">
				<path id="XMLID_613_" style="fill:#CCCCCC;" d="M48.813,165.387c0,0-35.486,15.735-17.564,42.369l5.53-8.994
					c0,0-7.702-15.366,10.084-25.956L48.813,165.387z"/>
			</g>
			<g id="XMLID_585_">
				<g id="XMLID_589_">
					<path id="XMLID_596_" style="fill:#F7941E;" d="M96.81,191.142c0,6.554-0.412,11.698-1.213,15.735H44.102
						c-0.8-4.037-1.213-9.182-1.213-15.735c0-14.599,1.31-24.894,8.174-27.521c4.29-1.647,5.046-0.755,17.65-0.755h2.272
						c1.844,0,3.548-0.007,5.13-0.007c8.744,0,9.435-0.809,12.886,0.606C96.406,166.499,96.81,175.798,96.81,191.142z"/>
					<path id="XMLID_590_" style="fill:#FFFFFF;" d="M96.803,190.278c-0.021,2.344-0.097,4.5-0.227,6.48H43.126
						c-0.136-1.98-0.211-4.137-0.231-6.48h7.056c-1.251-17.446,2.227-28.074,2.669-29.342c0.016-0.054,0.032-0.092,0.038-0.113
						l0.155,0.059l2.89,1.052l3.045,1.107c-0.038,0.108-3.586,10.245-2.294,27.237h26.924c1.291-16.992-2.259-27.129-2.295-27.237
						l6.086-2.218c0.177,0.48,4.017,11.259,2.71,29.455H96.803z"/>
				</g>
				<g id="XMLID_586_">
					<polygon id="XMLID_588_" style="fill:#CCCCCC;" points="69,169.128 77.502,177.282 93.162,164.69 					"/>
					<polygon id="XMLID_587_" style="fill:#CCCCCC;" points="70.805,169.12 62.272,177.302 46.56,164.669 					"/>
				</g>
			</g>
			<g id="XMLID_577_">
				<path id="XMLID_584_" style="fill:#4C2B18;" d="M96.406,201.712c-0.198,1.915-0.467,3.63-0.809,5.165H44.102
					c-0.341-1.535-0.611-3.251-0.807-5.165H96.406z"/>
				<path id="XMLID_581_" style="fill:#FFD825;" d="M72.937,207.953h-6.176c-1.98,0-3.592-1.611-3.592-3.592
					c0-2.111,1.611-3.722,3.592-3.722h6.176c1.982,0,3.593,1.611,3.593,3.593C76.531,206.341,74.919,207.953,72.937,207.953z
					 M66.762,202.434c-0.99,0-1.796,0.807-1.796,1.797c0,1.119,0.806,1.925,1.796,1.925h6.176c0.99,0,1.797-0.806,1.797-1.796
					c0-1.119-0.807-1.926-1.797-1.926H66.762z"/>
			</g>
			<g id="XMLID_573_">
				<g id="XMLID_575_">
					
						<path id="XMLID_576_" style="fill:#EFC392;stroke:#994900;stroke-linecap:round;stroke-linejoin:round;stroke-miterlimit:10;" d="
						M52.372,208.366c-0.066,0.46-0.453,1.052-1.137,1.034c-0.905-0.018-3.324-0.214-5.282-0.806c0,0,2.735,1.181,4.755,1.644
						c0.592,0.132,1.559,0.378,1.559,1.269c0,0,0.249,1.598-1.412,1.412c0,0-0.791-0.006-1.504-0.221
						c-1.784-0.535-5.268-1.976-5.833-2.253c0,0,3.713,1.913,5.013,2.369c1.296,0.454,1.351,0.782,1.257,1.548
						c-0.103,0.765-0.378,1.311-1.374,1.153c-0.867-0.149-1.31-0.431-1.31-0.431l-5.678-2.859l3.067,1.775
						c0,0,0.999,0.356,0.882,1.166c-0.129,0.804-0.753,1.187-1.515,1.175c-0.681-0.015-1.194-0.126-1.822-0.614
						c-0.636-0.491-3.456-2.027-3.456-2.027s-0.672-0.617-1.355-1.239c-0.7-0.643-3.839-3.07-3.442-5.616
						c0,0-0.038-1.624,1.523-2.87l0.237-0.858c0,0,0.475-2.13,3.24-1.983c0,0,1.247,0.064,1.956,0.129
						c0.637,0.064,1.635,0.135,2.899,0.24l-0.108,2.572c-0.24-0.116-0.436-0.19-0.482-0.19c-0.186-0.009-0.423,0.434-0.037,0.743
						c0,0,1.099,0.789,2.479,1.211c0.398,0.122,3.716,0.686,5.716,0.97C52.58,207.003,52.437,207.944,52.372,208.366z"/>
				</g>
				<polygon id="XMLID_574_" style="fill:#FFFFFF;" points="38.481,200.346 36.779,198.762 31.249,207.756 32.666,209.217 				"/>
			</g>
		</g>
		<g id="XMLID_415_">
			
				<path id="XMLID_571_" style="fill:#EFC392;stroke:#994900;stroke-linecap:round;stroke-linejoin:round;stroke-miterlimit:10;" d="
				M123.204,126.295c-0.209,0.238-0.423,0.472-0.646,0.706c-0.223,0.236-0.454,0.469-0.696,0.702
				c-0.237,0.23-0.488,0.464-0.745,0.693c-0.258,0.23-0.525,0.458-0.8,0.686c-0.275,0.228-0.563,0.454-0.855,0.678
				c-0.296,0.225-0.597,0.446-0.91,0.668c-0.004-1.238-0.008-2.477-0.011-3.713c-0.006-1.237-0.008-2.475-0.011-3.713
				c-0.004-1.235-0.009-2.472-0.012-3.709c-0.006-1.238-0.008-2.475-0.011-3.713c-0.004-1.237-0.008-2.475-0.011-3.712
				c-0.006-1.238-0.008-2.475-0.011-3.713c0,0,0.095-0.157,0.271-0.401c0.174-0.246,0.43-0.578,0.749-0.929
				c0.32-0.348,0.7-0.713,1.128-1.024c0.429-0.313,0.905-0.568,1.412-0.701c0.504-0.13,1.04-0.136,1.592,0.054
				c0.549,0.191,1.116,0.576,1.678,1.229c0.418,0.489,0.837,1.143,1.206,1.933c0.373,0.791,0.698,1.714,0.931,2.743
				c0.235,1.026,0.381,2.159,0.393,3.362c0.014,1.203-0.108,2.476-0.402,3.789c-0.299,1.311-0.77,2.665-1.463,4.022
				C125.287,123.59,124.376,124.954,123.204,126.295z"/>
			
				<path id="XMLID_570_" style="fill:#EFC392;stroke:#994900;stroke-linecap:round;stroke-linejoin:round;stroke-miterlimit:10;" d="
				M17.96,126.949c0.209,0.235,0.425,0.468,0.649,0.703c0.222,0.231,0.456,0.464,0.699,0.694c0.243,0.231,0.493,0.461,0.749,0.691
				c0.261,0.228,0.528,0.456,0.807,0.681c0.276,0.225,0.562,0.449,0.859,0.672c0.294,0.224,0.598,0.443,0.913,0.663
				c-0.003-1.238-0.009-2.475-0.011-3.713c-0.003-1.237-0.007-2.475-0.011-3.713c-0.003-1.237-0.009-2.474-0.012-3.709
				c-0.003-1.238-0.007-2.476-0.011-3.715c-0.003-1.237-0.006-2.473-0.011-3.71c-0.003-1.237-0.006-2.475-0.011-3.712
				c0,0-0.098-0.158-0.273-0.401c-0.178-0.245-0.434-0.575-0.755-0.924c-0.319-0.346-0.703-0.708-1.135-1.018
				c-0.429-0.309-0.908-0.562-1.412-0.691c-0.508-0.126-1.044-0.129-1.594,0.064c-0.549,0.193-1.11,0.583-1.67,1.239
				c-0.416,0.489-0.83,1.148-1.197,1.94c-0.365,0.791-0.684,1.718-0.911,2.747c-0.229,1.029-0.367,2.163-0.372,3.365
				c-0.005,1.202,0.123,2.474,0.426,3.787c0.306,1.31,0.786,2.659,1.486,4.014C15.86,124.255,16.779,125.616,17.96,126.949z"/>
			
				<path id="XMLID_569_" style="fill:#EFC392;stroke:#994900;stroke-linecap:round;stroke-linejoin:round;stroke-miterlimit:10;" d="
				M34.823,155.569c-3.497-3.732-6.418-8.068-8.765-12.885c-2.32-4.764-4.076-9.996-5.268-15.571
				c-1.167-5.451-1.791-11.234-1.874-17.222c-0.091-6.006,0.485-12.023,1.806-17.886c1.288-5.699,3.23-11.062,5.739-15.962
				c2.51-4.902,5.587-9.34,9.148-13.187c3.008-3.25,6.358-6.079,10.003-8.405c3.67-2.347,7.639-4.183,11.847-5.433
				c4.3-1.276,8.762-1.889,13.245-1.903c4.574,0.002,8.966,0.655,13.125,1.883c4.158,1.228,8.084,3.03,11.723,5.33
				c3.638,2.301,6.991,5.099,10.007,8.318c3.583,3.825,6.689,8.245,9.227,13.13c2.539,4.887,4.513,10.239,5.837,15.928
				c1.356,5.855,1.969,11.867,1.915,17.874c-0.047,5.991-0.638,11.774-1.772,17.234c-1.156,5.579-2.881,10.823-5.173,15.601
				c-2.319,4.83-5.212,9.184-8.687,12.937c-2.886,3.12-6.174,5.821-9.862,8.031c-3.689,2.212-7.777,3.933-12.265,5.088
				c-4.751,1.223-9.672,1.739-14.575,1.699c-4.934-0.039-9.514-0.646-13.737-1.761c-4.35-1.145-8.322-2.827-11.919-4.977
				C40.922,161.262,37.679,158.616,34.823,155.569z"/>
			<path id="XMLID_568_" style="fill:#482E1D;" d="M135.736,100.114l0.025-2.42l0.045-4.229c-0.019-1.412,0.103-2.831-0.035-4.244
				l-0.326-4.245c-0.067-0.708-0.089-1.421-0.226-2.122l-0.337-2.113l-0.341-2.116c-0.093-0.709-0.266-1.406-0.435-2.103
				l-0.498-2.097c-0.174-0.699-0.312-1.405-0.549-2.092c-0.462-1.377-0.8-2.778-1.373-4.143c-0.028-0.07-0.054-0.14-0.081-0.21
				l3.326-0.503l1.179-0.484l0.595-3.141l0.176-2.529c-0.223-0.721-0.374-1.463-0.685-2.161l-0.846-2.121
				c-0.254-0.72-0.65-1.38-0.994-2.065c-0.369-0.67-0.677-1.379-1.105-2.019l-1.265-1.933c-0.408-0.656-0.939-1.223-1.406-1.837
				c-0.474-0.611-0.967-1.205-1.516-1.749c-0.544-0.547-1.048-1.141-1.63-1.648l-1.739-1.535l-1.846-1.398
				c-0.631-0.443-1.291-0.842-1.938-1.263c-0.412-0.249-0.838-0.476-1.259-0.709l0.896-0.601l4.954-3.325l-4.885-3.32l-1.888-1.284
				c-0.623-0.447-1.281-0.806-1.936-1.174c-0.658-0.354-1.301-0.77-1.977-1.07l-2.016-0.951c-0.675-0.311-1.362-0.556-2.045-0.835
				c-0.682-0.282-1.369-0.536-2.063-0.755c-1.38-0.486-2.773-0.893-4.174-1.255c-0.7-0.188-1.404-0.327-2.106-0.491
				c-0.702-0.168-1.407-0.3-2.113-0.429c-1.409-0.276-2.824-0.482-4.241-0.672c-1.195-0.152-2.394-0.265-3.597-0.362l0.465-3.311
				l0.686-4.892l-4.756-0.115c-1.602-0.039-3.214-0.202-4.81-0.122l-2.396,0.066l-2.379,0.204c-0.796,0.057-1.583,0.151-2.365,0.278
				c-0.784,0.118-1.571,0.219-2.35,0.354l-2.32,0.476c-0.778,0.144-1.53,0.369-2.295,0.554c-0.764,0.19-1.526,0.386-2.273,0.623
				c-0.749,0.232-1.508,0.437-2.248,0.694c-1.488,0.492-2.957,1.031-4.413,1.608c-1.017,0.415-2.024,0.854-3.026,1.309l-0.603-3.261
				l-1.105-5.987l-5.087,2.832l-4.479,2.494l-2.234,1.252c-0.73,0.438-1.41,0.95-2.116,1.423l-4.192,2.895
				c-1.333,1.044-2.642,2.117-3.959,3.175c-0.648,0.544-1.341,1.033-1.946,1.623l-1.868,1.71c-1.253,1.13-2.49,2.276-3.647,3.506
				c-1.188,1.197-2.361,2.409-3.471,3.695c-0.218,0.246-0.436,0.49-0.654,0.735l-3.576-3.348l-2.14,4.155
				c-0.71,1.38-1.525,2.715-2.12,4.133l-0.943,2.106l-0.826,2.138c-0.29,0.709-0.511,1.435-0.749,2.156
				c-0.225,0.724-0.497,1.437-0.683,2.169c-0.416,1.455-0.807,2.912-1.126,4.381c-0.343,1.464-0.616,2.939-0.866,4.414
				c-0.25,1.476-0.447,2.956-0.621,4.439c-0.16,1.484-0.27,2.972-0.342,4.465c-0.02,0.419-0.028,0.84-0.042,1.261l-2.415-0.392
				l-3.527-0.572l0.43,3.307l0.437,3.366c0.163,1.12,0.256,2.245,0.476,3.357l0.598,3.336c0.186,1.113,0.441,2.215,0.711,3.312
				l0.781,3.292L8,92.91c0.298,1.086,0.623,2.163,0.994,3.227l1.077,3.197l1.209,3.148c0.395,1.051,0.886,2.066,1.324,3.098
				c0.435,1.033,0.922,2.044,1.417,3.05c0.478,1.013,0.979,2.014,1.518,2.997c1.021,1.99,2.184,3.906,3.389,5.784
				c1.22,1.868,2.492,3.703,3.941,5.39c0,0-2.032-27.628,12.286-34.859c5.785-2.92,15.029,1.244,35.423,1.181
				c22.852-0.068,32.079-3.448,37.296,0.637c4.95,3.878,11.207,9.696,9.958,32.754l2.079-2.928l1.029-1.47
				c0.334-0.497,0.707-0.965,1.009-1.485l1.9-3.076l0.94-1.553l0.846-1.6l0.846-1.604c0.276-0.539,0.585-1.062,0.822-1.621
				l1.509-3.322l0.665-1.712c0.213-0.575,0.463-1.134,0.634-1.732l0.555-1.776c0.006-0.025,0.013-0.048,0.019-0.072l2.815,0.866
				L135.736,100.114z"/>
			<g id="XMLID_546_">
				<path id="XMLID_557_" style="fill:#FFFFFF;" d="M138.96,79.96c0.008,1.914-0.047,3.813-0.156,5.693
					c-13.149-4.125-39.451-6.882-69.736-6.791c-29.264,0.089-54.786,2.814-68.32,6.789c-0.102-1.741-0.158-3.502-0.164-5.274
					C0.45,36.173,31.339,6.425,69.548,6.309C107.765,6.194,138.826,35.756,138.96,79.96z"/>
				<path id="XMLID_556_" style="fill:#B3B3B3;" d="M69.812,94.762c-43.432,0.133-60.428,0.726-69.21-6.939
					c-5.425-4.736,26.423-10.448,69.857-10.579c43.436-0.129,75.319,5.388,69.921,10.156c-8.734,7.718-25.733,7.227-69.166,7.358
					L69.812,94.762z"/>
				<path id="XMLID_555_" style="fill:#808080;" d="M0.683,84.393c0,0,2.088-0.62,5.76-1.638c1.862-0.426,4.125-0.943,6.719-1.536
					c2.61-0.508,5.553-1.106,8.784-1.634c3.238-0.462,6.735-1.103,10.466-1.481c1.864-0.217,3.778-0.441,5.735-0.67
					c1.958-0.223,3.966-0.35,6.004-0.53c4.077-0.375,8.301-0.605,12.595-0.808c4.304-0.188,8.647-0.235,13.052-0.309
					c2.174,0.035,4.35,0.069,6.517,0.104c2.163,0.018,4.326,0.075,6.482,0.194c4.307,0.162,8.537,0.428,12.613,0.79
					c4.084,0.273,8.014,0.759,11.74,1.196c3.73,0.389,7.228,1.022,10.466,1.487c3.23,0.537,6.174,1.136,8.782,1.649
					c2.59,0.6,4.849,1.124,6.708,1.555c3.679,1.042,5.758,1.677,5.758,1.677s-2.152-0.384-5.877-1.116
					c-1.88-0.287-4.161-0.636-6.777-1.035c-2.627-0.314-5.59-0.668-8.824-1.054c-1.62-0.156-3.307-0.319-5.054-0.488
					c-1.744-0.18-3.546-0.368-5.408-0.489c-3.717-0.288-7.634-0.597-11.696-0.797c-2.028-0.103-4.092-0.258-6.179-0.324
					c-2.085-0.069-4.196-0.139-6.324-0.21c-4.243-0.213-8.622-0.118-12.964-0.197c-4.294,0.04-8.657,0.051-12.912,0.205
					c-4.262,0.19-8.464,0.253-12.52,0.549c-4.06,0.214-7.979,0.494-11.696,0.8c-1.861,0.124-3.665,0.299-5.41,0.483
					c-1.745,0.168-3.433,0.331-5.053,0.487c-3.234,0.382-6.197,0.732-8.825,1.042c-2.616,0.392-4.896,0.735-6.774,1.016
					C2.83,84.024,0.683,84.393,0.683,84.393z"/>
				<path id="XMLID_554_" style="fill:#E6E6E6;" d="M63.893,0.035c-5.397,0.016-8.826,4.331-7.627,9.594l6.341,49.465
					c1.201,5.256,13.001,5.221,14.169-0.043l6.077-49.502c1.168-5.27-2.29-9.565-7.685-9.549L63.893,0.035z"/>
			</g>
			<path id="XMLID_417_" style="fill:#C4884D;" d="M64.343,130.849c0.695-0.888,2.674,1.603,5.764,1.861
				c3.089,0.258,4.511-3,5.849-2.199c1.337,0.802-1.458,4.998-6.107,5.288S63.747,131.61,64.343,130.849z"/>
		</g>
	</g>
</g>
<g id="Ojos-Abiertos">
	<g>
		<g id="XMLID_471_">
			<path id="XMLID_543_" style="fill:#FFFFFF;" d="M45.921,108.27c-13.036,3.449-12.468,22.059,1.694,22.022
				C61.778,130.255,61.091,104.257,45.921,108.27z"/>
			
				<ellipse id="XMLID_542_" transform="matrix(0.0209 -0.9998 0.9998 0.0209 -72.4497 163.9692)" cx="47.493" cy="118.975" rx="6.962" ry="5.511"/>
			
				<ellipse id="XMLID_541_" transform="matrix(0.0209 -0.9998 0.9998 0.0209 -71.5848 157.7759)" style="fill:#FFFFFF;" cx="44.762" cy="115.437" rx="3.287" ry="3.287"/>
			
				<ellipse id="XMLID_540_" transform="matrix(0.0209 -0.9998 0.9998 0.0209 -73.556 168.7205)" style="fill:#FFFFFF;" cx="49.365" cy="121.916" rx="1.257" ry="1.257"/>
		</g>
		<g id="XMLID_444_">
			<path id="XMLID_459_" style="fill:#FFFFFF;" d="M93.278,108.1c12.88,3.991,11.535,22.561-2.614,21.932
				C76.515,129.403,78.289,103.456,93.278,108.1z"/>
			
				<ellipse id="XMLID_457_" transform="matrix(0.0209 -0.9998 0.9998 0.0209 -28.7973 208.0786)" cx="91.84" cy="118.742" rx="6.962" ry="5.511"/>
			
				<ellipse id="XMLID_446_" transform="matrix(0.0209 -0.9998 0.9998 0.0209 -27.9319 201.8852)" style="fill:#FFFFFF;" cx="89.109" cy="115.204" rx="3.287" ry="3.287"/>
			
				<ellipse id="XMLID_445_" transform="matrix(0.0209 -0.9998 0.9998 0.0209 -29.9036 212.8299)" style="fill:#FFFFFF;" cx="93.713" cy="121.683" rx="1.257" ry="1.257"/>
		</g>
	</g>
</g>
<g id="Ojos-Cerrados">
	<g>
		<g id="XMLID_4499_">
			<path id="XMLID_4655_" style="fill:#D39A66;" d="M58.112,121.211c0,0-4.658-13.187-12.51-12.384
				c-7.855,0.806-9.738,14.666-9.738,14.666S46.581,116.092,58.112,121.211z"/>
			<path id="XMLID_4621_" style="fill:#482E1D;" d="M34.537,123.951c0,0,1.226-1.084,3.331-2.353
				c1.058-0.622,2.323-1.327,3.775-1.878c0.712-0.316,1.492-0.52,2.267-0.795c0.797-0.189,1.603-0.438,2.436-0.563
				c0.833-0.129,1.666-0.293,2.508-0.317c0.419-0.025,0.837-0.062,1.251-0.068c0.412,0.015,0.82,0.059,1.222,0.091
				c0.4,0.056,0.797,0.09,1.175,0.169c0.375,0.107,0.74,0.215,1.09,0.337c0.349,0.117,0.689,0.23,1.018,0.34
				c0.32,0.132,0.61,0.311,0.896,0.455c0.565,0.307,1.077,0.586,1.5,0.88c0.406,0.328,0.748,0.622,1.016,0.879
				c0.55,0.49,0.828,0.798,0.829,0.798c0.043,0.048,0.039,0.122-0.009,0.165c-0.029,0.026-0.066,0.035-0.102,0.028l-0.015-0.003
				c0.002,0-0.423-0.089-1.101-0.294c-0.346-0.091-0.751-0.219-1.2-0.375c-0.463-0.11-0.985-0.235-1.555-0.371
				c-0.55-0.169-1.165-0.266-1.81-0.363c-0.321-0.048-0.647-0.112-0.979-0.182c-0.338-0.035-0.684-0.07-1.036-0.106
				c-0.349-0.051-0.703-0.124-1.064-0.166c-0.366-0.01-0.735-0.049-1.111-0.079c-0.751-0.103-1.518-0.026-2.292-0.009
				c-0.774,0.032-1.538,0.186-2.301,0.279c-0.747,0.182-1.504,0.294-2.207,0.521c-1.424,0.393-2.728,0.883-3.835,1.338
				c-2.21,0.938-3.56,1.826-3.56,1.826c-0.053,0.035-0.124,0.02-0.158-0.032C34.483,124.053,34.496,123.988,34.537,123.951z"/>
		</g>
		<g id="XMLID_2571_">
			<path id="XMLID_4490_" style="fill:#D39A66;" d="M80.786,121.501c0,0,4.658-13.187,12.51-12.384
				c7.852,0.806,9.738,14.666,9.738,14.666S92.315,116.384,80.786,121.501z"/>
			<path id="XMLID_4473_" style="fill:#482E1D;" d="M104.225,124.425c0,0-1.35-0.888-3.559-1.826
				c-1.109-0.454-2.413-0.944-3.837-1.338c-0.703-0.228-1.459-0.34-2.205-0.521c-0.765-0.093-1.529-0.249-2.303-0.279
				c-0.774-0.017-1.541-0.095-2.292,0.009c-0.375,0.029-0.744,0.068-1.109,0.078c-0.363,0.042-0.717,0.115-1.066,0.166
				c-0.352,0.036-0.698,0.072-1.036,0.106c-0.33,0.07-0.656,0.134-0.979,0.182c-0.646,0.096-1.26,0.194-1.81,0.363
				c-0.57,0.136-1.092,0.261-1.555,0.372c-0.449,0.156-0.854,0.284-1.2,0.375c-0.678,0.205-1.103,0.294-1.101,0.294l-0.016,0.003
				c-0.063,0.013-0.125-0.027-0.137-0.09c-0.009-0.038,0.003-0.076,0.026-0.103c0.002,0,0.28-0.308,0.829-0.799
				c0.269-0.256,0.61-0.551,1.016-0.879c0.423-0.294,0.934-0.573,1.5-0.88c0.286-0.144,0.576-0.323,0.896-0.455
				c0.329-0.11,0.669-0.223,1.018-0.34c0.351-0.121,0.715-0.23,1.09-0.337c0.378-0.08,0.775-0.113,1.175-0.169
				c0.402-0.031,0.809-0.076,1.222-0.09c0.414,0.006,0.833,0.043,1.251,0.068c0.842,0.024,1.676,0.188,2.508,0.317
				c0.833,0.126,1.639,0.375,2.436,0.563c0.775,0.275,1.555,0.48,2.267,0.795c1.452,0.551,2.717,1.256,3.775,1.878
				c2.105,1.27,3.331,2.354,3.331,2.354c0.048,0.04,0.054,0.112,0.014,0.161C104.338,124.447,104.273,124.455,104.225,124.425z"/>
		</g>
	</g>
</g>
<g id="Cejas">
	<g id="XMLID_418_">
		<path id="XMLID_544_" style="fill:#482E1D;" d="M55.562,103.893c2.166-3.614-5.289-6.523-9.726-6.615
			c-4.437-0.093-10.529,8.165-9.584,10.157c0.945,1.993,4.526-5.428,9.95-5.314S53.517,107.303,55.562,103.893z"/>
		<path id="XMLID_470_" style="fill:#482E1D;" d="M83.829,103.324c-2.013-3.701,5.557-6.296,9.994-6.203
			c4.437,0.093,10.178,8.598,9.151,10.549c-1.027,1.951-4.296-5.612-9.719-5.726C87.832,101.831,85.729,106.816,83.829,103.324z"/>
	</g>
</g>
<g id="Boca_3">
	<g>
		<path id="XMLID_565_" d="M94.487,143.771c0.012,3.668-2,8.852-6.081,13.064c-3.943,4.08-9.823,7.248-17.683,7.273
			c-7.86,0.023-13.758-3.11-17.729-7.165c-4.103-4.189-6.146-9.363-6.157-13.029c-0.011-3.349,2.289-4.13,6.074-4.002l0.032,0.001
			c0.003-0.001,0.003-0.001,0.003-0.001c4.362,0.15,10.68,1.484,17.707,1.463c6.809-0.021,12.948-1.31,17.289-1.547l0.013,0
			c0.007,0.001,0.016,0,0.022-0.001C92.005,139.605,94.475,140.302,94.487,143.771z"/>
		<path id="XMLID_559_" style="fill:#FFFFFF;" d="M55.128,144.797c0.86,0.704,1.987,1.227,3.391,1.613
			c1.312,0.362,2.87,0.599,4.691,0.752c1.668,0.137,3.553,0.204,5.672,0.217c0.515,0.005,1.044,0.005,1.591,0.005
			c2.101-0.008,3.986-0.049,5.671-0.149c2.308-0.133,4.237-0.379,5.833-0.782c1.592-0.409,2.853-0.978,3.814-1.771
			c0.243-0.197,0.467-0.413,0.672-0.644c0.218-0.24,0.417-0.501,0.588-0.778c0.181-0.294,0.322-0.594,0.429-0.892
			c0.11-0.302,0.19-0.601,0.247-0.897c0.06-0.29,0.1-0.577,0.135-0.853c0.035-0.279,0.057-0.543,0.082-0.791
			c-1.534,0.084-3.293,0.299-5.226,0.545c-1.937,0.244-4.047,0.514-6.283,0.715c-1.851,0.167-3.785,0.279-5.783,0.287
			c-0.352,0-0.705-0.004-1.057-0.008c-2.114-0.032-4.158-0.178-6.094-0.367c-2.009-0.198-3.904-0.437-5.647-0.642
			c-1.818-0.219-3.465-0.395-4.903-0.442c0.027,0.251,0.053,0.513,0.09,0.791c0.038,0.275,0.083,0.563,0.148,0.856
			c0.062,0.291,0.147,0.597,0.258,0.896c0.112,0.3,0.252,0.604,0.431,0.902c0.167,0.279,0.362,0.544,0.579,0.79
			C54.658,144.381,54.882,144.595,55.128,144.797z"/>
	</g>
</g>
<g id="Boca_2">
	<g id="XMLID_251_">
		<g id="XMLID_252_">
			<path id="XMLID_261_" d="M75.947,152.052c-0.795,5.607-2.53,10.256-5.652,10.256s-5.136-4.617-5.652-10.256
				c-0.758-8.302-0.967-10.259,5.652-10.259C77.264,141.793,77.137,143.659,75.947,152.052z"/>
			<ellipse id="XMLID_260_" style="fill:none;" cx="70.295" cy="152.051" rx="5.652" ry="10.257"/>
			<path id="XMLID_259_" style="fill:#C4884D;" d="M67.459,163.331c0,0,0.342,0.182,0.872,0.374c0.262,0.105,0.58,0.186,0.914,0.271
				c0.337,0.077,0.702,0.136,1.067,0.131c0.364,0.028,0.73-0.014,1.064-0.086c0.331-0.078,0.65-0.153,0.901-0.277
				c0.521-0.207,0.844-0.43,0.853-0.413c0,0-0.07,0.066-0.193,0.181c-0.127,0.11-0.301,0.287-0.56,0.427
				c-0.125,0.078-0.261,0.163-0.42,0.224c-0.155,0.065-0.316,0.154-0.501,0.186c-0.358,0.095-0.757,0.16-1.155,0.147
				c-0.8-0.025-1.558-0.301-2.062-0.593C67.728,163.615,67.459,163.331,67.459,163.331z"/>
			<g id="XMLID_253_">
				<defs>
					<path id="XMLID_254_" d="M75.947,152.052c-0.795,5.607-2.53,10.256-5.652,10.256s-5.136-4.617-5.652-10.256
						c-0.758-8.302-0.967-10.259,5.652-10.259C77.264,141.793,77.137,143.659,75.947,152.052z"/>
				</defs>
				<clipPath id="XMLID_8_">
					<use xlink:href="#XMLID_254_"  style="overflow:visible;"/>
				</clipPath>
				<path id="XMLID_210_" style="clip-path:url(#XMLID_8_);fill:#FFFFFF;" d="M57.663,144.602c0.718,0.59,1.657,1.032,2.831,1.357
					c1.096,0.305,2.398,0.51,3.92,0.641c1.393,0.12,2.972,0.178,4.746,0.197c0.431,0.004,0.873,0.006,1.329,0.006
					c1.756,0,3.334-0.029,4.744-0.107c1.93-0.109,3.545-0.306,4.878-0.642c1.336-0.336,2.388-0.811,3.195-1.471
					c0.204-0.168,0.391-0.345,0.564-0.536c0.181-0.202,0.349-0.418,0.494-0.65c0.152-0.244,0.269-0.495,0.362-0.746
					c0.091-0.251,0.158-0.501,0.209-0.746c0.052-0.246,0.085-0.484,0.114-0.716c0.027-0.231,0.05-0.452,0.073-0.66
					c-1.284,0.066-2.758,0.242-4.375,0.442c-1.619,0.199-3.386,0.422-5.254,0.583c-1.549,0.134-3.169,0.225-4.836,0.225
					c-0.297,0-0.592-0.004-0.886-0.008c-1.768-0.033-3.477-0.161-5.098-0.325c-1.679-0.168-3.264-0.374-4.722-0.551
					c-1.518-0.184-2.897-0.338-4.099-0.381c0.023,0.209,0.043,0.429,0.075,0.66c0.029,0.231,0.067,0.472,0.12,0.719
					c0.052,0.246,0.121,0.497,0.214,0.75c0.093,0.252,0.21,0.505,0.359,0.756c0.139,0.235,0.302,0.456,0.48,0.66
					C57.271,144.252,57.458,144.433,57.663,144.602z"/>
			</g>
		</g>
	</g>
</g>
<g id="Boca_1">
	<g>
		<path id="XMLID_917_" style="fill:#C4884D;" d="M54.761,143.357c0.609-1.174,3.206,3.066,13.483,4.3
			c10.277,1.234,14.611-5.096,15.974-4.039s-6.566,7.551-16.256,6.388C58.272,148.842,53.597,145.6,54.761,143.357z"/>
		<path id="XMLID_916_" style="fill:#C4884D;" d="M75.346,152.432c-1.834,0.185-3.431,0.671-5.322,0.553
			c-1.919-0.121-3.789-0.875-5.689-0.901c-0.525-0.006-0.678,0.618-0.226,0.869c2.836,1.575,8.875,2.503,11.491,0.07
			C75.844,152.798,75.691,152.398,75.346,152.432z"/>
	</g>
</g>
</svg>
