<?xml version="1.0" encoding="utf-8"?>
<!-- Generator: Adobe Illustrator 21.0.0, SVG Export Plug-In . SVG Version: 6.00 Build 0)  -->
<svg version="1.1" id="Capa_1" xmlns="http://www.w3.org/2000/svg" xmlns:xlink="http://www.w3.org/1999/xlink" x="0px" y="0px"
	 viewBox="0 0 138.443 25.626" style="enable-background:new 0 0 138.443 25.626;" xml:space="preserve">
<path style="fill:#FFFFFF;" d="M1.762,24.615L0.777,2.15c2.449-0.492,4.529-0.738,6.24-0.738c2.953,0,4.811,0.727,5.572,2.18
	c0.363,0.691,0.545,1.406,0.545,2.145c0,1.688-0.979,3.469-2.936,5.344c3.188,1.242,4.852,3.088,4.992,5.538
	C15.332,19.066,10.855,21.732,1.762,24.615z M4.715,6.123l0.141,3.023C7.199,8.08,8.324,7.177,8.23,6.439
	C8.184,6.017,7.756,5.806,6.947,5.806C6.385,5.806,5.641,5.912,4.715,6.123z M5.559,14.912l0.422,3.656
	c2.531-0.938,3.773-1.781,3.727-2.531S8.277,14.912,5.559,14.912z"/>
<path style="fill:#FFFFFF;" d="M18.813,2.923c0.258,0,0.492,0.035,0.703,0.105c0.984,0.328,1.629,0.938,1.934,1.828
	c0.094,0.27,0.141,0.539,0.141,0.809c0,0.598-0.24,1.189-0.721,1.775c-0.691,0.844-1.488,1.225-2.391,1.143
	s-1.635-0.568-2.197-1.459c-0.258-0.41-0.387-0.826-0.387-1.248c0-0.539,0.188-1.107,0.563-1.705
	C17.254,3.339,18.039,2.923,18.813,2.923z M21.484,10.412c-0.188,4.348-0.422,8.661-0.703,12.938l-4.5,0.422
	c0.164-1.828,0.246-3.686,0.246-5.572c0-2.344-0.129-4.723-0.387-7.137L21.484,10.412z"/>
<path style="fill:#FFFFFF;" d="M26.898,15.633c0.527,1.77,1.646,2.695,3.357,2.777c1.594,0.082,2.672-0.756,3.234-2.514l4.922-0.703
	c-1.254,5.145-3.744,7.717-7.471,7.717c-1.148,0-2.432-0.264-3.85-0.791c-2.625-1.5-3.938-4.383-3.938-8.649
	c0-0.363,0.012-0.768,0.035-1.213c0.258-4.934,2.66-7.799,7.206-8.596c4.312-0.094,6.796,2.904,7.452,8.993L26.898,15.633z
	 M28.243,9.366c-0.65,0.768-1.005,1.696-1.063,2.786l6.592-1.881C33.01,8.9,32.061,8.214,30.924,8.214S28.894,8.598,28.243,9.366z"
	/>
<path style="fill:#FFFFFF;" d="M42.684,4.787l0.281,1.969c2.285-1.605,4.16-2.408,5.625-2.408c1.359,0,2.367,0.686,3.023,2.057
	c0.996,2.086,1.494,5.514,1.494,10.284c0,1.711-0.064,3.598-0.193,5.66l-4.746,0.158c0.375-2.531,0.563-4.67,0.563-6.416
	c0-2.133-0.281-3.674-0.844-4.624c-0.363-0.609-0.779-0.914-1.248-0.914c-0.902,0-2.004,1.061-3.305,3.182v9.299l-4.289-0.123
	L38.324,5.49L42.684,4.787z"/>
<path style="fill:#FFFFFF;" d="M53.775,7.458l4.641-2.25l4.078,14.485l2.813-15.61l4.781,1.406l-4.781,18.704l-5.484-0.141
	L53.775,7.458z"/>
<path style="fill:#FFFFFF;" d="M75.467,15.633c0.527,1.77,1.646,2.695,3.357,2.777c1.594,0.082,2.672-0.756,3.234-2.514l4.922-0.703
	c-1.254,5.145-3.744,7.717-7.471,7.717c-1.148,0-2.432-0.264-3.85-0.791c-2.625-1.5-3.938-4.383-3.938-8.649
	c0-0.363,0.012-0.768,0.035-1.213c0.258-4.934,2.66-7.799,7.206-8.596c4.312-0.094,6.796,2.904,7.452,8.993L75.467,15.633z
	 M76.812,9.366c-0.65,0.768-1.005,1.696-1.063,2.786l6.592-1.881c-0.762-1.371-1.711-2.057-2.848-2.057S77.462,8.598,76.812,9.366z"
	/>
<path style="fill:#FFFFFF;" d="M91.252,4.787l0.281,1.969c2.285-1.605,4.16-2.408,5.625-2.408c1.359,0,2.367,0.686,3.023,2.057
	c0.996,2.086,1.494,5.514,1.494,10.284c0,1.711-0.064,3.598-0.193,5.66l-4.746,0.158c0.375-2.531,0.563-4.67,0.563-6.416
	c0-2.133-0.281-3.674-0.844-4.624c-0.363-0.609-0.779-0.914-1.248-0.914c-0.902,0-2.004,1.061-3.305,3.182v9.299l-4.289-0.123
	L86.893,5.49L91.252,4.787z"/>
<path style="fill:#FFFFFF;" d="M105.561,2.923c0.258,0,0.492,0.035,0.703,0.105c0.984,0.328,1.629,0.938,1.934,1.828
	c0.094,0.27,0.141,0.539,0.141,0.809c0,0.598-0.24,1.189-0.721,1.775c-0.691,0.844-1.488,1.225-2.391,1.143
	s-1.635-0.568-2.197-1.459c-0.258-0.41-0.387-0.826-0.387-1.248c0-0.539,0.188-1.107,0.563-1.705
	C104.002,3.339,104.787,2.923,105.561,2.923z M108.232,10.412c-0.188,4.348-0.422,8.661-0.703,12.938l-4.5,0.422
	c0.164-1.828,0.246-3.686,0.246-5.572c0-2.344-0.129-4.723-0.387-7.137L108.232,10.412z"/>
<path style="fill:#FFFFFF;" d="M109.27,22.928L108.514,0.99c7.266,1.969,11.191,4.547,11.777,7.734
	c0.211,1.148,0.316,2.25,0.316,3.305c0,1.699-0.305,3.129-0.914,4.29C118.709,18.193,115.234,20.396,109.27,22.928z M113.154,8.021
	l0.158,6.75c1.875-0.563,2.877-1.594,3.006-3.094S115.393,8.958,113.154,8.021z"/>
<path style="fill:#FFFFFF;" d="M121.574,15.563c0.082-2.672,0.744-4.969,1.986-6.891c1.477-2.297,3.451-3.445,5.924-3.445
	c2.613,0,4.5,0.645,5.66,1.934c0.949,1.055,1.693,2.941,2.232,5.66c0.211,1.066,0.316,2.075,0.316,3.024
	c0,2.039-0.504,3.738-1.512,5.098c-1.477,1.992-3.721,2.941-6.732,2.848c-2.766-0.082-4.793-0.785-6.082-2.109
	S121.48,18.316,121.574,15.563z M131.91,11.343c-0.82-0.773-1.594-1.16-2.32-1.16c-0.891,0-1.711,0.586-2.461,1.758
	c-0.668,1.043-1.002,2.057-1.002,3.042c0,0.926,0.305,1.875,0.914,2.848c0.68,1.09,1.465,1.635,2.355,1.635
	c1.02,0,1.951-0.533,2.795-1.6c0.809-1.008,1.213-2.033,1.213-3.076C133.404,13.664,132.906,12.515,131.91,11.343z"/>
<g>
	<path style="fill:#054700;" d="M8.976,6.356c-0.054-0.485-0.39-1.3-2.029-1.3c-0.625,0-1.409,0.11-2.399,0.335l-0.612,0.14
		l0.221,4.757l1.008-0.459C7.983,8.547,9.122,7.505,8.976,6.356z M7.449,6.605C7.347,6.782,6.964,7.24,5.552,7.975l-0.058-1.25
		C6.478,6.536,7.228,6.547,7.449,6.605z"/>
	<path style="fill:#054700;" d="M5.559,14.162H4.717l0.627,5.441l0.896-0.332c3.028-1.121,4.289-2.103,4.215-3.281
		C10.355,14.379,7.924,14.162,5.559,14.162z M6.614,17.516l-0.212-1.84c2.114,0.074,2.521,0.434,2.556,0.396
		C8.936,16.138,8.709,16.645,6.614,17.516z"/>
	<path style="fill:#054700;" d="M15.395,11.142c0.146,1.367,0.238,2.73,0.301,4.083c-0.531-1.832-1.927-3.31-4.199-4.401
		c1.585-1.738,2.388-3.446,2.388-5.088c0-0.857-0.212-1.696-0.631-2.493C11.87,0.604,7.712-0.009,0.629,1.415L0,1.541l1.055,24.085
		l0.933-0.296c8.42-2.669,12.866-5.121,13.776-7.623c0.001,0.163,0.013,0.33,0.013,0.492c0,1.855-0.082,3.708-0.243,5.505
		l-0.081,0.898l6.034-0.565l0.042-0.639c0.28-4.263,0.517-8.621,0.704-12.955l0.038-0.884l-6.956,0.847L15.395,11.142z M2.468,23.6
		L1.555,2.763c5.837-1.098,9.399-0.677,10.371,1.177c0.309,0.588,0.459,1.175,0.459,1.796c0,1.467-0.91,3.083-2.705,4.802
		l-0.849,0.813l1.095,0.427c2.916,1.136,4.393,2.733,4.516,4.882C14.507,17.782,13.009,20.153,2.468,23.6z M20.696,11.263
		c-0.17,3.814-0.379,7.641-0.622,11.399l-2.972,0.279c0.116-1.559,0.175-3.149,0.175-4.742c0-2.121-0.106-4.298-0.316-6.481
		L20.696,11.263z"/>
	<path style="fill:#054700;" d="M19.753,2.317c-0.287-0.096-0.603-0.144-0.94-0.144c-0.982,0-1.957,0.498-2.897,1.479l-0.094,0.12
		c-0.449,0.716-0.677,1.424-0.677,2.104c0,0.563,0.169,1.118,0.502,1.648c0.691,1.094,1.621,1.702,2.764,1.806
		c0.105,0.009,0.21,0.014,0.313,0.014c1.032,0,1.948-0.479,2.726-1.428c0.591-0.721,0.891-1.478,0.891-2.251
		c0-0.353-0.062-0.708-0.181-1.051C21.776,3.495,20.966,2.722,19.753,2.317z M20.289,6.965c-0.536,0.653-1.089,0.928-1.743,0.871
		c-0.663-0.06-1.196-0.424-1.63-1.111c-0.183-0.291-0.271-0.569-0.271-0.849c0-0.375,0.137-0.793,0.408-1.242
		c0.626-0.638,1.218-0.961,1.76-0.961c0.176,0,0.333,0.022,0.466,0.067c0.767,0.256,1.231,0.688,1.462,1.363
		c0.067,0.191,0.099,0.375,0.099,0.562C20.84,6.088,20.66,6.514,20.289,6.965z"/>
	<path style="fill:#054700;" d="M34.427,9.907c-0.9-1.621-2.079-2.442-3.503-2.442c-1.362,0-2.457,0.477-3.253,1.417
		c-0.755,0.892-1.173,1.979-1.24,3.231l-0.056,1.05l8.512-2.429L34.427,9.907z M28.12,11.104c0.148-0.464,0.378-0.879,0.696-1.253
		c0.505-0.596,1.195-0.886,2.108-0.886c0.615,0,1.16,0.286,1.65,0.868L28.12,11.104z"/>
	<path style="fill:#054700;" d="M48.59,3.597c-1.407,0-3.067,0.614-5.051,1.872l-0.221-1.544l-5.771,0.931l0.144,3.486
		c-1.296-3.682-3.75-5.503-7.312-5.43l-0.113,0.011c-4.916,0.862-7.548,3.989-7.826,9.295c-0.024,0.46-0.036,0.877-0.036,1.252
		c0,4.535,1.452,7.664,4.315,9.3l0.111,0.052c1.495,0.556,2.878,0.838,4.111,0.838c3.242,0,5.642-1.752,7.169-5.201l0.214,5.181
		l5.759,0.165v-9.857c1.535-2.451,2.341-2.645,2.555-2.645c0.241,0,0.482,0.343,0.603,0.546c0.49,0.828,0.739,2.254,0.739,4.241
		c0,1.701-0.187,3.823-0.554,6.306l-0.132,0.89l6.326-0.211l0.042-0.68c0.129-2.068,0.195-3.988,0.195-5.707
		c0-4.929-0.513-8.398-1.568-10.607C51.512,4.456,50.233,3.597,48.59,3.597z M30.941,22.16c-1.038,0-2.225-0.243-3.53-0.723
		c-2.36-1.377-3.507-3.983-3.507-7.967c0-0.352,0.011-0.743,0.034-1.174c0.238-4.558,2.375-7.138,6.53-7.886
		c3.742-0.09,5.856,2.463,6.557,7.69L25.96,15.11l0.219,0.736c0.617,2.07,2.014,3.216,4.038,3.313
		c1.274,0.06,2.932-0.347,3.826-2.584l3.347-0.479C36.16,20.174,34.043,22.16,30.941,22.16z M32.919,15.221l-0.143,0.447
		c-0.462,1.443-1.242,2.053-2.484,1.993c-1.138-0.055-1.914-0.543-2.397-1.522l10.007-2.721l0.045,1.085L32.919,15.221z
		 M52.206,21.621l-3.17,0.105c0.295-2.179,0.444-4.071,0.444-5.637c0-2.292-0.31-3.929-0.95-5.008
		c-0.63-1.058-1.377-1.28-1.892-1.28c-1.21,0-2.463,1.125-3.944,3.54l-0.111,0.181v8.739l-2.819-0.081L39.101,6.124l2.948-0.476
		l0.346,2.424l1-0.703c3.908-2.746,6.36-3.107,7.541-0.642c0.943,1.975,1.421,5.326,1.421,9.96
		C52.357,18.186,52.307,19.842,52.206,21.621z"/>
	<path style="fill:#054700;" d="M64.717,3.128l-2.383,13.227L58.895,4.143l-6.056,2.937l6.454,17.71l6.593,0.169l5.108-19.983
		L64.717,3.128z M64.728,23.429l-4.376-0.112l-5.64-15.479l3.225-1.563l4.718,16.757l3.242-17.993l3.286,0.966L64.728,23.429z"/>
	<path style="fill:#054700;" d="M82.995,9.907c-0.9-1.621-2.079-2.442-3.503-2.442c-1.362,0-2.456,0.477-3.253,1.417
		c-0.756,0.892-1.173,1.979-1.24,3.231l-0.056,1.05l8.511-2.429L82.995,9.907z M76.688,11.104c0.147-0.464,0.378-0.879,0.695-1.253
		c0.505-0.596,1.195-0.886,2.108-0.886c0.614,0,1.159,0.286,1.65,0.868L76.688,11.104z"/>
	<path style="fill:#054700;" d="M113.444,7.329l-1.067-0.447l0.209,8.89l0.942-0.282c2.728-0.819,3.429-2.491,3.537-3.749
		C117.225,9.887,116.007,8.402,113.444,7.329z M115.571,11.613c-0.053,0.617-0.284,1.451-1.534,2.076l-0.104-4.45
		C115.688,10.264,115.603,11.253,115.571,11.613z"/>
	<path style="fill:#054700;" d="M132.425,10.797c-2.169-2.045-4.324-1.766-5.928,0.739c-0.743,1.161-1.12,2.32-1.12,3.446
		c0,1.064,0.346,2.156,1.027,3.244c0.823,1.319,1.829,1.988,2.992,1.988c1.256,0,2.394-0.634,3.38-1.88
		c0.914-1.14,1.378-2.333,1.378-3.546c0-1.303-0.563-2.626-1.673-3.932L132.425,10.797z M131.604,17.399
		c-0.7,0.886-1.422,1.315-2.207,1.315c-0.619,0-1.182-0.419-1.72-1.283c-0.531-0.847-0.8-1.671-0.8-2.449
		c0-0.834,0.297-1.722,0.884-2.637c0.6-0.937,1.215-1.412,1.829-1.412c0.518,0,1.115,0.312,1.775,0.928
		c0.855,1.016,1.289,2.001,1.289,2.928C132.654,15.664,132.312,16.517,131.604,17.399z"/>
	<path style="fill:#054700;" d="M138.112,12.674c-0.57-2.88-1.359-4.848-2.41-6.016c-1.303-1.448-3.396-2.182-6.218-2.182
		c-2.732,0-4.938,1.275-6.554,3.788c-0.703,1.088-1.227,2.299-1.58,3.617c-0.009-1.052-0.113-2.157-0.322-3.293
		c-0.648-3.53-4.678-6.252-12.318-8.323L107.729,0l0.105,3.063c-0.372-0.312-0.807-0.57-1.334-0.745
		c-0.287-0.096-0.604-0.144-0.94-0.144c-0.982,0-1.957,0.498-2.897,1.479l-0.094,0.12c-0.449,0.716-0.677,1.424-0.677,2.104
		c0,0.563,0.169,1.118,0.503,1.648c0.69,1.094,1.62,1.702,2.763,1.806c0.106,0.009,0.21,0.014,0.313,0.014
		c0.952,0,1.8-0.427,2.537-1.235l0.054,1.567l-5.998,0.73l0.078,0.735c0.008,0.073,0.01,0.145,0.018,0.218
		c-0.251-2.221-0.68-3.976-1.302-5.279c-0.777-1.625-2.057-2.483-3.7-2.483c-1.407,0-3.066,0.614-5.051,1.872l-0.221-1.544
		l-5.771,0.931l0.144,3.475c-1.267-3.601-3.642-5.421-7.094-5.421c-0.071,0-0.145,0.001-0.218,0.002l-0.113,0.011
		c-4.915,0.862-7.548,3.989-7.825,9.295c-0.024,0.46-0.036,0.877-0.036,1.252c0,4.535,1.452,7.664,4.315,9.3l0.11,0.052
		c1.495,0.556,2.879,0.838,4.111,0.838c3.242,0,5.642-1.751,7.168-5.201l0.214,5.18l5.76,0.165v-9.857
		c1.535-2.451,2.341-2.645,2.555-2.645c0.241,0,0.481,0.343,0.603,0.546c0.49,0.828,0.739,2.254,0.739,4.241
		c0,1.701-0.187,3.823-0.555,6.306l-0.132,0.89l6.326-0.211l0.043-0.68c0.129-2.068,0.194-3.988,0.194-5.707
		c0-1.071-0.029-2.061-0.078-2.996c0.105,1.518,0.177,3.028,0.177,4.508c0,1.855-0.082,3.708-0.243,5.505l-0.08,0.898l6.033-0.565
		l0.042-0.639c0.059-0.902,0.109-1.821,0.164-2.731l0.116,3.378l1.005-0.427c6.187-2.625,9.718-4.899,10.795-6.951
		c0.182-0.347,0.334-0.721,0.467-1.112c-0.096,2.944,0.577,5.181,2.006,6.648c1.423,1.462,3.643,2.248,6.596,2.336
		c0.143,0.004,0.283,0.006,0.423,0.006c3.05,0,5.382-1.061,6.936-3.157c1.101-1.484,1.659-3.35,1.659-5.544
		C138.443,14.85,138.332,13.784,138.112,12.674z M107.037,6.965c-0.536,0.655-1.104,0.933-1.742,0.871
		c-0.663-0.06-1.196-0.424-1.631-1.111c-0.183-0.291-0.271-0.569-0.271-0.849c0-0.375,0.138-0.793,0.408-1.242
		c0.626-0.638,1.218-0.961,1.76-0.961c0.176,0,0.333,0.022,0.466,0.067c0.768,0.256,1.231,0.688,1.463,1.363
		c0.066,0.191,0.099,0.375,0.099,0.562C107.588,6.088,107.408,6.514,107.037,6.965z M79.51,22.16c-1.038,0-2.226-0.243-3.53-0.723
		c-2.359-1.377-3.507-3.983-3.507-7.967c0-0.352,0.011-0.743,0.034-1.174c0.238-4.558,2.375-7.138,6.53-7.886
		c0.039-0.001,0.078-0.001,0.117-0.001c3.635,0,5.746,2.52,6.439,7.691L74.529,15.11l0.219,0.736
		c0.617,2.07,2.014,3.216,4.038,3.313c1.271,0.063,2.932-0.346,3.825-2.584l3.347-0.479C84.729,20.174,82.612,22.16,79.51,22.16z
		 M81.487,15.221l-0.143,0.447c-0.462,1.442-1.204,2.055-2.484,1.993c-1.138-0.055-1.914-0.543-2.397-1.522l10.007-2.721
		l0.045,1.085L81.487,15.221z M100.774,21.621l-3.17,0.105c0.295-2.179,0.444-4.071,0.444-5.637c0-2.292-0.311-3.929-0.949-5.008
		c-0.631-1.058-1.378-1.28-1.893-1.28c-1.21,0-2.463,1.125-3.944,3.54l-0.11,0.181v8.739l-2.818-0.081L87.67,6.124l2.947-0.476
		l0.347,2.424l1.001-0.703c3.907-2.746,6.36-3.108,7.54-0.642c0.942,1.975,1.421,5.326,1.421,9.96
		C100.926,18.186,100.875,19.842,100.774,21.621z M106.822,22.662l-2.973,0.279c0.117-1.559,0.176-3.149,0.176-4.742
		c0-2.121-0.106-4.298-0.316-6.481l3.735-0.455C107.274,15.077,107.065,18.904,106.822,22.662z M119.029,15.97
		c-0.587,1.118-2.649,3.021-9.048,5.834l-0.683-19.814c6.305,1.835,9.754,4.145,10.255,6.87c0.201,1.099,0.304,2.165,0.304,3.169
		C119.857,13.598,119.579,14.924,119.029,15.97z M135.579,20.495c-1.333,1.798-3.34,2.635-6.107,2.544
		c-2.552-0.075-4.425-0.709-5.567-1.883c-1.135-1.166-1.667-3.039-1.58-5.568v-0.002c0.077-2.521,0.705-4.711,1.867-6.509
		c1.342-2.087,3.072-3.101,5.293-3.101c2.38,0,4.097,0.567,5.103,1.686c0.854,0.948,1.545,2.732,2.055,5.304
		c0.2,1.014,0.302,1.982,0.302,2.878C136.943,17.709,136.484,19.273,135.579,20.495z"/>
</g>
</svg>
