<?xml version="1.0" encoding="utf-8"?>
<!-- Generator: Adobe Illustrator 21.0.0, SVG Export Plug-In . SVG Version: 6.00 Build 0)  -->
<svg version="1.1" id="Capa_1" xmlns="http://www.w3.org/2000/svg" xmlns:xlink="http://www.w3.org/1999/xlink" x="0px" y="0px"
	 viewBox="0 0 32 32" style="enable-background:new 0 0 32 32;" xml:space="preserve">
<g>
	<g>
		<path style="opacity:0.2;fill-rule:evenodd;clip-rule:evenodd;" d="M3.436,4.505c-4.571,4.32-4.585,19.959-0.022,24.286
			c4.512,4.278,20.659,4.278,25.171,0c4.563-4.327,4.549-19.967-0.022-24.286C23.95,0.144,8.05,0.144,3.436,4.505z"/>
		<path style="fill-rule:evenodd;clip-rule:evenodd;fill:#FFFFFF;" d="M3.436,3.271c-4.571,4.32-4.585,19.957-0.022,24.285
			c4.512,4.278,20.659,4.278,25.171,0c4.563-4.327,4.549-19.965-0.022-24.285C23.95-1.09,8.05-1.09,3.436,3.271z"/>
		<path style="fill-rule:evenodd;clip-rule:evenodd;fill:#FEC31D;" d="M4.617,3.643C0.475,7.557,0.463,21.725,4.597,25.647
			c4.088,3.875,18.718,3.875,22.806,0c4.134-3.921,4.122-18.09-0.019-22.004C23.203-0.308,8.797-0.308,4.617,3.643z"/>
		<path style="fill-rule:evenodd;clip-rule:evenodd;fill:#C96900;" d="M27.403,22.683c-4.088,3.877-18.718,3.877-22.806,0
			c-1.837-1.742-2.855-5.506-3.057-9.497c-0.25,4.975,0.768,10.289,3.057,12.46c4.088,3.875,18.718,3.875,22.806,0
			c2.289-2.171,3.307-7.485,3.057-12.46C30.258,17.177,29.24,20.941,27.403,22.683z"/>
		<path style="fill-rule:evenodd;clip-rule:evenodd;fill:#FFB700;" d="M3.293,20.875c0.376,0.725,0.811,1.34,1.305,1.809
			c4.088,3.877,18.718,3.877,22.806,0c1.578-1.495,2.552-4.485,2.923-7.826C22.654,20.21,13.625,22.171,3.293,20.875z"/>
		<path style="fill-rule:evenodd;clip-rule:evenodd;fill:#FFD30E;" d="M4.617,3.643C3.375,4.816,2.505,6.91,2.006,9.375
			c7.167-7.076,21.537-8.207,27.622-1.509c-0.517-1.799-1.266-3.296-2.245-4.222C23.203-0.308,8.797-0.308,4.617,3.643z"/>
		<path style="fill-rule:evenodd;clip-rule:evenodd;fill:#FFFF79;" d="M7.881,2.697C6.122,3.172,4.696,4.323,4.696,5.273
			c0,0.948,1.426,1.332,3.185,0.857c1.76-0.474,3.185-1.625,3.185-2.573C11.065,2.607,9.64,2.223,7.881,2.697z"/>
		<path style="fill-rule:evenodd;clip-rule:evenodd;fill:#FFFF79;" d="M13.16,1.416c-0.991,0.059-1.888,0.514-2.003,1.019
			c-0.115,0.502,0.595,0.863,1.587,0.804c0.991-0.059,1.888-0.514,2.003-1.018C14.861,1.717,14.151,1.357,13.16,1.416z"/>
		<path style="fill-rule:evenodd;clip-rule:evenodd;fill:#FEE147;" d="M25.299,20.555c-1.11,0.512-1.916,1.438-1.798,2.07
			c0.118,0.63,1.114,0.725,2.224,0.214c1.111-0.512,1.916-1.44,1.799-2.07C27.407,20.14,26.411,20.043,25.299,20.555z"/>
		<path style="fill-rule:evenodd;clip-rule:evenodd;fill:#FEE147;" d="M30.326,14.858c-0.371,3.341-1.345,6.33-2.923,7.826
			c-4.088,3.877-18.718,3.877-22.806,0c-0.494-0.469-0.929-1.083-1.305-1.809c-1.021-1.974-1.604-4.77-1.752-7.688
			c-0.029,0.582-0.041,1.167-0.036,1.75c0.004-0.403,0.015-0.805,0.036-1.207c0.201,3.991,1.22,7.755,3.057,9.497
			c4.088,3.877,18.718,3.877,22.806,0c1.837-1.742,2.855-5.506,3.057-9.497c0.02,0.401,0.032,0.805,0.036,1.208
			c0.005-0.583-0.006-1.17-0.036-1.752C30.431,13.75,30.387,14.308,30.326,14.858z"/>
		<path style="fill-rule:evenodd;clip-rule:evenodd;fill:#E6E6E6;" d="M3.414,26.889c-2.226-2.111-3.363-6.914-3.413-11.783
			c-0.052,5.091,1.085,10.242,3.413,12.449c4.513,4.278,20.658,4.278,25.171,0c2.328-2.207,3.465-7.358,3.413-12.449
			c-0.05,4.869-1.187,9.672-3.413,11.783C24.074,31.167,7.926,31.167,3.414,26.889z"/>
	</g>
	<g>
		<path style="fill:#C96900;" d="M23.799,13.838c0-1.35-0.847-2.543-2.153-3.068V7.944c0.002-0.721-0.226-1.228-0.678-1.511
			c-0.447-0.279-1.012-0.275-1.677,0.002l-5.896,3.492c-0.224-0.509-0.753-0.869-1.37-0.869H9.688c-0.819,0-1.487,0.633-1.487,1.411
			v6.738c0,0.778,0.668,1.411,1.487,1.411h2.338c0.572,0,1.054-0.318,1.302-0.769l5.574,3.302c0.245,0.103,0.705,0.299,1.197,0.299
			c0.262,0,0.533-0.056,0.785-0.21c0.749-0.458,0.759-1.446,0.762-1.778v-2.555C22.952,16.381,23.799,15.19,23.799,13.838z
			 M9.8,17.206l-0.112-6.63h2.228l0.11,6.522L9.8,17.206z M20.047,19.455c-0.002,0.264-0.032,0.414-0.023,0.471
			c-0.071-0.011-0.192-0.04-0.374-0.113l-5.724-3.404l0.026-5.023l6.029-3.582c0.021-0.008,0.041-0.015,0.06-0.022
			c0.003,0.043,0.007,0.096,0.005,0.159V19.455z M22.09,14.455v-1.233c0.071,0.193,0.11,0.401,0.11,0.616
			C22.2,14.052,22.161,14.26,22.09,14.455z"/>
		<path style="fill-rule:evenodd;clip-rule:evenodd;fill:#FFFFFF;" d="M12.025,9.817H9.687c-0.377,0-0.686,0.293-0.686,0.651v6.738
			c0,0.358,0.309,0.651,0.686,0.651h2.338c0.377,0,0.686-0.293,0.686-0.651v-6.738C12.712,10.111,12.402,9.817,12.025,9.817z"/>
		<path style="fill-rule:evenodd;clip-rule:evenodd;fill:#FFFFFF;" d="M19.611,7.129l-6.082,3.613
			c-0.266,0.157-0.402,0.361-0.402,0.718v4.949c0,0.268,0.125,0.5,0.409,0.668l5.691,3.38c0.864,0.366,1.606,0.475,1.619-0.995
			V7.941C20.849,7.018,20.402,6.8,19.611,7.129z"/>
		<path style="fill-rule:evenodd;clip-rule:evenodd;fill:#FFFFFF;" d="M21.29,11.441v4.793c1.002-0.38,1.709-1.31,1.709-2.397
			S22.291,11.822,21.29,11.441z"/>
	</g>
</g>
</svg>
