<?xml version="1.0" encoding="utf-8"?>
<!-- Generator: Adobe Illustrator 21.0.0, SVG Export Plug-In . SVG Version: 6.00 Build 0)  -->
<svg version="1.1" id="Capa_1" xmlns="http://www.w3.org/2000/svg" xmlns:xlink="http://www.w3.org/1999/xlink" x="0px" y="0px"
	 viewBox="0 0 32 32" style="enable-background:new 0 0 32 32;" xml:space="preserve">
<g>
	<g>
		<path style="opacity:0.2;fill-rule:evenodd;clip-rule:evenodd;" d="M3.436,4.506c-4.571,4.32-4.585,19.958-0.022,24.286
			c4.512,4.278,20.659,4.278,25.171,0c4.563-4.327,4.549-19.965-0.022-24.286C23.95,0.145,8.05,0.145,3.436,4.506z"/>
		<path style="fill-rule:evenodd;clip-rule:evenodd;fill:#FFFFFF;" d="M3.436,3.271C-1.135,7.59-1.149,23.229,3.414,27.556
			c4.512,4.278,20.659,4.278,25.171,0c4.563-4.327,4.549-19.966-0.022-24.286C23.95-1.09,8.05-1.09,3.436,3.271z"/>
		<path style="fill-rule:evenodd;clip-rule:evenodd;fill:#FEC31D;" d="M4.617,3.643C0.475,7.558,0.463,21.726,4.597,25.647
			c4.088,3.876,18.718,3.876,22.806,0c4.134-3.921,4.122-18.089-0.019-22.003C23.203-0.308,8.797-0.308,4.617,3.643z"/>
		<path style="fill-rule:evenodd;clip-rule:evenodd;fill:#C96900;" d="M27.403,22.684c-4.088,3.876-18.718,3.876-22.806,0
			c-1.837-1.742-2.855-5.507-3.057-9.496c-0.25,4.974,0.768,10.288,3.057,12.459c4.088,3.876,18.718,3.876,22.806,0
			c2.289-2.171,3.307-7.485,3.057-12.459C30.258,17.177,29.24,20.941,27.403,22.684z"/>
		<path style="fill-rule:evenodd;clip-rule:evenodd;fill:#FFAC04;" d="M3.293,20.874c0.376,0.726,0.811,1.341,1.305,1.81
			c4.088,3.876,18.718,3.876,22.806,0c1.578-1.496,2.552-4.485,2.923-7.826C22.654,20.21,13.625,22.171,3.293,20.874z"/>
		<path style="fill-rule:evenodd;clip-rule:evenodd;fill:#FFD30E;" d="M4.617,3.643C3.375,4.817,2.505,6.911,2.006,9.374
			c7.167-7.076,21.537-8.205,27.622-1.508c-0.517-1.799-1.266-3.297-2.245-4.222C23.203-0.308,8.797-0.308,4.617,3.643z"/>
		<path style="fill-rule:evenodd;clip-rule:evenodd;fill:#FFFF79;" d="M7.881,2.698C6.122,3.172,4.696,4.325,4.696,5.272
			c0,0.948,1.426,1.332,3.185,0.858c1.76-0.474,3.185-1.627,3.185-2.574C11.065,2.609,9.64,2.225,7.881,2.698z"/>
		<path style="fill-rule:evenodd;clip-rule:evenodd;fill:#FFFF79;" d="M13.16,1.417c-0.991,0.059-1.888,0.514-2.003,1.018
			c-0.115,0.503,0.595,0.863,1.587,0.804c0.991-0.059,1.888-0.514,2.003-1.017C14.861,1.718,14.151,1.358,13.16,1.417z"/>
		<path style="fill-rule:evenodd;clip-rule:evenodd;fill:#FEE147;" d="M25.299,20.556c-1.11,0.512-1.916,1.438-1.798,2.068
			c0.118,0.63,1.114,0.726,2.224,0.214c1.111-0.512,1.916-1.438,1.799-2.069C27.407,20.14,26.411,20.044,25.299,20.556z"/>
		<path style="fill-rule:evenodd;clip-rule:evenodd;fill:#FEE147;" d="M30.326,14.858c-0.371,3.341-1.345,6.33-2.923,7.826
			c-4.088,3.876-18.718,3.876-22.806,0c-0.494-0.468-0.929-1.083-1.305-1.81c-1.021-1.974-1.604-4.77-1.752-7.687
			c-0.029,0.58-0.041,1.165-0.036,1.749c0.004-0.403,0.015-0.805,0.036-1.206c0.201,3.99,1.22,7.755,3.057,9.496
			c4.088,3.876,18.718,3.876,22.806,0c1.837-1.741,2.855-5.506,3.057-9.496c0.02,0.401,0.032,0.804,0.036,1.208
			c0.005-0.585-0.006-1.171-0.036-1.752C30.431,13.75,30.387,14.309,30.326,14.858z"/>
		<path style="fill-rule:evenodd;clip-rule:evenodd;fill:#E6E6E6;" d="M3.414,26.89c-2.226-2.111-3.363-6.915-3.413-11.783
			c-0.052,5.09,1.085,10.242,3.413,12.45c4.513,4.278,20.658,4.278,25.171,0c2.328-2.208,3.465-7.36,3.413-12.45
			c-0.05,4.868-1.187,9.672-3.413,11.783C24.074,31.167,7.926,31.167,3.414,26.89z"/>
	</g>
	<g>
		<path style="fill:#C96900;" d="M12.358,14.586c0.299,0.751,1.05,1.291,1.943,1.291h8.853c1.152,0,2.091-0.892,2.091-1.988
			c0-1.094-0.939-1.986-2.091-1.986h-8.853c-0.836,0-1.549,0.477-1.883,1.153c-0.188-0.699-0.657-1.288-1.29-1.655
			c0.577-0.335,1.014-0.854,1.231-1.474c0.299,0.75,1.05,1.289,1.943,1.289h8.853c1.152,0,2.091-0.892,2.091-1.986
			s-0.939-1.986-2.091-1.986h-8.853c-0.836,0-1.549,0.477-1.883,1.154c-0.318-1.182-1.44-2.063-2.782-2.063
			c-1.587,0-2.881,1.228-2.881,2.736c0,0.989,0.56,1.849,1.389,2.33c-0.829,0.481-1.389,1.341-1.389,2.329
			c0,1.056,0.641,1.964,1.565,2.42c-0.925,0.456-1.565,1.364-1.565,2.42c0,1.508,1.293,2.736,2.881,2.736
			c1.271,0,2.341-0.793,2.722-1.88c0.299,0.75,1.05,1.291,1.943,1.291h8.853c1.152,0,2.091-0.892,2.091-1.986
			c0-1.096-0.939-1.988-2.091-1.988h-8.853c-0.836,0-1.549,0.477-1.883,1.154c-0.205-0.762-0.746-1.391-1.466-1.746
			C11.613,15.824,12.12,15.267,12.358,14.586z M14.301,13.422h8.853c0.271,0,0.492,0.21,0.492,0.468
			c0,0.255-0.226,0.469-0.492,0.469h-8.853c-0.266,0-0.492-0.215-0.492-0.469C13.808,13.637,14.034,13.422,14.301,13.422z
			 M14.301,8.763h8.853c0.271,0,0.492,0.21,0.492,0.469c0,0.253-0.226,0.466-0.492,0.466h-8.853c-0.266,0-0.492-0.215-0.492-0.468
			C13.808,8.973,14.029,8.763,14.301,8.763z M14.301,18.262h8.853c0.266,0,0.492,0.215,0.492,0.469c0,0.253-0.226,0.468-0.492,0.468
			h-8.853c-0.266,0-0.492-0.215-0.492-0.468C13.808,18.476,14.034,18.262,14.301,18.262z M10.918,13.731
			c0,0.671-0.575,1.218-1.282,1.218c-0.707,0-1.282-0.546-1.282-1.218s0.575-1.218,1.282-1.218
			C10.343,12.513,10.918,13.059,10.918,13.731z M9.636,7.854c0.707,0,1.282,0.546,1.282,1.218c0,0.673-0.575,1.219-1.282,1.219
			c-0.707,0-1.282-0.546-1.282-1.219C8.354,8.4,8.929,7.854,9.636,7.854z M9.636,19.788c-0.707,0-1.282-0.546-1.282-1.218
			c0-0.671,0.575-1.218,1.282-1.218c0.707,0,1.282,0.546,1.282,1.218C10.918,19.242,10.343,19.788,9.636,19.788z"/>
		<g>
			<ellipse style="fill-rule:evenodd;clip-rule:evenodd;fill:#FFFFFF;" cx="9.636" cy="9.072" rx="2.082" ry="1.977"/>
			<ellipse style="fill-rule:evenodd;clip-rule:evenodd;fill:#FFFFFF;" cx="9.636" cy="18.57" rx="2.082" ry="1.977"/>
			<ellipse style="fill-rule:evenodd;clip-rule:evenodd;fill:#FFFFFF;" cx="9.636" cy="13.731" rx="2.082" ry="1.977"/>
			<path style="fill-rule:evenodd;clip-rule:evenodd;fill:#FFFFFF;" d="M23.154,8.004h-8.853c-0.71,0-1.292,0.552-1.292,1.227v0.001
				c0,0.674,0.582,1.227,1.292,1.227h8.853c0.711,0,1.292-0.552,1.292-1.227V9.231C24.446,8.556,23.865,8.004,23.154,8.004z"/>
			<path style="fill-rule:evenodd;clip-rule:evenodd;fill:#FFFFFF;" d="M23.154,12.663h-8.853c-0.71,0-1.292,0.552-1.292,1.227
				c0,0.675,0.582,1.228,1.292,1.228h8.853c0.71,0,1.292-0.553,1.292-1.228C24.446,13.215,23.865,12.663,23.154,12.663z"/>
			<path style="fill-rule:evenodd;clip-rule:evenodd;fill:#FFFFFF;" d="M23.154,17.502h-8.853c-0.71,0-1.292,0.552-1.292,1.228
				c0,0.675,0.582,1.227,1.292,1.227h8.853c0.709,0,1.292-0.553,1.292-1.227C24.446,18.056,23.865,17.502,23.154,17.502z"/>
		</g>
	</g>
</g>
</svg>
