<?xml version="1.0" encoding="utf-8"?>
<!-- Generator: Adobe Illustrator 21.0.0, SVG Export Plug-In . SVG Version: 6.00 Build 0)  -->
<svg version="1.1" id="Capa_1" xmlns="http://www.w3.org/2000/svg" xmlns:xlink="http://www.w3.org/1999/xlink" x="0px" y="0px"
	 viewBox="0 0 32 32" style="enable-background:new 0 0 32 32;" xml:space="preserve">
<g>
	<g>
		<path style="opacity:0.2;fill-rule:evenodd;clip-rule:evenodd;" d="M3.436,4.506c-4.571,4.32-4.585,19.958-0.022,24.285
			c4.512,4.278,20.659,4.278,25.171,0c4.563-4.327,4.549-19.966-0.022-24.285C23.95,0.145,8.05,0.145,3.436,4.506z"/>
		<path style="fill-rule:evenodd;clip-rule:evenodd;fill:#FFFFFF;" d="M3.436,3.271c-4.571,4.32-4.585,19.958-0.022,24.285
			c4.512,4.278,20.659,4.278,25.171,0c4.563-4.327,4.549-19.966-0.022-24.285C23.95-1.09,8.05-1.09,3.436,3.271z"/>
		<path style="fill-rule:evenodd;clip-rule:evenodd;fill:#FF5555;" d="M4.617,3.644C0.475,7.557,0.463,21.726,4.597,25.647
			c4.088,3.877,18.718,3.877,22.806,0c4.134-3.921,4.122-18.089-0.019-22.003C23.203-0.308,8.797-0.308,4.617,3.644z"/>
		<path style="fill-rule:evenodd;clip-rule:evenodd;fill:#AA0000;" d="M27.403,22.684c-4.088,3.876-18.718,3.876-22.806,0
			c-1.837-1.742-2.855-5.507-3.057-9.497c-0.25,4.975,0.768,10.288,3.057,12.459c4.088,3.877,18.718,3.877,22.806,0
			c2.289-2.171,3.307-7.485,3.057-12.459C30.258,17.177,29.24,20.942,27.403,22.684z"/>
		<path style="fill-rule:evenodd;clip-rule:evenodd;fill:#FF2A2A;" d="M3.293,20.875c0.376,0.726,0.811,1.34,1.305,1.809
			c4.088,3.876,18.718,3.876,22.806,0c1.578-1.497,2.552-4.485,2.923-7.826C22.654,20.21,13.625,22.171,3.293,20.875z"/>
		<path style="fill-rule:evenodd;clip-rule:evenodd;fill:#FF8080;" d="M4.617,3.644C3.375,4.816,2.505,6.911,2.006,9.374
			c7.167-7.076,21.537-8.206,27.622-1.509c-0.517-1.8-1.266-3.297-2.245-4.222C23.203-0.308,8.797-0.308,4.617,3.644z"/>
		<path style="fill-rule:evenodd;clip-rule:evenodd;fill:#FFAAAA;" d="M7.881,2.698C6.122,3.172,4.696,4.324,4.696,5.273
			c0,0.948,1.426,1.332,3.185,0.857c1.76-0.474,3.185-1.626,3.185-2.573C11.065,2.608,9.64,2.224,7.881,2.698z"/>
		<path style="fill-rule:evenodd;clip-rule:evenodd;fill:#FFAAAA;" d="M13.16,1.417c-0.991,0.059-1.888,0.514-2.003,1.017
			c-0.115,0.503,0.595,0.863,1.587,0.805c0.991-0.059,1.888-0.514,2.003-1.018C14.861,1.718,14.151,1.357,13.16,1.417z"/>
		<path style="fill-rule:evenodd;clip-rule:evenodd;fill:#FF8080;" d="M25.299,20.556c-1.11,0.512-1.916,1.438-1.798,2.069
			c0.118,0.63,1.114,0.726,2.224,0.214c1.111-0.512,1.916-1.438,1.799-2.068C27.407,20.14,26.411,20.044,25.299,20.556z"/>
		<path style="fill-rule:evenodd;clip-rule:evenodd;fill:#FF8080;" d="M30.326,14.858c-0.371,3.341-1.345,6.329-2.923,7.826
			c-4.088,3.876-18.718,3.876-22.806,0c-0.494-0.469-0.929-1.083-1.305-1.809c-1.021-1.974-1.604-4.77-1.752-7.688
			c-0.029,0.58-0.041,1.166-0.036,1.75c0.004-0.403,0.015-0.806,0.036-1.207c0.201,3.99,1.22,7.755,3.057,9.497
			c4.088,3.876,18.718,3.876,22.806,0c1.837-1.742,2.855-5.507,3.057-9.497c0.02,0.401,0.032,0.805,0.036,1.208
			c0.005-0.585-0.006-1.171-0.036-1.752C30.431,13.75,30.387,14.309,30.326,14.858z"/>
		<path style="fill-rule:evenodd;clip-rule:evenodd;fill:#E6E6E6;" d="M3.414,26.89c-2.226-2.111-3.363-6.915-3.413-11.783
			c-0.052,5.09,1.085,10.242,3.413,12.449c4.513,4.278,20.658,4.278,25.171,0c2.328-2.208,3.465-7.359,3.413-12.449
			c-0.05,4.867-1.187,9.672-3.413,11.783C24.074,31.167,7.926,31.167,3.414,26.89z"/>
	</g>
	<g>
		<path style="fill:#AA0000;" d="M19.968,5.105h-1.667c-1.113,0-2.044,0.735-2.301,1.719C15.743,5.84,14.812,5.105,13.7,5.105
			h-1.667c-1.31,0-2.377,1.014-2.377,2.258v12.699c0,1.244,1.067,2.258,2.377,2.258H13.7c1.113,0,2.044-0.735,2.301-1.719
			c0.257,0.983,1.188,1.719,2.301,1.719h1.667c1.311,0,2.379-1.014,2.379-2.258V7.363C22.346,6.119,21.279,5.105,19.968,5.105z
			 M14.478,20.062c0,0.407-0.349,0.739-0.778,0.739h-1.667c-0.429,0-0.778-0.332-0.778-0.739V7.363c0-0.407,0.349-0.739,0.778-0.739
			H13.7c0.429,0,0.778,0.332,0.778,0.739V20.062z M20.748,20.062c0,0.407-0.349,0.739-0.78,0.739h-1.667
			c-0.429,0-0.778-0.332-0.778-0.739V7.363c0-0.407,0.349-0.739,0.778-0.739h1.667c0.431,0,0.78,0.332,0.78,0.739V20.062z"/>
		<path style="fill-rule:evenodd;clip-rule:evenodd;fill:#FFFFFF;" d="M13.7,5.864h-1.667c-0.868,0-1.578,0.674-1.578,1.499v12.699
			c0,0.824,0.71,1.499,1.578,1.499H13.7c0.868,0,1.578-0.675,1.578-1.499V7.363C15.277,6.539,14.567,5.864,13.7,5.864z"/>
		<path style="fill-rule:evenodd;clip-rule:evenodd;fill:#FFFFFF;" d="M19.968,5.864h-1.667c-0.868,0-1.578,0.674-1.578,1.499
			v12.699c0,0.824,0.71,1.499,1.578,1.499h1.667c0.868,0,1.579-0.675,1.579-1.499V7.363C21.546,6.539,20.836,5.864,19.968,5.864z"/>
	</g>
</g>
</svg>
