<?xml version="1.0" encoding="utf-8"?>
<!-- Generator: Adobe Illustrator 21.0.0, SVG Export Plug-In . SVG Version: 6.00 Build 0)  -->
<svg version="1.1" id="Capa_1" xmlns="http://www.w3.org/2000/svg" xmlns:xlink="http://www.w3.org/1999/xlink" x="0px" y="0px"
	 viewBox="0 0 32 32" style="enable-background:new 0 0 32 32;" xml:space="preserve">
<g>
	<g>
		<path style="opacity:0.2;fill-rule:evenodd;clip-rule:evenodd;" d="M138.437-30.493c-4.572,4.32-4.585,19.957-0.023,24.285
			c4.513,4.278,20.659,4.278,25.172,0c4.562-4.327,4.549-19.965-0.022-24.285C158.95-34.854,143.05-34.854,138.437-30.493z"/>
		<path style="fill-rule:evenodd;clip-rule:evenodd;fill:#FFFFFF;" d="M138.437-31.729c-4.572,4.32-4.585,19.959-0.023,24.286
			c4.513,4.278,20.659,4.278,25.172,0c4.562-4.327,4.549-19.967-0.022-24.286C158.95-36.09,143.05-36.09,138.437-31.729z"/>
		<path style="fill-rule:evenodd;clip-rule:evenodd;fill:#FF5555;" d="M139.617-31.356c-4.142,3.914-4.154,18.082-0.02,22.002
			c4.089,3.877,18.718,3.877,22.806,0c4.134-3.92,4.122-18.088-0.019-22.002C158.203-35.308,143.797-35.308,139.617-31.356z"/>
		<path style="fill-rule:evenodd;clip-rule:evenodd;fill:#AA0000;" d="M162.403-12.316c-4.089,3.877-18.718,3.877-22.806,0
			c-1.837-1.741-2.855-5.506-3.056-9.496c-0.25,4.974,0.767,10.287,3.056,12.459c4.089,3.877,18.718,3.877,22.806,0
			c2.289-2.171,3.306-7.485,3.056-12.459C165.258-17.823,164.24-14.057,162.403-12.316z"/>
		<path style="fill-rule:evenodd;clip-rule:evenodd;fill:#FF2A2A;" d="M138.292-14.125c0.376,0.727,0.811,1.341,1.305,1.809
			c4.089,3.877,18.718,3.877,22.806,0c1.578-1.495,2.551-4.483,2.922-7.826C157.654-14.789,148.625-12.829,138.292-14.125z"/>
		<path style="fill-rule:evenodd;clip-rule:evenodd;fill:#FF8080;" d="M139.617-31.356c-1.241,1.173-2.112,3.267-2.611,5.73
			c7.167-7.076,21.537-8.205,27.621-1.508c-0.518-1.801-1.266-3.298-2.244-4.222C158.203-35.308,143.797-35.308,139.617-31.356z"/>
		<path style="fill-rule:evenodd;clip-rule:evenodd;fill:#FFAAAA;" d="M142.88-32.302c-1.759,0.474-3.185,1.627-3.185,2.574
			c0,0.948,1.426,1.332,3.185,0.858c1.76-0.474,3.185-1.627,3.185-2.574S144.64-32.775,142.88-32.302z"/>
		<path style="fill-rule:evenodd;clip-rule:evenodd;fill:#FFAAAA;" d="M148.16-33.584c-0.992,0.06-1.889,0.515-2.004,1.018
			c-0.115,0.503,0.595,0.863,1.587,0.804c0.992-0.059,1.889-0.514,2.003-1.017C149.861-33.282,149.151-33.643,148.16-33.584z"/>
		<path style="fill-rule:evenodd;clip-rule:evenodd;fill:#FF8080;" d="M160.3-14.443c-1.111,0.512-1.916,1.438-1.799,2.068
			c0.118,0.631,1.113,0.727,2.224,0.214c1.111-0.512,1.916-1.438,1.799-2.07C162.406-14.86,161.41-14.955,160.3-14.443z"/>
		<path style="fill-rule:evenodd;clip-rule:evenodd;fill:#FF8080;" d="M165.325-20.142c-0.371,3.343-1.344,6.33-2.922,7.826
			c-4.089,3.877-18.718,3.877-22.806,0c-0.494-0.468-0.929-1.082-1.305-1.809c-1.02-1.974-1.604-4.77-1.752-7.687
			c-0.029,0.58-0.041,1.165-0.036,1.75c0.003-0.404,0.015-0.807,0.036-1.207c0.201,3.989,1.219,7.755,3.056,9.497
			c4.089,3.875,18.718,3.875,22.806,0c1.837-1.742,2.855-5.508,3.056-9.497c0.02,0.401,0.032,0.804,0.036,1.208
			c0.006-0.585-0.006-1.171-0.036-1.752C165.431-21.249,165.386-20.69,165.325-20.142z"/>
		<path style="fill-rule:evenodd;clip-rule:evenodd;fill:#E6E6E6;" d="M138.414-8.11c-2.226-2.111-3.362-6.915-3.412-11.783
			c-0.052,5.09,1.085,10.241,3.413,12.449c4.512,4.278,20.658,4.278,25.17,0c2.328-2.208,3.465-7.36,3.413-12.449
			c-0.049,4.867-1.186,9.672-3.412,11.783C159.073-3.832,142.927-3.832,138.414-8.11z"/>
	</g>
	<g>
		<g>
			<path style="fill:#AA0000;" d="M154.743-12.614c-1.997,0-3.622-1.545-3.622-3.441c0-0.057,0.002-0.114,0.005-0.171l-3.688-1.89
				c-0.629,0.46-1.407,0.716-2.21,0.716c-1.997,0-3.623-1.545-3.623-3.441c0-1.897,1.626-3.441,3.623-3.441
				c0.781,0,1.522,0.233,2.14,0.664l3.758-1.928c-0.003-0.057-0.005-0.114-0.005-0.171c0-1.897,1.625-3.441,3.622-3.441
				c1.997,0,3.623,1.545,3.623,3.441s-1.626,3.441-3.623,3.441c-0.78,0-1.519-0.233-2.135-0.662l-3.763,1.929
				c0.003,0.056,0.005,0.113,0.005,0.168c0,0.026-0.002,0.054-0.002,0.08l3.76,1.928c0.616-0.429,1.355-0.661,2.135-0.661
				c1.997,0,3.623,1.543,3.623,3.44S156.74-12.614,154.743-12.614z M152.886-16.997l-0.117,0.512
				c-0.033,0.144-0.049,0.289-0.049,0.429c0,1.06,0.907,1.923,2.023,1.923c1.116,0,2.024-0.863,2.024-1.923
				c0-1.06-0.908-1.921-2.024-1.921c-0.554,0-1.071,0.208-1.456,0.586L152.886-16.997z M145.229-22.766
				c-1.116,0-2.024,0.863-2.024,1.923c0,1.06,0.908,1.923,2.024,1.923c0.57,0,1.116-0.23,1.5-0.631l0.377-0.394l0.112-0.537
				c0.024-0.117,0.034-0.238,0.034-0.361c0-0.145-0.016-0.285-0.047-0.42l-0.127-0.529l-0.392-0.386
				C146.301-22.558,145.783-22.766,145.229-22.766z M152.888-24.777l0.4,0.392c0.387,0.38,0.903,0.588,1.456,0.588
				c1.116,0,2.024-0.863,2.024-1.923s-0.908-1.923-2.024-1.923c-1.116,0-2.023,0.863-2.023,1.923c0,0.142,0.016,0.286,0.049,0.429
				L152.888-24.777z"/>
		</g>
		<path style="fill-rule:evenodd;clip-rule:evenodd;fill:#FFFFFF;" d="M154.743-23.037c1.56,0,2.824-1.201,2.824-2.682
			s-1.264-2.682-2.824-2.682c-1.559,0-2.823,1.201-2.823,2.682c0,0.204,0.024,0.401,0.069,0.591l-4.728,2.424
			c-0.514-0.506-1.235-0.821-2.033-0.821c-1.559,0-2.824,1.202-2.824,2.682c0,1.482,1.265,2.682,2.824,2.682
			c0.829,0,1.575-0.339,2.092-0.88l4.67,2.394c-0.045,0.191-0.069,0.389-0.069,0.591c0,1.482,1.264,2.682,2.823,2.682
			c1.56,0,2.824-1.201,2.824-2.682c0-1.48-1.264-2.681-2.824-2.681c-0.797,0-1.517,0.313-2.03,0.818l-4.712-2.417
			c0.033-0.165,0.05-0.333,0.05-0.508c0-0.202-0.023-0.398-0.068-0.588l4.73-2.426C153.227-23.352,153.947-23.037,154.743-23.037z"
			/>
	</g>
</g>
<g>
	<g>
		<path style="opacity:0.2;fill-rule:evenodd;clip-rule:evenodd;" d="M3.436,4.506c-4.571,4.32-4.585,19.958-0.022,24.286
			c4.512,4.278,20.659,4.278,25.171,0c4.563-4.327,4.549-19.965-0.022-24.286C23.95,0.145,8.05,0.145,3.436,4.506z"/>
		<path style="fill-rule:evenodd;clip-rule:evenodd;fill:#FFFFFF;" d="M3.436,3.271C-1.135,7.59-1.149,23.229,3.414,27.556
			c4.512,4.278,20.659,4.278,25.171,0c4.563-4.327,4.549-19.966-0.022-24.286C23.95-1.09,8.05-1.09,3.436,3.271z"/>
		<path style="fill-rule:evenodd;clip-rule:evenodd;fill:#FF5555;" d="M4.617,3.643C0.475,7.558,0.463,21.726,4.597,25.647
			c4.088,3.876,18.718,3.876,22.806,0c4.134-3.921,4.122-18.089-0.019-22.003C23.203-0.308,8.797-0.308,4.617,3.643z"/>
		<path style="fill-rule:evenodd;clip-rule:evenodd;fill:#AA0000;" d="M27.403,22.684c-4.088,3.876-18.718,3.876-22.806,0
			c-1.837-1.742-2.855-5.507-3.057-9.496c-0.25,4.974,0.768,10.288,3.057,12.459c4.088,3.876,18.718,3.876,22.806,0
			c2.289-2.171,3.307-7.485,3.057-12.459C30.258,17.177,29.24,20.941,27.403,22.684z"/>
		<path style="fill-rule:evenodd;clip-rule:evenodd;fill:#FF2A2A;" d="M3.293,20.874c0.376,0.726,0.811,1.341,1.305,1.81
			c4.088,3.876,18.718,3.876,22.806,0c1.578-1.496,2.552-4.485,2.923-7.826C22.654,20.21,13.625,22.171,3.293,20.874z"/>
		<path style="fill-rule:evenodd;clip-rule:evenodd;fill:#FF8080;" d="M4.617,3.643C3.375,4.817,2.505,6.911,2.006,9.374
			c7.167-7.076,21.537-8.205,27.622-1.508c-0.517-1.799-1.266-3.297-2.245-4.222C23.203-0.308,8.797-0.308,4.617,3.643z"/>
		<path style="fill-rule:evenodd;clip-rule:evenodd;fill:#FFAAAA;" d="M7.881,2.698C6.122,3.172,4.696,4.325,4.696,5.272
			c0,0.948,1.426,1.332,3.185,0.858c1.76-0.474,3.185-1.627,3.185-2.574C11.065,2.609,9.64,2.225,7.881,2.698z"/>
		<path style="fill-rule:evenodd;clip-rule:evenodd;fill:#FFAAAA;" d="M13.16,1.417c-0.991,0.059-1.888,0.514-2.003,1.018
			c-0.115,0.503,0.595,0.863,1.587,0.804c0.991-0.059,1.888-0.514,2.003-1.017C14.861,1.718,14.151,1.358,13.16,1.417z"/>
		<path style="fill-rule:evenodd;clip-rule:evenodd;fill:#FF8080;" d="M25.299,20.556c-1.11,0.512-1.916,1.438-1.798,2.068
			c0.118,0.63,1.114,0.726,2.224,0.214c1.111-0.512,1.916-1.438,1.799-2.069C27.407,20.14,26.411,20.044,25.299,20.556z"/>
		<path style="fill-rule:evenodd;clip-rule:evenodd;fill:#FF8080;" d="M30.326,14.858c-0.371,3.341-1.345,6.33-2.923,7.826
			c-4.088,3.876-18.718,3.876-22.806,0c-0.494-0.468-0.929-1.083-1.305-1.81c-1.021-1.974-1.604-4.77-1.752-7.687
			c-0.029,0.58-0.041,1.165-0.036,1.749c0.004-0.403,0.015-0.805,0.036-1.206c0.201,3.99,1.22,7.755,3.057,9.496
			c4.088,3.876,18.718,3.876,22.806,0c1.837-1.741,2.855-5.506,3.057-9.496c0.02,0.401,0.032,0.804,0.036,1.208
			c0.005-0.585-0.006-1.171-0.036-1.752C30.431,13.75,30.387,14.309,30.326,14.858z"/>
		<path style="fill-rule:evenodd;clip-rule:evenodd;fill:#E6E6E6;" d="M3.414,26.89c-2.226-2.111-3.363-6.915-3.413-11.783
			c-0.052,5.09,1.085,10.242,3.413,12.45c4.513,4.278,20.658,4.278,25.171,0c2.328-2.208,3.465-7.36,3.413-12.45
			c-0.05,4.868-1.187,9.672-3.413,11.783C24.074,31.167,7.926,31.167,3.414,26.89z"/>
	</g>
	<g>
		<path style="fill:#AA0000;" d="M12.358,14.586c0.299,0.751,1.05,1.291,1.943,1.291h8.853c1.152,0,2.091-0.892,2.091-1.988
			c0-1.094-0.939-1.986-2.091-1.986h-8.853c-0.836,0-1.549,0.477-1.883,1.153c-0.188-0.699-0.657-1.288-1.29-1.655
			c0.577-0.335,1.014-0.854,1.231-1.474c0.299,0.75,1.05,1.289,1.943,1.289h8.853c1.152,0,2.091-0.892,2.091-1.986
			s-0.939-1.986-2.091-1.986h-8.853c-0.836,0-1.549,0.477-1.883,1.154c-0.318-1.182-1.44-2.063-2.782-2.063
			c-1.587,0-2.881,1.228-2.881,2.736c0,0.989,0.56,1.849,1.389,2.33c-0.829,0.481-1.389,1.341-1.389,2.329
			c0,1.056,0.641,1.964,1.565,2.42c-0.925,0.456-1.565,1.364-1.565,2.42c0,1.508,1.293,2.736,2.881,2.736
			c1.271,0,2.341-0.793,2.722-1.88c0.299,0.75,1.05,1.291,1.943,1.291h8.853c1.152,0,2.091-0.892,2.091-1.986
			c0-1.096-0.939-1.988-2.091-1.988h-8.853c-0.836,0-1.549,0.477-1.883,1.154c-0.205-0.762-0.746-1.391-1.466-1.746
			C11.613,15.824,12.12,15.267,12.358,14.586z M14.301,13.422h8.853c0.271,0,0.492,0.21,0.492,0.468
			c0,0.255-0.226,0.469-0.492,0.469h-8.853c-0.266,0-0.492-0.215-0.492-0.469C13.808,13.637,14.034,13.422,14.301,13.422z
			 M14.301,8.763h8.853c0.271,0,0.492,0.21,0.492,0.469c0,0.253-0.226,0.466-0.492,0.466h-8.853c-0.266,0-0.492-0.215-0.492-0.468
			C13.808,8.973,14.029,8.763,14.301,8.763z M14.301,18.262h8.853c0.266,0,0.492,0.215,0.492,0.469c0,0.253-0.226,0.468-0.492,0.468
			h-8.853c-0.266,0-0.492-0.215-0.492-0.468C13.808,18.476,14.034,18.262,14.301,18.262z M10.918,13.731
			c0,0.671-0.575,1.218-1.282,1.218c-0.707,0-1.282-0.546-1.282-1.218s0.575-1.218,1.282-1.218
			C10.343,12.513,10.918,13.059,10.918,13.731z M9.636,7.854c0.707,0,1.282,0.546,1.282,1.218c0,0.673-0.575,1.219-1.282,1.219
			c-0.707,0-1.282-0.546-1.282-1.219C8.354,8.4,8.929,7.854,9.636,7.854z M9.636,19.788c-0.707,0-1.282-0.546-1.282-1.218
			c0-0.671,0.575-1.218,1.282-1.218c0.707,0,1.282,0.546,1.282,1.218C10.918,19.242,10.343,19.788,9.636,19.788z"/>
		<g>
			<ellipse style="fill-rule:evenodd;clip-rule:evenodd;fill:#FFFFFF;" cx="9.636" cy="9.072" rx="2.082" ry="1.977"/>
			<ellipse style="fill-rule:evenodd;clip-rule:evenodd;fill:#FFFFFF;" cx="9.636" cy="18.57" rx="2.082" ry="1.977"/>
			<ellipse style="fill-rule:evenodd;clip-rule:evenodd;fill:#FFFFFF;" cx="9.636" cy="13.731" rx="2.082" ry="1.977"/>
			<path style="fill-rule:evenodd;clip-rule:evenodd;fill:#FFFFFF;" d="M23.154,8.004h-8.853c-0.71,0-1.292,0.552-1.292,1.227v0.001
				c0,0.674,0.582,1.227,1.292,1.227h8.853c0.711,0,1.292-0.552,1.292-1.227V9.231C24.446,8.556,23.865,8.004,23.154,8.004z"/>
			<path style="fill-rule:evenodd;clip-rule:evenodd;fill:#FFFFFF;" d="M23.154,12.663h-8.853c-0.71,0-1.292,0.552-1.292,1.227
				c0,0.675,0.582,1.228,1.292,1.228h8.853c0.71,0,1.292-0.553,1.292-1.228C24.446,13.215,23.865,12.663,23.154,12.663z"/>
			<path style="fill-rule:evenodd;clip-rule:evenodd;fill:#FFFFFF;" d="M23.154,17.502h-8.853c-0.71,0-1.292,0.552-1.292,1.228
				c0,0.675,0.582,1.227,1.292,1.227h8.853c0.709,0,1.292-0.553,1.292-1.227C24.446,18.056,23.865,17.502,23.154,17.502z"/>
		</g>
	</g>
</g>
<g>
	<g>
		<path style="opacity:0.2;fill-rule:evenodd;clip-rule:evenodd;" d="M66.436-30.494c-4.571,4.32-4.585,19.958-0.022,24.285
			c4.512,4.278,20.659,4.278,25.171,0c4.563-4.327,4.549-19.966-0.022-24.285C86.95-34.855,71.05-34.855,66.436-30.494z"/>
		<path style="fill-rule:evenodd;clip-rule:evenodd;fill:#FFFFFF;" d="M66.436-31.729c-4.571,4.32-4.585,19.958-0.022,24.285
			c4.512,4.278,20.659,4.278,25.171,0c4.563-4.327,4.549-19.966-0.022-24.285C86.95-36.09,71.05-36.09,66.436-31.729z"/>
		<path style="fill-rule:evenodd;clip-rule:evenodd;fill:#FF5555;" d="M67.617-31.356c-4.142,3.914-4.154,18.082-0.019,22.003
			c4.088,3.877,18.718,3.877,22.805,0c4.134-3.921,4.122-18.089-0.019-22.003C86.203-35.308,71.797-35.308,67.617-31.356z"/>
		<path style="fill-rule:evenodd;clip-rule:evenodd;fill:#AA0000;" d="M90.403-12.316c-4.088,3.876-18.718,3.876-22.805,0
			c-1.837-1.742-2.855-5.507-3.057-9.497c-0.25,4.975,0.768,10.288,3.057,12.459c4.088,3.877,18.718,3.877,22.805,0
			c2.289-2.171,3.307-7.485,3.057-12.459C93.258-17.823,92.24-14.058,90.403-12.316z"/>
		<path style="fill-rule:evenodd;clip-rule:evenodd;fill:#FF2A2A;" d="M66.293-14.125c0.376,0.726,0.811,1.34,1.305,1.809
			c4.088,3.876,18.718,3.876,22.805,0c1.578-1.497,2.552-4.485,2.923-7.826C85.654-14.79,76.625-12.829,66.293-14.125z"/>
		<path style="fill-rule:evenodd;clip-rule:evenodd;fill:#FF8080;" d="M67.617-31.356c-1.241,1.173-2.112,3.267-2.611,5.731
			c7.167-7.076,21.537-8.206,27.622-1.509c-0.517-1.8-1.266-3.297-2.245-4.222C86.203-35.308,71.797-35.308,67.617-31.356z"/>
		<path style="fill-rule:evenodd;clip-rule:evenodd;fill:#FFAAAA;" d="M70.881-32.302c-1.759,0.475-3.185,1.627-3.185,2.575
			c0,0.948,1.426,1.332,3.185,0.857c1.76-0.474,3.185-1.626,3.185-2.573C74.065-32.392,72.64-32.776,70.881-32.302z"/>
		<path style="fill-rule:evenodd;clip-rule:evenodd;fill:#FFAAAA;" d="M76.16-33.583c-0.991,0.059-1.888,0.514-2.003,1.017
			c-0.115,0.503,0.595,0.863,1.587,0.805c0.991-0.059,1.888-0.514,2.003-1.018C77.861-33.282,77.151-33.643,76.16-33.583z"/>
		<path style="fill-rule:evenodd;clip-rule:evenodd;fill:#FF8080;" d="M88.299-14.444c-1.11,0.512-1.916,1.438-1.798,2.069
			c0.118,0.63,1.114,0.726,2.224,0.214c1.111-0.512,1.916-1.438,1.799-2.068C90.407-14.86,89.411-14.956,88.299-14.444z"/>
		<path style="fill-rule:evenodd;clip-rule:evenodd;fill:#FF8080;" d="M93.326-20.142c-0.371,3.341-1.345,6.329-2.923,7.826
			c-4.088,3.876-18.718,3.876-22.805,0c-0.494-0.469-0.929-1.083-1.305-1.809c-1.021-1.974-1.604-4.77-1.752-7.688
			c-0.029,0.58-0.041,1.166-0.036,1.75c0.004-0.403,0.015-0.806,0.036-1.207c0.201,3.99,1.22,7.755,3.057,9.497
			c4.088,3.876,18.718,3.876,22.805,0c1.837-1.742,2.855-5.507,3.057-9.497c0.02,0.401,0.032,0.805,0.036,1.208
			c0.005-0.585-0.006-1.171-0.036-1.752C93.431-21.25,93.387-20.691,93.326-20.142z"/>
		<path style="fill-rule:evenodd;clip-rule:evenodd;fill:#E6E6E6;" d="M66.414-8.11c-2.226-2.111-3.363-6.915-3.413-11.783
			c-0.052,5.09,1.085,10.242,3.413,12.449c4.513,4.278,20.658,4.278,25.171,0c2.328-2.208,3.465-7.359,3.413-12.449
			c-0.05,4.867-1.187,9.672-3.413,11.783C87.074-3.833,70.926-3.833,66.414-8.11z"/>
	</g>
	<g>
		<path style="fill:#AA0000;" d="M82.968-29.895h-1.667c-1.113,0-2.044,0.735-2.301,1.719c-0.257-0.983-1.188-1.719-2.301-1.719
			h-1.667c-1.31,0-2.377,1.014-2.377,2.258v12.699c0,1.244,1.067,2.258,2.377,2.258H76.7c1.113,0,2.044-0.735,2.301-1.719
			c0.257,0.983,1.188,1.719,2.301,1.719h1.667c1.311,0,2.379-1.014,2.379-2.258v-12.699C85.346-28.881,84.279-29.895,82.968-29.895z
			 M77.478-14.938c0,0.407-0.349,0.739-0.778,0.739h-1.667c-0.429,0-0.778-0.332-0.778-0.739v-12.699
			c0-0.407,0.349-0.739,0.778-0.739H76.7c0.429,0,0.778,0.332,0.778,0.739V-14.938z M83.748-14.938c0,0.407-0.349,0.739-0.78,0.739
			h-1.667c-0.429,0-0.778-0.332-0.778-0.739v-12.699c0-0.407,0.349-0.739,0.778-0.739h1.667c0.431,0,0.78,0.332,0.78,0.739V-14.938z
			"/>
		<path style="fill-rule:evenodd;clip-rule:evenodd;fill:#FFFFFF;" d="M76.7-29.136h-1.667c-0.868,0-1.578,0.674-1.578,1.499v12.699
			c0,0.824,0.71,1.499,1.578,1.499H76.7c0.868,0,1.578-0.675,1.578-1.499v-12.699C78.277-28.461,77.567-29.136,76.7-29.136z"/>
		<path style="fill-rule:evenodd;clip-rule:evenodd;fill:#FFFFFF;" d="M82.968-29.136h-1.667c-0.868,0-1.578,0.674-1.578,1.499
			v12.699c0,0.824,0.71,1.499,1.578,1.499h1.667c0.868,0,1.579-0.675,1.579-1.499v-12.699
			C84.546-28.461,83.836-29.136,82.968-29.136z"/>
	</g>
</g>
<g>
	<g>
		<path style="opacity:0.2;fill-rule:evenodd;clip-rule:evenodd;" d="M102.436-30.495c-4.571,4.32-4.585,19.959-0.022,24.286
			c4.512,4.278,20.659,4.278,25.171,0c4.563-4.327,4.549-19.967-0.022-24.286C122.95-34.856,107.05-34.856,102.436-30.495z"/>
		<path style="fill-rule:evenodd;clip-rule:evenodd;fill:#FFFFFF;" d="M102.436-31.729c-4.571,4.32-4.585,19.957-0.022,24.285
			c4.512,4.278,20.659,4.278,25.171,0c4.563-4.327,4.549-19.965-0.022-24.285C122.95-36.09,107.05-36.09,102.436-31.729z"/>
		<path style="fill-rule:evenodd;clip-rule:evenodd;fill:#FF5555;" d="M103.617-31.357c-4.142,3.914-4.154,18.082-0.019,22.004
			c4.088,3.875,18.718,3.875,22.805,0c4.134-3.921,4.122-18.09-0.019-22.004C122.203-35.308,107.797-35.308,103.617-31.357z"/>
		<path style="fill-rule:evenodd;clip-rule:evenodd;fill:#AA0000;" d="M126.403-12.317c-4.088,3.877-18.718,3.877-22.805,0
			c-1.837-1.742-2.855-5.506-3.057-9.497c-0.25,4.975,0.768,10.289,3.057,12.46c4.088,3.875,18.718,3.875,22.805,0
			c2.289-2.171,3.307-7.485,3.057-12.46C129.258-17.823,128.24-14.059,126.403-12.317z"/>
		<path style="fill-rule:evenodd;clip-rule:evenodd;fill:#FF2A2A;" d="M102.293-14.125c0.376,0.725,0.811,1.34,1.305,1.809
			c4.088,3.877,18.718,3.877,22.805,0c1.578-1.495,2.552-4.485,2.923-7.826C121.654-14.79,112.625-12.829,102.293-14.125z"/>
		<path style="fill-rule:evenodd;clip-rule:evenodd;fill:#FF8080;" d="M103.617-31.357c-1.241,1.173-2.112,3.267-2.611,5.732
			c7.167-7.076,21.537-8.207,27.622-1.509c-0.517-1.799-1.266-3.296-2.245-4.222C122.203-35.308,107.797-35.308,103.617-31.357z"/>
		<path style="fill-rule:evenodd;clip-rule:evenodd;fill:#FFAAAA;" d="M106.881-32.303c-1.759,0.475-3.185,1.627-3.185,2.576
			c0,0.948,1.426,1.332,3.185,0.857c1.76-0.474,3.185-1.625,3.185-2.573C110.065-32.393,108.64-32.777,106.881-32.303z"/>
		<path style="fill-rule:evenodd;clip-rule:evenodd;fill:#FFAAAA;" d="M112.16-33.584c-0.991,0.059-1.888,0.514-2.003,1.019
			c-0.115,0.502,0.595,0.863,1.587,0.804c0.991-0.059,1.888-0.514,2.003-1.018C113.861-33.283,113.151-33.643,112.16-33.584z"/>
		<path style="fill-rule:evenodd;clip-rule:evenodd;fill:#FF8080;" d="M124.299-14.445c-1.11,0.512-1.916,1.438-1.798,2.07
			c0.118,0.63,1.114,0.725,2.224,0.214c1.111-0.512,1.916-1.44,1.799-2.07C126.407-14.86,125.411-14.957,124.299-14.445z"/>
		<path style="fill-rule:evenodd;clip-rule:evenodd;fill:#FF8080;" d="M129.326-20.142c-0.371,3.341-1.345,6.33-2.923,7.826
			c-4.088,3.877-18.718,3.877-22.805,0c-0.494-0.469-0.929-1.083-1.305-1.809c-1.021-1.974-1.604-4.77-1.752-7.688
			c-0.029,0.582-0.041,1.167-0.036,1.75c0.004-0.403,0.015-0.805,0.036-1.207c0.201,3.991,1.22,7.755,3.057,9.497
			c4.088,3.877,18.718,3.877,22.805,0c1.837-1.742,2.855-5.506,3.057-9.497c0.02,0.401,0.032,0.805,0.036,1.208
			c0.005-0.583-0.007-1.17-0.036-1.752C129.431-21.25,129.387-20.692,129.326-20.142z"/>
		<path style="fill-rule:evenodd;clip-rule:evenodd;fill:#E6E6E6;" d="M102.414-8.111c-2.226-2.111-3.363-6.914-3.413-11.783
			c-0.052,5.091,1.085,10.242,3.413,12.449c4.513,4.278,20.658,4.278,25.171,0c2.328-2.207,3.465-7.358,3.413-12.449
			c-0.05,4.869-1.187,9.672-3.413,11.783C123.074-3.833,106.926-3.833,102.414-8.111z"/>
	</g>
	<g>
		<path style="fill:#AA0000;" d="M122.799-21.162c0-1.35-0.847-2.543-2.153-3.068v-2.826c0.002-0.721-0.226-1.228-0.678-1.511
			c-0.447-0.279-1.012-0.275-1.677,0.002l-5.896,3.492c-0.224-0.509-0.753-0.869-1.37-0.869h-2.338
			c-0.819,0-1.487,0.633-1.487,1.411v6.738c0,0.778,0.668,1.411,1.487,1.411h2.338c0.572,0,1.054-0.318,1.302-0.769l5.574,3.302
			c0.245,0.103,0.705,0.299,1.197,0.299c0.262,0,0.533-0.056,0.785-0.21c0.749-0.458,0.759-1.446,0.762-1.778v-2.555
			C121.952-18.619,122.799-19.81,122.799-21.162z M108.8-17.794l-0.112-6.63h2.228l0.11,6.522L108.8-17.794z M119.047-15.545
			c-0.002,0.264-0.032,0.414-0.023,0.471c-0.071-0.011-0.192-0.04-0.374-0.113l-5.724-3.404l0.026-5.023l6.029-3.582
			c0.021-0.008,0.041-0.015,0.06-0.022c0.003,0.043,0.006,0.096,0.005,0.159V-15.545z M121.09-20.545v-1.233
			c0.071,0.193,0.11,0.401,0.11,0.616C121.2-20.948,121.161-20.74,121.09-20.545z"/>
		<path style="fill-rule:evenodd;clip-rule:evenodd;fill:#FFFFFF;" d="M111.025-25.183h-2.338c-0.377,0-0.686,0.293-0.686,0.651
			v6.738c0,0.358,0.309,0.651,0.686,0.651h2.338c0.377,0,0.686-0.293,0.686-0.651v-6.738
			C111.712-24.889,111.402-25.183,111.025-25.183z"/>
		<path style="fill-rule:evenodd;clip-rule:evenodd;fill:#FFFFFF;" d="M118.611-27.871l-6.082,3.613
			c-0.266,0.157-0.402,0.361-0.402,0.718v4.949c0,0.268,0.125,0.5,0.409,0.668l5.691,3.38c0.864,0.366,1.606,0.475,1.619-0.995
			v-11.52C119.849-27.982,119.402-28.2,118.611-27.871z"/>
		<path style="fill-rule:evenodd;clip-rule:evenodd;fill:#FFFFFF;" d="M120.29-23.559v4.793c1.002-0.38,1.709-1.31,1.709-2.397
			C121.999-22.249,121.291-23.178,120.29-23.559z"/>
	</g>
</g>
</svg>
