<?xml version="1.0" encoding="utf-8"?>
<!-- Generator: Adobe Illustrator 21.0.0, SVG Export Plug-In . SVG Version: 6.00 Build 0)  -->
<svg version="1.1" id="Capa_1" xmlns="http://www.w3.org/2000/svg" xmlns:xlink="http://www.w3.org/1999/xlink" x="0px" y="0px"
	 viewBox="0 0 176.334 54.263" style="enable-background:new 0 0 176.334 54.263;" xml:space="preserve">
<g>
	<g>
		<g>
			<path style="opacity:0.2;fill-rule:evenodd;clip-rule:evenodd;" d="M166.841,15.711c7.815,0.022,9.535,7.769,9.489,15.465
				c-0.046,7.609-1.105,15.175-9.574,15.151C142.484,46.26,46.02,46.05,21.748,45.983c-8.468-0.024-9.485-7.594-9.49-15.204
				c-0.004-7.697,1.76-15.434,9.575-15.412C46.105,15.434,142.569,15.644,166.841,15.711z"/>
			<path style="fill-rule:evenodd;clip-rule:evenodd;fill:#FFFFFF;" d="M166.845,14.196c7.815,0.022,9.535,7.77,9.489,15.466
				c-0.046,7.609-1.105,15.174-9.574,15.15c-24.272-0.067-120.736-0.277-145.008-0.345c-8.468-0.024-9.485-7.594-9.49-15.203
				c-0.004-7.697,1.76-15.435,9.575-15.413C46.109,13.919,142.573,14.129,166.845,14.196z"/>
			<path style="fill-rule:evenodd;clip-rule:evenodd;fill:#FFD30E;" d="M164.136,16.373c7.235,0.02,8.83,6.212,8.79,12.362
				c-0.04,6.08-1.018,12.126-8.858,12.104c-22.47-0.062-117.132-0.267-139.602-0.33c-7.84-0.022-8.783-6.072-8.791-12.153
				c-0.007-6.151,1.624-12.333,8.859-12.313C47.004,16.106,141.665,16.311,164.136,16.373z"/>
			<path style="fill-rule:evenodd;clip-rule:evenodd;fill:#E6E6E6;" d="M21.755,43.368c-8.313-0.023-9.445-7.321-9.488-14.789
				c0,0.003,0,0.005,0,0.007c-0.003,0.226-0.005,0.454-0.005,0.678c0.004,7.609,1.022,15.18,9.49,15.203l145.008,0.345
				c8.468,0.024,9.528-7.541,9.574-15.15c0.001-0.227,0.001-0.457,0-0.685c-0.085,7.467-1.258,14.759-9.571,14.736L21.755,43.368z"
				/>
			<path style="fill-rule:evenodd;clip-rule:evenodd;fill:#FEE147;" d="M164.074,38.339l-139.601-0.33
				c-7.308-0.02-8.624-5.281-8.775-10.921c-0.016,0.422-0.023,0.847-0.023,1.268c0.006,6.082,0.951,12.131,8.791,12.153
				l139.601,0.33c7.84,0.022,8.819-6.022,8.858-12.104c0.003-0.422-0.002-0.847-0.016-1.268
				C172.728,33.106,171.382,38.36,164.074,38.339z"/>
			<path style="fill-rule:evenodd;clip-rule:evenodd;fill:#C96900;" d="M15.676,28.307l0,0.05
				c-0.017,6.08,0.951,12.131,8.791,12.153l139.601,0.33c7.84,0.022,8.818-6.022,8.858-12.104l0-0.05c0-0.33-0.006-0.66-0.017-0.99
				c-0.182,5.639-1.527,10.893-8.835,10.872l-139.601-0.33c-7.308-0.02-8.624-5.281-8.775-10.921
				C15.685,27.646,15.678,27.977,15.676,28.307z"/>
			<path style="fill-rule:evenodd;clip-rule:evenodd;fill:#FFAC04;" d="M172.323,32.227c-35.485,3.484-136.004,3.576-155.961,0.011
				c0.947,3.325,3.147,5.757,8.111,5.771l139.601,0.33C169.23,38.354,171.417,35.744,172.323,32.227z"/>
			<path style="fill-rule:evenodd;clip-rule:evenodd;fill:#FEE147;" d="M24.531,17.053l139.601,0.33
				c6.557,0.018,8.482,5.104,8.755,10.635c0.009-0.183,0.016-0.366,0.022-0.55c-0.175-5.292-1.778-10.296-7.386-11.008
				c-0.438-0.056-0.902-0.085-1.389-0.086l-139.601-0.33c-0.487-0.001-0.95,0.025-1.389,0.078
				c-5.612,0.681-7.242,5.676-7.447,10.967c0.005,0.184,0.012,0.367,0.019,0.55C16.021,22.109,17.976,17.034,24.531,17.053z"/>
			<path style="fill-rule:evenodd;clip-rule:evenodd;fill:#FE8D00;" d="M164.662,19.167c4.441,0.012,5.419,4.421,5.393,8.8
				c-0.026,4.329-0.629,8.634-5.441,8.621c-13.794-0.038-108.231-0.243-122.024-0.281c-4.813-0.013-5.39-4.321-5.393-8.651
				c-0.002-4.379,1-8.782,5.441-8.77C56.431,18.925,150.868,19.129,164.662,19.167z"/>
			<path style="fill-rule:evenodd;clip-rule:evenodd;fill:#FEE147;" d="M164.659,20.157c4.441,0.012,5.42,4.171,5.394,8.301
				c-0.025,4.083-0.627,8.144-5.44,8.13c-13.794-0.038-108.231-0.243-122.024-0.281c-4.813-0.013-5.391-4.077-5.394-8.161
				c-0.003-4.13,0.999-8.283,5.44-8.271C56.428,19.914,150.865,20.118,164.659,20.157z"/>
			<path style="fill-rule:evenodd;clip-rule:evenodd;fill:#FEC31D;" d="M164.659,20.157c4.441,0.012,5.42,3.943,5.395,7.846
				c-0.025,3.858-0.626,7.696-5.439,7.683c-13.794-0.038-108.231-0.243-122.024-0.281c-4.813-0.013-5.391-3.854-5.395-7.713
				c-0.004-3.905,0.997-7.828,5.439-7.816C56.428,19.914,150.865,20.118,164.659,20.157z"/>
		</g>
		<g>
			<path style="opacity:0.2;" d="M34.394,27.95c0.085-0.178,0.148-0.367,0.181-0.57c0.157-0.962-0.17-1.6-0.471-1.966
				c-0.741-0.899-1.9-0.935-2.747-0.962c-0.228-0.007-0.573-0.018-0.692-0.05c-0.245-0.067-0.479-0.118-0.702-0.167
				c-0.235-0.051-0.591-0.128-0.679-0.202c-0.092-0.134-0.183-0.394-0.27-0.645c-0.188-0.543-0.423-1.218-1.005-1.783
				c-0.354-0.343-1.389-0.888-1.601-0.975c-0.507-0.211-1.055-0.277-1.539-0.335c-0.279-0.034-0.567-0.069-0.729-0.119
				c-0.051-0.016-0.105-0.032-0.159-0.048c-0.021-0.322-0.091-0.59-0.147-0.8c-0.008-0.03-0.016-0.06-0.024-0.092
				c0.027-0.063,0.051-0.132,0.071-0.206c0.215-0.785,0.058-1.385-0.046-1.782c-0.023-0.089-0.052-0.181-0.064-0.287
				c0,0-0.066-0.598-0.09-0.79c0.13-0.24,0.226-0.47,0.309-0.669c0.08-0.19,0.162-0.387,0.228-0.475
				c0.118-0.155,0.314-0.351,0.53-0.537c0.041,0.004,0.084,0.005,0.128,0.005c0.305,0,0.611-0.091,0.865-0.258
				c0.332-0.218,0.542-0.489,0.683-0.676c0.238-0.095,0.41-0.121,0.824-0.139c0.146,0.037,0.297,0.056,0.449,0.056
				c0.767,0,1.445-0.466,1.813-1.247c0.346-0.732,0.358-1.548,0.058-2.211c0.37-0.895,0.255-1.89-0.305-2.571
				c-0.543-0.66-1.174-0.995-1.877-0.995c-0.554,0-0.992,0.212-1.295,0.399c-0.379,0.156-1.834,0.664-1.997,0.722
				c-0.303,0.081-0.691,0.227-1.048,0.366c-0.194,0.076-0.374,0.151-0.435,0.175c-0.06-0.006-0.244-0.081-0.365-0.129
				c-0.318-0.129-0.753-0.306-1.286-0.344c-0.101-0.007-0.19-0.01-0.271-0.01c-0.424,0-0.793,0.09-1.104,0.271
				c-0.28-0.134-0.671-0.297-1.169-0.297c-0.576,0.002-1.101,0.251-1.485,0.433l-0.167,0.078c-0.127,0.056-0.625,0.285-1.158,0.645
				c0.134-0.383,0.167-0.8-0.009-1.248C15.547,7.39,15.48,7.273,15.4,7.167c-0.001-0.007-0.002-0.014-0.002-0.021
				c0.296-0.475,0.456-1.057,0.2-1.709C15.547,5.31,15.48,5.193,15.4,5.087c-0.054-0.502-0.197-0.991-0.434-1.313
				c-0.017-0.024-0.036-0.047-0.054-0.069c-0.084-0.103-0.18-0.196-0.283-0.274c-0.279-0.208-0.607-0.31-0.933-0.31
				c-0.345,0-0.685,0.12-0.966,0.343c-0.094-0.12-0.208-0.239-0.356-0.352c-0.394-0.441-1.004-1.032-1.9-1.032
				c-0.906,0-1.476,0.569-2.079,1.17L8.313,3.334c-0.312,0.31-1.839,1.917-1.644,3.406C6.226,7.461,5.77,8.43,5.947,9.161
				C6.003,9.388,6.082,9.585,6.18,9.755c-0.215,0.51-0.34,1.042-0.233,1.486c0.273,1.118,1.136,1.515,1.792,1.515
				c1.108,0,1.824-0.973,2.297-1.617l0.073-0.099c0.109-0.144,0.192-0.305,0.246-0.476c0.044-0.077,0.104-0.166,0.172-0.262
				c0.515,0.833,1.248,0.971,1.67,0.971c0.603,0,1.094-0.264,1.584-0.557c0.09-0.054,0.215-0.136,0.352-0.231
				c-0.049,0.178-0.071,0.364-0.053,0.556c-0.035,0.047-0.068,0.096-0.099,0.147c-0.204,0.027-0.373,0.06-0.545,0.131
				c-0.015,0.006-0.142,0.061-0.338,0.175c-0.175,0.101-0.511,0.296-0.879,0.496c-0.269,0.146-0.473,0.25-0.627,0.324
				c-0.184-0.178-0.41-0.315-0.697-0.399c-0.142-0.041-0.288-0.061-0.434-0.061c-0.261,0-0.52,0.066-0.754,0.194
				c-0.718,0.396-0.988,1.229-1.022,2.058c-0.129,0.022-0.257,0.061-0.381,0.118c-0.348,0.158-0.612,0.431-0.765,0.755
				c-0.058,0.045-0.112,0.081-0.138,0.099c-0.326,0.235-0.578,0.607-0.651,1.003c-0.089,0.477,0.021,0.955,0.203,1.561
				c-0.099,0.161-0.17,0.339-0.204,0.52c-0.073,0.395-0.008,0.787,0.111,1.227c-0.01,0.171,0.003,0.332,0.029,0.48
				c-0.852,0.632-0.781,1.378-0.662,1.76c0.111,0.375,0.158,0.647,0.08,0.958c-0.072,0.105-0.172,0.217-0.254,0.316
				c-0.283,0.341-0.661,0.796-0.619,1.449c0.004,0.279,0.024,0.671,0.089,1.013c-0.375,0.189-0.797,0.444-1.135,0.86
				c-0.018,0.018-0.036,0.036-0.053,0.054c-0.171-0.014-0.349-0.022-0.531-0.022c-1.165,0-2.02,0.35-2.542,1.04
				c-0.152,0.201-0.347,0.535-0.424,0.995c-0.637,0.372-1.138,1.09-0.63,2.478c0.016,0.044,0.033,0.087,0.051,0.129
				c-0.284,0.426-0.382,1.046-0.05,1.951c0.258,0.705,0.725,1.123,1.068,1.379c0.069,0.276,0.205,0.615,0.512,0.907
				c0.251,0.238,0.533,0.403,0.787,0.528c-0.179,1.111,0.861,1.609,2.146,2.223c1.289,0.617,1.672,0.703,1.984,0.712
				c0.08,0.149,0.185,0.305,0.33,0.452c0.523,0.536,1.124,0.764,1.562,0.931c0.113,0.043,0.226,0.077,0.303,0.121
				c0.469,0.34,0.666,0.706,0.681,1.264c0.031,1.111,0.897,1.737,1.415,2.112c0.062,0.045,0.126,0.088,0.185,0.133
				c0.001,0.016,0,0.036,0,0.058c-0.003,0.556,0.145,1.011,0.44,1.363c-0.088,0.255-0.149,0.587-0.041,0.982
				c0.234,0.835,0.828,1.366,1.835,1.596l0.021,0.013c0.545,0.336,1.187,0.696,1.956,0.719c0.319,0,0.58-0.085,1.047-0.282
				c0.058,0.04,0.12,0.081,0.186,0.124c-0.202,0.325-0.281,0.718-0.21,1.105c0.052,0.287,0.183,0.549,0.372,0.76
				c-0.319,0.356-0.459,0.843-0.372,1.321c0.099,0.539,0.473,0.986,0.985,1.179c0.346,0.13,0.513,0.24,0.586,0.298
				c0.058,0.631,0.496,1.17,1.114,1.352c0.146,0.043,0.293,0.063,0.44,0.063c0.519,0,1.018-0.26,1.31-0.713
				c0.999-1.546,1.768-3.259,2.51-4.916c0.218-0.486,0.435-0.969,0.655-1.442c0.531-1.14,0.511-2.349,0.365-3.255
				c0.075-0.424,0.095-0.843,0.081-1.237c0.103,0.032,0.203,0.059,0.304,0.077c0.093,0.017,0.197,0.027,0.291,0.027
				c0.623,0,1.225-0.401,1.472-0.973c0.084-0.195,0.14-0.491,0.14-0.703c0-0.185-0.028-0.399-0.083-0.628
				c0.002,0.001,0.004,0.001,0.004,0.001c0.442,0.088,0.855,0.169,1.174,0.261c0.144,0.041,0.289,0.061,0.433,0.061
				c0.211,0,0.417-0.043,0.608-0.123c0.007,0,0.059-0.001,0.078-0.001c-0.038,0.253-0.014,0.478,0.001,0.617l0.008,0.081
				c-0.003,0.267,0.062,0.532,0.192,0.77c0.2,0.364,0.536,0.633,0.935,0.748c0.206,0.06,0.438,0.086,0.751,0.086
				c0.193,0,0.386-0.012,0.497-0.025c0.593-0.072,1.092-0.476,1.287-1.04c0.095-0.276,0.107-0.567,0.047-0.842
				c0.032,0.145,0.042,0.262,0.041,0.296c0.017-0.331,0.061-1.21-0.01-2.207c0.002,0.024,0.011,0.089,0.01,0.121
				c0.054-1.047,0.033-1.959-0.062-2.727c0.208-0.362,0.34-0.845,0.301-1.491c-0.022-0.361-0.08-0.666-0.139-0.939
				c0.118-0.332,0.165-0.713,0.139-1.142c-0.021-0.337-0.073-0.629-0.133-0.91c0.02-0.112,0.044-0.219,0.066-0.264
				c0.093-0.118,0.248-0.251,0.404-0.397c0.601-0.561,1.222-1.142,1.357-1.974C34.667,28.896,34.599,28.382,34.394,27.95z
				 M32.595,41.067c-0.032-0.136-0.081-0.267-0.149-0.39C32.526,40.82,32.567,40.95,32.595,41.067z M32.184,40.326
				c0.114,0.114,0.198,0.234,0.262,0.35C32.377,40.549,32.289,40.431,32.184,40.326z"/>
			<path style="fill:#FFFFFF;" d="M34.394,25.871c0.085-0.178,0.148-0.367,0.181-0.57c0.157-0.962-0.17-1.6-0.471-1.966
				c-0.741-0.899-1.9-0.935-2.747-0.962c-0.228-0.007-0.573-0.018-0.692-0.05c-0.245-0.067-0.479-0.118-0.702-0.167
				c-0.235-0.051-0.591-0.128-0.679-0.202c-0.092-0.134-0.183-0.394-0.27-0.645c-0.188-0.543-0.423-1.218-1.005-1.783
				c-0.354-0.343-1.389-0.888-1.601-0.975c-0.507-0.211-1.055-0.277-1.539-0.335c-0.279-0.034-0.567-0.069-0.729-0.119
				c-0.051-0.016-0.105-0.032-0.159-0.048c-0.021-0.322-0.091-0.59-0.147-0.8c-0.008-0.03-0.016-0.06-0.024-0.092
				c0.027-0.063,0.051-0.132,0.071-0.206c0.215-0.785,0.058-1.385-0.046-1.782c-0.023-0.089-0.052-0.181-0.064-0.287
				c0,0-0.066-0.598-0.09-0.79c0.13-0.24,0.226-0.47,0.309-0.669c0.08-0.19,0.162-0.387,0.228-0.475
				c0.118-0.155,0.314-0.351,0.53-0.537c0.041,0.004,0.084,0.005,0.128,0.005c0.305,0,0.611-0.091,0.865-0.258
				c0.332-0.218,0.542-0.489,0.683-0.676c0.238-0.095,0.41-0.121,0.824-0.139c0.146,0.037,0.297,0.056,0.449,0.056
				c0.767,0,1.445-0.466,1.813-1.247c0.346-0.732,0.358-1.548,0.058-2.211c0.37-0.895,0.255-1.89-0.305-2.571
				c-0.543-0.66-1.174-0.995-1.877-0.995c-0.554,0-0.992,0.212-1.295,0.399c-0.379,0.156-1.834,0.664-1.997,0.722
				c-0.303,0.081-0.691,0.227-1.048,0.366c-0.194,0.076-0.374,0.151-0.435,0.175c-0.06-0.006-0.244-0.081-0.365-0.129
				c-0.318-0.129-0.753-0.306-1.286-0.344c-0.101-0.007-0.19-0.01-0.271-0.01c-0.424,0-0.793,0.09-1.104,0.271
				c-0.28-0.134-0.671-0.297-1.169-0.297c-0.576,0.002-1.101,0.251-1.485,0.433l-0.167,0.078c-0.127,0.056-0.625,0.285-1.158,0.645
				c0.134-0.383,0.167-0.8-0.009-1.248C15.547,5.31,15.48,5.193,15.4,5.087c-0.001-0.007-0.002-0.014-0.002-0.021
				c0.296-0.475,0.456-1.057,0.2-1.709C15.547,3.23,15.48,3.113,15.4,3.007c-0.054-0.502-0.197-0.991-0.434-1.313
				c-0.017-0.024-0.036-0.047-0.054-0.069c-0.084-0.103-0.18-0.196-0.283-0.274c-0.279-0.208-0.607-0.31-0.933-0.31
				c-0.345,0-0.685,0.12-0.966,0.343c-0.094-0.12-0.208-0.239-0.356-0.352C11.981,0.591,11.371,0,10.475,0
				C9.569,0,8.999,0.569,8.396,1.17L8.313,1.254c-0.312,0.31-1.839,1.917-1.644,3.406C6.226,5.381,5.77,6.35,5.947,7.081
				C6.003,7.308,6.082,7.505,6.18,7.675c-0.215,0.51-0.34,1.042-0.233,1.486c0.273,1.118,1.136,1.515,1.792,1.515
				c1.108,0,1.824-0.973,2.297-1.617l0.073-0.099c0.109-0.144,0.192-0.305,0.246-0.476c0.044-0.077,0.104-0.166,0.172-0.262
				c0.515,0.833,1.248,0.971,1.67,0.971c0.603,0,1.094-0.264,1.584-0.557c0.09-0.054,0.215-0.136,0.352-0.231
				c-0.049,0.178-0.071,0.364-0.053,0.556c-0.035,0.047-0.068,0.096-0.099,0.147c-0.204,0.027-0.373,0.06-0.545,0.131
				c-0.015,0.006-0.142,0.061-0.338,0.175C12.924,9.515,12.587,9.71,12.22,9.91c-0.269,0.146-0.473,0.25-0.627,0.324
				c-0.184-0.178-0.41-0.315-0.697-0.399c-0.142-0.041-0.288-0.061-0.434-0.061c-0.261,0-0.52,0.066-0.754,0.194
				c-0.718,0.396-0.988,1.229-1.022,2.058c-0.129,0.022-0.257,0.061-0.381,0.118c-0.348,0.158-0.612,0.431-0.765,0.755
				c-0.058,0.045-0.112,0.081-0.138,0.099C7.077,13.232,6.825,13.605,6.752,14c-0.089,0.477,0.021,0.955,0.203,1.561
				c-0.099,0.161-0.17,0.339-0.204,0.52c-0.073,0.395-0.008,0.787,0.111,1.227c-0.01,0.171,0.003,0.332,0.029,0.48
				c-0.852,0.632-0.781,1.378-0.662,1.76c0.111,0.375,0.158,0.647,0.08,0.958c-0.072,0.105-0.172,0.217-0.254,0.316
				c-0.283,0.341-0.661,0.796-0.619,1.449c0.004,0.279,0.024,0.671,0.089,1.013c-0.375,0.189-0.797,0.444-1.135,0.86
				c-0.018,0.018-0.036,0.036-0.053,0.054c-0.171-0.014-0.349-0.022-0.531-0.022c-1.165,0-2.02,0.35-2.542,1.04
				c-0.152,0.201-0.347,0.535-0.424,0.995c-0.637,0.372-1.138,1.09-0.63,2.478c0.016,0.044,0.033,0.087,0.051,0.129
				c-0.284,0.426-0.382,1.046-0.05,1.951c0.258,0.705,0.725,1.123,1.068,1.379c0.069,0.276,0.205,0.615,0.512,0.907
				c0.251,0.238,0.533,0.403,0.787,0.528c-0.179,1.111,0.861,1.609,2.146,2.223c1.289,0.617,1.672,0.703,1.984,0.712
				c0.08,0.149,0.185,0.305,0.33,0.452c0.523,0.536,1.124,0.764,1.562,0.931c0.113,0.043,0.226,0.077,0.303,0.121
				c0.469,0.34,0.666,0.706,0.681,1.264c0.031,1.111,0.897,1.737,1.415,2.112c0.062,0.045,0.126,0.088,0.185,0.133
				c0.001,0.016,0,0.036,0,0.058c-0.003,0.556,0.145,1.011,0.44,1.363c-0.088,0.255-0.149,0.587-0.041,0.982
				c0.234,0.835,0.828,1.366,1.835,1.596l0.021,0.013c0.545,0.336,1.187,0.696,1.956,0.719c0.319,0,0.58-0.085,1.047-0.282
				c0.058,0.04,0.12,0.081,0.186,0.124c-0.202,0.325-0.281,0.718-0.21,1.105c0.052,0.287,0.183,0.549,0.372,0.76
				c-0.319,0.356-0.459,0.843-0.372,1.321c0.099,0.539,0.473,0.986,0.985,1.179c0.346,0.13,0.513,0.24,0.586,0.298
				c0.058,0.631,0.496,1.17,1.114,1.352c0.146,0.043,0.293,0.063,0.44,0.063c0.519,0,1.018-0.26,1.31-0.713
				c0.999-1.546,1.768-3.259,2.51-4.916c0.218-0.486,0.435-0.969,0.655-1.442c0.531-1.14,0.511-2.349,0.365-3.255
				c0.075-0.424,0.095-0.843,0.081-1.237c0.103,0.032,0.203,0.059,0.304,0.077c0.093,0.017,0.197,0.027,0.291,0.027
				c0.623,0,1.225-0.401,1.472-0.973c0.084-0.195,0.14-0.491,0.14-0.703c0-0.185-0.028-0.399-0.083-0.628l0.006,0.001
				c0.44,0.088,0.853,0.169,1.172,0.261c0.144,0.041,0.289,0.061,0.433,0.061c0.211,0,0.417-0.043,0.608-0.123
				c0.007,0,0.059-0.001,0.078-0.001c-0.038,0.253-0.014,0.478,0.001,0.617l0.008,0.081c-0.003,0.267,0.062,0.532,0.192,0.77
				c0.2,0.364,0.536,0.633,0.935,0.748c0.206,0.06,0.438,0.086,0.751,0.086c0.193,0,0.386-0.012,0.497-0.025
				c0.593-0.072,1.092-0.476,1.287-1.04c0.095-0.276,0.107-0.567,0.047-0.842c0.032,0.145,0.042,0.262,0.041,0.296
				c0.017-0.331,0.061-1.21-0.01-2.207c0.002,0.024,0.011,0.089,0.01,0.121c0.054-1.047,0.033-1.959-0.062-2.727
				c0.208-0.362,0.34-0.845,0.301-1.491c-0.022-0.361-0.08-0.666-0.139-0.939c0.118-0.332,0.165-0.713,0.139-1.142
				c-0.021-0.337-0.073-0.629-0.133-0.91c0.02-0.112,0.044-0.219,0.066-0.264c0.093-0.118,0.248-0.251,0.404-0.397
				c0.601-0.561,1.222-1.142,1.357-1.974C34.667,26.816,34.599,26.303,34.394,25.871z M32.595,38.987
				c-0.032-0.136-0.081-0.267-0.149-0.39C32.526,38.74,32.567,38.87,32.595,38.987z M32.184,38.246
				c0.114,0.114,0.198,0.234,0.262,0.35C32.377,38.47,32.289,38.351,32.184,38.246z"/>
			<g>
				<path style="fill:#054700;" d="M8.867,8.018c0.057-0.459,1.815-2.344,1.347-2.714c0.223-0.193,0.252-0.435,0.396-0.555
					c0.111-0.092,0.727-0.125,0.879-0.234c0.119-0.085-0.149-0.216-0.159-0.228c-0.846-0.972-0.972-0.788-1.916,0.152
					C9.024,4.827,7.66,6.467,8.455,6.867C8.302,7.011,7.4,8.532,7.463,8.791C7.691,9.726,8.589,8.384,8.867,8.018z"/>
				<path style="fill:#054700;" d="M12.981,7.298c0.262-0.157,1.307-0.93,1.169-1.282C14.143,6,13.835,6.042,13.792,6.023
					c0.107,0.048,0.116-1.109-0.097-1.342c0.19,0.142-1.314,0.695-1.44,0.8c-0.418,0.349-0.699,1.269-0.494,1.745
					C12.007,7.793,12.27,7.723,12.981,7.298z"/>
				<path style="fill:#054700;" d="M30.256,25.908c-0.966-0.263-1.743-0.25-2.254-0.984c-0.482-0.695-0.513-1.647-1.078-2.196
					C26.803,22.611,26,22.15,25.81,22.071c-0.575-0.239-1.489-0.204-2.137-0.407c-0.296-0.093-0.67-0.169-0.964-0.305
					c-0.139-0.064-0.261-0.141-0.346-0.241c-0.319-0.528-0.596-1.109-0.637-1.182c-0.16-0.496,0.638-1.276,0.65-1.318
					c0.157-0.574-0.092-0.931-0.155-1.474c-0.074-0.631-0.159-1.934-0.541-2.163c0.011,0.007-0.874,0.194-0.93,0.014
					c-0.004-0.014-0.005-0.03,0.002-0.05c0.179-0.5,1.154-0.991,1.419-1.371c0.336-0.482,0.445-1.097,0.805-1.571
					c0.353-0.465,0.955-0.974,1.411-1.275c0.08-0.053,0.463,0.148,0.497,0.125c0.258-0.17,0.406-0.569,0.683-0.699
					c0.706-0.33,1.07-0.354,1.948-0.383c0.477,0.358,0.965-0.819,0.544-1.331c-0.444-0.54-0.767-0.511-1.213-0.219
					c-0.169,0.111-2.32,0.852-2.349,0.86C23.985,9.22,23.194,9.59,22.88,9.65c-0.789,0.152-1.336-0.401-2.03-0.45
					c-0.782-0.056-0.445,0.281-0.883,0.367c-0.656,0.128-1.073-0.401-1.545-0.399c-0.292,0.001-0.746,0.255-1.031,0.38
					c-0.22,0.096-1.847,1.113-1.752,1.369c0.155-0.017,0.297-0.07,0.425-0.159c-0.17,0.057-0.285,1.252-0.773,1.232
					c0.998,0.683-1.046,0.684-1.282,0.781c-0.019,0.008-0.5,0.294-1.046,0.591c-0.588,0.319-1.252,0.649-1.502,0.657
					c-0.073,0.184,0.225,1.017,0.093,1.429c-0.154,0.482-0.359-0.14-0.572-0.82c-0.176-0.563-0.358-1.166-0.522-1.213
					c-0.295,0.163-0.283,1.49-0.024,1.96c0.061-0.106-1.389,0.653-1.344,0.735c-0.004-0.171-0.053-0.326-0.142-0.466
					c0.068,0.227-0.666,0.717-0.667,0.722c-0.088,0.476,1.002,2.821,0.408,2.649c-0.106,0.365,0.111,0.333-0.208,0.241
					c-0.276,0.48,0.321,0.781,0.154,1.249c-0.058,0.161-0.919,0.665-0.914,0.682c0.141,0.476,0.306,1.149,0.046,1.964
					c-0.118,0.369-0.796,1.015-0.775,1.118c0.001,0.169,0.056,0.855,0.093,0.923c0.035,0.072,0.422-0.309,0.404-0.213
					c0.004-0.02-0.133,0.889-0.139,0.949c-0.125,0.636-1.399,0.712-1.823,1.378c0.095-0.149-0.411,0.61-0.43,0.674
					c-0.433-0.125-3.162-0.618-2.679,1.091c0.947,0.274-0.317,0.648-0.266,0.315c-0.618,0.367-0.757,0.097-0.482,0.849
					c0.217,0.592,0.796,0.776,0.989,1.02c0.105,0.133,0.081,0.557,0.199,0.669c0.333,0.315,0.989,0.451,1.218,0.694
					c0.254,0.27,0.214,0.703,0.062,1.123c-0.009,0.026,0.609,0.351,1.253,0.66l0,0c0.613,0.293,1.248,0.571,1.387,0.56
					c0.308-0.744,0.688-0.118,1.034,0.207c0.159,0.149,0.171,0.547,0.335,0.716c0.483,0.494,1.218,0.554,1.666,0.88
					c1.024,0.743,1.301,1.657,1.324,2.482c0.017,0.624,1.281,1.033,1.482,1.597c0.311,0.872-0.188,1.087,0.598,1.314
					c0.554,0.16-0.162,1.273-0.139,1.359c0.151,0.54,0.663,0.428,0.975,0.585c0.204,0.104,0.865,0.589,1.334,0.604
					c0.124,0.004,1.243-0.522,1.255-0.502c0.106,0.172,3.489,2.312,3.696,2.423c0.22,0.118-2.166,2.187-2.392,2.386
					c0.616,0.232,1.588,0.701,1.59,1.613c1.221-1.889,2.11-4.127,3.061-6.169c0.696-1.495-0.003-3.312-0.003-3.313
					c-0.132-0.558-0.715-1.765,0.126-2.417c0.508-0.394,1.931,0.368,2.324,0.44c0.284,0.052-0.465-2.338-1.463-1.578
					c0.156-0.522,0.312-1.044,0.468-1.566c0.917,0.632,3.035,0.843,4.143,1.164c0,0.001-0.398-0.809,0.151-0.785
					c0.393,1.663,1.323-0.392,2.106,0.086c0.409,0.249,0.231,2.152-0.031,2.373c-0.018,0.015,0.045,0.424,0.029,0.479
					c0.121,0.035,0.485,0.028,0.627,0.01c-0.016-0.016,0.412-4.836-1.376-4.552c0.71-1.171,1.703-0.351,1.621-1.693
					c-0.033-0.545-0.205-0.961-0.266-1.496h0l0,0h0c-0.028-0.241-0.033-0.506,0.007-0.819c0.024-0.19,0.046-0.395,0.073-0.603
					c0.058-0.435,0.146-0.888,0.365-1.274c0.261-0.46,1.448-1.26,1.533-1.782C33.278,25.642,31.278,26.186,30.256,25.908z
					 M8.046,31.605c0.006,0.007,0.01,0.015,0.016,0.022C8.057,31.62,8.052,31.612,8.046,31.605z M8.19,31.742
					c0.012,0.009,0.023,0.022,0.035,0.03C8.213,31.764,8.202,31.751,8.19,31.742z"/>
			</g>
			<g>
				<g>
					<path style="fill:#0DA401;" d="M11.33,2.206c-0.846-0.972-0.972-0.788-1.916,0.152C9.024,2.747,7.66,4.387,8.455,4.787
						C8.302,4.931,7.4,6.453,7.463,6.711c0.228,0.935,1.126-0.408,1.404-0.774c0.057-0.459,1.815-2.344,1.347-2.714
						c0.223-0.193,0.252-0.436,0.396-0.555c0.111-0.092,0.727-0.125,0.879-0.234C11.607,2.35,11.34,2.219,11.33,2.206z"/>
					<path style="fill:#0DA401;" d="M13.792,3.943c0.107,0.048,0.116-1.109-0.097-1.342c0.19,0.142-1.314,0.695-1.44,0.8
						c-0.418,0.349-0.699,1.269-0.494,1.745c0.245,0.566,0.508,0.496,1.219,0.071c0.262-0.157,1.307-0.93,1.168-1.282
						C14.143,3.92,13.835,3.963,13.792,3.943z"/>
					<path style="fill:#0DA401;" d="M28.059,6.361c-0.444-0.54-0.767-0.51-1.213-0.219c-0.169,0.111-2.32,0.853-2.349,0.86
						C23.985,7.14,23.194,7.51,22.88,7.57c-0.789,0.152-1.336-0.401-2.03-0.45c-0.782-0.056-0.445,0.281-0.883,0.367
						c-0.656,0.128-1.073-0.401-1.545-0.399c-0.292,0.001-0.746,0.255-1.031,0.38c-0.22,0.096-1.847,1.113-1.752,1.369
						c0.155-0.017,0.297-0.07,0.425-0.159c-0.17,0.057-0.285,1.252-0.773,1.232c0.998,0.683-1.045,0.684-1.282,0.781
						c-0.019,0.008-0.5,0.294-1.046,0.591c-0.01,0.207-0.053,0.447-0.109,0.721c-0.186,0.904,0.306,0.357-0.647,1.883
						c-0.953,1.526,0.534,1.845,1.439,1.484c0.905-0.361,1.948-1.498,2.955-0.755c0,0,0.439,0.424,0.078,1.276
						c-0.361,0.852-0.092,2.144,0.661,1.621c0.753-0.523,0.735-0.461,1.07-1.387c0.335-0.926,0.685-1.448,0.602-0.16
						c0,0-0.12,0.877,0.668,0.304c0.788-0.573-0.523-1.575,0.328-2.441c0.583-0.593,0.716-0.824,0.742-0.911
						c-0.004-0.014-0.005-0.03,0.002-0.05c0.179-0.5,1.154-0.991,1.419-1.371c0.336-0.482,0.445-1.097,0.805-1.571
						c0.353-0.465,0.955-0.973,1.411-1.275c0.08-0.053,0.463,0.148,0.497,0.125c0.258-0.17,0.406-0.569,0.683-0.699
						c0.706-0.33,1.07-0.354,1.948-0.383C27.992,8.051,28.48,6.874,28.059,6.361z"/>
				</g>
				<path style="fill:#0DA401;" d="M13.796,26.002c-0.012,0.011-0.023,0.022-0.035,0.033C13.773,26.024,13.784,26.013,13.796,26.002
					c-0.414,0.391-0.79,0.824-1.179,1.128l0,0c0.191,0.375,0.321,0.929,0.139,1.702c-0.393,1.666,0.557,2.781,1.378,2.509
					c0.821-0.272-0.044-1.278,1.142-1.38s2.695-0.598,4.244-0.396c1.549,0.203,3.305,1.822,4.329,1.051
					c1.024-0.772,1.295-1.093,3.478-0.952c1.964,0.128,2.774,0.387,3.731-0.137l0,0l0,0c-0.028-0.241-0.033-0.506,0.007-0.819
					c0.024-0.19,0.046-0.395,0.073-0.603l0,0l0,0c0.058-0.435,0.146-0.888,0.365-1.274c0.261-0.46,1.448-1.26,1.533-1.782
					c0.242-1.487-1.758-0.943-2.78-1.221c-0.966-0.263-1.743-0.25-2.254-0.984c-0.482-0.694-0.513-1.647-1.078-2.196
					c-0.121-0.118-0.924-0.578-1.114-0.657c-0.575-0.239-1.489-0.204-2.137-0.407c-0.296-0.093-0.67-0.169-0.964-0.305
					c-0.899,0.777-2.159,2.011-1.961,2.669c0.304,1.009-0.18,0.632-1.296,0.902c0,0-0.75,0.184-1.13,1.152
					c-0.38,0.969-0.344,1.035-0.83,1.139c-0.486,0.104-0.691-0.533-0.691-0.533s-0.056-0.806-0.609-0.087
					c-0.552,0.719-0.611,0.346-1.515,0.818C14.357,25.508,14.068,25.745,13.796,26.002L13.796,26.002z"/>
				<path style="fill-rule:evenodd;clip-rule:evenodd;fill:#0DA401;" d="M22.364,19.038c-0.319-0.527-0.596-1.109-0.637-1.182
					c-0.16-0.496,0.638-1.276,0.65-1.318c0.157-0.574-0.092-0.931-0.155-1.474c-0.074-0.631-0.159-1.934-0.541-2.163
					c0.011,0.007-0.874,0.194-0.93,0.014c-0.026,0.087-0.16,0.318-0.742,0.911c-0.851,0.866,0.461,1.868-0.328,2.441
					c-0.788,0.573-0.668-0.304-0.668-0.304c0.083-1.288-0.268-0.767-0.602,0.16c-0.335,0.926-0.317,0.865-1.07,1.387
					c-0.753,0.523-1.022-0.769-0.661-1.621c0.361-0.852-0.078-1.276-0.078-1.276c-1.007-0.744-2.05,0.394-2.955,0.755
					c-0.905,0.361-2.392,0.042-1.439-1.484c0.953-1.526,0.461-0.979,0.647-1.883c0.056-0.274,0.099-0.514,0.109-0.721
					c-0.588,0.319-1.252,0.649-1.502,0.657c-0.073,0.184,0.225,1.017,0.093,1.429c-0.154,0.482-0.359-0.14-0.572-0.82
					c-0.104,0.389-0.248,0.906-0.345,1.15c-0.166,0.419,0.478,0.961,0.787,1.584c0.309,0.623-0.111,0.924-0.363,0.718
					c-0.252-0.206-0.647-0.454-0.867,0.305c-0.22,0.759-0.049,1.631,1.021,2.008c1.07,0.376,0.304,1.333-0.059,2.051
					s-0.014,2.38-0.05,2.943c-0.036,0.563-0.29,0.85-0.29,0.85S10.398,24.681,10,25.19c-0.398,0.51-0.44,1.005-0.259,1.302
					c0.181,0.297,0.579,0.612,0.278,1.037c-0.301,0.425-0.784,0.174-1.168,0.04c-0.384-0.133-0.476,0.263-0.476,0.263
					c-0.201,0.387-0.378,0.405-0.378,0.405c-0.791-0.092-0.396,0.349-0.396,0.349s0.296,1.131,0.827,1.185
					c0.531,0.054,1.745-0.775,2.76-1.593c1.015-0.819,0.469-0.431,1.202-0.887c0.732-0.456,1.384-1.479,2.288-1.952
					c0.904-0.473,0.963-0.1,1.515-0.818c0.552-0.719,0.609,0.087,0.609,0.087s0.205,0.637,0.691,0.533
					c0.486-0.104,0.45-0.17,0.83-1.139c0.38-0.969,1.13-1.152,1.13-1.152c1.116-0.27,1.6,0.107,1.296-0.902
					c-0.198-0.659,1.062-1.892,1.961-2.669C22.571,19.215,22.449,19.138,22.364,19.038z"/>
				<g>
					<path style="fill:#0DA401;" d="M5.395,32.32c-0.14-0.211-0.257-0.433-0.278-0.612c-0.061-0.507,0.587-1.046,0.583-1.492
						c-0.004-0.446,0.542-0.184,0.707-0.578c0.164-0.394,0.43-0.176,0.474,0.341c0.043,0.517,0.392,0.899,0.827,1.233
						c0.435,0.334,0.593-0.096,0.338-0.392c-0.255-0.296-0.043-0.517-0.043-0.517l0.402-0.538c-0.516-0.086-0.803-1.179-0.803-1.179
						s-0.395-0.441,0.396-0.349c0,0,0.178-0.019,0.378-0.405c0,0,0.092-0.396,0.476-0.263c0.384,0.133,0.867,0.384,1.168-0.04
						c0.301-0.425-0.097-0.74-0.278-1.037C9.56,26.195,9.602,25.7,10,25.19c0.398-0.51,0.817-1.034,0.817-1.034
						s0.254-0.287,0.29-0.85c0.036-0.563-0.313-2.225,0.05-2.943s1.129-1.675,0.059-2.051c-1.07-0.376-1.24-1.248-1.021-2.008
						c0.22-0.759,0.615-0.512,0.867-0.305c0.252,0.206,0.672-0.095,0.363-0.718c-0.309-0.623-0.953-1.165-0.787-1.584
						c0.097-0.244,0.241-0.761,0.345-1.15c-0.176-0.563-0.358-1.166-0.522-1.213c-0.295,0.163-0.283,1.49-0.024,1.96
						c0.061-0.106-1.389,0.653-1.344,0.735c-0.004-0.171-0.053-0.326-0.142-0.466c0.068,0.227-0.666,0.717-0.667,0.722
						c-0.088,0.476,1.002,2.821,0.408,2.649c-0.106,0.365,0.111,0.333-0.208,0.241c-0.276,0.48,0.321,0.781,0.154,1.249
						c-0.057,0.161-0.919,0.665-0.914,0.682c0.141,0.476,0.306,1.149,0.046,1.964c-0.118,0.369-0.796,1.015-0.775,1.118
						c0.001,0.169,0.056,0.855,0.093,0.923c0.035,0.072,0.422-0.309,0.404-0.213c0.004-0.02-0.133,0.889-0.139,0.949
						c0-0.003,0.002-0.005,0.002-0.007c-0.002,0.014-0.003,0.013-0.002,0.007c-0.125,0.636-1.399,0.712-1.823,1.378
						c0.095-0.15-0.411,0.61-0.43,0.674c-0.433-0.125-3.162-0.618-2.679,1.091c0.947,0.274-0.317,0.648-0.266,0.315
						c-0.618,0.367-0.757,0.097-0.482,0.849c0.217,0.592,0.796,0.776,0.989,1.02c0.105,0.133,0.081,0.557,0.199,0.669
						c0.333,0.315,0.989,0.451,1.218,0.694c0.254,0.27,0.214,0.703,0.062,1.123C4.132,31.687,4.751,32.012,5.395,32.32z"/>
				</g>
				<g>
					<path style="fill-rule:evenodd;clip-rule:evenodd;fill:#0DA401;" d="M31.138,28.105c0.028-0.208,0.063-0.421,0.116-0.628
						C31.201,27.685,31.166,27.897,31.138,28.105z"/>
					<path style="fill-rule:evenodd;clip-rule:evenodd;fill:#0DA401;" d="M13.796,26.002L13.796,26.002
						c-0.012,0.011-0.023,0.022-0.035,0.033C13.773,26.024,13.784,26.013,13.796,26.002z"/>
					<path style="fill-rule:evenodd;clip-rule:evenodd;fill:#0DA401;" d="M31.043,29.358c-0.001-0.017-0.002-0.034-0.002-0.051
						C31.041,29.324,31.042,29.341,31.043,29.358z"/>
					<path style="fill-rule:evenodd;clip-rule:evenodd;fill:#FEC31D;" d="M29.703,32.716c0.71-1.171,1.703-0.351,1.621-1.693
						c-0.033-0.545-0.205-0.961-0.266-1.496l0,0c-0.957,0.524-1.766,0.265-3.731,0.137c-2.183-0.142-2.454,0.18-3.478,0.952
						c-1.024,0.772-2.779-0.848-4.329-1.051c-1.549-0.203-3.058,0.294-4.244,0.396s-0.32,1.108-1.142,1.38
						c-0.821,0.272-1.771-0.843-1.378-2.509c0.182-0.773,0.052-1.327-0.139-1.702c0.004-0.003,0.008-0.007,0.012-0.01
						c-0.079,0.063-0.159,0.122-0.24,0.172c-0.732,0.456-0.187,0.068-1.202,0.887c-1.015,0.819-2.229,1.647-2.76,1.593
						c-0.008-0.001-0.016-0.004-0.024-0.006l-0.402,0.538c0,0-0.212,0.22,0.043,0.517c0.255,0.296,0.097,0.726-0.338,0.392
						c-0.435-0.334-0.784-0.716-0.827-1.233c-0.043-0.517-0.309-0.734-0.474-0.341c-0.164,0.394-0.711,0.132-0.707,0.578
						c0.004,0.446-0.644,0.985-0.583,1.492c0.021,0.179,0.138,0.401,0.278,0.612c0.613,0.293,1.248,0.571,1.387,0.56
						c0.308-0.744,0.688-0.118,1.034,0.207c0.159,0.149,0.171,0.547,0.335,0.716c0.483,0.494,1.218,0.555,1.666,0.88
						c1.024,0.743,1.301,1.657,1.324,2.482c0.017,0.624,1.281,1.033,1.482,1.597c0.311,0.872-0.188,1.087,0.598,1.314
						c0.554,0.16-0.162,1.273-0.139,1.359c0.151,0.54,0.663,0.428,0.975,0.585c0.204,0.103,0.865,0.589,1.334,0.604
						c0.124,0.004,1.243-0.522,1.255-0.502c0.106,0.172,3.489,2.312,3.696,2.423c0.22,0.118-2.166,2.187-2.392,2.386
						c0.616,0.232,1.588,0.701,1.59,1.613c1.221-1.889,2.11-4.127,3.061-6.169c0.696-1.495-0.003-3.312-0.004-3.313
						c-0.132-0.557-0.715-1.765,0.126-2.417c0.508-0.394,1.931,0.368,2.324,0.44c0.284,0.052-0.465-2.338-1.463-1.578
						c0.156-0.522,0.312-1.044,0.469-1.566c0.917,0.632,3.035,0.843,4.143,1.164c0,0.001-0.398-0.809,0.151-0.785
						c0.393,1.663,1.323-0.392,2.106,0.086c0.409,0.249,0.231,2.152-0.031,2.373c-0.018,0.015,0.045,0.424,0.029,0.479
						c0.121,0.035,0.485,0.028,0.627,0.01C31.063,37.251,31.491,32.432,29.703,32.716z"/>
					<path style="fill-rule:evenodd;clip-rule:evenodd;fill:#0DA401;" d="M31.138,28.107c-0.015,0.115-0.029,0.228-0.042,0.339
						C31.109,28.335,31.122,28.222,31.138,28.107z"/>
					<path style="fill-rule:evenodd;clip-rule:evenodd;fill:#0DA401;" d="M31.037,29.177c0-0.021,0-0.042,0-0.063
						C31.037,29.135,31.037,29.156,31.037,29.177z"/>
					<path style="fill-rule:evenodd;clip-rule:evenodd;fill:#0DA401;" d="M31.041,28.977c0.001-0.02,0.002-0.04,0.003-0.061
						C31.043,28.937,31.043,28.957,31.041,28.977z"/>
					<path style="fill-rule:evenodd;clip-rule:evenodd;fill:#0DA401;" d="M12.857,26.927l0.001-0.001L12.857,26.927z"/>
				</g>
			</g>
		</g>
	</g>
</g>
</svg>
