<?xml version="1.0" encoding="utf-8"?>
<!-- Generator: Adobe Illustrator 21.0.0, SVG Export Plug-In . SVG Version: 6.00 Build 0)  -->
<svg version="1.1" id="Capa_1" xmlns="http://www.w3.org/2000/svg" xmlns:xlink="http://www.w3.org/1999/xlink" x="0px" y="0px"
	 viewBox="0 0 120 32" style="enable-background:new 0 0 120 32;" xml:space="preserve">
<g>
	<g>
		<path style="opacity:0.2;fill-rule:evenodd;clip-rule:evenodd;" d="M110.467,1.509c7.816,0,9.559,7.71,9.533,15.376
			C119.974,24.463,118.936,32,110.467,32c-24.275,0-76.658,0-100.933,0C1.064,32,0.027,24.463,0,16.885
			C-0.025,9.219,1.718,1.509,9.534,1.509C33.809,1.509,86.192,1.509,110.467,1.509z"/>
		<path style="fill-rule:evenodd;clip-rule:evenodd;fill:#FFFFFF;" d="M110.467,0c7.816,0,9.559,7.711,9.533,15.376
			c-0.026,7.578-1.063,15.115-9.533,15.115c-24.275,0-76.658,0-100.933,0c-8.47,0-9.507-7.536-9.534-15.115
			C-0.025,7.711,1.718,0,9.534,0C33.809,0,86.192,0,110.467,0z"/>
		<path style="fill-rule:evenodd;clip-rule:evenodd;fill:#FFD30E;" d="M107.763,2.175c7.236,0,8.85,6.162,8.825,12.287
			c-0.024,6.056-0.985,12.079-8.825,12.079c-22.473,0-73.053,0-95.526,0c-7.841,0-8.801-6.023-8.826-12.079
			C3.388,8.337,5.001,2.175,12.237,2.175C34.71,2.175,85.29,2.175,107.763,2.175z"/>
		<path style="fill-rule:evenodd;clip-rule:evenodd;fill:#E6E6E6;" d="M9.534,29.395c-8.315,0-9.467-7.265-9.531-14.702
			c0,0.003,0,0.005,0,0.007C0,14.926,0,15.151,0,15.376c0.027,7.578,1.064,15.115,9.534,15.115h100.933
			c8.47,0,9.507-7.536,9.533-15.115c0.001-0.228,0-0.455-0.002-0.682c-0.064,7.436-1.216,14.702-9.531,14.702H9.534z"/>
		<path style="fill-rule:evenodd;clip-rule:evenodd;fill:#FFE558;" d="M107.763,24.052H12.237c-7.311,0-8.64-5.235-8.806-10.852
			c-0.015,0.42-0.021,0.841-0.02,1.263c0.025,6.057,0.985,12.079,8.826,12.079h95.525c7.841,0,8.802-6.022,8.826-12.079
			c0.001-0.422-0.004-0.843-0.02-1.263C116.403,18.816,115.073,24.052,107.763,24.052z"/>
		<path style="fill-rule:evenodd;clip-rule:evenodd;fill:#C96900;" d="M3.411,14.413v0.049c0.025,6.057,0.985,12.079,8.826,12.079
			h95.525c7.841,0,8.802-6.022,8.826-12.079v-0.049c-0.001-0.328-0.008-0.658-0.02-0.986c-0.166,5.617-1.496,10.852-8.806,10.852
			H12.237c-7.311,0-8.64-5.235-8.806-10.852C3.419,13.755,3.413,14.084,3.411,14.413z"/>
		<path style="fill-rule:evenodd;clip-rule:evenodd;fill:#FFAC04;" d="M115.996,17.942c-35.479,3.568-91.917,3.88-111.887,0.385
			c0.957,3.309,3.163,5.725,8.129,5.725h95.525C112.919,24.052,115.1,21.447,115.996,17.942z"/>
		<path style="fill-rule:evenodd;clip-rule:evenodd;fill:#FEE147;" d="M12.237,3.181h95.525c6.557,0,8.497,5.059,8.786,10.566
			c0.008-0.182,0.015-0.364,0.02-0.548c-0.19-5.27-1.807-10.249-7.417-10.942c-0.438-0.054-0.901-0.082-1.389-0.082H12.237
			c-0.488,0-0.951,0.028-1.389,0.082C5.238,2.951,3.622,7.93,3.431,13.2c0.006,0.183,0.013,0.366,0.02,0.548
			C3.74,8.24,5.681,3.181,12.237,3.181z"/>
	</g>
	<g>
		<g>
			<path d="M13.564,10.031l1.881,4.562c-0.152-0.891-0.229-2.095-0.229-3.612c0-0.416,0.006-0.853,0.018-1.31l2.391,0.079
				c-0.094,1.148-0.141,2.332-0.141,3.551c0,1.957,0.119,4.005,0.359,6.144l-2.32,0.079l-2.398-5.001
				c-0.006,0.234-0.01,0.472-0.01,0.712c0,1.242,0.1,2.599,0.299,4.069h-2.32c-0.1-2.285-0.148-4.556-0.148-6.812
				c0-0.844,0.006-1.688,0.018-2.531L13.564,10.031z"/>
			<path d="M19.935,9.17c0.129,0,0.246,0.018,0.352,0.053c0.492,0.164,0.814,0.469,0.967,0.914c0.047,0.135,0.07,0.27,0.07,0.404
				c0,0.299-0.119,0.595-0.359,0.888c-0.346,0.422-0.744,0.612-1.195,0.571s-0.818-0.284-1.1-0.729
				c-0.129-0.205-0.193-0.413-0.193-0.624c0-0.27,0.094-0.554,0.281-0.853C19.155,9.378,19.548,9.17,19.935,9.17z M21.271,12.914
				c-0.094,2.174-0.211,4.33-0.352,6.469l-2.25,0.211c0.082-0.914,0.123-1.843,0.123-2.786c0-1.172-0.064-2.361-0.193-3.568
				L21.271,12.914z"/>
			<path d="M21.552,11.438l2.32-1.125l2.039,7.242l1.406-7.805l2.391,0.703l-2.391,9.352l-2.742-0.07L21.552,11.438z"/>
			<path d="M32.398,15.525c0.264,0.885,0.824,1.348,1.68,1.389c0.797,0.041,1.336-0.378,1.617-1.257l2.461-0.352
				c-0.627,2.572-1.873,3.858-3.736,3.858c-0.574,0-1.215-0.132-1.924-0.396c-1.313-0.75-1.969-2.191-1.969-4.324
				c0-0.182,0.006-0.384,0.018-0.606c0.129-2.467,1.33-3.899,3.604-4.298c2.154-0.047,3.396,1.452,3.725,4.497L32.398,15.525z
				 M33.071,12.391c-0.326,0.384-0.504,0.848-0.533,1.393l3.297-0.94c-0.381-0.686-0.855-1.028-1.424-1.028
				S33.396,12.007,33.071,12.391z"/>
			<path d="M40.009,8.133l0.773,10.679l-2.391,0.281L37.97,8.133H40.009z"/>
			<path d="M53.483,15.454c-0.047,1.148-0.375,2.095-0.984,2.839c-0.674,0.814-1.568,1.222-2.682,1.222
				c-1.096,0-1.918-0.231-2.469-0.694c-0.527-0.445-0.92-1.21-1.178-2.294c-0.111-0.475-0.168-0.94-0.168-1.397
				c0-0.867,0.191-1.737,0.572-2.61c0.58-1.33,1.951-2.725,4.113-4.184l2.039,1.705c-1.5,0.527-2.766,1.521-3.797,2.979
				c0.557-0.357,1.102-0.536,1.635-0.536c0.498,0,0.98,0.155,1.449,0.466C53.034,13.623,53.524,14.458,53.483,15.454z
				 M49.105,16.877c0.291,0.235,0.566,0.353,0.822,0.353c0.328,0,0.613-0.159,0.859-0.476c0.232-0.294,0.35-0.608,0.35-0.943
				c0-0.329-0.111-0.632-0.332-0.908c-0.223-0.276-0.494-0.415-0.814-0.415c-0.34,0-0.658,0.144-0.955,0.432
				c-0.299,0.288-0.447,0.603-0.447,0.943C48.587,16.192,48.759,16.53,49.105,16.877z"/>
		</g>
	</g>
	<g>
		<g>
			<g>
				<path style="fill-rule:evenodd;clip-rule:evenodd;fill:#FEE147;" d="M66.531,5.907L66.531,5.907
					c1.937,0,3.522,1.585,3.522,3.522v7.818c0,1.937-1.585,3.522-3.522,3.522l0,0c-1.937,0-3.522-1.585-3.522-3.522V9.428
					C63.01,7.492,64.594,5.907,66.531,5.907z"/>
				<path style="fill-rule:evenodd;clip-rule:evenodd;fill:#C96900;" d="M66.531,5.414L66.531,5.414
					c1.937,0,3.522,1.585,3.522,3.521v7.819c0,1.937-1.585,3.521-3.522,3.521l0,0c-1.937,0-3.522-1.584-3.522-3.521V8.935
					C63.01,6.998,64.594,5.414,66.531,5.414z"/>
				<path style="fill-rule:evenodd;clip-rule:evenodd;fill:#FFAC04;" d="M66.531,5.643L66.531,5.643
					c1.937,0,3.522,1.585,3.522,3.522v7.818c0,1.937-1.585,3.522-3.522,3.522l0,0c-1.937,0-3.522-1.584-3.522-3.522V9.164
					C63.01,7.228,64.594,5.643,66.531,5.643z"/>
			</g>
			<g>
				<path style="opacity:0.2;fill-rule:evenodd;clip-rule:evenodd;" d="M66.531,6.68L66.531,6.68c1.556,0,2.828,1.273,2.828,2.828
					v7.544c0,1.556-1.272,2.828-2.828,2.828l0,0c-1.556,0-2.828-1.273-2.828-2.828V9.508C63.703,7.952,64.976,6.68,66.531,6.68z"/>
				<path style="fill-rule:evenodd;clip-rule:evenodd;fill:#FFFFFF;" d="M66.531,6.343L66.531,6.343
					c1.556,0,2.828,1.273,2.828,2.829v7.544c0,1.556-1.272,2.828-2.828,2.828l0,0c-1.556,0-2.828-1.273-2.828-2.828V9.172
					C63.703,7.616,64.976,6.343,66.531,6.343z"/>
				<path style="fill-rule:evenodd;clip-rule:evenodd;fill:#0A8300;" d="M66.531,7.014L66.531,7.014
					c1.231,0,2.238,1.007,2.238,2.237v7.385c0,1.231-1.007,2.237-2.238,2.237h0c-1.231,0-2.237-1.007-2.237-2.237V9.251
					C64.294,8.02,65.3,7.014,66.531,7.014z"/>
				<path style="fill-rule:evenodd;clip-rule:evenodd;fill:#0DA401;" d="M66.531,7.014L66.531,7.014
					c1.231,0,2.238,1.007,2.238,2.238v6.5c-0.398,0.776-1.206,1.31-2.134,1.31l0,0c-1.144,0-2.107-0.812-2.342-1.889V9.251
					C64.294,8.021,65.301,7.014,66.531,7.014z"/>
				<path style="fill-rule:evenodd;clip-rule:evenodd;fill:#78D261;" d="M68.756,9.012c0.009,0.078,0.013,0.158,0.013,0.239v7.257
					c0,1.231-1.006,2.238-2.237,2.238c-1.227,0-2.23-0.999-2.238-2.223V9.251c0-0.073,0.004-0.145,0.011-0.216l0.095,6.646
					c0.017,1.231,0.902,2.238,2.132,2.238c1.231,0,2.084-1.007,2.106-2.238L68.756,9.012z"/>
				<path style="fill-rule:evenodd;clip-rule:evenodd;fill:#E6E6E6;" d="M66.531,19.244c-1.556,0-2.828-1.273-2.828-2.828v0.3
					c0,1.556,1.273,2.828,2.829,2.828c1.556,0,2.828-1.273,2.828-2.828v-0.3C69.36,17.972,68.088,19.244,66.531,19.244z"/>
				<path style="fill-rule:evenodd;clip-rule:evenodd;fill:#076600;" d="M66.531,18.046c-1.231,0-2.115-1.006-2.132-2.237
					L64.303,9.05c-0.006,0.066-0.009,0.133-0.009,0.201v7.385c0,1.231,1.007,2.237,2.238,2.237c1.231,0,2.237-1.006,2.237-2.237
					V9.251c0-0.074-0.003-0.148-0.011-0.22l-0.121,6.778C68.616,17.038,67.762,18.046,66.531,18.046z"/>
				<path style="fill-rule:evenodd;clip-rule:evenodd;fill:#41BA2F;" d="M64.302,9.053l0,0.012L64.302,9.053L64.302,9.053z
					 M64.304,9.035l-0.002,0.018c0-0.001,0-0.002,0-0.003C64.303,9.045,64.304,9.04,64.304,9.035L64.304,9.035z M64.318,10.014
					c0.271-1.025,1.21-1.787,2.317-1.787c0.911,0,1.708,0.515,2.113,1.269l0.008-0.484c-0.12-1.12-1.075-1.999-2.225-1.999
					c-1.158,0-2.118,0.891-2.227,2.021L64.303,9.05l0,0.003l0,0.012l0.014,0.955C64.317,10.018,64.318,10.015,64.318,10.014z"/>
				<path style="fill-rule:evenodd;clip-rule:evenodd;fill:#CDF7AF;" d="M65.416,7.748c0.526-0.362,1.043-0.388,1.155-0.058
					c0.112,0.33-0.224,0.891-0.751,1.253c-0.526,0.362-1.043,0.388-1.155,0.058C64.554,8.672,64.89,8.111,65.416,7.748z"/>
			</g>
		</g>
		<g>
			<g>
				<path style="fill-rule:evenodd;clip-rule:evenodd;fill:#FEE147;" d="M74.608,5.907L74.608,5.907
					c1.937,0,3.522,1.585,3.522,3.522v7.818c0,1.937-1.585,3.522-3.522,3.522l0,0c-1.937,0-3.522-1.585-3.522-3.522V9.428
					C71.086,7.492,72.67,5.907,74.608,5.907z"/>
				<path style="fill-rule:evenodd;clip-rule:evenodd;fill:#C96900;" d="M74.608,5.414L74.608,5.414
					c1.937,0,3.522,1.585,3.522,3.521v7.819c0,1.937-1.585,3.521-3.522,3.521l0,0c-1.937,0-3.522-1.584-3.522-3.521V8.935
					C71.086,6.998,72.67,5.414,74.608,5.414z"/>
				<path style="fill-rule:evenodd;clip-rule:evenodd;fill:#FFAC04;" d="M74.608,5.643L74.608,5.643
					c1.937,0,3.522,1.585,3.522,3.522v7.818c0,1.937-1.585,3.522-3.522,3.522l0,0c-1.937,0-3.522-1.584-3.522-3.522V9.164
					C71.086,7.228,72.67,5.643,74.608,5.643z"/>
			</g>
			<g>
				<path style="opacity:0.2;fill-rule:evenodd;clip-rule:evenodd;" d="M74.608,6.68L74.608,6.68c1.556,0,2.828,1.273,2.828,2.828
					v7.544c0,1.556-1.272,2.828-2.828,2.828l0,0c-1.556,0-2.828-1.273-2.828-2.828V9.508C71.779,7.952,73.052,6.68,74.608,6.68z"/>
				<path style="fill-rule:evenodd;clip-rule:evenodd;fill:#FFFFFF;" d="M74.608,6.343L74.608,6.343
					c1.556,0,2.828,1.273,2.828,2.829v7.544c0,1.556-1.272,2.828-2.828,2.828l0,0c-1.556,0-2.828-1.273-2.828-2.828V9.172
					C71.779,7.616,73.052,6.343,74.608,6.343z"/>
				<path style="fill-rule:evenodd;clip-rule:evenodd;fill:#0A8300;" d="M74.607,7.014L74.607,7.014
					c1.231,0,2.238,1.007,2.238,2.237v7.385c0,1.231-1.007,2.237-2.238,2.237h0c-1.231,0-2.237-1.007-2.237-2.237V9.251
					C72.37,8.02,73.376,7.014,74.607,7.014z"/>
				<path style="fill-rule:evenodd;clip-rule:evenodd;fill:#0DA401;" d="M74.608,7.014L74.608,7.014
					c1.231,0,2.238,1.007,2.238,2.238v6.5c-0.398,0.776-1.206,1.31-2.134,1.31l0,0c-1.144,0-2.107-0.812-2.342-1.889V9.251
					C72.37,8.021,73.377,7.014,74.608,7.014z"/>
				<path style="fill-rule:evenodd;clip-rule:evenodd;fill:#78D261;" d="M76.832,9.012c0.009,0.078,0.013,0.158,0.013,0.239v7.257
					c0,1.231-1.006,2.238-2.237,2.238c-1.227,0-2.23-0.999-2.238-2.223V9.251c0-0.073,0.004-0.145,0.011-0.216l0.095,6.646
					c0.017,1.231,0.902,2.238,2.132,2.238c1.231,0,2.084-1.007,2.106-2.238L76.832,9.012z"/>
				<path style="fill-rule:evenodd;clip-rule:evenodd;fill:#E6E6E6;" d="M74.607,19.244c-1.556,0-2.828-1.273-2.828-2.828v0.3
					c0,1.556,1.273,2.828,2.829,2.828c1.556,0,2.828-1.273,2.828-2.828v-0.3C77.436,17.972,76.164,19.244,74.607,19.244z"/>
				<path style="fill-rule:evenodd;clip-rule:evenodd;fill:#076600;" d="M74.607,18.046c-1.231,0-2.115-1.006-2.132-2.237
					L72.379,9.05c-0.006,0.066-0.009,0.133-0.009,0.201v7.385c0,1.231,1.007,2.237,2.238,2.237c1.231,0,2.237-1.006,2.237-2.237
					V9.251c0-0.074-0.003-0.148-0.011-0.22l-0.121,6.778C76.692,17.038,75.838,18.046,74.607,18.046z"/>
				<path style="fill-rule:evenodd;clip-rule:evenodd;fill:#41BA2F;" d="M72.378,9.053l0,0.012L72.378,9.053L72.378,9.053z
					 M72.38,9.035l-0.002,0.018c0-0.001,0-0.002,0-0.003C72.379,9.045,72.38,9.04,72.38,9.035L72.38,9.035z M72.394,10.014
					c0.271-1.025,1.21-1.787,2.317-1.787c0.911,0,1.708,0.515,2.113,1.269l0.008-0.484c-0.12-1.12-1.075-1.999-2.225-1.999
					c-1.158,0-2.118,0.891-2.227,2.021L72.379,9.05l0,0.003l0,0.012l0.014,0.955C72.393,10.018,72.394,10.015,72.394,10.014z"/>
				<path style="fill-rule:evenodd;clip-rule:evenodd;fill:#CDF7AF;" d="M73.493,7.748c0.526-0.362,1.043-0.388,1.155-0.058
					c0.112,0.33-0.224,0.891-0.751,1.253c-0.526,0.362-1.043,0.388-1.155,0.058C72.63,8.672,72.966,8.111,73.493,7.748z"/>
			</g>
		</g>
		<g>
			<g>
				<path style="fill-rule:evenodd;clip-rule:evenodd;fill:#FEE147;" d="M90.76,5.907L90.76,5.907c1.937,0,3.522,1.585,3.522,3.522
					v7.818c0,1.937-1.585,3.522-3.522,3.522l0,0c-1.937,0-3.522-1.585-3.522-3.522V9.428C87.238,7.492,88.823,5.907,90.76,5.907z"/>
				<path style="fill-rule:evenodd;clip-rule:evenodd;fill:#C96900;" d="M90.76,5.414L90.76,5.414c1.937,0,3.522,1.585,3.522,3.521
					v7.819c0,1.937-1.585,3.521-3.522,3.521l0,0c-1.937,0-3.522-1.584-3.522-3.521V8.935C87.238,6.998,88.823,5.414,90.76,5.414z"/>
				<path style="fill-rule:evenodd;clip-rule:evenodd;fill:#FFAC04;" d="M90.76,5.643L90.76,5.643c1.937,0,3.522,1.585,3.522,3.522
					v7.818c0,1.937-1.585,3.522-3.522,3.522l0,0c-1.937,0-3.522-1.584-3.522-3.522V9.164C87.238,7.228,88.823,5.643,90.76,5.643z"/>
			</g>
			<g>
				<path style="opacity:0.2;fill-rule:evenodd;clip-rule:evenodd;" d="M90.76,6.68L90.76,6.68c1.556,0,2.828,1.273,2.828,2.828
					v7.544c0,1.556-1.272,2.828-2.828,2.828l0,0c-1.556,0-2.828-1.273-2.828-2.828V9.508C87.931,7.952,89.204,6.68,90.76,6.68z"/>
				<path style="fill-rule:evenodd;clip-rule:evenodd;fill:#FFFFFF;" d="M90.76,6.343L90.76,6.343c1.556,0,2.828,1.273,2.828,2.829
					v7.544c0,1.556-1.272,2.828-2.828,2.828l0,0c-1.556,0-2.828-1.273-2.828-2.828V9.172C87.931,7.616,89.204,6.343,90.76,6.343z"/>
				<path style="fill-rule:evenodd;clip-rule:evenodd;fill:#0A8300;" d="M90.759,7.014L90.759,7.014
					c1.231,0,2.238,1.007,2.238,2.237v7.385c0,1.231-1.007,2.237-2.238,2.237h0c-1.231,0-2.237-1.007-2.237-2.237V9.251
					C88.522,8.02,89.529,7.014,90.759,7.014z"/>
				<path style="fill-rule:evenodd;clip-rule:evenodd;fill:#0DA401;" d="M90.76,7.014L90.76,7.014c1.231,0,2.238,1.007,2.238,2.238
					v6.5c-0.398,0.776-1.206,1.31-2.134,1.31l0,0c-1.144,0-2.107-0.812-2.342-1.889V9.251C88.522,8.021,89.529,7.014,90.76,7.014z"
					/>
				<path style="fill-rule:evenodd;clip-rule:evenodd;fill:#78D261;" d="M92.984,9.012c0.009,0.078,0.013,0.158,0.013,0.239v7.257
					c0,1.231-1.006,2.238-2.237,2.238c-1.227,0-2.23-0.999-2.238-2.223V9.251c0-0.073,0.004-0.145,0.011-0.216l0.095,6.646
					c0.017,1.231,0.902,2.238,2.132,2.238c1.231,0,2.084-1.007,2.106-2.238L92.984,9.012z"/>
				<path style="fill-rule:evenodd;clip-rule:evenodd;fill:#E6E6E6;" d="M90.759,19.244c-1.556,0-2.828-1.273-2.828-2.828v0.3
					c0,1.556,1.273,2.828,2.829,2.828c1.556,0,2.828-1.273,2.828-2.828v-0.3C93.588,17.972,92.316,19.244,90.759,19.244z"/>
				<path style="fill-rule:evenodd;clip-rule:evenodd;fill:#076600;" d="M90.759,18.046c-1.231,0-2.115-1.006-2.132-2.237
					L88.531,9.05c-0.006,0.066-0.009,0.133-0.009,0.201v7.385c0,1.231,1.007,2.237,2.238,2.237c1.231,0,2.237-1.006,2.237-2.237
					V9.251c0-0.074-0.003-0.148-0.011-0.22l-0.121,6.778C92.844,17.038,91.99,18.046,90.759,18.046z"/>
				<path style="fill-rule:evenodd;clip-rule:evenodd;fill:#41BA2F;" d="M88.53,9.053l0,0.012L88.53,9.053L88.53,9.053z
					 M88.532,9.035L88.53,9.053c0-0.001,0-0.002,0-0.003C88.531,9.045,88.532,9.04,88.532,9.035L88.532,9.035z M88.546,10.014
					c0.271-1.025,1.21-1.787,2.317-1.787c0.911,0,1.708,0.515,2.113,1.269l0.008-0.484c-0.12-1.12-1.075-1.999-2.225-1.999
					c-1.158,0-2.118,0.891-2.227,2.021L88.531,9.05l0,0.003l0,0.012l0.014,0.955C88.545,10.018,88.546,10.015,88.546,10.014z"/>
				<path style="fill-rule:evenodd;clip-rule:evenodd;fill:#CDF7AF;" d="M89.645,7.748c0.526-0.362,1.043-0.388,1.155-0.058
					c0.112,0.33-0.224,0.891-0.751,1.253c-0.526,0.362-1.043,0.388-1.155,0.058C88.783,8.672,89.118,8.111,89.645,7.748z"/>
			</g>
		</g>
		<g>
			<g>
				<path style="fill-rule:evenodd;clip-rule:evenodd;fill:#FEE147;" d="M82.759,5.907L82.759,5.907
					c1.937,0,3.522,1.585,3.522,3.522v7.818c0,1.937-1.585,3.522-3.522,3.522l0,0c-1.937,0-3.522-1.585-3.522-3.522V9.428
					C79.237,7.492,80.822,5.907,82.759,5.907z"/>
				<path style="fill-rule:evenodd;clip-rule:evenodd;fill:#C96900;" d="M82.759,5.414L82.759,5.414
					c1.937,0,3.522,1.585,3.522,3.521v7.819c0,1.937-1.585,3.521-3.522,3.521l0,0c-1.937,0-3.522-1.584-3.522-3.521V8.935
					C79.237,6.998,80.822,5.414,82.759,5.414z"/>
				<path style="fill-rule:evenodd;clip-rule:evenodd;fill:#FFAC04;" d="M82.759,5.643L82.759,5.643
					c1.937,0,3.522,1.585,3.522,3.522v7.818c0,1.937-1.585,3.522-3.522,3.522l0,0c-1.937,0-3.522-1.584-3.522-3.522V9.164
					C79.237,7.228,80.822,5.643,82.759,5.643z"/>
			</g>
			<g>
				<path style="opacity:0.2;fill-rule:evenodd;clip-rule:evenodd;" d="M82.759,6.68L82.759,6.68c1.556,0,2.828,1.273,2.828,2.828
					v7.544c0,1.556-1.272,2.828-2.828,2.828l0,0c-1.556,0-2.828-1.273-2.828-2.828V9.508C79.931,7.952,81.203,6.68,82.759,6.68z"/>
				<path style="fill-rule:evenodd;clip-rule:evenodd;fill:#FFFFFF;" d="M82.759,6.343L82.759,6.343
					c1.556,0,2.828,1.273,2.828,2.829v7.544c0,1.556-1.272,2.828-2.828,2.828l0,0c-1.556,0-2.828-1.273-2.828-2.828V9.172
					C79.931,7.616,81.203,6.343,82.759,6.343z"/>
				<path style="fill-rule:evenodd;clip-rule:evenodd;fill:#0A8300;" d="M82.759,7.014L82.759,7.014
					c1.231,0,2.238,1.007,2.238,2.237v7.385c0,1.231-1.007,2.237-2.238,2.237h0c-1.231,0-2.237-1.007-2.237-2.237V9.251
					C80.521,8.02,81.528,7.014,82.759,7.014z"/>
				<path style="fill-rule:evenodd;clip-rule:evenodd;fill:#0DA401;" d="M82.759,7.014L82.759,7.014
					c1.231,0,2.238,1.007,2.238,2.238v6.5c-0.398,0.776-1.206,1.31-2.134,1.31l0,0c-1.144,0-2.107-0.812-2.342-1.889V9.251
					C80.521,8.021,81.528,7.014,82.759,7.014z"/>
				<path style="fill-rule:evenodd;clip-rule:evenodd;fill:#78D261;" d="M84.984,9.012c0.009,0.078,0.013,0.158,0.013,0.239v7.257
					c0,1.231-1.006,2.238-2.237,2.238c-1.227,0-2.23-0.999-2.238-2.223V9.251c0-0.073,0.004-0.145,0.011-0.216l0.095,6.646
					c0.017,1.231,0.902,2.238,2.132,2.238c1.231,0,2.084-1.007,2.106-2.238L84.984,9.012z"/>
				<path style="fill-rule:evenodd;clip-rule:evenodd;fill:#E6E6E6;" d="M82.759,19.244c-1.556,0-2.828-1.273-2.828-2.828v0.3
					c0,1.556,1.273,2.828,2.829,2.828c1.556,0,2.828-1.273,2.828-2.828v-0.3C85.588,17.972,84.315,19.244,82.759,19.244z"/>
				<path style="fill-rule:evenodd;clip-rule:evenodd;fill:#076600;" d="M82.759,18.046c-1.231,0-2.115-1.006-2.132-2.237
					L80.53,9.05c-0.006,0.066-0.009,0.133-0.009,0.201v7.385c0,1.231,1.007,2.237,2.238,2.237c1.231,0,2.237-1.006,2.237-2.237
					V9.251c0-0.074-0.003-0.148-0.011-0.22l-0.121,6.778C84.843,17.038,83.99,18.046,82.759,18.046z"/>
				<path style="fill-rule:evenodd;clip-rule:evenodd;fill:#41BA2F;" d="M80.53,9.053l0,0.012L80.53,9.053L80.53,9.053z
					 M80.532,9.035L80.53,9.053c0-0.001,0-0.002,0-0.003C80.531,9.045,80.531,9.04,80.532,9.035L80.532,9.035z M80.546,10.014
					c0.271-1.025,1.21-1.787,2.317-1.787c0.911,0,1.708,0.515,2.113,1.269l0.008-0.484c-0.12-1.12-1.075-1.999-2.225-1.999
					c-1.158,0-2.118,0.891-2.227,2.021L80.53,9.05l0,0.003l0,0.012l0.014,0.955C80.545,10.018,80.545,10.015,80.546,10.014z"/>
				<path style="fill-rule:evenodd;clip-rule:evenodd;fill:#CDF7AF;" d="M81.644,7.748c0.526-0.362,1.043-0.388,1.155-0.058
					c0.112,0.33-0.224,0.891-0.751,1.253c-0.526,0.362-1.043,0.388-1.155,0.058C80.782,8.672,81.118,8.111,81.644,7.748z"/>
			</g>
		</g>
		<g>
			<g>
				<path style="fill-rule:evenodd;clip-rule:evenodd;fill:#FEE147;" d="M98.836,5.907L98.836,5.907
					c1.937,0,3.522,1.585,3.522,3.522v7.818c0,1.937-1.585,3.522-3.522,3.522l0,0c-1.937,0-3.522-1.585-3.522-3.522V9.428
					C95.314,7.492,96.899,5.907,98.836,5.907z"/>
				<path style="fill-rule:evenodd;clip-rule:evenodd;fill:#C96900;" d="M98.836,5.414L98.836,5.414
					c1.937,0,3.522,1.585,3.522,3.521v7.819c0,1.937-1.585,3.521-3.522,3.521l0,0c-1.937,0-3.522-1.584-3.522-3.521V8.935
					C95.314,6.998,96.899,5.414,98.836,5.414z"/>
				<path style="fill-rule:evenodd;clip-rule:evenodd;fill:#FFAC04;" d="M98.836,5.643L98.836,5.643
					c1.937,0,3.522,1.585,3.522,3.522v7.818c0,1.937-1.585,3.522-3.522,3.522l0,0c-1.937,0-3.522-1.584-3.522-3.522V9.164
					C95.314,7.228,96.899,5.643,98.836,5.643z"/>
			</g>
			<g>
				<path style="opacity:0.2;fill-rule:evenodd;clip-rule:evenodd;" d="M98.836,6.68L98.836,6.68c1.556,0,2.828,1.273,2.828,2.828
					v7.544c0,1.556-1.272,2.828-2.828,2.828l0,0c-1.556,0-2.828-1.273-2.828-2.828V9.508C96.007,7.952,97.28,6.68,98.836,6.68z"/>
				<path style="fill-rule:evenodd;clip-rule:evenodd;fill:#FFFFFF;" d="M98.836,6.343L98.836,6.343
					c1.556,0,2.828,1.273,2.828,2.829v7.544c0,1.556-1.272,2.828-2.828,2.828l0,0c-1.556,0-2.828-1.273-2.828-2.828V9.172
					C96.007,7.616,97.28,6.343,98.836,6.343z"/>
				<path style="fill-rule:evenodd;clip-rule:evenodd;fill:#0A8300;" d="M98.835,7.014L98.835,7.014
					c1.231,0,2.238,1.007,2.238,2.237v7.385c0,1.231-1.007,2.237-2.238,2.237h0c-1.231,0-2.237-1.007-2.237-2.237V9.251
					C96.598,8.02,97.605,7.014,98.835,7.014z"/>
				<path style="fill-rule:evenodd;clip-rule:evenodd;fill:#0DA401;" d="M98.836,7.014L98.836,7.014
					c1.231,0,2.238,1.007,2.238,2.238v6.5c-0.398,0.776-1.206,1.31-2.134,1.31l0,0c-1.144,0-2.107-0.812-2.342-1.889V9.251
					C96.598,8.021,97.605,7.014,98.836,7.014z"/>
				<path style="fill-rule:evenodd;clip-rule:evenodd;fill:#78D261;" d="M101.06,9.012c0.009,0.078,0.013,0.158,0.013,0.239v7.257
					c0,1.231-1.006,2.238-2.237,2.238c-1.227,0-2.23-0.999-2.238-2.223V9.251c0-0.073,0.004-0.145,0.011-0.216l0.095,6.646
					c0.017,1.231,0.902,2.238,2.132,2.238c1.231,0,2.084-1.007,2.106-2.238L101.06,9.012z"/>
				<path style="fill-rule:evenodd;clip-rule:evenodd;fill:#E6E6E6;" d="M98.835,19.244c-1.556,0-2.828-1.273-2.828-2.828v0.3
					c0,1.556,1.273,2.828,2.829,2.828c1.556,0,2.828-1.273,2.828-2.828v-0.3C101.664,17.972,100.392,19.244,98.835,19.244z"/>
				<path style="fill-rule:evenodd;clip-rule:evenodd;fill:#076600;" d="M98.835,18.046c-1.231,0-2.115-1.006-2.132-2.237
					L96.607,9.05c-0.006,0.066-0.009,0.133-0.009,0.201v7.385c0,1.231,1.007,2.237,2.238,2.237c1.231,0,2.237-1.006,2.237-2.237
					V9.251c0-0.074-0.003-0.148-0.011-0.22l-0.121,6.778C100.92,17.038,100.066,18.046,98.835,18.046z"/>
				<path style="fill-rule:evenodd;clip-rule:evenodd;fill:#41BA2F;" d="M96.607,9.053l0,0.012L96.607,9.053L96.607,9.053z
					 M96.608,9.035l-0.002,0.018c0-0.001,0-0.002,0-0.003C96.607,9.045,96.608,9.04,96.608,9.035L96.608,9.035z M96.622,10.014
					c0.271-1.025,1.21-1.787,2.317-1.787c0.911,0,1.708,0.515,2.113,1.269l0.008-0.484c-0.12-1.12-1.075-1.999-2.225-1.999
					c-1.158,0-2.118,0.891-2.227,2.021L96.607,9.05l0,0.003l0,0.012l0.014,0.955C96.621,10.018,96.622,10.015,96.622,10.014z"/>
				<path style="fill-rule:evenodd;clip-rule:evenodd;fill:#CDF7AF;" d="M97.721,7.748c0.526-0.362,1.043-0.388,1.155-0.058
					c0.112,0.33-0.224,0.891-0.751,1.253c-0.526,0.362-1.043,0.388-1.155,0.058C96.859,8.672,97.195,8.111,97.721,7.748z"/>
			</g>
		</g>
		<g>
			<g>
				<path style="fill-rule:evenodd;clip-rule:evenodd;fill:#FEE147;" d="M106.912,5.907L106.912,5.907
					c1.937,0,3.522,1.585,3.522,3.522v7.818c0,1.937-1.585,3.522-3.522,3.522l0,0c-1.937,0-3.522-1.585-3.522-3.522V9.428
					C103.39,7.492,104.975,5.907,106.912,5.907z"/>
				<path style="fill-rule:evenodd;clip-rule:evenodd;fill:#C96900;" d="M106.912,5.414L106.912,5.414
					c1.937,0,3.522,1.585,3.522,3.521v7.819c0,1.937-1.585,3.521-3.522,3.521l0,0c-1.937,0-3.522-1.584-3.522-3.521V8.935
					C103.39,6.998,104.975,5.414,106.912,5.414z"/>
				<path style="fill-rule:evenodd;clip-rule:evenodd;fill:#FFAC04;" d="M106.912,5.643L106.912,5.643
					c1.937,0,3.522,1.585,3.522,3.522v7.818c0,1.937-1.585,3.522-3.522,3.522l0,0c-1.937,0-3.522-1.584-3.522-3.522V9.164
					C103.39,7.228,104.975,5.643,106.912,5.643z"/>
			</g>
			<g>
				<path style="opacity:0.2;fill-rule:evenodd;clip-rule:evenodd;" d="M106.912,6.68L106.912,6.68c1.556,0,2.828,1.273,2.828,2.828
					v7.544c0,1.556-1.272,2.828-2.828,2.828l0,0c-1.556,0-2.828-1.273-2.828-2.828V9.508C104.083,7.952,105.356,6.68,106.912,6.68z"
					/>
				<path style="fill-rule:evenodd;clip-rule:evenodd;fill:#FFFFFF;" d="M106.912,6.343L106.912,6.343
					c1.556,0,2.828,1.273,2.828,2.829v7.544c0,1.556-1.272,2.828-2.828,2.828l0,0c-1.556,0-2.828-1.273-2.828-2.828V9.172
					C104.083,7.616,105.356,6.343,106.912,6.343z"/>
				<path style="fill-rule:evenodd;clip-rule:evenodd;fill:#0A8300;" d="M106.911,7.014L106.911,7.014
					c1.231,0,2.238,1.007,2.238,2.237v7.385c0,1.231-1.007,2.237-2.238,2.237h0c-1.231,0-2.237-1.007-2.237-2.237V9.251
					C104.674,8.02,105.681,7.014,106.911,7.014z"/>
				<path style="fill-rule:evenodd;clip-rule:evenodd;fill:#0DA401;" d="M106.912,7.014L106.912,7.014
					c1.231,0,2.238,1.007,2.238,2.238v6.5c-0.398,0.776-1.206,1.31-2.134,1.31l0,0c-1.144,0-2.107-0.812-2.342-1.889V9.251
					C104.674,8.021,105.681,7.014,106.912,7.014z"/>
				<path style="fill-rule:evenodd;clip-rule:evenodd;fill:#78D261;" d="M109.136,9.012c0.009,0.078,0.013,0.158,0.013,0.239v7.257
					c0,1.231-1.006,2.238-2.237,2.238c-1.227,0-2.23-0.999-2.238-2.223V9.251c0-0.073,0.004-0.145,0.011-0.216l0.095,6.646
					c0.017,1.231,0.902,2.238,2.132,2.238c1.231,0,2.084-1.007,2.106-2.238L109.136,9.012z"/>
				<path style="fill-rule:evenodd;clip-rule:evenodd;fill:#E6E6E6;" d="M106.911,19.244c-1.556,0-2.828-1.273-2.828-2.828v0.3
					c0,1.556,1.273,2.828,2.829,2.828c1.556,0,2.828-1.273,2.828-2.828v-0.3C109.74,17.972,108.468,19.244,106.911,19.244z"/>
				<path style="fill-rule:evenodd;clip-rule:evenodd;fill:#076600;" d="M106.911,18.046c-1.231,0-2.115-1.006-2.132-2.237
					l-0.097-6.758c-0.006,0.066-0.009,0.133-0.009,0.201v7.385c0,1.231,1.007,2.237,2.238,2.237c1.231,0,2.237-1.006,2.237-2.237
					V9.251c0-0.074-0.003-0.148-0.011-0.22l-0.121,6.778C108.996,17.038,108.142,18.046,106.911,18.046z"/>
				<path style="fill-rule:evenodd;clip-rule:evenodd;fill:#41BA2F;" d="M104.683,9.053l0,0.012L104.683,9.053L104.683,9.053z
					 M104.684,9.035l-0.002,0.018c0-0.001,0-0.002,0-0.003C104.683,9.045,104.684,9.04,104.684,9.035L104.684,9.035z
					 M104.698,10.014c0.271-1.025,1.21-1.787,2.317-1.787c0.911,0,1.708,0.515,2.113,1.269l0.008-0.484
					c-0.12-1.12-1.075-1.999-2.225-1.999c-1.158,0-2.118,0.891-2.227,2.021l-0.001,0.015l0,0.003l0,0.012l0.014,0.955
					C104.697,10.018,104.698,10.015,104.698,10.014z"/>
				<path style="fill-rule:evenodd;clip-rule:evenodd;fill:#CDF7AF;" d="M105.797,7.748c0.526-0.362,1.043-0.388,1.155-0.058
					c0.112,0.33-0.224,0.891-0.75,1.253c-0.526,0.362-1.043,0.388-1.155,0.058C104.935,8.672,105.271,8.111,105.797,7.748z"/>
			</g>
		</g>
	</g>
</g>
</svg>
