<?xml version="1.0" encoding="utf-8"?>
<!-- Generator: Adobe Illustrator 21.0.0, SVG Export Plug-In . SVG Version: 6.00 Build 0)  -->
<svg version="1.1" id="Capa_1" xmlns="http://www.w3.org/2000/svg" xmlns:xlink="http://www.w3.org/1999/xlink" x="0px" y="0px"
	 viewBox="0 0 183.299 291.332" style="enable-background:new 0 0 183.299 291.332;" xml:space="preserve">
<g>
	<defs>
		<filter id="Adobe_OpacityMaskFilter" filterUnits="userSpaceOnUse" x="28.525" y="264.285" width="104.605" height="27.047">
			<feFlood  style="flood-color:white;flood-opacity:1" result="back"/>
			<feBlend  in="SourceGraphic" in2="back" mode="normal"/>
		</filter>
	</defs>
	<mask maskUnits="userSpaceOnUse" x="28.525" y="264.285" width="104.605" height="27.047" id="XMLID_2_">
	</mask>
	
		<ellipse id="XMLID_26_" transform="matrix(1 -0.0098 0.0098 1 -2.7105 0.803)" style="opacity:0.2;mask:url(#XMLID_2_);" cx="80.828" cy="277.809" rx="52.305" ry="13.514"/>
	<g>
		<g>
			<g>
				<path style="fill:#BC8853;stroke:#994900;stroke-linecap:round;stroke-linejoin:round;stroke-miterlimit:10;" d="
					M108.128,161.544c0,0,25.803-3.03,39.927-28.362l13.899,9.37c0,0-17.7,27.638-54.599,30.217L108.128,161.544z"/>
				<path style="fill:#9B6534;" d="M148.055,133.182c0,0-4.41,5.143,3.603,9.745s10.296-0.374,10.296-0.374L148.055,133.182z"/>
				<path style="fill:#BC8853;stroke:#994900;stroke-linecap:round;stroke-linejoin:round;stroke-miterlimit:10;" d="M145.654,127.4
					c0,0-0.806-2.928-4.465-5.586c-3.659-2.663-1.001-6.338-1.001-6.338s2.017-3.267,5.394-0.774c0,0,2.264,1.347,2.784,5.183
					c0,0,0.321,1.21,0.782,1.973c0.768,1.27,1.177,1.699,1.177,1.699s1.222,0.726,1.72-0.324c0,0,1.186-2.938,1.364-6.307
					c0.053-0.96,1.086-9.579,1.839-13.314c0.641-3.171,2.511-3.296,3.49-3.393c1.08-0.108,2.846,0.408,2.984,2.011
					c0.259,2.976-1.845,13.133-1.837,15.14l3.15-13.829c0,0,0.821-3.319,3.603-3.636c0,0,3.929-0.805,4.427,3.059
					c0,0,0.129,0.688-0.484,2.319c-0.617,1.629-4.773,14.39-4.773,14.39l6.446-13.938c0,0,1.025-2.027,2.812-2.239
					c1.786-0.204,4.075,1.039,4.261,3.379c0.163,2.046-0.56,3.161-0.56,3.161l-7.779,12.709l5.189-7.061
					c0,0,1.327-1.801,3.217-1.973c1.887-0.164,3.546,1.808,3.388,3.397c0,0,0.162-0.275-0.586,1.404
					c-0.772,1.734-6.688,9.126-6.688,9.126s-1.477,2.487-2.519,4.383c-1.064,1.939-5.457,10.916-11.662,11.509
					c-6.207,0.588-13.789-4.257-14.388-8.766C146.519,131.592,146.235,128.702,145.654,127.4z"/>
				<path style="fill:#EFC392;stroke:#994900;stroke-linecap:round;stroke-linejoin:round;stroke-miterlimit:10;" d="
					M159.427,119.191c0,0,4.094,8.982,10.902,11.262C170.329,130.453,167.863,130.016,159.427,119.191z"/>
				<path style="fill:#EFC392;stroke:#994900;stroke-linecap:round;stroke-linejoin:round;stroke-miterlimit:10;" d="
					M153.997,121.846c0,0,7.183,10.19,2.959,18.652C156.956,140.498,159.242,131.939,153.997,121.846z"/>
			</g>
			<g>
				<g>
					<g>
						<path style="fill:#BC8853;stroke:#994900;stroke-linecap:round;stroke-linejoin:round;stroke-miterlimit:10;" d="
							M69.38,272.141l3.699-31.543l-10.245-1.201l-3.719,31.717c-7.206,0.328-9.691,2.899-9.691,6.027
							c0,3.352,3.206,3.555,11.663,3.555c8.451,0,14.942-0.202,14.942-3.555C76.031,275.064,73.395,273.234,69.38,272.141z"/>
						<path d="M63.022,280.689c-1.797-5.041-4.456-7.875-6.348-9.355c-5.333,0.749-7.248,3.063-7.248,5.807
							c0,3.352,3.206,3.555,11.663,3.555C61.747,280.695,62.389,280.693,63.022,280.689z"/>
						<path d="M74.853,281.447h-24.25c-0.648,0-1.178-0.53-1.178-1.178l0,0c0-0.648,0.53-1.178,1.178-1.178h24.25
							c0.648,0,1.178,0.53,1.178,1.178l0,0C76.031,280.917,75.501,281.447,74.853,281.447z"/>
						<path d="M70.584,272.503c0,0-1.817,1.337-1.709,6.588h1.709c0,0-0.289-3.98,1.6-5.969L70.584,272.503z"/>
					</g>
					<g>
						<path style="fill:#C7B299;" d="M61.291,202.613l20.609,1.885v17.35l-2.438,35.079c0,0-9.973,2.639-22.16,0
							C57.302,256.927,58.853,210.407,61.291,202.613z"/>
						<path style="fill:#998675;" d="M78.134,260.63l-20.064-1.934c-1.448-0.07-2.576-1.312-2.507-2.76l0.215-4.467
							c0.07-1.448,1.523-1.89,3.947-1.883l18.89,0.344c1.448,0.07,2.576,1.312,2.507,2.76l-0.215,4.467
							C80.837,258.605,79.582,260.699,78.134,260.63z"/>
					</g>
				</g>
				<g>
					<g>
						<path style="fill:#BC8853;stroke:#994900;stroke-linecap:round;stroke-linejoin:round;stroke-miterlimit:10;" d="
							M104.684,271.113l-3.719-31.717l-10.245,1.201l3.699,31.543c-4.015,1.093-6.65,2.923-6.65,4.999
							c0,3.352,6.491,3.555,14.942,3.555c8.457,0,11.663-0.202,11.663-3.555C114.375,274.013,111.89,271.441,104.684,271.113z"/>
						<path d="M100.778,280.689c1.797-5.041,4.456-7.875,6.348-9.355c5.333,0.749,7.248,3.063,7.248,5.807
							c0,3.352-3.206,3.555-11.663,3.555C102.053,280.695,101.411,280.693,100.778,280.689z"/>
						<path d="M88.947,281.447h24.25c0.648,0,1.178-0.53,1.178-1.178l0,0c0-0.648-0.53-1.178-1.178-1.178h-24.25
							c-0.648,0-1.178,0.53-1.178,1.178l0,0C87.769,280.917,88.299,281.447,88.947,281.447z"/>
						<path d="M93.216,272.503c0,0,1.817,1.337,1.709,6.588h-1.709c0,0,0.289-3.98-1.6-5.969L93.216,272.503z"/>
					</g>
					<g>
						<path style="fill:#C7B299;" d="M102.509,202.613L81.9,204.498v17.35l2.438,35.079c0,0,9.973,2.639,22.16,0
							C106.498,256.927,104.947,210.407,102.509,202.613z"/>
						<path style="fill:#998675;" d="M85.666,260.63l20.064-1.934c1.448-0.07,2.576-1.312,2.507-2.76l-0.215-4.467
							c-0.07-1.448-1.523-1.89-3.947-1.883l-18.89,0.344c-1.448,0.07-2.576,1.312-2.507,2.76l0.215,4.467
							C82.963,258.605,84.218,260.699,85.666,260.63z"/>
					</g>
				</g>
			</g>
			<g>
				<g id="XMLID_402_">
					
						<path id="XMLID_403_" style="fill:#BC8853;stroke:#994900;stroke-linecap:round;stroke-linejoin:round;stroke-miterlimit:10;" d="
						M50.114,167.453c0,0-15.359,29.791,10.859,39.063l-0.6-9.111c0,0-14.689-7.235-7.785-23.784L50.114,167.453z"/>
				</g>
				<g>
					<path style="fill:#CCCCCC;" d="M58.896,183.962c0,0-0.348-20.027-2.492-31.374c-0.957,0.628-3.408,2.475-3.992,3.026
						c-4.607,4.349-11.109,17.013-12.164,19.89l14.061,11.574L58.896,183.962z"/>
					<path style="fill:#999999;" d="M56.599,185.522l-15.107-12.807c-0.595,1.227-1.032,2.209-1.244,2.789l14.061,11.574
						L56.599,185.522z"/>
				</g>
			</g>
			<g>
				<path style="fill:#CCCCCC;" d="M56.374,152.49l18.743-4.341h6.792v67.208c0,0-10.216-0.869-14.164-2.735
					c-1.807-0.856-7.318-5.491-7.318-5.491l-2.046-30.957L56.374,152.49z"/>
				<path style="fill:#CCCCCC;" d="M106.838,152.588l-18.138-4.44H81.91v67.208c0,0,10.092-0.209,14.04-2.077
					c1.809-0.854,7.414-6.211,7.414-6.211l2.074-30.895L106.838,152.588z"/>
				<polygon style="fill:#999999;" points="81.91,143.138 72.034,143.138 74.458,148.083 81.91,148.148 89.361,148.083 
					91.783,143.138 				"/>
				<polygon style="fill:#9D5C4A;" points="78.422,151.174 81.91,153.301 81.91,155.798 76.973,152.998 				"/>
				<polygon style="fill:#9D5C4A;" points="81.91,153.301 85.397,151.174 86.847,152.998 81.91,155.798 				"/>
				<path style="fill:#999999;" d="M84.379,183.9c-0.805,0-1.455,0.61-1.455,1.362c0,0.751,0.65,1.362,1.455,1.362
					c0.802,0,1.456-0.61,1.456-1.362C85.834,184.51,85.181,183.9,84.379,183.9z M83.862,185.536c-0.162,0-0.293-0.123-0.293-0.274
					c0-0.151,0.131-0.275,0.293-0.275c0.161,0,0.291,0.124,0.291,0.275C84.153,185.413,84.023,185.536,83.862,185.536z
					 M84.911,185.549c-0.162,0-0.293-0.123-0.293-0.274c0-0.152,0.132-0.274,0.293-0.274c0.16,0,0.292,0.122,0.292,0.274
					C85.203,185.426,85.071,185.549,84.911,185.549z"/>
				<path style="fill:#999999;" d="M84.379,195.259c-0.805,0-1.455,0.61-1.455,1.362c0,0.753,0.65,1.36,1.455,1.36
					c0.802,0,1.456-0.608,1.456-1.36C85.834,195.87,85.181,195.259,84.379,195.259z M83.862,196.894
					c-0.162,0-0.293-0.122-0.293-0.273c0-0.152,0.131-0.274,0.293-0.274c0.161,0,0.291,0.122,0.291,0.274
					C84.153,196.773,84.023,196.894,83.862,196.894z M84.911,196.908c-0.162,0-0.293-0.122-0.293-0.274
					c0-0.15,0.132-0.273,0.293-0.273c0.16,0,0.292,0.123,0.292,0.273C85.203,196.786,85.071,196.908,84.911,196.908z"/>
				<path style="fill:#999999;" d="M84.379,207.919c-0.805,0-1.455,0.61-1.455,1.361c0,0.751,0.65,1.362,1.455,1.362
					c0.802,0,1.456-0.611,1.456-1.362C85.834,208.529,85.181,207.919,84.379,207.919z M83.862,209.553
					c-0.162,0-0.293-0.122-0.293-0.273c0-0.151,0.131-0.274,0.293-0.274c0.161,0,0.291,0.123,0.291,0.274
					C84.153,209.432,84.023,209.553,83.862,209.553z M84.911,209.568c-0.162,0-0.293-0.123-0.293-0.275
					c0-0.151,0.132-0.274,0.293-0.274c0.16,0,0.292,0.123,0.292,0.274C85.203,209.445,85.071,209.568,84.911,209.568z"/>
				<g>
					<polygon style="fill:#B3B3B3;" points="95.325,166.827 88.505,166.827 89.176,176.928 95.325,178.503 101.368,177.192 
						102.144,166.827 					"/>
				</g>
				<g>
					<polygon style="fill:#BC8853;" points="73.642,150.141 81.252,186.557 89.065,150.141 					"/>
				</g>
				<ellipse style="fill:#9B6534;" cx="81.909" cy="150.777" rx="9.874" ry="4.629"/>
				<polygon style="fill:#999999;" points="90.021,150.141 89.289,149.095 81.252,186.557 73.423,149.095 72.691,150.141 
					80.636,187.672 80.636,215.265 81.91,215.356 81.91,187.647 				"/>
				<polygon style="fill:#999999;" points="72.034,143.138 69.172,150.35 72.034,161.81 78.422,153.773 				"/>
				<polygon style="fill:#999999;" points="91.783,143.138 94.646,150.35 91.783,161.81 85.397,153.773 				"/>
			</g>
			<path style="fill:#3D1C00;" d="M152.232,33.224c0,0-41.928,21.581-72.074,20.082C50.014,54.804,8.085,33.224,8.085,33.224
				c-8.384-3.924-16.002,14.601,8.495,35.968c20.077,17.511,56.959,20.414,63.578,19.937c6.619,0.477,42.547-2.183,63.578-19.937
				C168.541,48.253,160.615,29.299,152.232,33.224z"/>
			<g>
				<g>
					<g>
						<path style="fill:#BC8853;stroke:#994900;stroke-linecap:round;stroke-linejoin:round;stroke-miterlimit:10;" d="
							M46.849,103.618c0,0-2.68-8.207-7.574-8.207c-4.891,0-2.526,15.935,10.257,24.142L46.849,103.618z"/>
						<path style="fill:#BC8853;stroke:#994900;stroke-linecap:round;stroke-linejoin:round;stroke-miterlimit:10;" d="
							M116.671,103.618c0,0,2.679-8.207,7.574-8.207c4.894,0,2.521,15.935-10.26,24.142L116.671,103.618z"/>
						<path style="fill:#BC8853;stroke:#994900;stroke-linecap:round;stroke-linejoin:round;stroke-miterlimit:10;" d="
							M81.822,46.057c0,0,24.139,0,26.893,0s9.575,4.347,10.282,26.239c1.395,42.912-0.443,54.12-15.817,70.336
							c-7.087,7.473-14.567,10.704-21.358,10.704c-6.602,0-14.275-3.231-21.361-10.704c-15.376-16.216-17.214-27.424-15.82-70.336
							c0.71-21.891,7.529-26.239,10.284-26.239C57.678,46.057,81.822,46.057,81.822,46.057z"/>
						<g>
							<path d="M107.642,83.281c-0.245-0.129-0.675-0.253-1.201-0.453c-0.529-0.194-1.164-0.442-1.911-0.605
								c-1.45-0.444-3.275-0.672-5.057-0.804c-3.598-0.174-7.013,0.571-7.608,0.7c-1.259,0.188-3.037,0.861-4.005-1.035
								c-0.537-0.979,0.439-1.958,1.932-2.599c1.489-0.664,3.487-0.97,4.933-1.055c1.437-0.132,4.582-0.042,7.509,0.712
								c0.727,0.208,1.452,0.385,2.125,0.616c0.667,0.256,1.299,0.498,1.882,0.72c1.121,0.523,2.005,0.987,2.483,1.243
								c0.906,0.621,1.949,1.192,2.617,1.94c0.695,0.714,1.142,1.384,1.058,1.913C112.187,85.646,109.693,84.136,107.642,83.281z"/>
						</g>
						<g>
							<path d="M55.566,83.281c0.245-0.129,0.676-0.253,1.201-0.453c0.53-0.194,1.166-0.442,1.911-0.605
								c1.451-0.444,3.277-0.672,5.057-0.804c3.6-0.174,7.014,0.571,7.61,0.7c1.256,0.188,3.037,0.861,4.005-1.035
								c0.537-0.979-0.439-1.958-1.932-2.599c-1.492-0.664-3.487-0.97-4.933-1.055c-1.44-0.132-4.584-0.042-7.512,0.712
								c-0.726,0.208-1.453,0.385-2.123,0.616c-0.668,0.256-1.301,0.498-1.882,0.72c-1.122,0.523-2.007,0.987-2.485,1.243
								c-0.904,0.621-1.948,1.192-2.617,1.94c-0.695,0.714-1.142,1.384-1.058,1.913C51.022,85.646,53.516,84.136,55.566,83.281z"/>
						</g>
						<g id="XMLID_391_">
							<g id="XMLID_397_">
								<path id="XMLID_401_" style="fill:#FFFFFF;" d="M61.837,87.759c-11.293,2.988-10.801,19.109,1.468,19.077
									C75.573,106.804,74.977,84.282,61.837,87.759z"/>
								
									<ellipse id="XMLID_400_" transform="matrix(0.0209 -0.9998 0.9998 0.0209 -35.1343 158.1869)" cx="63.198" cy="97.032" rx="6.031" ry="4.774"/>
								
									<ellipse id="XMLID_399_" transform="matrix(0.0209 -0.9998 0.9998 0.0209 -34.3849 152.8218)" style="fill:#FFFFFF;" cx="60.833" cy="93.967" rx="2.848" ry="2.848"/>
								
									<ellipse id="XMLID_398_" transform="matrix(0.0209 -0.9998 0.9998 0.0209 -36.0926 162.3027)" style="fill:#FFFFFF;" cx="64.82" cy="99.579" rx="1.089" ry="1.089"/>
							</g>
							<g id="XMLID_392_">
								<path id="XMLID_396_" style="fill:#FFFFFF;" d="M101.56,87.85c11.158,3.457,9.992,19.544-2.264,18.999
									C87.04,106.303,88.577,83.827,101.56,87.85z"/>
								
									<ellipse id="XMLID_395_" transform="matrix(0.0209 -0.9998 0.9998 0.0209 1.1698 195.331)" cx="100.315" cy="97.068" rx="6.031" ry="4.774"/>
								
									<ellipse id="XMLID_394_" transform="matrix(0.0209 -0.9998 0.9998 0.0209 1.9196 189.9659)" style="fill:#FFFFFF;" cx="97.95" cy="94.003" rx="2.848" ry="2.848"/>
								
									<ellipse id="XMLID_393_" transform="matrix(0.0209 -0.9998 0.9998 0.0209 0.2115 199.4469)" style="fill:#FFFFFF;" cx="101.937" cy="99.615" rx="1.089" ry="1.089"/>
							</g>
						</g>
						<g>
							<path id="XMLID_408_" style="fill:#7F4C26;" d="M76.612,118.069c0.599-0.795,2.388,1.372,5.12,1.55
								c2.732,0.178,3.935-2.723,5.129-2.037c1.194,0.686-1.207,4.437-5.306,4.769C77.454,122.682,76.098,118.751,76.612,118.069z"
								/>
							<g>
								<path d="M97.95,126.432c0,0-0.548,8.427-6.872,12.925c-2.295,1.634-5.355,2.744-9.427,2.744
									c-4.067,0-7.118-1.107-9.415-2.738c-6.324-4.496-6.878-12.931-6.878-12.931H97.95z"/>
								<path style="fill:#FFFFFF;" d="M67.816,126.432h27.877c0,0,0.922,3.21-13.938,3.21S67.816,126.432,67.816,126.432z"/>
								<path style="fill:#FFFFFF;" d="M91.077,139.357c-2.295,1.634-5.355,2.744-9.427,2.744c-4.067,0-7.118-1.107-9.415-2.738
									C74.485,138.997,81.743,138.068,91.077,139.357z"/>
							</g>
						</g>
						<path style="fill-rule:evenodd;clip-rule:evenodd;" d="M100.332,120.796c-3.891,3.2-11.739,2.103-18.414,2.278
							c-6.697-0.175-14.545,0.922-18.436-2.278c-2.212,6.125,9.376,10.287,18.426,6.679
							C90.978,131.083,102.565,126.921,100.332,120.796z"/>
					</g>
				</g>
				<path style="fill-rule:evenodd;clip-rule:evenodd;" d="M83.431,26.058c5.466-0.78,8.363-7.881,16.341-2.857
					c24.153,15.214,14,27.271,31.087,42.104c8.609,7.473-4.912,30.106-11.82,33.578c-2.039,1.025,3.409-10.315-3.687-11.94
					c-5.422-1.242-12.813-10.629-11.564-7.307c3.744,9.951,9.704,9.707,0.103,5.342C90.549,78.915,79.662,62.637,79.98,53.585
					c-0.357,10.187-12.522,26.731-22.262,31.981c-1.867,1.006-16.242,8.086-8.352,1.358c8.126-6.929,13.268-18.068,2.662-7.119
					c-6.425,6.631-8.753-0.815-6.974,14.162c1.462,12.306,0.741,2.958-5.251,1.479c-7.476-1.845-9.999-16.271-9.259-23.882
					c1.837-18.871,12.587-24.521,22.376-39.485c5.175-7.912,20.047-17.447,28.111-7.413C81.184,24.855,83.144,25.938,83.431,26.058z
					"/>
			</g>
			<g>
				<path d="M81.895,212.477c-11.406,0-20.881-1.729-21.574-7.19c-0.027,0.216-0.067,0.43-0.067,0.65
					c0,5.765,9.785,10.439,21.642,10.439s21.648-4.673,21.648-10.439c0-0.219-0.04-0.434-0.067-0.65
					C102.782,210.748,93.301,212.477,81.895,212.477z"/>
				<path style="fill:#754C24;" d="M83.772,217.403h-4.275c-1.704,0-3.091-1.195-3.091-2.665c0-1.472,1.386-2.67,3.091-2.67h4.275
					c1.704,0,3.089,1.198,3.089,2.67C86.861,216.208,85.476,217.403,83.772,217.403z M79.497,213.364
					c-0.989,0-1.794,0.616-1.794,1.374c0,0.755,0.805,1.368,1.794,1.368h4.275c0.989,0,1.793-0.613,1.793-1.368
					c0-0.758-0.804-1.374-1.793-1.374H79.497z"/>
			</g>
			<g>
				<path style="fill:#754C24;" d="M101.317,205.848c3.009-0.763,6.204,0.45,8.934,3.032c2.684,2.537,4.928,6.407,6.093,11.004
					c1.166,4.597,1.036,9.068-0.114,12.576c-1.17,3.569-3.401,6.16-6.411,6.922c-3.01,0.764-6.204-0.45-8.934-3.032
					c-2.684-2.537-4.928-6.407-6.093-11.002c-1.166-4.599-1.036-9.069,0.115-12.577C96.076,209.2,98.307,206.61,101.317,205.848
					L101.317,205.848z M109.704,209.46c-2.534-2.393-5.463-3.529-8.19-2.838c-2.727,0.692-4.763,3.086-5.849,6.398
					c-1.107,3.371-1.227,7.683-0.099,12.13c1.128,4.449,3.286,8.182,5.865,10.619c2.533,2.395,5.464,3.53,8.191,2.839
					c2.726-0.692,4.762-3.086,5.848-6.398c1.107-3.371,1.227-7.683,0.098-12.13C114.442,215.63,112.281,211.898,109.704,209.46
					L109.704,209.46z"/>
				<path style="fill:#754C24;" d="M102.821,207.062c2.918-1.061,6.219-0.173,9.193,2.121c2.924,2.255,5.544,5.879,7.165,10.337
					c1.62,4.456,1.942,8.917,1.147,12.524c-0.806,3.669-2.766,6.47-5.684,7.531c-2.917,1.062-6.218,0.174-9.194-2.119
					c-2.925-2.257-5.546-5.88-7.166-10.338c-1.62-4.457-1.94-8.918-1.147-12.525C97.943,210.924,99.901,208.122,102.821,207.062
					L102.821,207.062z M111.528,209.816c-2.76-2.129-5.79-2.964-8.434-2.003c-2.643,0.961-4.429,3.547-5.177,6.951
					c-0.763,3.465-0.45,7.766,1.118,12.079c1.567,4.313,4.09,7.811,6.899,9.977c2.761,2.129,5.79,2.965,8.435,2.003
					c2.643-0.961,4.428-3.549,5.177-6.952c0.763-3.466,0.45-7.767-1.117-12.079C116.86,215.479,114.338,211.983,111.528,209.816
					L111.528,209.816z"/>
				<path style="fill:#754C24;" d="M101.169,206.318c3.059-0.524,6.148,0.939,8.667,3.726c2.475,2.741,4.408,6.773,5.208,11.448
					c0.799,4.675,0.32,9.121-1.105,12.529c-1.448,3.467-3.873,5.872-6.935,6.397c-3.061,0.523-6.149-0.939-8.667-3.726
					c-2.478-2.74-4.409-6.773-5.209-11.448c-0.799-4.674-0.321-9.121,1.105-12.528C95.68,209.249,98.107,206.843,101.169,206.318
					L101.169,206.318z M109.244,210.581c-2.337-2.586-5.169-3.949-7.942-3.475c-2.773,0.475-4.99,2.701-6.335,5.918
					c-1.368,3.274-1.825,7.562-1.052,12.085c0.775,4.524,2.634,8.414,5.011,11.047c2.337,2.586,5.169,3.949,7.942,3.473
					c2.773-0.474,4.991-2.7,6.334-5.917c1.369-3.274,1.827-7.561,1.054-12.085C113.482,217.105,111.623,213.213,109.244,210.581
					L109.244,210.581z"/>
				<path style="fill:#754C24;" d="M105.035,206.062c2.594,0.17,4.825,1.964,6.333,4.726c1.482,2.715,2.269,6.377,2.009,10.341
					c-0.261,3.964-1.519,7.492-3.344,9.99c-1.855,2.542-4.3,4.028-6.897,3.858c-2.596-0.171-4.826-1.964-6.333-4.726
					c-1.484-2.715-2.27-6.377-2.01-10.341c0.261-3.964,1.518-7.493,3.344-9.99C99.992,207.378,102.438,205.892,105.035,206.062
					L105.035,206.062z M110.782,211.109c-1.399-2.563-3.44-4.225-5.791-4.379c-2.351-0.154-4.591,1.227-6.315,3.585
					c-1.753,2.4-2.962,5.804-3.214,9.639c-0.251,3.837,0.504,7.368,1.927,9.976c1.399,2.562,3.44,4.225,5.792,4.378
					c2.352,0.155,4.592-1.226,6.313-3.584c1.754-2.4,2.963-5.803,3.215-9.639C112.961,217.25,112.206,213.717,110.782,211.109
					L110.782,211.109z"/>
				<path style="fill:#754C24;" d="M102.823,205.934c3.138-0.729,6.214,0.768,8.649,3.775c2.392,2.959,4.173,7.391,4.77,12.594
					c0.599,5.204-0.097,10.211-1.704,14.095c-1.633,3.955-4.215,6.763-7.352,7.493c-3.14,0.728-6.215-0.768-8.649-3.776
					c-2.395-2.958-4.172-7.39-4.771-12.594c-0.598-5.204,0.096-10.209,1.703-14.096C97.102,209.474,99.683,206.663,102.823,205.934
					L102.823,205.934z M110.845,210.339c-2.259-2.791-5.078-4.188-7.922-3.528c-2.844,0.66-5.204,3.259-6.72,6.926
					c-1.543,3.734-2.208,8.561-1.629,13.597c0.578,5.035,2.289,9.31,4.589,12.153c2.259,2.791,5.078,4.188,7.921,3.527
					c2.843-0.66,5.203-3.259,6.719-6.926c1.545-3.733,2.209-8.562,1.631-13.596C114.854,217.456,113.143,213.18,110.845,210.339
					L110.845,210.339z"/>
			</g>
			<g>
				<path style="fill:#F7931E;" d="M58.479,206.617l6.781,2.308c0,0-2.848,36.401-8.309,36.23S58.479,206.617,58.479,206.617z"/>
				<polygon style="fill:#ED1C24;" points="57.505,212.413 64.717,214.736 64.542,216.376 57.263,213.954 				"/>
				<polygon style="fill:#603813;" points="58.479,206.617 65.26,208.925 65.143,210.31 58.25,207.919 				"/>
				<polygon style="fill:#ED1C24;" points="57.05,215.356 64.384,217.791 64.216,219.235 56.824,216.887 				"/>
				<path style="fill:#ED1C24;" d="M54.895,235.889c-0.154,5.302,0.323,9.21,2.056,9.265c1.661,0.052,3.08-3.289,4.251-7.953
					L54.895,235.889z"/>
				<path d="M59.845,207.082l4.061,1.382c0,0,0.795-7.01-0.187-8.391c-0.982-1.381-4.388-3.275-4.737-2.091
					S60.979,201.366,59.845,207.082z"/>
			</g>
			<path style="fill:#CCCCCC;" d="M106.838,152.588c0,0,12.022,3.359,18.276-0.62l2.653,20.628c0,0-10.421,4.568-22.285,2.825
				L106.838,152.588z"/>
			<path style="fill:#999999;" d="M122.865,153.035l2.44,20.53c1.55-0.562,2.461-0.969,2.461-0.969l-2.653-20.628
				C124.449,152.391,123.688,152.741,122.865,153.035z"/>
			<g>
				<path style="fill:#602E0C;" d="M111.972,10.641C105.24,1.462,97.286-3.128,91.166,2.379c-6.119,5.507-11.014,4.895-11.014,4.895
					s-4.895,0.612-11.015-4.895s-14.074-0.918-20.805,8.261c-6.731,9.179-7.343,26.316-7.343,26.316v9.984
					c25.367,6.771,39.163,8.219,39.163,8.219s13.796-1.449,39.163-8.219v-9.984C119.315,36.956,118.703,19.819,111.972,10.641z"/>
				<path style="fill:#4C2103;" d="M48.332,10.641c-3.499,4.772-5.343,13.096-6.308,19.993c0.107,0.077,0.202,0.169,0.315,0.24
					c5.427,3.412,14.719-1.605,20.754-11.205c4.131-6.571,5.662-13.584,4.479-18.451C61.7-2.325,54.502,2.226,48.332,10.641z"/>
				<path style="fill:#BA0000;" d="M80.782,56.422c21.74,0,38.595-8.046,38.595-0.342v-6.254c0-7.709-16.855-13.957-38.595-13.957
					c-21.744,0-39.664,6.248-39.664,13.957l-1.422,6.254C39.697,48.375,59.038,56.422,80.782,56.422z"/>
				<path style="fill:#4C2103;" d="M111.972,10.641c3.499,4.772,5.343,13.096,6.308,19.993c-0.107,0.077-0.202,0.169-0.315,0.24
					c-5.428,3.412-14.72-1.605-20.754-11.205c-4.132-6.571-5.663-13.584-4.479-18.451C98.602-2.325,105.801,2.226,111.972,10.641z"
					/>
				<g>
					<g>
						<circle style="fill:#FBB03B;" cx="80.152" cy="44.062" r="2.749"/>
					</g>
					<g>
						<circle style="fill:#FBB03B;" cx="71.055" cy="45.362" r="2.749"/>
					</g>
					<g>
						<circle style="fill:#FBB03B;" cx="61.959" cy="46.661" r="2.749"/>
					</g>
					<g>
						<circle style="fill:#FBB03B;" cx="52.863" cy="49.26" r="2.749"/>
					</g>
					<g>
						<circle style="fill:#FBB03B;" cx="89.248" cy="45.362" r="2.749"/>
					</g>
					<g>
						<circle style="fill:#FBB03B;" cx="98.344" cy="46.661" r="2.749"/>
					</g>
					<g>
						<circle style="fill:#FBB03B;" cx="107.441" cy="49.26" r="2.749"/>
					</g>
				</g>
				<path style="fill:#6B3A15;" d="M145.186,36.542c-41.638,18.913-65.027,16.763-65.027,16.763s-23.389,2.15-65.027-16.763h-0.089
					c42.581,40.244,65.116,37.583,65.116,37.583s22.536,2.167,65.116-37.583H145.186z"/>
			</g>
			<g>
				<path style="fill:#999999;" d="M56.404,153.512c0,0,0.224,1.857,0.56,4.642c0.317,2.784,0.663,6.507,1.002,10.229
					c0.299,3.724,0.591,7.45,0.751,10.251c0.142,2.802,0.236,4.668,0.236,4.668s-0.224-1.857-0.56-4.64
					c-0.318-2.786-0.663-6.509-1.002-10.232c-0.299-3.724-0.59-7.45-0.75-10.251C56.499,155.378,56.404,153.512,56.404,153.512z"/>
				<path style="fill:#999999;" d="M107.038,153.552c0,0-0.224,1.857-0.56,4.642c-0.317,2.784-0.663,6.507-1.002,10.229
					c-0.299,3.724-0.591,7.45-0.751,10.251c-0.142,2.802-0.236,4.668-0.236,4.668s0.224-1.857,0.56-4.64
					c0.318-2.786,0.663-6.509,1.002-10.232c0.299-3.724,0.59-7.45,0.75-10.251C106.942,155.419,107.038,153.552,107.038,153.552z"/>
			</g>
		</g>
	</g>
</g>
</svg>
