<?xml version="1.0" encoding="utf-8"?>
<!-- Generator: Adobe Illustrator 21.0.0, SVG Export Plug-In . SVG Version: 6.00 Build 0)  -->
<svg version="1.1" id="Capa_1" xmlns="http://www.w3.org/2000/svg" xmlns:xlink="http://www.w3.org/1999/xlink" x="0px" y="0px"
	 viewBox="0 0 175.104 295.551" style="enable-background:new 0 0 175.104 295.551;" xml:space="preserve">
<g>
	<defs>
		<filter id="Adobe_OpacityMaskFilter" filterUnits="userSpaceOnUse" x="33.506" y="268.505" width="104.605" height="27.047">
			<feFlood  style="flood-color:white;flood-opacity:1" result="back"/>
			<feBlend  in="SourceGraphic" in2="back" mode="normal"/>
		</filter>
	</defs>
	<mask maskUnits="userSpaceOnUse" x="33.506" y="268.505" width="104.605" height="27.047" id="XMLID_2_">
	</mask>
	
		<ellipse id="XMLID_34_" transform="matrix(1 -0.0098 0.0098 1 -2.7515 0.8519)" style="opacity:0.2;mask:url(#XMLID_2_);" cx="85.809" cy="282.028" rx="52.305" ry="13.514"/>
	<g>
		<g>
			<g>
				<rect x="64.377" y="209.057" width="39.879" height="4.055"/>
				<path style="fill:#A7A9AC;" d="M86.442,213.763H82.15c-1.711,0-3.103-1.2-3.103-2.675c0-1.478,1.392-2.681,3.103-2.681h4.292
					c1.71,0,3.102,1.203,3.102,2.681C89.543,212.563,88.152,213.763,86.442,213.763z M82.15,209.708
					c-0.993,0-1.801,0.618-1.801,1.379c0,0.758,0.808,1.374,1.801,1.374h4.292c0.992,0,1.8-0.616,1.8-1.374
					c0-0.761-0.808-1.379-1.8-1.379H82.15z"/>
			</g>
			<g>
				<path style="fill:#D54F2B;" d="M84.317,221.055c13.675,18.695,6.277,59.917,6.277,59.917c8.906-6.356,21.098-3.936,21.098-3.936
					c-12.259-31.54-7.476-63.924-7.476-63.924h-39.84c0,0,4.826,32.384-7.432,63.924c0,0,12.192-2.42,21.098,3.936
					c0,0-7.443-41.222,6.229-59.917"/>
				<path d="M117.02,282.435c0,3.366-3.22,3.569-11.708,3.569c-8.489,0-15.003-0.203-15.003-3.569c0-3.363,6.878-6.088,15.365-6.088
					C114.161,276.347,117.02,279.072,117.02,282.435z"/>
				<path d="M51.958,282.435c0,3.366,3.219,3.569,11.709,3.569c8.485,0,15.002-0.203,15.002-3.569c0-3.363-6.881-6.088-15.37-6.088
					C54.816,276.347,51.958,279.072,51.958,282.435z"/>
			</g>
			<g id="XMLID_201_">
				
					<path id="XMLID_202_" style="fill:#7F4A33;stroke:#35120C;stroke-linecap:round;stroke-linejoin:round;stroke-miterlimit:10;" d="
					M54.298,171.084c0,0-16.624,29.383,9.698,38.692l-0.801-9.147c0,0-13.344-6.738-6.413-23.353L54.298,171.084z"/>
			</g>
			<g>
				<path style="fill:#278C93;" d="M62.018,187.88c0,0-0.886-19.191-3.038-30.583c-0.961,0.631-1.79,1.347-2.376,1.901
					c-4.625,4.367-11.153,17.081-12.212,19.969l14.117,11.62L62.018,187.88z"/>
				<path style="fill:#BDFDFF;" d="M60.59,189.064l-14.948-12.696c-0.597,1.232-1.036,2.218-1.249,2.8l14.117,11.62L60.59,189.064z"
					/>
			</g>
			<g>
				<path style="fill:#7F4A33;stroke:#35120C;stroke-linecap:round;stroke-linejoin:round;stroke-miterlimit:10;" d="
					M171.378,202.295c4.244-2.632,1.991-6.155,1.169-6.96c-0.844-0.824,0.037-1.299,0.037-1.299
					c2.445-1.169,2.776-4.919,0.415-6.997c-0.745-0.658-0.24-1.485-0.24-1.485c1.649-1.587,1.429-4.546,1.429-4.546
					c-0.438-6.664-11.983-4.933-16.493-4.391c-4.506,0.542-0.361-3.098-0.361-3.098c5.362-6.83,4.396-9.683,2.877-11.003
					c-0.783-2.003-1.965-3.253-1.965-3.253s-6.116-7.268-8.925,2.773c-1.601,5.704-5.373,17.718-8.284,21.391
					c-0.453,0.572-0.737,1.281-0.926,2.05c-16.743,1.27-26.401-8.856-26.917-9.682l-0.325,11.523c0,0,8.764,12.236,28.117,20.431
					c0.209,0.392,0.463,0.736,0.78,1.008c0.313,0.27,0.715,0.511,1.183,0.726c4.406,2.03,14.821,1.795,14.821,1.795
					c8.109,0.392,12.444-0.957,12.444-0.957c5.447-2.555,1.872-6.308,1.166-6.957C170.664,202.708,171.378,202.295,171.378,202.295z
					"/>
				<path style="fill:#C98150;stroke:#35120C;stroke-linecap:round;stroke-linejoin:round;stroke-miterlimit:10;" d="
					M171.378,202.295c4.244-2.632,1.991-6.155,1.169-6.96c-0.844-0.824,0.037-1.299,0.037-1.299
					c2.445-1.169,2.776-4.919,0.415-6.997c-0.745-0.658-0.24-1.485-0.24-1.485c1.649-1.587,1.429-4.546,1.429-4.546
					c-0.438-6.664-12.586-4.641-17.095-4.099c-4.506,0.542,0.167-3.938,0.167-3.938c5.362-6.83,4.056-8.794,2.537-10.114
					c-1.642-1.534-5.611-4.968-7.866,3.092c-1.601,5.704-5.373,17.718-8.284,21.391c-2.036,2.57-1.048,7.669-0.271,10.507
					c0.333,1.223,0.421,2.756,0.175,3.88c-0.433,1.991-0.783,4.824-0.424,7.377c4.406,2.03,14.821,1.795,14.821,1.795
					c8.109,0.392,12.266-0.577,12.266-0.577c5.447-2.555,1.872-6.308,1.166-6.957C170.664,202.708,171.378,202.295,171.378,202.295z
					"/>
				<path style="fill:#C98150;" d="M142.246,209.105c-0.175-0.11-0.34-0.224-0.481-0.346
					C141.906,208.881,142.071,208.994,142.246,209.105z"/>
				<path style="fill:#C98150;" d="M142.947,209.485c-0.213-0.098-0.407-0.203-0.59-0.311
					C142.54,209.282,142.734,209.387,142.947,209.485z"/>
				<path style="fill:#C98150;" d="M158.296,159.32c-0.03-0.034-0.051-0.056-0.051-0.056S158.264,159.284,158.296,159.32z"/>
				<path style="fill:#7F4A33;stroke:#35120C;stroke-linecap:round;stroke-linejoin:round;stroke-miterlimit:10;" d="
					M152.559,196.278c-0.844,0.751-3.222,4.151,0.714,7.003c0,0,0.672,0.457-0.054,1.07c-0.717,0.607-3.866,4.509,0.977,7.426
					c0,0,0,0,0.006,0.009c0.198,0.071,3.431,1.319,10.721-0.014c0.017,0.006,0.025-0.006,0.039-0.003
					c3.467-0.297,5.283-0.887,5.283-0.887c5.272-2.57,1.835-6.308,1.152-6.963c-0.686-0.652,0.006-1.065,0.006-1.065
					c4.105-2.64,1.937-6.155,1.152-6.96c-0.819-0.824,0.039-1.302,0.039-1.302c2.363-1.18,2.694-4.921,0.421-7
					c-0.717-0.655-0.223-1.479-0.223-1.479c1.598-1.59,1.395-4.552,1.395-4.552c-0.215-3.521-3.431-4.687-7.065-4.924l-0.028-0.003
					v0.009c-0.017,0-0.037-0.009-0.062-0.011c-2.883-0.503-7.358-0.824-10.78,0.104c-2.521,0.695-4.447,2.846-4.749,5.323
					c0,0-0.088,2.761,1.415,4.436c0,0,0.443,0.858-0.319,1.474c-2.4,1.948-2.296,5.709-0.006,7.011
					C152.593,194.98,153.414,195.493,152.559,196.278z"/>
				<path style="fill:#35120C;stroke:#35120C;stroke-linecap:round;stroke-linejoin:round;stroke-miterlimit:10;" d="
					M172.649,186.529c0,0-5.715,1.177-19.604,0.477L172.649,186.529z"/>
				<path style="fill:#35120C;stroke:#35120C;stroke-linecap:round;stroke-linejoin:round;stroke-miterlimit:10;" d="
					M152.937,195.485c0,0,11.935,0.695,19.322-0.528L152.937,195.485z"/>
				<path style="fill:#35120C;stroke:#35120C;stroke-linecap:round;stroke-linejoin:round;stroke-miterlimit:10;" d="
					M153.556,203.769l17.605-0.661C171.161,203.109,162.207,204.3,153.556,203.769z"/>
				<path style="fill:#35120C;stroke:#35120C;stroke-linecap:round;stroke-linejoin:round;stroke-miterlimit:10;" d="
					M152.189,195.666c0,0-3.219,1.417-9.829,0.641C142.36,196.307,150.289,195.883,152.189,195.666z"/>
			</g>
			<g>
				<path style="fill:#278C93;" d="M106.569,187.889c0,0,0.559-18.524,3.03-30.5c0.961,0.631,2.048,1.347,2.635,1.901
					c4.625,4.367,11.153,17.081,12.212,19.969l-14.117,11.62L106.569,187.889z"/>
				<path style="fill:#BDFDFF;" d="M108.249,189.155l14.948-12.696c0.597,1.232,1.036,2.218,1.249,2.8l-14.117,11.62
					L108.249,189.155z"/>
			</g>
			<g>
				<path style="fill:#69D3D6;" d="M91.39,152.931h-6.818h-6.819l-18.817,4.359l2.014,23.778l3.052,31.892
					c0,0,4.535,3.841,6.349,4.7c3.965,1.874,14.221,2.746,14.221,2.746s10.132-0.21,14.096-2.086c1.816-0.857,6.473-5.36,6.473-5.36
					l3.052-31.892l1.406-23.679L91.39,152.931z"/>
				<g>
					<rect x="81.585" y="159.311" style="fill:#499FAA;" width="6.204" height="24.647"/>
					<circle style="fill:#57999B;" cx="85.273" cy="161.815" r="1.286"/>
					<path style="fill:#BDFDFF;" d="M86.616,159.312c0,0-4.888,10.986-4.917,18.75l-0.114,6.142h6.228v-6.089
						c0-11.583,3.901-16.079,3.901-16.079L86.616,159.312z"/>
					<g>
						<path style="fill:#278C93;" d="M75.03,149.62c-2.378,1.625-5.046,6.035-5.046,6.035l5.413,13.538l7.843-9.78h1.177l0,0H83.24
							C83.24,159.413,73.881,151.66,75.03,149.62z"/>
						<path style="fill:#278C93;" d="M94.343,149.62c2.378,1.625,5.046,6.055,5.046,6.055l-5.413,13.518l-7.843-9.78h-1.716l0,0
							h1.716C86.133,159.413,95.492,151.66,94.343,149.62z"/>
						<path style="fill:#1A6F75;" d="M94.343,149.632c-0.438-0.299-0.867-0.427-1.267-0.427c-2.571,0-8.486,0-8.486,0
							s-5.721,0-8.293,0c-0.4,0-0.829,0.128-1.267,0.427c-1.149,2.04,8.21,9.781,8.21,9.781h1.35h1.543
							C86.133,159.413,95.492,151.671,94.343,149.632z"/>
					</g>
					<g>
						<circle style="fill:#57999B;" cx="85.273" cy="176.254" r="1.286"/>
						<circle style="fill:#57999B;" cx="85.273" cy="181.815" r="1.286"/>
					</g>
				</g>
			</g>
			<path style="fill:#EFD0B1;" d="M43.001,6.554c0,0,23.156-11.183,36.783-4.334s30.487-5.029,39.668,4.334l13.841,55.272H36.588
				L43.001,6.554z"/>
			<path d="M40.551,27.666L38.42,46.033C50.272,37.9,66.513,32.879,84.441,32.879c17.257,0,32.95,4.653,44.671,12.255l-4.981-19.891
				c-11.029-5.849-24.776-9.325-39.69-9.325C67.569,15.919,52.188,20.365,40.551,27.666z"/>
			<path style="fill:#EFD0B1;" d="M172.427,72.598c0,0-10.646,25.712-61.091,15.959s-74.123,0-74.123,0S-31.1,103.829,17.388,53.622
				S176.789,36.107,172.427,72.598z"/>
			<path style="fill:#C69C6D;" d="M172.427,75.255c0,0-10.646,25.712-61.091,15.959s-74.123,0-74.123,0S-31.1,106.486,17.388,56.278
				S176.789,38.763,172.427,75.255z"/>
			<g>
				<g>
					
						<path style="fill:#7F4A33;stroke:#35120C;stroke-width:1.3045;stroke-linecap:round;stroke-linejoin:round;stroke-miterlimit:10;" d="
						M49.372,108.224c0,0-2.691-8.239-7.604-8.239c-4.91,0-2.536,15.999,10.298,24.238L49.372,108.224z"/>
					<path style="fill:#7F4A33;stroke:#35120C;stroke-linecap:round;stroke-linejoin:round;stroke-miterlimit:10;" d="
						M119.471,108.224c0,0,2.689-8.239,7.604-8.239c4.913,0,2.531,15.999-10.301,24.238L119.471,108.224z"/>
					<path style="fill:#7F4A33;stroke:#35120C;stroke-linecap:round;stroke-linejoin:round;stroke-miterlimit:10;" d="
						M84.483,50.434c0,0,24.235,0,26.999,0c2.764,0,9.613,4.365,10.323,26.343c1.401,43.083-0.445,54.335-15.88,70.616
						c-7.115,7.502-14.625,10.747-21.442,10.747c-6.628,0-14.331-3.244-21.445-10.747c-15.437-16.281-17.282-27.533-15.883-70.616
						c0.713-21.978,7.559-26.343,10.325-26.343C60.244,50.434,84.483,50.434,84.483,50.434z"/>
					<g>
						<path style="fill:#35120C;" d="M110.407,87.806c-0.246-0.13-0.678-0.254-1.206-0.455c-0.531-0.195-1.169-0.443-1.919-0.607
							c-1.456-0.446-3.288-0.675-5.077-0.808c-3.613-0.175-7.041,0.573-7.638,0.703c-1.264,0.189-3.05,0.864-4.021-1.039
							c-0.539-0.983,0.441-1.965,1.94-2.609c1.495-0.666,3.501-0.974,4.953-1.059c1.443-0.133,4.6-0.042,7.539,0.714
							c0.73,0.209,1.458,0.387,2.133,0.618c0.669,0.257,1.305,0.5,1.889,0.723c1.125,0.525,2.013,0.991,2.493,1.248
							c0.909,0.624,1.957,1.197,2.627,1.948c0.697,0.717,1.146,1.389,1.062,1.92C114.97,90.181,112.466,88.664,110.407,87.806z"/>
					</g>
					<g>
						<path style="fill:#35120C;" d="M58.124,87.806c0.246-0.13,0.679-0.254,1.206-0.455c0.532-0.195,1.17-0.443,1.919-0.607
							c1.457-0.446,3.29-0.675,5.077-0.808c3.614-0.175,7.042,0.573,7.641,0.703c1.261,0.189,3.05,0.864,4.021-1.039
							c0.539-0.983-0.44-1.965-1.94-2.609c-1.498-0.666-3.501-0.974-4.953-1.059c-1.446-0.133-4.602-0.042-7.542,0.714
							c-0.728,0.209-1.458,0.387-2.132,0.618c-0.671,0.257-1.306,0.5-1.889,0.723c-1.127,0.525-2.015,0.991-2.495,1.248
							c-0.908,0.624-1.955,1.197-2.627,1.948c-0.698,0.717-1.146,1.389-1.062,1.92C53.562,90.181,56.065,88.664,58.124,87.806z"/>
					</g>
					<g id="XMLID_188_">
						<g id="XMLID_194_">
							<path id="XMLID_198_" style="fill:#FFFFFF;" d="M64.42,92.301c-11.337,3-10.843,19.185,1.474,19.153
								C78.21,111.422,77.612,88.811,64.42,92.301z"/>
							
								<ellipse id="XMLID_197_" transform="matrix(0.0209 -0.9998 0.9998 0.0209 -37.1788 165.2579)" cx="65.786" cy="101.611" rx="6.055" ry="4.793"/>
							
								<ellipse id="XMLID_196_" transform="matrix(0.0209 -0.9998 0.9998 0.0209 -36.4263 159.8715)" style="fill:#FFFFFF;" cx="63.411" cy="98.534" rx="2.859" ry="2.859"/>
							
								<ellipse id="XMLID_195_" transform="matrix(0.0209 -0.9998 0.9998 0.0209 -38.1409 169.3901)" style="fill:#FFFFFF;" cx="67.415" cy="104.169" rx="1.093" ry="1.093"/>
						</g>
						<g id="XMLID_189_">
							<path id="XMLID_193_" style="fill:#FFFFFF;" d="M104.301,92.392c11.202,3.471,10.032,19.621-2.273,19.074
								C89.723,110.919,91.266,88.353,104.301,92.392z"/>
							
								<ellipse id="XMLID_192_" transform="matrix(0.0209 -0.9998 0.9998 0.0209 -0.7305 202.5495)" cx="103.05" cy="101.648" rx="6.055" ry="4.793"/>
							
								<ellipse id="XMLID_191_" transform="matrix(0.0209 -0.9998 0.9998 0.0209 0.0224 197.1631)" style="fill:#FFFFFF;" cx="100.676" cy="98.57" rx="2.859" ry="2.859"/>
							
								<ellipse id="XMLID_190_" transform="matrix(0.0209 -0.9998 0.9998 0.0209 -1.6926 206.6817)" style="fill:#FFFFFF;" cx="104.679" cy="104.205" rx="1.093" ry="1.093"/>
						</g>
					</g>
					<path id="XMLID_187_" style="fill:#562B1C;" d="M75.547,120.116c1.027-1.362,4.09,2.351,8.769,2.655
						c4.68,0.304,6.74-4.664,8.785-3.488c2.045,1.175-2.067,7.601-9.089,8.168C76.99,128.018,74.667,121.283,75.547,120.116z"/>
					<g>
						<path d="M101.047,130.984c0,0-0.551,8.46-6.899,12.977c-2.304,1.641-5.376,2.754-9.465,2.754
							c-4.083,0-7.146-1.111-9.452-2.749c-6.349-4.514-6.905-12.982-6.905-12.982H101.047z"/>
						<path style="fill:#FFFFFF;" d="M70.794,130.984h27.988c0,0,0.926,3.223-13.994,3.223S70.794,130.984,70.794,130.984z"/>
						<path style="fill:#FFFFFF;" d="M94.148,143.961c-2.304,1.641-5.376,2.754-9.465,2.754c-4.083,0-7.146-1.111-9.452-2.749
							C77.49,143.6,84.776,142.667,94.148,143.961z"/>
					</g>
				</g>
				<path style="fill:#35120C;" d="M84.61,72.026c0,0-0.934,2.559-3.025,0.569c0,0-2.148,2.386-2.917-0.456
					c0,0-1.872,2.73-3.466-0.568c0,0-2.695,1.932-3.355-0.91c0,0-2.917,2.274-3.301-1.307c0,0-2.53,1.648-3.466-1.08
					c0,0-0.99,2.843-4.511,0.797c0,0-0.33,3.525-3.631,2.046c0,0,1.542,2.672-1.87,3.751c0,0,2.202,1.932-0.66,3.637
					c0,0,2.197,1.762-0.056,3.468c0,0,2.092,3.694-1.486,3.694c0,0,1.87,3.466-1.596,4.604c0,0,2.698,4.32-1.54,4.32
					c0,0,2.584,3.638-1.266,4.434c0,0,1.981,2.614-0.99,3.978c0,0,0.33,2.389-0.549,3.525c-0.879,1.136-3.523-0.229-2.752-2.502
					c0,0-3.025,0.967-2.695-2.841c0,0-3.025-0.113-1.32-4.092c0,0-2.639-1.307-1.044-4.376c0,0-2.422-1.307-0.825-4.604
					c0,0-2.53-2.502-0.384-5.002c0,0-2.313-1.704-0.222-4.319c0,0-2.365-0.397,0.111-4.945c0,0-2.424-3.012,0.273-4.774
					c0,0-2.474-3.638,0.993-4.889c0,0-2.584-4.717,1.486-4.775c0,0-2.256-3.522,2.419-5.853c0,0-1.377-4.719,3.685-5.23
					c0,0-0.604-4.263,3.907-4.433c0,0,0.384-3.922,4.456-3.24c0,0-0.276-4.204,4.787-2.614c0,0-0.165-3.581,4.732-1.933
					c0,0-0.003-3.695,5.39-1.251c0,0,1.707-3.183,4.567-1.136c0,0,1.978-3.524,5.006-0.512c0,0,1.594-1.307,5.117-1.307
					c3.523,0,5.117,1.307,5.117,1.307c3.028-3.012,5.006,0.512,5.006,0.512c2.86-2.046,4.567,1.136,4.567,1.136
					c5.392-2.445,5.39,1.251,5.39,1.251c4.897-1.648,4.732,1.933,4.732,1.933c5.062-1.591,4.787,2.614,4.787,2.614
					c4.072-0.682,4.456,3.24,4.456,3.24c4.511,0.17,3.907,4.433,3.907,4.433c5.062,0.512,3.685,5.23,3.685,5.23
					c4.676,2.331,2.419,5.853,2.419,5.853c4.069,0.057,1.485,4.775,1.485,4.775c3.466,1.251,0.993,4.889,0.993,4.889
					c2.698,1.762,0.273,4.774,0.273,4.774c2.476,4.548,0.111,4.945,0.111,4.945c2.092,2.615-0.222,4.319-0.222,4.319
					c2.146,2.5-0.384,5.002-0.384,5.002c1.596,3.297-0.825,4.604-0.825,4.604c1.594,3.069-1.044,4.376-1.044,4.376
					c1.705,3.979-1.32,4.092-1.32,4.092c0.33,3.809-2.695,2.841-2.695,2.841c0.771,2.273-1.872,3.638-2.752,2.502
					c-0.879-1.136-0.549-3.525-0.549-3.525c-2.971-1.364-0.99-3.978-0.99-3.978c-3.85-0.795-1.266-4.434-1.266-4.434
					c-4.237,0-1.54-4.32-1.54-4.32c-3.466-1.138-1.596-4.604-1.596-4.604c-3.577,0-1.486-3.694-1.486-3.694
					c-2.254-1.705-0.057-3.468-0.057-3.468c-2.863-1.705-0.66-3.637-0.66-3.637c-3.412-1.079-1.87-3.751-1.87-3.751
					c-3.301,1.479-3.631-2.046-3.631-2.046c-3.52,2.046-4.511-0.797-4.511-0.797c-0.936,2.728-3.466,1.08-3.466,1.08
					c-0.384,3.581-3.301,1.307-3.301,1.307c-0.66,2.841-3.355,0.91-3.355,0.91c-1.594,3.297-3.466,0.568-3.466,0.568
					c-0.768,2.842-2.917,0.456-2.917,0.456C85.543,74.585,84.61,72.026,84.61,72.026z"/>
			</g>
			<polygon style="fill:#C7B299;" points="60.992,156.887 96.889,221.384 100.676,219.23 64.377,156.029 			"/>
			<path style="fill:#C7B299;" d="M91.903,222.526l15.368-8.763c0,0,6.358,28.168,0.978,30.777S95.451,253.672,91.903,222.526z"/>
			<g>
				<path style="fill:#603813;" d="M108.817,221.725l-15.856,8.37c0.194,1.137,0.396,2.188,0.603,3.185l15.77-8.324
					C109.166,223.838,108.992,222.752,108.817,221.725z"/>
				<path style="fill:#603813;" d="M110.204,232.272c-0.089-1.096-0.205-2.212-0.336-3.326l-15.399,8.129
					c0.307,1.113,0.624,2.111,0.95,3.002L110.204,232.272z"/>
			</g>
			<path style="fill:#C69C6D;" d="M35.793,69.406c0,0,50.209-41.947,96.319-5.894c0,0-2.066-32.049-44.457-32.694
				C50.77,30.258,35.793,51.249,35.793,69.406z"/>
		</g>
	</g>
</g>
</svg>
