<?xml version="1.0" encoding="utf-8"?>
<!-- Generator: Adobe Illustrator 21.0.0, SVG Export Plug-In . SVG Version: 6.00 Build 0)  -->
<svg version="1.1" id="Capa_1" xmlns="http://www.w3.org/2000/svg" xmlns:xlink="http://www.w3.org/1999/xlink" x="0px" y="0px"
	 viewBox="0 0 158.76 298.902" style="enable-background:new 0 0 158.76 298.902;" xml:space="preserve">
<g>
	<defs>
		<filter id="Adobe_OpacityMaskFilter" filterUnits="userSpaceOnUse" x="15.87" y="271.855" width="104.605" height="27.047">
			<feFlood  style="flood-color:white;flood-opacity:1" result="back"/>
			<feBlend  in="SourceGraphic" in2="back" mode="normal"/>
		</filter>
	</defs>
	<mask maskUnits="userSpaceOnUse" x="15.87" y="271.855" width="104.605" height="27.047" id="XMLID_3_">
	</mask>
	
		<ellipse id="XMLID_2_" transform="matrix(1 -0.0098 0.0098 1 -2.7851 0.6797)" style="opacity:0.2;mask:url(#XMLID_3_);" cx="68.173" cy="285.379" rx="52.305" ry="13.514"/>
	<g>
		<g>
			<g>
				<g>
					<path style="fill:#C5D9FE;" d="M44.111,160.138c0,0-35.761,35.28,13.5,53.755l0.835-16.38c0,0-26.954-7.441-13.33-25.259
						L44.111,160.138z"/>
				</g>
			</g>
			<g>
				<rect x="49.501" y="211.603" width="39.722" height="4.039"/>
				<path style="fill:#A7A9AC;" d="M71.479,216.29h-4.275c-1.704,0-3.091-1.195-3.091-2.665c0-1.472,1.386-2.67,3.091-2.67h4.275
					c1.704,0,3.09,1.198,3.09,2.67C74.568,215.095,73.183,216.29,71.479,216.29z M67.204,212.251c-0.989,0-1.794,0.616-1.794,1.374
					c0,0.755,0.805,1.368,1.794,1.368h4.275c0.989,0,1.793-0.613,1.793-1.368c0-0.758-0.804-1.374-1.793-1.374H67.204z"/>
			</g>
			<g>
				<path style="fill:#F4F4F4;" d="M69.363,223.553c13.621,18.621,6.252,59.681,6.252,59.681c8.87-6.331,21.015-3.921,21.015-3.921
					c-12.21-31.415-7.446-63.672-7.446-63.672H49.501c0,0,4.807,32.256-7.402,63.672c0,0,12.144-2.41,21.015,3.921
					c0,0-7.414-41.059,6.204-59.681"/>
				<path d="M101.937,284.691c0,3.352-3.208,3.555-11.662,3.555c-8.456,0-14.944-0.202-14.944-3.555
					c0-3.35,6.851-6.064,15.304-6.064C99.089,278.627,101.937,281.341,101.937,284.691z"/>
				<path d="M37.132,284.691c0,3.352,3.206,3.555,11.663,3.555c8.451,0,14.943-0.202,14.943-3.555c0-3.35-6.854-6.064-15.31-6.064
					C39.978,278.627,37.132,281.341,37.132,284.691z"/>
			</g>
			<g>
				<path style="fill:#C5D9FE;" d="M44.081,160.039l18.743-4.341h6.792v67.209c0,0-10.216-0.869-14.165-2.736
					c-1.807-0.856-6.324-4.681-6.324-4.681l-3.04-31.766L44.081,160.039z"/>
				<path style="fill:#C5D9FE;" d="M94.545,160.138l-18.138-4.44h-6.791v67.209c0,0,10.092-0.209,14.041-2.078
					c1.809-0.854,6.448-5.339,6.448-5.339l3.04-31.766L94.545,160.138z"/>
				<polygon style="fill:#DB3B26;" points="69.617,150.687 59.741,150.687 62.165,155.632 69.617,155.698 77.068,155.632 
					79.49,150.687 				"/>
				<polygon style="fill:#9D5C4A;" points="66.129,158.723 69.617,160.85 69.617,163.347 64.68,160.547 				"/>
				<polygon style="fill:#9D5C4A;" points="69.617,160.85 73.104,158.723 74.554,160.547 69.617,163.347 				"/>
				<path style="fill:#8AB7FF;" d="M72.086,177.492c-0.805,0-1.455,0.61-1.455,1.362c0,0.752,0.65,1.361,1.455,1.361
					c0.802,0,1.456-0.609,1.456-1.361C73.541,178.101,72.888,177.492,72.086,177.492z M71.569,179.127
					c-0.162,0-0.293-0.123-0.293-0.273c0-0.153,0.131-0.274,0.293-0.274c0.161,0,0.291,0.121,0.291,0.274
					C71.86,179.004,71.73,179.127,71.569,179.127z M72.618,179.139c-0.162,0-0.293-0.122-0.293-0.273
					c0-0.151,0.132-0.274,0.293-0.274c0.16,0,0.292,0.123,0.292,0.274C72.91,179.018,72.778,179.139,72.618,179.139z"/>
				<path style="fill:#8AB7FF;" d="M72.086,190.15c-0.805,0-1.455,0.61-1.455,1.362c0,0.751,0.65,1.362,1.455,1.362
					c0.802,0,1.456-0.61,1.456-1.362C73.541,190.76,72.888,190.15,72.086,190.15z M71.569,191.786c-0.162,0-0.293-0.123-0.293-0.274
					c0-0.151,0.131-0.275,0.293-0.275c0.161,0,0.291,0.124,0.291,0.275C71.86,191.663,71.73,191.786,71.569,191.786z M72.618,191.8
					c-0.162,0-0.293-0.123-0.293-0.274c0-0.152,0.132-0.274,0.293-0.274c0.16,0,0.292,0.122,0.292,0.274
					C72.91,191.677,72.778,191.8,72.618,191.8z"/>
				<path style="fill:#8AB7FF;" d="M72.086,202.809c-0.805,0-1.455,0.61-1.455,1.362c0,0.753,0.65,1.361,1.455,1.361
					c0.802,0,1.456-0.608,1.456-1.361C73.541,203.42,72.888,202.809,72.086,202.809z M71.569,204.444
					c-0.162,0-0.293-0.122-0.293-0.273c0-0.152,0.131-0.274,0.293-0.274c0.161,0,0.291,0.122,0.291,0.274
					C71.86,204.322,71.73,204.444,71.569,204.444z M72.618,204.458c-0.162,0-0.293-0.122-0.293-0.274
					c0-0.15,0.132-0.273,0.293-0.273c0.16,0,0.292,0.123,0.292,0.273C72.91,204.336,72.778,204.458,72.618,204.458z"/>
				<path style="fill:#8AB7FF;" d="M72.086,215.469c-0.805,0-1.455,0.61-1.455,1.361c0,0.751,0.65,1.362,1.455,1.362
					c0.802,0,1.456-0.611,1.456-1.362C73.541,216.079,72.888,215.469,72.086,215.469z M71.569,217.104
					c-0.162,0-0.293-0.122-0.293-0.273c0-0.151,0.131-0.274,0.293-0.274c0.161,0,0.291,0.123,0.291,0.274
					C71.86,216.982,71.73,217.104,71.569,217.104z M72.618,217.118c-0.162,0-0.293-0.123-0.293-0.275
					c0-0.151,0.132-0.274,0.293-0.274c0.16,0,0.292,0.123,0.292,0.274C72.91,216.995,72.778,217.118,72.618,217.118z"/>
				<path style="fill:#EFC392;" d="M60.858,157.691c0,0,0.65,9.02,8.306,9.363c7.653-0.343,8.306-9.363,8.306-9.363H60.858z"/>
				<path style="fill:#C4884D;" d="M60.383,153.192c0,0,0.728,9.02,9.299,9.363c8.569-0.343,9.299-9.363,9.299-9.363H60.383z"/>
				<polygon style="fill:#8AB7FF;" points="59.741,150.687 56.878,157.899 59.741,169.36 66.129,161.322 				"/>
				<polygon style="fill:#8AB7FF;" points="79.49,150.687 82.353,157.899 79.49,169.36 73.104,161.322 				"/>
				<polygon style="fill:#8AB7FF;" points="76.109,164.081 75.377,163.035 68.959,166.818 62.54,163.035 61.808,164.081 
					68.343,167.933 68.343,222.815 69.617,222.906 69.617,167.908 				"/>
			</g>
			<path style="fill:#8AB7FF;" d="M46.61,191.834c0,0,0.216,1.148,0.54,2.869c0.312,1.721,0.681,4.026,1.046,6.331
				c0.34,2.308,0.675,4.617,0.89,6.355c0.204,1.74,0.34,2.898,0.34,2.898s-0.216-1.147-0.54-2.867
				c-0.313-1.723-0.681-4.027-1.046-6.332c-0.34-2.308-0.674-4.617-0.889-6.355C46.746,192.993,46.61,191.834,46.61,191.834z"/>
			<g>
				<path style="fill:#BFBDB8;" d="M37.894,9.422c1.38-3.311,3.31-6.896,7.172-7.726c2.565-0.609,5.079-0.95,7.514-1.379
					C42.525-1.338,31.778,2.825,29.886,28.475c-1.548,20.98-2.223,33.268-2.223,33.268c0,0.947,0.111,1.861,0.316,2.739
					c0.781-3.869,1.704-7.567,2.193-11.486C32.656,38.104,32.928,23.488,37.894,9.422z"/>
				<path style="fill:#F2EEE3;" d="M107.119,56.029c-1.379-15.717-1.93-31.715-9.928-46.057C94.387,5.031,90.029,2.611,85.09,1.4
					c-0.57,0.036-1.156,0.079-1.756,0.133c-4.284,0.388-9.405,1.553-15.037,1.553c-5.878,0-10.199-1.795-15.382-2.712
					c-0.113-0.021-0.225-0.039-0.337-0.057c-2.435,0.429-4.949,0.769-7.514,1.379c-3.862,0.829-5.792,4.414-7.172,7.726
					c-4.965,14.066-5.238,28.682-7.723,43.574c-0.488,3.919-1.412,7.617-2.193,11.486c3.207,13.702,30.144,18.945,40.839,18.945
					c8.911,0,30.811-3.468,38.785-13.523C107.683,65.263,107.62,60.628,107.119,56.029z"/>
				<path style="fill:#BFBDB8;" d="M106.417,28.475C102.644,4.426,97.517,0.614,85.09,1.4c4.939,1.21,9.296,3.631,12.101,8.571
					c7.998,14.342,8.549,30.34,9.928,46.057c0.501,4.599,0.563,9.234,0.483,13.875c1.862-2.346,2.966-5.054,2.966-8.161
					C110.568,61.743,109.444,47.784,106.417,28.475z"/>
				<path d="M69.01,51.072c22.017,0,39.086,6.248,39.086,13.953V43.177c0-7.709-17.069-13.957-39.086-13.957
					c-22.021,0-40.168,6.248-40.168,13.957l-1.44,21.848C27.402,57.32,46.99,51.072,69.01,51.072z"/>
				<g>
					<ellipse style="fill:#F2EEE3;" cx="71.523" cy="71.465" rx="71.523" ry="36.329"/>
					<ellipse style="fill:#C5AD7F;" cx="71.523" cy="73.816" rx="71.523" ry="36.329"/>
				</g>
			</g>
			<g>
				<g>
					<path style="fill:#EFC392;stroke:#994900;stroke-linecap:round;stroke-linejoin:round;stroke-miterlimit:10;" d="
						M34.555,111.167c0,0-2.68-8.207-7.574-8.207c-4.891,0-2.526,15.935,10.257,24.142L34.555,111.167z"/>
					<path style="fill:#EFC392;stroke:#994900;stroke-linecap:round;stroke-linejoin:round;stroke-miterlimit:10;" d="
						M104.378,111.167c0,0,2.679-8.207,7.574-8.207c4.894,0,2.521,15.935-10.26,24.142L104.378,111.167z"/>
					<path style="fill:#EFC392;stroke:#994900;stroke-linecap:round;stroke-linejoin:round;stroke-miterlimit:10;" d="
						M69.528,53.605c0,0,24.139,0,26.893,0c2.753,0,9.575,4.347,10.282,26.239c1.395,42.913-0.443,54.12-15.817,70.337
						c-7.087,7.473-14.567,10.704-21.358,10.704c-6.602,0-14.275-3.231-21.361-10.704c-15.376-16.217-17.214-27.424-15.82-70.337
						c0.71-21.892,7.529-26.239,10.284-26.239C45.385,53.605,69.528,53.605,69.528,53.605z"/>
					<g>
						<path d="M95.35,90.83c-0.245-0.129-0.675-0.253-1.201-0.453c-0.529-0.194-1.164-0.442-1.911-0.605
							c-1.45-0.444-3.275-0.672-5.057-0.804c-3.599-0.174-7.013,0.571-7.608,0.7c-1.259,0.188-3.038,0.861-4.005-1.035
							c-0.537-0.979,0.439-1.958,1.932-2.599c1.489-0.664,3.488-0.97,4.933-1.055c1.437-0.132,4.582-0.042,7.509,0.712
							c0.727,0.208,1.453,0.385,2.125,0.616c0.667,0.256,1.299,0.498,1.882,0.72c1.121,0.523,2.005,0.987,2.483,1.243
							c0.906,0.621,1.949,1.192,2.617,1.941c0.695,0.714,1.142,1.384,1.058,1.913C99.895,93.195,97.4,91.685,95.35,90.83z"/>
					</g>
					<g>
						<path d="M43.273,90.83c0.245-0.129,0.676-0.253,1.201-0.453c0.53-0.194,1.166-0.442,1.911-0.605
							c1.451-0.444,3.277-0.672,5.057-0.804c3.6-0.174,7.014,0.571,7.61,0.7c1.256,0.188,3.038,0.861,4.005-1.035
							c0.537-0.979-0.439-1.958-1.932-2.599c-1.492-0.664-3.488-0.97-4.933-1.055c-1.44-0.132-4.584-0.042-7.512,0.712
							c-0.726,0.208-1.453,0.385-2.123,0.616c-0.668,0.256-1.301,0.498-1.882,0.72c-1.122,0.523-2.007,0.987-2.485,1.243
							c-0.904,0.621-1.948,1.192-2.617,1.941c-0.695,0.714-1.142,1.384-1.058,1.913C38.729,93.195,41.222,91.685,43.273,90.83z"/>
					</g>
					<g id="XMLID_47_">
						<g id="XMLID_57_">
							<path id="XMLID_74_" style="fill:#FFFFFF;" d="M49.544,95.307c-11.293,2.988-10.801,19.109,1.468,19.077
								C63.28,114.352,62.684,91.831,49.544,95.307z"/>
							
								<ellipse id="XMLID_72_" transform="matrix(0.0209 -0.9998 0.9998 0.0209 -54.7176 153.2871)" cx="50.905" cy="104.581" rx="6.031" ry="4.774"/>
							
								<ellipse id="XMLID_71_" transform="matrix(0.0209 -0.9998 0.9998 0.0209 -53.9682 147.922)" style="fill:#FFFFFF;" cx="48.54" cy="101.515" rx="2.848" ry="2.848"/>
							
								<ellipse id="XMLID_58_" transform="matrix(0.0209 -0.9998 0.9998 0.0209 -55.6759 157.403)" style="fill:#FFFFFF;" cx="52.527" cy="107.128" rx="1.089" ry="1.089"/>
						</g>
						<g id="XMLID_48_">
							<path id="XMLID_54_" style="fill:#FFFFFF;" d="M89.267,95.398c11.158,3.457,9.992,19.544-2.264,18.999
								C74.747,113.852,76.284,91.375,89.267,95.398z"/>
							
								<ellipse id="XMLID_52_" transform="matrix(0.0209 -0.9998 0.9998 0.0209 -18.413 190.4317)" cx="88.022" cy="104.617" rx="6.031" ry="4.774"/>
							
								<ellipse id="XMLID_51_" transform="matrix(0.0209 -0.9998 0.9998 0.0209 -17.6633 185.0666)" style="fill:#FFFFFF;" cx="85.657" cy="101.552" rx="2.848" ry="2.848"/>
							
								<ellipse id="XMLID_50_" transform="matrix(0.0209 -0.9998 0.9998 0.0209 -19.3714 194.5476)" style="fill:#FFFFFF;" cx="89.644" cy="107.164" rx="1.089" ry="1.089"/>
						</g>
					</g>
					<g>
						<path id="XMLID_45_" style="fill:#C4884D;" d="M64.342,125.618c0.599-0.795,2.388,1.372,5.12,1.55
							c2.732,0.178,3.935-2.723,5.129-2.037c1.194,0.686-1.207,4.437-5.306,4.769C65.185,130.231,63.828,126.3,64.342,125.618z"/>
						<g>
							<path d="M85.68,133.981c0,0-0.548,8.427-6.872,12.925c-2.295,1.634-5.355,2.744-9.427,2.744
								c-4.067,0-7.118-1.107-9.415-2.738c-6.324-4.496-6.878-12.931-6.878-12.931H85.68z"/>
							<path style="fill:#FFFFFF;" d="M55.546,133.981h27.877c0,0,0.922,3.21-13.939,3.21S55.546,133.981,55.546,133.981z"/>
							<path style="fill:#FFFFFF;" d="M78.808,146.906c-2.295,1.634-5.355,2.744-9.427,2.744c-4.067,0-7.118-1.107-9.415-2.738
								C62.216,146.546,69.474,145.617,78.808,146.906z"/>
						</g>
					</g>
				</g>
				<path d="M69.313,37.898c-26.553,0-48.056,9.301-48.056,39.8c0,9.086,1.922,15.052,5.307,22.612
					c3.041,5.986,5.586,9.574,5.586,9.574s-0.707-41.405,2.772-44.645c1.662-1.544,17.496,2.647,34.391,2.647
					c18.927,0,33.553-3.7,34.946-1.797c2.665,3.639,3.188,24.533,2.098,43.796c0.379-0.37,0.742-0.755,1.097-1.146
					c6.24-9.316,9.96-18.376,9.96-31.04C117.413,47.199,95.866,37.898,69.313,37.898z"/>
				<g>
					<path d="M32.149,109.884c-1.998-11.921-5.266-31.781-4.475-42.205c0.491-6.479,2.26-18.591,11.214-13.888
						c-0.191-3.467,1.111-9.701,4.454-11.273c-1.113,1.74-1.115,5.203,0,7.806c3.715-5.636,9-9.535,14.569-10.839
						c10.395-2.597,38.898-1.981,46.7,17.755c4.465,11.293,3.921,39.017,1.746,52.644c0,0-0.298-39.642-19.004-37.665
						c0,0,2.044,7.184,4.769,11.577c0,0-9.272-2.449-17.495-8.91c0.436,2.395,3.894,6.713,12.919,11.109
						c-12.982-0.209-35.77-3.605-44.308-11.845C33.835,74.777,32.149,109.884,32.149,109.884z"/>
				</g>
			</g>
			<path style="fill:#C5AD7F;" d="M20.053,64.71c0,0,54.307-29.355,100.073,2.349c0,0-0.374-25.36-44.239-28.942
				C37.72,35.001,21.053,50.427,20.053,64.71z"/>
			<g>
				<path style="fill:#FBF4D3;" d="M45.679,160.965c0,0,0.906,0.107,1.632,15.205c0.726,15.097-1.523,35.72,1.481,31.306
					c3.004-4.414,0.277,0.404,3.264,0c2.987-0.404,1.938-6.486,3.317-3.209c1.379,3.277,2.219,3.8,2.91,0
					c0.691-3.8-0.017,4.557,1.447,3.209c1.465-1.347,2.766-10.417,1.09-18.385s-4.249-17.44-4.218-23.936
					c0,0,0.636-9.069-1.629-8.935S42.296,157.948,45.679,160.965z"/>
				<g>
					<path style="fill:#C6B28F;" d="M48.931,168.384c-0.282,0.026-0.121,7.974,0.361,17.751c0.482,9.777,1.101,17.682,1.383,17.655
						c0.282-0.026,0.121-7.974-0.361-17.751C49.832,176.262,49.213,168.357,48.931,168.384z"/>
					<path style="fill:#C6B28F;" d="M57.913,189.597c-0.647-6.575-1.354-11.872-1.579-11.829c-0.225,0.042,0.117,5.407,0.764,11.982
						c0.647,6.575,1.354,11.872,1.579,11.829C58.902,201.537,58.56,196.172,57.913,189.597z"/>
					<path style="fill:#C6B28F;" d="M52.717,177.104c-0.227,0.021-0.146,5.405,0.18,12.026c0.326,6.621,0.774,11.97,1.001,11.949
						c0.227-0.021,0.146-5.405-0.18-12.026C53.392,182.432,52.944,177.083,52.717,177.104z"/>
				</g>
			</g>
			<polygon points="88.768,158.723 49.802,218.192 54.027,220.522 93.052,159.772 			"/>
			<g>
				<path d="M41.071,206.208l28.812,15.696c0,0-9.207,20.974-25.324,12.194S41.071,206.208,41.071,206.208z"/>
				<path style="fill:#A67C52;" d="M45.235,232.855c-4.044-2.203-6.489-5.287-7.266-9.166c-1.255-6.257,2.051-13.038,3.517-15.644
					l26.626,14.506c-1.4,2.648-5.322,9.117-11.247,11.443C53.187,235.439,49.275,235.056,45.235,232.855z"/>
				<path d="M41.071,206.208l-4.43,8.132c-0.684,1.255-0.216,2.842,1.039,3.525l9.832,5.356l-4.623,8.487l0.426,4.671l4.21-2.146
					l4.623-8.487l9.832,5.357c1.255,0.684,2.842,0.216,3.525-1.039l4.43-8.132L41.071,206.208z"/>
				<path style="fill:#A67C52;" d="M44.218,231.984l5.056-9.281l-10.973-5.978c-0.629-0.343-0.862-1.133-0.519-1.763l3.809-6.991
					l26.582,14.482l-3.809,6.991c-0.343,0.63-1.134,0.862-1.763,0.519l-10.973-5.978l-5.053,9.275l-2.142,1.092L44.218,231.984z"/>
				
					<rect x="39.221" y="215.077" transform="matrix(0.8781 0.4784 -0.4784 0.8781 110.0421 0.3387)" style="fill:#FCEE21;" width="30.271" height="2.195"/>
				
					<rect x="38.433" y="217.072" transform="matrix(0.8781 0.4784 -0.4784 0.8781 110.6378 0.8917)" style="fill:#0071BC;" width="30.271" height="1.098"/>
				
					<rect x="37.908" y="218.036" transform="matrix(0.8781 0.4784 -0.4784 0.8781 111.035 1.2603)" style="fill:#C1272D;" width="30.271" height="1.098"/>
				<rect x="44.211" y="226.353" transform="matrix(0.8781 0.4784 -0.4784 0.8781 114.7779 4.7553)" width="7.688" height="2.653"/>
			</g>
			<g>
				<path style="fill:#C5D9FE;" d="M94.545,160.138l-0.68,11.45c0,0,11.873,25.888,31.768,34.047l-0.627-22.632
					C107.637,184.825,95.071,160.979,94.545,160.138z"/>
				<polygon style="fill:#8AB7FF;" points="127.735,206.692 122.546,204.295 122.546,183.182 129.118,182.673 				"/>
				<g>
					<path style="fill:#EFC392;stroke:#994900;stroke-linecap:round;stroke-linejoin:round;stroke-miterlimit:10;" d="
						M124.824,181.031c2.9-3.659,6.657-15.626,8.252-21.307c2.798-10.001,8.89-2.762,8.89-2.762s6.491,6.84-0.908,14.2
						c0,0-4.129,3.625,0.36,3.085c4.491-0.54,15.991-2.264,16.427,4.373c0,0,0.219,2.947-1.423,4.528c0,0-0.503,0.824,0.239,1.479
						c2.351,2.07,2.022,5.805-0.413,6.969c0,0-0.878,0.473-0.037,1.294c0.818,0.801,3.063,4.311-1.164,6.933
						c0,0-0.711,0.411,0,1.066c0.703,0.647,4.264,4.385-1.161,6.93c0,0-4.317,1.344-12.395,0.953c0,0-12.698,0.287-15.941-2.512
						c-2.368-2.039-1.477-7.883-0.821-10.901c0.245-1.119,0.158-2.647-0.174-3.864C123.78,188.669,122.796,183.59,124.824,181.031z"
						/>
					<path style="fill:#FBCC97;" d="M139.634,171.843c0.022,0.003,0.048,0.014,0.065,0.017l0.003-0.011L139.634,171.843z"/>
					<path style="fill:#FBCC97;" d="M139.702,171.848l0.028,0.006C139.732,171.556,139.713,171.702,139.702,171.848z"/>
					<g>
						<path style="fill:#EFC392;stroke:#994900;stroke-linecap:round;stroke-linejoin:round;stroke-miterlimit:10;" d="
							M137.079,208.343c-0.006-0.008-0.006-0.008-0.006-0.008c-4.823-2.905-0.828-5.859-0.114-6.463
							c0.723-0.61,0.053-1.066,0.053-1.066c-3.921-2.841-1.553-6.227-0.712-6.975c0.852-0.782,0.034-1.294,0.034-1.294
							c-2.281-1.297-2.385-5.043,0.006-6.983c0.759-0.613,0.318-1.468,0.318-1.468c-1.496-1.668-1.409-4.418-1.409-4.418
							c0.301-2.466,1.55-4.203,4.062-4.895c2.491-0.676-0.742-0.047-0.77-0.039c-2.557,0.707-3.824,2.418-4.125,4.856
							c0,0-0.079,2.75,1.474,4.424c0,0,0.461,0.858-0.326,1.468c-2.464,1.932-2.343,5.678,0.017,6.983c0,0,0.852,0.518-0.025,1.294
							c-0.869,0.748-3.31,4.126,0.759,6.983c0,0,0.692,0.456-0.053,1.063c-0.74,0.605-4.83,3.547,0.173,6.469c0,0,0,0,0.003,0.008
							C136.544,208.32,137.171,208.376,137.079,208.343z"/>
						<path style="fill:#C4884D;" d="M156.768,205.229c0.004-0.031,0-0.06,0.003-0.091
							C156.769,205.168,156.772,205.198,156.768,205.229z"/>
					</g>
					<path style="fill:#EFC392;stroke:#994900;stroke-linecap:round;stroke-linejoin:round;stroke-miterlimit:10;" d="
						M155.312,184.119c0,0-4.692,1.173-18.527,0.475L155.312,184.119z"/>
					<path style="fill:#EFC392;stroke:#994900;stroke-linecap:round;stroke-linejoin:round;stroke-miterlimit:10;" d="
						M136.678,193.04c0,0,10.888,0.692,18.246-0.526L136.678,193.04z"/>
					<path style="fill:#EFC392;stroke:#994900;stroke-linecap:round;stroke-linejoin:round;stroke-miterlimit:10;" d="
						M137.294,201.292l16.535-0.658C153.83,200.634,145.912,201.82,137.294,201.292z"/>
					<path style="fill:#EFC392;stroke:#994900;stroke-linecap:round;stroke-linejoin:round;stroke-miterlimit:10;" d="
						M135.933,193.22c0,0-3.206,1.412-9.79,0.638C126.143,193.858,134.04,193.437,135.933,193.22z"/>
				</g>
			</g>
		</g>
	</g>
</g>
</svg>
