<?xml version="1.0" encoding="utf-8"?>
<!-- Generator: Adobe Illustrator 21.0.0, SVG Export Plug-In . SVG Version: 6.00 Build 0)  -->
<svg version="1.1" id="Capa_1" xmlns="http://www.w3.org/2000/svg" xmlns:xlink="http://www.w3.org/1999/xlink" x="0px" y="0px"
	 viewBox="0 0 184.499 263.75" style="enable-background:new 0 0 184.499 263.75;" xml:space="preserve">
<g>
	<defs>
		<filter id="Adobe_OpacityMaskFilter" filterUnits="userSpaceOnUse" x="38.982" y="236.703" width="104.605" height="27.047">
			<feFlood  style="flood-color:white;flood-opacity:1" result="back"/>
			<feBlend  in="SourceGraphic" in2="back" mode="normal"/>
		</filter>
	</defs>
	<mask maskUnits="userSpaceOnUse" x="38.982" y="236.703" width="104.605" height="27.047" id="XMLID_2_">
	</mask>
	
		<ellipse id="XMLID_30_" transform="matrix(1 -0.0098 0.0098 1 -2.4405 0.9039)" style="opacity:0.2;mask:url(#XMLID_2_);" cx="91.285" cy="250.227" rx="52.305" ry="13.514"/>
	<g>
		<g>
			<g>
				<path style="fill:#A86F3B;stroke:#35120C;stroke-linecap:round;stroke-linejoin:round;stroke-miterlimit:10;" d="
					M179.536,71.876c0.182-0.734,0.242-1.557,0.073-2.316l-0.001-0.015c-0.009-0.033-0.026-0.061-0.036-0.094
					c-0.001-0.004-0.001-0.009-0.002-0.013l-0.003-0.016c-0.072-0.323-0.189-0.635-0.353-0.919
					c-0.088-0.171-0.207-0.331-0.337-0.479c-1.129-1.275-3.072-1.409-4.444-0.514c-0.089,0.08-0.171,0.182-0.256,0.277
					c-0.032-1.991-1.639-3.289-3.335-3.508c-0.793-0.143-1.618-0.055-2.32,0.312c-0.351,0.255-0.666,0.614-0.951,1.038
					c-0.037-0.505-0.071-0.63-0.358-1.123c-0.575-0.981-1.985-1.285-1.985-1.285c-0.514-0.152-1.541-0.29-1.901-0.168
					c-0.623,0.202-1.08,0.389-1.465,0.767c-1.815,1.763-3.017,6.676-2.696,8.918c-1.169,0.564-2.384,1.759-3.122,3.696
					c-1.152,3.021-1.265,4.944-0.747,7.743c0.78,2.073,1.255,2.483,2.297,3.662c1.988,1.874,4.266,2.061,5.995,1.774
					c2.734,3.766,8.303,3.958,12.676,0.472c3.368-2.688,3.969-7.274,5.794-11.371c0.265-0.355,0.505-0.701,0.696-1.008
					c0.178-0.374,0.361-0.744,0.558-1.117c0.475-1.054,0.661-2.059,0.557-3.016c-0.044-0.197-0.1-0.382-0.172-0.567
					c-0.037-0.075-0.078-0.149-0.119-0.22c-0.744-1.176-2.328-1.649-3.583-1.238c-0.06,0.013-0.119,0.039-0.177,0.061
					L179.536,71.876z"/>
				<g id="XMLID_228_">
					
						<path id="XMLID_248_" style="fill:#994900;stroke:#35120C;stroke-linecap:round;stroke-linejoin:round;stroke-miterlimit:10;" d="
						M159.94,78.407c0,0,0.545,0.1,1.358,0.159c0.812,0.054,1.907,0.086,2.957-0.122c0.263-0.042,0.524-0.103,0.778-0.173
						c0.259-0.057,0.493-0.172,0.73-0.25c0.229-0.104,0.448-0.207,0.654-0.302c0.199-0.118,0.384-0.232,0.556-0.332
						c0.321-0.255,0.619-0.439,0.774-0.612c0.177-0.164,0.278-0.256,0.278-0.256s-0.081,0.11-0.226,0.304
						c-0.141,0.204-0.389,0.442-0.689,0.723c-0.336,0.266-0.73,0.556-1.214,0.776c-0.246,0.094-0.492,0.217-0.762,0.285
						c-0.262,0.087-0.537,0.156-0.811,0.209c-0.553,0.092-1.115,0.127-1.637,0.113c-0.523-0.006-1.006-0.085-1.415-0.153
						C160.453,78.621,159.94,78.407,159.94,78.407z"/>
				</g>
				<path style="fill:#994900;stroke:#35120C;stroke-linecap:round;stroke-linejoin:round;stroke-miterlimit:10;" d="
					M166.919,67.975c-0.085,0.295-0.177,0.589-0.252,0.886c-0.126,0.5-0.226,1.007-0.33,1.512c-0.103,0.502-0.171,1.012-0.219,1.519
					l-0.006,0.06c0.162,0.054,0.326,0.101,0.478,0.173c0.202,0.106,0.405,0.193,0.588,0.325c0.188,0.114,0.357,0.265,0.517,0.415
					c0.158,0.155,0.303,0.324,0.419,0.514c0.175,0.227,0.335,0.47,0.419,0.753c0.06,0.128,0.087,0.273,0.107,0.418
					c0.031,0.141,0.046,0.283,0.027,0.427c-0.018,0.144,0.009,0.297-0.039,0.433l-0.12,0.421c-0.026,0.151-0.13,0.26-0.192,0.394
					l-0.147,0.255c0.19,0.031,0.376,0.082,0.569,0.042c0.113-0.011,0.228-0.017,0.339-0.033l0.327-0.111
					c0.227-0.042,0.41-0.202,0.612-0.306c0.184-0.093,0.384-0.291,0.551-0.436c0.225-0.23,0.442-0.489,0.646-0.757
					c0.048-0.117,0.095-0.233,0.117-0.331l0.01-0.051l0.018-0.027c0.3-0.485,0.573-0.991,0.816-1.51
					c0.237-0.52,0.471-1.048,0.681-1.583c0.207-0.538,0.41-1.079,0.588-1.63l0.27-0.825c0.336,0.251-0.207,1.805-0.207,1.805
					c-0.165,0.455-0.306,0.919-0.499,1.369c-0.192,0.446-0.339,0.926-0.577,1.345l-0.337,0.649c-0.12,0.212-0.209,0.423-0.365,0.642
					c-0.038,0.057-0.082,0.111-0.121,0.168c-0.081,0.221-0.172,0.42-0.264,0.626l-0.187,0.419c-0.068,0.15-0.076,0.204-0.074,0.392
					c-0.008,0.319,0.029,0.6,0.076,0.906c0.064,0.295,0.133,0.592,0.272,0.866c0.242,0.547,0.711,1.012,1.306,1.176
					c0.147,0.052,0.3,0.068,0.455,0.075c0.154,0.023,0.309-0.007,0.461-0.013c0.313-0.04,0.61-0.124,0.906-0.229
					c0.413-0.226,0.742-0.564,1.083-0.888c0.329-0.325,0.649-0.662,0.952-1.009c0.06-0.153,0.129-0.306,0.175-0.458l0.016-0.053
					l0.028-0.024c0.343-0.372,0.613-0.759,0.894-1.17c0.103-0.154,0.19-0.32,0.288-0.477c0.035-0.068,0.076-0.133,0.11-0.201
					c0.422-0.838,0.782-1.699,1.126-2.57c0,0-0.136,2.214-1.188,3.47c-0.279,0.408-0.589,0.829-0.923,1.187
					c-0.201,0.602-0.458,1.133-0.713,1.668c-0.056,0.131-0.139,0.279-0.173,0.403c-0.051,0.153-0.082,0.297-0.091,0.428
					c-0.016,0.27-0.001,0.571,0.107,0.848c0.185,0.551,0.617,1.034,1.169,1.281c0.274,0.131,0.58,0.187,0.885,0.176
					c0.305,0.003,0.601-0.096,0.89-0.203c0.39-0.206,0.723-0.495,1.044-0.795c0.325-0.301,0.611-0.637,0.89-0.977
					c0.561-0.681,1.056-1.413,1.513-2.154l-0.008,0.017c0.161-0.33,0.312-0.661,0.474-0.986c0.051-0.09,0.082-0.142,0.115-0.235
					l0.107-0.246c0.064-0.167,0.128-0.328,0.181-0.495c0.221-0.663,0.331-1.358,0.29-2.058c0.061,0.072,0.126,0.138,0.183,0.217
					c0.052,0.647,0.003,1.305-0.175,1.928c-0.049,0.182-0.117,0.359-0.178,0.531l-0.103,0.256c-0.029,0.081-0.08,0.188-0.117,0.258
					c-0.157,0.325-0.333,0.64-0.498,0.96l-0.005,0.009l-0.003,0.006c-0.482,0.758-1.061,1.436-1.665,2.087
					c-0.301,0.327-0.625,0.631-0.949,0.934c-0.329,0.296-0.681,0.581-1.082,0.776c-0.284,0.118-0.585,0.23-0.903,0.235
					c-0.312,0.027-0.628-0.035-0.924-0.145c-0.593-0.215-1.094-0.695-1.356-1.288c-0.068-0.153-0.114-0.307-0.15-0.468
					c-0.028-0.162-0.051-0.324-0.035-0.499c0.003-0.179,0.036-0.336,0.074-0.483c0.047-0.177,0.114-0.304,0.17-0.457
					c0.142-0.348,0.295-0.692,0.437-1.033c-0.273,0.289-0.547,0.578-0.834,0.853c-0.346,0.319-0.691,0.662-1.11,0.88
					c-0.295,0.114-0.597,0.211-0.912,0.26c-0.159,0.006-0.316,0.043-0.475,0.024c-0.16-0.001-0.318-0.021-0.474-0.06
					c-0.635-0.129-1.176-0.597-1.48-1.167c-0.325-0.564-0.469-1.223-0.486-1.866c-0.021-0.116,0.006-0.333,0.06-0.477
					c-0.009,0.008-0.015,0.018-0.024,0.026c-0.199,0.161-0.352,0.311-0.6,0.441c-0.226,0.112-0.433,0.272-0.69,0.319l-0.367,0.097
					c-0.128,0.012-0.26,0.008-0.385,0.01c-0.258,0.029-0.505-0.08-0.747-0.122l-0.129-0.021l0.083-0.124l0.23-0.347
					c0.065-0.122,0.178-0.224,0.21-0.362l0.142-0.394c0.053-0.129,0.041-0.277,0.062-0.412c0.021-0.142,0.006-0.28-0.019-0.421
					c-0.016-0.138-0.041-0.28-0.094-0.408c-0.078-0.276-0.228-0.522-0.396-0.747c-0.117-0.181-0.265-0.349-0.428-0.495
					c-0.161-0.144-0.332-0.287-0.519-0.396c-0.181-0.124-0.385-0.209-0.585-0.293c-0.18-0.07-0.37-0.11-0.554-0.16l-0.086-0.015
					c-0.271-0.049-0.543-0.109-0.824-0.112c-0.277-0.031-0.556-0.002-0.83,0.007c-0.279,0.019-0.566,0.084-0.849,0.113l-0.839,0.161
					c-0.565,0.107-1.129,0.219-1.697,0.303c-0.554,0.087-1.105,0.188-1.668,0.231l0.038-0.047c0.536-0.083,1.068-0.219,1.603-0.337
					l1.675-0.376l0.843-0.201l0.426-0.079c0.142-0.02,0.275-0.061,0.426-0.063c0.295-0.021,0.595-0.059,0.887-0.03
					c0.296-0.001,0.678,0.254,0.678,0.254c0.049-0.556,0.144-1.102,0.264-1.642c0.05-0.332,0.096-0.664,0.16-0.998l0.339-1.342
					l0.502-1.297l0.004-0.01C167.051,66.578,167.273,66.983,166.919,67.975z"/>
			</g>
			<g>
				<path style="fill:#FEED00;" d="M117.275,125.08c0,0,26.224-8.777,36.544-35.884l14.383,7.692c0,0-16.576,32.158-52.716,40.041
					L117.275,125.08z"/>
				
					<rect x="159.728" y="82.745" transform="matrix(0.4716 -0.8818 0.8818 0.4716 5.5301 191.0294)" style="fill:#39B54A;" width="4.855" height="16.311"/>
			</g>
			<g>
				<g>
					<path style="fill:#A86F3B;stroke:#35120C;stroke-linecap:round;stroke-linejoin:round;stroke-miterlimit:10;" d="M4.683,71.451
						c-0.058-0.022-0.117-0.047-0.177-0.061c-1.255-0.411-2.839,0.063-3.583,1.238c-0.041,0.071-0.082,0.145-0.119,0.22
						c-0.071,0.185-0.127,0.37-0.172,0.567c-0.104,0.957,0.082,1.962,0.557,3.016c0.197,0.373,0.38,0.743,0.558,1.117
						c0.19,0.307,0.431,0.653,0.696,1.008c1.826,4.097,2.426,8.683,5.794,11.371c4.373,3.487,9.942,3.295,12.676-0.472
						c1.729,0.287,4.007,0.1,5.995-1.774c1.042-1.179,1.517-1.589,2.297-3.662c0.518-2.799,0.405-4.722-0.747-7.743
						c-0.738-1.937-1.953-3.132-3.122-3.696c0.32-2.242-0.881-7.154-2.696-8.918c-0.384-0.378-0.842-0.565-1.465-0.767
						c-0.361-0.122-1.387,0.017-1.901,0.168c0,0-1.41,0.304-1.985,1.285c-0.287,0.493-0.322,0.617-0.358,1.123
						c-0.284-0.424-0.6-0.783-0.951-1.038c-0.703-0.368-1.527-0.456-2.32-0.312c-1.697,0.22-3.303,1.517-3.335,3.508
						c-0.085-0.094-0.168-0.197-0.256-0.277c-1.372-0.895-3.315-0.761-4.444,0.514c-0.129,0.148-0.249,0.309-0.337,0.479
						c-0.165,0.284-0.281,0.596-0.353,0.919L4.93,69.282c-0.001,0.004-0.001,0.009-0.002,0.013c-0.01,0.032-0.027,0.061-0.036,0.094
						l-0.001,0.015c-0.169,0.759-0.109,1.582,0.073,2.316L4.683,71.451z"/>
					<g id="XMLID_858_">
						
							<path id="XMLID_859_" style="fill:#994900;stroke:#35120C;stroke-linecap:round;stroke-linejoin:round;stroke-miterlimit:10;" d="
							M24.559,78.251c0,0-0.545,0.1-1.358,0.159c-0.812,0.054-1.907,0.086-2.957-0.122c-0.263-0.042-0.524-0.103-0.778-0.173
							c-0.259-0.057-0.493-0.172-0.73-0.25c-0.229-0.104-0.448-0.207-0.654-0.302c-0.199-0.118-0.384-0.232-0.556-0.332
							c-0.321-0.255-0.619-0.439-0.774-0.612c-0.177-0.164-0.278-0.256-0.278-0.256s0.081,0.11,0.226,0.304
							c0.141,0.204,0.389,0.442,0.689,0.723c0.336,0.266,0.73,0.556,1.214,0.776c0.246,0.094,0.492,0.217,0.762,0.285
							c0.262,0.087,0.537,0.156,0.811,0.209c0.553,0.092,1.115,0.127,1.637,0.113c0.523-0.006,1.006-0.085,1.415-0.153
							C24.047,78.465,24.559,78.251,24.559,78.251z"/>
					</g>
					<path style="fill:#994900;stroke:#35120C;stroke-linecap:round;stroke-linejoin:round;stroke-miterlimit:10;" d="
						M17.581,67.819c0.085,0.295,0.177,0.589,0.252,0.886c0.126,0.5,0.226,1.007,0.33,1.512c0.103,0.502,0.171,1.012,0.219,1.519
						l0.006,0.06c-0.162,0.054-0.326,0.101-0.478,0.173c-0.202,0.106-0.405,0.193-0.588,0.325c-0.188,0.114-0.357,0.265-0.517,0.415
						c-0.158,0.155-0.303,0.325-0.419,0.514c-0.175,0.227-0.335,0.47-0.419,0.753c-0.06,0.128-0.087,0.273-0.107,0.418
						c-0.031,0.141-0.046,0.283-0.027,0.427c0.018,0.144-0.009,0.297,0.039,0.433l0.12,0.421c0.026,0.151,0.13,0.26,0.192,0.394
						l0.147,0.255c-0.19,0.031-0.376,0.082-0.569,0.042c-0.113-0.011-0.228-0.017-0.339-0.033l-0.327-0.111
						c-0.227-0.042-0.41-0.202-0.612-0.306c-0.184-0.093-0.384-0.291-0.551-0.436c-0.225-0.23-0.442-0.489-0.646-0.757
						c-0.048-0.117-0.095-0.233-0.117-0.331l-0.01-0.051l-0.018-0.027c-0.3-0.485-0.573-0.991-0.816-1.51
						c-0.237-0.52-0.471-1.048-0.681-1.583c-0.207-0.538-0.41-1.079-0.588-1.63l-0.27-0.825c-0.336,0.251,0.207,1.805,0.207,1.805
						c0.165,0.455,0.306,0.919,0.499,1.369c0.192,0.446,0.339,0.926,0.577,1.345l0.337,0.649c0.12,0.212,0.209,0.423,0.365,0.642
						c0.038,0.057,0.082,0.111,0.121,0.168c0.081,0.221,0.172,0.42,0.264,0.626l0.187,0.419c0.068,0.15,0.076,0.204,0.074,0.392
						c0.008,0.319-0.029,0.6-0.076,0.906c-0.064,0.295-0.133,0.592-0.272,0.866c-0.242,0.547-0.711,1.012-1.306,1.176
						c-0.147,0.052-0.3,0.068-0.455,0.075c-0.154,0.023-0.309-0.007-0.461-0.013c-0.313-0.04-0.61-0.124-0.906-0.229
						c-0.413-0.226-0.742-0.564-1.083-0.888c-0.329-0.325-0.649-0.662-0.952-1.009c-0.06-0.153-0.129-0.306-0.175-0.458
						l-0.016-0.053l-0.028-0.024c-0.343-0.372-0.613-0.759-0.894-1.17c-0.103-0.154-0.19-0.32-0.288-0.477
						c-0.035-0.068-0.076-0.133-0.11-0.201c-0.422-0.838-0.782-1.699-1.126-2.57c0,0,0.136,2.214,1.188,3.47
						c0.279,0.408,0.589,0.829,0.923,1.187c0.201,0.602,0.458,1.133,0.713,1.668c0.056,0.131,0.139,0.279,0.173,0.403
						c0.051,0.153,0.082,0.297,0.091,0.428c0.016,0.27,0.001,0.571-0.107,0.848c-0.185,0.551-0.616,1.034-1.169,1.281
						c-0.274,0.131-0.58,0.187-0.885,0.176c-0.305,0.003-0.601-0.096-0.89-0.203c-0.39-0.206-0.723-0.495-1.044-0.795
						c-0.325-0.301-0.611-0.637-0.89-0.977c-0.561-0.681-1.056-1.413-1.513-2.154l0.008,0.017c-0.161-0.33-0.312-0.661-0.474-0.986
						c-0.051-0.09-0.082-0.142-0.115-0.235l-0.107-0.246c-0.064-0.167-0.128-0.328-0.181-0.495c-0.221-0.663-0.331-1.358-0.29-2.058
						c-0.061,0.072-0.126,0.138-0.183,0.217c-0.052,0.647-0.003,1.305,0.175,1.928c0.049,0.182,0.117,0.359,0.178,0.531l0.103,0.256
						c0.029,0.081,0.08,0.188,0.117,0.258c0.157,0.325,0.333,0.64,0.498,0.96l0.005,0.009L1.6,77.603
						c0.482,0.758,1.061,1.436,1.665,2.087c0.301,0.327,0.625,0.631,0.949,0.934c0.329,0.296,0.681,0.581,1.082,0.776
						c0.284,0.118,0.585,0.23,0.903,0.235c0.312,0.027,0.628-0.035,0.924-0.145c0.593-0.215,1.094-0.695,1.356-1.288
						c0.068-0.153,0.114-0.307,0.15-0.468c0.028-0.162,0.051-0.324,0.035-0.499c-0.003-0.179-0.036-0.336-0.074-0.483
						c-0.047-0.177-0.114-0.304-0.17-0.457c-0.142-0.348-0.295-0.692-0.437-1.033c0.273,0.289,0.547,0.578,0.834,0.853
						c0.345,0.319,0.691,0.662,1.11,0.88c0.295,0.114,0.597,0.211,0.912,0.26c0.159,0.006,0.316,0.043,0.475,0.024
						c0.16-0.001,0.318-0.021,0.474-0.06c0.635-0.129,1.176-0.597,1.48-1.167c0.325-0.564,0.469-1.223,0.486-1.866
						c0.021-0.116-0.006-0.333-0.06-0.477c0.009,0.008,0.015,0.018,0.024,0.026c0.199,0.161,0.352,0.311,0.6,0.441
						c0.226,0.112,0.433,0.272,0.69,0.319l0.367,0.097c0.128,0.012,0.26,0.008,0.385,0.01c0.258,0.029,0.505-0.08,0.747-0.122
						l0.129-0.021l-0.083-0.124l-0.23-0.347c-0.065-0.122-0.178-0.224-0.21-0.362l-0.142-0.394
						c-0.053-0.129-0.041-0.277-0.062-0.412c-0.021-0.142-0.006-0.28,0.019-0.421c0.016-0.138,0.041-0.28,0.094-0.408
						c0.078-0.276,0.228-0.522,0.396-0.747c0.117-0.181,0.265-0.349,0.428-0.495c0.161-0.144,0.332-0.287,0.519-0.396
						c0.181-0.124,0.385-0.209,0.585-0.293c0.18-0.07,0.37-0.11,0.554-0.16l0.086-0.015c0.271-0.049,0.543-0.109,0.824-0.112
						c0.277-0.031,0.556-0.002,0.83,0.007c0.279,0.019,0.566,0.084,0.849,0.113l0.839,0.161c0.565,0.107,1.129,0.219,1.697,0.303
						c0.554,0.087,1.105,0.188,1.668,0.231l-0.038-0.047c-0.536-0.083-1.068-0.219-1.603-0.337l-1.675-0.376l-0.843-0.201
						l-0.426-0.079c-0.142-0.02-0.275-0.061-0.426-0.063c-0.295-0.021-0.595-0.059-0.887-0.03c-0.296-0.001-0.678,0.254-0.678,0.254
						c-0.049-0.556-0.144-1.102-0.264-1.642c-0.05-0.332-0.097-0.664-0.16-0.998l-0.339-1.342l-0.502-1.297l-0.004-0.01
						C17.448,66.422,17.227,66.827,17.581,67.819z"/>
				</g>
				<path style="fill:#FEED00;" d="M66.842,124.924c0,0-26.224-8.777-36.544-35.884l-14.383,7.692c0,0,16.576,32.158,52.716,40.041
					L66.842,124.924z"/>
				
					<rect x="13.806" y="88.317" transform="matrix(0.8818 -0.4716 0.4716 0.8818 -40.1965 21.0793)" style="fill:#39B54A;" width="16.311" height="4.855"/>
			</g>
			<g>
				<rect x="72.261" y="176.485" width="39.72" height="4.038"/>
				<path style="fill:#A7A9AC;" d="M94.238,181.171h-4.275c-1.704,0-3.091-1.195-3.091-2.665c0-1.472,1.386-2.67,3.091-2.67h4.275
					c1.704,0,3.089,1.198,3.089,2.67C97.327,179.976,95.942,181.171,94.238,181.171z M89.963,177.133
					c-0.989,0-1.794,0.616-1.794,1.374c0,0.755,0.805,1.368,1.794,1.368h4.275c0.988,0,1.793-0.613,1.793-1.368
					c0-0.758-0.804-1.374-1.793-1.374H89.963z"/>
			</g>
			<g>
				<path style="fill:#39B54A;" d="M92.122,188.434c13.62,18.62,6.252,59.677,6.252,59.677c8.87-6.33,21.013-3.92,21.013-3.92
					c-12.21-31.413-7.446-63.668-7.446-63.668h-39.68c0,0,4.806,32.254-7.402,63.668c0,0,12.144-2.41,21.013,3.92
					c0,0-7.413-41.057,6.204-59.677"/>
				<path d="M124.694,249.568c0,3.352-3.208,3.555-11.661,3.555c-8.455,0-14.943-0.202-14.943-3.555
					c0-3.349,6.851-6.063,15.303-6.063C121.846,243.504,124.694,246.218,124.694,249.568z"/>
				<path d="M59.893,249.568c0,3.352,3.206,3.555,11.663,3.555c8.451,0,14.942-0.202,14.942-3.555c0-3.349-6.853-6.063-15.309-6.063
					C62.739,243.504,59.893,246.218,59.893,249.568z"/>
			</g>
			<g>
				<path style="fill:#FEED00;" d="M66.842,124.924l18.742-4.341h6.792v67.204c0,0-10.215-0.869-14.164-2.735
					c-1.807-0.856-6.324-4.681-6.324-4.681l-3.04-31.764L66.842,124.924z"/>
				<path style="fill:#FEED00;" d="M117.303,125.022l-18.137-4.44h-6.79v67.204c0,0,10.092-0.209,14.04-2.077
					c1.809-0.854,6.447-5.339,6.447-5.339l3.039-31.764L117.303,125.022z"/>
				<path style="fill:#FFFFFF;" d="M110.278,130.833c0.758-0.237,1.304-0.869,1.304-1.619c0-0.885-0.759-1.606-1.732-1.704
					c0-0.002,0.001-0.02,0.001-0.02h-0.241c0.145-0.285,0.241-0.575,0.241-0.873c0-3.05-7.897-5.522-17.639-5.522
					c-9.742,0-17.639,2.472-17.639,5.522c0,0.298,0.096,0.588,0.241,0.873h-0.241c-1.079,0-1.954,0.772-1.954,1.724
					c0,0.75,0.546,1.382,1.304,1.619c-0.471,0.315-0.779,0.809-0.779,1.37c0,0.927,0.832,1.678,1.872,1.716
					c-0.646,0.281-1.094,0.862-1.094,1.541c0,0.812,0.639,1.489,1.496,1.671c-0.51,0.311-0.846,0.83-0.846,1.418
					c0,0.747,0.541,1.377,1.294,1.616c0.005,0.033,0.011,0.067,0.016,0.099c-0.474,0.315-0.786,0.81-0.786,1.374
					c0,0.748,0.543,1.379,1.298,1.617c0.007,0.039,0.014,0.077,0.021,0.115c-0.333,0.309-0.541,0.725-0.541,1.186
					c0,0.676,0.446,1.256,1.088,1.538c0.007,0.03,0.014,0.061,0.02,0.091c-0.451,0.316-0.746,0.798-0.746,1.346
					c0,0.799,0.619,1.465,1.455,1.66c0.007,0.029,0.014,0.058,0.021,0.087c-0.404,0.316-0.664,0.772-0.664,1.286
					c0,0.787,0.601,1.443,1.418,1.65c-0.391,0.315-0.64,0.764-0.64,1.268c0,0.857,0.711,1.562,1.639,1.696
					c-0.285,0.3-0.464,0.681-0.464,1.103c0,0.82,0.65,1.502,1.519,1.677c-0.235,0.285-0.378,0.632-0.378,1.012
					c0,0.914,0.808,1.654,1.827,1.713c-0.146,0.241-0.236,0.512-0.236,0.805c0,0.848,0.695,1.549,1.609,1.693
					c-0.153,0.246-0.248,0.524-0.248,0.824c0,0.952,0.875,1.724,1.954,1.724c0.219,0,0.426-0.039,0.622-0.098
					c0.015,0.014,0.031,0.026,0.046,0.04c-0.045,0.145-0.076,0.294-0.076,0.451c0,0.952,0.875,1.724,1.954,1.724
					c0.313,0,0.605-0.071,0.867-0.187c0.04,0.021,0.082,0.04,0.122,0.061c0.123,0.847,0.935,1.504,1.929,1.504
					c0.522,0,0.992-0.183,1.343-0.477c0.12,0.016,0.233,0.049,0.354,0.06c0.06-0.006,0.115-0.023,0.174-0.03
					c0.346,0.274,0.799,0.446,1.301,0.446c0.948,0,1.738-0.596,1.915-1.387c0.084-0.041,0.167-0.082,0.25-0.125
					c0.232,0.085,0.486,0.133,0.753,0.133c1.079,0,1.954-0.772,1.954-1.724c0-0.101-0.015-0.2-0.034-0.296
					c0.056-0.052,0.116-0.096,0.171-0.149c0.147,0.031,0.297,0.052,0.455,0.052c1.079,0,1.954-0.772,1.954-1.724
					c0-0.3-0.095-0.578-0.248-0.824c0.914-0.144,1.609-0.845,1.609-1.693c0-0.228-0.053-0.445-0.144-0.645
					c0.033-0.059,0.068-0.118,0.101-0.177c0.926-0.135,1.635-0.84,1.635-1.695c0-0.349-0.119-0.672-0.321-0.944
					c0.014-0.031,0.028-0.064,0.041-0.095c0.818-0.206,1.42-0.863,1.42-1.65c0-0.365-0.13-0.702-0.35-0.981
					c0.019-0.052,0.04-0.102,0.059-0.154c0.841-0.192,1.466-0.86,1.466-1.663c0-0.452-0.202-0.861-0.525-1.168
					c0.015-0.048,0.029-0.096,0.044-0.144c0.735-0.248,1.259-0.871,1.259-1.606c0-0.432-0.186-0.822-0.484-1.124
					c0.027-0.104,0.051-0.208,0.077-0.313c0.715-0.256,1.22-0.873,1.22-1.596c0-0.469-0.214-0.893-0.558-1.204
					c0.026-0.119,0.054-0.238,0.08-0.357c0.507-0.311,0.841-0.828,0.841-1.414c0-0.368-0.133-0.708-0.356-0.988
					c0.026-0.136,0.049-0.269,0.073-0.405c0.628-0.287,1.061-0.858,1.061-1.525c0-0.483-0.226-0.918-0.589-1.231
					c0.018-0.111,0.036-0.224,0.053-0.334c0.627-0.287,1.06-0.858,1.06-1.525c0-0.513-0.259-0.968-0.662-1.284
					c0.008-0.063,0.017-0.129,0.026-0.191c0.749-0.241,1.287-0.87,1.287-1.614c0-0.619-0.373-1.157-0.928-1.461
					c0.003-0.031,0.007-0.064,0.01-0.095c0.956-0.112,1.696-0.827,1.696-1.701C111.057,131.642,110.748,131.148,110.278,130.833z"/>
				<path style="fill:#FF0000;" d="M93.465,166.415c-0.338-0.154-0.705-0.235-1.08-0.235c-0.038,0-0.076,0.001-0.114,0.003
					c-0.029-0.005-0.058-0.009-0.089-0.013c-0.109-0.014-0.218-0.02-0.326-0.02c-0.363,0-0.721,0.076-1.051,0.222
					c-0.25-0.412-0.614-0.754-1.058-0.976c-0.397-0.198-0.873-0.31-1.339-0.31c-0.053,0-0.105,0.001-0.157,0.005
					c-0.115-0.504-0.381-0.972-0.777-1.335c-0.421-0.387-0.969-0.633-1.534-0.699c-0.016-0.329-0.094-0.655-0.235-0.962
					c-0.241-0.525-0.647-0.947-1.143-1.21c0.037-0.481-0.06-0.972-0.292-1.412c-0.264-0.502-0.681-0.896-1.178-1.133
					c0.061-0.412,0.023-0.84-0.121-1.246c-0.187-0.529-0.537-0.974-0.986-1.282c0.122-0.482,0.104-0.999-0.065-1.486
					c-0.187-0.535-0.537-0.983-0.987-1.292c0.143-0.435,0.174-0.909,0.072-1.374c-0.126-0.574-0.438-1.076-0.872-1.439
					c0.184-0.475,0.23-1.002,0.112-1.519c-0.006-0.027-0.034-0.14-0.041-0.166c-0.138-0.527-0.434-0.986-0.835-1.326
					c0.206-0.48,0.266-1.021,0.156-1.554c-0.102-0.489-0.348-0.963-0.693-1.337c0.167-0.426,0.221-0.895,0.146-1.36
					c-0.003-0.011-0.022-0.122-0.023-0.132c-0.095-0.546-0.36-1.04-0.742-1.419c0.231-0.472,0.318-1.013,0.232-1.553
					c-0.088-0.553-0.355-1.082-0.742-1.491c0.269-0.5,0.373-1.084,0.274-1.667c-0.094-0.554-0.362-1.048-0.747-1.425
					c0.327-0.535,0.459-1.186,0.335-1.837c-0.141-0.74-0.587-1.359-1.197-1.732c0.138-0.39,0.184-0.813,0.123-1.24
					c-0.041-0.283-0.127-0.553-0.253-0.801c0.313-0.207,0.582-0.481,0.785-0.811c0.397-0.647,0.489-1.429,0.265-2.141
					c1.128-1.042,6.202-3.016,14.919-3.016c8.723,0,13.799,1.978,14.922,3.019c-0.216,0.708-0.127,1.487,0.266,2.127
					c0.167,0.273,0.379,0.509,0.624,0.699c-0.161,0.28-0.272,0.593-0.318,0.924c-0.066,0.456-0.009,0.91,0.154,1.321
					c-0.58,0.411-0.983,1.054-1.076,1.798c-0.005,0.036-0.019,0.165-0.022,0.2c-0.044,0.538,0.079,1.063,0.338,1.512
					c-0.372,0.396-0.618,0.905-0.686,1.464l-0.025,0.198c-0.06,0.49,0.023,0.976,0.225,1.407c-0.316,0.362-0.53,0.81-0.609,1.298
					l-0.053,0.334c-0.079,0.487-0.015,0.978,0.17,1.42c-0.325,0.358-0.549,0.804-0.636,1.294l-0.069,0.382
					c-0.077,0.412-0.052,0.832,0.066,1.226c-0.263,0.318-0.449,0.697-0.537,1.108l-0.076,0.338c-0.11,0.497-0.071,1.006,0.099,1.468
					c-0.355,0.334-0.617,0.765-0.741,1.252l-0.047,0.189c-0.124,0.485-0.113,1.024,0.028,1.519c-0.383,0.326-0.669,0.76-0.812,1.257
					c-0.162,0.514-0.166,1.079-0.02,1.598c-0.395,0.288-0.707,0.686-0.889,1.155l-0.079,0.206c-0.165,0.452-0.199,0.931-0.11,1.389
					c-0.39,0.269-0.703,0.645-0.9,1.089c-0.202,0.462-0.275,0.99-0.212,1.496c-0.419,0.227-0.773,0.567-1.016,0.991l-0.122,0.214
					c-0.216,0.39-0.325,0.822-0.325,1.256c-0.537,0.26-0.976,0.702-1.231,1.257c-0.146,0.321-0.223,0.664-0.233,1.006
					c-0.501,0.08-0.964,0.317-1.356,0.692l-0.148,0.128c-0.354,0.329-0.603,0.744-0.73,1.194c-0.057-0.004-0.114-0.005-0.171-0.005
					c-0.4,0-0.797,0.093-1.162,0.274C94.232,165.6,93.781,165.973,93.465,166.415z"/>
				<g>
					<g>
						<g>
							<path style="fill:#175DD7;" d="M87.525,177.54c-7.153-4.205-12.428-18.702-12.428-35.947c0-6.998,0.87-13.542,2.38-19.132
								l-10.635,2.463l2.006,23.683l3.04,31.764c0,0,4.517,3.825,6.324,4.681c2.14,1.011,6.115,1.728,9.312,2.174V177.54z"/>
						</g>
						<g>
							<path style="fill:#175DD7;" d="M106.074,122.274c1.541,5.63,2.43,12.244,2.43,19.319c0,16.758-4.981,30.923-11.828,35.567
								v10.396c3.237-0.255,7.487-0.78,9.74-1.846c1.809-0.854,6.447-5.339,6.447-5.339l3.039-31.764l1.401-23.584L106.074,122.274z
								"/>
						</g>
					</g>
				</g>
			</g>
			<g>
				<g>
					<path style="fill:#A86F3B;stroke:#35120C;stroke-linecap:round;stroke-linejoin:round;stroke-miterlimit:10;" d="
						M57.405,76.019c0,0-2.68-8.206-7.574-8.206c-4.891,0-2.525,15.934,10.257,24.141L57.405,76.019z"/>
					<path style="fill:#A86F3B;stroke:#35120C;stroke-linecap:round;stroke-linejoin:round;stroke-miterlimit:10;" d="
						M127.223,76.019c0,0,2.679-8.206,7.573-8.206c4.893,0,2.521,15.934-10.259,24.141L127.223,76.019z"/>
					<path style="fill:#A86F3B;stroke:#35120C;stroke-linecap:round;stroke-linejoin:round;stroke-miterlimit:10;" d="
						M92.376,18.461c0,0,24.138,0,26.891,0c2.753,0,9.574,4.347,10.282,26.237c1.395,42.91-0.443,54.117-15.816,70.333
						c-7.087,7.472-14.566,10.704-21.357,10.704c-6.602,0-14.274-3.231-21.359-10.704C55.642,98.816,53.804,87.609,55.197,44.699
						c0.71-21.89,7.528-26.237,10.283-26.237C68.234,18.461,92.376,18.461,92.376,18.461z"/>
					<g>
						<path d="M118.195,55.683c-0.245-0.129-0.675-0.253-1.201-0.453c-0.529-0.194-1.164-0.442-1.911-0.605
							c-1.45-0.444-3.275-0.672-5.056-0.804c-3.598-0.174-7.012,0.571-7.607,0.7c-1.258,0.188-3.037,0.86-4.005-1.035
							c-0.537-0.979,0.439-1.957,1.932-2.599c1.489-0.664,3.487-0.97,4.933-1.055c1.437-0.132,4.581-0.042,7.509,0.712
							c0.727,0.208,1.452,0.385,2.125,0.616c0.667,0.256,1.299,0.498,1.882,0.72c1.121,0.523,2.005,0.987,2.483,1.243
							c0.906,0.621,1.949,1.192,2.617,1.94c0.695,0.714,1.142,1.384,1.057,1.912C122.74,58.049,120.246,56.538,118.195,55.683z"/>
					</g>
					<g>
						<path d="M66.122,55.683c0.245-0.129,0.676-0.253,1.201-0.453c0.53-0.194,1.166-0.442,1.911-0.605
							c1.451-0.444,3.276-0.672,5.057-0.804c3.6-0.174,7.014,0.571,7.61,0.7c1.256,0.188,3.037,0.86,4.005-1.035
							c0.537-0.979-0.439-1.957-1.932-2.599c-1.492-0.664-3.487-0.97-4.933-1.055c-1.44-0.132-4.584-0.042-7.512,0.712
							c-0.726,0.208-1.453,0.385-2.123,0.616c-0.668,0.256-1.301,0.498-1.882,0.72c-1.122,0.523-2.006,0.987-2.485,1.243
							c-0.904,0.621-1.947,1.192-2.617,1.94c-0.695,0.714-1.142,1.384-1.057,1.912C61.578,58.049,64.072,56.538,66.122,55.683z"/>
					</g>
					<g id="XMLID_215_">
						<g id="XMLID_221_">
							<path id="XMLID_225_" style="fill:#FFFFFF;" d="M72.392,60.161c-11.292,2.988-10.8,19.108,1.468,19.076
								C86.128,79.205,85.532,56.684,72.392,60.161z"/>
							
								<ellipse id="XMLID_224_" transform="matrix(0.0209 -0.9998 0.9998 0.0209 2.7927 141.7186)" cx="73.754" cy="69.433" rx="6.03" ry="4.774"/>
							
								<ellipse id="XMLID_223_" transform="matrix(0.0209 -0.9998 0.9998 0.0209 3.5422 136.3535)" style="fill:#FFFFFF;" cx="71.388" cy="66.368" rx="2.848" ry="2.848"/>
							
								<ellipse id="XMLID_222_" transform="matrix(0.0209 -0.9998 0.9998 0.0209 1.8344 145.8343)" style="fill:#FFFFFF;" cx="75.376" cy="71.981" rx="1.089" ry="1.089"/>
						</g>
						<g id="XMLID_216_">
							<path id="XMLID_220_" style="fill:#FFFFFF;" d="M112.114,60.252c11.157,3.457,9.992,19.543-2.264,18.998
								C97.594,78.704,99.131,56.229,112.114,60.252z"/>
							
								<ellipse id="XMLID_219_" transform="matrix(0.0209 -0.9998 0.9998 0.0209 39.0949 178.8608)" cx="110.868" cy="69.47" rx="6.03" ry="4.774"/>
							
								<ellipse id="XMLID_218_" transform="matrix(0.0209 -0.9998 0.9998 0.0209 39.8448 173.4957)" style="fill:#FFFFFF;" cx="108.503" cy="66.405" rx="2.848" ry="2.848"/>
							
								<ellipse id="XMLID_217_" transform="matrix(0.0209 -0.9998 0.9998 0.0209 38.1366 182.9765)" style="fill:#FFFFFF;" cx="112.49" cy="72.017" rx="1.089" ry="1.089"/>
						</g>
					</g>
					<path id="XMLID_214_" style="fill:#724014;" d="M83.476,87.864c1.023-1.357,4.073,2.341,8.734,2.644
						c4.661,0.303,6.713-4.645,8.75-3.475c2.037,1.171-2.058,7.57-9.052,8.136C84.913,95.734,82.599,89.027,83.476,87.864z"/>
					<g>
						<path d="M108.873,98.689c0,0-0.548,8.426-6.872,12.925c-2.295,1.634-5.355,2.743-9.427,2.743
							c-4.067,0-7.118-1.107-9.414-2.738c-6.323-4.495-6.877-12.93-6.877-12.93H108.873z"/>
						<path style="fill:#FFFFFF;" d="M78.741,98.689h27.875c0,0,0.922,3.21-13.938,3.21S78.741,98.689,78.741,98.689z"/>
						<path style="fill:#FFFFFF;" d="M102.001,111.613c-2.295,1.634-5.355,2.743-9.427,2.743c-4.067,0-7.118-1.107-9.414-2.738
							C85.41,111.253,92.667,110.325,102.001,111.613z"/>
					</g>
				</g>
				<path d="M92.502,39.967c0,0-0.93,2.549-3.013,0.567c0,0-2.14,2.376-2.905-0.454c0,0-1.865,2.719-3.452-0.565
					c0,0-2.684,1.924-3.342-0.906c0,0-2.905,2.265-3.288-1.302c0,0-2.52,1.641-3.452-1.076c0,0-0.986,2.831-4.492,0.793
					c0,0-0.329,3.511-3.617,2.038c0,0,1.536,2.662-1.863,3.736c0,0,2.194,1.924-0.657,3.622c0,0,2.189,1.755-0.056,3.454
					c0,0,2.083,3.679-1.48,3.679c0,0,1.862,3.452-1.59,4.586c0,0,2.687,4.303-1.533,4.303c0,0,2.574,3.624-1.261,4.416
					c0,0,1.973,2.603-0.986,3.962c0,0,0.329,2.379-0.547,3.511c-0.876,1.132-3.509-0.228-2.741-2.492c0,0-3.013,0.963-2.684-2.83
					c0,0-3.013-0.113-1.315-4.076c0,0-2.628-1.302-1.04-4.359c0,0-2.412-1.302-0.822-4.586c0,0-2.52-2.492-0.383-4.982
					c0,0-2.304-1.697-0.221-4.302c0,0-2.355-0.395,0.111-4.925c0,0-2.415-3,0.272-4.755c0,0-2.464-3.624,0.989-4.869
					c0,0-2.574-4.698,1.48-4.755c0,0-2.247-3.508,2.41-5.83c0,0-1.372-4.7,3.671-5.209c0,0-0.601-4.246,3.891-4.416
					c0,0,0.383-3.906,4.439-3.227c0,0-0.275-4.188,4.767-2.603c0,0-0.164-3.566,4.713-1.925c0,0-0.003-3.681,5.368-1.246
					c0,0,1.701-3.17,4.549-1.132c0,0,1.97-3.509,4.986-0.509c0,0,1.587-1.302,5.096-1.302c3.509,0,5.096,1.302,5.096,1.302
					c3.016-3,4.986,0.509,4.986,0.509c2.849-2.038,4.549,1.132,4.549,1.132c5.371-2.435,5.368,1.246,5.368,1.246
					c4.878-1.641,4.713,1.925,4.713,1.925c5.042-1.584,4.767,2.603,4.767,2.603c4.056-0.679,4.439,3.227,4.439,3.227
					c4.493,0.17,3.891,4.416,3.891,4.416c5.042,0.509,3.671,5.209,3.671,5.209c4.657,2.322,2.409,5.83,2.409,5.83
					c4.053,0.057,1.479,4.755,1.479,4.755c3.452,1.246,0.989,4.869,0.989,4.869c2.687,1.755,0.272,4.755,0.272,4.755
					c2.466,4.53,0.111,4.925,0.111,4.925c2.083,2.605-0.221,4.302-0.221,4.302c2.137,2.49-0.383,4.982-0.383,4.982
					c1.59,3.284-0.822,4.586-0.822,4.586c1.587,3.057-1.04,4.359-1.04,4.359c1.698,3.963-1.315,4.076-1.315,4.076
					c0.329,3.793-2.684,2.83-2.684,2.83c0.768,2.264-1.865,3.624-2.741,2.492c-0.876-1.132-0.547-3.511-0.547-3.511
					c-2.959-1.359-0.986-3.962-0.986-3.962c-3.835-0.792-1.261-4.416-1.261-4.416c-4.22,0-1.533-4.303-1.533-4.303
					c-3.452-1.133-1.59-4.586-1.59-4.586c-3.563,0-1.48-3.679-1.48-3.679c-2.245-1.698-0.057-3.454-0.057-3.454
					c-2.851-1.698-0.657-3.622-0.657-3.622c-3.398-1.075-1.862-3.736-1.862-3.736c-3.288,1.473-3.617-2.038-3.617-2.038
					c-3.506,2.038-4.492-0.793-4.492-0.793c-0.932,2.717-3.452,1.076-3.452,1.076c-0.383,3.566-3.288,1.302-3.288,1.302
					c-0.657,2.83-3.342,0.906-3.342,0.906c-1.587,3.284-3.452,0.565-3.452,0.565c-0.765,2.83-2.905,0.454-2.905,0.454
					C93.432,42.515,92.502,39.967,92.502,39.967z"/>
			</g>
		</g>
	</g>
</g>
</svg>
