<?xml version="1.0" encoding="utf-8"?>
<!-- Generator: Adobe Illustrator 21.0.0, SVG Export Plug-In . SVG Version: 6.00 Build 0)  -->
<svg version="1.1" id="Capa_1" xmlns="http://www.w3.org/2000/svg" xmlns:xlink="http://www.w3.org/1999/xlink" x="0px" y="0px"
	 viewBox="0 0 146.281 273.077" style="enable-background:new 0 0 146.281 273.077;" xml:space="preserve">
<g>
	<g>
		<g>
			<path style="fill:#EE7A5F;" d="M39.655,134.249c0,0-35.777,35.296,13.506,53.779l0.836-16.387c0,0-26.966-7.444-13.336-25.271
				L39.655,134.249z"/>
		</g>
		<g>
			<rect x="45.047" y="185.738" width="39.74" height="4.041"/>
			<path style="fill:#A7A9AC;" d="M67.035,190.428h-4.277c-1.705,0-3.092-1.196-3.092-2.666c0-1.473,1.387-2.672,3.092-2.672h4.277
				c1.704,0,3.091,1.199,3.091,2.672C70.126,189.232,68.74,190.428,67.035,190.428z M62.758,186.387
				c-0.99,0-1.795,0.616-1.795,1.375c0,0.755,0.805,1.369,1.795,1.369h4.277c0.989,0,1.794-0.613,1.794-1.369
				c0-0.758-0.805-1.375-1.794-1.375H62.758z"/>
		</g>
		<defs>
			<filter id="Adobe_OpacityMaskFilter" filterUnits="userSpaceOnUse" x="12.004" y="246.03" width="104.605" height="27.047">
				<feFlood  style="flood-color:white;flood-opacity:1" result="back"/>
				<feBlend  in="SourceGraphic" in2="back" mode="normal"/>
			</filter>
		</defs>
		<mask maskUnits="userSpaceOnUse" x="12.004" y="246.03" width="104.605" height="27.047" id="XMLID_2_">
		</mask>
		
			<ellipse id="XMLID_21_" transform="matrix(1 -0.0098 0.0098 1 -2.533 0.6407)" style="opacity:0.2;mask:url(#XMLID_2_);" cx="64.307" cy="259.554" rx="52.305" ry="13.514"/>
		<g>
			<path style="fill:#0080C6;" d="M64.918,197.694c13.627,18.63,6.255,59.708,6.255,59.708c8.875-6.334,21.024-3.922,21.024-3.922
				c-12.216-31.43-7.449-63.701-7.449-63.701H45.047c0,0,4.809,32.271-7.406,63.701c0,0,12.15-2.411,21.024,3.922
				c0,0-7.417-41.078,6.207-59.708"/>
			<path style="fill:#530303;" d="M97.507,258.86c0,3.354-3.209,3.557-11.667,3.557c-8.459,0-14.951-0.203-14.951-3.557
				c0-3.351,6.854-6.067,15.311-6.067C94.658,252.793,97.507,255.509,97.507,258.86z"/>
			<path style="fill:#530303;" d="M32.672,258.86c0,3.354,3.208,3.557,11.669,3.557c8.455,0,14.949-0.203,14.949-3.557
				c0-3.351-6.857-6.067-15.317-6.067C35.52,252.793,32.672,255.509,32.672,258.86z"/>
		</g>
		<g>
			<path style="fill:#EE7A5F;" d="M39.625,134.151l18.752-4.343h6.796v67.239c0,0-10.22-0.87-14.171-2.737
				c-1.808-0.856-6.327-4.683-6.327-4.683l-3.041-31.781L39.625,134.151z"/>
			<path style="fill:#EE7A5F;" d="M90.112,134.249l-18.146-4.442h-6.794v67.239c0,0,10.097-0.209,14.047-2.078
				c1.81-0.854,6.451-5.342,6.451-5.342l3.041-31.781L90.112,134.249z"/>
			<polygon style="fill:#DB3B26;" points="65.172,124.794 55.292,124.794 57.717,129.742 65.172,129.807 72.627,129.742 
				75.05,124.794 			"/>
			<polygon style="fill:#9D5C4A;" points="61.683,132.835 65.172,134.962 65.172,137.46 60.233,134.659 			"/>
			<polygon style="fill:#9D5C4A;" points="65.172,134.962 68.661,132.835 70.112,134.659 65.172,137.46 			"/>
			<path style="fill:#DB3B26;" d="M67.642,151.611c-0.805,0-1.456,0.61-1.456,1.363c0,0.752,0.651,1.361,1.456,1.361
				c0.803,0,1.456-0.609,1.456-1.361C69.099,152.221,68.445,151.611,67.642,151.611z M67.126,153.248
				c-0.162,0-0.293-0.123-0.293-0.273c0-0.153,0.131-0.274,0.293-0.274c0.161,0,0.291,0.121,0.291,0.274
				C67.417,153.125,67.286,153.248,67.126,153.248z M68.175,153.26c-0.162,0-0.293-0.122-0.293-0.273
				c0-0.151,0.132-0.274,0.293-0.274c0.16,0,0.292,0.123,0.292,0.274C68.467,153.138,68.335,153.26,68.175,153.26z"/>
			<path style="fill:#DB3B26;" d="M67.642,164.275c-0.805,0-1.456,0.611-1.456,1.363c0,0.752,0.651,1.362,1.456,1.362
				c0.803,0,1.456-0.61,1.456-1.362C69.099,164.886,68.445,164.275,67.642,164.275z M67.126,165.912
				c-0.162,0-0.293-0.123-0.293-0.274c0-0.151,0.131-0.275,0.293-0.275c0.161,0,0.291,0.124,0.291,0.275
				C67.417,165.79,67.286,165.912,67.126,165.912z M68.175,165.926c-0.162,0-0.293-0.123-0.293-0.274
				c0-0.152,0.132-0.274,0.293-0.274c0.16,0,0.292,0.122,0.292,0.274C68.467,165.803,68.335,165.926,68.175,165.926z"/>
			<path style="fill:#DB3B26;" d="M67.642,176.94c-0.805,0-1.456,0.611-1.456,1.363c0,0.753,0.651,1.361,1.456,1.361
				c0.803,0,1.456-0.608,1.456-1.361C69.099,177.551,68.445,176.94,67.642,176.94z M67.126,178.577
				c-0.162,0-0.293-0.122-0.293-0.273c0-0.152,0.131-0.274,0.293-0.274c0.161,0,0.291,0.122,0.291,0.274
				C67.417,178.454,67.286,178.577,67.126,178.577z M68.175,178.59c-0.162,0-0.293-0.122-0.293-0.274
				c0-0.15,0.132-0.273,0.293-0.273c0.16,0,0.292,0.123,0.292,0.273C68.467,178.468,68.335,178.59,68.175,178.59z"/>
			<path style="fill:#DB3B26;" d="M67.642,189.606c-0.805,0-1.456,0.61-1.456,1.362c0,0.751,0.651,1.362,1.456,1.362
				c0.803,0,1.456-0.611,1.456-1.362C69.099,190.216,68.445,189.606,67.642,189.606z M67.126,191.241
				c-0.162,0-0.293-0.122-0.293-0.273c0-0.151,0.131-0.274,0.293-0.274c0.161,0,0.291,0.123,0.291,0.274
				C67.417,191.119,67.286,191.241,67.126,191.241z M68.175,191.256c-0.162,0-0.293-0.123-0.293-0.275
				c0-0.151,0.132-0.274,0.293-0.274c0.16,0,0.292,0.123,0.292,0.274C68.467,191.133,68.335,191.256,68.175,191.256z"/>
			<g>
				<polygon style="fill:#DB3B26;" points="78.594,148.495 71.77,148.495 72.442,158.601 78.594,160.176 84.64,158.865 
					85.417,148.495 				"/>
				<polygon style="fill:#EE7A5F;" points="85.237,150.904 71.931,150.904 71.861,149.856 85.316,149.856 				"/>
			</g>
			<path style="fill:#EFC392;" d="M56.41,131.801c0,0,0.65,9.024,8.31,9.367c7.657-0.343,8.309-9.367,8.309-9.367H56.41z"/>
			<polygon style="fill:#DB3B26;" points="55.292,124.794 52.428,132.01 55.292,143.476 61.683,135.435 			"/>
			<polygon style="fill:#DB3B26;" points="75.05,124.794 77.914,132.01 75.05,143.476 68.661,135.435 			"/>
			<polygon style="fill:#DB3B26;" points="71.668,138.195 70.935,137.148 64.514,140.932 58.093,137.148 57.36,138.195 
				63.898,142.048 63.898,196.955 65.172,197.047 65.172,142.023 			"/>
		</g>
		<path style="fill:#DB3B26;" d="M42.155,165.96c0,0,0.216,1.148,0.54,2.87c0.312,1.722,0.682,4.028,1.046,6.334
			c0.34,2.309,0.675,4.619,0.89,6.358c0.204,1.74,0.34,2.9,0.34,2.9s-0.216-1.148-0.54-2.869c-0.313-1.723-0.682-4.029-1.046-6.335
			c-0.34-2.309-0.675-4.619-0.89-6.358C42.291,167.12,42.155,165.96,42.155,165.96z"/>
		<g>
			<g>
				<g>
					<path style="fill:#EFC392;stroke:#994900;stroke-linecap:round;stroke-linejoin:round;stroke-miterlimit:10;" d="
						M30.051,85.307c0,0-2.681-8.211-7.578-8.211c-4.893,0-2.527,15.943,10.262,24.153L30.051,85.307z"/>
					<path style="fill:#EFC392;stroke:#994900;stroke-linecap:round;stroke-linejoin:round;stroke-miterlimit:10;" d="
						M99.905,85.307c0,0,2.68-8.211,7.577-8.211c4.896,0,2.523,15.943-10.265,24.153L99.905,85.307z"/>
					<path style="fill:#EFC392;stroke:#994900;stroke-linecap:round;stroke-linejoin:round;stroke-miterlimit:10;" d="M65.04,27.719
						c0,0,24.151,0,26.905,0s9.579,4.349,10.287,26.251c1.396,42.932-0.443,54.145-15.825,70.369
						c-7.091,7.476-14.574,10.709-21.368,10.709c-6.605,0-14.281-3.233-21.371-10.709C28.286,108.115,26.448,96.902,27.842,53.97
						c0.711-21.902,7.532-26.251,10.289-26.251C40.885,27.719,65.04,27.719,65.04,27.719z"/>
					<g>
						<path style="fill:#602700;" d="M90.873,64.96c-0.245-0.129-0.675-0.253-1.201-0.453c-0.529-0.194-1.165-0.442-1.912-0.605
							c-1.45-0.445-3.277-0.672-5.059-0.805c-3.6-0.174-7.016,0.571-7.611,0.701c-1.259,0.188-3.039,0.861-4.007-1.036
							c-0.537-0.979,0.439-1.958,1.933-2.6c1.49-0.664,3.489-0.971,4.935-1.055c1.438-0.132,4.584-0.042,7.513,0.712
							c0.727,0.208,1.453,0.385,2.126,0.616c0.667,0.256,1.3,0.498,1.882,0.72c1.121,0.523,2.006,0.988,2.485,1.244
							c0.906,0.622,1.95,1.193,2.618,1.941c0.695,0.715,1.142,1.384,1.058,1.913C95.42,67.327,92.924,65.816,90.873,64.96z"/>
					</g>
					<g>
						<path style="fill:#602700;" d="M38.772,64.96c0.245-0.129,0.677-0.253,1.201-0.453c0.53-0.194,1.166-0.442,1.912-0.605
							c1.452-0.445,3.278-0.672,5.059-0.805c3.602-0.174,7.017,0.571,7.614,0.701c1.256,0.188,3.039,0.861,4.007-1.036
							c0.537-0.979-0.439-1.958-1.933-2.6c-1.493-0.664-3.489-0.971-4.935-1.055c-1.441-0.132-4.586-0.042-7.516,0.712
							c-0.726,0.208-1.453,0.385-2.124,0.616c-0.668,0.256-1.301,0.498-1.882,0.72c-1.123,0.523-2.008,0.988-2.486,1.244
							c-0.905,0.622-1.948,1.193-2.618,1.941c-0.695,0.715-1.142,1.384-1.058,1.913C34.226,67.327,36.721,65.816,38.772,64.96z"/>
					</g>
					<g id="XMLID_7_">
						<g id="XMLID_14_">
							<path id="XMLID_18_" style="fill:#FFFFFF;" d="M45.046,69.44c-11.298,2.989-10.806,19.118,1.468,19.086
								C58.788,88.494,58.192,65.962,45.046,69.44z"/>
							
								<ellipse id="XMLID_17_" transform="matrix(0.0209 -0.9998 0.9998 0.0209 -33.2632 123.4687)" cx="46.408" cy="78.718" rx="6.033" ry="4.776"/>
							
								<ellipse id="XMLID_16_" transform="matrix(0.0209 -0.9998 0.9998 0.0209 -32.5135 118.1009)" style="fill:#FFFFFF;" cx="44.041" cy="75.651" rx="2.849" ry="2.849"/>
							
								<ellipse id="XMLID_15_" transform="matrix(0.0209 -0.9998 0.9998 0.0209 -34.222 127.5865)" style="fill:#FFFFFF;" cx="48.031" cy="81.266" rx="1.089" ry="1.089"/>
						</g>
						<g id="XMLID_8_">
							<path id="XMLID_12_" style="fill:#FFFFFF;" d="M84.788,69.531c11.163,3.459,9.997,19.553-2.265,19.008
								C70.261,87.993,71.798,65.506,84.788,69.531z"/>
							
								<ellipse id="XMLID_11_" transform="matrix(0.0209 -0.9998 0.9998 0.0209 3.058 160.6303)" cx="83.542" cy="78.754" rx="6.033" ry="4.776"/>
							
								<ellipse id="XMLID_10_" transform="matrix(0.0209 -0.9998 0.9998 0.0209 3.808 155.2625)" style="fill:#FFFFFF;" cx="81.175" cy="75.687" rx="2.849" ry="2.849"/>
							
								<ellipse id="XMLID_9_" transform="matrix(0.0209 -0.9998 0.9998 0.0209 2.0992 164.7481)" style="fill:#FFFFFF;" cx="85.165" cy="81.302" rx="1.089" ry="1.089"/>
						</g>
					</g>
					<path id="XMLID_6_" style="fill:#C4884D;" d="M59.824,99.764c0.6-0.796,2.389,1.373,5.122,1.551
						c2.733,0.178,3.937-2.724,5.131-2.038c1.194,0.686-1.207,4.44-5.309,4.771C60.667,104.38,59.309,100.446,59.824,99.764z"/>
					<g>
						<path d="M81.172,108.131c0,0-0.549,8.431-6.875,12.931c-2.296,1.635-5.357,2.745-9.432,2.745
							c-4.069,0-7.122-1.107-9.419-2.739c-6.327-4.498-6.881-12.937-6.881-12.937H81.172z"/>
						<path style="fill:#FFFFFF;" d="M51.024,108.131h27.89c0,0,0.923,3.212-13.945,3.212S51.024,108.131,51.024,108.131z"/>
						<path style="fill:#FFFFFF;" d="M74.296,121.062c-2.296,1.635-5.357,2.745-9.432,2.745c-4.069,0-7.122-1.107-9.419-2.739
							C57.696,120.702,64.957,119.773,74.296,121.062z"/>
					</g>
				</g>
				<path style="fill:#602700;" d="M102.438,69.856c0.287,4.982-0.156,43.934-14.747,34.532c-6.802-4.383-11.027,0.459-22.071,0.459
					l-0.128-0.002c-6.187-0.064-16.926-4.685-23.055,0.185C30.5,110.824,27.165,82.917,27.919,69.856
					c0.451-10.697-8.804-7.427-5.995-1.658c2.26,4.64,4.356,17.001,2.826,34.737c-1.53,17.735,24.754,34.526,39.203,34.526
					c0.421,0,0.829-0.012,1.225-0.033l0.314,0.015c0.298,0.013,0.6,0.018,0.913,0.018c14.447,0,40.731-16.791,39.201-34.526
					c-1.529-17.736-0.47-26.045,0.936-32.306C108.616,61.396,101.988,59.159,102.438,69.856z M73.273,125.548
					c-3.013,0.667-4.967-2.195-7.781-2.399c-0.103-0.008-0.208-0.012-0.314-0.012c-2.993,0-4.977,3.095-8.111,2.405
					c-10.694-2.356-14.711-11.385-14.256-15.736c0.524-5.029,11.777-1.717,22.681-1.797h0.094
					c11.505-0.106,22.647-3.388,22.621,2.458C88.189,114.765,83.406,123.309,73.273,125.548z"/>
			</g>
			<g>
				<g>
					<path style="fill:#602700;" d="M113.991,25.34c-3.36-0.765-8.568-1.506-11.595,0.076c-3.351,1.754-11.317,5.314-5.672,20.065
						c2.72,7.119,4.886,16.846,7.682,34.723c2.709-10.782,4.581-25.323,9.768-33.771c3.512-5.713,2.984-20.561-5.123-18.462
						C110.209,26.907,112.199,25.242,113.991,25.34z"/>
				</g>
				<g>
					<path style="fill:#602700;" d="M25.57,19.497c3.775-1.493,9.693-3.423,13.44-2.789c4.163,0.701,12.893,9.005-1.514,21.98
						c-11.305,10.187-9.253,26.029-9.707,42.301c-4.819-8.73-14.313-32.437-12.474-40.515c0.989-4.719,6.671-19.73,16.386-19.898
						C30.199,19.93,27.633,18.969,25.57,19.497z"/>
				</g>
				<g>
					<path style="fill:#602700;" d="M53.101,38.189c-5.124,3.484-9.419,7.379-16.897,10.419c12.028,0.544,26.947-4.52,37.6-9.542
						c-3.62,5.389-11.367,8.076-14.312,9.809c9.759-0.196,30.939-8.745,37.782-13.852C110.933,20.241,90.23,6.355,74.65,1.993
						C50.149-4.92,28.952,6.926,18.845,25.524C16.27,30.588,7.479,40.547,0,45.924C12.432,48.417,41.544,42.777,53.101,38.189z"/>
				</g>
			</g>
		</g>
		<g>
			<path style="fill:#EE7A5F;" d="M90.112,134.249l-0.647,10.901c0,0,20.298,19.45,39.947,1.667l-13.424-10.436
				C105.991,146.818,90.551,134.95,90.112,134.249z"/>
			<polygon style="fill:#DB3B26;" points="126.471,149.207 114.521,137.699 117.366,134.745 129.758,146.579 			"/>
			<g>
				<g>
					<path style="fill:#EFC392;stroke:#994900;stroke-linecap:round;stroke-linejoin:round;stroke-miterlimit:10;" d="
						M138.266,139.61c0,0,11.691-19.603,5.909-27.676c0,0-1.013-5.082-5.152-6.114c0,0-0.397-1.733-1.863-2.597
						c-1.157-0.681-3.883-1.626-5.67,1.14c-1.79,2.766,1.199,10.02-0.343,13.576c0,0-3.903-5.582-8.737-4.268
						c-4.704,1.277-5.49,1.154-6.764,2.735c-1.275,1.576-0.841,3.157,0.881,4.015c1.719,0.861,3.064,0.149,4.592-0.253
						c1.525-0.405,2.555-0.602,4.195,0.945c2.237,2.11,2.31,5.92,0.256,7.816c-1.089,1.005-3.863,1.598-4.933,0.29
						c-1.275-1.564-0.554-4.274-2.046-6.449c-1.08-1.573-3.618-2.966-5.245-2.375c-1.624,0.594-3.07,2.777-1.955,4.381
						c1.111,1.607,4.254,3.512,4.091,8.976c-0.096,3.182,3.179,8.101,6.027,8.804c1.227,0.307,1.207,0.754,3.067,2.24
						C129.091,148.391,135.075,146.495,138.266,139.61z"/>
				</g>
				<path style="fill:#EFC392;stroke:#994900;stroke-linecap:round;stroke-linejoin:round;stroke-miterlimit:10;" d="
					M143.151,112.333c0,0-0.059-0.025-0.18-0.065c-0.121-0.037-0.301-0.087-0.537-0.113c-0.236-0.025-0.529-0.034-0.867,0.037
					c-0.338,0.067-0.712,0.262-1.005,0.591l-0.056,0.059c-0.014,0.023-0.011,0.006-0.039,0.048l-0.02,0.034
					c-0.028,0.045-0.056,0.076-0.084,0.138c-0.056,0.121-0.098,0.239-0.127,0.346c-0.059,0.228-0.096,0.459-0.121,0.695
					c-0.054,0.467-0.056,0.954-0.054,1.455c0.003,1.005,0.059,2.06,0.07,3.112c0.02,1.055,0.003,2.105-0.059,3.084
					c-0.065,0.979-0.163,1.896-0.324,2.665c-0.158,0.771-0.312,1.415-0.467,1.849c-0.141,0.442-0.234,0.695-0.234,0.695
					s0.034-0.059,0.096-0.169c0.053-0.113,0.158-0.265,0.253-0.478c0.203-0.419,0.473-1.038,0.695-1.812
					c0.113-0.388,0.214-0.813,0.307-1.263c0.087-0.453,0.18-0.934,0.225-1.435c0.118-1.002,0.152-2.077,0.141-3.14
					c-0.02-1.069-0.076-2.133-0.129-3.12c-0.022-0.492-0.039-0.968-0.031-1.41c0.006-0.219,0.022-0.433,0.056-0.622
					c0.017-0.104,0.042-0.186,0.065-0.253c0.008-0.039,0.045-0.09,0.068-0.132l0.014-0.034c-0.014,0.022,0.011-0.009,0.011-0.011
					l0.039-0.053c0.433-0.582,1.128-0.72,1.57-0.734C142.886,112.28,143.151,112.333,143.151,112.333z"/>
				<path style="fill:#EFC392;stroke:#994900;stroke-linecap:round;stroke-linejoin:round;stroke-miterlimit:10;" d="
					M138.379,106.402c0,0-0.068-0.02-0.208-0.022c-0.135-0.003-0.346,0.006-0.582,0.124c-0.239,0.113-0.495,0.341-0.672,0.67
					c-0.18,0.326-0.29,0.737-0.329,1.185c-0.037,0.45-0.025,0.917-0.022,1.412c0,0.495,0.008,1.019,0.025,1.556
					c0.025,1.078,0.07,2.223,0.082,3.365c0.017,0.577,0.017,1.145,0.014,1.711c-0.006,0.56-0.006,1.114-0.025,1.649
					c-0.025,0.535-0.039,1.049-0.073,1.539c-0.034,0.49-0.079,0.948-0.138,1.376c-0.051,0.422-0.129,0.808-0.174,1.154
					c-0.076,0.34-0.141,0.636-0.197,0.878c-0.143,0.484-0.222,0.76-0.222,0.76s0.124-0.262,0.338-0.717
					c0.087-0.242,0.191-0.529,0.309-0.864c0.09-0.34,0.22-0.723,0.298-1.151c0.093-0.428,0.174-0.892,0.242-1.384
					c0.073-0.495,0.138-1.019,0.174-1.559c0.09-1.086,0.101-2.243,0.09-3.399c-0.022-1.154-0.073-2.307-0.152-3.385
					c-0.056-1.066-0.191-2.094-0.2-2.918c0.011-0.416,0.07-0.791,0.183-1.097c0.118-0.312,0.312-0.537,0.512-0.667
					c0.2-0.132,0.391-0.183,0.523-0.203C138.306,106.394,138.379,106.402,138.379,106.402z"/>
				<path style="fill:#EFC392;stroke:#994900;stroke-linecap:round;stroke-linejoin:round;stroke-miterlimit:10;" d="
					M133.005,137.671c0,0-0.366-0.315-1.005-0.644c-0.326-0.149-0.706-0.335-1.148-0.447c-0.436-0.129-0.923-0.191-1.41-0.197
					c-0.248,0.017-0.492,0.014-0.729,0.073c-0.118,0.028-0.236,0.048-0.352,0.073c-0.11,0.039-0.22,0.082-0.329,0.118
					c-0.219,0.07-0.411,0.183-0.588,0.295c-0.09,0.056-0.177,0.107-0.262,0.158c-0.076,0.062-0.146,0.127-0.217,0.183
					c-0.135,0.121-0.27,0.219-0.363,0.332c-0.093,0.113-0.172,0.214-0.239,0.295c-0.129,0.163-0.203,0.256-0.203,0.256
					s0.09-0.079,0.248-0.214c0.076-0.07,0.169-0.155,0.276-0.25c0.104-0.096,0.25-0.172,0.388-0.276
					c0.07-0.048,0.146-0.101,0.222-0.155c0.082-0.042,0.172-0.082,0.259-0.124c0.177-0.093,0.366-0.177,0.574-0.234
					c0.101-0.034,0.205-0.068,0.307-0.096c0.113-0.022,0.222-0.039,0.329-0.059c0.222-0.053,0.453-0.042,0.681-0.059
					c0.228-0.006,0.459,0.017,0.681,0.037c0.225,0.039,0.447,0.056,0.658,0.113c0.425,0.09,0.813,0.222,1.145,0.343
					c0.324,0.132,0.599,0.236,0.782,0.335C132.898,137.617,133.005,137.671,133.005,137.671z"/>
				<path style="fill:#EFC392;stroke:#994900;stroke-linecap:round;stroke-linejoin:round;stroke-miterlimit:10;" d="
					M130.703,122.772c0,0,0.197,0.92,0.616,2.265c0.217,0.667,0.461,1.455,0.782,2.276c0.312,0.822,0.681,1.688,1.066,2.546
					c0.208,0.422,0.408,0.847,0.622,1.258c0.222,0.408,0.422,0.816,0.653,1.196c0.222,0.38,0.43,0.751,0.661,1.083
					c0.228,0.335,0.431,0.658,0.639,0.943c0.416,0.571,0.785,1.03,1.064,1.331c0.273,0.31,0.428,0.484,0.428,0.484
					s-0.138-0.191-0.38-0.523c-0.118-0.166-0.279-0.355-0.433-0.597c-0.158-0.239-0.338-0.504-0.529-0.796
					c-0.194-0.29-0.38-0.625-0.591-0.962c-0.214-0.34-0.397-0.723-0.619-1.1c-0.22-0.377-0.411-0.788-0.625-1.193
					c-0.208-0.411-0.4-0.836-0.602-1.255c-0.394-0.847-0.771-1.702-1.097-2.515c-0.329-0.81-0.63-1.573-0.872-2.231
					C130.996,123.664,130.703,122.772,130.703,122.772z"/>
				<path style="fill:#EFC392;stroke:#994900;stroke-linecap:round;stroke-linejoin:round;stroke-miterlimit:10;" d="
					M125.143,131.368c0,0,0.2,0.428,0.388,1.095c0.099,0.332,0.183,0.726,0.242,1.148c0.034,0.211,0.037,0.433,0.059,0.656
					c-0.008,0.225,0.02,0.453-0.02,0.675c-0.014,0.225-0.037,0.45-0.093,0.667c-0.037,0.219-0.101,0.428-0.172,0.63
					c-0.059,0.203-0.152,0.385-0.234,0.565c-0.073,0.18-0.172,0.341-0.27,0.481c-0.098,0.141-0.169,0.287-0.256,0.394
					c-0.09,0.11-0.169,0.205-0.231,0.284c-0.127,0.16-0.2,0.253-0.2,0.253s0.09-0.076,0.245-0.208
					c0.076-0.07,0.169-0.155,0.276-0.25c0.107-0.099,0.2-0.231,0.312-0.369c0.115-0.138,0.231-0.293,0.326-0.476
					c0.104-0.177,0.225-0.363,0.293-0.577c0.082-0.211,0.169-0.428,0.211-0.661c0.062-0.231,0.09-0.47,0.11-0.709
					c0.034-0.239,0.003-0.478,0.008-0.718c-0.022-0.234-0.048-0.464-0.09-0.684c-0.082-0.439-0.222-0.833-0.349-1.162
					C125.43,131.745,125.143,131.368,125.143,131.368z"/>
				<path style="fill:#EFC392;stroke:#994900;stroke-linecap:round;stroke-linejoin:round;stroke-miterlimit:10;" d="
					M128.697,128.296c0,0,0.25,0.397,0.625,0.993c0.188,0.293,0.394,0.647,0.619,1.021c0.222,0.377,0.459,0.777,0.675,1.188
					c0.225,0.405,0.43,0.819,0.605,1.215c0.177,0.397,0.329,0.771,0.422,1.103c0.059,0.166,0.084,0.321,0.118,0.459
					c0.037,0.138,0.056,0.259,0.059,0.36c0.023,0.205,0.034,0.321,0.034,0.321s0.011-0.115,0.028-0.324
					c0.014-0.104,0.011-0.228-0.003-0.374c-0.014-0.143-0.014-0.31-0.062-0.481c-0.068-0.352-0.172-0.754-0.335-1.171
					c-0.158-0.419-0.363-0.847-0.585-1.261c-0.447-0.833-0.993-1.607-1.429-2.158C129.029,128.633,128.697,128.296,128.697,128.296z
					"/>
			</g>
		</g>
	</g>
</g>
</svg>
