<?xml version="1.0" encoding="utf-8"?>
<!-- Generator: Adobe Illustrator 21.0.0, SVG Export Plug-In . SVG Version: 6.00 Build 0)  -->
<svg version="1.1" id="Capa_1" xmlns="http://www.w3.org/2000/svg" xmlns:xlink="http://www.w3.org/1999/xlink" x="0px" y="0px"
	 viewBox="0 0 139.061 266" style="enable-background:new 0 0 139.061 266;" xml:space="preserve">
<g>
	<defs>
		<filter id="Adobe_OpacityMaskFilter" filterUnits="userSpaceOnUse" x="0" y="238.953" width="104.605" height="27.047">
			<feFlood  style="flood-color:white;flood-opacity:1" result="back"/>
			<feBlend  in="SourceGraphic" in2="back" mode="normal"/>
		</filter>
	</defs>
	<mask maskUnits="userSpaceOnUse" x="0" y="238.953" width="104.605" height="27.047" id="XMLID_2_">
	</mask>
	
		<ellipse id="XMLID_20_" transform="matrix(1 -0.0098 0.0098 1 -2.4644 0.5231)" style="opacity:0.2;mask:url(#XMLID_2_);" cx="52.303" cy="252.477" rx="52.305" ry="13.514"/>
	<g>
		<g>
			<g>
				<g id="XMLID_276_">
					
						<rect id="XMLID_277_" x="20.513" y="226.198" transform="matrix(0.1165 -0.9932 0.9932 0.1165 -196.7207 241.5663)" style="fill:#EFC392;stroke:#994900;stroke-linecap:round;stroke-linejoin:round;stroke-miterlimit:10;" width="33.804" height="10.309"/>
				</g>
				<g id="XMLID_274_">
					
						<rect id="XMLID_275_" x="63.432" y="214.451" transform="matrix(0.9932 -0.1165 0.1165 0.9932 -26.4796 9.5631)" style="fill:#EFC392;stroke:#994900;stroke-linecap:round;stroke-linejoin:round;stroke-miterlimit:10;" width="10.309" height="33.804"/>
				</g>
				<path d="M85.632,251.689c0,3.351-3.206,3.553-11.656,3.553c-8.451,0-14.936-0.202-14.936-3.553
					c0-3.348,6.848-6.061,15.296-6.061C82.785,245.629,85.632,248.341,85.632,251.689z"/>
				<path d="M20.861,251.689c0,3.351,3.204,3.553,11.657,3.553c8.447,0,14.935-0.202,14.935-3.553c0-3.348-6.85-6.061-15.302-6.061
					C23.705,245.629,20.861,248.341,20.861,251.689z"/>
			</g>
			<g>
				<path style="fill:#EFC392;stroke:#994900;stroke-linecap:round;stroke-linejoin:round;stroke-miterlimit:10;" d="
					M63.503,132.198c0,0,26.19-0.994,40.314-26.327l13.899,9.37c0,0-18.087,22.603-54.986,25.182L63.503,132.198z"/>
				<path style="fill:#9B6534;" d="M103.817,105.871c0,0-4.41,5.143,3.603,9.745s10.296-0.374,10.296-0.374L103.817,105.871z"/>
				<path style="fill:#EFC392;stroke:#994900;stroke-linecap:round;stroke-linejoin:round;stroke-miterlimit:10;" d="
					M101.417,100.089c0,0-0.806-2.928-4.465-5.586c-3.659-2.663-1.001-6.338-1.001-6.338s2.017-3.267,5.394-0.774
					c0,0,2.264,1.347,2.784,5.183c0,0,0.321,1.21,0.782,1.973c0.768,1.27,1.177,1.699,1.177,1.699s1.222,0.726,1.72-0.324
					c0,0,1.186-2.938,1.364-6.307c0.053-0.96,1.086-9.579,1.839-13.314c0.641-3.171,2.511-3.296,3.49-3.393
					c1.08-0.108,2.846,0.408,2.984,2.011c0.259,2.976-1.845,13.133-1.837,15.14l3.15-13.829c0,0,0.821-3.319,3.603-3.636
					c0,0,3.929-0.805,4.427,3.059c0,0,0.129,0.688-0.484,2.319c-0.617,1.629-4.773,14.39-4.773,14.39l6.446-13.938
					c0,0,1.025-2.027,2.812-2.239c1.786-0.204,4.075,1.039,4.261,3.379c0.163,2.046-0.56,3.161-0.56,3.161l-7.779,12.709
					l5.189-7.061c0,0,1.327-1.801,3.217-1.973c1.887-0.164,3.546,1.808,3.388,3.397c0,0,0.162-0.275-0.586,1.404
					c-0.772,1.734-6.688,9.126-6.688,9.126s-1.477,2.487-2.519,4.383c-1.064,1.939-5.457,10.916-11.662,11.509
					c-6.207,0.588-13.789-4.257-14.388-8.766C102.281,104.281,101.997,101.391,101.417,100.089z"/>
				<path style="fill:#EFC392;stroke:#994900;stroke-linecap:round;stroke-linejoin:round;stroke-miterlimit:10;" d="
					M115.189,91.881c0,0,4.094,8.982,10.902,11.262C126.091,103.142,123.625,102.705,115.189,91.881z"/>
				<path style="fill:#EFC392;stroke:#994900;stroke-linecap:round;stroke-linejoin:round;stroke-miterlimit:10;" d="M109.76,94.536
					c0,0,7.183,10.19,2.959,18.652C112.718,113.188,115.005,104.629,109.76,94.536z"/>
			</g>
			<g id="XMLID_254_">
				
					<path id="XMLID_259_" style="fill:#EFC392;stroke:#994900;stroke-linecap:round;stroke-linejoin:round;stroke-miterlimit:10;" d="
					M26.138,131.495c0,0-17.563,38.567,8.642,47.834l-0.797-9.107c0,0-12.272-16.022-5.371-32.563L26.138,131.495z"/>
			</g>
			<g>
				<path style="fill:#AF0573;" d="M27.249,127.37c0,0-11.269-1.282-9.89,8.868l1.841,4.294c0,0,7.455-3.319,11.891,0
					C31.091,140.532,34.609,130.994,27.249,127.37z"/>
				<path style="fill:#EFC392;stroke:#994900;stroke-linecap:round;stroke-linejoin:round;stroke-miterlimit:10;" d="M27.249,127.37
					l5.748-2.062l11.747-3.986H60.49l11.879,3.986l5.751,2.062c0,0-13.437,12.025-24.868,11.917
					C41.822,139.179,27.249,127.37,27.249,127.37z"/>
				<path style="fill:#E93E96;" d="M72.369,125.308c0,0-6.714,9.566-19.686,9.368c-12.971,0.197-19.687-9.368-19.687-9.368
					l-5.748,2.062c4.14,7.528,8.509,41.66,8.509,41.66h16.926h16.925c0,0,4.372-34.133,8.512-41.66L72.369,125.308z"/>
				<path style="fill:#30307F;" d="M69.608,169.03H52.684H35.758c0,0-15.179,0-13.57,56.802c0,0,8.971,5.464,19.548,0
					c0,0,7.405,3.101,10.948,2.428c3.544,0.673,10.945-2.428,10.945-2.428c10.581,5.464,19.548,0,19.548,0
					C84.787,169.03,69.608,169.03,69.608,169.03z"/>
				<path style="fill:#AF0573;" d="M73.482,139.212c0,0-6.132-9.538,3.579-12.792l4.666-0.249c0,0,0.321,8.154,5.259,10.665
					C86.987,136.836,79.989,144.211,73.482,139.212z"/>
				<polygon style="fill:#AF0573;" points="69.608,169.031 35.758,169.031 35.226,165.112 70.14,165.112 				"/>
				<path style="fill:#131342;" d="M38.312,227.256c0,0-1.882-35.973,1.653-45.863c0,0,3.719,32.764,2.553,44.751
					C42.518,226.144,41.863,225.229,38.312,227.256z"/>
				<path style="fill:#131342;" d="M67.054,227.256c0,0,1.884-35.973-1.65-45.863c0,0-3.72,32.764-2.558,44.751
					C62.846,226.144,63.503,225.229,67.054,227.256z"/>
			</g>
			<g>
				<g>
					<path style="fill:#834C2E;" d="M32.126,130.089c0.939-2.294,1.694-5.101,1.694-8.195c0-3.707-0.899-6.773-1.882-9.021
						c1.253-1.787,2.448-4.023,2.92-6.489c0.834-4.355-1.263-9.682-2.518-12.353c0.331-0.779,0.654-1.617,0.958-2.516
						c1.754-5.184-0.548-12.019-1.986-15.461c0.167-0.623,0.347-1.192,0.539-1.694c-4.336-4.721-7.196-11.038-8.699-17.211
						c-2.172,1.974-4.456,4.894-5.225,8.833c-1.092,5.591,1.926,13.578,3.968,18.117c-0.355,2.289-0.698,4.143-1.012,5.336
						c-0.269,1.024-0.374,2.084-0.355,3.155c-1.194,2.717-2.761,7.326-2.218,11.908c0.262,2.211,1.287,4.515,2.627,6.69
						c-0.994,2.199-2.655,7.186-1.364,14.039c0.494,2.62,1.494,4.829,2.679,6.653c-0.004,0.781,0.027,1.693,0.108,2.767
						c0.322,4.287,2.243,7.725,3.826,9.883c-0.063,0.344-0.079,0.727-0.032,1.164c-1.595,5.939-5.329,18.008-7.107,29.1
						c-2.025,12.63-0.693,15.792,0.398,12.766c1.091-3.026,4.534-12.882,4.534-12.882s-1.396,4.388-2.672,11.87
						c-1.276,7.482-2.132,12.198-2.132,12.198s8.087-14.127,8.063-13.111c-0.024,1.017-3.095,8.3-3.095,8.3s1.586-2.505,5.046-9.7
						c2.725-5.668,3.215-23.378,3.3-30.646c2.084-1.864,4.63-4.8,5.16-8.752C38.359,139.574,34.054,132.809,32.126,130.089z"/>
					<g>
						<path style="fill:#FBB03B;" d="M22.627,146.9c-0.399,1.689,0.603,3.391,2.261,3.806c3.049,0.757,6.098,1.513,9.147,2.27
							c1.658,0.415,3.363-0.695,3.786-2.486l0,0c0.424-1.791-0.605-3.546-2.273-3.917c-3.065-0.688-6.13-1.376-9.196-2.065
							C24.684,144.138,23.026,145.21,22.627,146.9L22.627,146.9z"/>
					</g>
				</g>
				<path style="fill:#834C2E;" d="M96.656,24.307C88.407,6.757,70.79-0.044,53.505,0C36.221-0.044,18.603,6.757,10.355,24.307
					c-7.375,15.692-9.551,40.879,5.767,51.998l37.384-14.511l37.384,14.511C106.207,65.186,104.031,39.999,96.656,24.307z"/>
				<path style="fill:#EFC392;stroke:#994900;stroke-linecap:round;stroke-linejoin:round;stroke-miterlimit:10;" d="M18.286,78.256
					c0,0-3.096-10.851-7.987-10.851c-4.888,0-4.32,18.797,10.669,26.778L18.286,78.256z"/>
				<path style="fill:#EFC392;stroke:#994900;stroke-linecap:round;stroke-linejoin:round;stroke-miterlimit:10;" d="M88.072,78.256
					c0,0,3.113-11.535,8.005-11.535c4.891,0,5.023,20.78-10.69,27.462L88.072,78.256z"/>
				<path style="fill:#834C2E;" d="M53.025,5.026c-26.539,0-42.836,9.296-42.836,39.779c0,9.081-3.274,15.044,0.109,22.6
					c3.04,5.983,5.583,9.569,5.583,9.569s-0.707-41.384,2.77-44.622c1.661-1.543,17.487,2.645,34.373,2.645
					c18.917,0,33.535-3.698,34.928-1.796c2.663,3.637,3.186,24.52,2.097,43.773c0.378-0.37,0.741-0.754,1.096-1.146
					c6.237-9.311,4.759-18.367,4.759-31.023C95.905,14.322,79.564,5.026,53.025,5.026z"/>
				<g>
					<g>
						<path id="XMLID_253_" style="fill-rule:evenodd;clip-rule:evenodd;fill:#D3A171;" d="M67.107,121.103L67.107,121.103
							c0,11.356-28.109,11.356-28.109,0l0,0C38.998,109.746,67.107,109.746,67.107,121.103z"/>
						<path style="fill:#EFC392;stroke:#994900;stroke-linecap:round;stroke-linejoin:round;stroke-miterlimit:10;" d="
							M53.241,20.725c0,0,24.127,0,26.879,0s9.57,4.345,10.277,26.225c1.394,42.89-0.443,54.092-15.809,70.3
							c-7.084,7.469-14.56,10.699-21.347,10.699c-6.599,0-14.267-3.23-21.35-10.699c-15.368-16.208-17.205-27.41-15.812-70.3
							c0.71-21.88,7.525-26.225,10.278-26.225C29.109,20.725,53.241,20.725,53.241,20.725z"/>
						<g>
							<g>
								<path style="fill:#834C2E;" d="M79.048,57.93c-0.245-0.129-0.675-0.253-1.2-0.452c-0.528-0.194-1.164-0.441-1.91-0.604
									c-1.449-0.444-3.273-0.672-5.054-0.804c-3.597-0.174-7.009,0.571-7.604,0.7c-1.258,0.188-3.036,0.86-4.003-1.035
									c-0.537-0.978,0.439-1.957,1.931-2.597c1.488-0.663,3.486-0.97,4.931-1.054c1.437-0.132,4.579-0.042,7.505,0.711
									c0.727,0.208,1.452,0.385,2.124,0.616c0.666,0.256,1.299,0.498,1.881,0.72c1.12,0.523,2.004,0.987,2.482,1.242
									c0.905,0.621,1.948,1.192,2.616,1.939c0.694,0.714,1.141,1.383,1.057,1.912C83.591,60.294,81.098,58.785,79.048,57.93z"/>
							</g>
						</g>
						<g>
							<g>
								<path style="fill:#834C2E;" d="M26.998,57.93c0.245-0.129,0.676-0.253,1.2-0.452c0.53-0.194,1.165-0.441,1.91-0.604
									c1.45-0.444,3.275-0.672,5.054-0.804c3.598-0.174,7.01,0.571,7.606,0.7c1.255,0.188,3.036,0.86,4.003-1.035
									c0.537-0.978-0.439-1.957-1.931-2.597c-1.491-0.663-3.486-0.97-4.931-1.054c-1.439-0.132-4.582-0.042-7.508,0.711
									c-0.725,0.208-1.452,0.385-2.122,0.616c-0.668,0.256-1.3,0.498-1.881,0.72c-1.122,0.523-2.006,0.987-2.484,1.242
									c-0.904,0.621-1.947,1.192-2.616,1.939c-0.694,0.714-1.141,1.383-1.057,1.912C22.457,60.294,24.949,58.785,26.998,57.93z"/>
							</g>
						</g>
						<g id="XMLID_238_">
							<g id="XMLID_244_">
								<path id="XMLID_252_" style="fill:#FFFFFF;" d="M33.266,62.405c-11.287,2.986-10.795,19.099,1.467,19.067
									C46.995,81.44,46.4,58.93,33.266,62.405z"/>
								
									<ellipse id="XMLID_251_" transform="matrix(0.0209 -0.9998 0.9998 0.0209 -37.7554 104.7938)" cx="34.627" cy="71.674" rx="6.027" ry="4.772"/>
								
									<ellipse id="XMLID_250_" transform="matrix(0.0209 -0.9998 0.9998 0.0209 -37.0067 99.4311)" style="fill:#FFFFFF;" cx="32.263" cy="68.61" rx="2.846" ry="2.846"/>
								
									<ellipse id="XMLID_249_" transform="matrix(0.0209 -0.9998 0.9998 0.0209 -38.7133 108.9075)" style="fill:#FFFFFF;" cx="36.248" cy="74.22" rx="1.088" ry="1.088"/>
							</g>
							<g id="XMLID_239_">
								<path id="XMLID_243_" style="fill:#FFFFFF;" d="M72.969,62.496c11.152,3.456,9.987,19.534-2.263,18.989
									C58.456,80.94,59.992,58.475,72.969,62.496z"/>
								
									<ellipse id="XMLID_242_" transform="matrix(0.0209 -0.9998 0.9998 0.0209 -1.47 141.9188)" cx="71.724" cy="71.71" rx="6.027" ry="4.772"/>
								
									<ellipse id="XMLID_241_" transform="matrix(0.0209 -0.9998 0.9998 0.0209 -0.7208 136.5562)" style="fill:#FFFFFF;" cx="69.36" cy="68.646" rx="2.846" ry="2.846"/>
								
									<ellipse id="XMLID_240_" transform="matrix(0.0209 -0.9998 0.9998 0.0209 -2.4278 146.0326)" style="fill:#FFFFFF;" cx="73.346" cy="74.256" rx="1.088" ry="1.088"/>
							</g>
						</g>
						<path id="XMLID_237_" style="fill:#C4884D;" d="M48.03,92.7c0.599-0.795,2.386,1.372,5.117,1.549
							c2.731,0.178,3.933-2.721,5.126-2.036c1.193,0.686-1.206,4.435-5.303,4.766C48.872,97.311,47.516,93.381,48.03,92.7z"/>
						<g>
							<path d="M26.176,68.58c0.764-1.735,2.052-3.039,3.48-3.863c1.428-0.824,2.996-1.198,4.56-1.378
								c1.433-0.165,2.904-0.169,4.281,0.363c2.156,0.833,3.882,2.901,5.278,5.142c-0.135-0.478-0.31-0.937-0.51-1.378
								c-1.628-3.602-4.114-5.859-8.149-5.999c-2.12-0.074-4.231,0.555-6.112,1.768c-0.877,0.565-1.873,1.253-2.583,2.129
								c-0.325,0.401-0.35,0.502-0.365,1.093C26.044,66.945,26.358,68.167,26.176,68.58z"/>
							<path d="M25.92,66.946c-1.144,0.791-2.765,0.196-3.383-1.242c0.008,0.127,0.033,0.251,0.061,0.373
								c0.205,0.866,0.66,1.658,1.3,2.081c0.64,0.423,1.464,0.435,2.07-0.061c0.519-0.425,0.877-1.286,0.706-2.047
								C26.485,66.354,26.224,66.737,25.92,66.946z"/>
							<path d="M26.066,66.102c-1.305,0.114-2.572-1.279-2.644-2.908c-0.035,0.119-0.056,0.245-0.071,0.37
								c-0.109,0.893,0.036,1.85,0.473,2.571c0.436,0.72,1.18,1.165,1.897,1.035c0.615-0.112,1.231-0.703,1.334-1.483
								C26.779,65.863,26.412,66.072,26.066,66.102z"/>
						</g>
						<g>
							<path d="M79.662,68.621c-0.764-1.735-2.052-3.039-3.48-3.863c-1.428-0.824-2.996-1.198-4.56-1.378
								c-1.433-0.165-2.904-0.169-4.281,0.363c-2.156,0.833-3.882,2.901-5.278,5.142c0.135-0.478,0.31-0.937,0.51-1.378
								c1.628-3.602,4.114-5.859,8.149-5.999c2.12-0.074,4.231,0.555,6.112,1.768c0.877,0.565,1.873,1.253,2.583,2.129
								c0.325,0.401,0.351,0.502,0.365,1.093C79.794,66.985,79.48,68.208,79.662,68.621z"/>
							<path d="M79.918,66.987c1.144,0.791,2.765,0.196,3.383-1.242c-0.008,0.127-0.033,0.251-0.061,0.373
								c-0.205,0.866-0.66,1.658-1.3,2.081c-0.64,0.423-1.464,0.435-2.07-0.061c-0.519-0.425-0.877-1.286-0.706-2.047
								C79.353,66.395,79.615,66.777,79.918,66.987z"/>
							<path d="M79.772,66.143c1.305,0.114,2.572-1.279,2.644-2.908c0.035,0.119,0.056,0.245,0.071,0.37
								c0.109,0.893-0.036,1.85-0.473,2.571c-0.436,0.72-1.18,1.165-1.897,1.035c-0.615-0.112-1.231-0.703-1.334-1.483
								C79.06,65.904,79.426,66.112,79.772,66.143z"/>
						</g>
						<g>
							<path style="fill-rule:evenodd;clip-rule:evenodd;fill:#E54C3A;" d="M40.694,105.757c8.491-0.189,16.415-0.189,24.906,0
								c-3.208,0.283-5.943,8.019-12.264,8.019C47.015,113.775,43.902,106.04,40.694,105.757L40.694,105.757z"/>
							<path style="fill-rule:evenodd;clip-rule:evenodd;" d="M41.637,105.568c3.491-0.566,7.17,5.377,11.509,5.377
								c4.434,0,8.019-5.943,11.604-5.377c-3.113-0.283-8.962-3.868-11.604-2.358l0,0C50.505,101.7,44.656,105.285,41.637,105.568
								L41.637,105.568z"/>
							<path style="fill-rule:evenodd;clip-rule:evenodd;fill:#FFFFFF;" d="M61.071,104.53c-2.83-1.038-6.132-2.358-7.924-1.321l0,0
								c-1.792-1.038-5,0.283-7.924,1.321c1.792,0.755,4.623,1.321,7.924,1.321C56.449,105.851,59.373,105.285,61.071,104.53
								L61.071,104.53z"/>
							<path style="fill-rule:evenodd;clip-rule:evenodd;fill:#E54C3A;" d="M38.43,104.436c0,0,0.943,2.264,5.66,1.226
								c4.717-1.038,5.189-2.359,7.83-2.076c0.377,0,0.755,0.377,1.132,0.377c0.377,0,0.849-0.377,1.226-0.377
								c2.547-0.283,3.113,1.038,7.736,2.076c4.717,1.038,5.66-1.226,5.66-1.226c-4.717,3.019-10.566-5.66-14.623-3.585
								C48.996,98.775,43.147,107.455,38.43,104.436L38.43,104.436z"/>
						</g>
					</g>
				</g>
				<g>
					<path style="fill:#834C2E;" d="M97.382,61.521h0.964C105.074,0.595,53.941,3.032,53.941,3.032l-0.667,4.349l-0.667-4.349
						c0,0-51.134-2.437-44.406,58.489h0.964l-1.609,0.663c0,0,7.376-1.556,7.83,7.126c1.995-5.268,6.117-9.637,11.501-12.328
						c8.115-4.057,20.229-11.946,26.387-24.912c6.158,12.966,18.272,20.855,26.387,24.912c5.384,2.692,9.506,7.06,11.501,12.328
						c0.454-8.682,7.83-7.126,7.83-7.126L97.382,61.521z"/>
				</g>
			</g>
		</g>
	</g>
</g>
</svg>
