<?xml version="1.0" encoding="utf-8"?>
<!-- Generator: Adobe Illustrator 21.0.0, SVG Export Plug-In . SVG Version: 6.00 Build 0)  -->
<svg version="1.1" id="Capa_1" xmlns="http://www.w3.org/2000/svg" xmlns:xlink="http://www.w3.org/1999/xlink" x="0px" y="0px"
	 viewBox="0 0 69.453 25.122" style="enable-background:new 0 0 69.453 25.122;" xml:space="preserve">
<g>
	<g>
		<rect x="67.663" y="3.754" style="fill:#333333;" width="0.677" height="11.46"/>
		<polygon style="fill:#E6E6E6;" points="23.826,11.488 39.21,11.488 40.974,13.253 40.974,16.005 23.459,16.005 23.459,11.488 		
			"/>
		<g>
			
				<rect x="44.799" y="11.22" transform="matrix(0.7739 -0.6333 0.6333 0.7739 5.5005 39.2031)" style="fill:#333333;" width="25.715" height="1.355"/>
		</g>
		<g>
			
				<rect x="53.161" y="11.757" transform="matrix(0.4693 -0.883 0.883 0.4693 22.4472 62.2205)" style="fill:#333333;" width="19.661" height="1.355"/>
		</g>
		<rect x="14.737" y="6.549" style="fill:#E6E6E6;" width="9.089" height="11.037"/>
		<rect x="13.636" y="5.137" style="fill:#EC971F;" width="11.234" height="1.411"/>
		<circle style="fill:#EC971F;" cx="67.606" cy="3.754" r="1.44"/>
		<polygon style="fill:#E6E6E6;" points="35.964,0 31.334,0 31.194,1.506 35.964,1.506 		"/>
		<polygon style="fill:#002856;" points="35.964,3.23 31.033,3.23 30.262,11.488 35.964,11.488 35.964,5.363 		"/>
		<polygon style="fill:#E6E6E6;" points="35.964,5.363 35.964,11.488 38.561,11.488 		"/>
		<polygon style="fill:#EC971F;" points="35.964,1.506 31.194,1.506 31.033,3.23 35.964,3.23 		"/>
		<rect x="67.105" y="14.008" style="fill:#EC971F;" width="1.75" height="2.456"/>
		<rect x="67.493" y="16.464" style="fill:#EC971F;" width="0.975" height="1.124"/>
		<path style="fill:#333333;" d="M68.886,19.598c-0.127,0.194-0.34,0.309-0.571,0.309c-0.375,0-0.681-0.306-0.681-0.681
			c0-0.375,0.305-0.681,0.681-0.681v-0.339h0.004v-0.619h-0.677v0.467c-0.407,0.235-0.684,0.67-0.684,1.172
			c0,0.749,0.609,1.359,1.358,1.359c0.46,0,0.886-0.23,1.138-0.616L68.886,19.598z"/>
		<g>
			<path style="fill:#E72919;" d="M47.678,14.876c0,0-37.175,1.186-47.676-4.827c0,0-0.106,3.147,1.125,6.614
				c1.399,0.436,2.969,0.865,4.65,1.226c2.632,0.566,5.54,0.967,8.508,0.967h35.002L47.678,14.876z"/>
			<path d="M64.022,18.856H49.287H14.285c-2.968,0-5.876-0.401-8.508-0.967c-1.681-0.362-3.251-0.79-4.65-1.226
				c1.209,3.405,3.707,7.117,8.868,8.46H21.79h37.88h7.146L64.022,18.856z"/>
		</g>
		<g>
			<rect x="15.452" y="7.635" style="fill:#4D4D4D;" width="1.584" height="3.853"/>
			<rect x="17.511" y="7.635" style="fill:#4D4D4D;" width="1.584" height="3.853"/>
			<rect x="19.57" y="7.635" style="fill:#4D4D4D;" width="1.584" height="3.853"/>
			<rect x="21.629" y="7.635" style="fill:#4D4D4D;" width="1.584" height="3.853"/>
		</g>
		<g>
			<rect x="32.424" y="12.226" style="fill:#4D4D4D;" width="1.393" height="1.926"/>
			<rect x="34.235" y="12.226" style="fill:#4D4D4D;" width="1.393" height="1.926"/>
			<rect x="36.046" y="12.226" style="fill:#4D4D4D;" width="1.393" height="1.926"/>
			<rect x="37.856" y="12.226" style="fill:#4D4D4D;" width="1.393" height="1.926"/>
			<rect x="25.138" y="12.226" style="fill:#4D4D4D;" width="1.393" height="1.926"/>
			<rect x="26.949" y="12.226" style="fill:#4D4D4D;" width="1.393" height="1.926"/>
			<rect x="28.76" y="12.226" style="fill:#4D4D4D;" width="1.393" height="1.926"/>
			<rect x="30.57" y="12.226" style="fill:#4D4D4D;" width="1.393" height="1.926"/>
		</g>
	</g>
	<g>
		<path style="fill:#EC971F;" d="M32.145,22.146c-1.476,0-2.677-1.201-2.677-2.677c0-1.476,1.201-2.677,2.677-2.677
			c1.476,0,2.677,1.201,2.677,2.677C34.822,20.945,33.621,22.146,32.145,22.146z M32.145,18.379c-0.601,0-1.09,0.489-1.09,1.09
			s0.489,1.09,1.09,1.09c0.601,0,1.09-0.489,1.09-1.09S32.747,18.379,32.145,18.379z"/>
	</g>
	<g>
		<path style="fill:#EC971F;" d="M37.818,22.146c-1.476,0-2.677-1.201-2.677-2.677c0-1.476,1.201-2.677,2.677-2.677
			c1.476,0,2.677,1.201,2.677,2.677C40.495,20.945,39.294,22.146,37.818,22.146z M37.818,18.379c-0.601,0-1.09,0.489-1.09,1.09
			s0.489,1.09,1.09,1.09s1.09-0.489,1.09-1.09S38.42,18.379,37.818,18.379z"/>
	</g>
	<g>
		<path style="fill:#EC971F;" d="M43.492,22.146c-1.476,0-2.677-1.201-2.677-2.677c0-1.476,1.201-2.677,2.677-2.677
			c1.476,0,2.677,1.201,2.677,2.677C46.168,20.945,44.967,22.146,43.492,22.146z M43.492,18.379c-0.601,0-1.09,0.489-1.09,1.09
			s0.489,1.09,1.09,1.09c0.601,0,1.09-0.489,1.09-1.09S44.093,18.379,43.492,18.379z"/>
	</g>
</g>
</svg>
