<?xml version="1.0" encoding="utf-8"?>
<!-- Generator: Adobe Illustrator 21.0.0, SVG Export Plug-In . SVG Version: 6.00 Build 0)  -->
<svg version="1.1" id="Capa_1" xmlns="http://www.w3.org/2000/svg" xmlns:xlink="http://www.w3.org/1999/xlink" x="0px" y="0px"
	 viewBox="0 0 70.622 70.622" style="enable-background:new 0 0 70.622 70.622;" xml:space="preserve">
<g id="XMLID_451_">
	<circle id="XMLID_460_" style="opacity:0.2;fill:#F1C40D;" cx="35.311" cy="35.311" r="35.311"/>
	<circle id="XMLID_459_" style="opacity:0.3;fill:#F1C40D;" cx="35.311" cy="35.311" r="29.396"/>
	<g id="XMLID_452_">
		<path id="XMLID_456_" style="opacity:0.8;fill:#FFAA00;" d="M14.495,35.111l-5.488,4.606l6.732,2.451l-3.582,6.205l7.166,0
			l-1.244,7.057l6.733-2.45l1.245,7.056l5.49-4.606l3.583,6.206l3.583-6.206l5.489,4.606l1.245-7.057l6.733,2.451l-1.244-7.057
			l7.166,0l-3.583-6.206l6.733-2.451l-5.488-4.606l5.488-4.606l-6.733-2.451l3.583-6.205l-7.166,0l1.244-7.056l-6.733,2.45
			l-1.245-7.056l-5.489,4.605l-3.583-6.205l-3.583,6.205l-5.489-4.605l-1.245,7.056l-6.733-2.45l1.243,7.056l-7.165,0.001
			l3.582,6.206l-6.732,2.451L14.495,35.111z"/>
		<circle id="XMLID_453_" style="opacity:0.8;fill:#FFC907;" cx="35.128" cy="35.112" r="19.752"/>
	</g>
</g>
</svg>
