<?xml version="1.0" encoding="utf-8"?>
<!-- Generator: Adobe Illustrator 21.0.0, SVG Export Plug-In . SVG Version: 6.00 Build 0)  -->
<svg version="1.1" id="Capa_1" xmlns="http://www.w3.org/2000/svg" xmlns:xlink="http://www.w3.org/1999/xlink" x="0px" y="0px"
	 viewBox="0 0 728.883 296.274" style="enable-background:new 0 0 728.883 296.274;" xml:space="preserve">
<g>
	<g style="opacity:0.5;">
		<path id="XMLID_457_" style="fill:#FFFFFF;" d="M64.213,61.047c4.791,0,9.175-1.728,12.573-4.591
			c2.857,5.181,8.368,8.693,14.702,8.693c4.12,0,7.888-1.49,10.809-3.954c2.501,1.479,5.407,2.343,8.523,2.343
			c5.318,0,10.049-2.481,13.124-6.34c2.22,3.81,6.34,6.378,11.068,6.378c5.036,0,9.381-2.912,11.476-7.138
			c2.986,2.734,6.95,4.416,11.317,4.416c9.269,0,16.782-7.513,16.782-16.782c0-2.595-0.606-5.042-1.658-7.236
			c-2.704-5.641-8.45-9.546-15.124-9.546c-3.236,0-6.247,0.932-8.811,2.519c-2.349-2.897-5.933-4.752-9.954-4.752
			c-0.556,0-1.099,0.047-1.636,0.116c-0.313,0.04-0.626,0.08-0.931,0.142c-0.161-1.306-0.512-2.551-1.028-3.709
			c-2.044-4.587-6.636-7.79-11.983-7.79c-0.79,0-1.559,0.082-2.311,0.216c-0.256,0.045-0.509,0.1-0.759,0.16
			c-0.3-1.442-0.775-2.82-1.4-4.111C116.103,4.114,109.992,0,102.918,0c-6.194,0-11.649,3.155-14.85,7.945
			c-1.856-0.707-3.861-1.111-5.965-1.111c-8.732,0-15.902,6.672-16.702,15.196c-0.393-0.024-0.789-0.039-1.188-0.039
			c-10.785,0-19.528,8.743-19.528,19.528c0,4.226,1.347,8.136,3.63,11.332C51.856,57.81,57.654,61.047,64.213,61.047z
			 M126.373,39.721c0.066,0.458,0.156,0.907,0.27,1.348c-0.013,0.011-0.025,0.023-0.038,0.034c-0.16-0.445-0.333-0.883-0.529-1.31
			C126.177,39.773,126.273,39.743,126.373,39.721z"/>
	</g>
	<path id="XMLID_454_" style="opacity:0.5;fill:#FFFFFF;" d="M579.763,75.671c3.592,0,6.823-1.515,9.113-3.93
		c3.479,2.573,7.768,4.113,12.427,4.113c6.719,0,12.684-3.176,16.517-8.095c2.651,3.015,6.527,4.927,10.857,4.927
		c4.12,0,7.828-1.729,10.464-4.492c2.935,2.777,6.886,4.492,11.244,4.492c4.475,0,8.525-1.798,11.481-4.707
		c3.824,3.238,8.769,5.194,14.172,5.194c4.479,0,8.643-1.345,12.115-3.648c2.194,1.339,4.763,2.124,7.521,2.124
		c3.794,0,7.236-1.471,9.817-3.86c2.185,3.709,6.208,6.205,10.824,6.205c6.94,0,12.567-5.627,12.567-12.568
		c0-1.668-0.332-3.255-0.922-4.712c-1.864-4.604-6.372-7.856-11.646-7.856c-2.78,0-5.342,0.914-7.423,2.443
		c-2.142-4.812-6.828-8.226-12.352-8.553c-0.084-0.005-0.167-0.009-0.251-0.013c-0.149-0.354-0.306-0.704-0.472-1.048
		c-3.549-7.349-11.072-12.419-19.779-12.419c-3.926,0-7.607,1.036-10.796,2.841c-0.198,0.112-0.398,0.223-0.593,0.341
		c-0.254-0.974-0.585-1.915-0.995-2.815c-2.76-6.053-8.849-10.269-15.934-10.269c-7.949,0-14.652,5.298-16.795,12.553
		c-0.967-0.23-1.971-0.366-3.009-0.366c-5.509,0-10.202,3.446-12.073,8.295c-3.768-3.639-8.888-5.888-14.54-5.888
		c-10.087,0-18.504,7.132-20.495,16.627c-0.346-0.028-0.692-0.053-1.045-0.053c-6.941,0-12.568,5.627-12.568,12.568
		c0,3.07,1.104,5.88,2.932,8.063C572.433,73.919,575.892,75.671,579.763,75.671z"/>
	<path style="opacity:0.5;fill:#FFFFFF;" d="M0,215.45c0,7.15,5.797,12.947,12.948,12.947c1.066,0,2.097-0.143,3.087-0.386
		c2.29,3.088,5.951,5.098,10.091,5.098c3.879,0,7.346-1.76,9.651-4.523c3.111,2.452,7.028,3.926,11.297,3.926
		c6.156,0,11.591-3.054,14.903-7.72c3.716,3.366,8.63,5.434,14.039,5.434c4.531,0,8.715-1.454,12.143-3.9
		c3.695,3.27,8.539,5.271,13.861,5.271c0.602,0,1.194-0.038,1.783-0.088c2.225,1.804,5.057,2.888,8.145,2.888
		c1.066,0,2.097-0.143,3.087-0.386c2.29,3.088,5.951,5.098,10.091,5.098c3.879,0,7.346-1.76,9.651-4.523
		c3.111,2.452,7.028,3.926,11.297,3.926c6.156,0,11.591-3.054,14.903-7.72c3.716,3.366,8.63,5.434,14.039,5.434
		c4.531,0,8.715-1.454,12.143-3.9c3.695,3.27,8.539,5.271,13.861,5.271c4.793,0,9.194-1.63,12.722-4.342
		c1.119-0.043,2.208-0.199,3.255-0.461c3.302,2.181,7.25,3.462,11.504,3.462c5.928,0,11.271-2.473,15.081-6.432
		c3.811,3.958,9.152,6.432,15.081,6.432c2.349,0,4.601-0.399,6.708-1.115c2.369,2.608,5.776,4.255,9.577,4.255
		c1.066,0,2.097-0.143,3.087-0.386c2.29,3.088,5.951,5.098,10.091,5.098c3.879,0,7.346-1.76,9.651-4.523
		c3.111,2.452,7.028,3.926,11.297,3.926c6.156,0,11.591-3.054,14.903-7.72c3.716,3.366,8.63,5.434,14.039,5.434
		c4.531,0,8.715-1.454,12.143-3.9c3.695,3.27,8.539,5.271,13.861,5.271c5.637,0,10.743-2.238,14.509-5.861
		c3.569,2.822,8.068,4.52,12.973,4.52c2.833,0,5.531-0.57,7.993-1.593c1.901,1.096,4.101,1.733,6.453,1.733
		c1.066,0,2.097-0.143,3.087-0.386c2.29,3.088,5.951,5.098,10.091,5.098c3.879,0,7.346-1.76,9.651-4.523
		c3.111,2.452,7.028,3.926,11.297,3.926c4.483,0,8.578-1.625,11.755-4.306c1.736-0.461,3.382-1.133,4.91-1.998
		c3.45,2.514,7.681,4.018,12.277,4.018c0.128,0,0.252-0.013,0.38-0.015c1.777,0.682,3.704,1.063,5.722,1.063
		c3.332,0,6.417-1.027,8.975-2.773c3.18,1.959,6.917,3.097,10.927,3.097c5.637,0,10.743-2.238,14.509-5.861
		c3.569,2.822,8.068,4.52,12.973,4.52c5.928,0,11.271-2.473,15.081-6.432c3.811,3.958,9.152,6.432,15.081,6.432
		c4.446,0,8.56-1.395,11.952-3.757c3.549,2.765,8,4.427,12.848,4.427c5.693,0,10.849-2.279,14.625-5.965
		c2.718,4.953,7.981,8.313,14.03,8.313c5.133,0,9.689-2.427,12.616-6.187c2.11-2.71,3.379-6.108,3.379-9.809
		c0-8.834-7.161-15.995-15.995-15.995c-2.792,0-5.414,0.718-7.698,1.975c0.051-0.525,0.081-1.057,0.081-1.596
		c0-8.6-6.634-15.638-15.061-16.31c1.061-2.133,1.673-4.529,1.673-7.074c0-8.834-7.161-15.995-15.995-15.995
		c-2.792,0-5.414,0.718-7.698,1.975c0.051-0.525,0.081-1.057,0.081-1.596c0-9.044-7.332-16.376-16.376-16.376
		c-2.521,0-4.898,0.586-7.03,1.603c-1.277-10.346-10.081-18.359-20.771-18.359c-1.792,0-3.522,0.249-5.182,0.673
		c-2.466-10.851-12.165-18.953-23.762-18.953c-5.163,0-9.942,1.617-13.882,4.357c-2.452-1.464-5.309-2.321-8.372-2.321
		c-2.521,0-4.898,0.586-7.03,1.603c-1.277-10.346-10.081-18.359-20.771-18.359c-1.792,0-3.522,0.249-5.182,0.673
		c-0.436-1.917-1.108-3.742-1.965-5.458c3.443-0.905,6.432-2.927,8.558-5.658c2.11-2.71,3.379-6.108,3.379-9.809
		c0-8.834-7.161-15.995-15.995-15.995c-2.792,0-5.414,0.718-7.698,1.975c0.051-0.525,0.081-1.057,0.081-1.596
		c0-9.044-7.332-16.376-16.376-16.376c-2.521,0-4.897,0.586-7.03,1.603c-1.277-10.346-10.081-18.359-20.771-18.359
		c-1.792,0-3.522,0.249-5.183,0.673c-2.466-10.851-12.165-18.953-23.762-18.953c-9.584,0-17.872,5.535-21.854,13.58
		c-0.407,0.823-0.771,1.67-1.084,2.542c-0.132-0.068-0.269-0.128-0.402-0.194c-2.783-1.368-5.902-2.157-9.213-2.157
		c-8.33,0-15.501,4.874-18.877,11.914c-0.35,0.729-0.661,1.479-0.926,2.251c-0.101-0.13-0.192-0.268-0.296-0.396
		c-3.84-4.751-9.708-7.795-16.292-7.795c-8.329,0-15.501,4.874-18.877,11.914c-1.07,2.232-1.763,4.674-1.979,7.259
		c-0.424-0.206-0.854-0.398-1.296-0.571c-2.064-0.809-4.305-1.269-6.656-1.269c-6.34,0-11.909,3.24-15.184,8.145
		c-4.464-5.612-11.335-9.223-19.064-9.223c-9.584,0-17.872,5.535-21.854,13.58c-0.407,0.823-0.771,1.67-1.084,2.542
		c-0.132-0.068-0.269-0.128-0.402-0.194c-2.783-1.368-5.902-2.157-9.213-2.157c-8.33,0-15.501,4.874-18.877,11.914
		c-0.35,0.729-0.661,1.479-0.926,2.251c-0.101-0.13-0.192-0.268-0.296-0.396c-3.84-4.751-9.708-7.795-16.292-7.795
		c-8.329,0-15.501,4.874-18.877,11.914c-1.07,2.232-1.763,4.674-1.979,7.259c-0.424-0.206-0.854-0.398-1.296-0.571
		c-2.064-0.809-4.305-1.269-6.656-1.269c-7.361,0-13.69,4.361-16.587,10.632c-0.729,1.579-1.235,3.276-1.489,5.059
		c-0.364-0.105-0.732-0.2-1.109-0.273c-0.808-0.158-1.641-0.246-2.494-0.246c-5.412,0-10.042,3.322-11.978,8.036
		C82.349,120.054,82,121.711,82,123.45c0,7.15,5.797,12.947,12.948,12.947c1.066,0,2.097-0.143,3.087-0.386
		c2.29,3.088,5.951,5.098,10.091,5.098c2.877,0,5.525-0.972,7.643-2.6c-0.068,0.135-0.144,0.264-0.21,0.401
		c-1.07,2.232-1.763,4.674-1.979,7.259c-0.424-0.206-0.854-0.398-1.296-0.571c-2.064-0.809-4.305-1.269-6.656-1.269
		c-7.361,0-13.69,4.361-16.587,10.632c-0.729,1.579-1.235,3.276-1.489,5.059c-0.364-0.105-0.732-0.2-1.109-0.273
		c-0.808-0.158-1.641-0.246-2.494-0.246c-5.412,0-10.042,3.322-11.978,8.036c-0.5,1.217-0.812,2.528-0.92,3.897
		c-2.36-0.924-4.926-1.439-7.614-1.439c-8.329,0-15.501,4.874-18.877,11.914c-1.07,2.232-1.763,4.674-1.979,7.259
		c-0.424-0.206-0.854-0.398-1.296-0.571c-2.064-0.809-4.305-1.269-6.656-1.269c-7.361,0-13.69,4.361-16.587,10.632
		c-0.729,1.579-1.235,3.276-1.489,5.059c-0.364-0.105-0.732-0.2-1.109-0.273c-0.808-0.158-1.641-0.246-2.494-0.246
		c-5.412,0-10.042,3.322-11.978,8.036C0.349,212.054,0,213.711,0,215.45z"/>
	<path style="opacity:0.5;fill:#FFFFFF;" d="M12,265.45c0,7.15,5.797,12.947,12.948,12.947c1.066,0,2.097-0.143,3.087-0.386
		c2.29,3.088,5.951,5.098,10.091,5.098c3.879,0,7.346-1.76,9.651-4.523c3.111,2.452,7.028,3.926,11.297,3.926
		c6.156,0,11.591-3.054,14.903-7.72c3.716,3.366,8.63,5.434,14.039,5.434c4.531,0,8.715-1.454,12.143-3.9
		c3.695,3.27,8.539,5.271,13.861,5.271c0.602,0,1.194-0.038,1.783-0.088c2.225,1.804,5.057,2.888,8.145,2.888
		c1.066,0,2.097-0.143,3.087-0.386c2.29,3.088,5.951,5.098,10.091,5.098c3.879,0,7.346-1.76,9.651-4.523
		c3.111,2.452,7.028,3.926,11.297,3.926c6.156,0,11.591-3.054,14.903-7.72c3.716,3.366,8.63,5.434,14.039,5.434
		c4.531,0,8.715-1.454,12.143-3.9c3.695,3.27,8.539,5.271,13.861,5.271c4.793,0,9.194-1.63,12.722-4.342
		c1.119-0.043,2.208-0.199,3.255-0.461c3.302,2.181,7.25,3.462,11.504,3.462c5.928,0,11.271-2.473,15.081-6.432
		c3.811,3.958,9.152,6.432,15.081,6.432c2.349,0,4.601-0.399,6.708-1.115c2.369,2.608,5.776,4.255,9.577,4.255
		c1.066,0,2.097-0.143,3.087-0.386c2.29,3.088,5.951,5.098,10.091,5.098c3.879,0,7.346-1.76,9.651-4.523
		c3.111,2.452,7.028,3.926,11.297,3.926c6.156,0,11.591-3.054,14.903-7.72c3.716,3.366,8.63,5.434,14.039,5.434
		c4.531,0,8.715-1.454,12.143-3.9c3.695,3.27,8.539,5.271,13.861,5.271c5.637,0,10.743-2.238,14.509-5.861
		c3.569,2.822,8.068,4.52,12.973,4.52c2.833,0,5.531-0.57,7.993-1.593c1.901,1.096,4.101,1.733,6.453,1.733
		c1.066,0,2.097-0.143,3.087-0.386c2.29,3.088,5.951,5.098,10.091,5.098c3.879,0,7.346-1.76,9.651-4.523
		c3.111,2.452,7.028,3.926,11.297,3.926c4.483,0,8.578-1.625,11.755-4.306c1.736-0.461,3.382-1.133,4.91-1.998
		c3.45,2.514,7.681,4.018,12.277,4.018c0.128,0,0.252-0.013,0.38-0.015c1.777,0.682,3.704,1.063,5.722,1.063
		c3.332,0,6.417-1.027,8.975-2.773c3.18,1.959,6.917,3.097,10.927,3.097c5.637,0,10.743-2.238,14.509-5.861
		c3.569,2.822,8.068,4.52,12.973,4.52c5.928,0,11.271-2.473,15.081-6.432c3.811,3.958,9.152,6.432,15.081,6.432
		c4.446,0,8.56-1.395,11.952-3.757c3.549,2.765,8,4.427,12.848,4.427c5.693,0,10.849-2.279,14.625-5.965
		c2.718,4.953,7.981,8.313,14.03,8.313c5.133,0,9.689-2.427,12.616-6.187c2.11-2.71,3.379-6.108,3.379-9.809
		c0-8.834-7.161-15.995-15.995-15.995c-2.792,0-5.414,0.718-7.698,1.975c0.051-0.525,0.081-1.057,0.081-1.596
		c0-8.6-6.634-15.638-15.061-16.31c1.061-2.133,1.673-4.529,1.673-7.074c0-8.834-7.161-15.995-15.995-15.995
		c-2.792,0-5.414,0.718-7.698,1.975c0.051-0.525,0.081-1.057,0.081-1.596c0-9.044-7.332-16.376-16.376-16.376
		c-2.521,0-4.898,0.586-7.03,1.603c-1.277-10.346-10.081-18.359-20.771-18.359c-1.792,0-3.522,0.249-5.182,0.673
		c-2.466-10.851-12.165-18.953-23.762-18.953c-5.163,0-9.942,1.617-13.882,4.357c-2.452-1.464-5.309-2.321-8.372-2.321
		c-2.521,0-4.898,0.586-7.03,1.603c-1.277-10.346-10.081-18.359-20.771-18.359c-1.792,0-3.522,0.249-5.182,0.673
		c-0.436-1.917-1.108-3.742-1.965-5.458c3.443-0.905,6.432-2.927,8.558-5.658c2.11-2.71,3.379-6.108,3.379-9.809
		c0-8.834-7.161-15.995-15.995-15.995c-2.792,0-5.414,0.718-7.698,1.975c0.051-0.525,0.081-1.057,0.081-1.596
		c0-9.044-7.332-16.376-16.376-16.376c-2.521,0-4.897,0.586-7.03,1.603c-1.277-10.346-10.081-18.359-20.771-18.359
		c-1.792,0-3.522,0.249-5.183,0.673c-2.466-10.851-12.165-18.953-23.762-18.953c-9.584,0-17.872,5.535-21.854,13.58
		c-0.407,0.823-0.771,1.67-1.084,2.542c-0.132-0.068-0.269-0.128-0.402-0.194c-2.783-1.368-5.902-2.157-9.213-2.157
		c-8.33,0-15.501,4.874-18.877,11.914c-0.35,0.729-0.661,1.479-0.926,2.251c-0.101-0.13-0.192-0.268-0.296-0.396
		c-3.84-4.751-9.708-7.795-16.292-7.795c-8.329,0-15.501,4.874-18.877,11.914c-1.07,2.232-1.763,4.674-1.979,7.259
		c-0.424-0.206-0.854-0.398-1.296-0.571c-2.064-0.809-4.305-1.269-6.656-1.269c-6.34,0-11.909,3.24-15.184,8.145
		c-4.464-5.612-11.335-9.223-19.064-9.223c-9.584,0-17.872,5.535-21.854,13.58c-0.407,0.823-0.771,1.67-1.084,2.542
		c-0.132-0.068-0.269-0.128-0.402-0.194c-2.783-1.368-5.902-2.157-9.213-2.157c-8.33,0-15.501,4.874-18.877,11.914
		c-0.35,0.729-0.661,1.479-0.926,2.251c-0.101-0.13-0.192-0.268-0.296-0.396c-3.84-4.751-9.708-7.795-16.292-7.795
		c-8.329,0-15.501,4.874-18.877,11.914c-1.07,2.232-1.763,4.674-1.979,7.259c-0.424-0.206-0.854-0.398-1.296-0.571
		c-2.064-0.809-4.305-1.269-6.656-1.269c-7.361,0-13.69,4.361-16.587,10.632c-0.729,1.579-1.235,3.276-1.489,5.059
		c-0.364-0.105-0.732-0.2-1.109-0.273c-0.808-0.158-1.641-0.246-2.494-0.246c-5.412,0-10.042,3.322-11.978,8.036
		C94.349,170.054,94,171.711,94,173.45c0,7.15,5.797,12.947,12.948,12.947c1.066,0,2.097-0.143,3.087-0.386
		c2.29,3.088,5.951,5.098,10.091,5.098c2.877,0,5.525-0.972,7.643-2.6c-0.068,0.135-0.144,0.264-0.21,0.401
		c-1.07,2.232-1.763,4.674-1.979,7.259c-0.424-0.206-0.854-0.398-1.296-0.571c-2.064-0.809-4.305-1.269-6.656-1.269
		c-7.361,0-13.69,4.361-16.587,10.632c-0.729,1.579-1.235,3.276-1.489,5.059c-0.364-0.105-0.732-0.2-1.109-0.273
		c-0.808-0.158-1.641-0.246-2.494-0.246c-5.412,0-10.042,3.322-11.978,8.036c-0.5,1.217-0.812,2.528-0.92,3.897
		c-2.36-0.924-4.926-1.439-7.614-1.439c-8.329,0-15.501,4.874-18.877,11.914c-1.07,2.232-1.763,4.674-1.979,7.259
		c-0.424-0.206-0.854-0.398-1.296-0.571c-2.064-0.809-4.305-1.269-6.656-1.269c-7.361,0-13.69,4.361-16.587,10.632
		c-0.729,1.579-1.235,3.276-1.489,5.059c-0.364-0.105-0.732-0.2-1.109-0.273c-0.808-0.158-1.641-0.246-2.494-0.246
		c-5.412,0-10.042,3.322-11.978,8.036C12.349,262.054,12,263.711,12,265.45z"/>
</g>
</svg>
