<?xml version="1.0" encoding="utf-8"?>
<!-- Generator: Adobe Illustrator 21.0.0, SVG Export Plug-In . SVG Version: 6.00 Build 0)  -->
<svg version="1.1" id="Capa_1" xmlns="http://www.w3.org/2000/svg" xmlns:xlink="http://www.w3.org/1999/xlink" x="0px" y="0px"
	 viewBox="0 0 137.434 41.782" style="enable-background:new 0 0 137.434 41.782;" xml:space="preserve">
<g>
	<path style="fill:#002856;" d="M124.093,28.145V17.911h-0.914v10.417h-1.462l-1.806,1.279h-13.636h-0.823h-4.752h-4.274H69.999
		h-1.007H64.24h-4.274H33.538h-3.383H8.772v-2.376H0l2.01,14.55h128.48c1.279-2.741,6.944-15.099,6.944-15.099
		C133.414,27.78,124.093,28.145,124.093,28.145z"/>
	<path style="fill:#E72919;" d="M1.259,36.347l0.751,5.435h128.48c0.445-0.955,1.423-3.076,2.508-5.435H1.259z"/>
	<g>
		<g>
			<path style="fill:#F7931E;" d="M68.992,29.607V2.084h-0.914l-0.547,7.42h-4.661l-0.457-7.402h-1.006v22.023h2.833v5.483H68.992z
				 M67.804,14.256v8.773h-1.188L67.804,14.256z M67.438,10.783l-1.005,9.047l-0.457-9.047H67.438z M62.686,23.029v-8.773
				l1.188,8.773H62.686z M64.057,19.83l-1.006-9.047h1.462L64.057,19.83z"/>
			<path style="fill:#F7931E;" d="M105.452,29.607V2.084h-0.914l-0.548,7.42h-4.661l-0.456-7.402h-1.005v22.023h2.833v5.483H105.452
				z M104.264,14.073v8.772h-1.187L104.264,14.073z M103.898,10.601l-1.005,9.047l-0.457-9.047H103.898z M99.147,22.845v-8.772
				l1.189,8.772H99.147z M100.517,19.647l-1.005-9.047h1.462L100.517,19.647z"/>
			<path style="fill:#F7931E;" d="M31.8,2.925l-2.193,16.083L27.414,0l-1.645,3.199L9.686,11.332V8.407H8.772v18.824v2.376h1.097
				v-0.002v-6.438V12.794l8.864-4.568l2.649,9.686h1.28V6.397l3.244-1.69l1.325,11.194v2.011h1.604v5.256v6.438v0.002h1.32
				c0-0.183,0-5.483,0-5.483h2.559V2.925H31.8z M21.931,15.81l-2.193-7.951l2.193-1.188V15.81z M31.663,23.303h-1.508l1.508-12.52
				V23.303z"/>
			<g>
				<polygon style="fill:#E6E6E6;" points="22.662,29.605 27.231,29.605 28.835,29.605 28.835,17.911 27.231,17.911 27.231,15.901 
					25.403,15.901 25.403,10.783 24.124,10.783 24.124,15.901 22.662,15.901 22.662,17.911 21.382,17.911 19.92,17.911 
					19.92,19.556 16.631,19.556 16.631,21.383 15.534,21.383 15.534,13.891 12.428,13.891 12.428,21.201 9.869,21.201 9.869,29.605 
					18.899,29.605 				"/>
			</g>
			<rect x="27.517" y="20.434" style="fill:#4D4D4D;" width="1.318" height="2.733"/>
			<rect x="25.692" y="20.434" style="fill:#4D4D4D;" width="1.318" height="2.733"/>
			<rect x="23.867" y="20.434" style="fill:#4D4D4D;" width="1.318" height="2.733"/>
			<rect x="22.041" y="20.434" style="fill:#4D4D4D;" width="1.318" height="2.733"/>
			<path d="M28.835,23.83h-8.65v1.56h-1.641v-1.56H9.869v1.8h8.434l0,0v3.975h0.24V29.28h1.646v0.325h0.24V25.63l0,0h8.406V23.83z
				 M16.483,24.07h1.82v0.54h-1.82V24.07z M11.958,25.39h-1.82v-0.54h1.82V25.39z M11.958,24.61h-1.82v-0.54h1.82V24.61z
				 M14.073,25.39h-1.82v-0.54h1.82V25.39z M14.073,24.61h-1.82v-0.54h1.82V24.61z M16.188,25.39h-1.82v-0.54h1.82V25.39z
				 M16.188,24.61h-1.82v-0.54h1.82V24.61z M16.483,25.39v-0.54h1.82v0.54H16.483z M20.189,29.04h-1.646v-0.166h1.646V29.04z
				 M20.189,28.635h-1.646v-0.166h1.646V28.635z M20.189,28.229h-1.646v-0.166h1.646V28.229z M20.189,27.824h-1.646v-0.166h1.646
				V27.824z M20.189,27.418h-1.646v-0.166h1.646V27.418z M20.189,27.012h-1.646v-0.166h1.646V27.012z M20.189,26.607h-1.646v-0.166
				h1.646V26.607z M20.189,26.201h-1.646v-0.166h1.646V26.201z M20.189,25.796h-1.646V25.63h1.646V25.796z M22.249,25.39h-1.82
				v-0.54h1.82V25.39z M22.249,24.61h-1.82v-0.54h1.82V24.61z M24.364,25.39h-1.82v-0.54h1.82V25.39z M24.364,24.61h-1.82v-0.54
				h1.82V24.61z M26.479,25.39h-1.82v-0.54h1.82V25.39z M26.479,24.61h-1.82v-0.54h1.82V24.61z M28.594,25.39h-1.82v-0.54h1.82
				V25.39z M28.594,24.61h-1.82v-0.54h1.82V24.61z"/>
		</g>
		<g>
			<g>
				<g>
					<rect x="33.874" y="23.167" style="fill:#FFCC00;" width="6.438" height="6.438"/>
					<rect x="40.312" y="23.167" style="fill:#2DCC70;" width="6.438" height="6.438"/>
					<rect x="46.752" y="23.167" style="fill:#0071BC;" width="6.438" height="6.438"/>
					<rect x="53.19" y="23.167" style="fill:#D25400;" width="6.438" height="6.438"/>
				</g>
				<g>
					<rect x="33.874" y="16.729" style="fill:#002856;" width="6.438" height="6.438"/>
					<rect x="40.312" y="16.729" style="fill:#BC2508;" width="6.438" height="6.438"/>
					<rect x="46.752" y="16.729" style="fill:#FFCC00;" width="6.438" height="6.438"/>
					<rect x="53.19" y="16.729" style="fill:#4D4D4D;" width="6.438" height="6.438"/>
				</g>
				<g>
					<rect x="33.873" y="10.291" style="fill:#D25400;" width="6.438" height="6.438"/>
					<rect x="40.311" y="10.291" style="fill:#4D4D4D;" width="6.438" height="6.438"/>
					<rect x="46.751" y="10.291" style="fill:#2DCC70;" width="6.438" height="6.438"/>
					<rect x="53.189" y="10.291" style="fill:#0071BC;" width="6.438" height="6.438"/>
				</g>
			</g>
			<g>
				<g>
					
						<rect x="89.651" y="10.291" transform="matrix(-1 -8.970526e-11 8.970526e-11 -1 185.74 27.0194)" style="fill:#FFCC00;" width="6.438" height="6.438"/>
					
						<rect x="83.213" y="10.291" transform="matrix(-1 -8.970526e-11 8.970526e-11 -1 172.8638 27.0194)" style="fill:#2DCC70;" width="6.438" height="6.438"/>
					
						<rect x="76.773" y="10.291" transform="matrix(-1 -8.984648e-11 8.984648e-11 -1 159.9846 27.0194)" style="fill:#0071BC;" width="6.438" height="6.438"/>
					
						<rect x="70.335" y="10.291" transform="matrix(-1 -8.984648e-11 8.984648e-11 -1 147.1084 27.0194)" style="fill:#D25400;" width="6.438" height="6.438"/>
				</g>
				<g>
					
						<rect x="89.651" y="16.729" transform="matrix(-1 -8.984648e-11 8.984648e-11 -1 185.74 39.8956)" style="fill:#002856;" width="6.438" height="6.438"/>
					
						<rect x="83.213" y="16.729" transform="matrix(-1 -8.956359e-11 8.956359e-11 -1 172.8638 39.8956)" style="fill:#BC2508;" width="6.438" height="6.438"/>
					
						<rect x="76.773" y="16.729" transform="matrix(-1 -8.956359e-11 8.956359e-11 -1 159.9846 39.8956)" style="fill:#FFCC00;" width="6.438" height="6.438"/>
					
						<rect x="70.335" y="16.729" transform="matrix(-1 -8.984648e-11 8.984648e-11 -1 147.1084 39.8956)" style="fill:#4D4D4D;" width="6.438" height="6.438"/>
				</g>
				<g>
					
						<rect x="89.652" y="23.167" transform="matrix(-1 -8.984648e-11 8.984648e-11 -1 185.7416 52.7718)" style="fill:#D25400;" width="6.438" height="6.438"/>
					
						<rect x="106.653" y="23.167" transform="matrix(-1 -4.504143e-11 4.504143e-11 -1 226.149 52.7718)" style="fill:#D25400;" width="12.842" height="6.438"/>
					
						<rect x="106.653" y="16.729" transform="matrix(-1 -4.482915e-11 4.482915e-11 -1 226.149 39.8956)" style="fill:#4D4D4D;" width="12.842" height="6.438"/>
					
						<rect x="106.653" y="10.291" transform="matrix(-1 -4.504143e-11 4.504143e-11 -1 226.149 27.0194)" style="fill:#002856;" width="12.842" height="6.438"/>
					
						<rect x="83.214" y="23.167" transform="matrix(-1 -8.984648e-11 8.984648e-11 -1 172.8654 52.7718)" style="fill:#002856;" width="6.438" height="6.438"/>
					
						<rect x="76.774" y="23.167" transform="matrix(-1 -8.984648e-11 8.984648e-11 -1 159.9861 52.7718)" style="fill:#2DCC70;" width="6.438" height="6.438"/>
					
						<rect x="70.336" y="23.167" transform="matrix(-1 -8.956359e-11 8.956359e-11 -1 147.1099 52.7718)" style="fill:#0071BC;" width="6.438" height="6.438"/>
				</g>
			</g>
		</g>
		<g>
			<path d="M69.999,29.607h26.428v-5.483H69.999V29.607z M90.146,24.856h5.546v1.645h-5.546V24.856z M90.146,27.232h5.546v1.645
				h-5.546V27.232z M83.704,24.856h5.546v1.645h-5.546V24.856z M83.704,27.232h5.546v1.645h-5.546V27.232z M77.261,24.856h5.546
				v1.645h-5.546V24.856z M77.261,27.232h5.546v1.645h-5.546V27.232z M70.817,24.856h5.546v1.645h-5.546V24.856z M70.817,27.232
				h5.546v1.645h-5.546V27.232z"/>
			<path d="M106.275,29.607h13.636v-5.483h-13.636V29.607z M113.538,24.856h5.547v1.645h-5.547V24.856z M113.538,27.232h5.547v1.645
				h-5.547V27.232z M107.095,24.856h5.546v1.645h-5.546V24.856z M107.095,27.232h5.546v1.645h-5.546V27.232z"/>
			<path d="M59.966,24.125H33.538v5.483h26.428V24.125z M39.903,28.877h-5.546v-1.645h5.546V28.877z M39.903,26.501h-5.546v-1.645
				h5.546V26.501z M46.346,28.877H40.8v-1.645h5.546V28.877z M46.346,26.501H40.8v-1.645h5.546V26.501z M52.789,28.877h-5.546
				v-1.645h5.546V28.877z M52.789,26.501h-5.546v-1.645h5.546V26.501z M59.232,28.877h-5.546v-1.645h5.546V28.877z M59.232,26.501
				h-5.546v-1.645h5.546V26.501z"/>
		</g>
	</g>
</g>
</svg>
