<?xml version="1.0" encoding="utf-8"?>
<!-- Generator: Adobe Illustrator 21.0.0, SVG Export Plug-In . SVG Version: 6.00 Build 0)  -->
<svg version="1.1" id="Capa_1" xmlns="http://www.w3.org/2000/svg" xmlns:xlink="http://www.w3.org/1999/xlink" x="0px" y="0px"
	 viewBox="0 0 202.783 54.708" style="enable-background:new 0 0 202.783 54.708;" xml:space="preserve">
<g>
	<path style="fill-rule:evenodd;clip-rule:evenodd;fill:#8C6239;" d="M109.333,37.705c1.522-1.966,3.882-6.832,6.861-6.663
		c0.68,0.04,1.505,0.255,2.491,0.757c0,0,4.242,2.528,7.416,3.799c1.911,0.766,2.769,1.009-0.06,0.851
		c-3.291-0.182-6.138-2.435-9.661-1.814c-1.962,0.347-4.355,1.422-5.376,4.483c0,0,1.627,2.566,3.421,1.274
		c-0.369,0.572-0.548,1.009-2.121,1.148c0.316,0.279,1.51-0.106,1.378-0.045c0,0-0.785,0.612-1.773,0.349
		c-1.083,0.687-2.721-0.018-3.293-1.073c0,0-2.392,0.341-5.139,0.23c-3.306-0.131-2.452-0.645-4.366,2.253
		c-0.738,1.118-1.066,1.87-1.542,2.566c-4.8,7.03-3.82,3.46-1.611-1.507c0.244-0.551,0.545-1.28,0.908-2.246
		c2.306-6.113,2.739-4.541,8.202-3.165c0.983,0.249,1.943,0.352,2.643,0.098c-0.58-0.489-0.67-0.834-1.025-1.389
		c-0.157-0.246-0.472-0.593-0.925-0.834c0.043-0.139,0.774,0.253,1.032,0.216c0.499-0.504,0.821-0.246,1.23-0.139
		C108.512,37.057,108.842,37.503,109.333,37.705z"/>
	<path style="fill-rule:evenodd;clip-rule:evenodd;fill:#8C6239;" d="M181.118,45.928c1.108-1.432,2.828-4.977,4.998-4.854
		c0.495,0.029,1.096,0.186,1.815,0.552c0,0,3.09,1.841,5.403,2.767c1.392,0.558,2.017,0.735-0.043,0.62
		c-2.397-0.132-4.471-1.774-7.038-1.321c-1.429,0.253-3.173,1.036-3.917,3.266c0,0,1.186,1.87,2.492,0.928
		c-0.269,0.417-0.399,0.735-1.545,0.836c0.23,0.203,1.1-0.077,1.004-0.033c0,0-0.572,0.446-1.291,0.254
		c-0.789,0.5-1.982-0.013-2.399-0.782c0,0-1.742,0.249-3.744,0.167c-2.409-0.095-1.786-0.47-3.18,1.642
		c-0.537,0.814-0.776,1.362-1.124,1.869c-3.497,5.121-2.783,2.521-1.174-1.098c0.178-0.402,0.397-0.933,0.661-1.636
		c1.68-4.453,1.995-3.308,5.975-2.306c0.716,0.181,1.415,0.256,1.925,0.072c-0.422-0.356-0.488-0.608-0.747-1.012
		c-0.114-0.179-0.344-0.432-0.674-0.608c0.031-0.101,0.564,0.185,0.752,0.157c0.364-0.367,0.598-0.179,0.896-0.101
		C180.52,45.456,180.761,45.781,181.118,45.928z"/>
	<path style="fill-rule:evenodd;clip-rule:evenodd;fill:#8C6239;" d="M20.466,16.495c-0.74,0.313-2.35,0.672-2.717,1.124
		c-1.916-1.049-3.837-0.672-4.982-1.407c-0.557-0.357-0.792-0.847-1.409-1.208c-0.426-0.25-0.722-0.463-1.129-0.736
		c-0.222-0.104-0.449-0.099-0.636-0.127c0.156-0.091,0.363-0.107,0.547-0.126c0.164-0.516,0.989-0.693,1.092-0.647
		C8.973,9.844,6.218,7.481,0,10.093c11.317-7.14,11.042-0.323,12.958,1.864c1.763-4.328,1.482-12.609,21.481-4.642
		c-6.643,3.905-16.926-3.776-18.589,6.622c-0.153,0.954-0.363,1.789,0.865,2.039c0.502,0.103,1.149,0.131,1.825,0.222
		C19.345,16.314,19.923,16.327,20.466,16.495z"/>
	<path style="fill-rule:evenodd;clip-rule:evenodd;fill:#8C6239;" d="M151.484,50.895c-0.695,0.294-2.208,0.632-2.553,1.057
		c-1.8-0.985-3.606-0.632-4.681-1.322c-0.524-0.336-0.745-0.796-1.324-1.135c-0.4-0.235-0.679-0.435-1.061-0.692
		c-0.208-0.098-0.422-0.093-0.598-0.12c0.146-0.085,0.341-0.1,0.514-0.118c0.154-0.484,0.929-0.651,1.026-0.608
		c-2.122-3.312-4.711-5.532-10.554-3.078c10.634-6.709,10.376-0.304,12.177,1.752c1.657-4.067,1.392-11.849,20.186-4.362
		c-6.242,3.669-15.905-3.549-17.468,6.222c-0.144,0.896-0.341,1.681,0.813,1.916c0.472,0.097,1.079,0.123,1.715,0.209
		C150.432,50.724,150.975,50.737,151.484,50.895z"/>
	<path style="fill-rule:evenodd;clip-rule:evenodd;fill:#8C6239;" d="M193.807,25.374c-0.475,0.201-1.509,0.432-1.745,0.722
		c-1.231-0.674-2.465-0.432-3.2-0.904c-0.358-0.229-0.509-0.544-0.905-0.776c-0.273-0.161-0.464-0.297-0.725-0.473
		c-0.143-0.067-0.289-0.063-0.408-0.082c0.1-0.058,0.233-0.069,0.351-0.081c0.105-0.331,0.635-0.445,0.701-0.415
		c-1.451-2.264-3.22-3.781-7.214-2.104c7.269-4.586,7.093-0.208,8.323,1.198c1.132-2.78,0.952-8.099,13.798-2.982
		c-4.267,2.508-10.872-2.426-11.94,4.253c-0.098,0.613-0.233,1.149,0.555,1.31c0.322,0.066,0.738,0.084,1.172,0.143
		C193.087,25.258,193.458,25.267,193.807,25.374z"/>
	<path style="fill-rule:evenodd;clip-rule:evenodd;fill:#8C6239;" d="M116.417,21.246c0,0-1.327-0.265-1.682,0.457l-0.832,0.6
		l0.839-0.23c0,0,0.742,1.061,2.111,1.521c2.092,0.704,4.288,0.252,6.239-0.62c-0.237,0.015-0.887,0.147-1.926-0.209
		c-4.321-1.482-1.022-3.332,3.329-3.788c2.518-0.263,4.651,3.298,7.602,3.19c-8.777-10.334-12.665-3.664-14.923-1.777
		c-1.022-5.591-8.174-4.869-10.669-2.892c1.847,0.545,4.214-0.186,6.241-0.028C115.388,17.678,116.408,18.987,116.417,21.246z"/>
	<path style="fill-rule:evenodd;clip-rule:evenodd;fill:#8C6239;" d="M158.259,30.792c0,0-1.773-0.354-2.248,0.611l-1.111,0.801
		l1.121-0.307c0,0,0.992,1.417,2.821,2.032c2.795,0.941,5.73,0.337,8.338-0.829c-0.316,0.02-1.185,0.197-2.574-0.279
		c-5.775-1.981-1.365-4.453,4.449-5.062c3.365-0.352,6.215,4.407,10.159,4.263c-11.729-13.81-16.925-4.896-19.943-2.375
		c-1.366-7.472-10.923-6.507-14.259-3.865c2.469,0.729,5.632-0.249,8.34-0.037C156.883,26.024,158.246,27.773,158.259,30.792z"/>
	<path style="fill-rule:evenodd;clip-rule:evenodd;fill:#8C6239;" d="M45.822,7.396c0,0-1.887-0.377-2.392,0.65l-1.183,0.853
		l1.193-0.327c0,0,1.055,1.508,3.002,2.163c2.975,1.002,6.098,0.359,8.873-0.882c-0.336,0.021-1.262,0.21-2.74-0.297
		c-6.146-2.108-1.453-4.739,4.734-5.387c3.58-0.374,6.614,4.69,10.811,4.537C55.639-5.99,50.11,3.495,46.899,6.179
		c-1.454-7.952-11.624-6.925-15.174-4.113c2.627,0.775,5.994-0.265,8.875-0.039C44.358,2.322,45.808,4.183,45.822,7.396z"/>
</g>
</svg>
