<?xml version="1.0" encoding="utf-8"?>
<!-- Generator: Adobe Illustrator 21.0.0, SVG Export Plug-In . SVG Version: 6.00 Build 0)  -->
<svg version="1.1" id="Capa_1" xmlns="http://www.w3.org/2000/svg" xmlns:xlink="http://www.w3.org/1999/xlink" x="0px" y="0px"
	 viewBox="0 0 169.983 162.934" style="enable-background:new 0 0 169.983 162.934;" xml:space="preserve">
<g>
	<g>
		<g>
			<g>
				<path style="fill-rule:evenodd;clip-rule:evenodd;fill:#5D1230;" d="M26.738,0h116.376c4.294,0,2.98,14.511,2.98,21.766H23.758
					C23.758,14.511,23.024,0,26.738,0z"/>
				<path style="fill-rule:evenodd;clip-rule:evenodd;fill:#CCCCCC;" d="M26.166,13.463c0.028-5.542,0.337-11.222,1.865-12.94
					C27.662,0.185,27.233,0,26.738,0c-2.562,0-3.008,6.902-3.037,13.567C24.511,13.531,25.333,13.496,26.166,13.463z"/>
				<path style="fill-rule:evenodd;clip-rule:evenodd;fill:#CCCCCC;" d="M141.903,0.452c1.76,1.608,1.977,7.244,1.905,12.794
					c0.83,0.028,1.651,0.057,2.463,0.088C146.363,6.743,146.041,0,143.115,0C142.655,0,142.253,0.159,141.903,0.452z"/>
			</g>
			<g>
				<path style="opacity:0.2;fill-rule:evenodd;clip-rule:evenodd;" d="M20.911,161.493c-9.722-2.616-18.169-12.132-18.893-22.498
					c-2.634-37.733-2.687-59.564-0.175-99.701c0.755-12.051,9.874-21.89,21.604-23.69c34.064-5.227,89.025-5.227,123.088,0
					c11.731,1.8,20.85,11.639,21.605,23.69c2.512,40.136,2.458,61.968-0.175,99.701c-0.723,10.364-9.171,19.88-18.893,22.498
					C141.931,163.414,28.051,163.415,20.911,161.493z"/>
				<path style="fill-rule:evenodd;clip-rule:evenodd;fill:#FFFFFF;" d="M21.484,158.67c-9.68-2.616-18.094-12.131-18.814-22.496
					C0.046,98.44-0.006,76.609,2.497,36.472c0.751-12.052,9.831-21.89,21.514-23.69c33.92-5.228,88.043-5.228,121.963,0
					c11.681,1.8,20.763,11.639,21.514,23.69c2.502,40.136,2.447,61.968-0.175,99.702c-0.719,10.363-9.132,19.882-18.812,22.496
					C141.388,160.59,28.595,160.591,21.484,158.67z"/>
				<path style="fill-rule:evenodd;clip-rule:evenodd;fill:#999999;" d="M24.723,154.538c-9.404-2.541-17.575-11.782-18.276-21.853
					c-2.55-36.653-2.6-56.02-0.168-95.007c0.73-11.705,9.552-21.264,20.898-23.012c32.95-5.079,82.679-5.079,115.629,0
					c11.347,1.748,20.169,11.309,20.898,23.012c2.431,38.987,2.377,58.354-0.169,95.007c-0.699,10.067-8.874,19.313-18.275,21.853
					C138.354,156.403,31.63,156.404,24.723,154.538z"/>
				<path style="fill-rule:evenodd;clip-rule:evenodd;fill:#F2F2F2;" d="M4.509,81.456c0.094-12.871,0.684-26.368,1.771-43.778
					c0.73-11.705,9.552-21.264,20.898-23.012c32.95-5.078,82.679-5.078,115.629,0c11.347,1.748,20.169,11.309,20.898,23.012
					c1.085,17.409,1.675,30.906,1.769,43.778c-0.101,13.369-0.746,26.739-1.938,43.898c-0.698,10.066-8.873,19.312-18.276,21.853
					c-6.905,1.866-113.629,1.867-120.536,0c-9.404-2.541-17.575-11.783-18.275-21.853C5.255,108.195,4.608,94.824,4.509,81.456z"/>
				<path style="fill-rule:evenodd;clip-rule:evenodd;fill:#CCCCCC;" d="M4.512,80.972c0.106-12.726,0.694-26.102,1.767-43.294
					c0.73-11.705,9.552-21.264,20.898-23.012c32.95-5.078,82.679-5.078,115.629,0c11.347,1.748,20.169,11.309,20.898,23.012
					c1.071,17.177,1.659,30.545,1.765,43.26c-0.111,13.212-0.756,26.47-1.934,43.428c-0.698,10.067-8.873,19.312-18.276,21.853
					c-6.905,1.866-113.629,1.866-120.536,0c-9.404-2.541-17.575-11.782-18.275-21.853C5.269,107.422,4.624,94.173,4.512,80.972z"/>
				<path style="fill-rule:evenodd;clip-rule:evenodd;fill:#F2F2F2;" d="M28.714,17.242c35.789-4.857,81.629-4.783,114.092,0.221
					c11.347,1.748,20.169,11.307,20.898,23.013c0.269,4.321,0.509,9.194,0.717,14.49c-0.003-1.143-0.012-2.273-0.022-3.388
					c-0.203-5.068-0.435-9.74-0.695-13.899c-0.729-11.706-9.551-21.264-20.898-23.012c-32.95-5.079-82.679-5.079-115.629,0
					C15.831,16.414,7.01,25.97,6.279,37.678c-0.355,5.677-0.656,12.301-0.905,19.59c-0.017,1.331-0.03,2.678-0.042,4.04
					c0.256-7.779,0.572-14.833,0.947-20.831c0.372-5.964,2.845-11.368,6.679-15.467c-0.59,1.384-0.677,2.755-0.139,3.941
					c1.48,3.265,7.116,3.9,12.589,1.419s8.71-7.138,7.231-10.401C31.997,18.55,30.57,17.628,28.714,17.242z"/>
				<path style="fill-rule:evenodd;clip-rule:evenodd;fill:#B3B3B3;" d="M98.243,125.127c-36.913,0-70.089-7.59-92.959-19.657
					c0.302,5.858,0.69,12.078,1.164,18.896c0.701,10.071,8.872,19.312,18.275,21.853c6.907,1.866,113.631,1.866,120.536,0
					c9.403-2.541,17.577-11.786,18.276-21.853c0.195-2.802,0.375-5.503,0.541-8.12C144.96,121.876,122.402,125.127,98.243,125.127z"
					/>
			</g>
			<g>
				<path style="opacity:0.2;fill-rule:evenodd;clip-rule:evenodd;" d="M29.459,11.863c31.953-2.553,82.178-3.516,111.164,0.319
					c0.049,4.146,0.449,12.763,0.449,14.692c0,2.865-2.452,5.209-5.447,5.209H84.992H34.358c-2.996,0-5.447-2.343-5.447-5.209
					C28.911,24.976,29.403,15.937,29.459,11.863z"/>
				<path style="fill-rule:evenodd;clip-rule:evenodd;fill:#FFFFFF;" d="M84.992,29.246H35.284c-2.941,0-5.348-2.406-5.348-5.347
					C29.936,18.847,31.807,0,26.803,0h58.188h58.188c-5.004,0-3.133,18.847-3.133,23.899c0,2.941-2.406,5.347-5.348,5.347H84.992z"
					/>
				<path style="fill-rule:evenodd;clip-rule:evenodd;fill:#C12564;" d="M84.992,25.726H38.239c-2.767,0-5.03-2.116-5.03-4.703
					C33.209,16.579,34.968,0,30.262,0h54.73h54.729c-4.706,0-2.946,16.579-2.946,21.023c0,2.587-2.264,4.703-5.03,4.703H84.992z"/>
				<path style="fill-rule:evenodd;clip-rule:evenodd;fill:#E6E6E6;" d="M35.284,28.318c-2.845,0-5.188-2.25-5.34-5.059
					c-0.005,0.233-0.008,0.446-0.008,0.64c0,2.941,2.406,5.347,5.348,5.347h49.708h49.707c2.942,0,5.348-2.406,5.348-5.347
					c0-0.194-0.003-0.408-0.008-0.64c-0.151,2.809-2.494,5.059-5.34,5.059H84.992H35.284z"/>
				<path style="fill-rule:evenodd;clip-rule:evenodd;fill:#961D4E;" d="M80.411,21.766c-15.818-0.873-30.678-2.515-44.466-5.014
					c-0.855-0.155-1.706-0.313-2.552-0.475c-0.007,0.176-0.015,0.35-0.023,0.521c-0.081,1.775-0.16,3.276-0.16,4.225
					c0,0.253,0.022,0.501,0.063,0.743c0.384,2.237,2.47,3.96,4.967,3.96h46.753h46.752c2.427,0,4.466-1.629,4.93-3.775
					C116.838,22.759,98.031,22.738,80.411,21.766z"/>
				<path style="fill-rule:evenodd;clip-rule:evenodd;fill:#DA3F7E;" d="M32.906,3.396c35.041-1.761,69.847-1.961,104.498-1.127
					C137.902,0.872,138.641,0,139.72,0H30.262C31.608,0,32.425,1.355,32.906,3.396z"/>
			</g>
		</g>
		<g>
			<g>
				<path style="fill-rule:evenodd;clip-rule:evenodd;fill:#808080;" d="M84.992,132.443c26.806,0,48.668-21.862,48.668-48.668
					s-21.862-48.67-48.668-48.67s-48.67,21.864-48.67,48.67S58.187,132.443,84.992,132.443z"/>
				<path style="fill-rule:evenodd;clip-rule:evenodd;fill:#DCB000;" d="M84.992,132.315c-25.88,0-47.032-20.194-48.582-45.683
					c-0.053,0.987-0.088,1.982-0.088,2.986c0,26.884,21.786,48.668,48.67,48.668c26.883,0,48.668-21.784,48.668-48.668
					c0-1.004-0.035-1.998-0.086-2.986C132.025,112.121,110.872,132.315,84.992,132.315z"/>
			</g>
			<g>
				<path style="fill-rule:evenodd;clip-rule:evenodd;fill:#0059E1;" d="M84.992,136.516c26.806,0,48.668-21.862,48.668-48.668
					S111.798,39.18,84.992,39.18s-48.67,21.862-48.67,48.668S58.187,136.516,84.992,136.516z"/>
				<path style="fill-rule:evenodd;clip-rule:evenodd;fill:#F2F2F2;" d="M84.992,136.386c-25.88,0-47.032-20.192-48.582-45.682
					c-0.053,0.987-0.088,1.983-0.088,2.987c0,26.883,21.786,48.668,48.67,48.668c26.883,0,48.668-21.785,48.668-48.668
					c0-1.004-0.035-2-0.086-2.987C132.025,116.194,110.872,136.386,84.992,136.386z"/>
			</g>
		</g>
	</g>
	<g>
		<defs>
			<path id="SVGID_1_" d="M84.992,136.516c26.806,0,48.668-21.862,48.668-48.668S111.798,39.18,84.992,39.18
				s-48.67,21.862-48.67,48.668S58.187,136.516,84.992,136.516z"/>
		</defs>
		<clipPath id="SVGID_2_">
			<use xlink:href="#SVGID_1_"  style="overflow:visible;"/>
		</clipPath>
		<g style="clip-path:url(#SVGID_2_);">
			<g>
				<g>
					<g>
						<g id="XMLID_384_">
							
								<path id="XMLID_55_" style="fill:#BC8853;stroke:#994900;stroke-width:0.45;stroke-linecap:round;stroke-linejoin:round;stroke-miterlimit:10;" d="
								M99.406,124.241c0,0,7.451,13.17-4.347,17.343l0.359-4.1c0,0,5.981-3.02,2.874-10.467L99.406,124.241z"/>
						</g>
						<g>
							<path style="fill:#CCCCCC;" d="M95.613,131.222c0,0,0.251-8.303,1.358-13.671c0.431,0.283,0.918,0.604,1.181,0.852
								c2.073,1.957,4.999,7.656,5.474,8.951l-6.328,5.208L95.613,131.222z"/>
							<path style="fill:#999999;" d="M96.347,131.806l6.719-5.707c0.268,0.552,0.464,0.994,0.56,1.255l-6.328,5.208L96.347,131.806
								z"/>
						</g>
					</g>
					<g>
						<g>
							<g>
								
									<path style="fill:#BC8853;stroke:#994900;stroke-width:0.45;stroke-linecap:round;stroke-linejoin:round;stroke-miterlimit:10;" d="
									M80.116,171.35l1.665-14.194l-4.61-0.541l-1.674,14.273c-3.243,0.147-4.361,1.305-4.361,2.712c0,1.509,1.443,1.6,5.248,1.6
									c3.803,0,6.724-0.091,6.724-1.6C83.108,172.666,81.922,171.842,80.116,171.35z"/>
							</g>
							<g>
								<path style="fill:#C7B299;" d="M76.475,140.063l9.274,0.848v7.808l-1.097,15.785c0,0-4.488,1.188-9.972,0
									C74.68,164.504,75.378,143.57,76.475,140.063z"/>
								<path style="fill:#998675;" d="M84.055,166.17l-9.029-0.87c-0.652-0.031-1.159-0.59-1.128-1.242l0.097-2.01
									c0.031-0.652,0.686-0.85,1.776-0.847l8.5,0.155c0.652,0.031,1.159,0.59,1.128,1.242l-0.097,2.01
									C85.271,165.259,84.706,166.202,84.055,166.17z"/>
							</g>
						</g>
						<g>
							<g>
								
									<path style="fill:#BC8853;stroke:#994900;stroke-width:0.45;stroke-linecap:round;stroke-linejoin:round;stroke-miterlimit:10;" d="
									M96.002,170.888l-1.674-14.273l-4.61,0.541l1.665,14.194c-1.807,0.492-2.993,1.315-2.993,2.249c0,1.509,2.921,1.6,6.724,1.6
									c3.806,0,5.248-0.091,5.248-1.6C100.363,172.193,99.245,171.035,96.002,170.888z"/>
							</g>
							<g>
								<path style="fill:#C7B299;" d="M95.024,140.063l-9.274,0.848v7.808l1.097,15.785c0,0,4.488,1.188,9.972,0
									C96.819,164.504,96.121,143.57,95.024,140.063z"/>
								<path style="fill:#998675;" d="M87.444,166.17l9.029-0.87c0.652-0.031,1.159-0.59,1.128-1.242l-0.097-2.01
									c-0.031-0.652-0.686-0.85-1.776-0.847l-8.5,0.155c-0.652,0.031-1.159,0.59-1.128,1.242l0.097,2.01
									C86.228,165.259,86.793,166.202,87.444,166.17z"/>
							</g>
						</g>
					</g>
					<g>
						<g id="XMLID_386_">
							
								<path id="XMLID_387_" style="fill:#BC8853;stroke:#994900;stroke-width:0.45;stroke-linecap:round;stroke-linejoin:round;stroke-miterlimit:10;" d="
								M71.433,124.196c0,0-6.912,13.406,4.887,17.578l-0.27-4.1c0,0-6.61-3.256-3.503-10.703L71.433,124.196z"/>
						</g>
						<g>
							<path style="fill:#CCCCCC;" d="M75.384,131.625c0,0-0.157-9.012-1.121-14.118c-0.431,0.283-1.534,1.114-1.796,1.362
								c-2.073,1.957-4.999,7.656-5.474,8.951l6.328,5.208L75.384,131.625z"/>
							<path style="fill:#999999;" d="M74.351,132.328l-6.798-5.763c-0.268,0.552-0.464,0.994-0.56,1.255l6.328,5.208
								L74.351,132.328z"/>
						</g>
					</g>
					<g>
						<path style="fill:#CCCCCC;" d="M74.263,117.507l8.434-1.954h3.057v30.243c0,0-4.597-0.391-6.374-1.231
							c-0.813-0.385-3.293-2.471-3.293-2.471l-0.921-13.93L74.263,117.507z"/>
						<path style="fill:#CCCCCC;" d="M96.972,117.552l-8.162-1.998h-3.056v30.243c0,0,4.541-0.094,6.318-0.935
							c0.814-0.384,3.336-2.795,3.336-2.795l0.933-13.903L96.972,117.552z"/>
						<polygon style="fill:#999999;" points="85.754,113.299 81.31,113.299 82.401,115.524 85.754,115.554 89.107,115.524 
							90.197,113.299 						"/>
						<polygon style="fill:#9D5C4A;" points="84.184,116.915 85.754,117.872 85.754,118.996 83.532,117.736 						"/>
						<polygon style="fill:#9D5C4A;" points="85.754,117.872 87.323,116.915 87.976,117.736 85.754,118.996 						"/>
						<path style="fill:#999999;" d="M86.865,131.642c-0.362,0-0.655,0.275-0.655,0.613c0,0.338,0.293,0.613,0.655,0.613
							c0.361,0,0.655-0.275,0.655-0.613C87.52,131.916,87.226,131.642,86.865,131.642z M86.632,132.378
							c-0.073,0-0.132-0.055-0.132-0.123c0-0.068,0.059-0.124,0.132-0.124c0.072,0,0.131,0.056,0.131,0.124
							C86.764,132.323,86.705,132.378,86.632,132.378z M87.105,132.384c-0.073,0-0.132-0.055-0.132-0.123
							c0-0.069,0.059-0.123,0.132-0.123c0.072,0,0.131,0.055,0.131,0.123C87.236,132.329,87.177,132.384,87.105,132.384z"/>
						<path style="fill:#999999;" d="M86.865,136.753c-0.362,0-0.655,0.275-0.655,0.613c0,0.339,0.293,0.612,0.655,0.612
							c0.361,0,0.655-0.274,0.655-0.612C87.52,137.028,87.226,136.753,86.865,136.753z M86.632,137.489
							c-0.073,0-0.132-0.055-0.132-0.123c0-0.068,0.059-0.123,0.132-0.123c0.072,0,0.131,0.055,0.131,0.123
							C86.764,137.434,86.705,137.489,86.632,137.489z M87.105,137.495c-0.073,0-0.132-0.055-0.132-0.123
							c0-0.068,0.059-0.123,0.132-0.123c0.072,0,0.131,0.055,0.131,0.123C87.236,137.441,87.177,137.495,87.105,137.495z"/>
						<path style="fill:#999999;" d="M86.865,142.45c-0.362,0-0.655,0.274-0.655,0.613c0,0.338,0.293,0.613,0.655,0.613
							c0.361,0,0.655-0.275,0.655-0.613C87.52,142.725,87.226,142.45,86.865,142.45z M86.632,143.186
							c-0.073,0-0.132-0.055-0.132-0.123c0-0.068,0.059-0.123,0.132-0.123c0.072,0,0.131,0.055,0.131,0.123
							C86.764,143.131,86.705,143.186,86.632,143.186z M87.105,143.192c-0.073,0-0.132-0.055-0.132-0.124
							c0-0.068,0.059-0.123,0.132-0.123c0.072,0,0.131,0.055,0.131,0.123C87.236,143.137,87.177,143.192,87.105,143.192z"/>
						<g>
							<polygon style="fill:#B3B3B3;" points="91.791,123.959 88.722,123.959 89.024,128.505 91.791,129.213 94.51,128.623 
								94.86,123.959 							"/>
						</g>
						<g>
							<polygon style="fill:#BC8853;" points="82.033,116.451 85.458,132.838 88.974,116.451 							"/>
						</g>
						<ellipse style="fill:#9B6534;" cx="85.753" cy="116.737" rx="4.444" ry="2.083"/>
						<polygon style="fill:#999999;" points="89.404,116.451 89.075,115.98 85.458,132.838 81.935,115.98 81.606,116.451 
							85.181,133.339 85.181,145.756 85.754,145.797 85.754,133.328 						"/>
						<polygon style="fill:#999999;" points="81.31,113.299 80.022,116.544 81.31,121.701 84.184,118.085 						"/>
						<polygon style="fill:#999999;" points="90.197,113.299 91.485,116.544 90.197,121.701 87.323,118.085 						"/>
					</g>
					<path style="fill:#3D1C00;" d="M117.399,63.837c0,0-18.868,9.711-32.433,9.037c-13.565,0.674-32.433-9.037-32.433-9.037
						c-3.773-1.766-7.201,6.571,3.823,16.186c9.035,7.88,25.632,9.186,28.61,8.971c2.979,0.215,19.146-0.982,28.61-8.971
						C124.738,70.601,121.171,62.072,117.399,63.837z"/>
					<g>
						<g>
							<g>
								
									<path style="fill:#BC8853;stroke:#994900;stroke-width:0.45;stroke-linecap:round;stroke-linejoin:round;stroke-miterlimit:10;" d="
									M69.977,95.515c0,0-1.206-3.693-3.408-3.693c-2.201,0-1.136,7.171,4.616,10.864L69.977,95.515z"/>
								
									<path style="fill:#BC8853;stroke:#994900;stroke-width:0.45;stroke-linecap:round;stroke-linejoin:round;stroke-miterlimit:10;" d="
									M101.396,95.515c0,0,1.205-3.693,3.408-3.693c2.202,0,1.135,7.171-4.617,10.864L101.396,95.515z"/>
								
									<path style="fill:#BC8853;stroke:#994900;stroke-width:0.45;stroke-linecap:round;stroke-linejoin:round;stroke-miterlimit:10;" d="
									M85.714,69.613c0,0,10.863,0,12.102,0s4.309,1.956,4.627,11.807c0.628,19.311-0.199,24.354-7.118,31.651
									c-3.189,3.363-6.555,4.817-9.611,4.817c-2.971,0-6.424-1.454-9.612-4.817c-6.919-7.297-7.746-12.341-7.119-31.651
									c0.32-9.851,3.388-11.807,4.628-11.807C74.85,69.613,85.714,69.613,85.714,69.613z"/>
								<g>
									<path d="M97.334,86.363c-0.11-0.058-0.304-0.114-0.54-0.204c-0.238-0.087-0.524-0.199-0.86-0.272
										c-0.652-0.2-1.474-0.302-2.276-0.362c-1.619-0.078-3.156,0.257-3.423,0.315c-0.566,0.085-1.367,0.387-1.802-0.466
										c-0.242-0.44,0.197-0.881,0.869-1.169c0.67-0.299,1.569-0.437,2.22-0.475c0.647-0.059,2.062-0.019,3.379,0.32
										c0.327,0.094,0.654,0.173,0.956,0.277c0.3,0.115,0.585,0.224,0.847,0.324c0.504,0.235,0.902,0.444,1.118,0.559
										c0.408,0.28,0.877,0.537,1.178,0.873c0.313,0.321,0.514,0.623,0.476,0.861C99.379,87.428,98.256,86.748,97.334,86.363z"/>
								</g>
								<g>
									<path d="M73.899,86.363c0.11-0.058,0.304-0.114,0.54-0.204c0.239-0.087,0.525-0.199,0.86-0.272
										c0.653-0.2,1.474-0.302,2.276-0.362c1.62-0.078,3.156,0.257,3.425,0.315c0.565,0.085,1.367,0.387,1.802-0.466
										c0.242-0.44-0.197-0.881-0.869-1.169c-0.671-0.299-1.569-0.437-2.22-0.475c-0.648-0.059-2.063-0.019-3.38,0.32
										c-0.327,0.094-0.654,0.173-0.956,0.277c-0.301,0.115-0.585,0.224-0.847,0.324c-0.505,0.235-0.903,0.444-1.118,0.559
										c-0.407,0.28-0.876,0.537-1.178,0.873c-0.313,0.321-0.514,0.623-0.476,0.861C71.855,87.428,72.977,86.748,73.899,86.363z"
										/>
								</g>
								<g id="XMLID_233_">
									<g id="XMLID_278_">
										<path id="XMLID_308_" style="fill:#FFFFFF;" d="M76.721,88.378c-5.082,1.344-4.86,8.599,0.661,8.585
											C82.902,96.948,82.634,86.814,76.721,88.378z"/>
										
											<ellipse id="XMLID_307_" transform="matrix(0.0209 -0.9998 0.9998 0.0209 -16.8147 167.9324)" cx="77.334" cy="92.551" rx="2.714" ry="2.148"/>
										
											<ellipse id="XMLID_292_" transform="matrix(0.0209 -0.9998 0.9998 0.0209 -16.4769 165.5186)" style="fill:#FFFFFF;" cx="76.269" cy="91.172" rx="1.281" ry="1.281"/>
										
											<ellipse id="XMLID_291_" transform="matrix(0.0209 -0.9998 0.9998 0.0209 -17.2459 169.7845)" style="fill:#FFFFFF;" cx="78.064" cy="93.697" rx="0.49" ry="0.49"/>
									</g>
									<g id="XMLID_234_">
										<path id="XMLID_261_" style="fill:#FFFFFF;" d="M94.597,88.419c5.021,1.556,4.496,8.795-1.019,8.549
											C88.063,96.723,88.754,86.609,94.597,88.419z"/>
										
											<ellipse id="XMLID_260_" transform="matrix(0.0209 -0.9998 0.9998 0.0209 -0.4779 184.6472)" cx="94.036" cy="92.568" rx="2.714" ry="2.148"/>
										
											<ellipse id="XMLID_236_" transform="matrix(0.0209 -0.9998 0.9998 0.0209 -0.1399 182.2334)" style="fill:#FFFFFF;" cx="92.972" cy="91.188" rx="1.281" ry="1.281"/>
										
											<ellipse id="XMLID_235_" transform="matrix(0.0209 -0.9998 0.9998 0.0209 -0.9091 186.4994)" style="fill:#FFFFFF;" cx="94.766" cy="93.714" rx="0.49" ry="0.49"/>
									</g>
								</g>
								<path id="XMLID_232_" style="fill:#7F4C26;" d="M83.368,102.018c0.27-0.358,1.074,0.618,2.304,0.697
									c1.229,0.08,1.771-1.225,2.308-0.916c0.537,0.309-0.543,1.997-2.388,2.146C83.747,104.094,83.137,102.325,83.368,102.018z"
									/>
								<path id="XMLID_231_" style="fill:#7F4C26;" d="M80.435,107.121c0.182-0.482,1.381,1.041,5.416,1.051
									c4.035,0.01,5.425-2.638,6-2.291c0.576,0.347-2.198,3.222-6.003,3.213C82.044,109.085,80.087,108.043,80.435,107.121z"/>
								<path id="XMLID_203_" style="fill:#7F4C26;" d="M88.818,109.698c-0.702,0.155-1.298,0.416-2.035,0.457
									c-0.748,0.04-1.507-0.166-2.243-0.09c-0.203,0.022-0.234,0.27-0.048,0.347c1.17,0.481,3.55,0.565,4.452-0.496
									C89.027,109.817,88.95,109.669,88.818,109.698z"/>
								<path style="fill-rule:evenodd;clip-rule:evenodd;" d="M94.044,103.245c-1.751,1.44-5.283,0.946-8.286,1.025
									c-3.014-0.079-6.545,0.415-8.296-1.025c-0.995,2.756,4.219,4.629,8.292,3.005C89.835,107.874,95.049,106.001,94.044,103.245
									z"/>
							</g>
						</g>
						<path style="fill-rule:evenodd;clip-rule:evenodd;" d="M86.438,60.613c2.46-0.351,3.763-3.546,7.353-1.285
							c10.869,6.846,6.3,12.272,13.989,18.947c3.874,3.363-2.21,13.548-5.319,15.11c-0.917,0.461,1.534-4.642-1.659-5.373
							c-2.44-0.559-5.766-4.783-5.204-3.288c1.685,4.478,4.367,4.368,0.046,2.404C89.642,84.399,84.743,77.074,84.885,73
							c-0.161,4.584-5.635,12.029-10.018,14.391c-0.84,0.453-7.309,3.639-3.758,0.611c3.657-3.118,5.971-8.131,1.198-3.204
							c-2.891,2.984-3.939-0.367-3.138,6.373c0.658,5.538,0.333,1.331-2.363,0.666c-3.364-0.83-4.5-7.322-4.166-10.747
							c0.827-8.492,5.664-11.034,10.069-17.768c2.329-3.56,9.021-7.851,12.65-3.336C85.427,60.071,86.309,60.559,86.438,60.613z"/>
					</g>
					<g>
						<path style="fill:#602E0C;" d="M99.282,53.675c-3.029-4.131-6.609-6.196-9.363-3.718c-2.754,2.478-4.956,2.203-4.956,2.203
							s-2.203,0.275-4.957-2.203c-2.754-2.478-6.333-0.413-9.362,3.718c-3.029,4.13-3.304,11.842-3.304,11.842v4.493
							c11.415,3.047,17.623,3.699,17.623,3.699s6.208-0.652,17.623-3.699v-4.493C102.586,65.517,102.311,57.806,99.282,53.675z"/>
						<path style="fill:#4C2103;" d="M70.644,53.675c-1.575,2.147-2.404,5.893-2.839,8.997c0.048,0.035,0.091,0.076,0.142,0.108
							c2.442,1.535,6.624-0.722,9.339-5.042c1.859-2.957,2.548-6.113,2.015-8.303C76.66,47.84,73.421,49.889,70.644,53.675z"/>
						<path style="fill:#BA0000;" d="M85.247,74.277c9.783,0,17.368-3.621,17.368-0.154v-2.814c0-3.469-7.585-6.281-17.368-6.281
							c-9.785,0-17.849,2.812-17.849,6.281l-0.64,2.814C66.758,70.656,75.462,74.277,85.247,74.277z"/>
						<path style="fill:#4C2103;" d="M99.282,53.675c1.575,2.147,2.404,5.893,2.839,8.997c-0.048,0.035-0.091,0.076-0.142,0.108
							c-2.442,1.535-6.624-0.722-9.339-5.042c-1.859-2.957-2.548-6.113-2.015-8.303C93.266,47.84,96.505,49.889,99.282,53.675z"/>
						<g>
							<g>
								<circle style="fill:#FBB03B;" cx="84.963" cy="68.715" r="1.237"/>
							</g>
							<g>
								<circle style="fill:#FBB03B;" cx="80.869" cy="69.3" r="1.237"/>
							</g>
							<g>
								<circle style="fill:#FBB03B;" cx="76.776" cy="69.885" r="1.237"/>
							</g>
							<g>
								<circle style="fill:#FBB03B;" cx="72.683" cy="71.054" r="1.237"/>
							</g>
							<g>
								<circle style="fill:#FBB03B;" cx="89.056" cy="69.3" r="1.237"/>
							</g>
							<g>
								<circle style="fill:#FBB03B;" cx="93.149" cy="69.885" r="1.237"/>
							</g>
							<g>
								<circle style="fill:#FBB03B;" cx="97.243" cy="71.054" r="1.237"/>
							</g>
						</g>
						<path style="fill:#6B3A15;" d="M114.228,65.331c-18.737,8.511-29.262,7.543-29.262,7.543s-10.525,0.968-29.262-7.543h-0.04
							c19.161,18.11,29.302,16.912,29.302,16.912s10.141,0.975,29.302-16.912H114.228z"/>
					</g>
					<g>
						<path d="M85.747,144.502c-5.132,0-9.396-0.778-9.708-3.235c-0.012,0.097-0.03,0.194-0.03,0.292
							c0,2.594,4.403,4.697,9.739,4.697c5.335,0,9.741-2.103,9.741-4.697c0-0.099-0.018-0.195-0.03-0.292
							C95.147,143.724,90.88,144.502,85.747,144.502z"/>
						<path style="fill:#754C24;" d="M86.592,146.718h-1.924c-0.767,0-1.391-0.538-1.391-1.199c0-0.663,0.624-1.202,1.391-1.202
							h1.924c0.767,0,1.39,0.539,1.39,1.202C87.982,146.18,87.359,146.718,86.592,146.718z M84.668,144.901
							c-0.445,0-0.807,0.277-0.807,0.618c0,0.34,0.362,0.616,0.807,0.616h1.924c0.445,0,0.807-0.276,0.807-0.616
							c0-0.341-0.362-0.618-0.807-0.618H84.668z"/>
					</g>
					<g>
						<path style="fill:#754C24;" d="M94.487,141.518c1.354-0.343,2.792,0.203,4.02,1.364c1.208,1.142,2.218,2.883,2.742,4.952
							c0.525,2.069,0.466,4.08-0.051,5.659c-0.527,1.606-1.531,2.772-2.885,3.115c-1.354,0.344-2.792-0.202-4.02-1.364
							c-1.208-1.142-2.218-2.883-2.742-4.951c-0.525-2.069-0.466-4.081,0.052-5.66C92.129,143.027,93.133,141.861,94.487,141.518
							L94.487,141.518z M98.261,143.144c-1.14-1.077-2.458-1.588-3.686-1.277c-1.227,0.311-2.144,1.389-2.632,2.879
							c-0.498,1.517-0.552,3.457-0.044,5.459c0.507,2.002,1.479,3.682,2.639,4.779c1.14,1.078,2.459,1.588,3.686,1.277
							c1.227-0.311,2.143-1.389,2.632-2.879c0.498-1.517,0.552-3.457,0.044-5.459C100.393,145.921,99.421,144.241,98.261,143.144
							L98.261,143.144z"/>
						<path style="fill:#754C24;" d="M95.164,142.065c1.313-0.478,2.798-0.078,4.137,0.955c1.316,1.015,2.495,2.646,3.224,4.652
							c0.729,2.005,0.874,4.013,0.516,5.636c-0.363,1.651-1.245,2.911-2.558,3.389c-1.313,0.478-2.798,0.078-4.137-0.954
							c-1.316-1.016-2.496-2.646-3.225-4.652c-0.729-2.006-0.873-4.013-0.516-5.636C92.969,143.803,93.85,142.542,95.164,142.065
							L95.164,142.065z M99.082,143.304c-1.242-0.958-2.605-1.334-3.795-0.901c-1.189,0.432-1.993,1.596-2.33,3.128
							c-0.343,1.559-0.203,3.495,0.503,5.436c0.705,1.941,1.84,3.515,3.105,4.49c1.243,0.958,2.606,1.334,3.796,0.901
							c1.189-0.432,1.992-1.597,2.33-3.128c0.343-1.56,0.203-3.495-0.503-5.435C101.481,145.853,100.347,144.279,99.082,143.304
							L99.082,143.304z"/>
						<path style="fill:#754C24;" d="M94.421,141.73c1.377-0.236,2.767,0.423,3.9,1.677c1.114,1.233,1.983,3.048,2.344,5.152
							c0.36,2.104,0.144,4.104-0.497,5.638c-0.651,1.56-1.743,2.643-3.121,2.879c-1.378,0.236-2.767-0.422-3.9-1.677
							c-1.115-1.233-1.984-3.048-2.344-5.152c-0.36-2.103-0.144-4.105,0.497-5.638C91.951,143.049,93.043,141.966,94.421,141.73
							L94.421,141.73z M98.055,143.648c-1.052-1.164-2.326-1.777-3.574-1.564c-1.248,0.214-2.245,1.215-2.851,2.663
							c-0.616,1.473-0.821,3.403-0.474,5.438c0.349,2.036,1.185,3.786,2.255,4.971c1.052,1.164,2.326,1.777,3.574,1.563
							c1.248-0.213,2.246-1.215,2.85-2.662c0.616-1.473,0.822-3.402,0.474-5.438C99.961,146.584,99.125,144.833,98.055,143.648
							L98.055,143.648z"/>
						<path style="fill:#754C24;" d="M96.16,141.615c1.167,0.077,2.171,0.884,2.85,2.127c0.667,1.222,1.021,2.87,0.904,4.653
							c-0.117,1.784-0.683,3.371-1.505,4.496c-0.835,1.144-1.935,1.813-3.104,1.736c-1.168-0.077-2.172-0.884-2.85-2.127
							c-0.668-1.222-1.022-2.87-0.905-4.654c0.117-1.784,0.683-3.372,1.505-4.495C93.891,142.207,94.992,141.538,96.16,141.615
							L96.16,141.615z M98.746,143.886c-0.63-1.153-1.548-1.901-2.606-1.971c-1.058-0.069-2.066,0.552-2.842,1.613
							c-0.789,1.08-1.333,2.612-1.446,4.337c-0.113,1.726,0.227,3.316,0.867,4.489c0.63,1.153,1.548,1.901,2.606,1.97
							c1.058,0.07,2.066-0.552,2.841-1.613c0.789-1.08,1.333-2.611,1.447-4.338C99.727,146.649,99.387,145.06,98.746,143.886
							L98.746,143.886z"/>
						<path style="fill:#754C24;" d="M95.165,141.557c1.412-0.328,2.796,0.346,3.892,1.699c1.076,1.331,1.878,3.326,2.146,5.667
							c0.27,2.342-0.043,4.595-0.767,6.343c-0.735,1.78-1.897,3.044-3.309,3.372c-1.413,0.327-2.797-0.345-3.892-1.699
							c-1.078-1.331-1.877-3.326-2.147-5.667c-0.269-2.342,0.043-4.594,0.766-6.343C92.591,143.15,93.752,141.885,95.165,141.557
							L95.165,141.557z M98.775,143.54c-1.016-1.256-2.285-1.884-3.565-1.587c-1.28,0.297-2.342,1.466-3.024,3.117
							c-0.694,1.68-0.994,3.853-0.733,6.119c0.26,2.266,1.03,4.189,2.065,5.469c1.016,1.256,2.285,1.885,3.565,1.587
							c1.28-0.297,2.341-1.466,3.024-3.117c0.695-1.68,0.994-3.853,0.734-6.118C100.579,146.742,99.809,144.818,98.775,143.54
							L98.775,143.54z"/>
					</g>
					<g>
						<path style="fill:#F7931E;" d="M75.21,141.864l3.051,1.039c0,0-1.282,16.381-3.739,16.303S75.21,141.864,75.21,141.864z"/>
						<polygon style="fill:#ED1C24;" points="74.772,144.473 78.017,145.518 77.939,146.256 74.663,145.166 						"/>
						<polygon style="fill:#603813;" points="75.21,141.864 78.262,142.903 78.209,143.526 75.107,142.45 						"/>
						<polygon style="fill:#ED1C24;" points="74.567,145.797 77.868,146.893 77.792,147.543 74.465,146.486 						"/>
						<path style="fill:#ED1C24;" d="M73.597,155.037c-0.069,2.386,0.145,4.145,0.925,4.169c0.748,0.023,1.386-1.48,1.913-3.579
							L73.597,155.037z"/>
						<path d="M75.825,142.074l1.827,0.622c0,0,0.358-3.155-0.084-3.776c-0.442-0.621-1.975-1.474-2.132-0.941
							C75.279,138.511,76.335,139.502,75.825,142.074z"/>
					</g>
					<path style="fill:#999999;" d="M74.263,117.923c0,0,0.101,0.836,0.252,2.089c0.143,1.253,0.298,2.928,0.451,4.603
						c0.134,1.676,0.266,3.353,0.338,4.613c0.064,1.261,0.106,2.101,0.106,2.101s-0.101-0.836-0.252-2.088
						c-0.143-1.254-0.298-2.929-0.451-4.604c-0.135-1.676-0.265-3.353-0.337-4.613C74.306,118.763,74.263,117.923,74.263,117.923z"
						/>
					<path style="fill:#999999;" d="M97.048,117.941c0,0-0.101,0.836-0.252,2.089c-0.143,1.253-0.298,2.928-0.451,4.603
						c-0.134,1.676-0.266,3.353-0.338,4.613c-0.064,1.261-0.106,2.101-0.106,2.101s0.101-0.836,0.252-2.088
						c0.143-1.254,0.298-2.929,0.451-4.604c0.135-1.676,0.265-3.353,0.337-4.613C97.005,118.781,97.048,117.941,97.048,117.941z"/>
				</g>
			</g>
		</g>
	</g>
	<g>
		<g>
			<path style="fill:#FFFFFF;" d="M61.35,7.856c-0.131,1.849-0.195,3.522-0.195,5.02c0,1.491,0.064,2.81,0.195,3.955l3.75-0.469
				l-0.078,2.891l-6.25,0.156L58.381,7.69L61.35,7.856z"/>
			<path style="fill:#FFFFFF;" d="M67.609,6.44l0.859,11.865l-2.656,0.313L65.344,6.44H67.609z"/>
			<path style="fill:#FFFFFF;" d="M71.613,8.511c0.436-0.098,0.861-0.146,1.279-0.146c2.018,0,3.316,1.048,3.896,3.145
				c0.299,1.087,0.432,2.337,0.4,3.75l-0.078,3.35l-2.529,0.156l-0.02-0.459c-3.178-0.11-4.834-0.892-4.971-2.344
				c-0.02-0.208-0.029-0.361-0.029-0.459c0-1.185,0.475-1.927,1.426-2.227c0.475-0.149,0.947-0.225,1.416-0.225
				c0.625,0,1.262,0.127,1.914,0.381c-0.008-1.12-0.02-1.712-0.039-1.777c-0.131-0.449-0.564-0.703-1.299-0.762
				c-0.625-0.052-1.225,0.469-1.797,1.563l-2.5-0.391C69.359,9.982,70.336,8.797,71.613,8.511z M73.234,14.79
				c-0.684,0-1.043,0.179-1.074,0.537c-0.053,0.521,0.715,0.944,2.305,1.27l-0.068-1.689C73.939,14.829,73.553,14.79,73.234,14.79z"
				/>
			<path style="fill:#FFFFFF;" d="M79.914,8.628l0.156,1.094c1.27-0.892,2.311-1.338,3.125-1.338c0.754,0,1.314,0.381,1.68,1.143
				c0.553,1.159,0.83,3.063,0.83,5.713c0,0.95-0.037,1.999-0.107,3.145l-2.637,0.088c0.207-1.406,0.313-2.595,0.313-3.564
				c0-1.185-0.156-2.041-0.469-2.568c-0.203-0.339-0.434-0.508-0.693-0.508c-0.502,0-1.113,0.589-1.836,1.768v5.166l-2.383-0.068
				l-0.4-9.678L79.914,8.628z"/>
			<path style="fill:#FFFFFF;" d="M88.771,14.653c0.293,0.983,0.914,1.497,1.865,1.543c0.885,0.046,1.484-0.42,1.797-1.396
				l2.734-0.391c-0.697,2.858-2.08,4.287-4.15,4.287c-0.639,0-1.352-0.146-2.139-0.439c-1.459-0.833-2.188-2.435-2.188-4.805
				c0-0.202,0.006-0.427,0.02-0.674c0.143-2.741,1.477-4.333,4.004-4.775c2.395-0.052,3.773,1.613,4.139,4.996L88.771,14.653z
				 M89.518,11.172c-0.361,0.427-0.559,0.942-0.59,1.548l3.662-1.045c-0.424-0.762-0.951-1.143-1.582-1.143
				C90.375,10.532,89.879,10.745,89.518,11.172z"/>
			<path style="fill:#FFFFFF;" d="M95.5,18.931c0.02-3.961-0.082-7.125-0.303-9.492l2.734-0.225l-0.088,0.889
				c1.34-0.833,2.707-1.228,4.102-1.182l0.264,2.363c-1.602,0-2.729,0.332-3.379,0.995c-0.449,0.462-0.674,1.635-0.674,3.521
				c0,0.858,0.045,1.869,0.137,3.033L95.5,18.931z"/>
			<path style="fill:#FFFFFF;" d="M102.57,14.614c0.045-1.484,0.412-2.761,1.104-3.828c0.82-1.276,1.916-1.914,3.291-1.914
				c1.451,0,2.5,0.358,3.145,1.074c0.527,0.586,0.939,1.634,1.24,3.145c0.117,0.593,0.176,1.152,0.176,1.68
				c0,1.133-0.281,2.077-0.84,2.832c-0.82,1.106-2.068,1.634-3.74,1.582c-1.537-0.046-2.664-0.437-3.379-1.172
				C102.85,17.277,102.518,16.145,102.57,14.614z M108.313,12.271c-0.457-0.43-0.887-0.645-1.289-0.645
				c-0.496,0-0.951,0.325-1.367,0.977c-0.371,0.579-0.557,1.143-0.557,1.689c0,0.515,0.168,1.042,0.508,1.582
				c0.377,0.605,0.813,0.908,1.309,0.908c0.566,0,1.084-0.296,1.553-0.889c0.449-0.56,0.674-1.13,0.674-1.709
				C109.143,13.56,108.865,12.922,108.313,12.271z"/>
		</g>
	</g>
</g>
</svg>
