<?xml version="1.0" encoding="utf-8"?>
<!-- Generator: Adobe Illustrator 21.0.0, SVG Export Plug-In . SVG Version: 6.00 Build 0)  -->
<svg version="1.1" id="Capa_1" xmlns="http://www.w3.org/2000/svg" xmlns:xlink="http://www.w3.org/1999/xlink" x="0px" y="0px"
	 viewBox="0 0 169.983 162.934" style="enable-background:new 0 0 169.983 162.934;" xml:space="preserve">
<g>
	<g>
		<g>
			<g>
				<path style="fill-rule:evenodd;clip-rule:evenodd;fill:#5D1230;" d="M26.738,0h116.376c4.294,0,2.98,14.511,2.98,21.766H23.758
					C23.758,14.511,23.024,0,26.738,0z"/>
				<path style="fill-rule:evenodd;clip-rule:evenodd;fill:#CCCCCC;" d="M26.166,13.463c0.028-5.542,0.337-11.222,1.865-12.94
					C27.662,0.185,27.233,0,26.738,0c-2.562,0-3.008,6.902-3.037,13.567C24.511,13.531,25.333,13.496,26.166,13.463z"/>
				<path style="fill-rule:evenodd;clip-rule:evenodd;fill:#CCCCCC;" d="M141.903,0.452c1.76,1.608,1.977,7.244,1.905,12.794
					c0.83,0.028,1.651,0.057,2.463,0.088C146.363,6.743,146.041,0,143.115,0C142.655,0,142.253,0.159,141.903,0.452z"/>
			</g>
			<g>
				<path style="opacity:0.2;fill-rule:evenodd;clip-rule:evenodd;" d="M20.911,161.493c-9.722-2.616-18.169-12.132-18.893-22.498
					c-2.634-37.733-2.687-59.564-0.175-99.701c0.755-12.051,9.874-21.89,21.604-23.69c34.064-5.227,89.025-5.227,123.088,0
					c11.731,1.8,20.85,11.639,21.605,23.69c2.512,40.136,2.458,61.968-0.175,99.701c-0.723,10.364-9.171,19.88-18.893,22.498
					C141.931,163.414,28.051,163.415,20.911,161.493z"/>
				<path style="fill-rule:evenodd;clip-rule:evenodd;fill:#FFFFFF;" d="M21.484,158.67c-9.68-2.616-18.094-12.131-18.814-22.496
					C0.046,98.44-0.006,76.609,2.497,36.472c0.751-12.052,9.831-21.89,21.514-23.69c33.92-5.228,88.043-5.228,121.963,0
					c11.681,1.8,20.763,11.639,21.514,23.69c2.502,40.136,2.447,61.968-0.175,99.702c-0.719,10.363-9.132,19.882-18.812,22.496
					C141.388,160.59,28.595,160.591,21.484,158.67z"/>
				<path style="fill-rule:evenodd;clip-rule:evenodd;fill:#999999;" d="M24.723,154.538c-9.404-2.541-17.575-11.782-18.276-21.853
					c-2.55-36.653-2.6-56.02-0.168-95.007c0.73-11.705,9.552-21.264,20.898-23.012c32.95-5.079,82.679-5.079,115.629,0
					c11.347,1.748,20.169,11.309,20.898,23.012c2.431,38.987,2.377,58.354-0.169,95.007c-0.699,10.067-8.874,19.313-18.275,21.853
					C138.354,156.403,31.63,156.404,24.723,154.538z"/>
				<path style="fill-rule:evenodd;clip-rule:evenodd;fill:#F2F2F2;" d="M4.509,81.456c0.094-12.871,0.684-26.368,1.771-43.778
					c0.73-11.705,9.552-21.264,20.898-23.012c32.95-5.078,82.679-5.078,115.629,0c11.347,1.748,20.169,11.309,20.898,23.012
					c1.085,17.409,1.675,30.906,1.769,43.778c-0.101,13.369-0.746,26.739-1.938,43.898c-0.698,10.066-8.873,19.312-18.276,21.853
					c-6.905,1.866-113.629,1.867-120.536,0c-9.404-2.541-17.575-11.783-18.275-21.853C5.255,108.195,4.608,94.824,4.509,81.456z"/>
				<path style="fill-rule:evenodd;clip-rule:evenodd;fill:#CCCCCC;" d="M4.512,80.972c0.106-12.726,0.694-26.102,1.767-43.294
					c0.73-11.705,9.552-21.264,20.898-23.012c32.95-5.078,82.679-5.078,115.629,0c11.347,1.748,20.169,11.309,20.898,23.012
					c1.071,17.177,1.659,30.545,1.765,43.26c-0.111,13.212-0.756,26.47-1.934,43.428c-0.698,10.067-8.873,19.312-18.276,21.853
					c-6.905,1.866-113.629,1.866-120.536,0c-9.404-2.541-17.575-11.782-18.275-21.853C5.269,107.422,4.624,94.173,4.512,80.972z"/>
				<path style="fill-rule:evenodd;clip-rule:evenodd;fill:#F2F2F2;" d="M28.714,17.242c35.789-4.857,81.629-4.783,114.092,0.221
					c11.347,1.748,20.169,11.307,20.898,23.013c0.269,4.321,0.509,9.194,0.717,14.49c-0.003-1.143-0.012-2.273-0.022-3.388
					c-0.203-5.068-0.435-9.74-0.695-13.899c-0.729-11.706-9.551-21.264-20.898-23.012c-32.95-5.079-82.679-5.079-115.629,0
					C15.831,16.414,7.01,25.97,6.279,37.678c-0.355,5.677-0.656,12.301-0.905,19.59c-0.017,1.331-0.03,2.678-0.042,4.04
					c0.256-7.779,0.572-14.833,0.947-20.831c0.372-5.964,2.845-11.368,6.679-15.467c-0.59,1.384-0.677,2.755-0.139,3.941
					c1.48,3.265,7.116,3.9,12.589,1.419s8.71-7.138,7.231-10.401C31.997,18.55,30.57,17.628,28.714,17.242z"/>
				<path style="fill-rule:evenodd;clip-rule:evenodd;fill:#B3B3B3;" d="M98.243,125.127c-36.913,0-70.089-7.59-92.959-19.657
					c0.302,5.858,0.69,12.078,1.164,18.896c0.701,10.071,8.872,19.312,18.275,21.853c6.907,1.866,113.631,1.866,120.536,0
					c9.403-2.541,17.577-11.786,18.276-21.853c0.195-2.802,0.375-5.503,0.541-8.12C144.96,121.876,122.402,125.127,98.243,125.127z"
					/>
			</g>
			<g>
				<path style="opacity:0.2;fill-rule:evenodd;clip-rule:evenodd;" d="M29.459,11.863c31.953-2.553,82.178-3.516,111.164,0.319
					c0.049,4.146,0.449,12.763,0.449,14.692c0,2.865-2.452,5.209-5.447,5.209H84.992H34.358c-2.996,0-5.447-2.343-5.447-5.209
					C28.911,24.976,29.403,15.937,29.459,11.863z"/>
				<path style="fill-rule:evenodd;clip-rule:evenodd;fill:#FFFFFF;" d="M84.992,29.246H35.284c-2.941,0-5.348-2.406-5.348-5.347
					C29.936,18.847,31.807,0,26.803,0h58.188h58.188c-5.004,0-3.133,18.847-3.133,23.899c0,2.941-2.406,5.347-5.348,5.347H84.992z"
					/>
				<path style="fill-rule:evenodd;clip-rule:evenodd;fill:#C12564;" d="M84.992,25.726H38.239c-2.767,0-5.03-2.116-5.03-4.703
					C33.209,16.579,34.968,0,30.262,0h54.73h54.729c-4.706,0-2.946,16.579-2.946,21.023c0,2.587-2.264,4.703-5.03,4.703H84.992z"/>
				<path style="fill-rule:evenodd;clip-rule:evenodd;fill:#E6E6E6;" d="M35.284,28.318c-2.845,0-5.188-2.25-5.34-5.059
					c-0.005,0.233-0.008,0.446-0.008,0.64c0,2.941,2.406,5.347,5.348,5.347h49.708h49.707c2.942,0,5.348-2.406,5.348-5.347
					c0-0.194-0.003-0.408-0.008-0.64c-0.151,2.809-2.494,5.059-5.34,5.059H84.992H35.284z"/>
				<path style="fill-rule:evenodd;clip-rule:evenodd;fill:#961D4E;" d="M80.411,21.766c-15.818-0.873-30.678-2.515-44.466-5.014
					c-0.855-0.155-1.706-0.313-2.552-0.475c-0.007,0.176-0.015,0.35-0.023,0.521c-0.081,1.775-0.16,3.276-0.16,4.225
					c0,0.253,0.022,0.501,0.063,0.743c0.384,2.237,2.47,3.96,4.967,3.96h46.753h46.752c2.427,0,4.466-1.629,4.93-3.775
					C116.838,22.759,98.031,22.738,80.411,21.766z"/>
				<path style="fill-rule:evenodd;clip-rule:evenodd;fill:#DA3F7E;" d="M32.906,3.396c35.041-1.761,69.847-1.961,104.498-1.127
					C137.902,0.872,138.641,0,139.72,0H30.262C31.608,0,32.425,1.355,32.906,3.396z"/>
			</g>
		</g>
		<g>
			<g>
				<path style="fill-rule:evenodd;clip-rule:evenodd;fill:#808080;" d="M84.992,132.443c26.806,0,48.668-21.862,48.668-48.668
					s-21.862-48.67-48.668-48.67s-48.67,21.864-48.67,48.67S58.187,132.443,84.992,132.443z"/>
				<path style="fill-rule:evenodd;clip-rule:evenodd;fill:#DCB000;" d="M84.992,132.315c-25.88,0-47.032-20.194-48.582-45.683
					c-0.053,0.987-0.088,1.982-0.088,2.986c0,26.884,21.786,48.668,48.67,48.668c26.883,0,48.668-21.784,48.668-48.668
					c0-1.004-0.035-1.998-0.086-2.986C132.025,112.121,110.872,132.315,84.992,132.315z"/>
			</g>
			<g>
				<path style="fill-rule:evenodd;clip-rule:evenodd;fill:#0059E1;" d="M84.992,136.516c26.806,0,48.668-21.862,48.668-48.668
					S111.798,39.18,84.992,39.18s-48.67,21.862-48.67,48.668S58.187,136.516,84.992,136.516z"/>
				<path style="fill-rule:evenodd;clip-rule:evenodd;fill:#F2F2F2;" d="M84.992,136.386c-25.88,0-47.032-20.192-48.582-45.682
					c-0.053,0.987-0.088,1.983-0.088,2.987c0,26.883,21.786,48.668,48.67,48.668c26.883,0,48.668-21.785,48.668-48.668
					c0-1.004-0.035-2-0.086-2.987C132.025,116.194,110.872,136.386,84.992,136.386z"/>
			</g>
		</g>
	</g>
	<g>
		<defs>
			<path id="SVGID_1_" d="M84.992,136.516c26.806,0,48.668-21.862,48.668-48.668S111.798,39.18,84.992,39.18
				s-48.67,21.862-48.67,48.668S58.187,136.516,84.992,136.516z"/>
		</defs>
		<clipPath id="SVGID_2_">
			<use xlink:href="#SVGID_1_"  style="overflow:visible;"/>
		</clipPath>
		<g style="clip-path:url(#SVGID_2_);">
			<g>
				<g>
					<g>
						<g id="XMLID_122_">
							
								<rect id="XMLID_123_" x="70.129" y="162.066" transform="matrix(0.1165 -0.9932 0.9932 0.1165 -94.586 222.444)" style="fill:#EFC392;stroke:#994900;stroke-width:0.45;stroke-linecap:round;stroke-linejoin:round;stroke-miterlimit:10;" width="15.212" height="4.639"/>
						</g>
						<g id="XMLID_119_">
							
								<rect id="XMLID_121_" x="89.442" y="156.779" transform="matrix(0.9932 -0.1165 0.1165 0.9932 -18.5219 11.8066)" style="fill:#EFC392;stroke:#994900;stroke-width:0.45;stroke-linecap:round;stroke-linejoin:round;stroke-miterlimit:10;" width="4.639" height="15.212"/>
						</g>
					</g>
					<g id="XMLID_110_">
						
							<path id="XMLID_112_" style="fill:#EFC392;stroke:#994900;stroke-width:0.45;stroke-linecap:round;stroke-linejoin:round;stroke-miterlimit:10;" d="
							M96.75,119.449c0,0,7.903,17.355-3.889,21.525l0.359-4.098c0,0,5.522-7.21,2.417-14.653L96.75,119.449z"/>
					</g>
					<g id="XMLID_125_">
						
							<path id="XMLID_126_" style="fill:#EFC392;stroke:#994900;stroke-width:0.45;stroke-linecap:round;stroke-linejoin:round;stroke-miterlimit:10;" d="
							M72.66,119.449c0,0-7.903,17.355,3.889,21.525l-0.359-4.098c0,0-5.522-7.21-2.417-14.653L72.66,119.449z"/>
					</g>
					<g>
						<path style="fill:#AF0573;" d="M73.159,117.593c0,0-5.071-0.577-4.45,3.991l0.828,1.933c0,0,3.355-1.493,5.351,0
							C74.888,123.516,76.472,119.224,73.159,117.593z"/>
						
							<path style="fill:#EFC392;stroke:#994900;stroke-width:0.45;stroke-linecap:round;stroke-linejoin:round;stroke-miterlimit:10;" d="
							M73.159,117.593l2.587-0.928l5.286-1.794h7.086l5.346,1.794l2.588,0.928c0,0-6.047,5.411-11.19,5.363
							C79.718,122.907,73.159,117.593,73.159,117.593z"/>
						<path style="fill:#E93E96;" d="M93.464,116.665c0,0-3.021,4.305-8.859,4.216c-5.837,0.089-8.859-4.216-8.859-4.216
							l-2.587,0.928c1.863,3.388,3.829,18.747,3.829,18.747h7.617h7.616c0,0,1.967-15.36,3.83-18.747L93.464,116.665z"/>
						<path style="fill:#30307F;" d="M92.221,136.34h-7.616h-7.617c0,0-6.831,0-6.106,25.561c0,0,4.037,2.459,8.797,0
							c0,0,3.332,1.395,4.926,1.093c1.595,0.303,4.925-1.093,4.925-1.093c4.762,2.459,8.797,0,8.797,0
							C99.052,136.34,92.221,136.34,92.221,136.34z"/>
						<path style="fill:#AF0573;" d="M96.052,117.593c0,0,5.07-0.577,4.45,3.991l-0.828,1.933c0,0-3.355-1.493-5.351,0
							C94.323,123.516,92.739,119.224,96.052,117.593z"/>
						<polygon style="fill:#AF0573;" points="92.221,136.34 76.989,136.34 76.749,134.577 92.461,134.577 						"/>
						<path style="fill:#131342;" d="M78.138,162.542c0,0-0.847-16.188,0.744-20.638c0,0,1.673,14.744,1.149,20.138
							C80.031,162.041,79.736,161.63,78.138,162.542z"/>
						<path style="fill:#131342;" d="M91.072,162.542c0,0,0.848-16.188-0.743-20.638c0,0-1.674,14.744-1.151,20.138
							C89.178,162.041,89.474,161.63,91.072,162.542z"/>
					</g>
					<g>
						<g>
							<path style="fill:#834C2E;" d="M75.354,118.816c0.422-1.032,0.762-2.295,0.763-3.688c0-1.668-0.404-3.048-0.847-4.059
								c0.564-0.804,1.102-1.81,1.314-2.92c0.375-1.96-0.568-4.357-1.133-5.559c0.149-0.35,0.294-0.728,0.431-1.132
								c0.789-2.333-0.247-5.408-0.894-6.957c0.075-0.28,0.156-0.536,0.243-0.762c-1.951-2.125-3.238-4.967-3.914-7.745
								c-0.977,0.889-2.005,2.202-2.351,3.975c-0.491,2.516,0.867,6.11,1.786,8.153c-0.16,1.03-0.314,1.864-0.455,2.401
								c-0.121,0.461-0.169,0.938-0.16,1.42c-0.537,1.223-1.242,3.297-0.998,5.359c0.118,0.995,0.579,2.032,1.182,3.011
								c-0.447,0.99-1.195,3.234-0.614,6.318c0.222,1.179,0.672,2.173,1.206,2.994c-0.002,0.352,0.012,0.762,0.049,1.245
								c0.145,1.929,1.009,3.476,1.722,4.447c-0.028,0.155-0.035,0.327-0.014,0.524c-0.718,2.672-2.398,8.103-3.198,13.095
								c-0.911,5.684-0.312,7.106,0.179,5.745c0.491-1.362,2.041-5.797,2.041-5.797s-0.628,1.975-1.202,5.341
								c-0.574,3.367-0.96,5.489-0.96,5.489s3.639-6.357,3.629-5.9c-0.011,0.457-1.393,3.735-1.393,3.735s0.714-1.127,2.271-4.365
								c1.226-2.55,1.447-10.52,1.485-13.791c0.938-0.839,2.083-2.16,2.322-3.938C78.159,123.085,76.222,120.041,75.354,118.816z"/>
							<g>
								<path style="fill:#FBB03B;" d="M71.08,126.382c-0.18,0.76,0.272,1.526,1.017,1.713c1.372,0.34,2.744,0.681,4.116,1.021
									c0.746,0.187,1.513-0.313,1.704-1.119l0,0c0.191-0.806-0.272-1.596-1.023-1.763c-1.379-0.31-2.759-0.619-4.138-0.929
									C72.005,125.139,71.259,125.621,71.08,126.382L71.08,126.382z"/>
							</g>
						</g>
						<path style="fill:#834C2E;" d="M104.393,71.215c-3.712-7.898-11.64-10.958-19.418-10.938
							c-7.778-0.02-15.706,3.041-19.418,10.938c-3.319,7.062-4.298,18.396,2.595,23.399l16.823-6.53l16.823,6.53
							C108.691,89.61,107.712,78.276,104.393,71.215z"/>
						
							<path style="fill:#EFC392;stroke:#994900;stroke-width:0.45;stroke-linecap:round;stroke-linejoin:round;stroke-miterlimit:10;" d="
							M69.126,95.492c0,0-1.393-4.883-3.594-4.883c-2.2,0-1.944,8.459,4.801,12.05L69.126,95.492z"/>
						
							<path style="fill:#EFC392;stroke:#994900;stroke-width:0.45;stroke-linecap:round;stroke-linejoin:round;stroke-miterlimit:10;" d="
							M100.53,95.492c0,0,1.401-5.191,3.602-5.191c2.201,0,2.26,9.351-4.811,12.358L100.53,95.492z"/>
						<path style="fill:#834C2E;" d="M84.759,62.538c-11.942,0-19.276,4.183-19.276,17.901c0,4.086-1.473,6.77,0.049,10.17
							c1.368,2.692,2.512,4.306,2.512,4.306s-0.318-18.623,1.247-20.08c0.748-0.694,7.869,1.19,15.468,1.19
							c8.513,0,15.091-1.664,15.718-0.808c1.199,1.637,1.434,11.034,0.944,19.698c0.17-0.166,0.334-0.339,0.493-0.515
							c2.807-4.19,2.142-8.265,2.142-13.961C104.055,66.721,96.701,62.538,84.759,62.538z"/>
						<g>
							<g>
								<path id="XMLID_1682_" style="fill-rule:evenodd;clip-rule:evenodd;fill:#D3A171;" d="M91.096,114.773L91.096,114.773
									c0,5.11-12.649,5.11-12.649,0l0,0C78.447,109.662,91.096,109.662,91.096,114.773z"/>
								
									<path style="fill:#EFC392;stroke:#994900;stroke-width:0.45;stroke-linecap:round;stroke-linejoin:round;stroke-miterlimit:10;" d="
									M84.856,69.603c0,0,10.857,0,12.095,0c1.238,0,4.307,1.955,4.625,11.801c0.627,19.301-0.199,24.341-7.114,31.635
									c-3.188,3.361-6.552,4.814-9.606,4.814c-2.969,0-6.42-1.453-9.607-4.814c-6.915-7.294-7.742-12.335-7.115-31.635
									c0.319-9.846,3.386-11.801,4.625-11.801C73.997,69.603,84.856,69.603,84.856,69.603z"/>
								<g>
									<g>
										<path style="fill:#834C2E;" d="M96.469,86.345c-0.11-0.058-0.304-0.114-0.54-0.204c-0.238-0.087-0.524-0.199-0.86-0.272
											c-0.652-0.2-1.473-0.302-2.274-0.362c-1.618-0.078-3.154,0.257-3.422,0.315c-0.566,0.085-1.366,0.387-1.801-0.466
											c-0.242-0.44,0.197-0.88,0.869-1.169c0.67-0.299,1.569-0.436,2.219-0.474c0.646-0.059,2.061-0.019,3.377,0.32
											c0.327,0.094,0.653,0.173,0.956,0.277c0.3,0.115,0.584,0.224,0.846,0.324c0.504,0.235,0.902,0.444,1.117,0.559
											c0.407,0.28,0.877,0.536,1.177,0.873c0.312,0.321,0.514,0.622,0.476,0.86C98.514,87.409,97.392,86.73,96.469,86.345z"/>
									</g>
								</g>
								<g>
									<g>
										<path style="fill:#834C2E;" d="M73.047,86.345c0.11-0.058,0.304-0.114,0.54-0.204c0.238-0.087,0.524-0.199,0.86-0.272
											c0.653-0.2,1.474-0.302,2.274-0.362c1.619-0.078,3.155,0.257,3.423,0.315c0.565,0.085,1.366,0.387,1.801-0.466
											c0.242-0.44-0.197-0.88-0.869-1.169c-0.671-0.299-1.569-0.436-2.219-0.474c-0.648-0.059-2.062-0.019-3.379,0.32
											c-0.326,0.094-0.653,0.173-0.955,0.277c-0.3,0.115-0.585,0.224-0.846,0.324c-0.505,0.235-0.903,0.444-1.118,0.559
											c-0.407,0.28-0.876,0.536-1.177,0.873c-0.312,0.321-0.514,0.622-0.476,0.86C71.003,87.409,72.125,86.73,73.047,86.345z"/>
									</g>
								</g>
								<g id="XMLID_92_">
									<g id="XMLID_98_">
										<path id="XMLID_106_" style="fill:#FFFFFF;" d="M75.867,88.359c-5.079,1.344-4.858,8.594,0.66,8.58
											C82.045,96.925,81.778,86.795,75.867,88.359z"/>
										
											<ellipse id="XMLID_101_" transform="matrix(0.0209 -0.9998 0.9998 0.0209 -17.6294 167.0573)" cx="76.48" cy="92.53" rx="2.712" ry="2.147"/>
										
											<ellipse id="XMLID_100_" transform="matrix(0.0209 -0.9998 0.9998 0.0209 -17.2918 164.6448)" style="fill:#FFFFFF;" cx="75.416" cy="91.151" rx="1.281" ry="1.281"/>
										
											<ellipse id="XMLID_99_" transform="matrix(0.0209 -0.9998 0.9998 0.0209 -18.0604 168.9085)" style="fill:#FFFFFF;" cx="77.209" cy="93.675" rx="0.49" ry="0.49"/>
									</g>
									<g id="XMLID_93_">
										<path id="XMLID_97_" style="fill:#FFFFFF;" d="M93.734,88.4c5.018,1.555,4.494,8.79-1.018,8.545
											C87.203,96.7,87.894,86.59,93.734,88.4z"/>
										
											<ellipse id="XMLID_96_" transform="matrix(0.0209 -0.9998 0.9998 0.0209 -1.3009 183.7636)" cx="93.174" cy="92.546" rx="2.712" ry="2.147"/>
										
											<ellipse id="XMLID_95_" transform="matrix(0.0209 -0.9998 0.9998 0.0209 -0.9632 181.3511)" style="fill:#FFFFFF;" cx="92.11" cy="91.167" rx="1.281" ry="1.281"/>
										
											<ellipse id="XMLID_94_" transform="matrix(0.0209 -0.9998 0.9998 0.0209 -1.732 185.6148)" style="fill:#FFFFFF;" cx="93.903" cy="93.692" rx="0.49" ry="0.49"/>
									</g>
								</g>
								<path id="XMLID_91_" style="fill:#C4884D;" d="M82.511,101.991c0.27-0.358,1.074,0.617,2.303,0.697
									c1.229,0.08,1.77-1.225,2.307-0.916c0.537,0.309-0.543,1.996-2.387,2.145C82.89,104.066,82.28,102.298,82.511,101.991z"/>
								<path id="XMLID_65_" style="fill:#C4884D;" d="M87.958,109.667c-0.701,0.155-1.297,0.416-2.034,0.456
									c-0.748,0.04-1.506-0.166-2.242-0.09c-0.203,0.022-0.234,0.27-0.048,0.346c1.169,0.48,3.548,0.565,4.45-0.496
									C88.167,109.786,88.09,109.638,87.958,109.667z"/>
								<g>
									<path d="M72.677,91.138c0.344-0.781,0.923-1.367,1.566-1.738c0.643-0.371,1.348-0.539,2.052-0.62
										c0.645-0.074,1.307-0.076,1.926,0.164c0.97,0.375,1.747,1.305,2.375,2.314c-0.061-0.215-0.14-0.422-0.229-0.62
										c-0.733-1.621-1.851-2.637-3.667-2.7c-0.954-0.033-1.904,0.25-2.75,0.796c-0.394,0.254-0.843,0.564-1.162,0.958
										c-0.146,0.18-0.158,0.226-0.164,0.492C72.617,90.402,72.759,90.952,72.677,91.138z"/>
									<path d="M72.562,90.402c-0.515,0.356-1.244,0.088-1.522-0.559c0.004,0.057,0.015,0.113,0.027,0.168
										c0.092,0.39,0.297,0.746,0.585,0.936c0.288,0.19,0.659,0.196,0.932-0.027c0.234-0.191,0.395-0.579,0.318-0.921
										C72.816,90.136,72.698,90.308,72.562,90.402z"/>
									<path d="M72.627,90.023c-0.587,0.051-1.158-0.576-1.19-1.309c-0.016,0.054-0.025,0.11-0.032,0.167
										c-0.049,0.402,0.016,0.833,0.213,1.157c0.196,0.324,0.531,0.524,0.853,0.466c0.277-0.05,0.554-0.316,0.6-0.667
										C72.948,89.915,72.783,90.009,72.627,90.023z"/>
								</g>
								<g>
									<path d="M96.746,91.156c-0.344-0.781-0.923-1.367-1.566-1.738c-0.643-0.371-1.348-0.539-2.052-0.62
										c-0.645-0.074-1.307-0.076-1.926,0.164c-0.97,0.375-1.747,1.305-2.375,2.314c0.061-0.215,0.14-0.422,0.229-0.62
										c0.733-1.621,1.851-2.637,3.667-2.7c0.954-0.033,1.904,0.25,2.75,0.796c0.394,0.254,0.843,0.564,1.162,0.958
										c0.146,0.18,0.158,0.226,0.164,0.492C96.805,90.42,96.664,90.97,96.746,91.156z"/>
									<path d="M96.861,90.421c0.515,0.356,1.244,0.088,1.522-0.559c-0.004,0.057-0.015,0.113-0.027,0.168
										c-0.092,0.39-0.297,0.746-0.585,0.936c-0.288,0.19-0.659,0.196-0.932-0.027c-0.234-0.191-0.395-0.579-0.318-0.921
										C96.607,90.154,96.724,90.326,96.861,90.421z"/>
									<path d="M96.795,90.041c0.587,0.051,1.158-0.576,1.19-1.309c0.016,0.054,0.025,0.11,0.032,0.167
										c0.049,0.402-0.016,0.833-0.213,1.157c-0.196,0.324-0.531,0.524-0.853,0.466c-0.277-0.05-0.554-0.316-0.6-0.667
										C96.474,89.933,96.639,90.027,96.795,90.041z"/>
								</g>
								<g>
									<path style="fill:#E54C3A;" d="M90.438,105.728c-1.487,0.335-4.018-0.844-5.724,0.557c-1.952-1.03-4.195,0.634-5.719,0.604
										c0.828,1.005,2.065,3.236,5.954,2.938c0,0.001,0,0.002,0,0.003c0.041-0.004,0.082-0.009,0.123-0.014
										c0.041-0.004,0.081-0.007,0.123-0.011c0-0.001,0-0.002,0-0.003C89.064,109.314,89.828,106.879,90.438,105.728z"/>
									<path style="fill:#7F1F1B;" d="M91.201,104.96c0,0-0.028,0.048-0.082,0.138c-0.056,0.088-0.142,0.221-0.268,0.373
										c-0.127,0.153-0.291,0.33-0.501,0.513c-0.208,0.184-0.457,0.375-0.746,0.557c-0.144,0.092-0.297,0.182-0.458,0.272
										c-0.162,0.088-0.332,0.172-0.509,0.254c-0.354,0.164-0.736,0.32-1.141,0.448c-0.202,0.067-0.409,0.128-0.62,0.186
										c-0.105,0.029-0.212,0.057-0.319,0.084c-0.107,0.026-0.216,0.048-0.325,0.072c-0.438,0.091-0.882,0.164-1.34,0.213
										c-0.217,0.02-0.454,0.035-0.677,0.045c-0.226,0.01-0.451,0.013-0.674,0.012c-0.446,0-0.884-0.036-1.306-0.083
										c-0.423-0.044-0.827-0.122-1.207-0.21c-0.19-0.045-0.374-0.092-0.55-0.146c-0.175-0.056-0.344-0.113-0.503-0.174
										c-0.32-0.12-0.602-0.257-0.843-0.395c-0.242-0.136-0.439-0.277-0.594-0.4c-0.155-0.124-0.264-0.235-0.337-0.311
										c-0.071-0.078-0.109-0.119-0.109-0.119l0.025-0.027c0,0,0.041,0.036,0.119,0.105c0.079,0.067,0.198,0.161,0.358,0.269
										c0.161,0.107,0.364,0.224,0.607,0.34c0.243,0.116,0.526,0.228,0.842,0.327c0.632,0.201,1.396,0.348,2.222,0.419
										c0.826,0.072,1.714,0.071,2.594-0.019c0.439-0.044,0.877-0.11,1.304-0.194c0.427-0.085,0.843-0.187,1.24-0.305
										c0.795-0.235,1.514-0.533,2.092-0.857c0.289-0.162,0.544-0.329,0.758-0.491c0.215-0.162,0.39-0.319,0.526-0.456
										c0.135-0.138,0.232-0.254,0.296-0.335c0.063-0.083,0.096-0.127,0.096-0.127L91.201,104.96z"/>
								</g>
							</g>
						</g>
						<g>
							<path style="fill:#834C2E;" d="M104.72,87.961h0.434c3.028-27.417-19.983-26.32-19.983-26.32l-0.3,1.957l-0.3-1.957
								c0,0-23.01-1.097-19.983,26.32h0.434l-0.724,0.298c0,0,3.319-0.7,3.524,3.207c0.898-2.371,2.753-4.336,5.176-5.548
								c3.652-1.826,9.103-5.376,11.874-11.21c2.771,5.835,8.223,9.385,11.874,11.21c2.423,1.211,4.278,3.177,5.176,5.548
								c0.204-3.907,3.524-3.207,3.524-3.207L104.72,87.961z"/>
						</g>
					</g>
				</g>
			</g>
		</g>
	</g>
	<g>
		<g>
			<path style="fill:#FFFFFF;" d="M46.378,19.565l1.689-13.047c3.04,0.886,4.756,1.979,5.146,3.281
				c0.137,0.456,0.205,0.925,0.205,1.406c0,0.859-0.225,1.731-0.674,2.617C52.042,15.203,49.92,17.117,46.378,19.565z M49.985,10.19
				L49.5,13.784c1.206-0.678,1.819-1.328,1.839-1.953S50.908,10.659,49.985,10.19z"/>
			<path style="fill:#FFFFFF;" d="M56.555,14.653c0.293,0.983,0.914,1.497,1.865,1.543c0.885,0.046,1.484-0.42,1.797-1.396
				l2.734-0.391c-0.697,2.858-2.08,4.287-4.15,4.287c-0.639,0-1.352-0.146-2.139-0.439c-1.458-0.833-2.188-2.435-2.188-4.805
				c0-0.202,0.007-0.427,0.02-0.674c0.144-2.741,1.478-4.333,4.004-4.775c2.395-0.052,3.773,1.613,4.139,4.996L56.555,14.653z
				 M57.301,11.172c-0.361,0.427-0.559,0.942-0.59,1.548l3.662-1.045c-0.424-0.762-0.951-1.143-1.582-1.143
				C58.158,10.532,57.662,10.745,57.301,11.172z"/>
			<path style="fill:#FFFFFF;" d="M62.668,18.062l1.152-2.617c1.471,0.957,2.609,1.436,3.418,1.436c0.285,0,0.563-0.085,0.83-0.254
				c0.299-0.188,0.449-0.42,0.449-0.693c0-0.41-0.547-0.755-1.641-1.035c-1.582-0.403-2.646-1.233-3.193-2.49
				c-0.184-0.417-0.273-0.801-0.273-1.152c0-0.749,0.383-1.403,1.152-1.963c0.656-0.481,1.637-0.723,2.939-0.723
				c0.918,0,1.998,0.12,3.242,0.361l-0.83,2.5c-0.945-0.423-1.709-0.635-2.295-0.635c-0.287,0-0.557,0.062-0.811,0.186
				c-0.313,0.15-0.469,0.353-0.469,0.606c0,0.234,0.207,0.485,0.625,0.753c0.285,0.183,0.846,0.437,1.68,0.763
				c0.703,0.273,1.211,0.547,1.523,0.821c0.455,0.397,0.695,0.932,0.723,1.604c0.045,1.102-0.469,2.102-1.543,3.001
				c-0.457,0.385-1.123,0.577-2.002,0.577C66.166,19.106,64.607,18.758,62.668,18.062z"/>
			<path style="fill:#FFFFFF;" d="M73.596,7.466c2.174,0,3.576,0.843,4.209,2.529c0.156,0.417,0.234,0.813,0.234,1.191
				c0,1.582-1.434,2.712-4.297,3.389l0.313,4.443l-2.578,0.156L71.32,7.72C72.152,7.551,72.912,7.466,73.596,7.466z M75.422,10.815
				c-0.027-0.378-0.664-0.716-1.914-1.016l0.156,2.266C74.861,11.609,75.447,11.193,75.422,10.815z"/>
			<path style="fill:#FFFFFF;" d="M80.676,6.44l0.859,11.865l-2.656,0.313L78.41,6.44H80.676z"/>
			<path style="fill:#FFFFFF;" d="M84.68,8.511c0.436-0.098,0.861-0.146,1.279-0.146c2.018,0,3.316,1.048,3.896,3.145
				c0.299,1.087,0.432,2.337,0.4,3.75l-0.078,3.35l-2.529,0.156l-0.02-0.459c-3.178-0.11-4.834-0.892-4.971-2.344
				c-0.02-0.208-0.029-0.361-0.029-0.459c0-1.185,0.475-1.927,1.426-2.227c0.475-0.149,0.947-0.225,1.416-0.225
				c0.625,0,1.262,0.127,1.914,0.381c-0.008-1.12-0.02-1.712-0.039-1.777c-0.131-0.449-0.564-0.703-1.299-0.762
				c-0.625-0.052-1.225,0.469-1.797,1.563l-2.5-0.391C82.426,9.982,83.402,8.797,84.68,8.511z M86.301,14.79
				c-0.684,0-1.043,0.179-1.074,0.537c-0.053,0.521,0.715,0.944,2.305,1.27l-0.068-1.689C87.006,14.829,86.619,14.79,86.301,14.79z"
				/>
			<path style="fill:#FFFFFF;" d="M97.746,8.687l0.156,3.291l-4.219,4.795l4.766-0.889l0.469,2.666l-7.891,0.703l-0.391-2.275
				l4.297-5.479l-4.141,0.137l-0.547-2.744L97.746,8.687z"/>
			<path style="fill:#FFFFFF;" d="M101.848,8.511c0.436-0.098,0.861-0.146,1.279-0.146c2.018,0,3.316,1.048,3.896,3.145
				c0.299,1.087,0.432,2.337,0.4,3.75l-0.078,3.35l-2.529,0.156l-0.02-0.459c-3.178-0.11-4.834-0.892-4.971-2.344
				c-0.02-0.208-0.029-0.361-0.029-0.459c0-1.185,0.475-1.927,1.426-2.227c0.475-0.149,0.947-0.225,1.416-0.225
				c0.625,0,1.262,0.127,1.914,0.381c-0.008-1.12-0.02-1.712-0.039-1.777c-0.131-0.449-0.564-0.703-1.299-0.762
				c-0.625-0.052-1.225,0.469-1.797,1.563l-2.5-0.391C99.594,9.982,100.57,8.797,101.848,8.511z M103.469,14.79
				c-0.684,0-1.043,0.179-1.074,0.537c-0.053,0.521,0.715,0.944,2.305,1.27l-0.068-1.689
				C104.174,14.829,103.787,14.79,103.469,14.79z"/>
			<path style="fill:#FFFFFF;" d="M107.99,18.706l-0.42-12.188c4.035,1.094,6.217,2.526,6.543,4.297
				c0.117,0.638,0.176,1.25,0.176,1.836c0,0.944-0.17,1.738-0.508,2.383C113.234,16.076,111.303,17.3,107.99,18.706z
				 M110.148,10.425l0.088,3.75c1.041-0.313,1.598-0.886,1.67-1.719C111.977,11.623,111.391,10.945,110.148,10.425z"/>
			<path style="fill:#FFFFFF;" d="M117.512,8.511c0.436-0.098,0.861-0.146,1.279-0.146c2.018,0,3.316,1.048,3.896,3.145
				c0.299,1.087,0.432,2.337,0.4,3.75l-0.078,3.35l-2.529,0.156l-0.02-0.459c-3.178-0.11-4.834-0.892-4.971-2.344
				c-0.02-0.208-0.029-0.361-0.029-0.459c0-1.185,0.475-1.927,1.426-2.227c0.475-0.149,0.947-0.225,1.416-0.225
				c0.625,0,1.262,0.127,1.914,0.381c-0.008-1.12-0.02-1.712-0.039-1.777c-0.131-0.449-0.564-0.703-1.299-0.762
				c-0.625-0.052-1.225,0.469-1.797,1.563l-2.5-0.391C115.258,9.982,116.234,8.797,117.512,8.511z M119.133,14.79
				c-0.684,0-1.043,0.179-1.074,0.537c-0.053,0.521,0.715,0.944,2.305,1.27l-0.068-1.689
				C119.838,14.829,119.451,14.79,119.133,14.79z"/>
		</g>
	</g>
</g>
</svg>
