<?xml version="1.0" encoding="utf-8"?>
<!-- Generator: Adobe Illustrator 21.0.0, SVG Export Plug-In . SVG Version: 6.00 Build 0)  -->
<svg version="1.1" id="Capa_1" xmlns="http://www.w3.org/2000/svg" xmlns:xlink="http://www.w3.org/1999/xlink" x="0px" y="0px"
	 viewBox="0 0 169.983 162.934" style="enable-background:new 0 0 169.983 162.934;" xml:space="preserve">
<g>
	<g>
		<g>
			<g>
				<g>
					<path style="fill-rule:evenodd;clip-rule:evenodd;fill:#054700;" d="M26.738,0h116.376c4.294,0,2.98,14.511,2.98,21.766H23.758
						C23.758,14.511,23.024,0,26.738,0z"/>
					<path style="fill-rule:evenodd;clip-rule:evenodd;fill:#CCCCCC;" d="M26.166,13.463c0.028-5.542,0.337-11.222,1.865-12.94
						C27.662,0.185,27.233,0,26.738,0c-2.562,0-3.008,6.902-3.037,13.567C24.511,13.531,25.333,13.496,26.166,13.463z"/>
					<path style="fill-rule:evenodd;clip-rule:evenodd;fill:#CCCCCC;" d="M141.903,0.452c1.76,1.608,1.977,7.244,1.905,12.794
						c0.83,0.028,1.651,0.057,2.463,0.088C146.363,6.743,146.041,0,143.115,0C142.655,0,142.253,0.159,141.903,0.452z"/>
				</g>
				<g>
					<path style="opacity:0.2;fill-rule:evenodd;clip-rule:evenodd;" d="M20.911,161.493c-9.722-2.616-18.169-12.132-18.893-22.498
						c-2.634-37.733-2.687-59.564-0.175-99.701c0.755-12.051,9.874-21.89,21.604-23.69c34.064-5.227,89.025-5.227,123.088,0
						c11.731,1.8,20.85,11.639,21.605,23.69c2.512,40.136,2.458,61.968-0.175,99.701c-0.723,10.364-9.171,19.88-18.893,22.498
						C141.931,163.414,28.051,163.415,20.911,161.493z"/>
					<path style="fill-rule:evenodd;clip-rule:evenodd;fill:#FFFFFF;" d="M21.484,158.67c-9.68-2.616-18.094-12.131-18.814-22.496
						C0.046,98.44-0.006,76.609,2.497,36.472c0.751-12.052,9.831-21.89,21.514-23.69c33.92-5.228,88.043-5.228,121.963,0
						c11.681,1.8,20.763,11.639,21.514,23.69c2.502,40.136,2.447,61.968-0.175,99.702c-0.719,10.363-9.132,19.882-18.812,22.496
						C141.388,160.59,28.595,160.591,21.484,158.67z"/>
					<path style="fill-rule:evenodd;clip-rule:evenodd;fill:#999999;" d="M24.723,154.538c-9.404-2.541-17.575-11.782-18.276-21.853
						c-2.55-36.653-2.6-56.02-0.168-95.007c0.73-11.705,9.552-21.264,20.898-23.012c32.95-5.079,82.679-5.079,115.629,0
						c11.347,1.748,20.169,11.309,20.898,23.012c2.431,38.987,2.377,58.354-0.169,95.007c-0.699,10.067-8.874,19.313-18.275,21.853
						C138.354,156.403,31.63,156.404,24.723,154.538z"/>
					<path style="fill-rule:evenodd;clip-rule:evenodd;fill:#F2F2F2;" d="M4.509,81.456c0.094-12.871,0.684-26.368,1.771-43.778
						c0.73-11.705,9.552-21.264,20.898-23.012c32.95-5.078,82.679-5.078,115.629,0c11.347,1.748,20.169,11.309,20.898,23.012
						c1.085,17.409,1.675,30.906,1.769,43.778c-0.101,13.369-0.746,26.739-1.938,43.898c-0.698,10.066-8.873,19.312-18.276,21.853
						c-6.905,1.866-113.629,1.867-120.536,0c-9.404-2.541-17.575-11.783-18.275-21.853C5.255,108.195,4.608,94.824,4.509,81.456z"/>
					<path style="fill-rule:evenodd;clip-rule:evenodd;fill:#CCCCCC;" d="M4.512,80.972c0.106-12.726,0.694-26.102,1.767-43.294
						c0.73-11.705,9.552-21.264,20.898-23.012c32.95-5.078,82.679-5.078,115.629,0c11.347,1.748,20.169,11.309,20.898,23.012
						c1.071,17.177,1.659,30.545,1.765,43.26c-0.111,13.212-0.756,26.47-1.934,43.428c-0.698,10.067-8.873,19.312-18.276,21.853
						c-6.905,1.866-113.629,1.866-120.536,0c-9.404-2.541-17.575-11.782-18.275-21.853C5.269,107.422,4.624,94.173,4.512,80.972z"/>
					<path style="fill-rule:evenodd;clip-rule:evenodd;fill:#F2F2F2;" d="M28.714,17.242c35.789-4.857,81.629-4.783,114.092,0.221
						c11.347,1.748,20.169,11.307,20.898,23.013c0.269,4.321,0.509,9.194,0.717,14.49c-0.003-1.143-0.012-2.273-0.022-3.388
						c-0.203-5.068-0.435-9.74-0.695-13.899c-0.729-11.706-9.551-21.264-20.898-23.012c-32.95-5.079-82.679-5.079-115.629,0
						C15.831,16.414,7.01,25.97,6.279,37.678c-0.355,5.677-0.656,12.301-0.905,19.59c-0.017,1.331-0.03,2.678-0.042,4.04
						c0.256-7.779,0.572-14.833,0.947-20.831c0.372-5.964,2.845-11.368,6.679-15.467c-0.59,1.384-0.677,2.755-0.139,3.941
						c1.48,3.265,7.116,3.9,12.589,1.419s8.71-7.138,7.231-10.401C31.997,18.55,30.57,17.628,28.714,17.242z"/>
					<path style="fill-rule:evenodd;clip-rule:evenodd;fill:#B3B3B3;" d="M98.243,125.127c-36.913,0-70.089-7.59-92.959-19.657
						c0.302,5.858,0.69,12.078,1.164,18.896c0.701,10.071,8.872,19.312,18.275,21.853c6.907,1.866,113.631,1.866,120.536,0
						c9.403-2.541,17.577-11.786,18.276-21.853c0.195-2.802,0.375-5.503,0.541-8.12C144.96,121.876,122.402,125.127,98.243,125.127z
						"/>
				</g>
				<g>
					<path style="opacity:0.2;fill-rule:evenodd;clip-rule:evenodd;" d="M29.459,11.863c31.953-2.553,82.178-3.516,111.164,0.319
						c0.049,4.146,0.449,12.763,0.449,14.692c0,2.865-2.452,5.209-5.447,5.209H84.992H34.358c-2.996,0-5.447-2.343-5.447-5.209
						C28.911,24.976,29.403,15.937,29.459,11.863z"/>
					<path style="fill-rule:evenodd;clip-rule:evenodd;fill:#FFFFFF;" d="M84.992,29.246H35.284c-2.941,0-5.348-2.406-5.348-5.347
						C29.936,18.847,31.807,0,26.803,0h58.188h58.188c-5.004,0-3.133,18.847-3.133,23.899c0,2.941-2.406,5.347-5.348,5.347H84.992z"
						/>
					<path style="fill-rule:evenodd;clip-rule:evenodd;fill:#0DA401;" d="M84.992,25.726H38.239c-2.767,0-5.03-2.116-5.03-4.703
						C33.209,16.579,34.968,0,30.262,0h54.73h54.729c-4.706,0-2.946,16.579-2.946,21.023c0,2.587-2.264,4.703-5.03,4.703H84.992z"/>
					<path style="fill-rule:evenodd;clip-rule:evenodd;fill:#E6E6E6;" d="M35.284,28.318c-2.845,0-5.188-2.25-5.34-5.059
						c-0.005,0.233-0.008,0.446-0.008,0.64c0,2.941,2.406,5.347,5.348,5.347h49.708h49.707c2.942,0,5.348-2.406,5.348-5.347
						c0-0.194-0.003-0.408-0.008-0.64c-0.151,2.809-2.494,5.059-5.34,5.059H84.992H35.284z"/>
					<path style="fill-rule:evenodd;clip-rule:evenodd;fill:#0A8300;" d="M80.411,21.766c-15.818-0.873-30.678-2.515-44.466-5.014
						c-0.855-0.155-1.706-0.313-2.552-0.475c-0.007,0.176-0.015,0.35-0.023,0.521c-0.081,1.775-0.16,3.276-0.16,4.225
						c0,0.253,0.022,0.501,0.063,0.743c0.384,2.237,2.47,3.96,4.967,3.96h46.753h46.752c2.427,0,4.466-1.629,4.93-3.775
						C116.838,22.759,98.031,22.738,80.411,21.766z"/>
					<path style="fill-rule:evenodd;clip-rule:evenodd;fill:#41BA2F;" d="M32.906,3.396c35.041-1.761,69.847-1.961,104.498-1.127
						C137.902,0.872,138.641,0,139.72,0H30.262C31.608,0,32.425,1.355,32.906,3.396z"/>
				</g>
			</g>
			<g>
				<g>
					<path style="fill-rule:evenodd;clip-rule:evenodd;fill:#808080;" d="M84.992,132.443c26.806,0,48.668-21.862,48.668-48.668
						s-21.862-48.67-48.668-48.67s-48.67,21.864-48.67,48.67S58.187,132.443,84.992,132.443z"/>
					<path style="fill-rule:evenodd;clip-rule:evenodd;fill:#DCB000;" d="M84.992,132.315c-25.88,0-47.032-20.194-48.582-45.683
						c-0.053,0.987-0.088,1.982-0.088,2.986c0,26.884,21.786,48.668,48.67,48.668c26.883,0,48.668-21.784,48.668-48.668
						c0-1.004-0.035-1.998-0.086-2.986C132.025,112.121,110.872,132.315,84.992,132.315z"/>
				</g>
				<g>
					<path style="fill-rule:evenodd;clip-rule:evenodd;fill:#FEE147;" d="M84.992,136.516c26.806,0,48.668-21.862,48.668-48.668
						S111.798,39.18,84.992,39.18s-48.67,21.862-48.67,48.668S58.187,136.516,84.992,136.516z"/>
					<path style="fill-rule:evenodd;clip-rule:evenodd;fill:#F2F2F2;" d="M84.992,136.386c-25.88,0-47.032-20.192-48.582-45.682
						c-0.053,0.987-0.088,1.983-0.088,2.987c0,26.883,21.786,48.668,48.67,48.668c26.883,0,48.668-21.785,48.668-48.668
						c0-1.004-0.035-2-0.086-2.987C132.025,116.194,110.872,136.386,84.992,136.386z"/>
				</g>
			</g>
		</g>
	</g>
	<g>
		<defs>
			<path id="SVGID_1_" d="M84.992,136.516c26.806,0,48.668-21.862,48.668-48.668S111.798,39.18,84.992,39.18
				s-48.67,21.862-48.67,48.668S58.187,136.516,84.992,136.516z"/>
		</defs>
		<clipPath id="SVGID_2_">
			<use xlink:href="#SVGID_1_"  style="overflow:visible;"/>
		</clipPath>
		<g style="clip-path:url(#SVGID_2_);">
			<g>
				<g>
					<g>
						<g>
							<path style="fill:#FEED00;" d="M96.696,117.539c0,0,16.091,15.875-6.074,24.188l-0.376-7.37c0,0,12.275-3.648,6.144-11.666
								L96.696,117.539z"/>
						</g>
					</g>
					<g>
						<g>
							<path style="fill:#FEED00;" d="M74.002,117.539c0,0-16.091,15.875,6.075,24.188l0.376-7.37c0,0-12.128-3.348-5.998-11.366
								L74.002,117.539z"/>
						</g>
					</g>
					<g>
						<rect x="76.428" y="140.697" width="17.874" height="1.817"/>
						<path style="fill:#A7A9AC;" d="M86.317,142.806h-1.924c-0.767,0-1.391-0.538-1.391-1.199c0-0.663,0.624-1.202,1.391-1.202
							h1.924c0.767,0,1.39,0.539,1.39,1.202C87.707,142.268,87.084,142.806,86.317,142.806z M84.393,140.989
							c-0.445,0-0.807,0.277-0.807,0.618c0,0.34,0.362,0.616,0.807,0.616h1.924c0.445,0,0.807-0.276,0.807-0.616
							c0-0.341-0.362-0.618-0.807-0.618H84.393z"/>
					</g>
					<g>
						<path style="fill:#39B54A;" d="M85.365,146.074c6.129,8.379,2.813,26.855,2.813,26.855c3.991-2.849,9.456-1.764,9.456-1.764
							c-5.494-14.136-3.35-28.65-3.35-28.65H76.428c0,0,2.163,14.514-3.331,28.65c0,0,5.465-1.085,9.456,1.764
							c0,0-3.336-18.475,2.792-26.855"/>
					</g>
					<g>
						<path style="fill:#FEED00;" d="M73.989,117.495l8.434-1.953h3.056v30.242c0,0-4.597-0.391-6.374-1.231
							c-0.813-0.385-2.846-2.106-2.846-2.106l-1.368-14.294L73.989,117.495z"/>
						<path style="fill:#FEED00;" d="M96.696,117.539l-8.162-1.998h-3.056v30.242c0,0,4.541-0.094,6.318-0.935
							c0.814-0.384,2.901-2.403,2.901-2.403l1.368-14.294L96.696,117.539z"/>
						<path style="fill:#FFFFFF;" d="M93.535,120.154c0.341-0.107,0.587-0.391,0.587-0.728c0-0.398-0.342-0.723-0.78-0.767
							c0-0.001,0-0.009,0-0.009h-0.109c0.065-0.128,0.109-0.259,0.109-0.393c0-1.372-3.554-2.485-7.938-2.485
							c-4.384,0-7.938,1.113-7.938,2.485c0,0.134,0.043,0.265,0.109,0.393h-0.109c-0.486,0-0.879,0.347-0.879,0.776
							c0,0.338,0.246,0.622,0.587,0.728c-0.212,0.142-0.351,0.364-0.351,0.616c0,0.417,0.374,0.755,0.842,0.772
							c-0.291,0.127-0.492,0.388-0.492,0.693c0,0.366,0.288,0.67,0.673,0.752c-0.23,0.14-0.381,0.373-0.381,0.638
							c0,0.336,0.244,0.619,0.582,0.727c0.002,0.015,0.005,0.03,0.007,0.045c-0.213,0.142-0.354,0.365-0.354,0.618
							c0,0.337,0.244,0.62,0.584,0.728c0.003,0.017,0.006,0.034,0.009,0.052c-0.15,0.139-0.243,0.326-0.243,0.533
							c0,0.304,0.201,0.565,0.49,0.692c0.003,0.014,0.006,0.027,0.009,0.041c-0.203,0.142-0.336,0.359-0.336,0.606
							c0,0.36,0.279,0.659,0.655,0.747c0.003,0.013,0.006,0.026,0.01,0.039c-0.182,0.142-0.299,0.347-0.299,0.578
							c0,0.354,0.271,0.65,0.638,0.742c-0.176,0.142-0.288,0.344-0.288,0.571c0,0.386,0.32,0.703,0.738,0.763
							c-0.128,0.135-0.209,0.306-0.209,0.496c0,0.369,0.292,0.676,0.683,0.755c-0.106,0.128-0.17,0.285-0.17,0.455
							c0,0.411,0.364,0.744,0.822,0.771c-0.066,0.109-0.106,0.231-0.106,0.362c0,0.382,0.313,0.697,0.724,0.762
							c-0.069,0.111-0.112,0.236-0.112,0.371c0,0.428,0.394,0.776,0.879,0.776c0.099,0,0.192-0.018,0.28-0.044
							c0.007,0.006,0.014,0.012,0.021,0.018c-0.02,0.065-0.034,0.132-0.034,0.203c0,0.428,0.394,0.776,0.879,0.776
							c0.141,0,0.272-0.032,0.39-0.084c0.018,0.01,0.037,0.018,0.055,0.028c0.055,0.381,0.421,0.677,0.868,0.677
							c0.235,0,0.447-0.082,0.604-0.215c0.054,0.007,0.105,0.022,0.159,0.027c0.027-0.003,0.052-0.01,0.078-0.013
							c0.156,0.123,0.36,0.201,0.585,0.201c0.427,0,0.782-0.268,0.862-0.624c0.038-0.018,0.075-0.037,0.113-0.056
							c0.104,0.038,0.219,0.06,0.339,0.06c0.486,0,0.879-0.347,0.879-0.776c0-0.046-0.007-0.09-0.015-0.133
							c0.025-0.023,0.052-0.043,0.077-0.067c0.066,0.014,0.134,0.023,0.205,0.023c0.486,0,0.879-0.347,0.879-0.776
							c0-0.135-0.043-0.26-0.112-0.371c0.411-0.065,0.724-0.38,0.724-0.762c0-0.103-0.024-0.2-0.065-0.29
							c0.015-0.027,0.031-0.053,0.045-0.08c0.417-0.061,0.736-0.378,0.736-0.763c0-0.157-0.054-0.303-0.145-0.425
							c0.006-0.014,0.012-0.029,0.019-0.043c0.368-0.093,0.639-0.388,0.639-0.743c0-0.164-0.059-0.316-0.157-0.442
							c0.009-0.023,0.018-0.046,0.027-0.069c0.379-0.086,0.66-0.387,0.66-0.748c0-0.204-0.091-0.387-0.236-0.526
							c0.007-0.022,0.013-0.043,0.02-0.065c0.331-0.111,0.566-0.392,0.566-0.723c0-0.194-0.084-0.37-0.218-0.506
							c0.012-0.047,0.023-0.094,0.035-0.141c0.322-0.115,0.549-0.393,0.549-0.718c0-0.211-0.096-0.402-0.251-0.542
							c0.012-0.053,0.024-0.107,0.036-0.161c0.228-0.14,0.378-0.373,0.378-0.636c0-0.166-0.06-0.319-0.16-0.445
							c0.012-0.061,0.022-0.121,0.033-0.182c0.282-0.129,0.477-0.386,0.477-0.686c0-0.217-0.102-0.413-0.265-0.554
							c0.008-0.05,0.016-0.101,0.024-0.15c0.282-0.129,0.477-0.386,0.477-0.686c0-0.231-0.116-0.436-0.298-0.578
							c0.004-0.028,0.008-0.058,0.011-0.086c0.337-0.109,0.579-0.391,0.579-0.726c0-0.278-0.168-0.521-0.417-0.658
							c0.001-0.014,0.003-0.029,0.005-0.043c0.43-0.051,0.763-0.372,0.763-0.765C93.886,120.518,93.747,120.296,93.535,120.154z"/>
						<path style="fill:#FF0000;" d="M85.969,136.166c-0.152-0.069-0.317-0.106-0.486-0.106c-0.017,0-0.034,0.001-0.051,0.001
							c-0.013-0.002-0.026-0.004-0.04-0.006c-0.049-0.006-0.098-0.009-0.147-0.009c-0.163,0-0.324,0.034-0.473,0.1
							c-0.112-0.186-0.276-0.339-0.476-0.439c-0.179-0.089-0.393-0.139-0.602-0.139c-0.024,0-0.047,0.001-0.071,0.002
							c-0.052-0.227-0.171-0.437-0.349-0.601c-0.19-0.174-0.436-0.285-0.69-0.315c-0.007-0.148-0.042-0.295-0.106-0.433
							c-0.108-0.236-0.291-0.426-0.514-0.545c0.017-0.216-0.027-0.437-0.131-0.636c-0.119-0.226-0.307-0.403-0.53-0.51
							c0.027-0.186,0.01-0.378-0.054-0.561c-0.084-0.238-0.242-0.439-0.444-0.577c0.055-0.217,0.047-0.449-0.029-0.669
							c-0.084-0.241-0.242-0.443-0.444-0.581c0.065-0.196,0.078-0.409,0.033-0.618c-0.057-0.258-0.197-0.484-0.392-0.648
							c0.083-0.214,0.103-0.451,0.05-0.683c-0.003-0.012-0.015-0.063-0.018-0.075c-0.062-0.237-0.195-0.444-0.376-0.597
							c0.093-0.216,0.12-0.46,0.07-0.699c-0.046-0.22-0.156-0.433-0.312-0.602c0.075-0.192,0.099-0.403,0.066-0.612
							c-0.001-0.005-0.01-0.055-0.01-0.059c-0.043-0.246-0.162-0.468-0.334-0.638c0.104-0.212,0.143-0.456,0.104-0.699
							c-0.039-0.249-0.16-0.487-0.334-0.671c0.121-0.225,0.168-0.488,0.123-0.75c-0.042-0.25-0.163-0.472-0.336-0.641
							c0.147-0.241,0.207-0.534,0.151-0.827c-0.063-0.333-0.264-0.612-0.538-0.779c0.062-0.175,0.083-0.366,0.055-0.558
							c-0.018-0.127-0.057-0.249-0.114-0.36c0.141-0.093,0.262-0.216,0.353-0.365c0.179-0.291,0.22-0.643,0.119-0.963
							c0.508-0.469,2.791-1.357,6.714-1.357c3.926,0,6.21,0.89,6.715,1.358c-0.097,0.319-0.057,0.669,0.12,0.957
							c0.075,0.123,0.171,0.229,0.281,0.315c-0.073,0.126-0.122,0.267-0.143,0.416c-0.03,0.205-0.004,0.409,0.069,0.594
							c-0.261,0.185-0.443,0.474-0.484,0.809c-0.002,0.016-0.009,0.074-0.01,0.09c-0.02,0.242,0.035,0.478,0.152,0.681
							c-0.167,0.178-0.278,0.407-0.309,0.659l-0.011,0.089c-0.027,0.22,0.01,0.439,0.101,0.633
							c-0.142,0.163-0.239,0.364-0.274,0.584l-0.024,0.15c-0.035,0.219-0.007,0.44,0.077,0.639
							c-0.146,0.161-0.247,0.362-0.286,0.582l-0.031,0.172c-0.035,0.186-0.023,0.375,0.03,0.552
							c-0.118,0.143-0.202,0.313-0.242,0.498l-0.034,0.152c-0.05,0.224-0.032,0.453,0.045,0.661c-0.16,0.15-0.278,0.344-0.333,0.564
							l-0.021,0.085c-0.056,0.218-0.051,0.461,0.013,0.683c-0.172,0.147-0.301,0.342-0.365,0.566
							c-0.073,0.231-0.075,0.485-0.009,0.719c-0.178,0.13-0.318,0.309-0.4,0.52l-0.035,0.092c-0.074,0.203-0.09,0.419-0.05,0.625
							c-0.175,0.121-0.316,0.29-0.405,0.49c-0.091,0.208-0.124,0.445-0.095,0.673c-0.188,0.102-0.348,0.255-0.457,0.446
							l-0.055,0.096c-0.097,0.175-0.146,0.37-0.146,0.565c-0.242,0.117-0.439,0.316-0.554,0.566c-0.066,0.144-0.1,0.299-0.105,0.453
							c-0.226,0.036-0.434,0.143-0.61,0.311l-0.067,0.058c-0.159,0.148-0.271,0.335-0.328,0.537
							c-0.026-0.002-0.051-0.002-0.077-0.002c-0.18,0-0.359,0.042-0.523,0.123C86.314,135.799,86.111,135.967,85.969,136.166z"/>
						<g>
							<g>
								<g>
									<path style="fill:#175DD7;" d="M83.296,141.172c-3.219-1.892-5.593-8.416-5.593-16.176c0-3.149,0.391-6.094,1.071-8.61
										l-4.786,1.108l0.903,10.657l1.368,14.294c0,0,2.033,1.721,2.846,2.106c0.963,0.455,2.752,0.777,4.191,0.978V141.172z"/>
								</g>
								<g>
									<path style="fill:#175DD7;" d="M91.643,116.302c0.694,2.534,1.093,5.51,1.093,8.694c0,7.541-2.242,13.915-5.322,16.005
										v4.678c1.457-0.115,3.369-0.351,4.383-0.831c0.814-0.384,2.901-2.403,2.901-2.403l1.368-14.294l0.63-10.613L91.643,116.302
										z"/>
								</g>
							</g>
						</g>
					</g>
					<g>
						<g>
							
								<path style="fill:#A86F3B;stroke:#35120C;stroke-width:0.45;stroke-linecap:round;stroke-linejoin:round;stroke-miterlimit:10;" d="
								M69.742,95.488c0,0-1.206-3.693-3.408-3.693c-2.201,0-1.136,7.171,4.615,10.863L69.742,95.488z"/>
							
								<path style="fill:#A86F3B;stroke:#35120C;stroke-width:0.45;stroke-linecap:round;stroke-linejoin:round;stroke-miterlimit:10;" d="
								M101.16,95.488c0,0,1.205-3.693,3.408-3.693c2.202,0,1.135,7.171-4.617,10.863L101.16,95.488z"/>
							
								<path style="fill:#A86F3B;stroke:#35120C;stroke-width:0.45;stroke-linecap:round;stroke-linejoin:round;stroke-miterlimit:10;" d="
								M85.479,69.587c0,0,10.862,0,12.101,0s4.308,1.956,4.627,11.807c0.628,19.31-0.199,24.353-7.117,31.65
								c-3.189,3.363-6.555,4.817-9.61,4.817c-2.971,0-6.423-1.454-9.612-4.817c-6.919-7.297-7.746-12.34-7.119-31.65
								c0.32-9.851,3.388-11.807,4.627-11.807C74.615,69.587,85.479,69.587,85.479,69.587z"/>
							<g>
								<path d="M97.098,86.337c-0.11-0.058-0.304-0.114-0.54-0.204c-0.238-0.087-0.524-0.199-0.86-0.272
									c-0.652-0.2-1.474-0.302-2.275-0.362c-1.619-0.078-3.156,0.257-3.423,0.315c-0.566,0.085-1.367,0.387-1.802-0.466
									c-0.242-0.44,0.197-0.881,0.869-1.169c0.67-0.299,1.569-0.437,2.22-0.475c0.647-0.059,2.062-0.019,3.379,0.32
									c0.327,0.094,0.654,0.173,0.956,0.277c0.3,0.115,0.585,0.224,0.847,0.324c0.504,0.235,0.902,0.444,1.117,0.559
									c0.408,0.28,0.877,0.537,1.178,0.873c0.313,0.321,0.514,0.623,0.476,0.861C99.143,87.401,98.021,86.721,97.098,86.337z"/>
							</g>
							<g>
								<path d="M73.665,86.337c0.11-0.058,0.304-0.114,0.54-0.204c0.239-0.087,0.525-0.199,0.86-0.272
									c0.653-0.2,1.474-0.302,2.275-0.362c1.62-0.078,3.156,0.257,3.424,0.315c0.565,0.085,1.367,0.387,1.802-0.466
									c0.242-0.44-0.197-0.881-0.869-1.169c-0.671-0.299-1.569-0.437-2.22-0.475c-0.648-0.059-2.063-0.019-3.38,0.32
									c-0.327,0.094-0.654,0.173-0.955,0.277c-0.301,0.115-0.585,0.224-0.847,0.324c-0.505,0.235-0.903,0.444-1.118,0.559
									c-0.407,0.28-0.876,0.537-1.178,0.873c-0.313,0.321-0.514,0.623-0.476,0.861C71.62,87.401,72.742,86.721,73.665,86.337z"/>
							</g>
							<g id="XMLID_467_">
								<g id="XMLID_473_">
									<path id="XMLID_477_" style="fill:#FFFFFF;" d="M76.487,88.351c-5.081,1.344-4.86,8.598,0.66,8.584
										C82.667,96.921,82.399,86.787,76.487,88.351z"/>
									
										<ellipse id="XMLID_476_" transform="matrix(0.0209 -0.9998 0.9998 0.0209 -17.0174 167.6712)" cx="77.099" cy="92.524" rx="2.714" ry="2.148"/>
									
										<ellipse id="XMLID_475_" transform="matrix(0.0209 -0.9998 0.9998 0.0209 -16.6797 165.2575)" style="fill:#FFFFFF;" cx="76.035" cy="91.145" rx="1.281" ry="1.281"/>
									
										<ellipse id="XMLID_474_" transform="matrix(0.0209 -0.9998 0.9998 0.0209 -17.4486 169.5232)" style="fill:#FFFFFF;" cx="77.829" cy="93.67" rx="0.49" ry="0.49"/>
								</g>
								<g id="XMLID_468_">
									<path id="XMLID_472_" style="fill:#FFFFFF;" d="M94.361,88.392c5.021,1.556,4.496,8.794-1.019,8.549
										C87.827,96.696,88.519,86.582,94.361,88.392z"/>
									
										<ellipse id="XMLID_227_" transform="matrix(0.0209 -0.9998 0.9998 0.0209 -0.6814 184.3851)" cx="93.801" cy="92.54" rx="2.714" ry="2.148"/>
									
										<ellipse id="XMLID_226_" transform="matrix(0.0209 -0.9998 0.9998 0.0209 -0.3435 181.9715)" style="fill:#FFFFFF;" cx="92.736" cy="91.161" rx="1.281" ry="1.281"/>
									
										<ellipse id="XMLID_469_" transform="matrix(0.0209 -0.9998 0.9998 0.0209 -1.1126 186.2372)" style="fill:#FFFFFF;" cx="94.531" cy="93.687" rx="0.49" ry="0.49"/>
								</g>
							</g>
							<path id="XMLID_466_" style="fill:#724014;" d="M81.474,100.818c0.46-0.61,1.833,1.053,3.93,1.19
								c2.097,0.136,3.021-2.09,3.937-1.564c0.917,0.527-0.926,3.407-4.074,3.661C82.121,104.359,81.079,101.341,81.474,100.818z"/>
							<path id="XMLID_465_" style="fill:#E6A67B;" d="M80.2,107.093c0.182-0.482,1.381,1.041,5.415,1.051
								c4.035,0.01,5.424-2.638,6-2.291s-2.198,3.222-6.002,3.213C81.809,109.057,79.852,108.015,80.2,107.093z"/>
							<path id="XMLID_464_" style="fill:#724014;" d="M88.583,109.67c-0.701,0.155-1.298,0.416-2.035,0.456
								c-0.748,0.04-1.507-0.166-2.243-0.09c-0.203,0.022-0.234,0.27-0.048,0.347c1.169,0.481,3.55,0.565,4.452-0.496
								C88.792,109.789,88.714,109.641,88.583,109.67z"/>
						</g>
						<path d="M85.536,79.264c0,0-0.418,1.147-1.356,0.255c0,0-0.963,1.069-1.307-0.204c0,0-0.839,1.223-1.554-0.254
							c0,0-1.208,0.866-1.504-0.408c0,0-1.307,1.019-1.48-0.586c0,0-1.134,0.739-1.553-0.484c0,0-0.444,1.274-2.022,0.357
							c0,0-0.148,1.58-1.627,0.917c0,0,0.691,1.198-0.838,1.681c0,0,0.987,0.866-0.296,1.63c0,0,0.985,0.79-0.025,1.554
							c0,0,0.937,1.656-0.666,1.656c0,0,0.838,1.554-0.715,2.063c0,0,1.209,1.936-0.69,1.936c0,0,1.158,1.631-0.568,1.987
							c0,0,0.888,1.171-0.444,1.783c0,0,0.148,1.071-0.246,1.58c-0.394,0.509-1.579-0.103-1.233-1.121c0,0-1.356,0.434-1.208-1.274
							c0,0-1.356-0.051-0.592-1.834c0,0-1.183-0.586-0.468-1.961c0,0-1.085-0.586-0.37-2.063c0,0-1.134-1.121-0.172-2.242
							c0,0-1.037-0.764-0.099-1.936c0,0-1.06-0.178,0.05-2.216c0,0-1.087-1.35,0.123-2.14c0,0-1.109-1.631,0.445-2.191
							c0,0-1.158-2.114,0.666-2.14c0,0-1.011-1.579,1.084-2.624c0,0-0.617-2.115,1.652-2.344c0,0-0.27-1.911,1.751-1.987
							c0,0,0.172-1.758,1.997-1.452c0,0-0.124-1.884,2.145-1.171c0,0-0.074-1.605,2.121-0.866c0,0-0.001-1.656,2.416-0.561
							c0,0,0.765-1.426,2.047-0.509c0,0,0.887-1.579,2.244-0.229c0,0,0.714-0.586,2.293-0.586c1.579,0,2.293,0.586,2.293,0.586
							c1.357-1.35,2.244,0.229,2.244,0.229c1.282-0.917,2.047,0.509,2.047,0.509c2.417-1.096,2.416,0.561,2.416,0.561
							c2.195-0.739,2.121,0.866,2.121,0.866c2.269-0.713,2.145,1.171,2.145,1.171c1.825-0.306,1.997,1.452,1.997,1.452
							c2.022,0.076,1.751,1.987,1.751,1.987c2.269,0.229,1.652,2.344,1.652,2.344c2.096,1.045,1.084,2.624,1.084,2.624
							c1.824,0.026,0.666,2.14,0.666,2.14c1.553,0.561,0.445,2.191,0.445,2.191c1.209,0.79,0.123,2.14,0.123,2.14
							c1.11,2.038,0.05,2.216,0.05,2.216c0.937,1.172-0.099,1.936-0.099,1.936c0.962,1.121-0.172,2.242-0.172,2.242
							c0.715,1.478-0.37,2.063-0.37,2.063c0.714,1.376-0.468,1.961-0.468,1.961c0.764,1.783-0.592,1.834-0.592,1.834
							c0.148,1.707-1.208,1.274-1.208,1.274c0.346,1.019-0.839,1.631-1.233,1.121c-0.394-0.509-0.246-1.58-0.246-1.58
							c-1.332-0.611-0.444-1.783-0.444-1.783c-1.726-0.356-0.568-1.987-0.568-1.987c-1.899,0-0.69-1.936-0.69-1.936
							c-1.554-0.51-0.715-2.063-0.715-2.063c-1.603,0-0.666-1.656-0.666-1.656c-1.01-0.764-0.025-1.554-0.025-1.554
							c-1.283-0.764-0.296-1.63-0.296-1.63c-1.529-0.484-0.838-1.681-0.838-1.681c-1.479,0.663-1.627-0.917-1.627-0.917
							c-1.578,0.917-2.022-0.357-2.022-0.357c-0.42,1.223-1.553,0.484-1.553,0.484c-0.172,1.605-1.48,0.586-1.48,0.586
							c-0.296,1.274-1.504,0.408-1.504,0.408c-0.714,1.478-1.554,0.254-1.554,0.254c-0.344,1.274-1.307,0.204-1.307,0.204
							C85.954,80.411,85.536,79.264,85.536,79.264z"/>
					</g>
				</g>
			</g>
		</g>
	</g>
	<g>
		<g>
			<path style="fill:#FFFFFF;" d="M60.607,12.544c-0.156-1.165-0.756-1.709-1.797-1.631c-1.043,0.078-1.615,0.781-1.719,2.109
				c-0.014,0.163-0.02,0.3-0.02,0.41c0,1.113,0.402,1.937,1.211,2.471c0.293,0.195,0.566,0.293,0.82,0.293
				c0.539,0,1.016-0.417,1.426-1.25l2.734,0.195c-0.814,2.578-1.967,3.841-3.457,3.789c-1.492-0.052-2.461-0.186-2.91-0.4
				c-0.82-0.391-1.414-1.091-1.778-2.1c-0.215-0.593-0.391-1.523-0.527-2.793c-0.039-0.364-0.059-0.69-0.059-0.977
				c0-1.472,0.371-2.666,1.113-3.584c0.801-0.989,1.92-1.484,3.36-1.484c0.305,0,0.602,0.02,0.889,0.059
				c1.758,0.241,2.852,1.784,3.281,4.629L60.607,12.544z"/>
			<path style="fill:#FFFFFF;" d="M63.732,14.614c0.045-1.484,0.412-2.761,1.104-3.828c0.82-1.276,1.916-1.914,3.291-1.914
				c1.451,0,2.5,0.358,3.145,1.074c0.527,0.586,0.939,1.634,1.24,3.145c0.117,0.593,0.176,1.152,0.176,1.68
				c0,1.133-0.281,2.077-0.84,2.832c-0.82,1.106-2.068,1.634-3.74,1.582c-1.537-0.046-2.664-0.437-3.379-1.172
				C64.012,17.277,63.68,16.145,63.732,14.614z M69.475,12.271c-0.457-0.43-0.887-0.645-1.289-0.645
				c-0.496,0-0.951,0.325-1.367,0.977c-0.371,0.579-0.557,1.143-0.557,1.689c0,0.515,0.168,1.042,0.508,1.582
				c0.377,0.605,0.813,0.908,1.309,0.908c0.566,0,1.084-0.296,1.553-0.889c0.449-0.56,0.674-1.13,0.674-1.709
				C70.305,13.56,70.027,12.922,69.475,12.271z"/>
			<path style="fill:#FFFFFF;" d="M72.473,18.062l1.152-2.617c1.471,0.957,2.609,1.436,3.418,1.436c0.285,0,0.563-0.085,0.83-0.254
				c0.299-0.188,0.449-0.42,0.449-0.693c0-0.41-0.547-0.755-1.641-1.035c-1.582-0.403-2.646-1.233-3.193-2.49
				c-0.184-0.417-0.273-0.801-0.273-1.152c0-0.749,0.383-1.403,1.152-1.963c0.656-0.481,1.637-0.723,2.939-0.723
				c0.918,0,1.998,0.12,3.242,0.361l-0.83,2.5c-0.945-0.423-1.709-0.635-2.295-0.635c-0.287,0-0.557,0.062-0.811,0.186
				c-0.313,0.15-0.469,0.353-0.469,0.606c0,0.234,0.207,0.485,0.625,0.753c0.285,0.183,0.846,0.437,1.68,0.763
				c0.703,0.273,1.211,0.547,1.523,0.821c0.455,0.397,0.695,0.932,0.723,1.604c0.045,1.102-0.469,2.102-1.543,3.001
				c-0.457,0.385-1.123,0.577-2.002,0.577C75.971,19.106,74.412,18.758,72.473,18.062z"/>
			<path style="fill:#FFFFFF;" d="M80.656,13.247l-0.078-2.432l1.641-0.146l0.078-3.994l2.402-0.156l-0.234,3.955l2.256-0.205
				l0.156,2.432l-2.52,0.225c-0.008,0.273-0.01,0.534-0.01,0.781c0,2.272,0.295,3.447,0.889,3.525
				c0.65,0.085,1.123-0.413,1.416-1.494l1.719,0.234c-0.117,1.563-0.57,2.546-1.357,2.949c-0.561,0.286-1.225,0.43-1.992,0.43
				c-0.32,0-0.645-0.022-0.977-0.068c-1.191-0.163-1.811-2.22-1.855-6.172L80.656,13.247z"/>
			<path style="fill:#FFFFFF;" d="M91.379,14.653c0.293,0.983,0.914,1.497,1.865,1.543c0.885,0.046,1.484-0.42,1.797-1.396
				l2.734-0.391c-0.697,2.858-2.08,4.287-4.15,4.287c-0.639,0-1.352-0.146-2.139-0.439c-1.459-0.833-2.188-2.435-2.188-4.805
				c0-0.202,0.006-0.427,0.02-0.674c0.143-2.741,1.477-4.333,4.004-4.775c2.395-0.052,3.773,1.613,4.139,4.996L91.379,14.653z
				 M92.125,11.172c-0.361,0.427-0.559,0.942-0.59,1.548l3.662-1.045c-0.424-0.762-0.951-1.143-1.582-1.143
				C92.982,10.532,92.486,10.745,92.125,11.172z"/>
			<path style="fill:#FFFFFF;" d="M100.148,8.628l0.156,1.094c1.27-0.892,2.311-1.338,3.125-1.338c0.754,0,1.314,0.381,1.68,1.143
				c0.553,1.159,0.83,3.063,0.83,5.713c0,0.95-0.037,1.999-0.107,3.145l-2.637,0.088c0.207-1.406,0.313-2.595,0.313-3.564
				c0-1.185-0.156-2.041-0.469-2.568c-0.203-0.339-0.434-0.508-0.693-0.508c-0.502,0-1.113,0.589-1.836,1.768v5.166l-2.383-0.068
				l-0.4-9.678L100.148,8.628z M100.803,5.454c0.332,0,0.637,0.107,0.918,0.322c0.344,0.261,0.695,0.391,1.055,0.391
				c0.559,0,1.152-0.303,1.777-0.908l0.508,1.631c-0.834,0.638-1.547,0.957-2.139,0.957c-0.189,0-0.516-0.132-0.977-0.396
				c-0.463-0.264-0.762-0.396-0.898-0.396c-0.527,0-1.123,0.339-1.787,1.016l-0.684-1.309C99.402,5.891,100.145,5.454,100.803,5.454
				z"/>
			<path style="fill:#FFFFFF;" d="M106.594,14.614c0.045-1.484,0.412-2.761,1.104-3.828c0.82-1.276,1.916-1.914,3.291-1.914
				c1.451,0,2.5,0.358,3.145,1.074c0.527,0.586,0.939,1.634,1.24,3.145c0.117,0.593,0.176,1.152,0.176,1.68
				c0,1.133-0.281,2.077-0.84,2.832c-0.82,1.106-2.068,1.634-3.74,1.582c-1.537-0.046-2.664-0.437-3.379-1.172
				C106.873,17.277,106.541,16.145,106.594,14.614z M112.336,12.271c-0.457-0.43-0.887-0.645-1.289-0.645
				c-0.496,0-0.951,0.325-1.367,0.977c-0.371,0.579-0.557,1.143-0.557,1.689c0,0.515,0.168,1.042,0.508,1.582
				c0.377,0.605,0.813,0.908,1.309,0.908c0.566,0,1.084-0.296,1.553-0.889c0.449-0.56,0.674-1.13,0.674-1.709
				C113.166,13.56,112.889,12.922,112.336,12.271z"/>
		</g>
	</g>
</g>
</svg>
