<?xml version="1.0" encoding="utf-8"?>
<!-- Generator: Adobe Illustrator 21.0.0, SVG Export Plug-In . SVG Version: 6.00 Build 0)  -->
<svg version="1.1" id="Capa_1" xmlns="http://www.w3.org/2000/svg" xmlns:xlink="http://www.w3.org/1999/xlink" x="0px" y="0px"
	 viewBox="0 0 169.983 162.934" style="enable-background:new 0 0 169.983 162.934;" xml:space="preserve">
<g>
	<g>
		<g>
			<g>
				<g>
					<path style="fill-rule:evenodd;clip-rule:evenodd;fill:#054700;" d="M26.738,0h116.376c4.294,0,2.98,14.511,2.98,21.766H23.758
						C23.758,14.511,23.024,0,26.738,0z"/>
					<path style="fill-rule:evenodd;clip-rule:evenodd;fill:#CCCCCC;" d="M26.166,13.463c0.028-5.542,0.337-11.222,1.865-12.94
						C27.662,0.185,27.233,0,26.738,0c-2.562,0-3.008,6.902-3.037,13.567C24.511,13.531,25.333,13.496,26.166,13.463z"/>
					<path style="fill-rule:evenodd;clip-rule:evenodd;fill:#CCCCCC;" d="M141.903,0.452c1.76,1.608,1.977,7.244,1.905,12.794
						c0.83,0.028,1.651,0.057,2.463,0.088C146.363,6.743,146.041,0,143.115,0C142.655,0,142.253,0.159,141.903,0.452z"/>
				</g>
				<g>
					<path style="opacity:0.2;fill-rule:evenodd;clip-rule:evenodd;" d="M20.911,161.493c-9.722-2.616-18.169-12.132-18.893-22.498
						c-2.634-37.733-2.687-59.564-0.175-99.701c0.755-12.051,9.874-21.89,21.604-23.69c34.064-5.227,89.025-5.227,123.088,0
						c11.731,1.8,20.85,11.639,21.605,23.69c2.512,40.136,2.458,61.968-0.175,99.701c-0.723,10.364-9.171,19.88-18.893,22.498
						C141.931,163.414,28.051,163.415,20.911,161.493z"/>
					<path style="fill-rule:evenodd;clip-rule:evenodd;fill:#FFFFFF;" d="M21.484,158.67c-9.68-2.616-18.094-12.131-18.814-22.496
						C0.046,98.44-0.006,76.609,2.497,36.472c0.751-12.052,9.831-21.89,21.514-23.69c33.92-5.228,88.043-5.228,121.963,0
						c11.681,1.8,20.763,11.639,21.514,23.69c2.502,40.136,2.447,61.968-0.175,99.702c-0.719,10.363-9.132,19.882-18.812,22.496
						C141.388,160.59,28.595,160.591,21.484,158.67z"/>
					<path style="fill-rule:evenodd;clip-rule:evenodd;fill:#999999;" d="M24.723,154.538c-9.404-2.541-17.575-11.782-18.276-21.853
						c-2.55-36.653-2.6-56.02-0.168-95.007c0.73-11.705,9.552-21.264,20.898-23.012c32.95-5.079,82.679-5.079,115.629,0
						c11.347,1.748,20.169,11.309,20.898,23.012c2.431,38.987,2.377,58.354-0.169,95.007c-0.699,10.067-8.874,19.313-18.275,21.853
						C138.354,156.403,31.63,156.404,24.723,154.538z"/>
					<path style="fill-rule:evenodd;clip-rule:evenodd;fill:#F2F2F2;" d="M4.509,81.456c0.094-12.871,0.684-26.368,1.771-43.778
						c0.73-11.705,9.552-21.264,20.898-23.012c32.95-5.078,82.679-5.078,115.629,0c11.347,1.748,20.169,11.309,20.898,23.012
						c1.085,17.409,1.675,30.906,1.769,43.778c-0.101,13.369-0.746,26.739-1.938,43.898c-0.698,10.066-8.873,19.312-18.276,21.853
						c-6.905,1.866-113.629,1.867-120.536,0c-9.404-2.541-17.575-11.783-18.275-21.853C5.255,108.195,4.608,94.824,4.509,81.456z"/>
					<path style="fill-rule:evenodd;clip-rule:evenodd;fill:#CCCCCC;" d="M4.512,80.972c0.106-12.726,0.694-26.102,1.767-43.294
						c0.73-11.705,9.552-21.264,20.898-23.012c32.95-5.078,82.679-5.078,115.629,0c11.347,1.748,20.169,11.309,20.898,23.012
						c1.071,17.177,1.659,30.545,1.765,43.26c-0.111,13.212-0.756,26.47-1.934,43.428c-0.698,10.067-8.873,19.312-18.276,21.853
						c-6.905,1.866-113.629,1.866-120.536,0c-9.404-2.541-17.575-11.782-18.275-21.853C5.269,107.422,4.624,94.173,4.512,80.972z"/>
					<path style="fill-rule:evenodd;clip-rule:evenodd;fill:#F2F2F2;" d="M28.714,17.242c35.789-4.857,81.629-4.783,114.092,0.221
						c11.347,1.748,20.169,11.307,20.898,23.013c0.269,4.321,0.509,9.194,0.717,14.49c-0.003-1.143-0.012-2.273-0.022-3.388
						c-0.203-5.068-0.435-9.74-0.695-13.899c-0.729-11.706-9.551-21.264-20.898-23.012c-32.95-5.079-82.679-5.079-115.629,0
						C15.831,16.414,7.01,25.97,6.279,37.678c-0.355,5.677-0.656,12.301-0.905,19.59c-0.017,1.331-0.03,2.678-0.042,4.04
						c0.256-7.779,0.572-14.833,0.947-20.831c0.372-5.964,2.845-11.368,6.679-15.467c-0.59,1.384-0.677,2.755-0.139,3.941
						c1.48,3.265,7.116,3.9,12.589,1.419s8.71-7.138,7.231-10.401C31.997,18.55,30.57,17.628,28.714,17.242z"/>
					<path style="fill-rule:evenodd;clip-rule:evenodd;fill:#B3B3B3;" d="M98.243,125.127c-36.913,0-70.089-7.59-92.959-19.657
						c0.302,5.858,0.69,12.078,1.164,18.896c0.701,10.071,8.872,19.312,18.275,21.853c6.907,1.866,113.631,1.866,120.536,0
						c9.403-2.541,17.577-11.786,18.276-21.853c0.195-2.802,0.375-5.503,0.541-8.12C144.96,121.876,122.402,125.127,98.243,125.127z
						"/>
				</g>
				<g>
					<path style="opacity:0.2;fill-rule:evenodd;clip-rule:evenodd;" d="M29.459,11.863c31.953-2.553,82.178-3.516,111.164,0.319
						c0.049,4.146,0.449,12.763,0.449,14.692c0,2.865-2.452,5.209-5.447,5.209H84.992H34.358c-2.996,0-5.447-2.343-5.447-5.209
						C28.911,24.976,29.403,15.937,29.459,11.863z"/>
					<path style="fill-rule:evenodd;clip-rule:evenodd;fill:#FFFFFF;" d="M84.992,29.246H35.284c-2.941,0-5.348-2.406-5.348-5.347
						C29.936,18.847,31.807,0,26.803,0h58.188h58.188c-5.004,0-3.133,18.847-3.133,23.899c0,2.941-2.406,5.347-5.348,5.347H84.992z"
						/>
					<path style="fill-rule:evenodd;clip-rule:evenodd;fill:#0DA401;" d="M84.992,25.726H38.239c-2.767,0-5.03-2.116-5.03-4.703
						C33.209,16.579,34.968,0,30.262,0h54.73h54.729c-4.706,0-2.946,16.579-2.946,21.023c0,2.587-2.264,4.703-5.03,4.703H84.992z"/>
					<path style="fill-rule:evenodd;clip-rule:evenodd;fill:#E6E6E6;" d="M35.284,28.318c-2.845,0-5.188-2.25-5.34-5.059
						c-0.005,0.233-0.008,0.446-0.008,0.64c0,2.941,2.406,5.347,5.348,5.347h49.708h49.707c2.942,0,5.348-2.406,5.348-5.347
						c0-0.194-0.003-0.408-0.008-0.64c-0.151,2.809-2.494,5.059-5.34,5.059H84.992H35.284z"/>
					<path style="fill-rule:evenodd;clip-rule:evenodd;fill:#0A8300;" d="M80.411,21.766c-15.818-0.873-30.678-2.515-44.466-5.014
						c-0.855-0.155-1.706-0.313-2.552-0.475c-0.007,0.176-0.015,0.35-0.023,0.521c-0.081,1.775-0.16,3.276-0.16,4.225
						c0,0.253,0.022,0.501,0.063,0.743c0.384,2.237,2.47,3.96,4.967,3.96h46.753h46.752c2.427,0,4.466-1.629,4.93-3.775
						C116.838,22.759,98.031,22.738,80.411,21.766z"/>
					<path style="fill-rule:evenodd;clip-rule:evenodd;fill:#41BA2F;" d="M32.906,3.396c35.041-1.761,69.847-1.961,104.498-1.127
						C137.902,0.872,138.641,0,139.72,0H30.262C31.608,0,32.425,1.355,32.906,3.396z"/>
				</g>
			</g>
			<g>
				<g>
					<path style="fill-rule:evenodd;clip-rule:evenodd;fill:#808080;" d="M84.992,132.443c26.806,0,48.668-21.862,48.668-48.668
						s-21.862-48.67-48.668-48.67s-48.67,21.864-48.67,48.67S58.187,132.443,84.992,132.443z"/>
					<path style="fill-rule:evenodd;clip-rule:evenodd;fill:#DCB000;" d="M84.992,132.315c-25.88,0-47.032-20.194-48.582-45.683
						c-0.053,0.987-0.088,1.982-0.088,2.986c0,26.884,21.786,48.668,48.67,48.668c26.883,0,48.668-21.784,48.668-48.668
						c0-1.004-0.035-1.998-0.086-2.986C132.025,112.121,110.872,132.315,84.992,132.315z"/>
				</g>
				<g>
					<path style="fill-rule:evenodd;clip-rule:evenodd;fill:#FEE147;" d="M84.992,136.516c26.806,0,48.668-21.862,48.668-48.668
						S111.798,39.18,84.992,39.18s-48.67,21.862-48.67,48.668S58.187,136.516,84.992,136.516z"/>
					<path style="fill-rule:evenodd;clip-rule:evenodd;fill:#F2F2F2;" d="M84.992,136.386c-25.88,0-47.032-20.192-48.582-45.682
						c-0.053,0.987-0.088,1.983-0.088,2.987c0,26.883,21.786,48.668,48.67,48.668c26.883,0,48.668-21.785,48.668-48.668
						c0-1.004-0.035-2-0.086-2.987C132.025,116.194,110.872,136.386,84.992,136.386z"/>
				</g>
			</g>
		</g>
	</g>
	<g>
		<defs>
			<path id="SVGID_1_" d="M84.992,136.516c26.806,0,48.668-21.862,48.668-48.668S111.798,39.18,84.992,39.18
				s-48.67,21.862-48.67,48.668S58.187,136.516,84.992,136.516z"/>
		</defs>
		<clipPath id="SVGID_2_">
			<use xlink:href="#SVGID_1_"  style="overflow:visible;"/>
		</clipPath>
		<g style="clip-path:url(#SVGID_2_);">
			<g>
				<g>
					<path style="fill:#EE7A5F;" d="M97.268,116.958c0,0,16.086,15.869-6.072,24.18l-0.376-7.368c0,0,12.271-3.647,6.142-11.662
						L97.268,116.958z"/>
				</g>
				<g>
					<path style="fill:#EE7A5F;" d="M74.582,116.958c0,0-16.086,15.869,6.073,24.18l0.376-7.368c0,0-12.124-3.347-5.996-11.362
						L74.582,116.958z"/>
				</g>
				<g>
					<rect x="77.007" y="140.108" width="17.868" height="1.817"/>
					<path style="fill:#A7A9AC;" d="M86.893,142.216H84.97c-0.767,0-1.39-0.538-1.39-1.199c0-0.662,0.624-1.201,1.39-1.201h1.923
						c0.766,0,1.39,0.539,1.39,1.201C88.282,141.679,87.659,142.216,86.893,142.216z M84.97,140.4c-0.445,0-0.807,0.277-0.807,0.618
						c0,0.34,0.362,0.615,0.807,0.615h1.923c0.445,0,0.806-0.276,0.806-0.615c0-0.341-0.362-0.618-0.806-0.618H84.97z"/>
				</g>
				<g>
					<path style="fill:#0080C6;" d="M85.941,145.484c6.127,8.376,2.812,26.846,2.812,26.846c3.99-2.848,9.453-1.764,9.453-1.764
						c-5.492-14.131-3.349-28.641-3.349-28.641h-17.85c0,0,2.162,14.509-3.33,28.641c0,0,5.463-1.084,9.453,1.764
						c0,0-3.335-18.469,2.791-26.846"/>
				</g>
				<g>
					<path style="fill:#EE7A5F;" d="M74.569,116.914L83,114.961h3.055v30.232c0,0-4.595-0.391-6.371-1.23
						c-0.813-0.385-2.845-2.106-2.845-2.106l-1.367-14.289L74.569,116.914z"/>
					<path style="fill:#EE7A5F;" d="M97.268,116.958l-8.159-1.997h-3.055v30.232c0,0,4.54-0.094,6.316-0.935
						c0.814-0.384,2.9-2.402,2.9-2.402l1.367-14.289L97.268,116.958z"/>
					<polygon style="fill:#DB3B26;" points="86.055,112.707 81.613,112.707 82.703,114.931 86.055,114.961 89.407,114.931 
						90.496,112.707 					"/>
					<polygon style="fill:#9D5C4A;" points="84.486,116.322 86.055,117.278 86.055,118.402 83.834,117.142 					"/>
					<polygon style="fill:#9D5C4A;" points="86.055,117.278 87.624,116.322 88.276,117.142 86.055,118.402 					"/>
					<path style="fill:#DB3B26;" d="M87.166,124.764c-0.362,0-0.655,0.274-0.655,0.613c0,0.338,0.292,0.612,0.655,0.612
						c0.361,0,0.655-0.274,0.655-0.612C87.82,125.038,87.526,124.764,87.166,124.764z M86.933,125.5
						c-0.073,0-0.132-0.055-0.132-0.123c0-0.069,0.059-0.123,0.132-0.123c0.072,0,0.131,0.055,0.131,0.123
						C87.064,125.444,87.006,125.5,86.933,125.5z M87.405,125.505c-0.073,0-0.132-0.055-0.132-0.123
						c0-0.068,0.059-0.123,0.132-0.123c0.072,0,0.131,0.055,0.131,0.123C87.536,125.451,87.477,125.505,87.405,125.505z"/>
					<path style="fill:#DB3B26;" d="M87.166,130.458c-0.362,0-0.655,0.275-0.655,0.613c0,0.338,0.292,0.612,0.655,0.612
						c0.361,0,0.655-0.274,0.655-0.612C87.82,130.733,87.526,130.458,87.166,130.458z M86.933,131.194
						c-0.073,0-0.132-0.055-0.132-0.123c0-0.068,0.059-0.124,0.132-0.124c0.072,0,0.131,0.056,0.131,0.124
						C87.064,131.139,87.006,131.194,86.933,131.194z M87.405,131.2c-0.073,0-0.132-0.055-0.132-0.123
						c0-0.069,0.059-0.123,0.132-0.123c0.072,0,0.131,0.055,0.131,0.123C87.536,131.145,87.477,131.2,87.405,131.2z"/>
					<path style="fill:#DB3B26;" d="M87.166,136.152c-0.362,0-0.655,0.275-0.655,0.613c0,0.339,0.292,0.612,0.655,0.612
						c0.361,0,0.655-0.273,0.655-0.612C87.82,136.427,87.526,136.152,87.166,136.152z M86.933,136.888
						c-0.073,0-0.132-0.055-0.132-0.123c0-0.068,0.059-0.123,0.132-0.123c0.072,0,0.131,0.055,0.131,0.123
						C87.064,136.833,87.006,136.888,86.933,136.888z M87.405,136.894c-0.073,0-0.132-0.055-0.132-0.123
						c0-0.068,0.059-0.123,0.132-0.123c0.072,0,0.131,0.055,0.131,0.123C87.536,136.839,87.477,136.894,87.405,136.894z"/>
					<path style="fill:#DB3B26;" d="M87.166,141.847c-0.362,0-0.655,0.274-0.655,0.612c0,0.338,0.292,0.612,0.655,0.612
						c0.361,0,0.655-0.275,0.655-0.612C87.82,142.121,87.526,141.847,87.166,141.847z M86.933,142.582
						c-0.073,0-0.132-0.055-0.132-0.123c0-0.068,0.059-0.123,0.132-0.123c0.072,0,0.131,0.055,0.131,0.123
						C87.064,142.527,87.006,142.582,86.933,142.582z M87.405,142.589c-0.073,0-0.132-0.055-0.132-0.124
						c0-0.068,0.059-0.123,0.132-0.123c0.072,0,0.131,0.055,0.131,0.123C87.536,142.534,87.477,142.589,87.405,142.589z"/>
					<g>
						<polygon style="fill:#DB3B26;" points="92.09,123.363 89.022,123.363 89.324,127.907 92.09,128.615 94.808,128.025 
							95.157,123.363 						"/>
						<polygon style="fill:#EE7A5F;" points="95.076,124.446 89.094,124.446 89.063,123.975 95.112,123.975 						"/>
					</g>
					<path style="fill:#EFC392;" d="M82.115,115.857c0,0,0.292,4.057,3.736,4.211c3.443-0.154,3.736-4.211,3.736-4.211H82.115z"/>
					<polygon style="fill:#DB3B26;" points="81.613,112.707 80.325,115.951 81.613,121.106 84.486,117.491 					"/>
					<polygon style="fill:#DB3B26;" points="90.496,112.707 91.784,115.951 90.496,121.106 87.624,117.491 					"/>
					<polygon style="fill:#DB3B26;" points="88.976,118.732 88.646,118.261 85.759,119.963 82.872,118.261 82.543,118.732 
						85.482,120.464 85.482,145.151 86.055,145.193 86.055,120.453 					"/>
				</g>
				<path style="fill:#DB3B26;" d="M75.706,131.216c0,0,0.097,0.516,0.243,1.29c0.14,0.774,0.306,1.811,0.47,2.848
					c0.153,1.038,0.304,2.077,0.4,2.858c0.092,0.783,0.153,1.304,0.153,1.304s-0.097-0.516-0.243-1.29
					c-0.141-0.775-0.307-1.812-0.47-2.848c-0.153-1.038-0.303-2.077-0.4-2.859C75.767,131.737,75.706,131.216,75.706,131.216z"/>
				<path style="fill:#DB3B26;" d="M96.137,131.223c0,0-0.054,0.517-0.135,1.294c-0.087,0.775-0.223,1.806-0.361,2.836
					c-0.149,1.029-0.301,2.057-0.431,2.826c-0.135,0.769-0.225,1.281-0.225,1.281s0.054-0.517,0.135-1.294
					c0.086-0.775,0.223-1.806,0.361-2.836c0.149-1.029,0.301-2.057,0.431-2.826C96.047,131.736,96.137,131.223,96.137,131.223z"/>
				<g>
					<g>
						<g>
							
								<path style="fill:#EFC392;stroke:#994900;stroke-width:0.45;stroke-linecap:round;stroke-linejoin:round;stroke-miterlimit:10;" d="
								M70.284,94.93c0,0-1.206-3.692-3.407-3.692c-2.2,0-1.136,7.168,4.614,10.86L70.284,94.93z"/>
							
								<path style="fill:#EFC392;stroke:#994900;stroke-width:0.45;stroke-linecap:round;stroke-linejoin:round;stroke-miterlimit:10;" d="
								M101.691,94.93c0,0,1.205-3.692,3.407-3.692c2.201,0,1.134,7.168-4.615,10.86L101.691,94.93z"/>
							
								<path style="fill:#EFC392;stroke:#994900;stroke-width:0.45;stroke-linecap:round;stroke-linejoin:round;stroke-miterlimit:10;" d="
								M86.015,69.038c0,0,10.858,0,12.097,0c1.239,0,4.307,1.956,4.625,11.803c0.628,19.303-0.199,24.344-7.115,31.639
								c-3.188,3.361-6.553,4.815-9.607,4.815c-2.97,0-6.421-1.454-9.608-4.815c-6.916-7.295-7.743-12.336-7.116-31.639
								c0.319-9.847,3.387-11.803,4.626-11.803C75.155,69.038,86.015,69.038,86.015,69.038z"/>
							<g>
								<path style="fill:#602700;" d="M97.63,85.782c-0.11-0.058-0.304-0.114-0.54-0.204c-0.238-0.087-0.524-0.199-0.86-0.272
									c-0.652-0.2-1.473-0.302-2.275-0.362c-1.619-0.078-3.155,0.257-3.422,0.315c-0.566,0.085-1.366,0.387-1.802-0.466
									c-0.242-0.44,0.197-0.881,0.869-1.169c0.67-0.299,1.569-0.436,2.219-0.474c0.647-0.059,2.061-0.019,3.378,0.32
									c0.327,0.094,0.653,0.173,0.956,0.277c0.3,0.115,0.585,0.224,0.846,0.324c0.504,0.235,0.902,0.444,1.117,0.559
									c0.407,0.28,0.877,0.536,1.177,0.873c0.312,0.321,0.514,0.622,0.476,0.86C99.675,86.846,98.553,86.167,97.63,85.782z"/>
							</g>
							<g>
								<path style="fill:#602700;" d="M74.205,85.782c0.11-0.058,0.304-0.114,0.54-0.204c0.238-0.087,0.524-0.199,0.86-0.272
									c0.653-0.2,1.474-0.302,2.275-0.362c1.619-0.078,3.155,0.257,3.423,0.315c0.565,0.085,1.366,0.387,1.802-0.466
									c0.242-0.44-0.197-0.881-0.869-1.169c-0.671-0.299-1.569-0.436-2.219-0.474c-0.648-0.059-2.062-0.019-3.379,0.32
									c-0.326,0.094-0.653,0.173-0.955,0.277c-0.3,0.115-0.585,0.224-0.846,0.324c-0.505,0.235-0.903,0.444-1.118,0.559
									c-0.407,0.28-0.876,0.536-1.177,0.873c-0.313,0.321-0.514,0.622-0.476,0.86C72.161,86.846,73.283,86.167,74.205,85.782z"/>
							</g>
							<g id="XMLID_11_">
								<g id="XMLID_21_">
									<path id="XMLID_36_" style="fill:#FFFFFF;" d="M77.026,87.796c-5.08,1.344-4.858,8.596,0.66,8.581
										C83.205,96.363,82.937,86.232,77.026,87.796z"/>
									
										<ellipse id="XMLID_29_" transform="matrix(0.0209 -0.9998 0.9998 0.0209 -15.9329 167.6651)" cx="77.638" cy="91.967" rx="2.713" ry="2.148"/>
									
										<ellipse id="XMLID_28_" transform="matrix(0.0209 -0.9998 0.9998 0.0209 -15.5953 165.2523)" style="fill:#FFFFFF;" cx="76.574" cy="90.589" rx="1.281" ry="1.281"/>
									
										<ellipse id="XMLID_25_" transform="matrix(0.0209 -0.9998 0.9998 0.0209 -16.364 169.5165)" style="fill:#FFFFFF;" cx="78.368" cy="93.113" rx="0.49" ry="0.49"/>
								</g>
								<g id="XMLID_12_">
									<path id="XMLID_20_" style="fill:#FFFFFF;" d="M94.894,87.837c5.019,1.555,4.495,8.791-1.019,8.546
										C88.363,96.138,89.054,86.027,94.894,87.837z"/>
									
										<ellipse id="XMLID_15_" transform="matrix(0.0209 -0.9998 0.9998 0.0209 0.3975 184.3734)" cx="94.334" cy="91.984" rx="2.713" ry="2.148"/>
									
										<ellipse id="XMLID_14_" transform="matrix(0.0209 -0.9998 0.9998 0.0209 0.7353 181.9606)" style="fill:#FFFFFF;" cx="93.27" cy="90.605" rx="1.281" ry="1.281"/>
									
										<ellipse id="XMLID_13_" transform="matrix(0.0209 -0.9998 0.9998 0.0209 -0.0335 186.2249)" style="fill:#FFFFFF;" cx="95.064" cy="93.13" rx="0.49" ry="0.49"/>
								</g>
							</g>
							<path id="XMLID_10_" style="fill:#C4884D;" d="M83.67,101.43c0.27-0.358,1.074,0.617,2.303,0.697
								c1.229,0.08,1.77-1.225,2.307-0.916c0.537,0.309-0.543,1.996-2.387,2.145C84.049,103.505,83.439,101.737,83.67,101.43z"/>
							<path id="XMLID_9_" style="fill:#C4884D;" d="M80.738,106.532c0.182-0.482,1.38,1.041,5.413,1.051
								c4.033,0.01,5.423-2.637,5.998-2.29c0.575,0.347-2.197,3.221-6,3.212C82.347,108.495,80.39,107.453,80.738,106.532z"/>
							<path id="XMLID_8_" style="fill:#C4884D;" d="M89.118,109.107c-0.701,0.155-1.297,0.416-2.034,0.456
								c-0.748,0.04-1.506-0.166-2.242-0.09c-0.203,0.022-0.234,0.27-0.048,0.346c1.169,0.481,3.549,0.565,4.45-0.496
								C89.327,109.226,89.249,109.078,89.118,109.107z"/>
						</g>
						<path style="fill:#602700;" d="M102.83,87.983c0.129,2.24-0.07,19.753-6.63,15.526c-3.058-1.97-4.958,0.206-9.923,0.206
							l-0.058-0.001c-2.782-0.029-7.61-2.107-10.366,0.083c-5.367,2.605-6.867-9.942-6.528-15.815
							c0.203-4.81-3.958-3.339-2.695-0.745c1.016,2.086,1.958,7.644,1.271,15.618c-0.688,7.974,11.13,15.523,17.626,15.523
							c0.189,0,0.373-0.005,0.551-0.015l0.141,0.007c0.134,0.006,0.27,0.008,0.411,0.008c6.496,0,18.313-7.549,17.625-15.523
							c-0.687-7.974-0.211-11.71,0.421-14.525C105.608,84.179,102.628,83.174,102.83,87.983z M89.717,113.023
							c-1.355,0.3-2.233-0.987-3.498-1.078c-0.046-0.003-0.093-0.005-0.141-0.005c-1.346,0-2.238,1.391-3.647,1.082
							c-4.808-1.059-6.614-5.119-6.41-7.075c0.235-2.261,5.295-0.772,10.197-0.808h0.042c5.173-0.048,10.182-1.523,10.171,1.105
							C96.424,108.175,94.273,112.016,89.717,113.023z"/>
					</g>
					<g>
						<g>
							<path style="fill:#602700;" d="M108.024,67.968c-1.511-0.344-3.852-0.677-5.213,0.034c-1.507,0.789-5.088,2.389-2.55,9.022
								c1.223,3.201,2.197,7.574,3.454,15.612c1.218-4.848,2.06-11.385,4.392-15.184c1.579-2.568,1.341-9.245-2.303-8.301
								C106.324,68.673,107.219,67.924,108.024,67.968z"/>
						</g>
						<g>
							<path style="fill:#602700;" d="M68.269,65.341c1.697-0.671,4.358-1.539,6.043-1.254c1.872,0.315,5.797,4.049-0.681,9.882
								c-5.083,4.58-4.16,11.703-4.364,19.019c-2.167-3.925-6.435-14.584-5.608-18.216c0.445-2.122,2.999-8.871,7.367-8.947
								C70.35,65.536,69.197,65.104,68.269,65.341z"/>
						</g>
						<g>
							<path style="fill:#602700;" d="M80.647,73.745c-2.304,1.566-4.235,3.318-7.597,4.684c5.408,0.244,12.116-2.032,16.905-4.29
								c-1.628,2.423-5.111,3.631-6.435,4.41c4.388-0.088,13.911-3.932,16.987-6.228c6.141-6.646-3.167-12.889-10.172-14.85
								c-11.016-3.108-20.546,2.218-25.09,10.58c-1.158,2.277-5.111,6.755-8.473,9.172C62.362,78.344,75.452,75.808,80.647,73.745z"
								/>
						</g>
					</g>
				</g>
			</g>
		</g>
	</g>
	<g>
		<g>
			<path style="fill:#FFFFFF;" d="M71.027,6.812c2.52,0,4.375,0.706,5.566,2.119c0.461,0.547,0.693,1.13,0.693,1.748
				c0,1.152-0.799,2.422-2.393,3.809l4.18,4.961l-3.516-0.039l-2.617-3.125v3.076l-2.891-0.186l0.166-12.344
				C70.49,6.818,70.76,6.812,71.027,6.812z M74.748,10.825c0-0.729-0.604-1.185-1.807-1.367v3.125
				C74.145,12.004,74.748,11.418,74.748,10.825z"/>
			<path style="fill:#FFFFFF;" d="M78.41,14.614c0.045-1.484,0.412-2.761,1.104-3.828c0.82-1.276,1.916-1.914,3.291-1.914
				c1.451,0,2.5,0.358,3.145,1.074c0.527,0.586,0.939,1.634,1.24,3.145c0.117,0.593,0.176,1.152,0.176,1.68
				c0,1.133-0.281,2.077-0.84,2.832c-0.82,1.106-2.068,1.634-3.74,1.582c-1.537-0.046-2.664-0.437-3.379-1.172
				C78.689,17.277,78.357,16.145,78.41,14.614z M84.152,12.271c-0.457-0.43-0.887-0.645-1.289-0.645
				c-0.496,0-0.951,0.325-1.367,0.977c-0.371,0.579-0.557,1.143-0.557,1.689c0,0.515,0.168,1.042,0.508,1.582
				c0.377,0.605,0.813,0.908,1.309,0.908c0.566,0,1.084-0.296,1.553-0.889c0.449-0.56,0.674-1.13,0.674-1.709
				C84.982,13.56,84.705,12.922,84.152,12.271z"/>
			<path style="fill:#FFFFFF;" d="M89.494,6.44l0.859,11.865l-2.656,0.313L87.229,6.44H89.494z"/>
			<path style="fill:#FFFFFF;" d="M90.813,14.614c0.045-1.484,0.412-2.761,1.104-3.828c0.82-1.276,1.916-1.914,3.291-1.914
				c1.451,0,2.5,0.358,3.145,1.074c0.527,0.586,0.939,1.634,1.24,3.145c0.117,0.593,0.176,1.152,0.176,1.68
				c0,1.133-0.281,2.077-0.84,2.832c-0.82,1.106-2.068,1.634-3.74,1.582c-1.537-0.046-2.664-0.437-3.379-1.172
				C91.092,17.277,90.76,16.145,90.813,14.614z M96.555,12.271c-0.457-0.43-0.887-0.645-1.289-0.645
				c-0.496,0-0.951,0.325-1.367,0.977c-0.371,0.579-0.557,1.143-0.557,1.689c0,0.515,0.168,1.042,0.508,1.582
				c0.377,0.605,0.813,0.908,1.309,0.908c0.566,0,1.084-0.296,1.553-0.889c0.449-0.56,0.674-1.13,0.674-1.709
				C97.385,13.56,97.107,12.922,96.555,12.271z"/>
		</g>
	</g>
</g>
</svg>
