<?xml version="1.0" encoding="utf-8"?>
<!-- Generator: Adobe Illustrator 21.0.0, SVG Export Plug-In . SVG Version: 6.00 Build 0)  -->
<svg version="1.1" id="Capa_1" xmlns="http://www.w3.org/2000/svg" xmlns:xlink="http://www.w3.org/1999/xlink" x="0px" y="0px"
	 viewBox="0 0 169.983 162.934" style="enable-background:new 0 0 169.983 162.934;" xml:space="preserve">
<g>
	<g>
		<g>
			<g>
				<path style="fill-rule:evenodd;clip-rule:evenodd;fill:#5D1230;" d="M26.738,0h116.376c4.294,0,2.98,14.511,2.98,21.766H23.758
					C23.758,14.511,23.024,0,26.738,0z"/>
				<path style="fill-rule:evenodd;clip-rule:evenodd;fill:#CCCCCC;" d="M26.166,13.463c0.028-5.542,0.337-11.222,1.865-12.94
					C27.662,0.185,27.233,0,26.738,0c-2.562,0-3.008,6.902-3.037,13.567C24.511,13.531,25.333,13.496,26.166,13.463z"/>
				<path style="fill-rule:evenodd;clip-rule:evenodd;fill:#CCCCCC;" d="M141.903,0.452c1.76,1.608,1.977,7.244,1.905,12.794
					c0.83,0.028,1.651,0.057,2.463,0.088C146.363,6.743,146.041,0,143.115,0C142.655,0,142.253,0.159,141.903,0.452z"/>
			</g>
			<g>
				<path style="opacity:0.2;fill-rule:evenodd;clip-rule:evenodd;" d="M20.911,161.493c-9.722-2.616-18.169-12.132-18.893-22.498
					c-2.634-37.733-2.687-59.564-0.175-99.701c0.755-12.051,9.874-21.89,21.604-23.69c34.064-5.227,89.025-5.227,123.088,0
					c11.731,1.8,20.85,11.639,21.605,23.69c2.512,40.136,2.458,61.968-0.175,99.701c-0.723,10.364-9.171,19.88-18.893,22.498
					C141.931,163.414,28.051,163.415,20.911,161.493z"/>
				<path style="fill-rule:evenodd;clip-rule:evenodd;fill:#FFFFFF;" d="M21.484,158.67c-9.68-2.616-18.094-12.131-18.814-22.496
					C0.046,98.44-0.006,76.609,2.497,36.472c0.751-12.052,9.831-21.89,21.514-23.69c33.92-5.228,88.043-5.228,121.963,0
					c11.681,1.8,20.763,11.639,21.514,23.69c2.502,40.136,2.447,61.968-0.175,99.702c-0.719,10.363-9.132,19.882-18.812,22.496
					C141.388,160.59,28.595,160.591,21.484,158.67z"/>
				<path style="fill-rule:evenodd;clip-rule:evenodd;fill:#999999;" d="M24.723,154.538c-9.404-2.541-17.575-11.782-18.276-21.853
					c-2.55-36.653-2.6-56.02-0.168-95.007c0.73-11.705,9.552-21.264,20.898-23.012c32.95-5.079,82.679-5.079,115.629,0
					c11.347,1.748,20.169,11.309,20.898,23.012c2.431,38.987,2.377,58.354-0.169,95.007c-0.699,10.067-8.874,19.313-18.275,21.853
					C138.354,156.403,31.63,156.404,24.723,154.538z"/>
				<path style="fill-rule:evenodd;clip-rule:evenodd;fill:#F2F2F2;" d="M4.509,81.456c0.094-12.871,0.684-26.368,1.771-43.778
					c0.73-11.705,9.552-21.264,20.898-23.012c32.95-5.078,82.679-5.078,115.629,0c11.347,1.748,20.169,11.309,20.898,23.012
					c1.085,17.409,1.675,30.906,1.769,43.778c-0.101,13.369-0.746,26.739-1.938,43.898c-0.698,10.066-8.873,19.312-18.276,21.853
					c-6.905,1.866-113.629,1.867-120.536,0c-9.404-2.541-17.575-11.783-18.275-21.853C5.255,108.195,4.608,94.824,4.509,81.456z"/>
				<path style="fill-rule:evenodd;clip-rule:evenodd;fill:#CCCCCC;" d="M4.512,80.972c0.106-12.726,0.694-26.102,1.767-43.294
					c0.73-11.705,9.552-21.264,20.898-23.012c32.95-5.078,82.679-5.078,115.629,0c11.347,1.748,20.169,11.309,20.898,23.012
					c1.071,17.177,1.659,30.545,1.765,43.26c-0.111,13.212-0.756,26.47-1.934,43.428c-0.698,10.067-8.873,19.312-18.276,21.853
					c-6.905,1.866-113.629,1.866-120.536,0c-9.404-2.541-17.575-11.782-18.275-21.853C5.269,107.422,4.624,94.173,4.512,80.972z"/>
				<path style="fill-rule:evenodd;clip-rule:evenodd;fill:#F2F2F2;" d="M28.714,17.242c35.789-4.857,81.629-4.783,114.092,0.221
					c11.347,1.748,20.169,11.307,20.898,23.013c0.269,4.321,0.509,9.194,0.717,14.49c-0.003-1.143-0.012-2.273-0.022-3.388
					c-0.203-5.068-0.435-9.74-0.695-13.899c-0.729-11.706-9.551-21.264-20.898-23.012c-32.95-5.079-82.679-5.079-115.629,0
					C15.831,16.414,7.01,25.97,6.279,37.678c-0.355,5.677-0.656,12.301-0.905,19.59c-0.017,1.331-0.03,2.678-0.042,4.04
					c0.256-7.779,0.572-14.833,0.947-20.831c0.372-5.964,2.845-11.368,6.679-15.467c-0.59,1.384-0.677,2.755-0.139,3.941
					c1.48,3.265,7.116,3.9,12.589,1.419s8.71-7.138,7.231-10.401C31.997,18.55,30.57,17.628,28.714,17.242z"/>
				<path style="fill-rule:evenodd;clip-rule:evenodd;fill:#B3B3B3;" d="M98.243,125.127c-36.913,0-70.089-7.59-92.959-19.657
					c0.302,5.858,0.69,12.078,1.164,18.896c0.701,10.071,8.872,19.312,18.275,21.853c6.907,1.866,113.631,1.866,120.536,0
					c9.403-2.541,17.577-11.786,18.276-21.853c0.195-2.802,0.375-5.503,0.541-8.12C144.96,121.876,122.402,125.127,98.243,125.127z"
					/>
			</g>
			<g>
				<path style="opacity:0.2;fill-rule:evenodd;clip-rule:evenodd;" d="M29.459,11.863c31.953-2.553,82.178-3.516,111.164,0.319
					c0.049,4.146,0.449,12.763,0.449,14.692c0,2.865-2.452,5.209-5.447,5.209H84.992H34.358c-2.996,0-5.447-2.343-5.447-5.209
					C28.911,24.976,29.403,15.937,29.459,11.863z"/>
				<path style="fill-rule:evenodd;clip-rule:evenodd;fill:#FFFFFF;" d="M84.992,29.246H35.284c-2.941,0-5.348-2.406-5.348-5.347
					C29.936,18.847,31.807,0,26.803,0h58.188h58.188c-5.004,0-3.133,18.847-3.133,23.899c0,2.941-2.406,5.347-5.348,5.347H84.992z"
					/>
				<path style="fill-rule:evenodd;clip-rule:evenodd;fill:#C12564;" d="M84.992,25.726H38.239c-2.767,0-5.03-2.116-5.03-4.703
					C33.209,16.579,34.968,0,30.262,0h54.73h54.729c-4.706,0-2.946,16.579-2.946,21.023c0,2.587-2.264,4.703-5.03,4.703H84.992z"/>
				<path style="fill-rule:evenodd;clip-rule:evenodd;fill:#E6E6E6;" d="M35.284,28.318c-2.845,0-5.188-2.25-5.34-5.059
					c-0.005,0.233-0.008,0.446-0.008,0.64c0,2.941,2.406,5.347,5.348,5.347h49.708h49.707c2.942,0,5.348-2.406,5.348-5.347
					c0-0.194-0.003-0.408-0.008-0.64c-0.151,2.809-2.494,5.059-5.34,5.059H84.992H35.284z"/>
				<path style="fill-rule:evenodd;clip-rule:evenodd;fill:#961D4E;" d="M80.411,21.766c-15.818-0.873-30.678-2.515-44.466-5.014
					c-0.855-0.155-1.706-0.313-2.552-0.475c-0.007,0.176-0.015,0.35-0.023,0.521c-0.081,1.775-0.16,3.276-0.16,4.225
					c0,0.253,0.022,0.501,0.063,0.743c0.384,2.237,2.47,3.96,4.967,3.96h46.753h46.752c2.427,0,4.466-1.629,4.93-3.775
					C116.838,22.759,98.031,22.738,80.411,21.766z"/>
				<path style="fill-rule:evenodd;clip-rule:evenodd;fill:#DA3F7E;" d="M32.906,3.396c35.041-1.761,69.847-1.961,104.498-1.127
					C137.902,0.872,138.641,0,139.72,0H30.262C31.608,0,32.425,1.355,32.906,3.396z"/>
			</g>
		</g>
		<g>
			<g>
				<path style="fill-rule:evenodd;clip-rule:evenodd;fill:#808080;" d="M84.992,132.443c26.806,0,48.668-21.862,48.668-48.668
					s-21.862-48.67-48.668-48.67s-48.67,21.864-48.67,48.67S58.187,132.443,84.992,132.443z"/>
				<path style="fill-rule:evenodd;clip-rule:evenodd;fill:#DCB000;" d="M84.992,132.315c-25.88,0-47.032-20.194-48.582-45.683
					c-0.053,0.987-0.088,1.982-0.088,2.986c0,26.884,21.786,48.668,48.67,48.668c26.883,0,48.668-21.784,48.668-48.668
					c0-1.004-0.035-1.998-0.086-2.986C132.025,112.121,110.872,132.315,84.992,132.315z"/>
			</g>
			<g>
				<path style="fill-rule:evenodd;clip-rule:evenodd;fill:#0059E1;" d="M84.992,136.516c26.806,0,48.668-21.862,48.668-48.668
					S111.798,39.18,84.992,39.18s-48.67,21.862-48.67,48.668S58.187,136.516,84.992,136.516z"/>
				<path style="fill-rule:evenodd;clip-rule:evenodd;fill:#F2F2F2;" d="M84.992,136.386c-25.88,0-47.032-20.192-48.582-45.682
					c-0.053,0.987-0.088,1.983-0.088,2.987c0,26.883,21.786,48.668,48.67,48.668c26.883,0,48.668-21.785,48.668-48.668
					c0-1.004-0.035-2-0.086-2.987C132.025,116.194,110.872,136.386,84.992,136.386z"/>
			</g>
		</g>
	</g>
	<g>
		<defs>
			<path id="SVGID_1_" d="M84.992,136.516c26.806,0,48.668-21.862,48.668-48.668S111.798,39.18,84.992,39.18
				s-48.67,21.862-48.67,48.668S58.187,136.516,84.992,136.516z"/>
		</defs>
		<clipPath id="SVGID_2_">
			<use xlink:href="#SVGID_1_"  style="overflow:visible;"/>
		</clipPath>
		<g style="clip-path:url(#SVGID_2_);">
			<g>
				<g>
					<g>
						<rect x="75.103" y="140.96" width="18.006" height="1.831"/>
						<path style="fill:#A7A9AC;" d="M85.066,143.085h-1.938c-0.773,0-1.401-0.542-1.401-1.208c0-0.667,0.628-1.211,1.401-1.211
							h1.938c0.772,0,1.4,0.543,1.4,1.211C86.467,142.543,85.838,143.085,85.066,143.085z M83.128,141.254
							c-0.448,0-0.813,0.279-0.813,0.623c0,0.342,0.365,0.62,0.813,0.62h1.938c0.448,0,0.813-0.278,0.813-0.62
							c0-0.344-0.365-0.623-0.813-0.623H83.128z"/>
					</g>
					<g>
						<path style="fill:#D54F2B;" d="M84.107,146.377c6.174,8.441,2.834,27.054,2.834,27.054c4.021-2.87,9.526-1.777,9.526-1.777
							c-5.535-14.241-3.375-28.863-3.375-28.863H75.103c0,0,2.179,14.622-3.356,28.863c0,0,5.505-1.093,9.526,1.777
							c0,0-3.361-18.613,2.812-27.054"/>
					</g>
					<g id="XMLID_133_">
						
							<path id="XMLID_135_" style="fill:#7F4A33;stroke:#35120C;stroke-width:0.45;stroke-linecap:round;stroke-linejoin:round;stroke-miterlimit:10;" d="
							M70.552,123.814c0,0-7.506,13.267,4.379,17.47l-0.362-4.13c0,0-6.025-3.042-2.896-10.544L70.552,123.814z"/>
					</g>
					<g>
						<path style="fill:#278C93;" d="M74.039,131.398c0,0-0.4-8.665-1.372-13.809c-0.434,0.285-0.808,0.608-1.073,0.858
							c-2.088,1.972-5.036,7.712-5.514,9.016l6.374,5.247L74.039,131.398z"/>
						<path style="fill:#BDFDFF;" d="M73.393,131.933l-6.749-5.733c-0.27,0.556-0.468,1.001-0.564,1.264l6.374,5.247L73.393,131.933
							z"/>
					</g>
					<g id="XMLID_1678_">
						
							<path id="XMLID_1680_" style="fill:#7F4A33;stroke:#35120C;stroke-width:0.45;stroke-linecap:round;stroke-linejoin:round;stroke-miterlimit:10;" d="
							M97.8,123.814c0,0,7.506,13.267-4.379,17.47l0.362-4.13c0,0,6.025-3.042,2.896-10.544L97.8,123.814z"/>
					</g>
					<g>
						<path style="fill:#278C93;" d="M94.154,131.402c0,0,0.252-8.364,1.368-13.772c0.434,0.285,0.925,0.608,1.19,0.858
							c2.088,1.972,5.036,7.712,5.514,9.016l-6.374,5.247L94.154,131.402z"/>
						<path style="fill:#BDFDFF;" d="M94.912,131.974l6.749-5.733c0.27,0.556,0.468,1.001,0.564,1.264l-6.374,5.247L94.912,131.974z
							"/>
					</g>
					<g>
						<path style="fill:#69D3D6;" d="M87.3,115.618h-3.078h-3.079l-8.496,1.968l0.91,10.736l1.378,14.4c0,0,2.048,1.734,2.867,2.122
							c1.79,0.846,6.421,1.24,6.421,1.24s4.575-0.095,6.365-0.942c0.82-0.387,2.923-2.42,2.923-2.42l1.378-14.4l0.635-10.692
							L87.3,115.618z"/>
						<g>
							<rect x="82.873" y="118.499" style="fill:#499FAA;" width="2.801" height="11.129"/>
							<circle style="fill:#57999B;" cx="84.538" cy="119.629" r="0.581"/>
							<path style="fill:#BDFDFF;" d="M85.145,118.499c0,0-2.207,4.96-2.22,8.466l-0.051,2.773h2.812v-2.75
								c0-5.23,1.761-7.26,1.761-7.26L85.145,118.499z"/>
							<g>
								<path style="fill:#278C93;" d="M79.914,114.123c-1.074,0.734-2.279,2.725-2.279,2.725l2.444,6.113l3.541-4.416h0.531l0,0
									h-0.531C83.621,118.545,79.395,115.044,79.914,114.123z"/>
								<path style="fill:#278C93;" d="M88.634,114.123c1.074,0.734,2.279,2.734,2.279,2.734l-2.444,6.104l-3.541-4.416h-0.775l0,0
									h0.775C84.927,118.545,89.153,115.044,88.634,114.123z"/>
								<path style="fill:#1A6F75;" d="M88.634,114.128c-0.198-0.135-0.391-0.193-0.572-0.193c-1.161,0-3.831,0-3.831,0
									s-2.583,0-3.744,0c-0.181,0-0.374,0.058-0.572,0.193c-0.519,0.921,3.707,4.416,3.707,4.416h0.61h0.697
									C84.927,118.545,89.153,115.049,88.634,114.128z"/>
							</g>
							<g>
								<circle style="fill:#57999B;" cx="84.538" cy="126.149" r="0.581"/>
								<circle style="fill:#57999B;" cx="84.538" cy="128.66" r="0.581"/>
							</g>
						</g>
					</g>
					<path style="fill:#EFD0B1;" d="M65.452,49.526c0,0,10.456-5.049,16.608-1.957c6.153,3.092,13.765-2.271,17.911,1.957
						l6.25,24.956H62.556L65.452,49.526z"/>
					<path d="M64.346,59.058l-0.962,8.293c5.351-3.673,12.684-5.94,20.78-5.94c7.792,0,14.878,2.101,20.17,5.533l-2.249-8.981
						c-4.98-2.641-11.187-4.21-17.921-4.21C76.545,53.754,69.6,55.761,64.346,59.058z"/>
					<path style="fill:#EFD0B1;" d="M123.891,79.346c0,0-4.807,11.61-27.584,7.206c-22.777-4.404-33.468,0-33.468,0
						s-30.845,6.895-8.951-15.774S125.86,62.869,123.891,79.346z"/>
					<path style="fill:#C69C6D;" d="M123.891,80.545c0,0-4.807,11.61-27.584,7.206s-33.468,0-33.468,0s-30.845,6.895-8.951-15.774
						S125.86,64.069,123.891,80.545z"/>
					<g>
						<g>
							
								<path style="fill:#7F4A33;stroke:#35120C;stroke-width:0.45;stroke-linecap:round;stroke-linejoin:round;stroke-miterlimit:10;" d="
								M68.328,95.431c0,0-1.215-3.72-3.433-3.72c-2.217,0-1.145,7.224,4.65,10.944L68.328,95.431z"/>
							
								<path style="fill:#7F4A33;stroke:#35120C;stroke-width:0.45;stroke-linecap:round;stroke-linejoin:round;stroke-miterlimit:10;" d="
								M99.98,95.431c0,0,1.214-3.72,3.433-3.72c2.218,0,1.143,7.224-4.651,10.944L99.98,95.431z"/>
							
								<path style="fill:#7F4A33;stroke:#35120C;stroke-width:0.45;stroke-linecap:round;stroke-linejoin:round;stroke-miterlimit:10;" d="
								M84.182,69.338c0,0,10.943,0,12.191,0c1.248,0,4.34,1.971,4.661,11.894c0.632,19.453-0.201,24.533-7.17,31.885
								c-3.213,3.387-6.603,4.852-9.682,4.852c-2.993,0-6.471-1.465-9.683-4.852c-6.97-7.351-7.803-12.432-7.171-31.885
								c0.322-9.924,3.413-11.894,4.662-11.894C73.237,69.338,84.182,69.338,84.182,69.338z"/>
							<g>
								<path style="fill:#35120C;" d="M95.887,86.212c-0.111-0.059-0.306-0.115-0.544-0.205c-0.24-0.088-0.528-0.2-0.866-0.274
									c-0.657-0.201-1.485-0.305-2.292-0.365c-1.631-0.079-3.179,0.259-3.449,0.318c-0.571,0.085-1.377,0.39-1.816-0.469
									c-0.243-0.444,0.199-0.887,0.876-1.178c0.675-0.301,1.581-0.44,2.236-0.478c0.652-0.06,2.077-0.019,3.404,0.323
									c0.33,0.094,0.658,0.175,0.963,0.279c0.302,0.116,0.589,0.226,0.853,0.326c0.508,0.237,0.909,0.447,1.126,0.564
									c0.411,0.282,0.884,0.541,1.186,0.88c0.315,0.324,0.518,0.627,0.479,0.867C97.947,87.285,96.816,86.6,95.887,86.212z"/>
							</g>
							<g>
								<path style="fill:#35120C;" d="M72.28,86.212c0.111-0.059,0.307-0.115,0.544-0.205c0.24-0.088,0.528-0.2,0.866-0.274
									c0.658-0.201,1.485-0.305,2.292-0.365c1.632-0.079,3.18,0.259,3.45,0.318c0.569,0.085,1.377,0.39,1.816-0.469
									c0.243-0.444-0.199-0.887-0.876-1.178c-0.676-0.301-1.581-0.44-2.236-0.478c-0.653-0.06-2.078-0.019-3.405,0.323
									c-0.329,0.094-0.659,0.175-0.963,0.279c-0.303,0.116-0.59,0.226-0.853,0.326c-0.509,0.237-0.91,0.447-1.126,0.564
									c-0.41,0.282-0.883,0.541-1.186,0.88c-0.315,0.324-0.518,0.627-0.479,0.867C70.22,87.285,71.351,86.6,72.28,86.212z"/>
							</g>
							<g id="XMLID_115_">
								<g id="XMLID_127_">
									<path id="XMLID_132_" style="fill:#FFFFFF;" d="M75.123,88.242c-5.119,1.354-4.896,8.662,0.665,8.648
										C81.349,96.876,81.079,86.666,75.123,88.242z"/>
									
										<ellipse id="XMLID_131_" transform="matrix(0.0209 -0.9998 0.9998 0.0209 -18.2701 166.2355)" cx="75.74" cy="92.446" rx="2.734" ry="2.164"/>
									
										<ellipse id="XMLID_129_" transform="matrix(0.0209 -0.9998 0.9998 0.0209 -17.9298 163.8039)" style="fill:#FFFFFF;" cx="74.667" cy="91.056" rx="1.291" ry="1.291"/>
									
										<ellipse id="XMLID_128_" transform="matrix(0.0209 -0.9998 0.9998 0.0209 -18.7045 168.1013)" style="fill:#FFFFFF;" cx="76.475" cy="93.601" rx="0.494" ry="0.494"/>
								</g>
								<g id="XMLID_116_">
									<path id="XMLID_124_" style="fill:#FFFFFF;" d="M93.13,88.283c5.058,1.567,4.53,8.859-1.026,8.612
										C86.548,96.649,87.244,86.46,93.13,88.283z"/>
									
										<ellipse id="XMLID_120_" transform="matrix(0.0209 -0.9998 0.9998 0.0209 -1.8128 183.0735)" cx="92.565" cy="92.462" rx="2.734" ry="2.164"/>
									
										<ellipse id="XMLID_118_" transform="matrix(0.0209 -0.9998 0.9998 0.0209 -1.4724 180.642)" style="fill:#FFFFFF;" cx="91.493" cy="91.073" rx="1.291" ry="1.291"/>
									
										<ellipse id="XMLID_117_" transform="matrix(0.0209 -0.9998 0.9998 0.0209 -2.2473 184.9393)" style="fill:#FFFFFF;" cx="93.301" cy="93.617" rx="0.494" ry="0.494"/>
								</g>
							</g>
							<path id="XMLID_114_" style="fill:#562B1C;" d="M80.147,100.801c0.464-0.615,1.847,1.061,3.96,1.199
								c2.113,0.137,3.043-2.106,3.966-1.575c0.923,0.531-0.933,3.432-4.104,3.688C80.799,104.369,79.75,101.328,80.147,100.801z"/>
							<path id="XMLID_113_" style="fill:#E6A67B;" d="M78.864,107.123c0.184-0.486,1.391,1.049,5.455,1.059
								c4.065,0.01,5.465-2.657,6.045-2.308c0.58,0.35-2.215,3.246-6.047,3.237C80.485,109.102,78.513,108.051,78.864,107.123z"/>
							<path id="XMLID_111_" style="fill:#562B1C;" d="M87.309,109.719c-0.707,0.156-1.307,0.419-2.05,0.46
								c-0.754,0.041-1.518-0.168-2.26-0.09c-0.205,0.022-0.236,0.272-0.048,0.349c1.178,0.484,3.576,0.569,4.485-0.5
								C87.519,109.839,87.441,109.69,87.309,109.719z"/>
						</g>
						<path style="fill:#35120C;" d="M84.239,79.087c0,0-0.422,1.155-1.366,0.257c0,0-0.97,1.077-1.317-0.206
							c0,0-0.845,1.232-1.565-0.256c0,0-1.217,0.872-1.515-0.411c0,0-1.317,1.027-1.491-0.59c0,0-1.142,0.744-1.565-0.488
							c0,0-0.447,1.284-2.037,0.36c0,0-0.149,1.592-1.64,0.924c0,0,0.696,1.207-0.844,1.694c0,0,0.994,0.872-0.298,1.642
							c0,0,0.992,0.796-0.026,1.566c0,0,0.944,1.668-0.671,1.668c0,0,0.844,1.565-0.721,2.079c0,0,1.218,1.951-0.695,1.951
							c0,0,1.167,1.643-0.572,2.002c0,0,0.894,1.18-0.447,1.796c0,0,0.149,1.079-0.248,1.592c-0.397,0.513-1.591-0.103-1.243-1.13
							c0,0-1.366,0.437-1.217-1.283c0,0-1.366-0.051-0.596-1.848c0,0-1.191-0.59-0.472-1.976c0,0-1.093-0.59-0.373-2.079
							c0,0-1.142-1.13-0.174-2.259c0,0-1.044-0.769-0.1-1.95c0,0-1.068-0.179,0.05-2.233c0,0-1.095-1.36,0.123-2.156
							c0,0-1.117-1.643,0.448-2.208c0,0-1.167-2.13,0.671-2.156c0,0-1.019-1.59,1.092-2.643c0,0-0.622-2.131,1.664-2.362
							c0,0-0.272-1.925,1.764-2.002c0,0,0.173-1.771,2.012-1.463c0,0-0.125-1.898,2.161-1.18c0,0-0.075-1.617,2.137-0.873
							c0,0-0.001-1.669,2.434-0.565c0,0,0.771-1.437,2.062-0.513c0,0,0.893-1.591,2.26-0.231c0,0,0.72-0.59,2.31-0.59
							c1.591,0,2.31,0.59,2.31,0.59c1.367-1.36,2.26,0.231,2.26,0.231c1.291-0.924,2.062,0.513,2.062,0.513
							c2.435-1.104,2.434,0.565,2.434,0.565c2.211-0.744,2.137,0.873,2.137,0.873c2.286-0.718,2.161,1.18,2.161,1.18
							c1.839-0.308,2.012,1.463,2.012,1.463c2.037,0.077,1.764,2.002,1.764,2.002c2.286,0.231,1.664,2.362,1.664,2.362
							c2.111,1.053,1.092,2.643,1.092,2.643c1.837,0.026,0.671,2.156,0.671,2.156c1.565,0.565,0.448,2.208,0.448,2.208
							c1.218,0.796,0.123,2.156,0.123,2.156c1.118,2.054,0.05,2.233,0.05,2.233c0.944,1.181-0.1,1.95-0.1,1.95
							c0.969,1.129-0.173,2.259-0.173,2.259c0.721,1.489-0.373,2.079-0.373,2.079c0.72,1.386-0.472,1.976-0.472,1.976
							c0.77,1.797-0.596,1.848-0.596,1.848c0.149,1.72-1.217,1.283-1.217,1.283c0.348,1.026-0.845,1.643-1.243,1.13
							c-0.397-0.513-0.248-1.592-0.248-1.592c-1.341-0.616-0.447-1.796-0.447-1.796c-1.738-0.359-0.572-2.002-0.572-2.002
							c-1.913,0-0.695-1.951-0.695-1.951c-1.565-0.514-0.721-2.079-0.721-2.079c-1.615,0-0.671-1.668-0.671-1.668
							c-1.018-0.77-0.026-1.566-0.026-1.566c-1.293-0.77-0.298-1.642-0.298-1.642c-1.541-0.487-0.844-1.694-0.844-1.694
							c-1.49,0.668-1.64-0.924-1.64-0.924c-1.589,0.924-2.037-0.36-2.037-0.36c-0.423,1.232-1.565,0.488-1.565,0.488
							c-0.174,1.617-1.491,0.59-1.491,0.59c-0.298,1.283-1.515,0.411-1.515,0.411c-0.72,1.489-1.565,0.256-1.565,0.256
							c-0.347,1.283-1.317,0.206-1.317,0.206C84.661,80.243,84.239,79.087,84.239,79.087z"/>
					</g>
					<polygon style="fill:#C7B299;" points="73.575,117.404 89.783,146.526 91.493,145.553 75.103,117.017 					"/>
					<path style="fill:#C7B299;" d="M87.532,147.041l6.939-3.957c0,0,2.871,12.718,0.441,13.896
						C92.483,158.159,89.134,161.105,87.532,147.041z"/>
					<g>
						<path style="fill:#603813;" d="M95.169,146.68l-7.159,3.779c0.087,0.513,0.179,0.988,0.272,1.438l7.12-3.759
							C95.327,147.634,95.248,147.144,95.169,146.68z"/>
						<path style="fill:#603813;" d="M95.795,151.442c-0.04-0.495-0.092-0.999-0.152-1.502l-6.953,3.67
							c0.138,0.502,0.282,0.953,0.429,1.355L95.795,151.442z"/>
					</g>
					<path style="fill:#C69C6D;" d="M62.197,77.905c0,0,22.67-18.94,43.49-2.661c0,0-0.933-14.471-20.073-14.762
						C68.959,60.228,62.197,69.706,62.197,77.905z"/>
				</g>
			</g>
		</g>
	</g>
	<g>
		<g>
			<path style="fill:#FFFFFF;" d="M53.185,12.544c-0.156-1.165-0.755-1.709-1.797-1.631s-1.614,0.781-1.719,2.109
				c-0.013,0.163-0.02,0.3-0.02,0.41c0,1.113,0.403,1.937,1.211,2.471c0.293,0.195,0.566,0.293,0.82,0.293
				c0.54,0,1.016-0.417,1.426-1.25l2.734,0.195c-0.813,2.578-1.966,3.841-3.457,3.789s-2.461-0.186-2.91-0.4
				c-0.82-0.391-1.413-1.091-1.777-2.1c-0.215-0.593-0.391-1.523-0.527-2.793c-0.039-0.364-0.059-0.69-0.059-0.977
				c0-1.472,0.371-2.666,1.113-3.584c0.801-0.989,1.921-1.484,3.359-1.484c0.306,0,0.603,0.02,0.889,0.059
				c1.758,0.241,2.852,1.784,3.281,4.629L53.185,12.544z"/>
			<path style="fill:#FFFFFF;" d="M58.996,8.511c0.437-0.098,0.862-0.146,1.279-0.146c2.019,0,3.317,1.048,3.896,3.145
				c0.3,1.087,0.433,2.337,0.4,3.75l-0.078,3.35l-2.529,0.156l-0.02-0.459c-3.177-0.11-4.834-0.892-4.971-2.344
				c-0.02-0.208-0.029-0.361-0.029-0.459c0-1.185,0.476-1.927,1.426-2.227c0.476-0.149,0.947-0.225,1.416-0.225
				c0.625,0,1.263,0.127,1.914,0.381c-0.007-1.12-0.02-1.712-0.039-1.777c-0.13-0.449-0.563-0.703-1.299-0.762
				c-0.625-0.052-1.224,0.469-1.797,1.563l-2.5-0.391C56.743,9.982,57.719,8.797,58.996,8.511z M60.617,14.79
				c-0.684,0-1.042,0.179-1.074,0.537c-0.052,0.521,0.716,0.944,2.305,1.27l-0.068-1.689C61.323,14.829,60.936,14.79,60.617,14.79z"
				/>
			<path style="fill:#FFFFFF;" d="M67.082,9.019l0.137,1.094c0.853-0.866,1.611-1.299,2.275-1.299c0.853,0,1.546,0.72,2.08,2.158
				c0.54-1.035,1.263-1.553,2.168-1.553c0.378,0,0.784,0.088,1.221,0.264c1.081,0.437,1.621,2.132,1.621,5.088
				c0,1.106-0.075,2.393-0.225,3.857l-1.924,0.078c0-0.403,0-0.784,0-1.143c0-3.496-0.376-5.244-1.128-5.244
				c-0.745,0-1.118,1.152-1.118,3.457c0,0.866,0.056,1.895,0.166,3.086h-2.207c0.078-0.964,0.117-1.829,0.117-2.598
				c0-1.621-0.169-2.786-0.508-3.496c-0.183-0.378-0.4-0.566-0.654-0.566c-0.449,0-1.013,0.596-1.689,1.787v5.166l-2.178-0.068
				l-0.361-9.678L67.082,9.019z"/>
			<path style="fill:#FFFFFF;" d="M79.328,7.466c2.175,0,3.577,0.843,4.209,2.529c0.156,0.417,0.234,0.813,0.234,1.191
				c0,1.582-1.433,2.712-4.297,3.389l0.313,4.443l-2.578,0.156L77.052,7.72C77.885,7.551,78.644,7.466,79.328,7.466z M81.154,10.815
				C81.127,10.438,80.49,10.1,79.24,9.8l0.156,2.266C80.594,11.609,81.18,11.193,81.154,10.815z"/>
			<path style="fill:#FFFFFF;" d="M86.994,14.653c0.293,0.983,0.914,1.497,1.865,1.543c0.885,0.046,1.484-0.42,1.797-1.396
				l2.734-0.391c-0.697,2.858-2.08,4.287-4.15,4.287c-0.639,0-1.352-0.146-2.139-0.439c-1.458-0.833-2.188-2.435-2.188-4.805
				c0-0.202,0.007-0.427,0.02-0.674c0.144-2.741,1.477-4.333,4.004-4.775c2.395-0.052,3.773,1.613,4.139,4.996L86.994,14.653z
				 M87.74,11.172c-0.361,0.427-0.559,0.942-0.59,1.548l3.662-1.045c-0.424-0.762-0.951-1.143-1.582-1.143
				C88.598,10.532,88.102,10.745,87.74,11.172z"/>
			<path style="fill:#FFFFFF;" d="M93.107,18.062l1.152-2.617c1.471,0.957,2.609,1.436,3.418,1.436c0.285,0,0.563-0.085,0.83-0.254
				c0.299-0.188,0.449-0.42,0.449-0.693c0-0.41-0.547-0.755-1.641-1.035c-1.582-0.403-2.646-1.233-3.193-2.49
				c-0.184-0.417-0.273-0.801-0.273-1.152c0-0.749,0.383-1.403,1.152-1.963c0.656-0.481,1.637-0.723,2.939-0.723
				c0.918,0,1.998,0.12,3.242,0.361l-0.83,2.5c-0.945-0.423-1.709-0.635-2.295-0.635c-0.287,0-0.557,0.062-0.811,0.186
				c-0.313,0.15-0.469,0.353-0.469,0.606c0,0.234,0.207,0.485,0.625,0.753c0.285,0.183,0.846,0.437,1.68,0.763
				c0.703,0.273,1.211,0.547,1.523,0.821c0.455,0.397,0.695,0.932,0.723,1.604c0.045,1.102-0.469,2.102-1.543,3.001
				c-0.457,0.385-1.123,0.577-2.002,0.577C96.605,19.106,95.047,18.758,93.107,18.062z"/>
			<path style="fill:#FFFFFF;" d="M103.469,7.593c0.143,0,0.273,0.02,0.391,0.059c0.547,0.183,0.904,0.521,1.074,1.016
				c0.051,0.149,0.078,0.3,0.078,0.449c0,0.332-0.135,0.661-0.4,0.986c-0.385,0.469-0.828,0.681-1.328,0.635
				c-0.502-0.046-0.908-0.315-1.221-0.811c-0.145-0.228-0.215-0.459-0.215-0.693c0-0.3,0.104-0.615,0.313-0.947
				C102.602,7.824,103.039,7.593,103.469,7.593z M104.953,11.753c-0.105,2.415-0.234,4.812-0.391,7.188l-2.5,0.234
				c0.09-1.016,0.137-2.048,0.137-3.096c0-1.302-0.072-2.624-0.215-3.965L104.953,11.753z"/>
			<path style="fill:#FFFFFF;" d="M107.688,8.628l0.156,1.094c1.27-0.892,2.311-1.338,3.125-1.338c0.754,0,1.314,0.381,1.68,1.143
				c0.553,1.159,0.83,3.063,0.83,5.713c0,0.95-0.037,1.999-0.107,3.145l-2.637,0.088c0.207-1.406,0.313-2.595,0.313-3.564
				c0-1.185-0.156-2.041-0.469-2.568c-0.203-0.339-0.434-0.508-0.693-0.508c-0.502,0-1.113,0.589-1.836,1.768v5.166l-2.383-0.068
				l-0.4-9.678L107.688,8.628z"/>
			<path style="fill:#FFFFFF;" d="M114.016,14.614c0.045-1.484,0.412-2.761,1.104-3.828c0.82-1.276,1.916-1.914,3.291-1.914
				c1.451,0,2.5,0.358,3.145,1.074c0.527,0.586,0.939,1.634,1.24,3.145c0.117,0.593,0.176,1.152,0.176,1.68
				c0,1.133-0.281,2.077-0.84,2.832c-0.82,1.106-2.068,1.634-3.74,1.582c-1.537-0.046-2.664-0.437-3.379-1.172
				C114.295,17.277,113.963,16.145,114.016,14.614z M119.758,12.271c-0.457-0.43-0.887-0.645-1.289-0.645
				c-0.496,0-0.951,0.325-1.367,0.977c-0.371,0.579-0.557,1.143-0.557,1.689c0,0.515,0.168,1.042,0.508,1.582
				c0.377,0.605,0.813,0.908,1.309,0.908c0.566,0,1.084-0.296,1.553-0.889c0.449-0.56,0.674-1.13,0.674-1.709
				C120.588,13.56,120.311,12.922,119.758,12.271z"/>
		</g>
	</g>
</g>
</svg>
