<?xml version="1.0" encoding="utf-8"?>
<!-- Generator: Adobe Illustrator 21.0.0, SVG Export Plug-In . SVG Version: 6.00 Build 0)  -->
<svg version="1.1" id="Capa_1" xmlns="http://www.w3.org/2000/svg" xmlns:xlink="http://www.w3.org/1999/xlink" x="0px" y="0px"
	 viewBox="0 0 169.983 162.934" style="enable-background:new 0 0 169.983 162.934;" xml:space="preserve">
<g>
	<g>
		<g>
			<g>
				<path style="fill-rule:evenodd;clip-rule:evenodd;fill:#5D1230;" d="M26.738,0h116.376c4.294,0,2.98,14.511,2.98,21.766H23.758
					C23.758,14.511,23.024,0,26.738,0z"/>
				<path style="fill-rule:evenodd;clip-rule:evenodd;fill:#CCCCCC;" d="M26.166,13.463c0.028-5.542,0.337-11.222,1.865-12.94
					C27.662,0.185,27.233,0,26.738,0c-2.562,0-3.008,6.902-3.037,13.567C24.511,13.531,25.333,13.496,26.166,13.463z"/>
				<path style="fill-rule:evenodd;clip-rule:evenodd;fill:#CCCCCC;" d="M141.903,0.452c1.76,1.608,1.977,7.244,1.905,12.794
					c0.83,0.028,1.651,0.057,2.463,0.088C146.363,6.743,146.041,0,143.115,0C142.655,0,142.253,0.159,141.903,0.452z"/>
			</g>
			<g>
				<path style="opacity:0.2;fill-rule:evenodd;clip-rule:evenodd;" d="M20.911,161.493c-9.722-2.616-18.169-12.132-18.893-22.498
					c-2.634-37.733-2.687-59.564-0.175-99.701c0.755-12.051,9.874-21.89,21.604-23.69c34.064-5.227,89.025-5.227,123.088,0
					c11.731,1.8,20.85,11.639,21.605,23.69c2.512,40.136,2.458,61.968-0.175,99.701c-0.723,10.364-9.171,19.88-18.893,22.498
					C141.931,163.414,28.051,163.415,20.911,161.493z"/>
				<path style="fill-rule:evenodd;clip-rule:evenodd;fill:#FFFFFF;" d="M21.484,158.67c-9.68-2.616-18.094-12.131-18.814-22.496
					C0.046,98.44-0.006,76.609,2.497,36.472c0.751-12.052,9.831-21.89,21.514-23.69c33.92-5.228,88.043-5.228,121.963,0
					c11.681,1.8,20.763,11.639,21.514,23.69c2.502,40.136,2.447,61.968-0.175,99.702c-0.719,10.363-9.132,19.882-18.812,22.496
					C141.388,160.59,28.595,160.591,21.484,158.67z"/>
				<path style="fill-rule:evenodd;clip-rule:evenodd;fill:#999999;" d="M24.723,154.538c-9.404-2.541-17.575-11.782-18.276-21.853
					c-2.55-36.653-2.6-56.02-0.168-95.007c0.73-11.705,9.552-21.264,20.898-23.012c32.95-5.079,82.679-5.079,115.629,0
					c11.347,1.748,20.169,11.309,20.898,23.012c2.431,38.987,2.377,58.354-0.169,95.007c-0.699,10.067-8.874,19.313-18.275,21.853
					C138.354,156.403,31.63,156.404,24.723,154.538z"/>
				<path style="fill-rule:evenodd;clip-rule:evenodd;fill:#F2F2F2;" d="M4.509,81.456c0.094-12.871,0.684-26.368,1.771-43.778
					c0.73-11.705,9.552-21.264,20.898-23.012c32.95-5.078,82.679-5.078,115.629,0c11.347,1.748,20.169,11.309,20.898,23.012
					c1.085,17.409,1.675,30.906,1.769,43.778c-0.101,13.369-0.746,26.739-1.938,43.898c-0.698,10.066-8.873,19.312-18.276,21.853
					c-6.905,1.866-113.629,1.867-120.536,0c-9.404-2.541-17.575-11.783-18.275-21.853C5.255,108.195,4.608,94.824,4.509,81.456z"/>
				<path style="fill-rule:evenodd;clip-rule:evenodd;fill:#CCCCCC;" d="M4.512,80.972c0.106-12.726,0.694-26.102,1.767-43.294
					c0.73-11.705,9.552-21.264,20.898-23.012c32.95-5.078,82.679-5.078,115.629,0c11.347,1.748,20.169,11.309,20.898,23.012
					c1.071,17.177,1.659,30.545,1.765,43.26c-0.111,13.212-0.756,26.47-1.934,43.428c-0.698,10.067-8.873,19.312-18.276,21.853
					c-6.905,1.866-113.629,1.866-120.536,0c-9.404-2.541-17.575-11.782-18.275-21.853C5.269,107.422,4.624,94.173,4.512,80.972z"/>
				<path style="fill-rule:evenodd;clip-rule:evenodd;fill:#F2F2F2;" d="M28.714,17.242c35.789-4.857,81.629-4.783,114.092,0.221
					c11.347,1.748,20.169,11.307,20.898,23.013c0.269,4.321,0.509,9.194,0.717,14.49c-0.003-1.143-0.012-2.273-0.022-3.388
					c-0.203-5.068-0.435-9.74-0.695-13.899c-0.729-11.706-9.551-21.264-20.898-23.012c-32.95-5.079-82.679-5.079-115.629,0
					C15.831,16.414,7.01,25.97,6.279,37.678c-0.355,5.677-0.656,12.301-0.905,19.59c-0.017,1.331-0.03,2.678-0.042,4.04
					c0.256-7.779,0.572-14.833,0.947-20.831c0.372-5.964,2.845-11.368,6.679-15.467c-0.59,1.384-0.677,2.755-0.139,3.941
					c1.48,3.265,7.116,3.9,12.589,1.419s8.71-7.138,7.231-10.401C31.997,18.55,30.57,17.628,28.714,17.242z"/>
				<path style="fill-rule:evenodd;clip-rule:evenodd;fill:#B3B3B3;" d="M98.243,125.127c-36.913,0-70.089-7.59-92.959-19.657
					c0.302,5.858,0.69,12.078,1.164,18.896c0.701,10.071,8.872,19.312,18.275,21.853c6.907,1.866,113.631,1.866,120.536,0
					c9.403-2.541,17.577-11.786,18.276-21.853c0.195-2.802,0.375-5.503,0.541-8.12C144.96,121.876,122.402,125.127,98.243,125.127z"
					/>
			</g>
			<g>
				<path style="opacity:0.2;fill-rule:evenodd;clip-rule:evenodd;" d="M29.459,11.863c31.953-2.553,82.178-3.516,111.164,0.319
					c0.049,4.146,0.449,12.763,0.449,14.692c0,2.865-2.452,5.209-5.447,5.209H84.992H34.358c-2.996,0-5.447-2.343-5.447-5.209
					C28.911,24.976,29.403,15.937,29.459,11.863z"/>
				<path style="fill-rule:evenodd;clip-rule:evenodd;fill:#FFFFFF;" d="M84.992,29.246H35.284c-2.941,0-5.348-2.406-5.348-5.347
					C29.936,18.847,31.807,0,26.803,0h58.188h58.188c-5.004,0-3.133,18.847-3.133,23.899c0,2.941-2.406,5.347-5.348,5.347H84.992z"
					/>
				<path style="fill-rule:evenodd;clip-rule:evenodd;fill:#C12564;" d="M84.992,25.726H38.239c-2.767,0-5.03-2.116-5.03-4.703
					C33.209,16.579,34.968,0,30.262,0h54.73h54.729c-4.706,0-2.946,16.579-2.946,21.023c0,2.587-2.264,4.703-5.03,4.703H84.992z"/>
				<path style="fill-rule:evenodd;clip-rule:evenodd;fill:#E6E6E6;" d="M35.284,28.318c-2.845,0-5.188-2.25-5.34-5.059
					c-0.005,0.233-0.008,0.446-0.008,0.64c0,2.941,2.406,5.347,5.348,5.347h49.708h49.707c2.942,0,5.348-2.406,5.348-5.347
					c0-0.194-0.003-0.408-0.008-0.64c-0.151,2.809-2.494,5.059-5.34,5.059H84.992H35.284z"/>
				<path style="fill-rule:evenodd;clip-rule:evenodd;fill:#961D4E;" d="M80.411,21.766c-15.818-0.873-30.678-2.515-44.466-5.014
					c-0.855-0.155-1.706-0.313-2.552-0.475c-0.007,0.176-0.015,0.35-0.023,0.521c-0.081,1.775-0.16,3.276-0.16,4.225
					c0,0.253,0.022,0.501,0.063,0.743c0.384,2.237,2.47,3.96,4.967,3.96h46.753h46.752c2.427,0,4.466-1.629,4.93-3.775
					C116.838,22.759,98.031,22.738,80.411,21.766z"/>
				<path style="fill-rule:evenodd;clip-rule:evenodd;fill:#DA3F7E;" d="M32.906,3.396c35.041-1.761,69.847-1.961,104.498-1.127
					C137.902,0.872,138.641,0,139.72,0H30.262C31.608,0,32.425,1.355,32.906,3.396z"/>
			</g>
		</g>
		<g>
			<g>
				<path style="fill-rule:evenodd;clip-rule:evenodd;fill:#808080;" d="M84.992,132.443c26.806,0,48.668-21.862,48.668-48.668
					s-21.862-48.67-48.668-48.67s-48.67,21.864-48.67,48.67S58.187,132.443,84.992,132.443z"/>
				<path style="fill-rule:evenodd;clip-rule:evenodd;fill:#DCB000;" d="M84.992,132.315c-25.88,0-47.032-20.194-48.582-45.683
					c-0.053,0.987-0.088,1.982-0.088,2.986c0,26.884,21.786,48.668,48.67,48.668c26.883,0,48.668-21.784,48.668-48.668
					c0-1.004-0.035-1.998-0.086-2.986C132.025,112.121,110.872,132.315,84.992,132.315z"/>
			</g>
			<g>
				<path style="fill-rule:evenodd;clip-rule:evenodd;fill:#0059E1;" d="M84.992,136.516c26.806,0,48.668-21.862,48.668-48.668
					S111.798,39.18,84.992,39.18s-48.67,21.862-48.67,48.668S58.187,136.516,84.992,136.516z"/>
				<path style="fill-rule:evenodd;clip-rule:evenodd;fill:#F2F2F2;" d="M84.992,136.386c-25.88,0-47.032-20.192-48.582-45.682
					c-0.053,0.987-0.088,1.983-0.088,2.987c0,26.883,21.786,48.668,48.67,48.668c26.883,0,48.668-21.785,48.668-48.668
					c0-1.004-0.035-2-0.086-2.987C132.025,116.194,110.872,136.386,84.992,136.386z"/>
			</g>
		</g>
	</g>
	<g>
		<defs>
			<path id="SVGID_1_" d="M84.992,136.516c26.806,0,48.668-21.862,48.668-48.668S111.798,39.18,84.992,39.18
				s-48.67,21.862-48.67,48.668S58.187,136.516,84.992,136.516z"/>
		</defs>
		<clipPath id="SVGID_2_">
			<use xlink:href="#SVGID_1_"  style="overflow:visible;"/>
		</clipPath>
		<g style="clip-path:url(#SVGID_2_);">
			<g>
				<g>
					<g>
						<g id="XMLID_164_">
							
								<rect id="XMLID_165_" x="70.324" y="162.115" transform="matrix(0.1165 -0.9932 0.9932 0.1165 -94.4595 222.6867)" style="fill:#7F4A33;stroke:#35120C;stroke-width:0.45;stroke-linecap:round;stroke-linejoin:round;stroke-miterlimit:10;" width="15.22" height="4.642"/>
						</g>
						<g id="XMLID_162_">
							
								<rect id="XMLID_163_" x="89.648" y="156.826" transform="matrix(0.9932 -0.1165 0.1165 0.9932 -18.5264 11.831)" style="fill:#7F4A33;stroke:#35120C;stroke-width:0.45;stroke-linecap:round;stroke-linejoin:round;stroke-miterlimit:10;" width="4.642" height="15.22"/>
						</g>
					</g>
					<g id="XMLID_160_">
						
							<path id="XMLID_161_" style="fill:#7F4A33;stroke:#35120C;stroke-width:0.45;stroke-linecap:round;stroke-linejoin:round;stroke-miterlimit:10;" d="
							M96.96,119.476c0,0,7.907,17.364-3.891,21.537l0.359-4.1c0,0,5.525-7.214,2.418-14.661L96.96,119.476z"/>
					</g>
					<g id="XMLID_158_">
						
							<path id="XMLID_159_" style="fill:#7F4A33;stroke:#35120C;stroke-width:0.45;stroke-linecap:round;stroke-linejoin:round;stroke-miterlimit:10;" d="
							M72.857,119.476c0,0-7.907,17.364,3.891,21.537l-0.359-4.1c0,0-5.525-7.214-2.418-14.661L72.857,119.476z"/>
					</g>
					<path style="fill:#7AC943;" d="M74.726,131.329c0,0,2.981-8.564-1.362-13.708c-0.431,0.283-0.802,0.604-1.065,0.852
						c-2.073,1.957-4.999,7.656-5.474,8.951L74.726,131.329z"/>
					<path style="fill:#7AC943;" d="M94.899,131.327c0,0-2.981-8.564,1.362-13.708c0.431,0.283,0.802,0.604,1.065,0.852
						c2.073,1.957,4.999,7.656,5.474,8.951L94.899,131.327z"/>
					<g>
						
							<path style="fill:#7F4A33;stroke:#35120C;stroke-width:0.45;stroke-linecap:round;stroke-linejoin:round;stroke-miterlimit:10;" d="
							M74.236,117.995l7.043-3.092h7.089l7.346,3.085c0,0-5.459,5.052-10.605,5.003C79.964,122.944,74.236,117.995,74.236,117.995z"
							/>
						<path style="fill:#7AC943;" d="M93.672,116.69c0,0-3.023,4.307-8.863,4.218c-5.84,0.089-8.864-4.218-8.864-4.218l-2.588,0.929
							c1.864,3.389,4.416,18.757,4.416,18.757h7.036h7.035c0,0,2.553-15.368,4.417-18.757L93.672,116.69z"/>
					</g>
					<g>
						<path style="fill:#35120C;" d="M69.266,96.953c-0.085-0.532-0.624-0.9-1.21-0.824c-0.017,0.003-1.45,0.176-3.008-0.471
							c0.701,0.137,1.345,0.179,1.86,0.179c0.257,0,0.482-0.01,0.667-0.023c0.567-0.023,1.019-0.449,1.019-0.972
							c0-0.538-0.478-0.973-1.067-0.973c-0.02,0-0.067,0.001-0.139,0.007c-0.438,0.031-1.208,0.031-2.07-0.163
							c0.016-0.089,0.027-0.179,0.027-0.272c0-0.045-0.009-0.088-0.013-0.132c0.388,0.047,0.703,0.058,0.901,0.058
							c0.13,0,0.211-0.004,0.23-0.005c0.589-0.036,1.033-0.5,0.994-1.036c-0.039-0.536-0.557-0.945-1.135-0.906
							c-0.025,0.001-2.415,0.127-3.923-1.65c-0.36-0.425-1.031-0.503-1.497-0.174c-0.466,0.329-0.552,0.94-0.191,1.365
							c0.339,0.399,0.707,0.73,1.088,1.009c-0.249,0.005-0.498,0.085-0.696,0.251c-0.434,0.363-0.464,0.979-0.066,1.375
							c0.507,0.505,1.053,0.898,1.609,1.205c-0.139,0.058-0.268,0.142-0.372,0.256c-0.378,0.412-0.319,1.026,0.134,1.371
							c1.902,1.451,4.048,1.671,5.175,1.671c0.454,0,0.741-0.036,0.78-0.041C68.946,97.979,69.35,97.485,69.266,96.953z"/>
						
							<path style="fill:#7F4A33;stroke:#35120C;stroke-width:0.45;stroke-linecap:round;stroke-linejoin:round;stroke-miterlimit:10;" d="
							M69.321,95.506c0,0-1.394-4.886-3.596-4.886c-2.201,0-1.945,8.463,4.804,12.057L69.321,95.506z"/>
						<path style="fill:#35120C;" d="M109.668,90.255c0.36-0.425,0.275-1.036-0.191-1.365c-0.466-0.329-1.137-0.252-1.498,0.174
							c-1.481,1.745-3.816,1.653-3.927,1.65c-0.593-0.037-1.092,0.371-1.131,0.906c-0.039,0.536,0.406,1,0.994,1.036
							c0.019,0.001,0.1,0.005,0.23,0.005c0.193,0,0.496-0.01,0.869-0.054c0.019,0.135,0.049,0.265,0.097,0.388
							c-0.882,0.206-1.674,0.207-2.121,0.175c-0.072-0.005-0.119-0.007-0.138-0.007c-0.589,0-1.067,0.436-1.067,0.973
							c0,0.537,0.478,0.973,1.067,0.973l-0.029,0c0.181,0.013,0.403,0.023,0.657,0.023c0.504,0,1.138-0.041,1.83-0.175
							c-1.535,0.624-2.962,0.469-2.992,0.465c-0.579-0.074-1.12,0.294-1.204,0.825c-0.085,0.532,0.319,1.025,0.903,1.103
							c0.039,0.005,0.326,0.041,0.781,0.041c1.126,0,3.272-0.22,5.174-1.671c0.452-0.345,0.512-0.959,0.134-1.371
							c-0.105-0.114-0.233-0.198-0.372-0.257c0.555-0.307,1.101-0.7,1.608-1.205c0.398-0.396,0.368-1.012-0.066-1.375
							c-0.198-0.166-0.447-0.246-0.696-0.251C108.96,90.986,109.329,90.655,109.668,90.255z"/>
						
							<path style="fill:#7F4A33;stroke:#35120C;stroke-width:0.45;stroke-linecap:round;stroke-linejoin:round;stroke-miterlimit:10;" d="
							M100.742,95.506c0,0,1.402-5.194,3.604-5.194c2.202,0,2.262,9.356-4.813,12.364L100.742,95.506z"/>
						<path style="fill:#35120C;" d="M84.962,62.535c-11.949,0-19.286,4.185-19.286,17.91c0,4.089-1.474,6.773,0.049,10.175
							c1.369,2.694,2.514,4.308,2.514,4.308s-0.318-18.632,1.247-20.09c0.748-0.695,7.873,1.191,15.476,1.191
							c8.517,0,15.099-1.665,15.726-0.809c1.199,1.638,1.435,11.04,0.944,19.708c0.17-0.166,0.334-0.34,0.494-0.516
							c2.808-4.192,2.143-8.269,2.143-13.968C104.268,66.72,96.911,62.535,84.962,62.535z"/>
						<g>
							<g>
								<path id="XMLID_155_" style="fill-rule:evenodd;clip-rule:evenodd;fill:#562B1C;" d="M91.302,114.797L91.302,114.797
									c0,5.113-12.656,5.113-12.656,0l0,0C78.647,109.684,91.302,109.684,91.302,114.797z"/>
								
									<path style="fill:#7F4A33;stroke:#35120C;stroke-width:0.45;stroke-linecap:round;stroke-linejoin:round;stroke-miterlimit:10;" d="
									M85.059,69.603c0,0,10.863,0,12.102,0c1.239,0,4.309,1.956,4.627,11.808c0.628,19.311-0.199,24.354-7.118,31.652
									c-3.189,3.363-6.555,4.817-9.611,4.817c-2.971,0-6.424-1.454-9.612-4.817c-6.919-7.298-7.746-12.341-7.119-31.652
									c0.32-9.851,3.388-11.808,4.628-11.808C74.195,69.603,85.059,69.603,85.059,69.603z"/>
								<g>
									<g>
										<path style="fill:#35120C;" d="M96.679,86.354c-0.11-0.058-0.304-0.114-0.54-0.204c-0.238-0.087-0.524-0.199-0.86-0.272
											c-0.652-0.2-1.474-0.302-2.276-0.362c-1.619-0.078-3.156,0.257-3.423,0.315c-0.566,0.085-1.367,0.387-1.802-0.466
											c-0.242-0.44,0.197-0.881,0.869-1.169c0.67-0.299,1.569-0.437,2.22-0.475c0.647-0.059,2.062-0.019,3.379,0.32
											c0.327,0.094,0.654,0.173,0.956,0.277c0.3,0.115,0.585,0.224,0.847,0.324c0.504,0.235,0.902,0.444,1.118,0.559
											c0.408,0.28,0.877,0.537,1.178,0.873c0.313,0.321,0.514,0.623,0.476,0.861C98.724,87.419,97.602,86.739,96.679,86.354z"/>
									</g>
								</g>
								<g>
									<g>
										<path style="fill:#35120C;" d="M73.244,86.354c0.11-0.058,0.304-0.114,0.54-0.204c0.239-0.087,0.525-0.199,0.86-0.272
											c0.653-0.2,1.474-0.302,2.276-0.362c1.62-0.078,3.156,0.257,3.425,0.315c0.565,0.085,1.367,0.387,1.802-0.466
											c0.242-0.44-0.197-0.881-0.869-1.169c-0.671-0.299-1.569-0.437-2.22-0.475c-0.648-0.059-2.063-0.019-3.38,0.32
											c-0.327,0.094-0.654,0.173-0.956,0.277c-0.301,0.115-0.585,0.224-0.847,0.324c-0.505,0.235-0.903,0.444-1.118,0.559
											c-0.407,0.28-0.876,0.537-1.178,0.873c-0.313,0.321-0.514,0.623-0.476,0.861C71.199,87.419,72.321,86.739,73.244,86.354z"
											/>
									</g>
								</g>
								<g id="XMLID_136_">
									<g id="XMLID_150_">
										<path id="XMLID_154_" style="fill:#FFFFFF;" d="M76.066,88.369c-5.082,1.344-4.86,8.599,0.661,8.585
											C82.247,96.939,81.979,86.805,76.066,88.369z"/>
										
											<ellipse id="XMLID_153_" transform="matrix(0.0209 -0.9998 0.9998 0.0209 -17.447 167.2685)" cx="76.679" cy="92.542" rx="2.714" ry="2.148"/>
										
											<ellipse id="XMLID_152_" transform="matrix(0.0209 -0.9998 0.9998 0.0209 -17.1093 164.8547)" style="fill:#FFFFFF;" cx="75.614" cy="91.163" rx="1.282" ry="1.282"/>
										
											<ellipse id="XMLID_151_" transform="matrix(0.0209 -0.9998 0.9998 0.0209 -17.8783 169.1207)" style="fill:#FFFFFF;" cx="77.409" cy="93.688" rx="0.49" ry="0.49"/>
									</g>
									<g id="XMLID_137_">
										<path id="XMLID_149_" style="fill:#FFFFFF;" d="M93.942,88.41c5.021,1.556,4.496,8.795-1.019,8.55
											C87.408,96.714,88.099,86.6,93.942,88.41z"/>
										
											<ellipse id="XMLID_148_" transform="matrix(0.0209 -0.9998 0.9998 0.0209 -1.11 183.9836)" cx="93.381" cy="92.558" rx="2.714" ry="2.148"/>
										
											<ellipse id="XMLID_147_" transform="matrix(0.0209 -0.9998 0.9998 0.0209 -0.772 181.5698)" style="fill:#FFFFFF;" cx="92.317" cy="91.179" rx="1.282" ry="1.282"/>
										
											<ellipse id="XMLID_146_" transform="matrix(0.0209 -0.9998 0.9998 0.0209 -1.5412 185.8357)" style="fill:#FFFFFF;" cx="94.111" cy="93.705" rx="0.49" ry="0.49"/>
									</g>
								</g>
								<g>
									<path d="M72.874,91.149c0.344-0.781,0.924-1.368,1.567-1.739s1.349-0.539,2.053-0.621c0.645-0.074,1.307-0.076,1.927,0.164
										c0.971,0.375,1.748,1.306,2.376,2.315c-0.061-0.215-0.14-0.422-0.23-0.62c-0.733-1.622-1.852-2.638-3.669-2.701
										c-0.955-0.033-1.905,0.25-2.752,0.796c-0.395,0.254-0.843,0.564-1.163,0.959c-0.146,0.181-0.158,0.226-0.164,0.492
										C72.814,90.413,72.956,90.963,72.874,91.149z"/>
									<path d="M72.758,90.414c-0.515,0.356-1.245,0.088-1.523-0.559c0.004,0.057,0.015,0.113,0.028,0.168
										c0.092,0.39,0.297,0.746,0.585,0.937c0.288,0.19,0.659,0.196,0.932-0.027c0.234-0.192,0.395-0.579,0.318-0.922
										C73.013,90.147,72.895,90.319,72.758,90.414z"/>
									<path d="M72.824,90.034c-0.587,0.051-1.158-0.576-1.191-1.309c-0.016,0.054-0.025,0.11-0.032,0.167
										c-0.049,0.402,0.016,0.833,0.213,1.158c0.196,0.324,0.531,0.525,0.854,0.466c0.277-0.05,0.554-0.316,0.601-0.668
										C73.145,89.926,72.98,90.02,72.824,90.034z"/>
								</g>
								<g>
									<path d="M96.955,91.168c-0.344-0.781-0.924-1.368-1.567-1.739c-0.643-0.371-1.349-0.539-2.053-0.621
										c-0.645-0.074-1.307-0.076-1.927,0.164c-0.971,0.375-1.748,1.306-2.376,2.315c0.061-0.215,0.14-0.422,0.23-0.62
										c0.733-1.622,1.852-2.638,3.669-2.701c0.955-0.033,1.905,0.25,2.752,0.796c0.395,0.254,0.843,0.564,1.163,0.959
										c0.146,0.181,0.158,0.226,0.164,0.492C97.015,90.431,96.873,90.982,96.955,91.168z"/>
									<path d="M97.071,90.432c0.515,0.356,1.245,0.088,1.523-0.559c-0.004,0.057-0.015,0.113-0.028,0.168
										c-0.092,0.39-0.297,0.746-0.585,0.937c-0.288,0.19-0.659,0.196-0.932-0.027c-0.234-0.192-0.395-0.579-0.318-0.922
										C96.816,90.165,96.934,90.338,97.071,90.432z"/>
									<path d="M97.005,90.052c0.587,0.051,1.158-0.576,1.191-1.309c0.016,0.054,0.025,0.11,0.032,0.167
										c0.049,0.402-0.016,0.833-0.213,1.158c-0.196,0.324-0.531,0.525-0.854,0.466c-0.277-0.05-0.554-0.316-0.601-0.668
										C96.684,89.944,96.849,90.038,97.005,90.052z"/>
								</g>
								<path id="XMLID_157_" style="fill:#562B1C;" d="M81.038,100.836c0.46-0.61,1.833,1.054,3.931,1.19
									c2.098,0.136,3.021-2.09,3.938-1.564c0.917,0.527-0.926,3.407-4.074,3.661C81.685,104.378,80.644,101.36,81.038,100.836z"/>
								<path id="XMLID_156_" style="fill:#562B1C;" d="M88.147,109.689c-0.702,0.155-1.298,0.416-2.035,0.457
									c-0.748,0.04-1.507-0.166-2.243-0.09c-0.203,0.022-0.234,0.27-0.048,0.347c1.17,0.481,3.55,0.565,4.452-0.496
									C88.357,109.808,88.279,109.66,88.147,109.689z"/>
								<g>
									<path style="fill:#C98150;" d="M85.607,105.292c-1.629-1.216-5.382,1.449-5.382,1.449s2.298,3.725,6.014,2.754
										c3.837-0.165,4.938-4.401,4.938-4.401S86.807,103.65,85.607,105.292z"/>
									<path style="fill:#562B1C;" d="M91.632,104.757c0,0-0.036,0.034-0.103,0.097c-0.068,0.063-0.165,0.158-0.294,0.272
										c-0.123,0.12-0.297,0.243-0.492,0.39c-0.099,0.071-0.201,0.156-0.317,0.226c-0.114,0.074-0.237,0.148-0.364,0.228
										c-0.064,0.04-0.129,0.08-0.195,0.121c-0.069,0.037-0.138,0.075-0.21,0.113c-0.143,0.076-0.292,0.151-0.445,0.23
										c-0.154,0.076-0.318,0.142-0.483,0.217c-0.165,0.074-0.336,0.146-0.514,0.205c-0.178,0.062-0.358,0.125-0.541,0.188
										c-0.183,0.063-0.375,0.108-0.566,0.158c-0.096,0.025-0.192,0.05-0.288,0.075c-0.097,0.024-0.196,0.04-0.294,0.06
										c-0.197,0.038-0.394,0.076-0.592,0.114c-0.199,0.021-0.397,0.043-0.595,0.064c-0.098,0.009-0.192,0.023-0.292,0.029
										c-0.101,0.005-0.201,0.009-0.301,0.014c-0.2,0.008-0.4,0.02-0.594,0.015c-0.193-0.007-0.385-0.014-0.573-0.021
										c-0.188-0.003-0.372-0.023-0.552-0.045c-0.18-0.022-0.355-0.037-0.525-0.065c-0.17-0.031-0.335-0.058-0.493-0.089
										c-0.079-0.016-0.157-0.031-0.233-0.046c-0.076-0.02-0.15-0.039-0.222-0.058c-0.145-0.039-0.284-0.073-0.415-0.111
										c-0.132-0.033-0.253-0.084-0.368-0.122c-0.114-0.041-0.222-0.078-0.32-0.115c-0.049-0.019-0.096-0.035-0.14-0.054
										c-0.044-0.02-0.086-0.039-0.125-0.058c-0.159-0.072-0.28-0.135-0.364-0.174c-0.083-0.041-0.127-0.062-0.127-0.062
										l0.014-0.036c0,0,0.185,0.063,0.509,0.172c0.04,0.014,0.083,0.028,0.128,0.043c0.045,0.015,0.093,0.025,0.143,0.039
										c0.1,0.026,0.208,0.054,0.323,0.084c0.229,0.067,0.495,0.111,0.783,0.166c0.072,0.014,0.146,0.028,0.221,0.042
										c0.076,0.01,0.153,0.019,0.231,0.029c0.157,0.02,0.319,0.04,0.486,0.061c0.167,0.018,0.34,0.024,0.516,0.037
										c0.176,0.01,0.356,0.027,0.539,0.023c0.183,0.001,0.37,0.002,0.558,0.002c0.189-0.002,0.379-0.019,0.571-0.028
										c0.096-0.005,0.192-0.011,0.289-0.016c0.097-0.006,0.193-0.022,0.29-0.032c0.193-0.023,0.388-0.047,0.582-0.07
										c0.192-0.035,0.385-0.07,0.576-0.104c0.096-0.018,0.192-0.032,0.286-0.054c0.094-0.023,0.188-0.046,0.281-0.069
										c0.186-0.048,0.373-0.087,0.554-0.141c0.18-0.056,0.358-0.112,0.533-0.167c0.177-0.05,0.343-0.119,0.509-0.181
										c0.164-0.064,0.328-0.12,0.482-0.187c0.153-0.069,0.302-0.136,0.446-0.201c0.072-0.032,0.143-0.064,0.213-0.096
										c0.067-0.036,0.134-0.071,0.199-0.105c0.259-0.137,0.5-0.258,0.699-0.389c0.101-0.062,0.196-0.121,0.284-0.175
										c0.044-0.028,0.087-0.052,0.125-0.079c0.038-0.028,0.075-0.054,0.11-0.079c0.278-0.201,0.437-0.315,0.437-0.315
										L91.632,104.757z"/>
									<g>
										<path style="fill:#E6A67B;" d="M90.999,105.289c-0.085,0.062-0.177,0.129-0.275,0.2c-0.099,0.07-0.201,0.153-0.318,0.222
											c-0.115,0.072-0.238,0.145-0.366,0.222c-0.064,0.039-0.129,0.078-0.196,0.118c-0.069,0.036-0.139,0.072-0.21,0.11
											c-0.144,0.073-0.293,0.148-0.446,0.225c-0.154,0.074-0.318,0.139-0.483,0.211c-0.165,0.071-0.335,0.143-0.513,0.2
											c-0.177,0.061-0.357,0.122-0.54,0.184c-0.183,0.061-0.373,0.105-0.564,0.155c-0.095,0.025-0.191,0.049-0.287,0.074
											c-0.096,0.024-0.195,0.039-0.292,0.059c-0.196,0.037-0.393,0.075-0.589,0.113c-0.198,0.022-0.396,0.043-0.593,0.065
											c-0.098,0.009-0.192,0.024-0.292,0.029c-0.1,0.005-0.2,0.009-0.299,0.014c-0.198,0.008-0.396,0.021-0.59,0.017
											c-0.193-0.006-0.383-0.012-0.57-0.017c-0.187-0.002-0.37-0.021-0.549-0.041c-0.179-0.021-0.354-0.034-0.524-0.06
											c-0.169-0.029-0.334-0.055-0.492-0.084c-0.079-0.015-0.157-0.029-0.233-0.043c-0.075-0.019-0.15-0.037-0.222-0.055
											c-0.145-0.037-0.284-0.069-0.415-0.105c-0.132-0.032-0.253-0.081-0.367-0.118c-0.114-0.039-0.221-0.076-0.32-0.11
											c-0.049-0.018-0.097-0.032-0.141-0.05c-0.017-0.007-0.032-0.014-0.048-0.02c0.324,0.486,2.544,3.586,5.973,2.691
											c3.538-0.152,4.749-3.765,4.917-4.328c-0.012,0.011-0.024,0.02-0.037,0.031C91.083,105.23,91.041,105.258,90.999,105.289z
											"/>
									</g>
								</g>
							</g>
						</g>
						<g>
							<g>
								<path style="fill:#35120C;" d="M108.126,64.205c-0.101-1.46-2.063-1.92-2.063-1.92s1.495-1.076,0.592-2.536
									c-0.904-1.459-1.915-1.229-1.915-1.229s1.329-1.69,0.623-2.919c-0.707-1.229-2.512-1.306-2.512-1.306
									s0.279-1.69-1.022-2.612c-1.3-0.922-2.395-0.614-2.395-0.614s0.404-1.613-1.146-2.228c-1.55-0.615-2.588,0-2.588,0
									s-0.275-1.921-2.019-2.074c-1.745-0.153-2.428,0.538-2.428,0.538s0.011-1.613-1.843-1.921
									c-1.853-0.308-2.126,0.538-2.126,0.538s-0.303-0.901-1.606-1.055v-0.02c-0.083-0.004-0.16-0.002-0.237-0.001
									c-0.013,0-0.028,0-0.041,0c-0.013,0-0.028,0-0.041,0c-0.077-0.001-0.154-0.003-0.237,0.001v0.02
									c-1.302,0.154-1.606,1.055-1.606,1.055s-0.272-0.845-2.126-0.538c-1.853,0.307-1.843,1.921-1.843,1.921
									s-0.684-0.691-2.428-0.538C75.376,46.919,75.1,48.84,75.1,48.84s-1.039-0.615-2.588,0c-1.549,0.615-1.146,2.228-1.146,2.228
									s-1.095-0.308-2.396,0.614c-1.3,0.922-1.021,2.612-1.021,2.612s-1.805,0.077-2.512,1.306
									c-0.707,1.229,0.622,2.919,0.622,2.919s-1.011-0.23-1.914,1.229c-0.904,1.46,0.591,2.536,0.591,2.536
									s-1.961,0.461-2.062,1.92c-0.1,1.46,1.471,2.074,1.471,2.074c-1.578,2.459,1.499,3.925,1.499,3.925l3.086,2.52h16.391h0.556
									h16.391l3.086-2.52c0,0,3.077-1.466,1.499-3.925C106.655,66.28,108.226,65.665,108.126,64.205z"/>
							</g>
							<g>
								<path style="fill:#BC57BC;" d="M68.596,68.093c0,0-2.028-13.763,16.173-15.468c18.202-1.705,21.229,15.705,13.575,18.758
									C98.344,71.383,78.24,77.48,68.596,68.093z"/>
							</g>
							<polygon style="fill:#6B341D;" points="108.114,76.034 108.765,76.034 109.448,76.033 							"/>
						</g>
						<path style="fill:#35120C;" d="M109.822,76.779c-0.301-0.033-0.587,0.032-0.829,0.162c0.306-1.296,0.434-2.546,0.448-3.605
							c0.013-0.074,0.023-0.148,0.023-0.226c0-0.737-0.597-1.334-1.334-1.334c-0.314,0-0.598,0.113-0.826,0.294
							c-0.04-0.102-0.074-0.204-0.116-0.305c0.029-0.744,0.019-1.526-0.045-2.358c-0.052-0.67-0.698-1.177-1.425-1.128
							c-0.095,0.006-0.187,0.022-0.276,0.045c-0.212-0.344-0.435-0.683-0.668-1.018c-0.05-0.681-0.133-1.381-0.265-2.102
							c-0.121-0.662-0.807-1.11-1.535-0.999c-0.227,0.035-0.427,0.124-0.596,0.245c-0.262-0.26-0.532-0.516-0.812-0.765
							c-0.144-0.66-0.315-1.323-0.545-1.991c-0.221-0.641-0.974-0.997-1.673-0.796c-0.347,0.1-0.617,0.317-0.776,0.589
							c-0.109-0.065-0.227-0.124-0.338-0.187c-0.207-0.61-0.451-1.216-0.748-1.814c-0.303-0.612-1.091-0.884-1.765-0.607
							c-0.422,0.174-0.696,0.524-0.765,0.912c-0.096-0.035-0.187-0.074-0.285-0.108c-0.236-0.647-0.507-1.291-0.829-1.929
							c-0.307-0.61-1.099-0.878-1.769-0.597c-0.565,0.237-0.857,0.788-0.751,1.322c-0.164-0.415-0.338-0.83-0.536-1.243
							c-0.295-0.616-1.083-0.897-1.756-0.629c-0.675,0.268-0.985,0.985-0.69,1.601c0.031,0.064,0.056,0.129,0.086,0.193
							c-0.079-0.007-0.154-0.017-0.233-0.023c-0.131-0.552-0.227-0.893-0.247-0.964c-0.187-0.649-0.916-1.04-1.628-0.868
							c-0.317,0.076-0.573,0.253-0.748,0.48c-0.194-0.1-0.414-0.162-0.652-0.162c-0.429,0-0.807,0.188-1.051,0.476
							c-0.138-0.377-0.473-0.686-0.926-0.794c-0.714-0.172-1.442,0.219-1.628,0.868c-0.023,0.08-0.141,0.497-0.297,1.18
							c-0.095,0.013-0.191,0.025-0.286,0.039c0.063-0.141,0.122-0.283,0.19-0.424c0.295-0.616-0.015-1.333-0.691-1.601
							c-0.672-0.268-1.461,0.013-1.755,0.629c-0.198,0.415-0.373,0.83-0.537,1.246c0.108-0.534-0.184-1.087-0.751-1.325
							c-0.67-0.281-1.461-0.013-1.769,0.597c-0.438,0.869-0.79,1.75-1.072,2.633c-0.041,0.018-0.083,0.036-0.124,0.053
							c0.265-0.601-0.029-1.292-0.683-1.562c-0.673-0.279-1.461-0.005-1.765,0.607c-0.394,0.795-0.704,1.604-0.942,2.417
							c-0.065-0.455-0.408-0.857-0.919-1.004c-0.702-0.202-1.451,0.154-1.673,0.796c-0.399,1.156-0.649,2.302-0.801,3.431
							c-0.021,0.022-0.044,0.042-0.064,0.064c-0.098-0.491-0.517-0.897-1.088-0.984c-0.734-0.113-1.414,0.336-1.536,0.999
							c-0.223,1.214-0.318,2.372-0.318,3.471c-0.223-0.224-0.535-0.374-0.891-0.397c-0.741-0.049-1.373,0.458-1.424,1.128
							c-0.079,1.017-0.079,1.963-0.022,2.848c-0.242-0.223-0.576-0.361-0.947-0.361h-0.001c-0.736,0-1.333,0.545-1.334,1.216
							c-0.003,1.453,0.224,3.322,0.828,5.159c-0.152-0.034-0.312-0.048-0.477-0.03c-0.731,0.078-1.255,0.682-1.17,1.35
							c0.212,1.65,0.833,3.012,1.665,4.134c-0.172-0.018-0.35-0.002-0.521,0.062c-0.545,0.204-0.806,0.772-0.583,1.27
							c0.198,0.441,0.438,0.841,0.71,1.206c-0.034,0.009-0.069,0.015-0.102,0.028c-0.546,0.204-0.807,0.772-0.583,1.27
							c0.881,1.963,2.591,3.129,4.287,3.823c0.382,0.92,3.897,2.671,4.376,3.548c0,0,1.163-2.742,1.116-2.82
							c0.184-0.169,0.302-0.399,0.31-0.656c0.017-0.537-0.447-0.985-1.036-1c-0.003,0-0.028-0.001-0.07-0.003
							c-0.069-0.176-0.138-0.365-0.205-0.562c0.099,0.006,0.167,0.008,0.19,0.008c0.011,0,0.02,0.001,0.031,0.001
							c0.575,0,1.05-0.418,1.066-0.946c0.016-0.537-0.448-0.985-1.037-1.001c-0.005,0-0.07-0.003-0.161-0.009
							c0.417-0.145,0.746-0.476,0.837-0.905c0.094-0.445-0.095-0.876-0.447-1.152c0.011-0.061,0.019-0.123,0.019-0.187
							c0-0.259-0.094-0.493-0.245-0.68c0.333-0.165,0.587-0.456,0.67-0.821c0.076-0.334-0.008-0.663-0.201-0.925
							c0.421-0.04,0.817-0.253,1.036-0.619c0.229-0.385,0.204-0.831-0.018-1.185c0.027,0.001,0.054,0.008,0.081,0.008
							c0.318,0,0.637-0.103,0.893-0.312c0.321-0.264,0.463-0.637,0.432-1.001c0.083,0.015,0.164,0.035,0.25,0.035
							c0.066,0,0.133-0.005,0.2-0.014c0.729-0.1,1.231-0.719,1.121-1.384c-0.034-0.204-0.098-0.323-0.24-0.584
							c-0.124-0.228-0.253-0.477-0.383-0.737c0.089-0.061,0.18-0.121,0.27-0.179c0.273,0.545,0.488,0.898,0.584,1.007
							c0.263,0.298,0.649,0.452,1.039,0.452c0.294,0,0.59-0.088,0.837-0.27c0.292-0.215,0.454-0.52,0.485-0.836
							c0.234,0.409,0.686,0.66,1.171,0.66c0.169,0,0.34-0.029,0.506-0.091c0.681-0.255,1.007-0.966,0.728-1.587
							c-0.009-0.02-0.191-0.436-0.441-1.145c0.136-0.02,0.271-0.036,0.405-0.053c0.254,0.724,0.448,1.168,0.484,1.249
							c0.211,0.471,0.709,0.757,1.235,0.757c0.167,0,0.337-0.029,0.502-0.09c0.577-0.214,0.896-0.755,0.814-1.294
							c0.081,0.276,0.167,0.552,0.259,0.827c0.175,0.524,0.704,0.862,1.275,0.862c0.13,0,0.261-0.017,0.39-0.053
							c0.341-0.095,0.607-0.305,0.77-0.567c0.229,0.369,0.658,0.62,1.156,0.62c0.332,0,0.632-0.115,0.866-0.298
							c0.137,0.108,0.298,0.194,0.483,0.246c0.13,0.036,0.261,0.053,0.39,0.053c0.571,0,1.1-0.337,1.275-0.862
							c0.092-0.274,0.178-0.549,0.259-0.825c-0.081,0.537,0.237,1.077,0.813,1.292c0.165,0.062,0.336,0.091,0.504,0.091
							c0.525,0,1.024-0.286,1.235-0.757c0.038-0.086,0.255-0.581,0.532-1.388c0.139-0.001,0.279,0,0.421,0.003
							c-0.283,0.829-0.496,1.315-0.505,1.336c-0.279,0.621,0.046,1.331,0.728,1.586c0.166,0.062,0.337,0.091,0.506,0.091
							c0.486,0,0.937-0.251,1.171-0.659c0.032,0.316,0.193,0.621,0.485,0.835c0.247,0.182,0.543,0.27,0.837,0.27
							c0.389,0,0.775-0.155,1.039-0.452c0.141-0.159,0.538-0.845,1.004-1.905c0.1,0.04,0.202,0.084,0.303,0.127
							c-0.284,0.626-0.569,1.197-0.834,1.686c-0.143,0.262-0.208,0.382-0.242,0.588c-0.107,0.664,0.396,1.283,1.125,1.381
							c0.066,0.009,0.132,0.013,0.197,0.013c0.086,0,0.167-0.021,0.25-0.035c-0.032,0.364,0.111,0.737,0.432,1.001
							c0.255,0.209,0.574,0.312,0.892,0.312c0.028,0,0.055-0.006,0.082-0.008c-0.222,0.354-0.248,0.8-0.019,1.185
							c0.218,0.366,0.614,0.578,1.036,0.619c-0.193,0.262-0.276,0.591-0.2,0.925c0.13,0.575,0.685,0.97,1.305,0.97
							c0.002,0,0.004-0.001,0.005-0.001c-0.24,0.296-0.334,0.685-0.211,1.065c0.085,0.262,0.258,0.478,0.481,0.63
							c-0.25,0.16-0.427,0.414-0.455,0.713c-0.045,0.483,0.307,0.911,0.808,1.024c-0.146,0.124-0.256,0.286-0.308,0.475
							c-0.143,0.522,0.206,1.05,0.778,1.18c0.092,0.021,0.192,0.039,0.293,0.057c-0.244,1.432-0.396,3.369-0.808,4.38l4.39-2.859
							c0,0,1.078-0.542,2.174-1.791c0.767-1.06,1.281-2.076,1.908-3.469c0.224-0.497-0.037-1.066-0.583-1.27
							c-0.106-0.04-0.216-0.058-0.325-0.065c0.364-0.525,0.684-1.117,0.933-1.801c0.186-0.51-0.117-1.061-0.677-1.23
							c-0.054-0.016-0.109-0.025-0.163-0.033c0.714-1.107,1.258-2.439,1.464-4.04C111.077,77.461,110.554,76.857,109.822,76.779z
							 M77.645,59.262c-0.014,0.004-0.027,0.008-0.041,0.011c0.044-0.096,0.088-0.191,0.134-0.286
							C77.705,59.079,77.677,59.17,77.645,59.262z M94.328,75.799c0.021-0.061,0.041-0.121,0.062-0.185
							c0.006,0.001,0.013,0.002,0.019,0.004C94.381,75.68,94.354,75.74,94.328,75.799z"/>
					</g>
					<g>
						<path style="fill:#29ABE2;" d="M75.82,140.054l9.274,0.848v7.808l-1.097,15.786c0,0-4.488,1.188-9.972,0
							C74.025,164.496,74.723,143.562,75.82,140.054z"/>
						<path style="fill:#29ABE2;" d="M94.368,140.054l-9.274,0.848v7.808l1.097,15.786c0,0,4.487,1.188,9.972,0
							C96.163,164.496,95.465,143.562,94.368,140.054z"/>
					</g>
					<g>
						<path style="fill:#BC57BC;" d="M77.617,123.141c0,0-3.124,2.454-2.859,5.865c0.241,3.102,3.469,3.398,3.469,3.398l6.649-0.026
							l-0.027-7.873l-4.826-1.971l-3.13-6.151l-1.432,0.483L77.617,123.141z"/>
						<path style="fill:#BC57BC;" d="M92.081,123.141c0,0,3.124,2.454,2.859,5.865c-0.241,3.102-3.469,3.398-3.469,3.398
							l-6.649-0.026l0.027-7.873l4.826-1.971l3.148-6.126l1.432,0.483L92.081,123.141z"/>
						
							<ellipse transform="matrix(1 -0.0039 0.0039 1 -0.5646 0.3368)" style="fill:#BC57BC;" cx="84.991" cy="143.12" rx="13.601" ry="13.588"/>
						<path style="fill:#93278F;" d="M75.835,133.843c0,0,8.692-8.987,18.319,0C94.155,133.843,85.664,127.102,75.835,133.843z"/>
					</g>
				</g>
			</g>
		</g>
	</g>
	<g>
		<g>
			<path style="fill:#FFFFFF;" d="M49.547,7.358l0.01,3.145l-4.492-0.078v1.641h3.818l-0.078,2.5l-3.74-0.078v1.563h4.111
				l-0.068,3.047l-6.738-0.098l0.254-11.729L49.547,7.358z"/>
			<path style="fill:#FFFFFF;" d="M52.135,9.019l0.137,1.094c0.853-0.866,1.611-1.299,2.275-1.299c0.853,0,1.546,0.72,2.08,2.158
				c0.541-1.035,1.264-1.553,2.168-1.553c0.379,0,0.785,0.088,1.221,0.264c1.082,0.437,1.621,2.132,1.621,5.088
				c0,1.106-0.074,2.393-0.225,3.857l-1.924,0.078c0-0.403,0-0.784,0-1.143c0-3.496-0.375-5.244-1.127-5.244
				c-0.746,0-1.119,1.152-1.119,3.457c0,0.866,0.057,1.895,0.166,3.086h-2.207c0.078-0.964,0.117-1.829,0.117-2.598
				c0-1.621-0.169-2.786-0.508-3.496c-0.183-0.378-0.4-0.566-0.654-0.566c-0.449,0-1.013,0.596-1.689,1.787v5.166l-2.178-0.068
				l-0.361-9.678L52.135,9.019z"/>
			<path style="fill:#FFFFFF;" d="M62.027,19.409V7.163c1.395-0.28,2.559-0.42,3.496-0.42c1.543,0,2.461,0.381,2.754,1.143
				c0.111,0.286,0.166,0.583,0.166,0.889c0,0.964-0.576,1.982-1.729,3.057c1.855,1.321,2.783,2.507,2.783,3.555
				C69.498,17.098,67.008,18.439,62.027,19.409z M64.293,9.37l0.068,1.68c1.088-0.749,1.631-1.263,1.631-1.543
				c0-0.169-0.197-0.254-0.596-0.254C65.123,9.253,64.756,9.292,64.293,9.37z M64.293,14.253v2.109
				c1.445-0.527,2.168-0.989,2.168-1.387C66.461,14.494,65.738,14.253,64.293,14.253z"/>
			<path style="fill:#FFFFFF;" d="M72.828,8.511c0.438-0.098,0.863-0.146,1.279-0.146c2.02,0,3.318,1.048,3.896,3.145
				c0.301,1.087,0.434,2.337,0.4,3.75l-0.078,3.35l-2.529,0.156l-0.02-0.459c-3.176-0.11-4.834-0.892-4.971-2.344
				c-0.02-0.208-0.029-0.361-0.029-0.459c0-1.185,0.477-1.927,1.426-2.227c0.477-0.149,0.947-0.225,1.416-0.225
				c0.625,0,1.264,0.127,1.914,0.381c-0.006-1.12-0.02-1.712-0.039-1.777c-0.129-0.449-0.563-0.703-1.299-0.762
				c-0.625-0.052-1.223,0.469-1.797,1.563l-2.5-0.391C70.576,9.982,71.553,8.797,72.828,8.511z M74.449,14.79
				c-0.684,0-1.041,0.179-1.074,0.537c-0.051,0.521,0.717,0.944,2.305,1.27l-0.068-1.689C75.156,14.829,74.77,14.79,74.449,14.79z"
				/>
			<path style="fill:#FFFFFF;" d="M79.088,18.931c0.02-3.961-0.08-7.125-0.303-9.492l2.734-0.225l-0.088,0.889
				c1.342-0.833,2.709-1.228,4.102-1.182l0.264,2.363c-1.602,0-2.727,0.332-3.379,0.995c-0.449,0.462-0.674,1.635-0.674,3.521
				c0,0.858,0.047,1.869,0.137,3.033L79.088,18.931z"/>
			<path style="fill:#FFFFFF;" d="M88.844,8.511c0.438-0.098,0.863-0.146,1.279-0.146c2.02,0,3.318,1.048,3.896,3.145
				c0.301,1.087,0.434,2.337,0.4,3.75l-0.078,3.35l-2.529,0.156l-0.02-0.459c-3.176-0.11-4.834-0.892-4.971-2.344
				c-0.02-0.208-0.029-0.361-0.029-0.459c0-1.185,0.477-1.927,1.426-2.227c0.477-0.149,0.947-0.225,1.416-0.225
				c0.625,0,1.264,0.127,1.914,0.381c-0.006-1.12-0.02-1.712-0.039-1.777c-0.129-0.449-0.563-0.703-1.299-0.762
				c-0.625-0.052-1.223,0.469-1.797,1.563l-2.5-0.391C86.592,9.982,87.568,8.797,88.844,8.511z M90.465,14.79
				c-0.684,0-1.041,0.179-1.074,0.537c-0.051,0.521,0.717,0.944,2.305,1.27l-0.068-1.689C91.172,14.829,90.785,14.79,90.465,14.79z"
				/>
			<path style="fill:#FFFFFF;" d="M101.91,8.687l0.156,3.291l-4.219,4.795l4.766-0.889l0.469,2.666l-7.891,0.703l-0.391-2.275
				l4.297-5.479l-4.141,0.137L94.41,8.892L101.91,8.687z"/>
			<path style="fill:#FFFFFF;" d="M106.012,8.511c0.438-0.098,0.863-0.146,1.279-0.146c2.02,0,3.318,1.048,3.896,3.145
				c0.301,1.087,0.434,2.337,0.4,3.75l-0.078,3.35l-2.529,0.156l-0.02-0.459c-3.176-0.11-4.834-0.892-4.971-2.344
				c-0.02-0.208-0.029-0.361-0.029-0.459c0-1.185,0.477-1.927,1.426-2.227c0.477-0.149,0.947-0.225,1.416-0.225
				c0.625,0,1.264,0.127,1.914,0.381c-0.006-1.12-0.02-1.712-0.039-1.777c-0.129-0.449-0.563-0.703-1.299-0.762
				c-0.625-0.052-1.223,0.469-1.797,1.563l-2.5-0.391C103.76,9.982,104.736,8.797,106.012,8.511z M107.633,14.79
				c-0.684,0-1.041,0.179-1.074,0.537c-0.051,0.521,0.717,0.944,2.305,1.27l-0.068-1.689C108.34,14.829,107.953,14.79,107.633,14.79
				z"/>
			<path style="fill:#FFFFFF;" d="M112.154,18.706l-0.42-12.188c4.037,1.094,6.219,2.526,6.543,4.297
				c0.117,0.638,0.176,1.25,0.176,1.836c0,0.944-0.168,1.738-0.508,2.383C117.398,16.076,115.469,17.3,112.154,18.706z
				 M114.313,10.425l0.088,3.75c1.043-0.313,1.6-0.886,1.67-1.719C116.143,11.623,115.557,10.945,114.313,10.425z"/>
			<path style="fill:#FFFFFF;" d="M121.676,8.511c0.438-0.098,0.863-0.146,1.279-0.146c2.02,0,3.318,1.048,3.896,3.145
				c0.301,1.087,0.434,2.337,0.4,3.75l-0.078,3.35l-2.529,0.156l-0.02-0.459c-3.176-0.11-4.834-0.892-4.971-2.344
				c-0.02-0.208-0.029-0.361-0.029-0.459c0-1.185,0.477-1.927,1.426-2.227c0.477-0.149,0.947-0.225,1.416-0.225
				c0.625,0,1.264,0.127,1.914,0.381c-0.006-1.12-0.02-1.712-0.039-1.777c-0.129-0.449-0.563-0.703-1.299-0.762
				c-0.625-0.052-1.223,0.469-1.797,1.563l-2.5-0.391C119.424,9.982,120.4,8.797,121.676,8.511z M123.297,14.79
				c-0.684,0-1.041,0.179-1.074,0.537c-0.051,0.521,0.717,0.944,2.305,1.27l-0.068-1.689
				C124.004,14.829,123.617,14.79,123.297,14.79z"/>
		</g>
	</g>
</g>
</svg>
