<?xml version="1.0" encoding="utf-8"?>
<!-- Generator: Adobe Illustrator 21.0.0, SVG Export Plug-In . SVG Version: 6.00 Build 0)  -->
<svg version="1.1" id="Capa_1" xmlns="http://www.w3.org/2000/svg" xmlns:xlink="http://www.w3.org/1999/xlink" x="0px" y="0px"
	 viewBox="0 0 169.983 162.934" style="enable-background:new 0 0 169.983 162.934;" xml:space="preserve">
<g>
	<g>
		<g>
			<g>
				<g>
					<path style="fill-rule:evenodd;clip-rule:evenodd;fill:#054700;" d="M26.738,0h116.376c4.294,0,2.98,14.511,2.98,21.766H23.758
						C23.758,14.511,23.024,0,26.738,0z"/>
					<path style="fill-rule:evenodd;clip-rule:evenodd;fill:#CCCCCC;" d="M26.166,13.463c0.028-5.542,0.337-11.222,1.865-12.94
						C27.662,0.185,27.233,0,26.738,0c-2.562,0-3.008,6.902-3.037,13.567C24.511,13.531,25.333,13.496,26.166,13.463z"/>
					<path style="fill-rule:evenodd;clip-rule:evenodd;fill:#CCCCCC;" d="M141.903,0.452c1.76,1.608,1.977,7.244,1.905,12.794
						c0.83,0.028,1.651,0.057,2.463,0.088C146.363,6.743,146.041,0,143.115,0C142.655,0,142.253,0.159,141.903,0.452z"/>
				</g>
				<g>
					<path style="opacity:0.2;fill-rule:evenodd;clip-rule:evenodd;" d="M20.911,161.493c-9.722-2.616-18.169-12.132-18.893-22.498
						c-2.634-37.733-2.687-59.564-0.175-99.701c0.755-12.051,9.874-21.89,21.604-23.69c34.064-5.227,89.025-5.227,123.088,0
						c11.731,1.8,20.85,11.639,21.605,23.69c2.512,40.136,2.458,61.968-0.175,99.701c-0.723,10.364-9.171,19.88-18.893,22.498
						C141.931,163.414,28.051,163.415,20.911,161.493z"/>
					<path style="fill-rule:evenodd;clip-rule:evenodd;fill:#FFFFFF;" d="M21.484,158.67c-9.68-2.616-18.094-12.131-18.814-22.496
						C0.046,98.44-0.006,76.609,2.497,36.472c0.751-12.052,9.831-21.89,21.514-23.69c33.92-5.228,88.043-5.228,121.963,0
						c11.681,1.8,20.763,11.639,21.514,23.69c2.502,40.136,2.447,61.968-0.175,99.702c-0.719,10.363-9.132,19.882-18.812,22.496
						C141.388,160.59,28.595,160.591,21.484,158.67z"/>
					<path style="fill-rule:evenodd;clip-rule:evenodd;fill:#999999;" d="M24.723,154.538c-9.404-2.541-17.575-11.782-18.276-21.853
						c-2.55-36.653-2.6-56.02-0.168-95.007c0.73-11.705,9.552-21.264,20.898-23.012c32.95-5.079,82.679-5.079,115.629,0
						c11.347,1.748,20.169,11.309,20.898,23.012c2.431,38.987,2.377,58.354-0.169,95.007c-0.699,10.067-8.874,19.313-18.275,21.853
						C138.354,156.403,31.63,156.404,24.723,154.538z"/>
					<path style="fill-rule:evenodd;clip-rule:evenodd;fill:#F2F2F2;" d="M4.509,81.456c0.094-12.871,0.684-26.368,1.771-43.778
						c0.73-11.705,9.552-21.264,20.898-23.012c32.95-5.078,82.679-5.078,115.629,0c11.347,1.748,20.169,11.309,20.898,23.012
						c1.085,17.409,1.675,30.906,1.769,43.778c-0.101,13.369-0.746,26.739-1.938,43.898c-0.698,10.066-8.873,19.312-18.276,21.853
						c-6.905,1.866-113.629,1.867-120.536,0c-9.404-2.541-17.575-11.783-18.275-21.853C5.255,108.195,4.608,94.824,4.509,81.456z"/>
					<path style="fill-rule:evenodd;clip-rule:evenodd;fill:#CCCCCC;" d="M4.512,80.972c0.106-12.726,0.694-26.102,1.767-43.294
						c0.73-11.705,9.552-21.264,20.898-23.012c32.95-5.078,82.679-5.078,115.629,0c11.347,1.748,20.169,11.309,20.898,23.012
						c1.071,17.177,1.659,30.545,1.765,43.26c-0.111,13.212-0.756,26.47-1.934,43.428c-0.698,10.067-8.873,19.312-18.276,21.853
						c-6.905,1.866-113.629,1.866-120.536,0c-9.404-2.541-17.575-11.782-18.275-21.853C5.269,107.422,4.624,94.173,4.512,80.972z"/>
					<path style="fill-rule:evenodd;clip-rule:evenodd;fill:#F2F2F2;" d="M28.714,17.242c35.789-4.857,81.629-4.783,114.092,0.221
						c11.347,1.748,20.169,11.307,20.898,23.013c0.269,4.321,0.509,9.194,0.717,14.49c-0.003-1.143-0.012-2.273-0.022-3.388
						c-0.203-5.068-0.435-9.74-0.695-13.899c-0.729-11.706-9.551-21.264-20.898-23.012c-32.95-5.079-82.679-5.079-115.629,0
						C15.831,16.414,7.01,25.97,6.279,37.678c-0.355,5.677-0.656,12.301-0.905,19.59c-0.017,1.331-0.03,2.678-0.042,4.04
						c0.256-7.779,0.572-14.833,0.947-20.831c0.372-5.964,2.845-11.368,6.679-15.467c-0.59,1.384-0.677,2.755-0.139,3.941
						c1.48,3.265,7.116,3.9,12.589,1.419s8.71-7.138,7.231-10.401C31.997,18.55,30.57,17.628,28.714,17.242z"/>
					<path style="fill-rule:evenodd;clip-rule:evenodd;fill:#B3B3B3;" d="M98.243,125.127c-36.913,0-70.089-7.59-92.959-19.657
						c0.302,5.858,0.69,12.078,1.164,18.896c0.701,10.071,8.872,19.312,18.275,21.853c6.907,1.866,113.631,1.866,120.536,0
						c9.403-2.541,17.577-11.786,18.276-21.853c0.195-2.802,0.375-5.503,0.541-8.12C144.96,121.876,122.402,125.127,98.243,125.127z
						"/>
				</g>
				<g>
					<path style="opacity:0.2;fill-rule:evenodd;clip-rule:evenodd;" d="M29.459,11.863c31.953-2.553,82.178-3.516,111.164,0.319
						c0.049,4.146,0.449,12.763,0.449,14.692c0,2.865-2.452,5.209-5.447,5.209H84.992H34.358c-2.996,0-5.447-2.343-5.447-5.209
						C28.911,24.976,29.403,15.937,29.459,11.863z"/>
					<path style="fill-rule:evenodd;clip-rule:evenodd;fill:#FFFFFF;" d="M84.992,29.246H35.284c-2.941,0-5.348-2.406-5.348-5.347
						C29.936,18.847,31.807,0,26.803,0h58.188h58.188c-5.004,0-3.133,18.847-3.133,23.899c0,2.941-2.406,5.347-5.348,5.347H84.992z"
						/>
					<path style="fill-rule:evenodd;clip-rule:evenodd;fill:#0DA401;" d="M84.992,25.726H38.239c-2.767,0-5.03-2.116-5.03-4.703
						C33.209,16.579,34.968,0,30.262,0h54.73h54.729c-4.706,0-2.946,16.579-2.946,21.023c0,2.587-2.264,4.703-5.03,4.703H84.992z"/>
					<path style="fill-rule:evenodd;clip-rule:evenodd;fill:#E6E6E6;" d="M35.284,28.318c-2.845,0-5.188-2.25-5.34-5.059
						c-0.005,0.233-0.008,0.446-0.008,0.64c0,2.941,2.406,5.347,5.348,5.347h49.708h49.707c2.942,0,5.348-2.406,5.348-5.347
						c0-0.194-0.003-0.408-0.008-0.64c-0.151,2.809-2.494,5.059-5.34,5.059H84.992H35.284z"/>
					<path style="fill-rule:evenodd;clip-rule:evenodd;fill:#0A8300;" d="M80.411,21.766c-15.818-0.873-30.678-2.515-44.466-5.014
						c-0.855-0.155-1.706-0.313-2.552-0.475c-0.007,0.176-0.015,0.35-0.023,0.521c-0.081,1.775-0.16,3.276-0.16,4.225
						c0,0.253,0.022,0.501,0.063,0.743c0.384,2.237,2.47,3.96,4.967,3.96h46.753h46.752c2.427,0,4.466-1.629,4.93-3.775
						C116.838,22.759,98.031,22.738,80.411,21.766z"/>
					<path style="fill-rule:evenodd;clip-rule:evenodd;fill:#41BA2F;" d="M32.906,3.396c35.041-1.761,69.847-1.961,104.498-1.127
						C137.902,0.872,138.641,0,139.72,0H30.262C31.608,0,32.425,1.355,32.906,3.396z"/>
				</g>
			</g>
			<g>
				<g>
					<path style="fill-rule:evenodd;clip-rule:evenodd;fill:#808080;" d="M84.992,132.443c26.806,0,48.668-21.862,48.668-48.668
						s-21.862-48.67-48.668-48.67s-48.67,21.864-48.67,48.67S58.187,132.443,84.992,132.443z"/>
					<path style="fill-rule:evenodd;clip-rule:evenodd;fill:#DCB000;" d="M84.992,132.315c-25.88,0-47.032-20.194-48.582-45.683
						c-0.053,0.987-0.088,1.982-0.088,2.986c0,26.884,21.786,48.668,48.67,48.668c26.883,0,48.668-21.784,48.668-48.668
						c0-1.004-0.035-1.998-0.086-2.986C132.025,112.121,110.872,132.315,84.992,132.315z"/>
				</g>
				<g>
					<path style="fill-rule:evenodd;clip-rule:evenodd;fill:#FEE147;" d="M84.992,136.516c26.806,0,48.668-21.862,48.668-48.668
						S111.798,39.18,84.992,39.18s-48.67,21.862-48.67,48.668S58.187,136.516,84.992,136.516z"/>
					<path style="fill-rule:evenodd;clip-rule:evenodd;fill:#F2F2F2;" d="M84.992,136.386c-25.88,0-47.032-20.192-48.582-45.682
						c-0.053,0.987-0.088,1.983-0.088,2.987c0,26.883,21.786,48.668,48.67,48.668c26.883,0,48.668-21.785,48.668-48.668
						c0-1.004-0.035-2-0.086-2.987C132.025,116.194,110.872,136.386,84.992,136.386z"/>
				</g>
			</g>
		</g>
	</g>
	<g>
		<defs>
			<path id="SVGID_1_" d="M84.992,136.516c26.806,0,48.668-21.862,48.668-48.668S111.798,39.18,84.992,39.18
				s-48.67,21.862-48.67,48.668S58.187,136.516,84.992,136.516z"/>
		</defs>
		<clipPath id="SVGID_2_">
			<use xlink:href="#SVGID_1_"  style="overflow:visible;"/>
		</clipPath>
		<g style="clip-path:url(#SVGID_2_);">
			<g>
				<g>
					<g>
						<g>
							<path style="fill:#C5D9FE;" d="M95.351,117.533c0,0,16.092,15.876-6.074,24.19l-0.376-7.371c0,0,12.275-3.648,6.145-11.666
								L95.351,117.533z"/>
						</g>
					</g>
					<g>
						<g>
							<path style="fill:#C5D9FE;" d="M72.656,117.533c0,0-16.092,15.876,6.075,24.19l0.376-7.371c0,0-12.129-3.348-5.998-11.367
								L72.656,117.533z"/>
						</g>
					</g>
					<g>
						<rect x="75.081" y="140.692" width="17.875" height="1.817"/>
						<path style="fill:#A7A9AC;" d="M84.971,142.801h-1.924c-0.767,0-1.391-0.538-1.391-1.199c0-0.663,0.624-1.202,1.391-1.202
							h1.924c0.767,0,1.39,0.539,1.39,1.202C86.362,142.264,85.738,142.801,84.971,142.801z M83.048,140.984
							c-0.445,0-0.807,0.277-0.807,0.618c0,0.34,0.362,0.616,0.807,0.616h1.924c0.445,0,0.807-0.276,0.807-0.616
							c0-0.341-0.362-0.618-0.807-0.618H83.048z"/>
					</g>
					<g>
						<path style="fill:#F4F4F4;" d="M84.019,146.07c6.129,8.38,2.813,26.856,2.813,26.856c3.992-2.849,9.457-1.764,9.457-1.764
							c-5.495-14.137-3.351-28.652-3.351-28.652H75.081c0,0,2.163,14.515-3.331,28.652c0,0,5.465-1.085,9.457,1.764
							c0,0-3.336-18.477,2.792-26.856"/>
					</g>
					<g>
						<path style="fill:#C5D9FE;" d="M72.642,117.489l8.434-1.954h3.057v30.244c0,0-4.597-0.391-6.374-1.231
							c-0.813-0.385-2.846-2.107-2.846-2.107l-1.368-14.295L72.642,117.489z"/>
						<path style="fill:#C5D9FE;" d="M95.351,117.533l-8.162-1.998h-3.056v30.244c0,0,4.542-0.094,6.318-0.935
							c0.814-0.384,2.902-2.403,2.902-2.403l1.368-14.295L95.351,117.533z"/>
						<polygon style="fill:#DB3B26;" points="84.133,113.28 79.689,113.28 80.78,115.505 84.133,115.535 87.486,115.505 
							88.576,113.28 						"/>
						<polygon style="fill:#9D5C4A;" points="82.564,116.897 84.133,117.853 84.133,118.977 81.912,117.717 						"/>
						<polygon style="fill:#9D5C4A;" points="84.133,117.853 85.703,116.897 86.355,117.717 84.133,118.977 						"/>
						<path style="fill:#8AB7FF;" d="M85.244,125.342c-0.362,0-0.655,0.274-0.655,0.613c0,0.338,0.293,0.612,0.655,0.612
							c0.361,0,0.655-0.274,0.655-0.612C85.899,125.616,85.605,125.342,85.244,125.342z M85.012,126.078
							c-0.073,0-0.132-0.055-0.132-0.123c0-0.069,0.059-0.123,0.132-0.123c0.072,0,0.131,0.055,0.131,0.123
							C85.143,126.023,85.084,126.078,85.012,126.078z M85.484,126.084c-0.073,0-0.132-0.055-0.132-0.123
							c0-0.068,0.059-0.123,0.132-0.123c0.072,0,0.131,0.055,0.131,0.123C85.615,126.029,85.556,126.084,85.484,126.084z"/>
						<path style="fill:#8AB7FF;" d="M85.244,131.038c-0.362,0-0.655,0.275-0.655,0.613c0,0.338,0.293,0.613,0.655,0.613
							c0.361,0,0.655-0.275,0.655-0.613C85.899,131.313,85.605,131.038,85.244,131.038z M85.012,131.775
							c-0.073,0-0.132-0.055-0.132-0.123c0-0.068,0.059-0.124,0.132-0.124c0.072,0,0.131,0.056,0.131,0.124
							C85.143,131.719,85.084,131.775,85.012,131.775z M85.484,131.781c-0.073,0-0.132-0.055-0.132-0.123
							c0-0.069,0.059-0.123,0.132-0.123c0.072,0,0.131,0.055,0.131,0.123C85.615,131.725,85.556,131.781,85.484,131.781z"/>
						<path style="fill:#8AB7FF;" d="M85.244,136.735c-0.362,0-0.655,0.275-0.655,0.613c0,0.339,0.293,0.612,0.655,0.612
							c0.361,0,0.655-0.274,0.655-0.612C85.899,137.01,85.605,136.735,85.244,136.735z M85.012,137.471
							c-0.073,0-0.132-0.055-0.132-0.123c0-0.068,0.059-0.123,0.132-0.123c0.072,0,0.131,0.055,0.131,0.123
							C85.143,137.416,85.084,137.471,85.012,137.471z M85.484,137.477c-0.073,0-0.132-0.055-0.132-0.123
							c0-0.068,0.059-0.123,0.132-0.123c0.072,0,0.131,0.055,0.131,0.123C85.615,137.422,85.556,137.477,85.484,137.477z"/>
						<path style="fill:#8AB7FF;" d="M85.244,142.432c-0.362,0-0.655,0.274-0.655,0.613c0,0.338,0.293,0.613,0.655,0.613
							c0.361,0,0.655-0.275,0.655-0.613C85.899,142.706,85.605,142.432,85.244,142.432z M85.012,143.168
							c-0.073,0-0.132-0.055-0.132-0.123c0-0.068,0.059-0.123,0.132-0.123c0.072,0,0.131,0.055,0.131,0.123
							C85.143,143.113,85.084,143.168,85.012,143.168z M85.484,143.174c-0.073,0-0.132-0.055-0.132-0.124
							c0-0.068,0.059-0.123,0.132-0.123c0.072,0,0.131,0.055,0.131,0.123C85.615,143.119,85.556,143.174,85.484,143.174z"/>
						<path style="fill:#EFC392;" d="M80.192,116.432c0,0,0.292,4.059,3.738,4.213c3.444-0.154,3.738-4.213,3.738-4.213H80.192z"/>
						<path style="fill:#C4884D;" d="M79.978,114.407c0,0,0.327,4.059,4.185,4.213c3.856-0.154,4.184-4.213,4.184-4.213H79.978z"/>
						<polygon style="fill:#8AB7FF;" points="79.689,113.28 78.401,116.526 79.689,121.683 82.564,118.066 						"/>
						<polygon style="fill:#8AB7FF;" points="88.576,113.28 89.865,116.526 88.576,121.683 85.703,118.066 						"/>
						<polygon style="fill:#8AB7FF;" points="87.055,119.308 86.725,118.837 83.837,120.539 80.949,118.837 80.619,119.308 
							83.56,121.041 83.56,145.738 84.133,145.779 84.133,121.029 						"/>
					</g>
					<path style="fill:#8AB7FF;" d="M73.78,131.796c0,0,0.097,0.516,0.243,1.291c0.14,0.775,0.307,1.812,0.471,2.849
						c0.153,1.038,0.304,2.077,0.401,2.86c0.092,0.783,0.153,1.304,0.153,1.304s-0.097-0.516-0.243-1.29
						c-0.141-0.775-0.307-1.812-0.471-2.849c-0.153-1.038-0.303-2.078-0.4-2.86C73.842,132.318,73.78,131.796,73.78,131.796z"/>
					<path style="fill:#8AB7FF;" d="M94.219,131.804c0,0-0.054,0.518-0.135,1.294c-0.087,0.775-0.223,1.807-0.361,2.837
						c-0.149,1.029-0.301,2.058-0.431,2.827c-0.135,0.769-0.225,1.281-0.225,1.281s0.054-0.518,0.135-1.294
						c0.086-0.775,0.223-1.807,0.361-2.838c0.149-1.029,0.301-2.058,0.431-2.827C94.129,132.316,94.219,131.804,94.219,131.804z"/>
					<g>
						<path style="fill:#BFBDB8;" d="M69.858,49.711c0.621-1.49,1.489-3.103,3.227-3.476c1.154-0.274,2.286-0.428,3.381-0.62
							c-4.525-0.745-9.361,1.128-10.212,12.671c-0.697,9.441-1,14.97-1,14.97c0,0.426,0.05,0.838,0.142,1.233
							c0.351-1.741,0.767-3.405,0.987-5.169C67.501,62.618,67.624,56.04,69.858,49.711z"/>
						<path style="fill:#F2EEE3;" d="M101.01,70.684c-0.62-7.073-0.868-14.272-4.468-20.726c-1.262-2.223-3.223-3.312-5.445-3.857
							c-0.257,0.016-0.52,0.036-0.79,0.06c-1.928,0.175-4.232,0.699-6.766,0.699c-2.645,0-4.59-0.808-6.922-1.22
							c-0.051-0.009-0.101-0.018-0.151-0.026c-1.096,0.193-2.227,0.346-3.381,0.62c-1.738,0.373-2.606,1.986-3.227,3.476
							c-2.234,6.33-2.357,12.907-3.475,19.608c-0.22,1.764-0.635,3.428-0.987,5.169c1.443,6.166,13.565,8.525,18.377,8.525
							c4.01,0,13.865-1.561,17.453-6.085C101.263,74.839,101.235,72.754,101.01,70.684z"/>
						<path style="fill:#BFBDB8;" d="M100.693,58.285c-1.698-10.822-4.005-12.537-9.597-12.184c2.223,0.545,4.183,1.634,5.445,3.857
							c3.599,6.454,3.847,13.653,4.468,20.726c0.225,2.07,0.254,4.155,0.217,6.244c0.838-1.056,1.335-2.274,1.335-3.672
							C102.562,73.255,102.056,66.974,100.693,58.285z"/>
						<path d="M83.86,68.453c9.907,0,17.589,2.812,17.589,6.279V64.9c0-3.469-7.681-6.281-17.589-6.281
							c-9.909,0-18.076,2.812-18.076,6.281l-0.648,9.832C65.137,71.265,73.951,68.453,83.86,68.453z"/>
						<g>
							<ellipse style="fill:#F2EEE3;" cx="84.991" cy="77.63" rx="32.186" ry="16.348"/>
							<ellipse style="fill:#C5AD7F;" cx="84.991" cy="78.688" rx="32.186" ry="16.348"/>
						</g>
					</g>
					<g>
						<g>
							
								<path style="fill:#EFC392;stroke:#994900;stroke-width:0.45;stroke-linecap:round;stroke-linejoin:round;stroke-miterlimit:10;" d="
								M68.356,95.496c0,0-1.206-3.693-3.408-3.693c-2.201,0-1.137,7.171,4.616,10.864L68.356,95.496z"/>
							
								<path style="fill:#EFC392;stroke:#994900;stroke-width:0.45;stroke-linecap:round;stroke-linejoin:round;stroke-miterlimit:10;" d="
								M99.776,95.496c0,0,1.205-3.693,3.408-3.693c2.202,0,1.135,7.171-4.617,10.864L99.776,95.496z"/>
							
								<path style="fill:#EFC392;stroke:#994900;stroke-width:0.45;stroke-linecap:round;stroke-linejoin:round;stroke-miterlimit:10;" d="
								M84.094,69.593c0,0,10.863,0,12.102,0s4.309,1.956,4.627,11.808c0.628,19.311-0.199,24.354-7.118,31.652
								c-3.189,3.363-6.555,4.817-9.611,4.817c-2.971,0-6.424-1.454-9.612-4.817c-6.919-7.298-7.746-12.341-7.119-31.652
								c0.32-9.851,3.388-11.808,4.628-11.808C73.229,69.593,84.094,69.593,84.094,69.593z"/>
							<g>
								<path d="M95.713,86.344c-0.11-0.058-0.304-0.114-0.54-0.204c-0.238-0.087-0.524-0.199-0.86-0.272
									c-0.652-0.2-1.474-0.302-2.276-0.362c-1.619-0.078-3.156,0.257-3.423,0.315c-0.566,0.085-1.367,0.387-1.802-0.466
									c-0.242-0.44,0.197-0.881,0.869-1.169c0.67-0.299,1.569-0.437,2.22-0.475c0.647-0.059,2.062-0.019,3.379,0.32
									c0.327,0.094,0.654,0.173,0.956,0.277c0.3,0.115,0.585,0.224,0.847,0.324c0.504,0.235,0.902,0.444,1.118,0.559
									c0.408,0.28,0.877,0.537,1.178,0.873c0.313,0.321,0.514,0.623,0.476,0.861C97.758,87.409,96.636,86.729,95.713,86.344z"/>
							</g>
							<g>
								<path d="M72.279,86.344c0.11-0.058,0.304-0.114,0.54-0.204c0.239-0.087,0.525-0.199,0.86-0.272
									c0.653-0.2,1.474-0.302,2.276-0.362c1.62-0.078,3.156,0.257,3.425,0.315c0.565,0.085,1.367,0.387,1.802-0.466
									c0.242-0.44-0.197-0.881-0.869-1.169c-0.671-0.299-1.569-0.437-2.22-0.475c-0.648-0.059-2.063-0.019-3.38,0.32
									c-0.327,0.094-0.654,0.173-0.956,0.277c-0.301,0.115-0.585,0.224-0.847,0.324c-0.505,0.235-0.903,0.444-1.118,0.559
									c-0.407,0.28-0.876,0.537-1.178,0.873c-0.313,0.321-0.514,0.623-0.476,0.861C70.234,87.409,71.356,86.729,72.279,86.344z"/>
							</g>
							<g id="XMLID_45_">
								<g id="XMLID_77_">
									<path id="XMLID_52_" style="fill:#FFFFFF;" d="M75.101,88.359c-5.082,1.344-4.86,8.599,0.661,8.585
										C81.282,96.93,81.014,86.795,75.101,88.359z"/>
									
										<ellipse id="XMLID_79_" transform="matrix(0.0209 -0.9998 0.9998 0.0209 -18.3825 166.2934)" cx="75.713" cy="92.532" rx="2.714" ry="2.148"/>
									
										<ellipse id="XMLID_78_" transform="matrix(0.0209 -0.9998 0.9998 0.0209 -18.0447 163.8796)" style="fill:#FFFFFF;" cx="74.649" cy="91.153" rx="1.282" ry="1.282"/>
									
										<ellipse id="XMLID_51_" transform="matrix(0.0209 -0.9998 0.9998 0.0209 -18.8137 168.1456)" style="fill:#FFFFFF;" cx="76.443" cy="93.678" rx="0.49" ry="0.49"/>
								</g>
								<g id="XMLID_46_">
									<path id="XMLID_50_" style="fill:#FFFFFF;" d="M92.976,88.4c5.021,1.556,4.496,8.795-1.019,8.55
										C86.442,96.704,87.134,86.59,92.976,88.4z"/>
									
										<ellipse id="XMLID_49_" transform="matrix(0.0209 -0.9998 0.9998 0.0209 -2.0455 183.0084)" cx="92.416" cy="92.549" rx="2.714" ry="2.148"/>
									
										<ellipse id="XMLID_48_" transform="matrix(0.0209 -0.9998 0.9998 0.0209 -1.7075 180.5946)" style="fill:#FFFFFF;" cx="91.351" cy="91.169" rx="1.282" ry="1.282"/>
									
										<ellipse id="XMLID_47_" transform="matrix(0.0209 -0.9998 0.9998 0.0209 -2.4767 184.8606)" style="fill:#FFFFFF;" cx="93.146" cy="93.695" rx="0.49" ry="0.49"/>
								</g>
							</g>
							<path id="XMLID_44_" style="fill:#C4884D;" d="M81.747,101.999c0.27-0.358,1.074,0.618,2.304,0.697
								c1.229,0.08,1.771-1.225,2.308-0.916c0.537,0.309-0.543,1.997-2.388,2.146C82.127,104.075,81.516,102.306,81.747,101.999z"/>
							<path id="XMLID_76_" style="fill:#C4884D;" d="M78.814,107.102c0.182-0.482,1.381,1.041,5.416,1.051
								c4.035,0.01,5.425-2.638,6-2.291s-2.198,3.222-6.003,3.213C80.423,109.066,78.466,108.024,78.814,107.102z"/>
							<path id="XMLID_42_" style="fill:#C4884D;" d="M87.197,109.679c-0.702,0.155-1.298,0.416-2.035,0.457
								c-0.748,0.04-1.507-0.166-2.243-0.09c-0.203,0.022-0.234,0.27-0.048,0.347c1.17,0.481,3.55,0.565,4.452-0.496
								C87.407,109.798,87.329,109.65,87.197,109.679z"/>
						</g>
						<path d="M83.997,62.525c-11.949,0-21.625,4.185-21.625,17.91c0,4.089,0.865,6.773,2.388,10.175
							c1.369,2.694,2.514,4.308,2.514,4.308s-0.318-18.632,1.247-20.09c0.748-0.695,7.873,1.191,15.476,1.191
							c8.517,0,15.099-1.665,15.726-0.809c1.199,1.638,1.435,11.04,0.944,19.708c0.17-0.166,0.334-0.34,0.494-0.516
							c2.808-4.192,4.482-8.269,4.482-13.968C105.642,66.71,95.946,62.525,83.997,62.525z"/>
						<g>
							<path d="M67.273,94.919c-0.899-5.364-2.369-14.302-2.014-18.992c0.221-2.916,1.017-8.366,5.046-6.25
								c-0.086-1.56,0.5-4.365,2.004-5.073c-0.501,0.783-0.502,2.341,0,3.513c1.672-2.536,4.05-4.291,6.556-4.878
								c4.678-1.169,17.504-0.891,21.015,7.99c2.009,5.082,1.764,17.558,0.786,23.69c0,0-0.134-17.839-8.552-16.949
								c0,0,0.92,3.233,2.146,5.21c0,0-4.173-1.102-7.873-4.01c0.196,1.078,1.753,3.021,5.814,4.999
								c-5.842-0.094-16.096-1.622-19.939-5.33C68.032,79.12,67.273,94.919,67.273,94.919z"/>
						</g>
					</g>
					<path style="fill:#C5AD7F;" d="M61.83,74.59c0,0,24.438-13.21,45.033,1.057c0,0-0.168-11.412-19.908-13.024
						C69.78,61.221,62.28,68.163,61.83,74.59z"/>
					<g>
						<path style="fill:#FBF4D3;" d="M73.361,117.905c0,0,0.408,0.048,0.734,6.842c0.327,6.794-0.685,16.074,0.666,14.088
							c1.352-1.986,0.124,0.182,1.469,0c1.344-0.182,0.872-2.919,1.492-1.444c0.621,1.475,0.999,1.71,1.309,0
							c0.311-1.71-0.008,2.05,0.651,1.444c0.659-0.606,1.245-4.688,0.491-8.273c-0.754-3.586-1.912-7.848-1.898-10.771
							c0,0,0.286-4.081-0.733-4.021C76.524,115.83,71.839,116.547,73.361,117.905z"/>
						<g>
							<path style="fill:#C6B28F;" d="M74.825,121.244c-0.127,0.012-0.054,3.588,0.162,7.988c0.217,4.4,0.495,7.957,0.623,7.945
								c0.127-0.012,0.054-3.588-0.162-7.988C75.23,124.789,74.952,121.232,74.825,121.244z"/>
							<path style="fill:#C6B28F;" d="M78.867,130.789c-0.291-2.959-0.609-5.342-0.711-5.323c-0.101,0.019,0.053,2.433,0.344,5.392
								c0.291,2.959,0.609,5.342,0.711,5.323C79.312,136.162,79.158,133.748,78.867,130.789z"/>
							<path style="fill:#C6B28F;" d="M76.529,125.168c-0.102,0.01-0.066,2.432,0.081,5.412c0.147,2.979,0.348,5.387,0.45,5.377
								c0.102-0.01,0.066-2.432-0.081-5.412C76.832,127.565,76.631,125.158,76.529,125.168z"/>
						</g>
					</g>
					<polygon points="92.752,116.897 75.217,143.657 77.118,144.706 94.679,117.368 					"/>
					<g>
						<path d="M71.288,138.264l12.965,7.063c0,0-4.143,9.438-11.396,5.487C65.604,146.864,71.288,138.264,71.288,138.264z"/>
						<path style="fill:#A67C52;" d="M73.162,150.256c-1.82-0.991-2.92-2.379-3.27-4.125c-0.565-2.816,0.923-5.867,1.583-7.04
							l11.982,6.527c-0.63,1.191-2.395,4.103-5.061,5.149C76.74,151.418,74.979,151.246,73.162,150.256z"/>
						<path d="M71.288,138.264l-1.994,3.659c-0.308,0.565-0.097,1.279,0.467,1.586l4.425,2.41l-2.081,3.819l0.192,2.102l1.894-0.966
							l2.081-3.819l4.425,2.41c0.565,0.308,1.279,0.097,1.586-0.467l1.994-3.659L71.288,138.264z"/>
						<path style="fill:#A67C52;" d="M72.704,149.864l2.275-4.177l-4.938-2.69c-0.283-0.154-0.388-0.51-0.234-0.793l1.714-3.146
							l11.962,6.517l-1.714,3.146c-0.154,0.283-0.51,0.388-0.793,0.234l-4.938-2.69l-2.274,4.174l-0.964,0.491L72.704,149.864z"/>
						
							<rect x="70.455" y="142.256" transform="matrix(0.8781 0.4784 -0.4784 0.8781 77.7072 -19.569)" style="fill:#FCEE21;" width="13.622" height="0.988"/>
						
							<rect x="70.101" y="143.153" transform="matrix(0.8781 0.4784 -0.4784 0.8781 77.9752 -19.3201)" style="fill:#0071BC;" width="13.622" height="0.494"/>
						
							<rect x="69.864" y="143.587" transform="matrix(0.8781 0.4784 -0.4784 0.8781 78.1539 -19.1542)" style="fill:#C1272D;" width="13.622" height="0.494"/>
						
							<rect x="72.701" y="147.33" transform="matrix(0.8781 0.4784 -0.4784 0.8781 79.8383 -17.5815)" width="3.46" height="1.194"/>
					</g>
				</g>
			</g>
		</g>
	</g>
	<g>
		<g>
			<path style="fill:#FFFFFF;" d="M69.088,7.534c2.142,0,3.555,0.791,4.238,2.373c0.183,0.423,0.273,0.82,0.273,1.191
				c0,1.523-1.484,2.708-4.453,3.555l-0.156,4.6l-2.5-0.078l0.234-11.377C67.591,7.622,68.378,7.534,69.088,7.534z M71.061,10.815
				c-0.026-0.378-0.586-0.69-1.68-0.938l-0.078,2.188C70.501,11.609,71.087,11.193,71.061,10.815z"/>
			<path style="fill:#FFFFFF;" d="M76.823,8.511c0.437-0.098,0.862-0.146,1.279-0.146c2.019,0,3.317,1.048,3.896,3.145
				c0.3,1.087,0.433,2.337,0.4,3.75l-0.078,3.35l-2.529,0.156l-0.02-0.459c-3.177-0.11-4.834-0.892-4.971-2.344
				c-0.02-0.208-0.029-0.361-0.029-0.459c0-1.185,0.476-1.927,1.426-2.227c0.476-0.149,0.947-0.225,1.416-0.225
				c0.625,0,1.263,0.127,1.914,0.381c-0.007-1.12-0.02-1.712-0.039-1.777c-0.13-0.449-0.563-0.703-1.299-0.762
				c-0.625-0.052-1.224,0.469-1.797,1.563l-2.5-0.391C74.57,9.982,75.546,8.797,76.823,8.511z M78.444,14.79
				c-0.684,0-1.042,0.179-1.074,0.537c-0.052,0.521,0.716,0.944,2.305,1.27l-0.068-1.689C79.15,14.829,78.763,14.79,78.444,14.79z"
				/>
			<path style="fill:#FFFFFF;" d="M84.489,7.593c0.144,0,0.273,0.02,0.391,0.059c0.547,0.183,0.905,0.521,1.074,1.016
				c0.052,0.149,0.078,0.3,0.078,0.449c0,0.332-0.133,0.661-0.4,0.986c-0.384,0.469-0.827,0.681-1.328,0.635
				s-0.908-0.315-1.221-0.811c-0.144-0.228-0.215-0.459-0.215-0.693c0-0.3,0.104-0.615,0.313-0.947
				C83.623,7.824,84.059,7.593,84.489,7.593z M85.973,11.753c-0.104,2.415-0.234,4.812-0.391,7.188l-2.5,0.234
				c0.091-1.016,0.137-2.048,0.137-3.096c0-1.302-0.071-2.624-0.215-3.965L85.973,11.753z"/>
			<path style="fill:#FFFFFF;" d="M86.051,18.062l1.152-2.617c1.473,0.957,2.611,1.436,3.418,1.436c0.287,0,0.564-0.085,0.83-0.254
				c0.301-0.188,0.449-0.42,0.449-0.693c0-0.41-0.547-0.755-1.641-1.035c-1.582-0.403-2.646-1.233-3.193-2.49
				c-0.182-0.417-0.273-0.801-0.273-1.152c0-0.749,0.385-1.403,1.152-1.963c0.658-0.481,1.639-0.723,2.939-0.723
				c0.918,0,2,0.12,3.242,0.361l-0.83,2.5c-0.943-0.423-1.709-0.635-2.295-0.635c-0.285,0-0.557,0.062-0.811,0.186
				c-0.313,0.15-0.469,0.353-0.469,0.606c0,0.234,0.209,0.485,0.625,0.753c0.287,0.183,0.848,0.437,1.68,0.763
				c0.703,0.273,1.211,0.547,1.523,0.821c0.457,0.397,0.697,0.932,0.723,1.604c0.047,1.102-0.469,2.102-1.543,3.001
				c-0.455,0.385-1.123,0.577-2.002,0.577C89.551,19.106,87.992,18.758,86.051,18.062z"/>
			<path style="fill:#FFFFFF;" d="M97.477,8.511c0.438-0.098,0.863-0.146,1.279-0.146c2.02,0,3.318,1.048,3.896,3.145
				c0.301,1.087,0.434,2.337,0.4,3.75l-0.078,3.35l-2.529,0.156l-0.02-0.459c-3.176-0.11-4.834-0.892-4.971-2.344
				c-0.02-0.208-0.029-0.361-0.029-0.459c0-1.185,0.477-1.927,1.426-2.227c0.477-0.149,0.947-0.225,1.416-0.225
				c0.625,0,1.264,0.127,1.914,0.381c-0.006-1.12-0.02-1.712-0.039-1.777c-0.129-0.449-0.563-0.703-1.299-0.762
				c-0.625-0.052-1.223,0.469-1.797,1.563l-2.5-0.391C95.225,9.982,96.201,8.797,97.477,8.511z M99.098,14.79
				c-0.684,0-1.041,0.179-1.074,0.537c-0.051,0.521,0.717,0.944,2.305,1.27l-0.068-1.689C99.805,14.829,99.418,14.79,99.098,14.79z"
				/>
		</g>
	</g>
</g>
</svg>
