<?xml version="1.0" encoding="utf-8"?>
<!-- Generator: Adobe Illustrator 21.0.0, SVG Export Plug-In . SVG Version: 6.00 Build 0)  -->
<svg version="1.1" id="Capa_1" xmlns="http://www.w3.org/2000/svg" xmlns:xlink="http://www.w3.org/1999/xlink" x="0px" y="0px"
	 viewBox="0 0 49.803 78.369" style="enable-background:new 0 0 49.803 78.369;" xml:space="preserve">
<g>
	<path style="opacity:0.2;" d="M44.685,15.836c1.962,4.521,3.123,10.06,3.091,14.654l0.123,0.279
		c1.944,4.479,2.324,7.907,1.163,10.482c-0.761,1.685-2.139,2.893-3.986,3.492c-1.444,0.469-2.827,0.596-4.118,0.392
		c-0.838,2.453-2.771,4.246-5.726,5.232c-1.205,0.4-3.562,0.855-5.966-0.512c-1.106,1.403-2.643,2.389-4.556,2.89
		c-1.289,0.337-2.515,0.412-3.646,0.238l0.355,13.316c0.087,3.837-1.563,11.266-8.424,12.017c-3.744,0.409-6.853-1.573-8.529-5.435
		c-1.293-2.979-1.594-6.717-1.444-9.222c0.116-1.944,0.692-10.78,1.67-25.595c-0.613-0.548-1.171-1.141-1.671-1.774
		c-0.797-0.913-1.435-1.917-1.898-2.985c-0.508-1.171-0.684-2.137-0.746-2.671c-1.017-4.654,0.03-10.316,3.115-16.831
		C7.588,5.146,15.128,1.884,24.277,4.751c2.791-0.643,10.184-1.616,15.967,4.178C41.935,10.621,43.43,12.946,44.685,15.836
		L44.685,15.836z"/>
	<path style="fill:#FFFFFF;" d="M44.771,12.1c1.962,4.521,3.123,10.06,3.091,14.654l0.123,0.279
		c1.944,4.479,2.324,7.907,1.163,10.482c-0.761,1.685-2.139,2.893-3.986,3.492c-1.444,0.469-2.827,0.596-4.118,0.392
		c-0.838,2.453-2.771,4.246-5.726,5.232c-1.205,0.4-3.562,0.855-5.966-0.512c-1.106,1.403-2.643,2.389-4.556,2.89
		c-1.289,0.337-2.515,0.412-3.646,0.238l0.355,13.316C21.591,66.4,19.941,73.83,13.08,74.58c-3.744,0.409-6.853-1.573-8.529-5.435
		c-1.293-2.979-1.594-6.717-1.444-9.222c0.116-1.944,0.692-10.78,1.67-25.595c-0.613-0.548-1.171-1.141-1.671-1.774
		c-0.797-0.913-1.435-1.917-1.898-2.985c-0.508-1.171-0.684-2.137-0.746-2.671c-1.017-4.654,0.03-10.316,3.115-16.831
		C7.674,1.411,15.214-1.852,24.363,1.015C27.154,0.372,34.547-0.6,40.329,5.193C42.022,6.885,43.516,9.21,44.771,12.1L44.771,12.1z"
		/>
	<g>
		<path style="fill:#E6E6E6;" d="M13.08,72.58c-3.744,0.409-6.853-1.573-8.529-5.435c-0.945-2.177-1.356-4.755-1.453-6.964
			c-0.116,2.499,0.201,6.082,1.453,8.965c1.676,3.862,4.785,5.844,8.529,5.435c6.861-0.75,8.511-8.18,8.424-12.017l-0.025-0.922
			C21.26,65.645,19.347,71.895,13.08,72.58z"/>
		<path style="fill:#E6E6E6;" d="M4.653,34.208c0.041-0.62,0.081-1.237,0.124-1.879c-0.613-0.548-1.171-1.141-1.671-1.774
			c-0.797-0.913-1.435-1.917-1.899-2.985c-0.508-1.171-0.684-2.137-0.746-2.671c-0.185-0.846-0.278-1.737-0.326-2.649
			c-0.083,1.641,0.009,3.2,0.326,4.649c0.061,0.535,0.237,1.5,0.746,2.671c0.464,1.068,1.102,2.071,1.899,2.985
			C3.571,33.143,4.091,33.693,4.653,34.208z"/>
		<path style="fill:#E6E6E6;" d="M49.148,35.515c-0.761,1.685-2.139,2.893-3.986,3.492c-1.444,0.469-2.827,0.596-4.118,0.392
			c-0.838,2.453-2.771,4.246-5.726,5.232c-1.205,0.4-3.562,0.855-5.966-0.512c-1.107,1.403-2.643,2.389-4.556,2.891
			c-1.289,0.337-2.515,0.412-3.646,0.238l0.053,2.005c1.117,0.164,2.324,0.089,3.592-0.243c1.913-0.501,3.45-1.487,4.556-2.891
			c2.403,1.367,4.76,0.912,5.966,0.512c2.956-0.986,4.888-2.78,5.726-5.232c1.291,0.204,2.674,0.077,4.118-0.392
			c1.847-0.599,3.225-1.807,3.986-3.492c0.556-1.232,0.748-2.667,0.595-4.312C49.656,34.038,49.465,34.812,49.148,35.515z"/>
	</g>
	<g>
		<path style="fill:#EFC392;stroke:#994900;stroke-linecap:round;stroke-linejoin:round;stroke-miterlimit:10;" d="M44.728,25.234
			c0.239-6.499-2.386-15.748-6.59-19.954c-5.807-5.817-13.822-3.106-13.822-3.106C18.03-0.064,10.778,0.243,6.506,9.269
			c-3.014,6.365-3.709,11.278-2.841,14.974l-0.001,0c0,0,0.087,2.032,1.946,4.126c0.703,0.907,1.546,1.687,2.504,2.347
			C7.669,37.459,6.51,55.027,6.336,57.957c-0.218,3.637,0.678,11.939,6.456,11.309c5.778-0.632,5.594-8.775,5.594-8.775
			l-0.553-20.766c0.742,2.688,2.445,5.043,6.215,4.055c3.1-0.812,4.05-3.356,4.197-5.803c1.513,2.961,3.47,4.365,6.123,3.485
			c2.615-0.873,4.941-2.768,3.685-7.916c1.246,1.847,3.102,3.284,6.186,2.283C49.16,34.233,45.209,26.391,44.728,25.234z"/>
		<path style="fill:#994900;stroke:#994900;stroke-linecap:round;stroke-linejoin:round;stroke-miterlimit:10;" d="M8.127,30.725
			c0,0,0.511,0.331,1.516,0.613c1.001,0.292,2.491,0.444,4.246,0.832c1.758,0.347,3.793,0.867,5.989,1.239
			c1.078,0.147,2.29,0.352,3.293-0.13c1.006-0.475,1.458-1.685,1.725-2.781c0.284-1.123-0.044-2.297-0.638-3.269
			c-0.608-0.973-1.433-1.789-2.323-2.441c-1.788-1.313-3.791-2.038-5.538-2.329c-1.754-0.296-3.261-0.195-4.274,0.04
			c-1.025,0.206-1.612,0.322-1.612,0.322s0.58-0.141,1.597-0.386c1.008-0.27,2.534-0.474,4.324-0.193
			c1.782,0.272,3.831,0.977,5.683,2.3c0.923,0.654,1.789,1.482,2.445,2.498c0.642,1.006,1.027,2.309,0.734,3.536
			c-0.29,1.156-0.778,2.464-1.969,3.03c-1.178,0.528-2.404,0.267-3.499,0.113c-2.22-0.41-4.231-0.955-5.987-1.328
			c-1.743-0.388-3.22-0.655-4.219-0.982C8.618,31.076,8.127,30.725,8.127,30.725z"/>
		<path style="fill:#994900;stroke:#994900;stroke-linecap:round;stroke-linejoin:round;stroke-miterlimit:10;" d="M17.322,33.503
			c0,0,0.063,0.422,0.106,1.058c-0.002,0.637,0.046,1.479,0.141,2.303c0.071,0.828,0.102,1.676,0.264,2.282
			c0.107,0.618,0.147,1.049,0.147,1.049s-0.164-0.39-0.364-1c-0.214-0.609-0.317-1.455-0.456-2.301
			c-0.027-0.862-0.006-1.708,0.047-2.338C17.256,33.927,17.322,33.503,17.322,33.503z"/>
		<path style="fill:#994900;stroke:#994900;stroke-linecap:round;stroke-linejoin:round;stroke-miterlimit:10;" d="M28.219,38.335
			c0,0-0.009-0.284-0.022-0.781c0.005-0.497-0.039-1.207-0.166-2.037c-0.084-0.836-0.308-1.802-0.607-2.812
			c-0.298-1.029-0.601-2.112-0.982-3.173c-0.678-2.128-1.674-4.245-3.019-5.258c-0.64-0.543-1.341-0.701-1.826-0.762
			c-0.494,0.025-0.775,0.038-0.775,0.038s0.283-0.039,0.778-0.107c0.246,0.016,0.556,0.042,0.899,0.12
			c0.33,0.121,0.718,0.251,1.055,0.532c1.448,1.03,2.523,3.168,3.274,5.304c0.355,1.085,0.627,2.198,0.89,3.219
			c0.273,1.036,0.471,2.02,0.53,2.877c0.114,0.86,0.052,1.565,0.016,2.06C28.237,38.052,28.219,38.335,28.219,38.335z"/>
		<path style="fill:#994900;stroke:#994900;stroke-linecap:round;stroke-linejoin:round;stroke-miterlimit:10;" d="M38.04,33.485
			c0,0-0.394-1.336-1.141-3.274c-0.746-1.913-1.811-4.569-3.726-6.521c-0.454-0.505-1.014-0.888-1.597-1.18
			c-0.586-0.246-1.266-0.308-1.899-0.292c-0.614,0.045-1.18,0.262-1.678,0.558c-0.223,0.184-0.44,0.361-0.651,0.535
			c-0.167,0.217-0.329,0.426-0.483,0.626c-1.129,1.736-0.996,3.266-1.066,3.228c0,0,0.026-0.348,0.068-0.956
			c0.086-0.598,0.247-1.484,0.813-2.392c0.157-0.216,0.323-0.44,0.493-0.671c0.218-0.189,0.445-0.385,0.679-0.587
			c0.523-0.331,1.128-0.586,1.83-0.651c0.648-0.029,1.348,0.01,2.034,0.273c0.645,0.298,1.259,0.699,1.747,1.22
			c1.952,2.102,2.933,4.789,3.644,6.736C37.773,32.117,38.04,33.485,38.04,33.485z"/>
		<path style="fill:#994900;stroke:#994900;stroke-linecap:round;stroke-linejoin:round;stroke-miterlimit:10;" d="M44.69,25.143
			c0,0-0.488-0.867-1.524-1.868c-1.009-1.013-2.599-2.221-4.429-2.74c-0.442-0.154-0.915-0.243-1.364-0.248
			c-0.456-0.026-0.898,0.077-1.274,0.263c-0.384,0.198-0.64,0.522-0.859,0.859c-0.151,0.361-0.305,0.723-0.361,1.071
			c-0.046,0.357-0.09,0.683-0.128,0.973c0.005,0.293,0.009,0.552,0.011,0.763c0.007,0.425,0.012,0.669,0.012,0.669
			s-0.028-0.242-0.08-0.665c-0.075-0.423-0.132-1.034-0.033-1.776c0.045-0.366,0.194-0.76,0.346-1.159
			c0.227-0.382,0.504-0.757,0.941-1.005c0.422-0.23,0.924-0.362,1.424-0.352c0.497-0.011,1.01,0.068,1.484,0.216
			c1.914,0.622,3.472,1.911,4.471,2.979c0.512,0.526,0.838,1.07,1.048,1.43C44.575,24.928,44.69,25.143,44.69,25.143z"/>
		<path style="fill:#994900;stroke:#994900;stroke-linecap:round;stroke-linejoin:round;stroke-miterlimit:10;" d="M19.727,22.089
			c0,0,0.555-0.454,1.23-1.268c0.191-0.181,0.338-0.432,0.521-0.669c0.166-0.25,0.392-0.482,0.533-0.781
			c0.303-0.584,0.691-1.171,0.877-1.848c0.291-0.639,0.527-1.295,0.627-1.948c0.07-0.323,0.139-0.633,0.202-0.927
			c0.087-0.292,0.042-0.585,0.068-0.845c0.055-1.053,0.128-1.769,0.128-1.769s0.058,0.705,0.092,1.78
			c-0.014,0.267,0.046,0.565-0.027,0.865c-0.051,0.305-0.104,0.625-0.162,0.957c-0.069,0.678-0.276,1.367-0.548,2.04
			c-0.228,0.69-0.66,1.283-0.998,1.863c-0.157,0.298-0.402,0.527-0.585,0.776c-0.2,0.234-0.362,0.479-0.567,0.657
			C20.359,21.742,19.727,22.089,19.727,22.089z"/>
	</g>
</g>
</svg>
