<?xml version="1.0" encoding="utf-8"?>
<!-- Generator: Adobe Illustrator 21.0.0, SVG Export Plug-In . SVG Version: 6.00 Build 0)  -->
<svg version="1.1" id="Capa_1" xmlns="http://www.w3.org/2000/svg" xmlns:xlink="http://www.w3.org/1999/xlink" x="0px" y="0px"
	 viewBox="0 0 200 61.34" style="enable-background:new 0 0 200 61.34;" xml:space="preserve">
<g>
	<g>
		<path style="opacity:0.2;fill-rule:evenodd;clip-rule:evenodd;" d="M6.257,8.636c-8.321,8.28-8.348,38.26-0.04,46.553
			c8.215,8.202,179.353,8.2,187.566,0c8.307-8.294,8.282-38.273-0.04-46.553C185.342,0.279,14.657,0.279,6.257,8.636z"/>
		<path style="fill-rule:evenodd;clip-rule:evenodd;fill:#FFFFFF;" d="M6.257,6.268c-8.321,8.28-8.348,38.26-0.04,46.553
			c8.215,8.202,179.353,8.2,187.566,0c8.307-8.294,8.282-38.273-0.04-46.553C185.342-2.089,14.657-2.089,6.257,6.268z"/>
		<path style="fill-rule:evenodd;clip-rule:evenodd;fill:#FEC31D;" d="M8.406,6.982C0.867,14.486,0.843,41.646,8.371,49.16
			c7.443,7.431,175.817,7.431,183.259,0c7.527-7.513,7.504-34.674-0.035-42.178C183.982-0.589,16.018-0.589,8.406,6.982z"/>
		<path style="fill-rule:evenodd;clip-rule:evenodd;fill:#C96900;" d="M191.629,43.482c-7.443,7.43-175.816,7.43-183.259,0
			c-3.344-3.339-5.199-10.557-5.566-18.204C2.349,34.812,4.202,45.001,8.371,49.16c7.441,7.431,175.817,7.431,183.259,0
			c4.168-4.16,6.022-14.348,5.564-23.882C196.829,32.925,194.974,40.143,191.629,43.482z"/>
		<path style="fill-rule:evenodd;clip-rule:evenodd;fill:#FFAC04;" d="M5.995,40.013c0.683,1.392,1.476,2.571,2.376,3.469
			c7.443,7.43,175.816,7.43,183.259,0c2.871-2.868,4.646-8.597,5.322-15.002C182.982,38.739,24.808,42.499,5.995,40.013z"/>
		<path style="fill-rule:evenodd;clip-rule:evenodd;fill:#FFD30E;" d="M8.406,6.982C6.147,9.231,4.56,13.246,3.652,17.968
			c13.05-13.564,180.948-15.729,192.027-2.89c-0.941-3.451-2.304-6.322-4.085-8.095C183.982-0.591,16.016-0.591,8.406,6.982z"/>
		<path style="fill-rule:evenodd;clip-rule:evenodd;fill:#FFEF91;" d="M14.349,5.17c-3.204,0.908-5.8,3.118-5.8,4.934
			s2.596,2.553,5.8,1.645c3.202-0.908,5.798-3.118,5.798-4.935C20.148,4.999,17.551,4.262,14.349,5.17z"/>
		<path style="fill-rule:evenodd;clip-rule:evenodd;fill:#FFEF91;" d="M23.961,3.881c-1.806,0.112-3.439,0.985-3.648,1.951
			c-0.212,0.965,1.083,1.655,2.889,1.541c1.805-0.112,3.437-0.985,3.648-1.951C27.058,4.459,25.765,3.768,23.961,3.881z"/>
		<path style="fill-rule:evenodd;clip-rule:evenodd;fill:#FEE147;" d="M187.8,39.402c-2.022,0.982-3.488,2.758-3.275,3.966
			c0.214,1.208,2.026,1.392,4.05,0.411c2.024-0.982,3.489-2.757,3.275-3.966C191.637,38.605,189.822,38.421,187.8,39.402z"/>
		<path style="fill-rule:evenodd;clip-rule:evenodd;fill:#FEE147;" d="M196.951,28.48c-0.676,6.405-2.451,12.133-5.322,15.002
			c-7.443,7.43-175.816,7.43-183.259,0c-0.899-0.898-1.692-2.077-2.376-3.469c-1.859-3.784-2.923-9.144-3.19-14.735
			c-0.053,1.112-0.074,2.234-0.065,3.353c0.007-0.772,0.028-1.544,0.065-2.312c0.367,7.649,2.222,14.866,5.566,18.204
			c7.443,7.43,175.816,7.43,183.259,0c3.344-3.338,5.199-10.555,5.564-18.204c0.037,0.768,0.059,1.541,0.067,2.316
			c0.009-1.121-0.013-2.245-0.067-3.358C197.144,26.356,197.062,27.427,196.951,28.48z"/>
		<path style="fill-rule:evenodd;clip-rule:evenodd;fill:#E6E6E6;" d="M6.217,51.544c-4.054-4.046-6.123-13.256-6.214-22.588
			c-0.095,9.758,1.976,19.634,6.214,23.865c8.215,8.2,179.35,8.2,187.566,0c4.236-4.23,6.308-14.107,6.214-23.865
			c-0.09,9.332-2.161,18.543-6.214,22.588C185.569,59.745,14.431,59.745,6.217,51.544z"/>
	</g>
	<g>
		<g>
			<path style="fill:#FFFFFF;" d="M57.329,12.13c-1.639,0-3.457,0.203-5.455,0.608L51.333,39l5.771,0.181l0.36-10.617
				c6.854-1.954,10.279-4.689,10.279-8.206c0-0.856-0.21-1.772-0.631-2.75C65.534,13.956,62.273,12.13,57.329,12.13z M57.825,22.59
				l0.18-5.05c2.525,0.571,3.817,1.293,3.878,2.164C61.942,20.576,60.589,21.538,57.825,22.59z"/>
			<path style="fill:#FFFFFF;" d="M102.006,24.985c-1.924-0.753-3.216-1.339-3.877-1.761c-0.962-0.616-1.443-1.196-1.443-1.737
				c0-0.587,0.361-1.054,1.082-1.399c0.586-0.286,1.21-0.429,1.871-0.429c1.353,0,3.118,0.488,5.298,1.465l1.916-5.771
				c-2.871-0.556-5.365-0.834-7.484-0.834c-3.006,0-5.268,0.556-6.785,1.668c-1.773,1.293-2.66,2.803-2.66,4.531
				c0,0.812,0.211,1.698,0.632,2.659c1.262,2.901,3.719,4.817,7.371,5.749c2.524,0.646,3.787,1.442,3.787,2.389
				c0,0.632-0.346,1.165-1.037,1.601c-0.616,0.392-1.255,0.586-1.916,0.586c-1.863,0-4.494-1.104-7.89-3.313l-2.66,6.042
				c4.479,1.607,8.077,2.411,10.798,2.411c2.028,0,3.569-0.443,4.621-1.331c2.479-2.076,3.666-4.386,3.562-6.929
				c-0.061-1.55-0.616-2.783-1.668-3.701C104.801,26.249,103.629,25.617,102.006,24.985z"/>
			<path style="fill:#FFFFFF;" d="M128.65,24.956c-0.691-3.486-1.646-5.905-2.862-7.258c-1.488-1.653-3.908-2.48-7.259-2.48
				c-3.17,0-5.703,1.474-7.596,4.419c-1.593,2.465-2.442,5.41-2.548,8.836c-0.12,3.532,0.646,6.146,2.3,7.845s4.253,2.6,7.799,2.705
				c3.861,0.12,6.739-1.097,8.633-3.651c1.293-1.743,1.939-3.923,1.939-6.537C129.057,27.616,128.921,26.324,128.65,24.956z
				 M122.001,31.426c-1.082,1.368-2.277,2.052-3.585,2.052c-1.141,0-2.148-0.699-3.02-2.097c-0.781-1.247-1.172-2.465-1.172-3.652
				c0-1.262,0.429-2.562,1.285-3.899c0.961-1.502,2.014-2.254,3.155-2.254c0.932,0,1.924,0.496,2.976,1.487
				c1.277,1.503,1.916,2.976,1.916,4.419C123.556,28.818,123.037,30.134,122.001,31.426z"/>
			<path style="fill:#FFFFFF;" d="M145.873,26.881c-0.722-0.632-1.894-1.264-3.517-1.896c-1.924-0.753-3.216-1.339-3.877-1.761
				c-0.962-0.616-1.443-1.196-1.443-1.737c0-0.587,0.361-1.054,1.082-1.399c0.586-0.286,1.21-0.429,1.871-0.429
				c1.353,0,3.118,0.488,5.298,1.465l1.916-5.771c-2.871-0.556-5.365-0.834-7.484-0.834c-3.006,0-5.268,0.556-6.785,1.668
				c-1.773,1.293-2.66,2.803-2.66,4.531c0,0.812,0.211,1.698,0.632,2.659c1.262,2.901,3.719,4.817,7.371,5.749
				c2.524,0.646,3.787,1.442,3.787,2.389c0,0.632-0.346,1.165-1.037,1.601c-0.616,0.392-1.255,0.586-1.916,0.586
				c-1.863,0-4.494-1.104-7.89-3.313l-2.66,6.042c4.479,1.607,8.077,2.411,10.798,2.411c2.028,0,3.569-0.443,4.621-1.331
				c2.479-2.076,3.666-4.386,3.562-6.929C147.48,29.032,146.925,27.799,145.873,26.881z"/>
			<path style="fill:#FFFFFF;" d="M78.134,14.046c-0.962,0-1.946,0.113-2.953,0.338c-2.945,0.662-5.199,3.396-6.763,8.206
				l5.771,0.901c1.322-2.524,2.705-3.727,4.147-3.606c1.698,0.135,2.697,0.721,2.998,1.758c0.045,0.15,0.075,1.519,0.09,4.103
				c-1.503-0.586-2.976-0.879-4.418-0.879c-1.082,0-2.172,0.173-3.269,0.519c-2.194,0.691-3.291,2.404-3.291,5.14
				c0,0.226,0.022,0.578,0.067,1.06c0.315,3.351,4.14,5.154,11.474,5.41l0.046,1.06l5.838-0.361l0.181-7.731
				c0.075-3.261-0.233-6.146-0.925-8.656C85.791,16.466,82.792,14.046,78.134,14.046z M76.444,30.118
				c0.075-0.826,0.901-1.239,2.479-1.239c0.736,0,1.631,0.09,2.683,0.271l0.158,3.899C78.097,32.298,76.324,31.321,76.444,30.118z"
				/>
		</g>
		<g>
			<path style="fill:#C96900;" d="M58.17,16.809l-0.883-0.2l-0.252,7.084l1.056-0.402c3.228-1.228,4.627-2.35,4.539-3.638v-0.001
				C62.514,17.982,60.029,17.229,58.17,16.809z M58.615,21.46l0.106-2.968c2.323,0.641,2.41,1.228,2.413,1.264
				C61.134,19.769,61.083,20.387,58.615,21.46z"/>
			<path style="fill:#C96900;" d="M81.733,28.41c-1.087-0.187-2.032-0.281-2.81-0.281c-2.522,0-3.146,1.045-3.226,1.915
				c-0.222,2.221,3.27,3.198,5.916,3.74l0.938,0.192l-0.222-5.463L81.733,28.41z M77.191,30.186
				c0.045-0.503,1.227-0.557,1.732-0.557c0.551,0,1.208,0.055,1.958,0.165l0.094,2.313C77.208,31.207,77.18,30.3,77.191,30.186z"/>
			<path style="fill:#C96900;" d="M129.807,28.834c0-1.258-0.142-2.612-0.421-4.024c-0.725-3.655-1.719-6.145-3.04-7.614
				c-1.63-1.811-4.26-2.729-7.816-2.729c-3.427,0-6.195,1.603-8.226,4.762c-1.661,2.57-2.558,5.671-2.667,9.218
				c-0.005,0.142,0.001,0.274-0.001,0.413c-0.306-0.994-0.83-1.856-1.618-2.544c-0.795-0.696-2.019-1.36-3.737-2.029
				c-1.873-0.733-3.133-1.303-3.746-1.694c-1.067-0.684-1.098-1.065-1.098-1.106c0-0.112,0-0.408,0.661-0.726
				c0.486-0.237,0.99-0.353,1.542-0.353c1.24,0,2.919,0.471,4.991,1.399l0.757,0.339l2.447-7.368l-0.838-0.162
				c-7.162-1.387-12.095-1.059-14.854,0.964c-1.97,1.436-2.968,3.165-2.968,5.137c0,0.912,0.234,1.907,0.694,2.958
				c1.353,3.111,4.002,5.189,7.873,6.176c3.133,0.801,3.223,1.576,3.223,1.662c0,0.229-0.071,0.578-0.689,0.968
				c-0.497,0.315-0.992,0.469-1.514,0.469c-1.708,0-4.225-1.074-7.48-3.192l-0.74-0.481l-1.817,4.126l0.08-3.427
				c0.076-3.318-0.244-6.303-0.952-8.873c-1.433-5.182-4.702-7.809-9.717-7.809c-1.009,0-2.058,0.12-3.116,0.356h-0.001
				c-2.736,0.615-4.923,2.852-6.529,6.629c-0.012-0.934-0.24-1.931-0.688-2.971c-2.245-5.194-7.664-7.014-16.076-5.307l-0.588,0.119
				l-0.569,27.604l7.26,0.227l0.367-10.822c4.985-1.49,8.168-3.466,9.53-5.891l6.88,1.075l0.25-0.476
				c0.8-1.526,2.053-3.321,3.423-3.207c2.03,0.161,2.261,0.958,2.323,1.159c0.014,0.1,0.047,0.585,0.067,2.896
				c-2.427-0.746-4.781-0.767-7.155-0.018c-1.74,0.548-3.815,2.009-3.815,5.855c0,0.24,0.023,0.616,0.071,1.13
				c0.344,3.656,4.213,5.694,11.5,6.06l0.049,1.135l7.288-0.451l0.024-1.03c4.23,1.469,7.725,2.223,10.378,2.223
				c2.202,0,3.919-0.507,5.103-1.506c2.196-1.839,3.441-3.893,3.747-6.118c0.354,2.028,1.114,3.665,2.289,4.872
				c1.786,1.834,4.583,2.821,8.313,2.932c0.18,0.006,0.357,0.008,0.534,0.008c3.841,0,6.774-1.332,8.725-3.962
				C129.104,33.951,129.807,31.601,129.807,28.834z M57.258,27.842l-0.525,0.15l-0.354,10.416l-4.281-0.134l0.513-24.915
				c1.715-0.318,3.299-0.479,4.718-0.479c4.658,0,7.633,1.644,9.094,5.024c0.378,0.878,0.57,1.704,0.57,2.454
				C66.993,23.482,63.717,26.001,57.258,27.842z M82.751,37.258l-0.043-0.989l-0.693-0.024c-6.862-0.239-10.48-1.831-10.753-4.73
				c-0.042-0.45-0.064-0.779-0.064-0.99c0-2.424,0.879-3.83,2.767-4.424c1.019-0.321,2.042-0.484,3.043-0.484
				c1.342,0,2.737,0.278,4.146,0.828l1.029,0.401l-0.006-1.104c-0.022-3.982-0.075-4.158-0.12-4.307
				c-0.395-1.362-1.626-2.135-3.656-2.296c-1.688-0.133-3.2,1.016-4.616,3.531l-4.365-0.682c1.449-4.002,3.44-6.312,5.927-6.871
				c0.951-0.212,1.89-0.32,2.79-0.32c4.317,0,7.023,2.194,8.271,6.708c0.669,2.429,0.971,5.268,0.898,8.439l-0.165,7.043
				L82.751,37.258z M103.146,36.938c-2.125,1.794-6.893,1.486-13.922-0.945l1.981-4.501c3.191,1.991,5.668,2.961,7.556,2.961
				c0.804,0,1.584-0.236,2.316-0.701c1.146-0.723,1.387-1.614,1.387-2.235c0-1.795-2.483-2.638-4.352-3.115
				c-3.447-0.879-5.694-2.62-6.87-5.323c-0.377-0.862-0.569-1.655-0.569-2.358c0-1.487,0.77-2.771,2.354-3.926
				c2.281-1.672,6.607-1.975,12.843-0.859l-1.387,4.178c-3.1-1.288-5.208-1.594-7.039-0.7c-1.246,0.598-1.508,1.458-1.508,2.076
				c0,0.823,0.585,1.598,1.79,2.37c0.705,0.45,2.016,1.048,4.008,1.827c1.533,0.597,2.642,1.189,3.295,1.762
				c0.897,0.783,1.359,1.819,1.412,3.167C106.537,32.932,105.459,35,103.146,36.938z M126.515,34.924
				c-1.754,2.366-4.371,3.449-8.008,3.349c-3.329-0.099-5.78-0.933-7.284-2.479c-1.498-1.539-2.2-3.993-2.088-7.296v-0.002
				c0.101-3.271,0.918-6.114,2.429-8.453c1.763-2.742,4.041-4.075,6.965-4.075c3.113,0,5.368,0.751,6.701,2.232
				c1.12,1.245,2.022,3.567,2.685,6.902c0.26,1.315,0.392,2.571,0.392,3.732C128.307,31.273,127.704,33.321,126.515,34.924z"/>
			<path style="fill:#C96900;" d="M122.154,22.517c-2.684-2.528-5.292-2.195-7.277,0.908c-0.931,1.455-1.403,2.903-1.403,4.304
				c0,1.325,0.433,2.688,1.286,4.049c1.014,1.625,2.245,2.45,3.656,2.45c1.543,0,2.947-0.786,4.17-2.333
				c1.142-1.423,1.72-2.908,1.72-4.414c0-1.619-0.705-3.27-2.095-4.905L122.154,22.517z M121.413,30.961
				c-0.94,1.189-1.921,1.767-2.997,1.767c-0.872,0-1.651-0.57-2.384-1.745c-0.702-1.12-1.058-2.215-1.058-3.254
				c0-1.11,0.393-2.286,1.167-3.495c0.81-1.266,1.659-1.908,2.523-1.908c0.722,0,1.539,0.422,2.431,1.255
				c1.136,1.345,1.711,2.658,1.711,3.901C122.806,28.637,122.338,29.807,121.413,30.961z"/>
			<path style="fill:#C96900;" d="M146.367,26.317c-0.796-0.696-2.019-1.36-3.737-2.029c-1.873-0.733-3.134-1.303-3.746-1.694
				c-1.066-0.684-1.098-1.065-1.098-1.106c0-0.112,0-0.408,0.661-0.726c0.486-0.237,0.99-0.353,1.542-0.353
				c1.239,0,2.919,0.471,4.991,1.399l0.757,0.339l2.446-7.368l-0.838-0.162c-7.162-1.386-12.094-1.058-14.854,0.964
				c-1.97,1.436-2.969,3.165-2.969,5.137c0,0.912,0.233,1.907,0.694,2.958c1.353,3.111,4.002,5.189,7.873,6.176
				c3.132,0.801,3.223,1.576,3.223,1.662c0,0.229-0.071,0.578-0.689,0.968c-0.496,0.315-0.991,0.469-1.514,0.469
				c-1.708,0-4.225-1.074-7.48-3.192l-0.74-0.481l-3.34,7.586l0.758,0.272c4.539,1.629,8.257,2.455,11.051,2.455
				c2.202,0,3.919-0.507,5.103-1.506c2.655-2.223,3.943-4.758,3.829-7.533C148.222,28.796,147.574,27.37,146.367,26.317z
				 M143.496,36.938c-2.128,1.794-6.895,1.485-13.923-0.945l1.981-4.501c3.191,1.991,5.668,2.961,7.556,2.961
				c0.805,0,1.584-0.236,2.315-0.701c1.147-0.723,1.388-1.614,1.388-2.235c0-1.795-2.483-2.638-4.352-3.115
				c-3.447-0.879-5.694-2.62-6.87-5.323c-0.377-0.862-0.568-1.655-0.568-2.358c0-1.487,0.77-2.771,2.354-3.926
				c2.282-1.672,6.608-1.974,12.844-0.859l-1.388,4.178c-3.102-1.287-5.21-1.593-7.039-0.7c-1.246,0.598-1.508,1.458-1.508,2.076
				c0,0.823,0.585,1.598,1.79,2.37c0.705,0.45,2.016,1.048,4.008,1.827c1.534,0.597,2.643,1.189,3.296,1.762
				c0.897,0.783,1.359,1.819,1.412,3.167C146.887,32.932,145.81,35,143.496,36.938z"/>
		</g>
	</g>
</g>
</svg>
