<?xml version="1.0" encoding="utf-8"?>
<!-- Generator: Adobe Illustrator 22.0.1, SVG Export Plug-In . SVG Version: 6.00 Build 0)  -->
<svg version="1.1" xmlns="http://www.w3.org/2000/svg" xmlns:xlink="http://www.w3.org/1999/xlink" x="0px" y="0px"
	 viewBox="0 0 216.863 303.065" style="enable-background:new 0 0 216.863 303.065;" xml:space="preserve">
<g id="Brazo">
	<g id="XMLID_56_">
		<g id="XMLID_59_">
			
				<path style="fill:#EFC392;stroke:#994900;stroke-width:1.5248;stroke-linecap:round;stroke-linejoin:round;stroke-miterlimit:10;" d="
				M30.313,247.643c5.564,0.276,6.096-5.523,6.096-5.523c4.733-2.227,2.971-6.834,1.523-9.358l0,0l-0.001-0.001
				c-0.604-1.052-1.154-1.751-1.154-1.751s-0.035,0.013-0.044,0.017c-0.627-1.253-1.106-3.088-0.252-5.212
				c1.594-3.963,0.943-5.106-0.603-6.178c-1.772-1.231-6.928,1.946-5.114,6.083c1.003,2.291,0.949,3.784,0.57,4.74
				c-0.145-0.1-0.294-0.171-0.437-0.29c-0.512-0.429-1.052-0.76-1.617-0.976l-1.852-1.563c0,0-5.534-4.786-8.757-7.42
				c-3.223-2.64-4.925,1.001-4.925,1.001s-1.368,1.699,0.55,3.488c-0.528-0.328-1.034-0.639-1.495-0.919
				c-3.552-2.174-4.743,1.665-4.743,1.665s-1.398,2.333,1.892,3.881c0.819,0.384,1.885,0.877,3.023,1.401
				c-0.466-0.179-0.916-0.351-1.329-0.506c-3.871-1.452-4.314,2.509-4.314,2.509s-0.932,2.536,2.566,3.435
				c0.468,0.12,1.014,0.258,1.603,0.405c-1.336,0.809-1.399,2.697-1.399,2.697s-0.733,2.618,2.845,3.246
				c2.137,0.372,5.798,0.973,8.407,1.397C22.565,244.943,25.914,247.426,30.313,247.643z"/>
			
				<path id="XMLID_66_" style="fill:#994900;stroke:#994900;stroke-width:1.5248;stroke-linecap:round;stroke-linejoin:round;stroke-miterlimit:10;" d="
				M20.634,239.754c0,0,0.012-0.757,0.28-1.866c0.328-1.082,0.825-2.534,1.631-3.823c0.379-0.664,0.836-1.266,1.297-1.807
				c0.438-0.563,0.857-1.072,1.284-1.448c0.825-0.781,1.389-1.276,1.389-1.276s-0.492,0.576-1.253,1.402
				c-0.41,0.387-0.805,0.909-1.214,1.478c-0.437,0.551-0.861,1.164-1.209,1.827c-0.842,1.236-1.384,2.642-1.749,3.697
				C20.753,239.008,20.634,239.754,20.634,239.754z"/>
			
				<path id="XMLID_63_" style="fill:#994900;stroke:#994900;stroke-width:1.5248;stroke-linecap:round;stroke-linejoin:round;stroke-miterlimit:10;" d="
				M30.964,231.5c0,0-0.204,0.479-0.352,1.228c-0.114,0.362-0.13,0.813-0.204,1.277c0.036,0.471-0.048,0.982,0.087,1.47l0.107,0.738
				c0.009,0.253,0.148,0.465,0.217,0.691c0.176,0.435,0.283,0.875,0.534,1.17c0.407,0.639,0.664,1.095,0.664,1.095
				s-0.337-0.381-0.82-0.998c-0.274-0.289-0.414-0.731-0.621-1.175c-0.082-0.229-0.238-0.448-0.265-0.709l-0.155-0.769
				c-0.11-0.517,0.004-1.048-0.004-1.536c0.101-0.479,0.145-0.935,0.283-1.302C30.664,231.93,30.964,231.5,30.964,231.5z"/>
			
				<path id="XMLID_62_" style="fill:#994900;stroke:#994900;stroke-width:1.5248;stroke-linecap:round;stroke-linejoin:round;stroke-miterlimit:10;" d="
				M20.879,238.873c0,0-0.573-0.091-1.42-0.266c-0.844-0.192-1.971-0.45-3.095-0.708c-1.111-0.311-2.22-0.624-3.055-0.858
				c-0.828-0.25-1.374-0.445-1.374-0.445s0.573,0.089,1.42,0.266c0.844,0.192,1.971,0.45,3.095,0.708
				c1.111,0.311,2.22,0.624,3.055,0.858C20.333,238.677,20.879,238.873,20.879,238.873z"/>
			
				<path id="XMLID_61_" style="fill:#994900;stroke:#994900;stroke-width:1.5248;stroke-linecap:round;stroke-linejoin:round;stroke-miterlimit:10;" d="
				M22.711,235.121c0,0-0.706-0.265-1.748-0.698c-1.036-0.449-2.415-1.048-3.796-1.648c-1.356-0.652-2.712-1.302-3.729-1.792
				c-1.009-0.503-1.671-0.865-1.671-0.865s0.707,0.263,1.748,0.698c1.036,0.448,2.415,1.048,3.796,1.648
				c1.356,0.652,2.712,1.302,3.729,1.792C22.048,234.759,22.711,235.121,22.711,235.121z"/>
			
				<path id="XMLID_60_" style="fill:#994900;stroke:#994900;stroke-width:1.5248;stroke-linecap:round;stroke-linejoin:round;stroke-miterlimit:10;" d="
				M14.849,225.246c0,0,0.647,0.338,1.595,0.884c0.938,0.559,2.187,1.304,3.439,2.048c1.22,0.794,2.441,1.588,3.357,2.184
				c0.906,0.608,1.496,1.04,1.496,1.04s-0.647-0.338-1.595-0.884c-0.938-0.559-2.187-1.304-3.439-2.048
				c-1.22-0.794-2.441-1.588-3.357-2.183C15.439,225.675,14.849,225.246,14.849,225.246z"/>
		</g>
		<polygon id="XMLID_58_" style="fill:#FFFFFF;" points="42.386,238.553 34.359,250.906 30.916,247.756 39.284,235.564 		"/>
		<polygon id="XMLID_57_" style="fill:#D1D3D4;" points="85.856,281.375 42.335,238.578 34.311,250.784 71.069,276.281 		"/>
	</g>
</g>
<g id="Cuerpo-Cabeza">
	<g>
		<path style="fill:#F7941E;" d="M146.583,303.065c0.324-4.015,0.492-8.521,0.492-13.6c0-23.071-0.608-37.052-11.741-41.613
			c-5.189-2.128-6.229-0.912-19.375-0.912c-2.379,0-4.94,0.011-7.713,0.011h-3.416c-18.95,0-20.086-1.341-26.537,1.134
			c-10.321,3.951-12.29,19.43-12.29,41.38c0,5.079,0.168,9.585,0.493,13.6H146.583z"/>
		<g id="XMLID_51_">
			<path id="XMLID_55_" style="fill:#FFFFFF;" d="M147.61,290.119c-0.031,3.574-0.147,6.862-0.346,9.881H65.764
				c-0.208-3.02-0.322-6.308-0.353-9.881h10.759c-1.907-26.602,3.395-42.807,4.07-44.741c0.025-0.083,0.049-0.141,0.058-0.172
				l0.237,0.089l4.407,1.604l4.644,1.688c-0.058,0.165-5.468,15.622-3.498,41.532h41.053c1.968-25.91-3.444-41.366-3.5-41.532
				l9.281-3.382c0.27,0.733,6.125,17.167,4.132,44.913H147.61z"/>
			<g id="XMLID_52_">
				<polygon id="XMLID_54_" style="fill:#CCCCCC;" points="105.217,257.87 118.18,270.302 142.06,251.102 				"/>
				<polygon id="XMLID_53_" style="fill:#CCCCCC;" points="107.968,257.857 94.958,270.333 71,251.071 				"/>
			</g>
		</g>
	</g>
	<g id="XMLID_28_">
		
			<path id="XMLID_50_" style="fill:#EFC392;stroke:#994900;stroke-width:2.2872;stroke-linecap:round;stroke-linejoin:round;stroke-miterlimit:10;" d="
			M187.729,192.732c-0.319,0.362-0.647,0.719-0.988,1.074c-0.341,0.359-0.693,0.713-1.064,1.068
			c-0.363,0.35-0.746,0.705-1.139,1.055c-0.394,0.349-0.802,0.697-1.222,1.043c-0.421,0.346-0.86,0.69-1.307,1.031
			c-0.452,0.343-0.912,0.678-1.39,1.015c-0.002-1.888-0.004-3.777-0.005-5.662c-0.005-1.886-0.005-3.774-0.005-5.662
			c-0.003-1.884-0.005-3.77-0.005-5.655c-0.005-1.888-0.005-3.774-0.005-5.662c-0.002-1.886-0.005-3.774-0.005-5.66
			c-0.005-1.888-0.005-3.774-0.005-5.662c0,0,0.146-0.24,0.414-0.61c0.267-0.375,0.658-0.879,1.145-1.414
			c0.489-0.53,1.07-1.085,1.723-1.558c0.655-0.475,1.382-0.863,2.155-1.065c0.768-0.197,1.587-0.204,2.427,0.087
			c0.837,0.294,1.699,0.882,2.554,1.879c0.636,0.748,1.272,1.745,1.832,2.952c0.566,1.207,1.058,2.615,1.411,4.185
			c0.355,1.566,0.573,3.294,0.588,5.127c0.017,1.834-0.173,3.774-0.626,5.776c-0.46,1.998-1.183,4.062-2.243,6.127
			C190.914,188.614,189.522,190.692,187.729,192.732z"/>
		
			<path id="XMLID_49_" style="fill:#EFC392;stroke:#994900;stroke-width:2.2872;stroke-linecap:round;stroke-linejoin:round;stroke-miterlimit:10;" d="
			M27.252,193.382c0.317,0.359,0.646,0.715,0.988,1.075c0.338,0.352,0.694,0.709,1.063,1.061c0.37,0.354,0.751,0.704,1.141,1.056
			c0.397,0.348,0.803,0.697,1.228,1.041c0.42,0.344,0.856,0.687,1.308,1.027c0.447,0.342,0.911,0.677,1.39,1.014
			c0-1.888-0.005-3.774-0.005-5.662c0-1.886-0.002-3.774-0.005-5.662c0-1.886-0.005-3.772-0.006-5.655
			c0-1.888-0.002-3.776-0.004-5.664c0-1.886,0-3.771-0.005-5.658c0-1.886,0-3.774-0.005-5.66c0,0-0.148-0.241-0.414-0.613
			c-0.271-0.374-0.659-0.879-1.148-1.412c-0.485-0.528-1.07-1.082-1.727-1.555c-0.653-0.473-1.383-0.86-2.151-1.059
			c-0.774-0.195-1.591-0.201-2.431,0.092c-0.837,0.293-1.695,0.885-2.55,1.883c-0.636,0.745-1.27,1.748-1.832,2.955
			c-0.56,1.205-1.048,2.618-1.399,4.186c-0.353,1.568-0.567,3.297-0.579,5.129c-0.012,1.833,0.18,3.773,0.637,5.775
			c0.462,1.998,1.189,4.057,2.252,6.125C24.059,189.267,25.455,191.345,27.252,193.382z"/>
		
			<path id="XMLID_48_" style="fill:#EFC392;stroke:#994900;stroke-width:2.2872;stroke-linecap:round;stroke-linejoin:round;stroke-miterlimit:10;" d="
			M52.87,237.078c-5.32-5.702-9.76-12.323-13.322-19.676c-3.522-7.272-6.182-15.256-7.981-23.759
			c-1.762-8.315-2.694-17.136-2.801-26.266c-0.119-9.158,0.779-18.331,2.813-27.267c1.983-8.685,4.961-16.856,8.803-24.32
			c3.843-7.466,8.55-14.223,13.993-20.078c4.597-4.946,9.715-9.248,15.28-12.783c5.604-3.567,11.661-6.354,18.083-8.245
			c6.561-1.931,13.366-2.852,20.202-2.858c6.974,0.018,13.669,1.028,20.007,2.915c6.336,1.887,12.316,4.647,17.858,8.166
			c5.539,3.52,10.644,7.798,15.231,12.716c5.45,5.844,10.172,12.594,14.026,20.051c3.856,7.46,6.848,15.627,8.848,24.306
			c2.048,8.932,2.964,18.101,2.86,27.261c-0.092,9.135-1.011,17.95-2.758,26.273c-1.781,8.503-4.428,16.494-7.94,23.771
			c-3.552,7.356-7.977,13.986-13.289,19.698c-4.41,4.748-9.433,8.856-15.063,12.213c-5.633,3.361-11.872,5.971-18.718,7.718
			c-7.248,1.85-14.754,2.619-22.229,2.542c-7.523-0.076-14.504-1.016-20.941-2.73c-6.629-1.76-12.68-4.339-18.158-7.629
			C62.152,245.779,57.215,241.733,52.87,237.078z"/>
		<path id="XMLID_47_" style="fill:#482E1D;" d="M206.925,152.853l0.047-3.69l0.083-6.449c-0.024-2.152,0.166-4.317-0.04-6.471
			l-0.482-6.474c-0.099-1.08-0.13-2.168-0.337-3.236l-0.507-3.222l-0.513-3.227c-0.14-1.082-0.401-2.144-0.657-3.209l-0.752-3.199
			c-0.263-1.066-0.47-2.143-0.83-3.191c-0.7-2.101-1.211-4.239-2.079-6.321c-0.043-0.107-0.082-0.214-0.123-0.321l5.073-0.756
			l1.799-0.733l0.918-4.788l0.276-3.855c-0.338-1.101-0.566-2.232-1.038-3.298l-1.283-3.237c-0.385-1.098-0.987-2.106-1.508-3.151
			c-0.56-1.023-1.028-2.105-1.678-3.082l-1.922-2.951c-0.621-1.001-1.427-1.868-2.138-2.806c-0.72-0.934-1.471-1.841-2.306-2.672
			c-0.828-0.836-1.594-1.744-2.48-2.518l-2.646-2.346l-2.811-2.138c-0.96-0.677-1.966-1.289-2.95-1.933
			c-0.628-0.38-1.275-0.728-1.917-1.085l1.368-0.914l7.564-5.053l-7.437-5.079l-2.875-1.964c-0.948-0.684-1.95-1.233-2.948-1.796
			c-1.002-0.543-1.981-1.178-3.01-1.638l-3.071-1.456c-1.028-0.477-2.076-0.852-3.116-1.28c-1.039-0.432-2.086-0.822-3.143-1.157
			c-2.103-0.746-4.225-1.371-6.361-1.928c-1.067-0.289-2.14-0.503-3.21-0.756c-1.07-0.259-2.144-0.462-3.221-0.661
			c-2.148-0.426-4.304-0.744-6.464-1.038c-1.822-0.236-3.65-0.412-5.483-0.564l0.719-5.047l1.061-7.457l-7.251-0.191
			c-2.443-0.065-4.9-0.318-7.334-0.202l-3.654,0.092l-3.628,0.303c-1.214,0.084-2.414,0.224-3.607,0.416
			c-1.195,0.177-2.397,0.328-3.584,0.533l-3.539,0.719c-1.186,0.217-2.335,0.557-3.501,0.838c-1.165,0.288-2.329,0.583-3.468,0.942
			c-1.143,0.352-2.301,0.662-3.431,1.051c-2.27,0.745-4.513,1.563-6.734,2.437c-1.552,0.629-3.09,1.295-4.619,1.986l-0.908-4.974
			l-1.666-9.133l-7.766,4.301l-6.838,3.788l-3.411,1.902c-1.115,0.665-2.153,1.445-3.231,2.162l-6.401,4.4
			c-2.036,1.587-4.035,3.219-6.047,4.827c-0.99,0.828-2.048,1.571-2.973,2.468l-2.853,2.601c-1.914,1.719-3.804,3.463-5.573,5.335
			c-1.815,1.821-3.608,3.665-5.304,5.623c-0.333,0.375-0.667,0.746-1,1.119l-5.441-5.117l-3.277,6.328
			c-1.087,2.101-2.335,4.135-3.246,6.295l-1.445,3.208l-1.266,3.258c-0.444,1.08-0.784,2.186-1.15,3.285
			c-0.346,1.103-0.762,2.189-1.049,3.305c-0.639,2.217-1.241,4.437-1.732,6.676c-0.528,2.231-0.949,4.48-1.335,6.728
			c-0.387,2.249-0.691,4.507-0.962,6.766c-0.249,2.262-0.422,4.531-0.537,6.807c-0.031,0.639-0.045,1.281-0.068,1.922l-3.68-0.605
			l-5.376-0.884l0.645,5.044l0.655,5.135c0.245,1.708,0.383,3.424,0.715,5.12l0.9,5.089c0.28,1.698,0.665,3.378,1.073,5.052
			l1.18,5.022l1.397,4.965c0.451,1.656,0.943,3.3,1.506,4.924l1.632,4.879l1.833,4.804c0.598,1.603,1.344,3.153,2.008,4.728
			c0.66,1.576,1.399,3.12,2.151,4.655c0.726,1.546,1.486,3.074,2.304,4.574c1.55,3.037,3.318,5.963,5.148,8.83
			c1.854,2.852,3.788,5.655,5.992,8.232c0,0-3.007-42.134,18.849-53.112c8.83-4.433,22.911,1.946,54.009,1.918
			c34.845-0.029,48.925-5.151,56.866,1.094c7.535,5.929,17.057,14.821,15.075,49.975l3.18-4.458l1.574-2.238
			c0.512-0.756,1.081-1.469,1.543-2.261l2.907-4.685l1.438-2.365l1.296-2.437l1.296-2.443c0.422-0.82,0.896-1.617,1.259-2.469
			l2.313-5.06l1.02-2.608c0.327-0.876,0.71-1.727,0.972-2.639l0.851-2.706c0.009-0.038,0.019-0.072,0.029-0.11l4.289,1.33
			L206.925,152.853z"/>
		<g id="XMLID_42_">
			<path id="XMLID_46_" style="fill:#FFFFFF;" d="M211.907,122.133c0.006,2.918-0.084,5.814-0.257,8.68
				c-20.036-6.333-60.133-10.625-106.31-10.585c-44.622,0.038-83.547,4.11-104.196,10.126c-0.15-2.655-0.229-5.341-0.233-8.043
				C0.853,54.909,48.051,9.652,106.312,9.602C164.585,9.553,211.849,54.732,211.907,122.133z"/>
			<path id="XMLID_45_" style="fill:#B3B3B3;" d="M106.423,144.474c-66.226,0.059-92.143,0.908-105.508-10.81
				c-8.256-7.24,40.325-15.843,106.553-15.9c66.232-0.054,114.828,8.464,106.581,15.717c-13.343,11.74-39.261,10.934-105.489,10.991
				L106.423,144.474z"/>
			<path id="XMLID_44_" style="fill:#808080;" d="M1.049,128.436c0,0,3.186-0.939,8.789-2.479c2.841-0.643,6.293-1.424,10.25-2.32
				c3.981-0.766,8.471-1.668,13.399-2.463c4.939-0.693,10.273-1.66,15.964-2.224c2.844-0.325,5.763-0.661,8.747-1.003
				c2.986-0.333,6.048-0.52,9.157-0.789c6.218-0.558,12.659-0.895,19.208-1.19c6.564-0.272,13.185-0.329,19.903-0.428
				c3.315,0.06,6.633,0.12,9.937,0.179c3.298,0.035,6.596,0.129,9.883,0.317c6.567,0.262,13.016,0.68,19.23,1.246
				c6.227,0.429,12.218,1.184,17.898,1.863c5.686,0.606,11.018,1.582,15.954,2.302c4.924,0.83,9.41,1.752,13.385,2.543
				c3.947,0.924,7.39,1.729,10.224,2.393c5.606,1.602,8.774,2.575,8.774,2.575s-3.28-0.592-8.957-1.722
				c-2.865-0.444-6.343-0.983-10.33-1.601c-4.005-0.488-8.521-1.037-13.451-1.636c-2.47-0.244-5.042-0.498-7.705-0.76
				c-2.659-0.28-5.406-0.574-8.244-0.763c-5.667-0.451-11.639-0.935-17.831-1.254c-3.092-0.164-6.238-0.407-9.42-0.515
				c-3.179-0.112-6.398-0.226-9.642-0.341c-6.469-0.338-13.147-0.208-19.767-0.343c-6.548,0.047-13.201,0.05-19.689,0.27
				c-6.499,0.275-12.907,0.358-19.092,0.796c-6.191,0.313-12.168,0.726-17.836,1.181c-2.839,0.182-5.59,0.444-8.25,0.719
				c-2.662,0.251-5.236,0.494-7.707,0.726c-4.932,0.572-9.452,1.095-13.46,1.559c-3.99,0.59-7.468,1.104-10.332,1.527
				C4.325,127.88,1.049,128.436,1.049,128.436z"/>
			<path id="XMLID_43_" style="fill:#E6E6E6;" d="M97.71,0.015C89.481,0.023,84.237,6.59,86.049,14.619l9.505,75.445
				c1.813,8.019,19.806,8.004,21.606-0.019l9.429-75.46c1.798-8.032-3.46-14.592-11.687-14.585L97.71,0.015z"/>
		</g>
		<path id="XMLID_29_" style="fill:#C4884D;" d="M98.571,196.199c1.063-1.351,4.073,2.453,8.782,2.857
			c4.71,0.404,6.889-4.56,8.925-3.333c2.036,1.227-2.24,7.617-9.329,8.043C99.861,204.192,97.659,197.357,98.571,196.199z"/>
	</g>
</g>
<g id="Ojos-Abiertos">
	<g id="XMLID_30_">
		<g id="XMLID_36_">
			<path id="XMLID_40_" style="fill:#FFFFFF;" d="M69.95,164.993c-19.889,5.216-19.084,33.594,2.511,33.585
				C94.055,198.568,93.093,158.924,69.95,164.993z"/>
			<path id="XMLID_39_" d="M80.712,181.515c-0.135,5.861-4.006,10.525-8.646,10.418s-8.292-4.945-8.156-10.806
				c0.135-5.861,4.006-10.525,8.646-10.418C77.195,170.816,80.847,175.654,80.712,181.515z"/>
			<path id="XMLID_38_" style="fill:#FFFFFF;" d="M73.17,176.032c-0.064,2.768-2.359,4.96-5.127,4.896
				c-2.768-0.064-4.96-2.359-4.896-5.127c0.064-2.768,2.359-4.96,5.127-4.896C71.042,170.969,73.234,173.264,73.17,176.032z"/>
			<path id="XMLID_37_" style="fill:#FFFFFF;" d="M77.072,185.855c-0.024,1.058-0.902,1.896-1.96,1.872
				c-1.058-0.024-1.896-0.902-1.872-1.96c0.024-1.058,0.902-1.896,1.96-1.872C76.258,183.919,77.097,184.797,77.072,185.855z"/>
		</g>
		<g id="XMLID_31_">
			<path id="XMLID_35_" style="fill:#FFFFFF;" d="M142.099,147.573c35.593,11.113,31.761,62.455-7.359,60.631
				C95.62,206.379,100.682,134.641,142.099,147.573z"/>
			
				<ellipse id="XMLID_34_" transform="matrix(0.0231 -0.9997 0.9997 0.0231 -42.0718 310.9286)" cx="138.06" cy="176.992" rx="19.25" ry="15.24"/>
			<path id="XMLID_33_" style="fill:#FFFFFF;" d="M139.619,167.4c-0.116,5.019-4.279,8.994-9.298,8.878
				c-5.019-0.116-8.994-4.279-8.878-9.298c0.116-5.019,4.279-8.994,9.298-8.878C135.759,158.218,139.734,162.381,139.619,167.4z"/>
			<path id="XMLID_32_" style="fill:#FFFFFF;" d="M146.696,185.214c-0.044,1.919-1.636,3.439-3.555,3.394
				c-1.919-0.044-3.439-1.636-3.395-3.555s1.636-3.439,3.555-3.395S146.74,183.295,146.696,185.214z"/>
		</g>
	</g>
</g>
<g id="Ojos-Cerrados">
</g>
<g id="Cejas">
	<path id="XMLID_41_" style="fill:#482E1D;" d="M84.664,158.35c3.315-5.503-8.043-9.963-14.809-10.119s-16.081,12.415-14.647,15.456
		c1.434,3.042,6.92-8.261,15.189-8.07C78.665,155.808,81.535,163.543,84.664,158.35z"/>
</g>
<g id="Mano-Lupa">
	<g id="XMLID_4_">
		<g id="XMLID_7_">
			
				<path id="XMLID_27_" style="fill:#EFC392;stroke:#994900;stroke-width:1.5248;stroke-linecap:round;stroke-linejoin:round;stroke-miterlimit:10;" d="
				M182.927,212.276c-0.782,0.411-5.352,18.503,8.037,26.535c13.388,8.034,18.353-10.1,14.916-14.382
				C202.444,220.148,182.927,212.276,182.927,212.276z"/>
			<path id="XMLID_26_" style="fill:#CCCCCC;" d="M140.922,252.771c0,0,35.353,18.954,42.646-22.242l21.241,5.575
				c0,0-9.508,41.435-59.143,29.608c0,0-0.728-4.525-1.715-7.25C143.216,256.441,140.922,252.771,140.922,252.771z"/>
			<g id="XMLID_18_">
				<path id="XMLID_25_" style="opacity:0.3;fill:#66A5B4;" d="M164.223,180.725c-2.593,14.63-16.555,24.393-31.185,21.804
					c-14.634-2.591-24.395-16.555-21.804-31.185c2.591-14.635,16.551-24.395,31.183-21.804
					C157.049,152.128,166.809,166.09,164.223,180.725z"/>
				<path id="XMLID_22_" style="fill:#58595B;" d="M167.278,197.533c-11.858,16.294-34.759,19.91-51.055,8.052
					c-16.292-11.86-19.906-34.761-8.05-51.055c11.856-16.292,34.759-19.906,51.053-8.048
					C175.525,158.337,179.134,181.238,167.278,197.533z M116.277,160.426c-8.608,11.827-5.988,28.452,5.843,37.06
					c11.825,8.608,28.451,5.986,37.06-5.843c8.606-11.831,5.981-28.452-5.843-37.062
					C141.507,145.975,124.885,148.597,116.277,160.426z"/>
				<path id="XMLID_21_" d="M195.654,210.438l20.281,14.76c1.537,1.115,1.119,4.28-0.911,7.076c-1.018,1.4-2.252,2.437-3.422,2.993
					c-1.164,0.545-2.265,0.614-3.029,0.056l-20.285-14.759c1.445-1.459,0.822-4.61,2.077-6.341
					C191.627,212.489,194.711,212.263,195.654,210.438z"/>
				<path id="XMLID_19_" d="M172.08,193.286l23.573,17.152c-0.844,1.883-1.899,3.715-3.158,5.448
					c-1.255,1.729-2.676,3.297-4.208,4.677l-23.573-17.152c1.483-1.423,2.866-3.004,4.128-4.737
					C170.099,196.941,171.18,195.14,172.08,193.286z"/>
			</g>
			<g id="XMLID_13_">
				
					<path style="fill:#EFC392;stroke:#994900;stroke-width:1.5248;stroke-linecap:round;stroke-linejoin:round;stroke-miterlimit:10;" d="
					M212.799,218.718l-0.617-0.804c-0.714-0.935-1.794-1.303-2.691-1.184c0.446-1.12,0.232-2.699-0.846-3.766l-0.809-0.811
					c-1.048-1.033-2.568-1.259-3.676-0.857c0.851-1.26,0.795-3.342-0.523-4.555l-0.86-0.795c-1.358-1.246-3.523-1.083-4.689-0.055
					c0.26-1.121,0-2.449-0.939-3.311l-0.82-0.757c-1.371-1.255-3.618-1.023-4.668,0.121c0,0-1.141,0.965-3.324,3.337
					c-2.341,2.537-3.125,4.161-3.125,4.161c-0.958,1.479-0.507,3.312,0.349,4.09l0.82,0.755c0.844,0.781,2.709,1.085,4.11,0
					c0,0,0.259-0.158,0.71-0.499c-0.045,0.084-0.075,0.142-0.075,0.142c-1.01,1.555-0.527,3.475,0.362,4.293l0.858,0.791
					c0.893,0.82,2.846,1.135,4.313,0c0,0,0.125-0.076,0.342-0.228c-0.684,1.312-0.226,2.945,0.567,3.726l0.815,0.804
					c0.842,0.842,2.669,1.304,4.009,0.389c0,0,0.025-0.013,0.046-0.025c-0.179,0.942,0.08,1.955,0.535,2.549l0.612,0.804
					c0.639,0.836,2.117,1.438,3.286,0.742c0,0,1.287-0.525,3.286-2.327c1.87-1.689,2.622-2.598,2.622-2.598
					C213.675,222.037,213.831,220.067,212.799,218.718z"/>
				
					<path id="XMLID_17_" style="fill:#994900;stroke:#994900;stroke-width:1.5248;stroke-linecap:round;stroke-linejoin:round;stroke-miterlimit:10;" d="
					M191.191,213.795c0,0,0.494-0.448,1.168-1.171c0.731-0.667,1.61-1.642,2.441-2.663c0.445-0.482,0.925-0.937,1.264-1.454
					c0.366-0.495,0.708-0.958,1.001-1.355c0.603-0.783,1.039-1.291,1.039-1.291s-0.322,0.574-0.856,1.416
					c-0.275,0.415-0.594,0.9-0.938,1.419c-0.317,0.542-0.775,1.025-1.202,1.534c-0.893,0.986-1.832,1.923-2.604,2.559
					C191.761,213.451,191.191,213.795,191.191,213.795z"/>
				
					<path id="XMLID_16_" style="fill:#994900;stroke:#994900;stroke-width:1.5248;stroke-linecap:round;stroke-linejoin:round;stroke-miterlimit:10;" d="
					M196.98,218.798c0,0,0.518-0.419,1.229-1.108c0.368-0.328,0.795-0.711,1.255-1.122c0.42-0.45,0.869-0.931,1.318-1.412
					c0.456-0.469,0.983-0.88,1.333-1.389c0.382-0.482,0.739-0.934,1.043-1.32c0.63-0.762,1.081-1.257,1.081-1.257
					s-0.34,0.563-0.9,1.387c-0.288,0.406-0.625,0.881-0.987,1.389c-0.331,0.536-0.833,0.977-1.275,1.474
					c-0.478,0.461-0.956,0.923-1.405,1.356c-0.485,0.39-0.938,0.755-1.327,1.067c-0.382,0.32-0.735,0.538-0.981,0.691
					C197.121,218.71,196.98,218.798,196.98,218.798z"/>
				
					<path id="XMLID_14_" style="fill:#994900;stroke:#994900;stroke-width:1.5248;stroke-linecap:round;stroke-linejoin:round;stroke-miterlimit:10;" d="
					M202.435,223.681c0,0,0.507-0.372,1.228-0.964c0.746-0.564,1.689-1.379,2.558-2.264c0.433-0.44,0.922-0.832,1.289-1.285
					c0.373-0.443,0.766-0.826,1.03-1.209c0.556-0.746,0.96-1.233,0.96-1.233s-0.29,0.552-0.782,1.364
					c-0.246,0.404-0.619,0.811-0.976,1.283c-0.346,0.481-0.815,0.906-1.237,1.377c-0.931,0.85-1.93,1.619-2.709,2.147
					C203.009,223.419,202.435,223.681,202.435,223.681z"/>
			</g>
			<path id="XMLID_12_" style="fill:#EFC392;" d="M181.58,221.798c0,0-0.626-6.06-2.424-9.468c-1.8-3.413,2.504-5.615,4.941-4.767
				c2.354,0.813,7.398,4.516,3.56,16.582L181.58,221.798z"/>
			
				<path id="XMLID_11_" style="fill:#994900;stroke:#994900;stroke-width:1.5248;stroke-linecap:round;stroke-linejoin:round;stroke-miterlimit:10;" d="
				M185.786,208.479c0,0,0.433,0.196,0.967,0.672c0.494,0.504,1.13,1.234,1.532,2.104c0.21,0.431,0.346,0.886,0.438,1.322
				c0.118,0.43,0.214,0.831,0.223,1.187c0.047,0.709,0.042,1.174,0.042,1.174s-0.125-0.459-0.261-1.137
				c-0.034-0.346-0.156-0.73-0.302-1.136c-0.118-0.416-0.284-0.839-0.514-1.236c-0.319-0.857-0.876-1.599-1.318-2.123
				C186.145,208.785,185.786,208.479,185.786,208.479z"/>
			<polygon id="XMLID_10_" style="fill:#FFFFFF;" points="204.809,236.104 202.873,241.416 182.042,236.086 183.568,230.529 			"/>
			<path style="fill:#994900;" d="M179.94,212.838c-1.8-3.413,2.504-5.615,4.941-4.766c0.267,0.092,0.572,0.228,0.891,0.402
				c-0.604-0.451-1.195-0.745-1.674-0.911c-2.437-0.849-6.741,1.354-4.941,4.766c1.798,3.408,2.423,9.468,2.423,9.468l0.759,0.293
				C182.212,221.01,181.543,215.877,179.94,212.838z"/>
		</g>
	</g>
</g>
<g id="Boca_1">
	<g>
		<path id="XMLID_67_" d="M144.229,219.336c0.018,5.588-3.047,13.487-9.265,19.903c-6.007,6.215-14.965,11.043-26.94,11.08
			c-11.975,0.036-20.961-4.738-27.01-10.916c-6.251-6.382-9.364-14.265-9.38-19.85c-0.017-5.103,3.488-6.292,9.254-6.097
			l0.049,0.001c0.005-0.002,0.005-0.002,0.005-0.002c6.645,0.229,16.272,2.261,26.978,2.228c10.374-0.032,19.727-1.996,26.34-2.357
			l0.02,0c0.011,0.001,0.025,0,0.034-0.001C140.448,212.99,144.211,214.051,144.229,219.336z"/>
		<path id="XMLID_65_" style="fill:#FFFFFF;" d="M84.265,220.9c1.31,1.073,3.028,1.87,5.166,2.457
			c1.998,0.551,4.372,0.913,7.146,1.146c2.541,0.209,5.412,0.311,8.641,0.331c0.785,0.007,1.591,0.008,2.424,0.008
			c3.201-0.013,6.072-0.075,8.639-0.226c3.516-0.202,6.455-0.578,8.887-1.191c2.426-0.623,4.346-1.49,5.81-2.699
			c0.37-0.301,0.711-0.629,1.024-0.981c0.332-0.365,0.636-0.763,0.896-1.186c0.276-0.448,0.49-0.905,0.654-1.358
			c0.167-0.46,0.289-0.916,0.377-1.366c0.091-0.441,0.153-0.879,0.205-1.3c0.054-0.425,0.086-0.828,0.126-1.205
			c-2.338,0.127-5.016,0.455-7.962,0.83c-2.951,0.372-6.166,0.783-9.572,1.089c-2.821,0.254-5.767,0.425-8.811,0.437
			c-0.537,0-1.075-0.006-1.611-0.013c-3.221-0.048-6.335-0.271-9.285-0.559c-3.061-0.302-5.948-0.666-8.604-0.978
			c-2.77-0.333-5.279-0.602-7.47-0.674c0.041,0.382,0.081,0.781,0.137,1.205c0.057,0.419,0.126,0.858,0.225,1.304
			c0.095,0.444,0.224,0.909,0.394,1.366c0.17,0.456,0.384,0.92,0.657,1.374c0.254,0.425,0.551,0.828,0.883,1.204
			C83.549,220.266,83.89,220.591,84.265,220.9z"/>
	</g>
</g>
<g id="Boca_2">
</g>
<g id="Boca_3">
</g>
</svg>
