<?xml version="1.0" encoding="utf-8"?>
<!-- Generator: Adobe Illustrator 21.0.0, SVG Export Plug-In . SVG Version: 6.00 Build 0)  -->
<svg version="1.1" id="Capa_1" xmlns="http://www.w3.org/2000/svg" xmlns:xlink="http://www.w3.org/1999/xlink" x="0px" y="0px"
	 viewBox="0 0 574.8 164.7" style="enable-background:new 0 0 574.8 164.7;" xml:space="preserve">
<style type="text/css">
	.st0{fill:#BF0E20;}
	.st1{fill:#840013;}
	.st2{clip-path:url(#SVGID_2_);}
	.st3{fill:#ED4860;}
	.st4{fill:#A67C52;}
	.st5{fill-rule:evenodd;clip-rule:evenodd;fill:#754C24;}
</style>
<g>
	<g>
		<polygon class="st0" points="551.9,148.8 24.9,148.8 287.4,0 		"/>
		<path class="st1" d="M565.2,164.7H9.6c-5.3,0-9.6-4.3-9.6-9.6l0,0c0-5.3,4.3-9.6,9.6-9.6h555.6c5.3,0,9.6,4.3,9.6,9.6v0
			C574.8,160.4,570.5,164.7,565.2,164.7z"/>
	</g>
	<g>
		<defs>
			<polygon id="SVGID_1_" points="508.4,136.5 68.4,136.5 287.4,12.3 			"/>
		</defs>
		<clipPath id="SVGID_2_">
			<use xlink:href="#SVGID_1_"  style="overflow:visible;"/>
		</clipPath>
		<g class="st2">
			<g>
				<g>
					<path class="st3" d="M539.1,137.5c-3.1,2.1-6.8,4.2-13.3,4.2c-7.4,0-11.3-2.7-14.7-5.2c-3.3-2.3-6.1-4.3-12-4.3
						c-5.9,0-8.7,2-12,4.3c-3.4,2.4-7.2,5.2-14.7,5.2c-7.4,0-11.3-2.7-14.7-5.2c-3.3-2.3-6.1-4.3-12-4.3c-5.9,0-8.7,2-12,4.3
						c-3.4,2.4-7.2,5.2-14.7,5.2c-7.4,0-11.3-2.7-14.7-5.2c-3.3-2.3-6.1-4.3-12-4.3c-5.9,0-8.7,2-12,4.3c-3.4,2.4-7.2,5.2-14.7,5.2
						c-7.4,0-11.3-2.7-14.7-5.2c-3.3-2.3-6.1-4.3-12-4.3c-5.9,0-8.7,2-12,4.3c-3.4,2.4-7.2,5.2-14.7,5.2c-7.4,0-11.3-2.7-14.7-5.2
						c-3.3-2.3-6.1-4.3-12-4.3c-5.9,0-8.7,2-12,4.3c-3.4,2.4-7.2,5.2-14.7,5.2c-7.4,0-11.3-2.7-14.7-5.2c-3.3-2.3-6.1-4.3-12-4.3
						c-5.9,0-8.7,2-12,4.3c-3.4,2.4-7.2,5.2-14.7,5.2s-11.3-2.7-14.7-5.2c-3.3-2.3-6.1-4.3-12-4.3c-5.9,0-8.7,2-12,4.3
						c-3.4,2.4-7.2,5.2-14.7,5.2s-11.3-2.7-14.7-5.2c-3.3-2.3-6.1-4.3-12-4.3c-5.9,0-8.7,2-12,4.3c-3.4,2.4-7.2,5.2-14.7,5.2
						s-11.3-2.7-14.7-5.2c-3.3-2.3-6.1-4.3-12-4.3c-5.9,0-8.7,2-12,4.3c-3.4,2.4-7.2,5.2-14.7,5.2c-4.8,0-8.1-1.1-10.7-2.6l1.7-3.1
						c2.3,1.4,4.9,2.3,9,2.3c5.9,0,8.7-2,12-4.3c3.4-2.4,7.2-5.2,14.7-5.2c7.4,0,11.3,2.7,14.7,5.2c3.2,2.3,6.1,4.3,12,4.3
						c5.9,0,8.7-2,12-4.3c3.4-2.4,7.2-5.2,14.7-5.2s11.3,2.7,14.7,5.2c3.3,2.3,6.1,4.3,12,4.3c5.9,0,8.7-2,12-4.3
						c3.4-2.4,7.2-5.2,14.7-5.2s11.3,2.7,14.7,5.2c3.3,2.3,6.1,4.3,12,4.3c5.9,0,8.7-2,12-4.3c3.4-2.4,7.2-5.2,14.7-5.2
						s11.3,2.7,14.7,5.2c3.3,2.3,6.1,4.3,12,4.3c5.9,0,8.7-2,12-4.3c3.4-2.4,7.2-5.2,14.7-5.2c7.4,0,11.3,2.7,14.7,5.2
						c3.3,2.3,6.1,4.3,12,4.3c5.9,0,8.7-2,12-4.3c3.4-2.4,7.2-5.2,14.7-5.2c7.4,0,11.3,2.7,14.7,5.2c3.3,2.3,6.1,4.3,12,4.3
						c5.9,0,8.7-2,12-4.3c3.4-2.4,7.2-5.2,14.7-5.2c7.4,0,11.3,2.7,14.7,5.2c3.3,2.3,6.1,4.3,12,4.3c5.9,0,8.7-2,12-4.3
						c3.4-2.4,7.2-5.2,14.7-5.2c7.4,0,11.3,2.7,14.7,5.2c3.3,2.3,6.1,4.3,12,4.3c5.9,0,8.7-2,12-4.3c3.4-2.4,7.2-5.2,14.7-5.2
						c7.4,0,11.3,2.7,14.7,5.2c3.3,2.3,6.1,4.3,12,4.3c5.6,0,8.4-1.8,11.5-4L539.1,137.5z"/>
				</g>
				<g>
					<path class="st3" d="M529.9,121c-1.2,0.2-2.6,0.3-4.1,0.3c-7.4,0-11.3-2.7-14.7-5.2c-3.3-2.3-6.1-4.3-12-4.3
						c-5.9,0-8.7,2-12,4.3c-3.4,2.4-7.2,5.2-14.7,5.2c-7.4,0-11.3-2.7-14.7-5.2c-3.3-2.3-6.1-4.3-12-4.3c-5.9,0-8.7,2-12,4.3
						c-3.4,2.4-7.2,5.2-14.7,5.2c-7.4,0-11.3-2.7-14.7-5.2c-3.3-2.3-6.1-4.3-12-4.3c-5.9,0-8.7,2-12,4.3c-3.4,2.4-7.2,5.2-14.7,5.2
						c-7.4,0-11.3-2.7-14.7-5.2c-3.3-2.3-6.1-4.3-12-4.3c-5.9,0-8.7,2-12,4.3c-3.4,2.4-7.2,5.2-14.7,5.2c-7.4,0-11.3-2.7-14.7-5.2
						c-3.3-2.3-6.1-4.3-12-4.3c-5.9,0-8.7,2-12,4.3c-3.4,2.4-7.2,5.2-14.7,5.2c-7.4,0-11.3-2.7-14.7-5.2c-3.3-2.3-6.1-4.3-12-4.3
						c-5.9,0-8.7,2-12,4.3c-3.4,2.4-7.2,5.2-14.7,5.2s-11.3-2.7-14.7-5.2c-3.3-2.3-6.1-4.3-12-4.3c-5.9,0-8.7,2-12,4.3
						c-3.4,2.4-7.2,5.2-14.7,5.2s-11.3-2.7-14.7-5.2c-3.3-2.3-6.1-4.3-12-4.3c-5.9,0-8.7,2-12,4.3c-3.4,2.4-7.2,5.2-14.7,5.2
						s-11.3-2.7-14.7-5.2c-3.3-2.3-6.1-4.3-12-4.3c-5.9,0-8.7,2-12,4.3c-3.4,2.4-7.2,5.2-14.7,5.2c-0.3,0-0.5,0-0.8,0l1.9-3.4
						c5.2-0.2,7.8-2.1,10.9-4.3c3.4-2.4,7.2-5.2,14.7-5.2c7.4,0,11.3,2.7,14.7,5.2c3.2,2.3,6.1,4.3,12,4.3c5.9,0,8.7-2,12-4.3
						c3.4-2.4,7.2-5.2,14.7-5.2s11.3,2.7,14.7,5.2c3.3,2.3,6.1,4.3,12,4.3c5.9,0,8.7-2,12-4.3c3.4-2.4,7.2-5.2,14.7-5.2
						s11.3,2.7,14.7,5.2c3.3,2.3,6.1,4.3,12,4.3c5.9,0,8.7-2,12-4.3c3.4-2.4,7.2-5.2,14.7-5.2s11.3,2.7,14.7,5.2
						c3.3,2.3,6.1,4.3,12,4.3c5.9,0,8.7-2,12-4.3c3.4-2.4,7.2-5.2,14.7-5.2c7.4,0,11.3,2.7,14.7,5.2c3.3,2.3,6.1,4.3,12,4.3
						c5.9,0,8.7-2,12-4.3c3.4-2.4,7.2-5.2,14.7-5.2c7.4,0,11.3,2.7,14.7,5.2c3.3,2.3,6.1,4.3,12,4.3c5.9,0,8.7-2,12-4.3
						c3.4-2.4,7.2-5.2,14.7-5.2c7.4,0,11.3,2.7,14.7,5.2c3.3,2.3,6.1,4.3,12,4.3c5.9,0,8.7-2,12-4.3c3.4-2.4,7.2-5.2,14.7-5.2
						c7.4,0,11.3,2.7,14.7,5.2c3.3,2.3,6.1,4.3,12,4.3c5.9,0,8.7-2,12-4.3c3.4-2.4,7.2-5.2,14.7-5.2c7.4,0,11.3,2.7,14.7,5.2
						c3.3,2.3,6.1,4.3,12,4.3c0.8,0,1.6,0,2.3-0.1L529.9,121z"/>
				</g>
				<g>
					<path class="st3" d="M517.9,99.6c-2.8-1-4.9-2.5-6.8-3.9c-3.3-2.3-6.1-4.3-12-4.3c-5.9,0-8.7,2-12,4.3
						c-3.4,2.4-7.2,5.1-14.7,5.1c-7.4,0-11.3-2.7-14.7-5.1c-3.3-2.3-6.1-4.3-12-4.3c-5.9,0-8.7,2-12,4.3c-3.4,2.4-7.2,5.1-14.7,5.1
						c-7.4,0-11.3-2.7-14.7-5.1c-3.3-2.3-6.1-4.3-12-4.3c-5.9,0-8.7,2-12,4.3c-3.4,2.4-7.2,5.1-14.7,5.1c-7.4,0-11.3-2.7-14.7-5.1
						c-3.3-2.3-6.1-4.3-12-4.3c-5.9,0-8.7,2-12,4.3c-3.4,2.4-7.2,5.1-14.7,5.1c-7.4,0-11.3-2.7-14.7-5.1c-3.3-2.3-6.1-4.3-12-4.3
						c-5.9,0-8.7,2-12,4.3c-3.4,2.4-7.2,5.1-14.7,5.1c-7.4,0-11.3-2.7-14.7-5.1c-3.3-2.3-6.1-4.3-12-4.3c-5.9,0-8.7,2-12,4.3
						c-3.4,2.4-7.2,5.1-14.7,5.1s-11.3-2.7-14.7-5.1c-3.3-2.3-6.1-4.3-12-4.3c-5.9,0-8.7,2-12,4.3c-3.4,2.4-7.2,5.1-14.7,5.1
						s-11.3-2.7-14.7-5.1c-3.3-2.3-6.1-4.3-12-4.3c-5.9,0-8.7,2-12,4.3c-3.4,2.4-7.2,5.1-14.7,5.1S88.4,98.2,85,95.8
						c-3.3-2.3-6.1-4.3-12-4.3c-5.9,0-8.7,2-12,4.3c-0.7,0.5-1.3,0.9-2,1.4l3.8-6.8c2.6-1.3,5.7-2.3,10.2-2.3
						c7.4,0,11.3,2.7,14.7,5.2c3.2,2.3,6.1,4.3,12,4.3c5.9,0,8.7-2,12-4.3c3.4-2.4,7.2-5.2,14.7-5.2s11.3,2.7,14.7,5.2
						c3.3,2.3,6.1,4.3,12,4.3c5.9,0,8.7-2,12-4.3c3.4-2.4,7.2-5.2,14.7-5.2s11.3,2.7,14.7,5.2c3.3,2.3,6.1,4.3,12,4.3
						c5.9,0,8.7-2,12-4.3c3.4-2.4,7.2-5.2,14.7-5.2s11.3,2.7,14.7,5.2c3.3,2.3,6.1,4.3,12,4.3c5.9,0,8.7-2,12-4.3
						c3.4-2.4,7.2-5.2,14.7-5.2c7.4,0,11.3,2.7,14.7,5.2c3.3,2.3,6.1,4.3,12,4.3c5.9,0,8.7-2,12-4.3c3.4-2.4,7.2-5.2,14.7-5.2
						c7.4,0,11.3,2.7,14.7,5.2c3.3,2.3,6.1,4.3,12,4.3c5.9,0,8.7-2,12-4.3c3.4-2.4,7.2-5.2,14.7-5.2c7.4,0,11.3,2.7,14.7,5.2
						c3.3,2.3,6.1,4.3,12,4.3c5.9,0,8.7-2,12-4.3c3.4-2.4,7.2-5.2,14.7-5.2c7.4,0,11.3,2.7,14.7,5.2c3.3,2.3,6.1,4.3,12,4.3
						c5.9,0,8.7-2,12-4.3c3.4-2.4,7.2-5.2,14.7-5.2c7.4,0,11.3,2.7,14.7,5.2c0.3,0.2,0.6,0.4,0.9,0.6L517.9,99.6z"/>
				</g>
				<g>
					<path class="st3" d="M502.1,71.3c-0.9-0.1-1.9-0.2-3-0.2c-5.9,0-8.7,2-12,4.3c-3.4,2.4-7.2,5.2-14.7,5.2
						c-7.4,0-11.3-2.7-14.7-5.2c-3.3-2.3-6.1-4.3-12-4.3c-5.9,0-8.7,2-12,4.3c-3.4,2.4-7.2,5.2-14.7,5.2c-7.4,0-11.3-2.7-14.7-5.2
						c-3.3-2.3-6.1-4.3-12-4.3c-5.9,0-8.7,2-12,4.3c-3.4,2.4-7.2,5.2-14.7,5.2c-7.4,0-11.3-2.7-14.7-5.2c-3.3-2.3-6.1-4.3-12-4.3
						c-5.9,0-8.7,2-12,4.3c-3.4,2.4-7.2,5.2-14.7,5.2c-7.4,0-11.3-2.7-14.7-5.2c-3.3-2.3-6.1-4.3-12-4.3c-5.9,0-8.7,2-12,4.3
						c-3.4,2.4-7.2,5.2-14.7,5.2c-7.4,0-11.3-2.7-14.7-5.2c-3.3-2.3-6.1-4.3-12-4.3c-5.9,0-8.7,2-12,4.3c-3.4,2.4-7.2,5.2-14.7,5.2
						s-11.3-2.7-14.7-5.2c-3.3-2.3-6.1-4.3-12-4.3c-5.9,0-8.7,2-12,4.3c-3.4,2.4-7.2,5.2-14.7,5.2s-11.3-2.7-14.7-5.2
						c-3.3-2.3-6.1-4.3-12-4.3c-5.9,0-8.7,2-12,4.3c-3.4,2.4-7.2,5.2-14.7,5.2S88.4,77.8,85,75.4c-3.1-2.2-5.9-4.2-11.4-4.3l1.8-3.2
						c5.9,0.5,9.3,2.9,12.3,5c3.2,2.3,6.1,4.3,12,4.3c5.9,0,8.7-2,12-4.3c3.4-2.4,7.2-5.2,14.7-5.2s11.3,2.7,14.7,5.2
						c3.3,2.3,6.1,4.3,12,4.3c5.9,0,8.7-2,12-4.3c3.4-2.4,7.2-5.2,14.7-5.2s11.3,2.7,14.7,5.2c3.3,2.3,6.1,4.3,12,4.3
						c5.9,0,8.7-2,12-4.3c3.4-2.4,7.2-5.2,14.7-5.2s11.3,2.7,14.7,5.2c3.3,2.3,6.1,4.3,12,4.3c5.9,0,8.7-2,12-4.3
						c3.4-2.4,7.2-5.2,14.7-5.2c7.4,0,11.3,2.7,14.7,5.2c3.3,2.3,6.1,4.3,12,4.3c5.9,0,8.7-2,12-4.3c3.4-2.4,7.2-5.2,14.7-5.2
						c7.4,0,11.3,2.7,14.7,5.2c3.3,2.3,6.1,4.3,12,4.3c5.9,0,8.7-2,12-4.3c3.4-2.4,7.2-5.2,14.7-5.2c7.4,0,11.3,2.7,14.7,5.2
						c3.3,2.3,6.1,4.3,12,4.3c5.9,0,8.7-2,12-4.3c3.4-2.4,7.2-5.2,14.7-5.2c7.4,0,11.3,2.7,14.7,5.2c3.3,2.3,6.1,4.3,12,4.3
						c5.9,0,8.7-2,12-4.3c3.4-2.4,7.2-5.2,14.7-5.2c0.3,0,0.7,0,1,0L502.1,71.3z"/>
				</g>
				<g>
					<path class="st3" d="M491.5,52.3c-1.6,0.7-2.9,1.7-4.4,2.7c-3.4,2.4-7.2,5.2-14.7,5.2c-7.4,0-11.3-2.7-14.7-5.2
						c-3.3-2.3-6.1-4.3-12-4.3c-5.9,0-8.7,2-12,4.3c-3.4,2.4-7.2,5.2-14.7,5.2c-7.4,0-11.3-2.7-14.7-5.2c-3.3-2.3-6.1-4.3-12-4.3
						c-5.9,0-8.7,2-12,4.3c-3.4,2.4-7.2,5.2-14.7,5.2c-7.4,0-11.3-2.7-14.7-5.2c-3.3-2.3-6.1-4.3-12-4.3c-5.9,0-8.7,2-12,4.3
						c-3.4,2.4-7.2,5.2-14.7,5.2c-7.4,0-11.3-2.7-14.7-5.2c-3.3-2.3-6.1-4.3-12-4.3c-5.9,0-8.7,2-12,4.3c-3.4,2.4-7.2,5.2-14.7,5.2
						c-7.4,0-11.3-2.7-14.7-5.2c-3.3-2.3-6.1-4.3-12-4.3c-5.9,0-8.7,2-12,4.3c-3.4,2.4-7.2,5.2-14.7,5.2s-11.3-2.7-14.7-5.2
						c-3.3-2.3-6.1-4.3-12-4.3c-5.9,0-8.7,2-12,4.3c-3.4,2.4-7.2,5.2-14.7,5.2s-11.3-2.7-14.7-5.2c-3.3-2.3-6.1-4.3-12-4.3
						c-5.9,0-8.7,2-12,4.3c-3.4,2.4-7.2,5.2-14.7,5.2S88.4,57.4,85,55c-0.6-0.4-1.2-0.8-1.8-1.2l1.8-3.1c1,0.6,1.8,1.2,2.7,1.8
						c3.2,2.3,6.1,4.3,12,4.3c5.9,0,8.7-2,12-4.3c3.4-2.4,7.2-5.2,14.7-5.2s11.3,2.7,14.7,5.2c3.3,2.3,6.1,4.3,12,4.3
						c5.9,0,8.7-2,12-4.3c3.4-2.4,7.2-5.2,14.7-5.2s11.3,2.7,14.7,5.2c3.3,2.3,6.1,4.3,12,4.3c5.9,0,8.7-2,12-4.3
						c3.4-2.4,7.2-5.2,14.7-5.2s11.3,2.7,14.7,5.2c3.3,2.3,6.1,4.3,12,4.3c5.9,0,8.7-2,12-4.3c3.4-2.4,7.2-5.2,14.7-5.2
						c7.4,0,11.3,2.7,14.7,5.2c3.3,2.3,6.1,4.3,12,4.3c5.9,0,8.7-2,12-4.3c3.4-2.4,7.2-5.2,14.7-5.2c7.4,0,11.3,2.7,14.7,5.2
						c3.3,2.3,6.1,4.3,12,4.3c5.9,0,8.7-2,12-4.3c3.4-2.4,7.2-5.2,14.7-5.2c7.4,0,11.3,2.7,14.7,5.2c3.3,2.3,6.1,4.3,12,4.3
						c5.9,0,8.7-2,12-4.3c3.4-2.4,7.2-5.2,14.7-5.2c7.4,0,11.3,2.7,14.7,5.2c3.3,2.3,6.1,4.3,12,4.3c5.9,0,8.7-2,12-4.3
						c1.6-1.1,3.2-2.3,5.3-3.3L491.5,52.3z"/>
				</g>
				<g>
					<path class="st3" d="M483.2,37.2c-2.6,1.4-5.9,2.5-10.6,2.5c-7.4,0-11.3-2.7-14.7-5.1c-3.3-2.3-6.1-4.3-12-4.3
						c-5.9,0-8.7,2-12,4.3c-3.4,2.4-7.2,5.1-14.7,5.1c-7.4,0-11.3-2.7-14.7-5.1c-3.3-2.3-6.1-4.3-12-4.3c-5.9,0-8.7,2-12,4.3
						c-3.4,2.4-7.2,5.1-14.7,5.1c-7.4,0-11.3-2.7-14.7-5.1c-3.3-2.3-6.1-4.3-12-4.3c-5.9,0-8.7,2-12,4.3c-3.4,2.4-7.2,5.1-14.7,5.1
						c-7.4,0-11.3-2.7-14.7-5.1c-3.3-2.3-6.1-4.3-12-4.3c-5.9,0-8.7,2-12,4.3c-3.4,2.4-7.2,5.1-14.7,5.1c-7.4,0-11.3-2.7-14.7-5.1
						c-3.3-2.3-6.1-4.3-12-4.3c-5.9,0-8.7,2-12,4.3c-3.4,2.4-7.2,5.1-14.7,5.1s-11.3-2.7-14.7-5.1c-3.3-2.3-6.1-4.3-12-4.3
						c-5.9,0-8.7,2-12,4.3c-3.4,2.4-7.2,5.1-14.7,5.1s-11.3-2.7-14.7-5.1c-3.3-2.3-6.1-4.3-12-4.3c-5.9,0-8.7,2-12,4.3
						c-3.4,2.4-7.2,5.1-14.7,5.1c-3.2,0-5.7-0.5-7.9-1.3l1.7-3c1.7,0.6,3.6,1,6.2,1c5.9,0,8.7-2,12-4.3c3.4-2.4,7.2-5.2,14.7-5.2
						s11.3,2.7,14.7,5.2c3.3,2.3,6.1,4.3,12,4.3c5.9,0,8.7-2,12-4.3c3.4-2.4,7.2-5.2,14.7-5.2s11.3,2.7,14.7,5.2
						c3.3,2.3,6.1,4.3,12,4.3c5.9,0,8.7-2,12-4.3c3.4-2.4,7.2-5.2,14.7-5.2s11.3,2.7,14.7,5.2c3.3,2.3,6.1,4.3,12,4.3
						c5.9,0,8.7-2,12-4.3c3.4-2.4,7.2-5.2,14.7-5.2c7.4,0,11.3,2.7,14.7,5.2c3.3,2.3,6.1,4.3,12,4.3c5.9,0,8.7-2,12-4.3
						c3.4-2.4,7.2-5.2,14.7-5.2c7.4,0,11.3,2.7,14.7,5.2c3.3,2.3,6.1,4.3,12,4.3c5.9,0,8.7-2,12-4.3c3.4-2.4,7.2-5.2,14.7-5.2
						c7.4,0,11.3,2.7,14.7,5.2c3.3,2.3,6.1,4.3,12,4.3c5.9,0,8.7-2,12-4.3c3.4-2.4,7.2-5.2,14.7-5.2c7.4,0,11.3,2.7,14.7,5.2
						c3.3,2.3,6.1,4.3,12,4.3c4,0,6.6-0.9,8.9-2.3L483.2,37.2z"/>
				</g>
				<g>
					<path class="st3" d="M473.2,19.4c-0.2,0-0.4,0-0.7,0c-7.4,0-11.3-2.7-14.7-5.2c-3.3-2.3-6.1-4.3-12-4.3c-5.9,0-8.7,2-12,4.3
						c-3.4,2.4-7.2,5.2-14.7,5.2c-7.4,0-11.3-2.7-14.7-5.2c-3.3-2.3-6.1-4.3-12-4.3c-5.9,0-8.7,2-12,4.3c-3.4,2.4-7.2,5.2-14.7,5.2
						c-7.4,0-11.3-2.7-14.7-5.2c-3.3-2.3-6.1-4.3-12-4.3c-5.9,0-8.7,2-12,4.3c-3.4,2.4-7.2,5.2-14.7,5.2c-7.4,0-11.3-2.7-14.7-5.2
						c-3.3-2.3-6.1-4.3-12-4.3c-5.9,0-8.7,2-12,4.3c-3.4,2.4-7.2,5.2-14.7,5.2c-7.4,0-11.3-2.7-14.7-5.2c-3.3-2.3-6.1-4.3-12-4.3
						c-5.9,0-8.7,2-12,4.3c-3.4,2.4-7.2,5.2-14.7,5.2s-11.3-2.7-14.7-5.2c-3.3-2.3-6.1-4.3-12-4.3c-5.9,0-8.7,2-12,4.3
						c-3.4,2.4-7.2,5.2-14.7,5.2s-11.3-2.7-14.7-5.2c-3.3-2.3-6.1-4.3-12-4.3c-5.9,0-8.7,2-12,4.3c-2.9,2.1-6.2,4.4-11.8,5l2.1-3.8
						c2.9-0.8,4.8-2.2,7-3.7c3.4-2.4,7.2-5.2,14.7-5.2s11.3,2.7,14.7,5.2c3.3,2.3,6.1,4.3,12,4.3c5.9,0,8.7-2,12-4.3
						c3.4-2.4,7.2-5.2,14.7-5.2s11.3,2.7,14.7,5.2c3.3,2.3,6.1,4.3,12,4.3c5.9,0,8.7-2,12-4.3c3.4-2.4,7.2-5.2,14.7-5.2
						s11.3,2.7,14.7,5.2c3.3,2.3,6.1,4.3,12,4.3c5.9,0,8.7-2,12-4.3c3.4-2.4,7.2-5.2,14.7-5.2c7.4,0,11.3,2.7,14.7,5.2
						c3.3,2.3,6.1,4.3,12,4.3c5.9,0,8.7-2,12-4.3c3.4-2.4,7.2-5.2,14.7-5.2c7.4,0,11.3,2.7,14.7,5.2c3.3,2.3,6.1,4.3,12,4.3
						c5.9,0,8.7-2,12-4.3c3.4-2.4,7.2-5.2,14.7-5.2c7.4,0,11.3,2.7,14.7,5.2c3.3,2.3,6.1,4.3,12,4.3c5.9,0,8.7-2,12-4.3
						c3.4-2.4,7.2-5.2,14.7-5.2c7.4,0,11.3,2.7,14.7,5.2c3,2.2,5.7,4,10.8,4.3L473.2,19.4z"/>
				</g>
			</g>
		</g>
	</g>
	<g>
		<polygon class="st4" points="387.9,123.2 387.9,145.5 186.9,145.5 186.9,123.2 194.4,116.2 196.6,114.1 210,101.5 212.2,99.4 
			225.6,86.8 227.8,84.8 241.2,72.2 243.4,70.1 256.8,57.5 259,55.4 272.4,42.8 274.6,40.8 287.1,29 299.7,40.8 301.9,42.8 
			315.4,55.4 317.6,57.5 331.1,70.1 333.3,72.2 346.8,84.8 349,86.8 362.5,99.4 364.7,101.5 378.2,114.1 380.4,116.2 		"/>
		<g>
			<rect x="186.9" y="128.8" class="st5" width="201" height="2.1"/>
			<polygon class="st5" points="380.4,116.2 194.4,116.2 196.6,114.1 378.2,114.1 			"/>
			<polygon class="st5" points="364.7,101.5 210,101.5 212.2,99.4 362.5,99.4 			"/>
			<polygon class="st5" points="349,86.8 225.6,86.8 227.8,84.8 346.8,84.8 			"/>
			<polygon class="st5" points="333.3,72.2 241.2,72.2 243.4,70.1 331.1,70.1 			"/>
			<polygon class="st5" points="317.6,57.5 256.8,57.5 259,55.4 315.4,55.4 			"/>
			<polygon class="st5" points="301.9,42.8 272.4,42.8 274.6,40.8 299.7,40.8 			"/>
		</g>
		<g>
			<g>
				<path class="st1" d="M396.2,136.8l-109.1-102l-108.5,102c-3.4,3.2-8.8,3-12-0.4l0,0c-3.2-3.4-3-8.8,0.4-12L287.1,11.5
					l120.8,112.9c3.4,3.2,3.6,8.6,0.4,12l0,0C405,139.8,399.7,140,396.2,136.8z"/>
			</g>
		</g>
	</g>
</g>
</svg>
