<?xml version="1.0" encoding="utf-8"?>
<!-- Generator: Adobe Illustrator 21.0.0, SVG Export Plug-In . SVG Version: 6.00 Build 0)  -->
<svg version="1.1" id="Capa_1" xmlns="http://www.w3.org/2000/svg" xmlns:xlink="http://www.w3.org/1999/xlink" x="0px" y="0px"
	 viewBox="0 0 574.8 164.7" style="enable-background:new 0 0 574.8 164.7;" xml:space="preserve">
<style type="text/css">
	.st0{fill:#D15A09;}
	.st1{fill:#AF4904;}
	.st2{opacity:0.2;clip-path:url(#SVGID_2_);}
	.st3{clip-path:url(#SVGID_2_);}
	.st4{fill:#F69652;}
	.st5{fill:#F47C27;}
</style>
<g>
	<polygon class="st0" points="545.9,148.8 28.9,148.8 287.4,0 	"/>
	<rect y="145.5" class="st1" width="574.8" height="19.2"/>
	<g>
		<defs>
			<polygon id="SVGID_1_" points="545.9,148.8 28.9,148.8 287.4,0 			"/>
		</defs>
		<clipPath id="SVGID_2_">
			<use xlink:href="#SVGID_1_"  style="overflow:visible;"/>
		</clipPath>
		<g class="st2">
			<path d="M87.6,133.2h-2.1c-7.1,0-12.9-5.8-12.9-12.9V97.7h27.9v22.5C100.5,127.4,94.7,133.2,87.6,133.2z"/>
			<path d="M124.2,133.2h-2.1c-7.1,0-12.9-5.8-12.9-12.9V97.7h27.9v22.5C137.1,127.4,131.3,133.2,124.2,133.2z"/>
			<path d="M160.6,133.2h-2.1c-7.1,0-12.9-5.8-12.9-12.9V97.7h27.9v22.5C173.5,127.4,167.7,133.2,160.6,133.2z"/>
			<path d="M197.2,133.2h-2.1c-7.1,0-12.9-5.8-12.9-12.9V97.7h27.9v22.5C210.1,127.4,204.3,133.2,197.2,133.2z"/>
			<path d="M233.6,133.2h-2.1c-7.1,0-12.9-5.8-12.9-12.9V97.7h27.9v22.5C246.5,127.4,240.8,133.2,233.6,133.2z"/>
			<path d="M270.2,133.2h-2.1c-7.1,0-12.9-5.8-12.9-12.9V97.7h27.9v22.5C283.1,127.4,277.4,133.2,270.2,133.2z"/>
			<path d="M306.7,133.2h-2.1c-7.1,0-12.9-5.8-12.9-12.9V97.7h27.9v22.5C319.6,127.4,313.8,133.2,306.7,133.2z"/>
			<path d="M343.3,133.2h-2.1c-7.1,0-12.9-5.8-12.9-12.9V97.7h27.9v22.5C356.2,127.4,350.4,133.2,343.3,133.2z"/>
			<path d="M379.7,133.2h-2.1c-7.1,0-12.9-5.8-12.9-12.9V97.7h27.9v22.5C392.6,127.4,386.8,133.2,379.7,133.2z"/>
			<path d="M416.3,133.2h-2.1c-7.1,0-12.9-5.8-12.9-12.9V97.7h27.9v22.5C429.2,127.4,423.4,133.2,416.3,133.2z"/>
			<path d="M452.7,133.2h-2.1c-7.1,0-12.9-5.8-12.9-12.9V97.7h27.9v22.5C465.6,127.4,459.9,133.2,452.7,133.2z"/>
			<path d="M489.3,133.2h-2.1c-7.1,0-12.9-5.8-12.9-12.9V97.7h27.9v22.5C502.2,127.4,496.5,133.2,489.3,133.2z"/>
			<path d="M160.6,88.2h-2.1c-7.1,0-12.9-5.8-12.9-12.9V52.7h27.9v22.5C173.5,82.4,167.7,88.2,160.6,88.2z"/>
			<path d="M197.2,88.2h-2.1c-7.1,0-12.9-5.8-12.9-12.9V52.7h27.9v22.5C210.1,82.4,204.3,88.2,197.2,88.2z"/>
			<path d="M233.6,88.2h-2.1c-7.1,0-12.9-5.8-12.9-12.9V52.7h27.9v22.5C246.5,82.4,240.8,88.2,233.6,88.2z"/>
			<path d="M270.2,88.2h-2.1c-7.1,0-12.9-5.8-12.9-12.9V52.7h27.9v22.5C283.1,82.4,277.4,88.2,270.2,88.2z"/>
			<path d="M306.7,88.2h-2.1c-7.1,0-12.9-5.8-12.9-12.9V52.7h27.9v22.5C319.6,82.4,313.8,88.2,306.7,88.2z"/>
			<path d="M343.3,88.2h-2.1c-7.1,0-12.9-5.8-12.9-12.9V52.7h27.9v22.5C356.2,82.4,350.4,88.2,343.3,88.2z"/>
			<path d="M379.7,88.2h-2.1c-7.1,0-12.9-5.8-12.9-12.9V52.7h27.9v22.5C392.6,82.4,386.8,88.2,379.7,88.2z"/>
			<path d="M416.3,88.2h-2.1c-7.1,0-12.9-5.8-12.9-12.9V52.7h27.9v22.5C429.2,82.4,423.4,88.2,416.3,88.2z"/>
			<path d="M233.6,44.2h-2.1c-7.1,0-12.9-5.8-12.9-12.9V8.7h27.9v22.5C246.5,38.4,240.8,44.2,233.6,44.2z"/>
			<path d="M270.2,44.2h-2.1c-7.1,0-12.9-5.8-12.9-12.9V8.7h27.9v22.5C283.1,38.4,277.4,44.2,270.2,44.2z"/>
			<path d="M306.7,44.2h-2.1c-7.1,0-12.9-5.8-12.9-12.9V8.7h27.9v22.5C319.6,38.4,313.8,44.2,306.7,44.2z"/>
			<path d="M343.3,44.2h-2.1c-7.1,0-12.9-5.8-12.9-12.9V8.7h27.9v22.5C356.2,38.4,350.4,44.2,343.3,44.2z"/>
		</g>
		<g class="st3">
			<path class="st4" d="M87.6,130.2h-2.1c-7.1,0-12.9-5.8-12.9-12.9V94.7h27.9v22.5C100.5,124.4,94.7,130.2,87.6,130.2z"/>
			<path class="st5" d="M124.2,130.2h-2.1c-7.1,0-12.9-5.8-12.9-12.9V94.7h27.9v22.5C137.1,124.4,131.3,130.2,124.2,130.2z"/>
			<path class="st4" d="M160.6,130.2h-2.1c-7.1,0-12.9-5.8-12.9-12.9V94.7h27.9v22.5C173.5,124.4,167.7,130.2,160.6,130.2z"/>
			<path class="st5" d="M197.2,130.2h-2.1c-7.1,0-12.9-5.8-12.9-12.9V94.7h27.9v22.5C210.1,124.4,204.3,130.2,197.2,130.2z"/>
			<path class="st4" d="M233.6,130.2h-2.1c-7.1,0-12.9-5.8-12.9-12.9V94.7h27.9v22.5C246.5,124.4,240.8,130.2,233.6,130.2z"/>
			<path class="st5" d="M270.2,130.2h-2.1c-7.1,0-12.9-5.8-12.9-12.9V94.7h27.9v22.5C283.1,124.4,277.4,130.2,270.2,130.2z"/>
			<path class="st4" d="M306.7,130.2h-2.1c-7.1,0-12.9-5.8-12.9-12.9V94.7h27.9v22.5C319.6,124.4,313.8,130.2,306.7,130.2z"/>
			<path class="st5" d="M343.3,130.2h-2.1c-7.1,0-12.9-5.8-12.9-12.9V94.7h27.9v22.5C356.2,124.4,350.4,130.2,343.3,130.2z"/>
			<path class="st4" d="M379.7,130.2h-2.1c-7.1,0-12.9-5.8-12.9-12.9V94.7h27.9v22.5C392.6,124.4,386.8,130.2,379.7,130.2z"/>
			<path class="st5" d="M416.3,130.2h-2.1c-7.1,0-12.9-5.8-12.9-12.9V94.7h27.9v22.5C429.2,124.4,423.4,130.2,416.3,130.2z"/>
			<path class="st4" d="M452.7,130.2h-2.1c-7.1,0-12.9-5.8-12.9-12.9V94.7h27.9v22.5C465.6,124.4,459.9,130.2,452.7,130.2z"/>
			<path class="st5" d="M489.3,130.2h-2.1c-7.1,0-12.9-5.8-12.9-12.9V94.7h27.9v22.5C502.2,124.4,496.5,130.2,489.3,130.2z"/>
			<path class="st4" d="M160.6,85.2h-2.1c-7.1,0-12.9-5.8-12.9-12.9V49.7h27.9v22.5C173.5,79.4,167.7,85.2,160.6,85.2z"/>
			<path class="st5" d="M197.2,85.2h-2.1c-7.1,0-12.9-5.8-12.9-12.9V49.7h27.9v22.5C210.1,79.4,204.3,85.2,197.2,85.2z"/>
			<path class="st4" d="M233.6,85.2h-2.1c-7.1,0-12.9-5.8-12.9-12.9V49.7h27.9v22.5C246.5,79.4,240.8,85.2,233.6,85.2z"/>
			<path class="st5" d="M270.2,85.2h-2.1c-7.1,0-12.9-5.8-12.9-12.9V49.7h27.9v22.5C283.1,79.4,277.4,85.2,270.2,85.2z"/>
			<path class="st4" d="M306.7,85.2h-2.1c-7.1,0-12.9-5.8-12.9-12.9V49.7h27.9v22.5C319.6,79.4,313.8,85.2,306.7,85.2z"/>
			<path class="st5" d="M343.3,85.2h-2.1c-7.1,0-12.9-5.8-12.9-12.9V49.7h27.9v22.5C356.2,79.4,350.4,85.2,343.3,85.2z"/>
			<path class="st4" d="M379.7,85.2h-2.1c-7.1,0-12.9-5.8-12.9-12.9V49.7h27.9v22.5C392.6,79.4,386.8,85.2,379.7,85.2z"/>
			<path class="st5" d="M416.3,85.2h-2.1c-7.1,0-12.9-5.8-12.9-12.9V49.7h27.9v22.5C429.2,79.4,423.4,85.2,416.3,85.2z"/>
			<path class="st4" d="M233.6,41.2h-2.1c-7.1,0-12.9-5.8-12.9-12.9V5.7h27.9v22.5C246.5,35.4,240.8,41.2,233.6,41.2z"/>
			<path class="st5" d="M270.2,41.2h-2.1c-7.1,0-12.9-5.8-12.9-12.9V5.7h27.9v22.5C283.1,35.4,277.4,41.2,270.2,41.2z"/>
			<path class="st4" d="M306.7,41.2h-2.1c-7.1,0-12.9-5.8-12.9-12.9V5.7h27.9v22.5C319.6,35.4,313.8,41.2,306.7,41.2z"/>
			<path class="st5" d="M343.3,41.2h-2.1c-7.1,0-12.9-5.8-12.9-12.9V5.7h27.9v22.5C356.2,35.4,350.4,41.2,343.3,41.2z"/>
		</g>
	</g>
</g>
</svg>
