<?xml version="1.0" encoding="utf-8"?>
<!-- Generator: Adobe Illustrator 21.0.0, SVG Export Plug-In . SVG Version: 6.00 Build 0)  -->
<svg version="1.1" id="Capa_1" xmlns="http://www.w3.org/2000/svg" xmlns:xlink="http://www.w3.org/1999/xlink" x="0px" y="0px"
	 viewBox="0 0 574.8 164.7" style="enable-background:new 0 0 574.8 164.7;" xml:space="preserve">
<style type="text/css">
	.st0{fill:#ED1C24;}
	.st1{fill:#028982;}
	.st2{fill:#53BBBC;}
	.st3{fill:#9F513A;}
	.st4{fill:#006059;}
	.st5{fill-rule:evenodd;clip-rule:evenodd;fill:#009E9A;}
</style>
<g>
	<polygon class="st0" points="15.5,145.5 287.4,0 559.3,145.5 	"/>
	<g>
		<polygon class="st1" points="559.3,145.5 15.5,145.5 287.4,0 		"/>
		<polygon class="st2" points="514.4,136.1 60.4,136.1 287.4,14.6 		"/>
		<polygon class="st3" points="400.2,75 378.4,63.4 314.3,63.4 343.1,44.5 328.2,36.5 296.8,55.9 296.8,19.7 287.4,14.6 278,19.7 
			278,57.3 245.4,37.1 231.1,44.8 261.1,63.4 196.4,63.4 192,65.7 174.6,75 		"/>
	</g>
	<g>
		<g>
			<rect y="145.5" class="st4" width="574.8" height="19.2"/>
		</g>
	</g>
	<g>
		<g>
			<g>
				<path class="st5" d="M151.6,114h30.8c2.3,0,4.2-1.9,4.2-4.2v-6.4c0-2.3-1.9-4.2-4.2-4.2h-30.8c-2.3,0-4.2,1.9-4.2,4.2v6.4
					C147.4,112.1,149.2,114,151.6,114z"/>
				<path class="st5" d="M121.3,135.3h30.8c2.3,0,4.2-1.9,4.2-4.2v-6.4c0-2.3-1.9-4.2-4.2-4.2h-30.8c-2.3,0-4.2,1.9-4.2,4.2v6.4
					C117.1,133.5,119,135.3,121.3,135.3z"/>
			</g>
			<g>
				<path class="st5" d="M288.9,92.6h30.8c2.3,0,4.2-1.9,4.2-4.2V82c0-2.3-1.9-4.2-4.2-4.2h-30.8c-2.3,0-4.2,1.9-4.2,4.2v6.4
					C284.7,90.7,286.6,92.6,288.9,92.6z"/>
				<path class="st5" d="M258.7,114h30.8c2.3,0,4.2-1.9,4.2-4.2v-6.4c0-2.3-1.9-4.2-4.2-4.2h-30.8c-2.3,0-4.2,1.9-4.2,4.2v6.4
					C254.5,112.1,256.3,114,258.7,114z"/>
			</g>
			<g>
				<path class="st5" d="M396.9,114h30.8c2.3,0,4.2-1.9,4.2-4.2v-6.4c0-2.3-1.9-4.2-4.2-4.2h-30.8c-2.3,0-4.2,1.9-4.2,4.2v6.4
					C392.7,112.1,394.6,114,396.9,114z"/>
				<path class="st5" d="M366.7,135.3h30.8c2.3,0,4.2-1.9,4.2-4.2v-6.4c0-2.3-1.9-4.2-4.2-4.2h-30.8c-2.3,0-4.2,1.9-4.2,4.2v6.4
					C362.5,133.5,364.3,135.3,366.7,135.3z"/>
			</g>
		</g>
	</g>
</g>
</svg>
