<?xml version="1.0" encoding="utf-8"?>
<!-- Generator: Adobe Illustrator 21.0.0, SVG Export Plug-In . SVG Version: 6.00 Build 0)  -->
<svg version="1.1" id="Capa_1" xmlns="http://www.w3.org/2000/svg" xmlns:xlink="http://www.w3.org/1999/xlink" x="0px" y="0px"
	 viewBox="0 0 249.997 61.34" style="enable-background:new 0 0 249.997 61.34;" xml:space="preserve">
<g>
	<g>
		<path style="opacity:0.2;fill-rule:evenodd;clip-rule:evenodd;" d="M7.756,8.636c-10.316,8.28-10.349,38.26-0.05,46.553
			c10.184,8.202,224.401,8.2,234.583,0c10.298-8.294,10.267-38.273-0.05-46.553C231.825,0.279,18.17,0.279,7.756,8.636z"/>
		<path style="fill-rule:evenodd;clip-rule:evenodd;fill:#FFFFFF;" d="M7.756,6.268c-10.316,8.28-10.349,38.26-0.05,46.553
			c10.184,8.202,224.401,8.2,234.583,0c10.298-8.294,10.267-38.273-0.05-46.553C231.825-2.089,18.17-2.089,7.756,6.268z"/>
		<path style="fill-rule:evenodd;clip-rule:evenodd;fill:#FEC31D;" d="M10.421,6.982c-9.346,7.504-9.375,34.664-0.044,42.178
			c9.227,7.431,220.018,7.431,229.243,0c9.331-7.513,9.302-34.674-0.044-42.178C230.14-0.589,19.857-0.589,10.421,6.982z"/>
		<path style="fill-rule:evenodd;clip-rule:evenodd;fill:#C96900;" d="M239.62,43.482c-9.227,7.43-220.017,7.43-229.243,0
			c-4.146-3.339-6.445-10.557-6.9-18.204c-0.565,9.534,1.733,19.723,6.9,23.882c9.225,7.431,220.018,7.431,229.243,0
			c5.167-4.16,7.465-14.348,6.898-23.882C246.065,32.925,243.766,40.143,239.62,43.482z"/>
		<path style="fill-rule:evenodd;clip-rule:evenodd;fill:#FFAC04;" d="M7.432,40.013c0.847,1.392,1.83,2.571,2.945,3.469
			c9.227,7.43,220.017,7.43,229.243,0c3.559-2.868,5.76-8.597,6.597-15.002C228.901,38.739,30.754,42.499,7.432,40.013z"/>
		<path style="fill-rule:evenodd;clip-rule:evenodd;fill:#FFD30E;" d="M10.421,6.982c-2.8,2.248-4.767,6.264-5.893,10.986
			c16.178-13.564,226.379-15.729,240.113-2.89c-1.166-3.451-2.857-6.322-5.064-8.095C230.14-0.591,19.855-0.591,10.421,6.982z"/>
		<path style="fill-rule:evenodd;clip-rule:evenodd;fill:#FFEF91;" d="M17.788,5.17c-3.972,0.908-7.19,3.118-7.19,4.934
			s3.218,2.553,7.19,1.645c3.97-0.908,7.188-3.118,7.188-4.935C24.976,4.999,21.758,4.262,17.788,5.17z"/>
		<path style="fill-rule:evenodd;clip-rule:evenodd;fill:#FFEF91;" d="M29.703,3.881c-2.239,0.112-4.263,0.985-4.522,1.951
			c-0.262,0.965,1.342,1.655,3.581,1.541C31,7.26,33.024,6.388,33.285,5.422C33.543,4.459,31.94,3.768,29.703,3.881z"/>
		<path style="fill-rule:evenodd;clip-rule:evenodd;fill:#FEE147;" d="M234.873,39.402c-2.507,0.982-4.323,2.758-4.059,3.966
			c0.266,1.208,2.512,1.392,5.02,0.411c2.509-0.982,4.325-2.757,4.059-3.966C239.629,38.605,237.379,38.421,234.873,39.402z"/>
		<path style="fill-rule:evenodd;clip-rule:evenodd;fill:#FEE147;" d="M246.217,28.48c-0.838,6.405-3.038,12.133-6.597,15.002
			c-9.227,7.43-220.017,7.43-229.243,0c-1.115-0.898-2.098-2.077-2.945-3.469c-2.305-3.784-3.623-9.144-3.955-14.735
			c-0.066,1.112-0.092,2.234-0.081,3.353c0.009-0.772,0.035-1.544,0.081-2.312c0.455,7.649,2.754,14.866,6.9,18.204
			c9.227,7.43,220.017,7.43,229.243,0c4.146-3.338,6.445-10.555,6.898-18.204c0.046,0.768,0.073,1.541,0.083,2.316
			c0.011-1.121-0.017-2.245-0.083-3.358C246.456,26.356,246.355,27.427,246.217,28.48z"/>
		<path style="fill-rule:evenodd;clip-rule:evenodd;fill:#E6E6E6;" d="M7.707,51.544c-5.026-4.046-7.591-13.256-7.703-22.588
			c-0.118,9.758,2.45,19.634,7.703,23.865c10.184,8.2,224.397,8.2,234.583,0c5.252-4.23,7.82-14.107,7.703-23.865
			c-0.112,9.332-2.679,18.543-7.703,22.588C232.108,59.745,17.889,59.745,7.707,51.544z"/>
		<g>
			<path style="fill:#FFFFFF;" d="M55.238,23.694c-0.361-2.69-1.744-3.945-4.148-3.765c-2.404,0.18-3.727,1.803-3.967,4.869
				c-0.03,0.376-0.046,0.691-0.046,0.946c0,2.57,0.932,4.472,2.796,5.703c0.676,0.451,1.308,0.677,1.894,0.677
				c1.247,0,2.344-0.962,3.291-2.886l6.312,0.451c-1.879,5.951-4.538,8.866-7.979,8.746s-5.681-0.429-6.718-0.924
				c-1.894-0.902-3.261-2.518-4.103-4.847c-0.496-1.367-0.901-3.517-1.218-6.447c-0.09-0.842-0.135-1.593-0.135-2.254
				c0-3.396,0.856-6.154,2.569-8.273c1.849-2.284,4.434-3.426,7.755-3.426c0.706,0,1.39,0.045,2.051,0.135
				c4.058,0.557,6.583,4.118,7.574,10.685L55.238,23.694z"/>
			<path style="fill:#FFFFFF;" d="M62.451,28.473c0.105-3.426,0.955-6.371,2.548-8.836c1.894-2.945,4.426-4.419,7.597-4.419
				c3.351,0,5.771,0.827,7.259,2.48c1.217,1.353,2.171,3.771,2.862,7.258c0.271,1.368,0.406,2.66,0.406,3.878
				c0,2.614-0.646,4.794-1.939,6.537c-1.894,2.555-4.771,3.771-8.633,3.651c-3.547-0.105-6.146-1.007-7.8-2.705
				C63.097,34.619,62.33,32.005,62.451,28.473z M75.705,23.063c-1.052-0.991-2.044-1.487-2.976-1.487
				c-1.142,0-2.194,0.752-3.155,2.254c-0.856,1.338-1.285,2.638-1.285,3.899c0,1.188,0.391,2.405,1.172,3.652
				c0.872,1.397,1.879,2.097,3.021,2.097c1.308,0,2.503-0.684,3.585-2.052c1.036-1.292,1.555-2.607,1.555-3.944
				C77.621,26.038,76.983,24.566,75.705,23.063z"/>
			<path style="fill:#FFFFFF;" d="M88.757,14.654l0.36,2.525c2.931-2.059,5.335-3.089,7.214-3.089c1.743,0,3.035,0.88,3.877,2.638
				c1.277,2.675,1.916,7.07,1.916,13.188c0,2.194-0.083,4.613-0.248,7.258l-6.086,0.203c0.48-3.246,0.721-5.988,0.721-8.228
				c0-2.735-0.36-4.712-1.082-5.929c-0.466-0.781-0.999-1.172-1.601-1.172c-1.157,0-2.569,1.359-4.237,4.08v11.925l-5.501-0.158
				l-0.924-22.339L88.757,14.654z"/>
			<path style="fill:#FFFFFF;" d="M100.997,24.258l5.162-1.104c-0.256-4.419-0.128-7.221,0.383-8.408
				c1.127-2.615,2.841-3.923,5.14-3.923c2.284,0,4.688,1.135,7.214,3.404l-3.968,3.178c-1.007-0.871-1.849-1.307-2.524-1.307
				c-1.458,0-2.149,2.059-2.074,6.176l4.959-1.059l1.082,4.305l-5.14,1.33l2.796,12.173l-5.951,2.142l-1.533-13.097l-4.463,1.149
				L100.997,24.258z"/>
			<path style="fill:#FFFFFF;" d="M123.652,12.266c0.331,0,0.632,0.045,0.902,0.135c1.262,0.421,2.088,1.202,2.479,2.345
				c0.12,0.346,0.18,0.691,0.18,1.036c0,0.767-0.308,1.526-0.924,2.277c-0.887,1.082-1.908,1.57-3.065,1.465
				c-1.157-0.104-2.097-0.729-2.818-1.871c-0.33-0.525-0.496-1.06-0.496-1.601c0-0.69,0.24-1.42,0.722-2.187
				C121.653,12.799,122.661,12.266,123.652,12.266z M127.079,21.868c-0.24,5.575-0.541,11.105-0.901,16.591L120.406,39
				c0.211-2.345,0.315-4.727,0.315-7.146c0-3.006-0.165-6.057-0.495-9.152L127.079,21.868z"/>
			<path style="fill:#FFFFFF;" d="M128.679,38.437c0.045-9.143-0.188-16.446-0.698-21.911l6.312-0.519l-0.203,2.052
				c3.096-1.924,6.252-2.833,9.468-2.728l0.608,5.455c-3.696,0-6.297,0.766-7.799,2.297c-1.037,1.065-1.556,3.774-1.556,8.127
				c0,1.98,0.104,4.314,0.315,7.001L128.679,38.437z"/>
			<path style="fill:#FFFFFF;" d="M149.711,15.557l0.315,2.524c1.969-1.998,3.72-2.998,5.252-2.998c1.969,0,3.569,1.66,4.802,4.981
				c1.247-2.39,2.915-3.584,5.004-3.584c0.872,0,1.812,0.203,2.818,0.608c2.494,1.007,3.742,4.922,3.742,11.745
				c0,2.555-0.173,5.522-0.519,8.903l-4.441,0.181c0-0.932,0-1.811,0-2.638c0-8.069-0.867-12.104-2.604-12.104
				c-1.721,0-2.581,2.66-2.581,7.979c0,1.999,0.128,4.373,0.384,7.123h-5.095c0.181-2.224,0.271-4.223,0.271-5.996
				c0-3.742-0.391-6.432-1.172-8.069c-0.421-0.872-0.925-1.308-1.511-1.308c-1.037,0-2.337,1.375-3.899,4.125v11.925l-5.027-0.158
				l-0.834-22.339L149.711,15.557z"/>
			<path style="fill:#FFFFFF;" d="M179.127,14.384c1.007-0.225,1.991-0.338,2.953-0.338c4.658,0,7.656,2.42,8.994,7.259
				c0.691,2.51,1,5.396,0.925,8.656l-0.181,7.731l-5.838,0.361l-0.046-1.06c-7.334-0.256-11.158-2.06-11.474-5.41
				c-0.045-0.481-0.067-0.834-0.067-1.06c0-2.735,1.097-4.448,3.291-5.14c1.097-0.346,2.187-0.519,3.269-0.519
				c1.442,0,2.915,0.293,4.418,0.879c-0.015-2.584-0.045-3.952-0.09-4.103c-0.301-1.037-1.3-1.623-2.998-1.758
				c-1.442-0.12-2.825,1.082-4.147,3.606l-5.771-0.901C173.928,17.78,176.182,15.046,179.127,14.384z M182.87,28.879
				c-1.578,0-2.404,0.413-2.479,1.239c-0.12,1.203,1.653,2.18,5.32,2.931l-0.158-3.899C184.5,28.969,183.606,28.879,182.87,28.879z"
				/>
			<path style="fill:#FFFFFF;" d="M193.578,38.437c0.045-9.143-0.188-16.446-0.698-21.911l6.312-0.519l-0.203,2.052
				c3.096-1.924,6.252-2.833,9.468-2.728l0.608,5.455c-3.696,0-6.297,0.766-7.799,2.297c-1.037,1.065-1.556,3.774-1.556,8.127
				c0,1.98,0.104,4.314,0.315,7.001L193.578,38.437z"/>
			<g>
				<path style="fill:#C96900;" d="M76.22,22.517c-2.683-2.528-5.292-2.194-7.277,0.908c-0.931,1.455-1.403,2.903-1.403,4.304
					c0,1.325,0.433,2.688,1.286,4.049c1.014,1.625,2.245,2.45,3.657,2.45c1.543,0,2.947-0.786,4.17-2.333
					c1.141-1.423,1.72-2.908,1.72-4.414c0-1.619-0.705-3.27-2.095-4.905L76.22,22.517z M75.478,30.961
					c-0.94,1.189-1.92,1.767-2.997,1.767c-0.872,0-1.652-0.57-2.385-1.745c-0.702-1.12-1.058-2.215-1.058-3.254
					c0-1.11,0.393-2.286,1.167-3.495c0.81-1.266,1.659-1.908,2.523-1.908c0.722,0,1.54,0.422,2.431,1.255
					c1.135,1.345,1.71,2.658,1.71,3.901C76.871,28.637,76.404,29.807,75.478,30.961z"/>
				<path style="fill:#C96900;" d="M185.679,28.41c-1.087-0.187-2.032-0.281-2.81-0.281c-2.522,0-3.146,1.045-3.226,1.915
					c-0.222,2.221,3.271,3.198,5.916,3.74l0.938,0.192l-0.222-5.463L185.679,28.41z M181.137,30.186
					c0.046-0.503,1.227-0.557,1.732-0.557c0.551,0,1.208,0.055,1.958,0.165l0.094,2.313C181.154,31.207,181.125,30.3,181.137,30.186
					z"/>
				<path style="fill:#C96900;" d="M209.129,14.603l-0.649-0.021c-2.897-0.091-5.794,0.611-8.603,2.1l0.148-1.496l-7.964,0.654
					l0.07,0.755c0.28,2.999,0.474,6.614,0.586,10.768c-0.101-2.284-0.405-4.384-0.921-6.258c-1.433-5.182-4.702-7.809-9.717-7.809
					c-1.01,0-2.058,0.12-3.116,0.356h-0.001c-3.12,0.701-5.526,3.509-7.168,8.312c-0.656-3.021-1.853-4.861-3.612-5.571
					c-3.311-1.332-6.055-0.64-7.977,2.03c-2.214-4.695-5.593-5.39-9.618-1.901l-0.23-1.842l-6,1.062l-0.127-1.14l-0.649-0.021
					c-2.903-0.091-5.793,0.611-8.603,2.1l0.148-1.496l-7.165,0.589c-0.001-0.426-0.074-0.855-0.219-1.272
					c-0.47-1.37-1.463-2.316-2.953-2.813c-0.346-0.115-0.729-0.173-1.139-0.173c-1.2,0-2.398,0.616-3.562,1.831l-0.094,0.12
					c-0.104,0.166-0.189,0.33-0.274,0.495l-0.325-0.292c-2.656-2.387-5.251-3.597-7.715-3.597c-2.616,0-4.577,1.472-5.829,4.376
					c-0.536,1.247-0.693,3.901-0.478,8.105l-2.834,0.606c-0.318-2.849-0.864-5.094-1.657-6.756
					c-0.959-2.004-2.534-3.064-4.553-3.064c-1.827,0-4.007,0.834-6.641,2.545l-0.299-2.094l-7.002,1.13l0.279,6.746
					c-0.614-1.989-1.358-3.474-2.257-4.472c-1.63-1.811-4.26-2.729-7.816-2.729c-3.427,0-6.195,1.603-8.227,4.762
					c-1.661,2.57-2.558,5.671-2.667,9.218c-0.006,0.177,0.001,0.342-0.001,0.515l-7.093-0.507l-0.223,0.453
					c-0.806,1.637-1.687,2.467-2.618,2.467c-0.433,0-0.93-0.185-1.48-0.553c-1.655-1.093-2.459-2.754-2.459-5.077
					c0-0.239,0.015-0.534,0.043-0.888c0.278-3.548,2.002-4.084,3.275-4.18c2.009-0.15,3.039,0.81,3.349,3.116l0.097,0.721
					l7.433-0.764l-0.117-0.777c-1.042-6.904-3.806-10.711-8.215-11.316c-0.691-0.094-1.416-0.142-2.152-0.142
					c-3.543,0-6.349,1.246-8.338,3.704c-1.815,2.246-2.736,5.188-2.736,8.745c0,0.684,0.047,1.469,0.139,2.334
					c0.326,3.021,0.738,5.188,1.258,6.622c0.907,2.51,2.417,4.283,4.485,5.269c1.143,0.546,3.438,0.872,7.015,0.997
					c0.078,0.003,0.155,0.004,0.232,0.004c3.499,0,6.245-2.808,8.177-8.344c0.243,2.557,1.056,4.571,2.441,5.994
					c1.786,1.834,4.583,2.821,8.314,2.932c0.18,0.006,0.358,0.008,0.534,0.008c3.841,0,6.775-1.332,8.725-3.962
					c0.574-0.774,1.024-1.635,1.362-2.57l0.222,5.377l6.972,0.201V26.342c1.99-3.193,3.099-3.543,3.487-3.543
					c0.316,0,0.638,0.271,0.956,0.805c0.648,1.093,0.977,2.959,0.977,5.546c0,2.192-0.24,4.923-0.712,8.118l-0.132,0.89l7.666-0.256
					l0.042-0.68c0.166-2.653,0.25-5.111,0.25-7.305c0-0.045-0.002-0.085-0.002-0.129l3.025-0.779l1.543,13.182l7.466-2.687
					l-2.781-12.11l5.154-1.334l-1.44-5.729l-4.763,1.017c0.037-2.979,0.552-3.972,0.876-4.302c0.136-0.139,0.271-0.198,0.451-0.198
					c0.274,0,0.903,0.146,2.034,1.124l0.472,0.408l4.451-3.565c-0.132,0.419-0.201,0.833-0.201,1.237
					c0,0.682,0.206,1.354,0.612,2.001c0.85,1.346,1.989,2.092,3.384,2.218c0.128,0.012,0.255,0.017,0.38,0.017
					c1.259,0,2.379-0.588,3.334-1.753c0.179-0.218,0.335-0.439,0.471-0.662c0.082,1.008,0.159,2.055,0.224,3.181l-8.162,0.994
					l0.079,0.735c0.326,3.055,0.491,6.107,0.491,9.073c0,2.393-0.105,4.774-0.313,7.078l-0.081,0.898l7.305-0.685l0.042-0.638
					c0.31-4.72,0.569-9.518,0.79-14.299c0.167,4.114,0.241,8.858,0.214,14.224l-0.004,0.781l8.01-0.28l-0.061-0.781
					c-0.208-2.646-0.313-4.982-0.313-6.942c0-5.144,0.73-6.975,1.341-7.602c1.334-1.36,3.744-2.054,7.154-2.069l0.671,17.985
					l6.501,0.205v-12.5c1.91-3.313,2.892-3.574,3.149-3.574c0.355,0,0.676,0.554,0.834,0.88c0.729,1.528,1.099,4.135,1.099,7.747
					c0,1.75-0.09,3.746-0.268,5.936l-0.066,0.811h6.731l-0.076-0.819c-0.253-2.714-0.381-5.087-0.381-7.054
					c0-6.708,1.401-7.229,1.831-7.229c0.189,0,1.854,0.319,1.854,11.354v3.419l5.871-0.239l0.066-0.647
					c0.347-3.39,0.522-6.411,0.522-8.979c0-2.117-0.122-3.956-0.36-5.537l6.517,1.018l0.249-0.476
					c0.8-1.527,2.055-3.318,3.424-3.207c2.03,0.161,2.262,0.958,2.323,1.159c0.015,0.1,0.047,0.585,0.066,2.896
					c-2.426-0.745-4.781-0.766-7.154-0.018c-1.74,0.548-3.815,2.009-3.815,5.855c0,0.24,0.022,0.616,0.07,1.13
					c0.345,3.656,4.213,5.694,11.501,6.06l0.05,1.135l7.287-0.451l0.197-8.42c0.016-0.675,0.003-1.327-0.014-1.973
					c0.078,3.171,0.111,6.639,0.092,10.428l-0.004,0.781l8.01-0.28l-0.061-0.781c-0.208-2.646-0.313-4.982-0.313-6.942
					c0-5.144,0.73-6.975,1.341-7.602c1.349-1.375,3.793-2.072,7.264-2.072h0.838L209.129,14.603z M53.415,37.687
					c-4.136-0.145-5.774-0.542-6.421-0.852c-1.724-0.821-2.941-2.269-3.72-4.425c-0.472-1.302-0.868-3.412-1.177-6.271
					c-0.086-0.812-0.13-1.543-0.13-2.174c0-3.205,0.809-5.83,2.402-7.802c1.714-2.118,4.06-3.147,7.172-3.147
					c0.669,0,1.325,0.043,1.949,0.128c3.565,0.489,5.796,3.526,6.808,9.277l-4.441,0.457c-0.715-3.277-2.983-3.833-4.822-3.695
					c-1.938,0.145-4.319,1.227-4.659,5.557c-0.032,0.4-0.048,0.735-0.048,1.006c0,2.827,1.054,4.956,3.129,6.327
					c2.363,1.579,4.475,0.811,6.04-2.049l4.857,0.347C58.623,35.327,56.265,37.776,53.415,37.687z M80.58,34.924
					c-1.754,2.366-4.384,3.451-8.008,3.349c-3.329-0.099-5.78-0.933-7.285-2.479c-1.498-1.539-2.2-3.993-2.088-7.296v-0.002
					c0.101-3.271,0.918-6.114,2.429-8.453c1.763-2.742,4.041-4.075,6.966-4.075c3.113,0,5.368,0.751,6.701,2.232
					c1.12,1.245,2.023,3.567,2.684,6.902c0.26,1.315,0.392,2.571,0.392,3.732C82.372,31.273,81.769,33.321,80.58,34.924z
					 M101.169,36.447l-4.509,0.15c0.399-2.889,0.602-5.391,0.602-7.448c0-2.9-0.388-4.965-1.188-6.313
					c-0.608-1.02-1.363-1.538-2.245-1.538c-1.471,0-3.021,1.41-4.876,4.438l-0.111,0.181v11.364l-4.03-0.116l-0.868-20.975
					l4.179-0.674l0.425,2.98l1.001-0.703c5.138-3.609,8.425-3.995,9.983-0.742c0.726,1.521,1.235,3.681,1.532,6.425l-0.959,0.205
					l1.264,5.795c0.001,0.15,0.006,0.288,0.006,0.439C101.374,31.891,101.305,34.085,101.169,36.447z M114.933,16.44
					c-1.692-1.305-3.101-1.412-4.051-0.445c-0.95,0.967-1.363,2.966-1.303,6.292l0.017,0.91l5.142-1.097l0.724,2.88l-5.125,1.326
					l2.811,12.236l-4.436,1.597l-1.523-13.012l-4.336,1.117c-0.026-1.279-0.084-2.469-0.17-3.579l4.264-0.912l-0.038-0.642
					c-0.309-5.33,0.005-7.33,0.323-8.068c1.006-2.335,2.462-3.47,4.451-3.47c1.885,0,3.914,0.885,6.04,2.633L114.933,16.44z
					 M125.709,17.583c-0.725,0.885-1.508,1.278-2.418,1.193c-0.919-0.083-1.656-0.582-2.25-1.523
					c-0.257-0.408-0.381-0.801-0.381-1.202c0-0.527,0.191-1.106,0.567-1.723c0.851-0.872,1.667-1.313,2.425-1.313
					c0.249,0,0.473,0.033,0.665,0.096c1.036,0.346,1.693,0.959,2.009,1.879c0.091,0.264,0.138,0.53,0.138,0.79
					C126.463,16.376,126.217,16.965,125.709,17.583z M125.47,37.772l-4.242,0.397c0.162-2.067,0.243-4.187,0.243-6.315
					c0-2.78-0.143-5.635-0.424-8.497l5.243-0.638C126.068,27.744,125.792,32.8,125.47,37.772z M135.829,22.56
					c-1.207,1.239-1.769,3.988-1.769,8.65c0,1.803,0.087,3.913,0.259,6.279l-4.888,0.171c0.026-8.359-0.188-15.23-0.637-20.449
					l4.662-0.383l-0.265,2.67l1.292-0.803c2.745-1.706,5.567-2.586,8.4-2.622l0.443,3.976
					C139.872,20.165,137.352,21.007,135.829,22.56z M170.445,37.015l-3.01,0.122V35.28c0-9.01-1.003-12.854-3.354-12.854
					c-2.985,0-3.331,4.982-3.331,8.729c0,1.811,0.105,3.952,0.313,6.373H157.6c0.14-1.915,0.21-3.676,0.21-5.246
					c0-3.891-0.407-6.636-1.246-8.396c-0.555-1.149-1.29-1.731-2.187-1.731c-1.359,0-2.806,1.431-4.552,4.504l-0.098,0.172v11.349
					l-3.554-0.112l-0.784-20.987l3.675-0.65l0.409,3.277l1.087-1.103c1.814-1.841,3.401-2.774,4.718-2.774
					c1.613,0,2.992,1.511,4.099,4.492l0.587,1.583l0.781-1.496c1.595-3.055,3.827-3.854,6.877-2.627
					c2.141,0.865,3.272,4.686,3.272,11.05C170.895,31.188,170.744,33.937,170.445,37.015z M191.085,36.986l-4.389,0.271
					l-0.042-0.989l-0.693-0.024c-6.862-0.239-10.48-1.831-10.753-4.73c-0.042-0.45-0.064-0.779-0.064-0.99
					c0-2.424,0.879-3.83,2.767-4.424c1.019-0.321,2.042-0.484,3.043-0.484c1.342,0,2.737,0.278,4.146,0.828l1.028,0.401
					l-0.006-1.104c-0.022-3.982-0.075-4.158-0.119-4.307c-0.396-1.362-1.627-2.135-3.656-2.296c-1.7-0.13-3.201,1.017-4.617,3.531
					l-4.364-0.682c1.448-4.002,3.439-6.312,5.926-6.871c0.952-0.212,1.891-0.32,2.79-0.32c4.317,0,7.023,2.194,8.271,6.708
					c0.669,2.429,0.971,5.268,0.897,8.439L191.085,36.986z M200.728,22.56c-1.207,1.239-1.769,3.988-1.769,8.65
					c0,1.803,0.087,3.913,0.259,6.279l-4.888,0.171c0.026-8.359-0.188-15.23-0.637-20.449l4.662-0.383l-0.265,2.67l1.292-0.803
					c2.745-1.706,5.567-2.586,8.4-2.622l0.443,3.976C204.771,20.165,202.25,21.007,200.728,22.56z"/>
			</g>
		</g>
	</g>
</g>
</svg>
