<?xml version="1.0" encoding="utf-8"?>
<!-- Generator: Adobe Illustrator 21.0.0, SVG Export Plug-In . SVG Version: 6.00 Build 0)  -->
<svg version="1.1" id="Capa_1" xmlns="http://www.w3.org/2000/svg" xmlns:xlink="http://www.w3.org/1999/xlink" x="0px" y="0px"
	 viewBox="0 0 68.101 62.783" style="enable-background:new 0 0 68.101 62.783;" xml:space="preserve">
<g>
	<path style="opacity:0.2;" d="M45.104,62.783c-4.928,0-10.471-1.141-14.674-2.999l-0.305,0.002c-4.883,0-8.179-1.016-10.078-3.106
		c-1.243-1.369-1.802-3.114-1.616-5.047c0.145-1.511,0.579-2.831,1.28-3.934c-1.916-1.745-2.792-4.232-2.52-7.336
		c0.113-1.265,0.634-3.608,2.845-5.269c-0.847-1.574-1.139-3.376-0.838-5.33c0.204-1.316,0.624-2.471,1.234-3.439L8.075,21.349
		c-3.554-1.448-9.712-5.92-7.669-12.512c1.116-3.597,4.171-5.66,8.382-5.66c3.248,0,6.796,1.212,9.034,2.347
		c1.737,0.88,9.613,4.927,22.814,11.722c0.747-0.344,1.513-0.62,2.292-0.826c1.155-0.367,2.33-0.553,3.494-0.553
		c1.277,0,2.232,0.223,2.747,0.379c4.675,0.92,9.451,4.134,14.199,9.559c6.311,7.204,6.301,15.42,0.029,22.67
		c-0.521,2.816-2.573,9.985-10.189,12.983C50.982,62.337,48.254,62.783,45.104,62.783L45.104,62.783z"/>
	<path style="fill:#FFFFFF;" d="M45.104,59.606c-4.928,0-10.471-1.141-14.674-2.999l-0.305,0.002c-4.883,0-8.179-1.016-10.078-3.106
		c-1.243-1.369-1.802-3.114-1.616-5.047c0.145-1.511,0.579-2.831,1.28-3.934c-1.916-1.745-2.792-4.232-2.52-7.336
		c0.113-1.265,0.634-3.608,2.845-5.269c-0.847-1.574-1.139-3.376-0.838-5.33c0.204-1.316,0.624-2.471,1.234-3.439L8.075,18.172
		c-3.554-1.448-9.712-5.92-7.669-12.512C1.521,2.063,4.577,0,8.787,0c3.248,0,6.796,1.212,9.034,2.347
		c1.737,0.88,9.613,4.927,22.814,11.722c0.747-0.344,1.513-0.62,2.292-0.826c1.155-0.367,2.33-0.553,3.494-0.553
		c1.277,0,2.232,0.223,2.747,0.379c4.675,0.92,9.451,4.134,14.199,9.559c6.311,7.204,6.301,15.42,0.029,22.67
		c-0.521,2.816-2.573,9.985-10.189,12.983C50.982,59.16,48.254,59.606,45.104,59.606L45.104,59.606z"/>
	<g>
		<path style="fill:#E6E6E6;" d="M20.431,21.03L8.075,16.054c-2.849-1.161-7.362-4.269-7.991-8.85
			c-0.73,5.743,4.723,9.636,7.991,10.968l11.528,4.642C19.82,22.167,20.093,21.567,20.431,21.03z"/>
		<path style="fill:#E6E6E6;" d="M19.416,30.335c0.193-0.183,0.391-0.365,0.619-0.536c-0.466-0.867-0.747-1.809-0.871-2.801
			C19.032,28.175,19.119,29.292,19.416,30.335z"/>
		<path style="fill:#E6E6E6;" d="M68.047,32.9c-0.262,3.502-1.805,6.991-4.65,10.28c-0.521,2.816-2.573,9.985-10.189,12.983
			c-2.226,0.878-4.954,1.324-8.104,1.324c-4.928,0-10.471-1.141-14.674-2.999l-0.305,0.002c-4.883,0-8.179-1.016-10.078-3.106
			c-0.851-0.938-1.373-2.055-1.563-3.285c-0.016,0.12-0.041,0.233-0.053,0.355c-0.186,1.933,0.373,3.678,1.616,5.047
			c1.899,2.09,5.196,3.106,10.078,3.106l0.305-0.002c4.202,1.859,9.745,2.999,14.674,2.999c3.151,0,5.878-0.446,8.104-1.324
			c7.616-2.998,9.668-10.167,10.189-12.983C66.817,41.346,68.36,37.106,68.047,32.9z"/>
		<path style="fill:#E6E6E6;" d="M19.711,42.404c-1.463-1.333-2.315-3.102-2.517-5.244c-0.001,0.008-0.002,0.018-0.003,0.026
			c-0.237,2.704,0.399,4.939,1.833,6.624C19.215,43.312,19.436,42.837,19.711,42.404z"/>
	</g>
	<g>
		<path style="fill:#EFC392;stroke:#994900;stroke-linecap:round;stroke-linejoin:round;stroke-miterlimit:10;" d="M60.979,22.603
			c-8.211-9.38-15.144-10.291-20.313-7.063C34.657,12.446,19.002,4.388,16.384,3.063C13.135,1.415,5.162-1.069,3.44,4.483
			c-1.72,5.552,5.822,8.625,5.822,8.625l19.289,7.768c-2.768-0.396-5.617,0.218-6.213,4.079c-0.49,3.167,1.466,5.051,3.652,6.16
			c-3.318,0.209-5.386,1.445-5.634,4.229c-0.24,2.747,0.572,5.635,5.794,6.532c-2.19,0.407-4.248,1.538-4.557,4.766
			c-0.493,5.118,8.188,4.652,9.521,4.665c5.867,2.808,15.398,4.083,20.932,1.901c7.648-3.011,8.352-11.442,8.352-11.442
			C64.953,36.89,67.559,30.115,60.979,22.603z"/>
		<g>
			<path style="fill:#994900;stroke:#994900;stroke-linecap:round;stroke-linejoin:round;stroke-miterlimit:10;" d="M46.672,22.501
				c0.18-1.031,0.282-1.619,0.282-1.619s-0.128,0.584-0.347,1.607c-0.188,1.023-0.695,2.446-1.665,3.937
				c-0.963,1.486-2.425,3.035-4.342,4.152c-0.953,0.557-2.029,0.988-3.164,1.159c-1.128,0.158-2.336-0.009-3.253-0.717
				c-0.899-0.681-1.829-1.578-1.864-2.69c-0.042-1.112,0.629-2.143,1.192-3.073c1.215-1.866,2.502-3.525,3.521-5
				c1.054-1.456,1.787-2.761,2.453-3.564c0.659-0.81,1.166-1.147,1.166-1.147s-0.518,0.311-1.221,1.099
				c-0.698,0.787-1.53,2.035-2.581,3.479c-1.041,1.462-2.343,3.09-3.602,4.963c-0.577,0.943-1.305,1.964-1.29,3.255
				c0.045,1.318,1.051,2.286,1.996,3.013c1.009,0.758,2.358,0.922,3.536,0.734c1.193-0.198,2.298-0.662,3.265-1.248
				c1.951-1.172,3.413-2.771,4.373-4.297C46.098,25.014,46.519,23.533,46.672,22.501z"/>
			<path style="fill:#994900;stroke:#994900;stroke-linecap:round;stroke-linejoin:round;stroke-miterlimit:10;" d="M31.262,21.764
				c0.793,0.242,1.585,0.532,2.168,0.788c0.6,0.214,1.012,0.324,1.012,0.324s-0.363-0.229-0.921-0.526
				c-0.557-0.299-1.324-0.655-2.126-0.974c-0.831-0.21-1.648-0.452-2.292-0.498c-0.639-0.06-1.062-0.065-1.062-0.065
				s0.412,0.135,1.021,0.283C29.684,21.19,30.474,21.499,31.262,21.764z"/>
			<path style="fill:#994900;stroke:#994900;stroke-linecap:round;stroke-linejoin:round;stroke-miterlimit:10;" d="M40.479,32.147
				c-1.465,0.83-3.804,0.901-6.026,0.676c-1.126-0.073-2.239-0.226-3.302-0.363c-1.046-0.128-2.02-0.307-2.821-0.563
				c-0.812-0.214-1.482-0.456-1.935-0.658c-0.461-0.185-0.725-0.29-0.725-0.29s0.253,0.129,0.697,0.353
				c0.439,0.23,1.062,0.568,1.896,0.806c0.81,0.287,1.791,0.497,2.85,0.659c1.04,0.166,2.17,0.359,3.307,0.466
				c0.86,0.061,1.739,0.079,2.581,0.027c0.353,0.192,1.482,0.769,2.416,2.18c0.122,0.22,0.249,0.453,0.382,0.692
				c0.076,0.262,0.151,0.531,0.232,0.81c0.073,0.575,0.047,1.18-0.157,1.762c-0.237,0.587-0.565,1.186-1.024,1.626
				c-0.5,0.419-1.074,0.78-1.718,0.996c-2.554,0.979-5.414,0.899-7.465,0.821c-2.076-0.086-3.458-0.257-3.458-0.257
				s1.361,0.3,3.444,0.476c2.069,0.123,4.924,0.293,7.629-0.661c0.672-0.24,1.285-0.643,1.815-1.116
				c0.515-0.525,0.829-1.15,1.06-1.757c0.22-0.67,0.226-1.326,0.131-1.938c-0.092-0.295-0.182-0.581-0.268-0.856
				c-0.144-0.248-0.284-0.489-0.419-0.719c-0.608-0.881-1.357-1.381-1.871-1.698c-0.328-0.17-0.557-0.29-0.698-0.363
				c1.358-0.086,2.621-0.353,3.556-0.917c0.392-0.198,0.665-0.502,0.908-0.756c0.208-0.284,0.356-0.558,0.468-0.777
				c0.135-0.481,0.212-0.756,0.212-0.756s-0.1,0.263-0.273,0.726C41.657,31.196,41.232,31.776,40.479,32.147z"/>
			<path style="fill:#994900;stroke:#994900;stroke-linecap:round;stroke-linejoin:round;stroke-miterlimit:10;" d="M37.685,43.185
				c-0.641-0.386-1.224-0.577-1.643-0.677c-0.409-0.121-0.642-0.191-0.642-0.191s0.226,0.092,0.618,0.255
				c0.195,0.082,0.433,0.181,0.704,0.293c0.251,0.15,0.533,0.32,0.841,0.504c0.297,0.19,0.567,0.475,0.839,0.757
				c0.222,0.335,0.417,0.699,0.446,1.13c0.021,0.419-0.061,0.866-0.266,1.274c-0.183,0.41-0.454,0.809-0.771,1.153
				c-1.205,1.472-2.946,2.45-4.277,2.972c-1.331,0.552-2.32,0.655-2.32,0.655s0.244-0.02,0.667-0.055
				c0.414-0.05,1.043-0.132,1.729-0.392c1.377-0.492,3.18-1.408,4.513-2.916c0.325-0.376,0.602-0.814,0.789-1.275
				c0.208-0.454,0.287-0.968,0.244-1.446c-0.054-0.499-0.287-0.902-0.547-1.263C38.305,43.665,38.002,43.372,37.685,43.185z"/>
			<path style="fill:#994900;stroke:#994900;stroke-linecap:round;stroke-linejoin:round;stroke-miterlimit:10;" d="M49.94,36.648
				c-0.229-0.128-0.515-0.203-0.748-0.399c-0.245-0.175-0.502-0.362-0.77-0.555c-0.559-0.351-1.067-0.828-1.537-1.35
				c-0.547-0.441-0.931-1.03-1.346-1.541c-0.219-0.248-0.341-0.548-0.504-0.799c-0.145-0.263-0.316-0.497-0.406-0.744
				c-0.478-0.944-0.674-1.633-0.674-1.633s0.067,0.718,0.471,1.721c0.082,0.259,0.242,0.505,0.377,0.782
				c0.156,0.266,0.268,0.582,0.479,0.845c0.397,0.542,0.769,1.174,1.312,1.658c0.509,0.517,1.058,0.981,1.653,1.315
				c0.281,0.185,0.553,0.362,0.813,0.53c0.247,0.186,0.544,0.25,0.783,0.369c1,0.397,1.67,0.625,1.67,0.625
				S50.885,37.117,49.94,36.648z"/>
		</g>
	</g>
</g>
</svg>
