<?xml version="1.0" encoding="utf-8"?>
<!-- Generator: Adobe Illustrator 21.0.0, SVG Export Plug-In . SVG Version: 6.00 Build 0)  -->
<svg version="1.1" id="Capa_1" xmlns="http://www.w3.org/2000/svg" xmlns:xlink="http://www.w3.org/1999/xlink" x="0px" y="0px"
	 viewBox="0 0 322.239 441.758" style="enable-background:new 0 0 322.239 441.758;" xml:space="preserve">
<g>
	<rect x="4" y="4" style="opacity:0.2;" width="318.239" height="437.757"/>
	<rect style="fill:#FFFFFF;" width="318.239" height="437.757"/>
	<rect x="13.076" y="12.883" style="fill:#9CDBF2;" width="292.088" height="411.991"/>
	
		<linearGradient id="SVGID_1_" gradientUnits="userSpaceOnUse" x1="492.6508" y1="1423.3944" x2="630.3789" y2="1423.3944" gradientTransform="matrix(0 1 -1 0 1582.5144 -479.3996)">
		<stop  offset="0" style="stop-color:#FFFFFF;stop-opacity:0"/>
		<stop  offset="0.2219" style="stop-color:#FCFCFC;stop-opacity:0.2219"/>
		<stop  offset="0.3578" style="stop-color:#F4F4F4;stop-opacity:0.3578"/>
		<stop  offset="0.4706" style="stop-color:#E6E6E6;stop-opacity:0.4706"/>
		<stop  offset="0.5708" style="stop-color:#D1D1D1;stop-opacity:0.5708"/>
		<stop  offset="0.6626" style="stop-color:#B6B6B6;stop-opacity:0.6626"/>
		<stop  offset="0.7484" style="stop-color:#969696;stop-opacity:0.7484"/>
		<stop  offset="0.8294" style="stop-color:#6F6F6F;stop-opacity:0.8294"/>
		<stop  offset="0.9067" style="stop-color:#424242;stop-opacity:0.9067"/>
		<stop  offset="0.9784" style="stop-color:#101010;stop-opacity:0.9784"/>
		<stop  offset="1" style="stop-color:#000000"/>
	</linearGradient>
	<rect x="13.076" y="13.251" style="opacity:0.2;fill:url(#SVGID_1_);" width="292.088" height="137.728"/>
	
		<linearGradient id="SVGID_2_" gradientUnits="userSpaceOnUse" x1="629.9162" y1="1423.3944" x2="767.6455" y2="1423.3944" gradientTransform="matrix(0 1 -1 0 1582.5144 -479.3996)">
		<stop  offset="0" style="stop-color:#FFFFFF;stop-opacity:0"/>
		<stop  offset="0.2219" style="stop-color:#FCFCFC;stop-opacity:0.2219"/>
		<stop  offset="0.3578" style="stop-color:#F4F4F4;stop-opacity:0.3578"/>
		<stop  offset="0.4706" style="stop-color:#E6E6E6;stop-opacity:0.4706"/>
		<stop  offset="0.5708" style="stop-color:#D1D1D1;stop-opacity:0.5708"/>
		<stop  offset="0.6626" style="stop-color:#B6B6B6;stop-opacity:0.6626"/>
		<stop  offset="0.7484" style="stop-color:#969696;stop-opacity:0.7484"/>
		<stop  offset="0.8294" style="stop-color:#6F6F6F;stop-opacity:0.8294"/>
		<stop  offset="0.9067" style="stop-color:#424242;stop-opacity:0.9067"/>
		<stop  offset="0.9784" style="stop-color:#101010;stop-opacity:0.9784"/>
		<stop  offset="1" style="stop-color:#000000"/>
	</linearGradient>
	<rect x="13.076" y="150.517" style="opacity:0.2;fill:url(#SVGID_2_);" width="292.088" height="137.729"/>
	<g>
		<path style="fill-rule:evenodd;clip-rule:evenodd;fill:#FFFFFF;" d="M39.45,98.113c2.172,3.97,5.133,4.563,6.704,4.564
			c0.001,0,0.002,0,0.003,0c5.999,0,8.888-7.402,10.996-12.807c0.15-0.384,0.281-0.722,0.394-0.997
			c0.284-0.697,0.407-1.447,0.36-2.195c0.162-1.103,1.338-4.333,2.125-6.496c2.308-6.342,4.671-12.838,3.3-17.143
			c0.116-0.405,0.205-0.778,0.282-1.11c0.295-0.143,0.609-0.29,0.866-0.411c1.634-0.767,3.089-1.456,4.22-2.422
			c-2.811,5.162-3.206,14.215,0.66,19.099c0.823,1.04,3.328,4.203,7.325,4.203c3.693,0,6.525-2.611,9.581-5.764
			c1.185-1.223,11.443-12.128,6.712-18.533c-0.614-0.843-1.479-1.464-2.451-1.794c-0.871-2.976-2.305-5.995-3.833-7.639
			c-0.559-0.653-1.266-1.158-2.08-1.479c-0.601-0.237-1.222-0.35-1.833-0.35c-1.838,0-3.593,1.018-4.466,2.749
			c-0.154,0.305-0.264,0.619-0.351,0.937c-1.189,1.124-3.449,2.936-4.666,3.91c-1.444,1.156-2.314,1.861-2.918,2.425
			c0.502-1.179,0.593-2.495,0.209-3.732c-0.792-2.551-3.054-3.581-4.382-4.027c-3.577-2.367-6.276-3.726-9.136-3.726
			c-5.348,0-7.776,4.197-11.14,10.006l-0.47,0.812c-0.354,0.608-8.606,14.992-5.029,22.989c0.291,0.651,0.649,1.248,1.066,1.784
			C39.769,86.289,37.622,94.778,39.45,98.113z"/>
		<path style="fill-rule:evenodd;clip-rule:evenodd;fill:#FFFFFF;" d="M290.031,278.232c-0.027-0.125-0.065-0.305-0.114-0.535
			c-3.871-18.238-8.932-29.312-15.361-33.515c2.756-1.773,7.571-5.076,4.565-14.057c-0.878-2.625-1.981-4.704-3.049-6.715
			c-0.773-1.457-1.504-2.834-2.102-4.35c-0.647-1.639-1.063-3.248-1.309-5.063c-0.092-0.678-0.194-1.376-0.299-2.09
			c-0.123-0.842-0.249-1.706-0.364-2.583c-0.003-0.028-0.011-0.092-0.011-0.092c-0.222-1.727-0.332-3.112-0.348-4.357
			c-0.002-0.083-0.005-0.166-0.01-0.248c-0.002-1.325,0.111-2.633,0.425-3.839c0.238-0.915,1.854-3.508,2.925-5.225
			c2.898-4.65,5.636-9.042,5.22-13.176c-0.693-6.902-5.019-10.861-11.865-10.861c-3.13,0-6.438,0.777-9.637,1.528
			c-2.552,0.599-5.191,1.219-7.033,1.219l-0.232,0c-1.815,0-3.468,0.079-5.065,0.156c-1.33,0.064-2.586,0.124-3.734,0.124
			c-3.335,0-5.132-0.519-6.865-1.985c-1.734-1.467-3.166-3.576-4.681-5.809c-2.216-3.264-4.727-6.964-8.763-9.214
			c-2.103-1.173-9.962-3.095-11.569-3.308c-0.838-0.111-1.716-0.166-2.683-0.166c-2.515,0-5.156,0.377-7.71,0.741
			c-2.363,0.337-4.595,0.655-6.491,0.655c-0.205,0-0.407-0.004-0.607-0.012c-0.825-0.035-1.71-0.041-2.619-0.045
			c-1.654-0.008-3.364-0.017-4.669-0.244c-0.49-0.085-0.788-0.174-0.953-0.234c-2.404-2.351-4.682-4.907-5.811-6.173
			c-0.024-0.028-0.049-0.055-0.072-0.082c0.025-0.666,0.335-2.274,2.033-5.771c0.447-0.921,0.834-1.717,0.841-2.912
			c0.025-4.445-1.667-7.416-3.026-9.802c-0.566-0.994-1.101-1.933-1.504-2.947c-0.229-0.573-0.479-1.226-0.749-1.931
			c-3.137-8.17-5.75-14.19-10.176-16.05c1.416-1.86,2.682-3.648,3.34-5.463c0.934-2.577,1.285-5.197,1.596-7.508
			c0.289-2.156,0.563-4.192,1.245-5.862c1.275-3.119,3.734-6.817,5.903-9.536c0.467,0.047,0.912,0.087,1.345,0.087
			c2.042,0,3.305-0.937,4.005-1.723c1.319-1.481,2.017-3.209,2.577-4.598c0.223-0.551,0.553-1.369,0.754-1.663
			c3.589-3.005,5.584-3.822,10.911-5.459c0.258,0.027,0.517,0.042,0.775,0.042c3.363,0,6.194-2.314,7.39-6.038
			c1.461-4.555,0.539-11.165-4.046-14.444c-2.806-2.006-5.271-2.941-7.759-2.941c-3.935,0-6.648,2.415-8.377,4.315
			c-1.832,1.54-13.523,9.49-15.125,10.546c-2.011,1.175-4.247,2.815-6.41,4.403c-1.498,1.099-3.55,2.604-4.271,2.955
			c-0.965,0.469-1.978,0.678-3.283,0.678c-1.114,0-2.33-0.151-3.616-0.311c-1.51-0.188-3.07-0.382-4.759-0.382
			c-1.218,0-2.338,0.102-3.425,0.311c-4.249,0.817-6.56,2.351-7.761,5.215c-0.332,0.096-0.685,0.141-1.089,0.141
			c-0.853,0-1.849-0.197-2.904-0.406c-1.273-0.252-2.717-0.537-4.253-0.537c-1.014,0-1.947,0.12-2.855,0.366
			c-2.808,0.765-5.355,2.932-7.603,4.844c-0.453,0.385-0.877,0.748-1.257,1.051c-1.238,0.988-4.509,4.479-6.999,7.471
			c-4.108,4.936-7.28,9.343-4.464,13.291c0.323,0.452,0.711,0.838,1.143,1.15c-0.026,0.181-0.057,0.35-0.089,0.501
			c-1.396,0.833-2.332,2.315-2.431,4.003c-0.039,0.671,0.057,1.325,0.268,1.932c-0.939,0.401-1.859,0.766-2.455,1.002
			c-1.922,0.762-3.083,1.222-3.983,1.909c-0.314,0.238-0.408,0.332-1.304,1.23c-1.097,1.099-3.375,3.385-5.845,5.727
			c-0.004,0.004-0.008,0.007-0.012,0.011c-5.921,5.615-7.867,6.75-8.22,6.93c-0.475,0.16-0.914,0.388-1.309,0.67
			c-1.807-2.202-3.549-3.438-5.815-3.482c-0.033,0-0.065-0.001-0.099-0.001c-1.291,0-2.534,0.5-3.466,1.396
			c-3.736,3.594-1.964,11.752,0.675,17.31c-0.452,0.411-0.946,0.869-1.487,1.379c-0.151,0.143-0.299,0.282-0.442,0.418
			c-0.692-0.341-1.448-0.512-2.206-0.512c-1.125,0-2.253,0.378-3.179,1.142c-1.264,1.042-1.896,2.59-1.813,4.132
			c-0.291,0.523-0.933,1.521-2.302,3.189c-0.389,0.474-1.423,1.733-1.281,3.768c0.207,2.623,1.941,5.469,5.246,10.688
			c1.104,1.742,2.75,4.341,3.678,6.11c-0.16,0.349-0.282,0.719-0.359,1.106c-0.468,0.552-0.821,1.211-1.017,1.945
			c-1.281,4.807,1.393,7.872,2.829,9.519c0.074,0.084,0.157,0.181,0.242,0.279c-0.901,1.099-2.199,2.527-2.735,3.116
			c-1.257,1.383-3.598,3.958-1.609,7.186c1.875,3.057,3.854,6.754,3.608,11.927c-0.1,0.93-1.34,3.625-1.937,4.921
			c-1.313,2.852-2.219,4.819-1.427,7.018c1.492,5.332,3.124,7.858,3.579,8.491l-0.015,0.013c0.598,0.683,1.358,1.187,2.199,1.474
			c0.02,0.161,0.037,0.299,0.052,0.417c-0.448,0.758-2.144,2.184-3.292,3.148c-2.747,2.31-6.165,5.184-7.488,9.371
			c-0.026,0.083-0.05,0.166-0.072,0.25c-0.284,0.733-0.551,1.552-0.84,2.441c-0.002,0.007-0.004,0.013-0.006,0.02
			c-5.483,0.537-15.697,2.405-19.388,8.899c-1.211,2.131-2.137,5.412-0.482,9.638c-0.546,0.498-1.025,0.854-1.461,1.177
			c-5.813,4.315-2.676,8.778-0.385,12.037c2.805,3.99,6.682,5.394,9.247,6.324c0.312,0.112,0.688,0.249,0.996,0.37
			c0.075,0.164,0.151,0.334,0.214,0.475c0.724,1.619,1.623,3.634,3.702,4.76c2.409,1.305,5.136,1.73,7.541,2.106
			c0.94,0.146,2.333,0.364,2.872,0.561c0.169,0.235,0.597,1.317,0.395,3.726c-0.362,4.485,3.673,5.398,7.232,6.203
			c2.191,0.496,4.993,1.068,7.687,1.571c0.014,0.002,0.026,0.005,0.039,0.007c5.675,1.058,9.606,1.594,11.688,1.594
			c1.012,0,1.79-0.115,2.522-0.373c1.021-0.359,1.875-1.031,2.464-1.891c0.437,0.271,0.883,0.545,1.344,0.807
			c0.16,0.225,0.384,0.579,0.546,0.835c0.836,1.321,1.877,2.964,3.704,4.048c3.685,2.187,7.621,2.587,10.784,2.91
			c1.725,0.175,3.354,0.341,4.412,0.747c6.357,2.438,10.201,6.538,12.097,12.904c1.473,4.937,6.57,6.885,10.667,8.45
			c1.492,0.57,3.99,1.525,4.507,2.073c1.104,1.598,1.402,2.732,1.718,3.933c0.925,3.52,2.551,6.05,7.04,6.776
			c-0.097,1.161-0.34,2.555-0.444,3.157c-0.324,1.855-0.604,3.458,0.421,5.192c1.925,3.254,4.918,4.904,8.896,4.904
			c0.558,0,1.118-0.03,1.671-0.062c0.348-0.02,0.69-0.043,1.023-0.043c0.183,0,0.268,0.009,0.274,0.009c0.001,0,0.001,0,0,0
			c0.203,0.044,0.826,0.23,1.327,0.38c2.368,0.708,5.946,1.779,9.291,1.779c1.041,0,2.019-0.105,2.906-0.314
			c1.452-0.34,2.47-1.028,7.776-5.258c0.107-0.086,0.218-0.174,0.33-0.263c6.461,2.579,18.532,6.299,25.587,8.408
			c-1.663,2.894-4.737,7.876-10.416,16.365l-0.4,0.599c-0.97,1.462-1.104,3.325-0.351,4.91c0.752,1.585,2.28,2.66,4.026,2.832
			c6.524,0.643,10.23,2.439,11.013,5.338c0.577,2.138,2.492,3.642,4.706,3.695c0.041,0.001,0.081,0.001,0.122,0.001
			c2.165,0,4.091-1.396,4.758-3.465c4.268-13.232,6.569-27.517,8.796-41.331c0.66-4.096,1.343-8.332,2.057-12.39
			c2.4-13.659-5.8-26.294-7.441-28.654c-0.407-0.728-0.891-1.495-1.4-2.302c-3.102-4.917-4.513-8.07-2.988-10.396
			c0.325-0.128,1.296-0.41,3.533-0.41c2.121,0,4.454,0.246,6.514,0.463c1.649,0.174,3.075,0.324,4.212,0.324
			c0.313,0,0.599-0.011,0.852-0.032c2.919-0.234,5.029-2.68,4.909-5.69c-0.169-4.208-6.157-12.847-12.92-14.923
			c1.492,0.108,3.117,0.161,4.894,0.161c4.098,0,8.337-0.275,12.438-0.542c3.427-0.222,6.663-0.432,9.24-0.432
			c0.276,0,0.875,0.008,0.908,0.008c1.663,0,3.179-0.823,4.096-2.133c3.839-0.104,6.302-3.022,8.288-5.375
			c0.421-0.499,1.001-1.186,1.529-1.736c1.119,2.864,2.072,8.242,1.835,10.318c-0.945,1.954-0.253,3.76,0.419,5.513
			c0.15,0.391,0.311,0.795,0.412,1.096c0.428,2.279,2.406,4.024,4.815,4.071c0.033,0,0.136,0.001,0.136,0.001
			c2.281,0,5.984-1.305,6.619-1.561c1.771-0.717,2.979-2.381,3.113-4.287C290.251,279.361,290.187,278.781,290.031,278.232z"/>
	</g>
	<g>
		<g>
			<g>
				<path style="fill:#ED1C24;" d="M64.022,53.656c-8.396-5.655-8.981-4.004-14.234,5.05c-2.171,3.741-9.184,18.967-2.337,20.381
					c-0.868,1.409-4.622,14.789-3.616,16.626c3.63,6.633,7.719-5.384,9.081-8.726c-0.501-3.6,9.009-21.486,4.704-23.339
					c1.299-1.914,1.024-3.817,1.877-5.017c0.654-0.92,5.265-2.428,6.194-3.564C66.418,54.178,64.122,53.728,64.022,53.656z"/>
				<path style="fill:#ED1C24;" d="M86.243,61.828c0.909,0.15-1.378-8.653-3.462-9.987c1.734,0.692-8.558,7.947-9.302,9.003
					c-2.459,3.497-2.729,11.052-0.199,14.247c3.01,3.801,4.869,2.734,9.397-1.938c1.672-1.725,8.026-9.717,6.262-12.107
					C88.862,60.943,86.609,61.889,86.243,61.828z"/>
				<path style="fill:#ED1C24;" d="M199.445,51.17c-4.47-3.196-6.858-2.315-9.651,0.807c-1.06,1.185-15.878,11.19-16.082,11.307
					c-3.602,2.079-8.854,6.495-11.114,7.594c-5.676,2.761-10.956-0.323-16.325,0.71c-6.049,1.164-2.808,3.042-5.958,4.583
					c-4.721,2.31-8.958-0.863-12.535,0.11c-2.214,0.602-5.143,3.451-7.054,4.978c-1.474,1.177-11.755,12.207-10.511,13.95
					c1.142-0.444,2.11-1.134,2.902-2.072c-1.173,0.782,0.381,10.081-3.358,10.923c8.961,3.151-6.544,7.318-8.143,8.537
					c-0.129,0.098-3.193,3.249-6.738,6.611c0.342,1.591,0.508,3.499,0.637,5.692c0.428,7.24,3.047,2.086-1.08,15.605
					c-4.127,13.519,7.806,12.914,13.94,8.333s11.738-15.334,20.893-11.738c0,0,4.191,2.324,3.186,9.524
					c-1.005,7.2,3.661,16.456,8.313,10.958c4.652-5.498,4.642-4.995,5.297-12.706c0.655-7.711,2.258-12.381,4.245-2.435
					c0,0,0.872,6.901,5.69,0.951c4.818-5.95-7.174-10.887-2.478-19.19c3.217-5.687,3.759-7.714,3.781-8.427
					c-0.063-0.1-0.102-0.219-0.089-0.379c0.339-4.156,6.742-9.869,7.984-13.295c1.573-4.34,1.144-9.231,2.913-13.558
					c1.737-4.247,5.268-9.331,8.119-12.546c0.5-0.564,3.818,0.178,4.028-0.058c1.612-1.811,1.925-5.147,3.762-6.691
					c4.689-3.943,7.398-4.863,14.006-6.868C202.371,64.13,203.683,54.201,199.445,51.17z"/>
			</g>
		</g>
		<path style="fill:#FEC31D;" d="M131.134,229.247c-0.066,0.107-0.129,0.216-0.195,0.323c0.065-0.107,0.127-0.216,0.193-0.323
			c-2.35,3.807-4.319,7.863-6.65,10.958l0,0c2.212,2.454,4.328,6.395,4.517,12.633c0.408,13.44,9.883,19.974,15.565,16.24
			c5.682-3.734-2.934-9.612,5.86-12.797c8.794-3.185,19.236-10.022,31.408-11.635c12.172-1.613,28.791,7.108,34.991-0.829
			c6.2-7.938,7.602-10.932,24.459-14.295c15.169-3.026,21.84-2.706,28.036-8.626l0,0l0,0c-0.7-1.775-1.279-3.777-1.612-6.228
			c-0.202-1.493-0.457-3.089-0.67-4.728l0,0.001l0-0.001c-0.445-3.418-0.697-7.037,0.179-10.408
			c1.045-4.02,8.425-12.505,8.009-16.644c-1.185-11.782-15.259-3.581-23.58-3.613c-7.864-0.03-13.741,1.649-19.107-2.888
			c-5.073-4.29-7.243-11.459-12.65-14.474c-1.159-0.646-8.189-2.506-9.792-2.718c-4.851-0.643-11.718,1.481-17.044,1.258
			c-2.433-0.102-5.428,0.078-7.935-0.359c-5.241,7.724-12.301,19.652-9.456,24.248c4.356,7.038-0.084,5.16-8.005,9.482
			c0,0-5.318,2.918-6.233,11.043c-0.915,8.125-0.504,8.553-3.981,10.332s-6.329-2.643-6.329-2.643s-2.065-6.001-4.797,0.577
			c-2.732,6.579-3.938,3.868-9.837,9.294C134.386,224.354,132.677,226.746,131.134,229.247L131.134,229.247z"/>
		<path style="fill-rule:evenodd;clip-rule:evenodd;fill:#662D91;" d="M182.002,158.97c-3.493-3.355-6.777-7.204-7.238-7.674
			c-2.222-3.439,2.247-10.981,2.249-11.328c0.027-4.674-2.59-6.883-4.176-10.873c-1.845-4.639-5.14-14.356-8.502-15.319
			c0.098,0.028-6.239,3.251-7.032,1.999c-0.022,0.713-0.564,2.74-3.781,8.427c-4.696,8.303,7.296,13.24,2.478,19.19
			c-4.818,5.95-5.69-0.951-5.69-0.951c-1.988-9.945-3.59-5.276-4.245,2.435s-0.645,7.207-5.297,12.706
			c-4.652,5.498-9.318-3.758-8.313-10.958c1.005-7.2-3.186-9.524-3.186-9.524c-9.154-3.597-14.758,7.157-20.893,11.738
			s-18.068,5.186-13.94-8.333c4.127-13.519,1.507-8.366,1.08-15.605c-0.129-2.193-0.295-4.1-0.637-5.692
			c-3.813,3.615-8.183,7.474-10.061,8.039c-0.178,1.548,3.774,7.265,3.613,10.656c-0.189,3.975-3.009-0.331-6.008-5.058
			c0.003,3.166-0.043,7.382-0.279,9.434c-0.405,3.518,5.585,6.322,9.198,10.423s1.033,7.24-1.297,6.187
			c-2.33-1.053-5.835-2.129-5.957,4.081c-0.122,6.21,2.945,12.483,11.831,13.161s5.019,9.501,3.722,15.688
			c-1.297,6.187,4.734,18.095,5.604,22.441c0.87,4.347-0.474,7.043-0.474,7.043s-2.11,4.828-4.096,9.507
			c-1.986,4.679-1.295,8.521,0.682,10.407c1.978,1.886,5.641,3.469,4.222,7.303s-5.598,2.912-8.784,2.682
			c-3.186-0.23-3.08,2.962-3.08,2.962c-0.737,3.344-2.047,3.846-2.047,3.846c-6.187,0.911-2.294,3.456-2.294,3.456
			s4.545,7.981,8.688,7.31c4.143-0.671,11.67-9.429,17.71-17.706c6.039-8.277,2.686-4.229,7.316-9.175
			c4.631-4.946,7.496-14.041,13.395-19.466c5.899-5.425,7.105-2.715,9.837-9.294c2.732-6.579,4.797-0.577,4.797-0.577
			s2.852,4.422,6.329,2.643s3.066-2.207,3.981-10.332c0.915-8.125,6.233-11.043,6.233-11.043c7.92-4.322,12.361-2.444,8.005-9.482
			c-2.845-4.597,4.215-16.524,9.456-24.248C183.934,159.888,182.849,159.557,182.002,158.97z"/>
		<path style="fill:#FF8500;" d="M80.217,294.289c-1.496-1.318-2.828-2.761-3.356-4.078c-1.491-3.723,2.332-9.133,1.391-12.51
			c-0.941-3.377,3.743-2.501,4.191-5.823c0.448-3.322,2.907-2.209,4.287,1.624c1.38,3.833,4.807,6.027,8.786,7.675
			c3.979,1.648,4.31-1.933,1.769-3.662c-2.541-1.729-1.38-3.833-1.38-3.833l1.961-4.9c-4.09,0.399-8.493-7.317-8.493-7.317
			s-3.893-2.546,2.294-3.456c0,0,1.31-0.503,2.047-3.846c0,0-0.105-3.192,3.08-2.962c3.186,0.23,7.365,1.152,8.784-2.682
			s-2.244-5.417-4.222-7.303c-1.978-1.886-2.668-5.729-0.682-10.407c1.986-4.679,4.096-9.507,4.096-9.507s1.344-2.696,0.474-7.043
			c-0.87-4.347-6.901-16.254-5.604-22.441c1.297-6.187,5.164-15.01-3.722-15.688s-11.953-6.951-11.831-13.161
			c0.122-6.21,3.627-5.134,5.957-4.081c2.33,1.053,4.91-2.086,1.297-6.187s-9.603-6.905-9.198-10.423
			c0.236-2.051,0.282-6.268,0.279-9.434c-2.485-3.917-5.092-8.122-6.427-8.148c-1.91,1.837,0.881,11.889,3.802,14.926
			c0.248-0.93-9.216,7.782-8.704,8.311c-0.381-1.289-1.066-2.363-2.024-3.245c0.975,1.584-3.595,6.795-3.592,6.837
			c0.299,3.791,13.344,19.372,8.484,19.277c-0.059,2.985,1.523,2.305-1.089,2.254c-1.121,4.205,4.027,5.272,3.709,9.164
			c-0.109,1.338-5.624,6.918-5.552,7.033c2.041,3.326,4.659,8.1,4.339,14.812c-0.145,3.041-3.98,9.323-3.611,10.063
			c0.35,1.281,2.162,6.373,2.582,6.815c0.416,0.475,2.574-3.201,2.635-2.438c-0.013-0.163,0.799,7.017,0.878,7.485
			c-0.001-0.02,0.004-0.039,0.002-0.06c0.009,0.109,0.006,0.108-0.002,0.06c0.344,5.082-9.167,8.247-11.037,14.163
			c0.42-1.329-1.881,5.468-1.891,5.989c-3.539-0.069-25.261,1.738-18.114,13.732c7.748,0.152-1.086,5.56-1.377,2.935
			c-3.941,4.042-5.547,2.277-1.93,7.423c2.848,4.05,7.621,4.272,9.579,5.734c1.067,0.797,1.748,4.066,2.872,4.675
			c3.168,1.716,8.425,1.414,10.654,2.793c2.475,1.534,3.051,4.9,2.756,8.398C69.345,292.049,74.702,293.26,80.217,294.289z"/>
		<g>
			<path style="fill-rule:evenodd;clip-rule:evenodd;fill:#0DA401;" d="M267.037,209.942c-0.211-1.637-0.376-3.321-0.396-5.001
				C266.661,206.623,266.823,208.303,267.037,209.942z"/>
			<path style="fill-rule:evenodd;clip-rule:evenodd;fill:#0DA401;" d="M131.134,229.247L131.134,229.247
				c-0.067,0.107-0.129,0.216-0.195,0.323C131.005,229.463,131.068,229.355,131.134,229.247z"/>
			<path style="fill-rule:evenodd;clip-rule:evenodd;fill:#0DA401;" d="M268.863,219.642c-0.042-0.124-0.081-0.254-0.122-0.381
				C268.782,219.388,268.821,219.518,268.863,219.642z"/>
			<path style="fill-rule:evenodd;clip-rule:evenodd;fill:#0DA401;" d="M265.521,247.853c3.01-10.335,12.209-6.128,8.858-16.142
				c-1.36-4.065-3.507-6.876-5.06-10.815l0,0c-6.196,5.92-12.868,5.6-28.036,8.626c-16.857,3.363-18.259,6.358-24.459,14.295
				c-6.2,7.938-22.82-0.784-34.991,0.829c-12.172,1.613-22.614,8.45-31.408,11.635c-8.794,3.185-0.178,9.063-5.86,12.797
				c-5.682,3.734-15.157-2.8-15.565-16.24c-0.189-6.238-2.305-10.179-4.517-12.633c0.025-0.033,0.048-0.072,0.072-0.105
				c-0.474,0.636-0.958,1.246-1.469,1.792c-4.631,4.946-1.277,0.898-7.316,9.175c-6.039,8.277-13.567,17.035-17.71,17.706
				c-0.065,0.01-0.13,0.001-0.195,0.007l-1.961,4.9c0,0-1.161,2.104,1.38,3.833c2.541,1.729,2.21,5.31-1.769,3.662
				c-3.979-1.648-7.406-3.842-8.786-7.675c-1.38-3.833-3.84-4.945-4.287-1.624c-0.448,3.322-5.132,2.446-4.191,5.823
				c0.941,3.377-2.882,8.786-1.391,12.51c0.528,1.318,1.86,2.761,3.356,4.079c5.245,0.979,10.632,1.793,11.669,1.428
				c0.827-6.271,4.983-2.297,8.269-0.533c1.509,0.81,2.41,3.804,4.002,4.749c4.668,2.77,10.374,1.731,14.435,3.288
				c9.283,3.559,13.248,9.93,15.099,16.144c1.402,4.704,11.822,5.239,14.496,9.11c4.135,5.987,0.783,8.634,7.212,8.761
				c4.528,0.089,1.357,9.995,1.711,10.593c2.242,3.789,5.902,1.897,8.587,2.461c1.762,0.37,7.762,2.714,11.357,1.871
				c0.949-0.223,8.374-6.488,8.503-6.366c1.155,1.09,31.182,10.453,32.983,10.872c1.911,0.445-11.992,21.005-13.301,22.978
				c5.15,0.508,13.481,2.09,15.349,9.011c5.424-16.817,7.622-35.615,10.687-53.051c2.244-12.766-6.759-25.128-6.763-25.135
				c-2.132-3.964-9.014-11.945-3.962-18.604c3.053-4.025,15.401-1.136,18.531-1.387c2.265-0.182-8.282-16.802-14.318-9.004
				c0.124-4.279,0.248-8.557,0.372-12.836c8.245,2.93,24.748,0.228,33.814,0.406c-0.001,0.01-4.665-5.329-0.452-6.267
				c6.365,11.824,9.248-5.665,16.16-3.632c3.609,1.061,6.133,15.862,4.588,18.075c-0.107,0.154,1.206,3.125,1.198,3.578
				c0.992,0.019,3.737-0.773,4.781-1.196C285.065,279.511,278.517,242.062,265.521,247.853z"/>
			<path style="fill-rule:evenodd;clip-rule:evenodd;fill:#0DA401;" d="M267.039,209.958c0.118,0.903,0.245,1.792,0.373,2.657
				C267.284,211.748,267.156,210.863,267.039,209.958z"/>
			<path style="fill-rule:evenodd;clip-rule:evenodd;fill:#0DA401;" d="M268.449,218.282c-0.044-0.158-0.087-0.318-0.128-0.481
				C268.362,217.964,268.405,218.124,268.449,218.282z"/>
			<path style="fill-rule:evenodd;clip-rule:evenodd;fill:#0DA401;" d="M268.078,216.758c-0.033-0.157-0.069-0.31-0.1-0.471
				C268.009,216.448,268.044,216.601,268.078,216.758z"/>
			<path style="fill-rule:evenodd;clip-rule:evenodd;fill:#0DA401;" d="M125.887,238.175l0.007-0.01L125.887,238.175z"/>
		</g>
	</g>
</g>
</svg>
