<?xml version="1.0" encoding="utf-8"?>
<!-- Generator: Adobe Illustrator 21.0.0, SVG Export Plug-In . SVG Version: 6.00 Build 0)  -->
<svg version="1.1" xmlns="http://www.w3.org/2000/svg" xmlns:xlink="http://www.w3.org/1999/xlink" x="0px" y="0px"
	 viewBox="0 0 147.586 207.512" style="enable-background:new 0 0 147.586 207.512;" xml:space="preserve">
<g id="Capa_1">
	<g>
		<g>
			<path style="fill:#FF8500;" d="M48.483,205.511c-1.795-1.581-3.394-3.313-4.027-4.894c-1.79-4.468,2.798-10.96,1.669-15.012
				c-1.129-4.052,4.492-3.001,5.029-6.987c0.537-3.986,3.489-2.651,5.145,1.948c1.656,4.6,5.768,7.232,10.543,9.21
				c4.775,1.978,5.172-2.32,2.123-4.395c-3.049-2.075-1.656-4.6-1.656-4.6l2.353-5.88c-4.908,0.478-10.192-8.781-10.192-8.781
				s-4.671-3.055,2.753-4.148c0,0,1.572-0.603,2.456-4.616c0,0-0.126-3.831,3.697-3.554s8.838,1.382,10.54-3.218
				c1.702-4.601-2.693-6.5-5.067-8.763c-2.373-2.263-3.202-6.874-0.819-12.489c2.383-5.614,4.915-11.408,4.915-11.408
				s1.613-3.235,0.569-8.451s-8.281-19.505-6.725-26.93c1.556-7.424,6.197-18.012-4.466-18.826
				c-10.663-0.814-14.343-8.341-14.197-15.793s4.352-6.161,7.148-4.897c2.796,1.264,5.892-2.504,1.556-7.424
				S50.308,27.32,50.793,23.098c0.283-2.462,0.338-7.521,0.334-11.32c-2.981-4.7-6.11-9.747-7.712-9.778
				c-2.292,2.204,1.057,14.266,4.562,17.912c0.297-1.116-11.059,9.339-10.445,9.973c-0.457-1.547-1.279-2.836-2.429-3.894
				c1.17,1.901-4.314,8.154-4.31,8.204c0.359,4.55,16.012,23.247,10.18,23.132c-0.07,3.581,1.828,2.766-1.307,2.704
				c-1.346,5.046,4.832,6.327,4.451,10.996c-0.131,1.606-6.748,8.301-6.663,8.44c2.449,3.991,5.591,9.72,5.207,17.774
				c-0.174,3.649-4.776,11.187-4.334,12.076c0.42,1.537,2.594,7.648,3.098,8.178c0.499,0.57,3.088-3.841,3.162-2.925
				c-0.016-0.195,0.959,8.421,1.054,8.982c-0.002-0.024,0.005-0.047,0.003-0.071c0.011,0.13,0.007,0.129-0.003,0.071
				c0.413,6.098-11.001,9.897-13.244,16.996c0.504-1.595-2.257,6.562-2.269,7.187c-4.247-0.083-30.313,2.086-21.737,16.479
				c9.298,0.183-1.303,6.672-1.652,3.522c-4.73,4.85-6.657,2.733-2.316,8.907c3.417,4.861,9.145,5.126,11.494,6.88
				c1.281,0.956,2.098,4.88,3.447,5.61c3.801,2.059,10.11,1.697,12.784,3.352c2.97,1.84,3.662,5.88,3.307,10.078
				C35.437,202.824,41.866,204.277,48.483,205.511z"/>
			<path style="fill:#FFFFFF;" d="M43.416,2c1.602,0.031,4.73,5.078,7.712,9.778c0.003,3.799-0.051,8.859-0.334,11.32
				c-0.486,4.222,6.702,7.587,11.038,12.507c3.762,4.27,1.929,7.671-0.448,7.671c-0.363,0-0.738-0.079-1.108-0.246
				c-1.07-0.484-2.347-0.971-3.523-0.971c-1.897,0-3.534,1.269-3.625,5.868c-0.146,7.452,3.534,14.979,14.197,15.793
				s6.022,11.401,4.466,18.826c-1.556,7.424,5.681,21.714,6.725,26.93c1.044,5.216-0.569,8.451-0.569,8.451
				s-2.532,5.793-4.915,11.408c-2.383,5.614-1.555,10.226,0.819,12.489s6.769,4.163,5.067,8.763
				c-1.075,2.905-3.47,3.535-6.053,3.535c-1.507,0-3.079-0.215-4.487-0.317c-0.133-0.01-0.262-0.014-0.385-0.014
				c-3.429,0-3.311,3.568-3.311,3.568c-0.885,4.012-2.456,4.616-2.456,4.616c-7.424,1.093-2.753,4.148-2.753,4.148
				s5.021,8.799,9.82,8.799c0.124,0,0.248-0.006,0.371-0.018l-2.353,5.88c0,0-1.393,2.525,1.656,4.6
				c2.502,1.703,2.684,4.902,0.029,4.902c-0.58,0-1.296-0.153-2.152-0.508c-4.775-1.978-8.887-4.611-10.543-9.21
				c-0.983-2.73-2.422-4.31-3.542-4.31c-0.767,0-1.384,0.741-1.603,2.361c-0.537,3.986-6.158,2.935-5.029,6.987
				c1.129,4.052-3.459,10.543-1.669,15.012c0.633,1.581,2.232,3.313,4.027,4.894c-6.617-1.235-13.047-2.688-13.025-2.948
				c0.354-4.198-0.337-8.238-3.307-10.078c-2.674-1.655-8.983-1.293-12.784-3.352c-1.349-0.73-2.166-4.654-3.447-5.61
				c-2.35-1.754-8.077-2.02-11.494-6.88c-4.341-6.174-2.414-4.057,2.316-8.907c0.068,0.614,0.525,0.862,1.148,0.862
				c2.576,0,7.99-4.236,0.504-4.383c-8.423-14.137,16.574-16.481,21.49-16.481c0.089,0,0.172,0.001,0.247,0.002
				c0.011-0.57,2.305-7.394,2.33-7.393c0.002,0-0.017,0.065-0.061,0.206c2.243-7.099,13.657-10.898,13.244-16.996
				c0.004,0.023,0.007,0.037,0.008,0.037c0.002,0,0.001-0.031-0.006-0.109c0.002,0.024-0.004,0.047-0.003,0.071
				c-0.094-0.555-1.048-8.985-1.054-8.985c0,0,0,0.001,0,0.003c-0.007-0.087-0.036-0.126-0.085-0.126
				c-0.429,0-2.342,3.102-2.964,3.102c-0.045,0-0.083-0.016-0.114-0.051c-0.504-0.531-2.678-6.642-3.098-8.178
				c-0.443-0.889,4.16-8.427,4.334-12.076c0.384-8.054-2.759-13.783-5.207-17.774c-0.086-0.139,6.532-6.835,6.663-8.44
				c0.381-4.67-5.797-5.95-4.451-10.996c1.032,0.02,1.518,0.122,1.709,0.122c0.389,0-0.449-0.424-0.402-2.826
				c0.018,0,0.035,0.001,0.053,0.001c5.681,0-9.875-18.597-10.233-23.133c-0.004-0.05,5.48-6.304,4.31-8.204
				c1.13,1.04,1.944,2.303,2.405,3.815c-0.002,0.034,0.006,0.061,0.024,0.079c-0.008-0.026-0.016-0.053-0.024-0.079
				c0.054-1.077,9.428-9.752,10.394-9.973c0.025,0.027,0.05,0.053,0.075,0.079c0.015-0.056,0-0.083-0.041-0.083
				c-0.01,0-0.021,0.001-0.033,0.004C44.426,16.096,41.14,4.188,43.416,2 M45.644,123.553h0.005 M43.416,0
				C42.9,0,42.403,0.2,42.03,0.558c-3.189,3.067-0.127,13.675,3.065,18.819c-0.928,0.755-2.235,1.904-4.103,3.666
				c-1.341,1.265-2.352,2.265-3.114,3.065c-0.413-0.569-0.887-1.099-1.419-1.59c-0.382-0.352-0.868-0.529-1.355-0.529
				c-0.45,0-0.901,0.151-1.272,0.456c-0.687,0.566-0.908,1.506-0.577,2.306c-0.074,0.392-0.565,1.974-3.812,5.93
				c-0.315,0.383-0.706,0.86-0.643,1.669c0.173,2.196,2.274,5.61,5.687,11c1.961,3.097,5.101,8.055,5.691,10.155
				c-0.69,0.309-1.188,0.987-1.203,1.782c-0.006,0.31,0,0.597,0.016,0.861c-0.604,0.217-1.083,0.718-1.256,1.367
				c-0.99,3.712,1.053,6.053,2.544,7.762c1.2,1.375,1.895,2.234,1.855,3.437c-0.526,1.146-3.804,4.752-4.9,5.957
				c-1.622,1.785-2.294,2.523-1.482,3.844c2.749,4.481,5.248,9.598,4.913,16.631c-0.081,1.695-1.585,4.962-2.683,7.348
				c-1.426,3.098-2.003,4.352-1.525,5.533c0.368,1.168,2.421,7.539,3.466,8.784l-0.001,0.001c0.408,0.467,0.998,0.734,1.619,0.734
				c0.587,0,1.077-0.212,1.543-0.577c0.306,2.655,0.496,4.267,0.568,4.783c0.091,2.177-2.583,4.426-5.413,6.805
				c-2.959,2.488-6.301,5.297-7.628,9.037c-0.212,0.507-0.529,1.48-1.227,3.626c-0.369,1.134-0.628,1.959-0.811,2.568
				c-4.415,0.256-18.682,1.642-22.783,8.859c-1.757,3.092-1.459,6.655,0.886,10.59c0.125,0.21,0.285,0.391,0.47,0.539
				c-0.134-0.028-0.269-0.041-0.404-0.041c-0.53,0-1.049,0.211-1.432,0.604c-1.185,1.215-2.161,1.94-2.946,2.522
				c-1.2,0.891-2.561,1.901-2.34,3.832c0.145,1.265,0.913,2.464,2.766,5.099c2.642,3.757,6.425,5.128,9.188,6.128
				c1.132,0.41,2.201,0.797,2.746,1.204c0.231,0.227,0.71,1.3,0.996,1.941c0.716,1.604,1.393,3.12,2.695,3.825
				c2.284,1.237,5.193,1.691,7.76,2.092c1.96,0.306,3.987,0.622,4.924,1.202c2.403,1.489,2.614,5.286,2.367,8.209
				c-0.148,1.754,1.548,2.218,2.561,2.494c0.727,0.199,1.741,0.446,3.013,0.733c2.584,0.585,5.893,1.261,9.077,1.855
				c0.123,0.023,0.246,0.034,0.368,0.034c0.754,0,1.458-0.428,1.797-1.124c0.394-0.809,0.199-1.782-0.476-2.377
				c-2.344-2.065-3.193-3.39-3.492-4.137c-0.702-1.753,0.072-4.39,0.82-6.939c0.785-2.672,1.596-5.436,0.919-7.866
				c-0.173-0.622-0.173-0.622,1.167-1.362c1.406-0.776,3.53-1.948,3.917-4.821c0.004-0.03,0.008-0.059,0.012-0.087
				c0.363,0.461,0.832,1.234,1.268,2.445c2.082,5.782,7.325,8.585,11.66,10.381c1.057,0.438,2.039,0.66,2.918,0.66
				c1.823,0,3.259-0.984,3.746-2.568c0.627-2.036-0.463-4.499-2.65-5.987c-1.525-1.038-1.051-1.942-1.03-1.98
				c0.04-0.072,0.075-0.147,0.106-0.223l2.353-5.88c0.259-0.648,0.162-1.385-0.257-1.943c-0.38-0.506-0.974-0.8-1.599-0.8
				c-0.065,0-0.129,0.003-0.194,0.009c-0.059,0.006-0.118,0.008-0.177,0.008c-2.749,0-6.633-5.248-8.083-7.79
				c-0.157-0.275-0.377-0.509-0.642-0.683c-0.023-0.015-0.046-0.032-0.069-0.049c0.41-0.139,1.048-0.303,2.019-0.446
				c0.146-0.021,0.288-0.059,0.425-0.111c0.604-0.232,2.657-1.354,3.693-6.052c0.036-0.163,0.051-0.33,0.046-0.496
				c-0.001-0.249,0.098-0.918,0.414-1.236c0.065-0.066,0.265-0.266,0.898-0.266c0.077,0,0.158,0.003,0.241,0.009
				c0.434,0.031,0.885,0.074,1.344,0.117c1.065,0.1,2.166,0.204,3.288,0.204c1.518,0,6.138,0,7.929-4.841
				c1.857-5.018-1.698-7.805-4.05-9.648c-0.562-0.44-1.092-0.856-1.512-1.257c-1.548-1.476-2.57-5.048-0.358-10.26
				c2.276-5.363,4.719-10.96,4.896-11.365c0.257-0.554,1.801-4.201,0.707-9.668c-0.357-1.782-1.311-4.363-2.417-7.351
				c-2.222-6.006-5.264-14.232-4.312-18.776c0.226-1.077,0.52-2.228,0.832-3.447c1.277-4.99,2.723-10.645,0.04-14.388
				c-1.435-2.001-3.838-3.144-7.143-3.396c-11.373-0.868-12.425-9.912-12.35-13.76c0.077-3.908,1.242-3.908,1.625-3.908
				c0.845,0,1.946,0.453,2.7,0.794c0.622,0.281,1.272,0.424,1.932,0.424c1.787,0,3.37-1.047,4.131-2.731
				c0.519-1.15,1.347-4.257-2.182-8.262c-1.637-1.858-3.563-3.434-5.425-4.958c-2.614-2.139-5.316-4.351-5.126-5.999
				c0.294-2.552,0.351-7.69,0.348-11.551c0-0.379-0.108-0.75-0.311-1.07l-0.377-0.595C47.91,2.963,45.829,0.047,43.455,0
				C43.442,0,43.429,0,43.416,0L43.416,0z M8.33,166.521c-0.099-0.129-0.213-0.246-0.341-0.348c0.119,0.025,0.241,0.038,0.365,0.041
				c0.247,0.005,0.468,0.014,0.666,0.027C8.785,166.359,8.546,166.457,8.33,166.521L8.33,166.521z"/>
		</g>
		<g>
			<defs>
				<path id="SVGID_1_" d="M48.483,205.511c-1.795-1.581-3.394-3.313-4.027-4.894c-1.79-4.468,2.798-10.96,1.669-15.012
					c-1.129-4.052,4.492-3.001,5.029-6.987c0.537-3.986,3.489-2.651,5.145,1.948c1.656,4.6,5.768,7.232,10.543,9.21
					c4.775,1.978,5.172-2.32,2.123-4.395c-3.049-2.075-1.656-4.6-1.656-4.6l2.353-5.88c-4.908,0.478-10.192-8.781-10.192-8.781
					s-4.671-3.055,2.753-4.148c0,0,1.572-0.603,2.456-4.616c0,0-0.126-3.831,3.697-3.554s8.838,1.382,10.54-3.218
					c1.702-4.601-2.693-6.5-5.067-8.763c-2.373-2.263-3.202-6.874-0.819-12.489c2.383-5.614,4.915-11.408,4.915-11.408
					s1.613-3.235,0.569-8.451s-8.281-19.505-6.725-26.93c1.556-7.424,6.197-18.012-4.466-18.826
					c-10.663-0.814-14.343-8.341-14.197-15.793s4.352-6.161,7.148-4.897c2.796,1.264,5.892-2.504,1.556-7.424
					S50.308,27.32,50.793,23.098c0.283-2.462,0.338-7.521,0.334-11.32c-2.981-4.7-6.11-9.747-7.712-9.778
					c-2.292,2.204,1.057,14.266,4.562,17.912c0.297-1.116-11.059,9.339-10.445,9.973c-0.457-1.547-1.279-2.836-2.429-3.894
					c1.17,1.901-4.314,8.154-4.31,8.204c0.359,4.55,16.012,23.247,10.18,23.132c-0.07,3.581,1.828,2.766-1.307,2.704
					c-1.346,5.046,4.832,6.327,4.451,10.996c-0.131,1.606-6.748,8.301-6.663,8.44c2.449,3.991,5.591,9.72,5.207,17.774
					c-0.174,3.649-4.776,11.187-4.334,12.076c0.42,1.537,2.594,7.648,3.098,8.178c0.499,0.57,3.088-3.841,3.162-2.925
					c-0.016-0.195,0.959,8.421,1.054,8.982c-0.002-0.024,0.005-0.047,0.003-0.071c0.011,0.13,0.007,0.129-0.003,0.071
					c0.413,6.098-11.001,9.897-13.244,16.996c0.504-1.595-2.257,6.562-2.269,7.187c-4.247-0.083-30.313,2.086-21.737,16.479
					c9.298,0.183-1.303,6.672-1.652,3.522c-4.73,4.85-6.657,2.733-2.316,8.907c3.417,4.861,9.145,5.126,11.494,6.88
					c1.281,0.956,2.098,4.88,3.447,5.61c3.801,2.059,10.11,1.697,12.784,3.352c2.97,1.84,3.662,5.88,3.307,10.078
					C35.437,202.824,41.866,204.277,48.483,205.511z"/>
			</defs>
			<clipPath id="SVGID_2_">
				<use xlink:href="#SVGID_1_"  style="overflow:visible;"/>
			</clipPath>
			<g style="clip-path:url(#SVGID_2_);">
				
					<rect x="-52.027" y="-14.213" transform="matrix(0.866 0.5 -0.5 0.866 44.4267 36.7922)" style="opacity:0.2;fill:#FFFFFF;" width="11.171" height="231.021"/>
				
					<rect x="-24.969" y="-15.35" transform="matrix(0.866 0.5 -0.5 0.866 47.4835 23.111)" style="opacity:0.2;fill:#FFFFFF;" width="11.171" height="231.021"/>
				
					<rect x="2.089" y="-16.486" transform="matrix(0.866 0.5 -0.5 0.866 50.5404 9.4298)" style="opacity:0.2;fill:#FFFFFF;" width="11.171" height="231.021"/>
				
					<rect x="29.146" y="-17.623" transform="matrix(0.866 0.5 -0.5 0.866 53.5972 -4.2513)" style="opacity:0.2;fill:#FFFFFF;" width="11.171" height="231.021"/>
				
					<rect x="56.204" y="-18.759" transform="matrix(0.866 0.5 -0.5 0.866 56.654 -17.9325)" style="opacity:0.2;fill:#FFFFFF;" width="11.171" height="231.021"/>
				
					<rect x="83.262" y="-19.896" transform="matrix(0.866 0.5 -0.5 0.866 59.7108 -31.6136)" style="opacity:0.2;fill:#FFFFFF;" width="11.171" height="231.021"/>
				
					<rect x="110.32" y="-21.032" transform="matrix(0.866 0.5 -0.5 0.866 62.7677 -45.2948)" style="opacity:0.2;fill:#FFFFFF;" width="11.171" height="231.021"/>
			</g>
		</g>
		<g>
			<path d="M54.255,28.866c2.289,2.03,5.256,4.14,7.498,6.656C59.076,33.08,56.025,30.987,54.255,28.866z M64.892,172.881
				c1.224,1.399,2.676,2.745,4.189,3.475l0.581-1.453C68.045,175.061,66.388,174.159,64.892,172.881z M38.012,28.976
				c0.679,0.848,1.197,1.81,1.521,2.909c-0.577-0.596,9.413-9.861,10.375-10.051C46.429,18.101,43.139,6.189,45.416,4
				c0.192,0.004,0.407,0.083,0.64,0.222c-1.06-1.338-1.98-2.209-2.64-2.222c-2.277,2.189,1.013,14.101,4.492,17.833
				C47.103,19.993,39.979,26.504,38.012,28.976z M48.222,205.275c0.066,0.075,0.133,0.15,0.201,0.225
				c0.02,0.004,0.041,0.008,0.061,0.011C48.395,205.433,48.309,205.353,48.222,205.275z M75.85,143.823
				c0.723,0.69,1.634,1.346,2.503,2.055c-0.866-1.193-2.185-2.144-3.359-3.079C75.25,143.179,75.535,143.523,75.85,143.823z
				 M69.38,185.705c0.227,0.429,0.572,0.871,1.09,1.303C70.214,186.548,69.851,186.101,69.38,185.705z M69.324,65.72
				c1.685,0.129,2.985,0.502,3.978,1.068c-0.934-1.677-2.753-2.821-5.978-3.068c-3.874-0.296-6.816-1.485-8.998-3.228
				C60.569,63.31,64.106,65.322,69.324,65.72z M37.529,203.211c0.101-3.692-0.729-7.085-3.378-8.726
				c-0.021-0.013-0.046-0.023-0.068-0.036c1.324,2.101,1.633,5.06,1.375,8.114C35.451,202.654,36.237,202.891,37.529,203.211z
				 M17.92,185.523c-0.282-0.211-0.615-0.399-0.984-0.577c0.78,1.534,1.471,3.667,2.431,4.187c0.243,0.132,0.498,0.253,0.76,0.366
				C19.404,188.057,18.762,186.152,17.92,185.523z M58.299,182.567c-0.838-2.329-2.008-3.816-3.03-4.204
				c0.372,0.615,0.723,1.353,1.03,2.204c0.81,2.251,2.212,4.028,3.988,5.491C59.453,185.033,58.772,183.883,58.299,182.567z
				 M47.647,125.481c0.002,0.024-0.004,0.047-0.003,0.071C47.654,125.61,47.658,125.612,47.647,125.481z M40.975,57.327
				c-0.07,3.581,1.828,2.766-1.307,2.704c-1.346,5.046,4.832,6.327,4.451,10.996c-0.131,1.606-6.748,8.301-6.663,8.44
				c2.449,3.991,5.591,9.72,5.207,17.774c-0.174,3.649-4.776,11.187-4.334,12.076c0.42,1.537,2.594,7.648,3.098,8.178
				c0.146,0.167,0.475-0.1,0.865-0.53c-0.788-2.042-1.706-4.705-1.963-5.648c-0.443-0.889,4.16-8.427,4.334-12.076
				c0.384-8.054-2.759-13.783-5.207-17.774c-0.086-0.139,6.532-6.835,6.663-8.44c0.381-4.67-5.797-5.95-4.451-10.996
				c3.135,0.062,1.237,0.877,1.307-2.704c5.832,0.115-9.821-18.582-10.18-23.132c-0.003-0.043,4.017-4.64,4.429-7.15
				c-0.481-1.177-1.186-2.196-2.119-3.054c1.17,1.901-4.314,8.154-4.31,8.204C31.154,38.744,46.807,57.441,40.975,57.327z
				 M9.431,164.271c-5.185-12.64,18.653-14.615,22.7-14.536c0.012-0.625,2.773-8.782,2.269-7.187
				c2.243-7.099,13.657-10.898,13.244-16.996c-0.095-0.562-1.07-9.177-1.054-8.982c-0.04-0.494-0.81,0.56-1.59,1.547
				c0.274,2.377,0.592,5.126,0.645,5.435c-0.002-0.024,0.005-0.047,0.003-0.071c0.011,0.13,0.007,0.129-0.003,0.071
				c0.413,6.098-11.001,9.897-13.244,16.996c0.504-1.594-2.257,6.562-2.269,7.187c-4.247-0.083-30.313,2.086-21.737,16.479
				C8.777,164.222,9.114,164.244,9.431,164.271z M6.426,178.643c-4.341-6.174-2.414-4.057,2.316-8.907
				c0.326,2.94,9.575-2.514,3.25-3.404c-0.97,1.641-5.036,3.337-5.25,1.404c-4.73,4.85-6.657,2.733-2.316,8.907
				c0.705,1.002,1.51,1.801,2.361,2.466C6.666,178.955,6.542,178.808,6.426,178.643z"/>
		</g>
		<g>
			<g>
				<path style="fill:#FFFFFF;" d="M67.843,74.377c-1.699-3.31-5.115-5.655-9.119-5.655c-4.006,0-10.246,3.368-10.246,10.319
					c0,1.68,0.406,3.265,1.126,4.664c1.699,3.311,9.12,11.647,9.12,11.647S68.968,84.69,68.968,79.041
					C68.968,77.363,68.562,75.778,67.843,74.377z M58.724,84.182c-2.835,0-5.141-2.306-5.141-5.141c0-2.144,1.319-3.984,3.189-4.754
					c0.602-0.249,1.261-0.386,1.952-0.386c2.834,0,5.141,2.231,5.141,5.066c0,2.144-1.32,4.06-3.189,4.83
					C60.072,84.046,59.414,84.182,58.724,84.182z M66.393,80.002c0.01-0.015,0.019-0.029,0.029-0.044
					c-0.002,0.003-0.004,0.007-0.006,0.009C66.409,79.977,66.4,79.99,66.393,80.002z M66.287,80.163
					c0.005-0.006,0.009-0.013,0.015-0.02C66.296,80.151,66.292,80.158,66.287,80.163z"/>
				<defs>
					<filter id="Adobe_OpacityMaskFilter" filterUnits="userSpaceOnUse" x="44.528" y="96.219" width="28.416" height="2.503">
						<feFlood  style="flood-color:white;flood-opacity:1" result="back"/>
						<feBlend  in="SourceGraphic" in2="back" mode="normal"/>
					</filter>
				</defs>
				<mask maskUnits="userSpaceOnUse" x="44.528" y="96.219" width="28.416" height="2.503" id="XMLID_2_">
				</mask>
				
					<ellipse id="XMLID_22_" transform="matrix(1 -0.0098 0.0098 1 -0.9506 0.5792)" style="opacity:0.5;mask:url(#XMLID_2_);fill:#999999;" cx="58.735" cy="97.47" rx="14.208" ry="1.244"/>
			</g>
			<g>
				<path d="M58.724,74.584c2.458,0,4.457,1.935,4.457,4.394c0,1.859-1.144,3.519-2.765,4.187c-0.523,0.216-1.093,0.336-1.692,0.336
					c-2.459,0-4.458-2.001-4.458-4.459c0-1.858,1.144-3.455,2.765-4.121C57.553,74.704,58.124,74.584,58.724,74.584 M58.724,73.217
					c-0.765,0-1.509,0.147-2.214,0.439c-2.194,0.902-3.611,3.019-3.611,5.385c0,3.212,2.614,5.826,5.826,5.826
					c0.764,0,1.508-0.147,2.212-0.439c2.161-0.889,3.612-3.08,3.612-5.45C64.548,75.801,61.934,73.217,58.724,73.217L58.724,73.217z
					"/>
			</g>
		</g>
		<g>
			<path style="fill:#FFFFFF;" d="M53.936,103.202c4.535,0,7.875,1.271,10.02,3.814c0.832,0.984,1.248,2.033,1.248,3.146
				c0,2.074-1.436,4.359-4.307,6.855l7.523,8.93l-6.328-0.07l-4.711-5.625v5.537l-5.203-0.334l0.299-22.219
				C52.969,103.214,53.456,103.202,53.936,103.202z M60.634,110.426c0-1.313-1.084-2.133-3.252-2.461v5.625
				C59.55,112.548,60.634,111.493,60.634,110.426z"/>
			<path style="fill:#FFFFFF;" d="M71.778,117.317c0.527,1.77,1.646,2.696,3.357,2.778c1.594,0.082,2.672-0.756,3.234-2.514
				l4.922-0.703c-1.254,5.145-3.744,7.717-7.471,7.717c-1.148,0-2.432-0.264-3.85-0.791c-2.625-1.5-3.938-4.383-3.938-8.648
				c0-0.363,0.012-0.768,0.035-1.213c0.258-4.934,2.66-7.799,7.206-8.596c4.312-0.094,6.796,2.904,7.452,8.993L71.778,117.317z
				 M73.123,111.05c-0.65,0.768-1.005,1.696-1.063,2.786l6.592-1.88c-0.762-1.371-1.711-2.057-2.848-2.057
				S73.773,110.283,73.123,111.05z"/>
			<path style="fill:#FFFFFF;" d="M98.356,120.938c0.551,1.207,0.826,2.156,0.826,2.848c0,0.738-0.516,1.576-1.547,2.514
				c-1.488,1.359-3.979,1.98-7.471,1.863c-3.48-0.105-5.479-0.961-5.994-2.566c-0.164-0.504-0.246-0.967-0.246-1.389
				c0-0.973,0.41-1.793,1.23-2.461c-0.363-0.867-0.545-1.805-0.545-2.813c0-0.996,0.621-1.893,1.863-2.689
				c-1.512-1.184-2.268-2.572-2.268-4.166c0-0.457,0.07-0.949,0.211-1.477c0.586-2.227,2.092-3.662,4.518-4.307
				c1.008-0.27,1.945-0.404,2.813-0.404c1.254,0,2.373,0.27,3.357,0.809c0.387-0.809,0.955-1.459,1.705-1.951l3.252,2.848
				c-1.266,0.258-2.033,0.82-2.303,1.688c0.738,0.773,1.061,2.027,0.967,3.762c-0.094,1.746-0.838,3.07-2.232,3.973
				c-1.008,0.656-2.432,0.984-4.271,0.984c-0.715,0-1.494-0.047-2.338-0.141c-1.043,0.305-1.564,0.721-1.564,1.248
				c0,0.176,0.059,0.363,0.176,0.563c2.074-0.527,3.885-0.785,5.432-0.773C96.27,118.911,97.747,119.59,98.356,120.938z
				 M95.438,123.065c-0.176-0.68-0.691-1.02-1.547-1.02c-0.398,0-1.166,0.088-2.303,0.264c-2.344,0.363-3.498,0.879-3.463,1.547
				c0.023,0.539,0.867,0.809,2.531,0.809c0.305,0,0.744-0.018,1.318-0.053c2.32-0.141,3.48-0.586,3.48-1.336
				C95.456,123.206,95.45,123.135,95.438,123.065z M94.471,111.956c-0.059-0.844-0.334-1.389-0.826-1.635
				c-0.328-0.164-1.031-0.258-2.109-0.281c-1.875-0.035-2.83,0.492-2.865,1.582c-0.035,1.102,0.943,1.746,2.936,1.934
				c0.246,0.023,0.486,0.035,0.721,0.035C93.839,113.59,94.553,113.046,94.471,111.956z"/>
			<path style="fill:#FFFFFF;" d="M102.206,104.608c0.258,0,0.492,0.035,0.703,0.105c0.984,0.328,1.629,0.938,1.934,1.828
				c0.094,0.27,0.141,0.539,0.141,0.809c0,0.598-0.24,1.189-0.721,1.775c-0.691,0.844-1.488,1.225-2.391,1.143
				s-1.635-0.568-2.197-1.459c-0.258-0.41-0.387-0.826-0.387-1.248c0-0.539,0.188-1.107,0.563-1.705
				C100.647,105.024,101.432,104.608,102.206,104.608z M104.878,112.096c-0.188,4.348-0.422,8.66-0.703,12.938l-4.5,0.422
				c0.164-1.828,0.246-3.686,0.246-5.572c0-2.344-0.129-4.723-0.387-7.137L104.878,112.096z"/>
			<path style="fill:#FFFFFF;" d="M105.405,117.247c0.082-2.672,0.744-4.969,1.986-6.891c1.477-2.297,3.451-3.445,5.924-3.445
				c2.613,0,4.5,0.645,5.66,1.934c0.949,1.055,1.693,2.941,2.232,5.66c0.211,1.066,0.316,2.074,0.316,3.023
				c0,2.039-0.504,3.738-1.512,5.098c-1.477,1.992-3.721,2.941-6.732,2.848c-2.766-0.082-4.793-0.785-6.082-2.109
				S105.311,120.001,105.405,117.247z M115.741,113.028c-0.82-0.773-1.594-1.16-2.32-1.16c-0.891,0-1.711,0.586-2.461,1.758
				c-0.668,1.043-1.002,2.057-1.002,3.041c0,0.926,0.305,1.875,0.914,2.848c0.68,1.09,1.465,1.635,2.355,1.635
				c1.02,0,1.951-0.533,2.795-1.6c0.809-1.008,1.213-2.033,1.213-3.076C117.235,115.348,116.737,114.2,115.741,113.028z
				 M112.665,103.342l1.723-5.308l4.045,0.982l-4.045,4.783L112.665,103.342z"/>
			<path style="fill:#FFFFFF;" d="M128.134,106.471l0.281,1.969c2.285-1.605,4.16-2.408,5.625-2.408
				c1.359,0,2.367,0.686,3.023,2.057c0.996,2.086,1.494,5.514,1.494,10.283c0,1.711-0.064,3.598-0.193,5.66l-4.746,0.158
				c0.375-2.531,0.563-4.67,0.563-6.416c0-2.133-0.281-3.674-0.844-4.623c-0.363-0.609-0.779-0.914-1.248-0.914
				c-0.902,0-2.004,1.061-3.305,3.182v9.299l-4.289-0.123l-0.721-17.42L128.134,106.471z"/>
			<path style="fill:#FFFFFF;" d="M48.724,132.503c3.855,0,6.398,1.424,7.629,4.271c0.328,0.762,0.492,1.477,0.492,2.145
				c0,2.742-2.672,4.875-8.016,6.398l-0.281,8.279l-4.5-0.141l0.422-20.479C46.029,132.661,47.447,132.503,48.724,132.503z
				 M52.275,138.409c-0.047-0.68-1.055-1.242-3.023-1.688l-0.141,3.938C51.267,139.839,52.322,139.089,52.275,138.409z"/>
			<path style="fill:#FFFFFF;" d="M62.646,134.26c0.785-0.176,1.553-0.264,2.303-0.264c3.633,0,5.971,1.887,7.014,5.66
				c0.539,1.957,0.779,4.207,0.721,6.75l-0.141,6.029l-4.553,0.281l-0.035-0.826c-5.719-0.199-8.701-1.605-8.947-4.219
				c-0.035-0.375-0.053-0.65-0.053-0.826c0-2.133,0.855-3.469,2.566-4.008c0.855-0.27,1.705-0.404,2.549-0.404
				c1.125,0,2.273,0.229,3.445,0.686c-0.012-2.016-0.035-3.082-0.07-3.199c-0.234-0.809-1.014-1.266-2.338-1.371
				c-1.125-0.094-2.203,0.844-3.234,2.813l-4.5-0.703C58.592,136.909,60.349,134.776,62.646,134.26z M65.564,145.563
				c-1.23,0-1.875,0.322-1.934,0.967c-0.094,0.938,1.289,1.699,4.148,2.285l-0.123-3.041
				C66.836,145.633,66.138,145.563,65.564,145.563z"/>
			<path style="fill:#FFFFFF;" d="M88.82,144.315c-0.773,5.121-2.742,7.898-5.906,8.332c-0.516,0.07-1.049,0.105-1.6,0.105
				c-2.59,0-4.605-0.891-6.047-2.672c-1.336-1.652-2.004-3.803-2.004-6.451c0-0.516,0.035-1.102,0.105-1.758
				c0.375-3.48,0.961-5.725,1.758-6.732c0.984-1.242,2.104-2.039,3.357-2.391c0.703-0.199,2.127-0.334,4.271-0.404
				c2.684-0.094,4.758,2.18,6.223,6.82l-4.922,0.352c-0.738-1.5-1.594-2.25-2.566-2.25c-0.469,0-0.961,0.17-1.477,0.51
				c-1.453,0.961-2.18,2.449-2.18,4.465c0,0.176,0.012,0.416,0.035,0.721c0.188,2.402,1.219,3.674,3.094,3.814
				s2.953-0.838,3.234-2.936L88.82,144.315z"/>
			<path style="fill:#FFFFFF;" d="M95.394,140.096c-0.188,4.348-0.422,8.66-0.703,12.938l-4.5,0.422
				c0.164-1.828,0.246-3.686,0.246-5.572c0-2.344-0.129-4.723-0.387-7.137L95.394,140.096z M92.195,137.424l4.045-4.783
				l-4.045-0.982l-1.723,5.308L92.195,137.424z"/>
			<path style="fill:#FFFFFF;" d="M94.463,141.96l4.025-0.861c-0.199-3.445-0.1-5.631,0.299-6.557
				c0.879-2.039,2.215-3.059,4.008-3.059c1.781,0,3.656,0.885,5.625,2.654l-3.094,2.479c-0.785-0.68-1.441-1.02-1.969-1.02
				c-1.137,0-1.676,1.605-1.617,4.816l3.867-0.826l0.844,3.357l-4.008,1.037l2.18,9.492l-4.641,1.67l-1.195-10.213l-3.48,0.896
				L94.463,141.96z"/>
			<path style="fill:#FFFFFF;" d="M112.129,132.608c0.258,0,0.492,0.035,0.703,0.105c0.984,0.328,1.629,0.938,1.934,1.828
				c0.094,0.27,0.141,0.539,0.141,0.809c0,0.598-0.24,1.189-0.721,1.775c-0.691,0.844-1.488,1.225-2.391,1.143
				s-1.635-0.568-2.197-1.459c-0.258-0.41-0.387-0.826-0.387-1.248c0-0.539,0.188-1.107,0.563-1.705
				C110.57,133.024,111.355,132.608,112.129,132.608z M114.801,140.096c-0.188,4.348-0.422,8.66-0.703,12.938l-4.5,0.422
				c0.164-1.828,0.246-3.686,0.246-5.572c0-2.344-0.129-4.723-0.387-7.137L114.801,140.096z"/>
			<path style="fill:#FFFFFF;" d="M130.955,144.315c-0.773,5.121-2.742,7.898-5.906,8.332c-0.516,0.07-1.049,0.105-1.6,0.105
				c-2.59,0-4.605-0.891-6.047-2.672c-1.336-1.652-2.004-3.803-2.004-6.451c0-0.516,0.035-1.102,0.105-1.758
				c0.375-3.48,0.961-5.725,1.758-6.732c0.984-1.242,2.104-2.039,3.357-2.391c0.703-0.199,2.127-0.334,4.271-0.404
				c2.684-0.094,4.758,2.18,6.223,6.82l-4.922,0.352c-0.738-1.5-1.594-2.25-2.566-2.25c-0.469,0-0.961,0.17-1.477,0.51
				c-1.453,0.961-2.18,2.449-2.18,4.465c0,0.176,0.012,0.416,0.035,0.721c0.188,2.402,1.219,3.674,3.094,3.814
				s2.953-0.838,3.234-2.936L130.955,144.315z"/>
			<path style="fill:#FFFFFF;" d="M136.791,134.26c0.785-0.176,1.553-0.264,2.303-0.264c3.633,0,5.971,1.887,7.014,5.66
				c0.539,1.957,0.779,4.207,0.721,6.75l-0.141,6.029l-4.553,0.281l-0.035-0.826c-5.719-0.199-8.701-1.605-8.947-4.219
				c-0.035-0.375-0.053-0.65-0.053-0.826c0-2.133,0.855-3.469,2.566-4.008c0.855-0.27,1.705-0.404,2.549-0.404
				c1.125,0,2.273,0.229,3.445,0.686c-0.012-2.016-0.035-3.082-0.07-3.199c-0.234-0.809-1.014-1.266-2.338-1.371
				c-1.125-0.094-2.203,0.844-3.234,2.813l-4.5-0.703C132.736,136.909,134.494,134.776,136.791,134.26z M139.709,145.563
				c-1.23,0-1.875,0.322-1.934,0.967c-0.094,0.938,1.289,1.699,4.148,2.285l-0.123-3.041
				C140.98,145.633,140.283,145.563,139.709,145.563z"/>
			<g>
				<path d="M58.132,122.316l3.607,4.308l8.31,0.092l-8.108-9.624c2.699-2.478,4.014-4.75,4.014-6.93c0-1.29-0.479-2.512-1.425-3.63
					c-2.283-2.708-5.848-4.081-10.593-4.081c-0.492,0-0.99,0.012-1.495,0.036l-0.704,0.033l-0.318,23.637l6.713,0.431V122.316z
					 M56.632,124.99l-3.693-0.237l0.279-20.792c0.241-0.006,0.48-0.009,0.719-0.009c4.282,0,7.461,1.194,9.446,3.549
					c0.721,0.852,1.071,1.723,1.071,2.662c0,1.838-1.362,3.954-4.049,6.29l-0.558,0.484l6.945,8.243l-4.347-0.048l-5.814-6.942
					V124.99z"/>
				<path d="M61.384,110.426c0-1.192-0.675-2.716-3.89-3.203l-0.862-0.13v7.69l1.075-0.517
					C60.18,113.076,61.384,111.82,61.384,110.426z M58.132,112.342v-3.461c1.752,0.46,1.752,1.259,1.752,1.545
					C59.884,110.777,59.63,111.446,58.132,112.342z"/>
				<path d="M71.599,124.455l0.11,0.052c1.495,0.556,2.879,0.838,4.111,0.838c4.1,0,6.858-2.789,8.199-8.289l0.263-1.077
					l-6.484,0.926l-0.143,0.448c-0.462,1.442-1.212,2.056-2.484,1.993c-1.138-0.055-1.914-0.543-2.397-1.522l10.768-2.928
					l-0.068-0.636c-0.691-6.414-3.382-9.665-7.997-9.665c-0.071,0-0.145,0.001-0.218,0.002l-0.113,0.011
					c-4.915,0.862-7.548,3.989-7.825,9.295c-0.024,0.46-0.036,0.877-0.036,1.252C67.284,119.69,68.736,122.819,71.599,124.455z
					 M68.818,113.981c0.238-4.558,2.374-7.138,6.53-7.886c0.039-0.001,0.078-0.001,0.117-0.001c3.635,0,5.746,2.52,6.439,7.691
					l-11.065,3.009l0.22,0.736c0.617,2.07,2.014,3.215,4.038,3.313c1.274,0.064,2.931-0.346,3.825-2.584l3.347-0.478
					c-1.229,4.077-3.346,6.063-6.448,6.063c-1.038,0-2.226-0.243-3.53-0.722c-2.359-1.377-3.507-3.984-3.507-7.967
					C68.784,114.803,68.796,114.412,68.818,113.981z"/>
				<path d="M79.306,111.592c-0.9-1.621-2.079-2.443-3.503-2.443c-1.362,0-2.456,0.477-3.253,1.417
					c-0.756,0.892-1.173,1.979-1.24,3.231l-0.057,1.05l8.512-2.428L79.306,111.592z M73,112.788
					c0.147-0.464,0.378-0.879,0.695-1.253c0.505-0.596,1.195-0.886,2.108-0.886c0.614,0,1.159,0.286,1.65,0.869L73,112.788z"/>
				<path d="M91.535,114.302c0.271,0.026,0.534,0.039,0.792,0.039c1.105,0,1.883-0.259,2.377-0.791
					c0.27-0.291,0.578-0.813,0.516-1.649c-0.079-1.122-0.495-1.879-1.239-2.25c-0.299-0.149-0.846-0.326-2.431-0.36
					c-3.056-0.062-3.6,1.421-3.629,2.308C87.886,112.673,88.486,114.015,91.535,114.302z M91.351,110.788
					c0.055,0,0.11,0,0.168,0.002c1.379,0.03,1.733,0.173,1.791,0.202c0.293,0.146,0.387,0.633,0.413,1.016v0.004
					c0.027,0.36-0.083,0.479-0.119,0.518c-0.245,0.264-1.043,0.363-1.928,0.279c-1.518-0.143-2.276-0.534-2.256-1.163
					C89.427,111.431,89.448,110.788,91.351,110.788z"/>
				<path d="M83.86,118.934c0,0.914,0.139,1.786,0.414,2.602c-0.73,0.747-1.1,1.644-1.1,2.672c0,0.499,0.095,1.044,0.282,1.618
					c0.629,1.959,2.816,2.969,6.683,3.086c0.292,0.01,0.577,0.015,0.855,0.015c3.278,0,5.622-0.681,7.146-2.072
					c0.274-0.249,0.511-0.493,0.722-0.733l-0.015,0.165l6.033-0.566l0.042-0.638c0.082-1.252,0.153-2.523,0.227-3.788
					c0.336,1.029,0.836,1.899,1.511,2.592c1.423,1.462,3.643,2.249,6.596,2.336c0.143,0.004,0.283,0.007,0.423,0.007
					c3.05,0,5.382-1.061,6.936-3.157c1.101-1.485,1.659-3.351,1.659-5.544c0-0.994-0.111-2.06-0.331-3.169
					c-0.57-2.88-1.359-4.848-2.41-6.016c-1.303-1.448-3.396-2.182-6.218-2.182c-2.732,0-4.938,1.275-6.554,3.788
					c-0.454,0.702-0.83,1.457-1.138,2.256c0.001-0.025,0.003-0.051,0.004-0.076l0.038-0.884l-6.192,0.754
					c-0.061-1.167-0.339-2.117-0.841-2.83c0.056-0.083,0.141-0.172,0.244-0.262c0.051,0.101,0.102,0.203,0.165,0.303
					c0.69,1.094,1.62,1.702,2.763,1.806c0.106,0.009,0.21,0.014,0.313,0.014c1.032,0,1.948-0.479,2.726-1.428
					c0.591-0.721,0.891-1.478,0.891-2.251c0-0.353-0.062-0.708-0.181-1.051c-0.384-1.12-1.192-1.893-2.406-2.297
					c-0.287-0.096-0.604-0.144-0.94-0.144c-0.982,0-1.957,0.498-2.897,1.479l-0.094,0.12c-0.057,0.09-0.099,0.18-0.149,0.27
					l-2.191-1.919l-0.477,0.313c-0.65,0.427-1.188,0.963-1.603,1.599c-1.703-0.708-3.725-0.773-6.054-0.15
					c-2.694,0.716-4.394,2.344-5.05,4.838c-0.157,0.588-0.236,1.15-0.236,1.67c0,1.544,0.613,2.925,1.824,4.117
					C84.337,117.004,83.86,117.922,83.86,118.934z M106.155,117.272v-0.002c0.077-2.521,0.705-4.71,1.867-6.508
					c1.342-2.087,3.072-3.101,5.293-3.101c2.38,0,4.097,0.567,5.103,1.686c0.854,0.948,1.545,2.732,2.055,5.304
					c0.2,1.014,0.302,1.982,0.302,2.878c0,1.865-0.459,3.43-1.364,4.651c-1.333,1.799-3.335,2.636-6.107,2.545
					c-2.552-0.076-4.425-0.709-5.567-1.883C106.6,121.675,106.068,119.801,106.155,117.272z M104.09,112.948
					c-0.17,3.814-0.379,7.641-0.622,11.399l-2.973,0.279c0.117-1.558,0.176-3.149,0.176-4.742c0-2.121-0.106-4.298-0.316-6.481
					L104.09,112.948z M98.982,115.24c0.111,1.564,0.188,3.12,0.188,4.644c0,0.336-0.017,0.669-0.022,1.004
					c-0.039-0.088-0.067-0.168-0.109-0.259c-0.573-1.268-1.739-2.055-3.473-2.349c0.497-0.167,0.942-0.378,1.333-0.632
					C97.864,117.024,98.557,116.216,98.982,115.24z M100.446,106.319c0.626-0.638,1.218-0.961,1.76-0.961
					c0.176,0,0.333,0.022,0.466,0.067c0.768,0.256,1.231,0.688,1.463,1.363c0.066,0.191,0.099,0.375,0.099,0.562
					c0,0.423-0.18,0.848-0.551,1.3c-0.536,0.655-1.103,0.933-1.742,0.871c-0.663-0.06-1.196-0.424-1.631-1.111
					c-0.019-0.031-0.026-0.06-0.043-0.09l1.428-0.291l-1.454-1.273C100.301,106.612,100.355,106.47,100.446,106.319z
					 M84.956,112.079c0-0.39,0.063-0.821,0.187-1.286c0.517-1.963,1.82-3.198,3.985-3.773c0.94-0.251,1.821-0.379,2.619-0.379
					c1.121,0,2.129,0.241,2.997,0.716l0.695,0.381l0.342-0.715c0.247-0.517,0.574-0.949,0.991-1.31l1.789,1.566
					c-0.001,0.014-0.002,0.028-0.003,0.042c-0.769,0.398-1.279,0.978-1.515,1.74l-0.131,0.421l0.304,0.319
					c0.587,0.614,0.843,1.692,0.761,3.204c-0.081,1.505-0.699,2.612-1.893,3.384c-1.235,0.805-3.303,1.04-6.117,0.727l-0.149-0.017
					l-0.144,0.042c-1.396,0.408-2.104,1.07-2.104,1.968c0,0.311,0.094,0.627,0.279,0.943l0.285,0.485l0.546-0.139
					c2.003-0.51,3.801-0.762,5.243-0.75c2.042,0.01,3.269,0.533,3.75,1.598l0.001,0.002c0.627,1.374,0.759,2.137,0.759,2.536
					c0,0.354-0.226,0.981-1.303,1.96c-1.332,1.217-3.663,1.775-6.942,1.667c-2.14-0.065-4.797-0.473-5.304-2.049
					c-0.139-0.426-0.209-0.815-0.209-1.156c0-0.742,0.313-1.356,0.954-1.879l0.435-0.354l-0.217-0.517
					c-0.322-0.771-0.486-1.62-0.486-2.523c0-0.729,0.497-1.403,1.519-2.058l0.889-0.57l-0.832-0.651
					C85.603,114.611,84.956,113.442,84.956,112.079z"/>
				<path d="M90.657,125.415c0.315,0,0.77-0.018,1.363-0.054c1.146-0.069,4.186-0.253,4.186-2.084c0-0.111-0.009-0.223-0.027-0.334
					l-0.014-0.064c-0.153-0.59-0.651-1.582-2.273-1.582c-0.441,0-1.231,0.089-2.418,0.272c-2.069,0.321-4.175,0.848-4.097,2.321
					C87.443,125.415,89.778,125.415,90.657,125.415z M91.703,123.05c1.362-0.21,1.942-0.255,2.188-0.255
					c0.695,0,0.772,0.27,0.819,0.452c-0.045,0.054-0.462,0.476-2.781,0.616c-0.554,0.034-0.979,0.051-1.272,0.051
					c-0.885,0-1.36-0.081-1.606-0.152C89.343,123.592,90.05,123.307,91.703,123.05z"/>
				<path d="M113.227,121.899c1.256,0,2.394-0.634,3.38-1.88c0.914-1.14,1.378-2.333,1.378-3.545c0-1.303-0.563-2.625-1.673-3.931
					l-0.057-0.06c-2.169-2.045-4.325-1.766-5.928,0.739c-0.743,1.161-1.12,2.32-1.12,3.445c0,1.064,0.346,2.157,1.027,3.245
					C111.058,121.23,112.064,121.899,113.227,121.899z M111.592,114.03c0.6-0.937,1.215-1.412,1.829-1.412
					c0.518,0,1.115,0.312,1.775,0.928c0.855,1.016,1.289,2,1.289,2.928c0,0.875-0.343,1.728-1.051,2.611
					c-0.7,0.885-1.422,1.315-2.207,1.315c-0.619,0-1.182-0.419-1.72-1.283c-0.531-0.847-0.8-1.671-0.8-2.45
					C110.708,115.833,111.005,114.945,111.592,114.03z"/>
				<path d="M119.789,98.574l-5.9-1.433l-2.182,6.723l2.947,0.782L119.789,98.574z M113.623,102.82l1.264-3.893l2.189,0.531
					l-2.955,3.494L113.623,102.82z"/>
				<path d="M129.534,125.489v-9.857c1.535-2.451,2.341-2.645,2.555-2.645c0.241,0,0.481,0.343,0.603,0.546
					c0.49,0.828,0.739,2.254,0.739,4.241c0,1.701-0.187,3.823-0.555,6.306l-0.132,0.889l6.326-0.21l0.043-0.68
					c0.129-2.068,0.194-3.989,0.194-5.707c0-4.928-0.513-8.398-1.567-10.607c-0.777-1.625-2.057-2.483-3.7-2.483
					c-1.407,0-3.066,0.614-5.051,1.872l-0.221-1.544l-5.771,0.931l0.777,18.784L129.534,125.489z M127.499,107.333l0.347,2.424
					l1.001-0.703c3.908-2.747,6.359-3.107,7.54-0.642c0.942,1.975,1.421,5.326,1.421,9.96c0,1.498-0.051,3.155-0.151,4.933
					l-3.17,0.106c0.295-2.179,0.444-4.071,0.444-5.637c0-2.291-0.311-3.928-0.949-5.007c-0.631-1.058-1.378-1.28-1.893-1.28
					c-1.21,0-2.463,1.125-3.944,3.54l-0.11,0.181v8.738l-2.818-0.081l-0.664-16.056L127.499,107.333z"/>
				<path d="M49.417,135.99l-0.882-0.2l-0.214,5.972l1.057-0.402c2.632-1.001,3.722-1.899,3.646-3.003
					C52.927,136.96,51.046,136.358,49.417,135.99z M49.902,139.52l0.065-1.839c1.256,0.373,1.512,0.702,1.554,0.771
					C51.479,138.541,51.232,138.915,49.902,139.52z"/>
				<path d="M67.783,145.035c-0.858-0.147-1.604-0.222-2.219-0.222c-2.092,0-2.612,0.896-2.68,1.642
					c-0.187,1.864,2.618,2.659,4.744,3.095l0.938,0.192l-0.187-4.605L67.783,145.035z M64.378,146.598
					c0.013-0.138,0.433-0.285,1.187-0.285c0.388,0,0.846,0.036,1.367,0.107l0.059,1.447
					C64.397,147.218,64.377,146.611,64.378,146.598z"/>
				<path d="M92.462,138.271l5.135-6.072l-5.9-1.433l-2.182,6.723L92.462,138.271z M92.694,132.552l2.189,0.531l-2.955,3.494
					l-0.498-0.132L92.694,132.552z"/>
				<path d="M108.964,137.21c0.69,1.094,1.62,1.702,2.763,1.806c0.106,0.009,0.21,0.014,0.313,0.014
					c1.032,0,1.948-0.479,2.726-1.428c0.591-0.721,0.891-1.478,0.891-2.251c0-0.353-0.062-0.708-0.181-1.051
					c-0.384-1.12-1.192-1.893-2.406-2.297c-0.287-0.096-0.604-0.144-0.94-0.144c-0.982,0-1.957,0.498-2.897,1.479l-0.094,0.12
					c-0.044,0.071-0.077,0.141-0.117,0.212l-0.1-0.09c-2.101-1.889-4.162-2.847-6.126-2.847c-2.112,0-3.692,1.182-4.696,3.512
					c-0.273,0.635-0.604,1.974-0.394,6.253l-1.596,0.342c0.01-0.237,0.024-0.475,0.035-0.712l0.038-0.884l-6.955,0.847l0.078,0.735
					c0.1,0.939,0.165,1.874,0.226,2.808l-5.98-0.614l-0.097,0.721c-0.289,2.156-1.392,2.366-2.436,2.287
					c-0.932-0.07-2.194-0.47-2.401-3.124c-0.021-0.28-0.033-0.501-0.033-0.663c0-1.763,0.603-3.019,1.843-3.839
					c0.389-0.256,0.746-0.386,1.063-0.386c0.658,0,1.296,0.616,1.894,1.831l0.223,0.453l6.373-0.456l-0.286-0.906
					c-1.57-4.979-3.891-7.468-6.962-7.344c-2.227,0.073-3.683,0.214-4.449,0.432c-1.403,0.394-2.663,1.284-3.743,2.647
					c-0.749,0.947-1.308,2.745-1.702,5.446c-0.052-0.22-0.093-0.45-0.152-0.663c-1.139-4.121-3.742-6.21-7.736-6.21
					c-0.802,0-1.632,0.095-2.467,0.282c-2.043,0.459-3.694,2.045-4.942,4.688c-0.078-0.56-0.241-1.141-0.499-1.739
					c-1.784-4.129-6.076-5.585-12.721-4.234l-0.588,0.119l-0.449,21.821l5.989,0.187l0.288-8.485
					c3.797-1.151,6.253-2.672,7.357-4.537l4.579,0.715c-0.067,0.02-0.134,0.04-0.201,0.061c-1.41,0.444-3.091,1.625-3.091,4.723
					c0,0.19,0.018,0.489,0.056,0.896c0.275,2.92,3.294,4.556,8.975,4.867l0.038,0.903l6.003-0.371l0.112-4.772
					c0.336,0.799,0.768,1.528,1.297,2.182c1.584,1.958,3.814,2.95,6.63,2.95c0.582,0,1.154-0.038,1.701-0.112
					c3.519-0.482,5.721-3.498,6.546-8.963l0.022-0.144c0.068,1.212,0.104,2.415,0.104,3.6c0,1.855-0.082,3.708-0.243,5.505
					l-0.08,0.898l6.033-0.566l0.042-0.638c0.144-2.186,0.275-4.398,0.395-6.618l2.307-0.594l1.206,10.298l6.155-2.215l-2.165-9.429
					l4.022-1.041l-1.202-4.782l-3.667,0.784c0.05-2.188,0.447-2.846,0.633-3.035c0.085-0.087,0.152-0.104,0.233-0.104
					c0.153,0,0.605,0.082,1.478,0.836l0.473,0.409l3.201-2.565c-0.03,0.18-0.047,0.358-0.047,0.534
					C108.461,136.125,108.63,136.679,108.964,137.21z M48.624,144.596l-0.525,0.15l-0.274,8.078l-3.011-0.094l0.395-19.13
					c5.557-1,9.016,0.137,10.457,3.472c0.286,0.664,0.431,1.286,0.431,1.848C56.095,141.272,53.582,143.182,48.624,144.596z
					 M71.809,151.73l-3.103,0.191l-0.032-0.756l-0.693-0.024c-5.255-0.183-8.023-1.374-8.227-3.539
					c-0.032-0.343-0.05-0.595-0.05-0.756c0-2.375,1.165-3.016,2.042-3.292c0.778-0.245,1.56-0.37,2.323-0.37
					c1.026,0,2.094,0.213,3.173,0.634l1.029,0.401l-0.007-1.104c-0.019-3.131-0.057-3.261-0.1-3.404
					c-0.227-0.78-0.931-1.745-2.996-1.91c-1.379-0.113-2.578,0.784-3.701,2.738l-3.092-0.483c1.103-2.949,2.592-4.651,4.434-5.064
					c0.728-0.163,1.447-0.246,2.139-0.246c3.282,0,5.341,1.671,6.291,5.109c0.517,1.877,0.75,4.076,0.693,6.533L71.809,151.73z
					 M62.474,141.831l0.063-0.121c0.601-1.147,1.53-2.487,2.511-2.413c1.47,0.117,1.626,0.655,1.661,0.762
					c0.011,0.078,0.033,0.433,0.049,2.015c-0.907-0.259-1.807-0.389-2.688-0.389C63.542,141.684,63.009,141.733,62.474,141.831z
					 M82.812,151.904c-0.479,0.065-0.983,0.099-1.498,0.099c-2.373,0-4.16-0.783-5.464-2.394c-1.219-1.508-1.837-3.52-1.837-5.979
					c0-0.487,0.034-1.051,0.102-1.677c0.445-4.137,1.116-5.735,1.6-6.347c0.88-1.11,1.879-1.828,2.974-2.135
					c0.441-0.125,1.509-0.292,4.094-0.376c0.042-0.001,0.083-0.002,0.125-0.002c2.067,0,3.764,1.813,5.052,5.394l-3.467,0.248
					c-1.27-2.25-3.045-2.799-4.893-1.583c-1.669,1.104-2.516,2.816-2.516,5.09c0,0.19,0.012,0.449,0.037,0.779
					c0.274,3.508,2.21,4.386,3.786,4.504c2.041,0.152,3.402-0.86,3.898-2.867l3.144,0.323
					C87.16,149.272,85.475,151.539,82.812,151.904z M91.011,152.626c0.117-1.558,0.176-3.149,0.176-4.742
					c0-2.121-0.106-4.298-0.316-6.481l3.735-0.455c-0.003,0.072-0.008,0.144-0.011,0.216l-1.026,0.22l0.828,3.791
					c-0.125,2.404-0.259,4.803-0.413,7.172L91.011,152.626z M105.327,135.654c-1.344-0.999-2.495-1.048-3.273-0.254
					c-0.773,0.788-1.111,2.385-1.063,5.026l0.017,0.91l4.05-0.865l0.485,1.933l-3.993,1.033l2.194,9.555l-3.126,1.125l-1.185-10.128
					l-3.521,0.907c0.043-0.835,0.083-1.67,0.122-2.506l3.241-0.694l-0.037-0.642c-0.239-4.125-0.002-5.657,0.238-6.216
					c0.756-1.753,1.842-2.605,3.319-2.605c1.385,0,2.877,0.634,4.446,1.887L105.327,135.654z M110.369,134.319
					c0.626-0.638,1.218-0.961,1.76-0.961c0.176,0,0.333,0.022,0.466,0.067c0.768,0.256,1.231,0.688,1.463,1.363
					c0.066,0.191,0.099,0.375,0.099,0.562c0,0.423-0.18,0.848-0.551,1.3c-0.536,0.655-1.106,0.932-1.742,0.871
					c-0.663-0.06-1.196-0.424-1.631-1.111c-0.183-0.291-0.271-0.569-0.271-0.849C109.961,135.186,110.098,134.768,110.369,134.319z"
					/>
				<path d="M141.927,145.035c-0.858-0.147-1.604-0.222-2.219-0.222c-2.092,0-2.612,0.896-2.68,1.642
					c-0.187,1.864,2.618,2.659,4.744,3.095l0.938,0.192l-0.187-4.605L141.927,145.035z M138.522,146.598
					c0.013-0.138,0.433-0.285,1.187-0.285c0.388,0,0.846,0.036,1.367,0.107l0.059,1.447
					C138.542,147.218,138.521,146.611,138.522,146.598z"/>
				<path d="M146.83,139.457c-1.139-4.121-3.742-6.21-7.736-6.21c-0.802,0-1.632,0.095-2.467,0.282
					c-2.075,0.466-3.745,2.095-4.999,4.813c-1.564-4.575-3.802-6.865-6.761-6.746c-2.227,0.073-3.683,0.214-4.449,0.432
					c-1.403,0.394-2.663,1.284-3.743,2.647c-0.672,0.85-1.193,2.375-1.578,4.631l-6.464,0.787l0.078,0.735
					c0.254,2.376,0.383,4.751,0.383,7.057c0,1.855-0.082,3.708-0.243,5.505l-0.08,0.898l6.033-0.566l0.042-0.638
					c0.123-1.864,0.233-3.751,0.339-5.641c0.363,1.171,0.908,2.211,1.635,3.11c1.584,1.958,3.814,2.95,6.63,2.95
					c0.582,0,1.154-0.038,1.701-0.112c3.519-0.482,5.721-3.498,6.546-8.963l0.118-0.777l-6.129-0.629l-0.097,0.721
					c-0.289,2.156-1.392,2.366-2.436,2.287c-0.932-0.07-2.194-0.47-2.401-3.124c-0.021-0.28-0.033-0.501-0.033-0.663
					c0-1.763,0.603-3.019,1.843-3.839c0.389-0.256,0.746-0.386,1.063-0.386c0.658,0,1.296,0.616,1.894,1.831l0.223,0.453
					l5.246-0.375c-0.06,0.17-0.125,0.325-0.183,0.501l-0.272,0.837l5.109,0.798c-0.067,0.02-0.134,0.04-0.201,0.061
					c-1.41,0.444-3.091,1.625-3.091,4.723c0,0.19,0.018,0.489,0.056,0.896c0.275,2.92,3.294,4.556,8.975,4.867l0.038,0.903
					l6.003-0.371l0.157-6.718C147.637,143.82,147.386,141.476,146.83,139.457z M113.39,152.347l-2.973,0.279
					c0.117-1.558,0.176-3.149,0.176-4.742c0-2.121-0.106-4.298-0.316-6.481l3.735-0.455
					C113.843,144.762,113.634,148.589,113.39,152.347z M126.627,138.733c-1.27-2.25-3.044-2.799-4.893-1.583
					c-1.669,1.104-2.516,2.816-2.516,5.09c0,0.19,0.012,0.449,0.037,0.779c0.274,3.508,2.21,4.386,3.786,4.504
					c2.039,0.152,3.402-0.86,3.898-2.867l3.144,0.323c-0.789,4.292-2.474,6.56-5.137,6.924c-0.479,0.065-0.983,0.099-1.498,0.099
					c-2.373,0-4.16-0.783-5.464-2.394c-1.219-1.508-1.837-3.52-1.837-5.979c0-0.487,0.034-1.051,0.102-1.677
					c0.445-4.137,1.116-5.735,1.6-6.347c0.88-1.11,1.879-1.828,2.974-2.135c0.441-0.125,1.509-0.292,4.094-0.376
					c0.042-0.001,0.083-0.002,0.125-0.002c2.067,0,3.764,1.813,5.052,5.394L126.627,138.733z M145.954,151.73l-3.103,0.191
					l-0.032-0.756l-0.693-0.024c-5.255-0.183-8.023-1.374-8.227-3.539c-0.032-0.343-0.05-0.595-0.05-0.756
					c0-2.375,1.165-3.016,2.042-3.292c0.778-0.245,1.56-0.37,2.323-0.37c1.026,0,2.094,0.213,3.173,0.634l1.029,0.401l-0.007-1.104
					c-0.019-3.131-0.057-3.261-0.1-3.404c-0.227-0.78-0.931-1.745-2.996-1.91c-1.378-0.113-2.577,0.784-3.701,2.738l-3.092-0.483
					c1.103-2.949,2.592-4.651,4.434-5.064c0.728-0.163,1.447-0.246,2.139-0.246c3.282,0,5.341,1.671,6.291,5.109
					c0.517,1.877,0.75,4.076,0.693,6.533L145.954,151.73z M136.619,141.831l0.063-0.121c0.602-1.147,1.534-2.487,2.511-2.413
					c1.47,0.117,1.626,0.655,1.661,0.762c0.011,0.078,0.033,0.433,0.049,2.015c-0.907-0.259-1.807-0.389-2.688-0.389
					C137.686,141.684,137.153,141.733,136.619,141.831z"/>
			</g>
		</g>
	</g>
</g>
<g id="Capa_2">
</g>
</svg>
