<?xml version="1.0" encoding="utf-8"?>
<!-- Generator: Adobe Illustrator 21.0.0, SVG Export Plug-In . SVG Version: 6.00 Build 0)  -->
<svg version="1.1" id="Capa_1" xmlns="http://www.w3.org/2000/svg" xmlns:xlink="http://www.w3.org/1999/xlink" x="0px" y="0px"
	 viewBox="0 0 200 61.34" style="enable-background:new 0 0 200 61.34;" xml:space="preserve">
<style type="text/css">
	.st0{opacity:0.2;fill-rule:evenodd;clip-rule:evenodd;}
	.st1{fill-rule:evenodd;clip-rule:evenodd;fill:#FFFFFF;}
	.st2{fill-rule:evenodd;clip-rule:evenodd;fill:#00A5F5;}
	.st3{fill-rule:evenodd;clip-rule:evenodd;fill:#003280;}
	.st4{fill-rule:evenodd;clip-rule:evenodd;fill:#0059E1;}
	.st5{fill-rule:evenodd;clip-rule:evenodd;fill:#00CFFF;}
	.st6{fill-rule:evenodd;clip-rule:evenodd;fill:#93D5FA;}
	.st7{fill-rule:evenodd;clip-rule:evenodd;fill:#E6E6E6;}
	.st8{fill:#FFFFFF;}
	.st9{fill:#003280;}
</style>
<g>
	<g>
		<path class="st0" d="M6.257,8.636c-8.321,8.28-8.348,38.26-0.04,46.553c8.215,8.202,179.353,8.2,187.566,0
			c8.307-8.294,8.282-38.273-0.04-46.553C185.342,0.279,14.657,0.279,6.257,8.636z"/>
		<path class="st1" d="M6.257,6.268c-8.321,8.28-8.348,38.26-0.04,46.553c8.215,8.202,179.353,8.2,187.566,0
			c8.307-8.294,8.282-38.273-0.04-46.553C185.342-2.089,14.657-2.089,6.257,6.268z"/>
		<path class="st2" d="M8.406,6.982C0.867,14.486,0.843,41.646,8.371,49.16c7.443,7.431,175.817,7.431,183.259,0
			c7.527-7.513,7.504-34.674-0.035-42.178C183.982-0.589,16.018-0.589,8.406,6.982z"/>
		<path class="st3" d="M191.629,43.482c-7.443,7.43-175.816,7.43-183.259,0c-3.344-3.339-5.199-10.557-5.566-18.204
			C2.349,34.812,4.202,45.001,8.371,49.16c7.441,7.431,175.817,7.431,183.259,0c4.168-4.16,6.022-14.348,5.564-23.882
			C196.829,32.925,194.974,40.143,191.629,43.482z"/>
		<path class="st4" d="M5.995,40.013c0.683,1.392,1.476,2.571,2.376,3.469c7.443,7.43,175.816,7.43,183.259,0
			c2.871-2.868,4.646-8.597,5.322-15.002C182.982,38.739,24.808,42.499,5.995,40.013z"/>
		<path class="st5" d="M8.406,6.982C6.147,9.231,4.56,13.246,3.652,17.968c13.05-13.564,180.948-15.729,192.027-2.89
			c-0.941-3.451-2.304-6.322-4.085-8.095C183.982-0.591,16.016-0.591,8.406,6.982z"/>
		<path class="st6" d="M14.349,5.17c-3.204,0.908-5.8,3.118-5.8,4.934s2.596,2.553,5.8,1.645c3.202-0.908,5.798-3.118,5.798-4.935
			C20.148,4.999,17.551,4.262,14.349,5.17z"/>
		<path class="st6" d="M23.961,3.881c-1.806,0.112-3.439,0.985-3.648,1.951c-0.212,0.965,1.083,1.655,2.889,1.541
			c1.805-0.112,3.437-0.985,3.648-1.951C27.058,4.459,25.765,3.768,23.961,3.881z"/>
		<path class="st6" d="M187.8,39.402c-2.022,0.982-3.488,2.758-3.275,3.966c0.214,1.208,2.026,1.392,4.05,0.411
			c2.024-0.982,3.489-2.757,3.275-3.966C191.637,38.605,189.822,38.421,187.8,39.402z"/>
		<path class="st6" d="M196.951,28.48c-0.676,6.405-2.451,12.133-5.322,15.002c-7.443,7.43-175.816,7.43-183.259,0
			c-0.899-0.898-1.692-2.077-2.376-3.469c-1.859-3.784-2.923-9.144-3.19-14.735c-0.053,1.112-0.074,2.234-0.065,3.353
			c0.007-0.772,0.028-1.544,0.065-2.312c0.367,7.649,2.222,14.866,5.566,18.204c7.443,7.43,175.816,7.43,183.259,0
			c3.344-3.338,5.199-10.555,5.564-18.204c0.037,0.768,0.059,1.541,0.067,2.316c0.009-1.121-0.013-2.245-0.067-3.358
			C197.144,26.356,197.062,27.427,196.951,28.48z"/>
		<path class="st7" d="M6.217,51.544c-4.054-4.046-6.123-13.256-6.214-22.588c-0.095,9.758,1.976,19.634,6.214,23.865
			c8.215,8.2,179.35,8.2,187.566,0c4.236-4.23,6.308-14.107,6.214-23.865c-0.09,9.332-2.161,18.543-6.214,22.588
			C185.569,59.745,14.431,59.745,6.217,51.544z"/>
	</g>
	<g>
		<g>
			<path class="st8" d="M35.53,25.542c0,4.374-0.15,8.77-0.45,13.187l5.951,0.812l0.901-27.434l-6.853,0.405
				C35.38,16.827,35.53,21.169,35.53,25.542z"/>
			<path class="st8" d="M65.737,17.089c-1.007-0.405-1.946-0.608-2.818-0.608c-2.089,0-3.757,1.194-5.004,3.584
				c-1.232-3.321-2.833-4.981-4.802-4.981c-1.532,0-3.283,1-5.252,2.998l-0.315-2.524l-5.095,0.901l0.834,22.339l5.027,0.158V27.031
				c1.563-2.75,2.862-4.125,3.899-4.125c0.586,0,1.09,0.436,1.511,1.308c0.781,1.638,1.172,4.327,1.172,8.069
				c0,1.773-0.09,3.772-0.271,5.996h5.095c-0.256-2.75-0.384-5.124-0.384-7.123c0-5.319,0.86-7.979,2.581-7.979
				c1.736,0,2.604,4.035,2.604,12.104c0,0.827,0,1.706,0,2.638l4.441-0.181c0.346-3.381,0.519-6.349,0.519-8.903
				C69.479,22.011,68.231,18.096,65.737,17.089z"/>
			<path class="st8" d="M75.813,11.972c-1.578,0-3.329,0.196-5.252,0.587L70.922,39l5.951-0.36l-0.722-10.257
				c6.612-1.563,9.919-4.17,9.919-7.822c0-0.871-0.181-1.788-0.541-2.75C84.071,13.919,80.833,11.972,75.813,11.972z M75.971,22.59
				l-0.361-5.23c2.886,0.691,4.358,1.474,4.419,2.345C80.089,20.577,78.736,21.538,75.971,22.59z"/>
			<path class="st8" d="M93.576,18.059l0.203-2.052l-6.312,0.519c0.511,5.465,0.743,12.769,0.698,21.911l6.447-0.226
				c-0.211-2.687-0.315-5.021-0.315-7.001c0-4.353,0.519-7.062,1.556-8.127c1.502-1.531,4.103-2.297,7.799-2.297l-0.608-5.455
				C99.828,15.226,96.672,16.135,93.576,18.059z"/>
			<path class="st8" d="M109.131,12.401c-0.271-0.09-0.571-0.135-0.902-0.135c-0.991,0-1.999,0.533-3.021,1.6
				c-0.481,0.767-0.722,1.496-0.722,2.187c0,0.541,0.166,1.075,0.496,1.601c0.722,1.143,1.661,1.767,2.818,1.871
				c1.157,0.105,2.179-0.383,3.065-1.465c0.616-0.751,0.924-1.511,0.924-2.277c0-0.345-0.06-0.69-0.18-1.036
				C111.218,13.603,110.392,12.822,109.131,12.401z"/>
			<path class="st8" d="M105.297,31.855c0,2.419-0.104,4.801-0.315,7.146l5.771-0.541c0.36-5.485,0.661-11.016,0.901-16.591
				l-6.853,0.834C105.132,25.798,105.297,28.849,105.297,31.855z"/>
			<path class="st8" d="M135.662,17.089c-1.007-0.405-1.946-0.608-2.818-0.608c-2.089,0-3.757,1.194-5.004,3.584
				c-1.232-3.321-2.833-4.981-4.802-4.981c-1.532,0-3.283,1-5.252,2.998l-0.315-2.524l-5.095,0.901l0.834,22.339l5.027,0.158V27.031
				c1.563-2.75,2.862-4.125,3.899-4.125c0.586,0,1.09,0.436,1.511,1.308c0.781,1.638,1.172,4.327,1.172,8.069
				c0,1.773-0.09,3.772-0.271,5.996h5.095c-0.256-2.75-0.384-5.124-0.384-7.123c0-5.319,0.86-7.979,2.581-7.979
				c1.736,0,2.604,4.035,2.604,12.104c0,0.827,0,1.706,0,2.638l4.441-0.181c0.346-3.381,0.519-6.349,0.519-8.903
				C139.404,22.011,138.156,18.096,135.662,17.089z"/>
			<path class="st8" d="M145.333,12.401c-0.271-0.09-0.571-0.135-0.902-0.135c-0.991,0-1.999,0.533-3.021,1.6
				c-0.481,0.767-0.722,1.496-0.722,2.187c0,0.541,0.166,1.075,0.496,1.601c0.722,1.143,1.661,1.767,2.818,1.871
				c1.157,0.105,2.179-0.383,3.065-1.465c0.616-0.751,0.924-1.511,0.924-2.277c0-0.345-0.06-0.69-0.18-1.036
				C147.421,13.603,146.594,12.822,145.333,12.401z"/>
			<path class="st8" d="M141.5,31.855c0,2.419-0.104,4.801-0.315,7.146l5.771-0.541c0.36-5.485,0.661-11.016,0.901-16.591
				l-6.853,0.834C141.335,25.798,141.5,28.849,141.5,31.855z"/>
			<path class="st8" d="M164.943,20.786l-0.608-5.455c-3.216-0.105-6.372,0.804-9.468,2.728l0.203-2.052l-6.312,0.519
				c0.511,5.465,0.743,12.769,0.698,21.911l6.447-0.226c-0.211-2.687-0.315-5.021-0.315-7.001c0-4.353,0.519-7.062,1.556-8.127
				C158.646,21.552,161.247,20.786,164.943,20.786z"/>
		</g>
		<g>
			<path class="st9" d="M70.412,11.824l-0.609,0.124l0.164,12.035c-0.522-4.235-1.827-6.732-3.949-7.589l0,0
				c-3.311-1.332-6.055-0.64-7.976,2.03c-2.215-4.694-5.593-5.391-9.619-1.901l-0.23-1.842l-5.627,0.996l0.143-4.366l-8.43,0.499
				l0.053,0.756c0.297,4.28,0.448,8.646,0.448,12.977c0,4.332-0.151,8.751-0.448,13.137l-0.048,0.699l7.469,1.019l0.394-11.983
				l0.415,11.11l6.5,0.205v-12.5c1.91-3.313,2.891-3.574,3.149-3.574c0.356,0,0.676,0.554,0.834,0.88
				c0.729,1.528,1.099,4.135,1.099,7.747c0,1.749-0.09,3.746-0.268,5.936l-0.066,0.811h6.731l-0.077-0.819
				c-0.252-2.714-0.38-5.088-0.38-7.054c0-6.708,1.401-7.229,1.831-7.229c0.19,0,1.854,0.319,1.854,11.354V38.7l5.872-0.239
				l0.066-0.646c0.17-1.66,0.297-3.229,0.385-4.702l0.091,6.685l7.492-0.453l-0.73-10.382c6.554-1.668,9.876-4.492,9.876-8.4
				c0-0.957-0.198-1.97-0.589-3.013C84.182,12.078,78.868,10.107,70.412,11.824z M40.309,38.686l-4.435-0.604
				c0.27-4.189,0.406-8.404,0.406-12.539c0-4.11-0.135-8.253-0.401-12.325l5.277-0.312L40.309,38.686z M68.279,37.015l-3.01,0.122
				v-1.856c0-9.01-1.003-12.854-3.354-12.854c-2.986,0-3.331,4.982-3.331,8.729c0,1.811,0.105,3.951,0.313,6.373h-3.464
				c0.14-1.914,0.21-3.676,0.21-5.246c0-3.891-0.407-6.636-1.247-8.396c-0.554-1.149-1.29-1.731-2.186-1.731
				c-1.359,0-2.805,1.431-4.551,4.504l-0.098,0.172v11.349l-3.554-0.111l-0.783-20.987l3.674-0.65l0.41,3.277l1.086-1.103
				c1.814-1.841,3.401-2.774,4.718-2.774c1.613,0,2.993,1.511,4.099,4.492l0.587,1.583l0.781-1.496
				c1.594-3.055,3.827-3.854,6.876-2.627c2.141,0.865,3.273,4.686,3.273,11.05C68.729,31.188,68.578,33.937,68.279,37.015z
				 M75.979,27.653L75.358,27.8l0.713,10.137l-4.411,0.268l-0.341-25.029c7.332-1.354,11.77,0.264,13.507,4.898
				c0.327,0.874,0.493,1.71,0.493,2.487C85.32,23.802,82.177,26.188,75.979,27.653z"/>
			<path class="st9" d="M75.785,16.63l-0.994-0.238l0.501,7.258l0.945-0.359c3.228-1.228,4.627-2.35,4.539-3.639
				C80.688,18.368,79.148,17.436,75.785,16.63z M76.649,21.509l-0.219-3.162c2.725,0.771,2.851,1.402,2.851,1.408
				C79.281,19.763,79.242,20.4,76.649,21.509z"/>
			<path class="st9" d="M135.942,16.394L135.942,16.394c-3.31-1.332-6.056-0.641-7.977,2.03c-2.215-4.694-5.593-5.39-9.618-1.901
				l-0.23-1.842l-5.587,0.989c-0.012-0.391-0.077-0.784-0.21-1.167c-0.47-1.37-1.463-2.316-2.952-2.813l-0.001,0
				c-0.346-0.115-0.729-0.173-1.139-0.173c-1.2,0-2.398,0.616-3.563,1.831l-0.093,0.12c-0.405,0.643-0.66,1.279-0.771,1.899
				l-0.085-0.763l-0.649-0.021c-2.897-0.097-5.794,0.611-8.602,2.1l0.148-1.496L86.65,15.84l0.071,0.755
				c0.505,5.412,0.739,12.759,0.695,21.837l-0.004,0.78l8.01-0.28l-0.062-0.78c-0.208-2.646-0.313-4.982-0.313-6.942
				c0-5.144,0.73-6.975,1.341-7.602c1.349-1.375,3.792-2.072,7.263-2.072h0.838l-0.456-4.098c0.088,0.207,0.188,0.412,0.315,0.614
				c0.85,1.346,1.988,2.092,3.384,2.218c0.128,0.012,0.255,0.017,0.38,0.017c1.259,0,2.379-0.588,3.334-1.753
				c0.093-0.113,0.163-0.229,0.244-0.344l0.108,2.904l-7.82,0.952l0.078,0.735c0.326,3.055,0.491,6.107,0.491,9.073
				c0,2.393-0.105,4.774-0.313,7.078l-0.081,0.898l7.306-0.685l0.042-0.639c0.216-3.278,0.403-6.594,0.577-9.916l0.408,10.932
				l6.501,0.205v-12.5c1.91-3.313,2.892-3.574,3.149-3.574c0.355,0,0.676,0.554,0.834,0.88c0.729,1.528,1.099,4.135,1.099,7.747
				c0,1.749-0.09,3.746-0.268,5.936l-0.066,0.811h6.731l-0.076-0.819c-0.253-2.714-0.381-5.088-0.381-7.054
				c0-6.708,1.401-7.229,1.831-7.229c0.189,0,1.854,0.319,1.854,11.354V38.7l5.871-0.239l0.066-0.646
				c0.347-3.391,0.522-6.411,0.522-8.979C140.154,21.607,138.776,17.538,135.942,16.394z M95.316,22.56
				c-1.206,1.239-1.768,3.988-1.768,8.65c0,1.803,0.087,3.912,0.259,6.278l-4.888,0.172c0.027-8.359-0.187-15.231-0.637-20.449
				l4.662-0.383l-0.264,2.67l1.292-0.803c2.744-1.706,5.566-2.586,8.4-2.622l0.443,3.976C99.359,20.165,96.839,21.008,95.316,22.56z
				 M110.286,17.583c-0.725,0.885-1.509,1.279-2.418,1.193c-0.92-0.083-1.656-0.582-2.251-1.523
				c-0.256-0.408-0.381-0.801-0.381-1.202c0-0.527,0.19-1.106,0.567-1.723c0.85-0.871,1.666-1.313,2.425-1.313
				c0.249,0,0.473,0.032,0.666,0.096c1.036,0.346,1.692,0.96,2.008,1.879c0.091,0.264,0.138,0.53,0.138,0.79
				C111.04,16.376,110.794,16.965,110.286,17.583z M110.047,37.772l-4.242,0.398c0.161-2.067,0.243-4.188,0.243-6.315
				c0-2.78-0.143-5.635-0.424-8.497l5.243-0.638C110.644,27.744,110.369,32.8,110.047,37.772z M138.204,37.015l-3.01,0.122v-1.856
				c0-9.01-1.003-12.854-3.354-12.854c-2.985,0-3.331,4.982-3.331,8.729c0,1.811,0.105,3.951,0.313,6.373h-3.464
				c0.14-1.914,0.21-3.676,0.21-5.246c0-3.891-0.407-6.636-1.246-8.396c-0.555-1.149-1.29-1.731-2.187-1.731
				c-1.359,0-2.806,1.431-4.552,4.504l-0.098,0.172v11.349l-3.554-0.111l-0.784-20.987l3.675-0.65l0.409,3.277l1.087-1.103
				c1.814-1.841,3.401-2.774,4.718-2.774c1.613,0,2.992,1.511,4.099,4.492l0.587,1.583l0.781-1.496
				c1.595-3.055,3.823-3.854,6.877-2.627c2.141,0.865,3.272,4.686,3.272,11.05C138.654,31.188,138.503,33.937,138.204,37.015z"/>
			<path class="st9" d="M165.008,14.603l-0.649-0.021c-2.902-0.092-5.793,0.611-8.603,2.1l0.148-1.496l-7.164,0.589
				c-0.001-0.426-0.074-0.855-0.219-1.272c-0.47-1.37-1.463-2.316-2.952-2.813l-0.001,0c-0.346-0.115-0.729-0.173-1.139-0.173
				c-1.2,0-2.398,0.616-3.563,1.831l-0.093,0.12c-0.556,0.884-0.837,1.754-0.837,2.585c0,0.682,0.206,1.354,0.612,2.001
				c0.85,1.346,1.988,2.092,3.384,2.218c0.128,0.012,0.255,0.017,0.38,0.017c1.259,0,2.379-0.588,3.334-1.753
				c0.179-0.218,0.335-0.438,0.47-0.661c0.082,1.007,0.159,2.054,0.224,3.18l-8.161,0.993l0.078,0.735
				c0.326,3.055,0.491,6.107,0.491,9.073c0,2.393-0.105,4.774-0.313,7.078l-0.081,0.898l7.306-0.685l0.042-0.639
				c0.31-4.716,0.569-9.51,0.789-14.287c0.167,4.111,0.24,8.851,0.214,14.212l-0.004,0.78l8.01-0.28l-0.061-0.78
				c-0.208-2.646-0.313-4.982-0.313-6.942c0-5.144,0.73-6.975,1.341-7.602c1.349-1.375,3.793-2.072,7.264-2.072h0.838
				L165.008,14.603z M146.488,17.583c-0.725,0.885-1.51,1.279-2.418,1.193c-0.92-0.083-1.656-0.582-2.251-1.523
				c-0.256-0.408-0.381-0.801-0.381-1.202c0-0.527,0.19-1.106,0.567-1.723c0.85-0.871,1.666-1.313,2.425-1.313
				c0.249,0,0.473,0.032,0.665,0.096c1.036,0.346,1.693,0.959,2.009,1.879c0.091,0.264,0.138,0.53,0.138,0.79
				C147.242,16.376,146.996,16.965,146.488,17.583z M146.249,37.772l-4.242,0.398c0.161-2.067,0.243-4.188,0.243-6.315
				c0-2.78-0.143-5.635-0.424-8.497l5.243-0.638C146.846,27.744,146.571,32.8,146.249,37.772z M156.607,22.56
				c-1.207,1.239-1.769,3.988-1.769,8.65c0,1.803,0.087,3.912,0.259,6.278l-4.888,0.172c0.026-8.359-0.188-15.231-0.637-20.449
				l4.662-0.383l-0.265,2.67l1.292-0.803c2.745-1.706,5.567-2.586,8.4-2.622l0.443,3.976C160.65,20.165,158.13,21.008,156.607,22.56
				z"/>
		</g>
	</g>
</g>
</svg>
