<?xml version="1.0" encoding="utf-8"?>
<!-- Generator: Adobe Illustrator 21.0.0, SVG Export Plug-In . SVG Version: 6.00 Build 0)  -->
<svg version="1.1" id="Capa_1" xmlns="http://www.w3.org/2000/svg" xmlns:xlink="http://www.w3.org/1999/xlink" x="0px" y="0px"
	 viewBox="0 0 200 61.34" style="enable-background:new 0 0 200 61.34;" xml:space="preserve">
<style type="text/css">
	.st0{opacity:0.2;fill-rule:evenodd;clip-rule:evenodd;}
	.st1{fill-rule:evenodd;clip-rule:evenodd;fill:#FFFFFF;}
	.st2{fill-rule:evenodd;clip-rule:evenodd;fill:#FEC31D;}
	.st3{fill-rule:evenodd;clip-rule:evenodd;fill:#C96900;}
	.st4{fill-rule:evenodd;clip-rule:evenodd;fill:#FFAC04;}
	.st5{fill-rule:evenodd;clip-rule:evenodd;fill:#FFD30E;}
	.st6{fill-rule:evenodd;clip-rule:evenodd;fill:#FFEF91;}
	.st7{fill-rule:evenodd;clip-rule:evenodd;fill:#FEE147;}
	.st8{fill-rule:evenodd;clip-rule:evenodd;fill:#E6E6E6;}
	.st9{fill:#FFFFFF;}
	.st10{fill:#C96900;}
</style>
<g>
	<g>
		<path class="st0" d="M6.257,8.636c-8.321,8.28-8.348,38.26-0.04,46.553c8.215,8.202,179.353,8.2,187.566,0
			c8.307-8.294,8.282-38.273-0.04-46.553C185.342,0.279,14.657,0.279,6.257,8.636z"/>
		<path class="st1" d="M6.257,6.268c-8.321,8.28-8.348,38.26-0.04,46.553c8.215,8.202,179.353,8.2,187.566,0
			c8.307-8.294,8.282-38.273-0.04-46.553C185.342-2.089,14.657-2.089,6.257,6.268z"/>
		<path class="st2" d="M8.406,6.982C0.867,14.486,0.843,41.646,8.371,49.16c7.443,7.431,175.817,7.431,183.259,0
			c7.527-7.513,7.504-34.674-0.035-42.178C183.982-0.589,16.018-0.589,8.406,6.982z"/>
		<path class="st3" d="M191.629,43.482c-7.443,7.43-175.816,7.43-183.259,0c-3.344-3.339-5.199-10.557-5.566-18.204
			C2.349,34.812,4.202,45.001,8.371,49.16c7.441,7.431,175.817,7.431,183.259,0c4.168-4.16,6.022-14.348,5.564-23.882
			C196.829,32.925,194.974,40.143,191.629,43.482z"/>
		<path class="st4" d="M5.995,40.013c0.683,1.392,1.476,2.571,2.376,3.469c7.443,7.43,175.816,7.43,183.259,0
			c2.871-2.868,4.646-8.597,5.322-15.002C182.982,38.739,24.808,42.499,5.995,40.013z"/>
		<path class="st5" d="M8.406,6.982C6.147,9.231,4.56,13.246,3.652,17.968c13.05-13.564,180.948-15.729,192.027-2.89
			c-0.941-3.451-2.304-6.322-4.085-8.095C183.982-0.591,16.016-0.591,8.406,6.982z"/>
		<path class="st6" d="M14.349,5.17c-3.204,0.908-5.8,3.118-5.8,4.934s2.596,2.553,5.8,1.645c3.202-0.908,5.798-3.118,5.798-4.935
			C20.148,4.999,17.551,4.262,14.349,5.17z"/>
		<path class="st6" d="M23.961,3.881c-1.806,0.112-3.439,0.985-3.648,1.951c-0.212,0.965,1.083,1.655,2.889,1.541
			c1.805-0.112,3.437-0.985,3.648-1.951C27.058,4.459,25.765,3.768,23.961,3.881z"/>
		<path class="st7" d="M187.8,39.402c-2.022,0.982-3.488,2.758-3.275,3.966c0.214,1.208,2.026,1.392,4.05,0.411
			c2.024-0.982,3.489-2.757,3.275-3.966C191.637,38.605,189.822,38.421,187.8,39.402z"/>
		<path class="st7" d="M196.951,28.48c-0.676,6.405-2.451,12.133-5.322,15.002c-7.443,7.43-175.816,7.43-183.259,0
			c-0.899-0.898-1.692-2.077-2.376-3.469c-1.859-3.784-2.923-9.144-3.19-14.735c-0.053,1.112-0.074,2.234-0.065,3.353
			c0.007-0.772,0.028-1.544,0.065-2.312c0.367,7.649,2.222,14.866,5.566,18.204c7.443,7.43,175.816,7.43,183.259,0
			c3.344-3.338,5.199-10.555,5.564-18.204c0.037,0.768,0.059,1.541,0.067,2.316c0.009-1.121-0.013-2.245-0.067-3.358
			C197.144,26.356,197.062,27.427,196.951,28.48z"/>
		<path class="st8" d="M6.217,51.544c-4.054-4.046-6.123-13.256-6.214-22.588c-0.095,9.758,1.976,19.634,6.214,23.865
			c8.215,8.2,179.35,8.2,187.566,0c4.236-4.23,6.308-14.107,6.214-23.865c-0.09,9.332-2.161,18.543-6.214,22.588
			C185.569,59.745,14.431,59.745,6.217,51.544z"/>
	</g>
	<g>
		<g>
			<path class="st9" d="M47.736,11.589l-0.18,7.394l-10.1-0.18l0.181,4.328l8.363-0.541L45.82,28.36l-8.002,0.36l0.18,9.738
				l-5.951,0.181l-0.721-26.51L47.736,11.589z"/>
			<path class="st9" d="M52.538,12.265c0.331,0,0.632,0.045,0.902,0.135c1.262,0.421,2.088,1.202,2.479,2.345
				c0.12,0.346,0.18,0.691,0.18,1.036c0,0.767-0.308,1.526-0.924,2.277c-0.887,1.082-1.908,1.57-3.065,1.465
				c-1.157-0.104-2.097-0.729-2.818-1.871c-0.33-0.525-0.496-1.06-0.496-1.601c0-0.69,0.24-1.42,0.722-2.187
				C50.539,12.799,51.547,12.265,52.538,12.265z M55.965,21.868c-0.24,5.575-0.541,11.105-0.901,16.591L49.292,39
				c0.211-2.345,0.315-4.727,0.315-7.146c0-3.006-0.165-6.057-0.495-9.152L55.965,21.868z"/>
			<path class="st9" d="M62.276,14.654l0.36,2.525c2.931-2.059,5.335-3.089,7.214-3.089c1.743,0,3.035,0.88,3.877,2.638
				c1.277,2.675,1.916,7.07,1.916,13.188c0,2.194-0.083,4.613-0.248,7.258l-6.086,0.203c0.48-3.246,0.721-5.988,0.721-8.228
				c0-2.735-0.36-4.712-1.082-5.929c-0.466-0.781-0.999-1.172-1.601-1.172c-1.157,0-2.569,1.359-4.237,4.08v11.925l-5.501-0.158
				l-0.924-22.339L62.276,14.654z"/>
			<path class="st9" d="M83.082,14.383c1.007-0.225,1.991-0.338,2.953-0.338c4.658,0,7.656,2.42,8.994,7.259
				c0.691,2.51,1,5.396,0.925,8.656l-0.181,7.731l-5.838,0.361l-0.046-1.06c-7.334-0.256-11.158-2.06-11.474-5.41
				c-0.045-0.481-0.067-0.834-0.067-1.06c0-2.735,1.097-4.448,3.291-5.14c1.097-0.346,2.187-0.519,3.269-0.519
				c1.442,0,2.915,0.293,4.418,0.879c-0.015-2.584-0.045-3.952-0.09-4.103c-0.301-1.037-1.3-1.623-2.998-1.758
				c-1.442-0.12-2.825,1.082-4.147,3.606l-5.771-0.901C77.883,17.78,80.137,15.046,83.082,14.383z M86.824,28.879
				c-1.578,0-2.404,0.413-2.479,1.239c-0.12,1.203,1.653,2.18,5.32,2.931l-0.158-3.899C88.455,28.968,87.561,28.879,86.824,28.879z"
				/>
			<path class="st9" d="M101.522,9.605l1.983,27.389l-6.131,0.721L96.292,9.605H101.522z"/>
			<path class="st9" d="M108.307,12.265c0.331,0,0.632,0.045,0.902,0.135c1.262,0.421,2.088,1.202,2.479,2.345
				c0.12,0.346,0.18,0.691,0.18,1.036c0,0.767-0.308,1.526-0.924,2.277c-0.887,1.082-1.908,1.57-3.065,1.465
				c-1.157-0.104-2.097-0.729-2.818-1.871c-0.33-0.525-0.496-1.06-0.496-1.601c0-0.69,0.24-1.42,0.722-2.187
				C106.308,12.799,107.316,12.265,108.307,12.265z M111.733,21.868c-0.24,5.575-0.541,11.105-0.901,16.591L105.061,39
				c0.211-2.345,0.315-4.727,0.315-7.146c0-3.006-0.165-6.057-0.495-9.152L111.733,21.868z"/>
			<path class="st9" d="M129.045,14.79l0.361,7.597l-9.738,11.068l11-2.052l1.082,6.154l-18.214,1.623l-0.901-5.253l9.918-12.646
				l-9.558,0.315l-1.263-6.334L129.045,14.79z"/>
			<path class="st9" d="M138.513,14.383c1.007-0.225,1.991-0.338,2.953-0.338c4.658,0,7.656,2.42,8.994,7.259
				c0.691,2.51,1,5.396,0.925,8.656l-0.181,7.731l-5.838,0.361l-0.046-1.06c-7.334-0.256-11.158-2.06-11.474-5.41
				c-0.045-0.481-0.067-0.834-0.067-1.06c0-2.735,1.097-4.448,3.291-5.14c1.097-0.346,2.187-0.519,3.269-0.519
				c1.442,0,2.915,0.293,4.418,0.879c-0.015-2.584-0.045-3.952-0.09-4.103c-0.301-1.037-1.3-1.623-2.998-1.758
				c-1.442-0.12-2.825,1.082-4.147,3.606l-5.771-0.901C133.314,17.78,135.567,15.046,138.513,14.383z M142.255,28.879
				c-1.578,0-2.404,0.413-2.479,1.239c-0.12,1.203,1.653,2.18,5.32,2.931l-0.158-3.899
				C143.886,28.968,142.991,28.879,142.255,28.879z"/>
			<path class="st9" d="M152.962,38.436c0.045-9.143-0.188-16.446-0.698-21.911l6.312-0.519l-0.203,2.052
				c3.096-1.924,6.252-2.833,9.468-2.728l0.608,5.455c-3.696,0-6.297,0.766-7.799,2.297c-1.037,1.065-1.556,3.774-1.556,8.127
				c0,1.98,0.104,4.314,0.315,7.001L152.962,38.436z"/>
		</g>
		<g>
			<path class="st10" d="M89.634,28.41c-1.087-0.187-2.032-0.281-2.81-0.281c-2.522,0-3.146,1.045-3.226,1.915
				c-0.222,2.221,3.27,3.198,5.916,3.74l0.938,0.192l-0.222-5.463L89.634,28.41z M85.092,30.186
				c0.045-0.503,1.227-0.557,1.732-0.557c0.551,0,1.208,0.055,1.958,0.165l0.094,2.313C85.109,31.206,85.081,30.3,85.092,30.186z"/>
			<path class="st10" d="M104.305,37.655l-2.085-28.8h-6.707l0.518,13.47c-0.09-0.41-0.171-0.829-0.279-1.221
				c-1.433-5.182-4.702-7.809-9.717-7.809c-1.009,0-2.058,0.12-3.116,0.356h-0.001c-3.049,0.686-5.414,3.39-7.053,7.996
				c-0.33-2.142-0.813-3.886-1.461-5.243c-0.959-2.004-2.534-3.064-4.553-3.064c-1.827,0-4.007,0.834-6.641,2.545l-0.299-2.094
				l-6.206,1.002c-0.026-0.097-0.042-0.196-0.076-0.292c-0.469-1.37-1.462-2.316-2.953-2.813c-0.346-0.115-0.729-0.173-1.139-0.173
				c-1.2,0-2.398,0.616-3.562,1.831l-0.094,0.12c-0.191,0.304-0.338,0.606-0.464,0.906l0.087-3.559l-17.949,0.592l0.761,28.007
				l7.444-0.226l-0.18-9.749l7.967-0.359l0.228-7.29l-8.421,0.545l-0.115-2.766l10.048,0.179l0.056-2.304
				c0.087,0.206,0.187,0.41,0.314,0.611c0.85,1.346,1.989,2.092,3.385,2.218c0.128,0.012,0.254,0.017,0.379,0.017
				c1.259,0,2.379-0.588,3.333-1.753c0.109-0.133,0.193-0.268,0.286-0.402l0.122,2.956l-7.876,0.959l0.079,0.735
				c0.326,3.055,0.491,6.107,0.491,9.073c0,2.393-0.105,4.774-0.313,7.078l-0.081,0.898l7.306-0.685l0.042-0.638
				c0.236-3.591,0.437-7.227,0.623-10.867l0.454,10.983l6.972,0.201V26.342c1.99-3.193,3.099-3.543,3.487-3.543
				c0.316,0,0.638,0.271,0.956,0.805c0.648,1.093,0.977,2.959,0.977,5.546c0,2.192-0.24,4.923-0.712,8.118l-0.132,0.89l7.666-0.256
				l0.042-0.68c0.166-2.653,0.25-5.111,0.25-7.305c0-2.494-0.107-4.683-0.314-6.605l6.426,1.004l0.25-0.476
				c0.8-1.526,2.054-3.323,3.423-3.207c2.03,0.161,2.261,0.958,2.323,1.159c0.014,0.1,0.047,0.585,0.067,2.896
				c-2.427-0.745-4.782-0.767-7.155-0.018c-1.74,0.548-3.815,2.009-3.815,5.855c0,0.24,0.023,0.616,0.071,1.13
				c0.344,3.656,4.213,5.694,11.5,6.06l0.049,1.135l7.288-0.451l0.054-2.303l0.095,2.458L104.305,37.655z M46.825,18.219
				l-10.151-0.181l0.246,5.89l8.305-0.537l-0.133,4.251l-8.037,0.362l0.179,9.728l-4.458,0.135l-0.68-25.012l14.871-0.49
				L46.825,18.219z M54.596,17.583c-0.726,0.885-1.516,1.276-2.418,1.193c-0.919-0.083-1.656-0.582-2.25-1.523
				c-0.257-0.408-0.381-0.801-0.381-1.202c0-0.527,0.191-1.106,0.567-1.723c0.851-0.872,1.666-1.313,2.425-1.313
				c0.249,0,0.473,0.033,0.665,0.096c1.037,0.346,1.693,0.959,2.008,1.879c0.092,0.264,0.138,0.53,0.138,0.79
				C55.35,16.375,55.103,16.965,54.596,17.583z M54.357,37.772l-4.243,0.397c0.162-2.067,0.243-4.187,0.243-6.315
				c0-2.78-0.143-5.635-0.424-8.497l5.243-0.638C54.955,27.743,54.679,32.8,54.357,37.772z M74.688,36.447l-4.509,0.15
				c0.399-2.889,0.602-5.391,0.602-7.448c0-2.9-0.388-4.965-1.188-6.313c-0.608-1.02-1.363-1.538-2.245-1.538
				c-1.471,0-3.021,1.41-4.876,4.438l-0.111,0.181v11.364l-4.03-0.116l-0.868-20.975l4.179-0.674l0.425,2.98l1.001-0.703
				c5.138-3.609,8.425-3.995,9.983-0.742c1.223,2.561,1.843,6.889,1.843,12.864C74.894,31.89,74.824,34.085,74.688,36.447z
				 M95.04,36.986l-4.388,0.271l-0.043-0.989l-0.693-0.024c-6.862-0.239-10.48-1.831-10.753-4.73
				c-0.042-0.45-0.064-0.779-0.064-0.99c0-2.424,0.879-3.83,2.767-4.424c1.019-0.321,2.042-0.484,3.043-0.484
				c1.342,0,2.737,0.278,4.146,0.828l1.029,0.401l-0.006-1.104c-0.022-3.982-0.075-4.158-0.12-4.307
				c-0.395-1.362-1.626-2.135-3.656-2.296c-1.685-0.138-3.2,1.016-4.616,3.531l-4.365-0.682c1.449-4.002,3.44-6.312,5.927-6.871
				c0.951-0.212,1.89-0.32,2.79-0.32c4.317,0,7.023,2.194,8.271,6.708c0.669,2.429,0.971,5.268,0.898,8.439L95.04,36.986z
				 M100.824,10.355l1.881,25.978l-4.613,0.542l-1.021-26.52H100.824z"/>
			<path class="st10" d="M121.666,32.319l8.504-9.665l-0.411-8.634l-17.365,0.475c-0.47-1.366-1.462-2.31-2.949-2.807
				c-0.346-0.115-0.729-0.173-1.139-0.173c-1.2,0-2.398,0.616-3.562,1.831l-0.094,0.12c-0.555,0.884-0.836,1.754-0.836,2.585
				c0,0.682,0.206,1.354,0.612,2.001c0.85,1.346,1.989,2.092,3.385,2.218c0.128,0.012,0.254,0.017,0.379,0.017
				c1.259,0,2.379-0.588,3.333-1.753c0.028-0.035,0.047-0.07,0.075-0.105l0.525,2.636l-8.067,0.982l0.079,0.735
				c0.326,3.055,0.491,6.107,0.491,9.073c0,2.393-0.105,4.774-0.313,7.078l-0.081,0.898l7.306-0.685l0.042-0.638
				c0.101-1.542,0.187-3.105,0.279-4.661l1.054,6.142l19.716-1.757l-1.354-7.705L121.666,32.319z M110.126,37.772l-4.243,0.397
				c0.162-2.067,0.243-4.187,0.243-6.315c0-2.78-0.143-5.635-0.424-8.497l5.243-0.638C110.723,27.743,110.447,32.8,110.126,37.772z
				 M110.364,17.583c-0.726,0.885-1.521,1.276-2.418,1.193c-0.919-0.083-1.656-0.582-2.25-1.523
				c-0.257-0.408-0.381-0.801-0.381-1.202c0-0.527,0.191-1.106,0.567-1.723c0.851-0.872,1.666-1.313,2.425-1.313
				c0.249,0,0.473,0.033,0.665,0.096c0.938,0.313,1.55,0.859,1.894,1.639l0.236,1.186C111.063,16.478,110.827,17.018,110.364,17.583
				z M111.87,33.688c0.222-3.766,0.426-7.547,0.591-11.322l8.51-0.281L111.87,33.688z M114.158,38.372l-0.728-4.243l10.705-13.649
				l-10.529,0.348l-0.965-4.838l15.689-0.429l0.312,6.559L117.67,34.591l12.391-2.311l0.81,4.604L114.158,38.372z"/>
			<path class="st10" d="M145.065,28.41c-1.087-0.187-2.032-0.281-2.81-0.281c-2.522,0-3.146,1.045-3.226,1.915
				c-0.222,2.221,3.271,3.198,5.916,3.74l0.938,0.192l-0.222-5.463L145.065,28.41z M140.523,30.186
				c0.046-0.503,1.227-0.557,1.732-0.557c0.551,0,1.208,0.055,1.958,0.165l0.094,2.313C140.539,31.206,140.511,30.3,140.523,30.186z
				"/>
			<path class="st10" d="M168.514,14.602l-0.649-0.021c-2.9-0.098-5.794,0.611-8.603,2.1l0.148-1.496l-7.964,0.654l0.07,0.755
				c0.28,2.994,0.473,6.602,0.586,10.746c-0.102-2.275-0.405-4.368-0.92-6.237c-1.433-5.182-4.702-7.809-9.717-7.809
				c-1.01,0-2.058,0.12-3.116,0.356h-0.001c-3.208,0.721-5.668,3.65-7.312,8.706l-0.272,0.837l7.172,1.12l0.249-0.476
				c0.8-1.527,2.048-3.323,3.424-3.207c2.03,0.161,2.262,0.958,2.323,1.159c0.015,0.1,0.047,0.585,0.066,2.896
				c-2.427-0.746-4.78-0.767-7.154-0.018c-1.74,0.548-3.815,2.009-3.815,5.855c0,0.24,0.023,0.616,0.071,1.13
				c0.344,3.656,4.212,5.694,11.5,6.06l0.05,1.135l7.287-0.451l0.197-8.42c0.015-0.658,0.002-1.292-0.014-1.923
				c0.077,3.157,0.109,6.609,0.091,10.377l-0.004,0.781l8.01-0.28l-0.061-0.781c-0.208-2.646-0.313-4.982-0.313-6.942
				c0-5.144,0.73-6.975,1.341-7.602c1.349-1.375,3.793-2.072,7.264-2.072h0.838L168.514,14.602z M150.471,36.986l-4.389,0.271
				l-0.042-0.989l-0.693-0.024c-6.862-0.239-10.48-1.831-10.753-4.73c-0.042-0.45-0.064-0.779-0.064-0.99
				c0-2.424,0.879-3.83,2.767-4.424c1.019-0.321,2.042-0.484,3.043-0.484c1.342,0,2.737,0.278,4.146,0.828l1.028,0.401l-0.006-1.104
				c-0.022-3.982-0.075-4.158-0.119-4.307c-0.396-1.362-1.627-2.135-3.656-2.296c-1.705-0.134-3.201,1.017-4.617,3.531l-4.365-0.682
				c1.449-4.002,3.44-6.312,5.926-6.871c0.952-0.212,1.891-0.32,2.79-0.32c4.317,0,7.023,2.194,8.271,6.708
				c0.669,2.429,0.971,5.268,0.897,8.439L150.471,36.986z M160.112,22.56c-1.207,1.239-1.769,3.988-1.769,8.65
				c0,1.803,0.087,3.913,0.259,6.279l-4.888,0.171c0.026-8.359-0.188-15.23-0.637-20.449l4.662-0.383l-0.265,2.67l1.292-0.803
				c2.745-1.706,5.567-2.586,8.4-2.622l0.443,3.976C164.155,20.165,161.635,21.007,160.112,22.56z"/>
		</g>
	</g>
</g>
</svg>
