<?xml version="1.0" encoding="utf-8"?>
<!-- Generator: Adobe Illustrator 21.0.0, SVG Export Plug-In . SVG Version: 6.00 Build 0)  -->
<svg version="1.1" id="Capa_1" xmlns="http://www.w3.org/2000/svg" xmlns:xlink="http://www.w3.org/1999/xlink" x="0px" y="0px"
	 viewBox="0 0 800 600" style="enable-background:new 0 0 800 600;" xml:space="preserve">
<style type="text/css">
	.st0{clip-path:url(#SVGID_2_);}
	.st1{fill:#5D1230;}
	.st2{fill:#961D4E;}
	.st3{fill:#E26A9A;}
	.st4{fill:#EDA3C1;}
	.st5{fill:#C12564;}
	.st6{fill:#DA3F7E;}
	.st7{opacity:0.2;}
	.st8{fill:none;stroke:#FFFFFF;stroke-width:8;stroke-linecap:round;stroke-linejoin:round;stroke-miterlimit:10;}
	.st9{fill:none;stroke:#002654;stroke-width:8;stroke-linecap:round;stroke-linejoin:round;stroke-miterlimit:10;}
	.st10{fill:#FFFFFF;}
</style>
<g>
	<g>
		<defs>
			<path id="SVGID_1_" d="M0,0v600h800V0H0z M703.235,449.06v58.431c0,9.35-7.65,17-17,17H600.45
				C542.947,552.49,474.055,568.79,400,568.79s-142.947-16.3-200.45-44.299h-85.785c-9.35,0-17-7.65-17-17V449.06
				C58.157,406.402,35.644,355.142,35.644,300s22.513-106.402,61.121-149.06V92.509c0-9.35,7.65-17,17-17h85.785
				C257.053,47.51,325.945,31.21,400,31.21s142.947,16.3,200.45,44.299h85.785c9.35,0,17,7.65,17,17v58.431
				c38.608,42.658,61.121,93.919,61.121,149.06S741.843,406.402,703.235,449.06z"/>
		</defs>
		<clipPath id="SVGID_2_">
			<use xlink:href="#SVGID_1_"  style="overflow:visible;"/>
		</clipPath>
		<g class="st0">
			<polygon class="st1" points="0,600 312.095,600 0,320.664 			"/>
			<polygon class="st2" points="0,0 0,320.664 312.095,600 390.345,600 62.49,0 			"/>
			<polygon class="st3" points="800,102.649 665.124,0 472.027,0 800,558.058 			"/>
			<polygon class="st4" points="800,0 540,0 800,284.694 			"/>
			<polygon class="st5" points="129.619,0 62.49,0 390.345,600 713.198,600 			"/>
			<polygon class="st6" points="800,600 800,558.058 472.027,0 129.619,0 713.198,600 			"/>
		</g>
	</g>
	<path class="st7" d="M760.216,300c0.083,2.33,0.139,4.663,0.139,7c0,52.328-20.777,102.944-60.087,146.376
		c-0.666,0.736-1.034,1.692-1.034,2.685v58.431c0,7.168-5.832,13-13,13H600.45c-0.606,0-1.206,0.138-1.751,0.403
		C539.723,556.612,471.014,571.79,400,571.79s-139.723-15.179-198.699-43.896c-0.545-0.266-1.145-0.403-1.751-0.403h-85.784
		c-7.168,0-13-5.832-13-13v-58.431c0-0.992-0.368-1.948-1.034-2.685C60.422,409.945,39.645,359.329,39.645,307
		c0-2.338,0.056-4.67,0.139-7h-8.005c-0.08,2.33-0.134,4.663-0.134,7c0,53.884,21.126,105.923,61.121,150.596v56.896
		c0,11.579,9.421,21,21,21h84.864C258.504,564.473,328.115,579.79,400,579.79s141.496-15.317,201.37-44.299h84.864
		c11.579,0,21-9.421,21-21v-56.896c39.995-44.673,61.121-96.712,61.121-150.596c0-2.338-0.054-4.67-0.134-7H760.216z"/>
	<path class="st8" d="M764.356,300c0-55.142-22.513-106.402-61.121-149.06V92.509c0-9.35-7.65-17-17-17H600.45
		C542.947,47.51,474.055,31.21,400,31.21s-142.947,16.3-200.45,44.299h-85.785c-9.35,0-17,7.65-17,17v58.431
		C58.157,193.598,35.644,244.858,35.644,300s22.513,106.402,61.121,149.06v58.431c0,9.35,7.65,17,17,17h85.785
		C257.053,552.49,325.945,568.79,400,568.79s142.947-16.3,200.45-44.299h85.785c9.35,0,17-7.65,17-17V449.06
		C741.843,406.402,764.356,355.142,764.356,300z"/>
	<path class="st9" d="M400,551.79c-69.053,0-135.794-14.725-193.008-42.583l-3.523-1.716h-89.703V442.51l-4.396-4.856
		C72.26,396.65,52.645,349.051,52.645,300s19.615-96.65,56.726-137.653l4.396-4.856V92.509h89.703l3.523-1.716
		C264.206,62.935,330.947,48.21,400,48.21s135.794,14.725,193.008,42.583l3.523,1.716h89.703v64.981l4.396,4.856
		c37.11,41.003,56.726,88.603,56.726,137.653s-19.615,96.65-56.726,137.653l-4.396,4.856v64.981h-89.703l-3.523,1.716
		C535.794,537.065,469.053,551.79,400,551.79z"/>
	<g>
		<path class="st7" d="M509.936,97.621H290.064c-2.785,0-5.064-2.279-5.064-5.064V42.685c0-2.785,2.279-5.064,5.064-5.064h219.871
			c2.785,0,5.064,2.279,5.064,5.064v49.871C515,95.342,512.721,97.621,509.936,97.621z"/>
		<path class="st10" d="M509.936,92.621H290.064c-2.785,0-5.064-2.279-5.064-5.064V37.685c0-2.785,2.279-5.064,5.064-5.064h219.871
			c2.785,0,5.064,2.279,5.064,5.064v49.871C515,90.342,512.721,92.621,509.936,92.621z"/>
	</g>
</g>
</svg>
