<?xml version="1.0" encoding="utf-8"?>
<!-- Generator: Adobe Illustrator 21.0.0, SVG Export Plug-In . SVG Version: 6.00 Build 0)  -->
<svg version="1.1" xmlns="http://www.w3.org/2000/svg" xmlns:xlink="http://www.w3.org/1999/xlink" x="0px" y="0px"
	 viewBox="0 0 144.425 223.212" style="enable-background:new 0 0 144.425 223.212;" xml:space="preserve">
<style type="text/css">
	.st0{opacity:0.2;}
	.st1{fill:#E50021;}
	.st2{fill:#FFFFFF;}
	.st3{opacity:0.2;fill:#F1C40D;}
	.st4{opacity:0.3;fill:#F1C40D;}
	.st5{opacity:0.8;fill:#FFAA00;}
	.st6{fill:#FFC907;}
	.st7{fill:#003768;}
	.st8{opacity:0.8;}
	.st9{fill:#E28600;}
</style>
<g id="Cintas">
	<polygon id="Sombra" class="st0" points="89.956,79.637 54.469,79.637 18.73,213.017 40.856,206.539 56.777,223.212 
		72.213,165.606 87.648,223.212 103.57,206.539 125.695,213.017 	"/>
	<polygon id="Cinta" class="st1" points="89.956,72.637 54.469,72.637 18.73,206.017 40.856,199.539 56.777,216.212 72.213,158.606 
		87.648,216.212 103.57,199.539 125.695,206.017 	"/>
	<path id="Borde" class="st2" d="M89.67,208.302l-17.457-65.151l-17.457,65.151l-12.688-13.286l-17.632,5.163L57.538,76.637h29.349
		l0.198,0.741l32.905,122.801l-17.633-5.163L89.67,208.302z M42.673,192.754l11.071,11.593l18.469-68.923l18.469,68.923
		l11.07-11.593l15.385,4.505L85.352,78.637H59.073L27.289,197.259L42.673,192.754z"/>
</g>
<g id="Sol">
	<g id="Sol_1_">
		<circle id="XMLID_448_" class="st3" cx="72.213" cy="72.212" r="72.212"/>
		<circle id="XMLID_446_" class="st4" cx="72.213" cy="72.212" r="60.117"/>
		<path id="XMLID_375_" class="st5" d="M29.643,71.804l-11.224,9.419l13.768,5.013l-7.325,12.69l14.654,0.001l-2.544,14.431
			l13.77-5.011l2.546,14.43l11.227-9.419l7.327,12.691l7.327-12.691l11.226,9.419l2.546-14.432l13.77,5.012l-2.545-14.431
			l14.654-0.001l-7.327-12.691l13.77-5.013l-11.224-9.419l11.224-9.42l-13.77-5.012l7.327-12.69l-14.654-0.001l2.545-14.431
			l-13.77,5.01L90.393,20.83l-11.226,9.418l-7.328-12.689l-7.327,12.689L53.287,20.83l-2.546,14.43l-13.77-5.011l2.543,14.431
			l-14.653,0.001l7.325,12.691l-13.768,5.012L29.643,71.804z"/>
		<circle id="XMLID_374_" class="st6" cx="71.839" cy="71.805" r="40.394"/>
	</g>
</g>
<g id="Texto">
	<g>
		<g id="Texto_1_">
			<path class="st7" d="M36.643,65.326c1.652-0.149,3.34-0.035,5.063,0.343c1.512,0.334,2.716,0.853,3.612,1.573
				c1.116,0.888,1.714,2.057,1.784,3.498c0.141,2.566-1.397,4.351-4.632,5.344c-1.608,0.492-3.349,0.738-5.229,0.721L36.643,65.326z
				 M40.08,73.447c2.786-0.448,3.99-1.477,3.604-3.085c-0.773-1.582-2.057-2.171-3.858-1.749L40.08,73.447z"/>
			<path class="st7" d="M51.407,76.805l-3.858-0.062l-0.062-11.399l4.043-0.062L51.407,76.805z"/>
			<path class="st7" d="M51.793,65.247c1.477-0.193,2.953-0.211,4.43-0.053c2.962,0.316,4.456,1.345,4.474,3.103
				c0.026,1.978-0.861,3.27-2.663,3.885c-0.896,0.299-1.793,0.404-2.707,0.316l0.062,4.271l-3.472-0.062L51.793,65.247z
				 M55.15,69.51c0.422,0.035,0.844,0.026,1.248-0.026c0.817-0.123,1.169-0.439,1.063-0.949c-0.097-0.51-0.536-0.835-1.31-0.976
				c-0.387-0.07-0.756-0.088-1.125-0.053L55.15,69.51z"/>
			<path class="st7" d="M64.297,65.282l0.07,8.552l5.071-0.246v3.094l-8.42,0.123V65.282H64.297z"/>
			<path class="st7" d="M75.388,65.15c1.863,0,3.35,0.554,4.447,1.679c1.055,1.055,1.582,2.435,1.582,4.122
				c0,1.67-0.518,3.085-1.564,4.254c-1.072,1.204-2.408,1.793-4.008,1.775c-2.25-0.035-3.858-0.545-4.825-1.521
				c-0.879-0.896-1.318-2.285-1.318-4.166c0-1.688,0.422-3.085,1.257-4.175C71.961,65.801,73.437,65.15,75.388,65.15z
				 M75.661,73.676c0.729,0.009,1.336-0.255,1.818-0.8c0.475-0.527,0.703-1.169,0.703-1.925c0-0.765-0.236-1.389-0.711-1.872
				c-0.492-0.51-1.17-0.756-2.014-0.756c-0.773,0-1.389,0.281-1.846,0.861c-0.413,0.527-0.624,1.178-0.624,1.969
				c0,0.765,0.22,1.371,0.651,1.811C74.097,73.421,74.773,73.658,75.661,73.676z"/>
			<path class="st7" d="M88.403,69.642l2.645-4.271l3.736,0.053l-0.281,11.382l-3.674-0.062l0.141-7.181l-2.682,4.052l-2.742-4.447
				L85.38,76.69h-3.596l0.281-11.347l3.719-0.062L88.403,69.642z"/>
			<path class="st7" d="M103.948,65.317l2.777,11.47l-3.629-0.018l-0.439-2.039l-3.428-0.035l-0.686,2.101l-3.357,0.009
				l3.568-11.522L103.948,65.317z M102.025,71.839l-0.738-3.375l-1.09,3.322L102.025,71.839z"/>
		</g>
		<g class="st8">
			<g>
				<polygon class="st9" points="40.623,91.777 38.514,93.183 41.21,91.777 				"/>
				<polygon class="st9" points="82.703,91.777 91.691,103.87 84.808,91.777 				"/>
				<polygon class="st9" points="79.679,91.777 87.555,105.628 81.833,91.777 				"/>
				<polygon class="st9" points="76.946,91.777 83.213,106.966 79.123,91.777 				"/>
				<polygon class="st9" points="86.169,91.777 95.569,101.716 88.175,91.777 				"/>
				<polygon class="st9" points="102.469,91.777 105.165,93.183 103.055,91.777 				"/>
				<polygon class="st9" points="90.31,91.777 99.137,99.194 92.117,91.777 				"/>
				<polygon class="st9" points="74.397,91.777 78.724,107.869 76.584,91.777 				"/>
				<polygon class="st9" points="95.509,91.777 102.35,96.337 96.918,91.777 				"/>
				<polygon class="st9" points="46.76,91.777 41.328,96.337 48.169,91.777 				"/>
				<polygon class="st9" points="71.951,91.777 74.144,108.323 74.14,91.777 				"/>
				<polygon class="st9" points="55.503,91.777 48.11,101.716 57.509,91.777 				"/>
				<polygon class="st9" points="61.845,91.777 56.123,105.628 63.999,91.777 				"/>
				<polygon class="st9" points="51.561,91.777 44.541,99.194 53.369,91.777 				"/>
				<polygon class="st9" points="58.87,91.777 51.987,103.87 60.975,91.777 				"/>
				<polygon class="st9" points="69.538,91.777 69.534,108.323 71.727,91.777 				"/>
				<polygon class="st9" points="67.094,91.777 64.954,107.869 69.281,91.777 				"/>
				<polygon class="st9" points="64.555,91.777 60.465,106.966 66.732,91.777 				"/>
			</g>
			<g>
				<polygon class="st9" points="103.055,51.833 105.165,50.427 102.469,51.833 				"/>
				<polygon class="st9" points="60.976,51.833 51.987,39.74 58.87,51.833 				"/>
				<polygon class="st9" points="64,51.833 56.124,37.982 61.845,51.833 				"/>
				<polygon class="st9" points="66.733,51.833 60.466,36.644 64.556,51.833 				"/>
				<polygon class="st9" points="57.51,51.833 48.11,41.894 55.504,51.833 				"/>
				<polygon class="st9" points="41.21,51.833 38.514,50.427 40.623,51.833 				"/>
				<polygon class="st9" points="53.369,51.833 44.541,44.415 51.562,51.833 				"/>
				<polygon class="st9" points="69.282,51.833 64.955,35.741 67.095,51.833 				"/>
				<polygon class="st9" points="48.169,51.833 41.329,47.272 46.761,51.833 				"/>
				<polygon class="st9" points="96.919,51.833 102.35,47.272 95.51,51.833 				"/>
				<polygon class="st9" points="71.728,51.833 69.535,35.287 69.539,51.833 				"/>
				<polygon class="st9" points="88.175,51.833 95.569,41.894 86.17,51.833 				"/>
				<polygon class="st9" points="81.834,51.833 87.555,37.982 79.68,51.833 				"/>
				<polygon class="st9" points="92.117,51.833 99.138,44.415 90.31,51.833 				"/>
				<polygon class="st9" points="84.809,51.833 91.692,39.74 82.703,51.833 				"/>
				<polygon class="st9" points="74.14,51.833 74.144,35.287 71.951,51.833 				"/>
				<polygon class="st9" points="76.584,51.833 78.724,35.741 74.398,51.833 				"/>
				<polygon class="st9" points="79.123,51.833 83.214,36.644 76.947,51.833 				"/>
			</g>
		</g>
	</g>
</g>
</svg>
