<?xml version="1.0" encoding="utf-8"?>
<!-- Generator: Adobe Illustrator 21.0.0, SVG Export Plug-In . SVG Version: 6.00 Build 0)  -->
<svg version="1.1" id="Capa_1" xmlns="http://www.w3.org/2000/svg" xmlns:xlink="http://www.w3.org/1999/xlink" x="0px" y="0px"
	 viewBox="0 0 48 48" style="enable-background:new 0 0 48 48;" xml:space="preserve">
<g>
	<g>
		<ellipse style="opacity:0.2;fill-rule:evenodd;clip-rule:evenodd;" cx="24" cy="24.742" rx="24" ry="23.258"/>
		<ellipse style="fill-rule:evenodd;clip-rule:evenodd;fill:#FFFFFF;" cx="24" cy="23.258" rx="24" ry="23.258"/>
		<ellipse style="fill-rule:evenodd;clip-rule:evenodd;fill:#FF5555;" cx="24" cy="21.953" rx="20.111" ry="19.489"/>
		<path style="fill-rule:evenodd;clip-rule:evenodd;fill:#AA0000;" d="M24.002,37.163c-10.361,0-18.89-7.593-19.99-17.351
			c-0.081,0.704-0.12,1.42-0.12,2.142c0,10.763,9.004,19.489,20.11,19.489s20.11-8.726,20.11-19.489c0-0.722-0.039-1.438-0.12-2.142
			C42.892,29.57,34.363,37.163,24.002,37.163z"/>
		<path style="fill-rule:evenodd;clip-rule:evenodd;fill:#FF8080;" d="M24.002,37.163c-10.361,0-18.89-7.592-19.99-17.351
			c-0.08,0.704-0.12,1.422-0.12,2.142l0.003,0.213c0.011-0.611,0.049-1.218,0.118-1.816c1.1,9.759,9.629,17.352,19.99,17.352
			s18.89-7.593,19.99-17.352c0.069,0.598,0.107,1.205,0.118,1.816l0.003-0.213c0-0.72-0.041-1.438-0.12-2.142
			C42.892,29.571,34.363,37.163,24.002,37.163z"/>
		<path style="fill-rule:evenodd;clip-rule:evenodd;fill:#FF8080;" d="M4.353,21.839c1.03-8.176,9.593-14.558,20.005-14.558
			c9.585,0,17.605,5.409,19.622,12.647c0.003-0.039,0.008-0.078,0.012-0.117C42.889,10.056,34.36,2.464,24,2.464
			c-10.36,0-18.889,7.592-19.988,17.348C4.087,20.499,4.204,21.176,4.353,21.839z"/>
		<path style="fill-rule:evenodd;clip-rule:evenodd;fill:#FF2A2A;" d="M23.639,32.08c-7.877,0-14.772-3.136-18.573-7.829
			c2.784,7.528,10.209,12.913,18.936,12.913c9.443,0,17.363-6.306,19.527-14.81C40.178,28.08,32.533,32.08,23.639,32.08z"/>
		<path style="fill-rule:evenodd;clip-rule:evenodd;fill:#FFAAAA;" d="M14.216,5.953c2.767-1.157,5.182-0.816,5.398,0.764
			c0.215,1.58-1.851,3.799-4.616,4.956c-2.765,1.159-5.181,0.816-5.398-0.764C9.385,9.329,11.451,7.112,14.216,5.953z"/>
		<path style="fill-rule:evenodd;clip-rule:evenodd;fill:#FFAAAA;" d="M23.686,3.094c1.898-0.031,3.223,0.731,2.956,1.701
			c-0.265,0.971-2.02,1.783-3.918,1.815c-1.9,0.031-3.223-0.731-2.957-1.701C20.033,3.938,21.786,3.126,23.686,3.094z"/>
		<path style="fill-rule:evenodd;clip-rule:evenodd;fill:#FF8080;" d="M34.782,29.164c1.658-0.9,3.195-0.834,3.435,0.142
			c0.239,0.977-0.909,2.498-2.567,3.396c-1.658,0.899-3.195,0.835-3.434-0.142C31.976,31.582,33.125,30.063,34.782,29.164z"/>
		<path style="fill-rule:evenodd;clip-rule:evenodd;fill:#E6E6E6;" d="M24,44.879c-12.973,0-23.54-9.973-23.985-22.44
			C0.006,22.711,0,22.984,0,23.256c0,12.847,10.746,23.259,24,23.259c13.255,0,24-10.412,24-23.259c0-0.273-0.006-0.546-0.015-0.818
			C47.54,34.906,36.973,44.879,24,44.879z"/>
	</g>
	<g>
		<path style="fill-rule:evenodd;clip-rule:evenodd;fill:#AA0000;" d="M29.935,32.733c-0.54,0-1.062-0.213-1.437-0.588l-4.498-4.48
			l-4.498,4.482c-0.381,0.379-0.891,0.586-1.437,0.586c-0.522,0-1.018-0.193-1.393-0.545l-3.025-2.854
			c-0.385-0.363-0.601-0.85-0.605-1.371c-0.006-0.52,0.195-1.008,0.57-1.377l4.654-4.633l-4.658-4.637
			c-0.375-0.373-0.576-0.863-0.568-1.383c0.008-0.52,0.224-1.004,0.609-1.365l3.021-2.848c0.373-0.354,0.869-0.549,1.397-0.549
			c0.538,0,1.06,0.213,1.435,0.586l4.498,4.48l4.5-4.48c0.371-0.371,0.895-0.586,1.435-0.586c0.526,0,1.022,0.195,1.397,0.549
			l3.023,2.85c0.79,0.746,0.808,1.977,0.04,2.744l-4.66,4.639l4.658,4.637c0.371,0.367,0.572,0.857,0.566,1.377
			s-0.222,1.006-0.605,1.367l-3.023,2.852C30.955,32.54,30.459,32.733,29.935,32.733z"/>
		<path style="fill-rule:evenodd;clip-rule:evenodd;fill:#FFFFFF;" d="M18.761,12.455L24,17.673l5.24-5.218
			c0.371-0.37,0.99-0.379,1.373-0.018l3.022,2.85c0.384,0.361,0.392,0.959,0.019,1.332l-5.357,5.334l5.357,5.335
			c0.373,0.37,0.364,0.968-0.019,1.33l-3.022,2.851c-0.384,0.36-1.001,0.353-1.373-0.019L24,26.232l-5.239,5.218
			c-0.372,0.372-0.989,0.379-1.373,0.019l-3.023-2.851c-0.383-0.362-0.392-0.96-0.018-1.33l5.356-5.335l-5.356-5.334
			c-0.374-0.372-0.365-0.97,0.018-1.332l3.023-2.85C17.77,12.076,18.389,12.085,18.761,12.455z"/>
	</g>
</g>
</svg>
