<?xml version="1.0" encoding="utf-8"?>
<!-- Generator: Adobe Illustrator 22.0.1, SVG Export Plug-In . SVG Version: 6.00 Build 0)  -->
<svg version="1.1" xmlns="http://www.w3.org/2000/svg" xmlns:xlink="http://www.w3.org/1999/xlink" x="0px" y="0px"
	 viewBox="0 0 155.446 251.839" style="enable-background:new 0 0 155.446 251.839;" xml:space="preserve">
<g id="Brazo-Mano">
	<g id="XMLID_275_">
		<path id="XMLID_1647_" style="fill:#D1D3D4;" d="M91.131,165.348l-0.25,9.686c0,0,6.659,13.849,33.442,22.102l3.221-14.572
			C102.657,185.334,91.131,165.348,91.131,165.348z"/>
		<g id="XMLID_1617_">
			<path style="fill:#EFC392;stroke:#994900;stroke-linecap:round;stroke-linejoin:round;stroke-miterlimit:10;" d="
				M136.823,200.625c-0.648-0.916-0.275-1.843,0.499-2.373l2.866-13.623c-0.05-0.152-0.071-0.244-0.077-0.289
				c-0.002,0,0.003-0.003,0.006-0.006c-0.396-1.09-1.737-2.306-3.961-2.59c-2.555-0.322-4.066-0.047-6.135,0.882
				c-1.458,0.996-1.686,1.439-2.402,2.47c-1.077,1.887-0.791,3.688-0.245,4.972c-2.402,2.827-1.501,7.175,2.02,9.902
				c2.011,1.557,4.542,1.743,7.147,1.994L136.823,200.625z"/>
			<path id="XMLID_1645_" style="fill:#754C29;" d="M137.568,211.115c-0.144,0.721-1.207,1.116-2.378,0.885
				c-1.162-0.231-1.996-1.002-1.853-1.723l20.604-96.691c0.059-0.29,0.436-0.466,0.855-0.381c0.41,0.082,0.699,0.387,0.642,0.677
				c-0.003,0.015-0.007,0.038-0.018,0.053L137.568,211.115z"/>
			<path id="XMLID_1634_" style="fill:#FBCC97;" d="M138.67,182.636"/>
			<path id="XMLID_1633_" style="fill:#EEC696;" d="M141.115,186.643c-0.721-1.48-0.85-1.981-0.864-2.118c0,0,0,0,0.009,0
				c-0.413-1.119-1.965-1.691-4.225-1.981c-0.158-0.018-0.297-0.029-0.447-0.044c-0.126,0.284-0.24,0.565-0.369,0.847
				c0.207,0.39,0.447,0.182,0.245,0.63c-0.208,0.463-0.489,0.967-0.817,1.485c0.144,0.199,0.264,0.413,0.337,0.662
				c0.059,0.19,0.108,0.375,0.161,0.565c0.147,0.029,0.283,0.129,0.336,0.308c0.226,0.762,0.479,1.509,0.888,2.203
				c0.473,0.794,1.112,1.269,1.828,1.817c0,0,0,0,0.001,0.003c0.018,0.009,0.038,0.006,0.056,0.012l-0.004-0.029l0.119,0.044
				l0.316,0.114c0.108,0.026,0.214,0.094,0.321,0.094l0.347,0.038c0.11,0.012,0.223-0.024,0.331-0.032
				c0.117-0.012,0.227-0.053,0.328-0.1c0.105-0.032,0.215-0.085,0.306-0.152c0.202-0.111,0.362-0.281,0.514-0.454
				c0.12-0.129,0.223-0.27,0.306-0.437c0.086-0.144,0.168-0.308,0.209-0.483c0.069-0.167,0.092-0.343,0.119-0.51
				c0.028-0.179,0.022-0.36,0.025-0.533l0.006-0.047l0.138-0.02C141.613,187.991,141.47,187.364,141.115,186.643z"/>
			<g id="XMLID_1618_">
				<path style="fill:#EFC392;stroke:#994900;stroke-linecap:round;stroke-linejoin:round;stroke-miterlimit:10;" d="
					M147.688,189.342c-0.345-0.297-0.821-0.502-1.361-0.653c0.044,0.008,0.095,0.015,0.138,0.024
					c0.612-0.199,0.639-0.191,1.027-0.566c0.649-0.627,0.622-1.781,0.622-1.781c0.022-0.422-0.067-1.239-0.228-1.503
					c-0.277-0.443-0.504-0.759-0.87-0.984c-1.711-1.075-5.769-1.081-7.43-0.401c0.019,0.129,0.712,1.652,1.421,3.111
					c0.377,0.769,0.51,1.432,0.518,1.974c-0.009,0.002-0.02,0.002-0.029,0.004c0.01,1.274-0.697,1.936-0.697,1.936
					s-0.853,1.251-2.461,0.53c-0.038,0.557,0.174,1.134,0.747,1.638c0.312,0.279,0.734,0.506,1.21,0.696
					c-0.36-0.047-0.959-0.198-1.116-0.16c-1.642,0.357-2.859,1.655-1.626,3.39c0.234,0.331,1.389,0.993,1.828,1.23
					c0.083,0.053,0.176,0.097,0.268,0.141c0.021,0.01,0.043,0.02,0.065,0.031c-0.458-0.027-1.415-0.249-1.698-0.28
					c-1.384-0.143-2.525,1.594-1.474,2.906c0.584,0.729,2.478,1.652,3.658,2.042c0.321,0.065,0.644,0.141,0.971,0.22
					c0.904,0.17,1.718,0.123,2.44-0.135c0.144-0.073,0.275-0.152,0.404-0.24c0.053-0.044,0.101-0.088,0.147-0.135
					c0.772-0.797,0.841-2.115,0.287-3.006c-0.026-0.044,0.529-0.189,1.463-0.668l0.013-0.012c0.229-0.126,0.448-0.275,0.643-0.442
					c0.117-0.103,0.218-0.223,0.309-0.354c0.773-1.113,0.511-2.643-0.44-3.533c-0.087-0.06-0.19-0.111-0.289-0.164
					c0.015-0.003,0.031-0.005,0.046-0.008l-0.007-0.006C148.451,193.657,148.97,190.798,147.688,189.342z"/>
			</g>
			<path style="fill:#994900;stroke:#994900;stroke-linecap:round;stroke-linejoin:round;stroke-miterlimit:10;" d="
				M145.095,188.314l-0.345-0.045l-1.1-0.012c-0.285,0.014-0.567,0.041-0.849,0.066c-0.377,0.008-0.755,0.04-1.132,0.09
				c-0.015-0.187-0.029-0.377-0.076-0.557c-0.032-0.234-0.117-0.457-0.188-0.683c-0.029-0.117-0.088-0.211-0.129-0.316l-0.144-0.316
				l-0.315-0.612l-0.608-1.23c-0.197-0.406-0.414-0.806-0.58-1.223l-0.027-0.036l-0.026-0.024l0.013,0.043l-0.01,0.004l0.014,0.012
				c0.142,0.438,0.332,0.853,0.504,1.277c0.176,0.422,0.368,0.835,0.554,1.254l0.284,0.621c0.079,0.211,0.182,0.422,0.246,0.636
				c0.062,0.211,0.135,0.419,0.161,0.639c0.053,0.22,0.054,0.442,0.069,0.659l0.005,0.071c-0.004,0.154,0.003,0.309-0.021,0.46
				c-0.025,0.17-0.056,0.346-0.116,0.507c-0.048,0.167-0.128,0.325-0.207,0.478c-0.085,0.152-0.188,0.299-0.303,0.422
				c-0.145,0.173-0.308,0.337-0.505,0.448c-0.089,0.068-0.193,0.111-0.3,0.15c-0.101,0.05-0.207,0.082-0.319,0.094
				c-0.11,0.009-0.22,0.047-0.333,0.029l-0.331-0.032c-0.111,0.003-0.211-0.067-0.319-0.094l-0.313-0.114l-0.111-0.044l0.003,0.037
				c-0.04-0.027-0.083-0.056-0.144-0.096c-0.166-0.088-0.363-0.284-0.621-0.489c-0.111-0.111-0.231-0.234-0.362-0.363
				c-0.114-0.143-0.233-0.293-0.362-0.451c-0.103-0.167-0.234-0.325-0.325-0.516c-0.104-0.185-0.199-0.375-0.281-0.568
				c-0.36-0.776-0.542-1.629-0.653-2.268c-0.108-0.639-0.133-1.081-0.133-1.081s-0.069,0.437-0.034,1.099
				c0.022,0.328,0.053,0.721,0.149,1.122c0.088,0.41,0.22,0.838,0.396,1.248c0.091,0.205,0.196,0.398,0.314,0.589
				c0.103,0.196,0.245,0.363,0.362,0.536c0.265,0.334,0.56,0.583,0.831,0.794c0.275,0.179,0.504,0.328,0.69,0.398
				c0.076,0.031,0.13,0.054,0.177,0.074l0.003,0.04c0.012,0.199-0.026,0.41,0.047,0.601c0.025,0.097,0.048,0.199,0.079,0.296
				l0.144,0.27c0.086,0.188,0.249,0.319,0.378,0.475c0.148,0.167,0.293,0.255,0.457,0.375c0.01,0.007,0.021,0.011,0.031,0.017
				c-0.122-0.015-0.301,0.006-0.385,0.044c-0.497,0.132-0.981,0.369-1.355,0.724c-0.384,0.349-0.649,0.855-0.625,1.368
				c0,0.132,0.015,0.255,0.044,0.381c0.013,0.126,0.073,0.24,0.107,0.36c0.098,0.231,0.23,0.448,0.372,0.659
				c0.25,0.281,0.58,0.486,0.892,0.691c0.265,0.169,0.536,0.326,0.809,0.485c-0.289-0.047-0.581-0.101-0.873-0.148
				c-0.129-0.012-0.24-0.038-0.387-0.038c-0.12-0.006-0.249,0-0.388,0.032c-0.139,0.021-0.259,0.067-0.376,0.12
				c-0.123,0.058-0.233,0.123-0.337,0.202c-0.402,0.311-0.675,0.776-0.739,1.267l0.076,0.042c0-0.001,0-0.002,0-0.003
				c0.088-0.475,0.382-0.899,0.776-1.148c0.189-0.132,0.419-0.205,0.633-0.24c0.105-0.018,0.22-0.023,0.347-0.009
				c0.102,0,0.233,0.038,0.344,0.059c0.463,0.096,0.926,0.195,1.427,0.236c0.339,0.193,0.726,0.352,1.093,0.491
				c0.384,0.129,0.77,0.243,1.166,0.334c0.577,0.143,1.163,0.229,1.751,0.296c-0.16-0.162-0.388-0.317-0.652-0.463
				c-0.522-0.081-1.041-0.17-1.556-0.291c-0.095-0.021-0.185-0.052-0.279-0.075c-0.105-0.035-0.215-0.063-0.319-0.101
				c-0.375-0.144-0.724-0.278-1.075-0.478l-0.028-0.012h-0.042c-0.126-0.009-0.258-0.033-0.388-0.051
				c-0.321-0.171-0.645-0.356-0.96-0.549c-0.313-0.202-0.64-0.393-0.891-0.671c-0.141-0.211-0.261-0.425-0.349-0.659
				c-0.031-0.117-0.085-0.231-0.097-0.354c-0.023-0.123-0.039-0.243-0.028-0.366c0.015-0.489,0.287-0.938,0.666-1.233
				c0.182-0.158,0.401-0.267,0.615-0.372c0.23-0.091,0.439-0.176,0.688-0.228c0.146-0.035,0.189-0.041,0.319-0.018l0.36,0.067
				c0.176,0.033,0.348,0.066,0.535,0.086c0.05,0.019,0.1,0.043,0.15,0.061c0.198,0.079,0.378,0.106,0.567,0.164l0.564,0.138
				c0.368,0.103,0.768,0.126,1.151,0.193c0.382,0.065,0.771,0.085,1.154,0.129c0.384,0.047,0.771,0.061,1.157,0.088
				c0.048,0.003,0.099,0.008,0.149,0.012c-0.223-0.129-0.583-0.26-0.993-0.382c-0.314-0.03-0.628-0.058-0.94-0.102
				c-0.454-0.062-0.905-0.141-1.354-0.226c-0.448-0.091-0.891-0.211-1.323-0.349l-0.026-0.009h-0.04
				c-0.081,0.001-0.18-0.013-0.281-0.028c-0.246-0.107-0.484-0.225-0.703-0.356c-0.149-0.1-0.338-0.22-0.445-0.343
				c-0.12-0.138-0.274-0.252-0.352-0.419l-0.148-0.231c-0.035-0.082-0.057-0.17-0.088-0.258c-0.068-0.142-0.063-0.296-0.075-0.449
				l0.226,0.065c0.114,0.024,0.22,0.085,0.34,0.079l0.349,0.012c0.114,0.009,0.228-0.038,0.341-0.05
				c0.119-0.015,0.226-0.053,0.33-0.105c0.107-0.041,0.212-0.091,0.306-0.158c0.198-0.12,0.357-0.287,0.496-0.466
				c0.129-0.129,0.231-0.272,0.322-0.425c0.085-0.152,0.17-0.31,0.223-0.477c0.067-0.167,0.1-0.34,0.141-0.513
				c0.027-0.133,0.033-0.268,0.044-0.404l0.047-0.007c0.404-0.056,0.812-0.102,1.219-0.117c0.413-0.018,0.82-0.032,1.233-0.026
				c0.253,0.001,0.506,0.017,0.76,0.028l0.989,0.136l0,0l0.009,0.003h0.013c0.108,0.024,0.21,0.051,0.313,0.077
				C145.878,188.622,145.514,188.46,145.095,188.314z"/>
		</g>
		
			<rect id="XMLID_1616_" x="119.512" y="188.637" transform="matrix(0.1741 -0.9847 0.9847 0.1741 -82.331 282.0379)" style="fill:#FFFFFF;" width="14.922" height="2.928"/>
	</g>
</g>
<g id="Cuerpo-Cabeza">
	<path id="XMLID_1301_" style="fill:#EFC392;stroke:#994900;stroke-linecap:round;stroke-linejoin:round;stroke-miterlimit:10;" d="
		M123.204,126.295c-0.209,0.238-0.423,0.472-0.646,0.706c-0.223,0.236-0.454,0.469-0.696,0.702c-0.237,0.23-0.488,0.464-0.745,0.693
		c-0.258,0.23-0.525,0.458-0.8,0.686c-0.275,0.228-0.563,0.454-0.855,0.678c-0.296,0.225-0.597,0.446-0.91,0.668
		c-0.004-1.238-0.008-2.477-0.011-3.713c-0.006-1.237-0.008-2.475-0.011-3.713c-0.004-1.235-0.009-2.472-0.012-3.709
		c-0.006-1.238-0.008-2.475-0.011-3.713c-0.004-1.237-0.008-2.475-0.011-3.712c-0.006-1.238-0.008-2.475-0.011-3.713
		c0,0,0.095-0.157,0.271-0.401c0.174-0.246,0.43-0.578,0.749-0.929c0.32-0.348,0.7-0.713,1.128-1.024
		c0.429-0.313,0.905-0.568,1.412-0.701c0.504-0.13,1.04-0.136,1.592,0.054c0.549,0.191,1.116,0.576,1.678,1.229
		c0.418,0.489,0.837,1.143,1.206,1.933c0.373,0.791,0.698,1.714,0.931,2.743c0.235,1.026,0.381,2.159,0.393,3.362
		c0.014,1.203-0.108,2.476-0.402,3.789c-0.299,1.311-0.77,2.665-1.463,4.022C125.287,123.59,124.376,124.954,123.204,126.295z"/>
	<g>
		<defs>
			<filter id="Adobe_OpacityMaskFilter" filterUnits="userSpaceOnUse" x="21.69" y="232.53" width="96.81" height="19.325">
				<feFlood  style="flood-color:white;flood-opacity:1" result="back"/>
				<feBlend  in="SourceGraphic" in2="back" mode="normal"/>
			</filter>
		</defs>
		<mask maskUnits="userSpaceOnUse" x="21.69" y="232.53" width="96.81" height="19.325" id="XMLID_2_">
			<g id="XMLID_3_" style="filter:url(#Adobe_OpacityMaskFilter);">
			</g>
		</mask>
		<path id="XMLID_4_" style="opacity:0.2;mask:url(#XMLID_2_);" d="M118.501,241.72c0.051,5.328-21.574,9.862-48.31,10.123
			c-26.734,0.263-48.449-3.848-48.5-9.177c-0.053-5.329,21.578-9.863,48.311-10.125C96.737,232.279,118.449,236.388,118.501,241.72z
			"/>
		<g id="XMLID_1303_">
			<g id="XMLID_1479_">
				<g id="XMLID_1484_">
					<rect id="XMLID_1489_" x="50.648" y="213.648" style="fill:#0071BC;" width="12.911" height="29.754"/>
				</g>
				<rect id="XMLID_1483_" x="75.357" y="213.648" style="fill:#0071BC;" width="12.911" height="29.754"/>
				<path id="XMLID_1482_" style="fill:#0071BC;" d="M95.597,206.877c-3.053,13.84-11.786,13.134-24.612,13.134h-2.272
					c-1.184,0-2.344,0.006-3.457,0.006c-10.932,0-18.378-0.583-21.154-13.14H95.597z"/>
				<path id="XMLID_1481_" style="fill:#4C2B18;" d="M64.517,240.484c-0.378-0.494-0.873-1.02-1.519-1.421
					c-0.629-0.429-1.361-0.806-2.158-1.135c-0.797-0.33-1.658-0.631-2.572-0.839c-1.821-0.448-3.806-0.716-5.796-0.803
					c-0.997-0.035-2.024,0.024-2.969,0.081c-0.955,0.006-1.944,0.224-2.877,0.357c-0.47,0.069-0.914,0.242-1.352,0.371
					c-0.438,0.129-0.861,0.275-1.245,0.508c-0.807,0.356-1.469,0.905-2.01,1.456c-0.226,0.322-0.448,0.625-0.634,0.924
					c-0.11,0.337-0.214,0.655-0.312,0.955c-0.079,0.612-0.139,1.156-0.072,1.588c0.047,0.439,0.198,0.769,0.305,0.971
					c0.13,0.192,0.199,0.294,0.199,0.294s-0.014-0.031-0.031-0.064c0.021,0.033,0.045,0.064,0.068,0.096
					c-0.018-0.015-0.037-0.031-0.037-0.031s0.05,0.062,0.128,0.16c0.008,0.01,0.015,0.02,0.024,0.03
					c0.007,0.009,0.01,0.012,0.017,0.022c0.116,0.135,0.243,0.365,0.554,0.527c0.278,0.22,0.658,0.378,1.1,0.541
					c0.441,0.163,0.958,0.278,1.523,0.378c1.129,0.166,2.452,0.322,3.864,0.356c1.409,0.026,2.914,0.054,4.417,0.082
					c1.506-0.029,3.012-0.076,4.427-0.168c1.415-0.089,2.733-0.308,3.851-0.563c1.119-0.255,2.014-0.672,2.553-1.08
					c0.541-0.42,0.681-0.797,0.697-0.779c0,0-0.024,0.023-0.062,0.061c0.024-0.033,0.054-0.063,0.076-0.097
					c-0.004,0.01-0.014,0.036-0.014,0.036s0.017-0.029,0.039-0.068c0.012-0.019,0.022-0.039,0.033-0.058
					c0.028-0.049,0.058-0.102,0.103-0.182c0.066-0.098,0.129-0.223,0.152-0.397c0.031-0.157,0.105-0.39,0.066-0.598
					C65.078,241.577,64.847,241.002,64.517,240.484z"/>
				<path id="XMLID_1480_" style="fill:#4C2B18;" d="M97.882,240.938c-0.098-0.3-0.202-0.62-0.312-0.957
					c-0.186-0.297-0.41-0.601-0.634-0.923c-0.542-0.552-1.203-1.102-2.01-1.458c-0.385-0.233-0.807-0.378-1.247-0.507
					c-0.438-0.13-0.882-0.303-1.351-0.371c-0.934-0.133-1.923-0.352-2.878-0.357c-0.945-0.057-1.972-0.116-2.969-0.081
					c-1.991,0.086-3.976,0.355-5.796,0.803c-0.914,0.208-1.775,0.51-2.574,0.839c-0.797,0.331-1.529,0.706-2.158,1.137
					c-0.646,0.4-1.141,0.927-1.519,1.419c-0.329,0.519-0.561,1.093-0.536,1.512c-0.04,0.208,0.035,0.439,0.066,0.596
					c0.024,0.176,0.087,0.3,0.152,0.397c0.044,0.076,0.072,0.126,0.1,0.174c0.013,0.024,0.026,0.048,0.041,0.072
					c0.018,0.032,0.035,0.061,0.035,0.061s-0.009-0.024-0.012-0.032c0.02,0.03,0.047,0.057,0.068,0.087
					c-0.035-0.035-0.055-0.054-0.055-0.054c0.016-0.018,0.158,0.359,0.697,0.779c0.539,0.407,1.436,0.825,2.553,1.08
					c1.118,0.255,2.436,0.473,3.851,0.563c1.416,0.092,2.922,0.139,4.427,0.168c1.504-0.028,3.009-0.056,4.418-0.082
					c1.412-0.034,2.735-0.19,3.864-0.356c0.564-0.1,1.081-0.215,1.523-0.378c0.442-0.163,0.822-0.321,1.1-0.541
					c0.311-0.163,0.438-0.393,0.554-0.527c0.008-0.01,0.011-0.013,0.018-0.022c0.008-0.009,0.014-0.018,0.022-0.027
					c0.08-0.099,0.13-0.161,0.13-0.161s-0.02,0.017-0.038,0.032c0.023-0.032,0.047-0.064,0.069-0.097
					c-0.016,0.035-0.031,0.065-0.031,0.065s0.069-0.102,0.199-0.296c0.107-0.201,0.258-0.53,0.305-0.97
					C98.021,242.094,97.961,241.55,97.882,240.938z"/>
			</g>
			<g id="XMLID_1463_">
				<path id="XMLID_1473_" style="fill:#CCCCCC;" d="M48.813,165.387c0,0-35.486,15.735-17.564,42.369l5.53-8.994
					c0,0-7.702-15.366,10.084-25.956L48.813,165.387z"/>
			</g>
			<g id="XMLID_1456_">
				<g id="XMLID_1460_">
					<path id="XMLID_1462_" style="fill:#F7941E;" d="M96.81,191.142c0,6.554-0.412,11.698-1.213,15.735H44.102
						c-0.8-4.037-1.213-9.182-1.213-15.735c0-14.599,1.31-24.894,8.174-27.521c4.29-1.647,5.046-0.755,17.65-0.755h2.272
						c1.844,0,3.548-0.007,5.13-0.007c8.744,0,9.435-0.809,12.886,0.606C96.406,166.499,96.81,175.798,96.81,191.142z"/>
					<path id="XMLID_1461_" style="fill:#FFFFFF;" d="M96.803,190.278c-0.021,2.344-0.097,4.5-0.227,6.48H43.126
						c-0.136-1.98-0.211-4.137-0.231-6.48h7.056c-1.251-17.446,2.227-28.074,2.669-29.342c0.016-0.054,0.032-0.092,0.038-0.113
						l0.155,0.059l2.89,1.052l3.045,1.107c-0.038,0.108-3.586,10.245-2.294,27.237h26.924c1.291-16.992-2.259-27.129-2.295-27.237
						l6.086-2.218c0.177,0.48,4.017,11.259,2.71,29.455H96.803z"/>
				</g>
				<g id="XMLID_1457_">
					<polygon id="XMLID_1459_" style="fill:#CCCCCC;" points="69,169.128 77.502,177.282 93.162,164.69 					"/>
					<polygon id="XMLID_1458_" style="fill:#CCCCCC;" points="70.805,169.12 62.272,177.302 46.56,164.669 					"/>
				</g>
			</g>
			<g id="XMLID_1451_">
				<path id="XMLID_1455_" style="fill:#4C2B18;" d="M96.406,201.712c-0.198,1.915-0.467,3.63-0.809,5.165H44.102
					c-0.341-1.535-0.611-3.251-0.807-5.165H96.406z"/>
				<path id="XMLID_1452_" style="fill:#FFD825;" d="M72.937,207.953h-6.176c-1.98,0-3.592-1.611-3.592-3.592
					c0-2.111,1.611-3.722,3.592-3.722h6.176c1.982,0,3.593,1.611,3.593,3.593C76.531,206.341,74.919,207.953,72.937,207.953z
					 M66.762,202.434c-0.99,0-1.796,0.807-1.796,1.797c0,1.119,0.806,1.925,1.796,1.925h6.176c0.99,0,1.797-0.806,1.797-1.796
					c0-1.119-0.807-1.926-1.797-1.926H66.762z"/>
			</g>
			<g id="XMLID_1304_">
				<g id="XMLID_1357_">
					
						<path id="XMLID_1358_" style="fill:#EFC392;stroke:#994900;stroke-linecap:round;stroke-linejoin:round;stroke-miterlimit:10;" d="
						M52.372,208.366c-0.066,0.46-0.453,1.052-1.137,1.034c-0.905-0.018-3.324-0.214-5.282-0.806c0,0,2.735,1.181,4.755,1.644
						c0.592,0.132,1.559,0.378,1.559,1.269c0,0,0.249,1.598-1.412,1.412c0,0-0.791-0.006-1.504-0.221
						c-1.784-0.535-5.268-1.976-5.833-2.253c0,0,3.713,1.913,5.013,2.369c1.296,0.454,1.351,0.782,1.257,1.548
						c-0.103,0.765-0.378,1.311-1.374,1.153c-0.867-0.149-1.31-0.431-1.31-0.431l-5.678-2.859l3.067,1.775
						c0,0,0.999,0.356,0.882,1.166c-0.129,0.804-0.753,1.187-1.515,1.175c-0.681-0.015-1.194-0.126-1.822-0.614
						c-0.636-0.491-3.456-2.027-3.456-2.027s-0.672-0.617-1.355-1.239c-0.7-0.643-3.839-3.07-3.442-5.616
						c0,0-0.038-1.624,1.523-2.87l0.237-0.858c0,0,0.475-2.13,3.24-1.983c0,0,1.247,0.064,1.956,0.129
						c0.637,0.064,1.635,0.135,2.899,0.24l-0.108,2.572c-0.24-0.116-0.436-0.19-0.482-0.19c-0.186-0.009-0.423,0.434-0.037,0.743
						c0,0,1.099,0.789,2.479,1.211c0.398,0.122,3.716,0.686,5.716,0.97C52.58,207.003,52.437,207.944,52.372,208.366z"/>
				</g>
				<polygon id="XMLID_1356_" style="fill:#FFFFFF;" points="38.481,200.346 36.779,198.762 31.249,207.756 32.666,209.217 				"/>
			</g>
		</g>
		
			<path id="XMLID_1300_" style="fill:#EFC392;stroke:#994900;stroke-linecap:round;stroke-linejoin:round;stroke-miterlimit:10;" d="
			M17.96,126.949c0.209,0.235,0.425,0.468,0.649,0.703c0.222,0.231,0.456,0.464,0.699,0.694c0.243,0.231,0.493,0.461,0.749,0.691
			c0.261,0.228,0.528,0.456,0.807,0.681c0.276,0.225,0.562,0.449,0.859,0.672c0.294,0.224,0.598,0.443,0.913,0.663
			c-0.003-1.238-0.009-2.475-0.011-3.713c-0.003-1.237-0.007-2.475-0.011-3.713c-0.003-1.237-0.009-2.474-0.012-3.709
			c-0.003-1.238-0.007-2.476-0.011-3.715c-0.003-1.237-0.006-2.473-0.011-3.71c-0.003-1.237-0.006-2.475-0.011-3.712
			c0,0-0.098-0.158-0.273-0.401c-0.178-0.245-0.434-0.575-0.755-0.924c-0.319-0.346-0.703-0.708-1.135-1.018
			c-0.429-0.309-0.908-0.562-1.412-0.691c-0.508-0.126-1.044-0.129-1.594,0.064c-0.549,0.193-1.11,0.583-1.67,1.239
			c-0.416,0.489-0.83,1.148-1.197,1.94c-0.365,0.791-0.684,1.718-0.911,2.747c-0.229,1.029-0.367,2.163-0.372,3.365
			c-0.005,1.202,0.123,2.474,0.426,3.787c0.306,1.31,0.786,2.659,1.486,4.014C15.86,124.255,16.779,125.616,17.96,126.949z"/>
		
			<path id="XMLID_1290_" style="fill:#EFC392;stroke:#994900;stroke-linecap:round;stroke-linejoin:round;stroke-miterlimit:10;" d="
			M34.823,155.569c-3.497-3.732-6.418-8.068-8.765-12.885c-2.32-4.764-4.076-9.996-5.268-15.571
			c-1.167-5.451-1.791-11.234-1.874-17.222c-0.091-6.006,0.485-12.023,1.806-17.886c1.288-5.699,3.23-11.062,5.739-15.962
			c2.51-4.902,5.587-9.34,9.148-13.187c3.008-3.25,6.358-6.079,10.003-8.405c3.67-2.347,7.639-4.183,11.847-5.433
			c4.3-1.276,8.762-1.889,13.245-1.903c4.574,0.002,8.966,0.655,13.125,1.883c4.158,1.228,8.084,3.03,11.723,5.33
			c3.638,2.301,6.991,5.099,10.007,8.318c3.583,3.825,6.689,8.245,9.227,13.13c2.539,4.887,4.513,10.239,5.837,15.928
			c1.356,5.855,1.969,11.867,1.915,17.874c-0.047,5.991-0.638,11.774-1.772,17.234c-1.156,5.579-2.881,10.823-5.173,15.601
			c-2.319,4.83-5.212,9.184-8.687,12.937c-2.886,3.12-6.174,5.821-9.862,8.031c-3.689,2.212-7.777,3.933-12.265,5.088
			c-4.751,1.223-9.672,1.739-14.575,1.699c-4.934-0.039-9.514-0.646-13.737-1.761c-4.35-1.145-8.322-2.827-11.919-4.977
			C40.922,161.262,37.679,158.616,34.823,155.569z"/>
		<path id="XMLID_1289_" style="fill:#482E1D;" d="M135.736,100.114l0.025-2.42l0.045-4.229c-0.019-1.412,0.103-2.831-0.035-4.244
			l-0.326-4.245c-0.067-0.708-0.089-1.421-0.226-2.122l-0.337-2.113l-0.341-2.116c-0.093-0.709-0.266-1.406-0.435-2.103
			l-0.498-2.097c-0.174-0.699-0.312-1.405-0.549-2.092c-0.462-1.377-0.8-2.778-1.373-4.143c-0.028-0.07-0.054-0.14-0.081-0.21
			l3.326-0.503l1.179-0.484l0.595-3.141l0.176-2.529c-0.223-0.721-0.374-1.463-0.685-2.161l-0.846-2.121
			c-0.254-0.72-0.65-1.38-0.994-2.065c-0.369-0.67-0.677-1.379-1.105-2.019l-1.265-1.933c-0.408-0.656-0.939-1.223-1.406-1.837
			c-0.474-0.611-0.967-1.205-1.516-1.749c-0.544-0.547-1.048-1.141-1.63-1.648l-1.739-1.535l-1.846-1.398
			c-0.631-0.443-1.291-0.842-1.938-1.263c-0.412-0.249-0.838-0.476-1.259-0.709l0.896-0.601l4.954-3.325l-4.885-3.32l-1.888-1.284
			c-0.623-0.447-1.281-0.806-1.936-1.174c-0.658-0.354-1.301-0.77-1.977-1.07l-2.016-0.951c-0.675-0.311-1.362-0.556-2.045-0.835
			c-0.682-0.282-1.369-0.536-2.063-0.755c-1.38-0.486-2.773-0.893-4.174-1.255c-0.7-0.188-1.404-0.327-2.106-0.491
			c-0.702-0.168-1.407-0.3-2.113-0.429c-1.409-0.276-2.824-0.482-4.241-0.672c-1.195-0.152-2.394-0.265-3.597-0.362l0.465-3.311
			l0.686-4.892l-4.756-0.115c-1.602-0.039-3.214-0.202-4.81-0.122l-2.396,0.066l-2.379,0.204c-0.796,0.057-1.583,0.151-2.365,0.278
			c-0.784,0.118-1.571,0.219-2.35,0.354l-2.32,0.476c-0.778,0.144-1.53,0.369-2.295,0.554c-0.764,0.19-1.526,0.386-2.273,0.623
			c-0.749,0.232-1.508,0.437-2.248,0.694c-1.488,0.492-2.957,1.031-4.413,1.608c-1.017,0.415-2.024,0.854-3.026,1.309l-0.603-3.261
			l-1.105-5.987l-5.087,2.832l-4.479,2.494l-2.234,1.252c-0.73,0.438-1.41,0.95-2.116,1.423l-4.192,2.895
			c-1.333,1.044-2.642,2.117-3.959,3.175c-0.648,0.544-1.341,1.033-1.946,1.623l-1.868,1.71c-1.253,1.13-2.49,2.276-3.647,3.506
			c-1.188,1.197-2.361,2.409-3.471,3.695c-0.218,0.246-0.436,0.49-0.654,0.735l-3.576-3.348l-2.14,4.155
			c-0.71,1.38-1.525,2.715-2.12,4.133l-0.943,2.106l-0.826,2.138c-0.29,0.709-0.511,1.435-0.749,2.156
			c-0.225,0.724-0.497,1.437-0.683,2.169c-0.416,1.455-0.807,2.912-1.126,4.381c-0.343,1.464-0.616,2.939-0.866,4.414
			c-0.25,1.476-0.447,2.956-0.621,4.439c-0.16,1.484-0.27,2.972-0.342,4.465c-0.02,0.419-0.028,0.84-0.042,1.261l-2.415-0.392
			l-3.527-0.572l0.43,3.307l0.437,3.366c0.163,1.12,0.256,2.245,0.476,3.357l0.598,3.336c0.186,1.113,0.441,2.215,0.711,3.312
			l0.781,3.292L8,92.91c0.298,1.086,0.623,2.163,0.994,3.227l1.077,3.197l1.209,3.148c0.395,1.051,0.886,2.066,1.324,3.098
			c0.435,1.033,0.922,2.044,1.417,3.05c0.478,1.013,0.979,2.014,1.518,2.997c1.021,1.99,2.184,3.906,3.389,5.784
			c1.22,1.868,2.492,3.703,3.941,5.39c0,0-2.032-27.628,12.286-34.859c5.785-2.92,15.029,1.244,35.423,1.181
			c22.852-0.068,32.079-3.448,37.296,0.637c4.95,3.878,11.207,9.696,9.958,32.754l2.079-2.928l1.029-1.47
			c0.334-0.497,0.707-0.965,1.009-1.485l1.9-3.076l0.94-1.553l0.846-1.6l0.846-1.604c0.276-0.539,0.585-1.062,0.822-1.621
			l1.509-3.322l0.665-1.712c0.213-0.575,0.463-1.134,0.634-1.732l0.555-1.776c0.006-0.025,0.013-0.048,0.019-0.072l2.815,0.866
			L135.736,100.114z"/>
		<g id="XMLID_1163_">
			<path id="XMLID_1272_" style="fill:#FFFFFF;" d="M138.96,79.96c0.008,1.914-0.047,3.813-0.156,5.693
				c-13.149-4.125-39.451-6.882-69.736-6.791c-29.264,0.089-54.786,2.814-68.32,6.789c-0.102-1.741-0.158-3.502-0.164-5.274
				C0.45,36.173,31.339,6.425,69.548,6.309C107.765,6.194,138.826,35.756,138.96,79.96z"/>
			<path id="XMLID_1271_" style="fill:#B3B3B3;" d="M69.812,94.762c-43.432,0.133-60.428,0.726-69.21-6.939
				c-5.425-4.736,26.423-10.448,69.857-10.579c43.436-0.129,75.319,5.388,69.921,10.156c-8.734,7.718-25.733,7.227-69.166,7.358
				L69.812,94.762z"/>
			<path id="XMLID_1165_" style="fill:#808080;" d="M0.683,84.393c0,0,2.088-0.62,5.76-1.638c1.862-0.426,4.125-0.943,6.719-1.536
				c2.61-0.508,5.553-1.106,8.784-1.634c3.238-0.462,6.735-1.103,10.466-1.481c1.864-0.217,3.778-0.441,5.735-0.67
				c1.958-0.223,3.966-0.35,6.004-0.53c4.077-0.375,8.301-0.605,12.595-0.808c4.304-0.188,8.647-0.235,13.052-0.309
				c2.174,0.035,4.35,0.069,6.517,0.104c2.163,0.018,4.326,0.075,6.482,0.194c4.307,0.162,8.537,0.428,12.613,0.79
				c4.084,0.273,8.014,0.759,11.74,1.196c3.73,0.389,7.228,1.022,10.466,1.487c3.23,0.537,6.174,1.136,8.782,1.649
				c2.59,0.6,4.849,1.124,6.708,1.555c3.679,1.042,5.758,1.677,5.758,1.677s-2.152-0.384-5.877-1.116
				c-1.88-0.287-4.161-0.636-6.777-1.035c-2.627-0.314-5.59-0.668-8.824-1.054c-1.62-0.156-3.307-0.319-5.054-0.488
				c-1.744-0.18-3.546-0.368-5.408-0.489c-3.717-0.288-7.634-0.597-11.696-0.797c-2.028-0.103-4.092-0.258-6.179-0.324
				c-2.085-0.069-4.196-0.139-6.324-0.21c-4.243-0.213-8.622-0.118-12.964-0.197c-4.294,0.04-8.657,0.051-12.912,0.205
				c-4.262,0.19-8.464,0.253-12.52,0.549c-4.06,0.214-7.979,0.494-11.696,0.8c-1.861,0.124-3.665,0.299-5.41,0.483
				c-1.745,0.168-3.433,0.331-5.053,0.487c-3.234,0.382-6.197,0.732-8.825,1.042c-2.616,0.392-4.896,0.735-6.774,1.016
				C2.83,84.024,0.683,84.393,0.683,84.393z"/>
			<path id="XMLID_1164_" style="fill:#E6E6E6;" d="M63.893,0.035c-5.397,0.016-8.826,4.331-7.627,9.594l6.341,49.465
				c1.201,5.256,13.001,5.221,14.169-0.043l6.077-49.502c1.168-5.27-2.29-9.565-7.685-9.549L63.893,0.035z"/>
		</g>
		<path id="XMLID_562_" style="fill:#C4884D;" d="M64.343,130.849c0.695-0.888,2.674,1.603,5.764,1.861
			c3.089,0.258,4.511-3,5.849-2.199c1.337,0.802-1.458,4.998-6.107,5.288S63.747,131.61,64.343,130.849z"/>
	</g>
</g>
<g id="Ojos-Abiertos">
	<g id="XMLID_641_">
		<path id="XMLID_823_" style="fill:#FFFFFF;" d="M45.921,108.27c-13.036,3.449-12.468,22.059,1.694,22.022
			C61.778,130.255,61.091,104.257,45.921,108.27z"/>
		<path id="XMLID_821_" d="M53.003,119.091c-0.08,3.844-2.613,6.908-5.656,6.845c-3.043-0.064-5.445-3.231-5.365-7.075
			c0.08-3.844,2.613-6.908,5.656-6.845C50.682,112.079,53.083,115.247,53.003,119.091z"/>
		<path id="XMLID_645_" style="fill:#FFFFFF;" d="M48.049,115.505c-0.038,1.815-1.54,3.256-3.355,3.218
			c-1.815-0.038-3.256-1.54-3.218-3.355c0.038-1.815,1.54-3.256,3.355-3.218C46.646,112.188,48.087,113.69,48.049,115.505z"/>
		<path id="XMLID_644_" style="fill:#FFFFFF;" d="M50.622,121.942c-0.015,0.694-0.589,1.245-1.283,1.23
			c-0.694-0.014-1.245-0.589-1.23-1.283c0.015-0.694,0.589-1.245,1.283-1.23C50.086,120.674,50.637,121.248,50.622,121.942z"/>
	</g>
	<g id="XMLID_606_">
		<path id="XMLID_626_" style="fill:#FFFFFF;" d="M93.278,108.1c12.88,3.991,11.535,22.561-2.614,21.932
			C76.515,129.403,78.289,103.456,93.278,108.1z"/>
		
			<ellipse id="XMLID_625_" transform="matrix(0.0209 -0.9998 0.9998 0.0209 -28.7976 208.0782)" cx="91.84" cy="118.742" rx="6.962" ry="5.511"/>
		<path id="XMLID_623_" style="fill:#FFFFFF;" d="M92.396,115.272c-0.038,1.815-1.54,3.256-3.355,3.218
			c-1.815-0.038-3.256-1.54-3.218-3.355c0.038-1.815,1.54-3.256,3.355-3.218C90.993,111.955,92.434,113.457,92.396,115.272z"/>
		<path id="XMLID_622_" style="fill:#FFFFFF;" d="M94.969,121.709c-0.015,0.694-0.589,1.245-1.283,1.23
			c-0.694-0.014-1.245-0.589-1.23-1.283c0.015-0.694,0.589-1.245,1.283-1.23C94.433,120.441,94.984,121.015,94.969,121.709z"/>
	</g>
</g>
<g id="Ojos-Cerrados">
</g>
<g id="Cejas">
	<g id="XMLID_604_">
		<path id="XMLID_1123_" style="fill:#482E1D;" d="M55.562,103.893c2.166-3.614-5.289-6.523-9.726-6.615
			c-4.437-0.093-10.529,8.165-9.584,10.157c0.945,1.993,4.526-5.428,9.95-5.314S53.517,107.303,55.562,103.893z"/>
		<path id="XMLID_640_" style="fill:#482E1D;" d="M83.829,103.324c-2.013-3.701,5.557-6.296,9.994-6.203
			c4.437,0.093,10.178,8.598,9.151,10.549c-1.027,1.951-4.296-5.612-9.719-5.726C87.832,101.831,85.729,106.816,83.829,103.324z"/>
	</g>
</g>
<g id="Boca_1">
	<g>
		<path id="XMLID_1287_" d="M94.487,143.771c0.012,3.668-2,8.852-6.081,13.064c-3.943,4.08-9.823,7.248-17.683,7.273
			c-7.86,0.023-13.758-3.11-17.729-7.165c-4.103-4.189-6.146-9.363-6.157-13.029c-0.011-3.349,2.289-4.13,6.074-4.002l0.032,0.001
			c0.003-0.001,0.003-0.001,0.003-0.001c4.362,0.15,10.68,1.484,17.707,1.463c6.809-0.021,12.948-1.31,17.289-1.547l0.013,0
			c0.007,0.001,0.016,0,0.022-0.001C92.005,139.605,94.475,140.302,94.487,143.771z"/>
		<path id="XMLID_1286_" style="fill:#FFFFFF;" d="M55.128,144.797c0.86,0.704,1.987,1.227,3.391,1.613
			c1.312,0.362,2.87,0.599,4.691,0.752c1.668,0.137,3.553,0.204,5.672,0.217c0.515,0.005,1.044,0.005,1.591,0.005
			c2.101-0.008,3.986-0.049,5.671-0.149c2.308-0.133,4.237-0.379,5.833-0.782c1.592-0.409,2.853-0.978,3.814-1.771
			c0.243-0.197,0.467-0.413,0.672-0.644c0.218-0.24,0.417-0.501,0.588-0.778c0.181-0.294,0.322-0.594,0.429-0.892
			c0.11-0.302,0.19-0.601,0.247-0.897c0.06-0.29,0.1-0.577,0.135-0.853c0.035-0.279,0.057-0.543,0.082-0.791
			c-1.534,0.084-3.293,0.299-5.226,0.545c-1.937,0.244-4.047,0.514-6.283,0.715c-1.851,0.167-3.785,0.279-5.783,0.287
			c-0.352,0-0.705-0.004-1.057-0.008c-2.114-0.032-4.158-0.178-6.094-0.367c-2.009-0.198-3.904-0.437-5.647-0.642
			c-1.818-0.219-3.465-0.395-4.903-0.442c0.027,0.251,0.053,0.513,0.09,0.791c0.038,0.275,0.083,0.563,0.148,0.856
			c0.062,0.291,0.147,0.597,0.258,0.896c0.112,0.3,0.252,0.604,0.431,0.902c0.167,0.279,0.362,0.544,0.579,0.79
			C54.658,144.381,54.882,144.595,55.128,144.797z"/>
	</g>
</g>
<g id="Boca_2">
</g>
<g id="Boca_3">
</g>
</svg>
