<?xml version="1.0" encoding="utf-8"?>
<!-- Generator: Adobe Illustrator 21.0.0, SVG Export Plug-In . SVG Version: 6.00 Build 0)  -->
<svg version="1.1" id="Capa_1" xmlns="http://www.w3.org/2000/svg" xmlns:xlink="http://www.w3.org/1999/xlink" x="0px" y="0px"
	 viewBox="0 0 64 64" style="enable-background:new 0 0 64 64;" xml:space="preserve">
<g>
	<g>
		<path style="opacity:0.2;fill-rule:evenodd;clip-rule:evenodd;" d="M6.873,9.014c-9.142,8.639-9.17,39.915-0.044,48.569
			c9.024,8.556,41.319,8.556,50.342,0c9.126-8.655,9.099-39.93-0.044-48.569C47.9,0.292,16.101,0.292,6.873,9.014z"/>
		<path style="fill-rule:evenodd;clip-rule:evenodd;fill:#FFFFFF;" d="M6.873,6.542c-9.142,8.639-9.17,39.918-0.044,48.572
			c9.024,8.556,41.319,8.556,50.342,0c9.126-8.654,9.099-39.933-0.044-48.572C47.9-2.181,16.101-2.181,6.873,6.542z"/>
		<path style="fill-rule:evenodd;clip-rule:evenodd;fill:#FF5555;" d="M9.233,7.289c-8.283,7.827-8.307,36.165-0.039,44.004
			c8.177,7.753,37.435,7.753,45.611,0c8.268-7.84,8.244-36.177-0.039-44.004C46.406-0.616,17.594-0.616,9.233,7.289z"/>
		<path style="fill-rule:evenodd;clip-rule:evenodd;fill:#AA0000;" d="M54.805,45.367c-8.176,7.753-37.434,7.753-45.611,0
			c-3.673-3.482-5.711-11.013-6.114-18.991c-0.5,9.948,1.535,20.574,6.114,24.917c8.177,7.753,37.435,7.753,45.611,0
			c4.579-4.343,6.614-14.97,6.114-24.917C60.516,34.354,58.481,41.885,54.805,45.367z"/>
		<path style="fill-rule:evenodd;clip-rule:evenodd;fill:#FF2A2A;" d="M6.585,41.749c0.752,1.454,1.621,2.682,2.609,3.618
			c8.177,7.753,37.435,7.753,45.611,0c3.155-2.991,5.103-8.967,5.846-15.652C45.307,40.422,27.25,44.342,6.585,41.749z"/>
		<path style="fill-rule:evenodd;clip-rule:evenodd;fill:#FF8080;" d="M9.233,7.289c-2.483,2.346-4.223,6.534-5.222,11.46
			C18.347,4.597,47.086,2.338,59.255,15.733c-1.035-3.602-2.531-6.596-4.489-8.445C46.406-0.616,17.594-0.616,9.233,7.289z"/>
		<path style="fill-rule:evenodd;clip-rule:evenodd;fill:#FFAAAA;" d="M15.762,5.397c-3.518,0.948-6.369,3.253-6.369,5.148
			s2.851,2.664,6.369,1.716c3.517-0.948,6.369-3.253,6.369-5.148C22.131,5.218,19.279,4.449,15.762,5.397z"/>
		<path style="fill-rule:evenodd;clip-rule:evenodd;fill:#FFAAAA;" d="M26.319,2.832c-1.982,0.12-3.776,1.031-4.007,2.037
			c-0.231,1.006,1.189,1.725,3.173,1.608c1.982-0.117,3.776-1.028,4.007-2.034C29.721,3.437,28.301,2.714,26.319,2.832z"/>
		<path style="fill-rule:evenodd;clip-rule:evenodd;fill:#FF8080;" d="M50.599,41.114c-2.221,1.025-3.833,2.876-3.596,4.136
			c0.234,1.263,2.226,1.454,4.447,0.429c2.223-1.025,3.833-2.877,3.599-4.139C54.814,40.28,52.822,40.089,50.599,41.114z"/>
		<path style="fill-rule:evenodd;clip-rule:evenodd;fill:#FF8080;" d="M60.651,29.715c-0.743,6.685-2.691,12.661-5.846,15.652
			c-8.176,7.753-37.434,7.753-45.611,0c-0.988-0.935-1.857-2.164-2.609-3.618c-2.042-3.948-3.21-9.54-3.504-15.374
			c-0.059,1.161-0.081,2.33-0.072,3.5c0.008-0.809,0.031-1.614,0.072-2.414c0.403,7.979,2.44,15.51,6.114,18.994
			c8.177,7.75,37.435,7.75,45.611,0c3.675-3.485,5.711-11.016,6.114-18.994c0.041,0.802,0.064,1.608,0.072,2.417
			c0.01-1.17-0.013-2.343-0.072-3.503C60.863,27.502,60.773,28.619,60.651,29.715z"/>
		<path style="fill-rule:evenodd;clip-rule:evenodd;fill:#E6E6E6;" d="M6.829,53.781C2.377,49.558,0.103,39.95,0.003,30.215
			C-0.1,40.394,2.174,50.697,6.829,55.114c9.025,8.556,41.317,8.556,50.342,0c4.655-4.417,6.929-14.719,6.825-24.899
			c-0.099,9.735-2.373,19.343-6.825,23.566C48.147,62.336,15.853,62.336,6.829,53.781z"/>
	</g>
	<g>
		<path style="fill-rule:evenodd;clip-rule:evenodd;fill:#AA0000;" d="M42.089,11.248H30.163c-0.182,0-0.355,0.009-0.377,0.019
			c-0.75,0.003-1.5,0.201-2.179,0.571c-1.435,0.806-2.327,2.321-2.327,3.96v3.321c-0.302-0.172-0.63-0.293-0.991-0.293
			c-0.411,0-0.824,0.111-1.475,0.478l-9.241,7.022c-0.951,1.077-0.941,2.432,0.031,3.534l0.105,0.12l8.979,6.756
			c0.386,0.207,0.907,0.448,1.506,0.448c0.222,0,0.658-0.053,1.086-0.311v2.459c0,1.639,0.892,3.154,2.336,3.963
			c0.67,0.37,1.426,0.565,2.188,0.565h12.284c2.691,0,4.883-2.191,4.883-4.883V16.131C46.972,13.439,44.781,11.248,42.089,11.248z
			 M37.206,34.094h-2.87V33.06c0-1.596-1.299-2.892-2.895-2.892l-0.215,0.006c0.16-0.359,0.258-0.752,0.258-1.17v-2.003
			c0-0.777-0.317-1.477-0.842-1.997h0.799c1.596,0,2.895-1.299,2.895-2.895v-1.096h2.87V34.094z"/>
		<g>
			<path style="fill-rule:evenodd;clip-rule:evenodd;fill:#FFFFFF;" d="M28.38,30.317h0.208c0.722,0,1.314-0.589,1.314-1.312v-1
				v-1.003c0-0.722-0.591-1.312-1.314-1.312H28.38h-0.792h-2.744v-4.223c0.002-1.028-0.389-1.265-1.079-0.901l-9.008,6.806
				c-0.445,0.503-0.381,0.979,0.032,1.444l8.643,6.528c0.753,0.404,1.4,0.525,1.412-1.102v-3.926h2.744H28.38z"/>
			<path style="fill-rule:evenodd;clip-rule:evenodd;fill:#FFFFFF;" d="M42.091,12.829H30.161c-0.124,0-0.245,0.006-0.366,0.019
				c-0.512,0.003-0.994,0.139-1.416,0.37c-0.906,0.506-1.521,1.475-1.521,2.58v0.334v1.74v2.602v1.636
				c0,0.722,0.59,1.315,1.313,1.315h0.208h1.426h1.636c0.722,0,1.312-0.593,1.312-1.315v-1.636v-1.04h6.033v16.241h-6.033v-1.022
				v-1.593c0-0.722-0.59-1.312-1.312-1.312H30.3c-0.16-0.028-0.326-0.043-0.493-0.043c-0.168,0-0.334,0.015-0.493,0.043H28.38
				h-0.208c-0.724,0-1.313,0.589-1.313,1.312v1.593v2.648v1.676v0.355c0,1.108,0.616,2.074,1.521,2.58
				c0.423,0.235,0.909,0.367,1.426,0.367l0.176-0.003l0.179,0.003h11.929c1.814,0,3.302-1.485,3.302-3.303V16.132
				C45.393,14.314,43.905,12.829,42.091,12.829z"/>
		</g>
		<path style="opacity:0.2;fill-rule:evenodd;clip-rule:evenodd;" d="M14.724,27.416l0.005,0.006
			c0.012-0.018,0.017-0.034,0.031-0.049L14.724,27.416z"/>
	</g>
</g>
</svg>
