<?xml version="1.0" encoding="utf-8"?>
<!-- Generator: Adobe Illustrator 21.0.0, SVG Export Plug-In . SVG Version: 6.00 Build 0)  -->
<svg version="1.1" id="Capa_1" xmlns="http://www.w3.org/2000/svg" xmlns:xlink="http://www.w3.org/1999/xlink" x="0px" y="0px"
	 viewBox="0 0 64 64" style="enable-background:new 0 0 64 64;" xml:space="preserve">
<g>
	<g>
		<path style="opacity:0.2;fill-rule:evenodd;clip-rule:evenodd;" d="M6.873,9.012c-9.142,8.639-9.17,39.917-0.044,48.571
			c9.024,8.555,41.318,8.555,50.342,0c9.126-8.654,9.099-39.932-0.044-48.571C47.9,0.29,16.1,0.29,6.873,9.012z"/>
		<path style="fill-rule:evenodd;clip-rule:evenodd;fill:#FFFFFF;" d="M6.873,6.542c-9.142,8.639-9.17,39.915-0.044,48.569
			c9.024,8.556,41.318,8.556,50.342,0c9.126-8.654,9.099-39.93-0.044-48.569C47.9-2.181,16.1-2.181,6.873,6.542z"/>
		<path style="fill-rule:evenodd;clip-rule:evenodd;fill:#00A5F5;" d="M9.234,7.287c-8.283,7.827-8.307,36.164-0.039,44.006
			c8.176,7.75,37.435,7.75,45.611,0c8.268-7.842,8.244-36.179-0.039-44.006C46.406-0.616,17.595-0.616,9.234,7.287z"/>
		<path style="fill-rule:evenodd;clip-rule:evenodd;fill:#003280;" d="M54.806,45.367c-8.176,7.753-37.435,7.753-45.611,0
			c-3.673-3.484-5.711-11.014-6.114-18.994c-0.5,9.949,1.536,20.577,6.114,24.92c8.176,7.75,37.435,7.75,45.611,0
			c4.578-4.343,6.614-14.971,6.114-24.92C60.516,34.353,58.479,41.883,54.806,45.367z"/>
		<path style="fill-rule:evenodd;clip-rule:evenodd;fill:#0059E1;" d="M6.585,41.748c0.752,1.452,1.621,2.681,2.609,3.619
			c8.176,7.753,37.435,7.753,45.611,0c3.155-2.992,5.103-8.969,5.846-15.651C45.307,40.42,27.25,44.343,6.585,41.748z"/>
		<path style="fill-rule:evenodd;clip-rule:evenodd;fill:#00CFFF;" d="M9.234,7.287c-2.483,2.346-4.223,6.534-5.222,11.462
			C18.347,4.597,47.085,2.338,59.256,15.732c-1.035-3.599-2.532-6.594-4.489-8.445C46.406-0.616,17.595-0.616,9.234,7.287z"/>
		<path style="fill-rule:evenodd;clip-rule:evenodd;fill:#93D5FA;" d="M15.762,5.395c-3.519,0.949-6.369,3.253-6.369,5.15
			c0,1.895,2.85,2.663,6.369,1.715c3.517-0.948,6.369-3.252,6.369-5.147C22.13,5.216,19.279,4.448,15.762,5.395z"/>
		<path style="fill-rule:evenodd;clip-rule:evenodd;fill:#93D5FA;" d="M26.319,2.833c-1.982,0.117-3.777,1.028-4.007,2.036
			c-0.231,1.006,1.19,1.725,3.173,1.608c1.982-0.117,3.776-1.028,4.007-2.036C29.721,3.435,28.301,2.716,26.319,2.833z"/>
		<path style="fill-rule:evenodd;clip-rule:evenodd;fill:#93D5FA;" d="M50.599,41.111c-2.221,1.025-3.833,2.876-3.596,4.137
			c0.234,1.261,2.226,1.452,4.447,0.429c2.222-1.025,3.833-2.878,3.597-4.137C54.814,40.279,52.822,40.088,50.599,41.111z"/>
		<path style="fill-rule:evenodd;clip-rule:evenodd;fill:#93D5FA;" d="M60.651,29.716c-0.742,6.682-2.691,12.659-5.846,15.651
			c-8.176,7.753-37.435,7.753-45.611,0c-0.988-0.938-1.857-2.167-2.609-3.619c-2.042-3.947-3.211-9.54-3.505-15.375
			c-0.058,1.162-0.081,2.332-0.071,3.5c0.008-0.807,0.031-1.611,0.071-2.412c0.403,7.978,2.44,15.508,6.114,18.992
			c8.176,7.753,37.435,7.753,45.611,0c3.673-3.484,5.711-11.014,6.114-18.992c0.041,0.801,0.063,1.608,0.072,2.415
			c0.01-1.168-0.013-2.341-0.072-3.503C60.862,27.5,60.773,28.617,60.651,29.716z"/>
		<path style="fill-rule:evenodd;clip-rule:evenodd;fill:#E6E6E6;" d="M6.829,53.778c-4.452-4.222-6.726-13.829-6.826-23.565
			C-0.1,40.393,2.174,50.698,6.829,55.111c9.025,8.556,41.317,8.556,50.342,0c4.655-4.413,6.929-14.718,6.826-24.898
			c-0.099,9.736-2.374,19.343-6.826,23.565C48.147,62.333,15.853,62.333,6.829,53.778z"/>
	</g>
	<g>
		<path style="fill-rule:evenodd;clip-rule:evenodd;fill:#003280;" d="M32.978,45.834c-9.108,0-16.515-7.407-16.515-16.515
			c0-2.33,0.494-4.639,1.438-6.756l-2.201-1.88c-0.414-0.355-1.389-1.185-1.164-2.383c0.219-1.182,1.361-1.583,1.91-1.778
			l12.262-4.346c1.188-0.423,1.772-0.63,2.352-0.63h0.741l0.765,0.679c0.676,0.809,0.497,1.775,0.228,3.238l-2.41,12.978
			c-0.358,1.944-1.475,2.235-2.108,2.235c-0.812,0-1.432-0.472-2.049-1l-1.275-1.09c-0.022,0.241-0.034,0.485-0.034,0.731
			c0,4.444,3.614,8.059,8.059,8.059c2.117,0,4.373-1.093,6.031-2.923c1.426-1.574,2.188-3.435,2.034-4.981
			c-0.42-4.265-0.608-4.716-2.549-6.049c-1.432-0.988-1.685-2.614-0.648-4.145l1.509-2.241c0.546-0.812,1.33-1.256,2.204-1.256
			c0.633,0,1.265,0.244,1.824,0.71c3.694,3.074,6.111,5.627,6.111,12.827C49.493,36.801,42.126,45.834,32.978,45.834z"/>
		<path style="fill-rule:evenodd;clip-rule:evenodd;fill:#FFFFFF;" d="M42.376,17.708c-0.625-0.52-1.256-0.461-1.709,0.211
			l-1.514,2.244c-0.477,0.709-0.552,1.415,0.236,1.957c2.551,1.753,2.803,2.874,3.228,7.199c0.426,4.324-4.315,9.639-9.639,9.639
			c-5.324,0-9.64-4.315-9.64-9.639c0-1.271,0.247-2.486,0.695-3.597l3.222,2.753c0.934,0.796,1.341,0.963,1.579-0.319l2.406-12.978
			c0.454-2.46,0.363-2.349-2.002-1.511l-12.267,4.346c-1.051,0.37-1.213,0.642-0.244,1.469l3.137,2.681
			c-1.162,2.125-1.823,4.563-1.823,7.157c0,8.249,6.687,14.935,14.937,14.935c8.25,0,14.935-8.233,14.935-14.935
			S45.68,20.457,42.376,17.708z"/>
	</g>
</g>
</svg>
