<?xml version="1.0" encoding="utf-8"?>
<!-- Generator: Adobe Illustrator 21.0.0, SVG Export Plug-In . SVG Version: 6.00 Build 0)  -->
<svg version="1.1" id="Capa_1" xmlns="http://www.w3.org/2000/svg" xmlns:xlink="http://www.w3.org/1999/xlink" x="0px" y="0px"
	 viewBox="0 0 64 64" style="enable-background:new 0 0 64 64;" xml:space="preserve">
<g>
	<g>
		<path style="opacity:0.2;fill-rule:evenodd;clip-rule:evenodd;" d="M6.873,9.013c-9.142,8.639-9.17,39.916-0.044,48.571
			c9.024,8.556,41.319,8.556,50.342,0c9.126-8.655,9.099-39.932-0.044-48.571C47.9,0.29,16.101,0.29,6.873,9.013z"/>
		<path style="fill-rule:evenodd;clip-rule:evenodd;fill:#FFFFFF;" d="M6.873,6.542c-9.142,8.639-9.17,39.916-0.044,48.571
			c9.024,8.556,41.319,8.556,50.342,0c9.126-8.655,9.099-39.932-0.044-48.571C47.9-2.181,16.101-2.181,6.873,6.542z"/>
		<path style="fill-rule:evenodd;clip-rule:evenodd;fill:#0DA401;" d="M9.233,7.287c-8.283,7.827-8.307,36.164-0.039,44.006
			c8.177,7.752,37.435,7.752,45.611,0c8.268-7.841,8.244-36.178-0.039-44.006C46.406-0.616,17.594-0.616,9.233,7.287z"/>
		<path style="fill-rule:evenodd;clip-rule:evenodd;fill:#076600;" d="M54.805,45.367c-8.176,7.753-37.434,7.753-45.611,0
			c-3.673-3.483-5.711-11.013-6.114-18.993c-0.5,9.949,1.535,20.576,6.114,24.919c8.177,7.752,37.435,7.752,45.611,0
			c4.579-4.343,6.614-14.969,6.114-24.919C60.516,34.354,58.481,41.884,54.805,45.367z"/>
		<path style="fill-rule:evenodd;clip-rule:evenodd;fill:#0A8300;" d="M6.585,41.749c0.752,1.452,1.621,2.68,2.609,3.617
			c8.177,7.753,37.435,7.753,45.611,0c3.155-2.992,5.103-8.968,5.846-15.65C45.307,40.421,27.25,44.342,6.585,41.749z"/>
		<path style="fill-rule:evenodd;clip-rule:evenodd;fill:#41BA2F;" d="M9.233,7.287c-2.483,2.346-4.223,6.534-5.222,11.46
			c14.335-14.15,43.075-16.411,55.244-3.016c-1.035-3.6-2.531-6.594-4.489-8.445C46.406-0.616,17.594-0.616,9.233,7.287z"/>
		<path style="fill-rule:evenodd;clip-rule:evenodd;fill:#CDF7AF;" d="M15.762,5.395c-3.518,0.948-6.369,3.253-6.369,5.149
			c0,1.896,2.851,2.663,6.369,1.716c3.517-0.948,6.369-3.252,6.369-5.148C22.131,5.216,19.279,4.447,15.762,5.395z"/>
		<path style="fill-rule:evenodd;clip-rule:evenodd;fill:#CDF7AF;" d="M26.319,2.832c-1.982,0.119-3.776,1.029-4.007,2.036
			c-0.231,1.006,1.189,1.727,3.173,1.609c1.982-0.117,3.776-1.029,4.007-2.035C29.721,3.435,28.301,2.715,26.319,2.832z"/>
		<path style="fill-rule:evenodd;clip-rule:evenodd;fill:#78D261;" d="M50.599,41.112c-2.221,1.025-3.833,2.877-3.596,4.138
			c0.234,1.261,2.226,1.452,4.447,0.428c2.223-1.023,3.833-2.877,3.599-4.138C54.814,40.279,52.822,40.087,50.599,41.112z"/>
		<path style="fill-rule:evenodd;clip-rule:evenodd;fill:#78D261;" d="M60.651,29.717c-0.743,6.682-2.691,12.657-5.846,15.65
			c-8.176,7.753-37.434,7.753-45.611,0c-0.988-0.937-1.857-2.165-2.609-3.617c-2.042-3.948-3.21-9.54-3.504-15.376
			c-0.059,1.161-0.081,2.33-0.072,3.5c0.008-0.807,0.031-1.613,0.072-2.414c0.403,7.98,2.44,15.51,6.114,18.994
			c8.177,7.752,37.435,7.752,45.611,0c3.675-3.485,5.711-11.014,6.114-18.994c0.041,0.802,0.064,1.61,0.072,2.417
			c0.01-1.17-0.013-2.341-0.072-3.503C60.863,27.501,60.773,28.618,60.651,29.717z"/>
		<path style="fill-rule:evenodd;clip-rule:evenodd;fill:#E6E6E6;" d="M6.829,53.779c-4.452-4.222-6.726-13.83-6.826-23.565
			C-0.1,40.395,2.174,50.697,6.829,55.112c9.025,8.556,41.317,8.556,50.342,0c4.655-4.415,6.929-14.718,6.825-24.899
			c-0.099,9.735-2.373,19.343-6.825,23.565C48.147,62.335,15.853,62.335,6.829,53.779z"/>
	</g>
	<path style="fill-rule:evenodd;clip-rule:evenodd;fill:#076600;" d="M23.159,43.354c-0.935,0-3.114-0.398-3.148-4.068V15.822
		c-0.003-1.194,0.309-2.117,0.926-2.738c0.358-0.358,0.994-0.787,1.991-0.787c0.559,0,1.161,0.133,1.843,0.407l21.843,12.593
		c1.096,0.901,1.528,1.735,1.528,2.642c0,0.929-0.46,1.793-1.367,2.571l-21,12.155C24.912,43.036,24.029,43.354,23.159,43.354
		L23.159,43.354z"/>
	<path style="fill-rule:evenodd;clip-rule:evenodd;fill:#FFFFFF;" d="M24.178,14.17c-1.656-0.67-2.593-0.229-2.586,1.651v23.45
		c0.028,2.992,1.583,2.77,3.39,2.028l20.763-11.988c0.992-0.849,1.148-1.725,0.079-2.645L24.178,14.17z"/>
</g>
</svg>
