<?xml version="1.0" encoding="utf-8"?>
<!-- Generator: Adobe Illustrator 22.0.1, SVG Export Plug-In . SVG Version: 6.00 Build 0)  -->
<svg version="1.1" xmlns="http://www.w3.org/2000/svg" xmlns:xlink="http://www.w3.org/1999/xlink" x="0px" y="0px"
	 viewBox="0 0 140.788 251.934" style="enable-background:new 0 0 140.788 251.934;" xml:space="preserve">
<g id="Cuerpo-Cabeza">
	<g>
		<g>
			<defs>
				<filter id="Adobe_OpacityMaskFilter" filterUnits="userSpaceOnUse" x="28.008" y="232.609" width="96.81" height="19.325">
					<feFlood  style="flood-color:white;flood-opacity:1" result="back"/>
					<feBlend  in="SourceGraphic" in2="back" mode="normal"/>
				</filter>
			</defs>
			<mask maskUnits="userSpaceOnUse" x="28.008" y="232.609" width="96.81" height="19.325" id="XMLID_2_">
				<g id="XMLID_61_" style="filter:url(#Adobe_OpacityMaskFilter);">
				</g>
			</mask>
			<path id="XMLID_56_" style="opacity:0.2;mask:url(#XMLID_2_);" d="M124.819,241.799c0.051,5.328-21.574,9.862-48.31,10.123
				c-26.734,0.263-48.449-3.848-48.5-9.177c-0.053-5.329,21.578-9.863,48.311-10.125
				C103.055,232.358,124.767,236.467,124.819,241.799z"/>
			<g id="XMLID_887_">
				<g id="XMLID_920_">
					<g id="XMLID_925_">
						<rect id="XMLID_930_" x="81.694" y="213.732" style="fill:#0071BC;" width="12.911" height="29.754"/>
						<defs>
							
								<filter id="Adobe_OpacityMaskFilter_1_" filterUnits="userSpaceOnUse" x="81.694" y="213.732" width="12.911" height="29.754">
								<feFlood  style="flood-color:white;flood-opacity:1" result="back"/>
								<feBlend  in="SourceGraphic" in2="back" mode="normal"/>
							</filter>
						</defs>
						<mask maskUnits="userSpaceOnUse" x="81.694" y="213.732" width="12.911" height="29.754" id="XMLID_3_">
							<g id="XMLID_65_" style="filter:url(#Adobe_OpacityMaskFilter_1_);">
								<defs>
									
										<filter id="Adobe_OpacityMaskFilter_2_" filterUnits="userSpaceOnUse" x="81.694" y="213.732" width="12.911" height="29.754">
										<feFlood  style="flood-color:white;flood-opacity:1" result="back"/>
										<feBlend  in="SourceGraphic" in2="back" mode="normal"/>
									</filter>
								</defs>
								<mask maskUnits="userSpaceOnUse" x="81.694" y="213.732" width="12.911" height="29.754" id="XMLID_3_">
									<g id="XMLID_85_" style="filter:url(#Adobe_OpacityMaskFilter_2_);">
									</g>
								</mask>
								
									<linearGradient id="XMLID_4_" gradientUnits="userSpaceOnUse" x1="533.8052" y1="243.4859" x2="533.8052" y2="213.7319" gradientTransform="matrix(-1 0 0 1 621.9553 0)">
									<stop  offset="0" style="stop-color:#999999"/>
									<stop  offset="0.0802" style="stop-color:#707070"/>
									<stop  offset="0.1729" style="stop-color:#484848"/>
									<stop  offset="0.2643" style="stop-color:#292929"/>
									<stop  offset="0.3525" style="stop-color:#121212"/>
									<stop  offset="0.4362" style="stop-color:#050505"/>
									<stop  offset="0.5108" style="stop-color:#000000"/>
									<stop  offset="0.5565" style="stop-color:#060606"/>
									<stop  offset="0.6176" style="stop-color:#171717"/>
									<stop  offset="0.6875" style="stop-color:#333333"/>
									<stop  offset="0.7638" style="stop-color:#5A5A5A"/>
									<stop  offset="0.8454" style="stop-color:#8C8C8C"/>
									<stop  offset="0.93" style="stop-color:#C8C8C8"/>
									<stop  offset="1" style="stop-color:#FFFFFF"/>
								</linearGradient>
								
									<rect id="XMLID_66_" x="81.694" y="213.732" style="mask:url(#XMLID_3_);fill:url(#XMLID_4_);" width="12.911" height="29.754"/>
							</g>
						</mask>
						<rect id="XMLID_926_" x="81.694" y="213.732" style="opacity:0.5;fill:#0071BC;" width="12.911" height="29.754"/>
					</g>
					<rect id="XMLID_924_" x="56.985" y="213.732" style="fill:#0071BC;" width="12.911" height="29.754"/>
					<path id="XMLID_923_" style="fill:#0071BC;" d="M49.657,206.962c3.053,13.84,11.786,13.134,24.612,13.134h2.272
						c1.184,0,2.344,0.006,3.457,0.006c10.932,0,18.378-0.583,21.154-13.14H49.657z"/>
					<path id="XMLID_922_" style="fill:#4C2B18;" d="M80.736,240.568c0.378-0.494,0.873-1.02,1.519-1.421
						c0.629-0.429,1.361-0.806,2.158-1.135c0.797-0.33,1.658-0.631,2.572-0.839c1.821-0.448,3.806-0.716,5.796-0.803
						c0.997-0.035,2.024,0.024,2.969,0.081c0.955,0.006,1.944,0.224,2.877,0.357c0.47,0.069,0.914,0.242,1.352,0.371
						c0.438,0.129,0.861,0.275,1.245,0.508c0.807,0.356,1.469,0.905,2.01,1.456c0.226,0.322,0.448,0.625,0.634,0.924
						c0.11,0.337,0.214,0.655,0.312,0.955c0.079,0.612,0.139,1.156,0.072,1.588c-0.047,0.439-0.198,0.769-0.305,0.971
						c-0.13,0.192-0.199,0.294-0.199,0.294s0.014-0.031,0.031-0.064c-0.021,0.033-0.045,0.064-0.068,0.096
						c0.018-0.015,0.037-0.031,0.037-0.031s-0.05,0.062-0.128,0.16c-0.008,0.01-0.015,0.02-0.024,0.03
						c-0.007,0.009-0.01,0.012-0.017,0.022c-0.116,0.135-0.243,0.365-0.554,0.527c-0.278,0.22-0.658,0.378-1.1,0.541
						c-0.441,0.163-0.958,0.278-1.523,0.378c-1.129,0.166-2.452,0.322-3.864,0.356c-1.409,0.026-2.914,0.054-4.417,0.082
						c-1.506-0.029-3.012-0.076-4.427-0.168c-1.415-0.089-2.733-0.308-3.851-0.563c-1.119-0.255-2.014-0.672-2.553-1.08
						c-0.541-0.42-0.681-0.797-0.697-0.779c0,0,0.024,0.023,0.062,0.061c-0.024-0.033-0.054-0.063-0.076-0.097
						c0.004,0.01,0.014,0.036,0.014,0.036s-0.017-0.029-0.039-0.068c-0.012-0.019-0.022-0.039-0.033-0.058
						c-0.028-0.049-0.058-0.102-0.103-0.182c-0.066-0.098-0.129-0.223-0.152-0.397c-0.031-0.157-0.105-0.39-0.066-0.598
						C80.175,241.661,80.407,241.087,80.736,240.568z"/>
					<path id="XMLID_921_" style="fill:#4C2B18;" d="M47.372,241.022c0.098-0.3,0.202-0.62,0.312-0.957
						c0.186-0.297,0.41-0.601,0.634-0.923c0.542-0.552,1.203-1.102,2.01-1.458c0.385-0.233,0.807-0.378,1.247-0.507
						c0.438-0.13,0.882-0.303,1.351-0.371c0.934-0.133,1.923-0.352,2.878-0.357c0.945-0.057,1.972-0.116,2.969-0.081
						c1.991,0.086,3.976,0.355,5.796,0.803c0.914,0.208,1.775,0.51,2.574,0.839c0.797,0.331,1.529,0.706,2.158,1.137
						c0.646,0.4,1.141,0.927,1.519,1.419c0.329,0.519,0.561,1.093,0.536,1.512c0.04,0.208-0.035,0.439-0.066,0.596
						c-0.024,0.176-0.087,0.3-0.152,0.397c-0.044,0.076-0.072,0.126-0.1,0.174c-0.013,0.024-0.026,0.048-0.041,0.072
						c-0.018,0.032-0.035,0.061-0.035,0.061s0.009-0.024,0.012-0.032c-0.02,0.03-0.047,0.057-0.068,0.087
						c0.035-0.035,0.055-0.054,0.055-0.054c-0.016-0.018-0.158,0.359-0.697,0.779c-0.539,0.407-1.436,0.825-2.553,1.08
						c-1.118,0.255-2.436,0.473-3.851,0.563c-1.416,0.092-2.922,0.139-4.427,0.168c-1.504-0.028-3.009-0.056-4.418-0.082
						c-1.412-0.034-2.735-0.19-3.864-0.356c-0.564-0.1-1.081-0.215-1.523-0.378c-0.442-0.163-0.822-0.321-1.1-0.541
						c-0.311-0.163-0.438-0.393-0.554-0.527c-0.008-0.01-0.011-0.013-0.018-0.022c-0.008-0.009-0.014-0.018-0.022-0.027
						c-0.08-0.099-0.13-0.161-0.13-0.161s0.02,0.017,0.038,0.032c-0.023-0.032-0.047-0.064-0.069-0.097
						c0.016,0.035,0.031,0.065,0.031,0.065s-0.069-0.102-0.199-0.296c-0.107-0.201-0.258-0.53-0.305-0.97
						C47.233,242.178,47.293,241.634,47.372,241.022z"/>
				</g>
				<g id="XMLID_904_">
					<path id="XMLID_914_" style="fill:#CCCCCC;" d="M96.441,165.471c0,0,35.486,15.735,17.563,42.369l-5.53-8.994
						c0,0,7.702-15.366-10.084-25.956L96.441,165.471z"/>
					<polygon id="XMLID_913_" style="fill:#FFFFFF;" points="106.773,200.43 108.475,198.846 114.005,207.84 112.588,209.301 					
						"/>
				</g>
				<g id="XMLID_897_">
					<g id="XMLID_901_">
						<path id="XMLID_903_" style="fill:#F7941E;" d="M48.444,191.226c0,6.554,0.412,11.698,1.213,15.735h51.495
							c0.8-4.037,1.213-9.182,1.213-15.735c0-14.599-1.31-24.894-8.174-27.521c-4.29-1.647-5.046-0.755-17.65-0.755h-2.272
							c-1.844,0-3.548-0.007-5.13-0.007c-8.744,0-9.435-0.809-12.886,0.606C48.848,166.583,48.444,175.882,48.444,191.226z"/>
						<path id="XMLID_902_" style="fill:#FFFFFF;" d="M48.451,190.362c0.021,2.344,0.097,4.5,0.227,6.48h53.449
							c0.136-1.98,0.211-4.137,0.231-6.48h-7.056c1.251-17.446-2.227-28.074-2.669-29.342c-0.016-0.054-0.032-0.092-0.038-0.113
							l-0.155,0.059l-2.89,1.052l-3.045,1.107c0.038,0.108,3.586,10.245,2.294,27.237H61.875
							c-1.291-16.992,2.259-27.129,2.295-27.237l-6.086-2.218c-0.177,0.48-4.017,11.259-2.71,29.455H48.451z"/>
					</g>
					<g id="XMLID_898_">
						<polygon id="XMLID_900_" style="fill:#CCCCCC;" points="76.254,169.212 67.752,177.366 52.091,164.774 						"/>
						<polygon id="XMLID_899_" style="fill:#CCCCCC;" points="74.449,169.204 82.982,177.386 98.694,164.753 						"/>
					</g>
				</g>
				<g id="XMLID_892_">
					<path id="XMLID_896_" style="fill:#4C2B18;" d="M48.848,201.796c0.198,1.915,0.467,3.63,0.809,5.165h51.495
						c0.341-1.535,0.611-3.25,0.807-5.165H48.848z"/>
					<path id="XMLID_893_" style="fill:#FFD825;" d="M68.723,204.316c0-1.982,1.611-3.593,3.593-3.593h6.176
						c1.98,0,3.592,1.611,3.592,3.722c0,1.98-1.611,3.592-3.592,3.592h-6.176C70.335,208.037,68.723,206.425,68.723,204.316z
						 M72.316,202.519c-0.99,0-1.797,0.807-1.797,1.926c0,0.99,0.807,1.796,1.797,1.796h6.176c0.99,0,1.796-0.806,1.796-1.925
						c0-0.99-0.806-1.797-1.796-1.797H72.316z"/>
				</g>
				<g id="XMLID_890_">
					
						<path id="XMLID_891_" style="fill:#EFC392;stroke:#994900;stroke-linecap:round;stroke-linejoin:round;stroke-miterlimit:10;" d="
						M92.882,208.45c0.066,0.46,0.453,1.052,1.137,1.034c0.905-0.018,3.324-0.214,5.282-0.806c0,0-2.735,1.181-4.755,1.644
						c-0.592,0.132-1.559,0.378-1.559,1.269c0,0-0.249,1.598,1.412,1.412c0,0,0.791-0.006,1.504-0.221
						c1.784-0.535,5.268-1.976,5.833-2.253c0,0-3.713,1.913-5.013,2.369c-1.296,0.454-1.351,0.782-1.257,1.548
						c0.103,0.765,0.378,1.311,1.374,1.153c0.867-0.149,1.31-0.431,1.31-0.431l5.678-2.859l-3.067,1.775
						c0,0-0.999,0.356-0.882,1.166c0.129,0.804,0.753,1.187,1.515,1.175c0.681-0.015,1.194-0.126,1.822-0.614
						c0.636-0.491,3.456-2.027,3.456-2.027s0.672-0.617,1.355-1.239c0.7-0.643,3.839-3.07,3.442-5.616c0,0,0.038-1.624-1.523-2.87
						l-0.237-0.858c0,0-0.475-2.13-3.24-1.983c0,0-1.246,0.064-1.956,0.129c-0.637,0.065-1.635,0.135-2.899,0.24l0.108,2.572
						c0.24-0.116,0.437-0.19,0.482-0.19c0.186-0.009,0.423,0.434,0.037,0.743c0,0-1.099,0.789-2.479,1.211
						c-0.398,0.122-3.716,0.686-5.716,0.97C92.673,207.087,92.817,208.028,92.882,208.45z"/>
				</g>
				<g id="XMLID_888_">
					<polygon id="XMLID_889_" style="fill:#FFFFFF;" points="106.773,200.43 108.475,198.846 114.005,207.84 112.588,209.301 					
						"/>
				</g>
				<g id="XMLID_129_">
					<g id="XMLID_934_">
						<g id="XMLID_935_">
							
								<path id="XMLID_942_" style="fill:#EFC392;stroke:#994900;stroke-linecap:round;stroke-linejoin:round;stroke-miterlimit:10;" d="
								M68.237,183.025c-0.221-2.121,0.516-3.307-3.265-10.52c-2.186-4.181,1.982-3.744,1.982-3.744s4.222,0.152,4.162,4.919
								c0,0-0.185,2.496,1.084,0.888c1.267-1.611,6.031-7.295,8.255-5.274c0,0,1.702,0.861,0.713,2.244c0,0-1.276,1.562-0.835,1.535
								c1.406-0.076,2.468,1.245,2.054,2.399c0,0-0.129,0.436,0.394,0.434c0.514,0.003,2.334,0.428,1.806,2.631
								c0,0-0.102,0.363,0.331,0.349c0.425-0.015,2.739,0.064,1.799,2.625c0,0-0.958,1.819-3.662,4.274c0,0-3.589,3.018-5.449,3.495
								c-2.921,0.741-4.339-0.621-5.074-1.811c-0.275-0.445-0.601-0.671-1.386-0.803C69.847,186.461,68.391,184.507,68.237,183.025z
								"/>
							
								<path id="XMLID_939_" style="fill:#994900;stroke:#994900;stroke-linecap:round;stroke-linejoin:round;stroke-miterlimit:10;" d="
								M75.48,172.476c0,0,1.607,0.34,1.825,1.714C77.305,174.19,76.649,172.907,75.48,172.476z"/>
							
								<path id="XMLID_938_" style="fill:#994900;stroke:#994900;stroke-linecap:round;stroke-linejoin:round;stroke-miterlimit:10;" d="
								M78.26,175.163c0,0,1.597,0.387,1.775,1.77C80.036,176.932,79.42,175.628,78.26,175.163z"/>
							
								<path id="XMLID_937_" style="fill:#994900;stroke:#994900;stroke-linecap:round;stroke-linejoin:round;stroke-miterlimit:10;" d="
								M80.689,178.031c0,0,1.56,0.516,1.628,1.907C82.316,179.938,81.808,178.59,80.689,178.031z"/>
							
								<path id="XMLID_936_" style="fill:#994900;stroke:#994900;stroke-linecap:round;stroke-linejoin:round;stroke-miterlimit:10;" d="
								M83.513,181.101c0,0,1.313,0.264,1.503,1.383C85.016,182.484,84.474,181.444,83.513,181.101z"/>
						</g>
					</g>
					<path id="XMLID_933_" style="fill:#CCCCCC;" d="M74.368,191.673l-8.188-8.188c-10.547,8.218-17.821,4.52-17.988,0.545
						c-0.117-2.798,0.521-4.957,1.364-6.56c0.271-1.201,0.294-6.779,3.379-12.009c0,0-11.451,5.687-12.943,18.785
						C39.343,189.915,45.024,207.863,74.368,191.673z"/>
					<polygon id="XMLID_932_" style="fill:#FFFFFF;" points="74.215,191.773 76.004,189.921 67.814,181.733 66.03,183.584 					"/>
				</g>
			</g>
		</g>
		<g id="XMLID_401_">
			
				<path id="XMLID_886_" style="fill:#EFC392;stroke:#994900;stroke-linecap:round;stroke-linejoin:round;stroke-miterlimit:10;" d="
				M127.475,120.364c-0.182,0.259-0.369,0.516-0.565,0.772c-0.196,0.259-0.4,0.516-0.615,0.773
				c-0.211,0.255-0.435,0.514-0.665,0.771c-0.231,0.256-0.472,0.513-0.721,0.769s-0.51,0.513-0.776,0.768
				c-0.27,0.256-0.545,0.508-0.832,0.763c-0.139-1.231-0.278-2.461-0.416-3.69c-0.141-1.229-0.278-2.459-0.416-3.69
				c-0.139-1.227-0.278-2.457-0.416-3.686c-0.141-1.23-0.278-2.459-0.416-3.69c-0.139-1.229-0.278-2.459-0.416-3.688
				c-0.141-1.23-0.278-2.46-0.416-3.69c0,0,0.078-0.167,0.226-0.428c0.147-0.264,0.365-0.621,0.643-1.005
				c0.28-0.381,0.618-0.785,1.009-1.141c0.393-0.357,0.838-0.664,1.327-0.851c0.486-0.185,1.019-0.249,1.588-0.12
				c0.567,0.13,1.172,0.451,1.802,1.039c0.469,0.441,0.957,1.044,1.409,1.79c0.457,0.745,0.88,1.627,1.225,2.625
				c0.346,0.994,0.614,2.105,0.757,3.299c0.145,1.194,0.163,2.473,0.013,3.81c-0.154,1.336-0.475,2.733-1.015,4.157
				C129.25,117.448,128.494,118.904,127.475,120.364z"/>
			
				<path id="XMLID_885_" style="fill:#EFC392;stroke:#994900;stroke-linecap:round;stroke-linejoin:round;stroke-miterlimit:10;" d="
				M22.93,132.493c0.233,0.211,0.473,0.419,0.722,0.628c0.246,0.205,0.504,0.412,0.77,0.614c0.267,0.204,0.541,0.404,0.82,0.605
				c0.284,0.198,0.574,0.396,0.876,0.589c0.299,0.193,0.608,0.385,0.927,0.574c0.316,0.19,0.643,0.375,0.98,0.559
				c-0.138-1.23-0.278-2.459-0.416-3.69c-0.138-1.229-0.277-2.46-0.416-3.69c-0.138-1.229-0.278-2.458-0.416-3.685
				c-0.138-1.23-0.277-2.461-0.416-3.691c-0.138-1.229-0.275-2.458-0.416-3.687c-0.138-1.229-0.275-2.459-0.416-3.688
				c0,0-0.114-0.147-0.315-0.369c-0.204-0.224-0.494-0.525-0.851-0.837c-0.355-0.309-0.776-0.627-1.239-0.888
				c-0.46-0.261-0.964-0.46-1.479-0.533c-0.519-0.07-1.052-0.015-1.578,0.237c-0.524,0.252-1.04,0.7-1.525,1.414
				c-0.36,0.532-0.7,1.232-0.978,2.06c-0.277,0.826-0.492,1.783-0.606,2.83c-0.116,1.047-0.129,2.19-0.003,3.385
				c0.126,1.195,0.393,2.446,0.836,3.718c0.447,1.269,1.071,2.558,1.915,3.828C20.548,130.044,21.61,131.296,22.93,132.493z"/>
			
				<path id="XMLID_884_" style="fill:#EFC392;stroke:#994900;stroke-linecap:round;stroke-linejoin:round;stroke-miterlimit:10;" d="
				M42.814,159.104c-3.883-3.328-7.26-7.32-10.118-11.852c-2.826-4.482-5.142-9.492-6.935-14.903
				c-1.755-5.291-3.006-10.972-3.741-16.915c-0.746-5.96-0.829-12.004-0.155-17.977c0.659-5.805,2.004-11.348,3.964-16.493
				c1.96-5.146,4.535-9.894,7.655-14.106c2.635-3.559,5.657-6.736,9.026-9.446c3.393-2.733,7.137-4.992,11.184-6.693
				c4.135-1.737,8.503-2.834,12.958-3.336c4.547-0.497,8.984-0.327,13.252,0.44c4.267,0.768,8.366,2.131,12.234,4.02
				c3.867,1.89,7.506,4.306,10.854,7.177c3.978,3.411,7.548,7.466,10.604,12.045c3.057,4.581,5.603,9.685,7.54,15.196
				c1.986,5.672,3.252,11.581,3.853,17.559c0.606,5.96,0.65,11.773,0.119,17.325c-0.541,5.672-1.683,11.073-3.441,16.072
				c-1.778,5.054-4.179,9.697-7.225,13.807c-2.528,3.416-5.502,6.46-8.927,9.059c-3.426,2.602-7.302,4.758-11.637,6.396
				c-4.589,1.734-9.425,2.783-14.303,3.278c-4.909,0.499-9.527,0.396-13.847-0.252c-4.449-0.664-8.581-1.903-12.391-3.648
				C49.498,164.097,45.985,161.821,42.814,159.104z"/>
			<path id="XMLID_646_" style="fill:#482E1D;" d="M137.077,92.972l-0.239-2.408l-0.416-4.209c-0.173-1.401-0.206-2.826-0.498-4.214
				l-0.787-4.184c-0.144-0.696-0.243-1.403-0.456-2.084l-0.565-2.063l-0.57-2.066c-0.17-0.695-0.418-1.368-0.662-2.043l-0.724-2.03
				c-0.249-0.675-0.463-1.362-0.773-2.019c-0.609-1.318-1.099-2.674-1.816-3.968c-0.036-0.067-0.069-0.133-0.104-0.2l3.251-0.863
				l1.119-0.609l0.249-3.188l-0.101-2.533c-0.3-0.693-0.532-1.414-0.917-2.073l-1.072-2.016c-0.331-0.688-0.797-1.301-1.213-1.944
				c-0.44-0.626-0.823-1.297-1.318-1.886l-1.468-1.783c-0.477-0.607-1.066-1.113-1.598-1.673c-0.538-0.556-1.093-1.093-1.698-1.573
				c-0.601-0.485-1.166-1.02-1.8-1.46l-1.896-1.336l-1.988-1.189c-0.675-0.371-1.375-0.697-2.064-1.044
				c-0.437-0.202-0.884-0.381-1.329-0.567l0.825-0.695l4.562-3.845l-5.218-2.768l-2.017-1.07c-0.668-0.376-1.361-0.661-2.052-0.956
				c-0.693-0.281-1.377-0.623-2.082-0.848l-2.108-0.725c-0.705-0.236-1.415-0.404-2.124-0.607c-0.709-0.206-1.419-0.384-2.133-0.525
				c-1.425-0.333-2.854-0.585-4.286-0.792c-0.716-0.111-1.431-0.171-2.147-0.259c-0.716-0.091-1.431-0.145-2.148-0.196
				c-1.431-0.121-2.859-0.171-4.289-0.205c-1.205-0.021-2.409-0.002-3.615,0.033l0.101-3.342l0.148-4.937l-4.74,0.404
				c-1.597,0.135-3.217,0.15-4.794,0.404l-2.375,0.327l-2.342,0.462c-0.785,0.144-1.557,0.322-2.32,0.534
				c-0.766,0.203-1.538,0.389-2.297,0.609l-2.254,0.727c-0.757,0.228-1.481,0.533-2.221,0.801c-0.738,0.272-1.475,0.55-2.191,0.867
				c-0.719,0.313-1.452,0.599-2.159,0.935c-1.425,0.651-2.827,1.348-4.211,2.08c-0.966,0.523-1.919,1.07-2.865,1.631l-0.955-3.176
				l-1.752-5.831l-4.748,3.37l-4.181,2.968l-2.084,1.488c-0.678,0.515-1.298,1.099-1.948,1.645l-3.851,3.335
				c-1.211,1.183-2.395,2.392-3.589,3.587c-0.585,0.612-1.22,1.173-1.758,1.825l-1.67,1.904c-1.122,1.26-2.226,2.534-3.243,3.883
				c-1.05,1.319-2.084,2.652-3.047,4.052c-0.189,0.269-0.38,0.535-0.57,0.802l-3.92-2.938l-1.674,4.364
				c-0.555,1.449-1.22,2.865-1.657,4.34l-0.708,2.196l-0.587,2.215c-0.211,0.736-0.351,1.482-0.51,2.225
				c-0.145,0.744-0.337,1.482-0.442,2.23c-0.255,1.491-0.485,2.982-0.642,4.477c-0.182,1.493-0.291,2.989-0.379,4.483
				c-0.088,1.494-0.122,2.988-0.133,4.48c0.003,1.493,0.056,2.984,0.147,4.476c0.026,0.419,0.064,0.838,0.096,1.258l-2.443-0.126
				l-3.568-0.184l0.788,3.24l0.801,3.299c0.284,1.095,0.5,2.204,0.839,3.285l0.958,3.251c0.306,1.086,0.68,2.153,1.068,3.215
				l1.135,3.187l1.273,3.134c0.415,1.047,0.855,2.082,1.34,3.1l1.419,3.061l1.545,2.997c0.507,1.001,1.106,1.957,1.654,2.935
				c0.545,0.979,1.14,1.931,1.742,2.877c0.586,0.955,1.192,1.895,1.835,2.813c1.232,1.866,2.597,3.645,3.999,5.38
				c1.416,1.723,2.881,3.409,4.506,4.928c0,0-5.033-27.242,8.411-35.991c5.432-3.533,15.075-0.403,35.341-2.69
				c22.708-2.56,31.512-6.926,37.143-3.435c5.344,3.315,12.198,8.415,13.471,31.472l1.748-3.138l0.863-1.573
				c0.278-0.53,0.598-1.036,0.841-1.586l1.553-3.265l0.765-1.646l0.667-1.683l0.666-1.687c0.215-0.566,0.466-1.119,0.64-1.701
				l1.138-3.467l0.475-1.774c0.15-0.595,0.337-1.178,0.441-1.791l0.358-1.826c0.003-0.026,0.007-0.049,0.011-0.074l2.893,0.554
				L137.077,92.972z"/>
			<g id="XMLID_628_">
				<path id="XMLID_642_" style="fill:#FFFFFF;" d="M138.083,72.587c0.217,1.901,0.369,3.795,0.466,5.676
					c-13.521-2.666-39.967-2.539-70.061,0.855c-29.08,3.28-54.152,8.773-67.172,14.2c-0.291-1.72-0.539-3.464-0.738-5.225
					C-4.376,44.168,23.084,11.229,61.053,6.947C99.029,2.664,133.129,28.662,138.083,72.587z"/>
				<path id="XMLID_632_" style="fill:#B3B3B3;" d="M70.962,94.842c-43.159,4.869-59.988,7.313-69.554,0.65
					c-5.909-4.116,25.126-13.267,68.287-18.135c43.163-4.866,75.457-2.859,70.611,2.47c-7.84,8.625-24.791,9.99-67.951,14.858
					L70.962,94.842z"/>
				<path id="XMLID_631_" style="fill:#808080;" d="M1.114,92.075c0,0,2.008-0.844,5.547-2.257c1.805-0.626,3.998-1.387,6.511-2.259
					c2.539-0.79,5.399-1.705,8.553-2.583c3.168-0.812,6.574-1.831,10.242-2.614c1.83-0.42,3.708-0.851,5.628-1.292
					c1.922-0.435,3.904-0.78,5.911-1.182c4.012-0.817,8.185-1.507,12.432-2.177c4.258-0.656,8.569-1.176,12.94-1.731
					c2.165-0.203,4.332-0.406,6.489-0.608c2.152-0.217,4.308-0.397,6.464-0.514c4.299-0.308,8.533-0.506,12.624-0.59
					c4.09-0.174,8.049-0.119,11.801-0.091c3.75-0.02,7.296,0.227,10.566,0.337c3.27,0.182,6.261,0.456,8.909,0.681
					c2.64,0.314,4.942,0.588,6.838,0.814c3.77,0.635,5.906,1.039,5.906,1.039s-2.181-0.147-5.963-0.469
					c-1.9-0.081-4.206-0.178-6.85-0.29c-2.646-0.026-5.63-0.054-8.886-0.085c-1.627,0.021-3.322,0.043-5.077,0.067
					c-1.754,0.012-3.566,0.021-5.429,0.104c-3.726,0.119-7.654,0.239-11.713,0.483c-2.027,0.119-4.096,0.19-6.177,0.352
					c-2.08,0.159-4.187,0.319-6.309,0.481c-4.241,0.251-8.584,0.823-12.908,1.218c-4.264,0.508-8.6,0.995-12.813,1.612
					c-4.216,0.653-8.386,1.175-12.385,1.912c-4.012,0.656-7.878,1.361-11.539,2.071c-1.837,0.326-3.611,0.697-5.325,1.07
					c-1.717,0.357-3.376,0.704-4.97,1.036c-3.173,0.732-6.081,1.403-8.659,1.998c-2.558,0.675-4.787,1.264-6.622,1.749
					C3.209,91.474,1.114,92.075,1.114,92.075z"/>
				<path id="XMLID_629_" style="fill:#E6E6E6;" d="M54.747,1.326c-5.363,0.605-8.301,5.268-6.535,10.369L59.91,60.173
					c1.767,5.094,13.493,3.772,14.08-1.589l0.642-49.869c0.586-5.366-3.319-9.258-8.681-8.654L54.747,1.326z"/>
			</g>
			<path id="XMLID_918_" style="fill:#C4884D;" d="M69.45,131.498c0.592-0.985,2.907,1.286,6.065,1.158
				c3.158-0.127,4.187-3.603,5.641-2.96c1.454,0.643-0.847,5.24-5.513,6.118C70.976,136.692,68.942,132.343,69.45,131.498z"/>
			<path id="XMLID_917_" style="fill:#C4884D;" d="M63.342,145.308c0.335-1.279,3.803,2.284,14.099,1.222
				c10.296-1.062,13.128-8.191,14.69-7.461c1.562,0.731-4.74,8.813-14.448,9.814C67.976,149.885,62.702,147.753,63.342,145.308z"/>
			<path id="XMLID_916_" style="fill:#C4884D;" d="M85.422,149.622c-1.748,0.584-3.199,1.411-5.069,1.713
				c-1.898,0.305-3.888-0.018-5.747,0.375c-0.513,0.11-0.525,0.752-0.029,0.897c3.113,0.911,9.209,0.485,11.224-2.465
				C85.988,149.869,85.75,149.513,85.422,149.622z"/>
		</g>
	</g>
</g>
<g id="Ojos-Posicion-1">
	<g id="XMLID_416_">
		<g id="XMLID_524_">
			<path id="XMLID_615_" style="fill:#FFFFFF;" d="M48.688,110.876c-12.582,4.85-9.988,23.287,4.086,21.706
				C66.848,131.001,63.328,105.232,48.688,110.876z"/>
			<path id="XMLID_580_" d="M60.626,118.084c0.339,3.83-1.843,7.152-4.875,7.421c-3.032,0.269-5.765-2.618-6.104-6.448
				c-0.339-3.83,1.843-7.152,4.875-7.421C57.554,111.367,60.287,114.254,60.626,118.084z"/>
			<path id="XMLID_579_" style="fill:#FFFFFF;" d="M55.311,115.061c0.16,1.809-1.176,3.405-2.984,3.565
				c-1.809,0.16-3.405-1.176-3.565-2.984c-0.16-1.809,1.176-3.405,2.984-3.565C53.554,111.916,55.15,113.252,55.311,115.061z"/>
			<path id="XMLID_578_" style="fill:#FFFFFF;" d="M58.571,121.178c0.061,0.691-0.45,1.302-1.141,1.363
				c-0.691,0.061-1.302-0.45-1.363-1.141c-0.061-0.691,0.45-1.302,1.141-1.363C57.899,119.976,58.509,120.487,58.571,121.178z"/>
		</g>
		<g id="XMLID_462_">
			<path id="XMLID_518_" style="fill:#FFFFFF;" d="M95.743,105.542c13.239,2.562,13.927,21.168-0.206,22.086
				C81.404,128.546,80.337,102.56,95.743,105.542z"/>
			
				<ellipse id="XMLID_466_" transform="matrix(0.9961 -0.0882 0.0882 0.9961 -9.6801 9.101)" cx="98.088" cy="114.027" rx="5.511" ry="6.962"/>
			<path id="XMLID_465_" style="fill:#FFFFFF;" d="M98.263,110.518c0.16,1.809-1.176,3.405-2.984,3.565
				c-1.809,0.16-3.405-1.176-3.565-2.984c-0.16-1.809,1.176-3.405,2.984-3.565C96.506,107.373,98.102,108.709,98.263,110.518z"/>
			<path id="XMLID_463_" style="fill:#FFFFFF;" d="M101.522,116.635c0.061,0.691-0.45,1.302-1.141,1.363
				c-0.691,0.061-1.302-0.45-1.363-1.141c-0.061-0.691,0.45-1.302,1.141-1.363C100.851,115.433,101.461,115.944,101.522,116.635z"/>
		</g>
	</g>
</g>
<g id="Ojos-Posicion-2">
</g>
<g id="Cejas">
	<path id="XMLID_616_" style="fill:#482E1D;" d="M57.793,105.473c1.759-3.828-5.969-5.907-10.39-5.515
		c-4.421,0.392-9.575,9.264-8.419,11.142c1.156,1.878,3.907-5.889,9.311-6.368C53.698,104.254,56.133,109.086,57.793,105.473z"/>
	<path id="XMLID_521_" style="fill:#482E1D;" d="M85.829,101.825c-2.405-3.459,4.837-6.864,9.258-7.256
		c4.421-0.392,11.055,7.437,10.247,9.488s-4.882-5.11-10.285-4.632C89.646,99.904,88.099,105.089,85.829,101.825z"/>
</g>
</svg>
