<?xml version="1.0" encoding="utf-8"?>
<!-- Generator: Adobe Illustrator 21.0.0, SVG Export Plug-In . SVG Version: 6.00 Build 0)  -->
<svg version="1.1" id="Capa_1" xmlns="http://www.w3.org/2000/svg" xmlns:xlink="http://www.w3.org/1999/xlink" x="0px" y="0px"
	 viewBox="0 0 95.58 57.676" style="enable-background:new 0 0 95.58 57.676;" xml:space="preserve">
<g>
	<path d="M64.834,26.564l-0.001-0.005c-0.018-0.004-0.036-0.005-0.056-0.008c-1.353-0.323-3.006-0.453-5-0.335
		c-3.712,0.033-7.398,0.583-10.251,0.981c0.562-4.732,3.568-15.523,5.248-21.998c0.258-0.988-0.849-4.56-4.065,0.414
		c-3.213,4.98,2.765-8.623-1.641-4.987c-4.402,3.633-1.087-4.318-5.866,2.46c-2.768,3.925-6.416,13.985-6.803,18.926
		c-2.401-3.57-10.491-11.864-13.1-16.928c-0.468-0.909-3.675-2.833-2.755,3.021c0.924,5.855-3.688-8.269-4.548-2.625
		c-0.861,5.645-3.693-2.49-2.733,5.745c0.914,7.866,11.457,19.72,17.994,23.896c-1.481,1.243-2.744,2.52-3.793,3.763
		c-10.185,2.784-21.406,2.056-26.028,4.603c-6.093,3.359,9.623,5.499,2.813,13.306c3.239,4.593,10.354-10.258,26.723-10.182
		c16.07,5.185,25.518,0.147,31.086-6.918c0.798-1.011,1.849-2.499,2.591-3.167l0-0.001C66.476,35.61,73.511,28.674,64.834,26.564z"
		/>
	<path style="fill:#FDEA2B;" d="M35.04,47.74c13.624,3.155,21.936-1.6,27.017-8.046c0.797-1.011,1.849-2.499,2.591-3.167l0-0.001
		c0.824-0.413,2.705-2.049,3.729-3.914c-2.018-1.88-6.146-4.445-10.444,0.485c-6.03,6.918-2.545,5.381-7.303,8.674
		C45.874,45.063,38.017,40.471,35.04,47.74z"/>
	<path style="fill:#999999;" d="M65.835,29.462c0,0-1.261,1.004-1.158,3.813c0.104,2.808-4.672,0.988-5.931-0.054
		c-1.259-1.042-0.703-3.528,2.93-4.393C65.31,27.964,67.112,28.061,65.835,29.462z"/>
	<g>
		
			<ellipse transform="matrix(0.1261 -0.992 0.992 0.1261 22.9685 89.0735)" style="fill:#FFFFFF;" cx="62.042" cy="31.5" rx="1.889" ry="1.889"/>
		
			<ellipse transform="matrix(0.1261 -0.992 0.992 0.1261 23.0863 89.3919)" style="fill:#29ABE2;" cx="62.282" cy="31.592" rx="1.639" ry="1.639"/>
		<ellipse transform="matrix(0.1261 -0.992 0.992 0.1261 23.3437 89.7716)" cx="62.626" cy="31.636" rx="1.292" ry="1.292"/>
	</g>
	<path style="fill:#C1272D;" d="M64.648,36.527c0,0-1.829,1.341-1.979,2.372c-0.144,0.993,23.238,3.368,25.13-0.935
		C87.799,37.964,81.336,35.472,64.648,36.527z"/>
	<path style="fill:#F7931E;" d="M67.087,27.385c0,0-3.915,3.189-2.438,9.141c0,0,27.763-0.552,30.284,4.618
		C94.933,41.145,102.336,29.799,67.087,27.385z"/>
	<path style="fill:#FCC083;" d="M66.875,28.772c24.96,1.709,28.533,7.895,28.492,11.363c0.847-2.833,0.538-10.776-28.281-12.749
		c0,0-2.449,1.998-2.741,5.78C65.021,30.283,66.875,28.772,66.875,28.772z"/>
</g>
</svg>
