<?xml version="1.0" encoding="utf-8"?>
<!-- Generator: Adobe Illustrator 21.0.0, SVG Export Plug-In . SVG Version: 6.00 Build 0)  -->
<svg version="1.1" id="Capa_1" xmlns="http://www.w3.org/2000/svg" xmlns:xlink="http://www.w3.org/1999/xlink" x="0px" y="0px"
	 viewBox="0 0 69.842 52.146" style="enable-background:new 0 0 69.842 52.146;" xml:space="preserve">
<g>
	<polygon style="opacity:0.3;" points="68.042,21.344 36.471,3.101 4.901,21.344 3.101,21.344 3.101,23.571 5.88,23.571 
		5.88,52.146 67.063,52.146 67.063,23.571 69.842,23.571 69.842,21.344 	"/>
	<g>
		<g>
			<g>
				<polygon style="fill:#ED1C24;" points="1.8,18.243 33.37,0 64.941,18.243 				"/>
				<g>
					<polygon style="fill:#028982;" points="64.941,18.243 1.8,18.243 33.37,0 					"/>
					<polygon style="fill:#53BBBC;" points="59.725,17.066 7.015,17.066 33.37,1.836 					"/>
					<polygon style="fill:#9F513A;" points="46.471,9.407 43.941,7.945 36.49,7.945 39.838,5.574 38.111,4.576 34.463,7.016 
						34.463,2.468 33.37,1.836 32.278,2.468 32.278,7.191 28.489,4.657 26.831,5.615 30.314,7.945 22.799,7.945 22.293,8.237 
						20.269,9.407 					"/>
				</g>
				<g>
					<g>
						<rect y="18.243" style="fill:#006059;" width="66.741" height="2.226"/>
					</g>
				</g>
				<g>
					<g>
						<g>
							<path style="fill-rule:evenodd;clip-rule:evenodd;fill:#009E9A;" d="M17.599,14.584h3.58c0.269,0,0.487-0.218,0.487-0.487
								v-0.747c0-0.269-0.218-0.487-0.487-0.487h-3.58c-0.269,0-0.487,0.218-0.487,0.487v0.747
								C17.112,14.365,17.33,14.584,17.599,14.584z"/>
							<path style="fill-rule:evenodd;clip-rule:evenodd;fill:#009E9A;" d="M14.087,17.066h3.58c0.269,0,0.487-0.218,0.487-0.487
								v-0.747c0-0.269-0.218-0.487-0.487-0.487h-3.58c-0.269,0-0.487,0.218-0.487,0.487v0.747
								C13.6,16.847,13.818,17.066,14.087,17.066z"/>
						</g>
						<g>
							<path style="fill-rule:evenodd;clip-rule:evenodd;fill:#009E9A;" d="M33.545,12.101h3.58c0.269,0,0.487-0.218,0.487-0.487
								v-0.747c0-0.269-0.218-0.487-0.487-0.487h-3.58c-0.269,0-0.487,0.218-0.487,0.487v0.747
								C33.058,11.883,33.276,12.101,33.545,12.101z"/>
							<path style="fill-rule:evenodd;clip-rule:evenodd;fill:#009E9A;" d="M30.033,14.584h3.58c0.269,0,0.487-0.218,0.487-0.487
								v-0.747c0-0.269-0.218-0.487-0.487-0.487h-3.58c-0.269,0-0.487,0.218-0.487,0.487v0.747
								C29.546,14.365,29.764,14.584,30.033,14.584z"/>
						</g>
						<g>
							<path style="fill-rule:evenodd;clip-rule:evenodd;fill:#009E9A;" d="M46.085,14.584h3.58c0.269,0,0.487-0.218,0.487-0.487
								v-0.747c0-0.269-0.218-0.487-0.487-0.487h-3.58c-0.269,0-0.487,0.218-0.487,0.487v0.747
								C45.598,14.365,45.816,14.584,46.085,14.584z"/>
							<path style="fill-rule:evenodd;clip-rule:evenodd;fill:#009E9A;" d="M42.573,17.066h3.58c0.269,0,0.487-0.218,0.487-0.487
								v-0.747c0-0.269-0.218-0.487-0.487-0.487h-3.58c-0.269,0-0.487,0.218-0.487,0.487v0.747
								C42.086,16.847,42.304,17.066,42.573,17.066z"/>
						</g>
					</g>
				</g>
			</g>
			<g>
				<rect x="2.779" y="20.469" style="fill:#FFE5CC;" width="61.182" height="28.575"/>
				<rect x="42.147" y="27.664" style="fill:#8C6239;" width="12.658" height="21.38"/>
				<rect x="43.636" y="29.153" style="fill:#42210B;" width="9.892" height="19.891"/>
				<g>
					<g>
						<path style="fill:#B27C52;" d="M15.244,25.054c0-0.159,0.129-0.288,0.288-0.288h2.827c0.159,0,0.288,0.129,0.288,0.288v0.913
							c0,0.159-0.129,0.288-0.288,0.288h-2.827c-0.159,0-0.288-0.129-0.288-0.288V25.054z M15.456,25.996
							c0,0.084,0.068,0.153,0.153,0.153h2.779c0.085,0,0.153-0.068,0.153-0.153v-0.864c0-0.084-0.068-0.153-0.153-0.153h-2.779
							c-0.085,0-0.153,0.068-0.153,0.153V25.996z"/>
					</g>
					<g>
						<path style="fill:#B27C52;" d="M13.754,26.65c0-0.159,0.129-0.288,0.288-0.288h2.827c0.159,0,0.288,0.129,0.288,0.288v0.913
							c0,0.159-0.129,0.288-0.288,0.288h-2.827c-0.159,0-0.288-0.129-0.288-0.288V26.65z M13.861,27.485
							c0,0.085,0.068,0.153,0.153,0.153h2.779c0.085,0,0.153-0.068,0.153-0.153v-0.864c0-0.085-0.068-0.153-0.153-0.153h-2.779
							c-0.084,0-0.153,0.068-0.153,0.153V27.485z"/>
					</g>
					<g>
						<path style="fill:#B27C52;" d="M11.627,25.054c0-0.159,0.129-0.288,0.288-0.288h2.828c0.159,0,0.288,0.129,0.288,0.288v0.913
							c0,0.159-0.129,0.288-0.288,0.288h-2.828c-0.159,0-0.288-0.129-0.288-0.288V25.054z M11.84,25.996
							c0,0.084,0.068,0.153,0.153,0.153h2.779c0.084,0,0.153-0.068,0.153-0.153v-0.864c0-0.084-0.068-0.153-0.153-0.153h-2.779
							c-0.084,0-0.153,0.068-0.153,0.153V25.996z"/>
					</g>
				</g>
				<g>
					<g>
						<path style="fill:#B27C52;" d="M9.787,45.131c0-0.159,0.129-0.288,0.288-0.288h2.827c0.159,0,0.288,0.129,0.288,0.288v0.913
							c0,0.159-0.129,0.288-0.288,0.288h-2.827c-0.159,0-0.288-0.129-0.288-0.288V45.131z M10,46.073
							c0,0.084,0.068,0.153,0.153,0.153h2.779c0.085,0,0.153-0.068,0.153-0.153v-0.864c0-0.084-0.068-0.153-0.153-0.153h-2.779
							c-0.084,0-0.153,0.068-0.153,0.153V46.073z"/>
					</g>
					<g>
						<path style="fill:#B27C52;" d="M8.298,46.727c0-0.159,0.129-0.288,0.288-0.288h2.827c0.159,0,0.288,0.129,0.288,0.288v0.913
							c0,0.159-0.129,0.288-0.288,0.288H8.586c-0.159,0-0.288-0.129-0.288-0.288V46.727z M8.404,47.562
							c0,0.084,0.068,0.153,0.153,0.153h2.779c0.085,0,0.153-0.068,0.153-0.153v-0.864c0-0.084-0.068-0.153-0.153-0.153H8.557
							c-0.084,0-0.153,0.068-0.153,0.153V47.562z"/>
					</g>
					<g>
						<path style="fill:#B27C52;" d="M6.17,45.131c0-0.159,0.129-0.288,0.288-0.288h2.828c0.159,0,0.288,0.129,0.288,0.288v0.913
							c0,0.159-0.129,0.288-0.288,0.288H6.459c-0.159,0-0.288-0.129-0.288-0.288V45.131z M6.383,46.073
							c0,0.084,0.068,0.153,0.153,0.153h2.779c0.084,0,0.153-0.068,0.153-0.153v-0.864c0-0.084-0.068-0.153-0.153-0.153H6.536
							c-0.084,0-0.153,0.068-0.153,0.153V46.073z"/>
					</g>
				</g>
				<g>
					<g>
						<path style="fill:#B27C52;" d="M48.279,22.58c0-0.159,0.129-0.288,0.288-0.288h2.827c0.159,0,0.288,0.129,0.288,0.288v0.913
							c0,0.159-0.129,0.288-0.288,0.288h-2.827c-0.159,0-0.288-0.129-0.288-0.288V22.58z M48.492,23.522
							c0,0.084,0.069,0.153,0.153,0.153h2.779c0.084,0,0.153-0.068,0.153-0.153v-0.864c0-0.084-0.069-0.153-0.153-0.153h-2.779
							c-0.084,0-0.153,0.068-0.153,0.153V23.522z"/>
					</g>
					<g>
						<path style="fill:#B27C52;" d="M46.684,24.176c0-0.159,0.129-0.288,0.288-0.288h2.827c0.159,0,0.288,0.129,0.288,0.288v0.913
							c0,0.159-0.129,0.288-0.288,0.288h-2.827c-0.159,0-0.288-0.129-0.288-0.288V24.176z M46.79,25.011
							c0,0.084,0.069,0.153,0.153,0.153h2.779c0.085,0,0.153-0.069,0.153-0.153v-0.864c0-0.084-0.069-0.153-0.153-0.153h-2.779
							c-0.085,0-0.153,0.069-0.153,0.153V25.011z"/>
					</g>
					<g>
						<path style="fill:#B27C52;" d="M44.663,22.58c0-0.159,0.129-0.288,0.288-0.288h2.828c0.159,0,0.288,0.129,0.288,0.288v0.913
							c0,0.159-0.129,0.288-0.288,0.288h-2.828c-0.159,0-0.288-0.129-0.288-0.288V22.58z M44.876,23.522
							c0,0.084,0.068,0.153,0.153,0.153h2.779c0.084,0,0.153-0.068,0.153-0.153v-0.864c0-0.084-0.068-0.153-0.153-0.153h-2.779
							c-0.084,0-0.153,0.068-0.153,0.153V23.522z"/>
					</g>
				</g>
				<rect x="2.779" y="20.469" style="opacity:0.3;fill:#42210B;" width="61.182" height="2.621"/>
				<g>
					<rect x="9.324" y="42.341" style="fill:#4D4D4D;" width="25.977" height="1.133"/>
					<g>
						<g>
							<g>
								<g>
									<g>
										<g>
											<path style="fill:#808080;" d="M10.097,30.126v12.215h12.215V30.126H10.097z M21.387,41.735H11.001V30.699h10.386V41.735
												z"/>
										</g>
										<polygon style="fill:#1A1A1A;" points="21.165,30.94 21.387,30.699 11.001,30.699 11.223,30.94 										"/>
										<polygon style="fill:#4D4D4D;" points="11.223,30.94 11.001,30.699 11.001,41.735 11.223,41.543 										"/>
										<polygon style="fill:#4D4D4D;" points="21.387,41.735 21.165,41.543 11.223,41.543 11.001,41.735 										"/>
										<polygon style="fill:#4D4D4D;" points="21.165,30.94 21.165,41.543 21.387,41.735 21.387,30.699 										"/>
									</g>
									<g>
										<g>
											<g>
												<g>
													<path style="fill:#808080;" d="M11.223,30.94v10.603h9.942V30.94H11.223z M20.335,40.978h-8.302v-9.503h8.302V40.978z"
														/>
												</g>
												<polygon style="fill:#1A1A1A;" points="20.136,31.699 20.335,31.474 12.033,31.474 12.232,31.699 												"/>
												<polygon style="fill:#4D4D4D;" points="12.232,31.699 12.033,31.474 12.033,40.978 12.232,40.752 												"/>
												<polygon style="fill:#B3B3B3;" points="20.335,40.978 20.136,40.752 12.232,40.752 12.033,40.978 												"/>
												<polygon style="fill:#4D4D4D;" points="20.136,31.699 20.136,40.752 20.335,40.978 20.335,31.474 												"/>
											</g>
										</g>
										<g>
											<rect x="12.232" y="31.699" style="fill:#4FB1ED;" width="7.904" height="9.053"/>
										</g>
										<g>
											<polygon style="fill:#76CAF4;" points="16.866,31.699 12.232,36.74 12.232,39.519 19.42,31.699 											"/>
											<polygon style="fill:#76CAF4;" points="20.136,31.972 12.232,40.571 12.232,40.752 12.894,40.752 20.136,32.873 
																							"/>
										</g>
									</g>
								</g>
							</g>
							<path d="M11.55,35.623L11.55,35.623c0.063-0.042,0.15-0.036,0.206,0.02l1.065,1.065l-0.231,0.231l0,0l-1.065-1.065l0,0
								c-0.064-0.064-0.064-0.167,0-0.231C11.533,35.635,11.542,35.628,11.55,35.623z"/>
						</g>
						<g>
							<g>
								<g>
									<g>
										<g>
											<g>
												<path style="fill:#808080;" d="M22.312,30.126v12.215h12.215V30.126H22.312z M33.602,41.735H23.216V30.699h10.386
													V41.735z"/>
											</g>
											<polygon style="fill:#1A1A1A;" points="33.38,30.94 33.602,30.699 23.216,30.699 23.438,30.94 											"/>
											<polygon style="fill:#4D4D4D;" points="23.438,30.94 23.216,30.699 23.216,41.735 23.438,41.543 											"/>
											<polygon style="fill:#4D4D4D;" points="33.602,41.735 33.38,41.543 23.438,41.543 23.216,41.735 											"/>
											<polygon style="fill:#4D4D4D;" points="33.38,30.94 33.38,41.543 33.602,41.735 33.602,30.699 											"/>
										</g>
										<g>
											<g>
												<g>
													<g>
														<path style="fill:#808080;" d="M23.438,30.94v10.603h9.942V30.94H23.438z M32.551,40.978h-8.302v-9.503h8.302V40.978z
															"/>
													</g>
													<polygon style="fill:#1A1A1A;" points="32.351,31.699 32.551,31.474 24.248,31.474 24.448,31.699 													"/>
													<polygon style="fill:#4D4D4D;" points="24.448,31.699 24.248,31.474 24.248,40.978 24.448,40.752 													"/>
													<polygon style="fill:#B3B3B3;" points="32.551,40.978 32.351,40.752 24.448,40.752 24.248,40.978 													"/>
													<polygon style="fill:#4D4D4D;" points="32.351,31.699 32.351,40.752 32.551,40.978 32.551,31.474 													"/>
												</g>
											</g>
											<g>
												<rect x="24.448" y="31.699" style="fill:#4FB1ED;" width="7.904" height="9.053"/>
											</g>
											<g>
												<polygon style="fill:#76CAF4;" points="29.081,31.699 24.448,36.74 24.448,39.519 31.636,31.699 												"/>
												<polygon style="fill:#76CAF4;" points="32.351,31.972 24.448,40.571 24.448,40.752 25.109,40.752 32.351,32.873 
																									"/>
											</g>
										</g>
									</g>
								</g>
								<path d="M23.766,35.623L23.766,35.623c0.063-0.042,0.15-0.036,0.206,0.02l1.065,1.065l-0.231,0.231l0,0l-1.065-1.065l0,0
									c-0.064-0.064-0.064-0.167,0-0.231C23.749,35.635,23.757,35.628,23.766,35.623z"/>
							</g>
						</g>
					</g>
				</g>
			</g>
		</g>
	</g>
</g>
</svg>
