<?xml version="1.0" encoding="utf-8"?>
<!-- Generator: Adobe Illustrator 21.0.0, SVG Export Plug-In . SVG Version: 6.00 Build 0)  -->
<svg version="1.1" id="Capa_1" xmlns="http://www.w3.org/2000/svg" xmlns:xlink="http://www.w3.org/1999/xlink" x="0px" y="0px"
	 viewBox="0 0 69.842 50.73" style="enable-background:new 0 0 69.842 50.73;" xml:space="preserve">
<g>
	<path style="opacity:0.3;" d="M68.729,19.996h-2.226L36.474,3.101L6.668,19.996H4.214c-0.612,0-1.113,0.501-1.113,1.113
		c0,0.612,0.501,1.113,1.113,1.113h2.473v0.071v2.482h0.01L6.794,50.73h23.933h0.851h9.573h0.957h24.146l-0.098-26.377v-2.13h2.572
		c0.612,0,1.113-0.501,1.113-1.113C69.842,20.497,69.341,19.996,68.729,19.996z"/>
	<g>
		<g>
			<g>
				<polygon style="fill:#BF0E20;" points="64.082,17.279 2.89,17.279 33.373,0 				"/>
				<path style="fill:#840013;" d="M65.627,19.121H1.113C0.501,19.121,0,18.62,0,18.008v0c0-0.612,0.501-1.113,1.113-1.113h64.514
					c0.612,0,1.113,0.501,1.113,1.113v0C66.741,18.62,66.24,19.121,65.627,19.121z"/>
			</g>
			<g>
				<defs>
					<polygon id="SVGID_1_" points="59.033,15.853 7.94,15.853 33.371,1.426 					"/>
				</defs>
				<clipPath id="SVGID_2_">
					<use xlink:href="#SVGID_1_"  style="overflow:visible;"/>
				</clipPath>
				<g style="clip-path:url(#SVGID_2_);">
					<g>
						<g>
							<path style="fill:#ED4860;" d="M62.592,15.967c-0.359,0.244-0.793,0.483-1.54,0.483c-0.862,0-1.308-0.318-1.703-0.598
								c-0.379-0.269-0.706-0.502-1.391-0.502c-0.685,0-1.011,0.233-1.391,0.502c-0.393,0.28-0.841,0.598-1.701,0.598
								c-0.862,0-1.31-0.318-1.703-0.598c-0.379-0.269-0.706-0.502-1.391-0.502c-0.685,0-1.011,0.233-1.391,0.502
								c-0.393,0.28-0.839,0.598-1.701,0.598s-1.308-0.318-1.701-0.598c-0.379-0.269-0.708-0.502-1.391-0.502
								c-0.685,0-1.011,0.233-1.391,0.502c-0.393,0.28-0.839,0.598-1.701,0.598s-1.308-0.318-1.703-0.598
								c-0.379-0.269-0.706-0.502-1.391-0.502c-0.683,0-1.011,0.233-1.388,0.502c-0.395,0.28-0.841,0.598-1.703,0.598
								s-1.308-0.318-1.701-0.598c-0.379-0.269-0.706-0.502-1.391-0.502c-0.685,0-1.011,0.233-1.391,0.502
								c-0.393,0.28-0.839,0.598-1.701,0.598s-1.308-0.318-1.701-0.598c-0.379-0.269-0.708-0.502-1.391-0.502
								c-0.685,0-1.011,0.233-1.391,0.502c-0.393,0.28-0.839,0.598-1.701,0.598s-1.308-0.318-1.701-0.598
								c-0.379-0.269-0.708-0.502-1.391-0.502c-0.685,0-1.011,0.233-1.391,0.502c-0.393,0.28-0.839,0.598-1.701,0.598
								s-1.308-0.318-1.701-0.598c-0.379-0.269-0.706-0.502-1.391-0.502c-0.683,0-1.011,0.233-1.388,0.502
								c-0.395,0.28-0.841,0.598-1.703,0.598c-0.862,0-1.308-0.318-1.701-0.598c-0.379-0.269-0.706-0.502-1.391-0.502
								c-0.683,0-1.011,0.233-1.388,0.502c-0.395,0.28-0.841,0.598-1.703,0.598c-0.554,0-0.938-0.132-1.244-0.301l0.2-0.359
								c0.267,0.16,0.57,0.273,1.044,0.273c0.685,0,1.011-0.233,1.391-0.502c0.393-0.28,0.841-0.598,1.701-0.598
								c0.862,0,1.308,0.318,1.703,0.598c0.377,0.269,0.706,0.502,1.388,0.502c0.685,0,1.011-0.233,1.391-0.502
								c0.393-0.28,0.839-0.598,1.701-0.598c0.862,0,1.308,0.318,1.701,0.598c0.379,0.269,0.706,0.502,1.391,0.502
								c0.683,0,1.011-0.233,1.391-0.502c0.393-0.28,0.839-0.598,1.701-0.598s1.308,0.318,1.701,0.598
								c0.379,0.269,0.706,0.502,1.391,0.502c0.685,0,1.011-0.233,1.391-0.502c0.393-0.28,0.839-0.598,1.701-0.598
								s1.308,0.318,1.701,0.598c0.379,0.269,0.706,0.502,1.391,0.502c0.683,0,1.011-0.233,1.391-0.502
								c0.393-0.28,0.839-0.598,1.701-0.598s1.308,0.318,1.701,0.598c0.379,0.269,0.706,0.502,1.391,0.502
								c0.685,0,1.011-0.233,1.391-0.502c0.393-0.28,0.841-0.598,1.701-0.598c0.862,0,1.308,0.318,1.703,0.598
								c0.379,0.269,0.706,0.502,1.391,0.502c0.683,0,1.011-0.233,1.391-0.502c0.393-0.28,0.839-0.598,1.701-0.598
								s1.308,0.318,1.701,0.598c0.379,0.269,0.706,0.502,1.391,0.502c0.683,0,1.011-0.233,1.391-0.502
								c0.393-0.28,0.839-0.598,1.701-0.598s1.308,0.318,1.701,0.598c0.379,0.269,0.708,0.502,1.393,0.502
								c0.683,0,1.011-0.233,1.391-0.502c0.393-0.28,0.839-0.598,1.701-0.598s1.308,0.318,1.703,0.598
								c0.379,0.269,0.706,0.502,1.391,0.502c0.651,0,0.979-0.211,1.336-0.465L62.592,15.967z"/>
						</g>
						<g>
							<path style="fill:#ED4860;" d="M61.523,14.049c-0.143,0.023-0.299,0.036-0.471,0.036c-0.862,0-1.308-0.318-1.703-0.598
								c-0.379-0.269-0.706-0.502-1.391-0.502c-0.685,0-1.011,0.233-1.391,0.502c-0.393,0.28-0.841,0.598-1.701,0.598
								c-0.862,0-1.31-0.318-1.703-0.598c-0.379-0.269-0.706-0.502-1.391-0.502c-0.685,0-1.011,0.233-1.391,0.502
								c-0.393,0.28-0.839,0.598-1.701,0.598s-1.308-0.318-1.701-0.598c-0.379-0.269-0.708-0.502-1.391-0.502
								c-0.685,0-1.011,0.233-1.391,0.502c-0.393,0.28-0.839,0.598-1.701,0.598s-1.308-0.318-1.703-0.598
								c-0.379-0.269-0.706-0.502-1.391-0.502c-0.683,0-1.011,0.233-1.388,0.502c-0.395,0.28-0.841,0.598-1.703,0.598
								s-1.308-0.318-1.701-0.598c-0.379-0.269-0.706-0.502-1.391-0.502c-0.685,0-1.011,0.233-1.391,0.502
								c-0.393,0.28-0.839,0.598-1.701,0.598s-1.308-0.318-1.701-0.598c-0.379-0.269-0.708-0.502-1.391-0.502
								c-0.685,0-1.011,0.233-1.391,0.502c-0.393,0.28-0.839,0.598-1.701,0.598s-1.308-0.318-1.701-0.598
								c-0.379-0.269-0.708-0.502-1.391-0.502c-0.685,0-1.011,0.233-1.391,0.502c-0.393,0.28-0.839,0.598-1.701,0.598
								s-1.308-0.318-1.701-0.598c-0.379-0.269-0.706-0.502-1.391-0.502c-0.683,0-1.011,0.233-1.388,0.502
								c-0.395,0.28-0.841,0.598-1.703,0.598c-0.862,0-1.308-0.318-1.701-0.598c-0.379-0.269-0.706-0.502-1.391-0.502
								c-0.683,0-1.011,0.233-1.388,0.502c-0.395,0.28-0.841,0.598-1.703,0.598c-0.03,0-0.06,0-0.09-0.002l0.216-0.389
								c0.6-0.028,0.91-0.246,1.264-0.5c0.393-0.28,0.841-0.598,1.701-0.598c0.862,0,1.308,0.318,1.703,0.598
								c0.377,0.271,0.706,0.502,1.388,0.502c0.685,0,1.011-0.231,1.391-0.502c0.393-0.28,0.839-0.598,1.701-0.598
								c0.862,0,1.308,0.318,1.701,0.598c0.379,0.271,0.706,0.502,1.391,0.502c0.683,0,1.011-0.231,1.391-0.502
								c0.393-0.28,0.839-0.598,1.701-0.598s1.308,0.318,1.701,0.598c0.379,0.271,0.706,0.502,1.391,0.502
								c0.685,0,1.011-0.231,1.391-0.502c0.393-0.28,0.839-0.598,1.701-0.598s1.308,0.318,1.701,0.598
								c0.379,0.271,0.706,0.502,1.391,0.502c0.683,0,1.011-0.231,1.391-0.502c0.393-0.28,0.839-0.598,1.701-0.598
								s1.308,0.318,1.701,0.598c0.379,0.271,0.706,0.502,1.391,0.502c0.685,0,1.011-0.231,1.391-0.502
								c0.393-0.28,0.841-0.598,1.701-0.598c0.862,0,1.308,0.318,1.703,0.598c0.379,0.271,0.706,0.502,1.391,0.502
								c0.683,0,1.011-0.231,1.391-0.502c0.393-0.28,0.839-0.598,1.701-0.598s1.308,0.318,1.701,0.598
								c0.379,0.271,0.706,0.502,1.391,0.502c0.683,0,1.011-0.231,1.391-0.502c0.393-0.28,0.839-0.598,1.701-0.598
								s1.308,0.318,1.701,0.598c0.379,0.271,0.708,0.502,1.393,0.502c0.683,0,1.011-0.231,1.391-0.502
								c0.393-0.28,0.839-0.598,1.701-0.598s1.308,0.318,1.703,0.598c0.379,0.271,0.706,0.502,1.391,0.502
								c0.097,0,0.184-0.004,0.267-0.013L61.523,14.049z"/>
						</g>
						<g>
							<path style="fill:#ED4860;" d="M60.139,11.568c-0.324-0.117-0.565-0.288-0.791-0.448c-0.379-0.271-0.706-0.504-1.391-0.504
								c-0.685,0-1.011,0.233-1.391,0.504c-0.393,0.28-0.841,0.596-1.701,0.596c-0.862,0-1.31-0.316-1.703-0.596
								c-0.379-0.271-0.706-0.504-1.391-0.504c-0.685,0-1.011,0.233-1.391,0.504c-0.393,0.28-0.839,0.596-1.701,0.596
								s-1.308-0.316-1.701-0.596c-0.379-0.271-0.708-0.504-1.391-0.504c-0.685,0-1.011,0.233-1.391,0.504
								c-0.393,0.28-0.839,0.596-1.701,0.596s-1.308-0.316-1.703-0.596c-0.379-0.271-0.706-0.504-1.391-0.504
								c-0.683,0-1.011,0.233-1.388,0.504c-0.395,0.28-0.841,0.596-1.703,0.596s-1.308-0.316-1.701-0.596
								c-0.379-0.271-0.706-0.504-1.391-0.504c-0.685,0-1.011,0.233-1.391,0.504c-0.393,0.28-0.839,0.596-1.701,0.596
								s-1.308-0.316-1.701-0.596c-0.379-0.271-0.708-0.504-1.391-0.504c-0.685,0-1.011,0.233-1.391,0.504
								c-0.393,0.28-0.839,0.596-1.701,0.596s-1.308-0.316-1.701-0.596c-0.379-0.271-0.708-0.504-1.391-0.504
								c-0.685,0-1.011,0.233-1.391,0.504c-0.393,0.28-0.839,0.596-1.701,0.596s-1.308-0.316-1.701-0.596
								c-0.379-0.271-0.706-0.504-1.391-0.504c-0.683,0-1.011,0.233-1.388,0.504c-0.395,0.28-0.841,0.596-1.703,0.596
								c-0.862,0-1.308-0.316-1.701-0.596c-0.379-0.271-0.706-0.504-1.391-0.504c-0.683,0-1.011,0.233-1.388,0.504
								c-0.076,0.053-0.152,0.107-0.232,0.162L7.3,10.498c0.297-0.154,0.664-0.269,1.184-0.269c0.862,0,1.308,0.318,1.703,0.598
								c0.377,0.269,0.706,0.502,1.388,0.502c0.685,0,1.011-0.233,1.391-0.502c0.393-0.28,0.839-0.598,1.701-0.598
								c0.862,0,1.308,0.318,1.701,0.598c0.379,0.269,0.706,0.502,1.391,0.502c0.683,0,1.011-0.233,1.391-0.502
								c0.393-0.28,0.839-0.598,1.701-0.598s1.308,0.318,1.701,0.598c0.379,0.269,0.706,0.502,1.391,0.502
								c0.685,0,1.011-0.233,1.391-0.502c0.393-0.28,0.839-0.598,1.701-0.598s1.308,0.318,1.701,0.598
								c0.379,0.269,0.706,0.502,1.391,0.502c0.683,0,1.011-0.233,1.391-0.502c0.393-0.28,0.839-0.598,1.701-0.598
								s1.308,0.318,1.701,0.598c0.379,0.269,0.706,0.502,1.391,0.502c0.685,0,1.011-0.233,1.391-0.502
								c0.393-0.28,0.841-0.598,1.701-0.598c0.862,0,1.308,0.318,1.703,0.598c0.379,0.269,0.706,0.502,1.391,0.502
								c0.683,0,1.011-0.233,1.391-0.502c0.393-0.28,0.839-0.598,1.701-0.598s1.308,0.318,1.701,0.598
								c0.379,0.269,0.706,0.502,1.391,0.502c0.683,0,1.011-0.233,1.391-0.502c0.393-0.28,0.839-0.598,1.701-0.598
								s1.308,0.318,1.701,0.598c0.379,0.269,0.708,0.502,1.393,0.502c0.683,0,1.011-0.233,1.391-0.502
								c0.393-0.28,0.839-0.598,1.701-0.598s1.308,0.318,1.703,0.598c0.037,0.026,0.074,0.051,0.108,0.075L60.139,11.568z"/>
						</g>
						<g>
							<path style="fill:#ED4860;" d="M58.302,8.273c-0.103-0.015-0.218-0.023-0.345-0.023c-0.685,0-1.011,0.233-1.391,0.502
								c-0.393,0.28-0.841,0.598-1.701,0.598c-0.862,0-1.31-0.318-1.703-0.598c-0.379-0.269-0.706-0.502-1.391-0.502
								c-0.685,0-1.011,0.233-1.391,0.502c-0.393,0.28-0.839,0.598-1.701,0.598s-1.308-0.318-1.701-0.598
								c-0.379-0.269-0.708-0.502-1.391-0.502c-0.685,0-1.011,0.233-1.391,0.502c-0.393,0.28-0.839,0.598-1.701,0.598
								s-1.308-0.318-1.703-0.598c-0.379-0.269-0.706-0.502-1.391-0.502c-0.683,0-1.011,0.233-1.388,0.502
								c-0.395,0.28-0.841,0.598-1.703,0.598s-1.308-0.318-1.701-0.598c-0.379-0.269-0.706-0.502-1.391-0.502
								c-0.685,0-1.011,0.233-1.391,0.502c-0.393,0.28-0.839,0.598-1.701,0.598s-1.308-0.318-1.701-0.598
								c-0.379-0.269-0.708-0.502-1.391-0.502c-0.685,0-1.011,0.233-1.391,0.502c-0.393,0.28-0.839,0.598-1.701,0.598
								s-1.308-0.318-1.701-0.598c-0.379-0.269-0.708-0.502-1.391-0.502c-0.685,0-1.011,0.233-1.391,0.502
								c-0.393,0.28-0.839,0.598-1.701,0.598s-1.308-0.318-1.701-0.598c-0.379-0.269-0.706-0.502-1.391-0.502
								c-0.683,0-1.011,0.233-1.388,0.502c-0.395,0.28-0.841,0.598-1.703,0.598c-0.862,0-1.308-0.318-1.701-0.598
								c-0.365-0.26-0.683-0.485-1.322-0.5l0.209-0.376c0.685,0.058,1.076,0.337,1.425,0.585c0.377,0.269,0.706,0.502,1.388,0.502
								c0.685,0,1.011-0.233,1.391-0.502c0.393-0.28,0.839-0.598,1.701-0.598c0.862,0,1.308,0.318,1.701,0.598
								c0.379,0.269,0.706,0.502,1.391,0.502c0.683,0,1.011-0.233,1.391-0.502c0.393-0.28,0.839-0.598,1.701-0.598
								s1.308,0.318,1.701,0.598c0.379,0.269,0.706,0.502,1.391,0.502c0.685,0,1.011-0.233,1.391-0.502
								c0.393-0.28,0.839-0.598,1.701-0.598s1.308,0.318,1.701,0.598c0.379,0.269,0.706,0.502,1.391,0.502
								c0.683,0,1.011-0.233,1.391-0.502c0.393-0.28,0.839-0.598,1.701-0.598s1.308,0.318,1.701,0.598
								c0.379,0.269,0.706,0.502,1.391,0.502c0.685,0,1.011-0.233,1.391-0.502c0.393-0.28,0.841-0.598,1.701-0.598
								c0.862,0,1.308,0.318,1.703,0.598c0.379,0.269,0.706,0.502,1.391,0.502c0.683,0,1.011-0.233,1.391-0.502
								c0.393-0.28,0.839-0.598,1.701-0.598s1.308,0.318,1.701,0.598c0.379,0.269,0.706,0.502,1.391,0.502
								c0.683,0,1.011-0.233,1.391-0.502c0.393-0.28,0.839-0.598,1.701-0.598s1.308,0.318,1.701,0.598
								c0.379,0.269,0.708,0.502,1.393,0.502c0.683,0,1.011-0.233,1.391-0.502c0.393-0.28,0.839-0.598,1.701-0.598
								c0.039,0,0.078,0,0.117,0.004L58.302,8.273z"/>
						</g>
						<g>
							<path style="fill:#ED4860;" d="M57.075,6.071c-0.184,0.087-0.34,0.196-0.508,0.316c-0.393,0.28-0.841,0.598-1.701,0.598
								c-0.862,0-1.31-0.318-1.703-0.598c-0.379-0.269-0.706-0.502-1.391-0.502c-0.685,0-1.011,0.233-1.391,0.502
								c-0.393,0.28-0.839,0.598-1.701,0.598s-1.308-0.318-1.701-0.598c-0.379-0.269-0.708-0.502-1.391-0.502
								c-0.685,0-1.011,0.233-1.391,0.502c-0.393,0.28-0.839,0.598-1.701,0.598s-1.308-0.318-1.703-0.598
								c-0.379-0.269-0.706-0.502-1.391-0.502c-0.683,0-1.011,0.233-1.388,0.502c-0.395,0.28-0.841,0.598-1.703,0.598
								s-1.308-0.318-1.701-0.598c-0.379-0.269-0.706-0.502-1.391-0.502c-0.685,0-1.011,0.233-1.391,0.502
								c-0.393,0.28-0.839,0.598-1.701,0.598s-1.308-0.318-1.701-0.598c-0.379-0.269-0.708-0.502-1.391-0.502
								c-0.685,0-1.011,0.233-1.391,0.502c-0.393,0.28-0.839,0.598-1.701,0.598s-1.308-0.318-1.701-0.598
								c-0.379-0.269-0.708-0.502-1.391-0.502c-0.685,0-1.011,0.233-1.391,0.502c-0.393,0.28-0.839,0.598-1.701,0.598
								s-1.308-0.318-1.701-0.598c-0.379-0.269-0.706-0.502-1.391-0.502c-0.683,0-1.011,0.233-1.388,0.502
								c-0.395,0.28-0.841,0.598-1.703,0.598c-0.862,0-1.308-0.318-1.701-0.598C9.806,6.338,9.737,6.289,9.67,6.246l0.205-0.365
								c0.11,0.07,0.214,0.143,0.313,0.213c0.377,0.271,0.706,0.502,1.388,0.502c0.685,0,1.011-0.231,1.391-0.502
								c0.393-0.28,0.839-0.598,1.701-0.598c0.862,0,1.308,0.318,1.701,0.598c0.379,0.271,0.706,0.502,1.391,0.502
								c0.683,0,1.011-0.231,1.391-0.502c0.393-0.28,0.839-0.598,1.701-0.598s1.308,0.318,1.701,0.598
								c0.379,0.271,0.706,0.502,1.391,0.502c0.685,0,1.011-0.231,1.391-0.502c0.393-0.28,0.839-0.598,1.701-0.598
								s1.308,0.318,1.701,0.598c0.379,0.271,0.706,0.502,1.391,0.502c0.683,0,1.011-0.231,1.391-0.502
								c0.393-0.28,0.839-0.598,1.701-0.598s1.308,0.318,1.701,0.598c0.379,0.271,0.706,0.502,1.391,0.502
								c0.685,0,1.011-0.231,1.391-0.502c0.393-0.28,0.841-0.598,1.701-0.598c0.862,0,1.308,0.318,1.703,0.598
								c0.379,0.271,0.706,0.502,1.391,0.502c0.683,0,1.011-0.231,1.391-0.502c0.393-0.28,0.839-0.598,1.701-0.598
								s1.308,0.318,1.701,0.598c0.379,0.271,0.706,0.502,1.391,0.502c0.683,0,1.011-0.231,1.391-0.502
								c0.393-0.28,0.839-0.598,1.701-0.598s1.308,0.318,1.701,0.598c0.379,0.271,0.708,0.502,1.393,0.502
								c0.683,0,1.011-0.231,1.391-0.502c0.184-0.13,0.377-0.267,0.618-0.378L57.075,6.071z"/>
						</g>
						<g>
							<path style="fill:#ED4860;" d="M56.1,4.324c-0.306,0.166-0.685,0.293-1.234,0.293c-0.862,0-1.31-0.316-1.703-0.596
								c-0.379-0.271-0.706-0.504-1.391-0.504c-0.685,0-1.011,0.233-1.391,0.504c-0.393,0.28-0.839,0.596-1.701,0.596
								s-1.308-0.316-1.701-0.596C46.6,3.75,46.271,3.517,45.588,3.517c-0.685,0-1.011,0.233-1.391,0.504
								c-0.393,0.28-0.839,0.596-1.701,0.596s-1.308-0.316-1.703-0.596c-0.379-0.271-0.706-0.504-1.391-0.504
								c-0.683,0-1.011,0.233-1.388,0.504c-0.395,0.28-0.841,0.596-1.703,0.596s-1.308-0.316-1.701-0.596
								c-0.379-0.271-0.706-0.504-1.391-0.504c-0.685,0-1.011,0.233-1.391,0.504c-0.393,0.28-0.839,0.596-1.701,0.596
								s-1.308-0.316-1.701-0.596c-0.379-0.271-0.708-0.504-1.391-0.504c-0.685,0-1.011,0.233-1.391,0.504
								c-0.393,0.28-0.839,0.596-1.701,0.596s-1.308-0.316-1.701-0.596c-0.379-0.271-0.708-0.504-1.391-0.504
								c-0.685,0-1.011,0.233-1.391,0.504c-0.393,0.28-0.839,0.596-1.701,0.596s-1.308-0.316-1.701-0.596
								c-0.379-0.271-0.706-0.504-1.391-0.504c-0.683,0-1.011,0.233-1.388,0.504c-0.395,0.28-0.841,0.596-1.703,0.596
								c-0.372,0-0.667-0.058-0.915-0.149l0.198-0.352c0.193,0.07,0.423,0.113,0.717,0.113c0.685,0,1.011-0.233,1.391-0.502
								c0.393-0.28,0.839-0.598,1.701-0.598c0.862,0,1.308,0.318,1.701,0.598c0.379,0.269,0.706,0.502,1.391,0.502
								c0.683,0,1.011-0.233,1.391-0.502c0.393-0.28,0.839-0.598,1.701-0.598s1.308,0.318,1.701,0.598
								c0.379,0.269,0.706,0.502,1.391,0.502c0.685,0,1.011-0.233,1.391-0.502c0.393-0.28,0.839-0.598,1.701-0.598
								s1.308,0.318,1.701,0.598c0.379,0.269,0.706,0.502,1.391,0.502c0.683,0,1.011-0.233,1.391-0.502
								c0.393-0.28,0.839-0.598,1.701-0.598s1.308,0.318,1.701,0.598c0.379,0.269,0.706,0.502,1.391,0.502
								c0.685,0,1.011-0.233,1.391-0.502c0.393-0.28,0.841-0.598,1.701-0.598c0.862,0,1.308,0.318,1.703,0.598
								c0.379,0.269,0.706,0.502,1.391,0.502c0.683,0,1.011-0.233,1.391-0.502c0.393-0.28,0.839-0.598,1.701-0.598
								s1.308,0.318,1.701,0.598c0.379,0.269,0.706,0.502,1.391,0.502c0.683,0,1.011-0.233,1.391-0.502
								c0.393-0.28,0.839-0.598,1.701-0.598s1.308,0.318,1.701,0.598c0.379,0.269,0.708,0.502,1.393,0.502
								c0.467,0,0.768-0.109,1.032-0.265L56.1,4.324z"/>
						</g>
						<g>
							<path style="fill:#ED4860;" d="M54.944,2.249c-0.025,0.002-0.051,0.002-0.078,0.002c-0.862,0-1.31-0.318-1.703-0.598
								c-0.379-0.269-0.706-0.502-1.391-0.502c-0.685,0-1.011,0.233-1.391,0.502c-0.393,0.28-0.839,0.598-1.701,0.598
								s-1.308-0.318-1.701-0.598c-0.379-0.269-0.708-0.502-1.391-0.502c-0.685,0-1.011,0.233-1.391,0.502
								c-0.393,0.28-0.839,0.598-1.701,0.598s-1.308-0.318-1.703-0.598c-0.379-0.269-0.706-0.502-1.391-0.502
								c-0.683,0-1.011,0.233-1.388,0.502c-0.395,0.28-0.841,0.598-1.703,0.598s-1.308-0.318-1.701-0.598
								c-0.379-0.269-0.706-0.502-1.391-0.502c-0.685,0-1.011,0.233-1.391,0.502c-0.393,0.28-0.839,0.598-1.701,0.598
								s-1.308-0.318-1.701-0.598c-0.379-0.269-0.708-0.502-1.391-0.502c-0.685,0-1.011,0.233-1.391,0.502
								c-0.393,0.28-0.839,0.598-1.701,0.598s-1.308-0.318-1.701-0.598c-0.379-0.269-0.708-0.502-1.391-0.502
								c-0.685,0-1.011,0.233-1.391,0.502c-0.393,0.28-0.839,0.598-1.701,0.598s-1.308-0.318-1.701-0.598
								c-0.379-0.269-0.706-0.502-1.391-0.502c-0.683,0-1.011,0.233-1.388,0.502c-0.34,0.241-0.72,0.512-1.37,0.579l0.244-0.438
								c0.331-0.088,0.561-0.252,0.814-0.433c0.393-0.28,0.839-0.598,1.701-0.598c0.862,0,1.308,0.318,1.701,0.598
								c0.379,0.269,0.706,0.502,1.391,0.502c0.683,0,1.011-0.233,1.391-0.502c0.393-0.28,0.839-0.598,1.701-0.598
								s1.308,0.318,1.701,0.598c0.379,0.269,0.706,0.502,1.391,0.502c0.685,0,1.011-0.233,1.391-0.502
								c0.393-0.28,0.839-0.598,1.701-0.598s1.308,0.318,1.701,0.598c0.379,0.269,0.706,0.502,1.391,0.502
								c0.683,0,1.011-0.233,1.391-0.502c0.393-0.28,0.839-0.598,1.701-0.598s1.308,0.318,1.701,0.598
								c0.379,0.269,0.706,0.502,1.391,0.502c0.685,0,1.011-0.233,1.391-0.502c0.393-0.28,0.841-0.598,1.701-0.598
								c0.862,0,1.308,0.318,1.703,0.598c0.379,0.269,0.706,0.502,1.391,0.502c0.683,0,1.011-0.233,1.391-0.502
								c0.393-0.28,0.839-0.598,1.701-0.598s1.308,0.318,1.701,0.598c0.379,0.269,0.706,0.502,1.391,0.502
								c0.683,0,1.011-0.233,1.391-0.502c0.393-0.28,0.839-0.598,1.701-0.598s1.308,0.318,1.701,0.598
								c0.352,0.25,0.662,0.468,1.253,0.498L54.944,2.249z"/>
						</g>
					</g>
				</g>
			</g>
			<g>
				<polygon style="fill:#A67C52;" points="45.04,14.305 45.04,16.895 21.701,16.895 21.701,14.305 22.569,13.489 22.827,13.247 
					24.382,11.786 24.64,11.544 26.194,10.083 26.452,9.841 28.007,8.38 28.265,8.138 29.817,6.678 30.076,6.436 31.63,4.975 
					31.888,4.733 33.34,3.369 34.8,4.733 35.06,4.975 36.621,6.436 36.881,6.678 38.443,8.138 38.701,8.38 40.264,9.841 
					40.524,10.083 42.086,11.544 42.346,11.786 43.909,13.247 44.167,13.489 				"/>
				<g>
					<rect x="21.701" y="14.95" style="fill-rule:evenodd;clip-rule:evenodd;fill:#754C24;" width="23.339" height="0.242"/>
					<polygon style="fill-rule:evenodd;clip-rule:evenodd;fill:#754C24;" points="44.167,13.489 22.569,13.489 22.827,13.247 
						43.909,13.247 					"/>
					<polygon style="fill-rule:evenodd;clip-rule:evenodd;fill:#754C24;" points="42.346,11.786 24.382,11.786 24.64,11.544 
						42.086,11.544 					"/>
					<polygon style="fill-rule:evenodd;clip-rule:evenodd;fill:#754C24;" points="40.524,10.083 26.194,10.083 26.452,9.841 
						40.264,9.841 					"/>
					<polygon style="fill-rule:evenodd;clip-rule:evenodd;fill:#754C24;" points="38.701,8.38 28.007,8.38 28.265,8.138 
						38.443,8.138 					"/>
					<polygon style="fill-rule:evenodd;clip-rule:evenodd;fill:#754C24;" points="36.881,6.678 29.817,6.678 30.076,6.436 
						36.621,6.436 					"/>
					<polygon style="fill-rule:evenodd;clip-rule:evenodd;fill:#754C24;" points="35.06,4.975 31.63,4.975 31.888,4.733 34.8,4.733 
											"/>
				</g>
				<g>
					<g>
						<path style="fill:#840013;" d="M46.007,15.88L33.336,4.035L20.735,15.876c-0.397,0.373-1.021,0.354-1.394-0.043l0,0
							c-0.373-0.397-0.354-1.021,0.043-1.394L33.333,1.332l14.021,13.107c0.398,0.372,0.419,0.996,0.047,1.394v0
							C47.029,16.231,46.405,16.252,46.007,15.88z"/>
					</g>
				</g>
			</g>
		</g>
		<g>
			<g>
				<polygon style="fill:#FFE5CC;" points="3.587,19.121 3.693,47.629 63.154,47.629 63.048,19.121 				"/>
			</g>
			<polygon style="opacity:0.3;fill:#42210B;" points="3.587,19.121 3.587,19.192 3.587,21.674 62.949,21.674 63.056,21.674 
				63.056,19.121 			"/>
			<g>
				<g>
					<rect x="27.626" y="26.248" style="fill:#8C6239;" width="11.382" height="21.38"/>
				</g>
				<g>
					<rect x="28.477" y="27.206" style="fill:#42210B;" width="9.573" height="20.423"/>
				</g>
				<g>
					<g>
						<path style="fill:#B27C52;" d="M54.804,43.83c0,0.159-0.129,0.288-0.288,0.288h-2.827c-0.159,0-0.288-0.129-0.288-0.288
							v-0.913c0-0.159,0.129-0.288,0.288-0.288h2.827c0.159,0,0.288,0.129,0.288,0.288V43.83z M51.698,42.736
							c-0.084,0-0.085,0.128-0.085,0.212v0.913c0,0.084,0.001,0.258,0.085,0.258h2.807c0.084,0,0.086-0.174,0.086-0.258v-0.913
							c0-0.084-0.002-0.212-0.086-0.212H51.698z"/>
					</g>
					<g>
						<path style="fill:#B27C52;" d="M56.399,45.426c0,0.159-0.129,0.288-0.288,0.288h-2.828c-0.159,0-0.288-0.129-0.288-0.288
							v-0.913c0-0.159,0.129-0.288,0.288-0.288h2.828c0.159,0,0.288,0.129,0.288,0.288V45.426z M56.293,44.484
							c0-0.084-0.069-0.153-0.153-0.153h-2.779c-0.084,0-0.153,0.068-0.153,0.153v0.864c0,0.084,0.069,0.153,0.153,0.153h2.779
							c0.084,0,0.153-0.068,0.153-0.153V44.484z"/>
					</g>
					<g>
						<path style="fill:#B27C52;" d="M58.527,43.83c0,0.159-0.129,0.288-0.288,0.288h-2.828c-0.159,0-0.288-0.129-0.288-0.288
							v-0.913c0-0.159,0.129-0.288,0.288-0.288h2.828c0.159,0,0.288,0.129,0.288,0.288V43.83z M58.314,42.888
							c0-0.084-0.068-0.153-0.153-0.153h-2.779c-0.084,0-0.153,0.068-0.153,0.153v0.864c0,0.084,0.068,0.153,0.153,0.153h2.779
							c0.084,0,0.153-0.068,0.153-0.153V42.888z"/>
					</g>
				</g>
				<g>
					<g>
						<path style="fill:#B27C52;" d="M12.043,41.49c0,0.159-0.129,0.288-0.288,0.288H8.927c-0.159,0-0.288-0.129-0.288-0.288v-0.913
							c0-0.159,0.129-0.288,0.288-0.288h2.827c0.159,0,0.288,0.129,0.288,0.288V41.49z M11.937,40.548
							c0-0.084-0.068-0.153-0.153-0.153H9.005c-0.084,0-0.153,0.068-0.153,0.153v0.865c0,0.084,0.068,0.153,0.153,0.153h2.779
							c0.084,0,0.153-0.068,0.153-0.153V40.548z"/>
					</g>
					<g>
						<path style="fill:#B27C52;" d="M13.639,43.086c0,0.159-0.129,0.288-0.288,0.288h-2.827c-0.159,0-0.288-0.129-0.288-0.288
							v-0.913c0-0.159,0.129-0.288,0.288-0.288h2.827c0.159,0,0.288,0.129,0.288,0.288V43.086z M13.532,42.25
							c0-0.084-0.068-0.153-0.153-0.153H10.6c-0.084,0-0.153,0.068-0.153,0.153v0.864c0,0.084,0.068,0.153,0.153,0.153h2.779
							c0.084,0,0.153-0.068,0.153-0.153V42.25z"/>
					</g>
					<g>
						<path style="fill:#B27C52;" d="M15.766,41.49c0,0.159-0.129,0.288-0.288,0.288H12.65c-0.159,0-0.288-0.129-0.288-0.288v-0.913
							c0-0.159,0.129-0.288,0.288-0.288h2.828c0.159,0,0.288,0.129,0.288,0.288V41.49z M15.553,40.548
							c0-0.084-0.068-0.153-0.153-0.153h-2.779c-0.084,0-0.153,0.068-0.153,0.153v0.865c0,0.084,0.068,0.153,0.153,0.153H15.4
							c0.084,0,0.153-0.068,0.153-0.153V40.548z"/>
					</g>
				</g>
				<g>
					<g>
						<path style="fill:#B27C52;" d="M32.571,22.173c0,0.159-0.129,0.288-0.288,0.288h-2.827c-0.159,0-0.288-0.129-0.288-0.288
							V21.26c0-0.159,0.129-0.288,0.288-0.288h2.827c0.159,0,0.288,0.129,0.288,0.288V22.173z M32.465,21.231
							c0-0.084-0.068-0.153-0.153-0.153h-2.779c-0.084,0-0.153,0.068-0.153,0.153v0.865c0,0.084,0.068,0.153,0.153,0.153h2.779
							c0.084,0,0.153-0.068,0.153-0.153V21.231z"/>
					</g>
					<g>
						<path style="fill:#B27C52;" d="M34.167,23.768c0,0.159-0.129,0.288-0.288,0.288h-2.827c-0.159,0-0.288-0.129-0.288-0.288
							v-0.913c0-0.159,0.129-0.288,0.288-0.288h2.827c0.159,0,0.288,0.129,0.288,0.288V23.768z M34.06,22.933
							c0-0.084-0.068-0.153-0.153-0.153h-2.779c-0.084,0-0.153,0.068-0.153,0.153v0.864c0,0.084,0.068,0.153,0.153,0.153h2.779
							c0.084,0,0.153-0.068,0.153-0.153V22.933z"/>
					</g>
					<g>
						<path style="fill:#B27C52;" d="M36.294,22.173c0,0.159-0.129,0.288-0.288,0.288h-2.828c-0.159,0-0.288-0.129-0.288-0.288
							V21.26c0-0.159,0.129-0.288,0.288-0.288h2.828c0.159,0,0.288,0.129,0.288,0.288V22.173z M36.081,21.231
							c0-0.084-0.068-0.153-0.153-0.153h-2.779c-0.084,0-0.153,0.068-0.153,0.153v0.865c0,0.084,0.068,0.153,0.153,0.153h2.779
							c0.084,0,0.153-0.068,0.153-0.153V21.231z"/>
					</g>
				</g>
			</g>
			<g>
				<g>
					<rect x="8.313" y="37.108" style="fill:#42210B;" width="13.843" height="1.133"/>
					<rect x="10.253" y="33.152" style="fill:#4D4D4D;" width="9.942" height="3.158"/>
					<g>
						<g>
							<g>
								<rect x="10.253" y="25.707" style="fill:#4FB1ED;" width="9.942" height="6.872"/>
							</g>
							<g>
								<polygon style="fill:#76CAF4;" points="13.779,25.707 10.253,29.534 10.253,31.643 15.723,25.707 								"/>
								<polygon style="fill:#76CAF4;" points="16.458,25.707 10.253,32.441 10.253,32.579 10.756,32.579 17.088,25.707 								"/>
							</g>
							<g>
								<g>
									<path style="fill:#A67C52;" d="M9.126,24.893v12.215h12.215V24.893H9.126z M20.416,36.502H10.03V25.466h10.386V36.502z"/>
								</g>
								<polygon style="fill:#42210B;" points="20.194,25.707 20.416,25.466 10.03,25.466 10.253,25.707 								"/>
								<polygon style="fill:#603813;" points="10.253,25.707 10.03,25.466 10.03,36.502 10.253,36.31 								"/>
								<polygon style="fill:#C69C6D;" points="20.416,36.502 20.194,36.31 10.253,36.31 10.03,36.502 								"/>
								<polygon style="fill:#603813;" points="20.194,25.707 20.194,36.31 20.416,36.502 20.416,25.466 								"/>
							</g>
							<rect x="10.03" y="32.579" style="fill:#A67C52;" width="10.386" height="0.573"/>
							<g>
								<path d="M16.29,32.94h-2.094c-0.12,0-0.217,0.097-0.217,0.217v0.045c0,0.12,0.097,0.217,0.217,0.217h2.094
									c0.12,0,0.217-0.097,0.217-0.217v-0.045C16.506,33.037,16.409,32.94,16.29,32.94z"/>
							</g>
						</g>
					</g>
				</g>
				<g>
					<rect x="44.495" y="37.108" style="fill:#42210B;" width="13.843" height="1.133"/>
					<rect x="46.435" y="33.152" style="fill:#4D4D4D;" width="9.942" height="3.158"/>
					<g>
						<g>
							<g>
								<rect x="46.435" y="25.707" style="fill:#4FB1ED;" width="9.942" height="6.872"/>
							</g>
							<g>
								<polygon style="fill:#76CAF4;" points="49.961,25.707 46.435,29.534 46.435,31.643 51.905,25.707 								"/>
								<polygon style="fill:#76CAF4;" points="52.641,25.707 46.435,32.441 46.435,32.579 46.938,32.579 53.271,25.707 								"/>
							</g>
							<g>
								<g>
									<path style="fill:#A67C52;" d="M45.309,24.893v12.215h12.215V24.893H45.309z M56.599,36.502H46.213V25.466h10.386V36.502z"
										/>
								</g>
								<polygon style="fill:#42210B;" points="56.377,25.707 56.599,25.466 46.213,25.466 46.435,25.707 								"/>
								<polygon style="fill:#603813;" points="46.435,25.707 46.213,25.466 46.213,36.502 46.435,36.31 								"/>
								<polygon style="fill:#C69C6D;" points="56.599,36.502 56.377,36.31 46.435,36.31 46.213,36.502 								"/>
								<polygon style="fill:#603813;" points="56.377,25.707 56.377,36.31 56.599,36.502 56.599,25.466 								"/>
							</g>
							<rect x="46.213" y="32.579" style="fill:#A67C52;" width="10.386" height="0.573"/>
							<g>
								<path d="M52.472,32.94h-2.094c-0.12,0-0.217,0.097-0.217,0.217v0.045c0,0.12,0.097,0.217,0.217,0.217h2.094
									c0.12,0,0.217-0.097,0.217-0.217v-0.045C52.689,33.037,52.592,32.94,52.472,32.94z"/>
							</g>
						</g>
					</g>
				</g>
			</g>
		</g>
	</g>
</g>
</svg>
