<?xml version="1.0" encoding="utf-8"?>
<!-- Generator: Adobe Illustrator 21.0.0, SVG Export Plug-In . SVG Version: 6.00 Build 0)  -->
<svg version="1.1" id="Capa_1" xmlns="http://www.w3.org/2000/svg" xmlns:xlink="http://www.w3.org/1999/xlink" x="0px" y="0px"
	 viewBox="0 0 69.842 50.797" style="enable-background:new 0 0 69.842 50.797;" xml:space="preserve">
<g>
	<polygon style="opacity:0.3;" points="65.821,19.996 36.469,3.101 7.122,19.996 3.101,19.996 3.101,22.222 5.88,22.222 
		5.88,50.797 67.062,50.797 67.062,22.222 69.842,22.222 69.842,19.996 	"/>
	<g>
		<g>
			<polygon style="fill:#D15A09;" points="63.386,17.279 3.355,17.279 33.368,0 			"/>
			<rect y="16.895" style="fill:#AF4904;" width="66.741" height="2.226"/>
			<g>
				<defs>
					<polygon id="SVGID_1_" points="63.386,17.279 3.355,17.279 33.368,0 					"/>
				</defs>
				<clipPath id="SVGID_2_">
					<use xlink:href="#SVGID_1_"  style="overflow:visible;"/>
				</clipPath>
				<g style="opacity:0.2;clip-path:url(#SVGID_2_);">
					<path d="M10.166,15.463H9.924c-0.828,0-1.499-0.671-1.499-1.499v-2.617h3.24v2.617C11.665,14.792,10.994,15.463,10.166,15.463z
						"/>
					<path d="M14.416,15.463h-0.242c-0.828,0-1.499-0.671-1.499-1.499v-2.617h3.24v2.617C15.915,14.792,15.244,15.463,14.416,15.463
						z"/>
					<path d="M18.646,15.463h-0.242c-0.828,0-1.499-0.671-1.499-1.499v-2.617h3.24v2.617C20.145,14.792,19.474,15.463,18.646,15.463
						z"/>
					<path d="M22.897,15.463h-0.242c-0.828,0-1.499-0.671-1.499-1.499v-2.617h3.24v2.617C24.395,14.792,23.724,15.463,22.897,15.463
						z"/>
					<path d="M27.127,15.463h-0.242c-0.828,0-1.499-0.671-1.499-1.499v-2.617h3.24v2.617C28.626,14.792,27.954,15.463,27.127,15.463
						z"/>
					<path d="M31.377,15.463h-0.242c-0.828,0-1.499-0.671-1.499-1.499v-2.617h3.24v2.617C32.876,14.792,32.205,15.463,31.377,15.463
						z"/>
					<path d="M35.607,15.463h-0.242c-0.828,0-1.499-0.671-1.499-1.499v-2.617h3.24v2.617C37.106,14.792,36.435,15.463,35.607,15.463
						z"/>
					<path d="M39.857,15.463h-0.242c-0.828,0-1.499-0.671-1.499-1.499v-2.617h3.24v2.617C41.356,14.792,40.685,15.463,39.857,15.463
						z"/>
					<path d="M44.087,15.463h-0.242c-0.828,0-1.499-0.671-1.499-1.499v-2.617h3.24v2.617C45.586,14.792,44.915,15.463,44.087,15.463
						z"/>
					<path d="M48.337,15.463h-0.242c-0.828,0-1.499-0.671-1.499-1.499v-2.617h3.24v2.617C49.836,14.792,49.165,15.463,48.337,15.463
						z"/>
					<path d="M52.567,15.463h-0.242c-0.828,0-1.499-0.671-1.499-1.499v-2.617h3.24v2.617C54.066,14.792,53.395,15.463,52.567,15.463
						z"/>
					<path d="M56.817,15.463h-0.242c-0.828,0-1.499-0.671-1.499-1.499v-2.617h3.24v2.617C58.316,14.792,57.645,15.463,56.817,15.463
						z"/>
					<path d="M18.646,10.238h-0.242c-0.828,0-1.499-0.671-1.499-1.499V6.122h3.24v2.617C20.145,9.567,19.474,10.238,18.646,10.238z"
						/>
					<path d="M22.897,10.238h-0.242c-0.828,0-1.499-0.671-1.499-1.499V6.122h3.24v2.617C24.395,9.567,23.724,10.238,22.897,10.238z"
						/>
					<path d="M27.127,10.238h-0.242c-0.828,0-1.499-0.671-1.499-1.499V6.122h3.24v2.617C28.626,9.567,27.954,10.238,27.127,10.238z"
						/>
					<path d="M31.377,10.238h-0.242c-0.828,0-1.499-0.671-1.499-1.499V6.122h3.24v2.617C32.876,9.567,32.205,10.238,31.377,10.238z"
						/>
					<path d="M35.607,10.238h-0.242c-0.828,0-1.499-0.671-1.499-1.499V6.122h3.24v2.617C37.106,9.567,36.435,10.238,35.607,10.238z"
						/>
					<path d="M39.857,10.238h-0.242c-0.828,0-1.499-0.671-1.499-1.499V6.122h3.24v2.617C41.356,9.567,40.685,10.238,39.857,10.238z"
						/>
					<path d="M44.087,10.238h-0.242c-0.828,0-1.499-0.671-1.499-1.499V6.122h3.24v2.617C45.586,9.567,44.915,10.238,44.087,10.238z"
						/>
					<path d="M48.337,10.238h-0.242c-0.828,0-1.499-0.671-1.499-1.499V6.122h3.24v2.617C49.836,9.567,49.165,10.238,48.337,10.238z"
						/>
					<path d="M27.127,5.129h-0.242c-0.828,0-1.499-0.671-1.499-1.499V1.013h3.24V3.63C28.626,4.457,27.954,5.129,27.127,5.129z"/>
					<path d="M31.377,5.129h-0.242c-0.828,0-1.499-0.671-1.499-1.499V1.013h3.24V3.63C32.876,4.457,32.205,5.129,31.377,5.129z"/>
					<path d="M35.607,5.129h-0.242c-0.828,0-1.499-0.671-1.499-1.499V1.013h3.24V3.63C37.106,4.457,36.435,5.129,35.607,5.129z"/>
					<path d="M39.857,5.129h-0.242c-0.828,0-1.499-0.671-1.499-1.499V1.013h3.24V3.63C41.356,4.457,40.685,5.129,39.857,5.129z"/>
				</g>
				<g style="clip-path:url(#SVGID_2_);">
					<path style="fill:#F69652;" d="M10.166,15.115H9.924c-0.828,0-1.499-0.671-1.499-1.499v-2.617h3.24v2.617
						C11.665,14.444,10.994,15.115,10.166,15.115z"/>
					<path style="fill:#F47C27;" d="M14.416,15.115h-0.242c-0.828,0-1.499-0.671-1.499-1.499v-2.617h3.24v2.617
						C15.915,14.444,15.244,15.115,14.416,15.115z"/>
					<path style="fill:#F69652;" d="M18.646,15.115h-0.242c-0.828,0-1.499-0.671-1.499-1.499v-2.617h3.24v2.617
						C20.145,14.444,19.474,15.115,18.646,15.115z"/>
					<path style="fill:#F47C27;" d="M22.897,15.115h-0.242c-0.828,0-1.499-0.671-1.499-1.499v-2.617h3.24v2.617
						C24.395,14.444,23.724,15.115,22.897,15.115z"/>
					<path style="fill:#F69652;" d="M27.127,15.115h-0.242c-0.828,0-1.499-0.671-1.499-1.499v-2.617h3.24v2.617
						C28.626,14.444,27.954,15.115,27.127,15.115z"/>
					<path style="fill:#F47C27;" d="M31.377,15.115h-0.242c-0.828,0-1.499-0.671-1.499-1.499v-2.617h3.24v2.617
						C32.876,14.444,32.205,15.115,31.377,15.115z"/>
					<path style="fill:#F69652;" d="M35.607,15.115h-0.242c-0.828,0-1.499-0.671-1.499-1.499v-2.617h3.24v2.617
						C37.106,14.444,36.435,15.115,35.607,15.115z"/>
					<path style="fill:#F47C27;" d="M39.857,15.115h-0.242c-0.828,0-1.499-0.671-1.499-1.499v-2.617h3.24v2.617
						C41.356,14.444,40.685,15.115,39.857,15.115z"/>
					<path style="fill:#F69652;" d="M44.087,15.115h-0.242c-0.828,0-1.499-0.671-1.499-1.499v-2.617h3.24v2.617
						C45.586,14.444,44.915,15.115,44.087,15.115z"/>
					<path style="fill:#F47C27;" d="M48.337,15.115h-0.242c-0.828,0-1.499-0.671-1.499-1.499v-2.617h3.24v2.617
						C49.836,14.444,49.165,15.115,48.337,15.115z"/>
					<path style="fill:#F69652;" d="M52.567,15.115h-0.242c-0.828,0-1.499-0.671-1.499-1.499v-2.617h3.24v2.617
						C54.066,14.444,53.395,15.115,52.567,15.115z"/>
					<path style="fill:#F47C27;" d="M56.817,15.115h-0.242c-0.828,0-1.499-0.671-1.499-1.499v-2.617h3.24v2.617
						C58.316,14.444,57.645,15.115,56.817,15.115z"/>
					<path style="fill:#F69652;" d="M18.646,9.889h-0.242c-0.828,0-1.499-0.671-1.499-1.499V5.774h3.24v2.617
						C20.145,9.218,19.474,9.889,18.646,9.889z"/>
					<path style="fill:#F47C27;" d="M22.897,9.889h-0.242c-0.828,0-1.499-0.671-1.499-1.499V5.774h3.24v2.617
						C24.395,9.218,23.724,9.889,22.897,9.889z"/>
					<path style="fill:#F69652;" d="M27.127,9.889h-0.242c-0.828,0-1.499-0.671-1.499-1.499V5.774h3.24v2.617
						C28.626,9.218,27.954,9.889,27.127,9.889z"/>
					<path style="fill:#F47C27;" d="M31.377,9.889h-0.242c-0.828,0-1.499-0.671-1.499-1.499V5.774h3.24v2.617
						C32.876,9.218,32.205,9.889,31.377,9.889z"/>
					<path style="fill:#F69652;" d="M35.607,9.889h-0.242c-0.828,0-1.499-0.671-1.499-1.499V5.774h3.24v2.617
						C37.106,9.218,36.435,9.889,35.607,9.889z"/>
					<path style="fill:#F47C27;" d="M39.857,9.889h-0.242c-0.828,0-1.499-0.671-1.499-1.499V5.774h3.24v2.617
						C41.356,9.218,40.685,9.889,39.857,9.889z"/>
					<path style="fill:#F69652;" d="M44.087,9.889h-0.242c-0.828,0-1.499-0.671-1.499-1.499V5.774h3.24v2.617
						C45.586,9.218,44.915,9.889,44.087,9.889z"/>
					<path style="fill:#F47C27;" d="M48.337,9.889h-0.242c-0.828,0-1.499-0.671-1.499-1.499V5.774h3.24v2.617
						C49.836,9.218,49.165,9.889,48.337,9.889z"/>
					<path style="fill:#F69652;" d="M27.127,4.78h-0.242c-0.828,0-1.499-0.671-1.499-1.499V0.665h3.24v2.617
						C28.626,4.109,27.954,4.78,27.127,4.78z"/>
					<path style="fill:#F47C27;" d="M31.377,4.78h-0.242c-0.828,0-1.499-0.671-1.499-1.499V0.665h3.24v2.617
						C32.876,4.109,32.205,4.78,31.377,4.78z"/>
					<path style="fill:#F69652;" d="M35.607,4.78h-0.242c-0.828,0-1.499-0.671-1.499-1.499V0.665h3.24v2.617
						C37.106,4.109,36.435,4.78,35.607,4.78z"/>
					<path style="fill:#F47C27;" d="M39.857,4.78h-0.242c-0.828,0-1.499-0.671-1.499-1.499V0.665h3.24v2.617
						C41.356,4.109,40.685,4.78,39.857,4.78z"/>
				</g>
			</g>
		</g>
		<g>
			<rect x="2.779" y="19.121" style="fill:#FFE5CC;" width="61.182" height="28.575"/>
			<rect x="9.8" y="26.316" style="fill:#8C6239;" width="12.658" height="21.38"/>
			<rect x="11.076" y="27.805" style="fill:#42210B;" width="9.892" height="19.891"/>
			<g>
				<g>
					<path style="fill:#B27C52;" d="M51.497,24.619c0,0.159-0.129,0.288-0.288,0.288h-2.827c-0.159,0-0.288-0.129-0.288-0.288
						v-0.913c0-0.159,0.129-0.288,0.288-0.288h2.827c0.159,0,0.288,0.129,0.288,0.288V24.619z M51.284,23.784
						c0-0.084-0.068-0.153-0.153-0.153h-2.779c-0.085,0-0.153,0.068-0.153,0.153v0.864c0,0.084,0.068,0.153,0.153,0.153h2.779
						c0.084,0,0.153-0.068,0.153-0.153V23.784z"/>
				</g>
				<g>
					<path style="fill:#B27C52;" d="M52.986,26.214c0,0.159-0.129,0.288-0.288,0.288h-2.827c-0.159,0-0.288-0.129-0.288-0.288
						v-0.913c0-0.159,0.129-0.288,0.288-0.288h2.827c0.159,0,0.288,0.129,0.288,0.288V26.214z M52.88,25.273
						c0-0.085-0.068-0.153-0.153-0.153h-2.779c-0.085,0-0.153,0.068-0.153,0.153v0.864c0,0.084,0.068,0.153,0.153,0.153h2.779
						c0.084,0,0.153-0.068,0.153-0.153V25.273z"/>
				</g>
				<g>
					<path style="fill:#B27C52;" d="M55.114,24.619c0,0.159-0.129,0.288-0.288,0.288h-2.828c-0.159,0-0.288-0.129-0.288-0.288
						v-0.913c0-0.159,0.129-0.288,0.288-0.288h2.828c0.159,0,0.288,0.129,0.288,0.288V24.619z M54.901,23.784
						c0-0.084-0.068-0.153-0.153-0.153h-2.779c-0.084,0-0.153,0.068-0.153,0.153v0.864c0,0.084,0.068,0.153,0.153,0.153h2.779
						c0.084,0,0.153-0.068,0.153-0.153V23.784z"/>
				</g>
			</g>
			<g>
				<g>
					<path style="fill:#B27C52;" d="M37.821,44.643c0,0.159-0.129,0.288-0.288,0.288h-2.827c-0.159,0-0.288-0.129-0.288-0.288V43.73
						c0-0.159,0.129-0.288,0.288-0.288h2.827c0.159,0,0.288,0.129,0.288,0.288V44.643z M37.608,43.807
						c0-0.084-0.068-0.153-0.153-0.153h-2.779c-0.085,0-0.153,0.068-0.153,0.153v0.864c0,0.084,0.068,0.153,0.153,0.153h2.779
						c0.084,0,0.153-0.068,0.153-0.153V43.807z"/>
				</g>
				<g>
					<path style="fill:#B27C52;" d="M39.31,46.238c0,0.159-0.129,0.288-0.288,0.288h-2.827c-0.159,0-0.288-0.129-0.288-0.288v-0.913
						c0-0.159,0.129-0.288,0.288-0.288h2.827c0.159,0,0.288,0.129,0.288,0.288V46.238z M39.204,45.296
						c0-0.085-0.068-0.153-0.153-0.153h-2.779c-0.085,0-0.153,0.068-0.153,0.153v0.864c0,0.085,0.068,0.153,0.153,0.153h2.779
						c0.084,0,0.153-0.068,0.153-0.153V45.296z"/>
				</g>
				<g>
					<path style="fill:#B27C52;" d="M41.438,44.643c0,0.159-0.129,0.288-0.288,0.288h-2.828c-0.159,0-0.288-0.129-0.288-0.288V43.73
						c0-0.159,0.129-0.288,0.288-0.288h2.828c0.159,0,0.288,0.129,0.288,0.288V44.643z M41.225,43.807
						c0-0.084-0.068-0.153-0.153-0.153h-2.779c-0.084,0-0.153,0.068-0.153,0.153v0.864c0,0.084,0.068,0.153,0.153,0.153h2.779
						c0.084,0,0.153-0.068,0.153-0.153V43.807z"/>
				</g>
			</g>
			<g>
				<g>
					<path style="fill:#B27C52;" d="M18.461,22.145c0,0.159-0.129,0.288-0.288,0.288h-2.827c-0.159,0-0.288-0.129-0.288-0.288
						v-0.913c0-0.159,0.129-0.288,0.288-0.288h2.827c0.159,0,0.288,0.129,0.288,0.288V22.145z M18.248,21.31
						c0-0.084-0.069-0.153-0.153-0.153h-2.779c-0.084,0-0.153,0.068-0.153,0.153v0.864c0,0.084,0.069,0.153,0.153,0.153h2.779
						c0.084,0,0.153-0.068,0.153-0.153V21.31z"/>
				</g>
				<g>
					<path style="fill:#B27C52;" d="M20.057,23.741c0,0.159-0.129,0.288-0.288,0.288h-2.827c-0.159,0-0.288-0.129-0.288-0.288
						v-0.913c0-0.159,0.129-0.288,0.288-0.288h2.827c0.159,0,0.288,0.129,0.288,0.288V23.741z M19.95,22.799
						c0-0.084-0.069-0.153-0.153-0.153h-2.779c-0.085,0-0.153,0.069-0.153,0.153v0.864c0,0.084,0.069,0.153,0.153,0.153h2.779
						c0.085,0,0.153-0.069,0.153-0.153V22.799z"/>
				</g>
				<g>
					<path style="fill:#B27C52;" d="M22.078,22.145c0,0.159-0.129,0.288-0.288,0.288h-2.828c-0.159,0-0.288-0.129-0.288-0.288
						v-0.913c0-0.159,0.129-0.288,0.288-0.288h2.828c0.159,0,0.288,0.129,0.288,0.288V22.145z M21.865,21.31
						c0-0.084-0.068-0.153-0.153-0.153h-2.779c-0.084,0-0.153,0.068-0.153,0.153v0.864c0,0.084,0.068,0.153,0.153,0.153h2.779
						c0.084,0,0.153-0.068,0.153-0.153V21.31z"/>
				</g>
			</g>
			<g>
				<g>
					<rect x="29.654" y="28.778" style="fill:#603813;" width="12.215" height="12.215"/>
					<g>
						<g>
							<rect x="30.647" y="29.787" style="fill:#4FB1ED;" width="4.712" height="4.712"/>
						</g>
						<g>
							<rect x="36.164" y="29.787" style="fill:#4FB1ED;" width="4.712" height="4.712"/>
						</g>
						<g>
							<rect x="30.647" y="35.271" style="fill:#4FB1ED;" width="4.712" height="4.712"/>
						</g>
						<g>
							<rect x="36.164" y="35.271" style="fill:#4FB1ED;" width="4.712" height="4.712"/>
						</g>
					</g>
					<g>
						<polygon style="fill:#76CAF4;" points="30.647,32.411 30.647,33.858 34.417,29.787 33.077,29.787 						"/>
						<polygon style="fill:#76CAF4;" points="34.924,29.787 30.647,34.405 30.647,34.5 30.993,34.5 35.359,29.787 						"/>
						<polygon style="fill:#76CAF4;" points="36.164,32.411 36.164,33.858 39.935,29.787 38.595,29.787 						"/>
						<polygon style="fill:#76CAF4;" points="40.442,29.787 36.164,34.405 36.164,34.5 36.511,34.5 40.877,29.787 						"/>
						<polygon style="fill:#76CAF4;" points="30.647,37.895 30.647,39.341 34.417,35.271 33.077,35.271 						"/>
						<polygon style="fill:#76CAF4;" points="34.924,35.271 30.647,39.889 30.647,39.983 30.993,39.983 35.359,35.271 						"/>
						<polygon style="fill:#76CAF4;" points="36.164,37.895 36.164,39.341 39.935,35.271 38.595,35.271 						"/>
						<polygon style="fill:#76CAF4;" points="40.442,35.271 36.164,39.889 36.164,39.983 36.511,39.983 40.877,35.271 						"/>
					</g>
				</g>
				<rect x="28.84" y="40.993" style="fill:#8C6239;" width="13.843" height="1.133"/>
				<g>
					<path d="M34.624,34.182L34.624,34.182c0.075,0.015,0.131,0.081,0.131,0.16v1.507h-0.327l0,0v-1.506v0
						c0-0.09,0.073-0.163,0.163-0.163C34.603,34.179,34.614,34.18,34.624,34.182z"/>
					<path d="M36.964,34.182L36.964,34.182c0.075,0.015,0.131,0.081,0.131,0.16v1.507h-0.327l0,0v-1.506v0
						c0-0.09,0.073-0.163,0.163-0.163C36.942,34.179,36.953,34.18,36.964,34.182z"/>
				</g>
			</g>
			<g>
				<g>
					<rect x="47.57" y="28.778" style="fill:#603813;" width="12.215" height="12.215"/>
					<g>
						<g>
							<rect x="48.562" y="29.787" style="fill:#4FB1ED;" width="4.712" height="4.712"/>
						</g>
						<g>
							<rect x="54.08" y="29.787" style="fill:#4FB1ED;" width="4.712" height="4.712"/>
						</g>
						<g>
							<rect x="48.562" y="35.271" style="fill:#4FB1ED;" width="4.712" height="4.712"/>
						</g>
						<g>
							<rect x="54.08" y="35.271" style="fill:#4FB1ED;" width="4.712" height="4.712"/>
						</g>
					</g>
					<g>
						<polygon style="fill:#76CAF4;" points="48.562,32.411 48.562,33.858 52.333,29.787 50.993,29.787 						"/>
						<polygon style="fill:#76CAF4;" points="52.84,29.787 48.562,34.405 48.562,34.5 48.909,34.5 53.274,29.787 						"/>
						<polygon style="fill:#76CAF4;" points="54.08,32.411 54.08,33.858 57.851,29.787 56.511,29.787 						"/>
						<polygon style="fill:#76CAF4;" points="58.358,29.787 54.08,34.405 54.08,34.5 54.427,34.5 58.792,29.787 						"/>
						<polygon style="fill:#76CAF4;" points="48.562,37.895 48.562,39.341 52.333,35.271 50.993,35.271 						"/>
						<polygon style="fill:#76CAF4;" points="52.84,35.271 48.562,39.889 48.562,39.983 48.909,39.983 53.274,35.271 						"/>
						<polygon style="fill:#76CAF4;" points="54.08,37.895 54.08,39.341 57.851,35.271 56.511,35.271 						"/>
						<polygon style="fill:#76CAF4;" points="58.358,35.271 54.08,39.889 54.08,39.983 54.427,39.983 58.792,35.271 						"/>
					</g>
				</g>
				<rect x="46.756" y="40.993" style="fill:#8C6239;" width="13.843" height="1.133"/>
				<g>
					<path d="M52.54,34.182L52.54,34.182c0.075,0.015,0.131,0.081,0.131,0.16v1.507h-0.327l0,0v-1.506v0
						c0-0.09,0.073-0.163,0.163-0.163C52.519,34.179,52.529,34.18,52.54,34.182z"/>
					<path d="M54.879,34.182L54.879,34.182c0.075,0.015,0.131,0.081,0.131,0.16v1.507h-0.327l0,0v-1.506v0
						c0-0.09,0.073-0.163,0.163-0.163C54.858,34.179,54.869,34.18,54.879,34.182z"/>
				</g>
			</g>
			<rect x="2.779" y="19.121" style="opacity:0.3;fill:#42210B;" width="61.182" height="2.621"/>
		</g>
	</g>
</g>
</svg>
