<?xml version="1.0" encoding="utf-8"?>
<!-- Generator: Adobe Illustrator 21.0.0, SVG Export Plug-In . SVG Version: 6.00 Build 0)  -->
<svg version="1.1" id="Capa_1" xmlns="http://www.w3.org/2000/svg" xmlns:xlink="http://www.w3.org/1999/xlink" x="0px" y="0px"
	 viewBox="0 0 355.937 405.839" style="enable-background:new 0 0 355.937 405.839;" xml:space="preserve">
<g>
	<path style="opacity:0.3;" d="M106.34,405.839c-38.253,0-69.375-31.121-69.375-69.375c0-28.313,17.161-53.611,43.115-64.212
		l-12.208-83.346C30.309,188.104,0,157.298,0,119.547c0-38.253,31.122-69.375,69.375-69.375c28.497,0,53.802,17.258,64.329,43.395
		l83.498-18.632C217.971,37.343,248.79,7,286.562,7c38.253,0,69.375,31.122,69.375,69.375s-31.122,69.375-69.375,69.375
		c-27.979,0-53.12-16.85-63.902-42.364l-83.958,18.735c-1,26.927-17.617,50.908-42.359,61.348l12.254,83.655
		c37.214,1.193,67.119,31.84,67.119,69.339C175.715,374.718,144.594,405.839,106.34,405.839z"/>
	<path style="fill:#0DA401;" d="M106.34,398.838c-38.253,0-69.375-31.121-69.375-69.375c0-28.313,17.161-53.611,43.115-64.212
		l-12.208-83.346C30.309,181.104,0,150.298,0,112.546c0-38.253,31.122-69.375,69.375-69.375c28.497,0,53.802,17.258,64.329,43.395
		l83.498-18.632C217.971,30.342,248.79,0,286.562,0c38.253,0,69.375,31.122,69.375,69.375s-31.122,69.375-69.375,69.375
		c-27.979,0-53.12-16.85-63.902-42.364l-83.958,18.735c-1,26.927-17.617,50.908-42.359,61.348l12.254,83.655
		c37.214,1.193,67.119,31.84,67.119,69.339C175.715,367.717,144.594,398.838,106.34,398.838z"/>
	<path style="fill:#FFFFFF;" d="M286.562,5c-35.553,0-64.375,28.822-64.375,64.375c0,0.857,0.031,1.706,0.065,2.555l-91.735,20.47
		c-8.458-25.682-32.627-44.229-61.141-44.229C33.822,48.172,5,76.993,5,112.547s28.822,64.375,64.375,64.375
		c0.942,0,1.877-0.031,2.81-0.071l13.427,91.668c-25.379,8.63-43.647,32.646-43.647,60.944c0,35.553,28.822,64.375,64.375,64.375
		s64.375-28.822,64.375-64.375c0-35.553-28.822-64.375-64.375-64.375c-0.692,0-1.376,0.03-2.063,0.052l-13.46-91.891
		c25.008-8.835,42.932-32.67,42.932-60.703c0-0.481-0.026-0.956-0.036-1.435l92.061-20.543
		c8.764,25.138,32.661,43.181,60.787,43.181c35.553,0,64.375-28.822,64.375-64.375S322.115,5,286.562,5z"/>
	<path style="fill:#00A5F5;" d="M122.912,318.394c-10.134-16.988-14.257-22.299-16.606-36.537
		c-2.351,14.238-6.341,19.55-16.475,36.537c-5.271,8.842-12.744,22.067-10.95,34.645c1.793,12.581,12.111,24.031,27.425,24.031
		c15.672,0,25.699-11.449,27.493-24.031C135.59,340.46,128.183,327.236,122.912,318.394z M88.829,337.34
		c1.576,0,2.854,1.278,2.854,2.854c0,1.576-1.278,2.854-2.854,2.854c-1.576,0-2.854-1.278-2.854-2.854
		C85.974,338.618,87.252,337.34,88.829,337.34z M107.84,371.33c-12.934,0-23.456-10.523-23.456-23.459
		c0-1.531,1.242-2.775,2.775-2.775c1.533,0,2.776,1.245,2.776,2.775c0,9.876,8.032,17.907,17.905,17.907
		c1.533,0,2.776,1.241,2.776,2.776C110.616,370.089,109.373,371.33,107.84,371.33z"/>
	<g>
		<rect x="246.906" y="96.844" style="fill:#333333;" width="45.91" height="12.223"/>
		<rect x="313.995" y="29.683" style="fill:#333333;" width="12.223" height="45.91"/>
		<path style="fill:#666666;" d="M303.412,36.243c-27.581,0-50.019,22.438-50.019,50.018h0.073l-3.28,7.303h39.35l-3.28-7.303
			h-0.062c0-9.494,7.724-17.217,17.218-17.217v-0.011l7.303,3.28v-39.35L303.412,36.243z M299.984,65.301
			c-9.367,0-16.984,7.618-16.984,16.982c0,1.454-1.178,2.633-2.633,2.633c-1.455,0-2.632-1.179-2.632-2.633
			c0-12.267,9.98-22.247,22.249-22.247c1.452,0,2.632,1.178,2.632,2.632C302.616,64.122,301.435,65.301,299.984,65.301z"/>
	</g>
	<g>
		<path style="fill:#1A1A1A;" d="M75.308,156.607H62.303c-0.646,0-1.186-1.508-1.306-2.119h15.617
			C76.494,155.098,75.954,156.607,75.308,156.607z"/>
		<rect x="60.935" y="148.578" style="fill:#1A1A1A;" width="15.705" height="1.741"/>
		<rect x="60.935" y="151.533" style="fill:#1A1A1A;" width="15.705" height="1.741"/>
		<path style="fill:#1A1A1A;" d="M68.787,160.153c-1.577-0.001-2.935-0.964-3.513-2.333h7.026
			C71.723,159.189,70.365,160.153,68.787,160.153z"/>
		<path style="fill:#FFD30E;" d="M91.306,91.279c-0.516,1.997-2.652,3.257-4.647,2.74l-36.474-9.412
			c-0.987-0.254-1.816-0.878-2.333-1.756c-0.518-0.878-0.663-1.905-0.408-2.892c0.436-1.685,1.954-2.863,3.692-2.863
			c0.321,0,0.643,0.041,0.957,0.122l36.472,9.412C90.601,87.157,91.83,89.242,91.306,91.279z"/>
		<path style="fill:#FFD30E;" d="M86.659,83.235l-20.074-5.181c-1.468-0.379-2.572-1.589-2.813-3.084l-0.909-5.605
			c-0.164-1.006,0.075-2.016,0.672-2.842c0.595-0.826,1.478-1.371,2.484-1.534c0.207-0.034,0.414-0.05,0.617-0.05
			c1.878,0,3.458,1.348,3.759,3.205l0.51,3.143l17.659,4.557c0.986,0.255,1.816,0.878,2.333,1.757
			c0.518,0.878,0.663,1.905,0.409,2.891C90.79,82.492,88.654,83.752,86.659,83.235z"/>
		<path style="fill:#FFD30E;" d="M77.7,125.593h-7.63v-9.189c0-0.96,0.358-1.879,1.011-2.586l1.676-1.817l-22.572-5.824
			c-2.037-0.526-3.266-2.611-2.741-4.648c0.515-1.996,2.633-3.26,4.648-2.74l36.472,9.412c1.629,0.421,2.805,1.89,2.86,3.572
			c0.055,1.681-1.022,3.223-2.622,3.747L77.7,119.167V125.593z"/>
		<path style="fill:#FFD30E;" d="M51.135,87.881c0.321,0,0.642,0.041,0.957,0.122l36.472,9.412c2.036,0.526,3.266,2.611,2.741,4.649
			c-0.516,1.997-2.626,3.261-4.65,2.741l-36.471-9.413c-2.037-0.526-3.266-2.611-2.741-4.648
			C47.88,89.058,49.398,87.881,51.135,87.881z"/>
		<path style="fill:#FFD30E;" d="M52.823,110.032l12.353,6.08c1.315,0.646,2.131,1.958,2.131,3.423v6.058h-7.63v-3.684l-10.223-5.03
			c-1.888-0.929-2.668-3.221-1.739-5.108C48.619,109.931,50.962,109.118,52.823,110.032z"/>
		<path style="fill:#4D4D4D;" d="M84.711,128.551H52.864v7.82c0,6.061,4.75,10.993,10.588,10.993h10.673
			c5.837,0,10.585-4.931,10.585-10.993V128.551z M82.018,134.883c0,5.674-4.615,10.289-10.288,10.289
			c-0.672,0-1.218-0.544-1.218-1.217c0-0.673,0.545-1.218,1.218-1.218c4.33,0,7.853-3.522,7.853-7.854
			c0-0.671,0.545-1.217,1.218-1.217C81.473,133.666,82.018,134.212,82.018,134.883z"/>
	</g>
</g>
</svg>
