<?xml version="1.0" encoding="utf-8"?>
<!-- Generator: Adobe Illustrator 21.0.0, SVG Export Plug-In . SVG Version: 6.00 Build 0)  -->
<svg version="1.1" id="Capa_1" xmlns="http://www.w3.org/2000/svg" xmlns:xlink="http://www.w3.org/1999/xlink" x="0px" y="0px"
	 viewBox="0 0 270.091 380.015" style="enable-background:new 0 0 270.091 380.015;" xml:space="preserve">
<g>
	<g style="opacity:0.2;">
		<path style="fill-rule:evenodd;clip-rule:evenodd;" d="M3.158,65.428c2.312,4.226,5.464,4.858,7.136,4.858
			c0.001,0,0.002,0,0.003,0c6.386,0,9.46-7.879,11.705-13.632c0.16-0.409,0.299-0.769,0.419-1.061
			c0.302-0.742,0.433-1.541,0.384-2.336c0.173-1.174,1.424-4.612,2.262-6.914c2.456-6.751,4.972-13.666,3.512-18.247
			c0.124-0.431,0.218-0.828,0.3-1.182c0.314-0.152,0.649-0.309,0.922-0.437c1.74-0.816,3.288-1.55,4.492-2.578
			c-2.992,5.495-3.412,15.131,0.703,20.329c0.876,1.107,3.543,4.474,7.797,4.474c3.931,0,6.946-2.78,10.198-6.136
			c1.261-1.301,12.181-12.909,7.144-19.727c-0.654-0.897-1.575-1.558-2.609-1.91c-0.927-3.168-2.454-6.381-4.08-8.131
			c-0.595-0.695-1.347-1.233-2.214-1.574c-0.639-0.253-1.3-0.373-1.951-0.373c-1.956,0-3.824,1.084-4.754,2.926
			c-0.164,0.324-0.281,0.659-0.374,0.997c-1.266,1.197-3.672,3.126-4.966,4.162c-1.537,1.23-2.464,1.981-3.107,2.582
			c0.535-1.255,0.631-2.656,0.223-3.972c-0.843-2.715-3.25-3.811-4.664-4.286c-3.808-2.519-6.681-3.966-9.724-3.966
			c-5.692,0-8.278,4.468-11.858,10.651l-0.5,0.864c-0.376,0.648-9.161,15.958-5.353,24.47c0.31,0.693,0.691,1.328,1.135,1.899
			C3.497,52.842,1.213,61.878,3.158,65.428z"/>
		<path style="fill-rule:evenodd;clip-rule:evenodd;" d="M269.887,257.154c-0.029-0.133-0.07-0.324-0.122-0.569
			c-4.121-19.414-9.507-31.2-16.351-35.675c2.933-1.887,8.059-5.403,4.86-14.962c-0.935-2.794-2.109-5.007-3.245-7.148
			c-0.823-1.551-1.601-3.017-2.237-4.63c-0.689-1.745-1.131-3.457-1.393-5.389c-0.098-0.721-0.207-1.465-0.318-2.225
			c-0.131-0.896-0.265-1.815-0.388-2.749c-0.003-0.03-0.011-0.098-0.011-0.098c-0.236-1.838-0.353-3.312-0.37-4.638
			c-0.002-0.088-0.005-0.176-0.01-0.264c-0.002-1.41,0.118-2.803,0.452-4.086c0.254-0.973,1.974-3.734,3.113-5.562
			c3.085-4.95,5.999-9.625,5.556-14.025c-0.738-7.347-5.342-11.561-12.63-11.561c-3.332,0-6.852,0.827-10.258,1.627
			c-2.716,0.638-5.526,1.298-7.486,1.298l-0.247-0.001c-1.932,0-3.691,0.084-5.392,0.166c-1.416,0.068-2.753,0.132-3.975,0.132
			c-3.55,0.001-5.463-0.552-7.308-2.113c-1.846-1.561-3.37-3.806-4.982-6.183c-2.359-3.475-5.031-7.413-9.327-9.808
			c-2.238-1.248-10.604-3.294-12.315-3.521c-0.892-0.118-1.826-0.176-2.855-0.176c-2.677,0-5.489,0.401-8.207,0.788
			c-2.516,0.359-4.891,0.698-6.91,0.698c-0.218,0-0.433-0.004-0.647-0.013c-0.878-0.037-1.82-0.043-2.788-0.048
			c-1.761-0.009-3.581-0.018-4.97-0.26c-0.522-0.091-0.839-0.186-1.015-0.249c-2.559-2.503-4.983-5.223-6.185-6.571
			c-0.026-0.03-0.052-0.059-0.077-0.087c0.027-0.708,0.357-2.42,2.164-6.142c0.476-0.981,0.888-1.827,0.895-3.099
			c0.027-4.732-1.774-7.893-3.221-10.433c-0.603-1.058-1.172-2.058-1.601-3.137c-0.243-0.61-0.509-1.305-0.797-2.055
			c-3.339-8.696-6.121-15.104-10.832-17.084c1.507-1.98,2.854-3.883,3.555-5.815c0.994-2.743,1.368-5.532,1.699-7.992
			c0.308-2.295,0.599-4.463,1.325-6.24c1.358-3.32,3.975-7.257,6.284-10.151c0.497,0.05,0.971,0.093,1.431,0.093
			c2.174,0,3.518-0.997,4.263-1.834c1.404-1.577,2.147-3.416,2.743-4.894c0.237-0.586,0.588-1.457,0.802-1.77
			c3.82-3.199,5.944-4.069,11.614-5.811c0.274,0.029,0.55,0.044,0.825,0.044c3.58,0,6.594-2.463,7.866-6.427
			c1.555-4.848,0.574-11.884-4.307-15.375C173.572,8.995,170.949,8,168.3,8c-4.188,0-7.077,2.57-8.917,4.594
			c-1.95,1.639-14.395,10.102-16.1,11.226c-2.14,1.251-4.521,2.996-6.823,4.687c-1.595,1.17-3.779,2.772-4.546,3.146
			c-1.027,0.499-2.105,0.722-3.495,0.722c-1.186,0-2.48-0.161-3.849-0.331c-1.607-0.2-3.268-0.406-5.065-0.406
			c-1.296,0-2.489,0.108-3.646,0.331c-4.523,0.87-6.982,2.503-8.261,5.551c-0.353,0.102-0.729,0.15-1.159,0.15
			c-0.907,0-1.968-0.21-3.091-0.432c-1.355-0.268-2.892-0.572-4.527-0.572c-1.079,0-2.073,0.127-3.039,0.39
			c-2.989,0.814-5.701,3.121-8.092,5.156c-0.482,0.41-0.933,0.796-1.338,1.119c-1.318,1.052-4.799,4.768-7.45,7.953
			c-4.373,5.254-7.749,9.945-4.752,14.147c0.344,0.481,0.757,0.892,1.216,1.224c-0.028,0.193-0.06,0.373-0.095,0.534
			c-1.485,0.886-2.482,2.465-2.587,4.261c-0.042,0.714,0.06,1.411,0.285,2.057c-1,0.427-1.979,0.815-2.613,1.067
			c-2.046,0.811-3.282,1.301-4.24,2.032c-0.335,0.253-0.435,0.353-1.388,1.31c-1.167,1.17-3.592,3.603-6.221,6.096
			c-0.004,0.004-0.008,0.008-0.012,0.012c-6.302,5.977-8.374,7.184-8.749,7.376c-0.505,0.17-0.973,0.413-1.393,0.713
			c-1.923-2.344-3.778-3.659-6.19-3.707c-0.035-0.001-0.07-0.001-0.105-0.001c-1.374,0-2.697,0.532-3.689,1.486
			c-3.977,3.826-2.09,12.51,0.718,18.426c-0.481,0.438-1.007,0.925-1.583,1.468c-0.161,0.152-0.318,0.3-0.471,0.445
			c-0.737-0.363-1.542-0.545-2.348-0.545c-1.197,0-2.398,0.403-3.384,1.215c-1.345,1.109-2.019,2.757-1.93,4.398
			c-0.31,0.557-0.993,1.62-2.45,3.394c-0.414,0.505-1.515,1.845-1.364,4.01c0.22,2.792,2.067,5.821,5.584,11.376
			c1.175,1.854,2.927,4.621,3.915,6.504c-0.17,0.371-0.3,0.766-0.383,1.178c-0.498,0.587-0.874,1.289-1.082,2.071
			c-1.364,5.117,1.482,8.379,3.011,10.132c0.079,0.09,0.167,0.192,0.258,0.297c-0.959,1.17-2.341,2.69-2.912,3.317
			c-1.338,1.472-3.83,4.213-1.713,7.649c1.996,3.254,4.103,7.19,3.841,12.695c-0.106,0.99-1.426,3.859-2.061,5.238
			c-1.397,3.036-2.362,5.13-1.519,7.47c1.588,5.675,3.325,8.364,3.81,9.038l-0.016,0.014c0.636,0.727,1.446,1.264,2.341,1.569
			c0.021,0.171,0.04,0.318,0.055,0.444c-0.477,0.807-2.282,2.324-3.504,3.351c-2.924,2.458-6.562,5.518-7.971,9.975
			c-0.028,0.088-0.053,0.177-0.077,0.266c-0.302,0.781-0.586,1.652-0.894,2.598c-0.002,0.007-0.004,0.014-0.006,0.021
			c-5.837,0.571-16.709,2.56-20.637,9.473c-1.289,2.268-2.274,5.761-0.514,10.259c-0.581,0.53-1.091,0.909-1.555,1.253
			c-6.188,4.593-2.848,9.344-0.41,12.812c2.985,4.247,7.112,5.742,9.843,6.731c0.332,0.12,0.732,0.265,1.06,0.394
			c0.08,0.174,0.161,0.356,0.228,0.506c0.77,1.723,1.728,3.868,3.941,5.067c2.564,1.389,5.467,1.842,8.027,2.242
			c1.001,0.156,2.483,0.388,3.057,0.597c0.18,0.251,0.635,1.402,0.42,3.966c-0.386,4.774,3.91,5.746,7.699,6.603
			c2.333,0.528,5.315,1.137,8.182,1.673c0.015,0.003,0.028,0.005,0.042,0.008c6.041,1.126,10.226,1.697,12.441,1.697
			c1.077,0,1.905-0.122,2.685-0.397c1.086-0.383,1.996-1.097,2.623-2.013c0.465,0.288,0.94,0.58,1.43,0.859
			c0.17,0.239,0.409,0.616,0.581,0.889c0.89,1.406,1.998,3.155,3.943,4.309c3.922,2.327,8.112,2.754,11.479,3.097
			c1.836,0.187,3.57,0.363,4.696,0.795c6.767,2.595,10.859,6.959,12.876,13.736c1.568,5.255,6.994,7.328,11.354,8.994
			c1.588,0.607,4.247,1.623,4.797,2.207c1.176,1.701,1.493,2.909,1.828,4.187c0.984,3.746,2.715,6.44,7.494,7.213
			c-0.103,1.235-0.362,2.72-0.473,3.36c-0.345,1.975-0.643,3.681,0.448,5.526c2.049,3.464,5.235,5.22,9.469,5.22
			c0.594,0,1.19-0.032,1.779-0.066c0.37-0.021,0.735-0.046,1.089-0.046c0.194,0,0.285,0.01,0.292,0.01c0.001,0,0.001-0.001,0-0.001
			c0.216,0.047,0.879,0.245,1.413,0.405c2.521,0.754,6.329,1.894,9.89,1.894c1.108,0,2.149-0.112,3.094-0.334
			c1.546-0.362,2.629-1.095,8.277-5.597c0.114-0.091,0.232-0.185,0.351-0.28c6.877,2.745,19.727,6.705,27.236,8.95
			c-1.77,3.081-5.043,8.384-11.087,17.419l-0.426,0.638c-1.032,1.556-1.175,3.539-0.373,5.226c0.8,1.687,2.427,2.831,4.286,3.015
			c6.945,0.685,10.89,2.596,11.722,5.682c0.614,2.276,2.653,3.876,5.009,3.933c0.044,0.001,0.086,0.002,0.13,0.002
			c2.305,0,4.354-1.486,5.064-3.689c4.543-14.085,6.993-29.29,9.363-43.994c0.703-4.36,1.429-8.869,2.189-13.188
			c2.555-14.539-6.174-27.989-7.921-30.501c-0.433-0.775-0.948-1.591-1.491-2.45c-3.301-5.233-4.804-8.59-3.181-11.066
			c0.346-0.137,1.379-0.437,3.761-0.437c2.258,0,4.741,0.262,6.933,0.493c1.756,0.185,3.273,0.345,4.483,0.345
			c0.334,0,0.637-0.012,0.906-0.034c3.107-0.249,5.353-2.853,5.226-6.057c-0.18-4.48-6.554-13.675-13.753-15.885
			c1.588,0.115,3.318,0.171,5.209,0.171c4.362,0,8.874-0.293,13.239-0.576c3.648-0.236,7.092-0.46,9.836-0.46
			c0.294,0,0.931,0.009,0.967,0.009c1.77,0,3.384-0.876,4.36-2.271c4.086-0.11,6.708-3.217,8.822-5.722
			c0.448-0.531,1.065-1.262,1.628-1.848c1.191,3.048,2.206,8.773,1.953,10.983c-1.006,2.08-0.269,4.003,0.446,5.868
			c0.16,0.416,0.331,0.847,0.439,1.166c0.455,2.426,2.561,4.283,5.126,4.334c0.035,0.001,0.144,0.002,0.144,0.002
			c2.428,0,6.37-1.389,7.046-1.662c1.886-0.763,3.172-2.534,3.314-4.563C270.122,258.356,270.053,257.739,269.887,257.154z"/>
	</g>
	<g>
		<path style="fill-rule:evenodd;clip-rule:evenodd;fill:#FFFFFF;" d="M3.158,57.428c2.312,4.226,5.464,4.858,7.136,4.858
			c0.001,0,0.002,0,0.003,0c6.386,0,9.46-7.879,11.705-13.632c0.16-0.409,0.299-0.769,0.419-1.061
			c0.302-0.742,0.433-1.541,0.384-2.336c0.173-1.174,1.424-4.612,2.262-6.914c2.456-6.751,4.972-13.666,3.512-18.247
			c0.124-0.431,0.218-0.828,0.3-1.182c0.314-0.152,0.649-0.309,0.922-0.437c1.74-0.816,3.288-1.55,4.492-2.578
			c-2.992,5.495-3.412,15.131,0.703,20.329c0.876,1.107,3.543,4.474,7.797,4.474c3.931,0,6.946-2.78,10.198-6.136
			c1.261-1.301,12.181-12.909,7.144-19.727c-0.654-0.897-1.575-1.558-2.609-1.91c-0.927-3.168-2.454-6.381-4.08-8.131
			c-0.595-0.695-1.347-1.233-2.214-1.574c-0.639-0.253-1.3-0.373-1.951-0.373c-1.956,0-3.824,1.084-4.754,2.926
			c-0.164,0.324-0.281,0.659-0.374,0.997C42.89,7.972,40.484,9.9,39.19,10.937c-1.537,1.23-2.464,1.981-3.107,2.582
			c0.535-1.255,0.631-2.656,0.223-3.972c-0.843-2.715-3.25-3.811-4.664-4.286c-3.808-2.519-6.681-3.966-9.724-3.966
			c-5.692,0-8.278,4.468-11.858,10.651l-0.5,0.864c-0.376,0.648-9.161,15.958-5.353,24.47c0.31,0.693,0.691,1.328,1.135,1.899
			C3.497,44.842,1.213,53.878,3.158,57.428z"/>
		<path style="fill-rule:evenodd;clip-rule:evenodd;fill:#FFFFFF;" d="M269.887,249.154c-0.029-0.133-0.07-0.324-0.122-0.569
			c-4.121-19.414-9.507-31.2-16.351-35.675c2.933-1.887,8.059-5.403,4.86-14.962c-0.935-2.794-2.109-5.007-3.245-7.148
			c-0.823-1.551-1.601-3.017-2.237-4.63c-0.689-1.745-1.131-3.457-1.393-5.389c-0.098-0.721-0.207-1.465-0.318-2.225
			c-0.131-0.896-0.265-1.815-0.388-2.749c-0.003-0.03-0.011-0.098-0.011-0.098c-0.236-1.838-0.353-3.312-0.37-4.638
			c-0.002-0.088-0.005-0.176-0.01-0.264c-0.002-1.41,0.118-2.803,0.452-4.086c0.254-0.973,1.974-3.734,3.113-5.562
			c3.085-4.95,5.999-9.625,5.556-14.025c-0.738-7.347-5.342-11.561-12.63-11.561c-3.332,0-6.852,0.827-10.258,1.627
			c-2.716,0.638-5.526,1.298-7.486,1.298l-0.247-0.001c-1.932,0-3.691,0.084-5.392,0.166c-1.416,0.068-2.753,0.132-3.975,0.132
			c-3.55,0.001-5.463-0.552-7.308-2.113c-1.846-1.561-3.37-3.806-4.982-6.183c-2.359-3.475-5.031-7.413-9.327-9.808
			c-2.238-1.248-10.604-3.294-12.315-3.521c-0.892-0.118-1.826-0.176-2.855-0.176c-2.677,0-5.489,0.401-8.207,0.788
			c-2.516,0.359-4.891,0.698-6.91,0.698c-0.218,0-0.433-0.004-0.647-0.013c-0.878-0.037-1.82-0.043-2.788-0.048
			c-1.761-0.009-3.581-0.018-4.97-0.26c-0.522-0.091-0.839-0.186-1.015-0.249c-2.559-2.503-4.983-5.223-6.185-6.571
			c-0.026-0.03-0.052-0.059-0.077-0.087c0.027-0.708,0.357-2.42,2.164-6.142c0.476-0.981,0.888-1.827,0.895-3.099
			c0.027-4.732-1.774-7.893-3.221-10.433c-0.603-1.058-1.172-2.058-1.601-3.137c-0.243-0.61-0.509-1.305-0.797-2.055
			c-3.339-8.696-6.121-15.104-10.832-17.084c1.507-1.98,2.854-3.883,3.555-5.815c0.994-2.743,1.368-5.532,1.699-7.992
			c0.308-2.295,0.599-4.463,1.325-6.24c1.358-3.32,3.975-7.257,6.284-10.151c0.497,0.05,0.971,0.093,1.431,0.093
			c2.174,0,3.518-0.997,4.263-1.834c1.404-1.577,2.147-3.416,2.743-4.894c0.237-0.586,0.588-1.457,0.802-1.77
			c3.82-3.199,5.944-4.069,11.614-5.811c0.274,0.029,0.55,0.044,0.825,0.044c3.58,0,6.594-2.463,7.866-6.427
			c1.555-4.848,0.574-11.884-4.307-15.375C173.572,0.995,170.949,0,168.3,0c-4.188,0-7.077,2.57-8.917,4.594
			c-1.95,1.639-14.395,10.102-16.1,11.226c-2.14,1.251-4.521,2.996-6.823,4.687c-1.595,1.17-3.779,2.772-4.546,3.146
			c-1.027,0.499-2.105,0.722-3.495,0.722c-1.186,0-2.48-0.161-3.849-0.331c-1.607-0.2-3.268-0.406-5.065-0.406
			c-1.296,0-2.489,0.108-3.646,0.331c-4.523,0.87-6.982,2.503-8.261,5.551c-0.353,0.102-0.729,0.15-1.159,0.15
			c-0.907,0-1.968-0.21-3.091-0.432c-1.355-0.268-2.892-0.572-4.527-0.572c-1.079,0-2.073,0.127-3.039,0.39
			c-2.989,0.814-5.701,3.121-8.092,5.156c-0.482,0.41-0.933,0.796-1.338,1.119c-1.318,1.052-4.799,4.768-7.45,7.953
			c-4.373,5.254-7.749,9.945-4.752,14.147c0.344,0.481,0.757,0.892,1.216,1.224c-0.028,0.193-0.06,0.373-0.095,0.534
			c-1.485,0.886-2.482,2.465-2.587,4.261c-0.042,0.714,0.06,1.411,0.285,2.057c-1,0.427-1.979,0.815-2.613,1.067
			c-2.046,0.811-3.282,1.301-4.24,2.032c-0.335,0.253-0.435,0.353-1.388,1.31c-1.167,1.17-3.592,3.603-6.221,6.096
			c-0.004,0.004-0.008,0.008-0.012,0.012c-6.302,5.977-8.374,7.184-8.749,7.376c-0.505,0.17-0.973,0.413-1.393,0.713
			c-1.923-2.344-3.778-3.659-6.19-3.707c-0.035-0.001-0.07-0.001-0.105-0.001c-1.374,0-2.697,0.532-3.689,1.486
			c-3.977,3.826-2.09,12.51,0.718,18.426c-0.481,0.438-1.007,0.925-1.583,1.468c-0.161,0.152-0.318,0.3-0.471,0.445
			c-0.737-0.363-1.542-0.545-2.348-0.545c-1.197,0-2.398,0.403-3.384,1.215c-1.345,1.109-2.019,2.757-1.93,4.398
			c-0.31,0.557-0.993,1.62-2.45,3.394c-0.414,0.505-1.515,1.845-1.364,4.01c0.22,2.792,2.067,5.821,5.584,11.376
			c1.175,1.854,2.927,4.621,3.915,6.504c-0.17,0.371-0.3,0.766-0.383,1.178c-0.498,0.587-0.874,1.289-1.082,2.071
			c-1.364,5.117,1.482,8.379,3.011,10.132c0.079,0.09,0.167,0.192,0.258,0.297c-0.959,1.17-2.341,2.69-2.912,3.317
			c-1.338,1.472-3.83,4.213-1.713,7.649c1.996,3.254,4.103,7.19,3.841,12.695c-0.106,0.99-1.426,3.859-2.061,5.238
			c-1.397,3.036-2.362,5.13-1.519,7.47c1.588,5.675,3.325,8.364,3.81,9.038l-0.016,0.014c0.636,0.727,1.446,1.264,2.341,1.569
			c0.021,0.171,0.04,0.318,0.055,0.444c-0.477,0.807-2.282,2.324-3.504,3.351c-2.924,2.458-6.562,5.518-7.971,9.975
			c-0.028,0.088-0.053,0.177-0.077,0.266c-0.302,0.781-0.586,1.652-0.894,2.598c-0.002,0.007-0.004,0.014-0.006,0.021
			c-5.837,0.571-16.709,2.56-20.637,9.473c-1.289,2.268-2.274,5.761-0.514,10.259c-0.581,0.53-1.091,0.909-1.555,1.253
			c-6.188,4.593-2.848,9.344-0.41,12.812c2.985,4.247,7.112,5.742,9.843,6.731c0.332,0.12,0.732,0.265,1.06,0.394
			c0.08,0.174,0.161,0.356,0.228,0.506c0.77,1.723,1.728,3.868,3.941,5.067c2.564,1.389,5.467,1.842,8.027,2.242
			c1.001,0.156,2.483,0.388,3.057,0.597c0.18,0.251,0.635,1.402,0.42,3.966c-0.386,4.774,3.91,5.746,7.699,6.603
			c2.333,0.528,5.315,1.137,8.182,1.673c0.015,0.003,0.028,0.005,0.042,0.008c6.041,1.126,10.226,1.697,12.441,1.697
			c1.077,0,1.905-0.122,2.685-0.397c1.086-0.383,1.996-1.097,2.623-2.013c0.465,0.288,0.94,0.58,1.43,0.859
			c0.17,0.239,0.409,0.616,0.581,0.889c0.89,1.406,1.998,3.155,3.943,4.309c3.922,2.327,8.112,2.754,11.479,3.097
			c1.836,0.187,3.57,0.363,4.696,0.795c6.767,2.595,10.859,6.959,12.876,13.736c1.568,5.255,6.994,7.328,11.354,8.994
			c1.588,0.607,4.247,1.623,4.797,2.207c1.176,1.701,1.493,2.909,1.828,4.187c0.984,3.746,2.715,6.44,7.494,7.213
			c-0.103,1.235-0.362,2.72-0.473,3.36c-0.345,1.975-0.643,3.681,0.448,5.526c2.049,3.464,5.235,5.22,9.469,5.22
			c0.594,0,1.19-0.032,1.779-0.066c0.37-0.021,0.735-0.046,1.089-0.046c0.194,0,0.285,0.01,0.292,0.01c0.001,0,0.001-0.001,0-0.001
			c0.216,0.047,0.879,0.245,1.413,0.405c2.521,0.754,6.329,1.894,9.89,1.894c1.108,0,2.149-0.112,3.094-0.334
			c1.546-0.362,2.629-1.095,8.277-5.597c0.114-0.091,0.232-0.185,0.351-0.28c6.877,2.745,19.727,6.705,27.236,8.95
			c-1.77,3.081-5.043,8.384-11.087,17.419l-0.426,0.638c-1.032,1.556-1.175,3.539-0.373,5.226c0.8,1.687,2.427,2.831,4.286,3.015
			c6.945,0.685,10.89,2.596,11.722,5.682c0.614,2.276,2.653,3.876,5.009,3.933c0.044,0.001,0.086,0.002,0.13,0.002
			c2.305,0,4.354-1.486,5.064-3.689c4.543-14.085,6.993-29.29,9.363-43.994c0.703-4.36,1.429-8.869,2.189-13.188
			c2.555-14.539-6.174-27.989-7.921-30.501c-0.433-0.775-0.948-1.591-1.491-2.45c-3.301-5.233-4.804-8.59-3.181-11.066
			c0.346-0.137,1.379-0.437,3.761-0.437c2.258,0,4.741,0.262,6.933,0.493c1.756,0.185,3.273,0.345,4.483,0.345
			c0.334,0,0.637-0.012,0.906-0.034c3.107-0.249,5.353-2.853,5.226-6.057c-0.18-4.48-6.554-13.675-13.753-15.885
			c1.588,0.115,3.318,0.171,5.209,0.171c4.362,0,8.874-0.293,13.239-0.576c3.648-0.236,7.092-0.46,9.836-0.46
			c0.294,0,0.931,0.009,0.967,0.009c1.77,0,3.384-0.876,4.36-2.271c4.086-0.11,6.708-3.217,8.822-5.722
			c0.448-0.531,1.065-1.262,1.628-1.848c1.191,3.048,2.206,8.773,1.953,10.983c-1.006,2.08-0.269,4.003,0.446,5.868
			c0.16,0.416,0.331,0.847,0.439,1.166c0.455,2.426,2.561,4.283,5.126,4.334c0.035,0.001,0.144,0.002,0.144,0.002
			c2.428,0,6.37-1.389,7.046-1.662c1.886-0.763,3.172-2.534,3.314-4.563C270.122,250.356,270.053,249.739,269.887,249.154z"/>
	</g>
	<g>
		<g>
			<path style="fill:#0DA401;" d="M29.314,10.105c-8.937-6.02-9.559-4.262-15.151,5.376c-2.31,3.982-9.775,20.189-2.487,21.695
				c-0.923,1.5-4.919,15.743-3.85,17.697c3.864,7.061,8.216-5.731,9.667-9.289c-0.534-3.832,9.59-22.871,5.007-24.843
				c1.382-2.038,1.091-4.063,1.998-5.34c0.696-0.979,5.605-2.584,6.593-3.793C31.864,10.661,29.42,10.183,29.314,10.105z"/>
			<path style="fill:#0DA401;" d="M52.966,18.805c0.967,0.16-1.466-9.211-3.685-10.63c1.846,0.736-9.11,8.459-9.901,9.584
				c-2.618,3.723-2.904,11.765-0.212,15.165c3.204,4.046,5.183,2.91,10.003-2.063c1.78-1.836,8.543-10.343,6.665-12.887
				C55.754,17.862,53.356,18.869,52.966,18.805z"/>
		</g>
		<g>
			<path style="fill-rule:evenodd;clip-rule:evenodd;fill:#0DA401;" d="M245.411,176.463c-0.224-1.742-0.4-3.535-0.422-5.324
				C245.011,172.93,245.184,174.719,245.411,176.463z"/>
			<path style="fill-rule:evenodd;clip-rule:evenodd;fill:#0DA401;" d="M100.75,197.013l-0.001,0
				c-0.07,0.114-0.136,0.23-0.206,0.344C100.613,197.243,100.68,197.127,100.75,197.013z"/>
			<path style="fill-rule:evenodd;clip-rule:evenodd;fill:#0DA401;" d="M247.355,186.789c-0.045-0.132-0.086-0.271-0.13-0.406
				C247.269,186.518,247.31,186.657,247.355,186.789z"/>
			<path style="fill-rule:evenodd;clip-rule:evenodd;fill:#0DA401;" d="M243.797,216.818c3.204-11.001,12.996-6.523,9.429-17.182
				c-1.448-4.327-3.733-7.32-5.387-11.512l0,0c-0.745-1.889-1.362-4.021-1.715-6.629c-0.215-1.589-0.486-3.289-0.713-5.033
				c-0.474-3.638-0.742-7.49,0.191-11.079c1.112-4.28,8.968-13.311,8.525-17.716c-1.261-12.542-16.243-3.812-25.099-3.846
				c-8.371-0.032-14.626,1.756-20.338-3.074c-5.4-4.567-7.71-12.197-13.465-15.406c-1.233-0.688-8.716-2.667-10.423-2.893
				c-5.164-0.685-12.473,1.577-18.142,1.339c-2.59-0.109-5.778,0.083-8.447-0.382c-1.26-0.22-2.415-0.572-3.316-1.197
				c-3.718-3.571-7.214-7.668-7.705-8.168c-2.366-3.66,2.391-11.689,2.393-12.058c0.028-4.975-2.757-7.327-4.446-11.574
				c-1.964-4.938-5.471-15.281-9.05-16.307c0.104,0.03-6.641,3.461-7.485,2.127c-0.067-0.106-0.109-0.233-0.094-0.404
				c0.361-4.424,7.177-10.505,8.498-14.151c1.674-4.62,1.217-9.826,3.101-14.432c1.849-4.521,5.607-9.932,8.642-13.354
				c0.532-0.6,4.064,0.189,4.287-0.062c1.716-1.928,2.05-5.478,4.004-7.122c4.991-4.197,7.875-5.176,14.909-7.31
				c4.626,1.864,6.023-8.706,1.511-11.932c-4.758-3.402-7.3-2.464-10.273,0.859c-1.129,1.262-16.901,11.911-17.118,12.036
				c-3.834,2.213-9.425,6.913-11.831,8.083c-6.042,2.939-11.662-0.344-17.377,0.756c-6.439,1.239-2.989,3.238-6.342,4.878
				c-5.025,2.459-9.535-0.918-13.343,0.117c-2.357,0.641-5.474,3.674-7.509,5.299c-1.569,1.253-12.513,12.993-11.188,14.849
				c1.216-0.472,2.246-1.208,3.089-2.206c-1.249,0.832,0.406,10.731-3.575,11.626c9.539,3.354-6.966,7.79-8.668,9.087
				c-0.137,0.104-3.399,3.459-7.173,7.037v0c-4.059,3.848-8.71,7.955-10.709,8.558c-0.189,1.648,4.017,7.734,3.846,11.342
				c-0.201,4.232-3.203-0.352-6.395-5.384c-2.645-4.169-5.42-8.646-6.841-8.673c-2.02,1.943,0.901,12.514,3.989,15.819
				c-0.818,0.133-9.72,8.385-9.207,8.915c-0.405-1.372-1.135-2.515-2.154-3.454c1.038,1.686-3.827,7.233-3.823,7.278
				c0.319,4.036,14.204,20.62,9.03,20.519c-0.062,3.177,1.621,2.453-1.159,2.399c-1.194,4.476,4.286,5.612,3.948,9.754
				c-0.116,1.424-5.986,7.363-5.91,7.487c2.172,3.54,4.959,8.622,4.619,15.766c-0.154,3.237-4.237,9.924-3.844,10.712
				c0.372,1.363,2.301,6.784,2.748,7.254c0.442,0.506,2.74-3.407,2.805-2.595c-0.014-0.173,0.851,7.469,0.935,7.967
				c-0.002-0.022,0.004-0.042,0.002-0.063c0.01,0.116,0.006,0.114-0.002,0.063c0.366,5.409-9.758,8.779-11.748,15.076
				c0.447-1.414-2.002,5.821-2.013,6.375c-3.767-0.074-26.888,1.851-19.281,14.617c8.247,0.162-1.156,5.919-1.466,3.124
				c-4.195,4.302-5.905,2.424-2.054,7.901c3.031,4.311,8.112,4.547,10.196,6.103c1.136,0.848,1.861,4.328,3.057,4.976
				c3.372,1.826,8.968,1.505,11.34,2.973c2.635,1.632,3.248,5.216,2.934,8.939c-0.02,0.231,5.683,1.52,11.553,2.615
				c-0.082-0.072-0.161-0.146-0.242-0.219c0.081,0.073,0.161,0.147,0.243,0.22c5.583,1.042,11.317,1.908,12.421,1.52
				c0.881-6.675,5.304-2.445,8.802-0.567c1.607,0.863,2.565,4.049,4.259,5.055c4.969,2.949,11.042,1.843,15.365,3.5
				c9.882,3.789,14.102,10.569,16.072,17.184c1.493,5.007,12.584,5.577,15.43,9.697c4.402,6.373,0.833,9.191,7.677,9.325
				c4.82,0.095,1.445,10.639,1.821,11.275c2.386,4.033,6.283,2.02,9.14,2.619c1.875,0.393,8.263,2.889,12.089,1.992
				c1.01-0.237,8.914-6.906,9.051-6.776c1.229,1.161,33.191,11.126,35.108,11.573c2.034,0.473-12.764,22.359-14.158,24.459
				c5.482,0.541,14.349,2.225,16.338,9.591c5.773-17.901,8.113-37.91,11.375-56.47c2.388-13.589-7.195-26.747-7.199-26.755
				c-2.27-4.219-9.594-12.714-4.218-19.803c3.25-4.284,16.393-1.209,19.725-1.476c2.411-0.193-8.816-17.884-15.24-9.585
				c0.132-4.554,0.264-9.109,0.396-13.663c8.776,3.119,26.343,0.243,35.993,0.432c-0.001,0.011-4.965-5.672-0.481-6.671
				c6.776,12.586,9.844-6.03,17.201-3.866c3.842,1.13,6.528,16.884,4.884,19.24c-0.114,0.163,1.284,3.326,1.275,3.808
				c1.055,0.021,3.978-0.823,5.089-1.273C264.601,250.516,257.631,210.654,243.797,216.818z"/>
			<path style="fill-rule:evenodd;clip-rule:evenodd;fill:#0DA401;" d="M245.414,176.481c0.125,0.961,0.26,1.907,0.397,2.829
				C245.675,178.386,245.538,177.444,245.414,176.481z"/>
			<path style="fill-rule:evenodd;clip-rule:evenodd;fill:#0DA401;" d="M246.914,185.341c-0.047-0.168-0.092-0.339-0.136-0.512
				C246.822,185.002,246.867,185.173,246.914,185.341z"/>
			<path style="fill-rule:evenodd;clip-rule:evenodd;fill:#0DA401;" d="M246.519,183.719c-0.036-0.167-0.073-0.33-0.107-0.501
				C246.446,183.389,246.483,183.552,246.519,183.719z"/>
			<path style="fill-rule:evenodd;clip-rule:evenodd;fill:#0DA401;" d="M95.165,206.516l0.007-0.011L95.165,206.516z"/>
		</g>
	</g>
</g>
</svg>
