<?xml version="1.0" encoding="utf-8"?>
<!-- Generator: Adobe Illustrator 21.0.0, SVG Export Plug-In . SVG Version: 6.00 Build 0)  -->
<svg version="1.1" xmlns="http://www.w3.org/2000/svg" xmlns:xlink="http://www.w3.org/1999/xlink" x="0px" y="0px"
	 viewBox="0 0 155.792 251.838" style="enable-background:new 0 0 155.792 251.838;" xml:space="preserve">
<g id="Brazo-Derecho">
	<g id="XMLID_495_">
		<g id="XMLID_1172_">
			<path style="fill:#EFC392;stroke:#994900;stroke-linecap:round;stroke-linejoin:round;stroke-miterlimit:10;" d="M1.562,118.409
				c2.388-2.362,4.384-0.883,5.593,0.844c0.651,0.929,3.862,5.55,6.69,9.62l-5.416-10.254c0,0-1.769-3.212,1.058-5.03
				c2.824-1.818,4.472,0.041,5.298,1.98c0.438,1.026,2.563,6.06,4.466,10.571l-2.622-10.813c0,0-0.92-3.333,2.156-4.37
				c3.639-1.229,4.55,3.152,4.701,4.106c0.239,1.497,1.624,10.637,2.317,15.212c0.421-0.004,0.78,0.026,1.048,0.102
				c0.629,0.18,1.219,0.447,1.756,0.805c1.353,0.778,1.76,1.836,1.76,1.836l-0.002,0c1.117,1.803,1.622,4.529,1.156,8.437
				c-0.659,5.537-4.449,6.987-8.174,6.92c0,0-3.762,2.858-7.872,0.81c-2.974-1.482-6.008-5.914-7.034-9.401
				c-0.468-0.533-3.941-3.979-1.62-5.696c1.362-1.008,2.533-0.696,3.487-0.031l-8.742-10.51
				C1.565,123.549-0.829,120.771,1.562,118.409z"/>
			<g id="XMLID_1206_">
				<g id="XMLID_1207_">
					
						<path id="XMLID_1208_" style="fill:#994900;stroke:#994900;stroke-linecap:round;stroke-linejoin:round;stroke-miterlimit:10;" d="
						M26.851,130.379c-0.001,0.019-0.327-0.091-0.911-0.088c-0.592-0.009-1.418,0.114-2.413,0.214
						c-0.995,0.114-2.156,0.18-3.404,0.355c-0.609,0.113-1.307,0.189-1.844,0.682c-0.536,0.52-0.564,1.293-0.51,1.975
						c0.053,0.664,0.507,1.349,1.021,1.749c0.532,0.425,1.144,0.694,1.747,0.888c1.219,0.366,2.429,0.385,3.422,0.202
						c0.997-0.176,1.774-0.546,2.254-0.879c0.495-0.309,0.778-0.486,0.778-0.486s-0.291,0.163-0.801,0.448
						c-0.251,0.148-0.564,0.309-0.946,0.444c-0.378,0.135-0.819,0.253-1.308,0.33c-0.976,0.163-2.161,0.123-3.337-0.253
						c-0.58-0.196-1.164-0.467-1.657-0.875c-0.489-0.432-0.85-0.932-0.908-1.617c-0.059-0.608-0.032-1.336,0.409-1.756
						c0.439-0.428,1.116-0.535,1.712-0.65c1.226-0.193,2.397-0.281,3.388-0.412c0.996-0.111,1.815-0.3,2.395-0.314
						C26.518,130.304,26.851,130.398,26.851,130.379z"/>
				</g>
			</g>
			<g id="XMLID_1200_">
				<g id="XMLID_1201_">
					
						<path id="XMLID_1202_" style="fill:#994900;stroke:#994900;stroke-linecap:round;stroke-linejoin:round;stroke-miterlimit:10;" d="
						M8.478,139.83c0,0,0.098,0.094,0.27,0.259c0.173,0.154,0.441,0.39,0.806,0.579c0.719,0.391,1.774,0.801,2.903,0.794
						c0.278-0.006,0.565-0.056,0.829-0.151c0.268-0.085,0.513-0.247,0.696-0.447c0.19-0.212,0.271-0.463,0.322-0.708
						c0.01-0.24,0.018-0.476-0.025-0.678c-0.079-0.413-3.33-4.689-3.445-4.899c-0.104-0.215-0.259-0.282-0.259-0.282
						s0.122,0.07,0.2,0.294c0.098,0.22,3.295,4.516,3.36,4.909c0.034,0.193,0.015,0.41-0.001,0.628
						c-0.057,0.214-0.135,0.428-0.302,0.598c-0.328,0.343-0.869,0.458-1.384,0.467c-1.056,0.053-2.112-0.3-2.826-0.655
						C8.896,140.198,8.478,139.83,8.478,139.83z"/>
				</g>
			</g>
			<g id="XMLID_1197_">
				<g id="XMLID_1198_">
					
						<path id="XMLID_1199_" style="fill:#994900;stroke:#994900;stroke-linecap:round;stroke-linejoin:round;stroke-miterlimit:10;" d="
						M22.239,137.012c0,0-0.278,0.293-0.548,0.835c-0.078,0.13-0.12,0.29-0.184,0.45c-0.054,0.164-0.144,0.328-0.176,0.514
						c-0.078,0.369-0.202,0.76-0.202,1.168c-0.022,0.406-0.009,0.809,0.076,1.179c0.031,0.186,0.059,0.366,0.086,0.538
						c0.016,0.173,0.101,0.319,0.142,0.463c0.214,0.564,0.375,0.924,0.375,0.924s-0.082-0.396-0.234-0.962
						c-0.032-0.144-0.107-0.29-0.113-0.46c-0.018-0.167-0.035-0.344-0.054-0.526c-0.063-0.363-0.051-0.753-0.01-1.14
						c-0.022-0.393,0.076-0.771,0.132-1.134c0.019-0.183,0.098-0.344,0.141-0.507c0.054-0.158,0.086-0.317,0.155-0.448
						C22.031,137.355,22.239,137.012,22.239,137.012z"/>
				</g>
			</g>
			<g id="XMLID_1173_">
				<g id="XMLID_1174_">
					
						<path id="XMLID_1175_" style="fill:#994900;stroke:#994900;stroke-linecap:round;stroke-linejoin:round;stroke-miterlimit:10;" d="
						M19.146,126.011c0,0,0.056,0.296,0.17,0.73c0.127,0.429,0.297,1.002,0.467,1.575c0.212,0.558,0.425,1.116,0.584,1.535
						c0.171,0.413,0.308,0.683,0.308,0.683s-0.056-0.296-0.17-0.729c-0.127-0.429-0.297-1.002-0.467-1.575
						c-0.212-0.558-0.425-1.116-0.584-1.535C19.282,126.28,19.146,126.011,19.146,126.011z"/>
				</g>
			</g>
			<g id="XMLID_390_">
				<g id="XMLID_392_">
					
						<path id="XMLID_393_" style="fill:#994900;stroke:#994900;stroke-linecap:round;stroke-linejoin:round;stroke-miterlimit:10;" d="
						M13.908,129.034c0,0,0.119,0.277,0.325,0.675c0.218,0.391,0.508,0.913,0.799,1.435c0.329,0.498,0.658,0.997,0.905,1.371
						c0.257,0.366,0.449,0.599,0.449,0.599s-0.119-0.277-0.325-0.675c-0.218-0.391-0.508-0.913-0.799-1.435
						c-0.329-0.499-0.658-0.997-0.905-1.371C14.1,129.267,13.908,129.034,13.908,129.034z"/>
				</g>
			</g>
		</g>
		<path id="XMLID_1171_" style="fill:#D1D3D4;" d="M64.4,165.855c0,0-26.149,8.036-33.639-21.523l-13.863,5.383
			c0,0,12.334,31.851,47.833,26.046L64.4,165.855z"/>
		<polygon id="XMLID_1166_" style="fill:#FFFFFF;" points="30.831,144.332 16.67,149.656 18.615,153.471 31.912,148.177 		"/>
	</g>
</g>
<g id="Cuerpo-Cabeza">
	<g id="XMLID_498_">
		
			<ellipse id="XMLID_1_" transform="matrix(1 -0.0098 0.0098 1 -2.3631 0.8516)" style="opacity:0.2;" cx="85.942" cy="242.176" rx="48.407" ry="9.651"/>
		<g id="XMLID_1063_">
			<g id="XMLID_1125_">
				<g id="XMLID_1130_">
					<rect id="XMLID_1135_" x="92.233" y="213.648" style="fill:#0071BC;" width="12.911" height="29.754"/>
				</g>
				<rect id="XMLID_1129_" x="67.524" y="213.648" style="fill:#0071BC;" width="12.911" height="29.754"/>
				<path id="XMLID_370_" style="fill:#0071BC;" d="M60.195,206.877c3.053,13.84,11.786,13.134,24.612,13.134h2.272
					c1.184,0,2.344,0.006,3.457,0.006c10.932,0,18.378-0.583,21.154-13.14H60.195z"/>
				<path id="XMLID_1127_" style="fill:#4C2B18;" d="M91.274,240.484c0.378-0.494,0.873-1.02,1.519-1.421
					c0.629-0.429,1.361-0.806,2.158-1.135c0.797-0.33,1.658-0.631,2.572-0.839c1.821-0.448,3.806-0.716,5.796-0.803
					c0.997-0.035,2.024,0.024,2.969,0.081c0.955,0.006,1.944,0.224,2.877,0.357c0.47,0.069,0.914,0.242,1.352,0.371
					c0.438,0.129,0.861,0.275,1.245,0.508c0.807,0.356,1.469,0.905,2.01,1.456c0.226,0.322,0.448,0.625,0.634,0.924
					c0.11,0.337,0.214,0.655,0.312,0.955c0.079,0.612,0.139,1.156,0.072,1.588c-0.047,0.439-0.198,0.769-0.305,0.971
					c-0.13,0.192-0.199,0.294-0.199,0.294s0.014-0.031,0.031-0.064c-0.021,0.033-0.045,0.064-0.068,0.096
					c0.018-0.015,0.037-0.031,0.037-0.031s-0.05,0.062-0.128,0.16c-0.008,0.01-0.015,0.02-0.024,0.03
					c-0.007,0.009-0.01,0.012-0.017,0.022c-0.116,0.135-0.243,0.365-0.554,0.527c-0.278,0.22-0.658,0.378-1.1,0.541
					c-0.441,0.163-0.958,0.278-1.523,0.378c-1.129,0.166-2.452,0.322-3.864,0.356c-1.409,0.026-2.914,0.054-4.417,0.082
					c-1.506-0.029-3.012-0.076-4.427-0.168c-1.415-0.089-2.733-0.308-3.851-0.563c-1.119-0.255-2.014-0.672-2.553-1.08
					c-0.541-0.42-0.681-0.797-0.697-0.779c0,0,0.024,0.023,0.062,0.061c-0.024-0.033-0.054-0.063-0.076-0.097
					c0.004,0.01,0.014,0.036,0.014,0.036s-0.017-0.029-0.039-0.068c-0.012-0.019-0.022-0.039-0.033-0.058
					c-0.028-0.049-0.058-0.102-0.103-0.182c-0.066-0.098-0.129-0.223-0.152-0.397c-0.031-0.157-0.105-0.39-0.066-0.598
					C90.714,241.577,90.945,241.002,91.274,240.484z"/>
				<path id="XMLID_1126_" style="fill:#4C2B18;" d="M57.91,240.938c0.098-0.3,0.202-0.62,0.312-0.957
					c0.186-0.297,0.41-0.601,0.634-0.923c0.542-0.552,1.203-1.102,2.01-1.458c0.385-0.233,0.807-0.378,1.247-0.507
					c0.438-0.13,0.882-0.303,1.351-0.371c0.934-0.133,1.923-0.352,2.878-0.357c0.945-0.057,1.972-0.116,2.969-0.081
					c1.991,0.086,3.976,0.355,5.796,0.803c0.914,0.208,1.775,0.51,2.574,0.839c0.797,0.331,1.529,0.706,2.158,1.137
					c0.646,0.4,1.141,0.927,1.519,1.419c0.329,0.519,0.561,1.093,0.536,1.512c0.04,0.208-0.035,0.439-0.066,0.596
					c-0.024,0.176-0.087,0.3-0.152,0.397c-0.044,0.076-0.072,0.126-0.1,0.174c-0.013,0.024-0.026,0.048-0.041,0.072
					c-0.018,0.032-0.035,0.061-0.035,0.061s0.009-0.024,0.012-0.032c-0.02,0.03-0.047,0.057-0.068,0.087
					c0.035-0.035,0.055-0.054,0.055-0.054c-0.016-0.018-0.158,0.359-0.697,0.779c-0.539,0.407-1.436,0.825-2.553,1.08
					c-1.118,0.255-2.436,0.473-3.851,0.563c-1.416,0.092-2.922,0.139-4.427,0.168c-1.504-0.028-3.009-0.056-4.418-0.082
					c-1.412-0.034-2.735-0.19-3.864-0.356c-0.564-0.1-1.081-0.215-1.523-0.378c-0.442-0.163-0.822-0.321-1.1-0.541
					c-0.311-0.163-0.438-0.393-0.554-0.527c-0.008-0.01-0.011-0.013-0.018-0.022c-0.008-0.009-0.014-0.018-0.022-0.027
					c-0.08-0.099-0.13-0.161-0.13-0.161s0.02,0.017,0.038,0.032c-0.023-0.032-0.047-0.064-0.069-0.097
					c0.016,0.035,0.031,0.065,0.031,0.065s-0.069-0.102-0.199-0.296c-0.107-0.201-0.258-0.53-0.305-0.97
					C57.771,242.094,57.831,241.55,57.91,240.938z"/>
			</g>
			<g id="XMLID_1106_">
				<path id="XMLID_354_" style="fill:#CCCCCC;" d="M106.979,165.387c0,0,35.486,15.735,17.563,42.369l-5.53-8.994
					c0,0,7.702-15.366-10.084-25.956L106.979,165.387z"/>
			</g>
			<g id="XMLID_1099_">
				<g id="XMLID_1103_">
					<path id="XMLID_1105_" style="fill:#F7941E;" d="M58.982,191.142c0,6.554,0.412,11.698,1.213,15.735h51.495
						c0.8-4.037,1.213-9.182,1.213-15.735c0-14.599-1.31-24.894-8.174-27.521c-4.29-1.647-5.046-0.755-17.65-0.755h-2.272
						c-1.844,0-3.548-0.007-5.13-0.007c-8.744,0-9.435-0.809-12.886,0.606C59.386,166.499,58.982,175.798,58.982,191.142z"/>
					<path id="XMLID_1104_" style="fill:#FFFFFF;" d="M58.989,190.278c0.021,2.344,0.097,4.5,0.227,6.48h53.449
						c0.136-1.98,0.211-4.137,0.231-6.48h-7.056c1.251-17.446-2.227-28.074-2.669-29.342c-0.016-0.054-0.032-0.092-0.038-0.113
						l-0.155,0.059l-2.89,1.052l-3.045,1.107c0.038,0.108,3.586,10.245,2.294,27.237H72.413
						c-1.291-16.992,2.259-27.129,2.295-27.237l-6.086-2.218c-0.177,0.48-4.017,11.259-2.71,29.455H58.989z"/>
				</g>
				<g id="XMLID_1100_">
					<polygon id="XMLID_1102_" style="fill:#CCCCCC;" points="86.792,169.128 78.29,177.282 62.629,164.69 					"/>
					<polygon id="XMLID_1101_" style="fill:#CCCCCC;" points="84.987,169.12 93.52,177.302 109.232,164.669 					"/>
				</g>
			</g>
			<g id="XMLID_1093_">
				<path id="XMLID_1098_" style="fill:#4C2B18;" d="M59.386,201.712c0.198,1.915,0.467,3.63,0.809,5.165h51.495
					c0.341-1.535,0.611-3.251,0.807-5.165H59.386z"/>
				<path id="XMLID_1095_" style="fill:#FFD825;" d="M79.261,204.232c0-1.982,1.611-3.593,3.593-3.593h6.176
					c1.98,0,3.592,1.611,3.592,3.722c0,1.98-1.611,3.592-3.592,3.592h-6.176C80.873,207.953,79.261,206.341,79.261,204.232z
					 M82.855,202.434c-0.99,0-1.797,0.807-1.797,1.926c0,0.99,0.807,1.796,1.797,1.796h6.176c0.99,0,1.796-0.806,1.796-1.925
					c0-0.99-0.806-1.797-1.796-1.797H82.855z"/>
			</g>
			<g id="XMLID_1064_">
				<g id="XMLID_1091_">
					
						<path id="XMLID_1092_" style="fill:#EFC392;stroke:#994900;stroke-linecap:round;stroke-linejoin:round;stroke-miterlimit:10;" d="
						M103.42,208.366c0.066,0.46,0.453,1.052,1.137,1.034c0.905-0.018,3.324-0.214,5.282-0.806c0,0-2.735,1.181-4.755,1.644
						c-0.592,0.132-1.559,0.378-1.559,1.269c0,0-0.249,1.598,1.412,1.412c0,0,0.791-0.006,1.504-0.221
						c1.784-0.535,5.268-1.976,5.833-2.253c0,0-3.713,1.913-5.013,2.369c-1.296,0.454-1.351,0.782-1.257,1.548
						c0.103,0.765,0.378,1.311,1.374,1.153c0.867-0.149,1.31-0.431,1.31-0.431l5.678-2.859l-3.067,1.775
						c0,0-0.999,0.356-0.882,1.166c0.129,0.804,0.753,1.187,1.515,1.175c0.681-0.015,1.194-0.126,1.822-0.614
						c0.636-0.491,3.456-2.027,3.456-2.027s0.672-0.617,1.355-1.239c0.7-0.643,3.839-3.07,3.442-5.616c0,0,0.038-1.624-1.523-2.87
						l-0.237-0.858c0,0-0.475-2.13-3.24-1.983c0,0-1.247,0.064-1.956,0.129c-0.637,0.064-1.635,0.135-2.899,0.24l0.108,2.572
						c0.24-0.116,0.437-0.19,0.482-0.19c0.186-0.009,0.423,0.434,0.037,0.743c0,0-1.099,0.789-2.479,1.211
						c-0.398,0.122-3.716,0.686-5.716,0.97C103.212,207.003,103.355,207.944,103.42,208.366z"/>
				</g>
				<polygon id="XMLID_1090_" style="fill:#FFFFFF;" points="117.311,200.346 119.013,198.762 124.543,207.756 123.126,209.217 				
					"/>
			</g>
		</g>
		<g id="XMLID_512_">
			
				<path id="XMLID_1062_" style="fill:#EFC392;stroke:#994900;stroke-linecap:round;stroke-linejoin:round;stroke-miterlimit:10;" d="
				M32.588,126.295c0.209,0.238,0.423,0.472,0.646,0.706c0.223,0.236,0.454,0.469,0.696,0.702c0.237,0.23,0.488,0.464,0.745,0.693
				c0.258,0.23,0.525,0.458,0.8,0.686c0.275,0.228,0.563,0.454,0.855,0.678c0.296,0.225,0.597,0.446,0.91,0.668
				c0.004-1.238,0.008-2.477,0.011-3.713c0.006-1.237,0.008-2.475,0.011-3.713c0.004-1.235,0.009-2.472,0.012-3.709
				c0.006-1.238,0.008-2.475,0.011-3.713c0.004-1.237,0.008-2.475,0.011-3.712c0.006-1.238,0.008-2.475,0.011-3.713
				c0,0-0.095-0.157-0.271-0.401c-0.174-0.246-0.43-0.578-0.749-0.929c-0.32-0.348-0.7-0.713-1.128-1.024
				c-0.429-0.313-0.905-0.568-1.412-0.701c-0.504-0.13-1.04-0.136-1.592,0.054c-0.549,0.191-1.116,0.576-1.678,1.229
				c-0.418,0.489-0.837,1.143-1.206,1.933c-0.373,0.791-0.698,1.714-0.931,2.743c-0.235,1.026-0.381,2.159-0.393,3.362
				c-0.014,1.203,0.108,2.476,0.402,3.789c0.299,1.311,0.77,2.665,1.463,4.022C30.505,123.59,31.416,124.954,32.588,126.295z"/>
			
				<path id="XMLID_1061_" style="fill:#EFC392;stroke:#994900;stroke-linecap:round;stroke-linejoin:round;stroke-miterlimit:10;" d="
				M137.832,126.949c-0.209,0.235-0.425,0.468-0.649,0.703c-0.222,0.231-0.456,0.464-0.699,0.694
				c-0.243,0.231-0.493,0.461-0.749,0.691c-0.261,0.228-0.528,0.456-0.807,0.681c-0.276,0.225-0.562,0.449-0.859,0.672
				c-0.294,0.224-0.598,0.443-0.913,0.663c0.003-1.238,0.009-2.475,0.011-3.713c0.003-1.237,0.007-2.475,0.011-3.713
				c0.003-1.237,0.009-2.474,0.012-3.709c0.003-1.238,0.007-2.476,0.011-3.715c0.003-1.237,0.006-2.473,0.011-3.71
				c0.003-1.237,0.006-2.475,0.011-3.712c0,0,0.098-0.158,0.273-0.401c0.178-0.245,0.434-0.575,0.755-0.924
				c0.319-0.346,0.703-0.708,1.135-1.018c0.429-0.309,0.908-0.562,1.412-0.691c0.508-0.126,1.044-0.129,1.594,0.064
				c0.549,0.193,1.11,0.583,1.67,1.239c0.416,0.489,0.83,1.148,1.197,1.94c0.365,0.791,0.684,1.718,0.911,2.747
				c0.229,1.029,0.367,2.163,0.372,3.365c0.005,1.202-0.123,2.474-0.426,3.787c-0.306,1.31-0.786,2.659-1.486,4.014
				C139.932,124.255,139.013,125.616,137.832,126.949z"/>
			
				<path id="XMLID_1060_" style="fill:#EFC392;stroke:#994900;stroke-linecap:round;stroke-linejoin:round;stroke-miterlimit:10;" d="
				M120.969,155.569c3.497-3.732,6.418-8.068,8.765-12.885c2.32-4.764,4.076-9.996,5.268-15.571
				c1.167-5.451,1.791-11.234,1.874-17.222c0.091-6.006-0.485-12.023-1.806-17.886c-1.288-5.699-3.23-11.062-5.739-15.962
				c-2.51-4.902-5.587-9.34-9.148-13.187c-3.008-3.25-6.358-6.079-10.003-8.405c-3.67-2.347-7.639-4.183-11.847-5.433
				c-4.3-1.276-8.762-1.889-13.245-1.903c-4.574,0.002-8.966,0.655-13.125,1.883c-4.158,1.228-8.084,3.03-11.723,5.33
				c-3.638,2.301-6.991,5.099-10.007,8.318c-3.583,3.825-6.689,8.245-9.227,13.13c-2.539,4.887-4.513,10.239-5.837,15.928
				c-1.356,5.855-1.969,11.867-1.915,17.874c0.047,5.991,0.638,11.774,1.772,17.234c1.156,5.579,2.881,10.823,5.173,15.601
				c2.319,4.83,5.212,9.184,8.687,12.937c2.886,3.12,6.174,5.821,9.862,8.031c3.689,2.212,7.777,3.933,12.265,5.088
				c4.751,1.223,9.672,1.739,14.575,1.699c4.934-0.039,9.514-0.646,13.737-1.761c4.35-1.145,8.322-2.827,11.919-4.977
				C114.87,161.262,118.113,158.616,120.969,155.569z"/>
			<path id="XMLID_1059_" style="fill:#482E1D;" d="M20.056,100.114l-0.025-2.42l-0.045-4.229c0.019-1.412-0.103-2.831,0.035-4.244
				l0.326-4.245c0.067-0.708,0.089-1.421,0.226-2.122l0.337-2.113l0.341-2.116c0.093-0.709,0.266-1.406,0.435-2.103l0.498-2.097
				c0.174-0.699,0.312-1.405,0.549-2.092c0.462-1.377,0.8-2.778,1.373-4.143c0.028-0.07,0.054-0.14,0.081-0.21l-3.326-0.503
				l-1.179-0.484l-0.595-3.141l-0.176-2.529c0.223-0.721,0.374-1.463,0.685-2.161l0.846-2.121c0.254-0.72,0.65-1.38,0.994-2.065
				c0.369-0.67,0.677-1.379,1.105-2.019l1.265-1.933c0.408-0.656,0.939-1.223,1.406-1.837c0.474-0.611,0.967-1.205,1.516-1.749
				c0.544-0.547,1.048-1.141,1.63-1.648l1.739-1.535l1.846-1.398c0.631-0.443,1.291-0.842,1.938-1.263
				c0.412-0.249,0.838-0.476,1.259-0.709l-0.896-0.601l-4.954-3.325l4.885-3.32l1.888-1.284c0.623-0.447,1.281-0.806,1.936-1.174
				c0.658-0.354,1.301-0.77,1.977-1.07l2.016-0.951c0.675-0.311,1.362-0.556,2.045-0.835c0.682-0.282,1.369-0.536,2.063-0.755
				c1.38-0.486,2.773-0.893,4.174-1.255c0.7-0.188,1.404-0.327,2.106-0.491c0.702-0.168,1.407-0.3,2.113-0.429
				c1.409-0.276,2.824-0.482,4.241-0.672c1.195-0.152,2.394-0.265,3.597-0.362l-0.465-3.311L61.18,16.16l4.756-0.115
				c1.602-0.039,3.214-0.202,4.81-0.122l2.396,0.066l2.379,0.204c0.796,0.057,1.583,0.151,2.365,0.278
				c0.784,0.118,1.571,0.219,2.35,0.354l2.32,0.476c0.778,0.144,1.53,0.369,2.295,0.554c0.764,0.19,1.526,0.386,2.273,0.623
				c0.749,0.232,1.508,0.437,2.248,0.694c1.488,0.492,2.957,1.031,4.413,1.608c1.017,0.415,2.024,0.854,3.026,1.309l0.603-3.261
				l1.105-5.987l5.087,2.832l4.479,2.494l2.234,1.252c0.73,0.438,1.41,0.95,2.116,1.423l4.192,2.895
				c1.333,1.044,2.642,2.117,3.959,3.175c0.648,0.544,1.341,1.033,1.946,1.623l1.868,1.71c1.253,1.13,2.49,2.276,3.647,3.506
				c1.188,1.197,2.361,2.409,3.471,3.695c0.218,0.246,0.436,0.49,0.654,0.735l3.576-3.348l2.14,4.155
				c0.71,1.38,1.525,2.715,2.12,4.133l0.943,2.106l0.826,2.138c0.29,0.709,0.511,1.435,0.749,2.156
				c0.225,0.724,0.497,1.437,0.683,2.169c0.416,1.455,0.807,2.912,1.126,4.381c0.343,1.464,0.616,2.939,0.866,4.414
				c0.25,1.476,0.447,2.956,0.621,4.439c0.16,1.484,0.27,2.972,0.342,4.465c0.02,0.419,0.028,0.84,0.042,1.261l2.415-0.392
				l3.527-0.572l-0.43,3.307l-0.437,3.366c-0.163,1.12-0.256,2.245-0.476,3.357l-0.598,3.336c-0.186,1.113-0.441,2.215-0.711,3.312
				l-0.781,3.292l-0.923,3.254c-0.298,1.086-0.623,2.163-0.994,3.227l-1.077,3.197l-1.209,3.148
				c-0.395,1.051-0.886,2.066-1.324,3.098c-0.435,1.033-0.922,2.044-1.417,3.05c-0.478,1.013-0.979,2.014-1.518,2.997
				c-1.021,1.99-2.184,3.906-3.389,5.784c-1.22,1.868-2.492,3.703-3.941,5.39c0,0,2.032-27.628-12.286-34.859
				c-5.785-2.92-15.029,1.244-35.423,1.181c-22.852-0.068-32.079-3.448-37.296,0.637c-4.95,3.878-11.207,9.696-9.958,32.754
				l-2.079-2.928l-1.029-1.47c-0.334-0.497-0.707-0.965-1.009-1.485l-1.9-3.076l-0.94-1.553l-0.846-1.6l-0.846-1.604
				c-0.276-0.539-0.585-1.062-0.822-1.621l-1.509-3.322l-0.665-1.712c-0.213-0.575-0.463-1.134-0.634-1.732l-0.555-1.776
				c-0.006-0.025-0.013-0.048-0.019-0.072l-2.815,0.866L20.056,100.114z"/>
			<g id="XMLID_1052_">
				<path id="XMLID_1056_" style="fill:#FFFFFF;" d="M16.832,79.96c-0.008,1.914,0.047,3.813,0.156,5.693
					c13.149-4.125,39.451-6.882,69.736-6.791c29.264,0.089,54.786,2.814,68.32,6.789c0.102-1.741,0.158-3.502,0.164-5.274
					c0.134-44.204-30.755-73.951-68.964-74.067C48.027,6.194,16.966,35.756,16.832,79.96z"/>
				<path id="XMLID_1055_" style="fill:#B3B3B3;" d="M85.98,94.762c43.432,0.133,60.428,0.726,69.21-6.939
					c5.425-4.736-26.423-10.448-69.857-10.579C41.896,77.114,10.014,82.631,15.412,87.4c8.734,7.718,25.733,7.227,69.166,7.358
					L85.98,94.762z"/>
				<path id="XMLID_1054_" style="fill:#808080;" d="M155.109,84.393c0,0-2.088-0.62-5.76-1.638
					c-1.862-0.426-4.125-0.943-6.719-1.536c-2.61-0.508-5.553-1.106-8.784-1.634c-3.238-0.462-6.735-1.103-10.466-1.481
					c-1.864-0.217-3.778-0.441-5.735-0.67c-1.958-0.223-3.966-0.35-6.004-0.53c-4.077-0.375-8.301-0.605-12.595-0.808
					c-4.304-0.188-8.647-0.235-13.052-0.309c-2.174,0.035-4.35,0.069-6.517,0.104c-2.163,0.018-4.326,0.075-6.482,0.194
					c-4.307,0.162-8.537,0.428-12.613,0.79c-4.084,0.273-8.014,0.759-11.74,1.196c-3.73,0.389-7.228,1.022-10.466,1.487
					c-3.23,0.537-6.174,1.136-8.782,1.649c-2.59,0.6-4.849,1.124-6.708,1.555c-3.679,1.042-5.758,1.677-5.758,1.677
					s2.152-0.384,5.877-1.116c1.88-0.287,4.161-0.636,6.777-1.035c2.627-0.314,5.59-0.668,8.824-1.054
					c1.62-0.156,3.307-0.319,5.054-0.488c1.744-0.18,3.546-0.368,5.408-0.489c3.717-0.288,7.634-0.597,11.696-0.797
					c2.028-0.103,4.092-0.258,6.179-0.324c2.085-0.069,4.196-0.139,6.324-0.21c4.243-0.213,8.622-0.118,12.964-0.197
					c4.294,0.04,8.657,0.051,12.912,0.205c4.262,0.19,8.464,0.253,12.52,0.549c4.06,0.214,7.979,0.494,11.696,0.8
					c1.861,0.124,3.665,0.299,5.41,0.483c1.745,0.168,3.433,0.331,5.053,0.487c3.234,0.382,6.197,0.732,8.825,1.042
					c2.616,0.392,4.896,0.735,6.774,1.016C152.962,84.024,155.109,84.393,155.109,84.393z"/>
				<path id="XMLID_1053_" style="fill:#E6E6E6;" d="M91.899,0.035c5.397,0.016,8.826,4.331,7.627,9.594l-6.341,49.465
					c-1.201,5.256-13.001,5.221-14.169-0.043L72.939,9.549c-1.168-5.27,2.29-9.565,7.685-9.549L91.899,0.035z"/>
			</g>
			<path id="XMLID_513_" style="fill:#C4884D;" d="M91.449,130.849c-0.695-0.888-2.674,1.603-5.764,1.861
				c-3.089,0.258-4.511-3-5.849-2.199c-1.337,0.802,1.458,4.998,6.107,5.288S92.045,131.61,91.449,130.849z"/>
		</g>
	</g>
</g>
<g id="Ojos-Abiertos">
	<g id="XMLID_1518_">
		<g id="XMLID_1525_">
			<path id="XMLID_1529_" style="fill:#FFFFFF;" d="M62.913,108.576c-13.036,3.449-12.468,22.059,1.694,22.022
				C78.77,130.561,78.082,104.562,62.913,108.576z"/>
			
				<ellipse id="XMLID_1528_" transform="matrix(0.0209 -0.9998 0.9998 0.0209 -56.1188 181.2557)" cx="64.484" cy="119.28" rx="6.962" ry="5.511"/>
			
				<ellipse id="XMLID_1527_" transform="matrix(0.0209 -0.9998 0.9998 0.0209 -55.2537 175.0623)" style="fill:#FFFFFF;" cx="61.754" cy="115.742" rx="3.287" ry="3.287"/>
			
				<ellipse id="XMLID_1526_" transform="matrix(0.0209 -0.9998 0.9998 0.0209 -57.2251 186.007)" style="fill:#FFFFFF;" cx="66.357" cy="122.221" rx="1.257" ry="1.257"/>
		</g>
		<g id="XMLID_1519_">
			<path id="XMLID_1523_" style="fill:#FFFFFF;" d="M110.269,108.406c12.88,3.991,11.535,22.561-2.614,21.932
				C93.507,129.708,95.281,103.761,110.269,108.406z"/>
			
				<ellipse id="XMLID_1522_" transform="matrix(0.0209 -0.9998 0.9998 0.0209 -12.4663 225.365)" cx="108.831" cy="119.047" rx="6.962" ry="5.511"/>
			
				<ellipse id="XMLID_1521_" transform="matrix(0.0209 -0.9998 0.9998 0.0209 -11.6008 219.1717)" style="fill:#FFFFFF;" cx="106.101" cy="115.509" rx="3.287" ry="3.287"/>
			
				<ellipse id="XMLID_1520_" transform="matrix(0.0209 -0.9998 0.9998 0.0209 -13.5726 230.1163)" style="fill:#FFFFFF;" cx="110.704" cy="121.988" rx="1.257" ry="1.257"/>
		</g>
	</g>
</g>
<g id="Ojos-Cerrados">
	<g>
		<g id="XMLID_4499_">
			<path id="XMLID_4655_" style="fill:#D39A66;" d="M75.104,121.516c0,0-4.658-13.187-12.51-12.384
				c-7.855,0.806-9.738,14.666-9.738,14.666S63.573,116.397,75.104,121.516z"/>
			<path id="XMLID_4621_" style="fill:#482E1D;" d="M51.529,124.256c0,0,1.226-1.084,3.331-2.353
				c1.058-0.622,2.323-1.327,3.775-1.878c0.712-0.316,1.492-0.52,2.267-0.795c0.797-0.189,1.603-0.438,2.436-0.563
				c0.833-0.129,1.666-0.293,2.508-0.317c0.419-0.025,0.837-0.062,1.251-0.068c0.412,0.015,0.82,0.059,1.222,0.091
				c0.4,0.056,0.797,0.09,1.175,0.169c0.375,0.107,0.74,0.215,1.09,0.337c0.349,0.117,0.689,0.23,1.018,0.34
				c0.32,0.132,0.61,0.311,0.896,0.455c0.565,0.307,1.077,0.586,1.5,0.88c0.406,0.328,0.748,0.622,1.016,0.879
				c0.55,0.49,0.828,0.798,0.829,0.798c0.043,0.048,0.039,0.122-0.009,0.165c-0.029,0.026-0.066,0.035-0.102,0.028l-0.015-0.003
				c0.002,0-0.423-0.089-1.101-0.294c-0.346-0.091-0.751-0.219-1.2-0.375c-0.463-0.11-0.985-0.235-1.555-0.371
				c-0.55-0.169-1.165-0.266-1.81-0.363c-0.321-0.048-0.647-0.112-0.979-0.182c-0.338-0.035-0.684-0.07-1.036-0.106
				c-0.349-0.051-0.703-0.124-1.064-0.166c-0.366-0.01-0.735-0.049-1.111-0.079c-0.751-0.103-1.518-0.026-2.292-0.009
				c-0.774,0.032-1.538,0.186-2.301,0.279c-0.747,0.182-1.504,0.294-2.207,0.521c-1.424,0.393-2.728,0.883-3.835,1.338
				c-2.21,0.938-3.56,1.826-3.56,1.826c-0.053,0.035-0.124,0.02-0.158-0.032C51.475,124.358,51.487,124.293,51.529,124.256z"/>
		</g>
		<g id="XMLID_2571_">
			<path id="XMLID_4490_" style="fill:#D39A66;" d="M97.777,121.806c0,0,4.658-13.187,12.51-12.384
				c7.852,0.806,9.738,14.666,9.738,14.666S109.307,116.689,97.777,121.806z"/>
			<path id="XMLID_4473_" style="fill:#482E1D;" d="M121.216,124.73c0,0-1.35-0.888-3.559-1.826
				c-1.109-0.454-2.413-0.944-3.837-1.338c-0.703-0.228-1.459-0.34-2.205-0.521c-0.765-0.093-1.529-0.249-2.303-0.279
				c-0.774-0.017-1.541-0.095-2.292,0.009c-0.375,0.029-0.744,0.068-1.109,0.078c-0.363,0.042-0.717,0.115-1.066,0.166
				c-0.352,0.036-0.698,0.072-1.036,0.106c-0.33,0.07-0.656,0.134-0.979,0.182c-0.646,0.096-1.26,0.194-1.81,0.363
				c-0.57,0.136-1.092,0.261-1.555,0.372c-0.449,0.156-0.854,0.284-1.2,0.375c-0.678,0.205-1.103,0.294-1.101,0.294l-0.015,0.003
				c-0.063,0.013-0.125-0.027-0.137-0.09c-0.009-0.038,0.003-0.076,0.026-0.103c0.002,0,0.28-0.308,0.829-0.799
				c0.269-0.256,0.61-0.551,1.016-0.879c0.423-0.294,0.934-0.573,1.5-0.88c0.286-0.144,0.576-0.323,0.896-0.455
				c0.329-0.11,0.669-0.223,1.018-0.34c0.351-0.121,0.715-0.23,1.09-0.337c0.378-0.08,0.775-0.113,1.175-0.169
				c0.402-0.031,0.809-0.076,1.222-0.09c0.414,0.006,0.833,0.043,1.251,0.068c0.842,0.024,1.676,0.188,2.508,0.317
				c0.833,0.126,1.639,0.375,2.436,0.563c0.775,0.275,1.555,0.48,2.267,0.795c1.452,0.551,2.717,1.256,3.775,1.878
				c2.105,1.27,3.331,2.354,3.331,2.354c0.048,0.04,0.054,0.112,0.014,0.161C121.329,124.752,121.264,124.76,121.216,124.73z"/>
		</g>
	</g>
</g>
<g id="Cejas">
	<g id="XMLID_515_">
		<path id="XMLID_1051_" style="fill:#482E1D;" d="M100.23,103.893c-2.166-3.614,5.289-6.523,9.726-6.615
			c4.437-0.093,10.529,8.165,9.584,10.157c-0.945,1.993-4.526-5.428-9.95-5.314S102.274,107.303,100.23,103.893z"/>
		<path id="XMLID_1045_" style="fill:#482E1D;" d="M71.963,103.324c2.013-3.701-5.557-6.296-9.994-6.203
			c-4.437,0.093-10.178,8.598-9.151,10.549c1.027,1.951,4.296-5.612,9.719-5.726C67.96,101.831,70.063,106.816,71.963,103.324z"/>
	</g>
</g>
<g id="Boca_1">
	<g>
		<path id="XMLID_1537_" d="M108.955,143.678c0.012,3.668-2,8.852-6.081,13.064c-3.943,4.08-9.823,7.248-17.683,7.273
			c-7.86,0.023-13.758-3.11-17.729-7.165c-4.103-4.189-6.146-9.363-6.157-13.029c-0.011-3.349,2.289-4.13,6.074-4.002l0.032,0.001
			c0.003-0.001,0.003-0.001,0.003-0.001c4.362,0.15,10.68,1.484,17.707,1.463c6.809-0.021,12.948-1.31,17.289-1.547l0.013,0
			c0.007,0.001,0.016,0,0.022-0.001C106.474,139.512,108.944,140.209,108.955,143.678z"/>
		<path id="XMLID_1536_" style="fill:#FFFFFF;" d="M69.596,144.704c0.86,0.704,1.987,1.227,3.391,1.613
			c1.312,0.362,2.87,0.599,4.691,0.752c1.668,0.137,3.553,0.204,5.672,0.217c0.515,0.005,1.044,0.005,1.591,0.005
			c2.101-0.008,3.986-0.049,5.671-0.149c2.308-0.133,4.237-0.379,5.833-0.782c1.592-0.409,2.853-0.978,3.814-1.771
			c0.243-0.197,0.467-0.413,0.672-0.644c0.218-0.24,0.417-0.501,0.588-0.778c0.181-0.294,0.322-0.594,0.429-0.892
			c0.11-0.302,0.19-0.601,0.247-0.897c0.06-0.29,0.1-0.577,0.135-0.853c0.035-0.279,0.057-0.543,0.082-0.791
			c-1.534,0.084-3.293,0.299-5.226,0.545c-1.937,0.244-4.047,0.514-6.283,0.715c-1.851,0.167-3.785,0.279-5.783,0.287
			c-0.352,0-0.705-0.004-1.057-0.008c-2.114-0.032-4.158-0.178-6.094-0.367c-2.009-0.198-3.904-0.437-5.647-0.642
			c-1.818-0.219-3.465-0.395-4.903-0.442c0.027,0.251,0.053,0.513,0.09,0.791c0.038,0.275,0.083,0.563,0.148,0.856
			c0.062,0.291,0.147,0.597,0.258,0.896c0.112,0.3,0.252,0.604,0.431,0.902c0.167,0.279,0.362,0.544,0.579,0.79
			C69.126,144.289,69.35,144.502,69.596,144.704z"/>
	</g>
</g>
<g id="Boca_2">
	<g id="XMLID_251_">
		<g id="XMLID_252_">
			<path id="XMLID_261_" d="M90.415,151.959c-0.795,5.607-2.53,10.256-5.652,10.256c-3.121,0-5.136-4.617-5.652-10.256
				c-0.758-8.302-0.967-10.259,5.652-10.259C91.732,141.7,91.606,143.566,90.415,151.959z"/>
			<ellipse id="XMLID_260_" style="fill:none;" cx="84.763" cy="151.958" rx="5.652" ry="10.257"/>
			<path id="XMLID_259_" style="fill:#C4884D;" d="M81.927,163.238c0,0,0.342,0.182,0.872,0.374c0.262,0.105,0.58,0.186,0.914,0.271
				c0.337,0.077,0.702,0.136,1.067,0.131c0.364,0.028,0.73-0.014,1.064-0.086c0.331-0.078,0.65-0.153,0.901-0.277
				c0.521-0.207,0.844-0.43,0.853-0.413c0,0-0.07,0.066-0.193,0.181c-0.127,0.11-0.301,0.287-0.56,0.427
				c-0.125,0.078-0.261,0.163-0.42,0.224c-0.155,0.065-0.316,0.154-0.501,0.186c-0.358,0.095-0.757,0.16-1.155,0.147
				c-0.8-0.025-1.558-0.301-2.062-0.593C82.197,163.522,81.927,163.238,81.927,163.238z"/>
			<g id="XMLID_253_">
				<defs>
					<path id="XMLID_254_" d="M90.415,151.959c-0.795,5.607-2.53,10.256-5.652,10.256c-3.121,0-5.136-4.617-5.652-10.256
						c-0.758-8.302-0.967-10.259,5.652-10.259C91.732,141.7,91.606,143.566,90.415,151.959z"/>
				</defs>
				<clipPath id="XMLID_3_">
					<use xlink:href="#XMLID_254_"  style="overflow:visible;"/>
				</clipPath>
				<path id="XMLID_210_" style="clip-path:url(#XMLID_3_);fill:#FFFFFF;" d="M72.131,144.509c0.718,0.59,1.657,1.032,2.831,1.357
					c1.096,0.305,2.398,0.51,3.92,0.641c1.393,0.12,2.972,0.178,4.746,0.197c0.431,0.004,0.873,0.006,1.329,0.006
					c1.756,0,3.334-0.029,4.744-0.107c1.93-0.109,3.545-0.307,4.878-0.642c1.336-0.336,2.388-0.811,3.195-1.471
					c0.204-0.168,0.391-0.345,0.564-0.536c0.181-0.202,0.349-0.418,0.494-0.65c0.152-0.244,0.269-0.495,0.362-0.746
					c0.091-0.251,0.158-0.501,0.209-0.746c0.052-0.246,0.085-0.484,0.114-0.716c0.027-0.231,0.05-0.452,0.073-0.66
					c-1.284,0.066-2.758,0.242-4.375,0.442c-1.619,0.199-3.386,0.422-5.254,0.583c-1.549,0.134-3.169,0.225-4.836,0.225
					c-0.297,0-0.592-0.004-0.886-0.008c-1.768-0.033-3.477-0.161-5.098-0.325c-1.679-0.168-3.264-0.374-4.722-0.551
					c-1.518-0.184-2.897-0.338-4.099-0.381c0.023,0.209,0.043,0.429,0.075,0.66c0.029,0.231,0.067,0.472,0.12,0.719
					c0.052,0.246,0.121,0.497,0.214,0.75c0.093,0.252,0.21,0.505,0.359,0.756c0.139,0.235,0.302,0.456,0.48,0.66
					C71.739,144.159,71.926,144.34,72.131,144.509z"/>
			</g>
		</g>
	</g>
</g>
<g id="Boca_3">
	<g>
		<path id="XMLID_917_" style="fill:#C4884D;" d="M69.229,143.424c0.609-1.174,3.206,3.066,13.483,4.3
			c10.277,1.234,14.611-5.096,15.974-4.039s-6.566,7.551-16.256,6.388C72.74,148.91,68.066,145.668,69.229,143.424z"/>
		<path id="XMLID_916_" style="fill:#C4884D;" d="M89.815,152.5c-1.834,0.185-3.431,0.671-5.322,0.553
			c-1.919-0.121-3.789-0.875-5.689-0.901c-0.525-0.006-0.678,0.618-0.226,0.869c2.836,1.575,8.875,2.503,11.491,0.07
			C90.312,152.865,90.159,152.465,89.815,152.5z"/>
	</g>
</g>
</svg>
