<?xml version="1.0" encoding="utf-8"?>
<!-- Generator: Adobe Illustrator 21.0.0, SVG Export Plug-In . SVG Version: 6.00 Build 0)  -->
<svg version="1.1" id="Capa_1" xmlns="http://www.w3.org/2000/svg" xmlns:xlink="http://www.w3.org/1999/xlink" x="0px" y="0px"
	 viewBox="0 0 159.124 28.668" style="enable-background:new 0 0 159.124 28.668;" xml:space="preserve">
<g>
	<path style="fill:#FFFFFF;" d="M1.015,20.764l2.338-5.238c2.918,1.91,5.18,2.865,6.785,2.865c0.586,0,1.137-0.17,1.652-0.509
		c0.586-0.375,0.879-0.837,0.879-1.388c0-0.831-1.084-1.521-3.252-2.072c-3.164-0.808-5.297-2.464-6.398-4.969
		C2.655,8.634,2.474,7.86,2.474,7.134c0-1.873,0.949-3.289,2.848-4.249c1.488-0.749,3.264-1.124,5.326-1.124
		c1.828,0,3.973,0.24,6.434,0.721l-1.67,4.992c-1.852-0.844-3.363-1.266-4.535-1.266c-0.527,0-1.055,0.129-1.582,0.387
		C8.661,6.901,8.345,7.305,8.345,7.81c0,0.48,0.416,0.985,1.248,1.513c0.586,0.376,1.699,0.886,3.34,1.531
		c1.418,0.563,2.426,1.108,3.023,1.637c0.902,0.798,1.383,1.865,1.441,3.203c0.105,2.218-0.914,4.218-3.059,6.001
		c-0.914,0.763-2.25,1.144-4.008,1.144C7.976,22.838,4.87,22.147,1.015,20.764z"/>
	<path style="fill:#FFFFFF;" d="M22.706,3.924c0.785-0.176,1.553-0.264,2.303-0.264c3.633,0,5.971,1.887,7.014,5.66
		c0.539,1.957,0.779,4.207,0.721,6.75L32.603,22.1l-4.553,0.281l-0.035-0.826c-5.719-0.199-8.701-1.605-8.947-4.219
		c-0.035-0.375-0.053-0.65-0.053-0.826c0-2.133,0.855-3.469,2.566-4.008c0.855-0.27,1.705-0.404,2.549-0.404
		c1.125,0,2.273,0.229,3.445,0.686c-0.012-2.016-0.035-3.082-0.07-3.199c-0.234-0.809-1.014-1.266-2.338-1.371
		c-1.125-0.094-2.203,0.844-3.234,2.813l-4.5-0.703C18.651,6.572,20.409,4.439,22.706,3.924z M25.624,15.227
		c-1.23,0-1.875,0.322-1.934,0.967c-0.094,0.938,1.289,1.699,4.148,2.285l-0.123-3.041C26.896,15.297,26.198,15.227,25.624,15.227z"
		/>
	<path style="fill:#FFFFFF;" d="M33.288,23.541V1.498c2.508-0.504,4.605-0.756,6.293-0.756c2.777,0,4.43,0.686,4.957,2.057
		c0.199,0.516,0.299,1.049,0.299,1.6c0,1.734-1.037,3.568-3.111,5.502c3.34,2.379,5.01,4.512,5.01,6.399
		C46.735,19.381,42.253,21.795,33.288,23.541z M37.366,5.47l0.123,3.023c1.957-1.348,2.936-2.273,2.936-2.777
		c0-0.305-0.357-0.457-1.072-0.457C38.86,5.259,38.198,5.33,37.366,5.47z M37.366,14.259v3.797c2.602-0.949,3.902-1.781,3.902-2.496
		C41.269,14.694,39.968,14.259,37.366,14.259z"/>
	<path style="fill:#FFFFFF;" d="M50.813,2.271c0.258,0,0.492,0.035,0.703,0.105c0.984,0.328,1.629,0.938,1.934,1.828
		c0.094,0.27,0.141,0.539,0.141,0.809c0,0.598-0.24,1.189-0.721,1.775c-0.691,0.844-1.488,1.225-2.391,1.143
		s-1.635-0.568-2.197-1.459c-0.258-0.41-0.387-0.826-0.387-1.248c0-0.539,0.188-1.107,0.563-1.705
		C49.255,2.687,50.04,2.271,50.813,2.271z M53.485,9.759c-0.188,4.348-0.422,8.661-0.703,12.938l-4.5,0.422
		c0.164-1.828,0.246-3.686,0.246-5.572c0-2.344-0.129-4.723-0.387-7.137L53.485,9.759z"/>
	<path style="fill:#FFFFFF;" d="M59.181,3.924c0.785-0.176,1.553-0.264,2.303-0.264c3.633,0,5.971,1.887,7.014,5.66
		c0.539,1.957,0.779,4.207,0.721,6.75L69.077,22.1l-4.553,0.281l-0.035-0.826c-5.719-0.199-8.701-1.605-8.947-4.219
		c-0.035-0.375-0.053-0.65-0.053-0.826c0-2.133,0.855-3.469,2.566-4.008c0.855-0.27,1.705-0.404,2.549-0.404
		c1.125,0,2.273,0.229,3.445,0.686c-0.012-2.016-0.035-3.082-0.07-3.199c-0.234-0.809-1.014-1.266-2.338-1.371
		c-1.125-0.094-2.203,0.844-3.234,2.813l-4.5-0.703C55.126,6.572,56.884,4.439,59.181,3.924z M62.099,15.227
		c-1.23,0-1.875,0.322-1.934,0.967c-0.094,0.938,1.289,1.699,4.148,2.285l-0.123-3.041C63.37,15.297,62.673,15.227,62.099,15.227z"
		/>
	<path style="fill:#FFFFFF;" d="M69.341,21.115l2.074-4.711c2.648,1.723,4.699,2.584,6.152,2.584c0.516,0,1.014-0.152,1.494-0.457
		c0.539-0.34,0.809-0.756,0.809-1.248c0-0.738-0.984-1.359-2.953-1.863c-2.848-0.727-4.764-2.221-5.748-4.483
		c-0.328-0.75-0.492-1.441-0.492-2.074c0-1.348,0.691-2.525,2.074-3.533c1.184-0.867,2.947-1.301,5.291-1.301
		c1.652,0,3.598,0.217,5.836,0.65l-1.494,4.5c-1.699-0.762-3.076-1.143-4.131-1.143c-0.516,0-1.002,0.111-1.459,0.334
		c-0.563,0.271-0.844,0.634-0.844,1.092c0,0.422,0.375,0.874,1.125,1.354c0.516,0.329,1.523,0.786,3.023,1.373
		c1.266,0.493,2.18,0.985,2.742,1.479c0.82,0.716,1.254,1.678,1.301,2.886c0.082,1.983-0.844,3.784-2.777,5.403
		c-0.82,0.692-2.021,1.038-3.604,1.038C75.64,22.996,72.833,22.369,69.341,21.115z"/>
	<path style="fill:#FFFFFF;" d="M95.356,13.556c0.023-3.797,1.002-6.41,2.936-7.84c0.984-0.727,2.109-1.09,3.375-1.09
		c1.102,0,2.303,0.281,3.604,0.844V4.717l5.361-0.09c-0.527,7.895-0.768,13.015-0.721,15.361c0.035,1.9,0.475,2.851,1.318,2.851
		c0.129,0,0.264-0.018,0.404-0.053l-0.018,4.904c-0.68,0.152-1.307,0.229-1.881,0.229c-3.281,0-4.904-2.396-4.869-7.189
		c-1.031,0.422-2.016,0.633-2.953,0.633c-1.254,0-2.438-0.381-3.551-1.143C96.347,18.836,95.345,16.615,95.356,13.556z
		 M105.218,10.093c-1.09-0.867-2.004-1.301-2.742-1.301c-0.492,0-0.908,0.211-1.248,0.633c-0.633,0.785-0.949,1.857-0.949,3.217
		c0,0.398,0.029,0.832,0.088,1.301c0.246,1.981,0.938,2.989,2.074,3.024c1.125,0.023,2.021-0.51,2.689-1.6L105.218,10.093z"/>
	<path style="fill:#FFFFFF;" d="M121.249,22.065l-0.193-1.723c-1.91,1.289-3.48,1.934-4.711,1.934c-1.207,0-2.08-0.633-2.619-1.898
		c-1.078-2.531-1.57-8.274-1.477-17.227l4.219-0.158c-0.082,2.109-0.123,3.967-0.123,5.572c0,5.86,0.568,8.79,1.705,8.79
		c0.645,0,1.477-0.844,2.496-2.531V3.467h4.078l-0.563,18.387L121.249,22.065z"/>
	<path style="fill:#FFFFFF;" d="M129.95,14.981c0.527,1.77,1.646,2.695,3.357,2.777c1.594,0.082,2.672-0.756,3.234-2.514
		l4.922-0.703c-1.254,5.145-3.744,7.717-7.471,7.717c-1.148,0-2.432-0.264-3.85-0.791c-2.625-1.5-3.938-4.383-3.938-8.649
		c0-0.363,0.012-0.768,0.035-1.213c0.258-4.934,2.66-7.799,7.206-8.596c4.312-0.094,6.796,2.904,7.452,8.993L129.95,14.981z
		 M131.295,8.714c-0.65,0.768-1.005,1.696-1.063,2.786l6.592-1.881c-0.762-1.371-1.711-2.057-2.848-2.057
		S131.945,7.946,131.295,8.714z"/>
	<path style="fill:#FFFFFF;" d="M142.411,21.766c-0.327-0.539-0.49-1.049-0.49-1.529c0-0.41,0.117-0.803,0.351-1.178
		c0.502-0.797,1.167-1.23,1.997-1.301c0.829-0.07,1.553,0.27,2.172,1.02c0.433,0.516,0.648,1.055,0.648,1.617
		c0,0.258-0.041,0.504-0.122,0.738c-0.281,0.809-0.871,1.365-1.771,1.67c-0.21,0.07-0.42,0.105-0.63,0.105
		C143.865,22.908,143.147,22.528,142.411,21.766z"/>
	<path style="fill:#FFFFFF;" d="M148.054,21.766c-0.327-0.539-0.49-1.049-0.49-1.529c0-0.41,0.117-0.803,0.351-1.178
		c0.502-0.797,1.167-1.23,1.997-1.301c0.829-0.07,1.553,0.27,2.172,1.02c0.433,0.516,0.648,1.055,0.648,1.617
		c0,0.258-0.041,0.504-0.122,0.738c-0.281,0.809-0.871,1.365-1.771,1.67c-0.21,0.07-0.42,0.105-0.63,0.105
		C149.508,22.908,148.79,22.528,148.054,21.766z"/>
	<path style="fill:#FFFFFF;" d="M153.696,21.766c-0.327-0.539-0.49-1.049-0.49-1.529c0-0.41,0.117-0.803,0.351-1.178
		c0.502-0.797,1.167-1.23,1.997-1.301c0.829-0.07,1.553,0.27,2.172,1.02c0.433,0.516,0.648,1.055,0.648,1.617
		c0,0.258-0.041,0.504-0.122,0.738c-0.281,0.809-0.871,1.365-1.771,1.67c-0.21,0.07-0.42,0.105-0.63,0.105
		C155.15,22.908,154.433,22.528,153.696,21.766z"/>
	<g>
		<path style="fill:#054700;" d="M13.207,10.156c-1.59-0.626-2.67-1.119-3.213-1.467C9.283,8.239,9.095,7.917,9.095,7.81
			c0-0.071,0-0.286,0.529-0.541c0.427-0.209,0.837-0.311,1.252-0.311c1.059,0,2.479,0.403,4.224,1.198l0.758,0.345l2.206-6.592
			l-0.839-0.164c-2.497-0.487-4.709-0.734-6.577-0.734c-2.17,0-4.076,0.405-5.665,1.205C2.82,3.31,1.724,4.965,1.724,7.134
			c0,0.828,0.205,1.71,0.608,2.62c1.194,2.715,3.515,4.53,6.9,5.394c2.125,0.54,2.687,1.116,2.687,1.346
			c0,0.113,0,0.415-0.541,0.761c-0.395,0.26-0.8,0.386-1.24,0.386c-1.45,0-3.594-0.923-6.375-2.743l-0.737-0.481L0,21.197
			l0.761,0.273c3.919,1.405,7.139,2.118,9.57,2.118c1.93,0,3.44-0.443,4.487-1.316c2.325-1.934,3.445-4.159,3.329-6.611
			c-0.068-1.542-0.638-2.797-1.694-3.731C15.785,11.339,14.724,10.759,13.207,10.156z M13.858,21.118
			c-1.804,1.506-5.876,1.25-11.827-0.792l1.651-3.7c2.712,1.69,4.829,2.515,6.455,2.515c0.731,0,1.426-0.213,2.057-0.627
			c1.012-0.647,1.225-1.456,1.225-2.02c0-1.64-2.179-2.383-3.816-2.799c-2.956-0.755-4.885-2.242-5.898-4.547
			c-0.319-0.719-0.48-1.396-0.48-2.014c0-1.58,0.797-2.751,2.435-3.579c2.487-1.253,5.833-1.311,10.438-0.494L14.96,6.46
			c-1.621-0.673-2.963-1.001-4.084-1.001c-0.64,0-1.283,0.156-1.908,0.461C7.833,6.468,7.595,7.251,7.595,7.81
			c0,0.763,0.522,1.465,1.593,2.144c0.631,0.404,1.766,0.927,3.468,1.597c1.332,0.529,2.275,1.035,2.804,1.502
			c0.75,0.663,1.139,1.538,1.189,2.676C16.743,17.716,15.831,19.479,13.858,21.118z"/>
		<path style="fill:#054700;" d="M27.843,14.698c-0.858-0.147-1.605-0.222-2.219-0.222c-2.092,0-2.612,0.896-2.68,1.643
			c-0.187,1.863,2.618,2.658,4.744,3.094l0.938,0.192l-0.187-4.604L27.843,14.698z M24.438,16.262
			c0.012-0.139,0.433-0.285,1.187-0.285c0.388,0,0.846,0.036,1.367,0.107l0.059,1.447C24.458,16.882,24.436,16.275,24.438,16.262z"
			/>
		<path style="fill:#054700;" d="M37.915,9.112c2.706-1.863,3.26-2.705,3.26-3.395c0-0.451-0.237-1.207-1.822-1.207
			c-0.539,0-1.23,0.072-2.111,0.221l-0.651,0.11l0.205,5.042L37.915,9.112z M39.41,6.01c-0.21,0.225-0.58,0.566-1.228,1.06
			l-0.039-0.96C38.662,6.039,39.099,6.005,39.41,6.01z"/>
		<path style="fill:#054700;" d="M37.366,13.509h-0.75v5.62l1.007-0.368c3.081-1.124,4.396-2.081,4.396-3.2
			C42.019,13.509,38.639,13.509,37.366,13.509z M38.116,16.963v-1.939c2.106,0.082,2.391,0.506,2.406,0.506c0,0,0,0,0,0
			C40.515,15.553,40.326,16.055,38.116,16.963z"/>
		<path style="fill:#054700;" d="M42.881,9.818c1.796-1.854,2.706-3.674,2.706-5.419c0-0.641-0.118-1.27-0.349-1.869
			C44.23-0.092,40.257-0.667,33.14,0.762l-0.602,0.121v7.631C31.314,4.81,28.795,2.91,25.009,2.91c-0.802,0-1.631,0.095-2.467,0.282
			c-2.563,0.576-4.522,2.896-5.823,6.898l-0.272,0.837l5.109,0.798c-0.067,0.02-0.134,0.04-0.201,0.061
			c-1.41,0.444-3.091,1.625-3.091,4.724c0,0.19,0.018,0.489,0.056,0.896c0.275,2.92,3.293,4.556,8.974,4.867l0.039,0.903
			l5.205-0.322v1.596l0.894-0.174c9.457-1.842,14.054-4.452,14.054-7.979C47.485,14.285,45.977,12.159,42.881,9.818z M31.869,21.394
			l-3.102,0.191l-0.032-0.756l-0.694-0.024c-5.255-0.183-8.022-1.373-8.227-3.539c-0.032-0.343-0.049-0.595-0.049-0.756
			c0-2.375,1.165-3.017,2.042-3.293c0.778-0.245,1.56-0.37,2.323-0.37c1.026,0,2.094,0.213,3.173,0.634l1.029,0.401l-0.006-1.104
			c-0.018-3.131-0.057-3.261-0.1-3.404c-0.226-0.78-0.93-1.745-2.996-1.91c-1.367-0.112-2.577,0.783-3.701,2.738L18.437,9.72
			c1.103-2.949,2.592-4.651,4.434-5.064c0.728-0.163,1.447-0.246,2.139-0.246c3.283,0,5.34,1.671,6.291,5.109
			c0.517,1.877,0.75,4.076,0.694,6.534L31.869,21.394z M22.534,11.494l0.063-0.121c0.6-1.146,1.539-2.486,2.51-2.413
			c1.47,0.117,1.626,0.655,1.661,0.762c0.01,0.078,0.033,0.433,0.049,2.015c-0.907-0.259-1.807-0.389-2.688-0.389
			C23.602,11.347,23.068,11.396,22.534,11.494z M34.038,22.626V2.115c5.73-1.084,9.15-0.739,9.8,0.954
			c0.165,0.426,0.249,0.874,0.249,1.329c0,1.51-0.966,3.176-2.873,4.953l-0.672,0.626l0.749,0.533
			c3.071,2.188,4.695,4.189,4.695,5.788C45.985,18.073,43.884,20.589,34.038,22.626z"/>
		<path style="fill:#054700;" d="M50.412,8.678c0.105,0.009,0.21,0.014,0.313,0.014c1.032,0,1.948-0.479,2.726-1.428
			c0.591-0.721,0.891-1.478,0.891-2.251c0-0.353-0.062-0.708-0.181-1.051c-0.383-1.12-1.192-1.893-2.406-2.297
			c-0.287-0.096-0.603-0.144-0.94-0.144c-0.982,0-1.957,0.498-2.897,1.479l-0.094,0.12c-0.449,0.716-0.677,1.424-0.677,2.104
			c0,0.563,0.169,1.118,0.502,1.648C48.339,7.967,49.269,8.574,50.412,8.678z M49.054,3.982c0.626-0.638,1.218-0.961,1.76-0.961
			c0.176,0,0.333,0.022,0.466,0.067c0.767,0.256,1.231,0.688,1.462,1.363c0.067,0.191,0.099,0.375,0.099,0.562
			c0,0.423-0.18,0.848-0.551,1.3c-0.536,0.653-1.085,0.928-1.743,0.871c-0.663-0.06-1.196-0.424-1.63-1.111
			c-0.183-0.291-0.271-0.569-0.271-0.849C48.646,4.849,48.783,4.431,49.054,3.982z"/>
		<path style="fill:#054700;" d="M64.317,14.698c-0.858-0.147-1.605-0.222-2.219-0.222c-2.092,0-2.612,0.896-2.68,1.643
			c-0.187,1.863,2.618,2.658,4.744,3.094l0.938,0.192l-0.187-4.604L64.317,14.698z M60.912,16.262
			c0.012-0.139,0.433-0.285,1.187-0.285c0.388,0,0.846,0.036,1.367,0.107l0.059,1.447C60.932,16.882,60.911,16.275,60.912,16.262z"
			/>
		<path style="fill:#054700;" d="M80.372,11.492c-1.45-0.568-2.424-1.007-2.892-1.306c-0.729-0.467-0.78-0.723-0.78-0.723
			c0-0.053,0-0.214,0.422-0.417c0.356-0.174,0.726-0.258,1.13-0.258c0.943,0,2.23,0.362,3.824,1.077l0.757,0.339l2.025-6.098
			l-0.838-0.163c-5.628-1.089-9.517-0.828-11.711,0.781c-1.581,1.152-2.382,2.545-2.382,4.139c0,0.734,0.187,1.533,0.555,2.374
			c1.077,2.475,3.18,4.127,6.25,4.91c2.287,0.585,2.389,1.132,2.389,1.137c0,0.089,0,0.324-0.46,0.614
			c-0.361,0.229-0.718,0.341-1.092,0.341c-1.299,0-3.231-0.828-5.743-2.463l-0.74-0.481l-1.159,2.633l0.043-1.839
			c0.06-2.605-0.192-4.949-0.748-6.968c-1.139-4.121-3.742-6.21-7.736-6.21c-0.802,0-1.631,0.095-2.467,0.282
			c-2.315,0.52-4.132,2.478-5.422,5.799l-6.278,0.764l0.079,0.735c0.253,2.376,0.382,4.751,0.382,7.058
			c0,1.855-0.082,3.708-0.243,5.505l-0.081,0.898l6.034-0.565l0.042-0.639c0.252-3.826,0.462-7.73,0.639-11.624l3.861,0.603
			c-0.067,0.02-0.134,0.04-0.201,0.061c-1.41,0.444-3.091,1.625-3.091,4.724c0,0.19,0.018,0.489,0.056,0.896
			c0.275,2.92,3.293,4.556,8.974,4.867l0.039,0.903l6.003-0.371l0.017-0.729c3.22,1.103,5.891,1.669,7.933,1.669
			c1.757,0,3.132-0.409,4.085-1.213c2.112-1.77,3.137-3.791,3.045-6.008c-0.055-1.416-0.579-2.568-1.556-3.421
			C82.702,12.55,81.732,12.022,80.372,11.492z M52.075,22.01l-2.972,0.279c0.116-1.559,0.175-3.149,0.175-4.742
			c0-2.121-0.106-4.298-0.316-6.481l3.735-0.455C52.527,14.426,52.318,18.253,52.075,22.01z M65.209,20.829l-0.694-0.024
			c-5.255-0.183-8.022-1.373-8.227-3.539c-0.032-0.343-0.049-0.595-0.049-0.756c0-2.375,1.165-3.017,2.042-3.293
			c0.778-0.245,1.56-0.37,2.323-0.37c1.026,0,2.094,0.213,3.173,0.634l1.029,0.401L64.8,12.779c-0.018-3.131-0.057-3.261-0.1-3.404
			c-0.226-0.78-0.93-1.745-2.996-1.91c-1.369-0.112-2.577,0.783-3.701,2.738L54.911,9.72c1.103-2.949,2.592-4.651,4.434-5.064
			c0.728-0.163,1.447-0.246,2.139-0.246c3.283,0,5.34,1.671,6.291,5.109c0.517,1.877,0.75,4.076,0.694,6.534l-0.125,5.341
			l-3.102,0.191L65.209,20.829z M59.008,11.494l0.063-0.121c0.6-1.146,1.535-2.486,2.51-2.413c1.47,0.117,1.626,0.655,1.661,0.762
			c0.01,0.078,0.033,0.433,0.049,2.015c-0.907-0.259-1.807-0.389-2.688-0.389C60.077,11.347,59.543,11.396,59.008,11.494z
			 M80.88,21.385c-1.585,1.339-5.212,1.109-10.526-0.709l1.396-3.172c2.439,1.502,4.347,2.234,5.817,2.234
			c0.658,0,1.295-0.193,1.894-0.572c0.958-0.604,1.159-1.357,1.159-1.883c0-1.515-2.007-2.203-3.518-2.59
			c-2.635-0.672-4.351-1.999-5.247-4.057c-0.285-0.651-0.429-1.248-0.429-1.773c0-1.104,0.578-2.061,1.768-2.928
			c1.717-1.258,4.997-1.494,9.7-0.674L81.929,8.17c-2.381-0.965-4.02-1.177-5.46-0.475C75.42,8.199,75.2,8.934,75.2,9.463
			c0,0.703,0.481,1.352,1.472,1.987c0.559,0.357,1.591,0.828,3.154,1.439c1.18,0.459,2.027,0.912,2.521,1.345
			c0.664,0.58,1.006,1.349,1.044,2.353C83.465,18.339,82.644,19.908,80.88,21.385z"/>
		<path style="fill:#054700;" d="M100.644,8.955c-0.74,0.918-1.115,2.159-1.115,3.688c0,0.428,0.031,0.896,0.094,1.393
			c0.37,2.982,1.725,3.648,2.803,3.682c0.028,0,0.057,0.001,0.085,0.001c1.348,0,2.474-0.676,3.26-1.959l0.106-0.174l0.098-5.849
			l-0.289-0.23C103.484,7.756,101.742,7.592,100.644,8.955z M104.384,15.141c-0.51,0.751-1.135,1.125-1.92,1.076
			c-0.706-0.021-1.161-0.817-1.354-2.367c-0.055-0.436-0.082-0.842-0.082-1.208c0-1.177,0.264-2.102,0.783-2.746
			c0.252-0.313,0.487-0.354,0.664-0.354c0.354,0,0.977,0.166,1.986,0.915L104.384,15.141z"/>
		<path style="fill:#054700;" d="M111.229,22.088c-0.255,0-0.542-0.662-0.568-2.115c-0.046-2.313,0.195-7.46,0.719-15.296
			l0.055-0.813l-6.914,0.116V4.38c-2.604-0.867-4.864-0.603-6.675,0.733c-2.124,1.571-3.215,4.41-3.239,8.438v0.001
			c-0.013,3.308,1.108,5.758,3.332,7.285c1.865,1.275,3.939,1.596,6.197,0.94c0.115,2.521,0.736,4.32,1.889,5.48
			c0.928,0.936,2.177,1.409,3.711,1.409c0.627,0,1.314-0.083,2.045-0.247l0.584-0.131l0.023-6.467l-0.936,0.234
			C111.371,22.078,111.297,22.088,111.229,22.088z M110.868,27.071c-1.703,0.271-2.934-0.017-3.779-0.868
			c-0.996-1.004-1.492-2.844-1.473-5.468l0.008-1.126l-1.042,0.426c-2.178,0.892-4.054,0.758-5.796-0.434
			c-1.813-1.245-2.69-3.221-2.68-6.041c0.022-3.529,0.907-5.965,2.631-7.24c1.629-1.203,3.692-1.262,6.235-0.161l1.048,0.453V5.47
			l3.809-0.08c-0.488,7.423-0.713,12.337-0.668,14.611c0.04,2.162,0.618,3.356,1.72,3.557L110.868,27.071z"/>
		<path style="fill:#054700;" d="M119.796,14.612c-1.167,1.885-1.699,1.987-1.699,2.002c-0.113-0.07-1.002-0.855-1.002-8.049
			c0-1.588,0.041-3.453,0.122-5.543l0.032-0.809l-5.742,0.215l-0.008,0.715c-0.096,9.143,0.407,14.876,1.536,17.529
			c0.829,1.946,2.258,2.354,3.31,2.354c1.155,0,2.504-0.462,4.1-1.407l0.14,1.248l4.207-0.315l0.606-19.834h-5.602V14.612z
			 M121.296,15.031V4.217h2.555l-0.519,16.94l-1.418,0.106l-0.251-2.235l-1.027,0.692c-1.774,1.198-3.219,1.806-4.291,1.806
			c-0.564,0-1.379-0.149-1.929-1.442c-1.005-2.357-1.482-7.81-1.423-16.21l2.695-0.101c-0.063,1.784-0.094,3.393-0.094,4.792
			c0,6.776,0.711,9.54,2.455,9.54c0.961,0,1.929-0.893,3.138-2.894L121.296,15.031z"/>
		<path style="fill:#054700;" d="M137.479,9.255c-0.9-1.621-2.079-2.442-3.503-2.442c-1.362,0-2.456,0.477-3.253,1.417
			c-0.756,0.892-1.173,1.979-1.24,3.231l-0.057,1.05l8.512-2.429L137.479,9.255z M131.172,10.451
			c0.147-0.464,0.378-0.879,0.695-1.253c0.505-0.596,1.195-0.886,2.108-0.886c0.614,0,1.159,0.286,1.65,0.868L131.172,10.451z"/>
		<path style="fill:#054700;" d="M142.455,13.642l-6.484,0.927l-0.143,0.447c-0.462,1.442-1.205,2.062-2.484,1.993
			c-1.138-0.055-1.914-0.543-2.397-1.522l10.768-2.928l-0.068-0.636c-0.691-6.415-3.382-9.665-7.997-9.665
			c-0.071,0-0.145,0.001-0.218,0.002l-0.113,0.011c-4.915,0.862-7.548,3.989-7.825,9.295c-0.024,0.46-0.036,0.877-0.036,1.252
			c0,4.535,1.452,7.664,4.315,9.3l0.11,0.052c1.495,0.556,2.879,0.838,4.111,0.838c4.1,0,6.858-2.789,8.199-8.289L142.455,13.642z
			 M133.993,21.508c-1.038,0-2.226-0.243-3.53-0.723c-2.359-1.377-3.507-3.983-3.507-7.967c0-0.352,0.012-0.743,0.034-1.174
			c0.238-4.558,2.374-7.138,6.53-7.886c0.039-0.001,0.078-0.001,0.117-0.001c3.635,0,5.746,2.52,6.439,7.691l-11.065,3.009
			l0.22,0.736c0.617,2.07,2.014,3.216,4.038,3.312c1.269,0.06,2.931-0.347,3.825-2.584l3.347-0.479
			C139.212,19.522,137.096,21.508,133.993,21.508z"/>
		<path style="fill:#054700;" d="M158.304,18.3c-0.975-1.181-2.061-1.357-2.813-1.289c-1.072,0.091-1.936,0.645-2.569,1.65
			c-0.081-0.121-0.161-0.243-0.26-0.361c-0.975-1.181-2.061-1.357-2.813-1.289c-1.072,0.091-1.936,0.645-2.569,1.65
			c-0.081-0.121-0.161-0.243-0.26-0.361c-0.975-1.181-2.061-1.357-2.813-1.289c-1.072,0.091-1.937,0.646-2.57,1.651
			c-0.308,0.495-0.464,1.024-0.464,1.574c0,0.618,0.201,1.264,0.599,1.918l0.103,0.133c0.88,0.91,1.786,1.371,2.694,1.371
			c0.29,0,0.582-0.049,0.87-0.146c0.863-0.292,1.503-0.786,1.918-1.465c0.021,0.036,0.035,0.071,0.057,0.107l0.103,0.133
			c0.88,0.91,1.786,1.371,2.694,1.371c0.29,0,0.582-0.049,0.87-0.146c0.863-0.292,1.503-0.786,1.918-1.465
			c0.021,0.036,0.035,0.071,0.057,0.107l0.103,0.133c0.88,0.91,1.786,1.371,2.694,1.371c0.29,0,0.582-0.049,0.87-0.146
			c1.126-0.381,1.879-1.099,2.239-2.135c0.108-0.313,0.163-0.645,0.163-0.983C159.124,19.654,158.847,18.947,158.304,18.3z
			 M146.259,20.887c-0.206,0.591-0.62,0.975-1.301,1.205c-0.618,0.207-1.229-0.064-1.948-0.786c-0.225-0.39-0.339-0.749-0.339-1.069
			c0-0.27,0.077-0.524,0.235-0.778c0.378-0.6,0.831-0.902,1.426-0.953c0.587-0.045,1.066,0.189,1.534,0.755
			c0.318,0.379,0.473,0.75,0.473,1.135C146.339,20.57,146.313,20.731,146.259,20.887z M151.901,20.887
			c-0.206,0.591-0.62,0.975-1.301,1.205c-0.616,0.207-1.229-0.064-1.948-0.786c-0.225-0.39-0.339-0.749-0.339-1.069
			c0-0.27,0.077-0.524,0.235-0.778c0.378-0.6,0.831-0.902,1.426-0.953c0.587-0.045,1.066,0.189,1.534,0.755
			c0.318,0.379,0.473,0.75,0.473,1.135C151.981,20.57,151.955,20.731,151.901,20.887z M157.544,20.887
			c-0.206,0.591-0.62,0.975-1.301,1.205c-0.616,0.207-1.229-0.064-1.948-0.786c-0.225-0.39-0.339-0.749-0.339-1.069
			c0-0.27,0.077-0.524,0.235-0.778c0.378-0.6,0.831-0.902,1.426-0.953c0.587-0.045,1.066,0.189,1.534,0.755
			c0.318,0.379,0.473,0.75,0.473,1.135C157.624,20.57,157.598,20.731,157.544,20.887z"/>
	</g>
</g>
</svg>
