<?xml version="1.0" encoding="utf-8"?>
<!-- Generator: Adobe Illustrator 21.0.0, SVG Export Plug-In . SVG Version: 6.00 Build 0)  -->
<svg version="1.1" id="Capa_1" xmlns="http://www.w3.org/2000/svg" xmlns:xlink="http://www.w3.org/1999/xlink" x="0px" y="0px"
	 viewBox="0 0 732.198 229.486" style="enable-background:new 0 0 732.198 229.486;" xml:space="preserve">
<g>
	<g style="opacity:0.5;">
		<path id="XMLID_332_" style="fill:#FFFFFF;" d="M19.528,82.678c4.791,0,9.175-1.728,12.573-4.591
			c2.857,5.181,8.368,8.693,14.702,8.693c4.12,0,7.888-1.49,10.809-3.954c2.501,1.479,5.407,2.343,8.523,2.343
			c5.318,0,10.049-2.481,13.124-6.34c2.22,3.81,6.34,6.378,11.068,6.378c5.036,0,9.381-2.912,11.476-7.138
			c2.986,2.734,6.95,4.416,11.317,4.416c9.269,0,16.782-7.513,16.782-16.782c0-2.595-0.606-5.042-1.658-7.236
			c-2.704-5.641-8.45-9.546-15.124-9.546c-3.236,0-6.247,0.932-8.811,2.519c-2.349-2.897-5.933-4.752-9.954-4.752
			c-0.556,0-1.099,0.047-1.636,0.116c-0.313,0.04-0.626,0.08-0.931,0.142c-0.161-1.306-0.512-2.551-1.028-3.709
			c-2.044-4.587-6.636-7.79-11.983-7.79c-0.79,0-1.559,0.082-2.311,0.216c-0.256,0.045-0.509,0.1-0.759,0.16
			c-0.3-1.442-0.775-2.82-1.4-4.111c-2.889-5.965-9.001-10.079-16.075-10.079c-6.194,0-11.649,3.155-14.85,7.945
			c-1.856-0.707-3.861-1.111-5.965-1.111c-8.732,0-15.902,6.672-16.702,15.196c-0.393-0.024-0.789-0.039-1.188-0.039
			C8.743,43.623,0,52.366,0,63.151c0,4.226,1.347,8.136,3.63,11.332C7.171,79.442,12.969,82.678,19.528,82.678z"/>
	</g>
	<path id="XMLID_330_" style="opacity:0.5;fill:#FFFFFF;" d="M583.078,56.303c3.592,0,6.823-1.515,9.113-3.93
		c3.479,2.573,7.768,4.113,12.427,4.113c6.719,0,12.684-3.176,16.517-8.095c2.651,3.015,6.527,4.927,10.857,4.927
		c4.12,0,7.828-1.729,10.464-4.492c2.935,2.777,6.886,4.492,11.244,4.492c4.475,0,8.525-1.798,11.481-4.707
		c3.824,3.238,8.769,5.194,14.172,5.194c4.479,0,8.643-1.345,12.115-3.648c2.194,1.339,4.763,2.125,7.521,2.125
		c3.794,0,7.236-1.471,9.817-3.86c2.185,3.709,6.208,6.206,10.824,6.206c6.94,0,12.567-5.627,12.567-12.568
		c0-1.667-0.332-3.255-0.922-4.712c-1.864-4.604-6.372-7.856-11.646-7.856c-2.78,0-5.342,0.914-7.423,2.443
		c-2.142-4.812-6.828-8.226-12.352-8.553c-0.084-0.005-0.167-0.009-0.251-0.013c-0.149-0.354-0.306-0.704-0.472-1.048
		c-3.549-7.349-11.072-12.418-19.779-12.418c-3.926,0-7.607,1.036-10.796,2.841c-0.198,0.112-0.398,0.223-0.593,0.341
		c-0.254-0.974-0.585-1.915-0.995-2.814C664.209,4.216,658.121,0,651.035,0c-7.949,0-14.652,5.298-16.795,12.553
		c-0.967-0.23-1.971-0.366-3.009-0.366c-5.509,0-10.202,3.446-12.073,8.295c-3.768-3.639-8.888-5.888-14.54-5.888
		c-10.087,0-18.504,7.132-20.495,16.627c-0.346-0.028-0.692-0.053-1.045-0.053c-6.941,0-12.568,5.627-12.568,12.568
		c0,3.07,1.104,5.88,2.932,8.063C575.747,54.551,579.206,56.303,583.078,56.303z"/>
	<path style="opacity:0.5;fill:#FFFFFF;" d="M600.974,208.18c-2.076-5.126-7.094-8.746-12.964-8.746
		c-3.095,0-5.947,1.018-8.264,2.72c-2.384-5.357-7.601-9.157-13.752-9.522c-0.094-0.005-0.186-0.01-0.279-0.014
		c-0.166-0.394-0.34-0.784-0.525-1.167c-3.951-8.181-12.326-13.825-22.019-13.825c-4.37,0-8.469,1.153-12.019,3.163
		c-0.221,0.125-0.444,0.248-0.66,0.379c-0.086-0.331-0.196-0.651-0.298-0.975c2.012-1.921,3.271-4.622,3.271-7.623
		c0-1.418-0.284-2.768-0.791-4.002c-1.577-3.84-5.349-6.545-9.757-6.545c-0.258,0-0.511,0.02-0.764,0.039
		c-0.414,0.03-0.822,0.078-1.221,0.154c-0.092-1.968-0.56-3.832-1.343-5.528c-2.359-5.109-7.516-8.663-13.513-8.663
		c-5.827,0-10.86,3.356-13.305,8.234c-2.2-1.282-4.75-2.029-7.48-2.029c-3.195,0-6.147,1.015-8.573,2.728
		c-1.572-2.895-3.962-5.278-6.854-6.855c-0.063-0.179-0.119-0.36-0.191-0.534c-1.577-3.84-5.349-6.545-9.757-6.545
		c-0.258,0-0.511,0.02-0.764,0.039c-0.414,0.03-0.822,0.078-1.221,0.154c-0.092-1.968-0.56-3.832-1.343-5.528
		c-2.359-5.109-7.516-8.663-13.513-8.663c-3.023,0-5.828,0.909-8.173,2.459c-0.333-1.188-0.765-2.335-1.302-3.422
		c-3.243-6.553-9.994-11.061-17.801-11.061c-8.206,0-15.24,4.983-18.264,12.085c-1.98,0.137-3.872,0.595-5.61,1.35
		c-0.438,0.19-0.868,0.395-1.286,0.619c-0.021-2.587-0.629-5.027-1.679-7.218c-2.75-5.734-8.592-9.704-15.376-9.704
		c-0.123,0-0.242,0.016-0.365,0.018c-0.305,0.007-0.607,0.024-0.908,0.046c-0.337-1.81-0.918-3.534-1.711-5.136
		c-3.243-6.553-9.994-11.061-17.801-11.061c-9.447,0-17.348,6.6-19.356,15.439c-1.353-0.345-2.762-0.548-4.222-0.548
		c-8.708,0-15.879,6.528-16.92,14.955c-1.737-0.828-3.674-1.306-5.728-1.306c-7.367,0-13.34,5.973-13.34,13.34
		c0,0.439,0.024,0.872,0.066,1.3c-1.861-1.024-3.997-1.609-6.271-1.609c-7.196,0-13.029,5.834-13.029,13.03
		c0,2.566,0.754,4.951,2.038,6.966c-0.156-0.006-0.307-0.027-0.464-0.027c-7.367,0-13.34,5.973-13.34,13.34
		c0,0.439,0.024,0.872,0.066,1.3c-1.861-1.024-3.997-1.609-6.271-1.609c-7.196,0-13.029,5.834-13.029,13.03
		c0,3.015,1.034,5.783,2.753,7.991c2.384,3.062,6.095,5.038,10.276,5.038c4.928,0,9.214-2.737,11.429-6.771
		c3.076,3.003,7.275,4.86,11.913,4.86c3.949,0,7.575-1.354,10.466-3.606c2.762,1.924,6.115,3.061,9.736,3.061
		c4.83,0,9.182-2.015,12.285-5.24c3.104,3.225,7.456,5.24,12.285,5.24c1.022,0,2.021-0.093,2.992-0.266
		c-2.241,2.27-3.627,5.386-3.627,8.827c0,3.07,1.104,5.88,2.932,8.063c2.306,2.752,5.765,4.504,9.636,4.504
		c3.592,0,6.823-1.515,9.113-3.93c3.479,2.573,7.768,4.113,12.427,4.113c6.719,0,12.684-3.176,16.517-8.095
		c2.651,3.015,6.527,4.927,10.857,4.927c4.12,0,7.828-1.729,10.464-4.492c2.935,2.777,6.886,4.492,11.244,4.492
		c4.475,0,8.525-1.798,11.481-4.707c1.261,1.067,2.653,1.979,4.133,2.744c-0.203,0.948-0.314,1.929-0.314,2.937
		c0,3.418,1.229,6.546,3.264,8.976c2.567,3.064,6.417,5.015,10.727,5.015c3.999,0,7.596-1.686,10.145-4.375
		c3.873,2.864,8.648,4.579,13.835,4.579c7.48,0,14.12-3.535,18.387-9.011c2.952,3.356,7.267,5.485,12.087,5.485
		c4.587,0,8.715-1.925,11.649-5.001c3.267,3.092,7.666,5,12.518,5c4.981,0,9.491-2.002,12.782-5.24
		c4.257,3.604,9.762,5.782,15.777,5.782c4.987,0,9.621-1.497,13.487-4.061c2.443,1.491,5.302,2.365,8.372,2.365
		c4.224,0,8.056-1.638,10.929-4.297c2.432,4.129,6.911,6.908,12.05,6.908c7.726,0,13.991-6.264,13.991-13.991
		C602,211.569,601.63,209.801,600.974,208.18z"/>
</g>
</svg>
