<?xml version="1.0" encoding="utf-8"?>
<!-- Generator: Adobe Illustrator 21.0.0, SVG Export Plug-In . SVG Version: 6.00 Build 0)  -->
<svg version="1.1" id="Capa_1" xmlns="http://www.w3.org/2000/svg" xmlns:xlink="http://www.w3.org/1999/xlink" x="0px" y="0px"
	 viewBox="0 0 309.371 77.963" style="enable-background:new 0 0 309.371 77.963;" xml:space="preserve">
<g>
	<g>
		<path style="fill:#603813;" d="M204.933,13.876c-1.286,0-2.472-0.719-5.945,4.138c-2.641,3.697-2.917,1.334-2.917,1.334
			s0-1.106-1.374,0.492c-1.363,1.598-1.363,1.598-1.363,1.598s-2.303-3.971-4.936-5.955c-0.882-0.661-1.795-1.107-2.669-1.107
			c-3.515,0-7.215,4.328-7.215,4.328s6.98-3.23,10.984,0.682c2.973,2.903,1.889,2.956,4.809,3.184
			c2.931,0.226,4.928-4.101,8.697-5.877c4.098-1.938,4.438,0.644,6.775,0.644C207.364,15.03,206.518,13.876,204.933,13.876z"/>
		<path style="fill:#603813;" d="M291.399,1.901c2.718,0.967,5.107,4.909,6.537,6.295c1.28,1.229,4.411-1.576,5.893-2.996
			c0.196-0.179,0.357-0.349,0.487-0.475c1.131-1.085,5.055-1.085,5.055-1.085s-4.118,1.511-5.531,2.853
			c-1.391,1.363-5.437,3.008-5.437,3.008s-2.168,0.339-2.168-0.522c0-0.868-0.805-1.644-1.532-2.334
			c-0.722-0.708-4.225-4.253-6.023-4.253c-1.803,0-1.803,0-1.803,0S288.689,0.927,291.399,1.901z"/>
		<path style="fill:#603813;" d="M273.248,12.424c0,0-0.744-6.01-5.962-7.822c-2.381-0.833-4.776,0.338-8.393,1.7
			c-5.437,2.022-3.404-0.417-3.404-0.417s0.525-0.502,0-1.115c-0.727-0.851-2.923,1.59-4.084,1.533
			c-2.32-0.115-5.196-0.879-7.425-3.48c-4.466-5.207-7.906-2.182-12.588,0.878c-5.03,3.281-7.087,5.661-7.087,5.661
			s8.205-5.236,14.825-4.063c3.573,0.625,7.298,6.458,11.432,6.458c0.34,0-1.974,1.501-1.678,1.53
			c0.6,0.056,1.228,0.404,1.684,0.547c0.517,0.161,1.67-2.392,2.093-2.212c1.28,0.539,4.14-0.408,6.172-1.098
			c4.914-1.653,3.202-2.692,9.319-1.852C270.715,9.032,273.248,12.424,273.248,12.424z"/>
		<path style="fill:#603813;" d="M206.032,32.934c3.216,0,13.379,6.568,14.606,11.661c-0.501,3.875,2.726,2.486,3.741,0.018
			c0.177-0.435,0.968,0.341,0.968-0.218c0-0.792-1.712-0.989-0.907-1.955c1.018-1.209,2.616-3.109,6.529-5.499
			c8.019-4.885,15.909-4.415,15.909-4.415s-11.26-1.132-16.747,1.968c-6.919,3.904-8.08,8.459-8.08,8.459
			s-4.267-9.737-10.406-11.533c-4.845-1.419-12.289,0.983-12.289,0.983S202.813,32.934,206.032,32.934z"/>
	</g>
	<g>
		<path style="fill:#603813;" d="M36.041,61.097c-0.969-0.181-1.763-0.889-5.064,2.285c-2.51,2.416-2.387,0.595-2.387,0.595
			s0.155-0.834-1.105,0.178c-1.252,1.013-1.252,1.013-1.252,1.013s-1.179-3.317-2.885-5.183c-0.572-0.623-1.198-1.087-1.856-1.21
			c-2.65-0.494-6.047,2.249-6.047,2.249s5.716-1.455,8.185,2.057c1.833,2.606,1.009,2.494,3.178,3.076
			c2.178,0.582,4.291-2.4,7.383-3.209c3.362-0.885,3.256,1.109,5.017,1.437C37.712,62.308,37.236,61.32,36.041,61.097z"/>
		<path style="fill:#603813;" d="M3.478,71.248c1.914,1.111,3.161,4.418,4.044,5.665c0.793,1.106,3.547-0.569,4.864-1.431
			c0.173-0.107,0.318-0.213,0.434-0.289c1.005-0.659,3.964-0.108,3.964-0.108s-3.317,0.561-4.571,1.374
			c-1.24,0.833-4.521,1.504-4.521,1.504s-1.682-0.049-1.561-0.698c0.122-0.655-0.376-1.353-0.827-1.975
			c-0.445-0.635-2.588-3.8-3.943-4.052C0,70.983,0,70.983,0,70.983S1.571,70.134,3.478,71.248z"/>
		<path style="fill:#603813;" d="M74.004,23.206c0,0,0.284-4.636-3.396-6.735c-1.678-0.963-3.648-0.416-6.566,0.103
			c-4.383,0.761-2.508-0.793-2.508-0.793s0.467-0.305,0.157-0.841c-0.429-0.744-2.427,0.788-3.295,0.582
			c-1.733-0.412-3.794-1.393-5.109-3.667c-2.635-4.553-5.654-2.756-9.614-1.106c-4.253,1.767-6.139,3.273-6.139,3.273
			s6.921-2.795,11.748-0.981c2.606,0.973,4.595,5.894,7.712,6.475c0.257,0.048-1.699,0.854-1.48,0.918
			c0.445,0.127,0.869,0.477,1.193,0.649c0.367,0.194,1.595-1.568,1.889-1.373c0.89,0.586,3.178,0.274,4.808,0.04
			c3.937-0.556,2.792-1.579,7.286-0.087C72.571,20.293,74.004,23.206,74.004,23.206z"/>
		<path style="fill:#603813;" d="M20.446,29.226c2.425,0.452,9.164,6.831,9.374,10.844c-0.922,2.851,1.706,2.257,2.818,0.539
			c0.195-0.303,0.682,0.393,0.76-0.029c0.111-0.597-1.152-0.986-0.409-1.602c0.937-0.769,2.409-1.976,5.695-3.229
			c6.732-2.557,12.615-1.094,12.615-1.094s-8.331-2.435-12.902-0.869c-5.765,1.971-7.28,5.243-7.28,5.243s-1.849-7.94-6.225-10.157
			c-3.453-1.751-9.403-0.985-9.403-0.985S18.019,28.774,20.446,29.226z"/>
	</g>
</g>
</svg>
