<?xml version="1.0" encoding="utf-8"?>
<!-- Generator: Adobe Illustrator 21.0.0, SVG Export Plug-In . SVG Version: 6.00 Build 0)  -->
<svg version="1.1" id="Capa_1" xmlns="http://www.w3.org/2000/svg" xmlns:xlink="http://www.w3.org/1999/xlink" x="0px" y="0px"
	 viewBox="0 0 800 223.232" style="enable-background:new 0 0 800 223.232;" xml:space="preserve">
<g>
	<g style="opacity:0.1;">
		
			<linearGradient id="SVGID_1_" gradientUnits="userSpaceOnUse" x1="-1255.6439" y1="-146.1451" x2="-1839.666" y2="-289.0868" gradientTransform="matrix(-0.9812 -0.1932 -0.1932 0.9812 -1049.5271 60.0577)">
			<stop  offset="0.0111" style="stop-color:#FEF5A7"/>
			<stop  offset="0.3611" style="stop-color:#FEE865"/>
			<stop  offset="1" style="stop-color:#7CB3FF"/>
		</linearGradient>
		<polygon style="fill:url(#SVGID_1_);" points="799.878,155.861 799.878,108.85 178.357,156.07 		"/>
		<linearGradient id="SVGID_2_" gradientUnits="userSpaceOnUse" x1="0" y1="146.9791" x2="178.5213" y2="146.9791">
			<stop  offset="0.0111" style="stop-color:#FEF5A7"/>
			<stop  offset="0.3611" style="stop-color:#FEE865"/>
			<stop  offset="1" style="stop-color:#7CB3FF"/>
		</linearGradient>
		<polygon style="fill:url(#SVGID_2_);" points="0,156.314 178.521,156 0,137.644 		"/>
		<linearGradient id="SVGID_3_" gradientUnits="userSpaceOnUse" x1="0" y1="119.9907" x2="178.3566" y2="119.9907">
			<stop  offset="0.0111" style="stop-color:#FEF5A7"/>
			<stop  offset="0.3611" style="stop-color:#FEE865"/>
			<stop  offset="1" style="stop-color:#7CB3FF"/>
		</linearGradient>
		<polygon style="fill:url(#SVGID_3_);" points="0,107.104 178.357,156.07 0,83.911 		"/>
		<linearGradient id="SVGID_4_" gradientUnits="userSpaceOnUse" x1="0" y1="91.0962" x2="178.3566" y2="91.0962">
			<stop  offset="0.0111" style="stop-color:#FEF5A7"/>
			<stop  offset="0.3611" style="stop-color:#FEE865"/>
			<stop  offset="1" style="stop-color:#7CB3FF"/>
		</linearGradient>
		<polygon style="fill:url(#SVGID_4_);" points="0,49.161 178.357,156.07 0,26.122 		"/>
		<linearGradient id="SVGID_5_" gradientUnits="userSpaceOnUse" x1="19.2924" y1="78.0352" x2="178.3566" y2="78.0352">
			<stop  offset="0.0111" style="stop-color:#FEF5A7"/>
			<stop  offset="0.3611" style="stop-color:#FEE865"/>
			<stop  offset="1" style="stop-color:#7CB3FF"/>
		</linearGradient>
		<polygon style="fill:url(#SVGID_5_);" points="178.357,156.07 36.79,0 19.292,0 		"/>
		<linearGradient id="SVGID_6_" gradientUnits="userSpaceOnUse" x1="63.4087" y1="78.0352" x2="178.3566" y2="78.0352">
			<stop  offset="0.0111" style="stop-color:#FEF5A7"/>
			<stop  offset="0.3611" style="stop-color:#FEE865"/>
			<stop  offset="1" style="stop-color:#7CB3FF"/>
		</linearGradient>
		<polygon style="fill:url(#SVGID_6_);" points="178.357,156.07 77.366,0 63.409,0 		"/>
		<linearGradient id="SVGID_7_" gradientUnits="userSpaceOnUse" x1="115.077" y1="78.0352" x2="178.3566" y2="78.0352">
			<stop  offset="0.0111" style="stop-color:#FEF5A7"/>
			<stop  offset="0.3611" style="stop-color:#FEE865"/>
			<stop  offset="1" style="stop-color:#7CB3FF"/>
		</linearGradient>
		<polygon style="fill:url(#SVGID_7_);" points="178.357,156.07 127.174,0 115.077,0 		"/>
		<linearGradient id="SVGID_8_" gradientUnits="userSpaceOnUse" x1="178.3566" y1="78.0352" x2="219.6509" y2="78.0352">
			<stop  offset="0.0111" style="stop-color:#FEF5A7"/>
			<stop  offset="0.3611" style="stop-color:#FEE865"/>
			<stop  offset="1" style="stop-color:#7CB3FF"/>
		</linearGradient>
		<polygon style="fill:url(#SVGID_8_);" points="209.94,0 178.357,156.07 219.651,0 		"/>
		<linearGradient id="SVGID_9_" gradientUnits="userSpaceOnUse" x1="178.3566" y1="78.0352" x2="269.0508" y2="78.0352">
			<stop  offset="0.0111" style="stop-color:#FEF5A7"/>
			<stop  offset="0.3611" style="stop-color:#FEE865"/>
			<stop  offset="1" style="stop-color:#7CB3FF"/>
		</linearGradient>
		<polygon style="fill:url(#SVGID_9_);" points="254.825,0 178.357,156.07 269.051,0 		"/>
		<linearGradient id="SVGID_10_" gradientUnits="userSpaceOnUse" x1="178.3566" y1="78.0352" x2="330.2708" y2="78.0352">
			<stop  offset="0.0111" style="stop-color:#FEF5A7"/>
			<stop  offset="0.3611" style="stop-color:#FEE865"/>
			<stop  offset="1" style="stop-color:#7CB3FF"/>
		</linearGradient>
		<polygon style="fill:url(#SVGID_10_);" points="313.523,0 178.357,156.07 330.271,0 		"/>
		<linearGradient id="SVGID_11_" gradientUnits="userSpaceOnUse" x1="178.3566" y1="78.0352" x2="465.3715" y2="78.0352">
			<stop  offset="0.0111" style="stop-color:#FEF5A7"/>
			<stop  offset="0.3611" style="stop-color:#FEE865"/>
			<stop  offset="1" style="stop-color:#7CB3FF"/>
		</linearGradient>
		<polygon style="fill:url(#SVGID_11_);" points="428.883,0 178.357,156.07 465.372,0 		"/>
		<linearGradient id="SVGID_12_" gradientUnits="userSpaceOnUse" x1="178.3566" y1="78.0352" x2="800" y2="78.0352">
			<stop  offset="0.0111" style="stop-color:#FEF5A7"/>
			<stop  offset="0.3611" style="stop-color:#FEE865"/>
			<stop  offset="1" style="stop-color:#7CB3FF"/>
		</linearGradient>
		<polygon style="fill:url(#SVGID_12_);" points="178.357,156.07 800,0.881 800,0 648.125,0 		"/>
		<linearGradient id="SVGID_13_" gradientUnits="userSpaceOnUse" x1="162.6207" y1="78.0352" x2="178.3566" y2="78.0352">
			<stop  offset="0.0111" style="stop-color:#FEF5A7"/>
			<stop  offset="0.3611" style="stop-color:#FEE865"/>
			<stop  offset="1" style="stop-color:#7CB3FF"/>
		</linearGradient>
		<polygon style="fill:url(#SVGID_13_);" points="178.357,156.07 176.624,0 162.621,0 		"/>
	</g>
	<g>
		
			<radialGradient id="SVGID_14_" cx="-737.4006" cy="1057.9064" r="51.7366" gradientTransform="matrix(-1.3628 0 0 1.3552 -830.6483 -1280.5566)" gradientUnits="userSpaceOnUse">
			<stop  offset="0" style="stop-color:#FCEE21"/>
			<stop  offset="0.4451" style="stop-color:#FAED21;stop-opacity:0.5549"/>
			<stop  offset="0.6947" style="stop-color:#F2EA21;stop-opacity:0.3053"/>
			<stop  offset="0.8954" style="stop-color:#E4E421;stop-opacity:0.1046"/>
			<stop  offset="1" style="stop-color:#D9E021;stop-opacity:0"/>
		</radialGradient>
		<ellipse style="fill:url(#SVGID_14_);" cx="174.281" cy="153.119" rx="70.506" ry="70.114"/>
		<g id="XMLID_339_">
			<circle id="XMLID_345_" style="opacity:0.2;fill:#F1C40D;" cx="174.281" cy="153.118" r="51.922"/>
			<circle id="XMLID_344_" style="opacity:0.3;fill:#F1C40D;" cx="174.281" cy="153.118" r="43.225"/>
			<g id="XMLID_340_">
				<path id="XMLID_342_" style="opacity:0.8;fill:#FFAA00;" d="M143.673,152.824l-8.07,6.773l9.899,3.604l-5.267,9.124
					l10.536,0.001l-1.829,10.376l9.901-3.603l1.831,10.376l8.072-6.772l5.268,9.125l5.268-9.125l8.071,6.773l1.831-10.377
					l9.901,3.604l-1.83-10.376l10.536,0l-5.268-9.125l9.901-3.605l-8.07-6.772l8.07-6.773l-9.901-3.604l5.268-9.124l-10.536-0.001
					l1.83-10.376l-9.901,3.602l-1.831-10.375l-8.071,6.771l-5.269-9.123l-5.268,9.123l-8.071-6.771l-1.831,10.375l-9.901-3.603
					l1.828,10.376l-10.535,0.001l5.267,9.125l-9.899,3.604L143.673,152.824z"/>
				<circle id="XMLID_341_" style="opacity:0.8;fill:#FFC907;" cx="174.013" cy="152.825" r="29.044"/>
			</g>
		</g>
	</g>
</g>
</svg>
