<?xml version="1.0" encoding="utf-8"?>
<!-- Generator: Adobe Illustrator 21.0.0, SVG Export Plug-In . SVG Version: 6.00 Build 0)  -->
<svg version="1.1" id="Capa_1" xmlns="http://www.w3.org/2000/svg" xmlns:xlink="http://www.w3.org/1999/xlink" x="0px" y="0px"
	 viewBox="0 0 242.9 148.3" style="enable-background:new 0 0 242.9 148.3;" xml:space="preserve">
<style type="text/css">
	.st0{fill:#80d2ff;}
	.st1{fill:#42210B;}
	.st2{fill:#E6E6E6;}
	.st3{fill:#FFFFFF;}
	.st4{fill:#808080;}
	.st5{fill:#8C6239;}
	.st6{fill:#D7C09E;}
	.st7{fill:#666666;}
	.st8{fill:#B3B3B3;}
	.st9{fill:#C69C6D;}
	.st10{fill:#754C24;}
	.st11{fill:#333333;}
	.st12{fill:#3FA9F5;}
	.st13{fill:#EFEFEF;}
	.st14{fill:#C1272D;}
	.st15{fill:#4D4D4D;}
	.st16{fill:#999999;}
	.st17{fill:#4FB1ED;}
</style>
<g>
	<g>
		<g>
			<path class="st0" d="M20.4,17.3V131h202.1V17.3H20.4z M146.2,72.8H97.7V24.3h48.5V72.8z"/>
			<g>
				<path class="st1" d="M0,0v148.3h242.9l0-148.3H0z M222.5,131H20.4V17.3h202.1V131z"/>
			</g>
		</g>
		<g>
			<g>
				<rect x="24.4" y="73.2" class="st2" width="34" height="2.2"/>
				<path class="st3" d="M24,75.4v53.1c0,1.4,1.1,2.5,2.5,2.5h30c1.4,0,2.5-1.1,2.5-2.5V75.4H24z"/>
				<path class="st3" d="M59,73.2V41.5c0-1.4-1.1-2.5-2.5-2.5h-30c-1.4,0-2.5,1.1-2.5,2.5v31.8H59z"/>
				<path class="st4" d="M27.3,77.4c-0.5,0-0.9,0.4-0.9,0.9v6.4c0,0.5,0.4,0.9,0.9,0.9l0,0c0.5,0,0.9-0.4,0.9-0.9v-6.4
					C28.2,77.8,27.8,77.4,27.3,77.4L27.3,77.4z"/>
				<path class="st4" d="M27.3,62.9c-0.5,0-0.9,0.4-0.9,0.9v6.4c0,0.5,0.4,0.9,0.9,0.9l0,0c0.5,0,0.9-0.4,0.9-0.9v-6.4
					C28.2,63.3,27.8,62.9,27.3,62.9L27.3,62.9z"/>
			</g>
			<g>
				<g>
					<g>
						<rect x="173.6" y="85.9" class="st5" width="46.4" height="45.2"/>
						<g>
							<rect x="197.3" y="98.6" class="st6" width="22" height="29.4"/>
							<rect x="174.4" y="98.6" class="st6" width="22" height="29.4"/>
							<g>
								<rect x="198.5" y="106.8" class="st3" width="0.6" height="7.5"/>
								<rect x="194.5" y="106.8" class="st3" width="0.6" height="7.5"/>
							</g>
						</g>
					</g>
					<g>
						<path class="st7" d="M202.3,81.8v-0.4h-1.6v0.5h0.4v0.9l-0.4,0.2v1.9h-3.1v-1.3l-0.4-0.9h-0.1c0-1.1,0-9.4,0-11.3
							c0-2.2-0.9-3.4-1.6-3.5c-0.5-0.1-1.1-0.1-1.9,1.2c-0.7,1.3-0.6,4.3-0.6,4.3h-0.4V75h1.4v-1.7h-0.3c-0.1-2.6,0.5-4.6,1.4-4.5
							c1,0.1,1,2.2,1,2.2v11.7l-0.4,0.9v1.3h-3.2V83l-0.4-0.2v-0.9h0.4v-0.5h-1.6v0.4h0.5v0.9l-0.5,0.3v2.8h11.2v-2.8l-0.5-0.3v-0.9
							H202.3z"/>
						<g>
							<rect x="173.6" y="85.9" class="st5" width="46.4" height="12.1"/>
							<path class="st6" d="M174.2,96.8c0,0,0-9.5,0-9.9c0-0.3,0.6-0.4,0.6-0.4h21.7h0.7h21.7c0,0,0.6,0,0.6,0.4c0,0.3,0,9.9,0,9.9
								s0.1,0.5-0.5,0.5c-0.5,0-18.1,0-21.7,0c-0.4,0-0.7,0-0.7,0c-3.6,0-21.2,0-21.7,0C174.1,97.3,174.2,96.8,174.2,96.8z"/>
						</g>
					</g>
				</g>
				<g>
					<g>
						<rect x="138.4" y="85.9" class="st8" width="35.2" height="3.5"/>
						<g>
							<rect x="138.4" y="89.3" class="st9" width="35.2" height="41.8"/>
							<g>
								<g>
									<rect x="140.9" y="101.9" class="st10" width="30" height="11"/>
									<rect x="141.5" y="102.4" class="st6" width="28.9" height="9.9"/>
									<rect x="148.5" y="106.4" class="st3" width="14.8" height="1.9"/>
								</g>
								<g>
									<rect x="141" y="91.4" class="st10" width="30" height="7.7"/>
									<g>
										<rect x="156.2" y="91.9" class="st6" width="14.1" height="6.7"/>
										<rect x="141.5" y="91.9" class="st6" width="14.1" height="6.7"/>
										<g>
											<path class="st3" d="M163.3,96.2c-1.4,0-1.5-1.8-1.5-1.8h1.5h1.5C164.8,94.4,164.7,96.2,163.3,96.2z"/>
											<path class="st3" d="M148.5,96.2c-1.4,0-1.5-1.8-1.5-1.8h1.5h1.5C150,94.4,149.9,96.2,148.5,96.2z"/>
										</g>
									</g>
								</g>
								<g>
									<rect x="140.9" y="115.8" class="st10" width="30" height="11"/>
									<rect x="141.5" y="116.3" class="st6" width="28.9" height="9.9"/>
									<rect x="148.5" y="120.3" class="st3" width="14.8" height="1.9"/>
								</g>
							</g>
						</g>
					</g>
					<g>
						<rect x="138.4" y="128" class="st5" width="35.1" height="3"/>
					</g>
				</g>
				<g id="Horno">
					<path class="st4" d="M182.6,69.2c0,0.5-0.4,0.9-0.9,0.9h-26.1c-0.5,0-0.9-0.4-0.9-0.9V55.4c0-0.5,0.4-0.9,0.9-0.9h26.1
						c0.5,0,0.9,0.4,0.9,0.9V69.2z"/>
					<path class="st11" d="M174.1,67c0,0.5-0.4,0.9-0.9,0.9h-15.6c-0.5,0-0.9-0.4-0.9-0.9v-9.6c0-0.5,0.4-0.9,0.9-0.9h15.6
						c0.5,0,0.9,0.4,0.9,0.9V67z"/>
					<path class="st12" d="M173.3,66.4c0,0.4-0.4,0.8-0.8,0.8h-13.9c-0.4,0-0.8-0.4-0.8-0.8V58c0-0.4,0.4-0.8,0.8-0.8h13.9
						c0.4,0,0.8,0.4,0.8,0.8V66.4z"/>
					<rect x="176.4" y="54.5" class="st11" width="0.3" height="15.5"/>
					<rect x="176.6" y="56.5" width="5.9" height="3.2"/>
					<circle class="st13" cx="179.6" cy="62.7" r="1.2"/>
					<circle class="st13" cx="179.6" cy="66.4" r="1.2"/>
					<rect x="179.4" y="61.7" width="0.4" height="2.1"/>
					<polygon points="179.1,67.4 178.7,67.1 180.1,65.5 180.4,65.8 					"/>
				</g>
				<g>
					<g>
						<rect x="61.7" y="85.9" class="st9" width="36.6" height="42.2"/>
						<rect x="61.7" y="85.9" class="st8" width="36.6" height="3.5"/>
						<g>
							<g>
								<rect x="61.8" y="128" class="st5" width="36.6" height="3"/>
							</g>
							<g>
								<g>
									<rect x="64.4" y="91.4" class="st10" width="31.2" height="11"/>
									<rect x="65" y="91.9" class="st6" width="30.1" height="9.9"/>
									<rect x="72.3" y="95.9" class="st3" width="15.4" height="1.9"/>
								</g>
								<g>
									<rect x="64.4" y="103.5" class="st10" width="31.2" height="11"/>
									<rect x="65" y="104" class="st6" width="30.1" height="9.9"/>
									<rect x="72.3" y="108" class="st3" width="15.4" height="1.9"/>
								</g>
								<g>
									<rect x="64.4" y="115.5" class="st10" width="31.2" height="11"/>
									<rect x="65" y="116.1" class="st6" width="30.1" height="9.9"/>
									<rect x="72.3" y="120.1" class="st3" width="15.4" height="1.9"/>
								</g>
							</g>
						</g>
					</g>
					<g>
						<g>
							<path class="st9" d="M82,72.2l-0.2-5l-0.3,0l0.2,5l-0.3,0l-0.2-5l-0.3,0l0.2,5l-0.3,0l-0.2-5l-0.3,0l0.2,5l-0.3,0l-0.2-5
								l-0.3,0l0.2,5c0.1,1,0.5,1.5,1.1,1.4l0.1,0C81.6,73.7,82.1,73.2,82,72.2L82,72.2z"/>

								<rect x="80.8" y="72.7" transform="matrix(0.9992 -3.972152e-02 3.972152e-02 0.9992 -3.026 3.2856)" class="st9" width="0.6" height="10.3"/>
							<path class="st9" d="M81.9,78.3c0-0.5-0.2-0.9-0.7-0.9c-0.5,0-0.7,0.4-0.6,0.9l0,6.3c0,0.5,0.4,0.9,1,0.9
								c0.5,0,0.9-0.4,0.9-1L81.9,78.3z M81.5,85c-0.3,0-0.5-0.2-0.6-0.5c0-0.3,0.2-0.5,0.5-0.6c0.3,0,0.5,0.2,0.6,0.5
								C82,84.7,81.7,85,81.5,85z"/>
						</g>
						<g>
							<path class="st9" d="M76.6,67.6c-1.4,0.2-1.8,3.2-1.1,4.8c0.8,1.6,2.2,1.6,2.2,1.6s1.4-0.5,1.5-2.3
								C79.4,69.9,78,67.3,76.6,67.6z"/>

								<rect x="78" y="71" transform="matrix(0.985 -0.1723 0.1723 0.985 -12.1143 14.6426)" class="st9" width="0.6" height="12.1"/>
							<path class="st9" d="M79.2,78.4c-0.1-0.5-0.3-0.9-0.8-0.8c-0.5,0.1-0.6,0.5-0.5,1l0.8,6.2c0.1,0.5,0.6,0.8,1.1,0.7
								c0.5-0.1,0.8-0.6,0.7-1.1L79.2,78.4z M79.7,85.1c-0.3,0.1-0.6-0.1-0.6-0.4c-0.1-0.3,0.1-0.6,0.4-0.6c0.3-0.1,0.6,0.1,0.6,0.4
								C80.2,84.8,80,85,79.7,85.1z"/>
						</g>
						<path class="st14" d="M76.5,76.7V85c0,0.5,0.4,0.9,0.9,0.9h6.2c0.5,0,0.9-0.4,0.9-0.9v-8.3H76.5z"/>
						<rect x="76" y="76.1" class="st15" width="8.9" height="0.6"/>
						<g>
							<circle class="st3" cx="80.5" cy="80.9" r="2.6"/>
						</g>
					</g>
				</g>
				<g>
					<g>
						<rect x="153" y="29.6" class="st5" width="63.6" height="19.7"/>
						<rect x="186.1" y="31.7" class="st6" width="27.2" height="15.5"/>
						<rect x="189.7" y="44.6" class="st3" width="20.1" height="1.1"/>
						<g>
							<rect x="156.2" y="31.7" class="st6" width="27.2" height="15.5"/>
							<rect x="159.8" y="44.6" class="st3" width="20.1" height="1.1"/>
						</g>
					</g>
				</g>
				<g id="Estufa">
					<g>
						<path class="st11" d="M116.6,85.7c0,0.3-0.2,0.5-0.5,0.5H104c-0.3,0-0.5-0.2-0.5-0.5v-0.5c0-0.3,0.2-0.5,0.5-0.5h12.2
							c0.3,0,0.5,0.2,0.5,0.5V85.7z"/>
						<path class="st11" d="M133.2,85.7c0,0.3-0.2,0.5-0.5,0.5h-12.2c-0.3,0-0.5-0.2-0.5-0.5v-0.5c0-0.3,0.2-0.5,0.5-0.5h12.2
							c0.3,0,0.5,0.2,0.5,0.5V85.7z"/>
					</g>
					<rect x="98.4" y="85.8" class="st16" width="40" height="45.2"/>
					<path class="st11" d="M135.1,123.3c0,0.8-0.7,1.5-1.5,1.5h-30.5c-0.8,0-1.5-0.7-1.5-1.5V99.1c0-0.8,0.7-1.5,1.5-1.5h30.5
						c0.8,0,1.5,0.7,1.5,1.5V123.3z"/>
					<g>
						<rect x="103.4" y="101.7" class="st17" width="29.9" height="21.3"/>
					</g>
					<path class="st7" d="M133.3,99.7c0,0.2-0.2,0.4-0.4,0.4h-29.1c-0.2,0-0.4-0.2-0.4-0.4l0,0c0-0.2,0.2-0.4,0.4-0.4h29.1
						C133.1,99.3,133.3,99.5,133.3,99.7L133.3,99.7z"/>
					<path class="st3" d="M132.5,100.1c0,0.2-0.2,0.4-0.4,0.4h-27.4c-0.2,0-0.4-0.2-0.4-0.4v-0.8c0-0.2,0.2-0.4,0.4-0.4h27.4
						c0.2,0,0.4,0.2,0.4,0.4V100.1z"/>
					<g>
						<circle class="st11" cx="133" cy="89.9" r="2.2"/>
						<circle class="st11" cx="127.7" cy="89.9" r="2.2"/>
						<circle class="st11" cx="122.3" cy="89.9" r="2.2"/>
						<rect x="101.5" y="87.7" class="st7" width="16.9" height="4.4"/>
					</g>
				</g>
				<rect x="153.2" y="70.1" class="st1" width="30.8" height="1.4"/>
			</g>
		</g>
	</g>
</g>
</svg>
