<?xml version="1.0" encoding="utf-8"?>
<!-- Generator: Adobe Illustrator 21.0.0, SVG Export Plug-In . SVG Version: 6.00 Build 0)  -->
<svg version="1.1" id="Capa_1" xmlns="http://www.w3.org/2000/svg" xmlns:xlink="http://www.w3.org/1999/xlink" x="0px" y="0px"
	 viewBox="0 0 287.4 140.4" style="enable-background:new 0 0 287.4 140.4;" xml:space="preserve">
<style type="text/css">
	.st0{fill:#CCCCCC;}
	.st1{fill:#42210B;}
	.st2{fill:#754C24;}
	.st3{fill:#C11D0C;}
	.st4{fill:#C2B59B;}
	.st5{fill:#FFFFFF;}
	.st6{fill:#603813;}
	.st7{fill:#A67C52;}
	.st8{fill:#F1F2F2;}
	.st9{fill:#8CC63F;}
	.st10{fill:#C1272D;}
	.st11{fill:#FBB03B;}
	.st12{fill:#29ABE2;}
	.st13{fill:#0071BC;}
	.st14{fill:#F7931E;}
	.st15{fill:#F2F2F2;}
	.st16{fill:#B0A08D;}
</style>
<g>
	<g>
		<g>
			<path class="st0" d="M20.6,15.9v107.2H267V15.9H20.6z M155.8,70.9h-48.5V22.4h48.5V70.9z"/>
			<path class="st1" d="M0.2,140.4h287.2V0H0L0.2,140.4z M20.6,15.9H267v107.2H20.6V15.9z"/>
		</g>
		<g>
			<g id="Bed_2_">
				<rect x="60.6" y="106.9" class="st2" width="87.8" height="4.2"/>
				<path class="st3" d="M138.5,80.8H70.4c-1.4,0-2.6,1.1-2.6,2.5v10.3H141V83.3C141,81.9,139.9,80.8,138.5,80.8z"/>
				<g>
					<g>
						<path class="st4" d="M99.3,87.5c-0.2-0.6-0.8-1-1.4-1H82.1c-0.6,0-1.2,0.5-1.4,1l-1.5,5c-0.2,0.6,0.2,1,0.8,1h20.1
							c0.6,0,0.9-0.5,0.8-1L99.3,87.5z"/>
						<path class="st5" d="M99.3,87.5c-0.2-0.6-0.8-1-1.4-1H82.1c-0.6,0-1.2,0.5-1.4,1l-1.5,5c-0.2,0.6,0.2,1,0.8,1h20.1
							c0.6,0,0.9-0.5,0.8-1L99.3,87.5z"/>
						<path class="st5" d="M128.2,87.5c-0.2-0.6-0.8-1-1.4-1H111c-0.6,0-1.2,0.5-1.4,1l-1.5,5c-0.2,0.6,0.2,1,0.8,1H129
							c0.6,0,0.9-0.5,0.8-1L128.2,87.5z"/>
					</g>
				</g>
				<g>
					<g>
						<polygon class="st6" points="68.4,123.1 64.1,123.1 64.1,111.1 71,111.1 						"/>
					</g>
					<g>
						<polygon class="st6" points="140.6,123.1 144.8,123.1 144.8,111.1 137.9,111.1 						"/>
					</g>
				</g>
				<path class="st7" d="M141.2,93.6H67.7c-1.5,0-2.8,1.3-2.8,3v7.5v3h2.8h73.5h2.8v-3v-7.5C144,94.9,142.8,93.6,141.2,93.6z"/>
				<path class="st8" d="M139.8,95H69.1c-1.5,0-2.7,1.2-2.7,2.6v6.6v2.6h2.7h70.8h2.7v-2.6v-6.6C142.5,96.2,141.3,95,139.8,95z"/>
			</g>
			<g>
				<rect x="28.7" y="105.1" class="st7" width="21.9" height="12.4"/>
				<polygon class="st6" points="56.2,102.4 23.2,102.4 23.2,107.9 25.9,107.9 25.9,123.1 31.5,123.1 31.5,107.9 47.9,107.9
					47.9,123.1 53.4,123.1 53.4,107.9 56.2,107.9 				"/>
				<path class="st3" d="M41.6,112.1c0.4,0,0.7-0.3,0.7-0.7c0-0.4-0.3-0.7-0.7-0.7h-4c-0.4,0-0.7,0.3-0.7,0.7c0,0.4,0.3,0.7,0.7,0.7
					H41.6z"/>
			</g>
			<g>
				<rect x="158.8" y="105.1" class="st7" width="21.9" height="12.4"/>
				<polygon class="st6" points="186.2,102.4 153.2,102.4 153.2,107.9 156,107.9 156,123.1 161.5,123.1 161.5,107.9 177.9,107.9
					177.9,123.1 183.4,123.1 183.4,107.9 186.2,107.9 				"/>
				<path class="st3" d="M171.7,112.1c0.4,0,0.7-0.3,0.7-0.7c0-0.4-0.3-0.7-0.7-0.7h-4c-0.4,0-0.7,0.3-0.7,0.7
					c0,0.4,0.3,0.7,0.7,0.7H171.7z"/>
			</g>
			<g>
				<path class="st9" d="M244.8,43.5c1.2,1.8,1,4,1,4s-2.1-0.7-3.3-2.5c-1.2-1.8-1-4-1-4S243.6,41.8,244.8,43.5z"/>
				<path class="st9" d="M245.1,52.9c-0.2-2.1-0.4-9.1,4.2-12.3l0.3,0.4c-4.4,3-4.2,9.8-4,11.8L245.1,52.9z"/>
				<g>
					<path class="st10" d="M253.3,40.8c0-0.6-0.5-1-1.2-1.1c0.4-0.6,0.5-1.3,0.1-1.6c-0.4-0.4-1.1-0.3-1.6,0.1
						c-0.1-0.7-0.6-1.2-1.1-1.2c-0.6,0-1,0.5-1.1,1.2c-0.6-0.4-1.3-0.5-1.6-0.1c-0.4,0.4-0.3,1.1,0.1,1.6c-0.7,0.1-1.2,0.6-1.2,1.1
						c0,0.6,0.5,1,1.2,1.1c-0.4,0.6-0.5,1.3-0.1,1.6c0.4,0.4,1.1,0.3,1.6-0.1c0.1,0.7,0.6,1.2,1.1,1.2c0.6,0,1-0.5,1.1-1.2
						c0.6,0.4,1.3,0.5,1.6,0.1c0.4-0.4,0.3-1.1-0.1-1.6C252.8,41.8,253.3,41.4,253.3,40.8z M249.1,41.7c0-0.1-0.1-0.2-0.2-0.3
						c-0.1-0.1-0.2-0.1-0.3-0.2c0.1-0.1,0.1-0.2,0.1-0.4c0-0.1,0-0.3-0.1-0.4c0.1,0,0.2-0.1,0.3-0.2c0.1-0.1,0.1-0.2,0.2-0.3
						c0.1,0.1,0.2,0.1,0.4,0.1c0.1,0,0.3,0,0.4-0.1c0,0.1,0.1,0.2,0.2,0.3c0.1,0.1,0.2,0.1,0.3,0.2c-0.1,0.1-0.1,0.2-0.1,0.4
						c0,0.1,0,0.3,0.1,0.4c-0.1,0-0.2,0.1-0.3,0.2c-0.1,0.1-0.1,0.2-0.2,0.3c-0.1-0.1-0.2-0.1-0.4-0.1
						C249.3,41.6,249.2,41.6,249.1,41.7z"/>
					<circle class="st11" cx="249.4" cy="40.8" r="1.5"/>
				</g>
				<path class="st9" d="M242.6,51.8l-0.5,0c0.2-2,0.4-8.8-4-11.8l0.3-0.4C242.9,42.7,242.7,49.8,242.6,51.8z"/>
				<g>
					<path class="st10" d="M242.1,39.8c0-0.6-0.5-1-1.2-1.1c0.4-0.6,0.5-1.3,0.1-1.6c-0.4-0.4-1.1-0.3-1.6,0.1
						c-0.1-0.7-0.6-1.2-1.1-1.2c-0.6,0-1,0.5-1.1,1.2c-0.6-0.4-1.3-0.5-1.6-0.1c-0.4,0.4-0.3,1.1,0.1,1.6c-0.7,0.1-1.2,0.6-1.2,1.1
						c0,0.6,0.5,1,1.2,1.1c-0.4,0.6-0.5,1.3-0.1,1.6c0.4,0.4,1.1,0.3,1.6-0.1c0.1,0.7,0.6,1.2,1.1,1.2c0.6,0,1-0.5,1.1-1.2
						c0.6,0.4,1.3,0.5,1.6,0.1c0.4-0.4,0.3-1.1-0.1-1.6C241.6,40.8,242.1,40.3,242.1,39.8z M238.2,40.5c-0.1,0-0.3,0-0.4,0.1
						c0-0.1-0.1-0.2-0.2-0.3c-0.1-0.1-0.2-0.1-0.3-0.2c0.1-0.1,0.1-0.2,0.1-0.4c0-0.1,0-0.3-0.1-0.4c0.1,0,0.2-0.1,0.3-0.2
						c0.1-0.1,0.1-0.2,0.2-0.3c0.1,0.1,0.2,0.1,0.4,0.1c0.1,0,0.3,0,0.4-0.1c0,0.1,0.1,0.2,0.2,0.3c0.1,0.1,0.2,0.1,0.3,0.2
						c-0.1,0.1-0.1,0.2-0.1,0.4c0,0.1,0,0.3,0.1,0.4c-0.1,0-0.2,0.1-0.3,0.2c-0.1,0.1-0.1,0.2-0.2,0.3
						C238.4,40.6,238.3,40.5,238.2,40.5z"/>
					<circle class="st11" cx="238.2" cy="39.8" r="1.5"/>
				</g>
				<path class="st12" d="M241.5,57.9h5.3c2.7-1.1,4.5-3.6,4.5-6.7c0-2.2-1-4.2-2.5-5.5h-9.3c-1.6,1.3-2.5,3.3-2.5,5.5
					C237,54.3,238.9,56.9,241.5,57.9z"/>
				<path class="st13" d="M251,51.9c-1.2-1.3-3-2.7-4.3-0.5c-0.4,0.6-0.7,1.1-1.2,1.6c-0.8,0.8-2.6,1-3.5,0.3c-1.5-1.1-2.9-4-5-2.3
					c0,0.1,0,0.2,0,0.3c0,3,1.9,5.6,4.5,6.7h5.3c2.4-0.9,4.1-3.1,4.5-5.7C251.2,52.1,251.1,52,251,51.9z"/>
			</g>
			<path class="st1" d="M256.8,58.9c0-0.6-0.4-1-1-1h-55.1c-0.6,0-1,0.4-1,1v2c0,0.6,0.4,1,1,1h55.1c0.6,0,1-0.4,1-1V58.9z"/>
			<g>
				<rect x="206" y="43.7" class="st14" width="19.4" height="14.3"/>
				<rect x="207.5" y="45.2" class="st15" width="16.5" height="11.3"/>
			</g>
			<g>
				<g>
					<circle class="st13" cx="63.9" cy="45.1" r="10.2"/>
					<circle class="st5" cx="63.9" cy="45.1" r="7.6"/>
				</g>
				<g>
					<path d="M60.1,43.8c1.2,0.6,2.3,1.2,3.5,1.8c0.2,0.1,0.4,0.1,0.6,0c1.8-1.2,3.5-2.3,5.3-3.5c0.6-0.4,0-1.3-0.6-1
						c-1.5,1-3.1,2-4.6,3c-0.2,0.1-0.4,0.3-0.6,0.4c0.3-0.2,0.7,0.1,0.2-0.1c-0.2-0.1-0.5-0.2-0.7-0.4c-0.8-0.4-1.7-0.9-2.5-1.3
						C60,42.5,59.5,43.4,60.1,43.8L60.1,43.8z"/>
				</g>
			</g>
			<g>
				<g id="TV-Habitacion">
					<g>
						<g>
							<g>
								<path d="M249.9,73.4h-41.8c-0.8,0-1.4,0.6-1.4,1.4v27.3c0,0.8,0.6,1.4,1.4,1.4h4.2v0.9h33.4v-0.9h4.2c0.8,0,1.4-0.6,1.4-1.4
									V74.8C251.3,74,250.6,73.4,249.9,73.4z"/>
								<rect x="212.2" y="75.5" class="st12" width="33.4" height="25.8"/>
							</g>
						</g>
					</g>
				</g>
				<g>
					<rect x="195.8" y="104.4" class="st6" width="66.2" height="18.7"/>
					<rect x="198.2" y="106.9" class="st16" width="61.5" height="13.6"/>
					<rect x="237.2" y="106.9" class="st6" width="1.6" height="13.6"/>
					<path class="st3" d="M253.3,113.8c0,0.6-0.5,1-1,1h-5.6c-0.6,0-1-0.5-1-1l0,0c0-0.6,0.5-1,1-1h5.6
						C252.9,112.8,253.3,113.3,253.3,113.8L253.3,113.8z"/>
					<path class="st3" d="M221.3,113.8c0,0.6-0.5,1-1,1h-5.6c-0.6,0-1-0.5-1-1l0,0c0-0.6,0.5-1,1-1h5.6
						C220.9,112.8,221.3,113.3,221.3,113.8L221.3,113.8z"/>
				</g>
			</g>
		</g>
	</g>
</g>
</svg>
