<?xml version="1.0" encoding="utf-8"?>
<!-- Generator: Adobe Illustrator 21.0.0, SVG Export Plug-In . SVG Version: 6.00 Build 0)  -->
<svg version="1.1" id="Capa_1" xmlns="http://www.w3.org/2000/svg" xmlns:xlink="http://www.w3.org/1999/xlink" x="0px" y="0px"
	 viewBox="0 0 216.6 140.4" style="enable-background:new 0 0 216.6 140.4;" xml:space="preserve">
<style type="text/css">
	.st0{fill:#eabee2;}
	.st1{fill:#42210B;}
	.st2{fill:#FFFFFF;}
	.st3{fill:#666666;}
	.st4{fill:#FBB03B;}
	.st5{fill:#B8227B;}
	.st6{fill:#CEC80D;}
	.st7{fill:#1A1A1A;}
	.st8{fill:#EF9020;}
	.st9{fill:#F7931E;}
	.st10{fill:#808080;}
	.st11{fill:#4D4D4D;}
	.st12{fill:#EF4E3C;}
	.st13{fill:#C1272D;}
	.st14{fill:#E6E6E6;}
	.st15{fill:#0071BC;}
	.st16{fill:#7289AF;}
	.st17{fill:#EA6924;}
	.st18{fill:#D86A9D;}
	.st19{fill:#6D6E71;}
	.st20{fill:#E9E9E9;}
</style>
<g>
	<g>
		<path class="st0" d="M20.4,15.9v107.2h175.7V15.9H20.4z M149.9,70.8h-48.5V22.3h48.5V70.8z"/>
		<path class="st1" d="M0,0v140.4h216.6V0H0z M196.1,123.1H20.4V15.9h175.7V123.1z"/>
	</g>
	<g>
		<g>
			<rect x="20.4" y="117.4" class="st2" width="48.1" height="5.7"/>
			<path class="st3" d="M32.3,45.1L32.3,45.1c-1.3-4.5-5-4.5-5.1-4.5h-6.8v1.1h6.8h0c0.2,0,2.9,0.1,4,3.7c-1.8,0.7-2.8,2.6-2.5,4.5
				l8.5-2.3C36.5,45.7,34.3,44.6,32.3,45.1z"/>
			<g>

					<rect x="48.1" y="33.4" transform="matrix(-1 -4.467283e-11 4.467283e-11 -1 116.8119 151.0872)" class="st4" width="20.6" height="84.4"/>

					<rect x="65.9" y="33.4" transform="matrix(-1 -4.523016e-11 4.523016e-11 -1 134.6788 151.0872)" class="st5" width="2.9" height="84.4"/>

					<rect x="62.9" y="33.4" transform="matrix(-1 -4.460133e-11 4.460133e-11 -1 128.7565 151.0872)" class="st6" width="2.9" height="84.4"/>

					<rect x="60" y="33.4" transform="matrix(-1 -4.523016e-11 4.523016e-11 -1 122.8342 151.0872)" class="st5" width="2.9" height="84.4"/>

					<rect x="57" y="33.4" transform="matrix(-1 -4.523016e-11 4.523016e-11 -1 116.9118 151.0872)" class="st6" width="2.9" height="84.4"/>

					<rect x="54" y="33.4" transform="matrix(-1 -4.428736e-11 4.428736e-11 -1 110.9895 151.0872)" class="st5" width="2.9" height="84.4"/>

					<rect x="51.1" y="33.4" transform="matrix(-1 -4.523016e-11 4.523016e-11 -1 105.0672 151.0872)" class="st6" width="2.9" height="84.4"/>

					<rect x="48.1" y="33.4" transform="matrix(-1 -4.460133e-11 4.460133e-11 -1 99.1449 151.0872)" class="st5" width="2.9" height="84.4"/>

					<rect x="20.4" y="30.8" transform="matrix(-1 -4.466839e-11 4.466839e-11 -1 89.237 63.5317)" class="st7" width="48.3" height="1.8"/>
				<path class="st8" d="M67.8,34.4L67.8,34.4c0.2,0,0.4-0.2,0.4-0.4v-1.9c0-0.2-0.2-0.4-0.4-0.4l0,0c-0.2,0-0.4,0.2-0.4,0.4V34
					C67.5,34.2,67.6,34.4,67.8,34.4z"/>
				<path class="st8" d="M64.8,34.4L64.8,34.4c0.2,0,0.4-0.2,0.4-0.4v-1.9c0-0.2-0.2-0.4-0.4-0.4l0,0c-0.2,0-0.4,0.2-0.4,0.4V34
					C64.4,34.2,64.6,34.4,64.8,34.4z"/>
				<path class="st8" d="M61.7,34.4L61.7,34.4c0.2,0,0.4-0.2,0.4-0.4v-1.9c0-0.2-0.2-0.4-0.4-0.4l0,0c-0.2,0-0.4,0.2-0.4,0.4V34
					C61.4,34.2,61.5,34.4,61.7,34.4z"/>
				<path class="st8" d="M58.7,34.4L58.7,34.4c0.2,0,0.4-0.2,0.4-0.4v-1.9c0-0.2-0.2-0.4-0.4-0.4l0,0c-0.2,0-0.4,0.2-0.4,0.4V34
					C58.3,34.2,58.5,34.4,58.7,34.4z"/>
				<path class="st8" d="M55.6,34.4L55.6,34.4c0.2,0,0.4-0.2,0.4-0.4v-1.9c0-0.2-0.2-0.4-0.4-0.4l0,0c-0.2,0-0.4,0.2-0.4,0.4V34
					C55.2,34.2,55.4,34.4,55.6,34.4z"/>
				<path class="st8" d="M52.6,34.4L52.6,34.4c0.2,0,0.4-0.2,0.4-0.4v-1.9c0-0.2-0.2-0.4-0.4-0.4l0,0c-0.2,0-0.4,0.2-0.4,0.4V34
					C52.2,34.2,52.3,34.4,52.6,34.4z"/>
				<path class="st8" d="M49.5,34.4L49.5,34.4c0.2,0,0.4-0.2,0.4-0.4v-1.9c0-0.2-0.2-0.4-0.4-0.4l0,0c-0.2,0-0.4,0.2-0.4,0.4V34
					C49.1,34.2,49.3,34.4,49.5,34.4z"/>
			</g>
		</g>
		<g>
			<g>
				<rect x="144.7" y="99.8" class="st9" width="10" height="1.1"/>
			</g>
			<path class="st10" d="M153.2,104.8H145v-4.4c0-0.3,0.3-0.6,0.6-0.6s0.6,0.3,0.6,0.6v3.3h7c0.3,0,0.6,0.3,0.6,0.6
				C153.7,104.6,153.5,104.8,153.2,104.8z"/>
			<path class="st2" d="M152.7,101.9c0-0.4-0.3-0.8-0.8-0.8h-4.6c-0.4,0-0.8,0.3-0.8,0.8v5.1c0,0.4,0.3,0.8,0.8,0.8h4.6
				c0.4,0,0.8-0.3,0.8-0.8V101.9z"/>
		</g>
		<g>
			<circle class="st11" cx="90.4" cy="64.9" r="1.1"/>
			<circle class="st11" cx="73.1" cy="64.9" r="1.1"/>
			<path class="st10" d="M91,64.9c0,0.3-0.3,0.6-0.6,0.6H73.1c-0.3,0-0.6-0.3-0.6-0.6l0,0c0-0.3,0.3-0.6,0.6-0.6h17.4
				C90.8,64.3,91,64.5,91,64.9L91,64.9z"/>
			<path class="st12" d="M88.4,79.1V63.6c0-0.5-0.4-0.9-0.9-0.9H76.1c-0.5,0-0.9,0.4-0.9,0.9v15.5H88.4z"/>
			<rect x="75.2" y="75.2" class="st13" width="13.2" height="2.2"/>
		</g>
		<g>
			<g>
				<path class="st2" d="M137.2,100.3c0,0.5-0.3,0.8-0.7,0.8h-22c-0.4,0-0.7-0.4-0.7-0.8l-1.5-16.8c0-0.5,0.3-0.8,0.7-0.8h25
					c0.4,0,0.7,0.4,0.7,0.8L137.2,100.3z"/>
				<path class="st14" d="M138.5,86.2l0.2-2.7c0-0.5-0.3-0.8-0.7-0.8h-25c-0.4,0-0.7,0.4-0.7,0.8l0.2,2.7H138.5z"/>
				<polygon class="st14" points="134.4,123 116.5,123 118.7,108.7 132.1,108.7 				"/>
				<path class="st2" d="M113.2,103.5c-0.1,0.4-0.1,0.9-0.1,1.4c0,5.8,5.5,10.4,12.3,10.4c6.8,0,12.3-4.7,12.3-10.4
					c0-0.5,0-0.9-0.1-1.4H113.2z"/>
				<path class="st14" d="M139,103.7c0,0.3-0.2,0.5-0.5,0.5h-26c-0.3,0-0.5-0.2-0.5-0.5v-2.1c0-0.3,0.2-0.5,0.5-0.5h26
					c0.3,0,0.5,0.2,0.5,0.5V103.7z"/>
				<path class="st15" d="M139,100.5c0-0.3-0.3-0.6-0.6-0.6h-25.8c-0.3,0-0.6,0.3-0.6,0.6l0,0c0,0.3,0.3,0.6,0.6,0.6h25.8
					C138.7,101.1,139,100.9,139,100.5L139,100.5z"/>
			</g>
			<path class="st10" d="M117.1,88.9h-2.9c-0.4,0-0.8-0.3-0.8-0.8l0,0c0-0.4,0.3-0.8,0.8-0.8h2.9c0.4,0,0.8,0.3,0.8,0.8l0,0
				C117.9,88.6,117.5,88.9,117.1,88.9z"/>
		</g>
		<g>
			<rect x="159.5" y="53.8" class="st1" width="30.8" height="1.4"/>
			<g>
				<g>
					<path class="st16" d="M163.9,47.9h-0.5h-1.1c0,0.7,0.5,4.4,0.5,4.4h0.5h0.5h0.5c0,0,0.5-3.7,0.5-4.4H163.9z"/>
					<rect x="162.8" y="52.7" class="st16" width="1.7" height="1.2"/>
				</g>
				<g>
					<path class="st17" d="M167.4,48.1h-0.4h-0.4c0,0-0.6,0.4-0.6,0.8c0,0.3,0,5,0,5h1h1c0,0,0-4.7,0-5
						C168.1,48.5,167.4,48.1,167.4,48.1z"/>
					<rect x="166.5" y="47.2" class="st17" width="1" height="0.7"/>
				</g>
				<g>
					<path class="st18" d="M171.8,48.1h-0.5h-0.5c0,0-0.9,0.4-0.9,0.8c0,0.3,0,5,0,5h1.5h1.5c0,0,0-4.7,0-5
						C172.7,48.5,171.8,48.1,171.8,48.1z"/>
					<rect x="170.5" y="46.8" class="st18" width="1.6" height="1.1"/>
				</g>
			</g>
			<g>
				<path class="st12" d="M189.2,52.2c0,0.9-0.7,1.6-1.6,1.6h-10c-0.9,0-1.6-0.7-1.6-1.6l0,0c0-0.9,0.7-1.6,1.6-1.6h10
					C188.5,50.6,189.2,51.3,189.2,52.2L189.2,52.2z"/>
				<path class="st13" d="M189.2,49c0,0.9-0.7,1.6-1.6,1.6h-10c-0.9,0-1.6-0.7-1.6-1.6l0,0c0-0.9,0.7-1.6,1.6-1.6h10
					C188.5,47.3,189.2,48.1,189.2,49L189.2,49z"/>
				<path class="st12" d="M189.2,45.7c0,0.9-0.7,1.6-1.6,1.6h-10c-0.9,0-1.6-0.7-1.6-1.6l0,0c0-0.9,0.7-1.6,1.6-1.6h10
					C188.5,44.1,189.2,44.8,189.2,45.7L189.2,45.7z"/>
			</g>
		</g>
		<g id="Trash_1_">
			<g id="Trash_2_">
				<polygon class="st19" points="106.4,123.1 100.3,123.1 98.5,112.6 108.2,112.6 				"/>
				<path class="st11" d="M108.3,112c0-0.1-0.1-0.3-0.3-0.3h-9.4c-0.1,0-0.3,0.1-0.3,0.3v0.3c0,0.1,0.1,0.3,0.3,0.3h9.4
					c0.1,0,0.3-0.1,0.3-0.3V112z"/>
			</g>
		</g>
		<g>
			<path class="st2" d="M194.5,118.8c-1.2-0.6-2.2-0.9-2.2-0.9l0.1-26l-3.9-0.7v0l-0.1,0l-0.1,0v0l-3.9,0.7l0.1,26
				c0,0-6,1.9-5.6,5.2c7.1,0,8.9,0,9.4,0c0.2,0,0.2,0,0.2,0c0.4,0,1.7,0,6,0V118.8z"/>
			<path class="st3" d="M188.5,84.2h1.2v-14c0-1.7-1.4-3-3-3c-1.7,0-3,1.4-3,3h1.2c0-1,0.8-1.8,1.8-1.8c1,0,1.8,0.8,1.8,1.8V84.2z"
				/>
			<path class="st11" d="M192.8,80.2c0-0.6-0.5-1.1-1.1-1.1s-1.1,0.5-1.1,1.1c0,0.5,0.3,0.9,0.7,1v2.4h0.7v-2.4
				C192.5,81,192.8,80.6,192.8,80.2z"/>
			<path class="st2" d="M194.5,83.3h-21.6c0,10.7,12,10.6,15.7,10.6c1.3,0,3.5,0,5.9-0.5V83.3z"/>
			<path class="st15" d="M194.5,81.7h-23.9c0,0.7,0,1.3,0.1,1.9h23.8V81.7z"/>
			<polygon class="st20" points="192.3,117.8 192.4,91.8 188.5,91.1 188.5,91.1 188.4,91.1 188.3,91.1 188.3,91.1 184.4,91.8
				184.5,117.8 			"/>
		</g>
	</g>
</g>
</svg>
