<?xml version="1.0" encoding="utf-8"?>
<!-- Generator: Adobe Illustrator 21.0.0, SVG Export Plug-In . SVG Version: 6.00 Build 0)  -->
<svg version="1.1" id="Capa_1" xmlns="http://www.w3.org/2000/svg" xmlns:xlink="http://www.w3.org/1999/xlink" x="0px" y="0px"
	 viewBox="0 0 250.4 258.4" style="enable-background:new 0 0 250.4 258.4;" xml:space="preserve">
<style type="text/css">
	.st0{opacity:0.2;fill-rule:evenodd;clip-rule:evenodd;}
	.st1{fill-rule:evenodd;clip-rule:evenodd;fill:#FFFFFF;}
	.st2{fill-rule:evenodd;clip-rule:evenodd;fill:#3F8DDF;}
	.st3{fill:#BF1E23;}
	.st4{fill:#E54630;}
	.st5{fill:#192F7A;}
</style>
<g>
	<path class="st0" d="M125.2,258.4c-16.4,0-71.8-2-97.4-27.1C1.9,205.7,0,149.9,0,133.4C0,116.9,2.1,61,28,35.6
		C45.6,18.3,81.9,8,125.2,8c43.3,0,79.6,10.3,97.2,27.6c25.9,25.5,28,81.3,28,97.8c0,16.5-1.9,72.3-27.8,97.9
		C197,256.4,141.6,258.4,125.2,258.4z"/>
	<path class="st1" d="M125.2,250.4c-16.4,0-71.8-2-97.4-27.1C1.9,197.7,0,141.9,0,125.4C0,108.9,2.1,53,28,27.6
		C45.6,10.3,81.9,0,125.2,0c43.3,0,79.6,10.3,97.2,27.6c25.9,25.5,28,81.3,28,97.8c0,16.5-1.9,72.3-27.8,97.9
		C197,248.4,141.6,250.4,125.2,250.4z"/>
	<path class="st2" d="M37.1,36.9C5,68.4,4.9,182.4,36.9,214c31.6,31.2,144.9,31.2,176.5,0c32-31.6,31.9-145.6-0.2-177.1
		C180.9,5,69.4,5,37.1,36.9z"/>
	<g>
		<path class="st3" d="M193.7,123.1h-62.3c-3.6,0-6.5,2.9-6.5,6.6c0-3.6-2.9-6.6-6.5-6.6H56c-3.6,0-6.5,2.9-6.5,6.6v17.4
			c0,3.6,2.9,6.6,6.5,6.6h62.3c3.6,0,6.5-2.9,6.5-6.6c0,3.6,2.9,6.6,6.5,6.6h62.3c3.6,0,6.5-2.9,6.5-6.6v-17.4
			C200.2,126,197.3,123.1,193.7,123.1z"/>
		<g>
			<g>
				<path class="st4" d="M49.4,89.2v0.1v0.1v37.7c0-3.6,2.9-6.6,6.5-6.6h62.3c2.1,0,3.9,1,5.1,2.5V76.1H62.5
					C55.3,76.1,49.4,82,49.4,89.2z M87.1,97c1.4,0,2.5,1.1,2.5,2.5c0,1.4-1.1,2.5-2.5,2.5c-1.4,0-2.5-1.1-2.5-2.5
					C84.7,98.1,85.8,97,87.1,97z"/>
				<path class="st4" d="M187.8,76.1h-61.6v47.1c1.2-1.5,3-2.5,5.1-2.5h62.3c3.6,0,6.5,2.9,6.5,6.6V138h0.7V89.5v-0.1v-0.1
					C201,82,195.1,76.1,187.8,76.1z M162.5,101.9c-1.4,0-2.5-1.1-2.5-2.5c0-1.4,1.1-2.5,2.5-2.5c1.4,0,2.5,1.1,2.5,2.5
					C165,100.8,163.9,101.9,162.5,101.9z"/>
			</g>
		</g>
		<path class="st5" d="M210.4,105.6c-5.2,0-9.4,1-9.4,6.2v28.6H49.4v-28.6c0-5.2-4.2-6.2-9.4-6.2c-5.2,0-9.4,1-9.4,6.2v49.2h15.1
			l1.3,13.4h4.9l1.3-13.4h144l1.3,13.4h4.9l1.3-13.4h15.1v-49.2C219.8,106.5,215.6,105.6,210.4,105.6z"/>
	</g>
</g>
</svg>
