<?xml version="1.0" encoding="utf-8"?>
<!-- Generator: Adobe Illustrator 21.0.0, SVG Export Plug-In . SVG Version: 6.00 Build 0)  -->
<svg version="1.1" id="Capa_1" xmlns="http://www.w3.org/2000/svg" xmlns:xlink="http://www.w3.org/1999/xlink" x="0px" y="0px"
	 viewBox="0 0 250.4 258.4" style="enable-background:new 0 0 250.4 258.4;" xml:space="preserve">
<style type="text/css">
	.st0{opacity:0.2;fill-rule:evenodd;clip-rule:evenodd;}
	.st1{fill-rule:evenodd;clip-rule:evenodd;fill:#FFFFFF;}
	.st2{fill-rule:evenodd;clip-rule:evenodd;fill:#9BCAF5;}
	.st3{fill:#603813;}
	.st4{fill:#A67C52;}
	.st5{fill:#C2B59B;}
	.st6{fill:#FFFFFF;}
	.st7{fill:#F07100;}
</style>
<g>
	<path class="st0" d="M125.2,258.4c-16.4,0-71.8-2-97.4-27.1C1.9,205.7,0,149.9,0,133.4C0,116.9,2.1,61,28,35.6
		C45.6,18.3,81.9,8,125.2,8c43.3,0,79.6,10.3,97.2,27.6c25.9,25.5,28,81.3,28,97.8c0,16.5-1.9,72.3-27.8,97.9
		C197,256.4,141.6,258.4,125.2,258.4z"/>
	<path class="st1" d="M125.2,250.4c-16.4,0-71.8-2-97.4-27.1C1.9,197.7,0,141.9,0,125.4C0,108.9,2.1,53,28,27.6
		C45.6,10.3,81.9,0,125.2,0c43.3,0,79.6,10.3,97.2,27.6c25.9,25.5,28,81.3,28,97.8c0,16.5-1.9,72.3-27.8,97.9
		C197,248.4,141.6,250.4,125.2,250.4z"/>
	<path class="st2" d="M37.1,36.9C5,68.4,4.9,182.4,36.9,214c31.6,31.2,144.9,31.2,176.5,0c32-31.6,31.9-145.6-0.2-177.1
		C180.9,5,69.4,5,37.1,36.9z"/>
	<g>
		<polygon class="st3" points="30.5,136 30.5,145 38.3,145 38.3,170.8 47.3,170.8 53,145 197.4,145 203,170.8 212.1,170.8 
			212.1,145 219.8,145 219.8,136 		"/>
		<path class="st4" d="M198.6,79.5H51.8c-3,0-5.5,2.4-5.5,5.5v22.2h157.8V85C204.1,82,201.6,79.5,198.6,79.5z"/>
		<g>
			<g>
				<path class="st5" d="M114.1,94.1c-0.4-1.2-1.7-2.2-3-2.2H77c-1.3,0-2.7,1-3,2.2l-3.3,10.8c-0.4,1.2,0.4,2.2,1.7,2.2h43.4
					c1.3,0,2-1,1.7-2.2L114.1,94.1z"/>
				<path class="st6" d="M114.1,94.1c-0.4-1.2-1.7-2.2-3-2.2H77c-1.3,0-2.7,1-3,2.2l-3.3,10.8c-0.4,1.2,0.4,2.2,1.7,2.2h43.4
					c1.3,0,2-1,1.7-2.2L114.1,94.1z"/>
				<path class="st6" d="M176.4,94.1c-0.4-1.2-1.7-2.2-3-2.2h-34.1c-1.3,0-2.7,1-3,2.2l-3.3,10.8c-0.4,1.2,0.4,2.2,1.7,2.2h43.4
					c1.3,0,2-1,1.7-2.2L176.4,94.1z"/>
			</g>
		</g>
		<path class="st7" d="M201.5,110.4H48.9c-3.2,0-5.7,2.5-5.7,5.7v14.3v5.7h5.7h152.6h5.7v-5.7V116
			C207.2,112.9,204.6,110.4,201.5,110.4z"/>
	</g>
</g>
</svg>
