<?xml version="1.0" encoding="utf-8"?>
<!-- Generator: Adobe Illustrator 21.0.0, SVG Export Plug-In . SVG Version: 6.00 Build 0)  -->
<svg version="1.1" id="Capa_1" xmlns="http://www.w3.org/2000/svg" xmlns:xlink="http://www.w3.org/1999/xlink" x="0px" y="0px"
	 viewBox="0 0 300 61.34" style="enable-background:new 0 0 300 61.34;" xml:space="preserve">
<g>
	<g>
		<path style="opacity:0.2;fill-rule:evenodd;clip-rule:evenodd;" d="M7.756,8.636c-10.316,8.28-10.349,38.26-0.05,46.553
			c10.184,8.202,274.404,8.2,284.586,0c10.298-8.294,10.267-38.273-0.05-46.553C281.828,0.279,18.17,0.279,7.756,8.636z"/>
		<path style="fill-rule:evenodd;clip-rule:evenodd;fill:#FFFFFF;" d="M7.756,6.268c-10.316,8.28-10.349,38.26-0.05,46.553
			c10.184,8.202,274.404,8.2,284.586,0c10.298-8.294,10.267-38.273-0.05-46.553C281.828-2.089,18.17-2.089,7.756,6.268z"/>
		<path style="fill-rule:evenodd;clip-rule:evenodd;fill:#FEC31D;" d="M10.421,6.982c-9.346,7.504-9.375,34.664-0.044,42.178
			c9.227,7.431,270.021,7.431,279.246,0c9.331-7.513,9.302-34.674-0.044-42.178C280.143-0.589,19.857-0.589,10.421,6.982z"/>
		<path style="fill-rule:evenodd;clip-rule:evenodd;fill:#C96900;" d="M289.623,43.482c-9.227,7.43-270.02,7.43-279.246,0
			c-4.146-3.339-6.445-10.557-6.9-18.204c-0.565,9.534,1.733,19.723,6.9,23.882c9.225,7.431,270.021,7.431,279.246,0
			c5.167-4.16,7.465-14.348,6.898-23.882C296.069,32.925,293.769,40.143,289.623,43.482z"/>
		<path style="fill-rule:evenodd;clip-rule:evenodd;fill:#FFAC04;" d="M7.432,40.013c0.847,1.392,1.83,2.571,2.945,3.469
			c9.227,7.43,270.02,7.43,279.246,0c3.559-2.868,5.76-8.597,6.597-15.002C278.904,38.739,30.754,42.499,7.432,40.013z"/>
		<path style="fill-rule:evenodd;clip-rule:evenodd;fill:#FFD30E;" d="M10.421,6.982c-2.8,2.248-4.767,6.264-5.893,10.986
			C20.706,4.404,280.91,2.239,294.644,15.078c-1.166-3.451-2.857-6.322-5.064-8.095C280.143-0.591,19.855-0.591,10.421,6.982z"/>
		<path style="fill-rule:evenodd;clip-rule:evenodd;fill:#FFEF91;" d="M17.788,5.17c-3.972,0.908-7.19,3.118-7.19,4.934
			s3.218,2.553,7.19,1.645c3.97-0.908,7.188-3.118,7.188-4.935C24.976,4.999,21.758,4.262,17.788,5.17z"/>
		<path style="fill-rule:evenodd;clip-rule:evenodd;fill:#FFEF91;" d="M29.703,3.881c-2.239,0.112-4.263,0.985-4.522,1.951
			c-0.262,0.965,1.342,1.655,3.581,1.541C31,7.26,33.024,6.388,33.285,5.422C33.543,4.459,31.94,3.768,29.703,3.881z"/>
		<path style="fill-rule:evenodd;clip-rule:evenodd;fill:#FEE147;" d="M284.876,39.402c-2.507,0.982-4.323,2.758-4.059,3.966
			c0.266,1.208,2.512,1.392,5.02,0.411c2.509-0.982,4.325-2.757,4.059-3.966C289.632,38.605,287.382,38.421,284.876,39.402z"/>
		<path style="fill-rule:evenodd;clip-rule:evenodd;fill:#FEE147;" d="M296.221,28.48c-0.838,6.405-3.038,12.133-6.597,15.002
			c-9.227,7.43-270.02,7.43-279.246,0c-1.115-0.898-2.098-2.077-2.945-3.469c-2.305-3.784-3.623-9.144-3.955-14.735
			c-0.066,1.112-0.092,2.234-0.081,3.353c0.009-0.772,0.035-1.544,0.081-2.312c0.455,7.649,2.754,14.866,6.9,18.204
			c9.227,7.43,270.02,7.43,279.246,0c4.146-3.338,6.445-10.555,6.898-18.204c0.046,0.768,0.073,1.541,0.083,2.316
			c0.011-1.121-0.017-2.245-0.083-3.358C296.459,26.356,296.358,27.427,296.221,28.48z"/>
		<path style="fill-rule:evenodd;clip-rule:evenodd;fill:#E6E6E6;" d="M7.707,51.544c-5.026-4.046-7.591-13.256-7.703-22.588
			c-0.118,9.758,2.45,19.634,7.703,23.865c10.184,8.2,274.4,8.2,284.586,0c5.252-4.23,7.82-14.107,7.703-23.865
			c-0.112,9.332-2.679,18.543-7.703,22.588C282.111,59.745,17.889,59.745,7.707,51.544z"/>
	</g>
	<path style="fill:#FFFFFF;" d="M245.55,28.473c0.105-3.426,0.955-6.371,2.548-8.836c1.894-2.945,4.426-4.419,7.597-4.419
		c3.351,0,5.771,0.827,7.259,2.48c1.217,1.353,2.171,3.771,2.862,7.258c0.271,1.368,0.406,2.66,0.406,3.878
		c0,2.614-0.646,4.794-1.939,6.537c-1.894,2.555-4.771,3.771-8.633,3.651c-3.547-0.105-6.146-1.007-7.8-2.705
		S245.429,32.005,245.55,28.473z M258.805,23.063c-1.052-0.991-2.044-1.487-2.976-1.487c-1.142,0-2.194,0.752-3.155,2.254
		c-0.856,1.338-1.285,2.638-1.285,3.899c0,1.188,0.391,2.405,1.172,3.652c0.872,1.397,1.879,2.097,3.021,2.097
		c1.308,0,2.503-0.684,3.585-2.052c1.036-1.292,1.555-2.607,1.555-3.944C260.721,26.038,260.082,24.566,258.805,23.063z"/>
	<g>
		<path style="fill:#FFFFFF;" d="M33.7,35.98l2.998-6.718c3.742,2.45,6.643,3.675,8.701,3.675c0.751,0,1.458-0.218,2.119-0.653
			c0.751-0.48,1.127-1.073,1.127-1.779c0-1.065-1.39-1.951-4.17-2.657c-4.058-1.035-6.793-3.159-8.205-6.372
			c-0.467-1.051-0.699-2.042-0.699-2.973c0-2.401,1.217-4.218,3.651-5.449c1.909-0.961,4.186-1.441,6.831-1.441
			c2.344,0,5.094,0.309,8.25,0.925l-2.142,6.401c-2.375-1.082-4.313-1.623-5.815-1.623c-0.677,0-1.353,0.166-2.029,0.496
			c-0.812,0.392-1.217,0.911-1.217,1.558c0,0.617,0.533,1.264,1.601,1.94c0.751,0.481,2.179,1.136,4.282,1.964
			c1.818,0.722,3.111,1.421,3.878,2.098c1.156,1.023,1.772,2.393,1.848,4.107c0.136,2.844-1.172,5.408-3.922,7.695
			c-1.172,0.978-2.886,1.467-5.14,1.467C42.627,38.64,38.644,37.753,33.7,35.98z"/>
		<path style="fill:#FFFFFF;" d="M59.059,12.266c0.331,0,0.632,0.045,0.902,0.135c1.262,0.421,2.088,1.202,2.479,2.345
			c0.12,0.346,0.18,0.691,0.18,1.036c0,0.767-0.308,1.526-0.924,2.277c-0.887,1.082-1.908,1.57-3.065,1.465
			c-1.157-0.104-2.097-0.729-2.818-1.871c-0.33-0.525-0.496-1.06-0.496-1.601c0-0.69,0.24-1.42,0.722-2.187
			C57.06,12.799,58.068,12.266,59.059,12.266z M62.486,21.868c-0.24,5.575-0.541,11.105-0.901,16.591L55.813,39
			c0.211-2.345,0.315-4.727,0.315-7.146c0-3.006-0.165-6.057-0.495-9.152L62.486,21.868z"/>
		<path style="fill:#FFFFFF;" d="M82.639,33.207c0.706,1.548,1.06,2.765,1.06,3.651c0,0.947-0.662,2.021-1.984,3.224
			c-1.908,1.743-5.102,2.539-9.58,2.39c-4.463-0.136-7.025-1.232-7.687-3.291c-0.211-0.646-0.316-1.24-0.316-1.781
			c0-1.247,0.526-2.299,1.578-3.156c-0.466-1.111-0.698-2.313-0.698-3.606c0-1.277,0.796-2.427,2.39-3.449
			c-1.939-1.518-2.908-3.298-2.908-5.342c0-0.586,0.09-1.218,0.271-1.894c0.751-2.855,2.683-4.696,5.793-5.522
			c1.292-0.346,2.494-0.519,3.606-0.519c1.608,0,3.044,0.346,4.306,1.036c0.496-1.036,1.225-1.87,2.187-2.502l4.171,3.652
			c-1.623,0.33-2.607,1.052-2.953,2.164c0.946,0.991,1.359,2.6,1.239,4.823c-0.12,2.24-1.074,3.938-2.862,5.095
			c-1.293,0.842-3.119,1.263-5.478,1.263c-0.917,0-1.916-0.061-2.998-0.181c-1.338,0.391-2.007,0.925-2.007,1.601
			c0,0.226,0.075,0.466,0.226,0.722c2.66-0.677,4.981-1.007,6.966-0.992C79.964,30.608,81.857,31.479,82.639,33.207z M78.897,35.935
			c-0.226-0.872-0.887-1.308-1.983-1.308c-0.512,0-1.496,0.112-2.953,0.338c-3.006,0.466-4.486,1.127-4.441,1.983
			c0.03,0.691,1.112,1.037,3.246,1.037c0.391,0,0.954-0.022,1.691-0.067c2.975-0.181,4.463-0.751,4.463-1.713
			C78.92,36.114,78.912,36.025,78.897,35.935z M77.657,21.688c-0.075-1.082-0.428-1.78-1.06-2.096
			c-0.421-0.211-1.322-0.331-2.705-0.361c-2.404-0.045-3.629,0.632-3.674,2.029c-0.045,1.412,1.209,2.239,3.765,2.479
			c0.315,0.03,0.623,0.045,0.924,0.045C76.846,23.784,77.762,23.085,77.657,21.688z"/>
		<path style="fill:#FFFFFF;" d="M95.217,37.648l-0.248-2.209c-2.449,1.653-4.463,2.479-6.041,2.479
			c-1.548,0-2.667-0.812-3.358-2.435c-1.383-3.246-2.014-10.609-1.894-22.091l5.41-0.203c-0.105,2.705-0.158,5.087-0.158,7.146
			c0,7.515,0.729,11.271,2.187,11.271c0.826,0,1.894-1.082,3.201-3.246V13.798h5.229l-0.721,23.579L95.217,37.648z"/>
		<path style="fill:#FFFFFF;" d="M106.376,28.563c0.676,2.27,2.111,3.457,4.306,3.562c2.043,0.105,3.426-0.97,4.147-3.224
			l6.312-0.902c-1.607,6.598-4.801,9.896-9.58,9.896c-1.473,0-3.118-0.338-4.937-1.015c-3.366-1.923-5.05-5.62-5.05-11.091
			c0-0.465,0.015-0.983,0.045-1.555c0.331-6.327,3.411-10.001,9.241-11.023c5.529-0.12,8.715,3.724,9.557,11.532L106.376,28.563z
			 M108.1,20.527c-0.834,0.985-1.289,2.176-1.364,3.573l8.453-2.411c-0.977-1.759-2.194-2.638-3.651-2.638
			C110.08,19.051,108.934,19.543,108.1,20.527z"/>
		<path style="fill:#FFFFFF;" d="M149.003,11.567c1.607,7.755,2.412,13.608,2.412,17.561c0,1.953-0.203,3.448-0.608,4.485
			c-1.218,3.096-3.502,5.154-6.854,6.177c-0.691,0.21-1.45,0.315-2.276,0.315c-2.795,0-5.884-1.436-9.265-4.306l3.967-5.478
			c1.548,2.284,3.021,3.427,4.419,3.427c0.33,0,0.661-0.068,0.991-0.203c1.684-0.691,2.675-2.51,2.976-5.455
			c0.03-0.301,0.045-0.632,0.045-0.992c0-2.976-1.127-7.424-3.381-13.345L149.003,11.567z"/>
		<path style="fill:#FFFFFF;" d="M164.014,37.648l-0.248-2.209c-2.449,1.653-4.463,2.479-6.041,2.479
			c-1.548,0-2.667-0.812-3.358-2.435c-1.383-3.246-2.014-10.609-1.894-22.091l5.41-0.203c-0.105,2.705-0.158,5.087-0.158,7.146
			c0,7.515,0.729,11.271,2.187,11.271c0.826,0,1.894-1.082,3.201-3.246V13.798h5.229l-0.721,23.579L164.014,37.648z"/>
		<path style="fill:#FFFFFF;" d="M188.384,33.207c0.706,1.548,1.06,2.765,1.06,3.651c0,0.947-0.662,2.021-1.984,3.224
			c-1.908,1.743-5.102,2.539-9.58,2.39c-4.463-0.136-7.025-1.232-7.687-3.291c-0.211-0.646-0.316-1.24-0.316-1.781
			c0-1.247,0.526-2.299,1.578-3.156c-0.466-1.111-0.698-2.313-0.698-3.606c0-1.277,0.796-2.427,2.39-3.449
			c-1.939-1.518-2.908-3.298-2.908-5.342c0-0.586,0.09-1.218,0.271-1.894c0.751-2.855,2.683-4.696,5.793-5.522
			c1.292-0.346,2.494-0.519,3.606-0.519c1.608,0,3.044,0.346,4.306,1.036c0.496-1.036,1.225-1.87,2.187-2.502l4.171,3.652
			c-1.623,0.33-2.607,1.052-2.953,2.164c0.946,0.991,1.359,2.6,1.239,4.823c-0.12,2.24-1.074,3.938-2.862,5.095
			c-1.293,0.842-3.119,1.263-5.478,1.263c-0.917,0-1.916-0.061-2.998-0.181c-1.338,0.391-2.007,0.925-2.007,1.601
			c0,0.226,0.075,0.466,0.226,0.722c2.66-0.677,4.981-1.007,6.966-0.992C185.708,30.608,187.601,31.479,188.384,33.207z
			 M184.641,35.935c-0.226-0.872-0.887-1.308-1.983-1.308c-0.512,0-1.496,0.112-2.953,0.338c-3.006,0.466-4.486,1.127-4.441,1.983
			c0.03,0.691,1.112,1.037,3.246,1.037c0.391,0,0.954-0.022,1.691-0.067c2.975-0.181,4.463-0.751,4.463-1.713
			C184.664,36.114,184.656,36.025,184.641,35.935z M183.401,21.688c-0.075-1.082-0.428-1.78-1.06-2.096
			c-0.421-0.211-1.322-0.331-2.705-0.361c-2.404-0.045-3.629,0.632-3.674,2.029c-0.045,1.412,1.209,2.239,3.765,2.479
			c0.315,0.03,0.623,0.045,0.924,0.045C182.59,23.784,183.507,23.085,183.401,21.688z"/>
		<path style="fill:#FFFFFF;" d="M195.777,14.384c1.007-0.225,1.991-0.338,2.953-0.338c4.658,0,7.656,2.42,8.994,7.259
			c0.691,2.51,1,5.396,0.925,8.656l-0.181,7.731l-5.838,0.361l-0.046-1.06c-7.334-0.256-11.158-2.06-11.474-5.41
			c-0.045-0.481-0.067-0.834-0.067-1.06c0-2.735,1.097-4.448,3.291-5.14c1.097-0.346,2.187-0.519,3.269-0.519
			c1.442,0,2.915,0.293,4.418,0.879c-0.015-2.584-0.045-3.952-0.09-4.103c-0.301-1.037-1.3-1.623-2.998-1.758
			c-1.442-0.12-2.825,1.082-4.147,3.606l-5.771-0.901C190.578,17.78,192.832,15.046,195.777,14.384z M199.519,28.879
			c-1.578,0-2.404,0.413-2.479,1.239c-0.12,1.203,1.653,2.18,5.32,2.931l-0.158-3.899C201.15,28.969,200.256,28.879,199.519,28.879z
			"/>
		<path style="fill:#FFFFFF;" d="M214.938,14.654l0.36,2.525c2.931-2.059,5.335-3.089,7.214-3.089c1.743,0,3.035,0.88,3.877,2.638
			c1.277,2.675,1.916,7.07,1.916,13.188c0,2.194-0.083,4.613-0.248,7.258l-6.086,0.203c0.48-3.246,0.721-5.988,0.721-8.228
			c0-2.735-0.36-4.712-1.082-5.929c-0.466-0.781-0.999-1.172-1.601-1.172c-1.157,0-2.569,1.359-4.237,4.08v11.925l-5.501-0.158
			l-0.924-22.339L214.938,14.654z"/>
		<g>
			<path style="fill:#FFFFFF;" d="M229.77,37.918l-0.969-28.133c9.317,2.525,14.352,5.831,15.103,9.919
				c0.271,1.473,0.406,2.886,0.406,4.238c0,2.179-0.391,4.012-1.172,5.5C241.876,31.847,237.42,34.672,229.77,37.918z
				 M234.753,18.803l0.202,8.655c2.404-0.721,3.689-2.043,3.855-3.967C238.975,21.568,237.623,20.005,234.753,18.803z"/>
			<g>
				<path style="fill:#C96900;" d="M60.198,11.689c-0.346-0.115-0.729-0.173-1.139-0.173c-1.2,0-2.398,0.616-3.563,1.831
					l-0.093,0.12c-0.556,0.884-0.837,1.754-0.837,2.585c0,0.682,0.206,1.354,0.612,2.001c0.85,1.346,1.988,2.092,3.384,2.218
					c0.128,0.012,0.255,0.017,0.38,0.017c1.259,0,2.379-0.588,3.334-1.753c0.726-0.885,1.094-1.811,1.094-2.753
					c0-0.428-0.074-0.86-0.22-1.279C62.681,13.132,61.688,12.186,60.198,11.689z M61.117,17.583
					c-0.725,0.885-1.513,1.281-2.418,1.193c-0.92-0.083-1.656-0.582-2.251-1.523c-0.256-0.408-0.381-0.801-0.381-1.202
					c0-0.527,0.19-1.106,0.567-1.723c0.85-0.872,1.666-1.313,2.425-1.313c0.249,0,0.473,0.033,0.665,0.096
					c1.036,0.346,1.693,0.959,2.009,1.879c0.091,0.264,0.138,0.53,0.138,0.79C61.871,16.376,61.625,16.965,61.117,17.583z"/>
				<path style="fill:#C96900;" d="M54.888,22.782c0.191,1.787,0.32,3.571,0.399,5.34c-0.291-1.322-0.935-2.434-1.93-3.313
					c-0.839-0.741-2.18-1.472-4.1-2.233c-2.05-0.808-3.447-1.446-4.155-1.899c-1.162-0.737-1.252-1.187-1.252-1.307
					c0-0.137,0-0.5,0.796-0.883c0.579-0.283,1.136-0.42,1.7-0.42c1.387,0,3.239,0.523,5.505,1.556l0.758,0.345l2.677-8.001
					L54.447,11.8c-3.19-0.623-6.015-0.938-8.394-0.938c-2.751,0-5.162,0.512-7.17,1.522c-2.695,1.364-4.063,3.422-4.063,6.119
					c0,1.034,0.257,2.136,0.763,3.274c1.503,3.42,4.433,5.707,8.707,6.797c2.657,0.675,3.604,1.439,3.604,1.93
					c0,0.278-0.081,0.7-0.79,1.153c-0.54,0.356-1.099,0.53-1.706,0.53c-1.901,0-4.69-1.195-8.29-3.552l-0.737-0.482l-3.687,8.261
					l0.762,0.273c5.002,1.794,9.107,2.704,12.2,2.704c2.424,0,4.314-0.552,5.619-1.64c2.4-1.996,3.763-4.238,4.102-6.674
					c0.003,0.259,0.011,0.521,0.011,0.779c0,2.393-0.105,4.774-0.313,7.078l-0.081,0.898l7.306-0.685l0.042-0.638
					c0.36-5.48,0.664-11.067,0.902-16.608l0.038-0.884l-8.464,1.03L54.888,22.782z M50.306,36.597
					c-2.405,2.008-7.746,1.667-15.59-1.054l2.311-5.178c3.542,2.234,6.286,3.322,8.372,3.322c0.897,0,1.749-0.261,2.523-0.771
					c1.217-0.779,1.473-1.741,1.473-2.411c0-1.956-2.702-2.868-4.734-3.384c-3.857-0.984-6.378-2.93-7.705-5.95
					c-0.421-0.948-0.635-1.845-0.635-2.668c0-2.114,1.06-3.677,3.238-4.779c1.795-0.903,3.979-1.361,6.494-1.361
					c2.074,0,4.515,0.253,7.266,0.752l-1.607,4.806c-2.147-0.911-3.908-1.355-5.365-1.355c-0.786,0-1.58,0.192-2.355,0.571
					c-1.355,0.654-1.641,1.575-1.641,2.233c0,0.9,0.638,1.742,1.946,2.572c0.797,0.511,2.24,1.176,4.41,2.03
					c1.729,0.687,2.96,1.347,3.657,1.962c1.007,0.892,1.529,2.062,1.596,3.582C54.085,32.132,52.889,34.448,50.306,36.597z
					 M61.698,22.72c-0.223,5.024-0.498,10.08-0.82,15.052l-4.242,0.397c0.161-2.067,0.243-4.187,0.243-6.315
					c0-2.78-0.143-5.635-0.424-8.497L61.698,22.72z"/>
				<path style="fill:#C96900;" d="M76.933,18.922c-0.335-0.168-1.014-0.396-3.027-0.441c-3.583-0.088-4.396,1.461-4.438,2.755
					c-0.041,1.288,0.697,2.898,4.443,3.25c0.34,0.033,0.671,0.048,0.995,0.048c1.355,0,2.302-0.31,2.893-0.946
					c0.461-0.498,0.665-1.154,0.605-1.953C78.31,20.275,77.815,19.362,76.933,18.922z M76.909,21.744
					c0.042,0.553-0.147,0.757-0.209,0.824c-0.283,0.305-0.903,0.466-1.793,0.466c-0.277,0-0.562-0.014-0.854-0.042
					c-2.077-0.195-3.115-0.771-3.085-1.709c0.01-0.327,0.041-1.306,2.694-1.306c0.069,0,0.141,0.001,0.213,0.002
					c1.721,0.038,2.241,0.209,2.387,0.282c0.374,0.187,0.591,0.684,0.646,1.477V21.744z"/>
				<path style="fill:#C96900;" d="M72.765,38.736c0.401,0,0.979-0.022,1.737-0.069c2.218-0.135,5.167-0.537,5.167-2.461
					c0-0.131-0.011-0.261-0.032-0.391l-0.014-0.067c-0.181-0.698-0.773-1.87-2.71-1.87c-0.558,0-1.561,0.113-3.068,0.347
					c-2.41,0.374-5.166,1.025-5.075,2.757C68.846,38.736,71.694,38.736,72.765,38.736z M74.076,35.706
					c1.756-0.272,2.513-0.329,2.838-0.329c0.907,0,1.144,0.337,1.248,0.71c0.005,0.039,0.008,0.078,0.008,0.118
					c0,0.007-0.161,0.746-3.759,0.964c-0.717,0.043-1.266,0.066-1.646,0.066c-2.005,0-2.445-0.317-2.494-0.317
					c-0.001,0-0.001,0-0.002,0C70.308,36.847,70.743,36.222,74.076,35.706z"/>
				<path style="fill:#C96900;" d="M93.565,28.15c-1.619,2.629-2.369,2.707-2.451,2.707c-0.015,0-1.437-0.286-1.437-10.521
					c0-2.039,0.053-4.434,0.157-7.116l0.032-0.809l-6.934,0.26l-0.008,0.715c0,0.018,0,0.034,0,0.051l-2.205-1.931l-0.478,0.313
					c-0.858,0.564-1.559,1.282-2.088,2.139c-2.174-0.956-4.775-1.06-7.791-0.253c-3.377,0.897-5.505,2.935-6.325,6.054
					c-0.196,0.735-0.296,1.437-0.296,2.087c0,1.991,0.821,3.766,2.445,5.29c-1.279,1.032-1.927,2.207-1.927,3.501
					c0,1.196,0.188,2.334,0.563,3.393c-0.958,0.937-1.442,2.068-1.442,3.37c0,0.618,0.119,1.295,0.353,2.011
					c0.776,2.417,3.517,3.663,8.375,3.811c0.354,0.012,0.7,0.018,1.04,0.018c4.13,0,7.179-0.874,9.07-2.602
					c1.5-1.364,2.229-2.601,2.229-3.779c0-1.003-0.368-2.299-1.126-3.96c-0.814-1.8-2.615-2.813-5.357-3.018
					c1.05-0.23,1.95-0.588,2.691-1.071c1.156-0.748,1.994-1.712,2.529-2.869c0.305,4.638,0.866,7.896,1.693,9.837
					c1.019,2.389,2.764,2.891,4.049,2.891c1.511,0,3.295-0.638,5.431-1.944l0.193,1.726l5.002-0.375l0.765-25.026h-6.753V28.15z
					 M79.841,27.551c-1.629,1.061-4.304,1.374-7.983,0.965L71.708,28.5l-0.144,0.042c-1.69,0.493-2.547,1.274-2.547,2.32
					c0,0.36,0.11,0.73,0.329,1.102l0.285,0.486l0.546-0.139c2.583-0.657,4.851-0.988,6.777-0.969
					c2.71,0.014,4.346,0.726,5.001,2.174l0.001,0.002c0.658,1.443,0.992,2.567,0.992,3.34c0,0.711-0.602,1.634-1.74,2.67
					c-1.748,1.598-4.793,2.335-9.052,2.194c-4.091-0.125-6.444-1.057-6.996-2.774c-0.186-0.568-0.279-1.089-0.279-1.549
					c0-1.019,0.426-1.861,1.302-2.575l0.435-0.354l-0.217-0.517c-0.425-1.013-0.64-2.129-0.64-3.316
					c0-1.014,0.669-1.936,2.045-2.818l0.89-0.571l-0.833-0.651c-1.763-1.379-2.62-2.934-2.62-4.751c0-0.52,0.082-1.092,0.246-1.703
					c0.683-2.598,2.403-4.23,5.262-4.989c1.223-0.327,2.37-0.493,3.412-0.493c1.474,0,2.801,0.318,3.945,0.944l0.695,0.38
					l0.342-0.714c0.357-0.747,0.84-1.362,1.466-1.867l2.301,2.015c-0.001,0.196,0,0.384,0,0.577c-0.88,0.482-1.48,1.157-1.755,2.043
					l-0.131,0.421l0.304,0.319c0.794,0.831,1.142,2.266,1.033,4.265C82.256,25.048,81.431,26.522,79.841,27.551z M73.25,30.143
					c-0.842,0.13-1.722,0.303-2.639,0.518c0.159-0.188,0.538-0.42,1.233-0.637C72.328,30.075,72.797,30.115,73.25,30.143z
					 M82.741,18.129c0.047-0.084,0.118-0.155,0.178-0.232c0.002,0.187,0.004,0.367,0.006,0.551
					C82.861,18.345,82.813,18.224,82.741,18.129z M95.065,28.57V14.548h3.706L98.095,36.68l-2.213,0.166l-0.306-2.722l-1.027,0.693
					c-2.311,1.56-4.202,2.351-5.621,2.351c-1.245,0-2.094-0.629-2.668-1.979c-1.189-2.789-1.806-8.913-1.845-18.206
					c0.179-0.054,0.355-0.109,0.56-0.151l1.483-0.302l-2.042-1.789c0.001-0.211,0.001-0.413,0.002-0.627l3.888-0.146
					c-0.086,2.376-0.129,4.515-0.129,6.366c0,8.539,0.851,12.021,2.937,12.021c1.15,0,2.335-1.113,3.843-3.608L95.065,28.57z"/>
				<path style="fill:#C96900;" d="M114.115,28.673c-0.619,1.932-1.712,2.792-3.397,2.703c-1.637-0.079-2.721-0.815-3.362-2.303
					l13.876-3.773l-0.068-0.636c-0.888-8.226-4.365-12.331-10.319-12.202l-0.113,0.011c-6.192,1.086-9.51,5.03-9.86,11.723
					c-0.031,0.586-0.046,1.118-0.046,1.594c0,5.734,1.826,9.685,5.428,11.742l0.11,0.052c1.894,0.704,3.642,1.062,5.198,1.062
					c5.147,0,8.616-3.522,10.309-10.469l0.263-1.077l-7.874,1.126L114.115,28.673z M120.126,28.902
					c-1.591,5.544-4.4,8.244-8.565,8.244c-1.361,0-2.915-0.318-4.617-0.946c-3.108-1.803-4.619-5.209-4.619-10.409
					c0-0.453,0.015-0.958,0.044-1.516c0.312-5.964,3.113-9.338,8.565-10.314c4.923-0.062,7.772,3.267,8.663,10.229l-14.159,3.851
					l0.22,0.736c0.763,2.561,2.487,3.978,4.985,4.098c1.576,0.079,3.65-0.438,4.743-3.294L120.126,28.902z"/>
				<path style="fill:#C96900;" d="M115.845,21.324c-1.113-2.006-2.563-3.023-4.307-3.023c-1.681,0-3.03,0.585-4.01,1.741v0
					c-0.938,1.109-1.457,2.46-1.541,4.017l-0.057,1.05l10.373-2.959L115.845,21.324z M107.637,23.063
					c0.185-0.773,0.527-1.451,1.036-2.052c0.691-0.814,1.628-1.21,2.865-1.21c0.941,0,1.758,0.474,2.479,1.442L107.637,23.063z"/>
				<path style="fill:#C96900;" d="M162.363,28.15c-1.619,2.629-2.369,2.707-2.451,2.707c-0.015,0-1.437-0.286-1.437-10.521
					c0-2.039,0.053-4.434,0.157-7.116l0.032-0.809l-6.934,0.26l-0.008,0.715c-0.046,4.383,0.015,8.152,0.185,11.329
					c-0.353-3.562-1.072-7.998-2.172-13.3l-0.164-0.793l-9.136,2.637l0.29,0.761c2.211,5.808,3.332,10.208,3.332,13.078
					c0,0.333-0.013,0.639-0.041,0.916c-0.27,2.635-1.115,4.263-2.513,4.837c-0.24,0.098-0.479,0.147-0.708,0.147
					c-1.111,0-2.425-1.071-3.798-3.098l-0.601-0.886l-5.002,6.907l0.529,0.449c3.505,2.975,6.785,4.484,9.75,4.484
					c0.896,0,1.734-0.117,2.495-0.348c3.565-1.088,6.033-3.315,7.333-6.621c0.444-1.136,0.66-2.693,0.66-4.758
					c0-0.383-0.014-0.801-0.029-1.22c0.325,3.605,0.837,6.216,1.541,7.871c1.019,2.389,2.764,2.891,4.049,2.891
					c1.511,0,3.295-0.638,5.431-1.944l0.193,1.726l5.002-0.375l0.765-25.026h-6.753V28.15z M150.108,33.338
					c-1.14,2.897-3.225,4.773-6.373,5.733c-0.619,0.188-1.312,0.283-2.059,0.283c-2.455,0-5.227-1.239-8.245-3.685l2.945-4.067
					c1.923,2.506,3.81,3.408,5.697,2.636c1.95-0.801,3.106-2.844,3.437-6.074c0.032-0.324,0.049-0.68,0.049-1.067
					c0-2.965-1.028-7.173-3.143-12.849l6.015-1.736c1.482,7.283,2.233,12.87,2.233,16.615
					C150.665,30.977,150.477,32.394,150.108,33.338z M163.863,28.57V14.548h3.706l-0.677,22.132l-2.213,0.166l-0.306-2.722
					l-1.027,0.693c-2.311,1.56-4.202,2.351-5.621,2.351c-1.245,0-2.094-0.629-2.668-1.979c-1.308-3.068-1.926-10.156-1.841-21.074
					l3.888-0.146c-0.086,2.376-0.129,4.515-0.129,6.366c0,8.539,0.851,12.021,2.937,12.021c1.15,0,2.335-1.113,3.843-3.608
					L163.863,28.57z"/>
				<path style="fill:#C96900;" d="M182.678,18.922c-0.335-0.168-1.014-0.396-3.027-0.441c-3.557-0.088-4.396,1.461-4.438,2.755
					c-0.041,1.288,0.697,2.898,4.443,3.25c0.34,0.033,0.671,0.048,0.995,0.048c1.355,0,2.302-0.31,2.893-0.946
					c0.461-0.498,0.665-1.154,0.605-1.953C184.054,20.275,183.559,19.362,182.678,18.922z M182.653,21.744
					c0.042,0.553-0.147,0.757-0.209,0.824c-0.283,0.305-0.903,0.466-1.793,0.466c-0.277,0-0.562-0.014-0.854-0.042
					c-2.077-0.195-3.115-0.771-3.085-1.709c0.01-0.327,0.041-1.306,2.694-1.306c0.069,0,0.141,0.001,0.213,0.002
					c1.721,0.038,2.241,0.209,2.387,0.282c0.374,0.187,0.591,0.684,0.646,1.477V21.744z"/>
				<path style="fill:#C96900;" d="M178.51,38.736c0.401,0,0.979-0.022,1.737-0.069c2.218-0.135,5.167-0.537,5.167-2.461
					c0-0.131-0.011-0.261-0.032-0.391l-0.014-0.067c-0.181-0.698-0.773-1.87-2.71-1.87c-0.558,0-1.561,0.113-3.068,0.347
					c-2.41,0.374-5.166,1.025-5.075,2.757C174.591,38.736,177.438,38.736,178.51,38.736z M179.82,35.706
					c1.756-0.272,2.513-0.329,2.838-0.329c0.907,0,1.144,0.337,1.248,0.71c0.005,0.039,0.008,0.078,0.008,0.118
					c0,0.007-0.161,0.746-3.759,0.964c-0.717,0.043-1.266,0.066-1.646,0.066c-2.005,0-2.445-0.317-2.494-0.317
					c-0.001,0-0.001,0-0.002,0C176.053,36.847,176.487,36.222,179.82,35.706z"/>
				<path style="fill:#C96900;" d="M202.329,28.41c-1.087-0.187-2.032-0.281-2.81-0.281c-2.522,0-3.146,1.045-3.226,1.915
					c-0.222,2.221,3.271,3.198,5.916,3.74l0.938,0.192l-0.222-5.463L202.329,28.41z M197.787,30.186
					c0.046-0.503,1.227-0.557,1.732-0.557c0.551,0,1.208,0.055,1.958,0.165l0.094,2.313C197.804,31.207,197.775,30.3,197.787,30.186
					z"/>
				<path style="fill:#C96900;" d="M244.641,19.569c-0.815-4.438-5.933-7.875-15.644-10.507l-0.98-0.266l0.426,12.372
					c-0.327-1.918-0.779-3.511-1.377-4.763c-0.96-2.004-2.535-3.064-4.554-3.064c-1.827,0-4.008,0.834-6.641,2.545l-0.299-2.094
					l-7.003,1.13l0.34,8.221c-0.13-0.705-0.283-1.385-0.463-2.038c-1.433-5.182-4.702-7.809-9.717-7.809
					c-1.01,0-2.058,0.12-3.116,0.356h-0.001c-1.477,0.332-2.787,1.154-3.941,2.414l-5.208-4.561l-0.478,0.313
					c-0.858,0.564-1.559,1.282-2.088,2.139c-2.173-0.956-4.775-1.06-7.791-0.253c-3.377,0.897-5.505,2.935-6.325,6.054
					c-0.196,0.735-0.296,1.437-0.296,2.087c0,1.991,0.821,3.766,2.445,5.29c-1.279,1.032-1.927,2.207-1.927,3.501
					c0,1.196,0.188,2.334,0.563,3.393c-0.958,0.937-1.442,2.068-1.442,3.37c0,0.618,0.119,1.295,0.353,2.011
					c0.776,2.417,3.517,3.663,8.375,3.811c0.354,0.012,0.7,0.018,1.04,0.018c4.13,0,7.179-0.874,9.07-2.602
					c1.5-1.364,2.229-2.601,2.229-3.779c0-1.003-0.368-2.299-1.126-3.96c-0.814-1.8-2.615-2.813-5.357-3.018
					c1.05-0.23,1.95-0.588,2.691-1.071c1.908-1.235,2.967-3.045,3.172-5.374l5.628,0.879l0.249-0.476
					c0.8-1.527,2.045-3.316,3.424-3.207c2.03,0.161,2.262,0.958,2.323,1.159c0.015,0.1,0.047,0.585,0.066,2.896
					c-2.426-0.745-4.781-0.766-7.154-0.018c-1.74,0.548-3.815,2.009-3.815,5.855c0,0.24,0.022,0.616,0.07,1.13
					c0.345,3.656,4.213,5.694,11.501,6.06l0.05,1.135l7.287-0.451l0.123-5.236l0.226,5.463l6.972,0.201V26.342
					c1.99-3.193,3.099-3.543,3.487-3.543c0.315,0,0.638,0.271,0.955,0.805c0.648,1.093,0.978,2.959,0.978,5.546
					c0,2.192-0.24,4.923-0.713,8.118l-0.132,0.89l7.666-0.256l0.043-0.68c0.045-0.727,0.083-1.437,0.116-2.133l0.136,3.947
					l1.005-0.426c7.887-3.347,12.381-6.231,13.739-8.817c0.835-1.59,1.258-3.558,1.258-5.849
					C245.06,22.552,244.92,21.081,244.641,19.569z M191.092,16.757c-0.665,0.86-1.268,1.893-1.809,3.089
					c-0.19-0.654-0.442-1.242-0.799-1.717c0.354-0.638,1.09-1.063,2.234-1.296L191.092,16.757z M185.585,27.551
					c-1.629,1.061-4.305,1.374-7.983,0.965l-0.149-0.017l-0.144,0.042c-1.69,0.493-2.547,1.274-2.547,2.32
					c0,0.36,0.11,0.73,0.329,1.102l0.285,0.486l0.546-0.139c2.583-0.657,4.88-0.988,6.777-0.969c2.71,0.014,4.346,0.726,5.001,2.174
					l0.001,0.002c0.658,1.443,0.992,2.567,0.992,3.34c0,0.711-0.602,1.634-1.74,2.67c-1.748,1.598-4.793,2.335-9.052,2.194
					c-4.091-0.125-6.444-1.057-6.996-2.774c-0.186-0.568-0.279-1.089-0.279-1.549c0-1.019,0.426-1.861,1.302-2.575l0.435-0.354
					l-0.217-0.517c-0.425-1.013-0.64-2.129-0.64-3.316c0-1.014,0.669-1.936,2.045-2.818l0.89-0.571l-0.833-0.651
					c-1.763-1.379-2.62-2.934-2.62-4.751c0-0.52,0.082-1.092,0.246-1.703c0.683-2.598,2.403-4.23,5.262-4.989
					c1.223-0.327,2.37-0.493,3.412-0.493c1.474,0,2.801,0.318,3.945,0.944l0.695,0.38l0.342-0.714
					c0.357-0.747,0.84-1.362,1.466-1.867l2.709,2.372c-1.12,0.483-1.846,1.241-2.163,2.263l-0.131,0.421l0.304,0.319
					c0.781,0.817,1.125,2.226,1.033,4.176l-0.078,0.239l0.062,0.01C187.948,25.124,187.132,26.55,185.585,27.551z M178.994,30.143
					c-0.842,0.13-1.722,0.303-2.639,0.518c0.159-0.188,0.538-0.42,1.233-0.637C178.072,30.075,178.541,30.115,178.994,30.143z
					 M207.735,36.986l-4.389,0.271l-0.042-0.989l-0.693-0.024c-6.862-0.239-10.48-1.831-10.753-4.73
					c-0.042-0.45-0.064-0.779-0.064-0.99c0-2.424,0.879-3.83,2.767-4.424c1.019-0.321,2.042-0.484,3.043-0.484
					c1.342,0,2.737,0.278,4.146,0.828l1.028,0.401l-0.006-1.104c-0.022-3.982-0.075-4.158-0.119-4.307
					c-0.396-1.362-1.627-2.135-3.656-2.296c-1.699-0.131-3.201,1.017-4.617,3.531l-4.364-0.682c1.448-4.002,3.439-6.312,5.926-6.871
					c0.952-0.212,1.891-0.32,2.79-0.32c4.317,0,7.023,2.194,8.271,6.708c0.669,2.429,0.971,5.268,0.897,8.439L207.735,36.986z
					 M227.349,36.447l-4.509,0.15c0.399-2.889,0.602-5.391,0.602-7.448c0-2.9-0.389-4.965-1.188-6.313
					c-0.608-1.02-1.364-1.538-2.245-1.538c-1.471,0-3.021,1.41-4.877,4.438l-0.11,0.181v11.364l-4.03-0.116l-0.867-20.975
					l4.179-0.674l0.426,2.98l1-0.703c5.14-3.609,8.427-3.995,9.983-0.742c1.223,2.561,1.843,6.889,1.843,12.864
					C227.555,31.891,227.486,34.085,227.349,36.447z M242.474,29.094c-1.12,2.133-5.153,4.723-11.992,7.702l-0.896-26.013
					c8.348,2.392,12.915,5.437,13.58,9.058c0.261,1.423,0.394,2.803,0.394,4.103C243.56,25.988,243.195,27.721,242.474,29.094z"/>
				<path style="fill:#C96900;" d="M235.043,18.111l-1.066-0.447l0.252,10.795l0.942-0.283c2.717-0.814,4.192-2.369,4.387-4.621
					C239.753,21.279,238.234,19.448,235.043,18.111z M235.68,26.398l-0.149-6.401c1.816,0.966,2.646,2.094,2.532,3.43
					C237.947,24.768,237.166,25.746,235.68,26.398z"/>
				<path style="fill:#C96900;" d="M266.551,24.81c-0.725-3.655-1.719-6.145-3.04-7.614c-1.63-1.811-4.26-2.729-7.816-2.729
					c-3.428,0-6.195,1.603-8.227,4.762c-1.661,2.57-2.559,5.672-2.668,9.22c-0.126,3.726,0.719,6.549,2.513,8.391
					c1.785,1.834,4.583,2.821,8.313,2.932c0.18,0.006,0.357,0.008,0.534,0.008c3.841,0,6.774-1.332,8.725-3.962
					c1.385-1.867,2.087-4.217,2.087-6.984C266.971,27.576,266.83,26.222,266.551,24.81z M263.68,34.924
					c-1.754,2.366-4.363,3.447-8.008,3.349c-3.329-0.099-5.78-0.933-7.285-2.479c-1.497-1.539-2.199-3.993-2.087-7.296v-0.002
					c0.101-3.271,0.917-6.114,2.429-8.453c1.763-2.742,4.041-4.075,6.966-4.075c3.113,0,5.368,0.751,6.701,2.232
					c1.12,1.245,2.022,3.567,2.685,6.902c0.26,1.315,0.392,2.571,0.392,3.732C265.471,31.273,264.869,33.321,263.68,34.924z"/>
				<path style="fill:#C96900;" d="M259.319,22.517c-2.685-2.528-5.293-2.194-7.277,0.908c-0.931,1.455-1.403,2.903-1.403,4.304
					c0,1.325,0.433,2.688,1.285,4.049c1.015,1.625,2.245,2.45,3.657,2.45c1.543,0,2.947-0.786,4.17-2.333
					c1.142-1.423,1.72-2.908,1.72-4.414c0-1.619-0.705-3.27-2.095-4.905L259.319,22.517z M258.578,30.961
					c-0.94,1.189-1.921,1.767-2.997,1.767c-0.872,0-1.652-0.57-2.385-1.745c-0.702-1.12-1.058-2.215-1.058-3.254
					c0-1.11,0.393-2.286,1.167-3.495c0.81-1.266,1.659-1.908,2.523-1.908c0.722,0,1.539,0.422,2.431,1.255
					c1.136,1.345,1.711,2.658,1.711,3.901C259.971,28.637,259.503,29.807,258.578,30.961z"/>
			</g>
		</g>
	</g>
</g>
</svg>
