<?xml version="1.0" encoding="utf-8"?>
<!-- Generator: Adobe Illustrator 21.0.0, SVG Export Plug-In . SVG Version: 6.00 Build 0)  -->
<svg version="1.1" id="Capa_1" xmlns="http://www.w3.org/2000/svg" xmlns:xlink="http://www.w3.org/1999/xlink" x="0px" y="0px"
	 viewBox="0 0 73.964 65.301" style="enable-background:new 0 0 73.964 65.301;" xml:space="preserve">
<g>
	<g>
		<g>
			<circle style="fill-rule:evenodd;clip-rule:evenodd;fill:#FE8D00;" cx="29.631" cy="29.632" r="29.631"/>
			<path style="fill-rule:evenodd;clip-rule:evenodd;fill:#DCB000;" d="M29.632,59.183c-15.757,0-28.636-12.293-29.579-27.812
				C0.021,31.971,0,32.577,0,33.189C0,49.557,13.264,62.82,29.632,62.82c16.366,0,29.629-13.264,29.629-29.632
				c0-0.612-0.02-1.218-0.052-1.818C58.266,46.89,45.388,59.183,29.632,59.183z"/>
		</g>
		<g>
			<circle style="fill-rule:evenodd;clip-rule:evenodd;fill:#FFD30E;" cx="29.631" cy="32.112" r="29.631"/>
			<path style="fill-rule:evenodd;clip-rule:evenodd;fill:#FEE147;" d="M29.632,61.663c-15.757,0-28.636-12.293-29.579-27.812
				C0.021,34.451,0,35.057,0,35.669c0,16.368,13.264,29.632,29.632,29.632c16.366,0,29.629-13.264,29.629-29.632
				c0-0.612-0.02-1.218-0.052-1.818C58.266,49.37,45.388,61.663,29.632,61.663z"/>
		</g>
	</g>
	<g>
		<path style="opacity:0.2;fill-rule:evenodd;clip-rule:evenodd;" d="M64.981,5.762c0.997,1.15,1.657,1.876,2.313,2.6
			c1.682,1.858,3.369,3.718,4.874,5.67c1.711,2.217,2.116,4.269,1.566,6.418l0.014,0.002c-0.447,1.762-1.486,3.051-2.903,4.332
			L36.714,55.716c-2.213,2.009-4.865,2.85-7.468,2.701c-2.678-0.151-5.265-1.367-7.199-3.419L3.319,35.143
			c-1.222-1.3-2.009-2.736-2.105-4.577v-0.02c-0.084-1.812,0.514-3.517,2.037-5.209l7.234-8.038l0.076-0.078l0.094-0.098
			l0.054-0.058c1.595-1.646,3.471-2.31,5.455-2.187h0.016c1.702,0.115,3.278,0.856,4.637,2.07l0.094,0.076l0.144,0.139l0.058,0.054
			l9.761,9.494L53.304,5.79l0.036-0.036l0.217-0.197l0.095-0.078c1.603-1.393,3.34-2.207,5.136-2.356
			c2.257-0.185,4.292,0.575,5.989,2.407l0.02,0.036l0.091,0.101L64.981,5.762L64.981,5.762z M60.174,14.805l-1.108-1.224
			L35.691,35.384c-1.782,1.659-3.445,2.307-5.439,2.115c-1.852-0.178-3.121-1.005-4.484-2.326l-9.815-9.549l-4.095,4.548
			l17.199,18.231c0.231,0.245,0.495,0.394,0.72,0.403c0.149,0.008,0.327-0.056,0.496-0.211L63.45,18.528
			C62.389,17.249,61.28,16.025,60.174,14.805z"/>
		<path style="fill-rule:evenodd;clip-rule:evenodd;fill:#FFFFFF;" d="M64.981,3.122c0.997,1.149,1.657,1.876,2.313,2.6
			c1.682,1.856,3.369,3.715,4.874,5.669c1.711,2.218,2.116,4.27,1.566,6.417l0.014,0.004c-0.447,1.76-1.486,3.05-2.903,4.332
			L36.714,53.076c-2.213,2.009-4.865,2.847-7.468,2.7c-2.678-0.152-5.265-1.368-7.199-3.419L3.319,32.503
			c-1.222-1.302-2.009-2.737-2.105-4.577v-0.021c-0.084-1.811,0.514-3.517,2.037-5.208l7.234-8.04l0.076-0.076l0.094-0.101
			l0.054-0.057c1.595-1.645,3.471-2.309,5.455-2.186h0.016c1.702,0.114,3.278,0.856,4.637,2.07l0.094,0.076l0.144,0.136l0.058,0.054
			l9.761,9.496L53.304,3.15l0.036-0.038l0.217-0.197l0.095-0.076c1.603-1.392,3.34-2.207,5.136-2.356
			c2.257-0.184,4.292,0.576,5.989,2.408l0.02,0.036l0.091,0.101L64.981,3.122L64.981,3.122z M60.174,12.165l-1.108-1.226
			L35.691,32.742c-1.782,1.661-3.445,2.307-5.439,2.116c-1.852-0.178-3.121-1.005-4.484-2.327l-9.815-9.55l-4.095,4.55l17.199,18.23
			c0.231,0.245,0.495,0.394,0.72,0.406c0.149,0.008,0.327-0.057,0.496-0.211L63.45,15.886C62.389,14.608,61.28,13.382,60.174,12.165
			z"/>
		<path style="fill-rule:evenodd;clip-rule:evenodd;fill:#41BA2F;" d="M61.346,6.27c2.339,2.686,4.843,5.24,7.018,8.061
			c1.389,1.8,0.755,2.899-0.74,4.254l-34.13,30.93c-2.457,2.227-5.832,1.782-7.943-0.456L6.824,29.204
			c-0.957-1.013-1.19-1.956,0.006-3.286l7.234-8.037c1.132-1.258,2.502-1.014,3.696,0.147l11.364,11.055
			c1.208,1.176,1.914,1.422,3.291,0.138c8.055-7.515,16.111-15.031,24.168-22.547C58.349,5.026,60.046,4.775,61.346,6.27z"/>
		<path style="fill-rule:evenodd;clip-rule:evenodd;fill:#7FEA6C;" d="M25.551,44.665L7.338,25.357l-0.506,0.561
			c-1.198,1.331-0.963,2.273-0.01,3.286l18.73,19.855c2.111,2.239,5.487,2.683,7.941,0.456l25.079-22.726l0.313-0.283l8.742-7.921
			c1.495-1.355,2.127-2.454,0.736-4.254c-0.124-0.162-0.251-0.321-0.375-0.481c-0.114,0.113-0.233,0.224-0.361,0.339l-9.394,8.513
			l-0.55,0.495l-24.19,21.924C31.038,47.348,27.662,46.904,25.551,44.665z"/>
		<path style="fill-rule:evenodd;clip-rule:evenodd;fill:#0A8300;" d="M7.11,25.607l-0.279,0.311
			c-1.198,1.331-0.965,2.273-0.01,3.286l18.731,19.855c2.109,2.239,5.485,2.683,7.939,0.456l25.079-22.726l0.313-0.283l8.742-7.921
			c1.495-1.353,2.127-2.454,0.738-4.254l-0.183-0.233l-9.949,9.031l-0.551,0.495L33.492,45.548c-2.454,2.227-5.83,1.782-7.939-0.457
			L7.11,25.607z"/>
		<path style="fill-rule:evenodd;clip-rule:evenodd;fill:#0DA401;" d="M27.848,34.136c-3.31,0.476-6.481,0.594-9.409,0.371
			c-0.953-0.074-1.88-0.184-2.779-0.328l9.893,10.487c2.109,2.239,5.485,2.683,7.939,0.456l24.189-21.924l0.551-0.495l9.394-8.513
			l0.361-0.339c-0.636-0.803-1.296-1.585-1.968-2.356c-0.854,1.322-1.842,2.64-2.951,3.935c-1.561,1.822-3.363,3.599-5.383,5.299
			c-0.222,0.187-0.447,0.373-0.678,0.56c-3.668,2.981-8.005,5.698-12.861,7.933c-2.646,1.216-5.301,2.225-7.923,3.026
			C33.374,33.117,30.563,33.745,27.848,34.136z"/>
		<path style="fill-rule:evenodd;clip-rule:evenodd;fill:#7FEA6C;" d="M17.758,18.025c-1.192-1.158-2.562-1.403-3.692-0.144
			l-6.729,7.476l0.453,0.481l6.228-6.92c1.132-1.258,2.502-1.013,3.694,0.144l11.366,11.057c1.206,1.174,1.914,1.423,3.291,0.137
			l19.158-17.87l1.168-1.09l3.842-3.585C58.301,6.064,60,5.812,61.299,7.307c1.413,1.621,2.884,3.194,4.308,4.809
			c0.141-0.207,0.277-0.415,0.411-0.622c-1.534-1.76-3.142-3.463-4.674-5.224c-1.298-1.493-2.995-1.244-4.761,0.403l-4.348,4.055
			l-1.2,1.122L32.415,29.22c-1.377,1.286-2.084,1.035-3.291-0.138L17.758,18.025z"/>
		<circle style="fill-rule:evenodd;clip-rule:evenodd;fill:#7FEA6C;" cx="15.8" cy="20.122" r="2.478"/>
		<path style="fill-rule:evenodd;clip-rule:evenodd;fill:#E6E6E6;" d="M1.214,27.927L1.214,27.927L1.214,27.927z M73.749,17.812
			L73.749,17.812L73.749,17.812z M73.733,15.545L73.733,15.545L73.733,15.545z M36.712,50.811c-2.213,2.008-4.863,2.849-7.468,2.7
			c-2.676-0.15-5.262-1.366-7.197-3.416L3.319,30.237c-1.041-1.109-1.766-2.317-2.019-3.79c-0.084,0.479-0.11,0.967-0.086,1.479
			c0.096,1.84,0.883,3.274,2.105,4.577l18.729,19.854c1.934,2.05,4.521,3.269,7.197,3.419c2.605,0.147,5.255-0.694,7.468-2.7
			l22.146-20.067l0.18-0.165l11.807-10.7c1.416-1.282,2.455-2.57,2.887-4.334c0.248-0.967,0.303-1.917,0.13-2.871
			c-0.034,0.202-0.079,0.406-0.115,0.608c-0.447,1.762-1.486,3.05-2.903,4.332L59.032,30.585L36.712,50.811z"/>
	</g>
</g>
</svg>
