<?xml version="1.0" encoding="utf-8"?>
<!-- Generator: Adobe Illustrator 21.0.0, SVG Export Plug-In . SVG Version: 6.00 Build 0)  -->
<svg version="1.1" id="Capa_1" xmlns="http://www.w3.org/2000/svg" xmlns:xlink="http://www.w3.org/1999/xlink" x="0px" y="0px"
	 viewBox="0 0 190.518 136.105" style="enable-background:new 0 0 190.518 136.105;" xml:space="preserve">
<g>
	<g>
		<g>
			<path style="fill:#ED1C24;" d="M26.427,13.392c-10.075-6.786-10.777-4.805-17.081,6.06c-2.605,4.489-11.02,22.76-2.804,24.457
				C5.502,45.6,0.997,61.657,2.203,63.861c4.356,7.96,9.262-6.461,10.898-10.472c-0.602-4.32,10.811-25.784,5.644-28.007
				c1.558-2.297,1.229-4.581,2.253-6.02c0.785-1.104,6.318-2.913,7.433-4.276C29.303,14.019,26.547,13.479,26.427,13.392z"/>
			<path style="fill:#FFFFFF;" d="M18.089,9.459c1.957,0,4.45,1.313,8.339,3.933c0.119,0.087,2.875,0.626,2.003,1.693
				c-1.114,1.363-6.647,3.172-7.433,4.276c-1.023,1.439-0.694,3.723-2.253,6.02c5.167,2.224-6.246,23.688-5.644,28.007
				c-1.292,3.168-4.623,12.829-8.113,12.829c-0.929,0-1.869-0.685-2.784-2.357C0.997,61.657,5.502,45.6,6.543,43.91
				c-8.216-1.697,0.2-19.968,2.804-24.457C13.218,12.781,14.975,9.459,18.089,9.459 M18.089,7.459c-4.11,0-6.168,3.555-9.904,10.01
				l-0.568,0.98C7.523,18.61-1.58,34.897,1.774,42.395c0.494,1.105,1.231,1.979,2.173,2.592c-0.821,2.36-1.79,5.909-2.36,8.229
				c-2.32,9.447-1.523,10.905-1.139,11.605c1.234,2.254,2.761,3.397,4.539,3.397c4.121,0,6.938-6.333,9.47-12.819
				c0.189-0.483,0.355-0.909,0.496-1.255c0.133-0.326,0.178-0.682,0.129-1.031c-0.158-1.133,1.551-5.828,2.798-9.257
				c2.886-7.932,5.636-15.492,3.374-18.903c0.438-1.006,0.653-1.951,0.839-2.764c0.152-0.666,0.284-1.247,0.484-1.587
				c0.415-0.321,1.784-0.963,2.703-1.395c2.387-1.12,3.895-1.871,4.7-2.856c0.579-0.708,0.765-1.585,0.511-2.405
				c-0.481-1.55-2.202-2.086-3.181-2.372C23.414,8.965,20.639,7.459,18.089,7.459L18.089,7.459z"/>
		</g>
		<g>
			<path style="fill:#ED1C24;" d="M48.938,11.215c0.055,0.035,0.11,0.08,0.166,0.124C49.065,11.289,49.013,11.245,48.938,11.215z"/>
			<path style="fill:#FFFFFF;" d="M48.938,11.215c0.076,0.03,0.127,0.074,0.166,0.124C49.048,11.295,48.993,11.251,48.938,11.215
				 M48.938,9.215c-0.73,0-1.428,0.401-1.78,1.087c-0.463,0.902-0.177,2.006,0.659,2.571c0.016,0.013,0.044,0.035,0.044,0.035
				c0.365,0.289,0.804,0.432,1.241,0.432c0.511,0,1.019-0.195,1.406-0.578c0.719-0.71,0.795-1.845,0.177-2.645
				c-0.261-0.337-0.609-0.6-1.007-0.759C49.437,9.261,49.186,9.215,48.938,9.215L48.938,9.215z"/>
		</g>
		<g>
			<path style="fill:#ED1C24;" d="M56.328,22.263c-0.092-0.125-2.796,1.01-3.235,0.937c1.067,0.177-1.534-9.919-3.989-11.86
				c1.028,1.332-10.468,9.458-11.328,10.68c-2.951,4.197-3.274,13.263-0.239,17.097c3.612,4.561,5.843,3.281,11.277-2.326
				C50.821,34.72,58.445,25.13,56.328,22.263z"/>
			<path style="fill:#FFFFFF;" d="M49.103,11.339c2.434,1.925,5.011,11.863,4.016,11.863c-0.008,0-0.017-0.001-0.026-0.002
				c0,0,0,0,0,0c0,0-0.001,0-0.001,0c0,0,0.001,0,0.001,0c0,0,0,0,0,0c0.013,0.002,0.029,0.003,0.046,0.003
				c0.527,0,2.83-0.95,3.153-0.95c0.018,0,0.031,0.003,0.035,0.01c2.117,2.867-5.507,12.458-7.514,14.528
				c-3.193,3.294-5.28,5.094-7.191,5.094c-1.341,0-2.597-0.888-4.086-2.769c-3.036-3.834-2.712-12.9,0.239-17.097
				C38.635,20.797,50.132,12.671,49.103,11.339 M49.104,9.339c-0.511,0-1.019,0.195-1.406,0.578
				c-0.382,0.377-0.582,0.874-0.594,1.377c-0.982,1.307-5.03,4.547-7.044,6.159c-2.622,2.099-3.505,2.827-3.92,3.417
				c-3.235,4.6-3.964,14.698-0.171,19.489c1.3,1.642,3.118,3.527,5.654,3.527c2.62,0,4.961-1.92,8.627-5.702
				c0.115-0.119,11.307-12.204,7.687-17.108c-0.377-0.511-1.01-0.822-1.644-0.822c-0.347,0-0.677,0.082-1.202,0.256
				c-0.678-3.749-2.786-9.188-4.746-10.738C49.979,9.481,49.541,9.339,49.104,9.339L49.104,9.339z"/>
		</g>
		<g>
			<path style="fill:#ED1C24;" d="M176.934,4.409c-5.364-3.836-8.229-2.778-11.581,0.968C164.081,6.8,146.3,18.805,146.055,18.947
				c-4.322,2.495-10.625,7.794-13.337,9.113c-6.811,3.313-13.147-0.388-19.59,0.852c-7.258,1.397-3.37,3.65-7.149,5.5
				c-5.665,2.772-10.749-1.035-15.042,0.132c-2.657,0.723-6.171,4.142-8.465,5.974c-1.769,1.413-14.106,14.648-12.613,16.74
				c1.307-0.508,2.416-1.293,3.341-2.338c-1.136,1.602,0.434,11.987-3.888,12.959c10.753,3.781-7.853,8.782-9.772,10.244
				c-0.154,0.117-3.831,3.899-8.086,7.933c0.41,1.909,0.609,4.199,0.765,6.83c0.513,8.688,3.657,2.503-1.296,18.726
				c-4.953,16.223,9.367,15.497,16.729,10c7.361-5.497,14.086-18.401,25.071-14.085c0,0,5.029,2.788,3.823,11.429
				c-1.206,8.64,4.393,19.748,9.976,13.15c5.583-6.598,5.571-5.994,6.357-15.247c0.786-9.253,2.709-14.857,5.094-2.922
				c0,0,1.046,8.281,6.828,1.141c5.782-7.14-8.609-13.064-2.973-23.028c3.86-6.825,4.511-9.257,4.538-10.113
				c-0.076-0.12-0.122-0.263-0.106-0.455c0.407-4.988,8.091-11.842,9.581-15.954c1.888-5.208,1.372-11.077,3.496-16.27
				c2.084-5.096,6.321-11.197,9.743-15.055c0.6-0.677,4.581,0.213,4.833-0.07c1.935-2.173,2.311-6.176,4.514-8.029
				c5.627-4.732,8.878-5.835,16.807-8.242C180.446,19.962,182.021,8.047,176.934,4.409z"/>
			<path style="fill:#FFFFFF;" d="M171.113,2c1.632,0,3.491,0.743,5.821,2.409c4.68,3.346,3.721,13.698-0.523,13.698
				c-0.369,0-0.763-0.078-1.181-0.247c-7.929,2.406-11.181,3.51-16.807,8.242c-2.204,1.853-2.58,5.856-4.514,8.029
				c-0.037,0.041-0.152,0.058-0.324,0.058c-0.671,0-2.204-0.248-3.313-0.248c-0.567,0-1.023,0.065-1.196,0.26
				c-3.421,3.858-7.658,9.959-9.743,15.055c-2.124,5.193-1.609,11.062-3.496,16.27c-1.49,4.111-9.174,10.966-9.581,15.954
				c-0.016,0.192,0.031,0.336,0.106,0.455c-0.027,0.856-0.677,3.288-4.538,10.113c-5.636,9.964,8.755,15.888,2.973,23.028
				c-1.742,2.151-3.054,2.902-4.037,2.902c-2.28,0-2.791-4.044-2.791-4.044c-0.967-4.837-1.857-6.793-2.627-6.793
				c-1.13,0-2,4.213-2.467,9.715c-0.786,9.253-0.774,8.649-6.357,15.247c-1.183,1.398-2.367,2.001-3.486,2.001
				c-4.164,0-7.44-8.342-6.489-15.151c1.206-8.64-3.823-11.429-3.823-11.429c-1.529-0.601-2.975-0.868-4.352-0.868
				c-8.516,0-14.383,10.221-20.719,14.953c-2.841,2.122-6.719,3.533-10.126,3.533c-5.419,0-9.644-3.571-6.603-13.533
				c4.953-16.223,1.809-10.039,1.296-18.726c-0.155-2.631-0.354-4.921-0.765-6.83c4.254-4.034,7.932-7.815,8.086-7.933
				c1.919-1.462,20.525-6.463,9.772-10.244c4.322-0.972,2.752-11.357,3.888-12.959c-0.925,1.046-2.034,1.831-3.341,2.338
				c-1.493-2.092,10.845-15.327,12.613-16.74c2.294-1.832,5.808-5.251,8.465-5.974c0.602-0.164,1.219-0.23,1.851-0.23
				c2.62,0,5.497,1.132,8.589,1.132c1.486,0,3.021-0.261,4.602-1.035c3.78-1.849-0.109-4.103,7.149-5.5
				c0.994-0.191,1.985-0.265,2.976-0.265c3.328,0,6.651,0.831,10.051,0.831c2.15,0,4.331-0.333,6.563-1.418
				c2.712-1.319,9.015-6.618,13.337-9.113C146.3,18.805,164.081,6.8,165.353,5.378C167.249,3.259,168.989,2,171.113,2 M171.113,0
				L171.113,0c-3.201,0-5.462,2.044-7.25,4.044c-1.32,1.328-17.346,12.223-18.845,13.192c-2.252,1.305-4.886,3.237-7.433,5.106
				c-2.237,1.642-4.551,3.339-5.742,3.918c-1.706,0.83-3.514,1.217-5.688,1.217c-1.585,0-3.163-0.196-4.833-0.404
				c-1.691-0.21-3.439-0.427-5.218-0.428c-1.204,0-2.302,0.098-3.354,0.301c-4.594,0.884-5.863,2.252-6.599,4.467
				c-0.209,0.629-0.272,0.819-1.051,1.2c-1.159,0.567-2.342,0.831-3.723,0.831c-1.415,0-2.862-0.286-4.262-0.563
				c-1.414-0.28-2.876-0.569-4.327-0.569c-0.857,0-1.635,0.098-2.376,0.3c-2.508,0.682-5.204,2.976-7.583,5
				c-0.581,0.494-1.129,0.961-1.605,1.341c-1.119,0.894-4.856,4.839-7.819,8.398c-5.886,7.071-6.354,9.412-5.174,11.066
				c0.384,0.538,0.997,0.839,1.629,0.839c0.242,0,0.487-0.044,0.724-0.136c0.014-0.006,0.029-0.011,0.043-0.017
				c-0.126,2.266-0.44,6.526-1.754,6.822c-0.87,0.196-1.506,0.944-1.558,1.834c-0.052,0.89,0.492,1.708,1.333,2.004
				c1.013,0.356,1.549,0.662,1.819,0.854c-1.193,1.333-6.289,3.353-8.296,4.149c-2.152,0.853-3.215,1.285-3.843,1.763
				c-0.152,0.116-0.207,0.171-1.126,1.093c-1.331,1.336-4.102,4.115-7.124,6.979c-0.506,0.48-0.726,1.189-0.579,1.871
				c0.41,1.908,0.59,4.265,0.724,6.528c0.188,3.176,0.719,4.617,1.107,5.67c0.529,1.435,0.795,2.155-2.319,12.355
				c-1.68,5.504-1.45,9.757,0.684,12.64c1.684,2.274,4.392,3.477,7.832,3.477c3.737,0,8.076-1.506,11.322-3.93
				c2.131-1.591,4.107-3.655,6.199-5.839c4.103-4.285,8.346-8.716,13.324-8.716c1.136,0,2.269,0.218,3.459,0.667
				c0.546,0.373,3.649,2.807,2.735,9.353c-0.745,5.338,0.826,11.639,3.735,14.983c1.758,2.021,3.545,2.445,4.735,2.445
				c1.805,0,3.492-0.912,5.013-2.71c0.368-0.435,0.712-0.838,1.033-1.215c4.862-5.71,5.024-6.134,5.79-15.154
				c0.182-2.142,0.401-3.801,0.619-5.057c0.157,0.635,0.327,1.391,0.508,2.292c0.356,2.655,1.81,5.718,4.766,5.718
				c1.777,0,3.606-1.192,5.591-3.644c3.669-4.531,1.058-8.871-1.039-12.357c-2.195-3.649-4.091-6.8-1.747-10.945
				c4.711-8.328,4.775-10.365,4.796-11.034c0.007-0.213-0.021-0.424-0.08-0.626c0.359-2.335,2.869-5.592,5.094-8.48
				c1.863-2.417,3.622-4.701,4.341-6.685c0.974-2.688,1.348-5.479,1.711-8.177c0.382-2.849,0.743-5.539,1.756-8.017
				c1.968-4.812,5.882-10.44,9.026-14.072c0.019,0,0.04,0,0.061,0c0.521,0,1.221,0.072,1.839,0.136
				c0.578,0.06,1.077,0.111,1.474,0.111c0.29,0,1.171,0,1.819-0.728c1.12-1.259,1.756-2.832,2.371-4.355
				c0.58-1.436,1.128-2.793,1.936-3.473c5.127-4.312,8.093-5.419,15.506-7.677c0.401,0.101,0.801,0.152,1.195,0.152
				c2.27,0,4.161-1.67,5.058-4.468c1.34-4.176,0.444-10.127-3.372-12.857C175.443,0.884,173.224,0,171.113,0L171.113,0z"/>
		</g>
	</g>
	<g>
		<defs>
			<path id="SVGID_1_" d="M28.43,15.085c-1.114,1.363-6.647,3.172-7.433,4.276c-1.023,1.439-0.694,3.723-2.253,6.02
				c5.167,2.224-6.246,23.688-5.644,28.007C11.465,57.4,6.559,71.821,2.203,63.861C0.997,61.657,5.502,45.6,6.543,43.91
				c-8.216-1.697,0.2-19.968,2.804-24.457c6.304-10.865,7.005-12.847,17.081-6.06C26.547,13.479,29.303,14.019,28.43,15.085z
				 M56.328,22.263c-0.092-0.125-2.796,1.01-3.235,0.937c1.067,0.177-1.534-9.919-3.989-11.86
				c1.028,1.332-10.468,9.458-11.328,10.68c-2.951,4.197-3.274,13.263-0.239,17.097c3.612,4.561,5.843,3.281,11.277-2.326
				C50.821,34.72,58.445,25.13,56.328,22.263z M176.934,4.409c-5.364-3.836-8.229-2.778-11.581,0.968
				C164.081,6.8,146.3,18.805,146.055,18.947c-4.322,2.495-10.625,7.794-13.337,9.113c-6.811,3.313-13.147-0.388-19.59,0.852
				c-7.258,1.397-3.37,3.65-7.149,5.5c-5.665,2.772-10.749-1.035-15.042,0.132c-2.657,0.723-6.171,4.142-8.465,5.974
				c-1.769,1.413-14.106,14.648-12.613,16.74c1.307-0.508,2.416-1.293,3.341-2.338c-1.136,1.602,0.434,11.987-3.888,12.959
				c10.753,3.781-7.853,8.782-9.772,10.244c-0.154,0.117-3.831,3.899-8.086,7.933c0.41,1.909,0.609,4.199,0.765,6.83
				c0.513,8.688,3.657,2.503-1.296,18.726c-4.953,16.223,9.367,15.497,16.729,10c7.361-5.497,14.086-18.401,25.071-14.085
				c0,0,5.029,2.788,3.823,11.429c-1.206,8.64,4.393,19.748,9.976,13.15c5.583-6.598,5.571-5.994,6.357-15.247
				c0.786-9.253,2.709-14.857,5.094-2.922c0,0,1.046,8.281,6.828,1.141c5.782-7.14-8.609-13.064-2.973-23.028
				c3.86-6.825,4.511-9.257,4.538-10.113c-0.076-0.12-0.122-0.263-0.106-0.455c0.407-4.988,8.091-11.842,9.581-15.954
				c1.888-5.208,1.372-11.077,3.496-16.27c2.084-5.096,6.321-11.197,9.743-15.055c0.6-0.677,4.581,0.213,4.833-0.07
				c1.935-2.173,2.311-6.176,4.514-8.029c5.627-4.732,8.878-5.835,16.807-8.242C180.446,19.962,182.021,8.047,176.934,4.409z"/>
		</defs>
		<clipPath id="SVGID_2_">
			<use xlink:href="#SVGID_1_"  style="overflow:visible;"/>
		</clipPath>
		<g style="clip-path:url(#SVGID_2_);">
			
				<rect x="-9.817" y="-51.63" transform="matrix(0.866 0.5 -0.5 0.866 31.3734 10.6744)" style="opacity:0.2;fill:#FFFFFF;" width="11.171" height="231.021"/>
			
				<rect x="17.241" y="-52.766" transform="matrix(0.866 0.5 -0.5 0.866 34.4302 -3.0068)" style="opacity:0.2;fill:#FFFFFF;" width="11.171" height="231.021"/>
			
				<rect x="44.298" y="-53.903" transform="matrix(0.866 0.5 -0.5 0.866 37.487 -16.688)" style="opacity:0.2;fill:#FFFFFF;" width="11.171" height="231.021"/>
			
				<rect x="71.356" y="-55.039" transform="matrix(0.866 0.5 -0.5 0.866 40.5439 -30.3691)" style="opacity:0.2;fill:#FFFFFF;" width="11.171" height="231.021"/>
			
				<rect x="98.414" y="-56.176" transform="matrix(0.866 0.5 -0.5 0.866 43.6007 -44.0503)" style="opacity:0.2;fill:#FFFFFF;" width="11.171" height="231.021"/>
			
				<rect x="125.472" y="-57.312" transform="matrix(0.866 0.5 -0.5 0.866 46.6575 -57.7314)" style="opacity:0.2;fill:#FFFFFF;" width="11.171" height="231.021"/>
			
				<rect x="152.53" y="-58.449" transform="matrix(0.866 0.5 -0.5 0.866 49.7143 -71.4126)" style="opacity:0.2;fill:#FFFFFF;" width="11.171" height="231.021"/>
		</g>
	</g>
	<g>
		<path d="M9.347,19.452c6.304-10.865,7.005-12.847,17.081-6.06c0.119,0.087,2.875,0.626,2.003,1.693
			c-0.05,0.061-0.119,0.124-0.185,0.187c-9.892-6.631-10.634-4.616-16.898,6.18c-2.143,3.694-8.214,16.715-5.72,22.159
			C-0.985,40.732,6.849,23.758,9.347,19.452z M4.203,65.861C2.997,63.657,7.502,47.6,8.543,45.91
			c-1.01-0.209-1.765-0.67-2.314-1.322c-1.414,3.507-5.135,17.246-4.025,19.274c0.705,1.289,1.425,1.984,2.143,2.238
			C4.298,66.017,4.25,65.948,4.203,65.861z M55.092,25.2c0.187,0.031,0.787-0.158,1.42-0.375c0.271-1.061,0.26-1.961-0.184-2.562
			c-0.041-0.056-0.604,0.14-1.252,0.366C55.394,24.172,55.448,25.258,55.092,25.2z M39.537,41.116
			c-3.036-3.834-2.712-12.9,0.239-17.097c0.753-1.071,9.668-7.439,11.176-9.897c-0.583-1.255-1.22-2.286-1.848-2.783
			c1.028,1.332-10.468,9.458-11.328,10.68c-2.951,4.197-3.274,13.263-0.239,17.097c0.718,0.906,1.38,1.573,2.025,2.03
			C39.554,41.135,39.546,41.127,39.537,41.116z M72.181,69.49c3.221-2.115,1.967-11.09,3.018-12.572
			c-0.733,0.829-1.588,1.487-2.56,1.98c-0.191,3.61-0.478,8.338-3.329,8.979C70.785,68.396,71.692,68.938,72.181,69.49z
			 M52.921,113.611c4.953-16.223,1.809-10.039,1.296-18.726c-0.155-2.631-0.354-4.921-0.765-6.83
			c4.254-4.034,7.932-7.815,8.086-7.933c1.828-1.393,18.784-5.997,11.085-9.699c0.243,3.212-11.576,6.55-13.085,7.699
			c-0.154,0.117-3.831,3.899-8.086,7.933c0.41,1.909,0.609,4.199,0.765,6.83c0.513,8.688,3.657,2.503-1.296,18.726
			c-2.094,6.861-0.736,10.682,2.079,12.401C51.696,121.869,51.423,118.52,52.921,113.611z M73.199,54.918
			c-0.164,0.231-0.268,0.658-0.345,1.198c2.853-4.653,10.275-12.528,11.617-13.6c2.294-1.832,5.808-5.251,8.465-5.974
			c4.293-1.168,9.377,2.64,15.042-0.132c3.78-1.849-0.109-4.103,7.149-5.5c6.443-1.24,12.779,2.461,19.59-0.852
			c2.712-1.319,9.015-6.618,13.337-9.113C148.3,20.805,166.081,8.8,167.354,7.378c3.271-3.656,6.085-4.738,11.203-1.225
			c-0.438-0.684-0.975-1.281-1.622-1.744c-5.364-3.836-8.229-2.778-11.581,0.968C164.081,6.8,146.3,18.805,146.055,18.947
			c-4.322,2.495-10.625,7.794-13.337,9.113c-6.811,3.313-13.147-0.388-19.59,0.852c-7.258,1.397-3.37,3.65-7.149,5.5
			c-5.665,2.772-10.749-1.035-15.042,0.132c-2.657,0.723-6.171,4.142-8.465,5.974c-1.769,1.413-14.106,14.648-12.613,16.74
			C71.165,56.749,72.274,55.964,73.199,54.918z M98.544,120.954c1.124-8.052-3.163-11.019-3.752-11.386
			c1.22,1.73,2.408,4.688,1.752,9.386c-0.805,5.764,1.421,12.619,4.649,14.59C99.119,130.546,97.92,125.423,98.544,120.954z
			 M119.971,115.934c-1.185-5.93-2.256-7.527-3.13-6.501c0.362,1.074,0.74,2.549,1.13,4.501c0,0,0.475,3.736,2.541,4.021
			C120.099,116.945,119.971,115.934,119.971,115.934z"/>
	</g>
	<g>
		<g>
			<path style="fill:#FFFFFF;" d="M97.053,60.961c-1.699-3.31-5.115-5.655-9.119-5.655c-4.006,0-10.246,3.368-10.246,10.319
				c0,1.68,0.406,3.265,1.126,4.664c1.699,3.311,9.12,11.647,9.12,11.647s10.244-10.662,10.244-16.311
				C98.178,63.946,97.772,62.361,97.053,60.961z M87.934,70.766c-2.835,0-5.141-2.306-5.141-5.141c0-2.144,1.319-3.984,3.189-4.754
				c0.602-0.249,1.261-0.386,1.952-0.386c2.834,0,5.141,2.231,5.141,5.066c0,2.144-1.32,4.06-3.189,4.83
				C89.282,70.629,88.624,70.766,87.934,70.766z M95.603,66.585c0.01-0.015,0.019-0.029,0.029-0.044
				c-0.002,0.003-0.004,0.007-0.006,0.009C95.618,66.561,95.61,66.574,95.603,66.585z M95.497,66.747
				c0.005-0.006,0.009-0.013,0.015-0.02C95.506,66.734,95.502,66.741,95.497,66.747z"/>
			<defs>
				<filter id="Adobe_OpacityMaskFilter" filterUnits="userSpaceOnUse" x="73.737" y="82.802" width="28.416" height="2.503">
					<feFlood  style="flood-color:white;flood-opacity:1" result="back"/>
					<feBlend  in="SourceGraphic" in2="back" mode="normal"/>
				</filter>
			</defs>
			<mask maskUnits="userSpaceOnUse" x="73.737" y="82.802" width="28.416" height="2.503" id="XMLID_2_">
			</mask>
			
				<ellipse id="XMLID_6_" transform="matrix(1 -0.0098 0.0098 1 -0.818 0.8643)" style="opacity:0.5;mask:url(#XMLID_2_);fill:#999999;" cx="87.945" cy="84.054" rx="14.208" ry="1.244"/>
		</g>
		<g>
			<path d="M87.934,61.167c2.458,0,4.457,1.935,4.457,4.394c0,1.859-1.144,3.519-2.765,4.187c-0.523,0.216-1.093,0.336-1.692,0.336
				c-2.459,0-4.458-2.001-4.458-4.459c0-1.858,1.144-3.455,2.765-4.121C86.763,61.287,87.334,61.167,87.934,61.167 M87.934,59.8
				c-0.765,0-1.509,0.147-2.214,0.439c-2.194,0.902-3.611,3.019-3.611,5.385c0,3.212,2.614,5.826,5.826,5.826
				c0.764,0,1.508-0.147,2.212-0.439c2.161-0.889,3.612-3.08,3.612-5.45C93.758,62.384,91.144,59.8,87.934,59.8L87.934,59.8z"/>
		</g>
	</g>
	<g>
		<path style="fill:#FFFFFF;" d="M105.146,49.785c4.535,0,7.875,1.271,10.02,3.814c0.832,0.984,1.248,2.033,1.248,3.146
			c0,2.074-1.436,4.359-4.307,6.855l7.523,8.93l-6.328-0.07l-4.711-5.625v5.537l-5.203-0.334l0.299-22.219
			C104.18,49.797,104.666,49.785,105.146,49.785z M111.844,57.01c0-1.313-1.084-2.133-3.252-2.461v5.625
			C110.76,59.131,111.844,58.076,111.844,57.01z"/>
		<path style="fill:#FFFFFF;" d="M122.988,63.9c0.527,1.77,1.646,2.696,3.357,2.778c1.594,0.082,2.672-0.756,3.234-2.514
			l4.922-0.703c-1.254,5.145-3.744,7.717-7.471,7.717c-1.148,0-2.432-0.264-3.85-0.791c-2.625-1.5-3.938-4.383-3.938-8.648
			c0-0.363,0.012-0.768,0.035-1.213c0.258-4.934,2.66-7.799,7.205-8.596c4.313-0.094,6.797,2.904,7.453,8.993L122.988,63.9z
			 M124.332,57.634c-0.65,0.768-1.004,1.696-1.063,2.786l6.592-1.88c-0.762-1.371-1.711-2.057-2.848-2.057
			S124.982,56.866,124.332,57.634z"/>
		<path style="fill:#FFFFFF;" d="M149.566,67.522c0.551,1.207,0.826,2.156,0.826,2.848c0,0.738-0.516,1.576-1.547,2.514
			c-1.488,1.359-3.979,1.98-7.471,1.863c-3.48-0.105-5.479-0.961-5.994-2.566c-0.164-0.504-0.246-0.967-0.246-1.389
			c0-0.973,0.41-1.793,1.23-2.461c-0.363-0.867-0.545-1.805-0.545-2.813c0-0.996,0.621-1.893,1.863-2.689
			c-1.512-1.184-2.268-2.572-2.268-4.166c0-0.457,0.07-0.949,0.211-1.477c0.586-2.227,2.092-3.662,4.518-4.307
			c1.008-0.27,1.945-0.404,2.813-0.404c1.254,0,2.373,0.27,3.357,0.809c0.387-0.809,0.955-1.459,1.705-1.951l3.252,2.848
			c-1.266,0.258-2.033,0.82-2.303,1.688c0.738,0.773,1.061,2.027,0.967,3.762c-0.094,1.746-0.838,3.07-2.232,3.973
			c-1.008,0.656-2.432,0.984-4.271,0.984c-0.715,0-1.494-0.047-2.338-0.141c-1.043,0.305-1.564,0.721-1.564,1.248
			c0,0.176,0.059,0.363,0.176,0.563c2.074-0.527,3.885-0.785,5.432-0.773C147.48,65.494,148.957,66.174,149.566,67.522z
			 M146.648,69.648c-0.176-0.68-0.691-1.02-1.547-1.02c-0.398,0-1.166,0.088-2.303,0.264c-2.344,0.363-3.498,0.879-3.463,1.547
			c0.023,0.539,0.867,0.809,2.531,0.809c0.305,0,0.744-0.018,1.318-0.053c2.32-0.141,3.48-0.586,3.48-1.336
			C146.666,69.789,146.66,69.719,146.648,69.648z M145.682,58.539c-0.059-0.844-0.334-1.389-0.826-1.635
			c-0.328-0.164-1.031-0.258-2.109-0.281c-1.875-0.035-2.83,0.492-2.865,1.582c-0.035,1.102,0.943,1.746,2.936,1.934
			c0.246,0.023,0.486,0.035,0.721,0.035C145.049,60.174,145.764,59.629,145.682,58.539z"/>
		<path style="fill:#FFFFFF;" d="M153.416,51.191c0.258,0,0.492,0.035,0.703,0.105c0.984,0.328,1.629,0.938,1.934,1.828
			c0.094,0.27,0.141,0.539,0.141,0.809c0,0.598-0.24,1.189-0.721,1.775c-0.691,0.844-1.488,1.225-2.391,1.143
			s-1.635-0.568-2.197-1.459c-0.258-0.41-0.387-0.826-0.387-1.248c0-0.539,0.188-1.107,0.563-1.705
			C151.857,51.607,152.643,51.191,153.416,51.191z M156.088,58.68c-0.188,4.348-0.422,8.66-0.703,12.938l-4.5,0.422
			c0.164-1.828,0.246-3.686,0.246-5.572c0-2.344-0.129-4.723-0.387-7.137L156.088,58.68z"/>
		<path style="fill:#FFFFFF;" d="M156.615,63.83c0.082-2.672,0.744-4.969,1.986-6.891c1.477-2.297,3.451-3.445,5.924-3.445
			c2.613,0,4.5,0.645,5.66,1.934c0.949,1.055,1.693,2.941,2.232,5.66c0.211,1.066,0.316,2.074,0.316,3.023
			c0,2.039-0.504,3.738-1.512,5.098c-1.477,1.992-3.721,2.941-6.732,2.848c-2.766-0.082-4.793-0.785-6.082-2.109
			S156.521,66.584,156.615,63.83z M166.951,59.611c-0.82-0.773-1.594-1.16-2.32-1.16c-0.891,0-1.711,0.586-2.461,1.758
			c-0.668,1.043-1.002,2.057-1.002,3.041c0,0.926,0.305,1.875,0.914,2.848c0.68,1.09,1.465,1.635,2.355,1.635
			c1.02,0,1.951-0.533,2.795-1.6c0.809-1.008,1.213-2.033,1.213-3.076C168.445,61.932,167.947,60.783,166.951,59.611z
			 M163.875,49.926l1.723-5.308l4.045,0.982l-4.045,4.783L163.875,49.926z"/>
		<path style="fill:#FFFFFF;" d="M179.344,53.055l0.281,1.969c2.285-1.605,4.16-2.408,5.625-2.408c1.359,0,2.367,0.686,3.023,2.057
			c0.996,2.086,1.494,5.514,1.494,10.283c0,1.711-0.064,3.598-0.193,5.66l-4.746,0.158c0.375-2.531,0.563-4.67,0.563-6.416
			c0-2.133-0.281-3.674-0.844-4.623c-0.363-0.609-0.779-0.914-1.248-0.914c-0.902,0-2.004,1.061-3.305,3.182v9.299l-4.289-0.123
			l-0.721-17.42L179.344,53.055z"/>
		<path style="fill:#FFFFFF;" d="M117.02,88.104c-0.281-2.098-1.359-3.076-3.234-2.936s-2.906,1.406-3.094,3.797
			c-0.023,0.293-0.035,0.539-0.035,0.738c0,2.004,0.727,3.486,2.18,4.447c0.527,0.352,1.02,0.527,1.477,0.527
			c0.973,0,1.828-0.75,2.566-2.25l4.922,0.352c-1.465,4.641-3.539,6.914-6.223,6.82s-4.43-0.334-5.238-0.721
			c-1.477-0.703-2.543-1.963-3.199-3.779c-0.387-1.066-0.703-2.742-0.949-5.027c-0.07-0.656-0.105-1.242-0.105-1.758
			c0-2.648,0.668-4.799,2.004-6.451c1.441-1.781,3.457-2.672,6.047-2.672c0.551,0,1.084,0.035,1.6,0.105
			c3.164,0.434,5.133,3.211,5.906,8.332L117.02,88.104z"/>
		<path style="fill:#FFFFFF;" d="M127.478,80.844c0.785-0.176,1.553-0.264,2.303-0.264c3.633,0,5.971,1.887,7.014,5.66
			c0.539,1.957,0.779,4.207,0.721,6.75l-0.141,6.029l-4.553,0.281l-0.035-0.826c-5.719-0.199-8.701-1.605-8.947-4.219
			c-0.035-0.375-0.053-0.65-0.053-0.826c0-2.133,0.855-3.469,2.566-4.008c0.855-0.27,1.705-0.404,2.549-0.404
			c1.125,0,2.273,0.229,3.445,0.686c-0.012-2.016-0.035-3.082-0.07-3.199c-0.234-0.809-1.014-1.266-2.338-1.371
			c-1.125-0.094-2.203,0.844-3.234,2.813l-4.5-0.703C123.424,83.492,125.182,81.359,127.478,80.844z M130.396,92.147
			c-1.23,0-1.875,0.322-1.934,0.967c-0.094,0.938,1.289,1.699,4.148,2.285l-0.123-3.041
			C131.668,92.217,130.971,92.147,130.396,92.147z"/>
		<path style="fill:#FFFFFF;" d="M138.746,99.6c0.035-7.129-0.146-12.825-0.545-17.086l4.922-0.404l-0.158,1.6
			c2.414-1.5,4.875-2.209,7.383-2.127l0.475,4.254c-2.883,0-4.91,0.597-6.082,1.791c-0.809,0.831-1.213,2.943-1.213,6.337
			c0,1.545,0.082,3.365,0.246,5.46L138.746,99.6z"/>
		<path style="fill:#FFFFFF;" d="M154.391,79.191c0.258,0,0.492,0.035,0.703,0.105c0.984,0.328,1.629,0.938,1.934,1.828
			c0.094,0.27,0.141,0.539,0.141,0.809c0,0.598-0.24,1.189-0.721,1.775c-0.691,0.844-1.488,1.225-2.391,1.143
			s-1.635-0.568-2.197-1.459c-0.258-0.41-0.387-0.826-0.387-1.248c0-0.539,0.188-1.107,0.563-1.705
			C152.832,79.607,153.617,79.191,154.391,79.191z M157.062,86.68c-0.188,4.348-0.422,8.66-0.703,12.938l-4.5,0.422
			c0.164-1.828,0.246-3.686,0.246-5.572c0-2.344-0.129-4.723-0.387-7.137L157.062,86.68z"/>
		<path style="fill:#FFFFFF;" d="M157.625,100.461V78.418c2.508-0.504,4.605-0.756,6.293-0.756c2.777,0,4.43,0.686,4.957,2.057
			c0.199,0.516,0.299,1.049,0.299,1.6c0,1.734-1.037,3.568-3.111,5.502c3.34,2.379,5.01,4.512,5.01,6.398
			C171.072,96.301,166.59,98.715,157.625,100.461z M161.703,82.391l0.123,3.023c1.957-1.348,2.936-2.273,2.936-2.777
			c0-0.305-0.357-0.457-1.072-0.457C163.197,82.18,162.535,82.25,161.703,82.391z M161.703,91.18v3.797
			c2.602-0.949,3.902-1.781,3.902-2.496C165.605,91.613,164.305,91.18,161.703,91.18z"/>
		<path style="fill:#FFFFFF;" d="M176.785,91.9c0.527,1.77,1.646,2.696,3.357,2.778c1.594,0.082,2.672-0.756,3.234-2.514
			l4.922-0.703c-1.254,5.145-3.744,7.717-7.471,7.717c-1.148,0-2.432-0.264-3.85-0.791c-2.625-1.5-3.938-4.383-3.938-8.648
			c0-0.363,0.012-0.768,0.035-1.213c0.258-4.934,2.66-7.799,7.207-8.596c4.311-0.094,6.795,2.904,7.451,8.993L176.785,91.9z
			 M178.131,85.634c-0.65,0.768-1.006,1.696-1.064,2.786l6.592-1.88c-0.762-1.371-1.711-2.057-2.848-2.057
			S178.781,84.866,178.131,85.634z"/>
		<g>
			<path d="M109.342,68.899l3.607,4.308l8.31,0.092l-8.108-9.624c2.699-2.478,4.014-4.75,4.014-6.93c0-1.29-0.479-2.512-1.425-3.63
				c-2.283-2.708-5.848-4.081-10.593-4.081c-0.492,0-0.99,0.012-1.495,0.036l-0.704,0.033l-0.318,23.637l6.713,0.431V68.899z
				 M107.842,71.573l-3.693-0.237l0.279-20.792c0.241-0.006,0.48-0.009,0.719-0.009c4.282,0,7.461,1.194,9.446,3.549
				c0.721,0.852,1.071,1.723,1.071,2.662c0,1.838-1.362,3.954-4.049,6.29l-0.558,0.484l6.945,8.243l-4.347-0.048l-5.814-6.942
				V71.573z"/>
			<path d="M112.594,57.01c0-1.192-0.675-2.716-3.89-3.203l-0.862-0.13v7.69l1.075-0.517
				C111.391,59.66,112.594,58.403,112.594,57.01z M109.342,58.925v-3.461c1.752,0.46,1.752,1.259,1.752,1.545
				C111.094,57.36,110.84,58.029,109.342,58.925z"/>
			<path d="M130.517,58.175c-0.9-1.621-2.079-2.443-3.503-2.443c-1.362,0-2.457,0.477-3.254,1.417
				c-0.755,0.891-1.172,1.978-1.239,3.231l-0.057,1.05l8.512-2.428L130.517,58.175z M124.209,59.372
				c0.147-0.464,0.378-0.879,0.695-1.253c0.505-0.596,1.195-0.886,2.109-0.886c0.614,0,1.159,0.286,1.65,0.869L124.209,59.372z"/>
			<path d="M122.81,71.038l0.11,0.052c1.495,0.556,2.879,0.838,4.111,0.838c4.1,0,6.858-2.789,8.199-8.289l0.263-1.077l-6.484,0.926
				l-0.143,0.448c-0.462,1.442-1.208,2.056-2.484,1.993c-1.138-0.055-1.914-0.543-2.397-1.522l10.768-2.928l-0.068-0.636
				c-0.703-6.513-3.441-9.762-8.216-9.662l-0.113,0.011c-4.914,0.862-7.547,3.989-7.824,9.295c-0.024,0.46-0.036,0.877-0.036,1.252
				C118.494,66.273,119.946,69.402,122.81,71.038z M120.028,60.564c0.238-4.558,2.374-7.138,6.529-7.886
				c3.668-0.082,5.857,2.463,6.558,7.69l-11.065,3.009l0.22,0.736c0.617,2.07,2.014,3.215,4.038,3.313
				c1.274,0.059,2.931-0.346,3.825-2.584l3.347-0.478c-1.229,4.077-3.346,6.063-6.448,6.063c-1.038,0-2.226-0.243-3.53-0.722
				c-2.359-1.377-3.507-3.984-3.507-7.967C119.994,61.387,120.006,60.996,120.028,60.564z"/>
			<path d="M142.745,60.885c0.271,0.026,0.534,0.039,0.792,0.039c1.105,0,1.883-0.259,2.377-0.791
				c0.27-0.291,0.578-0.813,0.516-1.649c-0.079-1.122-0.495-1.879-1.239-2.25c-0.299-0.149-0.846-0.326-2.431-0.36
				c-0.059-0.001-0.116-0.001-0.174-0.001c-2.936,0-3.427,1.439-3.455,2.31C139.097,59.256,139.696,60.598,142.745,60.885z
				 M142.561,57.371c0.055,0,0.11,0,0.168,0.002c1.379,0.03,1.733,0.173,1.791,0.202c0.293,0.146,0.387,0.633,0.413,1.016v0.004
				c0.027,0.36-0.083,0.479-0.119,0.518c-0.245,0.264-1.042,0.363-1.928,0.279c-1.518-0.143-2.276-0.534-2.256-1.163
				C140.638,58.014,140.658,57.371,142.561,57.371z"/>
			<path d="M147.375,69.46c-0.153-0.59-0.651-1.582-2.273-1.582c-0.441,0-1.231,0.089-2.418,0.272
				c-2.069,0.321-4.175,0.848-4.097,2.321c0.066,1.526,2.401,1.526,3.28,1.526c0.315,0,0.77-0.018,1.363-0.054
				c1.146-0.069,4.186-0.253,4.186-2.084c0-0.111-0.009-0.223-0.027-0.334L147.375,69.46z M143.14,70.447
				c-0.554,0.034-0.979,0.051-1.272,0.051c-0.885,0-1.36-0.081-1.606-0.152c0.293-0.17,0.999-0.456,2.652-0.712
				c1.362-0.21,1.942-0.255,2.188-0.255c0.695,0,0.772,0.27,0.819,0.452C145.876,69.885,145.459,70.306,143.14,70.447z"/>
			<path d="M170.999,45.157l-5.9-1.433l-2.182,6.723l2.947,0.782L170.999,45.157z M164.833,49.404l1.264-3.893l2.189,0.531
				l-2.955,3.494L164.833,49.404z"/>
			<path d="M167.466,59.065c-2.169-2.045-4.325-1.766-5.928,0.739c-0.743,1.161-1.12,2.32-1.12,3.445
				c0,1.064,0.346,2.157,1.027,3.245c0.823,1.319,1.829,1.988,2.992,1.988c1.256,0,2.394-0.634,3.38-1.88
				c0.914-1.14,1.378-2.333,1.378-3.545c0-1.303-0.563-2.625-1.673-3.931L167.466,59.065z M166.645,65.668
				c-0.7,0.885-1.422,1.315-2.207,1.315c-0.619,0-1.182-0.419-1.72-1.283c-0.531-0.847-0.8-1.671-0.8-2.45
				c0-0.834,0.297-1.721,0.884-2.637c0.6-0.937,1.215-1.412,1.829-1.412c0.518,0,1.115,0.312,1.775,0.928
				c0.855,1.016,1.289,2,1.289,2.928C167.695,63.932,167.353,64.785,166.645,65.668z"/>
			<path d="M173.153,60.942c-0.57-2.88-1.359-4.848-2.41-6.016c-1.303-1.448-3.396-2.182-6.218-2.182
				c-2.732,0-4.938,1.275-6.554,3.788c-0.454,0.702-0.83,1.457-1.138,2.256c0.001-0.025,0.003-0.051,0.004-0.076l0.038-0.884
				l-6.192,0.754c-0.061-1.167-0.339-2.117-0.841-2.83c0.056-0.083,0.141-0.172,0.244-0.262c0.051,0.101,0.102,0.203,0.165,0.303
				c0.69,1.094,1.62,1.702,2.763,1.806c0.106,0.009,0.21,0.014,0.313,0.014c1.032,0,1.948-0.479,2.726-1.428
				c0.591-0.721,0.891-1.478,0.891-2.251c0-0.353-0.062-0.708-0.181-1.051c-0.384-1.12-1.192-1.893-2.406-2.297
				c-0.287-0.096-0.604-0.144-0.94-0.144c-0.982,0-1.957,0.498-2.897,1.479l-0.094,0.12c-0.057,0.09-0.099,0.18-0.149,0.27
				l-2.191-1.919l-0.477,0.313c-0.65,0.427-1.188,0.963-1.603,1.599c-1.703-0.708-3.726-0.773-6.054-0.15
				c-2.694,0.716-4.394,2.344-5.05,4.838c-0.157,0.588-0.236,1.15-0.236,1.67c0,1.544,0.613,2.925,1.824,4.117
				c-0.943,0.809-1.42,1.727-1.42,2.739c0,0.914,0.139,1.786,0.414,2.602c-0.73,0.747-1.1,1.644-1.1,2.672
				c0,0.499,0.095,1.044,0.282,1.618c0.629,1.959,2.816,2.969,6.683,3.086c0.292,0.01,0.577,0.015,0.855,0.015
				c3.278,0,5.622-0.681,7.146-2.072c0.274-0.249,0.511-0.493,0.722-0.733l-0.015,0.165l6.033-0.566l0.042-0.638
				c0.082-1.252,0.153-2.523,0.227-3.788c0.336,1.029,0.836,1.899,1.511,2.592c1.423,1.462,3.643,2.249,6.596,2.336
				c0.143,0.004,0.283,0.007,0.423,0.007c3.05,0,5.382-1.061,6.936-3.157c1.101-1.485,1.659-3.351,1.659-5.544
				C173.484,63.118,173.373,62.052,173.153,60.942z M151.656,52.902c0.626-0.638,1.218-0.961,1.76-0.961
				c0.176,0,0.333,0.022,0.466,0.067c0.768,0.256,1.231,0.688,1.463,1.363c0.066,0.191,0.099,0.375,0.099,0.562
				c0,0.423-0.18,0.848-0.551,1.3c-0.535,0.655-1.105,0.934-1.742,0.871c-0.663-0.06-1.196-0.424-1.631-1.111
				c-0.019-0.031-0.026-0.06-0.043-0.09l1.428-0.291l-1.454-1.273C151.511,53.196,151.565,53.054,151.656,52.902z M148.34,72.329
				c-1.332,1.216-3.667,1.777-6.942,1.667c-2.14-0.065-4.797-0.473-5.304-2.049c-0.139-0.426-0.209-0.815-0.209-1.156
				c0-0.742,0.313-1.356,0.954-1.879l0.435-0.354l-0.217-0.517c-0.322-0.771-0.486-1.62-0.486-2.523
				c0-0.729,0.497-1.403,1.519-2.058l0.889-0.57l-0.832-0.651c-1.332-1.043-1.979-2.213-1.979-3.576c0-0.39,0.063-0.821,0.187-1.286
				c0.517-1.963,1.82-3.198,3.985-3.773c0.94-0.251,1.821-0.379,2.619-0.379c1.121,0,2.129,0.241,2.997,0.716l0.695,0.381
				l0.342-0.715c0.247-0.517,0.574-0.949,0.991-1.31l1.789,1.566c-0.001,0.014-0.002,0.028-0.003,0.042
				c-0.769,0.398-1.279,0.978-1.515,1.74l-0.131,0.421l0.304,0.319c0.587,0.614,0.843,1.692,0.761,3.204
				c-0.081,1.505-0.699,2.612-1.893,3.384c-1.235,0.805-3.302,1.041-6.117,0.727l-0.149-0.017l-0.144,0.042
				c-1.396,0.408-2.104,1.07-2.104,1.968c0,0.311,0.094,0.627,0.279,0.943l0.285,0.485l0.546-0.139
				c2.004-0.51,3.777-0.759,5.243-0.75c2.042,0.01,3.269,0.533,3.75,1.598l0.001,0.002c0.627,1.374,0.759,2.137,0.759,2.536
				C149.643,70.723,149.417,71.35,148.34,72.329z M146.777,64.864c0.497-0.167,0.942-0.378,1.333-0.632
				c0.964-0.624,1.657-1.432,2.082-2.408c0.111,1.564,0.188,3.12,0.188,4.644c0,0.336-0.017,0.669-0.022,1.004
				c-0.039-0.088-0.067-0.168-0.109-0.259C149.677,65.944,148.511,65.158,146.777,64.864z M154.678,70.93l-2.973,0.279
				c0.117-1.558,0.176-3.149,0.176-4.742c0-2.121-0.106-4.298-0.316-6.481l3.735-0.455C155.13,63.345,154.921,67.172,154.678,70.93z
				 M170.62,68.762c-1.333,1.799-3.335,2.636-6.107,2.545c-2.552-0.076-4.425-0.709-5.567-1.883c-1.135-1.166-1.667-3.04-1.58-5.569
				v-0.002c0.077-2.521,0.705-4.71,1.867-6.508c1.342-2.087,3.072-3.101,5.293-3.101c2.38,0,4.097,0.567,5.103,1.686
				c0.854,0.948,1.545,2.732,2.055,5.304c0.2,1.014,0.302,1.982,0.302,2.878C171.984,65.977,171.525,67.542,170.62,68.762z"/>
			<path d="M188.95,54.348c-0.777-1.625-2.057-2.483-3.7-2.483c-1.407,0-3.066,0.614-5.051,1.872l-0.221-1.544l-5.771,0.931
				l0.777,18.784l5.76,0.166v-9.857c1.535-2.451,2.341-2.645,2.555-2.645c0.241,0,0.481,0.343,0.603,0.546
				c0.49,0.828,0.739,2.254,0.739,4.241c0,1.701-0.187,3.823-0.555,6.306l-0.132,0.889l6.326-0.21l0.043-0.68
				c0.129-2.068,0.194-3.989,0.194-5.707C190.518,60.027,190.005,56.557,188.95,54.348z M188.866,69.888l-3.17,0.106
				c0.295-2.179,0.444-4.071,0.444-5.637c0-2.291-0.311-3.928-0.949-5.007c-0.631-1.058-1.378-1.28-1.893-1.28
				c-1.21,0-2.463,1.125-3.944,3.54l-0.11,0.181v8.738l-2.818-0.081l-0.664-16.056l2.947-0.476l0.347,2.424l1.001-0.703
				c3.907-2.747,6.359-3.107,7.54-0.642c0.942,1.975,1.421,5.326,1.421,9.96C189.018,66.453,188.967,68.11,188.866,69.888z"/>
			<path d="M132.615,91.618c-0.858-0.147-1.604-0.222-2.219-0.222c-2.092,0-2.612,0.896-2.68,1.642
				c-0.187,1.864,2.618,2.659,4.744,3.095l0.938,0.192l-0.187-4.605L132.615,91.618z M129.21,93.181
				c0.013-0.138,0.433-0.285,1.187-0.285c0.388,0,0.846,0.036,1.367,0.107l0.059,1.447C129.229,93.802,129.209,93.194,129.21,93.181
				z"/>
			<path d="M162.252,86.032c2.705-1.863,3.26-2.705,3.26-3.395c0-0.451-0.236-1.207-1.822-1.207c-0.539,0-1.229,0.072-2.111,0.221
				l-0.651,0.11l0.205,5.042L162.252,86.032z M163.747,82.93c-0.21,0.225-0.58,0.566-1.229,1.06l-0.039-0.96
				C162.998,82.96,163.43,82.929,163.747,82.93z"/>
			<path d="M161.703,90.43h-0.75v5.619l1.007-0.367c3.081-1.124,4.396-2.082,4.396-3.201C166.355,90.43,162.976,90.43,161.703,90.43
				z M162.453,93.883v-1.939c2.247,0.089,2.408,0.512,2.406,0.505C164.852,92.473,164.663,92.974,162.453,93.883z"/>
			<path d="M167.218,86.738c1.797-1.854,2.706-3.674,2.706-5.419c0-0.641-0.117-1.27-0.349-1.869
				c-1.008-2.622-4.984-3.197-12.098-1.767l-0.603,0.121v1.698c-0.407-0.4-0.92-0.709-1.544-0.916
				c-0.287-0.096-0.604-0.144-0.94-0.144c-0.982,0-1.957,0.498-2.897,1.479l-0.094,0.12c-0.171,0.272-0.299,0.543-0.406,0.812
				l-0.622-0.02c-2.203-0.078-4.389,0.437-6.519,1.516l0.104-1.06l-6.574,0.539l0.07,0.755c0.127,1.355,0.229,2.883,0.312,4.544
				c-0.078-0.367-0.153-0.738-0.249-1.087c-1.139-4.121-3.742-6.21-7.736-6.21c-0.802,0-1.632,0.095-2.467,0.282
				c-2.243,0.504-4.022,2.343-5.303,5.476c-1.022-4.248-3.093-6.612-6.173-7.034c-0.547-0.075-1.119-0.112-1.701-0.112
				c-2.815,0-5.046,0.993-6.63,2.95c-1.44,1.782-2.171,4.111-2.171,6.923c0,0.54,0.037,1.158,0.109,1.838
				c0.255,2.367,0.579,4.069,0.99,5.202c0.723,2,1.928,3.414,3.581,4.201c0.924,0.441,2.683,0.694,5.535,0.793
				c0.063,0.002,0.126,0.003,0.188,0.003c2.957,0,5.236-2.471,6.775-7.348l0.286-0.906l-6.373-0.456l-0.223,0.453
				c-0.598,1.215-1.235,1.831-1.894,1.831c-0.305,0-0.661-0.135-1.063-0.403c-1.241-0.82-1.844-2.07-1.844-3.822
				c0-0.183,0.011-0.409,0.033-0.68c0.207-2.64,1.47-3.038,2.401-3.107c1.046-0.081,2.146,0.132,2.436,2.287l0.097,0.721
				l6.129-0.629l-0.038-0.253l3.866,0.604c-0.067,0.02-0.134,0.04-0.201,0.061c-1.41,0.444-3.091,1.625-3.091,4.723
				c0,0.19,0.018,0.489,0.056,0.896c0.275,2.92,3.294,4.556,8.975,4.867l0.038,0.903l5.89-0.364l-0.003,0.644l6.59-0.23
				l-0.061-0.781c-0.162-2.066-0.244-3.883-0.244-5.401c0-4.165,0.627-5.43,0.998-5.812c1.021-1.04,2.887-1.566,5.547-1.566h0.802
				l-0.73,0.089l0.078,0.735c0.254,2.376,0.383,4.751,0.383,7.057c0,1.855-0.082,3.708-0.243,5.505l-0.08,0.898l5.843-0.548v1.049
				l0.894-0.174c9.457-1.842,14.054-4.452,14.054-7.979C171.822,91.205,170.314,89.08,167.218,86.738z M117.628,87.287
				c-0.496-2.007-1.86-3.016-3.898-2.867c-1.576,0.118-3.512,0.993-3.786,4.485c-0.024,0.316-0.037,0.583-0.037,0.798
				c0,2.262,0.847,3.969,2.514,5.071c1.9,1.266,3.633,0.673,4.895-1.563l3.467,0.248c-1.314,3.654-3.073,5.459-5.177,5.392
				c-3.198-0.112-4.452-0.414-4.942-0.648c-1.303-0.621-2.225-1.719-2.816-3.358c-0.364-1.005-0.67-2.637-0.908-4.852
				c-0.067-0.626-0.102-1.191-0.102-1.678c0-2.46,0.618-4.472,1.837-5.979c1.304-1.61,3.091-2.394,5.464-2.394
				c0.515,0,1.019,0.033,1.498,0.099c2.663,0.365,4.348,2.632,5.137,6.924L117.628,87.287z M136.642,98.314l-3.103,0.191
				l-0.032-0.756l-0.693-0.024c-5.255-0.183-8.023-1.374-8.227-3.539c-0.032-0.343-0.05-0.595-0.05-0.756
				c0-2.375,1.165-3.016,2.042-3.292c0.778-0.245,1.56-0.37,2.323-0.37c1.026,0,2.094,0.213,3.173,0.634l1.029,0.401l-0.007-1.104
				c-0.019-3.131-0.057-3.261-0.1-3.404c-0.227-0.78-0.931-1.745-2.996-1.91c-1.375-0.11-2.578,0.784-3.701,2.738l-3.092-0.483
				c1.103-2.949,2.592-4.651,4.434-5.064c0.728-0.163,1.447-0.246,2.139-0.246c3.282,0,5.341,1.671,6.291,5.109
				c0.517,1.877,0.75,4.076,0.693,6.533L136.642,98.314z M127.307,88.414l0.063-0.121c0.601-1.147,1.531-2.483,2.511-2.413
				c1.47,0.117,1.626,0.655,1.661,0.762c0.011,0.078,0.033,0.433,0.049,2.015c-0.907-0.259-1.807-0.389-2.688-0.389
				C128.374,88.268,127.841,88.316,127.307,88.414z M144.203,87.104c-0.973,1-1.426,3.179-1.426,6.86
				c0,1.361,0.063,2.952,0.19,4.738l-3.469,0.121c0.018-6.356-0.146-11.604-0.484-15.624l3.273-0.269l-0.22,2.219l1.292-0.803
				c2.065-1.284,4.188-1.96,6.316-2.017l0.309,2.773C147.311,85.213,145.414,85.87,144.203,87.104z M152.631,80.902
				c0.626-0.638,1.218-0.961,1.76-0.961c0.176,0,0.333,0.022,0.466,0.067c0.768,0.256,1.231,0.688,1.463,1.363
				c0.066,0.191,0.099,0.375,0.099,0.562c0,0.423-0.18,0.848-0.551,1.3c-0.536,0.655-1.103,0.934-1.742,0.871
				c-0.663-0.06-1.196-0.424-1.631-1.111c-0.183-0.291-0.271-0.569-0.271-0.849C152.223,81.769,152.36,81.352,152.631,80.902z
				 M155.652,98.93l-2.973,0.279c0.117-1.558,0.176-3.149,0.176-4.742c0-2.121-0.106-4.298-0.316-6.481l3.735-0.455
				C156.104,91.345,155.895,95.172,155.652,98.93z M151.66,86.582l-0.29-2.602c0.675,0.966,1.549,1.521,2.618,1.619
				c0.106,0.009,0.21,0.014,0.313,0.014c0.968,0,1.828-0.438,2.573-1.272v1.606L151.66,86.582z M158.375,99.545v-20.51
				c5.728-1.085,9.148-0.739,9.801,0.954c0.164,0.426,0.248,0.874,0.248,1.329c0,1.51-0.967,3.176-2.873,4.953l-0.672,0.626
				l0.748,0.533c3.072,2.188,4.695,4.189,4.695,5.788C170.322,94.994,168.221,97.508,158.375,99.545z"/>
			<path d="M184.313,86.175c-0.9-1.621-2.079-2.443-3.503-2.443c-1.361,0-2.455,0.477-3.252,1.417
				c-0.756,0.893-1.174,1.979-1.241,3.231l-0.057,1.05l8.512-2.428L184.313,86.175z M178.007,87.372
				c0.147-0.463,0.379-0.878,0.696-1.253c0.505-0.596,1.194-0.886,2.107-0.886c0.614,0,1.159,0.286,1.65,0.869L178.007,87.372z"/>
			<path d="M182.663,91.936c-0.462,1.442-1.212,2.054-2.484,1.993c-1.138-0.055-1.914-0.543-2.397-1.522l10.768-2.928l-0.068-0.636
				c-0.691-6.414-3.381-9.665-7.996-9.665c-0.071,0-0.145,0.001-0.218,0.002l-0.113,0.011c-4.916,0.862-7.549,3.989-7.826,9.295
				c-0.024,0.46-0.036,0.877-0.036,1.252c0,4.535,1.452,7.664,4.315,9.3l0.11,0.052c1.495,0.556,2.879,0.838,4.111,0.838
				c4.1,0,6.858-2.789,8.199-8.289l0.263-1.077l-6.484,0.926L182.663,91.936z M183.93,92.843l3.347-0.478
				c-1.229,4.077-3.346,6.063-6.448,6.063c-1.038,0-2.226-0.243-3.53-0.722c-2.359-1.377-3.507-3.984-3.507-7.967
				c0-0.352,0.012-0.743,0.034-1.174c0.238-4.558,2.375-7.138,6.531-7.886c0.039-0.001,0.078-0.001,0.117-0.001
				c3.634,0,5.745,2.52,6.438,7.691l-11.065,3.009l0.22,0.736c0.617,2.07,2.014,3.215,4.038,3.313
				C181.378,95.491,183.035,95.081,183.93,92.843z"/>
		</g>
	</g>
</g>
</svg>
