<?xml version="1.0" encoding="utf-8"?>
<!-- Generator: Adobe Illustrator 21.0.0, SVG Export Plug-In . SVG Version: 6.00 Build 0)  -->
<svg version="1.1" id="Capa_1" xmlns="http://www.w3.org/2000/svg" xmlns:xlink="http://www.w3.org/1999/xlink" x="0px" y="0px"
	 viewBox="0 0 126.707 188.707" style="enable-background:new 0 0 126.707 188.707;" xml:space="preserve">
<g>
	<g>
		<path style="fill-rule:evenodd;clip-rule:evenodd;fill:#662D91;" d="M120.995,55.843c-4.161-3.997-8.074-8.582-8.623-9.142
			c-2.648-4.097,2.677-13.082,2.679-13.496c0.032-5.569-3.086-8.201-4.976-12.954c-2.198-5.527-6.123-17.103-10.129-18.251
			c0.117,0.033-7.432,3.873-8.378,2.381c-0.027,0.85-0.672,3.264-4.505,10.04c-5.595,9.892,8.692,15.773,2.952,22.862
			c-5.74,7.089-6.779-1.133-6.779-1.133c-2.368-11.849-4.277-6.285-5.058,2.901s-0.769,8.586-6.311,15.137
			c-5.542,6.551-11.101-4.477-9.904-13.055c1.198-8.578-3.795-11.346-3.795-11.346c-10.906-4.285-17.582,8.526-24.891,13.984
			s-21.525,6.179-16.608-9.928s1.796-9.967,1.287-18.592c-0.154-2.612-0.352-4.885-0.759-6.781
			c-4.543,4.307-9.749,8.904-11.986,9.578c-0.212,1.844,4.496,8.656,4.304,12.695C9.29,35.48,5.93,30.349,2.357,24.717
			c0.003,3.772-0.051,8.795-0.332,11.239c-0.482,4.191,6.653,7.532,10.958,12.417s1.231,8.626-1.545,7.371
			c-2.776-1.255-6.951-2.537-7.097,4.862C4.196,68.005,7.85,75.478,18.436,76.286c10.586,0.808,5.979,11.319,4.434,18.69
			c-1.545,7.371,5.64,21.558,6.676,26.736c1.036,5.178-0.565,8.39-0.565,8.39s-2.513,5.752-4.879,11.326s-1.543,10.152,0.813,12.399
			c2.356,2.247,6.72,4.133,5.03,8.7c-1.69,4.568-6.669,3.47-10.465,3.195s-3.67,3.529-3.67,3.529
			c-0.878,3.983-2.439,4.582-2.439,4.582c-7.371,1.085-2.733,4.118-2.733,4.118s5.414,9.508,10.35,8.709
			c4.936-0.799,13.904-11.233,21.098-21.094s3.199-5.038,8.716-10.931s8.93-16.728,15.958-23.191s8.465-3.234,11.719-11.072
			c3.254-7.838,5.715-0.688,5.715-0.688s3.397,5.268,7.54,3.149c4.142-2.119,3.652-2.629,4.742-12.309
			c1.09-9.68,7.426-13.157,7.426-13.157c9.436-5.149,14.726-2.911,9.537-11.296c-3.39-5.476,5.021-19.687,11.265-28.888
			C123.296,56.937,122.004,56.542,120.995,55.843z"/>
		<path style="fill:#FFFFFF;" d="M99.946,2.001c4.006,1.148,7.931,12.724,10.129,18.251c1.89,4.753,5.007,7.385,4.976,12.954
			c-0.002,0.413-5.326,9.399-2.679,13.496c0.549,0.56,4.462,5.145,8.623,9.142c1.009,0.699,2.301,1.094,3.711,1.339
			c-6.244,9.202-14.655,23.412-11.265,28.888c5.19,8.385-0.1,6.147-9.536,11.296c0,0-6.336,3.476-7.426,13.157
			s-0.6,10.19-4.742,12.309c-0.694,0.355-1.366,0.503-2.006,0.503c-3.179,0-5.534-3.651-5.534-3.651s-1.026-2.983-2.63-2.983
			c-0.879,0-1.932,0.897-3.084,3.671c-3.254,7.837-4.691,4.609-11.719,11.072c-7.028,6.463-10.441,17.298-15.958,23.191
			c-5.517,5.893-1.521,1.07-8.716,10.931c-7.195,9.861-16.163,20.295-21.099,21.094c-0.199,0.032-0.399,0.048-0.599,0.048
			c-4.765,0-9.751-8.757-9.751-8.757s-4.638-3.033,2.733-4.118c0,0,1.56-0.599,2.439-4.582c0,0-0.117-3.543,3.287-3.543
			c0.123,0,0.251,0.005,0.383,0.014c1.399,0.101,2.958,0.314,4.455,0.314c2.564,0,4.942-0.625,6.01-3.509
			c1.69-4.568-2.674-6.454-5.03-8.7c-2.356-2.247-3.179-6.825-0.813-12.399c2.366-5.574,4.879-11.326,4.879-11.326
			s1.601-3.212,0.565-8.39c-1.036-5.178-8.221-19.365-6.676-26.736c1.545-7.371,6.152-17.882-4.434-18.69
			C7.85,75.478,4.196,68.005,4.342,60.606c0.09-4.567,1.715-5.826,3.599-5.826c1.168,0,2.436,0.484,3.498,0.965
			c0.367,0.166,0.74,0.245,1.1,0.245c2.36,0,4.18-3.377,0.445-7.616C8.678,43.488,1.543,40.147,2.025,35.956
			c0.281-2.444,0.336-7.467,0.332-11.239c2.586,4.076,5.06,7.89,6.315,7.89c0.479,0,0.78-0.556,0.842-1.864
			c0.192-4.039-4.516-10.851-4.304-12.695c2.237-0.674,7.443-5.271,11.986-9.578c0.407,1.896,0.605,4.168,0.759,6.781
			c0.509,8.625,3.63,2.485-1.287,18.592c-3.019,9.891,1.175,13.435,6.556,13.435c3.381,0,7.232-1.401,10.053-3.507
			c6.291-4.698,12.114-14.845,20.57-14.845c1.367,0,2.803,0.265,4.321,0.861c0,0,4.993,2.768,3.795,11.346
			c-0.944,6.761,2.308,15.042,6.443,15.042c1.111,0,2.287-0.599,3.461-1.987c5.542-6.551,5.531-5.951,6.311-15.137
			c0.464-5.463,1.328-9.645,2.449-9.645c0.764,0,1.649,1.942,2.608,6.744c0,0,0.507,4.015,2.771,4.015
			c0.976,0,2.279-0.746,4.008-2.881c5.74-7.089-8.547-12.97-2.952-22.862c3.833-6.776,4.478-9.19,4.505-10.04
			c0.154,0.243,0.482,0.344,0.923,0.344C94.766,4.726,100.043,2.029,99.946,2.001 M99.945,0c-0.426,0-0.836,0.137-1.172,0.38
			c-1.019,0.58-4.634,2.197-6.097,2.336c-0.326-0.217-0.712-0.335-1.108-0.335c-0.175,0-0.352,0.023-0.527,0.071
			c-0.847,0.231-1.445,0.989-1.472,1.867c-0.007,0.177-0.188,1.943-4.247,9.118c-3.472,6.139-0.555,10.987,1.789,14.883
			c2.348,3.902,3.073,5.578,1.35,7.705c-1.417,1.749-2.202,2.072-2.403,2.128c-0.31-0.279-0.719-1.368-0.838-2.26
			c-0.006-0.043-0.014-0.092-0.022-0.135c-1.082-5.417-2.131-8.352-4.57-8.352c-2.141,0-3.63,1.92-4.442,11.476
			c-0.674,7.939-0.674,7.939-4.812,12.798c-0.321,0.377-0.665,0.781-1.033,1.216c-0.698,0.825-1.385,1.279-1.934,1.279
			c-0.674,0-1.351-0.663-1.694-1.058c-1.865-2.143-3.409-7.108-2.767-11.708c1.372-9.825-4.553-13.232-4.806-13.372
			c-0.077-0.043-0.157-0.08-0.239-0.112c-1.689-0.664-3.389-1-5.052-1c-6.644,0-11.671,5.25-16.106,9.882
			c-1.959,2.046-3.81,3.979-5.66,5.361c-2.53,1.889-6.006,3.11-8.856,3.11c-1.466,0-3.449-0.319-4.573-1.837
			c-1.307-1.766-1.331-4.883-0.07-9.014c3.325-10.891,3.182-12.227,2.23-14.809c-0.332-0.9-0.708-1.921-0.86-4.485
			c-0.142-2.405-0.337-4.928-0.8-7.083C19,7.344,18.479,6.774,17.788,6.56c-0.194-0.06-0.394-0.089-0.591-0.089
			c-0.505,0-0.999,0.191-1.376,0.549c-8.239,7.812-10.646,8.951-11.187,9.114c-0.765,0.23-1.319,0.893-1.41,1.687
			c-0.147,1.276,0.507,2.74,1.773,5.431c0.714,1.518,1.6,3.4,2.109,5.041c-1.093-1.545-2.307-3.458-3.06-4.646
			c-0.374-0.589-1.017-0.929-1.689-0.929c-0.186,0-0.374,0.026-0.559,0.08c-0.855,0.249-1.442,1.032-1.441,1.922
			c0.005,5.346-0.105,9.153-0.319,11.008c-0.437,3.798,2.945,6.565,6.525,9.495c1.725,1.412,3.509,2.872,4.92,4.473
			c1.609,1.826,1.827,3.257,1.524,3.927c-0.062,0.137-0.205,0.367-0.468,0.367c-0.085,0-0.178-0.023-0.276-0.067
			C11.086,53.39,9.532,52.78,7.94,52.78c-2.034,0-5.465,1.012-5.598,7.787C2.186,68.53,6.292,77.364,18.284,78.28
			c2.081,0.159,3.44,0.721,4.156,1.72c1.582,2.206,0.39,6.864-0.662,10.974c-0.321,1.253-0.624,2.437-0.866,3.592
			c-1.181,5.634,1.938,14.066,4.444,20.841c1.039,2.809,1.937,5.236,2.229,6.698c0.872,4.359-0.35,7.013-0.402,7.124
			c-0.009,0.018-0.026,0.055-0.034,0.074c-0.025,0.058-2.545,5.825-4.888,11.345c-2.988,7.04-1.301,12.172,1.274,14.628
			c0.557,0.531,1.185,1.024,1.793,1.5c2.541,1.992,3.501,3.007,2.742,5.059c-0.503,1.36-1.37,2.203-4.134,2.203
			c-0.926,0-1.924-0.094-2.89-0.185c-0.485-0.046-0.961-0.091-1.421-0.124c-0.182-0.013-0.358-0.019-0.526-0.019
			c-1.922,0-3.108,0.808-3.764,1.486c-1.284,1.328-1.492,3.094-1.52,3.817c-0.431,1.842-0.981,2.637-1.235,2.923
			c-2.167,0.365-4.814,1.147-5.309,3.399c-0.418,1.902,1.043,3.35,1.853,3.987c1.175,1.964,5.966,9.387,11.267,9.387
			c0.309,0,0.618-0.025,0.918-0.073c6.02-0.974,15.501-12.441,22.395-21.889c2.214-3.034,3.38-4.694,4.077-5.686
			c0.984-1.4,0.984-1.4,1.957-2.405c0.519-0.535,1.283-1.324,2.527-2.652c2.623-2.802,4.707-6.486,6.913-10.387
			c2.594-4.587,5.277-9.331,8.939-12.699c2.613-2.403,4.38-3.362,5.799-4.133c2.671-1.45,4.286-2.52,6.414-7.644
			c0.536-1.292,0.967-1.931,1.224-2.235c0.261,0.342,0.576,0.929,0.755,1.437c0.052,0.148,0.123,0.296,0.208,0.427
			c0.301,0.467,3.065,4.567,7.214,4.567c0.999,0,1.98-0.243,2.917-0.722c4.603-2.355,4.772-3.963,5.481-10.733
			c0.097-0.922,0.205-1.96,0.338-3.133c0.95-8.439,6.191-11.508,6.414-11.634c2.577-1.406,4.861-2.242,6.696-2.914
			c2.761-1.011,4.942-1.809,5.678-3.94c0.705-2.039-0.335-4.369-2.113-7.241c-1.593-2.573,0.518-10.942,11.22-26.713
			c0.381-0.562,0.451-1.279,0.186-1.904c-0.265-0.625-0.829-1.073-1.498-1.19c-1.229-0.214-2.146-0.52-2.796-0.934
			c-3.123-3.013-6.101-6.354-7.542-7.972c-0.318-0.356-0.567-0.635-0.735-0.818c-0.654-1.193-0.699-3.985,2.47-10.51
			c0.45-0.926,0.601-1.237,0.604-1.762c0.024-4.236-1.557-7.011-3.086-9.695c-0.712-1.25-1.449-2.543-2.031-4.009
			c-0.277-0.697-0.582-1.49-0.911-2.347c-3.322-8.65-6.406-15.907-10.526-17.087C100.313,0.025,100.127,0,99.945,0L99.945,0z"/>
	</g>
	<g>
		<defs>
			<path id="SVGID_1_" d="M120.995,55.843c-4.161-3.997-8.074-8.582-8.623-9.142c-2.648-4.097,2.677-13.082,2.679-13.496
				c0.032-5.569-3.086-8.201-4.976-12.954c-2.198-5.527-6.123-17.103-10.129-18.251c0.117,0.033-7.432,3.873-8.378,2.381
				c-0.027,0.85-0.672,3.264-4.505,10.04c-5.595,9.892,8.692,15.773,2.952,22.862c-5.74,7.089-6.779-1.133-6.779-1.133
				c-2.368-11.849-4.277-6.285-5.058,2.901s-0.769,8.586-6.311,15.137c-5.542,6.551-11.101-4.477-9.904-13.055
				c1.198-8.578-3.795-11.346-3.795-11.346c-10.906-4.285-17.582,8.526-24.891,13.984s-21.525,6.179-16.608-9.928
				s1.796-9.967,1.287-18.592c-0.154-2.612-0.352-4.885-0.759-6.781c-4.543,4.307-9.749,8.904-11.986,9.578
				c-0.212,1.844,4.496,8.656,4.304,12.695C9.29,35.48,5.93,30.349,2.357,24.717c0.003,3.772-0.051,8.795-0.332,11.239
				c-0.482,4.191,6.653,7.532,10.958,12.417s1.231,8.626-1.545,7.371c-2.776-1.255-6.951-2.537-7.097,4.862
				C4.196,68.005,7.85,75.478,18.436,76.286c10.586,0.808,5.979,11.319,4.434,18.69c-1.545,7.371,5.64,21.558,6.676,26.736
				c1.036,5.178-0.565,8.39-0.565,8.39s-2.513,5.752-4.879,11.326s-1.543,10.152,0.813,12.399c2.356,2.247,6.72,4.133,5.03,8.7
				c-1.69,4.568-6.669,3.47-10.465,3.195s-3.67,3.529-3.67,3.529c-0.878,3.983-2.439,4.582-2.439,4.582
				c-7.371,1.085-2.733,4.118-2.733,4.118s5.414,9.508,10.35,8.709c4.936-0.799,13.904-11.233,21.098-21.094
				s3.199-5.038,8.716-10.931s8.93-16.728,15.958-23.191s8.465-3.234,11.719-11.072c3.254-7.838,5.715-0.688,5.715-0.688
				s3.397,5.268,7.54,3.149c4.142-2.119,3.652-2.629,4.742-12.309c1.09-9.68,7.426-13.157,7.426-13.157
				c9.436-5.149,14.726-2.911,9.537-11.296c-3.39-5.476,5.021-19.687,11.265-28.888C123.296,56.937,122.004,56.542,120.995,55.843z"
				/>
		</defs>
		<clipPath id="SVGID_2_">
			<use xlink:href="#SVGID_1_"  style="overflow:visible;"/>
		</clipPath>
		<g style="clip-path:url(#SVGID_2_);">
			
				<rect x="-34.008" y="-16.14" transform="matrix(0.866 0.5 -0.5 0.866 45.8774 27.5243)" style="opacity:0.2;fill:#FFFFFF;" width="11.171" height="231.021"/>
			
				<rect x="-6.95" y="-17.277" transform="matrix(0.866 0.5 -0.5 0.866 48.9342 13.8431)" style="opacity:0.2;fill:#FFFFFF;" width="11.171" height="231.021"/>
			
				<rect x="20.108" y="-18.413" transform="matrix(0.866 0.5 -0.5 0.866 51.991 0.162)" style="opacity:0.2;fill:#FFFFFF;" width="11.171" height="231.021"/>
			
				<rect x="47.166" y="-19.55" transform="matrix(0.866 0.5 -0.5 0.866 55.0479 -13.5192)" style="opacity:0.2;fill:#FFFFFF;" width="11.171" height="231.021"/>
			
				<rect x="74.224" y="-20.686" transform="matrix(0.866 0.5 -0.5 0.866 58.1047 -27.2003)" style="opacity:0.2;fill:#FFFFFF;" width="11.171" height="231.021"/>
			
				<rect x="101.281" y="-21.822" transform="matrix(0.866 0.5 -0.5 0.866 61.1615 -40.8815)" style="opacity:0.2;fill:#FFFFFF;" width="11.171" height="231.021"/>
			
				<rect x="128.339" y="-22.959" transform="matrix(0.866 0.5 -0.5 0.866 64.2183 -54.5626)" style="opacity:0.2;fill:#FFFFFF;" width="11.171" height="231.021"/>
		</g>
	</g>
	<g>
		<g>
			<path style="fill-rule:evenodd;clip-rule:evenodd;" d="M74.267,56.589c5.542-6.551,5.531-5.951,6.311-15.137
				c0.363-4.273,0.971-7.76,1.755-9.077c-1.945-6.551-3.477-1.309-4.155,6.677c-0.78,9.186-0.769,8.586-6.311,15.137
				c-1.762,2.082-3.524,2.384-5.071,1.557C68.728,58.747,71.5,59.86,74.267,56.589z"/>
		</g>
		<g>
			<path style="fill-rule:evenodd;clip-rule:evenodd;" d="M35.677,46.171c7.281-5.437,13.936-18.168,24.77-14.026
				c-1.082-1.687-2.28-2.358-2.28-2.358c-10.906-4.285-17.582,8.526-24.891,13.984c-4.117,3.075-10.426,4.645-14.272,2.551
				C21.853,51.52,30.497,50.04,35.677,46.171z"/>
		</g>
		<g>
			<path style="fill-rule:evenodd;clip-rule:evenodd;" d="M90.015,37.284c-1.72,2.124-3.016,2.868-3.99,2.875
				c0.673,1.967,2.388,4.467,6.39-0.475c5.74-7.089-8.547-12.97-2.952-22.862c3.833-6.776,4.478-9.19,4.505-10.04
				c0.945,1.492,8.494-2.348,8.378-2.381c0.216,0.062,0.432,0.16,0.648,0.28c-0.992-1.396-2.017-2.385-3.048-2.68
				c0.117,0.033-7.432,3.873-8.378,2.381c-0.027,0.85-0.672,3.264-4.505,10.04C81.468,24.313,95.755,30.195,90.015,37.284z"/>
		</g>
		<g>
			<path style="fill-rule:evenodd;clip-rule:evenodd;" d="M31.947,124.112c-1.036-5.178-8.221-19.365-6.676-26.736
				c1.322-6.307,4.877-14.907-0.752-17.767c1.871,3.876-0.596,10.348-1.648,15.366c-1.545,7.371,5.64,21.558,6.677,26.736
				c1.036,5.178-0.565,8.39-0.565,8.39s-2.513,5.752-4.879,11.326c-2.366,5.574-1.543,10.152,0.813,12.399
				c0.43,0.41,0.928,0.809,1.444,1.214c-1.571-2.48-1.863-6.485,0.144-11.212c2.366-5.574,4.879-11.326,4.879-11.326
				S32.983,129.29,31.947,124.112z"/>
		</g>
		<g>
			<path style="fill-rule:evenodd;clip-rule:evenodd;" d="M4.425,38.356c0.25-2.173,0.32-6.384,0.331-9.943
				c-0.765-1.13-1.576-2.399-2.399-3.696c0.003,3.772-0.051,8.795-0.332,11.239c-0.243,2.113,1.452,4.011,3.743,5.999
				C4.828,40.789,4.281,39.611,4.425,38.356z"/>
		</g>
		<g>
			<path style="fill-rule:evenodd;clip-rule:evenodd;" d="M13.04,180.351c0,0-4.638-3.033,2.733-4.118c0,0,1.56-0.599,2.439-4.582
				c0,0-0.125-3.803,3.67-3.529s8.775,1.372,10.465-3.195c1.235-3.337-0.763-5.242-2.847-6.903c0.802,1.187,1.146,2.613,0.447,4.503
				c-1.69,4.568-6.669,3.47-10.464,3.195c-3.795-0.275-3.67,3.529-3.67,3.529c-0.879,3.983-2.439,4.582-2.439,4.582
				c-7.371,1.085-2.733,4.118-2.733,4.118s2.475,4.341,5.602,6.91C14.338,182.629,13.04,180.351,13.04,180.351z"/>
		</g>
		<g>
			<path style="fill-rule:evenodd;clip-rule:evenodd;" d="M6.742,63.006c0.145-7.398,4.321-6.116,7.097-4.862
				c2.776,1.255,5.85-2.486,1.545-7.371c-0.712-0.808-1.504-1.57-2.323-2.304c4.179,4.838,1.136,8.521-1.622,7.275
				c-2.776-1.255-6.952-2.537-7.097,4.862c-0.094,4.791,1.421,9.602,5.364,12.625C7.534,70.349,6.67,66.67,6.742,63.006z"/>
		</g>
		<g>
			<path style="fill-rule:evenodd;clip-rule:evenodd;" d="M8.38,32.544c1.954,2.612,3.391,3.64,3.535,0.6
				c0.192-4.039-4.516-10.851-4.304-12.695c1.94-0.585,6.113-4.12,10.15-7.857c-0.133-1.517-0.303-2.904-0.564-4.121
				c-4.543,4.307-9.749,8.904-11.986,9.578c-0.212,1.844,4.496,8.656,4.304,12.695C9.441,32.3,9.027,32.786,8.38,32.544z"/>
		</g>
	</g>
	<g>
		<g>
			<path style="fill:#FFFFFF;" d="M53.862,59.45c-1.699-3.31-5.115-5.655-9.119-5.655c-4.006,0-10.246,3.368-10.246,10.319
				c0,1.68,0.406,3.265,1.126,4.664c1.699,3.311,9.12,11.647,9.12,11.647s10.244-10.662,10.244-16.311
				C54.987,62.436,54.582,60.851,53.862,59.45z M44.743,69.255c-2.835,0-5.141-2.306-5.141-5.141c0-2.144,1.319-3.984,3.189-4.754
				c0.602-0.249,1.261-0.386,1.952-0.386c2.834,0,5.141,2.231,5.141,5.066c0,2.144-1.32,4.06-3.189,4.83
				C46.092,69.119,45.433,69.255,44.743,69.255z M52.412,65.075c0.01-0.015,0.019-0.029,0.029-0.044
				c-0.002,0.003-0.004,0.007-0.005,0.009C52.428,65.05,52.42,65.063,52.412,65.075z M52.306,65.237
				c0.005-0.006,0.009-0.013,0.015-0.02C52.316,65.224,52.311,65.231,52.306,65.237z"/>
			<defs>
				<filter id="Adobe_OpacityMaskFilter" filterUnits="userSpaceOnUse" x="30.547" y="81.292" width="28.416" height="2.503">
					<feFlood  style="flood-color:white;flood-opacity:1" result="back"/>
					<feBlend  in="SourceGraphic" in2="back" mode="normal"/>
				</filter>
			</defs>
			<mask maskUnits="userSpaceOnUse" x="30.547" y="81.292" width="28.416" height="2.503" id="XMLID_6_">
			</mask>
			
				<ellipse id="XMLID_1_" transform="matrix(1 -0.0098 0.0098 1 -0.8053 0.4417)" style="opacity:0.5;mask:url(#XMLID_6_);fill:#999999;" cx="44.755" cy="82.543" rx="14.208" ry="1.244"/>
		</g>
		<g>
			<path d="M44.743,59.657c2.458,0,4.457,1.935,4.457,4.394c0,1.859-1.144,3.519-2.765,4.187c-0.523,0.216-1.093,0.336-1.692,0.336
				c-2.459,0-4.458-2.001-4.458-4.459c0-1.858,1.144-3.455,2.765-4.121C43.572,59.777,44.143,59.657,44.743,59.657 M44.743,58.29
				c-0.765,0-1.509,0.147-2.214,0.439c-2.194,0.902-3.611,3.019-3.611,5.385c0,3.212,2.614,5.826,5.826,5.826
				c0.764,0,1.508-0.147,2.212-0.439c2.161-0.889,3.612-3.08,3.612-5.45C50.568,60.874,47.953,58.29,44.743,58.29L44.743,58.29z"/>
		</g>
	</g>
	<g>
		<path style="fill:#FFFFFF;" d="M35.955,94.275c4.535,0,7.875,1.271,10.02,3.814c0.832,0.984,1.248,2.033,1.248,3.146
			c0,2.074-1.436,4.359-4.307,6.855l7.523,8.93l-6.328-0.07l-4.711-5.625v5.537l-5.203-0.334l0.299-22.219
			C34.988,94.287,35.475,94.275,35.955,94.275z M42.653,101.499c0-1.313-1.084-2.133-3.252-2.461v5.625
			C41.569,103.621,42.653,102.566,42.653,101.499z"/>
		<path style="fill:#FFFFFF;" d="M53.797,108.39c0.527,1.77,1.646,2.696,3.357,2.778c1.594,0.082,2.672-0.756,3.234-2.514
			l4.922-0.703c-1.254,5.145-3.744,7.717-7.471,7.717c-1.148,0-2.432-0.264-3.85-0.791c-2.625-1.5-3.938-4.383-3.938-8.648
			c0-0.363,0.012-0.768,0.035-1.213c0.258-4.934,2.66-7.799,7.206-8.596c4.312-0.094,6.796,2.904,7.452,8.993L53.797,108.39z
			 M55.142,102.123c-0.65,0.768-1.005,1.696-1.063,2.786l6.592-1.88c-0.762-1.371-1.711-2.057-2.848-2.057
			S55.792,101.356,55.142,102.123z"/>
		<path style="fill:#FFFFFF;" d="M80.375,112.011c0.551,1.207,0.826,2.156,0.826,2.848c0,0.738-0.516,1.576-1.547,2.514
			c-1.488,1.359-3.979,1.98-7.471,1.863c-3.48-0.105-5.479-0.961-5.994-2.566c-0.164-0.504-0.246-0.967-0.246-1.389
			c0-0.973,0.41-1.793,1.23-2.461c-0.363-0.867-0.545-1.805-0.545-2.813c0-0.996,0.621-1.893,1.863-2.689
			c-1.512-1.184-2.268-2.572-2.268-4.166c0-0.457,0.07-0.949,0.211-1.477c0.586-2.227,2.092-3.662,4.518-4.307
			c1.008-0.27,1.945-0.404,2.813-0.404c1.254,0,2.373,0.27,3.357,0.809c0.387-0.809,0.955-1.459,1.705-1.951l3.252,2.848
			c-1.266,0.258-2.033,0.82-2.303,1.688c0.738,0.773,1.061,2.027,0.967,3.762c-0.094,1.746-0.838,3.07-2.232,3.973
			c-1.008,0.656-2.432,0.984-4.271,0.984c-0.715,0-1.494-0.047-2.338-0.141c-1.043,0.305-1.564,0.721-1.564,1.248
			c0,0.176,0.059,0.363,0.176,0.563c2.074-0.527,3.885-0.785,5.432-0.773C78.289,109.984,79.766,110.664,80.375,112.011z
			 M77.457,114.138c-0.176-0.68-0.691-1.02-1.547-1.02c-0.398,0-1.166,0.088-2.303,0.264c-2.344,0.363-3.498,0.879-3.463,1.547
			c0.023,0.539,0.867,0.809,2.531,0.809c0.305,0,0.744-0.018,1.318-0.053c2.32-0.141,3.48-0.586,3.48-1.336
			C77.475,114.279,77.469,114.208,77.457,114.138z M76.49,103.029c-0.059-0.844-0.334-1.389-0.826-1.635
			c-0.328-0.164-1.031-0.258-2.109-0.281c-1.875-0.035-2.83,0.492-2.865,1.582c-0.035,1.102,0.943,1.746,2.936,1.934
			c0.246,0.023,0.486,0.035,0.721,0.035C75.858,104.664,76.572,104.119,76.49,103.029z"/>
		<path style="fill:#FFFFFF;" d="M84.225,95.681c0.258,0,0.492,0.035,0.703,0.105c0.984,0.328,1.629,0.938,1.934,1.828
			c0.094,0.27,0.141,0.539,0.141,0.809c0,0.598-0.24,1.189-0.721,1.775c-0.691,0.844-1.488,1.225-2.391,1.143
			s-1.635-0.568-2.197-1.459c-0.258-0.41-0.387-0.826-0.387-1.248c0-0.539,0.188-1.107,0.563-1.705
			C82.666,96.097,83.451,95.681,84.225,95.681z M86.897,103.169c-0.188,4.348-0.422,8.66-0.703,12.938l-4.5,0.422
			c0.164-1.828,0.246-3.686,0.246-5.572c0-2.344-0.129-4.723-0.387-7.137L86.897,103.169z"/>
		<path style="fill:#FFFFFF;" d="M87.424,108.32c0.082-2.672,0.744-4.969,1.986-6.891c1.477-2.297,3.451-3.445,5.924-3.445
			c2.613,0,4.5,0.645,5.66,1.934c0.949,1.055,1.693,2.941,2.232,5.66c0.211,1.066,0.316,2.074,0.316,3.023
			c0,2.039-0.504,3.738-1.512,5.098c-1.477,1.992-3.721,2.941-6.732,2.848c-2.766-0.082-4.793-0.785-6.082-2.109
			S87.33,111.074,87.424,108.32z M97.76,104.101c-0.82-0.773-1.594-1.16-2.32-1.16c-0.891,0-1.711,0.586-2.461,1.758
			c-0.668,1.043-1.002,2.057-1.002,3.041c0,0.926,0.305,1.875,0.914,2.848c0.68,1.09,1.465,1.635,2.355,1.635
			c1.02,0,1.951-0.533,2.795-1.6c0.809-1.008,1.213-2.033,1.213-3.076C99.254,106.421,98.756,105.273,97.76,104.101z M94.684,94.415
			l1.723-5.308l4.045,0.982l-4.045,4.783L94.684,94.415z"/>
		<path style="fill:#FFFFFF;" d="M110.153,97.544l0.281,1.969c2.285-1.605,4.16-2.408,5.625-2.408c1.359,0,2.367,0.686,3.023,2.057
			c0.996,2.086,1.494,5.514,1.494,10.283c0,1.711-0.064,3.598-0.193,5.66l-4.746,0.158c0.375-2.531,0.563-4.67,0.563-6.416
			c0-2.133-0.281-3.674-0.844-4.623c-0.363-0.609-0.779-0.914-1.248-0.914c-0.902,0-2.004,1.061-3.305,3.182v9.299l-4.289-0.123
			l-0.721-17.42L110.153,97.544z"/>
		<path style="fill:#FFFFFF;" d="M42.793,137.216l-1.6,6.873l-4.518-0.703l5.66-20.092h4.465l6.012,19.125l-4.957,1.266
			l-1.512-6.469H42.793z M45.553,133.859l-1.002-4.236l-1.002,4.324L45.553,133.859z"/>
		<path style="fill:#FFFFFF;" d="M57.172,125.544l0.281,1.969c2.285-1.605,4.16-2.408,5.625-2.408c1.359,0,2.367,0.686,3.023,2.057
			c0.996,2.086,1.494,5.514,1.494,10.283c0,1.711-0.064,3.598-0.193,5.66l-4.746,0.158c0.375-2.531,0.563-4.67,0.563-6.416
			c0-2.133-0.281-3.674-0.844-4.623c-0.363-0.609-0.779-0.914-1.248-0.914c-0.902,0-2.004,1.061-3.305,3.182v9.299l-4.289-0.123
			l-0.721-17.42L57.172,125.544z"/>
		<path style="fill:#FFFFFF;" d="M68.738,143.685l-0.756-21.938c7.266,1.969,11.191,4.547,11.777,7.734
			c0.211,1.148,0.316,2.25,0.316,3.305c0,1.699-0.305,3.129-0.914,4.289C78.178,138.951,74.703,141.154,68.738,143.685z
			 M72.623,128.779l0.158,6.75c1.875-0.563,2.877-1.594,3.006-3.094S74.862,129.716,72.623,128.779z"/>
		<path style="fill:#FFFFFF;" d="M83.961,123.681c0.258,0,0.492,0.035,0.703,0.105c0.984,0.328,1.629,0.938,1.934,1.828
			c0.094,0.27,0.141,0.539,0.141,0.809c0,0.598-0.24,1.189-0.721,1.775c-0.691,0.844-1.488,1.225-2.391,1.143
			s-1.635-0.568-2.197-1.459c-0.258-0.41-0.387-0.826-0.387-1.248c0-0.539,0.188-1.107,0.563-1.705
			C82.403,124.097,83.188,123.681,83.961,123.681z M86.633,131.169c-0.188,4.348-0.422,8.66-0.703,12.938l-4.5,0.422
			c0.164-1.828,0.246-3.686,0.246-5.572c0-2.344-0.129-4.723-0.387-7.137L86.633,131.169z"/>
		<path style="fill:#FFFFFF;" d="M91.555,125.544l0.281,1.969c2.285-1.605,4.16-2.408,5.625-2.408c1.359,0,2.367,0.686,3.023,2.057
			c0.996,2.086,1.494,5.514,1.494,10.283c0,1.711-0.064,3.598-0.193,5.66l-4.746,0.158c0.375-2.531,0.563-4.67,0.563-6.416
			c0-2.133-0.281-3.674-0.844-4.623c-0.363-0.609-0.779-0.914-1.248-0.914c-0.902,0-2.004,1.061-3.305,3.182v9.299l-4.289-0.123
			l-0.721-17.42L91.555,125.544z"/>
		<path style="fill:#FFFFFF;" d="M107.78,125.333c0.785-0.176,1.553-0.264,2.303-0.264c3.633,0,5.971,1.887,7.014,5.66
			c0.539,1.957,0.779,4.207,0.721,6.75l-0.141,6.029l-4.553,0.281l-0.035-0.826c-5.719-0.199-8.701-1.605-8.947-4.219
			c-0.035-0.375-0.053-0.65-0.053-0.826c0-2.133,0.855-3.469,2.566-4.008c0.855-0.27,1.705-0.404,2.549-0.404
			c1.125,0,2.273,0.229,3.445,0.686c-0.012-2.016-0.035-3.082-0.07-3.199c-0.234-0.809-1.014-1.266-2.338-1.371
			c-1.125-0.094-2.203,0.844-3.234,2.813l-4.5-0.703C103.725,127.982,105.483,125.849,107.78,125.333z M110.697,136.636
			c-1.23,0-1.875,0.322-1.934,0.967c-0.094,0.938,1.289,1.699,4.148,2.285l-0.123-3.041
			C111.969,136.706,111.272,136.636,110.697,136.636z"/>
		<g>
			<path d="M43.403,101.499c0-1.192-0.675-2.716-3.89-3.203l-0.862-0.13v7.69l1.075-0.517
				C42.199,104.149,43.403,102.893,43.403,101.499z M40.151,103.415v-3.461c1.752,0.46,1.752,1.259,1.752,1.545
				C41.903,101.85,41.649,102.519,40.151,103.415z"/>
			<path d="M40.151,113.389l3.607,4.308l8.31,0.092l-8.108-9.624c2.699-2.478,4.014-4.75,4.014-6.93c0-1.29-0.479-2.512-1.425-3.63
				c-2.283-2.708-5.848-4.081-10.593-4.081c-0.492,0-0.99,0.012-1.495,0.036l-0.704,0.033l-0.318,23.637l6.713,0.431V113.389z
				 M38.651,116.063l-3.693-0.237l0.279-20.792c0.241-0.006,0.48-0.009,0.719-0.009c4.282,0,7.461,1.194,9.446,3.549
				c0.721,0.852,1.071,1.723,1.071,2.662c0,1.838-1.362,3.954-4.049,6.29l-0.558,0.484l6.945,8.243l-4.347-0.048l-5.814-6.942
				V116.063z"/>
			<path d="M53.618,115.528l0.11,0.052c1.495,0.556,2.879,0.838,4.111,0.838c4.1,0,6.858-2.789,8.199-8.289l0.263-1.077
				l-6.484,0.926l-0.143,0.448c-0.462,1.442-1.213,2.061-2.484,1.993c-1.138-0.055-1.914-0.543-2.397-1.522l10.768-2.928
				l-0.068-0.636c-0.691-6.414-3.382-9.665-7.997-9.665c-0.071,0-0.145,0.001-0.218,0.002l-0.113,0.011
				c-4.915,0.862-7.548,3.989-7.825,9.295c-0.024,0.46-0.036,0.877-0.036,1.252C49.303,110.763,50.755,113.892,53.618,115.528z
				 M50.837,105.054c0.238-4.558,2.374-7.138,6.53-7.886c0.039-0.001,0.078-0.001,0.117-0.001c3.635,0,5.746,2.52,6.439,7.691
				l-11.065,3.009l0.22,0.736c0.617,2.07,2.014,3.215,4.038,3.313c1.274,0.061,2.931-0.347,3.825-2.584l3.347-0.478
				c-1.229,4.077-3.346,6.063-6.448,6.063c-1.038,0-2.226-0.243-3.53-0.722c-2.359-1.377-3.507-3.984-3.507-7.967
				C50.803,105.876,50.815,105.485,50.837,105.054z"/>
			<path d="M61.325,102.665c-0.9-1.621-2.079-2.443-3.503-2.443c-1.362,0-2.456,0.477-3.253,1.417
				c-0.756,0.892-1.173,1.979-1.24,3.231l-0.057,1.05l8.512-2.428L61.325,102.665z M55.019,103.861
				c0.147-0.464,0.378-0.879,0.695-1.253c0.505-0.596,1.195-0.886,2.108-0.886c0.614,0,1.159,0.286,1.65,0.869L55.019,103.861z"/>
			<path d="M65.879,110.007c0,0.914,0.139,1.786,0.414,2.602c-0.73,0.747-1.1,1.644-1.1,2.672c0,0.499,0.095,1.044,0.282,1.618
				c0.629,1.959,2.816,2.969,6.683,3.086c0.292,0.01,0.577,0.015,0.855,0.015c3.278,0,5.622-0.681,7.146-2.072
				c0.274-0.249,0.511-0.493,0.722-0.733l-0.015,0.165l6.033-0.566l0.042-0.638c0.082-1.252,0.153-2.523,0.227-3.788
				c0.336,1.029,0.836,1.899,1.511,2.592c1.423,1.462,3.643,2.249,6.596,2.336c0.143,0.004,0.283,0.007,0.423,0.007
				c3.05,0,5.382-1.061,6.936-3.157c1.101-1.485,1.659-3.351,1.659-5.544c0-0.994-0.111-2.06-0.331-3.169
				c-0.57-2.88-1.359-4.848-2.41-6.016c-1.303-1.448-3.396-2.182-6.218-2.182c-2.732,0-4.938,1.275-6.554,3.788
				c-0.454,0.702-0.83,1.457-1.138,2.256c0.001-0.025,0.003-0.051,0.004-0.076l0.038-0.884l-6.192,0.754
				c-0.061-1.167-0.339-2.117-0.841-2.83c0.056-0.083,0.141-0.172,0.244-0.262c0.051,0.101,0.102,0.203,0.165,0.303
				c0.69,1.094,1.62,1.702,2.763,1.806c0.106,0.009,0.21,0.014,0.313,0.014c1.032,0,1.948-0.479,2.726-1.428
				c0.591-0.721,0.891-1.478,0.891-2.251c0-0.353-0.062-0.708-0.181-1.051c-0.384-1.12-1.192-1.893-2.406-2.297
				c-0.287-0.096-0.604-0.144-0.94-0.144c-0.982,0-1.957,0.498-2.897,1.479l-0.094,0.12c-0.057,0.09-0.099,0.18-0.149,0.27
				l-2.191-1.919l-0.477,0.313c-0.65,0.427-1.188,0.963-1.603,1.599c-1.703-0.709-3.725-0.773-6.054-0.15
				c-2.694,0.716-4.394,2.344-5.05,4.838c-0.157,0.588-0.236,1.15-0.236,1.67c0,1.544,0.613,2.925,1.824,4.117
				C66.356,108.077,65.879,108.995,65.879,110.007z M88.174,108.345v-0.002c0.077-2.521,0.705-4.71,1.867-6.508
				c1.342-2.087,3.072-3.101,5.293-3.101c2.38,0,4.097,0.567,5.103,1.686c0.854,0.948,1.545,2.732,2.055,5.304
				c0.2,1.014,0.302,1.982,0.302,2.878c0,1.865-0.459,3.43-1.364,4.651c-1.333,1.799-3.338,2.629-6.107,2.545
				c-2.552-0.076-4.425-0.709-5.567-1.883C88.619,112.748,88.087,110.874,88.174,108.345z M86.109,104.021
				c-0.17,3.814-0.379,7.641-0.622,11.399l-2.973,0.279c0.117-1.558,0.176-3.149,0.176-4.742c0-2.121-0.106-4.298-0.316-6.481
				L86.109,104.021z M81.001,106.313c0.111,1.564,0.188,3.12,0.188,4.644c0,0.336-0.017,0.669-0.022,1.004
				c-0.039-0.088-0.067-0.168-0.109-0.259c-0.573-1.268-1.739-2.055-3.473-2.349c0.497-0.167,0.942-0.378,1.333-0.632
				C79.884,108.097,80.576,107.289,81.001,106.313z M82.465,97.392c0.626-0.638,1.218-0.961,1.76-0.961
				c0.176,0,0.333,0.022,0.466,0.067c0.768,0.256,1.231,0.688,1.463,1.363c0.066,0.191,0.099,0.375,0.099,0.562
				c0,0.423-0.18,0.848-0.551,1.3c-0.536,0.655-1.103,0.935-1.742,0.871c-0.663-0.06-1.196-0.424-1.631-1.111
				c-0.019-0.031-0.026-0.06-0.043-0.09l1.428-0.291l-1.454-1.273C82.32,97.685,82.374,97.543,82.465,97.392z M66.975,103.152
				c0-0.39,0.063-0.821,0.187-1.286c0.517-1.963,1.82-3.198,3.985-3.773c0.94-0.251,1.821-0.379,2.619-0.379
				c1.121,0,2.129,0.241,2.997,0.716l0.695,0.381l0.342-0.715c0.247-0.517,0.574-0.949,0.991-1.31l1.789,1.566
				c-0.001,0.014-0.002,0.028-0.003,0.042c-0.769,0.398-1.279,0.978-1.515,1.74l-0.131,0.421l0.304,0.319
				c0.587,0.614,0.843,1.692,0.761,3.204c-0.081,1.505-0.699,2.612-1.893,3.384c-1.235,0.805-3.303,1.041-6.117,0.727l-0.149-0.017
				l-0.144,0.042c-1.396,0.408-2.104,1.07-2.104,1.968c0,0.311,0.094,0.627,0.279,0.943l0.285,0.485l0.546-0.139
				c2.003-0.509,3.81-0.752,5.243-0.75c2.042,0.01,3.269,0.533,3.75,1.598l0.001,0.002c0.627,1.374,0.759,2.137,0.759,2.536
				c0,0.354-0.226,0.981-1.303,1.96c-1.332,1.216-3.667,1.776-6.942,1.667c-2.14-0.065-4.797-0.473-5.304-2.049
				c-0.139-0.426-0.209-0.815-0.209-1.156c0-0.742,0.313-1.356,0.954-1.879l0.435-0.354l-0.217-0.517
				c-0.322-0.771-0.486-1.62-0.486-2.523c0-0.729,0.497-1.403,1.519-2.058l0.889-0.57l-0.832-0.651
				C67.622,105.684,66.975,104.515,66.975,103.152z"/>
			<path d="M72.676,116.488c0.315,0,0.77-0.018,1.363-0.054c1.146-0.069,4.186-0.253,4.186-2.084c0-0.111-0.009-0.223-0.027-0.334
				l-0.014-0.064c-0.153-0.59-0.651-1.582-2.273-1.582c-0.441,0-1.231,0.089-2.418,0.272c-2.069,0.321-4.175,0.848-4.097,2.321
				C69.462,116.488,71.797,116.488,72.676,116.488z M73.722,114.123c1.362-0.21,1.942-0.255,2.188-0.255
				c0.695,0,0.772,0.27,0.819,0.452c-0.045,0.054-0.462,0.476-2.781,0.616c-0.554,0.034-0.979,0.051-1.272,0.051
				c-0.885,0-1.36-0.081-1.606-0.152C71.363,114.665,72.069,114.38,73.722,114.123z"/>
			<path d="M73.554,105.375c0.271,0.026,0.534,0.039,0.792,0.039c1.105,0,1.883-0.259,2.377-0.791
				c0.27-0.291,0.578-0.813,0.516-1.649c-0.079-1.122-0.495-1.879-1.239-2.25c-0.299-0.149-0.846-0.326-2.431-0.36
				c-3.044-0.069-3.6,1.42-3.629,2.308C69.905,103.746,70.505,105.088,73.554,105.375z M73.37,101.861c0.055,0,0.11,0,0.168,0.002
				c1.379,0.03,1.733,0.173,1.791,0.202c0.293,0.146,0.387,0.633,0.413,1.016v0.004c0.027,0.36-0.083,0.479-0.119,0.518
				c-0.245,0.264-1.042,0.363-1.928,0.279c-1.518-0.143-2.276-0.534-2.256-1.163C71.446,102.504,71.467,101.861,73.37,101.861z"/>
			<path d="M95.246,112.972c1.256,0,2.394-0.634,3.38-1.88c0.914-1.14,1.378-2.333,1.378-3.545c0-1.303-0.563-2.625-1.673-3.931
				l-0.057-0.06c-2.169-2.045-4.324-1.766-5.928,0.739c-0.743,1.161-1.12,2.32-1.12,3.445c0,1.064,0.346,2.157,1.027,3.245
				C93.077,112.303,94.083,112.972,95.246,112.972z M93.611,105.103c0.6-0.937,1.215-1.412,1.829-1.412
				c0.518,0,1.115,0.312,1.775,0.928c0.855,1.016,1.289,2,1.289,2.928c0,0.875-0.343,1.728-1.051,2.611
				c-0.7,0.885-1.422,1.315-2.207,1.315c-0.619,0-1.182-0.419-1.72-1.283c-0.531-0.847-0.8-1.671-0.8-2.45
				C92.727,106.906,93.024,106.019,93.611,105.103z"/>
			<path d="M101.808,89.647l-5.9-1.433l-2.182,6.723l2.947,0.782L101.808,89.647z M95.642,93.894L96.905,90l2.189,0.531
				l-2.955,3.494L95.642,93.894z"/>
			<path d="M119.759,98.838c-0.777-1.625-2.057-2.483-3.7-2.483c-1.407,0-3.066,0.614-5.051,1.872l-0.221-1.544l-5.771,0.931
				l0.777,18.784l5.76,0.166v-9.857c1.535-2.451,2.341-2.645,2.555-2.645c0.241,0,0.481,0.343,0.603,0.546
				c0.49,0.828,0.739,2.254,0.739,4.241c0,1.701-0.187,3.823-0.555,6.306l-0.132,0.889l6.326-0.21l0.043-0.68
				c0.129-2.068,0.194-3.989,0.194-5.707C121.326,104.517,120.814,101.047,119.759,98.838z M119.675,114.378l-3.17,0.106
				c0.295-2.179,0.444-4.071,0.444-5.637c0-2.291-0.311-3.928-0.949-5.007c-0.631-1.058-1.378-1.28-1.893-1.28
				c-1.21,0-2.463,1.125-3.944,3.54l-0.11,0.181v8.738l-2.818-0.081l-0.664-16.056l2.947-0.476l0.347,2.424l1.001-0.703
				c3.908-2.747,6.36-3.108,7.54-0.642c0.942,1.975,1.421,5.326,1.421,9.96C119.826,110.943,119.776,112.6,119.675,114.378z"/>
			<path d="M42.596,134.739l3.896-0.171l-1.948-8.236L42.596,134.739z M44.614,133.149l-0.112,0.005l0.057-0.242L44.614,133.149z"/>
			<path d="M72.913,128.087l-1.067-0.447l0.209,8.89l0.942-0.283c2.728-0.818,3.429-2.49,3.537-3.748
				C76.694,130.645,75.476,129.16,72.913,128.087z M75.04,132.371c-0.053,0.617-0.284,1.451-1.534,2.075l-0.104-4.45
				C75.156,131.021,75.071,132.011,75.04,132.371z"/>
			<path d="M112.916,136.108c-0.858-0.147-1.604-0.222-2.219-0.222c-2.092,0-2.612,0.896-2.68,1.642
				c-0.187,1.864,2.618,2.659,4.744,3.095l0.938,0.192l-0.187-4.605L112.916,136.108z M109.511,137.671
				c0.013-0.138,0.433-0.285,1.187-0.285c0.388,0,0.846,0.036,1.367,0.107l0.059,1.447
				C109.53,138.291,109.51,137.684,109.511,137.671z"/>
			<path d="M110.082,124.32c-0.802,0-1.632,0.095-2.467,0.282c-2.307,0.518-4.119,2.463-5.408,5.761
				c-0.255-1.407-0.599-2.587-1.046-3.525c-0.777-1.625-2.057-2.483-3.7-2.483c-1.407,0-3.066,0.614-5.051,1.872l-0.221-1.544
				l-4.858,0.783c-0.01-0.031-0.014-0.063-0.024-0.094c-0.384-1.12-1.192-1.893-2.406-2.297c-0.287-0.096-0.604-0.144-0.94-0.144
				c-0.982,0-1.957,0.498-2.897,1.479l-0.094,0.12c-0.449,0.716-0.677,1.424-0.677,2.104c0,0.563,0.169,1.118,0.503,1.648
				c0.69,1.094,1.62,1.702,2.763,1.806c0.106,0.009,0.21,0.014,0.313,0.014c1.011,0,1.908-0.466,2.675-1.376l0.07,1.689
				l-5.872,0.715c-0.055-0.584-0.137-1.18-0.248-1.784c-0.648-3.53-4.678-6.252-12.318-8.323l-0.98-0.266l0.276,8
				c-0.198-0.722-0.429-1.362-0.695-1.92c-0.777-1.625-2.057-2.483-3.7-2.483c-1.407,0-3.066,0.614-5.051,1.872l-0.221-1.544
				l-5.771,0.931l0.564,13.625l-5.247-16.694h-5.584l-6.043,21.453l6.041,0.94l1.623-6.971h2.36l1.551,6.635l5.463-1.395
				l0.049,1.191l5.76,0.166v-9.857c1.535-2.451,2.341-2.645,2.555-2.645c0.241,0,0.481,0.343,0.603,0.546
				c0.49,0.828,0.739,2.254,0.739,4.241c0,1.701-0.187,3.823-0.555,6.306l-0.132,0.889l6.211-0.207l0.033,0.966l1.005-0.426
				c6.187-2.625,9.718-4.899,10.795-6.951c0.472-0.9,0.771-1.958,0.909-3.144c0.113,1.575,0.191,3.142,0.191,4.676
				c0,1.855-0.082,3.708-0.243,5.505l-0.08,0.898l6.033-0.566l0.042-0.638c0.109-1.654,0.205-3.33,0.3-5.006l0.217,5.247l5.76,0.166
				v-9.857c1.535-2.451,2.341-2.645,2.555-2.645c0.241,0,0.481,0.343,0.603,0.546c0.49,0.828,0.739,2.254,0.739,4.241
				c0,1.701-0.187,3.823-0.555,6.306l-0.132,0.889l6.326-0.21l0.043-0.68c0.129-2.068,0.194-3.989,0.194-5.707
				c0-1.854-0.073-3.502-0.22-4.953l4.121,0.644c-0.067,0.02-0.134,0.04-0.201,0.061c-1.41,0.444-3.091,1.625-3.091,4.723
				c0,0.19,0.018,0.489,0.056,0.896c0.275,2.92,3.294,4.556,8.975,4.867l0.038,0.903l6.003-0.371l0.157-6.718
				c0.06-2.604-0.191-4.948-0.748-6.967C116.68,126.409,114.076,124.32,110.082,124.32z M85.438,127.723
				c-0.536,0.655-1.103,0.934-1.742,0.871c-0.663-0.06-1.196-0.424-1.631-1.111c-0.183-0.291-0.271-0.569-0.271-0.849
				c0-0.375,0.138-0.793,0.408-1.242c0.626-0.638,1.218-0.961,1.76-0.961c0.176,0,0.333,0.022,0.466,0.067
				c0.768,0.256,1.231,0.688,1.463,1.363c0.066,0.191,0.099,0.375,0.099,0.562C85.988,126.846,85.809,127.271,85.438,127.723z
				 M48.411,142.769l-1.473-6.303h-4.741l-1.576,6.775l-2.994-0.465l5.277-18.731h3.346l5.609,17.844L48.411,142.769z
				 M66.695,142.378l-3.17,0.106c0.295-2.179,0.444-4.071,0.444-5.637c0-2.291-0.311-3.928-0.949-5.007
				c-0.631-1.058-1.378-1.28-1.893-1.28c-1.21,0-2.463,1.125-3.944,3.54l-0.11,0.181v8.738l-2.818-0.081l-0.664-16.056l2.947-0.476
				l0.347,2.424l1.001-0.703c3.908-2.746,6.359-3.107,7.54-0.642c0.942,1.975,1.421,5.326,1.421,9.96
				C66.846,138.943,66.795,140.6,66.695,142.378z M78.498,136.727c-0.587,1.118-2.649,3.021-9.048,5.834l-0.683-19.814
				c6.305,1.835,9.754,4.145,10.255,6.87c0.201,1.099,0.304,2.165,0.304,3.169C79.326,134.355,79.048,135.681,78.498,136.727z
				 M85.223,143.42l-2.973,0.279c0.117-1.558,0.176-3.149,0.176-4.742c0-2.121-0.106-4.298-0.316-6.481l3.735-0.455
				C85.675,135.835,85.466,139.662,85.223,143.42z M101.077,142.378l-3.17,0.106c0.295-2.179,0.444-4.071,0.444-5.637
				c0-2.291-0.311-3.928-0.949-5.007c-0.631-1.058-1.378-1.28-1.893-1.28c-1.21,0-2.463,1.125-3.944,3.54l-0.11,0.181v8.738
				l-2.818-0.081l-0.664-16.056l2.947-0.476l0.347,2.424l1.001-0.703c3.908-2.746,6.359-3.107,7.54-0.642
				c0.942,1.975,1.421,5.326,1.421,9.96C101.229,138.943,101.178,140.6,101.077,142.378z M116.943,142.803l-3.103,0.191
				l-0.032-0.756l-0.693-0.024c-5.255-0.183-8.023-1.374-8.227-3.539c-0.032-0.343-0.05-0.595-0.05-0.756
				c0-2.375,1.165-3.016,2.042-3.292c0.778-0.245,1.56-0.37,2.323-0.37c1.026,0,2.094,0.213,3.173,0.634l1.029,0.401l-0.007-1.104
				c-0.019-3.131-0.057-3.261-0.1-3.404c-0.227-0.78-0.931-1.745-2.996-1.91c-1.384-0.11-2.578,0.784-3.701,2.738l-3.092-0.483
				c1.103-2.949,2.592-4.651,4.434-5.064c0.728-0.163,1.447-0.246,2.139-0.246c3.282,0,5.341,1.671,6.291,5.109
				c0.517,1.877,0.75,4.076,0.693,6.533L116.943,142.803z M107.608,132.904l0.063-0.121c0.602-1.146,1.535-2.497,2.511-2.413
				c1.47,0.117,1.626,0.655,1.661,0.762c0.011,0.078,0.033,0.433,0.049,2.015c-0.907-0.259-1.807-0.389-2.688-0.389
				C108.675,132.757,108.142,132.806,107.608,132.904z"/>
		</g>
	</g>
</g>
</svg>
