<?xml version="1.0" encoding="utf-8"?>
<!-- Generator: Adobe Illustrator 21.0.0, SVG Export Plug-In . SVG Version: 6.00 Build 0)  -->
<svg version="1.1" xmlns="http://www.w3.org/2000/svg" xmlns:xlink="http://www.w3.org/1999/xlink" x="0px" y="0px"
	 viewBox="0 0 184.91 137.255" style="enable-background:new 0 0 184.91 137.255;" xml:space="preserve">
<g id="Capa_1">
	<g>
		<g>
			<path style="fill:#FEC31D;" d="M9.981,86.208c-0.079,0.129-0.155,0.259-0.234,0.388c0.078-0.128,0.153-0.259,0.232-0.387
				c-2.82,4.568-5.183,9.436-7.98,13.15l0,0c2.655,2.945,5.194,7.674,5.421,15.16c0.489,16.129,11.859,23.969,18.677,19.488
				c6.818-4.481-3.521-11.534,7.032-15.357c10.552-3.823,23.084-12.026,37.69-13.962c14.606-1.936,34.549,8.53,41.99-0.995
				s9.123-13.119,29.351-17.155c18.202-3.631,26.208-3.247,33.643-10.351l0,0l0,0c-0.84-2.129-1.535-4.533-1.934-7.473
				c-0.243-1.792-0.548-3.707-0.804-5.673l0,0.001l0-0.001c-0.534-4.102-0.837-8.444,0.215-12.49
				c1.254-4.825,10.11-15.007,9.611-19.973c-1.422-14.139-18.311-4.297-28.296-4.336c-9.437-0.036-16.489,1.979-22.928-3.466
				c-6.088-5.148-8.692-13.751-15.18-17.368c-1.39-0.775-9.826-3.007-11.75-3.262c-5.822-0.772-14.062,1.778-20.453,1.509
				c-2.919-0.123-6.514,0.093-9.522-0.431c-6.289,9.269-14.761,23.582-11.347,29.098c5.227,8.446-0.101,6.192-9.606,11.378
				c0,0-6.382,3.501-7.48,13.252c-1.098,9.75-0.604,10.264-4.777,12.398c-4.172,2.134-7.594-3.171-7.594-3.171
				s-2.478-7.201-5.756,0.693c-3.278,7.894-4.725,4.642-11.804,11.152c-2.514,2.312-4.564,5.182-6.418,8.184L9.981,86.208z"/>
			<path style="fill:#FFFFFF;" d="M102.307,2c0.846,0,1.659,0.044,2.43,0.146c1.924,0.255,10.36,2.487,11.75,3.262
				c6.488,3.618,9.092,12.22,15.18,17.368c3.719,3.145,7.643,3.801,12.113,3.801c3.199,0,6.677-0.336,10.559-0.336
				c0.085,0,0.17,0,0.255,0c0.02,0,0.038,0,0.059,0c5.803,0,13.912-3.298,19.968-3.298c4.371,0,7.674,1.718,8.269,7.633
				c0.5,4.966-8.357,15.148-9.611,19.973c-1.052,4.046-0.749,8.388-0.215,12.49l0,0.001l0-0.001
				c0.256,1.966,0.561,3.882,0.804,5.673c0.399,2.941,1.094,5.344,1.934,7.473l0,0l0,0c-7.436,7.104-15.441,6.72-33.643,10.351
				c-20.228,4.036-21.91,7.629-29.351,17.155c-2.4,3.072-6.099,4.065-10.502,4.065c-8.044,0-18.43-3.314-27.511-3.314
				c-1.359,0-2.689,0.074-3.978,0.245c-14.606,1.936-27.137,10.14-37.69,13.962c-10.552,3.823-0.214,10.876-7.032,15.357
				c-1.279,0.841-2.718,1.247-4.216,1.247c-6.485,0-14.064-7.633-14.462-20.736C7.193,107.034,4.654,102.304,2,99.36l0,0
				c2.797-3.714,5.159-8.582,7.98-13.15c-0.079,0.128-0.154,0.259-0.232,0.387c0.079-0.129,0.154-0.259,0.233-0.388l-0.001,0
				c1.853-3.002,3.904-5.872,6.418-8.184c7.079-6.51,8.526-3.258,11.804-11.152c1.161-2.795,2.221-3.698,3.106-3.698
				c1.616,0,2.65,3.005,2.65,3.005s2.372,3.678,5.574,3.678c0.644,0,1.322-0.149,2.02-0.506c4.172-2.134,3.679-2.648,4.777-12.398
				c1.098-9.751,7.48-13.252,7.48-13.252c9.504-5.186,14.833-2.933,9.606-11.378c-3.414-5.516,5.058-19.829,11.347-29.098
				c3.008,0.524,6.603,0.308,9.522,0.431c0.323,0.014,0.649,0.02,0.981,0.02C90.631,3.675,97.088,2,102.307,2 M102.307,0
				c-2.734,0-5.76,0.432-8.688,0.849c-2.849,0.406-5.795,0.826-8.354,0.826c-0.303,0-0.602-0.006-0.897-0.018
				c-0.958-0.04-1.949-0.045-2.998-0.051c-2.149-0.011-4.371-0.022-6.265-0.352c-0.115-0.02-0.23-0.03-0.344-0.03
				c-0.655,0-1.278,0.323-1.655,0.877C62.436,17.827,58.603,28.349,61.714,33.375c1.888,3.05,1.766,3.797,1.746,3.872
				c-0.23,0.382-2.007,1.032-3.305,1.508c-1.974,0.723-4.43,1.622-7.305,3.19c-0.302,0.166-7.309,4.125-8.51,14.784
				c-0.134,1.193-0.245,2.248-0.343,3.186c-0.658,6.275-0.658,6.275-3.357,7.656c-0.377,0.193-0.74,0.287-1.11,0.287
				c-1.583,0-3.189-1.778-3.783-2.602c-0.423-1.098-1.815-4.08-4.44-4.08c-2.605,0-4.075,2.814-4.954,4.931
				c-1.703,4.101-2.571,4.573-4.668,5.711c-1.538,0.835-3.645,1.979-6.643,4.736c-3.013,2.771-5.304,6.238-6.766,8.605
				c-0.001,0.001-0.001,0.002-0.002,0.003c-1.05,1.702-2.037,3.44-2.99,5.122c-1.639,2.89-3.188,5.621-4.884,7.873
				c-0.576,0.765-0.529,1.831,0.112,2.542c3.08,3.418,4.731,8.088,4.907,13.882c0.431,14.194,8.708,22.675,16.461,22.675
				c1.908,0,3.745-0.545,5.314-1.576c4.161-2.734,3.56-6.411,3.121-9.096c-0.492-3.009-0.738-4.519,3.493-6.052
				c3.494-1.266,7.148-2.976,11.017-4.787c7.815-3.658,16.673-7.803,26.254-9.073c1.14-0.151,2.39-0.228,3.715-0.228
				c4.504,0,9.448,0.865,14.229,1.702c4.735,0.829,9.208,1.612,13.281,1.612c5.586,0,9.537-1.581,12.078-4.833
				c0.451-0.577,0.881-1.133,1.295-1.668c6.256-8.085,8.597-11.111,26.871-14.757c4.173-0.833,7.819-1.455,11.036-2.004
				c10.873-1.856,17.436-2.976,23.598-8.863c0.588-0.562,0.777-1.423,0.479-2.18c-0.897-2.274-1.473-4.501-1.813-7.009
				c-0.108-0.793-0.227-1.611-0.349-2.446c-0.153-1.048-0.311-2.125-0.453-3.217c-0.476-3.651-0.828-7.9,0.167-11.728
				c0.439-1.688,2.242-4.581,3.986-7.379c2.97-4.766,6.042-9.694,5.68-13.297c-0.629-6.259-4.081-9.433-10.258-9.433
				c-3.292,0-7.032,0.878-10.649,1.728c-3.284,0.772-6.68,1.569-9.319,1.569l-0.05,0l-0.264-0.001c-2.083,0-4.017,0.093-5.886,0.182
				c-1.645,0.079-3.199,0.153-4.673,0.153c-4.133,0-7.555-0.566-10.822-3.328c-2.5-2.114-4.454-4.994-6.344-7.778
				c-2.526-3.722-5.138-7.571-9.153-9.81c-1.758-0.98-10.519-3.24-12.461-3.498C104.17,0.054,103.289,0,102.307,0L102.307,0z"/>
		</g>
		<g>
			<defs>
				<path id="SVGID_1_" d="M9.981,86.208c-0.079,0.129-0.155,0.259-0.234,0.388c0.078-0.128,0.153-0.259,0.232-0.387
					c-2.82,4.568-5.183,9.436-7.98,13.15l0,0c2.655,2.945,5.194,7.674,5.421,15.16c0.489,16.129,11.859,23.969,18.677,19.488
					c6.818-4.481-3.521-11.534,7.032-15.357c10.552-3.823,23.084-12.026,37.69-13.962c14.606-1.936,34.549,8.53,41.99-0.995
					s9.123-13.119,29.351-17.155c18.202-3.631,26.208-3.247,33.643-10.351l0,0l0,0c-0.84-2.129-1.535-4.533-1.934-7.473
					c-0.243-1.792-0.548-3.707-0.804-5.673l0,0.001l0-0.001c-0.534-4.102-0.837-8.444,0.215-12.49
					c1.254-4.825,10.11-15.007,9.611-19.973c-1.422-14.139-18.311-4.297-28.296-4.336c-9.437-0.036-16.489,1.979-22.928-3.466
					c-6.088-5.148-8.692-13.751-15.18-17.368c-1.39-0.775-9.826-3.007-11.75-3.262c-5.822-0.772-14.062,1.778-20.453,1.509
					c-2.919-0.123-6.514,0.093-9.522-0.431c-6.289,9.269-14.761,23.582-11.347,29.098c5.227,8.446-0.101,6.192-9.606,11.378
					c0,0-6.382,3.501-7.48,13.252c-1.098,9.75-0.604,10.264-4.777,12.398c-4.172,2.134-7.594-3.171-7.594-3.171
					s-2.478-7.201-5.756,0.693c-3.278,7.894-4.725,4.642-11.804,11.152c-2.514,2.312-4.564,5.182-6.418,8.184L9.981,86.208z"/>
			</defs>
			<clipPath id="SVGID_2_">
				<use xlink:href="#SVGID_1_"  style="overflow:visible;"/>
			</clipPath>
			<g style="clip-path:url(#SVGID_2_);">
				
					<rect x="6.605" y="-53.446" transform="matrix(0.866 0.5 -0.5 0.866 32.6657 2.2199)" style="opacity:0.2;fill:#FFFFFF;" width="11.171" height="231.021"/>
				
					<rect x="33.663" y="-54.582" transform="matrix(0.866 0.5 -0.5 0.866 35.7225 -11.4612)" style="opacity:0.2;fill:#FFFFFF;" width="11.171" height="231.021"/>
				
					<rect x="60.721" y="-55.719" transform="matrix(0.866 0.5 -0.5 0.866 38.7793 -25.1424)" style="opacity:0.2;fill:#FFFFFF;" width="11.171" height="231.021"/>
				
					<rect x="87.779" y="-56.855" transform="matrix(0.866 0.5 -0.5 0.866 41.8361 -38.8236)" style="opacity:0.2;fill:#FFFFFF;" width="11.171" height="231.021"/>
				
					<rect x="114.836" y="-57.992" transform="matrix(0.866 0.5 -0.5 0.866 44.893 -52.5047)" style="opacity:0.2;fill:#FFFFFF;" width="11.171" height="231.021"/>
				
					<rect x="141.894" y="-59.128" transform="matrix(0.866 0.5 -0.5 0.866 47.9498 -66.1859)" style="opacity:0.2;fill:#FFFFFF;" width="11.171" height="231.021"/>
				
					<rect x="168.952" y="-60.265" transform="matrix(0.866 0.5 -0.5 0.866 51.0066 -79.867)" style="opacity:0.2;fill:#FFFFFF;" width="11.171" height="231.021"/>
			</g>
		</g>
		<g>
			<path d="M131.35,22.487c0.107,0.095,0.208,0.196,0.317,0.289c6.439,5.445,13.491,3.429,22.928,3.466
				c8.64,0.033,22.442-7.319,26.926-0.143c-5.735-3.511-17.327,2.172-24.926,2.143c-9.437-0.036-16.489,1.979-22.928-3.466
				C132.834,24.072,132.071,23.299,131.35,22.487z M43.552,71.351c4.172-2.134,3.679-2.648,4.777-12.398
				c1.098-9.751,7.48-13.252,7.48-13.252c9.504-5.186,14.833-2.933,9.606-11.378c-3.414-5.516,5.058-19.829,11.347-29.098
				c3.008,0.524,6.603,0.308,9.522,0.431c6.391,0.269,14.631-2.281,20.453-1.509c1.924,0.255,10.36,2.487,11.75,3.262
				c0.875,0.488,1.675,1.072,2.427,1.721c-1.299-1.48-2.728-2.774-4.427-3.721c-1.39-0.775-9.826-3.007-11.75-3.262
				c-5.822-0.772-14.062,1.778-20.453,1.509c-2.919-0.123-6.514,0.093-9.522-0.431c-6.289,9.269-14.761,23.582-11.347,29.098
				c5.228,8.446-0.101,6.192-9.606,11.378c0,0-6.382,3.501-7.48,13.252c-1.098,9.751-0.604,10.264-4.777,12.398
				c-2.041,1.044-3.899,0.305-5.269-0.719C37.229,69.865,40.138,73.098,43.552,71.351z M9.42,116.519
				C9.193,109.034,6.654,104.304,4,101.36l0,0c2.797-3.714,5.159-8.582,7.98-13.15c-0.079,0.128-0.154,0.259-0.232,0.387
				c0.079-0.129,0.154-0.259,0.234-0.388l-0.001,0c1.853-3.002,3.904-5.872,6.418-8.184c7.079-6.51,8.526-3.258,11.804-11.152
				c1.259-3.033,2.4-3.834,3.328-3.675c-0.844-1.654-2.859-4.27-5.328,1.675c-3.278,7.894-4.725,4.642-11.804,11.152
				c-2.514,2.312-4.564,5.182-6.418,8.184l0.001,0c-0.079,0.129-0.155,0.259-0.234,0.388c0.078-0.128,0.153-0.259,0.232-0.387
				c-2.82,4.568-5.183,9.436-7.98,13.15l0,0c2.655,2.945,5.194,7.674,5.421,15.16c0.255,8.397,3.461,14.541,7.437,17.876
				C11.853,128.845,9.631,123.45,9.42,116.519z"/>
		</g>
		<g>
			<g>
				<path style="fill:#FFFFFF;" d="M97.475,17.145c-1.699-3.31-5.115-5.655-9.119-5.655c-4.006,0-10.246,3.368-10.246,10.319
					c0,1.68,0.406,3.265,1.126,4.664c1.699,3.311,9.12,11.647,9.12,11.647S98.6,27.458,98.6,21.808
					C98.6,20.13,98.194,18.545,97.475,17.145z M88.356,26.95c-2.835,0-5.141-2.306-5.141-5.141c0-2.144,1.319-3.984,3.189-4.754
					c0.602-0.249,1.261-0.386,1.952-0.386c2.834,0,5.141,2.231,5.141,5.066c0,2.144-1.32,4.06-3.189,4.83
					C89.705,26.813,89.046,26.95,88.356,26.95z M96.025,22.769c0.01-0.015,0.019-0.029,0.029-0.044
					c-0.002,0.003-0.004,0.007-0.006,0.009C96.041,22.745,96.033,22.758,96.025,22.769z M95.919,22.931
					c0.005-0.005,0.009-0.013,0.015-0.02C95.929,22.918,95.924,22.925,95.919,22.931z"/>
				<defs>
					<filter id="Adobe_OpacityMaskFilter" filterUnits="userSpaceOnUse" x="74.16" y="38.986" width="28.416" height="2.503">
						<feFlood  style="flood-color:white;flood-opacity:1" result="back"/>
						<feBlend  in="SourceGraphic" in2="back" mode="normal"/>
					</filter>
				</defs>
				<mask maskUnits="userSpaceOnUse" x="74.16" y="38.986" width="28.416" height="2.503" id="XMLID_6_">
				</mask>
				
					<ellipse id="XMLID_1_" transform="matrix(1 -0.0098 0.0098 1 -0.3894 0.8663)" style="opacity:0.5;mask:url(#XMLID_6_);fill:#999999;" cx="88.368" cy="40.238" rx="14.208" ry="1.244"/>
			</g>
			<g>
				<path d="M88.356,17.351c2.458,0,4.457,1.935,4.457,4.394c0,1.859-1.144,3.519-2.765,4.187c-0.523,0.216-1.093,0.336-1.692,0.336
					c-2.459,0-4.458-2.001-4.458-4.459c0-1.858,1.144-3.455,2.765-4.121C87.185,17.471,87.756,17.351,88.356,17.351 M88.356,15.984
					c-0.765,0-1.509,0.147-2.214,0.439c-2.194,0.902-3.611,3.019-3.611,5.385c0,3.212,2.614,5.826,5.826,5.826
					c0.764,0,1.508-0.147,2.212-0.439c2.161-0.889,3.612-3.08,3.612-5.45C94.18,18.568,91.566,15.984,88.356,15.984L88.356,15.984z"
					/>
			</g>
		</g>
		<g>
			<path style="fill:#FFFFFF;" d="M56.568,50.969c4.535,0,7.875,1.271,10.02,3.814c0.832,0.984,1.248,2.033,1.248,3.146
				c0,2.074-1.436,4.359-4.307,6.855l7.523,8.93l-6.328-0.07l-4.711-5.625v5.537l-5.203-0.334l0.299-22.219
				C55.601,50.981,56.088,50.969,56.568,50.969z M63.265,58.194c0-1.313-1.084-2.133-3.252-2.461v5.625
				C62.181,60.315,63.265,59.26,63.265,58.194z"/>
			<path style="fill:#FFFFFF;" d="M74.41,65.084c0.527,1.77,1.646,2.696,3.357,2.778c1.594,0.082,2.672-0.756,3.234-2.514
				l4.922-0.703c-1.254,5.145-3.744,7.717-7.471,7.717c-1.148,0-2.432-0.264-3.85-0.791c-2.625-1.5-3.938-4.383-3.938-8.648
				c0-0.363,0.012-0.768,0.035-1.213c0.258-4.934,2.66-7.799,7.206-8.596c4.312-0.094,6.796,2.904,7.452,8.993L74.41,65.084z
				 M75.755,58.818c-0.65,0.768-1.005,1.696-1.063,2.786l6.592-1.88c-0.762-1.371-1.711-2.057-2.848-2.057
				S76.405,58.05,75.755,58.818z"/>
			<path style="fill:#FFFFFF;" d="M100.988,68.706c0.551,1.207,0.826,2.156,0.826,2.848c0,0.738-0.516,1.576-1.547,2.514
				c-1.488,1.359-3.979,1.98-7.471,1.863c-3.48-0.105-5.479-0.961-5.994-2.566c-0.164-0.504-0.246-0.967-0.246-1.389
				c0-0.973,0.41-1.793,1.23-2.461c-0.363-0.867-0.545-1.805-0.545-2.813c0-0.996,0.621-1.893,1.863-2.689
				c-1.512-1.184-2.268-2.572-2.268-4.166c0-0.457,0.07-0.949,0.211-1.477c0.586-2.227,2.092-3.662,4.518-4.307
				c1.008-0.27,1.945-0.404,2.813-0.404c1.254,0,2.373,0.27,3.357,0.809c0.387-0.809,0.955-1.459,1.705-1.951l3.252,2.848
				c-1.266,0.258-2.033,0.82-2.303,1.688c0.738,0.773,1.061,2.027,0.967,3.762c-0.094,1.746-0.838,3.07-2.232,3.973
				c-1.008,0.656-2.432,0.984-4.271,0.984c-0.715,0-1.494-0.047-2.338-0.141c-1.043,0.305-1.564,0.721-1.564,1.248
				c0,0.176,0.059,0.363,0.176,0.563c2.074-0.527,3.885-0.785,5.432-0.773C98.902,66.678,100.379,67.358,100.988,68.706z
				 M98.07,70.833c-0.176-0.68-0.691-1.02-1.547-1.02c-0.398,0-1.166,0.088-2.303,0.264c-2.344,0.363-3.498,0.879-3.463,1.547
				c0.023,0.539,0.867,0.809,2.531,0.809c0.305,0,0.744-0.018,1.318-0.053c2.32-0.141,3.48-0.586,3.48-1.336
				C98.088,70.973,98.082,70.903,98.07,70.833z M97.103,59.723c-0.059-0.844-0.334-1.389-0.826-1.635
				c-0.328-0.164-1.031-0.258-2.109-0.281c-1.875-0.035-2.83,0.492-2.865,1.582c-0.035,1.102,0.943,1.746,2.936,1.934
				c0.246,0.023,0.486,0.035,0.721,0.035C96.47,61.358,97.185,60.813,97.103,59.723z"/>
			<path style="fill:#FFFFFF;" d="M104.838,52.376c0.258,0,0.492,0.035,0.703,0.105c0.984,0.328,1.629,0.938,1.934,1.828
				c0.094,0.27,0.141,0.539,0.141,0.809c0,0.598-0.24,1.189-0.721,1.775c-0.691,0.844-1.488,1.225-2.391,1.143
				s-1.635-0.568-2.197-1.459c-0.258-0.41-0.387-0.826-0.387-1.248c0-0.539,0.188-1.107,0.563-1.705
				C103.279,52.792,104.064,52.376,104.838,52.376z M107.51,59.864c-0.188,4.348-0.422,8.66-0.703,12.938l-4.5,0.422
				c0.164-1.828,0.246-3.686,0.246-5.572c0-2.344-0.129-4.723-0.387-7.137L107.51,59.864z"/>
			<path style="fill:#FFFFFF;" d="M108.037,65.014c0.082-2.672,0.744-4.969,1.986-6.891c1.477-2.297,3.451-3.445,5.924-3.445
				c2.613,0,4.5,0.645,5.66,1.934c0.949,1.055,1.693,2.941,2.232,5.66c0.211,1.066,0.316,2.074,0.316,3.023
				c0,2.039-0.504,3.738-1.512,5.098c-1.477,1.992-3.721,2.941-6.732,2.848c-2.766-0.082-4.793-0.785-6.082-2.109
				S107.943,67.768,108.037,65.014z M118.373,60.796c-0.82-0.773-1.594-1.16-2.32-1.16c-0.891,0-1.711,0.586-2.461,1.758
				c-0.668,1.043-1.002,2.057-1.002,3.041c0,0.926,0.305,1.875,0.914,2.848c0.68,1.09,1.465,1.635,2.355,1.635
				c1.02,0,1.951-0.533,2.795-1.6c0.809-1.008,1.213-2.033,1.213-3.076C119.867,63.116,119.369,61.967,118.373,60.796z
				 M115.297,51.11l1.723-5.308l4.045,0.982l-4.045,4.783L115.297,51.11z"/>
			<path style="fill:#FFFFFF;" d="M130.765,54.239l0.281,1.969c2.285-1.605,4.16-2.408,5.625-2.408c1.359,0,2.367,0.686,3.023,2.057
				c0.996,2.086,1.494,5.514,1.494,10.283c0,1.711-0.064,3.598-0.193,5.66l-4.746,0.158c0.375-2.531,0.563-4.67,0.563-6.416
				c0-2.133-0.281-3.674-0.844-4.623c-0.363-0.609-0.779-0.914-1.248-0.914c-0.902,0-2.004,1.061-3.305,3.182v9.299l-4.289-0.123
				l-0.721-17.42L130.765,54.239z"/>
			<path style="fill:#FFFFFF;" d="M37.707,92.381c0.094-3,0.82-5.602,2.18-7.805c1.629-2.648,3.832-3.973,6.609-3.973
				c2.895,0,4.986,0.732,6.275,2.197c1.043,1.195,1.869,3.352,2.479,6.469c0.234,1.207,0.352,2.355,0.352,3.445
				c0,2.309-0.563,4.242-1.688,5.801c-1.641,2.273-4.131,3.357-7.471,3.252s-5.631-0.955-6.873-2.549
				C38.234,97.52,37.613,95.241,37.707,92.381z M49.15,87.6c-0.914-0.867-1.775-1.301-2.584-1.301c-0.984,0-1.893,0.656-2.725,1.969
				c-0.75,1.184-1.125,2.338-1.125,3.463c0,1.066,0.34,2.15,1.02,3.252c0.762,1.242,1.641,1.863,2.637,1.863
				c1.043,0,2.057-0.633,3.041-1.898c0.926-1.195,1.389-2.338,1.389-3.428C50.803,90.243,50.252,88.936,49.15,87.6z"/>
			<path style="fill:#FFFFFF;" d="M56.287,100.784c0.035-7.129-0.146-12.824-0.545-17.086l4.922-0.404l-0.158,1.6
				c2.414-1.5,4.875-2.209,7.383-2.127l0.475,4.254c-2.883,0-4.91,0.598-6.082,1.791c-0.809,0.831-1.213,2.943-1.213,6.338
				c0,1.545,0.082,3.364,0.246,5.46L56.287,100.784z"/>
			<path style="fill:#FFFFFF;" d="M71.931,80.376c0.258,0,0.492,0.035,0.703,0.105c0.984,0.328,1.629,0.938,1.934,1.828
				c0.094,0.27,0.141,0.539,0.141,0.809c0,0.598-0.24,1.189-0.721,1.775c-0.691,0.844-1.488,1.225-2.391,1.143
				s-1.635-0.568-2.197-1.459c-0.258-0.41-0.387-0.826-0.387-1.248c0-0.539,0.188-1.107,0.563-1.705
				C70.373,80.792,71.158,80.376,71.931,80.376z M74.603,87.864c-0.188,4.348-0.422,8.66-0.703,12.938l-4.5,0.422
				c0.164-1.828,0.246-3.686,0.246-5.572c0-2.344-0.129-4.723-0.387-7.137L74.603,87.864z"/>
			<path style="fill:#FFFFFF;" d="M79.525,82.239l0.281,1.969c2.285-1.605,4.16-2.408,5.625-2.408c1.359,0,2.367,0.686,3.023,2.057
				c0.996,2.086,1.494,5.514,1.494,10.283c0,1.711-0.064,3.598-0.193,5.66l-4.746,0.158c0.375-2.531,0.563-4.67,0.563-6.416
				c0-2.133-0.281-3.674-0.844-4.623c-0.363-0.609-0.779-0.914-1.248-0.914c-0.902,0-2.004,1.061-3.305,3.182v9.299l-4.289-0.123
				l-0.721-17.42L79.525,82.239z"/>
			<path style="fill:#FFFFFF;" d="M90.916,93.014c0.082-2.672,0.744-4.969,1.986-6.891c1.477-2.297,3.451-3.445,5.924-3.445
				c2.613,0,4.5,0.645,5.66,1.934c0.949,1.055,1.693,2.941,2.232,5.66c0.211,1.066,0.316,2.074,0.316,3.023
				c0,2.039-0.504,3.738-1.512,5.098c-1.477,1.992-3.721,2.941-6.732,2.848c-2.766-0.082-4.793-0.785-6.082-2.109
				S90.822,95.768,90.916,93.014z M101.252,88.796c-0.82-0.773-1.594-1.16-2.32-1.16c-0.891,0-1.711,0.586-2.461,1.758
				c-0.668,1.043-1.002,2.057-1.002,3.041c0,0.926,0.305,1.875,0.914,2.848c0.68,1.09,1.465,1.635,2.355,1.635
				c1.02,0,1.951-0.533,2.795-1.6c0.809-1.008,1.213-2.033,1.213-3.076C102.746,91.116,102.248,89.967,101.252,88.796z"/>
			<path style="fill:#FFFFFF;" d="M107.65,91.661c0.023-3.797,1.002-6.41,2.936-7.84c0.984-0.727,2.109-1.09,3.375-1.09
				c1.102,0,2.303,0.281,3.604,0.844v-0.754l5.361-0.09c-0.527,7.895-0.768,13.015-0.721,15.36c0.035,1.9,0.475,2.851,1.318,2.851
				c0.129,0,0.264-0.018,0.404-0.053l-0.018,4.904c-0.68,0.152-1.307,0.229-1.881,0.229c-3.281,0-4.904-2.396-4.869-7.189
				c-1.031,0.422-2.016,0.633-2.953,0.633c-1.254,0-2.438-0.381-3.551-1.143C108.64,96.94,107.638,94.719,107.65,91.661z
				 M117.511,88.198c-1.09-0.867-2.004-1.301-2.742-1.301c-0.492,0-0.908,0.211-1.248,0.633c-0.633,0.785-0.949,1.857-0.949,3.217
				c0,0.398,0.029,0.832,0.088,1.301c0.246,1.98,0.938,2.988,2.074,3.023c1.125,0.023,2.021-0.51,2.689-1.6L117.511,88.198z"/>
			<path style="fill:#FFFFFF;" d="M133.543,100.169l-0.193-1.723c-1.91,1.289-3.48,1.934-4.711,1.934
				c-1.207,0-2.08-0.633-2.619-1.898c-1.078-2.531-1.57-8.273-1.477-17.227l4.219-0.158c-0.082,2.109-0.123,3.967-0.123,5.572
				c0,5.859,0.568,8.789,1.705,8.789c0.645,0,1.477-0.844,2.496-2.531V81.571h4.078l-0.563,18.387L133.543,100.169z"/>
			<path style="fill:#FFFFFF;" d="M143.263,87.864c-0.188,4.348-0.422,8.66-0.703,12.938l-4.5,0.422
				c0.164-1.828,0.246-3.686,0.246-5.572c0-2.344-0.129-4.723-0.387-7.137L143.263,87.864z M140.064,85.192l4.045-4.783
				l-4.045-0.981l-1.723,5.308L140.064,85.192z"/>
			<path style="fill:#FFFFFF;" d="M149.012,82.028c0.785-0.176,1.553-0.264,2.303-0.264c3.633,0,5.971,1.887,7.014,5.66
				c0.539,1.957,0.779,4.207,0.721,6.75l-0.141,6.029l-4.553,0.281l-0.035-0.826c-5.719-0.199-8.701-1.605-8.947-4.219
				c-0.035-0.375-0.053-0.65-0.053-0.826c0-2.133,0.855-3.469,2.566-4.008c0.855-0.27,1.705-0.404,2.549-0.404
				c1.125,0,2.273,0.229,3.445,0.686c-0.012-2.016-0.035-3.082-0.07-3.199c-0.234-0.809-1.014-1.266-2.338-1.371
				c-1.125-0.094-2.203,0.844-3.234,2.813l-4.5-0.703C144.957,84.676,146.715,82.544,149.012,82.028z M151.929,93.331
				c-1.23,0-1.875,0.322-1.934,0.967c-0.094,0.938,1.289,1.699,4.148,2.285l-0.123-3.041
				C153.201,93.401,152.504,93.331,151.929,93.331z"/>
			<g>
				<path d="M64.015,58.194c0-1.192-0.675-2.716-3.89-3.203l-0.862-0.13v7.69l1.075-0.517
					C62.812,60.844,64.015,59.588,64.015,58.194z M60.763,60.11v-3.461c1.752,0.46,1.752,1.259,1.752,1.545
					C62.515,58.544,62.262,59.214,60.763,60.11z"/>
				<path d="M60.763,70.084l3.607,4.308l8.31,0.093l-8.108-9.624c2.699-2.478,4.014-4.75,4.014-6.93c0-1.29-0.479-2.512-1.425-3.63
					c-2.283-2.708-5.848-4.081-10.593-4.081c-0.492,0-0.99,0.012-1.495,0.036l-0.704,0.033l-0.318,23.638l6.713,0.431V70.084z
					 M59.263,72.757L55.57,72.52l0.279-20.792c0.241-0.006,0.48-0.009,0.719-0.009c4.282,0,7.461,1.194,9.446,3.549
					c0.721,0.852,1.071,1.723,1.071,2.662c0,1.838-1.362,3.954-4.049,6.29l-0.558,0.484l6.945,8.243l-4.347-0.048l-5.814-6.942
					V72.757z"/>
				<path d="M81.938,59.36c-0.9-1.621-2.079-2.443-3.503-2.443c-1.362,0-2.456,0.477-3.253,1.417
					c-0.756,0.892-1.173,1.979-1.24,3.231l-0.057,1.05l8.512-2.428L81.938,59.36z M75.632,60.556
					c0.147-0.464,0.378-0.879,0.695-1.253c0.505-0.596,1.195-0.886,2.108-0.886c0.614,0,1.159,0.286,1.65,0.869L75.632,60.556z"/>
				<path d="M74.231,72.222l0.11,0.052c1.495,0.556,2.879,0.838,4.111,0.838c4.1,0,6.858-2.789,8.199-8.289l0.263-1.077
					l-6.484,0.926l-0.143,0.448c-0.462,1.442-1.204,2.061-2.484,1.993c-1.138-0.055-1.914-0.543-2.397-1.522l10.768-2.928
					l-0.068-0.636c-0.691-6.414-3.382-9.665-7.997-9.665c-0.071,0-0.145,0.001-0.218,0.002l-0.113,0.011
					c-4.915,0.862-7.548,3.989-7.825,9.295c-0.024,0.46-0.036,0.877-0.036,1.252C69.916,67.457,71.368,70.586,74.231,72.222z
					 M71.45,61.749c0.238-4.558,2.374-7.138,6.53-7.886c0.039-0.001,0.078-0.001,0.117-0.001c3.635,0,5.746,2.52,6.439,7.691
					l-11.065,3.009l0.22,0.736c0.617,2.07,2.014,3.215,4.038,3.313c1.269,0.061,2.931-0.347,3.825-2.584l3.347-0.478
					c-1.229,4.077-3.346,6.063-6.448,6.063c-1.038,0-2.226-0.243-3.53-0.723c-2.359-1.376-3.507-3.983-3.507-7.967
					C71.416,62.571,71.428,62.18,71.45,61.749z"/>
				<path d="M93.289,73.182c0.315,0,0.77-0.018,1.363-0.054c1.146-0.069,4.186-0.254,4.186-2.085c0-0.111-0.009-0.223-0.027-0.334
					l-0.014-0.064c-0.153-0.59-0.651-1.582-2.273-1.582c-0.441,0-1.231,0.089-2.418,0.272c-2.069,0.321-4.175,0.848-4.097,2.32
					C90.075,73.182,92.41,73.182,93.289,73.182z M94.335,70.818c1.362-0.21,1.942-0.255,2.188-0.255c0.695,0,0.772,0.27,0.819,0.451
					c-0.045,0.055-0.462,0.477-2.781,0.616c-0.554,0.034-0.979,0.052-1.272,0.052c-0.885,0-1.36-0.081-1.606-0.151
					C91.975,71.36,92.681,71.074,94.335,70.818z"/>
				<path d="M86.492,66.702c0,0.914,0.139,1.786,0.414,2.602c-0.73,0.747-1.1,1.644-1.1,2.672c0,0.499,0.095,1.044,0.282,1.618
					c0.629,1.96,2.816,2.97,6.683,3.087c0.292,0.01,0.577,0.015,0.855,0.015c3.278,0,5.622-0.682,7.146-2.073
					c0.274-0.249,0.511-0.492,0.722-0.732l-0.015,0.165l6.033-0.565l0.042-0.639c0.082-1.251,0.153-2.523,0.227-3.788
					c0.336,1.029,0.836,1.899,1.511,2.592c1.423,1.462,3.643,2.248,6.596,2.336c0.143,0.004,0.283,0.006,0.423,0.006
					c3.05,0,5.382-1.061,6.936-3.157c1.101-1.485,1.659-3.35,1.659-5.544c0-0.994-0.111-2.06-0.331-3.169
					c-0.57-2.88-1.359-4.848-2.41-6.016c-1.303-1.448-3.396-2.182-6.218-2.182c-2.732,0-4.938,1.275-6.554,3.788
					c-0.454,0.702-0.83,1.457-1.138,2.256c0.001-0.025,0.003-0.051,0.004-0.076l0.038-0.884l-6.192,0.754
					c-0.061-1.167-0.339-2.117-0.841-2.83c0.056-0.083,0.141-0.172,0.244-0.262c0.051,0.101,0.102,0.203,0.165,0.303
					c0.69,1.094,1.62,1.702,2.763,1.806c0.106,0.009,0.21,0.014,0.313,0.014c1.032,0,1.948-0.479,2.726-1.428
					c0.591-0.721,0.891-1.478,0.891-2.251c0-0.353-0.062-0.708-0.181-1.051c-0.384-1.12-1.192-1.893-2.406-2.297
					c-0.287-0.096-0.604-0.144-0.94-0.144c-0.982,0-1.957,0.498-2.897,1.479l-0.094,0.12c-0.057,0.09-0.099,0.18-0.149,0.27
					l-2.191-1.919l-0.477,0.313c-0.65,0.427-1.188,0.963-1.603,1.599c-1.703-0.708-3.725-0.773-6.054-0.15
					c-2.694,0.716-4.394,2.344-5.05,4.838c-0.157,0.588-0.236,1.15-0.236,1.67c0,1.544,0.613,2.925,1.824,4.117
					C86.969,64.772,86.492,65.69,86.492,66.702z M108.787,65.04v-0.002c0.077-2.521,0.705-4.71,1.867-6.508
					c1.342-2.087,3.072-3.101,5.293-3.101c2.38,0,4.097,0.567,5.103,1.686c0.854,0.948,1.545,2.732,2.055,5.304
					c0.2,1.014,0.302,1.982,0.302,2.878c0,1.865-0.459,3.43-1.364,4.651c-1.333,1.798-3.339,2.636-6.107,2.544
					c-2.552-0.075-4.425-0.709-5.567-1.882C109.232,69.443,108.7,67.569,108.787,65.04z M106.721,60.715
					c-0.17,3.814-0.379,7.641-0.622,11.398l-2.973,0.279c0.117-1.559,0.176-3.149,0.176-4.742c0-2.121-0.106-4.298-0.316-6.481
					L106.721,60.715z M101.614,63.007c0.111,1.564,0.188,3.12,0.188,4.644c0,0.336-0.017,0.669-0.022,1.004
					c-0.039-0.088-0.067-0.168-0.109-0.259c-0.573-1.268-1.739-2.055-3.473-2.349c0.497-0.167,0.942-0.378,1.333-0.632
					C100.496,64.792,101.189,63.984,101.614,63.007z M103.078,54.087c0.626-0.638,1.218-0.961,1.76-0.961
					c0.176,0,0.333,0.022,0.466,0.067c0.768,0.256,1.231,0.688,1.463,1.363c0.066,0.191,0.099,0.375,0.099,0.562
					c0,0.423-0.18,0.848-0.551,1.3c-0.536,0.655-1.104,0.932-1.742,0.871c-0.663-0.06-1.196-0.424-1.631-1.111
					c-0.019-0.031-0.026-0.06-0.043-0.09l1.428-0.291l-1.454-1.273C102.933,54.38,102.987,54.238,103.078,54.087z M87.588,59.846
					c0-0.39,0.063-0.821,0.187-1.286c0.517-1.963,1.82-3.198,3.985-3.773c0.94-0.251,1.821-0.379,2.619-0.379
					c1.121,0,2.129,0.241,2.997,0.716l0.695,0.381l0.342-0.715c0.247-0.517,0.574-0.949,0.991-1.31l1.789,1.566
					c-0.001,0.014-0.002,0.028-0.003,0.042c-0.769,0.398-1.279,0.978-1.515,1.74l-0.131,0.421l0.304,0.319
					c0.587,0.614,0.843,1.692,0.761,3.204c-0.081,1.505-0.699,2.612-1.893,3.384c-1.235,0.805-3.302,1.04-6.117,0.727l-0.149-0.017
					l-0.144,0.042c-1.396,0.408-2.104,1.07-2.104,1.968c0,0.311,0.094,0.627,0.279,0.943l0.285,0.485l0.546-0.139
					c2.004-0.509,3.805-0.752,5.243-0.75c2.042,0.01,3.269,0.533,3.75,1.598l0.001,0.002c0.627,1.374,0.759,2.138,0.759,2.536
					c0,0.354-0.226,0.98-1.303,1.96c-1.332,1.216-3.667,1.789-6.942,1.667c-2.14-0.064-4.797-0.472-5.304-2.049
					c-0.139-0.426-0.209-0.815-0.209-1.156c0-0.742,0.313-1.356,0.954-1.879l0.435-0.354l-0.217-0.517
					c-0.322-0.771-0.486-1.62-0.486-2.523c0-0.729,0.497-1.403,1.519-2.058l0.889-0.57l-0.832-0.651
					C88.235,62.379,87.588,61.209,87.588,59.846z"/>
				<path d="M94.167,62.069c0.271,0.026,0.534,0.039,0.792,0.039c1.105,0,1.883-0.259,2.377-0.791
					c0.27-0.291,0.578-0.813,0.516-1.649c-0.079-1.122-0.495-1.879-1.239-2.25c-0.299-0.149-0.846-0.326-2.431-0.36
					c-3.063-0.061-3.601,1.421-3.629,2.308C90.518,60.441,91.118,61.782,94.167,62.069z M93.983,58.555c0.055,0,0.11,0,0.168,0.002
					c1.379,0.03,1.733,0.173,1.791,0.202c0.293,0.146,0.387,0.633,0.413,1.016v0.004c0.027,0.36-0.083,0.479-0.119,0.518
					c-0.245,0.263-1.042,0.362-1.928,0.279c-1.518-0.143-2.276-0.534-2.256-1.163C92.059,59.198,92.08,58.555,93.983,58.555z"/>
				<path d="M122.421,46.341l-5.9-1.433l-2.182,6.723l2.947,0.782L122.421,46.341z M116.255,50.588l1.264-3.893l2.189,0.531
					l-2.955,3.494L116.255,50.588z"/>
				<path d="M115.859,69.667c1.256,0,2.394-0.634,3.38-1.88c0.914-1.14,1.378-2.333,1.378-3.545c0-1.303-0.563-2.625-1.673-3.931
					l-0.057-0.06c-2.169-2.045-4.324-1.766-5.928,0.739c-0.743,1.161-1.12,2.32-1.12,3.445c0,1.064,0.346,2.157,1.027,3.245
					C113.69,68.998,114.696,69.667,115.859,69.667z M114.223,61.798c0.6-0.937,1.215-1.412,1.829-1.412
					c0.518,0,1.115,0.312,1.775,0.928c0.855,1.016,1.289,2,1.289,2.928c0,0.875-0.343,1.728-1.051,2.611
					c-0.7,0.885-1.422,1.315-2.207,1.315c-0.619,0-1.182-0.419-1.72-1.283c-0.531-0.847-0.8-1.671-0.8-2.45
					C113.34,63.6,113.636,62.713,114.223,61.798z"/>
				<path d="M132.166,73.256V63.4c1.535-2.451,2.341-2.645,2.555-2.645c0.241,0,0.481,0.343,0.603,0.546
					c0.49,0.828,0.739,2.254,0.739,4.241c0,1.701-0.187,3.823-0.555,6.306l-0.132,0.89l6.326-0.211l0.043-0.68
					c0.129-2.068,0.194-3.989,0.194-5.707c0-4.928-0.513-8.398-1.567-10.607c-0.777-1.625-2.057-2.483-3.7-2.483
					c-1.407,0-3.066,0.614-5.051,1.872l-0.221-1.544l-5.771,0.931l0.777,18.784L132.166,73.256z M130.131,55.101l0.347,2.424
					l1.001-0.703c3.908-2.746,6.36-3.107,7.54-0.642c0.942,1.975,1.421,5.326,1.421,9.96c0,1.498-0.051,3.155-0.151,4.934
					l-3.17,0.105c0.295-2.179,0.444-4.071,0.444-5.637c0-2.291-0.311-3.928-0.949-5.007c-0.631-1.058-1.378-1.28-1.893-1.28
					c-1.21,0-2.463,1.125-3.944,3.54l-0.11,0.181v8.739l-2.818-0.081l-0.664-16.056L130.131,55.101z"/>
				<path d="M49.667,87.056c-2.372-2.249-4.705-1.957-6.459,0.811c-0.823,1.3-1.241,2.601-1.241,3.864
					c0,1.202,0.381,2.43,1.13,3.644c0.904,1.475,2.006,2.222,3.276,2.222c1.281,0,2.504-0.736,3.634-2.189
					c1.025-1.324,1.546-2.632,1.546-3.887c0-1.45-0.613-2.93-1.823-4.397L49.667,87.056z M48.822,94.487
					c-1.585,2.04-3.142,2.232-4.447,0.103c-0.603-0.977-0.908-1.938-0.908-2.858c0-0.976,0.339-2.005,1.009-3.062
					c0.682-1.075,1.385-1.62,2.091-1.62c0.598,0,1.282,0.357,2.034,1.063c0.964,1.18,1.452,2.325,1.452,3.407
					C50.053,92.435,49.638,93.433,48.822,94.487z"/>
				<path d="M101.766,88.25c-2.169-2.045-4.324-1.766-5.928,0.739c-0.743,1.16-1.12,2.32-1.12,3.445
					c0,1.064,0.346,2.156,1.027,3.244c0.823,1.319,1.829,1.988,2.992,1.988c1.256,0,2.394-0.634,3.38-1.88
					c0.914-1.14,1.378-2.333,1.378-3.546c0-1.303-0.563-2.625-1.673-3.931L101.766,88.25z M100.945,94.851
					c-0.7,0.886-1.422,1.315-2.207,1.315c-0.619,0-1.182-0.419-1.72-1.283c-0.531-0.847-0.8-1.671-0.8-2.449
					c0-0.834,0.297-1.721,0.884-2.637c0.6-0.937,1.215-1.412,1.829-1.412c0.518,0,1.115,0.313,1.775,0.928
					c0.855,1.016,1.289,2.001,1.289,2.928C101.996,93.116,101.653,93.968,100.945,94.851z"/>
				<path d="M112.937,87.059c-0.74,0.918-1.115,2.159-1.115,3.688c0,0.428,0.031,0.896,0.094,1.394
					c0.37,2.981,1.725,3.647,2.803,3.681c0.028,0,0.057,0.001,0.085,0.001c1.348,0,2.474-0.676,3.26-1.959l0.106-0.174l0.098-5.848
					l-0.289-0.23C115.778,85.859,114.035,85.697,112.937,87.059z M116.678,93.245c-0.509,0.751-1.138,1.125-1.92,1.076
					c-0.706-0.021-1.161-0.817-1.354-2.366c-0.055-0.437-0.082-0.843-0.082-1.208c0-1.178,0.264-2.102,0.783-2.746
					c0.252-0.313,0.487-0.354,0.664-0.354c0.354,0,0.977,0.165,1.986,0.915L116.678,93.245z"/>
				<path d="M123.523,100.192c-0.255,0-0.542-0.662-0.568-2.115c-0.046-2.313,0.195-7.46,0.719-15.296l0.055-0.813l-6.914,0.116
					v0.401c-2.604-0.869-4.864-0.603-6.675,0.732c-1.569,1.16-2.57,3.017-2.998,5.529c-0.536-2.137-1.226-3.667-2.098-4.636
					c-1.303-1.447-3.396-2.182-6.218-2.182c-2.732,0-4.938,1.275-6.554,3.788c-0.809,1.252-1.387,2.663-1.732,4.217
					c-0.223-2.763-0.685-4.887-1.408-6.402c-0.777-1.624-2.057-2.482-3.7-2.482c-1.407,0-3.066,0.614-5.051,1.872l-0.221-1.545
					l-4.858,0.783c-0.01-0.031-0.014-0.063-0.024-0.094c-0.384-1.119-1.192-1.892-2.406-2.297c-0.287-0.095-0.604-0.144-0.94-0.144
					c-0.982,0-1.957,0.498-2.897,1.479l-0.094,0.12c-0.171,0.272-0.299,0.543-0.406,0.812l-0.622-0.021
					c-2.204-0.065-4.389,0.438-6.519,1.517l0.104-1.061l-6.574,0.54l0.07,0.755c0.061,0.657,0.116,1.363,0.167,2.092
					c-0.51-1.562-1.115-2.737-1.827-3.553c-1.432-1.627-3.732-2.452-6.839-2.452c-3.043,0-5.481,1.457-7.248,4.329
					c-1.422,2.306-2.193,5.056-2.291,8.174c-0.099,3.027,0.582,5.492,2.021,7.323c1.38,1.771,3.884,2.726,7.441,2.838
					c0.155,0.005,0.309,0.007,0.46,0.007c3.362,0,5.932-1.2,7.643-3.57c0.406-0.562,0.739-1.175,1.01-1.829
					c0.008,1.179,0.011,2.387,0.005,3.654l-0.004,0.78l6.59-0.229l-0.061-0.781c-0.162-2.066-0.244-3.884-0.244-5.401
					c0-4.165,0.627-5.431,0.998-5.813c1.021-1.039,2.887-1.566,5.547-1.566h0.802l-0.73,0.089l0.078,0.735
					c0.254,2.376,0.383,4.75,0.383,7.057c0,1.855-0.082,3.708-0.243,5.505l-0.08,0.898l6.033-0.565l0.042-0.639
					c0.109-1.654,0.205-3.33,0.3-5.005l0.217,5.247l5.76,0.165V91.4c1.535-2.451,2.341-2.646,2.555-2.646
					c0.241,0,0.481,0.344,0.603,0.547c0.49,0.827,0.739,2.254,0.739,4.24c0,1.701-0.187,3.823-0.555,6.306l-0.132,0.89l6.326-0.211
					l0.043-0.68c0.061-0.98,0.107-1.923,0.139-2.831c0.336,1.051,0.843,1.936,1.528,2.639c1.423,1.462,3.643,2.248,6.596,2.336
					c0.143,0.004,0.283,0.006,0.423,0.006c3.05,0,5.382-1.061,6.936-3.157c0.708-0.956,1.167-2.085,1.422-3.342
					c0.548,1.428,1.436,2.587,2.685,3.445c1.865,1.276,3.939,1.596,6.197,0.94c0.115,2.521,0.736,4.32,1.889,5.48
					c0.928,0.936,2.177,1.409,3.711,1.409c0.627,0,1.314-0.083,2.045-0.247l0.584-0.131l0.023-6.467l-0.936,0.234
					C123.665,100.182,123.591,100.192,123.523,100.192z M53.305,98.078c-1.499,2.076-3.724,3.046-6.839,2.94
					c-3.091-0.098-5.212-0.857-6.307-2.263c-1.218-1.549-1.791-3.685-1.703-6.35v-0.001c0.089-2.854,0.785-5.354,2.068-7.436
					c1.496-2.433,3.449-3.615,5.971-3.615c2.656,0,4.578,0.653,5.71,1.94c0.95,1.089,1.727,3.147,2.308,6.118
					c0.225,1.154,0.338,2.266,0.338,3.303C54.851,94.852,54.331,96.657,53.305,98.078z M61.744,88.288
					c-0.973,1-1.426,3.18-1.426,6.861c0,1.361,0.063,2.952,0.19,4.737l-3.469,0.121c0.018-6.356-0.146-11.604-0.484-15.624
					l3.273-0.269l-0.22,2.218l1.292-0.803c2.065-1.283,4.187-1.96,6.316-2.016l0.309,2.772
					C64.851,86.397,62.955,87.054,61.744,88.288z M70.172,82.087c0.626-0.638,1.218-0.961,1.76-0.961
					c0.176,0,0.333,0.022,0.466,0.067c0.768,0.255,1.231,0.688,1.463,1.362c0.066,0.191,0.099,0.376,0.099,0.563
					c0,0.423-0.18,0.848-0.551,1.3c-0.536,0.655-1.104,0.926-1.742,0.871c-0.663-0.061-1.196-0.424-1.631-1.111
					c-0.183-0.291-0.271-0.568-0.271-0.849C69.763,82.954,69.901,82.536,70.172,82.087z M73.193,100.114l-2.973,0.279
					c0.117-1.559,0.176-3.149,0.176-4.742c0-2.121-0.106-4.298-0.316-6.481l3.735-0.454C73.645,92.53,73.436,96.356,73.193,100.114z
					 M69.2,87.766l-0.29-2.602c0.675,0.965,1.549,1.521,2.618,1.619c0.106,0.01,0.21,0.015,0.313,0.015
					c1.011,0,1.908-0.466,2.675-1.377l0.07,1.689L69.2,87.766z M89.048,99.073l-3.17,0.105c0.295-2.179,0.444-4.071,0.444-5.637
					c0-2.291-0.311-3.929-0.949-5.007c-0.631-1.059-1.378-1.28-1.893-1.28c-1.21,0-2.463,1.125-3.944,3.54l-0.11,0.18v8.739
					l-2.818-0.081l-0.664-16.056l2.947-0.476l0.347,2.423l1.001-0.703c3.908-2.744,6.359-3.105,7.54-0.642
					c0.942,1.975,1.421,5.325,1.421,9.96C89.199,95.637,89.148,97.294,89.048,99.073z M104.921,97.947
					c-1.333,1.799-3.337,2.634-6.107,2.544c-2.552-0.075-4.425-0.709-5.567-1.883c-1.135-1.166-1.667-3.039-1.58-5.568v-0.002
					c0.077-2.521,0.705-4.71,1.867-6.509c1.342-2.086,3.072-3.101,5.293-3.101c2.38,0,4.097,0.567,5.103,1.686
					c0.854,0.947,1.545,2.732,2.055,5.304c0.2,1.014,0.302,1.981,0.302,2.878C106.285,95.161,105.826,96.725,104.921,97.947z
					 M123.162,105.174c-1.704,0.271-2.934-0.017-3.779-0.868c-0.996-1.004-1.492-2.844-1.473-5.468l0.008-1.126l-1.042,0.426
					c-2.179,0.892-4.054,0.758-5.796-0.434c-1.813-1.245-2.69-3.221-2.68-6.041c0.022-3.529,0.907-5.965,2.631-7.239
					c1.629-1.202,3.691-1.263,6.235-0.161l1.048,0.453v-1.142l3.809-0.08c-0.488,7.424-0.713,12.338-0.668,14.61
					c0.04,2.162,0.618,3.356,1.72,3.557L123.162,105.174z"/>
				<path d="M159.051,87.224c-1.139-4.12-3.742-6.21-7.736-6.21c-0.802,0-1.632,0.095-2.467,0.282
					c-2.314,0.519-4.13,2.474-5.419,5.792l-5.951,0.724l0.077-2.511l2.777,0.737l5.135-6.072l-5.9-1.432l-1.992,6.137l0.118-3.851
					h-5.602v11.895c-1.167,1.885-1.699,1.987-1.699,2.002c-0.113-0.07-1.002-0.855-1.002-8.049c0-1.588,0.041-3.453,0.122-5.543
					l0.032-0.81l-5.742,0.216l-0.008,0.715c-0.096,9.143,0.407,14.876,1.536,17.528c0.829,1.946,2.258,2.354,3.31,2.354
					c1.155,0,2.504-0.462,4.1-1.407l0.14,1.248l4.207-0.315l0.292-9.544c0.107,1.529,0.18,3.05,0.18,4.54
					c0,1.855-0.082,3.708-0.243,5.505l-0.08,0.898l6.033-0.565l0.042-0.639c0.252-3.829,0.463-7.736,0.64-11.632l3.914,0.611
					c-0.067,0.02-0.134,0.04-0.201,0.061c-1.41,0.444-3.091,1.625-3.091,4.724c0,0.19,0.018,0.489,0.056,0.896
					c0.275,2.92,3.294,4.556,8.975,4.867l0.038,0.903l6.003-0.371l0.157-6.718C159.858,91.588,159.607,89.244,159.051,87.224z
					 M140.563,80.32l2.189,0.531l-2.955,3.494l-0.498-0.132L140.563,80.32z M135.626,99.26l-1.418,0.106l-0.251-2.235l-1.027,0.692
					c-1.774,1.198-3.219,1.806-4.291,1.806c-0.564,0-1.379-0.149-1.929-1.442c-1.005-2.357-1.482-7.81-1.423-16.21l2.695-0.102
					c-0.063,1.785-0.094,3.394-0.094,4.793c0,6.775,0.711,9.539,2.455,9.539c0.961,0,1.929-0.893,3.138-2.894l0.108-0.179V82.321
					h2.555L135.626,99.26z M141.853,100.114l-2.973,0.279c0.117-1.559,0.176-3.149,0.176-4.742c0-2.121-0.106-4.298-0.316-6.481
					l3.735-0.454C142.305,92.53,142.096,96.356,141.853,100.114z M158.175,99.498l-3.103,0.191l-0.032-0.756l-0.693-0.024
					c-5.255-0.183-8.023-1.373-8.227-3.539c-0.032-0.343-0.05-0.595-0.05-0.756c0-2.375,1.165-3.017,2.042-3.292
					c0.778-0.246,1.56-0.37,2.323-0.37c1.026,0,2.094,0.214,3.173,0.635l1.029,0.4l-0.007-1.104c-0.019-3.132-0.057-3.261-0.1-3.404
					c-0.227-0.78-0.931-1.745-2.996-1.909c-1.377-0.123-2.578,0.783-3.701,2.737l-3.092-0.483c1.103-2.948,2.592-4.65,4.434-5.064
					c0.728-0.162,1.447-0.245,2.139-0.245c3.282,0,5.341,1.672,6.291,5.109c0.517,1.877,0.75,4.075,0.693,6.533L158.175,99.498z
					 M148.84,89.598l0.063-0.121c0.602-1.146,1.538-2.5,2.511-2.412c1.47,0.116,1.626,0.655,1.661,0.761
					c0.011,0.079,0.033,0.434,0.049,2.015c-0.907-0.258-1.807-0.389-2.688-0.389C149.907,89.452,149.374,89.501,148.84,89.598z"/>
				<path d="M154.148,92.802c-0.858-0.147-1.604-0.222-2.219-0.222c-2.092,0-2.612,0.896-2.68,1.643
					c-0.187,1.863,2.618,2.658,4.744,3.094l0.938,0.192l-0.187-4.604L154.148,92.802z M150.743,94.366
					c0.013-0.139,0.433-0.285,1.187-0.285c0.388,0,0.846,0.036,1.367,0.107l0.059,1.447
					C150.762,94.986,150.742,94.379,150.743,94.366z"/>
			</g>
		</g>
	</g>
</g>
<g id="Capa_2">
</g>
<g id="Capa_3">
</g>
</svg>
