<?xml version="1.0" encoding="utf-8"?>
<!-- Generator: Adobe Illustrator 21.0.0, SVG Export Plug-In . SVG Version: 6.00 Build 0)  -->
<svg version="1.1" id="Capa_1" xmlns="http://www.w3.org/2000/svg" xmlns:xlink="http://www.w3.org/1999/xlink" x="0px" y="0px"
	 viewBox="0 0 254.45 205.31" style="enable-background:new 0 0 254.45 205.31;" xml:space="preserve">
<g>
	<g>
		<path style="fill-rule:evenodd;clip-rule:evenodd;fill:#0DA401;" d="M228.808,34.349c3.612-12.402,14.651-7.354,10.63-19.37
			C237.805,10.1,235.229,6.727,233.365,2l0,0c-7.436,7.104-15.441,6.72-33.643,10.351c-20.228,4.036-21.91,7.629-29.351,17.155
			c-7.441,9.525-27.384-0.941-41.99,0.995c-14.606,1.936-27.137,10.14-37.69,13.962S90.479,55.34,83.66,59.821
			c-6.818,4.481-18.188-3.36-18.677-19.488c-0.227-7.486-2.934-18.537-5.421-15.16c0.03-0.04,0.057-0.086,0.087-0.126
			c-0.569,0.763-1.15,1.495-1.763,2.15c-5.557,5.935-1.532,1.078-8.779,11.01S32.827,58.65,27.856,59.454
			c-0.077,0.013-0.156,0.001-0.234,0.008l-2.353,5.88c0,0-1.393,2.525,1.656,4.6c3.049,2.075,2.652,6.373-2.123,4.395
			c-4.775-1.978-8.887-4.611-10.543-9.21c-1.656-4.599-4.608-5.934-5.145-1.948c-0.537,3.986-6.158,2.935-5.029,6.987
			c1.129,4.052-3.459,10.543-1.669,15.012c0.633,1.581,2.232,3.313,4.027,4.894c6.294,1.174,12.758,2.151,14.003,1.713
			c0.993-7.525,5.98-2.757,9.923-0.639c1.811,0.973,2.892,4.565,4.802,5.698c5.602,3.324,12.449,2.077,17.322,3.946
			c11.14,4.271,15.897,11.915,18.119,19.373c1.683,5.644,14.187,6.287,17.395,10.932c4.962,7.184,0.939,10.361,8.655,10.513
			c5.434,0.107,1.629,11.994,2.053,12.711c2.69,4.547,7.083,2.277,10.304,2.953c2.114,0.444,9.315,3.257,13.628,2.246
			c1.139-0.267,10.049-7.785,10.204-7.639c1.386,1.308,37.418,12.543,39.579,13.047c2.293,0.534-14.39,25.206-15.961,27.574
			c6.18,0.609,16.177,2.508,18.419,10.813c6.508-20.181,9.146-42.738,12.824-63.662c2.693-15.319-8.111-30.153-8.116-30.162
			c-2.559-4.757-10.816-14.334-4.755-22.325c3.664-4.83,18.481-1.363,22.237-1.664c2.718-0.218-9.939-20.162-17.181-10.805
			c0.149-5.134,0.298-10.268,0.446-15.403c9.894,3.516,29.698,0.274,40.577,0.488c-0.001,0.013-5.597-6.395-0.542-7.521
			c7.639,14.188,11.097-6.797,19.392-4.358c4.331,1.274,7.359,19.034,5.506,21.69c-0.128,0.184,1.448,3.75,1.437,4.293
			c1.19,0.023,4.484-0.928,5.738-1.435C252.261,72.339,244.403,27.399,228.808,34.349z"/>
		<path style="fill:#FFFFFF;" d="M233.365,2c1.864,4.727,4.44,8.1,6.073,12.979c4.021,12.016-7.018,6.969-10.63,19.37
			c1.119-0.499,2.198-0.73,3.238-0.73c13.445,0,20.229,38.728,20.404,38.829c-1.238,0.501-4.468,1.435-5.694,1.435
			c-0.015,0-0.03,0-0.044,0c0.011-0.543-1.566-4.109-1.437-4.293c1.853-2.656-1.175-20.417-5.506-21.69
			c-0.465-0.137-0.913-0.2-1.349-0.2c-5.349,0-8.652,9.522-12.838,9.522c-1.561,0-3.246-1.325-5.205-4.964
			c-5.045,1.124,0.519,7.507,0.542,7.521c-0.353-0.007-0.716-0.01-1.087-0.01c-6.998,0-17.106,1.169-26.014,1.169
			c-5.181,0-9.956-0.396-13.476-1.646c-0.149,5.134-0.298,10.268-0.446,15.403c1.375-1.776,2.944-2.496,4.567-2.496
			c6.926,0,14.817,13.125,12.614,13.302c-0.161,0.013-0.343,0.019-0.543,0.019c-2.514,0-7.962-0.944-12.869-0.944
			c-3.809,0-7.293,0.569-8.825,2.589c-6.061,7.991,2.196,17.568,4.755,22.325c0.005,0.009,10.809,14.843,8.116,30.162
			c-3.678,20.924-6.316,43.481-12.824,63.662c-2.242-8.304-12.238-10.203-18.419-10.813c1.571-2.367,18.254-27.04,15.961-27.574
			c-2.161-0.503-38.193-11.738-39.579-13.047c-0.001-0.001-0.004-0.002-0.007-0.002c-0.319,0-9.069,7.377-10.197,7.641
			c-0.65,0.152-1.364,0.218-2.118,0.218c-4.249,0-9.715-2.087-11.51-2.463c-0.496-0.104-1.02-0.138-1.561-0.138
			c-1.038,0-2.14,0.126-3.231,0.126c-2.034,0-4.031-0.437-5.512-2.94c-0.425-0.718,3.381-12.605-2.053-12.711
			c-7.715-0.151-3.693-3.329-8.655-10.513c-3.208-4.645-15.712-5.287-17.395-10.932c-2.221-7.457-6.978-15.102-18.119-19.373
			c-4.873-1.868-11.72-0.622-17.322-3.946c-1.91-1.134-2.991-4.726-4.802-5.698c-2.34-1.257-5.048-3.447-7.07-3.447
			c-1.385,0-2.449,1.028-2.852,4.086c-0.208,0.073-0.56,0.107-1.033,0.107c-2.362,0-7.725-0.841-12.97-1.82
			c-1.795-1.582-3.394-3.313-4.027-4.894c-1.79-4.468,2.798-10.96,1.669-15.011s4.492-3.001,5.029-6.987
			c0.218-1.62,0.835-2.362,1.603-2.361c1.12,0,2.559,1.58,3.542,4.31c1.656,4.599,5.768,7.232,10.543,9.21
			c0.857,0.355,1.572,0.508,2.152,0.508c2.654,0,2.473-3.2-0.029-4.902c-3.049-2.075-1.656-4.6-1.656-4.6l2.353-5.88
			c0.023-0.002,0.046-0.003,0.069-0.003c0.023,0,0.046,0.001,0.068,0.001c0.032,0,0.064-0.001,0.096-0.006
			C32.827,58.65,41.86,48.14,49.107,38.207c7.247-9.932,3.223-5.075,8.779-11.01c0.613-0.654,1.193-1.387,1.763-2.15
			c-0.027,0.037-0.053,0.079-0.08,0.116c-0.002,0.003-0.005,0.006-0.007,0.009c0.002-0.003,0.005-0.006,0.007-0.009
			c0.314-0.423,0.631-0.616,0.947-0.616c2.182,0.001,4.269,9.251,4.467,15.785c0.398,13.103,7.976,20.736,14.462,20.736
			c1.497,0,2.937-0.407,4.216-1.247c6.818-4.481-3.521-11.534,7.032-15.357c10.552-3.823,23.084-12.026,37.69-13.962
			c1.289-0.171,2.618-0.245,3.978-0.245c9.081,0.001,19.468,3.314,27.511,3.314c4.401,0,8.102-0.993,10.501-4.065
			c7.44-9.525,9.123-13.119,29.351-17.155C217.924,8.72,225.93,9.105,233.365,2L233.365,2 M220.92,59.778
			C220.92,59.778,220.92,59.778,220.92,59.778C220.92,59.778,220.92,59.778,220.92,59.778 M233.365,0
			c-0.509,0-1.006,0.195-1.382,0.554c-5.277,5.043-11.043,6.027-21.508,7.813c-3.242,0.553-6.917,1.18-11.145,2.024
			c-19.741,3.938-22.721,7.791-29.252,16.232c-0.41,0.531-0.837,1.081-1.283,1.653c-1.756,2.249-4.593,3.296-8.925,3.296
			c-3.726,0-8.033-0.754-12.592-1.552c-4.949-0.866-10.067-1.762-14.919-1.762c-1.521,0-2.908,0.086-4.24,0.262
			c-10.193,1.351-19.347,5.635-27.424,9.416c-3.785,1.771-7.36,3.445-10.684,4.649c-7.352,2.663-6.586,7.354-6.079,10.458
			c0.43,2.635,0.54,3.853-1.37,5.108c-0.928,0.61-1.977,0.919-3.117,0.919c-5.719,0-12.11-7.186-12.463-18.796
			c-0.005-0.177-0.793-17.723-6.466-17.724c-0.659,0-1.612,0.231-2.464,1.308l-0.006-0.004c-0.625,0.837-1.139,1.466-1.619,1.979
			c-1.229,1.312-1.984,2.092-2.497,2.621c-1.167,1.204-1.234,1.286-2.374,2.909c-0.694,0.988-1.856,2.642-4.064,5.669
			C38.925,48.77,31.164,56.754,27.644,57.46c-0.073,0.001-0.146,0.005-0.219,0.012c-0.743,0.073-1.383,0.554-1.66,1.247
			l-2.316,5.789c-0.745,1.49-1.145,4.709,2.351,7.088c0.61,0.415,0.917,0.918,1.027,1.243c-0.235-0.019-0.644-0.095-1.259-0.35
			c-5.309-2.199-8.217-4.679-9.427-8.04c-1.269-3.526-3.297-5.631-5.423-5.632c-0.712,0-3.073,0.295-3.585,4.094
			c-0.108,0.802-0.603,1.145-1.886,1.853c-1.436,0.793-4.11,2.269-3.088,5.938c0.37,1.328-0.277,3.533-0.904,5.665
			c-0.897,3.053-1.913,6.514-0.696,9.553c0.68,1.698,2.172,3.546,4.562,5.652c0.271,0.238,0.601,0.399,0.955,0.465
			c3.711,0.692,10.378,1.854,13.337,1.854c0.741,0,1.264-0.068,1.696-0.22c0.711-0.25,1.22-0.878,1.319-1.625
			c0.18-1.361,0.545-2.348,0.869-2.348c0.873,0,2.575,1.06,3.942,1.912c0.716,0.446,1.457,0.907,2.182,1.297
			c0.443,0.238,1.124,1.314,1.621,2.099c0.815,1.287,1.739,2.746,3.106,3.557c3.663,2.174,7.723,2.587,11.304,2.952
			c2.342,0.238,4.554,0.464,6.322,1.142c8.762,3.359,14.295,9.272,16.918,18.076c1.203,4.035,5.876,5.821,10.394,7.547
			c3.034,1.159,6.172,2.358,7.272,3.95c1.724,2.496,2.231,4.426,2.639,5.976c0.863,3.283,1.806,5.285,7.623,5.399
			c0.345,0.007,0.425,0.104,0.484,0.175c1.06,1.286,0.203,6.199-0.12,8.049c-0.343,1.963-0.471,2.698,0.007,3.506
			c2.08,3.516,5.124,3.922,7.233,3.922c0.61,0,1.201-0.034,1.772-0.067c0.517-0.03,1.005-0.058,1.459-0.058
			c0.467,0,0.844,0.031,1.151,0.096c0.388,0.082,1.097,0.294,1.918,0.539c2.618,0.783,6.575,1.967,10.003,1.967
			c0.942,0,1.809-0.091,2.575-0.271c0.928-0.218,2.305-1.202,7.75-5.543c0.759-0.605,1.58-1.259,2.171-1.719
			c1.968,0.843,6.69,2.545,18.713,6.405c7.518,2.414,15.101,4.768,18.505,5.775c-0.969,2.198-4.204,8.209-14.963,24.294
			l-0.478,0.716c-0.388,0.585-0.441,1.33-0.14,1.964c0.301,0.634,0.912,1.064,1.61,1.133c9.654,0.952,15.267,4.096,16.684,9.344
			c0.231,0.855,0.997,1.457,1.883,1.478c0.016,0,0.032,0.001,0.049,0.001c0.866,0,1.636-0.558,1.903-1.386
			c5.029-15.592,7.767-32.583,10.415-49.015c0.794-4.926,1.615-10.02,2.475-14.914c2.691-15.31-7.34-30.081-8.385-31.568
			c-0.452-0.827-1.043-1.763-1.667-2.752c-3.128-4.957-7.411-11.747-3.195-17.305c0.622-0.82,2.381-1.798,7.232-1.798
			c2.756,0,5.794,0.32,8.235,0.577c1.868,0.197,3.481,0.367,4.635,0.367c0.259,0,0.494-0.009,0.703-0.025
			c1.15-0.092,2.279-1.043,2.214-2.681c-0.15-3.762-7.908-14.614-14.988-14.614c-0.706,0-1.55,0.104-2.449,0.434l0.104-3.582
			l0.149-5.134c3.023,0.685,6.835,1.021,11.551,1.021c4.787,0,9.81-0.326,14.667-0.641c4.178-0.271,8.124-0.527,11.348-0.527
			c0.358,0,0.707,0.003,1.048,0.01c0.013,0,0.026,0,0.04,0c0.9,0,1.691-0.602,1.929-1.473c0.186-0.682-0.003-1.393-0.465-1.89
			c-0.269-0.306-0.532-0.645-0.775-0.995c1.102,1.057,2.418,1.801,3.974,1.801c2.894,0,5.053-2.559,7.141-5.034
			c1.862-2.206,3.787-4.488,5.696-4.488c0.257,0,0.514,0.039,0.785,0.118c0.005,0.002,0.848,0.371,1.987,3.143
			c2.339,5.692,3.069,14.071,2.415,15.524c-0.634,0.94-0.356,1.666,0.448,3.762c0.219,0.57,0.577,1.505,0.667,1.84
			c0.101,0.992,0.928,1.775,1.95,1.795c0.013,0,0.07,0.001,0.084,0.001c1.671,0,5.274-1.108,6.443-1.581
			c0.708-0.286,1.192-0.951,1.245-1.714c0.019-0.265-0.016-0.525-0.096-0.768c-0.035-0.148-0.094-0.43-0.178-0.828
			c-3.807-17.936-10.727-39.312-22.076-39.374c1.445-2.507,3.345-3.727,5.199-4.917c3.941-2.529,6.537-4.896,4.04-12.358
			c-0.949-2.836-2.194-5.182-3.399-7.451c-0.983-1.851-1.911-3.6-2.71-5.626c-0.244-0.62-0.781-1.077-1.431-1.22
			C233.652,0.015,233.508,0,233.365,0L233.365,0z"/>
	</g>
	<g>
		<defs>
			<path id="SVGID_1_" d="M228.808,34.349c3.612-12.402,14.651-7.354,10.63-19.37C237.805,10.1,235.229,6.727,233.365,2l0,0
				c-7.436,7.104-15.441,6.72-33.643,10.351c-20.228,4.036-21.91,7.629-29.351,17.155c-7.441,9.525-27.384-0.941-41.99,0.995
				c-14.606,1.936-27.137,10.14-37.69,13.962S90.479,55.34,83.66,59.821c-6.818,4.481-18.188-3.36-18.677-19.488
				c-0.227-7.486-2.766-12.215-5.421-15.16c0.03-0.04,0.057-0.086,0.087-0.126c-0.569,0.763-1.15,1.495-1.763,2.15
				c-5.557,5.935-1.532,1.078-8.779,11.01S32.827,58.65,27.856,59.454c-0.077,0.013-0.156,0.001-0.234,0.008l-2.353,5.88
				c0,0-1.393,2.525,1.656,4.6c3.049,2.075,2.652,6.373-2.123,4.395c-4.775-1.978-8.887-4.611-10.543-9.21
				c-1.656-4.599-4.608-5.934-5.145-1.948c-0.537,3.986-6.158,2.935-5.029,6.987c1.129,4.052-3.459,10.543-1.669,15.012
				c0.633,1.581,2.232,3.313,4.027,4.894c6.294,1.174,12.758,2.151,14.003,1.713c0.993-7.525,5.98-2.757,9.923-0.639
				c1.811,0.973,2.892,4.565,4.802,5.698c5.602,3.324,12.449,2.077,17.322,3.946c11.14,4.271,15.897,11.915,18.119,19.373
				c1.683,5.644,14.187,6.287,17.395,10.932c4.962,7.184,0.939,10.361,8.655,10.513c5.434,0.107,1.629,11.994,2.053,12.711
				c2.69,4.547,7.083,2.277,10.304,2.953c2.114,0.444,9.315,3.257,13.628,2.246c1.139-0.267,10.049-7.785,10.204-7.639
				c1.386,1.308,37.418,12.543,39.579,13.047c2.293,0.534-14.39,25.206-15.961,27.574c6.18,0.609,16.177,2.508,18.419,10.813
				c6.508-20.181,9.146-42.738,12.824-63.662c2.693-15.319-8.111-30.153-8.116-30.162c-2.559-4.757-10.816-14.334-4.755-22.325
				c3.664-4.83,18.481-1.363,22.237-1.664c2.718-0.218-9.939-20.162-17.181-10.805c0.149-5.134,0.298-10.268,0.446-15.403
				c9.894,3.516,29.698,0.274,40.577,0.488c-0.001,0.013-5.597-6.395-0.542-7.521c7.639,14.188,11.097-6.797,19.392-4.358
				c4.331,1.274,7.359,19.034,5.506,21.69c-0.128,0.184,1.448,3.75,1.437,4.293c1.19,0.023,4.484-0.928,5.738-1.435
				C252.261,72.339,244.403,27.399,228.808,34.349z"/>
		</defs>
		<clipPath id="SVGID_2_">
			<use xlink:href="#SVGID_1_"  style="overflow:visible;"/>
		</clipPath>
		<g style="clip-path:url(#SVGID_2_);">
			
				<rect x="-4.631" y="-10.597" transform="matrix(0.866 0.5 -0.5 0.866 52.5848 13.5788)" style="opacity:0.2;fill:#FFFFFF;" width="11.171" height="231.021"/>
			
				<rect x="22.426" y="-11.733" transform="matrix(0.866 0.5 -0.5 0.866 55.6416 -0.1023)" style="opacity:0.2;fill:#FFFFFF;" width="11.171" height="231.021"/>
			
				<rect x="49.484" y="-12.87" transform="matrix(0.866 0.5 -0.5 0.866 58.6984 -13.7835)" style="opacity:0.2;fill:#FFFFFF;" width="11.171" height="231.021"/>
			
				<rect x="76.542" y="-14.006" transform="matrix(0.866 0.5 -0.5 0.866 61.7552 -27.4646)" style="opacity:0.2;fill:#FFFFFF;" width="11.171" height="231.021"/>
			
				<rect x="103.6" y="-15.143" transform="matrix(0.866 0.5 -0.5 0.866 64.8121 -41.1458)" style="opacity:0.2;fill:#FFFFFF;" width="11.171" height="231.021"/>
			
				<rect x="130.658" y="-16.279" transform="matrix(0.866 0.5 -0.5 0.866 67.8689 -54.827)" style="opacity:0.2;fill:#FFFFFF;" width="11.171" height="231.021"/>
			
				<rect x="157.715" y="-17.416" transform="matrix(0.866 0.5 -0.5 0.866 70.9257 -68.5081)" style="opacity:0.2;fill:#FFFFFF;" width="11.171" height="231.021"/>
			
				<rect x="183.715" y="-17.416" transform="matrix(0.866 0.5 -0.5 0.866 74.4091 -81.5081)" style="opacity:0.2;fill:#FFFFFF;" width="11.171" height="231.021"/>
			
				<rect x="209.715" y="-17.416" transform="matrix(0.866 0.5 -0.5 0.866 77.8924 -94.5081)" style="opacity:0.2;fill:#FFFFFF;" width="11.171" height="231.021"/>
		</g>
	</g>
	<g>
		<path style="fill-rule:evenodd;clip-rule:evenodd;" d="M35.408,96.971c-0.078-0.044-0.159-0.081-0.237-0.127
			c-1.211-0.718-2.088-2.423-3.03-3.824c0.076,0.042,0.152,0.085,0.228,0.126C33.548,93.778,34.418,95.519,35.408,96.971z
			 M26.925,69.943c0.149,0.101,0.282,0.212,0.414,0.322c-0.821-1.551-0.07-2.922-0.07-2.922l2.353-5.88
			c0.078-0.008,0.156,0.004,0.234-0.008c4.972-0.805,14.004-11.315,21.251-21.247c7.247-9.932,3.223-5.075,8.779-11.01
			c0.613-0.655,1.193-1.387,1.763-2.15c-0.03,0.04-0.057,0.086-0.087,0.126c0.257-0.35,0.517-0.537,0.776-0.597
			c-0.859-1.887-1.833-2.683-2.776-1.403c0.03-0.04,0.057-0.086,0.087-0.126c-0.569,0.763-1.15,1.495-1.763,2.15
			c-5.557,5.935-1.532,1.078-8.779,11.01c-7.247,9.932-16.28,20.442-21.251,21.247c-0.078,0.013-0.156,0.001-0.234,0.008
			l-2.353,5.88C25.269,65.343,23.876,67.868,26.925,69.943z M4.417,87.177c-1.79-4.468,2.799-10.96,1.669-15.012
			s4.492-3.001,5.029-6.987c0.265-1.968,1.119-2.634,2.115-2.256c-1.637-2.706-3.677-2.992-4.115,0.256
			c-0.537,3.986-6.158,2.935-5.029,6.987S0.627,80.709,2.417,85.177c0.602,1.503,2.079,3.14,3.765,4.657
			C5.393,88.936,4.76,88.035,4.417,87.177z M26.802,76.337c4.775,1.978,5.172-2.32,2.123-4.395
			c-0.181-0.123-0.345-0.249-0.496-0.375c1.14,2.054,0.083,4.306-3.627,2.769c-2.438-1.01-4.701-2.193-6.555-3.719
			C20.328,73.175,23.393,74.925,26.802,76.337z M182.009,72.826c-0.037,1.289-0.075,2.578-0.112,3.867
			c3.23-4.174,7.536-2.513,11.076,0.622C189.832,73.791,185.578,70.878,182.009,72.826z M85.66,61.821
			c6.818-4.481-3.521-11.534,7.032-15.357c10.552-3.823,23.084-12.026,37.69-13.962c14.606-1.936,34.549,8.53,41.99-0.995
			c7.441-9.525,9.123-13.119,29.351-17.155c17.561-3.504,25.631-3.272,32.854-9.63c-0.422-0.87-0.834-1.764-1.211-2.722l0,0
			c-7.436,7.104-15.441,6.72-33.643,10.351c-20.228,4.036-21.91,7.629-29.351,17.155c-7.44,9.525-27.384-0.941-41.99,0.995
			c-14.606,1.936-27.137,10.14-37.69,13.962C80.14,48.287,90.479,55.34,83.66,59.821c-3.268,2.148-7.58,1.458-11.241-1.612
			C76.406,62.919,81.772,64.376,85.66,61.821z M231.844,33.628c-0.386,0.804-0.738,1.698-1.036,2.72
			c3.206-1.429,6.085-0.661,8.638,1.456C237.203,35.173,234.669,33.547,231.844,33.628z M222.378,54.257
			c-0.245,0.055-0.457,0.125-0.654,0.203c0.756,1.069,1.471,1.776,2.156,2.21C223.396,56.012,222.898,55.223,222.378,54.257z
			 M247.275,71.589c1.83-2.623-1.1-19.96-5.344-21.623c3.089,5.043,4.868,17.438,3.344,19.623c-0.128,0.184,1.448,3.75,1.437,4.293
			c0.309,0.006,0.764-0.056,1.285-0.156C247.604,72.7,247.208,71.686,247.275,71.589z M172.83,199.218
			c0.914,1.155,1.63,2.505,2.058,4.092c0.149-0.461,0.285-0.93,0.43-1.394C174.62,200.885,173.786,199.983,172.83,199.218z
			 M90.006,133.094c-0.443-0.641-1.068-1.204-1.812-1.716c3.754,5.623,2.021,8.726,5.175,9.799
			C92.738,139.469,92.582,136.823,90.006,133.094z M72.611,122.162c-1.409-4.731-3.846-9.534-8.278-13.506
			c3.189,3.534,5.098,7.544,6.278,11.506c0.376,1.26,1.293,2.269,2.523,3.131C72.911,122.939,72.731,122.565,72.611,122.162z
			 M174.43,166.924c-0.251-0.058-0.973-0.266-2.029-0.581c-1.894,5.349-14.572,24.106-15.932,26.155
			c0.946,0.093,1.988,0.223,3.072,0.395C163.58,186.844,176.464,167.397,174.43,166.924z M100.714,156.318
			c-0.408-0.689,3.081-11.674-1.455-12.639c1.139,3.464-0.859,10.107-0.545,10.639c0.626,1.058,1.347,1.736,2.121,2.179
			C100.796,156.435,100.753,156.384,100.714,156.318z"/>
	</g>
	<g>
		<g>
			<path style="fill:#FFFFFF;" d="M137.239,41.994c-1.699-3.31-5.115-5.655-9.119-5.655c-4.006,0-10.246,3.368-10.246,10.319
				c0,1.68,0.406,3.265,1.126,4.664c1.699,3.311,9.12,11.647,9.12,11.647s10.244-10.662,10.244-16.311
				C138.364,44.979,137.958,43.394,137.239,41.994z M128.119,51.799c-2.835,0-5.141-2.306-5.141-5.141
				c0-2.144,1.319-3.984,3.189-4.754c0.602-0.249,1.261-0.386,1.952-0.386c2.834,0,5.141,2.231,5.141,5.066
				c0,2.144-1.32,4.06-3.189,4.83C129.468,51.662,128.81,51.799,128.119,51.799z M135.788,47.618
				c0.01-0.015,0.019-0.029,0.029-0.044c-0.002,0.003-0.004,0.007-0.006,0.009C135.804,47.594,135.796,47.607,135.788,47.618z
				 M135.683,47.78c0.005-0.005,0.009-0.013,0.015-0.02C135.692,47.767,135.688,47.774,135.683,47.78z"/>
			<defs>
				<filter id="Adobe_OpacityMaskFilter" filterUnits="userSpaceOnUse" x="113.923" y="63.835" width="28.416" height="2.503">
					<feFlood  style="flood-color:white;flood-opacity:1" result="back"/>
					<feBlend  in="SourceGraphic" in2="back" mode="normal"/>
				</filter>
			</defs>
			<mask maskUnits="userSpaceOnUse" x="113.923" y="63.835" width="28.416" height="2.503" id="XMLID_6_">
			</mask>
			
				<ellipse id="XMLID_2_" transform="matrix(1 -0.0098 0.0098 1 -0.6306 1.2565)" style="opacity:0.5;mask:url(#XMLID_6_);fill:#999999;" cx="128.131" cy="65.087" rx="14.208" ry="1.244"/>
		</g>
		<g>
			<path d="M128.119,42.2c2.458,0,4.457,1.935,4.457,4.394c0,1.859-1.144,3.519-2.765,4.187c-0.523,0.216-1.093,0.336-1.692,0.336
				c-2.459,0-4.458-2.001-4.458-4.459c0-1.858,1.144-3.455,2.765-4.121C126.949,42.32,127.52,42.2,128.119,42.2 M128.119,40.834
				c-0.765,0-1.509,0.147-2.214,0.439c-2.194,0.902-3.611,3.019-3.611,5.385c0,3.212,2.614,5.826,5.826,5.826
				c0.764,0,1.508-0.147,2.212-0.439c2.161-0.889,3.612-3.08,3.612-5.45C133.944,43.417,131.33,40.834,128.119,40.834
				L128.119,40.834z"/>
		</g>
	</g>
	<g>
		<path style="fill:#FFFFFF;" d="M79.332,70.818c4.535,0,7.875,1.271,10.02,3.814c0.832,0.984,1.248,2.033,1.248,3.146
			c0,2.074-1.436,4.359-4.307,6.855l7.523,8.93l-6.328-0.07l-4.711-5.625v5.537l-5.203-0.334l0.299-22.219
			C78.366,70.83,78.852,70.818,79.332,70.818z M86.03,78.043c0-1.313-1.084-2.133-3.252-2.461v5.625
			C84.946,80.164,86.03,79.109,86.03,78.043z"/>
		<path style="fill:#FFFFFF;" d="M97.174,84.933c0.527,1.77,1.646,2.696,3.357,2.778c1.594,0.082,2.672-0.756,3.234-2.514
			l4.922-0.703c-1.254,5.145-3.744,7.717-7.471,7.717c-1.148,0-2.432-0.264-3.85-0.791c-2.625-1.5-3.938-4.383-3.938-8.648
			c0-0.363,0.012-0.768,0.035-1.213c0.258-4.934,2.66-7.799,7.205-8.596c4.313-0.094,6.797,2.904,7.453,8.993L97.174,84.933z
			 M98.518,78.667c-0.65,0.768-1.004,1.696-1.063,2.786l6.592-1.88c-0.762-1.371-1.711-2.057-2.848-2.057
			S99.168,77.899,98.518,78.667z"/>
		<path style="fill:#FFFFFF;" d="M123.752,88.555c0.551,1.207,0.826,2.156,0.826,2.848c0,0.738-0.516,1.576-1.547,2.514
			c-1.488,1.359-3.979,1.98-7.471,1.863c-3.48-0.105-5.479-0.961-5.994-2.566c-0.164-0.504-0.246-0.967-0.246-1.389
			c0-0.973,0.41-1.793,1.23-2.461c-0.363-0.867-0.545-1.805-0.545-2.813c0-0.996,0.621-1.893,1.863-2.689
			c-1.512-1.184-2.268-2.572-2.268-4.166c0-0.457,0.07-0.949,0.211-1.477c0.586-2.227,2.092-3.662,4.518-4.307
			c1.008-0.27,1.945-0.404,2.813-0.404c1.254,0,2.373,0.27,3.357,0.809c0.387-0.809,0.955-1.459,1.705-1.951l3.252,2.848
			c-1.266,0.258-2.033,0.82-2.303,1.688c0.738,0.773,1.061,2.027,0.967,3.762c-0.094,1.746-0.838,3.07-2.232,3.973
			c-1.008,0.656-2.432,0.984-4.271,0.984c-0.715,0-1.494-0.047-2.338-0.141c-1.043,0.305-1.564,0.721-1.564,1.248
			c0,0.176,0.059,0.363,0.176,0.563c2.074-0.527,3.885-0.785,5.432-0.773C121.666,86.527,123.143,87.207,123.752,88.555z
			 M120.834,90.682c-0.176-0.68-0.691-1.02-1.547-1.02c-0.398,0-1.166,0.088-2.303,0.264c-2.344,0.363-3.498,0.879-3.463,1.547
			c0.023,0.539,0.867,0.809,2.531,0.809c0.305,0,0.744-0.018,1.318-0.053c2.32-0.141,3.48-0.586,3.48-1.336
			C120.852,90.822,120.846,90.752,120.834,90.682z M119.868,79.572c-0.059-0.844-0.334-1.389-0.826-1.635
			c-0.328-0.164-1.031-0.258-2.109-0.281c-1.875-0.035-2.83,0.492-2.865,1.582c-0.035,1.102,0.943,1.746,2.936,1.934
			c0.246,0.023,0.486,0.035,0.721,0.035C119.235,81.207,119.95,80.662,119.868,79.572z"/>
		<path style="fill:#FFFFFF;" d="M127.602,72.225c0.258,0,0.492,0.035,0.703,0.105c0.984,0.328,1.629,0.938,1.934,1.828
			c0.094,0.27,0.141,0.539,0.141,0.809c0,0.598-0.24,1.189-0.721,1.775c-0.691,0.844-1.488,1.225-2.391,1.143
			s-1.635-0.568-2.197-1.459c-0.258-0.41-0.387-0.826-0.387-1.248c0-0.539,0.188-1.107,0.563-1.705
			C126.043,72.641,126.828,72.225,127.602,72.225z M130.274,79.713c-0.188,4.348-0.422,8.66-0.703,12.938l-4.5,0.422
			c0.164-1.828,0.246-3.686,0.246-5.572c0-2.344-0.129-4.723-0.387-7.137L130.274,79.713z"/>
		<path style="fill:#FFFFFF;" d="M130.801,84.863c0.082-2.672,0.744-4.969,1.986-6.891c1.477-2.297,3.451-3.445,5.924-3.445
			c2.613,0,4.5,0.645,5.66,1.934c0.949,1.055,1.693,2.941,2.232,5.66c0.211,1.066,0.316,2.074,0.316,3.023
			c0,2.039-0.504,3.738-1.512,5.098c-1.477,1.992-3.721,2.941-6.732,2.848c-2.766-0.082-4.793-0.785-6.082-2.109
			S130.707,87.617,130.801,84.863z M141.137,80.645c-0.82-0.773-1.594-1.16-2.32-1.16c-0.891,0-1.711,0.586-2.461,1.758
			c-0.668,1.043-1.002,2.057-1.002,3.041c0,0.926,0.305,1.875,0.914,2.848c0.68,1.09,1.465,1.635,2.355,1.635
			c1.02,0,1.951-0.533,2.795-1.6c0.809-1.008,1.213-2.033,1.213-3.076C142.631,82.965,142.133,81.816,141.137,80.645z
			 M138.061,70.959l1.723-5.308l4.045,0.982l-4.045,4.783L138.061,70.959z"/>
		<path style="fill:#FFFFFF;" d="M153.53,74.088l0.281,1.969c2.285-1.605,4.16-2.408,5.625-2.408c1.359,0,2.367,0.686,3.023,2.057
			c0.996,2.086,1.494,5.514,1.494,10.283c0,1.711-0.064,3.598-0.193,5.66l-4.746,0.158c0.375-2.531,0.563-4.67,0.563-6.416
			c0-2.133-0.281-3.674-0.844-4.623c-0.363-0.609-0.779-0.914-1.248-0.914c-0.902,0-2.004,1.061-3.305,3.182v9.299l-4.289-0.123
			l-0.721-17.42L153.53,74.088z"/>
		<path style="fill:#FFFFFF;" d="M65.551,113.76l-1.6,6.873l-4.518-0.703l5.66-20.092h4.465l6.012,19.125l-4.957,1.266l-1.512-6.469
			H65.551z M68.311,110.402l-1.002-4.236l-1.002,4.324L68.311,110.402z"/>
		<path style="fill:#FFFFFF;" d="M79.543,102.791l0.246,1.969c1.535-1.559,2.9-2.338,4.096-2.338c1.535,0,2.783,1.295,3.744,3.885
			c0.973-1.863,2.273-2.795,3.902-2.795c0.68,0,1.412,0.158,2.197,0.475c1.945,0.785,2.918,3.838,2.918,9.158
			c0,1.992-0.135,4.307-0.404,6.943l-3.463,0.141c0-0.727,0-1.412,0-2.057c0-6.293-0.678-9.439-2.031-9.439
			c-1.342,0-2.012,2.074-2.012,6.223c0,1.559,0.1,3.41,0.299,5.555h-3.973c0.141-1.734,0.211-3.293,0.211-4.676
			c0-2.918-0.305-5.016-0.914-6.293c-0.328-0.68-0.721-1.02-1.178-1.02c-0.809,0-1.822,1.072-3.041,3.217v9.299l-3.92-0.123
			l-0.65-17.42L79.543,102.791z"/>
		<path style="fill:#FFFFFF;" d="M102.483,101.877c0.785-0.176,1.553-0.264,2.303-0.264c3.633,0,5.971,1.887,7.014,5.66
			c0.539,1.957,0.779,4.207,0.721,6.75l-0.141,6.029l-4.553,0.281l-0.035-0.826c-5.719-0.199-8.701-1.605-8.947-4.219
			c-0.035-0.375-0.053-0.65-0.053-0.826c0-2.133,0.855-3.469,2.566-4.008c0.855-0.27,1.705-0.404,2.549-0.404
			c1.125,0,2.273,0.229,3.445,0.686c-0.012-2.016-0.035-3.082-0.07-3.199c-0.234-0.809-1.014-1.266-2.338-1.371
			c-1.125-0.094-2.203,0.844-3.234,2.813l-4.5-0.703C98.428,104.525,100.186,102.393,102.483,101.877z M105.401,113.18
			c-1.23,0-1.875,0.322-1.934,0.967c-0.094,0.938,1.289,1.699,4.148,2.285l-0.123-3.041
			C106.672,113.25,105.975,113.18,105.401,113.18z"/>
		<path style="fill:#FFFFFF;" d="M126.002,102.193l0.281,5.924l-7.594,8.631l8.578-1.6l0.844,4.799l-14.203,1.266l-0.703-4.096
			l7.734-9.861l-7.453,0.246l-0.984-4.939L126.002,102.193z"/>
		<path style="fill:#FFFFFF;" d="M128.551,112.863c0.082-2.672,0.744-4.969,1.986-6.891c1.477-2.297,3.451-3.445,5.924-3.445
			c2.613,0,4.5,0.645,5.66,1.934c0.949,1.055,1.693,2.941,2.232,5.66c0.211,1.066,0.316,2.074,0.316,3.023
			c0,2.039-0.504,3.738-1.512,5.098c-1.477,1.992-3.721,2.941-6.732,2.848c-2.766-0.082-4.793-0.785-6.082-2.109
			S128.457,115.617,128.551,112.863z M138.887,108.645c-0.82-0.773-1.594-1.16-2.32-1.16c-0.891,0-1.711,0.586-2.461,1.758
			c-0.668,1.043-1.002,2.057-1.002,3.041c0,0.926,0.305,1.875,0.914,2.848c0.68,1.09,1.465,1.635,2.355,1.635
			c1.02,0,1.951-0.533,2.795-1.6c0.809-1.008,1.213-2.033,1.213-3.076C140.381,110.965,139.883,109.816,138.887,108.645z"/>
		<path style="fill:#FFFFFF;" d="M149.065,102.088l0.281,1.969c2.285-1.605,4.16-2.408,5.625-2.408c1.359,0,2.367,0.686,3.023,2.057
			c0.996,2.086,1.494,5.514,1.494,10.283c0,1.711-0.064,3.598-0.193,5.66l-4.746,0.158c0.375-2.531,0.563-4.67,0.563-6.416
			c0-2.133-0.281-3.674-0.844-4.623c-0.363-0.609-0.779-0.914-1.248-0.914c-0.902,0-2.004,1.061-3.305,3.182v9.299l-4.289-0.123
			l-0.721-17.42L149.065,102.088z"/>
		<path style="fill:#FFFFFF;" d="M166.028,107.713c-0.188,4.348-0.422,8.66-0.703,12.938l-4.5,0.422
			c0.164-1.828,0.246-3.686,0.246-5.572c0-2.344-0.129-4.723-0.387-7.137L166.028,107.713z M162.828,105.041l4.045-4.783
			l-4.045-0.982l-1.723,5.308L162.828,105.041z"/>
		<path style="fill:#FFFFFF;" d="M171.776,101.877c0.785-0.176,1.553-0.264,2.303-0.264c3.633,0,5.971,1.887,7.014,5.66
			c0.539,1.957,0.779,4.207,0.721,6.75l-0.141,6.029l-4.553,0.281l-0.035-0.826c-5.719-0.199-8.701-1.605-8.947-4.219
			c-0.035-0.375-0.053-0.65-0.053-0.826c0-2.133,0.855-3.469,2.566-4.008c0.855-0.27,1.705-0.404,2.549-0.404
			c1.125,0,2.273,0.229,3.445,0.686c-0.012-2.016-0.035-3.082-0.07-3.199c-0.234-0.809-1.014-1.266-2.338-1.371
			c-1.125-0.094-2.203,0.844-3.234,2.813l-4.5-0.703C167.721,104.525,169.479,102.393,171.776,101.877z M174.694,113.18
			c-1.23,0-1.875,0.322-1.934,0.967c-0.094,0.938,1.289,1.699,4.148,2.285l-0.123-3.041
			C175.965,113.25,175.268,113.18,174.694,113.18z"/>
		<g>
			<path d="M86.78,78.043c0-1.192-0.675-2.716-3.89-3.203l-0.862-0.13v7.69l1.075-0.517C85.577,80.693,86.78,79.437,86.78,78.043z
				 M83.528,79.959v-3.461c1.752,0.46,1.752,1.259,1.752,1.545C85.28,78.393,85.026,79.063,83.528,79.959z"/>
			<path d="M83.528,89.933l3.607,4.308l8.31,0.092l-8.108-9.624c2.699-2.478,4.014-4.75,4.014-6.93c0-1.29-0.479-2.512-1.425-3.63
				c-2.283-2.708-5.848-4.081-10.593-4.081c-0.492,0-0.99,0.012-1.495,0.036l-0.704,0.033l-0.318,23.637l6.713,0.431V89.933z
				 M82.028,92.606l-3.693-0.237l0.279-20.792c0.241-0.006,0.48-0.009,0.719-0.009c4.282,0,7.461,1.194,9.446,3.549
				c0.721,0.852,1.071,1.723,1.071,2.662c0,1.838-1.362,3.954-4.049,6.29l-0.558,0.484l6.945,8.243l-4.347-0.048l-5.814-6.942
				V92.606z"/>
			<path d="M96.995,92.071l0.11,0.052c1.495,0.556,2.879,0.838,4.111,0.838c4.1,0,6.858-2.789,8.199-8.289l0.263-1.077l-6.484,0.926
				l-0.143,0.448c-0.462,1.442-1.207,2.055-2.484,1.993c-1.138-0.055-1.914-0.543-2.397-1.522l10.768-2.928l-0.068-0.636
				c-0.691-6.414-3.382-9.665-7.998-9.665c-0.071,0-0.145,0.001-0.218,0.002l-0.113,0.011c-4.914,0.862-7.547,3.989-7.824,9.295
				c-0.024,0.46-0.036,0.877-0.036,1.252C92.68,87.306,94.132,90.435,96.995,92.071z M94.214,81.598
				c0.238-4.558,2.374-7.138,6.529-7.886c0.039-0.001,0.078-0.001,0.117-0.001c3.636,0,5.747,2.52,6.44,7.691l-11.065,3.009
				l0.22,0.736c0.617,2.07,2.014,3.215,4.038,3.313c1.272,0.061,2.932-0.347,3.825-2.584l3.347-0.478
				c-1.229,4.077-3.346,6.063-6.448,6.063c-1.038,0-2.226-0.243-3.53-0.722c-2.359-1.377-3.507-3.984-3.507-7.967
				C94.18,82.42,94.192,82.029,94.214,81.598z"/>
			<path d="M104.702,79.209c-0.9-1.621-2.079-2.443-3.503-2.443c-1.362,0-2.457,0.477-3.254,1.417
				c-0.755,0.891-1.172,1.978-1.239,3.231l-0.057,1.05l8.512-2.428L104.702,79.209z M98.395,80.405
				c0.147-0.464,0.378-0.879,0.695-1.253c0.505-0.596,1.195-0.886,2.109-0.886c0.614,0,1.159,0.286,1.65,0.869L98.395,80.405z"/>
			<path d="M116.931,81.918c0.271,0.026,0.534,0.039,0.792,0.039c1.105,0,1.883-0.259,2.377-0.791
				c0.27-0.291,0.578-0.813,0.516-1.649c-0.079-1.122-0.495-1.879-1.239-2.25c-0.299-0.149-0.846-0.326-2.431-0.36
				c-3.059-0.054-3.601,1.421-3.629,2.308C113.283,80.29,113.882,81.631,116.931,81.918z M116.747,78.404
				c0.055,0,0.11,0,0.168,0.002c1.379,0.03,1.733,0.173,1.791,0.202c0.293,0.146,0.387,0.633,0.413,1.016v0.004
				c0.027,0.36-0.083,0.479-0.119,0.518c-0.245,0.264-1.043,0.363-1.928,0.279c-1.518-0.143-2.276-0.534-2.256-1.163
				C114.824,79.047,114.844,78.404,116.747,78.404z"/>
			<path d="M116.053,93.031c0.315,0,0.77-0.018,1.363-0.054c1.146-0.069,4.186-0.253,4.186-2.084c0-0.111-0.009-0.223-0.027-0.334
				l-0.014-0.064c-0.153-0.59-0.651-1.582-2.273-1.582c-0.441,0-1.231,0.089-2.418,0.272c-2.069,0.321-4.175,0.848-4.097,2.321
				C112.839,93.031,115.174,93.031,116.053,93.031z M117.099,90.667c1.362-0.21,1.942-0.255,2.188-0.255
				c0.695,0,0.772,0.27,0.819,0.452c-0.045,0.054-0.462,0.476-2.781,0.616c-0.554,0.034-0.979,0.051-1.272,0.051
				c-0.885,0-1.36-0.081-1.606-0.152C114.74,91.209,115.446,90.923,117.099,90.667z"/>
			<path d="M109.256,86.551c0,0.914,0.139,1.786,0.414,2.602c-0.73,0.747-1.1,1.644-1.1,2.672c0,0.499,0.095,1.044,0.282,1.618
				c0.629,1.959,2.816,2.969,6.683,3.086c0.292,0.01,0.577,0.015,0.855,0.015c3.278,0,5.622-0.681,7.146-2.072
				c0.274-0.249,0.511-0.493,0.722-0.733l-0.015,0.165l6.033-0.566l0.042-0.638c0.082-1.252,0.153-2.523,0.227-3.788
				c0.336,1.029,0.836,1.899,1.511,2.592c1.423,1.462,3.643,2.249,6.596,2.336c0.143,0.004,0.283,0.007,0.423,0.007
				c3.05,0,5.382-1.061,6.936-3.157c1.101-1.485,1.659-3.351,1.659-5.544c0-0.994-0.111-2.06-0.331-3.169
				c-0.57-2.88-1.359-4.848-2.41-6.016c-1.303-1.448-3.396-2.182-6.218-2.182c-2.732,0-4.938,1.275-6.554,3.788
				c-0.454,0.702-0.83,1.457-1.138,2.256c0.001-0.025,0.003-0.051,0.004-0.076l0.038-0.884l-6.192,0.754
				c-0.061-1.167-0.339-2.117-0.841-2.83c0.056-0.083,0.141-0.172,0.244-0.262c0.051,0.101,0.102,0.203,0.165,0.303
				c0.69,1.094,1.62,1.702,2.763,1.806c0.106,0.009,0.21,0.014,0.313,0.014c1.032,0,1.948-0.479,2.726-1.428
				c0.591-0.721,0.891-1.478,0.891-2.251c0-0.353-0.062-0.708-0.181-1.051c-0.384-1.12-1.192-1.893-2.406-2.297
				c-0.287-0.096-0.604-0.144-0.94-0.144c-0.982,0-1.957,0.498-2.897,1.479l-0.094,0.12c-0.057,0.09-0.099,0.18-0.149,0.27
				l-2.191-1.919l-0.477,0.313c-0.65,0.427-1.188,0.963-1.603,1.599c-1.703-0.708-3.725-0.773-6.054-0.15
				c-2.694,0.716-4.394,2.344-5.05,4.838c-0.157,0.588-0.236,1.15-0.236,1.67c0,1.544,0.613,2.925,1.824,4.117
				C109.733,84.621,109.256,85.539,109.256,86.551z M131.551,84.889v-0.002c0.077-2.521,0.705-4.71,1.867-6.508
				c1.342-2.087,3.072-3.101,5.293-3.101c2.38,0,4.097,0.567,5.103,1.686c0.854,0.948,1.545,2.732,2.055,5.304
				c0.2,1.014,0.302,1.982,0.302,2.878c0,1.865-0.459,3.43-1.364,4.651c-1.333,1.799-3.341,2.636-6.107,2.545
				c-2.552-0.076-4.425-0.709-5.567-1.883C131.996,89.292,131.464,87.418,131.551,84.889z M129.486,80.564
				c-0.17,3.814-0.379,7.641-0.622,11.399l-2.973,0.279c0.117-1.558,0.176-3.149,0.176-4.742c0-2.121-0.106-4.298-0.316-6.481
				L129.486,80.564z M124.379,82.856c0.111,1.564,0.188,3.12,0.188,4.644c0,0.336-0.017,0.669-0.022,1.004
				c-0.039-0.088-0.067-0.168-0.109-0.259c-0.573-1.268-1.739-2.055-3.473-2.349c0.497-0.167,0.942-0.378,1.333-0.632
				C123.261,84.641,123.953,83.833,124.379,82.856z M125.842,73.936c0.626-0.638,1.218-0.961,1.76-0.961
				c0.176,0,0.333,0.022,0.466,0.067c0.768,0.256,1.231,0.688,1.463,1.363c0.066,0.191,0.099,0.375,0.099,0.562
				c0,0.423-0.18,0.848-0.551,1.3c-0.536,0.655-1.102,0.931-1.742,0.871c-0.663-0.06-1.196-0.424-1.631-1.111
				c-0.019-0.031-0.026-0.06-0.043-0.09l1.428-0.291l-1.454-1.273C125.697,74.229,125.751,74.087,125.842,73.936z M110.352,79.695
				c0-0.39,0.063-0.821,0.187-1.286c0.517-1.963,1.82-3.198,3.985-3.773c0.94-0.251,1.821-0.379,2.619-0.379
				c1.121,0,2.129,0.241,2.997,0.716l0.695,0.381l0.342-0.715c0.247-0.517,0.574-0.949,0.991-1.31l1.789,1.566
				c-0.001,0.014-0.002,0.028-0.003,0.042c-0.769,0.398-1.279,0.978-1.515,1.74l-0.131,0.421l0.304,0.319
				c0.587,0.614,0.843,1.692,0.761,3.204c-0.081,1.505-0.699,2.612-1.893,3.384c-1.235,0.805-3.303,1.04-6.117,0.727l-0.149-0.017
				l-0.144,0.042c-1.396,0.408-2.104,1.07-2.104,1.968c0,0.311,0.094,0.627,0.279,0.943l0.285,0.485l0.546-0.139
				c2.003-0.51,3.798-0.742,5.243-0.75c2.042,0.01,3.269,0.533,3.75,1.598l0.001,0.002c0.627,1.374,0.759,2.137,0.759,2.536
				c0,0.354-0.226,0.981-1.303,1.96c-1.331,1.217-3.666,1.774-6.942,1.667c-2.14-0.065-4.797-0.473-5.304-2.049
				c-0.139-0.426-0.209-0.815-0.209-1.156c0-0.742,0.313-1.356,0.954-1.879l0.435-0.354l-0.217-0.517
				c-0.322-0.771-0.486-1.62-0.486-2.523c0-0.729,0.497-1.403,1.519-2.058l0.889-0.57l-0.832-0.651
				C110.999,82.228,110.352,81.058,110.352,79.695z"/>
			<path d="M138.623,89.516c1.256,0,2.394-0.634,3.38-1.88c0.914-1.14,1.378-2.333,1.378-3.545c0-1.303-0.563-2.625-1.673-3.931
				l-0.057-0.06c-2.168-2.045-4.325-1.767-5.928,0.739c-0.743,1.161-1.12,2.32-1.12,3.445c0,1.064,0.346,2.157,1.027,3.245
				C136.454,88.847,137.46,89.516,138.623,89.516z M136.988,81.647c0.6-0.937,1.215-1.412,1.829-1.412
				c0.518,0,1.115,0.312,1.775,0.928c0.855,1.016,1.289,2,1.289,2.928c0,0.875-0.343,1.728-1.051,2.611
				c-0.7,0.885-1.422,1.315-2.207,1.315c-0.619,0-1.182-0.419-1.72-1.283c-0.531-0.847-0.8-1.671-0.8-2.45
				C136.104,83.449,136.401,82.562,136.988,81.647z"/>
			<path d="M145.185,66.19l-5.9-1.433l-2.182,6.723l2.947,0.782L145.185,66.19z M139.019,70.437l1.264-3.893l2.189,0.531
				l-2.955,3.494L139.019,70.437z"/>
			<path d="M154.93,93.106v-9.857c1.535-2.451,2.341-2.645,2.555-2.645c0.241,0,0.481,0.343,0.603,0.546
				c0.49,0.828,0.739,2.254,0.739,4.241c0,1.701-0.187,3.823-0.555,6.306l-0.132,0.889l6.326-0.21l0.043-0.68
				c0.129-2.068,0.194-3.989,0.194-5.707c0-4.928-0.513-8.398-1.567-10.607c-0.777-1.625-2.057-2.483-3.7-2.483
				c-1.407,0-3.066,0.614-5.051,1.872l-0.221-1.544l-5.771,0.931l0.777,18.784L154.93,93.106z M152.895,74.95l0.347,2.424
				l1.001-0.703c3.907-2.747,6.359-3.107,7.54-0.642c0.942,1.975,1.421,5.326,1.421,9.96c0,1.498-0.051,3.155-0.151,4.933
				l-3.17,0.106c0.295-2.179,0.444-4.071,0.444-5.637c0-2.291-0.311-3.928-0.949-5.007c-0.631-1.058-1.378-1.28-1.893-1.28
				c-1.21,0-2.463,1.125-3.944,3.54l-0.11,0.181v8.738l-2.818-0.081l-0.664-16.056L152.895,74.95z"/>
			<path d="M65.354,111.283l3.896-0.171l-1.948-8.236L65.354,111.283z M67.372,109.693l-0.112,0.005l0.057-0.242L67.372,109.693z"/>
			<path d="M107.619,112.651c-0.858-0.147-1.604-0.222-2.219-0.222c-2.092,0-2.612,0.896-2.68,1.642
				c-0.187,1.864,2.618,2.659,4.744,3.095l0.938,0.192l-0.187-4.605L107.619,112.651z M104.214,114.214
				c0.013-0.138,0.433-0.285,1.187-0.285c0.388,0,0.846,0.036,1.367,0.107l0.059,1.447
				C104.234,114.835,104.213,114.227,104.214,114.214z"/>
			<path d="M139.402,108.099c-2.169-2.046-4.325-1.766-5.928,0.739c-0.743,1.161-1.12,2.32-1.12,3.445
				c0,1.064,0.346,2.157,1.027,3.245c0.823,1.319,1.829,1.988,2.992,1.988c1.256,0,2.394-0.634,3.38-1.88
				c0.914-1.14,1.378-2.333,1.378-3.545c0-1.303-0.563-2.625-1.673-3.931L139.402,108.099z M138.58,114.701
				c-0.7,0.885-1.422,1.315-2.207,1.315c-0.619,0-1.182-0.419-1.72-1.283c-0.531-0.847-0.8-1.671-0.8-2.45
				c0-0.834,0.297-1.721,0.884-2.637c0.6-0.937,1.215-1.412,1.829-1.412c0.518,0,1.115,0.312,1.775,0.928
				c0.855,1.016,1.289,2,1.289,2.928C139.631,112.965,139.288,113.818,138.58,114.701z"/>
			<path d="M160.148,105.106l2.947,0.782l5.135-6.072l-5.9-1.433L160.148,105.106z M165.517,100.7l-2.955,3.494l-0.498-0.132
				l1.264-3.893L165.517,100.7z"/>
			<path d="M176.912,112.651c-0.858-0.147-1.604-0.222-2.219-0.222c-2.092,0-2.612,0.896-2.68,1.642
				c-0.187,1.864,2.618,2.659,4.744,3.095l0.938,0.192l-0.187-4.605L176.912,112.651z M173.507,114.214
				c0.013-0.138,0.433-0.285,1.187-0.285c0.388,0,0.846,0.036,1.367,0.107l0.059,1.447
				C173.527,114.835,173.506,114.227,173.507,114.214z"/>
			<path d="M181.815,107.074c-1.139-4.121-3.742-6.21-7.736-6.21c-0.802,0-1.632,0.095-2.467,0.282
				c-2.314,0.52-4.13,2.475-5.419,5.792l-6.333,0.771l0.025,0.238c-0.259-1.885-0.66-3.404-1.214-4.565
				c-0.777-1.625-2.057-2.483-3.7-2.483c-1.407,0-3.066,0.614-5.051,1.872l-0.221-1.544l-5.771,0.931l0.177,4.28
				c-0.41-1.049-0.882-1.873-1.426-2.478c-1.303-1.448-3.396-2.182-6.218-2.182c-2.732,0-4.938,1.275-6.554,3.788
				c-1.312,2.029-2.02,4.476-2.106,7.273c-0.017,0.504-0.003,0.98,0.025,1.443l-7.138,1.331l6.359-7.228l-0.331-6.961l-15.123,0.414
				l1.282,6.436l6.481-0.214l-6.13,7.815l0.043-1.833c0.06-2.604-0.191-4.948-0.748-6.967c-1.139-4.121-3.742-6.21-7.736-6.21
				c-0.802,0-1.632,0.095-2.467,0.282c-2.379,0.534-4.229,2.591-5.524,6.08c-0.547-2.1-1.47-3.403-2.786-3.934
				c-2.56-1.031-4.721-0.542-6.252,1.42c-1.729-3.446-4.355-4.001-7.404-1.489l-0.163-1.307l-5.393,0.955l0.471,12.63L70.11,99.088
				h-5.584l-6.043,21.453l6.041,0.94l1.623-6.971h2.36l1.551,6.635l5.37-1.371l0.07,1.868l5.394,0.169v-9.873
				c1.5-2.59,2.213-2.667,2.291-2.667c0.099,0,0.29,0.156,0.501,0.592c0.558,1.17,0.841,3.179,0.841,5.97
				c0,1.356-0.07,2.909-0.208,4.615l-0.066,0.811h5.609l-0.076-0.819c-0.196-2.112-0.296-3.957-0.296-5.485
				c0-4.04,0.68-5.473,1.262-5.473c0.013,0,1.281,0.236,1.281,8.689v2.838l4.893-0.199l0.066-0.647
				c0.271-2.649,0.408-5.011,0.408-7.02c0-1.56-0.086-2.928-0.253-4.12l4.189,0.655c-0.067,0.02-0.134,0.04-0.201,0.061
				c-1.41,0.444-3.091,1.625-3.091,4.723c0,0.19,0.018,0.489,0.056,0.896c0.275,2.92,3.294,4.556,8.975,4.867l0.038,0.903
				l5.96-0.368l0.216,1.26l15.705-1.4l-0.611-3.474c0.335,0.924,0.804,1.717,1.426,2.355c1.423,1.462,3.643,2.249,6.596,2.336
				c0.143,0.004,0.283,0.007,0.423,0.007c3.05,0,5.382-1.061,6.936-3.157c0.313-0.422,0.57-0.883,0.795-1.366l0.15,3.617l5.76,0.166
				v-9.857c1.535-2.451,2.341-2.645,2.555-2.645c0.241,0,0.481,0.343,0.603,0.546c0.49,0.828,0.739,2.254,0.739,4.241
				c0,1.701-0.187,3.823-0.555,6.306l-0.132,0.889l6.326-0.21l0.043-0.68c0.129-2.068,0.194-3.989,0.194-5.707
				c0-0.891-0.023-1.718-0.056-2.515c0.084,1.356,0.138,2.704,0.138,4.027c0,1.855-0.082,3.708-0.243,5.505l-0.08,0.898l6.033-0.566
				l0.042-0.638c0.252-3.83,0.463-7.736,0.64-11.633l3.914,0.612c-0.067,0.02-0.134,0.04-0.201,0.061
				c-1.41,0.444-3.091,1.625-3.091,4.723c0,0.19,0.018,0.489,0.056,0.896c0.275,2.92,3.294,4.556,8.975,4.867l0.038,0.903
				l6.003-0.371l0.157-6.718C182.622,111.437,182.371,109.093,181.815,107.074z M71.169,119.313l-1.473-6.303h-4.741l-1.576,6.775
				l-2.994-0.465l5.277-18.731h3.346l5.609,17.844L71.169,119.313z M95.56,119.365l-2.03,0.083v-1.275
				c0-7.142-0.832-10.189-2.781-10.189c-2.476,0-2.762,3.979-2.762,6.973c0,1.372,0.077,2.985,0.229,4.805h-2.345
				c0.102-1.431,0.152-2.749,0.152-3.926c0-3.06-0.323-5.224-0.988-6.619c-0.576-1.193-1.326-1.443-1.854-1.443
				c-1.141,0-2.279,1.109-3.693,3.596l-0.098,0.172v8.723l-2.446-0.077l-0.601-16.068l2.553-0.452l0.341,2.722l1.086-1.103
				c1.382-1.403,2.58-2.114,3.562-2.114c1.182,0,2.205,1.143,3.041,3.396l0.587,1.583l0.781-1.496
				c1.204-2.308,2.865-2.892,5.154-1.972c1.602,0.647,2.448,3.573,2.448,8.463C95.897,114.938,95.784,117.028,95.56,119.365z
				 M111.646,119.347l-3.103,0.191l-0.032-0.756l-0.693-0.024c-5.255-0.183-8.023-1.374-8.227-3.539
				c-0.032-0.343-0.05-0.595-0.05-0.756c0-2.375,1.165-3.016,2.042-3.292c0.778-0.245,1.56-0.37,2.323-0.37
				c1.026,0,2.094,0.213,3.173,0.634l1.029,0.401l-0.007-1.104c-0.019-3.131-0.057-3.261-0.1-3.404
				c-0.227-0.78-0.931-1.745-2.996-1.91c-1.38-0.109-2.578,0.784-3.701,2.738l-3.092-0.483c1.103-2.949,2.592-4.651,4.434-5.064
				c0.728-0.163,1.447-0.246,2.139-0.246c3.282,0,5.341,1.671,6.291,5.109c0.517,1.877,0.75,4.076,0.693,6.533L111.646,119.347z
				 M102.311,109.447l0.063-0.121c0.602-1.146,1.535-2.496,2.511-2.413c1.47,0.117,1.626,0.655,1.661,0.762
				c0.011,0.078,0.033,0.433,0.049,2.015c-0.907-0.259-1.807-0.389-2.688-0.389C103.378,109.301,102.845,109.35,102.311,109.447z
				 M114.531,120.404l-0.529-3.086l8.521-10.865l-8.425,0.278l-0.687-3.443l11.877-0.325l0.231,4.886l-8.828,10.034l9.969-1.859
				l0.571,3.249L114.531,120.404z M142.556,117.795c-1.333,1.799-3.338,2.634-6.107,2.545c-2.552-0.076-4.425-0.709-5.567-1.883
				c-1.135-1.166-1.667-3.04-1.58-5.569v-0.002c0.077-2.521,0.705-4.71,1.867-6.508c1.342-2.087,3.072-3.101,5.293-3.101
				c2.38,0,4.097,0.567,5.103,1.686c0.854,0.948,1.545,2.732,2.055,5.304c0.2,1.014,0.302,1.982,0.302,2.878
				C143.92,115.01,143.461,116.575,142.556,117.795z M158.587,118.921l-3.17,0.106c0.295-2.179,0.444-4.071,0.444-5.637
				c0-2.291-0.311-3.928-0.949-5.007c-0.631-1.058-1.378-1.28-1.893-1.28c-1.21,0-2.463,1.125-3.944,3.54l-0.11,0.181v8.738
				l-2.818-0.081l-0.664-16.056l2.947-0.476l0.347,2.424l1.001-0.703c3.907-2.746,6.36-3.107,7.54-0.642
				c0.942,1.975,1.421,5.326,1.421,9.96C158.739,115.486,158.688,117.143,158.587,118.921z M164.618,119.963l-2.973,0.279
				c0.117-1.558,0.176-3.149,0.176-4.742c0-2.121-0.106-4.298-0.316-6.481l3.735-0.455
				C165.07,112.378,164.861,116.206,164.618,119.963z M180.939,119.347l-3.103,0.191l-0.032-0.756l-0.693-0.024
				c-5.255-0.183-8.023-1.374-8.227-3.539c-0.032-0.343-0.05-0.595-0.05-0.756c0-2.375,1.165-3.016,2.042-3.292
				c0.778-0.245,1.56-0.37,2.323-0.37c1.026,0,2.094,0.213,3.173,0.634l1.029,0.401l-0.007-1.104
				c-0.019-3.131-0.057-3.261-0.1-3.404c-0.227-0.78-0.931-1.745-2.996-1.91c-1.38-0.109-2.578,0.784-3.701,2.738l-3.092-0.483
				c1.103-2.949,2.592-4.651,4.434-5.064c0.728-0.163,1.447-0.246,2.139-0.246c3.282,0,5.341,1.671,6.291,5.109
				c0.517,1.877,0.75,4.076,0.693,6.533L180.939,119.347z M171.604,109.447l0.063-0.121c0.602-1.146,1.538-2.496,2.511-2.413
				c1.47,0.117,1.626,0.655,1.661,0.762c0.011,0.078,0.033,0.433,0.049,2.015c-0.907-0.259-1.807-0.389-2.688-0.389
				C172.671,109.301,172.138,109.35,171.604,109.447z"/>
		</g>
	</g>
</g>
</svg>
