<?xml version="1.0" encoding="utf-8"?>
<!-- Generator: Adobe Illustrator 21.0.0, SVG Export Plug-In . SVG Version: 6.00 Build 0)  -->
<svg version="1.1" id="Capa_1" xmlns="http://www.w3.org/2000/svg" xmlns:xlink="http://www.w3.org/1999/xlink" x="0px" y="0px"
	 viewBox="0 0 32 32" style="enable-background:new 0 0 32 32;" xml:space="preserve">
<g>
	<g>
		<path style="opacity:0.2;fill-rule:evenodd;clip-rule:evenodd;" d="M3.437,4.507c-4.572,4.32-4.585,19.957-0.023,24.285
			c4.513,4.278,20.659,4.278,25.172,0c4.562-4.327,4.549-19.965-0.022-24.285C23.95,0.146,8.05,0.146,3.437,4.507z"/>
		<path style="fill-rule:evenodd;clip-rule:evenodd;fill:#FFFFFF;" d="M3.437,3.271c-4.572,4.32-4.585,19.959-0.023,24.286
			c4.513,4.278,20.659,4.278,25.172,0c4.562-4.327,4.549-19.967-0.022-24.286C23.95-1.09,8.05-1.09,3.437,3.271z"/>
		<path style="fill-rule:evenodd;clip-rule:evenodd;fill:#FEC31D;" d="M4.617,3.644c-4.142,3.914-4.154,18.082-0.02,22.002
			c4.089,3.877,18.718,3.877,22.806,0c4.134-3.92,4.122-18.088-0.019-22.002C23.203-0.308,8.797-0.308,4.617,3.644z"/>
		<path style="fill-rule:evenodd;clip-rule:evenodd;fill:#C96900;" d="M27.403,22.684c-4.089,3.877-18.718,3.877-22.806,0
			c-1.837-1.741-2.855-5.506-3.056-9.496c-0.25,4.974,0.767,10.287,3.056,12.459c4.089,3.877,18.718,3.877,22.806,0
			c2.289-2.171,3.306-7.485,3.056-12.459C30.258,17.177,29.24,20.943,27.403,22.684z"/>
		<path style="fill-rule:evenodd;clip-rule:evenodd;fill:#FFB700;" d="M3.292,20.875c0.376,0.727,0.811,1.341,1.305,1.809
			c4.089,3.877,18.718,3.877,22.806,0c1.578-1.495,2.551-4.483,2.922-7.826C22.654,20.211,13.625,22.171,3.292,20.875z"/>
		<path style="fill-rule:evenodd;clip-rule:evenodd;fill:#FFD30E;" d="M4.617,3.644c-1.241,1.173-2.112,3.267-2.611,5.73
			c7.167-7.076,21.537-8.205,27.621-1.508c-0.518-1.801-1.266-3.298-2.244-4.222C23.203-0.308,8.797-0.308,4.617,3.644z"/>
		<path style="fill-rule:evenodd;clip-rule:evenodd;fill:#FFFF79;" d="M7.88,2.698C6.122,3.172,4.696,4.325,4.696,5.273
			S6.122,6.604,7.88,6.131c1.76-0.474,3.185-1.627,3.185-2.574S9.64,2.225,7.88,2.698z"/>
		<path style="fill-rule:evenodd;clip-rule:evenodd;fill:#FFFF79;" d="M13.16,1.416c-0.992,0.06-1.889,0.515-2.004,1.018
			c-0.115,0.503,0.595,0.863,1.587,0.804c0.992-0.059,1.889-0.514,2.003-1.017C14.861,1.718,14.151,1.357,13.16,1.416z"/>
		<path style="fill-rule:evenodd;clip-rule:evenodd;fill:#FEE147;" d="M25.3,20.557c-1.111,0.512-1.916,1.438-1.799,2.068
			c0.118,0.631,1.113,0.727,2.224,0.214c1.111-0.512,1.916-1.438,1.799-2.07C27.406,20.14,26.41,20.045,25.3,20.557z"/>
		<path style="fill-rule:evenodd;clip-rule:evenodd;fill:#FEE147;" d="M30.325,14.858c-0.371,3.343-1.344,6.33-2.922,7.826
			c-4.089,3.877-18.718,3.877-22.806,0c-0.494-0.468-0.929-1.082-1.305-1.809c-1.02-1.974-1.604-4.77-1.752-7.687
			c-0.029,0.58-0.041,1.165-0.036,1.75c0.003-0.404,0.015-0.807,0.036-1.207c0.201,3.989,1.219,7.755,3.056,9.497
			c4.089,3.875,18.718,3.875,22.806,0c1.837-1.742,2.855-5.508,3.056-9.497c0.02,0.401,0.032,0.804,0.036,1.208
			c0.006-0.585-0.006-1.171-0.036-1.752C30.431,13.751,30.386,14.31,30.325,14.858z"/>
		<path style="fill-rule:evenodd;clip-rule:evenodd;fill:#E6E6E6;" d="M3.414,26.89c-2.226-2.111-3.362-6.915-3.412-11.783
			c-0.052,5.09,1.085,10.241,3.413,12.449c4.512,4.278,20.658,4.278,25.17,0c2.328-2.208,3.465-7.36,3.413-12.449
			c-0.049,4.867-1.186,9.672-3.412,11.783C24.073,31.168,7.927,31.168,3.414,26.89z"/>
	</g>
	<g>
		<g>
			<path style="fill:#C96900;" d="M19.743,22.386c-1.997,0-3.622-1.545-3.622-3.441c0-0.057,0.002-0.114,0.005-0.171l-3.688-1.89
				c-0.629,0.46-1.407,0.716-2.21,0.716c-1.997,0-3.623-1.545-3.623-3.441s1.626-3.441,3.623-3.441c0.781,0,1.522,0.233,2.14,0.664
				l3.758-1.928c-0.003-0.057-0.005-0.114-0.005-0.171c0-1.897,1.625-3.441,3.622-3.441s3.623,1.545,3.623,3.441
				s-1.626,3.441-3.623,3.441c-0.78,0-1.519-0.233-2.135-0.662l-3.763,1.929c0.003,0.056,0.005,0.113,0.005,0.168
				c0,0.026-0.002,0.054-0.002,0.08l3.76,1.928c0.616-0.429,1.355-0.661,2.135-0.661c1.997,0,3.623,1.543,3.623,3.44
				C23.366,20.841,21.74,22.386,19.743,22.386z M17.886,18.003l-0.117,0.512c-0.032,0.144-0.049,0.289-0.049,0.429
				c0,1.06,0.907,1.923,2.023,1.923c1.116,0,2.024-0.863,2.024-1.923c0-1.06-0.908-1.921-2.024-1.921
				c-0.554,0-1.071,0.208-1.456,0.586L17.886,18.003z M10.229,12.234c-1.116,0-2.024,0.863-2.024,1.923s0.908,1.923,2.024,1.923
				c0.57,0,1.116-0.23,1.5-0.631l0.377-0.394l0.112-0.537c0.024-0.117,0.034-0.238,0.034-0.361c0-0.145-0.016-0.286-0.047-0.42
				l-0.127-0.529l-0.392-0.386C11.301,12.442,10.783,12.234,10.229,12.234z M17.888,10.223l0.4,0.392
				c0.387,0.38,0.903,0.588,1.456,0.588c1.116,0,2.024-0.863,2.024-1.923s-0.908-1.923-2.024-1.923
				c-1.116,0-2.023,0.863-2.023,1.923c0,0.142,0.016,0.286,0.049,0.429L17.888,10.223z"/>
		</g>
		<path style="fill-rule:evenodd;clip-rule:evenodd;fill:#FFFFFF;" d="M19.743,11.963c1.56,0,2.824-1.201,2.824-2.682
			s-1.264-2.682-2.824-2.682c-1.559,0-2.823,1.201-2.823,2.682c0,0.204,0.024,0.401,0.069,0.591l-4.728,2.424
			c-0.514-0.506-1.235-0.821-2.033-0.821c-1.559,0-2.824,1.202-2.824,2.682c0,1.482,1.265,2.682,2.824,2.682
			c0.829,0,1.575-0.339,2.092-0.88l4.67,2.394c-0.045,0.191-0.069,0.389-0.069,0.591c0,1.482,1.264,2.682,2.823,2.682
			c1.56,0,2.824-1.201,2.824-2.682c0-1.48-1.264-2.681-2.824-2.681c-0.797,0-1.517,0.313-2.03,0.818l-4.712-2.417
			c0.033-0.165,0.05-0.333,0.05-0.508c0-0.202-0.023-0.398-0.068-0.588l4.73-2.426C18.227,11.648,18.947,11.963,19.743,11.963z"/>
	</g>
</g>
</svg>
