<?xml version="1.0" encoding="utf-8"?>
<!-- Generator: Adobe Illustrator 21.0.0, SVG Export Plug-In . SVG Version: 6.00 Build 0)  -->
<svg version="1.1" id="Capa_1" xmlns="http://www.w3.org/2000/svg" xmlns:xlink="http://www.w3.org/1999/xlink" x="0px" y="0px"
	 viewBox="0 0 200 61.34" style="enable-background:new 0 0 200 61.34;" xml:space="preserve">
<g>
	<g>
		<path style="opacity:0.2;fill-rule:evenodd;clip-rule:evenodd;" d="M6.257,8.636c-8.321,8.28-8.348,38.26-0.04,46.553
			c8.215,8.202,179.353,8.2,187.566,0c8.307-8.294,8.282-38.273-0.04-46.553C185.342,0.279,14.657,0.279,6.257,8.636z"/>
		<path style="fill-rule:evenodd;clip-rule:evenodd;fill:#FFFFFF;" d="M6.257,6.268c-8.321,8.28-8.348,38.26-0.04,46.553
			c8.215,8.202,179.353,8.2,187.566,0c8.307-8.294,8.282-38.273-0.04-46.553C185.342-2.089,14.657-2.089,6.257,6.268z"/>
		<path style="fill-rule:evenodd;clip-rule:evenodd;fill:#FEC31D;" d="M8.406,6.982C0.867,14.486,0.843,41.646,8.371,49.16
			c7.443,7.431,175.817,7.431,183.259,0c7.527-7.513,7.504-34.674-0.035-42.178C183.982-0.589,16.018-0.589,8.406,6.982z"/>
		<path style="fill-rule:evenodd;clip-rule:evenodd;fill:#C96900;" d="M191.629,43.482c-7.443,7.43-175.816,7.43-183.259,0
			c-3.344-3.339-5.199-10.557-5.566-18.204C2.349,34.812,4.202,45.001,8.371,49.16c7.441,7.431,175.817,7.431,183.259,0
			c4.168-4.16,6.022-14.348,5.564-23.882C196.829,32.925,194.974,40.143,191.629,43.482z"/>
		<path style="fill-rule:evenodd;clip-rule:evenodd;fill:#FFAC04;" d="M5.995,40.013c0.683,1.392,1.476,2.571,2.376,3.469
			c7.443,7.43,175.816,7.43,183.259,0c2.871-2.868,4.646-8.597,5.322-15.002C182.982,38.739,24.808,42.499,5.995,40.013z"/>
		<path style="fill-rule:evenodd;clip-rule:evenodd;fill:#FFD30E;" d="M8.406,6.982C6.147,9.231,4.56,13.246,3.652,17.968
			c13.05-13.564,180.948-15.729,192.027-2.89c-0.941-3.451-2.304-6.322-4.085-8.095C183.982-0.591,16.016-0.591,8.406,6.982z"/>
		<path style="fill-rule:evenodd;clip-rule:evenodd;fill:#FFEF91;" d="M14.349,5.17c-3.204,0.908-5.8,3.118-5.8,4.934
			s2.596,2.553,5.8,1.645c3.202-0.908,5.798-3.118,5.798-4.935C20.148,4.999,17.551,4.262,14.349,5.17z"/>
		<path style="fill-rule:evenodd;clip-rule:evenodd;fill:#FFEF91;" d="M23.961,3.881c-1.806,0.112-3.439,0.985-3.648,1.951
			c-0.212,0.965,1.083,1.655,2.889,1.541c1.805-0.112,3.437-0.985,3.648-1.951C27.058,4.459,25.765,3.768,23.961,3.881z"/>
		<path style="fill-rule:evenodd;clip-rule:evenodd;fill:#FEE147;" d="M187.8,39.402c-2.022,0.982-3.488,2.758-3.275,3.966
			c0.214,1.208,2.026,1.392,4.05,0.411c2.024-0.982,3.489-2.757,3.275-3.966C191.637,38.605,189.822,38.421,187.8,39.402z"/>
		<path style="fill-rule:evenodd;clip-rule:evenodd;fill:#FEE147;" d="M196.951,28.48c-0.676,6.405-2.451,12.133-5.322,15.002
			c-7.443,7.43-175.816,7.43-183.259,0c-0.899-0.898-1.692-2.077-2.376-3.469c-1.859-3.784-2.923-9.144-3.19-14.735
			c-0.053,1.112-0.074,2.234-0.065,3.353c0.007-0.772,0.028-1.544,0.065-2.312c0.367,7.649,2.222,14.866,5.566,18.204
			c7.443,7.43,175.816,7.43,183.259,0c3.344-3.338,5.199-10.555,5.564-18.204c0.037,0.768,0.059,1.541,0.067,2.316
			c0.009-1.121-0.013-2.245-0.067-3.358C197.144,26.356,197.062,27.427,196.951,28.48z"/>
		<path style="fill-rule:evenodd;clip-rule:evenodd;fill:#E6E6E6;" d="M6.217,51.544c-4.054-4.046-6.123-13.256-6.214-22.588
			c-0.095,9.758,1.976,19.634,6.214,23.865c8.215,8.2,179.35,8.2,187.566,0c4.236-4.23,6.308-14.107,6.214-23.865
			c-0.09,9.332-2.161,18.543-6.214,22.588C185.569,59.745,14.431,59.745,6.217,51.544z"/>
	</g>
	<path style="fill:#FFFFFF;" d="M64.497,11.567c1.607,7.755,2.412,13.608,2.412,17.561c0,1.953-0.203,3.448-0.608,4.485
		c-1.218,3.096-3.502,5.154-6.854,6.177c-0.691,0.21-1.45,0.315-2.276,0.315c-2.795,0-5.884-1.436-9.265-4.306l3.967-5.478
		c1.548,2.284,3.021,3.427,4.419,3.427c0.33,0,0.661-0.068,0.991-0.203c1.684-0.691,2.675-2.51,2.976-5.455
		c0.03-0.301,0.045-0.632,0.045-0.992c0-2.976-1.127-7.424-3.381-13.345L64.497,11.567z"/>
	<path style="fill:#FFFFFF;" d="M79.509,37.648l-0.248-2.209c-2.449,1.653-4.463,2.479-6.041,2.479
		c-1.548,0-2.667-0.812-3.358-2.435c-1.383-3.246-2.014-10.609-1.894-22.091l5.41-0.203c-0.105,2.705-0.158,5.087-0.158,7.146
		c0,7.515,0.729,11.271,2.187,11.271c0.826,0,1.894-1.082,3.201-3.246V13.798h5.229l-0.721,23.579L79.509,37.648z"/>
	<path style="fill:#FFFFFF;" d="M103.877,33.207c0.706,1.548,1.06,2.765,1.06,3.651c0,0.947-0.662,2.021-1.984,3.224
		c-1.908,1.743-5.101,2.539-9.58,2.39c-4.463-0.136-7.025-1.232-7.687-3.291c-0.211-0.646-0.316-1.24-0.316-1.781
		c0-1.247,0.526-2.299,1.578-3.156c-0.466-1.111-0.698-2.313-0.698-3.606c0-1.277,0.796-2.427,2.39-3.449
		c-1.939-1.518-2.908-3.298-2.908-5.342c0-0.586,0.09-1.218,0.271-1.894c0.751-2.855,2.683-4.696,5.793-5.522
		c1.292-0.346,2.494-0.519,3.606-0.519c1.608,0,3.044,0.346,4.306,1.036c0.496-1.036,1.225-1.87,2.186-2.502l4.171,3.652
		c-1.623,0.33-2.607,1.052-2.953,2.164c0.946,0.991,1.359,2.6,1.239,4.823c-0.12,2.24-1.074,3.938-2.862,5.095
		c-1.292,0.842-3.119,1.263-5.477,1.263c-0.917,0-1.916-0.061-2.998-0.181c-1.338,0.391-2.007,0.925-2.007,1.601
		c0,0.226,0.075,0.466,0.226,0.722c2.66-0.677,4.981-1.007,6.966-0.992C101.201,30.608,103.095,31.479,103.877,33.207z
		 M100.135,35.935c-0.226-0.872-0.887-1.308-1.983-1.308c-0.512,0-1.496,0.112-2.953,0.338c-3.006,0.466-4.486,1.127-4.441,1.983
		c0.03,0.691,1.112,1.037,3.246,1.037c0.391,0,0.954-0.022,1.691-0.067c2.975-0.181,4.463-0.751,4.463-1.713
		C100.158,36.114,100.15,36.025,100.135,35.935z M98.895,21.688c-0.075-1.082-0.428-1.78-1.06-2.096
		c-0.421-0.211-1.322-0.331-2.705-0.361c-2.404-0.045-3.629,0.632-3.674,2.029c-0.045,1.412,1.209,2.239,3.765,2.479
		c0.315,0.03,0.623,0.045,0.924,0.045C98.083,23.784,99,23.085,98.895,21.688z"/>
	<path style="fill:#FFFFFF;" d="M111.271,14.384c1.007-0.225,1.991-0.338,2.953-0.338c4.658,0,7.656,2.42,8.994,7.259
		c0.691,2.51,1,5.396,0.925,8.656l-0.181,7.731l-5.838,0.361l-0.046-1.06c-7.334-0.256-11.158-2.06-11.474-5.41
		c-0.045-0.481-0.067-0.834-0.067-1.06c0-2.735,1.097-4.448,3.291-5.14c1.097-0.346,2.187-0.519,3.269-0.519
		c1.442,0,2.915,0.293,4.418,0.879c-0.015-2.584-0.045-3.952-0.09-4.103c-0.301-1.037-1.3-1.623-2.998-1.758
		c-1.442-0.12-2.825,1.082-4.147,3.606l-5.771-0.901C106.071,17.78,108.325,15.046,111.271,14.384z M115.013,28.879
		c-1.578,0-2.404,0.413-2.479,1.239c-0.12,1.203,1.653,2.18,5.32,2.931l-0.158-3.899C116.644,28.969,115.749,28.879,115.013,28.879z
		"/>
	<path style="fill:#FFFFFF;" d="M125.72,38.437c0.045-9.143-0.188-16.446-0.698-21.911l6.312-0.519l-0.203,2.052
		c3.096-1.924,6.252-2.833,9.468-2.728l0.608,5.455c-3.696,0-6.297,0.766-7.799,2.297c-1.037,1.065-1.556,3.774-1.556,8.127
		c0,1.98,0.104,4.314,0.315,7.001L125.72,38.437z"/>
	<path style="fill:#FFFFFF;" d="M142.422,37.084c-0.42-0.691-0.629-1.345-0.629-1.961c0-0.526,0.149-1.029,0.449-1.511
		c0.644-1.021,1.497-1.578,2.561-1.668s1.992,0.346,2.786,1.308c0.554,0.661,0.831,1.353,0.831,2.073
		c0,0.331-0.053,0.646-0.157,0.947c-0.359,1.037-1.116,1.751-2.27,2.142c-0.27,0.09-0.539,0.135-0.809,0.135
		C144.286,38.549,143.365,38.061,142.422,37.084z M143.077,28.383c0.331-2.99,0.496-6.604,0.496-10.843
		c0-2.539-0.061-5.305-0.181-8.296l7.417,1.533c-1.368,7.409-2.473,13.57-3.313,18.484L143.077,28.383z"/>
	<g>
		<path style="fill:#C96900;" d="M77.857,28.15c-1.618,2.63-2.369,2.707-2.451,2.707c-0.015,0-1.436-0.286-1.436-10.521
			c0-2.039,0.053-4.434,0.157-7.116l0.032-0.809l-6.934,0.26l-0.008,0.715c-0.046,4.398,0.015,8.177,0.186,11.361
			c-0.351-3.568-1.072-8.014-2.175-13.332l-0.164-0.793l-9.136,2.637l0.29,0.761c2.211,5.808,3.332,10.208,3.332,13.078
			c0,0.332-0.012,0.638-0.041,0.916c-0.27,2.636-1.115,4.263-2.512,4.837c-0.24,0.098-0.479,0.147-0.709,0.147
			c-1.111,0-2.424-1.071-3.797-3.098l-0.601-0.886l-5.002,6.906l0.529,0.449c3.505,2.976,6.785,4.484,9.75,4.484
			c0.896,0,1.735-0.117,2.496-0.348c3.564-1.088,6.031-3.314,7.334-6.622c0.442-1.137,0.658-2.693,0.658-4.758
			c0-0.388-0.014-0.811-0.03-1.236c0.325,3.613,0.837,6.229,1.542,7.887c1.019,2.389,2.765,2.891,4.05,2.891
			c1.511,0,3.295-0.638,5.431-1.944l0.193,1.726l5.002-0.375l0.765-25.026h-6.754V28.15z M65.603,33.338
			c-1.141,2.897-3.226,4.773-6.373,5.733c-0.619,0.188-1.312,0.283-2.06,0.283c-2.455,0-5.226-1.239-8.245-3.685l2.945-4.067
			c1.924,2.508,3.814,3.407,5.698,2.636c1.95-0.801,3.105-2.844,3.436-6.071c0.033-0.324,0.049-0.681,0.049-1.069
			c0-2.965-1.028-7.173-3.143-12.849l6.015-1.736c1.482,7.283,2.233,12.87,2.233,16.615C66.158,30.976,65.971,32.394,65.603,33.338z
			 M79.357,28.569V14.548h3.707L82.388,36.68l-2.213,0.166l-0.306-2.722l-1.027,0.692c-2.311,1.561-4.202,2.352-5.621,2.352
			c-1.246,0-2.095-0.629-2.669-1.979c-1.308-3.068-1.926-10.157-1.84-21.074l3.888-0.146c-0.086,2.376-0.129,4.515-0.129,6.366
			c0,8.539,0.851,12.021,2.936,12.021c1.151,0,2.336-1.113,3.843-3.608L79.357,28.569z"/>
		<path style="fill:#C96900;" d="M98.171,18.921c-0.336-0.168-1.015-0.396-3.026-0.44c-3.573-0.082-4.396,1.461-4.438,2.755
			c-0.041,1.288,0.697,2.898,4.442,3.25c0.341,0.033,0.671,0.048,0.995,0.048c1.356,0,2.303-0.31,2.893-0.946
			c0.462-0.498,0.665-1.155,0.605-1.954C99.549,20.275,99.054,19.362,98.171,18.921z M98.146,21.744
			c0.042,0.553-0.146,0.757-0.209,0.824c-0.283,0.305-0.903,0.466-1.793,0.466c-0.277,0-0.561-0.014-0.854-0.042
			c-2.076-0.195-3.114-0.771-3.084-1.709c0.01-0.327,0.041-1.306,2.694-1.306c0.069,0,0.141,0.001,0.213,0.002
			c1.72,0.038,2.241,0.21,2.387,0.282c0.374,0.187,0.591,0.684,0.646,1.476V21.744z"/>
		<path style="fill:#C96900;" d="M94.004,38.735c0.401,0,0.979-0.022,1.737-0.068c2.218-0.135,5.167-0.537,5.167-2.462
			c0-0.134-0.012-0.267-0.034-0.399l-0.013-0.059c-0.181-0.698-0.771-1.87-2.709-1.87c-0.558,0-1.561,0.113-3.068,0.347
			c-2.41,0.374-5.166,1.025-5.075,2.757C90.083,38.735,92.932,38.735,94.004,38.735z M95.314,35.706
			c1.756-0.272,2.513-0.329,2.838-0.329c0.91,0,1.145,0.339,1.248,0.714c0.005,0.038,0.008,0.076,0.008,0.114
			c0,0.008-0.161,0.746-3.759,0.964c-0.718,0.044-1.266,0.066-1.646,0.066c-2.006,0-2.445-0.317-2.494-0.317
			c-0.001,0-0.001,0-0.002,0C91.547,36.847,91.98,36.223,95.314,35.706z"/>
		<path style="fill:#C96900;" d="M117.822,28.41c-1.087-0.187-2.032-0.281-2.81-0.281c-2.522,0-3.146,1.045-3.226,1.915
			c-0.222,2.221,3.271,3.198,5.916,3.739l0.938,0.192l-0.222-5.463L117.822,28.41z M113.28,30.187
			c0.046-0.503,1.227-0.558,1.732-0.558c0.551,0,1.208,0.056,1.958,0.165l0.094,2.313C113.297,31.207,113.269,30.3,113.28,30.187z"
			/>
		<path style="fill:#C96900;" d="M141.206,21.536h0.838l-0.772-6.934l-0.649-0.021c-2.902-0.098-5.793,0.611-8.603,2.1l0.148-1.496
			l-7.964,0.654l0.07,0.755c0.28,2.994,0.473,6.602,0.586,10.747c-0.102-2.275-0.405-4.368-0.92-6.237
			c-1.433-5.182-4.702-7.809-9.717-7.809c-1.01,0-2.058,0.12-3.116,0.356h-0.001c-1.477,0.332-2.787,1.154-3.941,2.414l-5.209-4.561
			l-0.477,0.314c-0.858,0.564-1.558,1.282-2.087,2.139c-2.173-0.957-4.778-1.06-7.791-0.253c-3.378,0.897-5.506,2.935-6.325,6.053
			c-0.197,0.734-0.297,1.437-0.297,2.088c0,1.991,0.821,3.766,2.445,5.29c-1.279,1.031-1.926,2.206-1.926,3.501
			c0,1.195,0.188,2.334,0.562,3.393c-0.958,0.938-1.442,2.068-1.442,3.37c0,0.617,0.119,1.295,0.353,2.011
			c0.777,2.417,3.518,3.663,8.376,3.812c0.354,0.012,0.7,0.018,1.04,0.018c4.129,0,7.178-0.874,9.069-2.603
			c1.5-1.364,2.229-2.6,2.229-3.778c0-1.003-0.368-2.299-1.126-3.961c-0.814-1.8-2.615-2.813-5.356-3.017
			c1.05-0.23,1.949-0.589,2.69-1.071c1.908-1.235,2.967-3.045,3.172-5.374l5.628,0.879l0.249-0.476
			c0.8-1.526,2.047-3.328,3.424-3.207c2.03,0.161,2.262,0.958,2.323,1.159c0.015,0.1,0.047,0.585,0.066,2.896
			c-2.427-0.745-4.78-0.766-7.154-0.018c-1.74,0.548-3.815,2.009-3.815,5.855c0,0.24,0.022,0.616,0.07,1.13
			c0.345,3.656,4.213,5.693,11.501,6.06l0.05,1.136l7.287-0.451l0.197-8.42c0.015-0.658,0.002-1.292-0.014-1.923
			c0.077,3.157,0.109,6.609,0.091,10.377l-0.004,0.78l8.01-0.28l-0.061-0.78c-0.208-2.646-0.313-4.982-0.313-6.942
			c0-5.145,0.73-6.975,1.341-7.602C135.291,22.234,137.735,21.536,141.206,21.536z M106.586,16.757
			c-0.665,0.86-1.268,1.893-1.809,3.089c-0.19-0.654-0.442-1.242-0.799-1.717c0.354-0.638,1.09-1.063,2.234-1.296L106.586,16.757z
			 M101.078,27.552c-1.627,1.061-4.303,1.372-7.983,0.965L92.945,28.5l-0.144,0.042c-1.689,0.493-2.546,1.273-2.546,2.32
			c0,0.36,0.11,0.731,0.328,1.102l0.285,0.486l0.546-0.14c2.584-0.657,4.844-0.977,6.778-0.969c2.709,0.014,4.345,0.726,5,2.175
			l0.001,0.002c0.658,1.442,0.992,2.566,0.992,3.34c0,0.712-0.602,1.635-1.74,2.67c-1.748,1.598-4.795,2.338-9.051,2.193
			c-4.091-0.124-6.444-1.057-6.997-2.773c-0.186-0.568-0.279-1.09-0.279-1.549c0-1.018,0.426-1.86,1.303-2.575l0.434-0.354
			l-0.216-0.517C87.215,32.94,87,31.824,87,30.637c0-1.014,0.669-1.936,2.044-2.818l0.89-0.57l-0.833-0.651
			c-1.763-1.379-2.62-2.934-2.62-4.751c0-0.521,0.083-1.092,0.247-1.703c0.683-2.598,2.402-4.229,5.262-4.988
			c1.222-0.327,2.369-0.493,3.411-0.493c1.474,0,2.802,0.318,3.946,0.944l0.695,0.38l0.342-0.714
			c0.357-0.747,0.84-1.362,1.465-1.867l2.709,2.372c-1.12,0.483-1.846,1.241-2.163,2.263l-0.131,0.421l0.304,0.319
			c0.781,0.817,1.125,2.226,1.033,4.176l-0.078,0.239l0.062,0.01C103.442,25.124,102.625,26.55,101.078,27.552z M94.487,30.143
			c-0.841,0.131-1.722,0.304-2.638,0.519c0.159-0.188,0.537-0.42,1.232-0.638C93.565,30.075,94.034,30.115,94.487,30.143z
			 M123.229,36.986l-4.389,0.271l-0.042-0.989l-0.693-0.024c-6.862-0.239-10.48-1.831-10.753-4.729
			c-0.042-0.45-0.064-0.779-0.064-0.99c0-2.424,0.879-3.83,2.767-4.425c1.019-0.321,2.042-0.483,3.043-0.483
			c1.342,0,2.737,0.278,4.146,0.828l1.028,0.4l-0.006-1.104c-0.022-3.982-0.075-4.158-0.119-4.307
			c-0.396-1.362-1.627-2.135-3.656-2.296c-1.7-0.131-3.201,1.017-4.617,3.531l-4.364-0.682c1.448-4.002,3.439-6.312,5.926-6.871
			c0.952-0.212,1.891-0.32,2.79-0.32c4.317,0,7.023,2.194,8.271,6.708c0.669,2.429,0.971,5.269,0.897,8.439L123.229,36.986z
			 M131.102,31.21c0,1.803,0.087,3.912,0.259,6.278l-4.888,0.172c0.026-8.359-0.188-15.231-0.637-20.449l4.662-0.383l-0.265,2.67
			l1.292-0.803c2.745-1.706,5.567-2.586,8.4-2.622l0.443,3.976c-3.456,0.115-5.977,0.958-7.499,2.51
			C131.663,23.799,131.102,26.548,131.102,31.21z"/>
		<path style="fill:#C96900;" d="M142.604,8.316l0.039,0.959c0.119,2.975,0.18,5.756,0.18,8.266c0,4.194-0.165,7.814-0.491,10.76
			l-0.076,0.685l5.85,1.163l0.13-0.759c0.836-4.884,1.95-11.1,3.312-18.475l0.134-0.722L142.604,8.316z M146.887,28.376
			l-2.992-0.596c0.284-2.869,0.429-6.309,0.429-10.24c0-2.258-0.049-4.732-0.145-7.368l5.76,1.191
			C148.705,18.057,147.68,23.772,146.887,28.376z"/>
		<path style="fill:#C96900;" d="M144.739,31.197c-1.305,0.11-2.358,0.788-3.134,2.019c-0.373,0.6-0.563,1.241-0.563,1.907
			c0,0.753,0.248,1.544,0.738,2.351l0.102,0.132c1.085,1.123,2.196,1.693,3.302,1.693c0.349,0,0.701-0.059,1.049-0.175
			c1.38-0.467,2.301-1.344,2.737-2.605c0.133-0.38,0.199-0.781,0.199-1.193c0-0.898-0.339-1.758-1.003-2.551
			C147.211,31.616,146.069,31.084,144.739,31.197z M147.554,36.027c-0.281,0.813-0.871,1.361-1.798,1.675
			c-0.873,0.292-1.748-0.079-2.735-1.079c-0.317-0.541-0.478-1.045-0.478-1.5c0-0.387,0.109-0.751,0.334-1.111
			c0.516-0.818,1.166-1.251,1.989-1.32c0.803-0.07,1.511,0.271,2.147,1.042c0.441,0.527,0.656,1.048,0.656,1.592
			C147.67,35.573,147.632,35.803,147.554,36.027z"/>
	</g>
</g>
</svg>
