<?xml version="1.0" encoding="utf-8"?>
<!-- Generator: Adobe Illustrator 21.0.0, SVG Export Plug-In . SVG Version: 6.00 Build 0)  -->
<svg version="1.1" id="Capa_1" xmlns="http://www.w3.org/2000/svg" xmlns:xlink="http://www.w3.org/1999/xlink" x="0px" y="0px"
	 viewBox="0 0 399.607 480.292" style="enable-background:new 0 0 399.607 480.292;" xml:space="preserve">
<g>
	<g>
		<polygon points="399.607,377.717 318.853,324.525 276.061,375.974 		"/>
		<polygon style="fill:#961D4E;" points="318.311,411.077 392.228,176.641 5.914,177.545 96.426,480.292 117.368,420.321 		"/>
		<polygon style="opacity:0.21;" points="159.209,375 336.613,353.031 318.209,411 145.209,419 		"/>
		<polygon style="fill:#FFFFFF;" points="159.381,374.645 131.972,461.902 373.22,461.891 399.607,377.717 		"/>
	</g>
	<g>
		<g id="XMLID_8_">
			<path id="XMLID_534_" d="M197.82,74.528v4.402c5.234,0,9.493,4.258,9.493,9.493s-4.258,9.493-9.493,9.493
				c-4.524,0-8.305-3.186-9.252-7.429h-4.473c1.002,6.684,6.765,11.832,13.725,11.832c7.662,0,13.895-6.234,13.895-13.895
				C211.715,80.762,205.482,74.528,197.82,74.528z"/>
			<rect id="XMLID_533_" x="194.515" width="3.305" height="78.931"/>
		</g>
		<g id="XMLID_531_">
			<rect id="XMLID_546_" x="175.493" y="58.468" width="43.991" height="10.778"/>
			<g id="XMLID_3_">
				<path id="XMLID_6_" style="fill:#F6A01A;" d="M224.709,58.478h-53.627c-1.364,0-2.48-1.116-2.48-2.48v-8.539
					c0-1.364,1.116-2.48,2.48-2.48h53.627c1.364,0,2.48,1.116,2.48,2.48v8.539C227.189,57.362,226.073,58.478,224.709,58.478z"/>
				<g id="XMLID_4_">
					<defs>
						<path id="XMLID_538_" d="M224.709,58.478h-53.627c-1.364,0-2.48-1.116-2.48-2.48v-8.539c0-1.364,1.116-2.48,2.48-2.48h53.627
							c1.364,0,2.48,1.116,2.48,2.48v8.539C227.189,57.362,226.073,58.478,224.709,58.478z"/>
					</defs>
					<clipPath id="XMLID_53_">
						<use xlink:href="#XMLID_538_"  style="overflow:visible;"/>
					</clipPath>
					<g id="XMLID_5_" style="clip-path:url(#XMLID_53_);">
						
							<rect id="XMLID_544_" x="156.775" y="49.478" transform="matrix(0.7071 -0.7071 0.7071 0.7071 13.0503 136.0201)" width="27.881" height="5.559"/>
						
							<rect id="XMLID_543_" x="170.01" y="49.478" transform="matrix(0.7071 -0.7071 0.7071 0.7071 16.9267 145.3785)" width="27.881" height="5.559"/>
						
							<rect id="XMLID_542_" x="183.245" y="49.478" transform="matrix(0.7071 -0.7071 0.7071 0.7071 20.8031 154.737)" width="27.881" height="5.559"/>
						
							<rect id="XMLID_541_" x="196.48" y="49.478" transform="matrix(0.7071 -0.7071 0.7071 0.7071 24.6795 164.0954)" width="27.881" height="5.559"/>
						
							<rect id="XMLID_540_" x="209.715" y="49.478" transform="matrix(0.7071 -0.7071 0.7071 0.7071 28.5559 173.4539)" width="27.881" height="5.559"/>
					</g>
				</g>
			</g>
		</g>
		<path d="M198.425,93.182l-0.002,0.003c-0.142-0.059-0.291-0.104-0.447-0.124c-0.547-0.07-1.09,0.124-1.472,0.518L6.13,170.618
			l2.509,2.429l188.758-75.371L386.364,172.7l5.941-1.735L198.425,93.182z"/>
		<g id="XMLID_1268_">
			<rect id="XMLID_1283_" y="169.835" width="395.209" height="11.165"/>
			<g id="XMLID_1269_">
				<polygon id="XMLID_1282_" style="fill:#FFB000;" points="295.607,169.835 285.472,181 300.786,181 310.922,169.835 				"/>
				<polygon id="XMLID_1281_" style="fill:#FFB000;" points="358.923,169.835 348.788,181 364.102,181 374.237,169.835 				"/>
				<polygon id="XMLID_1280_" style="fill:#FFB000;" points="200.634,169.835 190.498,181 205.812,181 215.948,169.835 				"/>
				<polygon id="XMLID_1279_" style="fill:#FFB000;" points="263.949,169.835 253.814,181 269.128,181 279.264,169.835 				"/>
				<polygon id="XMLID_1278_" style="fill:#FFB000;" points="327.265,169.835 317.13,181 332.444,181 342.579,169.835 				"/>
				<polygon id="XMLID_1277_" style="fill:#FFB000;" points="390.581,169.835 380.445,181 395.209,181 395.209,169.835 				"/>
				<polygon id="XMLID_1276_" style="fill:#FFB000;" points="232.291,169.835 222.156,181 237.47,181 247.606,169.835 				"/>
				<polygon id="XMLID_1275_" style="fill:#FFB000;" points="74.002,169.835 63.867,181 79.181,181 89.316,169.835 				"/>
				<polygon id="XMLID_1274_" style="fill:#FFB000;" points="42.344,169.835 32.209,181 47.523,181 57.658,169.835 				"/>
				<polygon id="XMLID_1273_" style="fill:#FFB000;" points="10.686,169.835 0.551,181 15.865,181 26.001,169.835 				"/>
				<polygon id="XMLID_1272_" style="fill:#FFB000;" points="137.318,169.835 127.182,181 142.497,181 152.632,169.835 				"/>
				<polygon id="XMLID_1271_" style="fill:#FFB000;" points="168.976,169.835 158.84,181 174.155,181 184.29,169.835 				"/>
				<polygon id="XMLID_1270_" style="fill:#FFB000;" points="105.66,169.835 95.524,181 110.839,181 120.974,169.835 				"/>
			</g>
		</g>
		<g id="XMLID_1_">
			<g id="XMLID_48_">
				
					<path style="fill:#EFC392;stroke:#994900;stroke-width:0.668;stroke-linecap:round;stroke-linejoin:round;stroke-miterlimit:10;" d="
					M335.568,167.813c0.047-0.622-0.599-1.411-1.466-1.544l-0.517-0.08c-0.599-0.092-1.134,0.156-1.425,0.522
					c-0.233-0.576-0.879-1.089-1.661-1.101l-0.593-0.012c-0.756-0.01-1.404,0.45-1.672,0.994c-0.134-0.773-0.899-1.529-1.823-1.509
					l-0.603,0.012c-0.954,0.02-1.701,0.859-1.764,1.659c-0.303-0.512-0.875-0.915-1.535-0.899l-0.573,0.01
					c-0.961,0.022-1.712,0.912-1.697,1.712c0,0-0.08,0.767-0.045,2.431c0.037,1.781,0.323,2.665,0.323,2.665
					c0.172,0.892,0.996,1.413,1.591,1.399l0.575-0.012c0.595-0.012,1.397-0.568,1.53-1.468c0,0,0.04-0.151,0.086-0.439
					c0.013,0.046,0.022,0.077,0.022,0.077c0.182,0.939,1.045,1.483,1.669,1.47l0.603-0.014c0.624-0.014,1.464-0.593,1.605-1.538
					c0,0,0.019-0.074,0.046-0.209c0.214,0.731,0.969,1.177,1.543,1.184l0.591,0.01c0.613,0.012,1.46-0.468,1.632-1.288
					c0,0,0.005-0.014,0.008-0.025c0.27,0.413,0.728,0.697,1.107,0.755l0.515,0.08c0.538,0.082,1.301-0.221,1.491-0.896
					c0,0,0.29-0.656,0.389-2.041C335.615,168.422,335.568,167.813,335.568,167.813z"/>
				
					<path id="XMLID_51_" style="fill:#994900;stroke:#994900;stroke-width:0.668;stroke-linecap:round;stroke-linejoin:round;stroke-miterlimit:10;" d="
					M324.3,172.156c0,0,0.024-0.343,0.009-0.854c0.017-0.509,0.002-1.185-0.043-1.862c-0.01-0.339,0.002-0.679-0.06-0.992
					c-0.036-0.316-0.07-0.61-0.1-0.862c-0.048-0.508-0.069-0.853-0.069-0.853s0.085,0.329,0.195,0.831
					c0.05,0.253,0.108,0.547,0.169,0.862c0.072,0.316,0.071,0.66,0.09,1.002c0.007,0.343,0.014,0.685,0.02,1.007
					c-0.009,0.322-0.055,0.621-0.075,0.877C324.389,171.824,324.3,172.156,324.3,172.156z"/>
				
					<path id="XMLID_50_" style="fill:#994900;stroke:#994900;stroke-width:0.668;stroke-linecap:round;stroke-linejoin:round;stroke-miterlimit:10;" d="
					M328.243,171.95c0,0,0.043-0.341,0.055-0.853c0.016-0.253,0.034-0.549,0.055-0.866c-0.001-0.318-0.002-0.656-0.003-0.995
					c-0.001-0.338,0.044-0.679-0.011-0.993c-0.026-0.316-0.051-0.611-0.071-0.865c-0.031-0.509-0.04-0.855-0.04-0.855
					s0.074,0.331,0.167,0.837c0.041,0.254,0.089,0.551,0.141,0.869c0.065,0.318,0.031,0.663,0.041,1.006
					c-0.01,0.343-0.02,0.686-0.028,1.007c-0.034,0.321-0.089,0.617-0.124,0.872c-0.034,0.255-0.085,0.462-0.123,0.607
					C328.264,171.867,328.243,171.95,328.243,171.95z"/>
				
					<path id="XMLID_49_" style="fill:#994900;stroke:#994900;stroke-width:0.668;stroke-linecap:round;stroke-linejoin:round;stroke-miterlimit:10;" d="
					M332.018,171.819c0,0,0.208-1.278,0.247-2.554c0.001-0.319,0.039-0.639,0.01-0.938c-0.024-0.297-0.001-0.581-0.037-0.818
					c-0.054-0.476-0.077-0.803-0.077-0.803s0.088,0.309,0.204,0.785c0.056,0.238,0.076,0.523,0.108,0.827
					c0.039,0.304,0.012,0.63,0.021,0.956c-0.033,0.65-0.123,1.296-0.243,1.769C332.137,171.517,332.018,171.819,332.018,171.819z"/>
			</g>
			<g id="XMLID_44_">
				
					<path style="fill:#EFC392;stroke:#994900;stroke-width:0.668;stroke-linecap:round;stroke-linejoin:round;stroke-miterlimit:10;" d="
					M251.238,167.443c0.016-0.8-0.736-1.691-1.697-1.712l-0.573-0.01c-0.66-0.016-1.232,0.387-1.535,0.899
					c-0.064-0.8-0.81-1.638-1.764-1.658l-0.603-0.012c-0.924-0.02-1.689,0.736-1.823,1.509c-0.268-0.544-0.916-1.005-1.672-0.994
					l-0.593,0.012c-0.781,0.012-1.427,0.525-1.661,1.101c-0.291-0.366-0.826-0.614-1.425-0.522l-0.517,0.08
					c-0.867,0.133-1.513,0.922-1.466,1.544c0,0-0.047,0.609,0.047,1.904c0.1,1.386,0.389,2.041,0.389,2.041
					c0.19,0.675,0.953,0.979,1.491,0.896l0.515-0.08c0.379-0.058,0.838-0.342,1.107-0.755c0.004,0.011,0.008,0.025,0.008,0.025
					c0.172,0.82,1.02,1.299,1.632,1.288l0.591-0.01c0.574-0.007,1.329-0.453,1.543-1.184c0.027,0.136,0.046,0.21,0.046,0.21
					c0.141,0.945,0.98,1.524,1.605,1.538l0.603,0.014c0.624,0.014,1.487-0.53,1.669-1.47c0,0,0.009-0.031,0.022-0.077
					c0.046,0.288,0.086,0.439,0.086,0.439c0.133,0.9,0.935,1.456,1.53,1.468l0.575,0.012c0.595,0.014,1.419-0.507,1.591-1.399
					c0,0,0.286-0.885,0.323-2.665C251.318,168.21,251.238,167.443,251.238,167.443z"/>
				
					<path id="XMLID_47_" style="fill:#994900;stroke:#994900;stroke-width:0.668;stroke-linecap:round;stroke-linejoin:round;stroke-miterlimit:10;" d="
					M247.177,172.023c0,0-0.089-0.331-0.136-0.843c-0.021-0.256-0.067-0.555-0.075-0.877c0.006-0.321,0.013-0.664,0.02-1.007
					c0.019-0.342,0.018-0.686,0.09-1.002c0.062-0.316,0.119-0.61,0.169-0.862c0.11-0.502,0.195-0.831,0.195-0.831
					s-0.021,0.345-0.069,0.853c-0.029,0.252-0.064,0.547-0.1,0.862c-0.062,0.313-0.05,0.653-0.06,0.992
					c-0.045,0.677-0.06,1.352-0.043,1.862C247.153,171.68,247.177,172.023,247.177,172.023z"/>
				
					<path id="XMLID_46_" style="fill:#994900;stroke:#994900;stroke-width:0.668;stroke-linecap:round;stroke-linejoin:round;stroke-miterlimit:10;" d="
					M243.234,171.817c0,0-0.021-0.083-0.058-0.228c-0.038-0.144-0.089-0.352-0.123-0.607c-0.035-0.254-0.09-0.551-0.124-0.872
					c-0.009-0.321-0.019-0.664-0.028-1.007c0.01-0.343-0.023-0.688,0.041-1.006c0.052-0.318,0.1-0.615,0.141-0.869
					c0.093-0.506,0.167-0.837,0.167-0.837s-0.009,0.346-0.04,0.855c-0.021,0.253-0.045,0.549-0.071,0.865
					c-0.055,0.314-0.01,0.655-0.011,0.993c-0.001,0.339-0.002,0.678-0.003,0.995c0.021,0.317,0.039,0.613,0.055,0.866
					C243.191,171.476,243.234,171.817,243.234,171.817z"/>
				
					<path id="XMLID_45_" style="fill:#994900;stroke:#994900;stroke-width:0.668;stroke-linecap:round;stroke-linejoin:round;stroke-miterlimit:10;" d="
					M239.459,171.686c0,0-0.119-0.302-0.232-0.777c-0.119-0.473-0.209-1.118-0.243-1.769c0.009-0.326-0.019-0.652,0.021-0.956
					c0.031-0.304,0.052-0.589,0.108-0.827c0.115-0.476,0.204-0.785,0.204-0.785s-0.024,0.326-0.077,0.803
					c-0.036,0.237-0.013,0.521-0.037,0.818c-0.029,0.298,0.009,0.619,0.01,0.938C239.251,170.408,239.459,171.686,239.459,171.686z"
					/>
			</g>
			<g id="XMLID_2_">
				<defs>
					<rect id="XMLID_7_" x="237.849" y="54.072" width="96.786" height="115.891"/>
				</defs>
				<clipPath id="XMLID_54_">
					<use xlink:href="#XMLID_7_"  style="overflow:visible;"/>
				</clipPath>
				<g id="XMLID_9_" style="clip-path:url(#XMLID_54_);">
					<g id="XMLID_36_">
						<g id="XMLID_37_">
							<g id="XMLID_41_">
								<path id="XMLID_43_" style="fill:#F7941E;" d="M303.936,183.061c0,4.378-0.275,7.814-0.81,10.511h-34.397
									c-0.534-2.697-0.81-6.133-0.81-10.511c0-9.751,0.875-16.628,5.46-18.383c2.866-1.1,3.371-0.504,11.79-0.504h1.518
									c1.232,0,2.37-0.005,3.427-0.005c5.84,0,6.302-0.54,8.608,0.405C303.666,166.601,303.936,172.812,303.936,183.061z"/>
								<path id="XMLID_42_" style="fill:#FFFFFF;" d="M303.931,182.484c-0.014,1.566-0.065,3.006-0.152,4.329h-35.702
									c-0.091-1.323-0.141-2.763-0.155-4.329h4.713c-0.836-11.654,1.487-18.752,1.783-19.6c0.011-0.036,0.022-0.062,0.025-0.075
									l0.104,0.039l1.931,0.703l2.034,0.74c-0.025,0.072-2.395,6.843-1.532,18.194h17.984c0.862-11.35-1.509-18.121-1.533-18.194
									l4.066-1.481c0.118,0.321,2.683,7.521,1.81,19.675H303.931z"/>
							</g>
							<g id="XMLID_38_">
								<polygon id="XMLID_40_" style="fill:#CCCCCC;" points="285.36,168.357 291.039,173.803 301.5,165.392 								"/>
								<polygon id="XMLID_39_" style="fill:#CCCCCC;" points="286.566,168.351 280.866,173.817 270.371,165.379 								"/>
							</g>
						</g>
					</g>
					<g id="XMLID_10_">
						
							<path id="XMLID_35_" style="fill:#EFC392;stroke:#994900;stroke-width:0.668;stroke-linecap:round;stroke-linejoin:round;stroke-miterlimit:10;" d="
							M321.507,139.822c-0.14,0.159-0.283,0.315-0.433,0.471c-0.15,0.157-0.304,0.313-0.466,0.468
							c-0.159,0.154-0.327,0.309-0.499,0.462c-0.173,0.153-0.351,0.305-0.535,0.457c-0.184,0.152-0.377,0.302-0.572,0.452
							c-0.198,0.15-0.4,0.297-0.609,0.445c-0.001-0.827-0.002-1.654-0.002-2.48c-0.002-0.826-0.002-1.653-0.002-2.48
							c-0.001-0.825-0.002-1.651-0.002-2.477c-0.002-0.827-0.002-1.653-0.002-2.48c-0.001-0.826-0.002-1.653-0.002-2.479
							c-0.002-0.827-0.002-1.653-0.002-2.48c0,0,0.064-0.105,0.182-0.267c0.117-0.164,0.288-0.385,0.502-0.619
							c0.214-0.232,0.469-0.475,0.755-0.682c0.287-0.208,0.605-0.378,0.944-0.466c0.337-0.086,0.695-0.09,1.063,0.038
							c0.367,0.129,0.744,0.387,1.119,0.823c0.278,0.327,0.557,0.764,0.802,1.293c0.248,0.529,0.464,1.146,0.618,1.834
							c0.156,0.686,0.251,1.443,0.258,2.246c0.007,0.803-0.076,1.653-0.274,2.53c-0.201,0.875-0.518,1.779-0.983,2.684
							C322.902,138.018,322.292,138.928,321.507,139.822z"/>
						
							<path id="XMLID_34_" style="fill:#EFC392;stroke:#994900;stroke-width:0.668;stroke-linecap:round;stroke-linejoin:round;stroke-miterlimit:10;" d="
							M251.206,140.107c0.139,0.157,0.283,0.313,0.433,0.471c0.148,0.154,0.304,0.311,0.466,0.465
							c0.162,0.155,0.329,0.309,0.5,0.463c0.174,0.152,0.352,0.305,0.538,0.456c0.184,0.151,0.375,0.301,0.573,0.45
							c0.196,0.15,0.399,0.297,0.609,0.444c0-0.827-0.002-1.653-0.002-2.48c0-0.826-0.001-1.653-0.002-2.48
							c0-0.826-0.002-1.652-0.002-2.477c0-0.827-0.001-1.654-0.002-2.481c0-0.826,0-1.652-0.002-2.478c0-0.826,0-1.653-0.002-2.479
							c0,0-0.065-0.106-0.182-0.268c-0.119-0.164-0.289-0.385-0.503-0.619c-0.212-0.231-0.469-0.474-0.757-0.681
							c-0.286-0.207-0.606-0.377-0.942-0.464c-0.339-0.085-0.697-0.088-1.065,0.04c-0.367,0.128-0.742,0.388-1.117,0.825
							c-0.279,0.326-0.556,0.766-0.803,1.294c-0.245,0.528-0.459,1.147-0.613,1.834c-0.155,0.687-0.248,1.444-0.253,2.247
							c-0.005,0.803,0.079,1.653,0.279,2.53c0.202,0.875,0.521,1.777,0.987,2.683C249.807,138.304,250.419,139.214,251.206,140.107z
							"/>
						
							<path id="XMLID_33_" style="fill:#EFC392;stroke:#994900;stroke-width:0.668;stroke-linecap:round;stroke-linejoin:round;stroke-miterlimit:10;" d="
							M262.429,159.249c-2.331-2.498-4.275-5.398-5.836-8.619c-1.543-3.185-2.708-6.683-3.496-10.408
							c-0.772-3.643-1.18-7.507-1.227-11.506c-0.052-4.012,0.341-8.03,1.232-11.945c0.869-3.805,2.173-7.384,3.857-10.654
							c1.683-3.27,3.746-6.231,6.13-8.795c2.014-2.167,4.256-4.051,6.694-5.6c2.455-1.562,5.108-2.783,7.922-3.612
							c2.874-0.846,5.855-1.249,8.85-1.252c3.055,0.008,5.988,0.451,8.764,1.277c2.776,0.827,5.395,2.036,7.823,3.577
							c2.427,1.542,4.663,3.416,6.672,5.571c2.388,2.56,4.456,5.517,6.144,8.784c1.689,3.268,3,6.846,3.876,10.648
							c0.897,3.913,1.298,7.929,1.253,11.942c-0.04,4.002-0.443,7.863-1.208,11.509c-0.78,3.725-1.94,7.225-3.478,10.414
							c-1.556,3.223-3.495,6.127-5.822,8.629c-1.932,2.08-4.132,3.88-6.599,5.35c-2.468,1.472-5.201,2.616-8.2,3.381
							c-3.175,0.81-6.463,1.147-9.738,1.114c-3.296-0.033-6.354-0.445-9.173-1.196c-2.904-0.771-5.555-1.901-7.954-3.342
							C266.495,163.06,264.332,161.288,262.429,159.249z"/>
						<path id="XMLID_32_" style="fill:#482E1D;" d="M329.916,122.352l0.02-1.616l0.036-2.825c-0.011-0.943,0.073-1.891-0.018-2.835
							l-0.211-2.836c-0.044-0.473-0.057-0.95-0.148-1.418l-0.222-1.412l-0.225-1.414c-0.061-0.474-0.176-0.939-0.288-1.406
							l-0.33-1.402c-0.115-0.467-0.206-0.939-0.363-1.398c-0.306-0.92-0.531-1.857-0.911-2.769
							c-0.019-0.047-0.036-0.094-0.054-0.141l2.223-0.331l0.788-0.321l0.402-2.097l0.121-1.689
							c-0.148-0.482-0.248-0.978-0.455-1.445l-0.562-1.418c-0.169-0.481-0.432-0.923-0.661-1.38c-0.245-0.448-0.45-0.922-0.735-1.35
							l-0.842-1.293c-0.272-0.439-0.625-0.818-0.937-1.229c-0.316-0.409-0.644-0.807-1.01-1.17
							c-0.363-0.366-0.698-0.764-1.087-1.103l-1.159-1.028l-1.231-0.937c-0.421-0.297-0.861-0.565-1.293-0.847
							c-0.275-0.167-0.559-0.319-0.84-0.475l0.599-0.4l3.314-2.214l-3.258-2.225l-1.259-0.86c-0.415-0.3-0.854-0.54-1.291-0.787
							c-0.439-0.238-0.868-0.516-1.319-0.718l-1.345-0.638c-0.45-0.209-0.909-0.373-1.365-0.561
							c-0.455-0.189-0.914-0.36-1.377-0.507c-0.921-0.327-1.851-0.6-2.786-0.844c-0.467-0.127-0.937-0.22-1.406-0.331
							c-0.469-0.113-0.939-0.203-1.411-0.289c-0.941-0.186-1.885-0.326-2.832-0.455c-0.798-0.103-1.599-0.18-2.402-0.247
							l0.315-2.211l0.465-3.266l-3.177-0.084c-1.07-0.029-2.147-0.139-3.213-0.088l-1.601,0.04l-1.589,0.133
							c-0.532,0.037-1.058,0.098-1.58,0.182c-0.524,0.078-1.05,0.144-1.57,0.233l-1.551,0.315c-0.52,0.095-1.023,0.244-1.534,0.367
							c-0.51,0.126-1.02,0.256-1.519,0.413c-0.501,0.154-1.008,0.29-1.503,0.46c-0.995,0.326-1.977,0.685-2.95,1.068
							c-0.68,0.276-1.353,0.567-2.023,0.87l-0.398-2.179l-0.73-4.001l-3.402,1.884l-2.996,1.659l-1.494,0.833
							c-0.489,0.291-0.943,0.633-1.415,0.947l-2.804,1.927c-0.892,0.695-1.768,1.41-2.649,2.115
							c-0.434,0.363-0.897,0.688-1.303,1.081l-1.25,1.14c-0.838,0.753-1.666,1.517-2.441,2.337
							c-0.795,0.798-1.581,1.606-2.324,2.463c-0.146,0.164-0.292,0.327-0.438,0.49l-2.384-2.242l-1.436,2.772
							c-0.476,0.921-1.023,1.811-1.422,2.758l-0.633,1.405l-0.555,1.427c-0.195,0.473-0.343,0.957-0.504,1.439
							c-0.152,0.483-0.334,0.959-0.459,1.448c-0.28,0.971-0.544,1.944-0.759,2.924c-0.231,0.977-0.416,1.963-0.585,2.947
							c-0.169,0.985-0.303,1.974-0.421,2.964c-0.109,0.991-0.185,1.985-0.235,2.982c-0.014,0.28-0.02,0.561-0.03,0.842l-1.612-0.265
							l-2.355-0.387l0.282,2.21l0.287,2.249c0.107,0.748,0.168,1.5,0.313,2.243l0.394,2.229c0.123,0.744,0.291,1.48,0.47,2.213
							l0.517,2.2l0.612,2.175c0.198,0.726,0.413,1.446,0.66,2.157l0.715,2.137l0.803,2.104c0.262,0.702,0.589,1.381,0.88,2.071
							c0.289,0.69,0.613,1.367,0.942,2.039c0.318,0.677,0.651,1.346,1.009,2.004c0.679,1.33,1.453,2.612,2.255,3.868
							c0.812,1.249,1.659,2.477,2.625,3.606c0,0-1.317-18.458,8.257-23.267c3.868-1.942,10.037,0.852,23.66,0.84
							c15.264-0.013,21.433-2.256,24.911,0.479c3.301,2.597,7.472,6.493,6.604,21.893l1.393-1.953l0.69-0.98
							c0.224-0.331,0.474-0.644,0.676-0.991l1.273-2.052l0.63-1.036l0.568-1.068l0.568-1.07c0.185-0.359,0.392-0.708,0.551-1.081
							l1.013-2.217l0.447-1.142c0.143-0.384,0.311-0.757,0.426-1.156l0.373-1.186c0.004-0.017,0.008-0.032,0.013-0.048l1.879,0.582
							L329.916,122.352z"/>
						<path id="XMLID_31_" d="M302.299,151.454c0.003,2.45-1.349,5.91-4.081,8.718c-2.64,2.719-6.572,4.827-11.822,4.832
							c-5.25,0.004-9.186-2.097-11.832-4.811c-2.734-2.804-4.092-6.263-4.094-8.712c-0.003-2.237,1.535-2.755,4.063-2.664l0.022,0
							c0.002-0.001,0.002-0.001,0.002-0.001c2.913,0.107,7.132,1.007,11.826,1.003c4.548-0.004,8.651-0.856,11.551-1.008l0.009,0
							c0.005,0.001,0.011,0,0.015,0C300.648,148.668,302.297,149.137,302.299,151.454z"/>
						<path id="XMLID_30_" style="fill:#FFFFFF;" d="M276.008,152.082c0.573,0.472,1.326,0.823,2.263,1.082
							c0.876,0.244,1.916,0.404,3.132,0.509c1.114,0.094,2.373,0.142,3.788,0.153c0.344,0.004,0.697,0.005,1.063,0.006
							c1.403-0.002,2.662-0.027,3.788-0.091c1.542-0.085,2.831-0.247,3.897-0.514c1.064-0.271,1.907-0.649,2.55-1.178
							c0.162-0.132,0.312-0.275,0.45-0.429c0.146-0.16,0.28-0.334,0.394-0.519c0.121-0.196,0.216-0.396,0.288-0.595
							c0.074-0.201,0.128-0.401,0.167-0.599c0.04-0.193,0.068-0.385,0.091-0.57c0.024-0.186,0.039-0.363,0.056-0.528
							c-1.025,0.054-2.2,0.195-3.492,0.356c-1.294,0.16-2.704,0.337-4.198,0.468c-1.237,0.109-2.529,0.181-3.863,0.183
							c-0.235-0.001-0.471-0.004-0.706-0.007c-1.412-0.024-2.777-0.125-4.07-0.254c-1.342-0.135-2.607-0.298-3.771-0.437
							c-1.214-0.149-2.314-0.269-3.274-0.302c0.018,0.167,0.035,0.343,0.059,0.528c0.025,0.184,0.054,0.376,0.097,0.572
							c0.041,0.195,0.097,0.399,0.171,0.599s0.167,0.404,0.287,0.603c0.111,0.187,0.241,0.364,0.386,0.529
							C275.694,151.804,275.844,151.947,276.008,152.082z"/>
						<g id="XMLID_25_">
							<path id="XMLID_29_" style="fill:#FFFFFF;" d="M332.098,108.895c0.003,1.278-0.037,2.547-0.113,3.803
								c-8.777-2.774-26.342-4.654-46.571-4.637c-19.548,0.017-36.599,1.801-45.645,4.436c-0.066-1.163-0.1-2.34-0.102-3.523
								c-0.025-29.527,20.65-49.353,46.173-49.375C311.368,59.577,332.073,79.368,332.098,108.895z"/>
							<path id="XMLID_28_" style="fill:#B3B3B3;" d="M285.888,118.682c-29.012,0.026-40.365,0.398-46.22-4.736
								c-3.617-3.172,17.665-6.94,46.678-6.965c29.014-0.024,50.303,3.708,46.69,6.885c-5.845,5.143-17.199,4.79-46.211,4.815
								L285.888,118.682z"/>
							<path id="XMLID_27_" style="fill:#808080;" d="M239.727,111.656c0,0,1.396-0.411,3.85-1.086
								c1.244-0.282,2.757-0.624,4.49-1.016c1.744-0.336,3.711-0.731,5.87-1.079c2.164-0.304,4.5-0.727,6.993-0.974
								c1.246-0.143,2.524-0.289,3.832-0.44c1.308-0.146,2.649-0.228,4.011-0.346c2.724-0.244,5.546-0.392,8.414-0.521
								c2.875-0.119,5.776-0.144,8.719-0.188c1.452,0.026,2.906,0.052,4.353,0.079c1.445,0.015,2.889,0.056,4.329,0.139
								c2.877,0.115,5.702,0.298,8.424,0.546c2.728,0.188,5.352,0.519,7.84,0.816c2.491,0.265,4.827,0.693,6.989,1.009
								c2.157,0.363,4.122,0.768,5.864,1.114c1.729,0.405,3.237,0.758,4.479,1.048c2.456,0.702,3.844,1.128,3.844,1.128
								s-1.437-0.259-3.924-0.754c-1.255-0.195-2.779-0.431-4.525-0.701c-1.754-0.214-3.733-0.454-5.892-0.716
								c-1.082-0.107-2.209-0.218-3.375-0.333c-1.165-0.123-2.368-0.251-3.612-0.334c-2.483-0.198-5.099-0.41-7.811-0.549
								c-1.355-0.072-2.733-0.178-4.127-0.226c-1.393-0.049-2.803-0.099-4.224-0.149c-2.834-0.148-5.759-0.091-8.659-0.15
								c-2.868,0.021-5.783,0.022-8.625,0.118c-2.847,0.121-5.654,0.157-8.364,0.349c-2.712,0.137-5.331,0.318-7.813,0.517
								c-1.244,0.08-2.449,0.195-3.614,0.315c-1.166,0.11-2.294,0.216-3.376,0.318c-2.161,0.25-4.141,0.48-5.896,0.683
								c-1.748,0.258-3.272,0.484-4.526,0.669C241.162,111.412,239.727,111.656,239.727,111.656z"/>
							<path id="XMLID_26_" style="fill:#E6E6E6;" d="M282.072,55.399c-3.605,0.003-5.902,2.88-5.108,6.398l4.164,33.05
								c0.794,3.513,8.677,3.506,9.465-0.009l4.131-33.057c0.788-3.518-1.516-6.392-5.12-6.389L282.072,55.399z"/>
						</g>
						<g id="XMLID_12_">
							<path id="XMLID_24_" style="fill:#482E1D;" d="M276.356,125.762c1.452-2.411-3.524-4.365-6.487-4.433
								c-2.964-0.068-7.045,5.438-6.416,6.771c0.628,1.332,3.031-3.619,6.654-3.535
								C273.729,124.649,274.986,128.037,276.356,125.762z"/>
							<g id="XMLID_19_">
								<path id="XMLID_23_" style="fill:#FFFFFF;" d="M269.911,127.671c-8.713,2.285-8.36,14.717,1.1,14.712
									C280.471,142.379,280.049,125.012,269.911,127.671z"/>
								
									<ellipse id="XMLID_22_" transform="matrix(0.0231 -0.9997 0.9997 0.0231 127.216 405.1115)" cx="270.894" cy="137.462" rx="4.65" ry="3.681"/>
								
									<ellipse id="XMLID_21_" transform="matrix(0.0231 -0.9997 0.9997 0.0231 127.8091 400.9817)" style="fill:#FFFFFF;" cx="269.076" cy="135.095" rx="2.196" ry="2.196"/>
								
									<ellipse id="XMLID_20_" transform="matrix(0.0231 -0.9997 0.9997 0.0231 126.4676 408.2793)" style="fill:#FFFFFF;" cx="272.141" cy="139.429" rx="0.84" ry="0.84"/>
							</g>
							<path id="XMLID_18_" style="fill:#482E1D;" d="M295.239,125.423c-1.34-2.475,3.721-4.197,6.685-4.129
								c2.964,0.068,6.786,5.758,6.097,7.06c-0.689,1.302-2.861-3.755-6.483-3.839C297.915,124.432,296.503,127.759,295.239,125.423
								z"/>
							<g id="XMLID_13_">
								<path id="XMLID_17_" style="fill:#FFFFFF;" d="M301.543,127.626c8.598,2.685,7.672,15.087-1.778,14.646
									C290.316,141.831,291.538,124.502,301.543,127.626z"/>
								
									<ellipse id="XMLID_16_" transform="matrix(0.0231 -0.9997 0.9997 0.0231 156.2903 434.6926)" cx="300.568" cy="137.376" rx="4.65" ry="3.681"/>
								
									<ellipse id="XMLID_15_" transform="matrix(0.0231 -0.9997 0.9997 0.0231 156.8837 430.5628)" style="fill:#FFFFFF;" cx="298.749" cy="135.008" rx="2.196" ry="2.196"/>
								
									<ellipse id="XMLID_14_" transform="matrix(0.0231 -0.9997 0.9997 0.0231 155.1803 438.2137)" style="fill:#FFFFFF;" cx="301.814" cy="139.705" rx="0.84" ry="0.84"/>
							</g>
						</g>
						<path id="XMLID_11_" style="fill:#C4884D;" d="M282.183,142.779c0.466-0.592,1.784,1.075,3.847,1.252
							c2.063,0.177,3.018-1.998,3.91-1.46c0.892,0.537-0.981,3.337-4.087,3.523C282.748,146.281,281.784,143.287,282.183,142.779z"
							/>
					</g>
				</g>
			</g>
		</g>
	</g>
</g>
</svg>
