<?xml version="1.0" encoding="utf-8"?>
<!-- Generator: Adobe Illustrator 21.0.0, SVG Export Plug-In . SVG Version: 6.00 Build 0)  -->
<svg version="1.1" id="Capa_1" xmlns="http://www.w3.org/2000/svg" xmlns:xlink="http://www.w3.org/1999/xlink" x="0px" y="0px"
	 viewBox="0 0 55 53" style="enable-background:new 0 0 55 53;" xml:space="preserve">
<style type="text/css">
	.st0{fill:#603813;}
	.st1{fill:#4FB1ED;}
	.st2{fill:#76CAF4;}
	.st3{fill:#8C6239;}
</style>
<g>
	<g>
		<rect x="3.2" class="st0" width="48.5" height="48.5"/>
		<g>
			<g>
				<rect x="7.2" y="4" class="st1" width="18.7" height="18.7"/>
			</g>
			<g>
				<rect x="29.1" y="4" class="st1" width="18.7" height="18.7"/>
			</g>
			<g>
				<rect x="7.2" y="25.8" class="st1" width="18.7" height="18.7"/>
			</g>
			<g>
				<rect x="29.1" y="25.8" class="st1" width="18.7" height="18.7"/>
			</g>
		</g>
		<g>
			<polygon class="st2" points="7.2,14.5 7.2,20.3 22.2,4 16.8,4 			"/>
			<polygon class="st2" points="24.2,4 7.2,22.4 7.2,22.8 8.6,22.8 25.9,4 			"/>
			<polygon class="st2" points="29.1,14.5 29.1,20.3 44.1,4 38.7,4 			"/>
			<polygon class="st2" points="46.1,4 29.1,22.4 29.1,22.8 30.5,22.8 47.8,4 			"/>
			<polygon class="st2" points="7.2,36.2 7.2,42 22.2,25.7 16.8,25.7 			"/>
			<polygon class="st2" points="24.2,25.7 7.2,44.2 7.2,44.6 8.6,44.6 25.9,25.7 			"/>
			<polygon class="st2" points="29.1,36.2 29.1,42 44.1,25.7 38.7,25.7 			"/>
			<polygon class="st2" points="46.1,25.7 29.1,44.2 29.1,44.6 30.5,44.6 47.8,25.7 			"/>
		</g>
	</g>
	<rect y="48.5" class="st3" width="55" height="4.5"/>
</g>
</svg>
