<?xml version="1.0" encoding="utf-8"?>
<!-- Generator: Adobe Illustrator 21.0.0, SVG Export Plug-In . SVG Version: 6.00 Build 0)  -->
<svg version="1.1" id="Capa_1" xmlns="http://www.w3.org/2000/svg" xmlns:xlink="http://www.w3.org/1999/xlink" x="0px" y="0px"
	 viewBox="0 0 55 53" style="enable-background:new 0 0 55 53;" xml:space="preserve">
<style type="text/css">
	.st0{fill:#42210B;}
	.st1{fill:#4FB1ED;}
	.st2{fill:#76CAF4;}
	.st3{fill:#A67C52;}
	.st4{fill:#603813;}
	.st5{fill:#C69C6D;}
</style>
<g>
	<rect y="48.5" class="st0" width="55" height="4.5"/>
	<g>
		<g>
			<g>
				<rect x="7.7" y="3.2" class="st1" width="39.5" height="27.3"/>
			</g>
			<g>
				<polygon class="st2" points="21.7,3.2 7.7,18.4 7.7,26.8 29.4,3.2 				"/>
				<polygon class="st2" points="32.4,3.2 7.7,30 7.7,30.5 9.7,30.5 34.9,3.2 				"/>
			</g>
			<g>
				<g>
					<path class="st3" d="M3.2,0v48.5h48.5V0H3.2z M48.1,46.1H6.8V2.3h41.3V46.1z"/>
				</g>
				<polygon class="st0" points="47.2,3.2 48.1,2.3 6.8,2.3 7.7,3.2 				"/>
				<polygon class="st4" points="7.7,3.2 6.8,2.3 6.8,46.1 7.7,45.3 				"/>
				<polygon class="st5" points="48.1,46.1 47.2,45.3 7.7,45.3 6.8,46.1 				"/>
				<polygon class="st4" points="47.2,3.2 47.2,45.3 48.1,46.1 48.1,2.3 				"/>
			</g>
			<rect x="6.8" y="30.5" class="st3" width="41.3" height="2.3"/>
			<g>
				<path d="M31.7,32h-8.3c-0.5,0-0.9,0.4-0.9,0.9V33c0,0.5,0.4,0.9,0.9,0.9h8.3c0.5,0,0.9-0.4,0.9-0.9v-0.2
					C32.5,32.3,32.2,32,31.7,32z"/>
			</g>
		</g>
	</g>
</g>
</svg>
