<?xml version="1.0" encoding="utf-8"?>
<!-- Generator: Adobe Illustrator 21.0.0, SVG Export Plug-In . SVG Version: 6.00 Build 0)  -->
<svg version="1.1" id="Capa_1" xmlns="http://www.w3.org/2000/svg" xmlns:xlink="http://www.w3.org/1999/xlink" x="0px" y="0px"
	 viewBox="0 0 55 53" style="enable-background:new 0 0 55 53;" xml:space="preserve">
<style type="text/css">
	.st0{fill:#4D4D4D;}
	.st1{fill:#808080;}
	.st2{fill:#1A1A1A;}
	.st3{fill:#B3B3B3;}
	.st4{fill:#4FB1ED;}
	.st5{fill:#76CAF4;}
</style>
<g>
	<rect y="48.5" class="st0" width="55" height="4.5"/>
	<g>
		<g>
			<g>
				<g>
					<g>
						<path class="st1" d="M3.2,0v48.5h48.5V0H3.2z M48.1,46.1H6.8V2.3h41.3V46.1z"/>
					</g>
					<polygon class="st2" points="47.2,3.2 48.1,2.3 6.8,2.3 7.7,3.2 					"/>
					<polygon class="st0" points="7.7,3.2 6.8,2.3 6.8,46.1 7.7,45.3 					"/>
					<polygon class="st0" points="48.1,46.1 47.2,45.3 7.7,45.3 6.8,46.1 					"/>
					<polygon class="st0" points="47.2,3.2 47.2,45.3 48.1,46.1 48.1,2.3 					"/>
				</g>
				<g>
					<g>
						<g>
							<g>
								<path class="st1" d="M7.7,3.2v42.1h39.5V3.2H7.7z M43.9,43.1h-33V5.4h33V43.1z"/>
							</g>
							<polygon class="st2" points="43.1,6.3 43.9,5.4 10.9,5.4 11.7,6.3 							"/>
							<polygon class="st0" points="11.7,6.3 10.9,5.4 10.9,43.1 11.7,42.2 							"/>
							<polygon class="st3" points="43.9,43.1 43.1,42.2 11.7,42.2 10.9,43.1 							"/>
							<polygon class="st0" points="43.1,6.3 43.1,42.2 43.9,43.1 43.9,5.4 							"/>
						</g>
					</g>
					<g>
						<rect x="11.7" y="6.3" class="st4" width="31.4" height="36"/>
					</g>
					<g>
						<polygon class="st5" points="30.1,6.3 11.7,26.3 11.7,37.3 40.3,6.3 						"/>
						<polygon class="st5" points="43.1,7.3 11.7,41.5 11.7,42.2 14.3,42.2 43.1,10.9 						"/>
					</g>
				</g>
			</g>
		</g>
		<path d="M9,21.8L9,21.8c0.3-0.2,0.6-0.1,0.8,0.1l4.2,4.2l-0.9,0.9l0,0l-4.2-4.2l0,0C8.7,22.6,8.7,22.2,9,21.8
			C8.9,21.9,9,21.9,9,21.8z"/>
	</g>
</g>
</svg>
