<?xml version="1.0" encoding="utf-8"?>
<!-- Generator: Adobe Illustrator 21.0.0, SVG Export Plug-In . SVG Version: 6.00 Build 0)  -->
<svg version="1.1" id="Capa_1" xmlns="http://www.w3.org/2000/svg" xmlns:xlink="http://www.w3.org/1999/xlink" x="0px" y="0px"
	 viewBox="0 0 500 500.017" style="enable-background:new 0 0 500 500.017;" xml:space="preserve">
<g>
	<g>
		<g>
			<g>
				<path style="fill:#FFFFFF;" d="M461.531,251.499c-0.139,0-0.275-0.019-0.407-0.056l-5.112-1.435l5.114-1.436
					c0.132-0.037,0.268-0.056,0.404-0.056c0.665,0,1.254,0.448,1.434,1.089c0.108,0.383,0.06,0.785-0.135,1.133
					c-0.195,0.347-0.513,0.598-0.897,0.705C461.803,251.48,461.668,251.499,461.531,251.499z"/>
				<path style="fill:#FFFFFF;" d="M447.581,251.433c-0.058,0-0.116-0.003-0.17-0.009l-12.438-1.416l12.443-1.416
					c0.055-0.007,0.109-0.01,0.163-0.01c0.724,0,1.332,0.544,1.413,1.264c0.089,0.781-0.474,1.489-1.255,1.578
					C447.688,251.43,447.634,251.433,447.581,251.433z"/>
				<path style="fill:#FFFFFF;" d="M353.32,250.008l67.628-1.412c0.792,0,1.427,0.62,1.442,1.382
					c0.016,0.777-0.601,1.423-1.376,1.443L353.32,250.008z"/>
				<path style="fill:#FFFFFF;" d="M38.472,251.5c-0.665,0-1.255-0.448-1.435-1.089c-0.108-0.383-0.06-0.785,0.135-1.133
					c0.194-0.347,0.513-0.598,0.897-0.706c0.128-0.036,0.263-0.055,0.401-0.055c0.138,0,0.275,0.019,0.408,0.056l5.111,1.435
					l-5.114,1.436C38.743,251.481,38.607,251.5,38.472,251.5z"/>
				<path style="fill:#FFFFFF;" d="M52.421,251.434c-0.724,0-1.332-0.544-1.413-1.264c-0.044-0.378,0.063-0.751,0.301-1.049
					c0.237-0.298,0.575-0.486,0.953-0.528c0.054-0.007,0.106-0.01,0.159-0.01c0.057,0,0.113,0.003,0.166,0.01l12.441,1.416
					l-12.443,1.416C52.53,251.431,52.475,251.434,52.421,251.434L52.421,251.434z"/>
				<path style="fill:#FFFFFF;" d="M79.023,251.421c-0.763,0-1.397-0.62-1.412-1.382c-0.016-0.779,0.605-1.426,1.382-1.442
					l67.677,1.412L79.023,251.421z"/>
				<path style="fill:#FFFFFF;" d="M249.999,463.036c-0.665,0-1.255-0.448-1.435-1.089c-0.073-0.262-0.073-0.541,0.001-0.809
					l1.434-5.112l1.436,5.114c0.223,0.792-0.24,1.617-1.032,1.84C250.271,463.017,250.135,463.036,249.999,463.036z"/>
				<path style="fill:#FFFFFF;" d="M249.998,449.017c-0.724,0-1.332-0.543-1.414-1.265c-0.011-0.099-0.011-0.216,0-0.327
					l1.416-12.437l1.416,12.442c0.044,0.379-0.063,0.751-0.3,1.049c-0.238,0.298-0.576,0.486-0.955,0.529
					C250.107,449.015,250.052,449.017,249.998,449.017L249.998,449.017z"/>
				<path style="fill:#FFFFFF;" d="M249.998,422.403c-0.761,0-1.394-0.62-1.411-1.383l1.412-67.677l1.413,67.619
					c0.008,0.378-0.132,0.735-0.393,1.007c-0.261,0.272-0.612,0.427-0.989,0.434H249.998z"/>
				<path style="fill:#FFFFFF;" d="M248.564,38.877c-0.222-0.792,0.241-1.617,1.033-1.84c0.132-0.037,0.268-0.056,0.404-0.056
					c0.665,0,1.255,0.448,1.435,1.088c0.074,0.263,0.074,0.542,0,0.808l-1.436,5.113L248.564,38.877z"/>
				<path style="fill:#FFFFFF;" d="M248.584,52.587c-0.088-0.781,0.475-1.489,1.256-1.578c0.054-0.007,0.109-0.01,0.163-0.01
					c0.724,0,1.332,0.544,1.413,1.264c0.012,0.102,0.012,0.216,0,0.325l-1.416,12.44L248.584,52.587z"/>
				<path style="fill:#FFFFFF;" d="M248.587,79.056c-0.016-0.778,0.605-1.426,1.384-1.443l0,0c0.792,0,1.425,0.621,1.441,1.383
					l-1.413,67.678L248.587,79.056z"/>
				<path style="fill:#FFFFFF;" d="M424.892,68.001c0.268-0.446,0.739-0.712,1.261-0.712c0.265,0,0.524,0.072,0.754,0.209
					c0.693,0.417,0.919,1.32,0.503,2.014c-0.115,0.191-0.277,0.358-0.47,0.482l-5.265,3.367L424.892,68.001z"/>
				<path style="fill:#FFFFFF;" d="M413.501,79.743c0.271-0.338,0.675-0.531,1.109-0.531c0.326,0,0.633,0.108,0.889,0.313
					c0.296,0.238,0.481,0.576,0.523,0.953c0.041,0.378-0.066,0.75-0.304,1.046c-0.056,0.07-0.125,0.139-0.19,0.196l-11.373,9.671
					L413.501,79.743z"/>
				<path style="fill:#FFFFFF;" d="M391.457,102.429c0.269-0.288,0.635-0.446,1.03-0.446c0.36,0,0.703,0.136,0.966,0.384
					c0.275,0.257,0.433,0.607,0.445,0.984c0.012,0.377-0.124,0.737-0.381,1.011L336.115,161.4L391.457,102.429z"/>
				<path style="fill:#FFFFFF;" d="M73.847,432.728c-0.265,0-0.524-0.072-0.754-0.21c-0.693-0.417-0.92-1.32-0.503-2.014
					c0.115-0.191,0.277-0.358,0.47-0.482l5.265-3.368l-3.217,5.361C74.84,432.462,74.369,432.728,73.847,432.728L73.847,432.728z"/>
				<path style="fill:#FFFFFF;" d="M85.389,420.805c-0.325,0-0.633-0.109-0.888-0.313c-0.296-0.238-0.481-0.576-0.523-0.954
					c-0.041-0.378,0.066-0.749,0.304-1.046c0.056-0.07,0.125-0.139,0.19-0.195l11.373-9.672L86.5,420.274
					C86.228,420.611,85.824,420.805,85.389,420.805L85.389,420.805z"/>
				<path style="fill:#FFFFFF;" d="M107.513,398.034c-0.36,0-0.703-0.136-0.966-0.383c-0.275-0.258-0.433-0.607-0.445-0.984
					c-0.012-0.377,0.124-0.737,0.381-1.011l57.403-57.039l-55.343,58.971C108.273,397.876,107.907,398.034,107.513,398.034
					L107.513,398.034z"/>
				<path style="fill:#FFFFFF;" d="M431.244,427.633c-0.265,0-0.525-0.072-0.754-0.21c-0.192-0.115-0.359-0.277-0.482-0.47
					l-3.367-5.264l5.361,3.217c0.693,0.417,0.92,1.32,0.503,2.014C432.237,427.367,431.765,427.633,431.244,427.633L431.244,427.633
					z"/>
				<path style="fill:#FFFFFF;" d="M419.368,416.044c-0.326,0-0.633-0.109-0.888-0.313c-0.07-0.056-0.138-0.123-0.194-0.189
					l-9.674-11.375l11.648,9.347c0.295,0.238,0.481,0.576,0.523,0.954c0.041,0.378-0.067,0.748-0.305,1.044
					C420.207,415.851,419.802,416.044,419.368,416.044L419.368,416.044z"/>
				<path style="fill:#FFFFFF;" d="M396.608,393.912c-0.36,0-0.704-0.135-0.967-0.382l-57.036-57.404l58.969,55.345
					c0.275,0.258,0.433,0.607,0.445,0.985c0.012,0.377-0.123,0.736-0.381,1.011C397.368,393.754,397.003,393.912,396.608,393.912
					L396.608,393.912z"/>
				<path style="fill:#FFFFFF;" d="M67.998,75.11c-0.693-0.417-0.92-1.32-0.503-2.014c0.268-0.446,0.74-0.712,1.26-0.712
					c0.265,0,0.525,0.072,0.754,0.209c0.191,0.115,0.357,0.276,0.483,0.47l3.366,5.264L67.998,75.11z"/>
				<path style="fill:#FFFFFF;" d="M79.74,86.503c-0.611-0.491-0.709-1.388-0.218-1.998c0.272-0.338,0.676-0.532,1.11-0.532
					c0.326,0,0.633,0.109,0.888,0.312c0.071,0.057,0.139,0.125,0.196,0.192l9.671,11.373L79.74,86.503z"/>
				<path style="fill:#FFFFFF;" d="M102.426,108.546c-0.275-0.257-0.434-0.607-0.446-0.984c-0.011-0.378,0.124-0.737,0.382-1.011
					c0.27-0.288,0.635-0.446,1.03-0.446c0.36,0,0.704,0.136,0.967,0.383l57.036,57.404L102.426,108.546z"/>
				<path style="fill:#FFFFFF;" d="M454.679,163.335c0.262-0.202,0.574-0.308,0.902-0.308c0.466,0,0.896,0.212,1.178,0.581
					c0.498,0.649,0.375,1.582-0.273,2.08c-0.204,0.157-0.448,0.259-0.708,0.295l-5.513,0.74L454.679,163.335z"/>
				<path style="fill:#FFFFFF;" d="M441.367,168.89c0.213-0.117,0.442-0.176,0.683-0.176c0.521,0,1,0.283,1.25,0.74
					c0.183,0.333,0.224,0.717,0.119,1.083c-0.106,0.365-0.349,0.667-0.683,0.851c-0.085,0.047-0.186,0.089-0.285,0.118l-12.633,3.72
					L441.367,168.89z"/>
				<path style="fill:#FFFFFF;" d="M415.643,179.592c0.181-0.079,0.371-0.12,0.567-0.12c0.56,0,1.069,0.332,1.294,0.846
					c0.313,0.713-0.012,1.548-0.725,1.861l-66.333,26.057L415.643,179.592z"/>
				<path style="fill:#FFFFFF;" d="M44.42,336.99c-0.466,0-0.896-0.212-1.178-0.581c-0.498-0.649-0.375-1.582,0.273-2.081
					c0.204-0.156,0.448-0.258,0.708-0.294l5.513-0.74l-4.414,3.387C45.059,336.883,44.748,336.99,44.42,336.99L44.42,336.99z"/>
				<path style="fill:#FFFFFF;" d="M57.951,331.303c-0.521,0-1-0.283-1.25-0.739c-0.183-0.334-0.226-0.719-0.119-1.084
					c0.107-0.365,0.349-0.667,0.683-0.85c0.085-0.046,0.185-0.088,0.284-0.118l12.633-3.721l-11.548,6.336
					C58.421,331.243,58.191,331.303,57.951,331.303L57.951,331.303z"/>
				<path style="fill:#FFFFFF;" d="M83.79,320.545c-0.56-0.001-1.068-0.333-1.294-0.846c-0.313-0.713,0.012-1.548,0.725-1.861
					l66.327-26.054l-65.192,28.64C84.177,320.505,83.986,320.545,83.79,320.545L83.79,320.545z"/>
				<path style="fill:#FFFFFF;" d="M335.495,457.081c-0.466,0-0.896-0.212-1.178-0.581c-0.156-0.203-0.258-0.448-0.295-0.71
					l-0.74-5.511l3.388,4.414c0.498,0.649,0.376,1.582-0.274,2.08C336.135,456.975,335.824,457.081,335.495,457.081L335.495,457.081
					z"/>
				<path style="fill:#FFFFFF;" d="M329.869,443.491c-0.521,0-1-0.283-1.25-0.74c-0.046-0.083-0.088-0.185-0.12-0.288l-3.72-12.632
					l6.337,11.55c0.377,0.688,0.125,1.555-0.564,1.933C330.339,443.431,330.111,443.491,329.869,443.491L329.869,443.491z"/>
				<path style="fill:#FFFFFF;" d="M319.123,417.637c-0.561,0-1.07-0.332-1.295-0.846l-26.053-66.326l28.639,65.191
					c0.313,0.713-0.012,1.548-0.725,1.861C319.509,417.597,319.318,417.637,319.123,417.637L319.123,417.637z"/>
				<path style="fill:#FFFFFF;" d="M163.329,45.323c-0.498-0.649-0.375-1.582,0.274-2.08c0.262-0.201,0.574-0.307,0.902-0.307
					c0.466,0,0.896,0.212,1.178,0.58c0.156,0.204,0.258,0.449,0.294,0.709l0.74,5.511L163.329,45.323z"/>
				<path style="fill:#FFFFFF;" d="M168.884,58.635c-0.377-0.688-0.124-1.556,0.564-1.933c0.213-0.116,0.443-0.176,0.683-0.176
					c0.521,0,1,0.283,1.25,0.739c0.046,0.085,0.088,0.186,0.12,0.289l3.719,12.632L168.884,58.635z"/>
				<path style="fill:#FFFFFF;" d="M179.586,84.36c-0.313-0.713,0.012-1.548,0.725-1.861c0.181-0.079,0.371-0.12,0.567-0.12
					c0.561,0,1.069,0.332,1.294,0.845l26.053,66.327L179.586,84.36z"/>
				<path style="fill:#FFFFFF;" d="M345.753,1.238C345.863,0.532,346.483,0,347.196,0c0.075,0,0.151,0.006,0.227,0.018
					c0.797,0.123,1.344,0.872,1.22,1.669c-0.032,0.207-0.113,0.413-0.233,0.594l-3.666,5.455L345.753,1.238z"/>
				<path style="fill:#FFFFFF;" d="M339.475,17.325c0.176-0.603,0.736-1.024,1.363-1.024c0.133,0,0.267,0.019,0.397,0.057
					c0.753,0.219,1.187,1.009,0.968,1.76c-0.024,0.08-0.058,0.167-0.095,0.243l-7.033,14.1L339.475,17.325z"/>
				<path style="fill:#FFFFFF;" d="M327.313,48.433c0.205-0.55,0.736-0.921,1.324-0.921c0.167,0,0.333,0.03,0.492,0.09
					c0.73,0.272,1.102,1.087,0.831,1.816l-32.434,79.059L327.313,48.433z"/>
				<path style="fill:#FFFFFF;" d="M152.805,500.017c-0.075,0-0.151-0.006-0.227-0.018c-0.386-0.059-0.725-0.266-0.956-0.581
					c-0.231-0.315-0.325-0.702-0.265-1.087c0.032-0.207,0.113-0.413,0.233-0.594l3.666-5.456l-1.009,6.499
					C154.137,499.484,153.518,500.017,152.805,500.017L152.805,500.017z"/>
				<path style="fill:#FFFFFF;" d="M159.162,483.716c-0.133,0-0.267-0.019-0.397-0.057c-0.753-0.218-1.187-1.008-0.968-1.76
					c0.024-0.081,0.058-0.166,0.095-0.241l7.034-14.1l-4.4,15.133C160.35,483.295,159.79,483.716,159.162,483.716L159.162,483.716z"
					/>
				<path style="fill:#FFFFFF;" d="M171.363,452.505c-0.167,0-0.333-0.031-0.493-0.09c-0.353-0.132-0.635-0.393-0.792-0.736
					c-0.157-0.343-0.171-0.727-0.04-1.08l32.434-79.059l-29.787,80.044C172.482,452.134,171.951,452.505,171.363,452.505
					L171.363,452.505z"/>
				<path style="fill:#FFFFFF;" d="M498.54,348.672c-0.075,0-0.151-0.006-0.227-0.018c-0.208-0.032-0.413-0.112-0.591-0.231
					l-5.458-3.666l6.498,1.009c0.797,0.123,1.344,0.872,1.22,1.668C499.873,348.139,499.253,348.672,498.54,348.672L498.54,348.672z
					"/>
				<path style="fill:#FFFFFF;" d="M482.279,342.271c-0.134,0-0.267-0.019-0.397-0.057c-0.083-0.024-0.168-0.058-0.243-0.095
					l-14.097-7.031l15.133,4.399c0.752,0.219,1.186,1.009,0.967,1.76C483.466,341.85,482.907,342.271,482.279,342.271
					L482.279,342.271z"/>
				<path style="fill:#FFFFFF;" d="M451.075,330.061c-0.167,0-0.333-0.031-0.492-0.09l-79.059-32.436l80.045,29.789
					c0.353,0.132,0.635,0.393,0.791,0.736c0.156,0.343,0.171,0.727,0.039,1.08C452.195,329.69,451.663,330.061,451.075,330.061
					L451.075,330.061z"/>
				<path style="fill:#FFFFFF;" d="M1.238,154.252c-0.386-0.06-0.725-0.266-0.956-0.581c-0.231-0.315-0.325-0.702-0.265-1.088
					c0.109-0.705,0.73-1.237,1.442-1.237c0.075,0,0.151,0.006,0.228,0.017c0.208,0.033,0.413,0.113,0.591,0.233l5.458,3.666
					L1.238,154.252z"/>
				<path style="fill:#FFFFFF;" d="M17.325,160.53c-0.364-0.106-0.666-0.347-0.848-0.679c-0.183-0.333-0.225-0.717-0.119-1.081
					c0.175-0.603,0.735-1.024,1.363-1.024c0.134,0,0.267,0.019,0.397,0.057c0.083,0.024,0.168,0.058,0.243,0.095l14.097,7.031
					L17.325,160.53z"/>
				<path style="fill:#FFFFFF;" d="M48.431,172.693c-0.729-0.272-1.103-1.087-0.831-1.817c0.205-0.55,0.737-0.921,1.324-0.921
					c0.168,0,0.333,0.03,0.493,0.09l79.057,32.435L48.431,172.693z"/>
				<path style="fill:#FFFFFF;" d="M462.197,205.121l4.962-2.515c0.211-0.107,0.436-0.161,0.669-0.161
					c0.564,0,1.07,0.312,1.325,0.813c0.179,0.354,0.21,0.756,0.087,1.133c-0.123,0.377-0.386,0.682-0.739,0.861
					c-0.206,0.105-0.44,0.16-0.677,0.16L462.197,205.121z"/>
				<path style="fill:#FFFFFF;" d="M453.05,205.609c0.144-0.048,0.293-0.072,0.443-0.072c0.618,0,1.162,0.395,1.354,0.982
					c0.119,0.362,0.089,0.747-0.083,1.087c-0.172,0.339-0.466,0.591-0.827,0.709c-0.092,0.03-0.2,0.053-0.302,0.064l-13.104,1.325
					L453.05,205.609z"/>
				<path style="fill:#FFFFFF;" d="M425.793,211.378c0.106-0.024,0.214-0.037,0.321-0.037c0.66,0,1.225,0.449,1.375,1.094
					c0.085,0.368,0.022,0.746-0.177,1.067c-0.199,0.32-0.512,0.544-0.88,0.629l-69.999,13.364L425.793,211.378z"/>
				<path style="fill:#FFFFFF;" d="M32.172,297.572c-0.563,0-1.07-0.312-1.325-0.814c-0.179-0.354-0.21-0.755-0.087-1.133
					c0.123-0.376,0.386-0.682,0.739-0.861c0.206-0.105,0.44-0.16,0.677-0.16l5.626,0.292l-4.961,2.514
					C32.631,297.517,32.405,297.572,32.172,297.572L32.172,297.572z"/>
				<path style="fill:#FFFFFF;" d="M46.506,294.479c-0.618,0-1.161-0.394-1.353-0.982c-0.119-0.361-0.089-0.747,0.083-1.087
					c0.172-0.34,0.466-0.591,0.827-0.709c0.092-0.031,0.201-0.054,0.305-0.065l13.101-1.325l-12.519,4.095
					C46.805,294.455,46.656,294.479,46.506,294.479L46.506,294.479z"/>
				<path style="fill:#FFFFFF;" d="M73.885,288.675c-0.66,0-1.224-0.45-1.374-1.093c-0.176-0.759,0.298-1.519,1.057-1.695
					l69.993-13.362l-69.354,16.114C74.1,288.663,73.992,288.675,73.885,288.675z"/>
				<path style="fill:#FFFFFF;" d="M296.079,469.331c-0.562,0-1.07-0.312-1.325-0.814c-0.117-0.23-0.171-0.489-0.16-0.75l0.29-5.554
					l2.515,4.963c0.37,0.73,0.078,1.625-0.652,1.994C296.538,469.276,296.312,469.331,296.079,469.331L296.079,469.331z"/>
				<path style="fill:#FFFFFF;" d="M293.044,454.933c-0.618,0-1.161-0.394-1.353-0.982c-0.03-0.092-0.052-0.199-0.064-0.301
					l-1.325-13.104l4.095,12.52c0.118,0.362,0.088,0.747-0.084,1.087c-0.171,0.339-0.465,0.591-0.827,0.709
					C293.343,454.909,293.194,454.933,293.044,454.933L293.044,454.933z"/>
				<path style="fill:#FFFFFF;" d="M287.25,427.54c-0.659,0-1.223-0.449-1.373-1.093l-13.363-69.996l16.114,69.357
					c0.176,0.758-0.298,1.518-1.056,1.695C287.466,427.528,287.358,427.54,287.25,427.54z"/>
				<path style="fill:#FFFFFF;" d="M202.6,32.841c-0.179-0.354-0.21-0.755-0.087-1.133c0.123-0.376,0.386-0.682,0.739-0.861
					c0.21-0.107,0.436-0.161,0.669-0.161c0.563,0,1.07,0.312,1.325,0.813c0.117,0.23,0.171,0.49,0.16,0.751l-0.29,5.554
					L202.6,32.841z"/>
				<path style="fill:#FFFFFF;" d="M205.602,46.951c-0.244-0.747,0.165-1.553,0.91-1.797c0.144-0.048,0.294-0.071,0.442-0.071
					c0.618,0,1.162,0.395,1.354,0.982c0.03,0.093,0.052,0.2,0.064,0.302l1.325,13.104L205.602,46.951z"/>
				<path style="fill:#FFFFFF;" d="M211.371,74.209c-0.176-0.758,0.298-1.519,1.056-1.696c0.106-0.024,0.214-0.037,0.321-0.037
					c0.659,0,1.224,0.45,1.374,1.094l13.363,69.995L211.371,74.209z"/>
				<path style="fill:#FFFFFF;" d="M370.038,62.929c0.2-0.611,0.766-1.022,1.409-1.022c0.156,0,0.312,0.025,0.462,0.075
					c0.377,0.123,0.683,0.385,0.862,0.739c0.179,0.354,0.21,0.756,0.087,1.133c-0.08,0.244-0.224,0.466-0.418,0.641l-4.132,3.723
					L370.038,62.929z"/>
				<path style="fill:#FFFFFF;" d="M362.185,75.029c0.244-0.481,0.731-0.781,1.272-0.781c0.224,0,0.439,0.053,0.641,0.155
					c0.701,0.355,0.982,1.214,0.627,1.914c-0.044,0.085-0.105,0.178-0.17,0.26l-8.327,10.2L362.185,75.029z"/>
				<path style="fill:#FFFFFF;" d="M346.99,98.384c0.26-0.418,0.709-0.666,1.201-0.666c0.262,0,0.52,0.074,0.745,0.214
					c0.32,0.2,0.544,0.512,0.629,0.879c0.085,0.367,0.023,0.746-0.177,1.066l-40.046,58.946L346.99,98.384z"/>
				<path style="fill:#FFFFFF;" d="M128.553,438.11c-0.156,0-0.312-0.025-0.462-0.075c-0.778-0.254-1.203-1.094-0.949-1.872
					c0.08-0.244,0.224-0.466,0.418-0.641l4.132-3.723l-1.731,5.288C129.762,437.699,129.196,438.11,128.553,438.11z"/>
				<path style="fill:#FFFFFF;" d="M136.544,425.768c-0.224,0-0.44-0.052-0.642-0.154c-0.34-0.172-0.592-0.467-0.71-0.828
					c-0.118-0.362-0.089-0.747,0.083-1.086c0.043-0.085,0.104-0.178,0.17-0.261l8.327-10.2l-5.957,11.748
					C137.571,425.469,137.084,425.768,136.544,425.768z"/>
				<path style="fill:#FFFFFF;" d="M151.81,402.299c-0.262,0-0.52-0.074-0.745-0.214c-0.32-0.2-0.544-0.512-0.629-0.88
					c-0.085-0.367-0.023-0.746,0.177-1.066l40.046-58.946l-37.648,60.44C152.75,402.049,152.302,402.299,151.81,402.299
					L151.81,402.299z"/>
				<path style="fill:#FFFFFF;" d="M436.612,372.945c-0.156,0-0.312-0.025-0.462-0.075c-0.246-0.08-0.468-0.225-0.642-0.419
					l-3.723-4.132l5.288,1.731c0.778,0.255,1.203,1.094,0.948,1.871C437.821,372.533,437.254,372.945,436.612,372.945
					L436.612,372.945z"/>
				<path style="fill:#FFFFFF;" d="M424.328,364.891c-0.225,0-0.441-0.053-0.643-0.155c-0.085-0.043-0.177-0.102-0.259-0.169
					l-10.201-8.329l11.75,5.958c0.7,0.355,0.981,1.213,0.625,1.915C425.355,364.592,424.868,364.891,424.328,364.891
					L424.328,364.891z"/>
				<path style="fill:#FFFFFF;" d="M400.87,349.613c-0.262,0-0.52-0.073-0.744-0.214l-58.945-40.048l60.439,37.651
					c0.661,0.411,0.863,1.285,0.452,1.945C401.811,349.365,401.363,349.613,400.87,349.613L400.87,349.613z"/>
				<path style="fill:#FFFFFF;" d="M62.928,129.966c-0.778-0.255-1.203-1.094-0.948-1.872c0.2-0.611,0.766-1.023,1.409-1.023
					c0.156,0,0.312,0.025,0.462,0.075c0.245,0.079,0.467,0.224,0.643,0.418l3.722,4.132L62.928,129.966z"/>
				<path style="fill:#FFFFFF;" d="M75.027,137.82c-0.339-0.172-0.591-0.465-0.709-0.827c-0.119-0.361-0.089-0.748,0.084-1.087
					c0.244-0.482,0.731-0.78,1.271-0.78c0.225,0,0.441,0.052,0.643,0.155c0.085,0.043,0.177,0.102,0.259,0.169l10.2,8.327
					L75.027,137.82z"/>
				<path style="fill:#FFFFFF;" d="M98.381,153.015c-0.661-0.411-0.863-1.285-0.452-1.946c0.26-0.417,0.709-0.666,1.201-0.666
					c0.263,0,0.52,0.073,0.744,0.214l58.944,40.047L98.381,153.015z"/>
				<path style="fill:#FFFFFF;" d="M432.311,122.851c0.282-0.33,0.693-0.519,1.128-0.519c0.353,0,0.695,0.127,0.964,0.356
					c0.302,0.258,0.484,0.618,0.515,1.013c0.031,0.394-0.094,0.777-0.351,1.079c-0.168,0.195-0.387,0.345-0.633,0.434l-5.239,1.865
					L432.311,122.851z"/>
				<path style="fill:#FFFFFF;" d="M420.438,131.041c0.257-0.222,0.587-0.344,0.927-0.344c0.416,0,0.809,0.181,1.081,0.496
					c0.512,0.595,0.444,1.496-0.152,2.008c-0.072,0.063-0.163,0.125-0.256,0.176l-11.588,6.254L420.438,131.041z"/>
				<path style="fill:#FFFFFF;" d="M397.485,146.835c0.241-0.173,0.525-0.264,0.821-0.264c0.455,0,0.885,0.22,1.15,0.589
					c0.221,0.307,0.307,0.68,0.246,1.053c-0.061,0.372-0.264,0.699-0.57,0.918l-59.499,39.217L397.485,146.835z"/>
				<path style="fill:#FFFFFF;" d="M66.561,377.684c-0.353,0-0.695-0.127-0.964-0.356c-0.302-0.257-0.484-0.617-0.515-1.012
					c-0.031-0.394,0.094-0.778,0.351-1.079c0.167-0.196,0.386-0.346,0.633-0.434l5.239-1.865l-3.616,4.228
					C67.407,377.496,66.996,377.684,66.561,377.684L66.561,377.684z"/>
				<path style="fill:#FFFFFF;" d="M78.636,369.32c-0.416,0-0.809-0.181-1.081-0.496c-0.512-0.595-0.444-1.496,0.152-2.008
					c0.072-0.063,0.163-0.125,0.256-0.176l11.588-6.253l-9.988,8.589C79.305,369.198,78.976,369.32,78.636,369.32L78.636,369.32z"/>
				<path style="fill:#FFFFFF;" d="M101.695,353.446c-0.455,0-0.885-0.22-1.15-0.589c-0.454-0.632-0.308-1.516,0.324-1.971
					l59.503-39.22l-57.856,41.516C102.274,353.354,101.99,353.446,101.695,353.446L101.695,353.446z"/>
				<path style="fill:#FFFFFF;" d="M376.187,434.936c-0.352,0-0.695-0.126-0.964-0.356c-0.195-0.167-0.345-0.385-0.433-0.631
					l-1.865-5.241l4.228,3.616c0.622,0.532,0.695,1.471,0.164,2.093C377.034,434.747,376.622,434.936,376.187,434.936
					L376.187,434.936z"/>
				<path style="fill:#FFFFFF;" d="M367.883,422.803c-0.415,0-0.809-0.18-1.08-0.495c-0.061-0.071-0.124-0.162-0.176-0.257
					l-6.253-11.588l8.588,9.988c0.248,0.289,0.37,0.656,0.34,1.035c-0.029,0.38-0.203,0.725-0.492,0.973
					C368.554,422.681,368.224,422.803,367.883,422.803L367.883,422.803z"/>
				<path style="fill:#FFFFFF;" d="M352.023,399.733c-0.455,0-0.885-0.22-1.149-0.589l-39.215-59.501l41.51,57.854
					c0.454,0.632,0.309,1.517-0.323,1.971C352.604,399.642,352.32,399.733,352.023,399.733L352.023,399.733z"/>
				<path style="fill:#FFFFFF;" d="M122.848,67.691c-0.302-0.258-0.484-0.618-0.515-1.013c-0.031-0.394,0.094-0.778,0.351-1.079
					c0.282-0.33,0.694-0.518,1.129-0.518c0.352,0,0.695,0.126,0.964,0.356c0.195,0.167,0.345,0.385,0.433,0.631l1.865,5.24
					L122.848,67.691z"/>
				<path style="fill:#FFFFFF;" d="M131.038,79.566c-0.248-0.289-0.37-0.656-0.34-1.035c0.029-0.38,0.203-0.725,0.492-0.973
					c0.257-0.222,0.587-0.345,0.927-0.345c0.416,0,0.809,0.181,1.081,0.496c0.063,0.072,0.124,0.163,0.175,0.255l6.254,11.59
					L131.038,79.566z"/>
				<path style="fill:#FFFFFF;" d="M146.831,102.519c-0.455-0.633-0.309-1.517,0.323-1.971c0.241-0.173,0.526-0.264,0.822-0.264
					c0.455,0,0.885,0.219,1.15,0.589l39.215,59.501L146.831,102.519z"/>
				<path style="fill:#FFFFFF;" d="M289.003,31.177c-0.063-0.815,0.548-1.531,1.365-1.595c0.039-0.003,0.078-0.004,0.116-0.004
					c0.769,0,1.418,0.601,1.477,1.369c0.02,0.257-0.027,0.516-0.139,0.753l-2.387,5.024L289.003,31.177z"/>
				<path style="fill:#FFFFFF;" d="M286.397,45.365c0.056-0.738,0.679-1.317,1.419-1.317l0.109,0.004
					c0.379,0.028,0.724,0.203,0.972,0.492c0.248,0.288,0.368,0.656,0.34,1.035c-0.008,0.097-0.027,0.206-0.057,0.306l-3.772,12.616
					L286.397,45.365z"/>
				<path style="fill:#FFFFFF;" d="M281.336,72.764c0.112-0.686,0.697-1.184,1.391-1.184c0.076,0,0.153,0.007,0.231,0.02
					c0.373,0.061,0.7,0.264,0.919,0.57c0.221,0.306,0.307,0.68,0.246,1.053l-14.341,69.8L281.336,72.764z"/>
				<path style="fill:#FFFFFF;" d="M209.516,470.439c-0.768,0-1.418-0.601-1.478-1.369c-0.02-0.256,0.028-0.517,0.14-0.754
					l2.386-5.024l0.432,5.547c0.063,0.816-0.548,1.532-1.365,1.595C209.594,470.437,209.555,470.439,209.516,470.439z"/>
				<path style="fill:#FFFFFF;" d="M212.075,455.965c-0.379-0.028-0.724-0.203-0.972-0.492c-0.248-0.289-0.368-0.656-0.34-1.035
					c0.008-0.098,0.027-0.206,0.057-0.306l3.772-12.616l-0.988,13.136c-0.056,0.738-0.679,1.317-1.419,1.317L212.075,455.965z"/>
				<path style="fill:#FFFFFF;" d="M217.273,428.437c-0.076,0-0.153-0.007-0.231-0.019c-0.373-0.062-0.699-0.265-0.919-0.571
					c-0.221-0.307-0.308-0.68-0.246-1.053l14.343-69.807l-11.556,70.265C218.552,427.94,217.967,428.437,217.273,428.437
					L217.273,428.437z"/>
				<path style="fill:#FFFFFF;" d="M468.944,291.975c-0.221,0-0.442-0.05-0.642-0.145l-5.024-2.387l5.546-0.431
					c0.04-0.003,0.079-0.004,0.119-0.004c0.768,0,1.417,0.6,1.476,1.367c0.064,0.816-0.548,1.532-1.364,1.595L468.944,291.975z"/>
				<path style="fill:#FFFFFF;" d="M454.422,289.248c-0.094-0.008-0.202-0.027-0.305-0.058l-12.616-3.772l13.136,0.988
					c0.783,0.059,1.372,0.745,1.313,1.528c-0.056,0.739-0.679,1.318-1.418,1.318L454.422,289.248z"/>
				<path style="fill:#FFFFFF;" d="M427.012,284.152c-0.077,0-0.154-0.007-0.232-0.02l-69.804-14.343l70.262,11.556
					c0.769,0.126,1.291,0.854,1.164,1.623C428.291,283.654,427.705,284.152,427.012,284.152L427.012,284.152z"/>
				<path style="fill:#FFFFFF;" d="M31.059,211.008c-0.769,0-1.418-0.6-1.477-1.368c-0.031-0.395,0.094-0.779,0.351-1.081
					c0.258-0.3,0.618-0.483,1.012-0.514l0.111-0.004c0.221,0,0.443,0.05,0.644,0.144l5.022,2.386l-5.546,0.432
					C31.137,211.008,31.098,211.008,31.059,211.008z"/>
				<path style="fill:#FFFFFF;" d="M45.364,213.61c-0.379-0.029-0.724-0.204-0.973-0.492c-0.248-0.289-0.369-0.656-0.34-1.035
					c0.056-0.739,0.679-1.318,1.418-1.318l0.109,0.004c0.094,0.008,0.202,0.027,0.305,0.058l12.616,3.771L45.364,213.61z"/>
				<path style="fill:#FFFFFF;" d="M72.762,218.672c-0.769-0.126-1.291-0.855-1.164-1.623c0.112-0.686,0.697-1.184,1.391-1.184
					c0.077,0,0.154,0.007,0.232,0.02l69.804,14.343L72.762,218.672z"/>
				<path style="fill:#FFFFFF;" d="M491.876,272.836c-0.162,0-0.328-0.027-0.48-0.078l-5.701-1.939l5.955-0.91
					c0.076-0.012,0.15-0.017,0.225-0.017c0.719,0,1.344,0.537,1.453,1.25c0.059,0.389-0.036,0.777-0.27,1.094
					c-0.232,0.318-0.575,0.524-0.964,0.584C492.021,272.831,491.948,272.836,491.876,272.836z"/>
				<path style="fill:#FFFFFF;" d="M476.013,271.386c-0.093,0-0.19-0.01-0.279-0.026l-14.097-2.664l14.35-0.154
					c0.792,0,1.429,0.631,1.437,1.407c0.008,0.784-0.623,1.428-1.407,1.437H476.013z"/>
				<path style="fill:#FFFFFF;" d="M445.521,268.69l-77.293-8.242l77.491,5.424c0.376,0.027,0.719,0.198,0.966,0.483
					c0.248,0.285,0.37,0.649,0.344,1.025c-0.052,0.737-0.67,1.315-1.408,1.315L445.521,268.69z"/>
				<path style="fill:#FFFFFF;" d="M8.127,230.125c-0.719,0-1.345-0.538-1.454-1.251c-0.059-0.387,0.036-0.776,0.27-1.093
					c0.232-0.318,0.575-0.525,0.964-0.584c0.073-0.011,0.146-0.017,0.218-0.017c0.161,0,0.327,0.027,0.481,0.078l5.7,1.939
					l-5.955,0.91C8.276,230.12,8.201,230.125,8.127,230.125z"/>
				<path style="fill:#FFFFFF;" d="M23.997,231.476c-0.776,0-1.413-0.632-1.422-1.407c-0.003-0.38,0.14-0.738,0.406-1.01
					c0.265-0.271,0.621-0.423,1.001-0.427c0.099,0,0.196,0.01,0.284,0.026l14.097,2.665L23.997,231.476z"/>
				<path style="fill:#FFFFFF;" d="M54.281,234.145c-0.776-0.055-1.364-0.731-1.31-1.507c0.052-0.737,0.669-1.315,1.406-1.315
					l0.101,0.003l77.294,8.243L54.281,234.145z"/>
				<path style="fill:#FFFFFF;" d="M228.642,493.36c-0.719,0-1.343-0.537-1.453-1.25c-0.034-0.23-0.013-0.472,0.063-0.699l1.939-5.7
					l0.91,5.954c0.059,0.389-0.036,0.778-0.269,1.096c-0.233,0.317-0.575,0.523-0.964,0.583
					C228.792,493.355,228.717,493.36,228.642,493.36z"/>
				<path style="fill:#FFFFFF;" d="M230.046,477.441c-0.776,0-1.413-0.632-1.422-1.407c-0.001-0.095,0.009-0.194,0.025-0.283
					l2.666-14.098l0.154,14.352c0.008,0.784-0.622,1.429-1.407,1.437H230.046z"/>
				<path style="fill:#FFFFFF;" d="M232.629,447.043c-0.776-0.054-1.364-0.73-1.31-1.507l8.242-77.296l-5.424,77.493
					c-0.053,0.737-0.671,1.314-1.409,1.314L232.629,447.043z"/>
				<path style="fill:#FFFFFF;" d="M269.9,8.351c-0.122-0.802,0.431-1.555,1.233-1.678c0.076-0.012,0.151-0.017,0.226-0.017
					c0.719,0,1.343,0.537,1.452,1.25c0.035,0.231,0.014,0.473-0.062,0.698l-1.939,5.701L269.9,8.351z"/>
				<path style="fill:#FFFFFF;" d="M268.532,24.014c-0.008-0.784,0.623-1.429,1.407-1.438c0.791,0,1.429,0.631,1.437,1.407
					c0.001,0.095-0.009,0.194-0.025,0.284l-2.666,14.098L268.532,24.014z"/>
				<path style="fill:#FFFFFF;" d="M265.862,54.283c0.053-0.736,0.671-1.314,1.409-1.314l0.1,0.004
					c0.776,0.054,1.364,0.73,1.31,1.507l-8.242,77.296L265.862,54.283z"/>
				<path style="fill:#FFFFFF;" d="M434.943,93.203c0.281-0.382,0.714-0.601,1.189-0.601c0.314,0,0.616,0.099,0.871,0.286
					c0.654,0.48,0.795,1.405,0.314,2.059c-0.139,0.188-0.325,0.343-0.538,0.45l-5.402,2.66L434.943,93.203z"/>
				<path style="fill:#FFFFFF;" d="M422.902,103.311c0.269-0.276,0.63-0.428,1.016-0.428c0.374,0,0.728,0.145,0.995,0.407
					c0.56,0.549,0.57,1.45,0.021,2.011c-0.064,0.066-0.141,0.13-0.216,0.181l-11.855,8.086L422.902,103.311z"/>
				<path style="fill:#FFFFFF;" d="M399.611,122.827c0.256-0.223,0.585-0.346,0.925-0.346c0.41,0,0.798,0.177,1.066,0.485
					c0.248,0.286,0.37,0.649,0.343,1.025c-0.026,0.376-0.197,0.72-0.482,0.967l-60.481,48.826L399.611,122.827z"/>
				<path style="fill:#FFFFFF;" d="M63.869,407.415c-0.314,0-0.616-0.099-0.871-0.286c-0.654-0.482-0.795-1.405-0.314-2.059
					c0.139-0.187,0.325-0.343,0.538-0.449l5.402-2.66l-3.567,4.854C64.777,407.196,64.344,407.415,63.869,407.415L63.869,407.415z"
					/>
				<path style="fill:#FFFFFF;" d="M76.082,397.134c-0.374,0-0.727-0.144-0.994-0.406c-0.56-0.549-0.57-1.451-0.021-2.011
					c0.065-0.066,0.141-0.13,0.216-0.181l11.855-8.086l-10.039,10.256C76.829,396.982,76.468,397.134,76.082,397.134L76.082,397.134
					z"/>
				<path style="fill:#FFFFFF;" d="M99.465,377.536c-0.41,0-0.799-0.177-1.067-0.487c-0.248-0.284-0.37-0.648-0.343-1.024
					c0.026-0.377,0.197-0.72,0.482-0.967l60.481-48.827l-58.628,50.958C100.132,377.413,99.805,377.536,99.465,377.536z"/>
				<path style="fill:#FFFFFF;" d="M405.927,437.616c-0.315,0-0.617-0.099-0.871-0.286c-0.188-0.139-0.344-0.326-0.45-0.538
					l-2.66-5.401l4.854,3.567c0.318,0.233,0.524,0.575,0.584,0.964c0.061,0.388-0.035,0.777-0.268,1.094
					C406.834,437.398,406.402,437.616,405.927,437.616L405.927,437.616z"/>
				<path style="fill:#FFFFFF;" d="M395.698,425.354c-0.374,0-0.727-0.144-0.994-0.406c-0.07-0.067-0.133-0.146-0.185-0.22
					l-8.082-11.851l10.256,10.039c0.272,0.265,0.424,0.621,0.428,1.001c0.003,0.38-0.14,0.738-0.405,1.009
					C396.445,425.202,396.084,425.354,395.698,425.354L395.698,425.354z"/>
				<path style="fill:#FFFFFF;" d="M376.112,401.963c-0.41,0-0.799-0.177-1.068-0.486l-48.827-60.487l50.961,58.634
					c0.51,0.588,0.448,1.481-0.141,1.993C376.781,401.84,376.452,401.963,376.112,401.963L376.112,401.963z"/>
				<path style="fill:#FFFFFF;" d="M93.2,65.059c-0.317-0.232-0.524-0.575-0.584-0.965c-0.06-0.388,0.036-0.777,0.269-1.094
					c0.281-0.382,0.713-0.601,1.188-0.601c0.314,0,0.615,0.099,0.87,0.287c0.188,0.139,0.344,0.324,0.451,0.538l2.66,5.402
					L93.2,65.059z"/>
				<path style="fill:#FFFFFF;" d="M103.308,77.101c-0.561-0.549-0.57-1.451-0.023-2.012c0.27-0.275,0.632-0.426,1.017-0.426
					c0.374,0,0.727,0.144,0.994,0.405c0.07,0.067,0.132,0.146,0.185,0.221l8.082,11.852L103.308,77.101z"/>
				<path style="fill:#FFFFFF;" d="M122.822,100.393c-0.247-0.285-0.368-0.649-0.343-1.025c0.027-0.376,0.198-0.72,0.483-0.967
					c0.257-0.224,0.586-0.347,0.925-0.347c0.41,0,0.799,0.177,1.068,0.486l48.827,60.486L122.822,100.393z"/>
				<path style="fill:#FFFFFF;" d="M480.766,175.591c0.231-0.14,0.494-0.214,0.762-0.214c0.52,0,0.991,0.265,1.26,0.709
					c0.421,0.693,0.199,1.601-0.495,2.023c-0.199,0.121-0.43,0.194-0.67,0.211l-6.007,0.399L480.766,175.591z"/>
				<path style="fill:#FFFFFF;" d="M465.779,180.343c0.179-0.077,0.367-0.116,0.56-0.116c0.57,0,1.084,0.339,1.307,0.863
					c0.15,0.35,0.155,0.735,0.014,1.089c-0.141,0.352-0.411,0.629-0.761,0.778c-0.085,0.036-0.183,0.066-0.272,0.086l-14.039,2.951
					L465.779,180.343z"/>
				<path style="fill:#FFFFFF;" d="M436.805,189.501c0.146-0.05,0.298-0.075,0.452-0.075c0.606,0,1.145,0.387,1.337,0.964
					c0.248,0.738-0.151,1.541-0.889,1.789l-74.535,22.07L436.805,189.501z"/>
				<path style="fill:#FFFFFF;" d="M18.472,324.64c-0.52,0-0.991-0.265-1.26-0.709c-0.421-0.693-0.199-1.601,0.495-2.023
					c0.199-0.121,0.43-0.194,0.67-0.211l6.006-0.399l-5.148,3.127C19.004,324.566,18.74,324.64,18.472,324.64L18.472,324.64z"/>
				<path style="fill:#FFFFFF;" d="M33.662,319.791c-0.57,0-1.084-0.34-1.307-0.863c-0.15-0.35-0.155-0.736-0.014-1.089
					c0.141-0.352,0.411-0.629,0.761-0.778c0.085-0.036,0.183-0.066,0.272-0.086l14.039-2.952l-13.191,5.652
					C34.042,319.751,33.854,319.791,33.662,319.791z"/>
				<path style="fill:#FFFFFF;" d="M62.743,310.591c-0.606,0-1.145-0.387-1.337-0.964c-0.248-0.738,0.15-1.541,0.889-1.789
					l74.534-22.07l-73.634,24.747C63.048,310.566,62.897,310.591,62.743,310.591z"/>
				<path style="fill:#FFFFFF;" d="M323.158,483.019c-0.519,0-0.99-0.265-1.26-0.709c-0.121-0.2-0.194-0.431-0.21-0.668l-0.4-6.009
					l3.127,5.149c0.421,0.694,0.2,1.602-0.494,2.023C323.69,482.945,323.427,483.019,323.158,483.019L323.158,483.019z"/>
				<path style="fill:#FFFFFF;" d="M318.357,467.778c-0.57,0-1.083-0.339-1.307-0.862c-0.039-0.089-0.066-0.184-0.086-0.272
					l-2.952-14.041l5.652,13.191c0.308,0.721-0.027,1.559-0.747,1.868C318.738,467.739,318.551,467.778,318.357,467.778
					L318.357,467.778z"/>
				<path style="fill:#FFFFFF;" d="M309.166,438.684c-0.606,0-1.144-0.388-1.338-0.964l-22.069-74.535l24.747,73.636
					c0.248,0.738-0.151,1.54-0.889,1.788C309.471,438.658,309.318,438.684,309.166,438.684z"/>
				<path style="fill:#FFFFFF;" d="M175.585,19.235c-0.421-0.694-0.2-1.601,0.494-2.022c0.231-0.14,0.494-0.214,0.763-0.214
					c0.519,0,0.99,0.265,1.26,0.709c0.121,0.2,0.194,0.431,0.21,0.668l0.4,6.009L175.585,19.235z"/>
				<path style="fill:#FFFFFF;" d="M180.336,34.222c-0.308-0.72,0.027-1.558,0.747-1.867c0.178-0.076,0.367-0.116,0.559-0.116
					c0.57,0,1.083,0.339,1.307,0.863c0.039,0.088,0.066,0.184,0.086,0.272l2.952,14.04L180.336,34.222z"/>
				<path style="fill:#FFFFFF;" d="M189.494,63.196c-0.248-0.738,0.151-1.541,0.889-1.789c0.146-0.049,0.298-0.074,0.45-0.074
					c0.608,0,1.145,0.388,1.339,0.964l22.069,74.535L189.494,63.196z"/>
				<path style="fill:#FFFFFF;" d="M360.556,34.206c0.162-0.662,0.75-1.124,1.43-1.124c0.117,0,0.235,0.015,0.35,0.042
					c0.789,0.193,1.274,0.991,1.081,1.78c-0.056,0.228-0.168,0.443-0.324,0.622l-3.967,4.531L360.556,34.206z"/>
				<path style="fill:#FFFFFF;" d="M353.32,48.163c0.217-0.543,0.736-0.894,1.321-0.894c0.18,0,0.357,0.034,0.527,0.102
					c0.727,0.291,1.083,1.121,0.791,1.848c-0.035,0.088-0.082,0.177-0.133,0.254l-7.839,12.015L353.32,48.163z"/>
				<path style="fill:#FFFFFF;" d="M339.307,75.127c0.24-0.484,0.726-0.785,1.267-0.785c0.218,0,0.429,0.05,0.627,0.148
					c0.697,0.346,0.982,1.196,0.636,1.894l-37.099,68.311L339.307,75.127z"/>
				<path style="fill:#FFFFFF;" d="M138.015,466.933c-0.117,0-0.236-0.014-0.351-0.042c-0.383-0.093-0.706-0.33-0.91-0.666
					c-0.204-0.336-0.265-0.731-0.171-1.114c0.056-0.227,0.168-0.442,0.324-0.622l3.967-4.531l-1.43,5.851
					C139.282,466.472,138.695,466.933,138.015,466.933L138.015,466.933z"/>
				<path style="fill:#FFFFFF;" d="M145.36,452.748c-0.18,0-0.357-0.034-0.527-0.102c-0.353-0.14-0.629-0.411-0.778-0.76
					c-0.15-0.35-0.154-0.736-0.013-1.089c0.035-0.088,0.082-0.177,0.131-0.252l7.84-12.016l-5.331,13.324
					C146.464,452.397,145.945,452.748,145.36,452.748L145.36,452.748z"/>
				<path style="fill:#FFFFFF;" d="M159.426,425.674c-0.218,0-0.429-0.05-0.627-0.148c-0.697-0.346-0.982-1.196-0.636-1.894
					l37.099-68.312l-34.569,69.569C160.453,425.374,159.967,425.674,159.426,425.674L159.426,425.674z"/>
				<path style="fill:#FFFFFF;" d="M465.447,363.471c-0.117,0-0.236-0.014-0.351-0.042c-0.227-0.055-0.442-0.167-0.622-0.324
					l-4.531-3.967l5.852,1.43c0.789,0.193,1.274,0.992,1.081,1.78C466.714,363.009,466.127,363.471,465.447,363.471L465.447,363.471
					z"/>
				<path style="fill:#FFFFFF;" d="M451.309,356.074c-0.18,0-0.357-0.034-0.527-0.102c-0.085-0.034-0.173-0.081-0.249-0.13
					L438.515,348l13.324,5.331c0.353,0.14,0.63,0.411,0.779,0.76c0.149,0.35,0.154,0.735,0.013,1.089
					C452.413,355.723,451.895,356.074,451.309,356.074L451.309,356.074z"/>
				<path style="fill:#FFFFFF;" d="M424.246,341.997c-0.218,0-0.429-0.05-0.626-0.148l-68.307-37.098l69.563,34.568
					c0.697,0.347,0.982,1.196,0.636,1.894C425.272,341.696,424.786,341.997,424.246,341.997L424.246,341.997z"/>
				<path style="fill:#FFFFFF;" d="M34.205,139.448c-0.383-0.093-0.705-0.33-0.91-0.666c-0.204-0.336-0.264-0.731-0.171-1.114
					c0.162-0.662,0.75-1.124,1.43-1.124c0.117,0,0.235,0.015,0.35,0.042c0.227,0.056,0.442,0.168,0.623,0.325l4.53,3.966
					L34.205,139.448z"/>
				<path style="fill:#FFFFFF;" d="M48.162,146.686c-0.353-0.141-0.63-0.411-0.779-0.761c-0.15-0.349-0.154-0.736-0.014-1.088
					c0.218-0.544,0.737-0.895,1.322-0.895c0.18,0,0.357,0.034,0.527,0.102c0.088,0.035,0.177,0.083,0.252,0.132l12.017,7.842
					L48.162,146.686z"/>
				<path style="fill:#FFFFFF;" d="M75.125,160.698c-0.337-0.168-0.59-0.457-0.71-0.815c-0.12-0.358-0.095-0.741,0.073-1.078
					c0.241-0.484,0.727-0.785,1.268-0.785c0.218,0,0.429,0.049,0.626,0.147l68.306,37.098L75.125,160.698z"/>
				<path style="fill:#FFFFFF;" d="M491.052,222.317c-0.059,0-0.118-0.003-0.175-0.01l-5.978-0.717l5.637-2.123
					c0.167-0.063,0.342-0.095,0.518-0.095c0.61,0,1.164,0.383,1.378,0.954c0.139,0.368,0.126,0.768-0.036,1.126
					c-0.163,0.358-0.455,0.632-0.822,0.771C491.409,222.285,491.233,222.317,491.052,222.317z"/>
				<path style="fill:#FFFFFF;" d="M474.93,221.371c0.103-0.023,0.207-0.034,0.312-0.034c0.659,0,1.242,0.468,1.386,1.113
					c0.171,0.766-0.313,1.527-1.078,1.698c-0.094,0.021-0.195,0.032-0.287,0.034l-14.341,0.31L474.93,221.371z"/>
				<path style="fill:#FFFFFF;" d="M444.764,225.023c0.067-0.01,0.133-0.014,0.199-0.014c0.699,0,1.299,0.523,1.395,1.218
					c0.053,0.374-0.044,0.745-0.272,1.046c-0.228,0.301-0.558,0.496-0.932,0.549l-77.326,7.932L444.764,225.023z"/>
				<path style="fill:#FFFFFF;" d="M8.946,280.644c-0.61,0-1.164-0.384-1.379-0.954c-0.286-0.76,0.1-1.611,0.859-1.896
					c0.166-0.062,0.342-0.094,0.525-0.094c0.058,0,0.116,0.004,0.173,0.009l5.978,0.717l-5.638,2.123
					C9.297,280.613,9.123,280.644,8.946,280.644L8.946,280.644z"/>
				<path style="fill:#FFFFFF;" d="M24.759,278.68c-0.659,0-1.242-0.468-1.386-1.113c-0.171-0.765,0.313-1.527,1.078-1.697
					c0.092-0.021,0.192-0.032,0.282-0.034l14.345-0.31l-14.009,3.12C24.967,278.669,24.863,278.68,24.759,278.68L24.759,278.68z"/>
				<path style="fill:#FFFFFF;" d="M55.038,275.008c-0.7,0-1.3-0.524-1.396-1.218c-0.053-0.374,0.044-0.745,0.271-1.046
					c0.228-0.302,0.559-0.495,0.933-0.548l77.326-7.932l-76.935,10.73C55.17,275.003,55.104,275.008,55.038,275.008z"/>
				<path style="fill:#FFFFFF;" d="M279.163,492.544c-0.61,0-1.164-0.383-1.379-0.954c-0.083-0.218-0.111-0.459-0.084-0.695
					l0.717-5.98l2.122,5.638c0.139,0.368,0.126,0.768-0.036,1.126c-0.163,0.358-0.455,0.632-0.822,0.771
					C279.514,492.512,279.339,492.544,279.163,492.544L279.163,492.544z"/>
				<path style="fill:#FFFFFF;" d="M277.246,476.678c-0.659,0-1.242-0.468-1.386-1.113c-0.021-0.092-0.031-0.191-0.034-0.282
					l-0.31-14.345l3.119,14.008c0.083,0.371,0.017,0.752-0.188,1.072c-0.203,0.32-0.519,0.543-0.89,0.625
					C277.455,476.666,277.351,476.678,277.246,476.678z"/>
				<path style="fill:#FFFFFF;" d="M273.584,446.387c-0.699,0-1.3-0.523-1.397-1.218l-7.932-77.328l10.73,76.938
					c0.107,0.771-0.433,1.485-1.204,1.594C273.715,446.382,273.649,446.387,273.584,446.387z"/>
				<path style="fill:#FFFFFF;" d="M219.461,9.464c-0.139-0.367-0.126-0.768,0.036-1.126c0.163-0.358,0.455-0.632,0.822-0.77
					c0.167-0.063,0.342-0.095,0.518-0.095c0.61,0,1.164,0.383,1.378,0.954c0.083,0.219,0.112,0.459,0.085,0.695l-0.717,5.979
					L219.461,9.464z"/>
				<path style="fill:#FFFFFF;" d="M221.364,25.07c-0.083-0.371-0.017-0.752,0.187-1.072c0.204-0.32,0.52-0.543,0.891-0.625
					c0.102-0.024,0.207-0.034,0.31-0.034c0.66,0,1.243,0.468,1.387,1.114c0.02,0.089,0.031,0.19,0.034,0.282l0.31,14.345
					L221.364,25.07z"/>
				<path style="fill:#FFFFFF;" d="M225.016,55.238c-0.052-0.374,0.044-0.745,0.272-1.046c0.228-0.302,0.558-0.495,0.932-0.548
					c0.066-0.009,0.132-0.014,0.197-0.014c0.699,0,1.3,0.523,1.396,1.218l7.932,77.328L225.016,55.238z"/>
				<path style="fill:#FFFFFF;" d="M398.49,58.323c0.238-0.526,0.766-0.866,1.343-0.866c0.209,0,0.413,0.044,0.606,0.132
					c0.358,0.162,0.631,0.454,0.77,0.822c0.139,0.368,0.126,0.768-0.037,1.127c-0.095,0.213-0.245,0.403-0.432,0.551l-4.735,3.72
					L398.49,58.323z"/>
				<path style="fill:#FFFFFF;" d="M388.801,70.704c0.262-0.414,0.712-0.66,1.202-0.66c0.269,0,0.532,0.077,0.761,0.222
					c0.662,0.42,0.859,1.301,0.438,1.963c-0.051,0.078-0.115,0.158-0.178,0.226l-9.922,10.36L388.801,70.704z"/>
				<path style="fill:#FFFFFF;" d="M370.052,94.617c0.269-0.357,0.681-0.561,1.129-0.561c0.309,0,0.603,0.099,0.85,0.285
					c0.301,0.228,0.496,0.559,0.548,0.933c0.052,0.374-0.045,0.745-0.272,1.046l-49.068,60.287L370.052,94.617z"/>
				<path style="fill:#FFFFFF;" d="M100.168,442.56c-0.209,0-0.413-0.044-0.606-0.132c-0.358-0.162-0.631-0.454-0.77-0.822
					c-0.139-0.367-0.126-0.768,0.037-1.126c0.095-0.213,0.245-0.403,0.432-0.551l4.735-3.72l-2.486,5.487
					C101.273,442.22,100.745,442.56,100.168,442.56L100.168,442.56z"/>
				<path style="fill:#FFFFFF;" d="M109.998,429.973c-0.269,0-0.532-0.076-0.761-0.222c-0.662-0.421-0.859-1.301-0.438-1.964
					c0.052-0.08,0.115-0.158,0.178-0.225l9.922-10.361l-7.699,12.113C110.937,429.727,110.488,429.973,109.998,429.973
					L109.998,429.973z"/>
				<path style="fill:#FFFFFF;" d="M128.82,405.961c-0.309,0-0.603-0.099-0.85-0.286c-0.302-0.228-0.496-0.559-0.549-0.933
					c-0.052-0.373,0.045-0.744,0.272-1.045l49.068-60.287l-46.813,61.989C129.679,405.756,129.267,405.961,128.82,405.961
					L128.82,405.961z"/>
				<path style="fill:#FFFFFF;" d="M441.07,401.317c-0.209,0-0.412-0.044-0.605-0.132c-0.213-0.097-0.404-0.247-0.552-0.433
					l-3.72-4.735l5.488,2.486c0.358,0.162,0.632,0.454,0.77,0.822c0.139,0.368,0.126,0.768-0.037,1.127
					C442.175,400.977,441.648,401.317,441.07,401.317L441.07,401.317z"/>
				<path style="fill:#FFFFFF;" d="M428.534,391.436c-0.268,0-0.532-0.077-0.76-0.222c-0.079-0.05-0.157-0.112-0.222-0.174
					l-10.364-9.926l12.11,7.698c0.663,0.421,0.859,1.302,0.438,1.965C429.474,391.19,429.025,391.436,428.534,391.436
					L428.534,391.436z"/>
				<path style="fill:#FFFFFF;" d="M404.533,372.605c-0.309,0-0.603-0.099-0.85-0.285l-60.292-49.075l61.995,46.82
					c0.621,0.47,0.745,1.357,0.276,1.979C405.392,372.4,404.981,372.605,404.533,372.605L404.533,372.605z"/>
				<path style="fill:#FFFFFF;" d="M58.32,101.513c-0.358-0.162-0.632-0.454-0.77-0.822c-0.139-0.368-0.126-0.768,0.037-1.126
					c0.238-0.527,0.765-0.866,1.343-0.866c0.208,0,0.412,0.044,0.605,0.132c0.212,0.095,0.403,0.246,0.553,0.434l3.72,4.733
					L58.32,101.513z"/>
				<path style="fill:#FFFFFF;" d="M70.702,111.203c-0.662-0.42-0.859-1.301-0.438-1.963c0.263-0.412,0.712-0.659,1.202-0.659
					c0.268,0,0.532,0.077,0.76,0.222c0.081,0.051,0.158,0.113,0.222,0.174l10.363,9.925L70.702,111.203z"/>
				<path style="fill:#FFFFFF;" d="M94.614,129.952c-0.301-0.228-0.495-0.558-0.547-0.932c-0.053-0.374,0.044-0.745,0.271-1.046
					c0.27-0.357,0.681-0.561,1.129-0.561c0.309,0,0.603,0.099,0.85,0.285l60.287,49.072L94.614,129.952z"/>
				<path style="fill:#FFFFFF;" d="M478.927,118.957c0.269-0.244,0.618-0.378,0.98-0.378c0.413,0,0.809,0.176,1.087,0.481
					c0.54,0.599,0.495,1.525-0.104,2.066c-0.157,0.143-0.351,0.252-0.561,0.317l-6.231,1.883L478.927,118.957z"/>
				<path style="fill:#FFFFFF;" d="M464.055,127.378c0.238-0.165,0.516-0.252,0.806-0.252c0.467,0,0.905,0.229,1.171,0.612
					c0.445,0.645,0.284,1.531-0.359,1.977c-0.072,0.048-0.154,0.094-0.231,0.129l-14.214,6.41L464.055,127.378z"/>
				<path style="fill:#FFFFFF;" d="M435.282,143.646c0.218-0.127,0.464-0.195,0.714-0.195c0.5,0,0.967,0.267,1.22,0.697
					c0.394,0.672,0.17,1.54-0.501,1.933l-74.3,40.38L435.282,143.646z"/>
				<path style="fill:#FFFFFF;" d="M20.093,381.438c-0.413,0-0.809-0.176-1.086-0.482c-0.541-0.598-0.495-1.524,0.104-2.065
					c0.158-0.144,0.352-0.253,0.56-0.317l6.233-1.884l-4.83,4.369C20.804,381.304,20.456,381.438,20.093,381.438L20.093,381.438z"/>
				<path style="fill:#FFFFFF;" d="M35.139,372.891c-0.468,0-0.905-0.229-1.171-0.612c-0.215-0.313-0.297-0.69-0.229-1.063
					c0.067-0.373,0.276-0.698,0.588-0.914c0.07-0.047,0.152-0.093,0.228-0.127l14.216-6.412l-12.826,8.876
					C35.707,372.804,35.428,372.891,35.139,372.891L35.139,372.891z"/>
				<path style="fill:#FFFFFF;" d="M64.004,356.566c-0.499-0.001-0.967-0.268-1.219-0.698c-0.191-0.325-0.245-0.706-0.15-1.071
					c0.095-0.365,0.326-0.671,0.651-0.862l74.306-40.383L64.718,356.37C64.501,356.498,64.254,356.566,64.004,356.566z"/>
				<path style="fill:#FFFFFF;" d="M379.963,481.388c-0.413,0-0.809-0.176-1.085-0.482c-0.143-0.157-0.252-0.351-0.317-0.561
					l-1.883-6.231l4.369,4.83c0.263,0.289,0.396,0.664,0.377,1.054c-0.02,0.391-0.19,0.751-0.481,1.012
					C380.674,481.253,380.326,481.388,379.963,481.388L379.963,481.388z"/>
				<path style="fill:#FFFFFF;" d="M371.46,466.3c-0.468,0-0.905-0.229-1.17-0.612c-0.052-0.074-0.095-0.156-0.13-0.231
					l-6.409-14.213l8.876,12.827c0.215,0.312,0.297,0.689,0.229,1.063c-0.068,0.373-0.277,0.697-0.589,0.914
					C372.027,466.212,371.749,466.3,371.46,466.3L371.46,466.3z"/>
				<path style="fill:#FFFFFF;" d="M355.143,437.425c-0.5,0-0.967-0.267-1.219-0.697l-40.378-74.302l42.813,72.87
					c0.191,0.326,0.245,0.706,0.15,1.071c-0.095,0.365-0.326,0.671-0.651,0.862C355.639,437.357,355.393,437.425,355.143,437.425
					L355.143,437.425z"/>
				<path style="fill:#FFFFFF;" d="M118.953,21.074c-0.263-0.289-0.396-0.664-0.377-1.055c0.02-0.39,0.19-0.749,0.48-1.011
					c0.27-0.245,0.618-0.379,0.982-0.379c0.413,0,0.809,0.176,1.085,0.483c0.143,0.157,0.252,0.351,0.316,0.56l1.884,6.233
					L118.953,21.074z"/>
				<path style="fill:#FFFFFF;" d="M127.374,35.946c-0.215-0.312-0.297-0.689-0.229-1.063c0.068-0.373,0.277-0.698,0.589-0.914
					c0.239-0.164,0.518-0.252,0.806-0.252c0.468,0,0.905,0.229,1.17,0.612c0.051,0.073,0.095,0.154,0.129,0.229l6.41,14.215
					L127.374,35.946z"/>
				<path style="fill:#FFFFFF;" d="M143.642,64.72c-0.394-0.672-0.17-1.539,0.502-1.935c0.216-0.126,0.463-0.194,0.713-0.194
					c0.499,0,0.967,0.267,1.219,0.696l40.376,74.299L143.642,64.72z"/>
				<path style="fill:#FFFFFF;" d="M313.505,15.997c0.025-0.8,0.671-1.426,1.471-1.426c0.44,0.013,0.804,0.177,1.074,0.464
					c0.269,0.287,0.411,0.662,0.399,1.054c-0.008,0.233-0.072,0.468-0.188,0.675l-2.944,5.254L313.505,15.997z"/>
				<path style="fill:#FFFFFF;" d="M309.312,31.15c0.119-0.683,0.707-1.178,1.399-1.178c0.081,0,0.163,0.007,0.246,0.02
					c0.772,0.135,1.292,0.873,1.158,1.645c-0.017,0.093-0.046,0.19-0.078,0.277l-5.184,13.377L309.312,31.15z"/>
				<path style="fill:#FFFFFF;" d="M301.183,60.43c0.161-0.623,0.723-1.06,1.367-1.06c0.119,0,0.238,0.015,0.355,0.045
					c0.754,0.195,1.208,0.967,1.014,1.722l-22.16,74.512L301.183,60.43z"/>
				<path style="fill:#FFFFFF;" d="M184.978,485.445c-0.394-0.012-0.758-0.177-1.027-0.463c-0.269-0.287-0.411-0.662-0.399-1.054
					c0.008-0.234,0.072-0.468,0.189-0.676l2.943-5.254l-0.188,6.022c-0.025,0.8-0.671,1.426-1.47,1.426L184.978,485.445z"/>
				<path style="fill:#FFFFFF;" d="M189.289,470.045c-0.081,0-0.163-0.007-0.246-0.021c-0.773-0.134-1.292-0.872-1.158-1.645
					c0.017-0.092,0.045-0.19,0.078-0.275l5.184-13.378l-2.458,14.141C190.57,469.55,189.982,470.045,189.289,470.045
					L189.289,470.045z"/>
				<path style="fill:#FFFFFF;" d="M197.451,440.646c-0.119,0-0.238-0.016-0.355-0.046c-0.366-0.094-0.673-0.325-0.864-0.65
					c-0.191-0.325-0.245-0.705-0.151-1.07l22.16-74.512l-19.424,75.219C198.656,440.21,198.093,440.646,197.451,440.646
					L197.451,440.646z"/>
				<path style="fill:#FFFFFF;" d="M483.912,316.459c-0.234-0.008-0.468-0.072-0.676-0.189l-5.253-2.943l6.02,0.188
					c0.812,0.026,1.451,0.706,1.426,1.517c-0.025,0.8-0.671,1.427-1.471,1.427L483.912,316.459z"/>
				<path style="fill:#FFFFFF;" d="M468.61,312.145c-0.081,0-0.164-0.007-0.247-0.021c-0.093-0.016-0.187-0.044-0.27-0.075
					l-13.38-5.185l14.139,2.458c0.772,0.135,1.292,0.873,1.157,1.645C469.89,311.65,469.302,312.145,468.61,312.145L468.61,312.145z
					"/>
				<path style="fill:#FFFFFF;" d="M439.221,303.974c-0.119,0-0.239-0.016-0.355-0.046l-74.503-22.158l75.21,19.423
					c0.754,0.195,1.208,0.966,1.014,1.721C440.425,303.538,439.864,303.974,439.221,303.974L439.221,303.974z"/>
				<path style="fill:#FFFFFF;" d="M15.998,186.501c-0.812-0.025-1.451-0.706-1.427-1.518c0.025-0.8,0.671-1.426,1.471-1.426
					c0.28,0.008,0.513,0.073,0.723,0.19l5.253,2.942L15.998,186.501z"/>
				<path style="fill:#FFFFFF;" d="M31.148,190.695c-0.772-0.134-1.292-0.873-1.157-1.645c0.119-0.683,0.708-1.179,1.399-1.179
					c0.081,0,0.164,0.007,0.247,0.02c0.091,0.017,0.188,0.045,0.274,0.078l13.378,5.184L31.148,190.695z"/>
				<path style="fill:#FFFFFF;" d="M60.428,198.823c-0.365-0.094-0.672-0.325-0.863-0.65c-0.191-0.325-0.245-0.706-0.151-1.07
					c0.161-0.625,0.723-1.06,1.367-1.06c0.118,0,0.238,0.016,0.354,0.046l74.51,22.16L60.428,198.823z"/>
			</g>
		</g>
	</g>
</g>
</svg>
