<?xml version="1.0" encoding="utf-8"?>
<!-- Generator: Adobe Illustrator 21.0.0, SVG Export Plug-In . SVG Version: 6.00 Build 0)  -->
<svg version="1.1" id="Capa_1" xmlns="http://www.w3.org/2000/svg" xmlns:xlink="http://www.w3.org/1999/xlink" x="0px" y="0px"
	 viewBox="0 0 770.72 358.411" style="enable-background:new 0 0 770.72 358.411;" xml:space="preserve">
<g>
	<g style="opacity:0.5;">
		<path id="XMLID_314_" style="fill-rule:evenodd;clip-rule:evenodd;fill:#FFFFFF;" d="M386.261,233.28
			c0.312-1.239,0.114-2.832-0.604-4.051c0.174-0.176,0.338-0.361,0.478-0.566c0.572-0.572,0.939-1.251,1.102-2.037
			c0.049-0.52,0.099-1.04,0.148-1.56c-0.065-1.034-0.407-2.004-1.026-2.909c-0.36-0.404-0.759-0.648-1.119-1.052
			c-0.874-0.764-1.93-1.137-3.091-1.429l-0.612-0.154c-0.557-0.792-1.334-0.543-2.045-0.4c-0.069-0.077-0.134-0.166-0.202-0.243
			c-0.693-0.605-1.478-1.063-2.35-1.374c-0.672-0.501-1.406-0.968-2.196-1.394c0.008-0.085,0.016-0.171,0.025-0.256
			c0.348-0.601,0.608-1.244,0.714-1.916c0.229-0.769,0.227-1.542-0.006-2.317c-0.083-0.766-0.373-1.484-0.872-2.153
			c-0.147-0.214-0.324-0.424-0.511-0.63c0.06-0.534,0.017-1.068-0.144-1.604c-0.083-0.766-0.374-1.483-0.872-2.153
			c-0.444-0.698-1.035-1.261-1.775-1.689c-0.624-0.503-1.343-0.85-2.149-1.054c-0.345-0.387-0.69-0.774-1.035-1.161
			c-0.394-0.344-0.821-0.633-1.272-0.882c-0.002-0.098,0.002-0.196-0.009-0.295c-0.159-1.496-0.754-3.043-2.066-4.111l-2.115-1.732
			c-1.003-0.816-2.202-1.42-3.496-1.677c-0.236-0.247-0.485-0.481-0.761-0.707c0.491-0.542,0.824-1.179,0.972-1.897
			c0.049-0.52,0.102-1.048,0.152-1.568c-0.065-1.034-0.405-2.008-1.024-2.913c-0.36-0.404-0.718-0.809-1.078-1.213
			c-0.234-0.204-0.48-0.39-0.734-0.561c0.354-0.511,0.621-1.067,0.778-1.68c0.049-0.52,0.099-1.04,0.148-1.56
			c-0.065-1.034-0.406-2.004-1.026-2.909c-0.318-0.461-0.636-0.923-0.954-1.384c-0.333-0.524-0.769-0.977-1.269-1.349
			c0.041-0.136,0.061-0.279,0.097-0.42l0.271-1.076c0.809-0.624,0.399-1.498,0.166-2.273c-0.083-0.766-0.288-1.462-0.786-2.131
			c-0.444-0.698-0.992-1.25-1.732-1.678c-0.677-0.547-1.441-0.911-2.333-1.105c-0.136-0.018-0.261-0.033-0.397-0.05
			c0.091-1.225-0.178-2.449-1.007-3.55c-0.977-1.298-2.348-2.176-4.031-2.626c0.132-0.144,0.255-0.297,0.366-0.459
			c0.572-0.572,0.939-1.251,1.102-2.037c0.049-0.52,0.099-1.04,0.148-1.56c-0.065-1.034-0.407-2.004-1.026-2.909
			c-0.36-0.404-0.718-0.814-1.077-1.217c-0.874-0.764-1.889-1.302-3.049-1.595l-0.612-0.154c-0.731-0.835-1.746-0.291-2.601-0.13
			c-0.318,0.01-0.624,0.058-0.923,0.121c-0.227-0.205-0.412-0.578-0.629-0.822c-0.874-0.764-1.88-1.338-3.04-1.63l-0.612-0.154
			c-0.731-0.835-1.755-0.254-2.611-0.093c-0.854,0.027-1.648,0.265-2.369,0.669c-0.756,0.354-1.354,0.859-1.79,1.495
			c-0.236,0.236-0.43,0.5-0.596,0.773c-0.287-0.016-0.593,0.072-0.871,0.072c0.249-0.977,0.267-2.081-0.134-3.068
			c-0.531-1.306-1.419-2.518-2.711-3.325c0.101-0.148,0.21-0.311,0.327-0.453c-0.086,0.103-0.17,0.198-0.255,0.301
			c0.768-1.023,1.248-2.131,1.17-3.491c-0.072-1.265-0.719-2.765-1.733-3.78c0.808-0.73,1.442-1.675,1.633-2.638
			c0.582-2.935-1.122-5.758-4.184-6.983c-0.94-1.016-2.173-1.806-3.595-2.164c-0.79-0.199-1.696-0.262-2.573-0.18
			c-0.615-1.06-1.51-2.015-2.706-2.585c-0.553-0.211-1.106-0.421-1.658-0.632c-1.161-0.289-2.308-0.304-3.439-0.045
			c-0.909,0.145-1.818,0.291-2.726,0.436c-0.839,0.166-1.562,0.5-2.17,1.001c-0.576,0.329-1.039,0.757-1.401,1.274
			c-0.201-0.02-0.404-0.034-0.61-0.037c-0.861-0.014-1.722-0.028-2.583-0.042c-1.37-0.022-2.794,0.424-3.878,1.155
			c-0.696-0.232-1.424-0.365-2.163-0.343c-0.339,0.01-0.665,0.044-0.985,0.091c-0.314-0.044-0.631-0.072-0.958-0.065
			c-0.881-0.036-1.694,0.118-2.441,0.461c-0.8,0.222-1.485,0.612-2.055,1.168c-0.831,0.827-1.482,1.863-1.693,2.992
			c-0.249-0.07-0.5-0.133-0.755-0.179c-0.38-2.061-1.916-3.974-4.872-4.718c-3.015-0.759-5.307,0.263-6.606,1.964
			c0.368-1.5,0.433-2.471,0.314-3.134c0.772,0.124,1.535,0.094,2.288-0.11c1.569-0.432,3.068-1.286,3.804-2.633
			c0.203-0.481,0.405-0.963,0.608-1.444c0.253-1.021,0.2-2.045-0.16-3.073c-0.431-0.872-0.863-1.743-1.295-2.615
			c-0.238-0.76-0.657-1.427-1.257-2.002c-0.495-0.656-1.139-1.176-1.932-1.562c-0.282-0.16-0.572-0.285-0.867-0.394
			c0.081-0.743,0.007-1.503-0.291-2.235c-0.591-1.452-1.637-2.778-3.189-3.564c-1.528-0.773-3.004-1.132-4.711-1.211
			c-1.651-0.076-3.068,0.374-4.488,0.976c-0.458,0.215-0.85,0.487-1.19,0.805c-0.581-0.159-1.18-0.247-1.787-0.228
			c-0.56,0.061-1.12,0.122-1.679,0.183c-1.093,0.259-2.031,0.741-2.817,1.446c-0.544,0.435-1.087,0.871-1.631,1.306
			c-0.633,0.53-1.064,1.166-1.292,1.909c-0.067,0.124-0.118,0.252-0.171,0.38l-2.798-0.709c-1.029-0.261-2.155-0.281-3.202-0.082
			c-0.412-0.26-0.82-0.535-1.233-0.788c-0.795-0.451-1.637-0.716-2.534-0.763c-0.864-0.181-1.715-0.167-2.557,0.06
			c-0.839,0.166-1.561,0.496-2.169,0.997c-0.706,0.403-1.25,0.944-1.634,1.63c-0.203,0.481-0.405,0.962-0.607,1.443
			c-0.148,0.595-0.178,1.191-0.117,1.789c-1.081-0.615-2.312-1.014-3.572-0.976c-0.56,0.061-1.119,0.122-1.679,0.183
			c-1.093,0.259-2.031,0.741-2.817,1.446c-0.544,0.435-1.087,0.871-1.631,1.306c-0.633,0.53-1.064,1.166-1.292,1.909
			c-0.38,0.703-0.531,1.463-0.452,2.282c0.014,0.785,0.236,1.522,0.667,2.211c0.299,0.729,0.778,1.366,1.438,1.909
			c0.918,0.745,2.034,1.352,3.225,1.638c-0.391,0.537-0.683,1.127-0.85,1.781c-0.086,0.36-0.173,0.719-0.259,1.079
			c-0.111,0.372-0.165,0.745-0.168,1.118c-0.291,0.179-0.564,0.383-0.812,0.625c-0.633,0.53-1.064,1.166-1.292,1.909
			c-0.38,0.703-0.531,1.463-0.452,2.282c0.107,1.006,0.436,2.04,1.036,2.935c-0.323-0.042-0.646-0.084-0.969-0.126
			c-0.637-0.015-1.283,0.051-1.887,0.189c-1.397,0.318-2.05,0.782-3.116,1.577c-0.633,0.53-1.064,1.167-1.292,1.909
			c-0.38,0.703-0.531,1.463-0.452,2.282c0.01,0.592,0.14,1.157,0.388,1.695c-0.048,0.339-0.067,0.683-0.03,1.022
			c0.003,0.025,0.009,0.057,0.012,0.084c-0.602-0.128-1.232-0.26-1.881-0.388c-0.019-0.029-0.033-0.059-0.052-0.087
			c-0.36-0.404-0.745-0.704-1.105-1.108c-0.874-0.764-1.916-1.193-3.077-1.485l-0.612-0.154c-0.731-0.835-1.718-0.401-2.574-0.24
			c-0.785,0.025-1.501,0.178-2.171,0.512c-0.315,0.105-0.626,0.233-0.925,0.385c-0.473,0.179-0.947,0.362-1.42,0.542
			c-0.057-0.05-0.338-0.148-0.397-0.196c0.708-0.7,0.976-1.569,1.214-2.515l0.135-0.538c0.808-0.624,0.447-1.486,0.214-2.261
			c-0.083-0.766-0.264-1.456-0.762-2.125c-0.444-0.698-0.981-1.247-1.72-1.675c-0.677-0.547-1.435-0.91-2.327-1.103
			c-0.587-0.076-1.16-0.149-1.746-0.225c-1.157-0.006-2.217,0.242-3.196,0.741c-0.431,0.297-1.012,0.556-1.443,0.853
			c-0.617,0.565-0.806,1.281-1.254,1.976c-0.809-0.088-1.612-0.05-2.406,0.132c-0.508,0.185-1.016,0.371-1.523,0.556
			c-0.799,0.414-1.445,0.96-1.957,1.627c-0.042-0.037-0.086-0.071-0.128-0.109c-2.173-1.955-5.871-2.365-8.3-0.951
			c-0.085-0.143-0.174-0.285-0.278-0.424c-0.36-0.404-0.719-0.807-1.079-1.211c-0.874-0.764-1.891-1.293-3.051-1.588
			c-0.587-0.076-1.173-0.152-1.76-0.228c-1.157-0.006-2.224,0.241-3.203,0.739l-0.058,0.03c-0.013-0.017-0.022-0.036-0.035-0.053
			c-0.444-0.698-1.035-1.261-1.775-1.689c-0.677-0.547-1.462-0.917-2.355-1.11c-0.587-0.076-1.173-0.152-1.76-0.228
			c-0.127-0.001-0.248,0.013-0.373,0.019c0.126-0.1,0.25-0.201,0.366-0.315c0.633-0.53,1.064-1.167,1.292-1.909
			c0.38-0.703,0.531-1.463,0.452-2.282c-0.103-0.504-0.206-1.009-0.308-1.513c-0.053-0.148-0.355-0.347-0.42-0.489
			c0.512-0.596,0.658-1.343,0.855-2.126l0.406-1.614c0.808-0.624,0.46-1.483,0.227-2.258c-0.083-0.766-0.257-1.454-0.755-2.124
			c-0.444-0.698-0.977-1.246-1.717-1.674c-0.313-0.253-0.638-0.46-0.993-0.637c0.009-0.097,0.023-0.192,0.033-0.289
			c-0.065-1.034-0.404-2.003-1.023-2.909c-0.36-0.404-0.733-0.747-1.093-1.15c-0.874-0.763-1.904-1.235-3.065-1.528l-1.225-0.308
			c-0.731-0.836-1.729-0.358-2.584-0.197c-0.854,0.027-1.635,0.213-2.356,0.617c-0.022,0.01-0.044,0.041-0.065,0.051
			c-0.55-0.626-1.217-1.14-1.999-1.555c-0.553-0.211-1.107-0.417-1.66-0.627c-1.161-0.289-2.308-0.302-3.44-0.043
			c-1.299,0.423-2.122,0.715-3.093,1.613c-0.578,0.534-1.021,1.159-1.344,1.839c-0.561-0.311-1.199-0.569-1.928-0.752
			c-6.346-1.597-9.494,4.67-6.882,8.62c-0.128,0.003-0.256,0.005-0.383,0.008c-0.881-0.036-1.694,0.118-2.441,0.461
			c-0.8,0.222-1.485,0.612-2.055,1.168c-0.633,0.53-1.064,1.166-1.292,1.909c-0.378,0.699-0.529,1.456-0.453,2.269
			c-0.613,0.109-1.193,0.305-1.691,0.62c-1.005,0.635-2.256,1.208-3.26,1.842c-0.671-0.701-1.264-1.42-2.353-2.268l0.03-0.12
			c0.809-0.624,0.474-1.479,0.241-2.254c-0.083-0.766-0.25-1.452-0.748-2.122c-0.444-0.698-0.974-1.245-1.713-1.674
			c-0.618-0.499-1.304-0.836-2.098-1.04c-0.345-0.387-0.682-0.782-1.027-1.169c-0.874-0.763-1.882-1.303-3.043-1.595l-0.612-0.154
			c-0.731-0.835-1.747-0.289-2.602-0.128c-0.854,0.027-1.643,0.247-2.364,0.652c-0.601,0.282-1.101,0.672-1.497,1.123
			c-0.635-0.47-1.359-0.783-2.174-0.96c-1.679-0.353-3.527-0.298-4.965,0.52c-0.431,0.245-0.829,0.529-1.185,0.84
			c-0.39-0.066-0.785-0.112-1.19-0.118c-1.128,0.011-2.145,0.21-3.118,0.624c-0.058-0.174-0.114-0.348-0.156-0.527
			c-0.313-1.129-0.869-2.156-1.877-3.042c-0.439-0.386-0.98-0.738-1.57-1.029l0.089-0.931c-0.065-1.034-0.407-2.004-1.026-2.909
			c-0.159-0.231-0.318-0.461-0.477-0.692c-0.175-0.276-0.38-0.524-0.602-0.758c0.107-0.253,0.213-0.507,0.32-0.76
			c0.253-1.021,0.2-2.045-0.16-3.073c-0.115-0.41-0.229-0.82-0.344-1.23c-0.238-0.76-0.657-1.427-1.257-2.002
			c-0.495-0.656-1.139-1.176-1.932-1.562c-0.795-0.451-1.641-0.699-2.538-0.746c-0.864-0.181-1.717-0.158-2.559,0.069
			c-0.508,0.185-1.016,0.371-1.524,0.556c-0.974,0.504-1.735,1.197-2.281,2.077c-0.059,0.14-0.118,0.28-0.177,0.42
			c-0.428-0.442-0.939-0.808-1.534-1.097c-0.795-0.451-1.641-0.699-2.538-0.746c-0.823-0.173-1.635-0.154-2.438,0.044
			c-0.37-0.305-0.772-0.583-1.217-0.819c-0.045-0.028-0.093-0.051-0.143-0.071c-0.553-0.211-1.105-0.421-1.658-0.632
			c-0.078-0.024-0.152-0.043-0.231-0.06c-1.278-0.281-2.55-0.337-3.796-0.037c-0.333,0.08-0.618,0.208-0.949,0.329
			c-0.192,0.07-0.347,0.121-0.493,0.174c-0.084-0.055-0.163-0.114-0.251-0.165c-0.677-0.547-1.462-0.917-2.355-1.11
			c-1.577-0.397-3.615-0.255-4.963,0.511c-1.396,0.794-2.587,1.997-2.889,3.521c-0.187,0.942-0.204,2.063,0.121,3.073
			c-0.074,0.034-0.152,0.06-0.225,0.098l-0.57,0.392c-0.479-0.096-0.983-0.158-1.491-0.185c-0.921-0.867-2.093-1.512-3.374-1.836
			c-0.616-0.156-1.271-0.265-1.9-0.245c-0.499,0.016-1.282,0.105-1.761,0.201c-1.492,0.301-2.883,1.231-3.726,2.427
			c-0.05,0.01-0.101,0.021-0.151,0.031c-0.854,0.027-1.625,0.176-2.346,0.58c-0.756,0.354-1.343,0.815-1.779,1.45
			c-0.507,0.507-0.839,1.085-1.024,1.76c-0.104-0.028-0.202-0.071-0.31-0.094c-0.587-0.076-1.172-0.156-1.759-0.233
			c-1.157-0.006-2.224,0.239-3.202,0.737c-0.431,0.297-0.832,0.6-1.263,0.897c-0.803,0.735-0.696,1.771-1.566,2.637l-0.135,0.538
			c-0.196,0.778-0.257,1.534-0.024,2.309c0.083,0.766,0.359,1.48,0.857,2.149c0.444,0.697,1.028,1.259,1.768,1.687
			c0.118,0.095,0.239,0.177,0.364,0.261c-0.034,0.354-0.069,0.707-0.103,1.061c0.031,0.493,0.128,0.97,0.285,1.434
			c-0.723,0.505-1.292,1.12-1.771,1.863c-0.457,0.684-0.685,1.425-0.682,2.224c-0.131,0.662-0.078,1.325,0.136,1.991
			c-0.095-0.012-0.19-0.025-0.285-0.037c-1.157-0.006-2.224,0.241-3.203,0.739c-0.249,0.128-0.499,0.256-0.748,0.384
			c-0.756,0.354-1.351,0.849-1.787,1.484c-0.572,0.572-0.939,1.251-1.102,2.037c-0.229,0.769-0.227,1.542,0.006,2.316
			c0.083,0.766,0.374,1.483,0.872,2.153c0.063,0.07,0.125,0.14,0.188,0.211c-0.182,0.182-0.353,0.373-0.5,0.586
			c-0.572,0.572-0.939,1.251-1.102,2.037c-0.049,0.52-0.099,1.04-0.148,1.56c0.065,1.034,0.407,2.004,1.026,2.909
			c0.36,0.404,0.719,0.807,1.079,1.211c0.465,0.406,0.974,0.741,1.52,1.015c0.058,0.318,0.116,0.635,0.174,0.953
			c-0.073,0.645,0.032,1.299,0.223,1.936c0.069,0.639,0.368,1.261,0.726,1.832c-0.379,0.212-0.692,0.472-0.995,0.774
			c-0.329,0.396-0.639,0.796-0.969,1.191c-0.558,0.924-0.801,1.928-0.747,3.006c-0.056,1.836,1.106,3.837,2.587,5.142
			c0.063,0.055,0.133,0.105,0.198,0.159c-0.234,0.026-0.468,0.051-0.702,0.077c-0.042,0.004-0.083,0.009-0.124,0.014
			c-0.273,0.03-0.546,0.059-0.818,0.089c-0.837,0.199-1.582,0.531-2.239,0.991c-0.746,0.353-1.336,0.844-1.767,1.473
			c-0.572,0.572-0.939,1.251-1.102,2.037c-0.006,0.019-0.007,0.037-0.012,0.056c-0.278,0.624-0.394,1.289-0.325,2
			c0.014,0.78,0.266,1.52,0.691,2.205c-0.652,0.678-0.465,1.62-1.304,2.366l-0.135,0.538c-0.161,0.639-0.287,1.246-0.133,1.889
			c-0.739,0.47-1.434,1.036-1.883,1.76c-0.203,0.481-0.451,0.951-0.654,1.433c-0.242,0.976-0.188,1.958,0.131,2.941
			c-0.69,0.693-0.548,1.654-1.395,2.431l-0.271,1.076c-0.196,0.778-0.258,1.534-0.025,2.308c0.083,0.766,0.358,1.48,0.856,2.149
			c0.444,0.698,1.028,1.259,1.767,1.687c0.301,0.243,0.608,0.441,0.956,0.615c-0.065,0.205-0.096,0.42-0.138,0.631
			c-0.118,0.265-0.202,0.545-0.275,0.838l-0.486,1.933c-0.005,0.02-0.224-0.016-0.241,0.001c-1.112,1.107-2.021,2.584-1.837,4.167
			c0.069,0.59,0.091,1.167,0.16,1.757c0.014,0.785,0.213,1.516,0.644,2.205c0.299,0.729,0.766,1.363,1.426,1.906
			c0.271,0.256,0.559,0.471,0.869,0.663c0.154,0.357,0.331,0.707,0.563,1.046c0.36,0.404,0.618,1.204,0.977,1.608
			c0.874,0.764,1.943,1.08,2.949,1.985l1.225,0.308c0.885,0.223,1.844-0.1,2.7-0.261c0.053-0.002,0.154-0.209,0.207-0.213
			c0.489,0.112,0.994,0.097,1.481,0.106c0.129,0.26,0.282,0.482,0.453,0.732c0.36,0.404,0.672,0.994,1.032,1.397
			c0.874,0.764,1.998,0.87,3.004,1.775l0.612,0.154c0.295,0.074,0.634-0.066,0.924-0.028c0.314,0.239,0.669,0.362,1.032,0.555
			c0.172,0.065,0.356,0.08,0.528,0.145c-0.091,2.497,1.414,5.054,4.965,5.948c2.235,0.563,4.073,0.131,5.405-0.814
			c0.302,0.762,0.777,1.465,1.447,2.061c0.301,0.635,0.74,1.197,1.33,1.684c0.198,0.187,0.41,0.349,0.628,0.501
			c-0.002,0.023-0.004,0.045-0.006,0.068c0.065,1.034,0.407,2.003,1.026,2.909c0.36,0.404,0.644,1.106,1.004,1.51
			c0.874,0.763,1.969,0.982,2.976,1.887l0.916,0.231c0.039,0.01,0.055,0.17,0.078,0.412c0.014,0.785,0.274,1.373,0.705,2.062
			c0.298,0.729,0.796,1.291,1.456,1.834c0.464,0.319,0.938,0.6,1.402,0.919c0.303,0.157,0.615,0.276,0.929,0.389
			c-0.025,0.26-0.048,0.514-0.073,0.774c0.065,1.034,0.407,2.001,1.027,2.907c0.159,0.231,0.318,0.46,0.477,0.691
			c0.444,0.698,1.035,1.26,1.775,1.688c0.254,0.205,0.529,0.377,0.814,0.533c0.274,1.225,0.881,2.455,1.963,3.296
			c0.726,0.564,1.452,1.128,2.178,1.693c1.382,1.074,2.99,1.8,4.811,1.816c0.42,0.004,0.86-0.039,1.3-0.119
			c0.734,0.508,1.467,1.016,2.201,1.525c1.5,1.039,2.883,1.799,4.811,1.816c1.108,0.01,2.353-0.29,3.36-0.824
			c0.013,0.018,0.023,0.037,0.036,0.054c1.127,1.454,2.254,2.908,3.381,4.362c1.024,1.321,2.383,2.36,4.13,2.799
			c1.577,0.397,3.615,0.255,4.963-0.511l0.002-0.001c1.3,1.843,2.999,3.403,5.17,4.631c2.737,1.548,6.675,0.893,8.46-1.313
			l0.999,0.894c0.253,0.227,0.532,0.427,0.822,0.612c0.034,0.449,0.123,0.899,0.294,1.344c0.401,1.047,0.803,2.094,1.204,3.142
			c0.554,1.445,1.689,2.775,3.189,3.564c1.445,0.76,3.537,1.107,5.097,0.677c1.114-0.307,2.188-0.831,2.983-1.589
			c0.547,0.216,1.093,0.432,1.64,0.648c1.719,0.68,3.274,1.101,5.097,0.677c1.25-0.291,2.564-1.049,3.37-2.016
			c0.63,0.59,1.364,1.009,2.203,1.256c0.812,0.383,1.675,0.565,2.589,0.544c0.184,0.002,0.372-0.007,0.562-0.022
			c0.022,0.02,0.04,0.042,0.062,0.061c0.681,0.744,1.362,1.487,2.043,2.231c0.634,0.599,1.375,1.023,2.222,1.272
			c0.384,0.181,0.781,0.314,1.188,0.405c0.285,0.212,0.588,0.407,0.918,0.572c0.771,0.386,1.542,0.771,2.312,1.157
			c1.549,0.775,3.435,1.064,5.097,0.677c1.506-0.35,3.116-1.374,3.804-2.633c0.123-0.225,0.229-0.461,0.327-0.7
			c0.321,0.246,0.658,0.477,1.032,0.675c0.553,0.211,1.106,0.421,1.658,0.632c1.161,0.289,2.308,0.304,3.439,0.045
			c0.453-0.077,0.907-0.153,1.36-0.23c0.839-0.167,1.562-0.5,2.17-1.001c0.608-0.347,1.09-0.806,1.459-1.363
			c0.825,0.372,1.65,0.745,2.476,1.117c1.555,0.702,3.208,1.042,4.867,0.719c0.623,1.457,1.635,2.738,3.184,3.552
			c1.445,0.76,3.537,1.107,5.097,0.677c1.037-0.286,2.039-0.761,2.815-1.436c0.439,0.025,0.875-0.003,1.309-0.085
			c0.854-0.027,1.642-0.243,2.363-0.647c0.756-0.354,1.351-0.849,1.787-1.484c0.558-0.558,0.918-1.22,1.086-1.983
			c0.516,0.31,1.033,0.619,1.549,0.929c1.403,0.841,3.569,1.033,5.097,0.677c0.333-0.077,0.67-0.192,1.002-0.331
			c0.002,0.002,0.004,0.003,0.006,0.005c0.634,0.599,1.375,1.023,2.222,1.272c0.546,0.258,1.117,0.416,1.709,0.491
			c0.282,0.257,0.885,0.781,0.97,0.856c0.01,0.01,0.016,0.017,0.026,0.026c0.194,0.248,0.38,0.501,0.552,0.762
			c1.859,2.69,6.175,3.948,9.092,2.289c0.696-0.396,1.284-0.896,1.753-1.464c1.522,0.697,3.358,1.085,4.959,0.617
			c0.702-0.205,1.405-0.41,2.107-0.615c0.839-0.166,1.562-0.5,2.17-1.001c0.706-0.403,1.25-0.947,1.634-1.632
			c0.041-0.061,0.07-0.125,0.107-0.187c0.899,0.132,1.814,0.113,2.664-0.085c1.176-0.273,2.408-0.959,3.223-1.845
			c0.336,0.168,0.671,0.336,1.007,0.504c1.549,0.775,3.436,1.064,5.097,0.677c0.91-0.212,1.808-0.485,2.568-1.092
			c0.923,0.957,2.036,1.875,3.427,2.226l1.837,0.462c0.885,0.223,1.791,0.111,2.647-0.05c0.854-0.027,1.666-0.337,2.387-0.741
			c0.756-0.354,1.363-0.895,1.799-1.53c0.572-0.572,0.945-1.275,1.107-2.061c0.157-0.791,0.168-1.598-0.004-2.38
			c0.459-0.121,0.905-0.283,1.33-0.5c0.431-0.297,0.972-0.567,1.403-0.864c0.803-0.735,1.449-1.584,1.706-2.604l0.135-0.538
			c0.05-0.197,0.172-0.371,0.114-0.587c0.008,0-0.116-0.035-0.108-0.036c1.146,0.69,2.573,1.077,3.803,1.088
			c0.814,0.007,1.67-0.16,2.484-0.455l0.623,0.624c0.58,0.548,1.246,0.94,2.005,1.196c0.657,0.815,1.387,1.604,2.256,2.234
			c1.636,1.185,2.897,1.793,4.849,2.497c1.49,0.537,3.691,0.142,4.962-0.511c0.988-0.507,1.904-1.383,2.443-2.369
			c0.495,0.281,1.032,0.494,1.621,0.621c0.332,0.095,0.662,0.152,0.992,0.188c0.13,0.247,0.278,0.486,0.464,0.703
			c1.022,1.19,2.043,2.38,3.065,3.57c1.132,1.318,2.293,2.337,4.13,2.799c0.141,0.035,0.289,0.061,0.436,0.088
			c0.607,1.159,1.666,2.217,2.872,2.852c1.445,0.76,3.537,1.107,5.097,0.677c1.569-0.432,3.069-1.286,3.804-2.633
			c0.047-0.086,0.086-0.175,0.129-0.262c0.502,0.271,1.036,0.477,1.6,0.569c0.254,0.041,0.502,0.093,0.747,0.155
			c0.237,0.123,0.47,0.252,0.699,0.398c-0.007-0.005-0.014-0.009-0.02-0.014c1.155,0.702,2.4,1.157,3.851,1.17
			c1.582,0.014,3.453-0.592,4.496-1.629c1.019-1.014,1.76-2.341,1.758-3.77c0.456-0.005,0.909-0.063,1.359-0.185
			c0.839-0.166,1.562-0.5,2.17-1.001c0.706-0.403,1.25-0.947,1.634-1.632c0.225-0.412,0.406-0.853,0.539-1.308
			c1.225,0.02,2.542-0.296,3.428-0.751c0.251-0.129,0.496-0.289,0.734-0.461c0.535,0.145,1.07,0.289,1.605,0.434
			c1.621,0.438,3.566,0.206,4.963-0.511c1.362-0.699,2.606-2.096,2.889-3.521c0.057-0.289,0.096-0.585,0.115-0.883
			c1.306,0.937,2.801,1.559,4.479,1.574c0.881,0.008,1.848-0.182,2.715-0.527c0.568,0.331,1.201,0.596,1.894,0.773
			c0.076,0.019,0.147,0.048,0.222,0.069c0.105,0.053,0.21,0.109,0.312,0.165c0.139,0.118,0.278,0.237,0.412,0.364
			c2.436,2.31,7.069,2.413,9.307,0.187c0.734-0.73,1.226-1.564,1.483-2.44c0.295,0.039,0.595,0.06,0.899,0.065
			c0.56-0.061,1.119-0.122,1.679-0.183c1.092-0.259,2.031-0.741,2.817-1.446c0.294-0.307,0.589-0.615,0.883-0.922
			c0.633-0.53,1.064-1.167,1.292-1.909c0.221-0.408,0.355-0.838,0.421-1.284c0.727-0.16,1.363-0.451,1.912-0.868
			c1.187,0.586,2.373,1.172,3.56,1.758c1.559,0.77,3.426,1.066,5.097,0.677c1.506-0.35,3.116-1.374,3.805-2.633
			c0.384-0.702,0.604-1.471,0.668-2.253c0.034-0.017,0.07-0.028,0.104-0.045c0.249-0.128,0.499-0.256,0.748-0.384
			c0.756-0.354,1.351-0.849,1.787-1.484c0.572-0.572,0.939-1.251,1.102-2.037c0.229-0.77,0.227-1.542-0.006-2.316
			c-0.083-0.766-0.374-1.483-0.872-2.153c-0.035-0.04-0.071-0.079-0.106-0.119c1.45,0.199,2.996-0.03,4.207-0.652
			c1.301-0.668,2.484-1.972,2.835-3.33c0.233-0.119,0.465-0.239,0.698-0.358c0.756-0.354,1.351-0.849,1.787-1.484
			c0.572-0.572,0.939-1.251,1.102-2.037c0.229-0.769,0.227-1.542-0.006-2.316c-0.04-0.369-0.131-0.726-0.267-1.073
			c0.656-0.344,1.188-0.798,1.582-1.372C385.731,234.745,386.099,234.066,386.261,233.28z M207.68,267.824
			c-0.689,0.201-1.378,0.402-2.067,0.603c-0.839,0.166-1.562,0.5-2.17,1.001c-0.28,0.16-0.527,0.348-0.756,0.552
			c-0.061-0.06-0.118-0.124-0.179-0.183c1.136-1.109,2.606-2.091,5.294-2.179C207.761,267.687,207.717,267.754,207.68,267.824z"/>
		<path id="XMLID_308_" style="fill-rule:evenodd;clip-rule:evenodd;fill:#CCCCCC;" d="M15.226,312.317
			c0.394,0.574,0.926,1.028,1.582,1.372c-0.136,0.347-0.227,0.704-0.267,1.073c-0.233,0.775-0.235,1.547-0.006,2.316
			c0.162,0.786,0.53,1.465,1.102,2.037c0.436,0.635,1.031,1.13,1.787,1.484c0.233,0.119,0.465,0.239,0.698,0.358
			c0.351,1.358,1.534,2.662,2.835,3.33c1.21,0.621,2.757,0.851,4.206,0.652c-0.035,0.04-0.071,0.079-0.106,0.119
			c-0.498,0.67-0.789,1.387-0.872,2.153c-0.233,0.775-0.235,1.547-0.006,2.316c0.162,0.786,0.53,1.465,1.102,2.037
			c0.436,0.635,1.031,1.13,1.787,1.484c0.249,0.128,0.499,0.256,0.748,0.384c0.034,0.017,0.07,0.029,0.104,0.045
			c0.064,0.782,0.284,1.551,0.668,2.253c0.688,1.259,2.298,2.283,3.805,2.633c1.672,0.389,3.538,0.093,5.097-0.677
			c1.187-0.586,2.373-1.172,3.56-1.758c0.549,0.417,1.186,0.708,1.912,0.868c0.066,0.447,0.2,0.877,0.421,1.284
			c0.228,0.742,0.659,1.378,1.292,1.909c0.294,0.307,0.589,0.615,0.883,0.922c0.785,0.705,1.724,1.187,2.817,1.446
			c0.56,0.061,1.119,0.122,1.679,0.183c0.304-0.004,0.604-0.026,0.899-0.065c0.257,0.876,0.749,1.71,1.483,2.44
			c2.237,2.226,6.87,2.123,9.307-0.187c0.134-0.127,0.272-0.245,0.412-0.364c0.103-0.056,0.207-0.112,0.312-0.165
			c0.075-0.021,0.147-0.05,0.222-0.069c0.693-0.177,1.326-0.442,1.894-0.773c0.867,0.344,1.834,0.535,2.715,0.527
			c1.678-0.015,3.173-0.637,4.479-1.574c0.019,0.298,0.057,0.594,0.115,0.883c0.283,1.425,1.527,2.822,2.889,3.521
			c1.396,0.717,3.342,0.949,4.963,0.511c0.535-0.145,1.07-0.289,1.605-0.434c0.238,0.172,0.482,0.332,0.734,0.461
			c0.885,0.455,2.202,0.77,3.428,0.751c0.134,0.455,0.314,0.896,0.539,1.308c0.384,0.685,0.929,1.229,1.634,1.632
			c0.608,0.501,1.332,0.835,2.17,1.001c0.45,0.121,0.903,0.18,1.359,0.185c-0.003,1.429,0.739,2.756,1.758,3.77
			c1.043,1.037,2.914,1.644,4.496,1.629c1.451-0.013,2.696-0.468,3.851-1.17c-0.007,0.005-0.014,0.009-0.02,0.014
			c0.229-0.146,0.462-0.276,0.699-0.398c0.246-0.062,0.494-0.113,0.747-0.155c0.563-0.092,1.098-0.298,1.6-0.569
			c0.043,0.087,0.082,0.176,0.129,0.262c0.736,1.347,2.236,2.201,3.804,2.633c1.561,0.43,3.652,0.082,5.097-0.677
			c1.207-0.634,2.265-1.693,2.872-2.852c0.147-0.027,0.295-0.053,0.436-0.088c1.836-0.462,2.998-1.481,4.13-2.799
			c1.022-1.19,2.043-2.38,3.065-3.57c0.187-0.218,0.334-0.457,0.464-0.703c0.329-0.036,0.659-0.092,0.992-0.188
			c0.589-0.128,1.126-0.34,1.621-0.621c0.539,0.986,1.455,1.862,2.443,2.369c1.271,0.652,3.472,1.048,4.962,0.511
			c1.952-0.703,3.213-1.312,4.849-2.497c0.87-0.63,1.6-1.42,2.256-2.234c0.759-0.255,1.425-0.648,2.005-1.196l0.623-0.624
			c0.815,0.295,1.67,0.463,2.484,0.455c1.229-0.011,2.656-0.398,3.803-1.088c0.008,0.001-0.116,0.035-0.108,0.036
			c-0.057,0.216,0.065,0.39,0.114,0.587l0.135,0.538c0.257,1.02,0.902,1.869,1.706,2.604c0.431,0.297,0.972,0.567,1.403,0.864
			c0.425,0.217,0.871,0.378,1.33,0.5c-0.172,0.782-0.161,1.589-0.004,2.38c0.162,0.786,0.535,1.489,1.107,2.061
			c0.436,0.635,1.043,1.177,1.799,1.53c0.721,0.404,1.532,0.714,2.387,0.741c0.855,0.161,1.761,0.273,2.647,0.05l1.837-0.462
			c1.392-0.35,2.504-1.269,3.427-2.226c0.76,0.607,1.658,0.88,2.568,1.092c1.662,0.386,3.549,0.098,5.097-0.677
			c0.336-0.168,0.671-0.336,1.007-0.504c0.814,0.886,2.047,1.572,3.223,1.845c0.85,0.198,1.766,0.216,2.664,0.085
			c0.037,0.062,0.066,0.126,0.107,0.187c0.384,0.685,0.929,1.229,1.634,1.632c0.608,0.501,1.332,0.835,2.17,1.001
			c0.702,0.205,1.405,0.41,2.107,0.615c1.601,0.468,3.437,0.08,4.959-0.617c0.47,0.568,1.057,1.068,1.753,1.464
			c2.918,1.659,7.234,0.401,9.092-2.289c0.172-0.261,0.358-0.513,0.552-0.762c0.009-0.01,0.016-0.016,0.026-0.026
			c0.085-0.075,0.688-0.598,0.97-0.856c0.592-0.075,1.163-0.234,1.709-0.491c0.847-0.249,1.588-0.674,2.222-1.272
			c0.002-0.002,0.004-0.003,0.006-0.005c0.332,0.138,0.669,0.254,1.002,0.331c1.528,0.355,3.694,0.164,5.097-0.677
			c0.516-0.31,1.033-0.619,1.549-0.929c0.168,0.762,0.528,1.425,1.086,1.983c0.436,0.635,1.031,1.13,1.787,1.484
			c0.721,0.404,1.509,0.62,2.363,0.647c0.433,0.082,0.869,0.109,1.309,0.085c0.776,0.675,1.778,1.15,2.815,1.436
			c1.561,0.43,3.652,0.082,5.097-0.677c1.548-0.814,2.561-2.095,3.184-3.552c1.659,0.323,3.312-0.017,4.867-0.719
			c0.825-0.372,1.65-0.745,2.476-1.117c0.369,0.557,0.851,1.016,1.459,1.363c0.608,0.501,1.332,0.835,2.17,1.001
			c0.453,0.077,0.907,0.153,1.36,0.23c1.131,0.259,2.278,0.244,3.439-0.045c0.553-0.211,1.106-0.421,1.658-0.632
			c0.373-0.198,0.711-0.429,1.032-0.675c0.098,0.239,0.204,0.475,0.327,0.7c0.688,1.259,2.298,2.283,3.804,2.633
			c1.662,0.386,3.548,0.098,5.097-0.677c0.771-0.386,1.542-0.771,2.312-1.157c0.33-0.165,0.633-0.361,0.918-0.572
			c0.407-0.091,0.804-0.224,1.188-0.405c0.847-0.249,1.588-0.674,2.222-1.272c0.681-0.744,1.362-1.487,2.043-2.231
			c0.022-0.02,0.04-0.042,0.062-0.061c0.19,0.015,0.378,0.023,0.562,0.022c0.914,0.02,1.777-0.161,2.589-0.544
			c0.839-0.247,1.573-0.667,2.203-1.256c0.807,0.968,2.12,1.726,3.37,2.016c1.824,0.424,3.378,0.002,5.097-0.677
			c0.547-0.216,1.093-0.432,1.64-0.648c0.796,0.758,1.869,1.282,2.983,1.589c1.561,0.43,3.652,0.082,5.097-0.677
			c1.5-0.788,2.635-2.119,3.189-3.564c0.401-1.047,0.803-2.094,1.204-3.142c0.17-0.445,0.26-0.895,0.294-1.344
			c0.29-0.185,0.568-0.385,0.822-0.612l0.999-0.894c1.785,2.206,5.724,2.861,8.46,1.313c2.171-1.228,3.87-2.788,5.17-4.631
			c0.001,0,0.001,0.001,0.002,0.001c1.347,0.766,3.386,0.907,4.963,0.511c1.746-0.44,3.106-1.478,4.13-2.799
			c1.127-1.454,2.254-2.908,3.381-4.362c0.014-0.017,0.023-0.037,0.036-0.054c1.008,0.534,2.252,0.834,3.36,0.824
			c1.927-0.018,3.311-0.777,4.811-1.816c0.734-0.508,1.467-1.016,2.201-1.525c0.44,0.08,0.88,0.123,1.3,0.119
			c1.821-0.017,3.429-0.743,4.811-1.816c0.726-0.564,1.452-1.128,2.178-1.693c1.082-0.841,1.689-2.071,1.963-3.296
			c0.285-0.156,0.56-0.327,0.814-0.533c0.74-0.428,1.332-0.991,1.775-1.688c0.159-0.231,0.318-0.46,0.477-0.691
			c0.619-0.906,0.962-1.873,1.027-2.907c-0.025-0.26-0.048-0.514-0.073-0.774c0.314-0.113,0.627-0.232,0.929-0.389
			c0.464-0.319,0.938-0.6,1.402-0.919c0.66-0.544,1.158-1.105,1.456-1.834c0.431-0.689,0.691-1.276,0.705-2.062
			c0.023-0.243,0.039-0.402,0.078-0.412l0.916-0.231c1.006-0.905,2.101-1.123,2.976-1.887c0.36-0.404,0.644-1.106,1.004-1.51
			c0.619-0.906,0.961-1.875,1.026-2.909c-0.002-0.023-0.004-0.045-0.006-0.068c0.218-0.153,0.43-0.315,0.628-0.501
			c0.591-0.487,1.029-1.049,1.33-1.684c0.67-0.596,1.145-1.3,1.447-2.061c1.332,0.945,3.17,1.376,5.405,0.814
			c3.551-0.894,5.056-3.451,4.965-5.948c0.172-0.065,0.356-0.08,0.528-0.145c0.364-0.193,0.719-0.316,1.032-0.555
			c0.29-0.038,0.629,0.103,0.924,0.028l0.612-0.154c1.006-0.905,2.13-1.011,3.004-1.775c0.36-0.404,0.672-0.994,1.032-1.397
			c0.171-0.25,0.324-0.473,0.453-0.732c0.486-0.009,0.991,0.007,1.481-0.106c0.053,0.003,0.154,0.211,0.207,0.213
			c0.855,0.161,1.814,0.483,2.7,0.261l1.225-0.308c1.006-0.905,2.075-1.222,2.949-1.985c0.36-0.404,0.618-1.204,0.977-1.608
			c0.232-0.339,0.409-0.689,0.563-1.047c0.31-0.192,0.598-0.408,0.869-0.663c0.66-0.544,1.127-1.177,1.426-1.906
			c0.431-0.689,0.63-1.42,0.644-2.205c0.069-0.59,0.091-1.167,0.16-1.757c0.184-1.583-0.724-3.06-1.837-4.167
			c-0.017-0.017-0.236,0.019-0.241-0.001l-0.487-1.933c-0.074-0.293-0.157-0.573-0.275-0.838c-0.043-0.211-0.073-0.426-0.138-0.631
			c0.348-0.174,0.655-0.372,0.956-0.615c0.74-0.428,1.324-0.99,1.767-1.687c0.498-0.67,0.773-1.383,0.856-2.149
			c0.233-0.775,0.171-1.53-0.025-2.308l-0.271-1.076c-0.847-0.777-0.705-1.738-1.395-2.431c0.319-0.983,0.373-1.964,0.131-2.941
			c-0.203-0.481-0.451-0.951-0.654-1.433c-0.449-0.724-1.144-1.29-1.883-1.76c0.153-0.643,0.027-1.25-0.133-1.889l-0.135-0.538
			c-0.839-0.745-0.652-1.688-1.304-2.366c0.425-0.685,0.677-1.425,0.691-2.205c0.069-0.711-0.047-1.376-0.325-2
			c-0.005-0.019-0.007-0.037-0.012-0.056c-0.162-0.786-0.53-1.465-1.102-2.037c-0.432-0.629-1.022-1.12-1.767-1.473
			c-0.657-0.46-1.402-0.792-2.239-0.991c-0.273-0.03-0.546-0.059-0.818-0.089c-0.041-0.005-0.083-0.009-0.124-0.014
			c-0.234-0.026-0.468-0.051-0.702-0.077c0.066-0.053,0.136-0.104,0.198-0.159c1.48-1.304,2.643-3.305,2.587-5.142
			c0.054-1.078-0.188-2.082-0.747-3.006c-0.329-0.396-0.639-0.796-0.969-1.191c-0.304-0.302-0.616-0.562-0.995-0.774
			c0.358-0.572,0.657-1.194,0.726-1.832c0.191-0.637,0.297-1.291,0.223-1.936c0.058-0.318,0.116-0.635,0.174-0.953
			c0.546-0.274,1.055-0.609,1.52-1.015c0.36-0.404,0.719-0.807,1.079-1.211c0.619-0.906,0.961-1.875,1.026-2.909
			c-0.049-0.52-0.099-1.04-0.148-1.56c-0.162-0.786-0.53-1.465-1.102-2.037c-0.146-0.213-0.317-0.405-0.5-0.586
			c0.063-0.07,0.125-0.14,0.188-0.211c0.498-0.67,0.789-1.387,0.872-2.153c0.233-0.775,0.235-1.547,0.006-2.316
			c-0.162-0.786-0.53-1.465-1.102-2.037c-0.436-0.635-1.031-1.13-1.787-1.484c-0.249-0.128-0.499-0.256-0.748-0.384
			c-0.978-0.498-2.046-0.745-3.203-0.739c-0.095,0.012-0.19,0.025-0.285,0.037c0.214-0.666,0.267-1.329,0.136-1.991
			c0.002-0.799-0.225-1.54-0.682-2.224c-0.48-0.742-1.048-1.358-1.771-1.863c0.157-0.464,0.254-0.941,0.285-1.434
			c-0.034-0.354-0.069-0.707-0.103-1.061c0.124-0.084,0.246-0.166,0.363-0.261c0.74-0.428,1.324-0.99,1.768-1.687
			c0.498-0.67,0.774-1.383,0.857-2.149c0.233-0.775,0.172-1.531-0.024-2.309l-0.135-0.538c-0.869-0.866-0.762-1.902-1.566-2.637
			c-0.431-0.297-0.832-0.6-1.263-0.897c-0.978-0.498-2.046-0.743-3.202-0.737c-0.587,0.076-1.172,0.156-1.759,0.233
			c-0.107,0.023-0.206,0.066-0.31,0.094c-0.185-0.675-0.518-1.253-1.024-1.76c-0.436-0.635-1.023-1.096-1.779-1.45
			c-0.721-0.404-1.492-0.553-2.346-0.58c-0.05-0.009-0.101-0.02-0.151-0.031c-0.843-1.196-2.234-2.126-3.726-2.427
			c-0.479-0.096-1.262-0.185-1.761-0.201c-0.628-0.02-1.283,0.089-1.9,0.245c-1.282,0.324-2.454,0.969-3.374,1.836
			c-0.509,0.027-1.013,0.089-1.491,0.185l-0.57-0.392c-0.073-0.037-0.151-0.063-0.225-0.098c0.325-1.01,0.308-2.131,0.121-3.073
			c-0.302-1.524-1.493-2.728-2.889-3.521c-1.347-0.766-3.386-0.908-4.963-0.511c-0.893,0.193-1.677,0.564-2.355,1.11
			c-0.088,0.051-0.167,0.11-0.251,0.165c-0.145-0.053-0.301-0.104-0.493-0.174c-0.331-0.121-0.616-0.249-0.949-0.329
			c-1.246-0.299-2.517-0.243-3.796,0.037c-0.079,0.017-0.153,0.036-0.231,0.06c-0.553,0.211-1.106,0.421-1.658,0.632
			c-0.05,0.02-0.098,0.043-0.143,0.071c-0.446,0.237-0.847,0.514-1.217,0.819c-0.803-0.198-1.615-0.216-2.438-0.044
			c-0.897,0.047-1.743,0.296-2.538,0.746c-0.595,0.289-1.107,0.655-1.534,1.097c-0.059-0.14-0.118-0.28-0.177-0.42
			c-0.546-0.88-1.307-1.573-2.281-2.077c-0.508-0.185-1.016-0.371-1.524-0.556c-0.842-0.227-1.695-0.25-2.559-0.069
			c-0.897,0.047-1.743,0.296-2.538,0.746c-0.793,0.385-1.437,0.906-1.932,1.562c-0.6,0.575-1.019,1.242-1.257,2.002
			c-0.115,0.41-0.229,0.82-0.344,1.23c-0.36,1.028-0.413,2.052-0.16,3.073c0.107,0.253,0.213,0.506,0.32,0.76
			c-0.221,0.234-0.427,0.482-0.602,0.758c-0.159,0.231-0.318,0.461-0.477,0.692c-0.619,0.906-0.961,1.875-1.026,2.909l0.089,0.931
			c-0.59,0.291-1.131,0.643-1.57,1.029c-1.007,0.886-1.564,1.914-1.877,3.042c-0.043,0.179-0.099,0.353-0.156,0.527
			c-0.973-0.414-1.99-0.613-3.118-0.624c-0.405,0.006-0.8,0.051-1.19,0.118c-0.356-0.311-0.754-0.595-1.185-0.84
			c-1.438-0.818-3.286-0.873-4.965-0.52c-0.814,0.176-1.539,0.489-2.174,0.96c-0.397-0.451-0.896-0.841-1.497-1.123
			c-0.721-0.404-1.51-0.625-2.364-0.652c-0.855-0.161-1.871-0.708-2.602,0.128l-0.612,0.154c-1.16,0.292-2.169,0.832-3.043,1.595
			c-0.345,0.387-0.682,0.782-1.027,1.169c-0.795,0.204-1.48,0.542-2.098,1.04c-0.74,0.428-1.27,0.976-1.713,1.674
			c-0.498,0.67-0.665,1.356-0.748,2.122c-0.233,0.775-0.568,1.63,0.241,2.254l0.03,0.12c-1.09,0.847-1.682,1.567-2.353,2.268
			c-1.005-0.635-2.256-1.208-3.26-1.842c-0.499-0.315-1.078-0.512-1.691-0.62c0.076-0.814-0.074-1.57-0.453-2.269
			c-0.228-0.742-0.659-1.378-1.292-1.909c-0.57-0.557-1.255-0.946-2.055-1.168c-0.747-0.343-1.56-0.497-2.441-0.461
			c-0.128-0.003-0.255-0.005-0.383-0.008c2.613-3.95-0.536-10.217-6.882-8.62c-0.729,0.184-1.368,0.441-1.928,0.752
			c-0.323-0.68-0.766-1.304-1.344-1.839c-0.971-0.898-1.795-1.19-3.093-1.613c-1.131-0.259-2.278-0.246-3.44,0.043
			c-0.553,0.211-1.107,0.417-1.66,0.627c-0.782,0.415-1.449,0.929-1.999,1.555c-0.021-0.01-0.043-0.041-0.065-0.051
			c-0.721-0.404-1.501-0.59-2.356-0.617c-0.855-0.161-1.853-0.638-2.584,0.197l-1.225,0.308c-1.161,0.292-2.191,0.764-3.065,1.528
			c-0.36,0.404-0.733,0.747-1.093,1.15c-0.619,0.906-0.959,1.875-1.023,2.909c0.009,0.097,0.023,0.192,0.033,0.289
			c-0.355,0.176-0.68,0.384-0.993,0.637c-0.74,0.428-1.273,0.977-1.717,1.674c-0.498,0.67-0.672,1.358-0.755,2.124
			c-0.233,0.775-0.582,1.634,0.227,2.258l0.406,1.614c0.197,0.783,0.343,1.53,0.855,2.126c-0.064,0.143-0.366,0.341-0.42,0.489
			c-0.103,0.504-0.206,1.009-0.308,1.513c-0.079,0.818,0.072,1.579,0.452,2.282c0.228,0.742,0.659,1.378,1.292,1.909
			c0.116,0.114,0.24,0.215,0.366,0.315c-0.125-0.005-0.246-0.019-0.373-0.019c-0.587,0.076-1.173,0.152-1.76,0.228
			c-0.893,0.193-1.677,0.563-2.355,1.11c-0.74,0.428-1.331,0.991-1.775,1.689c-0.013,0.017-0.022,0.035-0.035,0.053l-0.058-0.03
			c-0.978-0.498-2.046-0.745-3.203-0.739c-0.587,0.076-1.173,0.152-1.76,0.228c-1.16,0.295-2.177,0.825-3.051,1.588
			c-0.36,0.404-0.719,0.807-1.079,1.211c-0.103,0.139-0.192,0.281-0.278,0.424c-2.429-1.414-6.127-1.004-8.3,0.951
			c-0.042,0.038-0.086,0.072-0.128,0.109c-0.511-0.666-1.158-1.213-1.957-1.627c-0.508-0.185-1.016-0.371-1.523-0.556
			c-0.795-0.182-1.597-0.22-2.406-0.132c-0.448-0.694-0.637-1.411-1.254-1.976c-0.431-0.297-1.012-0.556-1.443-0.853
			c-0.978-0.498-2.039-0.746-3.196-0.741c-0.587,0.076-1.16,0.149-1.746,0.225c-0.893,0.193-1.65,0.557-2.327,1.103
			c-0.74,0.428-1.277,0.978-1.72,1.675c-0.498,0.67-0.679,1.36-0.762,2.125c-0.233,0.775-0.595,1.637,0.214,2.261l0.135,0.538
			c0.238,0.945,0.506,1.814,1.214,2.515c-0.059,0.048-0.34,0.146-0.397,0.196c-0.473-0.179-0.947-0.362-1.42-0.542
			c-0.298-0.152-0.61-0.28-0.925-0.385c-0.67-0.334-1.386-0.487-2.171-0.512c-0.855-0.161-1.843-0.596-2.574,0.24l-0.612,0.154
			c-1.161,0.292-2.203,0.722-3.077,1.485c-0.36,0.404-0.745,0.704-1.105,1.108c-0.02,0.029-0.033,0.059-0.052,0.087
			c-0.65,0.127-1.28,0.26-1.881,0.388c0.003-0.026,0.009-0.059,0.012-0.084c0.037-0.339,0.018-0.683-0.03-1.022
			c0.248-0.538,0.378-1.102,0.388-1.695c0.079-0.818-0.072-1.579-0.452-2.282c-0.228-0.742-0.659-1.378-1.292-1.909
			c-1.066-0.796-1.72-1.259-3.116-1.577c-0.604-0.138-1.25-0.204-1.887-0.189c-0.323,0.042-0.646,0.084-0.969,0.126
			c0.6-0.895,0.929-1.929,1.036-2.935c0.079-0.818-0.072-1.579-0.452-2.282c-0.228-0.742-0.659-1.378-1.292-1.909
			c-0.248-0.242-0.521-0.446-0.812-0.625c-0.003-0.373-0.057-0.746-0.168-1.118c-0.086-0.36-0.173-0.719-0.259-1.079
			c-0.167-0.655-0.459-1.244-0.85-1.781c1.191-0.286,2.306-0.894,3.225-1.638c0.66-0.544,1.139-1.18,1.438-1.909
			c0.431-0.689,0.653-1.426,0.667-2.211c0.079-0.818-0.072-1.579-0.452-2.282c-0.228-0.742-0.659-1.378-1.292-1.909
			c-0.544-0.435-1.087-0.871-1.631-1.306c-0.785-0.705-1.724-1.187-2.817-1.446c-0.56-0.061-1.119-0.122-1.679-0.183
			c-1.26-0.038-2.491,0.361-3.572,0.976c0.061-0.598,0.03-1.194-0.117-1.789c-0.203-0.481-0.405-0.962-0.607-1.443
			c-0.384-0.685-0.928-1.227-1.634-1.63c-0.608-0.501-1.33-0.831-2.169-0.997c-0.842-0.227-1.693-0.242-2.557-0.06
			c-0.897,0.047-1.739,0.312-2.534,0.763c-0.413,0.253-0.822,0.528-1.233,0.788c-1.047-0.199-2.173-0.179-3.202,0.082l-2.798,0.709
			c-0.053-0.128-0.104-0.256-0.171-0.38c-0.228-0.742-0.659-1.378-1.292-1.909c-0.544-0.435-1.087-0.871-1.631-1.306
			c-0.785-0.705-1.724-1.187-2.817-1.446c-0.56-0.061-1.119-0.122-1.679-0.183c-0.607-0.018-1.206,0.069-1.787,0.228
			c-0.34-0.318-0.732-0.59-1.19-0.805c-1.42-0.601-2.837-1.052-4.488-0.976c-1.708,0.079-3.183,0.438-4.711,1.211
			c-1.552,0.785-2.598,2.111-3.189,3.564c-0.298,0.732-0.372,1.493-0.291,2.235c-0.295,0.109-0.585,0.234-0.867,0.394
			c-0.793,0.385-1.437,0.906-1.932,1.562c-0.6,0.575-1.019,1.242-1.257,2.002c-0.432,0.872-0.863,1.743-1.295,2.615
			c-0.36,1.028-0.413,2.052-0.16,3.073c0.203,0.481,0.405,0.963,0.608,1.444c0.736,1.347,2.236,2.201,3.804,2.633
			c0.754,0.203,1.517,0.234,2.288,0.11c-0.12,0.663-0.054,1.635,0.314,3.134c-1.299-1.702-3.59-2.723-6.606-1.964
			c-2.955,0.744-4.492,2.658-4.872,4.718c-0.255,0.046-0.506,0.109-0.755,0.179c-0.211-1.129-0.861-2.165-1.693-2.992
			c-0.57-0.557-1.255-0.946-2.055-1.168c-0.747-0.343-1.56-0.497-2.441-0.461c-0.326-0.007-0.644,0.02-0.958,0.065
			c-0.32-0.046-0.646-0.08-0.985-0.091c-0.739-0.023-1.467,0.11-2.163,0.343c-1.085-0.732-2.509-1.178-3.878-1.155
			c-0.861,0.014-1.722,0.028-2.583,0.042c-0.206,0.003-0.409,0.018-0.61,0.037c-0.362-0.517-0.825-0.945-1.401-1.274
			c-0.608-0.501-1.332-0.835-2.17-1.001c-0.909-0.145-1.818-0.291-2.726-0.436c-1.131-0.259-2.278-0.244-3.439,0.045
			c-0.553,0.211-1.106,0.421-1.658,0.632c-1.196,0.569-2.091,1.525-2.706,2.585c-0.877-0.082-1.783-0.019-2.573,0.18
			c-1.423,0.358-2.656,1.149-3.595,2.164c-3.062,1.225-4.765,4.048-4.184,6.983c0.191,0.963,0.825,1.907,1.632,2.638
			c-1.014,1.016-1.661,2.516-1.733,3.78c-0.078,1.36,0.402,2.468,1.17,3.491c-0.086-0.103-0.17-0.198-0.255-0.301
			c0.117,0.142,0.226,0.305,0.327,0.453c-1.292,0.807-2.18,2.019-2.711,3.325c-0.402,0.987-0.384,2.091-0.134,3.068
			c-0.278,0-0.585-0.088-0.871-0.072c-0.166-0.273-0.36-0.537-0.596-0.773c-0.436-0.635-1.034-1.141-1.79-1.495
			c-0.721-0.404-1.514-0.642-2.369-0.669c-0.855-0.161-1.88-0.742-2.611,0.093l-0.612,0.154c-1.16,0.292-2.166,0.867-3.04,1.63
			c-0.217,0.244-0.402,0.617-0.629,0.822c-0.299-0.062-0.605-0.11-0.923-0.121c-0.855-0.161-1.87-0.705-2.601,0.13l-0.612,0.154
			c-1.161,0.292-2.175,0.831-3.049,1.595c-0.36,0.404-0.718,0.814-1.077,1.217c-0.619,0.906-0.961,1.875-1.026,2.909
			c0.049,0.52,0.099,1.04,0.148,1.56c0.162,0.786,0.53,1.465,1.102,2.037c0.111,0.162,0.234,0.315,0.366,0.459
			c-1.682,0.45-3.053,1.328-4.031,2.626c-0.829,1.101-1.098,2.325-1.007,3.55c-0.136,0.018-0.261,0.033-0.397,0.05
			c-0.893,0.193-1.656,0.558-2.333,1.105c-0.74,0.428-1.289,0.981-1.732,1.678c-0.498,0.67-0.703,1.366-0.786,2.131
			c-0.233,0.775-0.643,1.649,0.166,2.273l0.271,1.076c0.035,0.141,0.056,0.283,0.097,0.42c-0.5,0.372-0.936,0.825-1.269,1.349
			c-0.318,0.461-0.636,0.923-0.954,1.384c-0.619,0.906-0.961,1.875-1.026,2.909c0.049,0.52,0.099,1.04,0.148,1.56
			c0.157,0.614,0.424,1.17,0.778,1.68c-0.255,0.171-0.5,0.357-0.734,0.561c-0.36,0.404-0.718,0.809-1.078,1.213
			c-0.619,0.906-0.96,1.879-1.024,2.913c0.05,0.52,0.102,1.048,0.152,1.568c0.148,0.718,0.482,1.355,0.972,1.897
			c-0.277,0.226-0.526,0.46-0.761,0.707c-1.294,0.258-2.494,0.861-3.496,1.678l-2.115,1.732c-1.312,1.068-1.907,2.615-2.066,4.111
			c-0.011,0.099-0.006,0.197-0.009,0.295c-0.452,0.249-0.879,0.538-1.272,0.882c-0.345,0.387-0.69,0.774-1.035,1.161
			c-0.806,0.204-1.525,0.55-2.149,1.054c-0.74,0.428-1.331,0.992-1.775,1.689c-0.498,0.67-0.789,1.387-0.872,2.153
			c-0.161,0.536-0.204,1.071-0.144,1.604c-0.188,0.206-0.364,0.416-0.511,0.63c-0.498,0.67-0.789,1.387-0.872,2.153
			c-0.233,0.775-0.235,1.547-0.006,2.317c0.106,0.673,0.366,1.315,0.714,1.916c0.008,0.085,0.017,0.171,0.025,0.256
			c-0.79,0.426-1.525,0.894-2.196,1.394c-0.872,0.311-1.657,0.769-2.35,1.374c-0.069,0.077-0.134,0.166-0.202,0.243
			c-0.711-0.143-1.488-0.392-2.045,0.4l-0.612,0.154c-1.161,0.292-2.217,0.665-3.091,1.429c-0.36,0.404-0.759,0.648-1.119,1.052
			c-0.619,0.906-0.961,1.875-1.026,2.909c0.049,0.52,0.099,1.04,0.148,1.56c0.162,0.786,0.53,1.466,1.102,2.037
			c0.141,0.205,0.304,0.39,0.478,0.566c-0.719,1.219-0.916,2.811-0.605,4.051C14.286,311.066,14.654,311.745,15.226,312.317z
			 M192.583,344.619c2.688,0.088,4.158,1.07,5.294,2.179c-0.061,0.06-0.119,0.123-0.179,0.183c-0.229-0.204-0.476-0.392-0.756-0.552
			c-0.608-0.501-1.332-0.835-2.17-1.001c-0.689-0.201-1.378-0.402-2.067-0.603C192.668,344.754,192.624,344.687,192.583,344.619z"/>
		<path id="XMLID_300_" style="fill:#FFFFFF;" d="M177.203,35.2c2.537,0,4.786-1.212,6.216-3.084
			c1.431,1.871,3.679,3.084,6.217,3.084c3.069,0,5.718-1.77,7.001-4.341c1.776,1.693,4.175,2.738,6.823,2.738
			c5.468,0,9.901-4.432,9.901-9.9c0-1.434-0.311-2.793-0.86-4.024c-1.543-3.461-5.007-5.877-9.041-5.877
			c-0.575,0-1.134,0.059-1.682,0.154c-0.129,0.022-0.259,0.04-0.387,0.067c-0.095-0.4-0.216-0.79-0.369-1.163
			c-1.17-2.85-3.97-4.859-7.241-4.859c-0.252,0-0.501,0.015-0.747,0.038c-0.104,0.01-0.204,0.027-0.307,0.041
			c-0.148-0.451-0.328-0.887-0.528-1.313C190.323,2.77,186.279,0,181.578,0c-5.422,0-9.973,3.68-11.324,8.674
			c-0.973-0.434-2.048-0.68-3.182-0.68c-4.324,0-7.828,3.505-7.828,7.828c0,0.095,0.011,0.188,0.014,0.283
			c-3.455,1.17-5.945,4.432-5.945,8.282c0,2.063,0.718,3.955,1.913,5.451c1.603,2.008,4.068,3.298,6.837,3.298
			c3.167,0,5.932-1.688,7.468-4.207c0.177,0.878,0.508,1.699,0.953,2.443c0.208,0.349,0.436,0.684,0.694,0.995
			C172.613,34.097,174.779,35.2,177.203,35.2z M173.515,20.264c0.048,0.045,0.097,0.088,0.146,0.133
			c-0.141,0.072-0.28,0.149-0.416,0.229C173.337,20.507,173.429,20.388,173.515,20.264z M171.031,22.568
			c-0.116,0.148-0.231,0.297-0.335,0.454c-0.013-0.082-0.022-0.164-0.037-0.245C170.784,22.711,170.908,22.64,171.031,22.568z"/>
	</g>
	<g style="opacity:0.5;">
		<path id="XMLID_294_" style="fill-rule:evenodd;clip-rule:evenodd;fill:#FFFFFF;" d="M748.099,182.498
			c-0.201-0.544-0.539-1.018-0.998-1.429c0.18-0.252,0.326-0.522,0.434-0.812c0.345-0.578,0.504-1.201,0.475-1.868
			c0.029-0.668-0.13-1.291-0.475-1.868c-0.223-0.601-0.603-1.121-1.141-1.561c-0.163-0.144-0.327-0.287-0.49-0.431
			c-0.007-1.167-0.698-2.461-1.612-3.264c-0.851-0.748-2.053-1.247-3.263-1.381c0.037-0.025,0.073-0.05,0.11-0.074
			c0.538-0.439,0.918-0.959,1.141-1.561c0.345-0.578,0.504-1.201,0.475-1.868c0.029-0.668-0.13-1.29-0.475-1.868
			c-0.223-0.601-0.603-1.121-1.141-1.561c-0.175-0.154-0.35-0.308-0.526-0.462c-0.024-0.021-0.051-0.037-0.075-0.058
			c0.107-0.644,0.086-1.31-0.081-1.954c-0.3-1.156-1.391-2.309-2.536-2.898c-1.27-0.653-2.837-0.794-4.252-0.489
			c-1.077,0.232-2.154,0.464-3.231,0.696c-0.359-0.448-0.813-0.812-1.367-1.089c0.037-0.374,0.017-0.748-0.079-1.122
			c-0.033-0.645-0.252-1.246-0.655-1.803c-0.175-0.308-0.35-0.616-0.526-0.924c-0.491-0.729-1.151-1.309-1.98-1.74
			c-0.439-0.163-0.879-0.326-1.318-0.489c-0.246-0.058-0.493-0.101-0.739-0.13c-0.03-0.759-0.257-1.532-0.701-2.271
			c-1.354-2.252-5.114-3.11-7.55-1.74c-0.134,0.075-0.27,0.143-0.406,0.21c-0.094,0.025-0.19,0.048-0.286,0.07
			c-0.065,0.002-0.128,0.01-0.194,0.011c-0.595,0.003-1.16,0.088-1.686,0.239c-0.63-0.454-1.372-0.804-2.085-0.977
			c-1.357-0.329-2.69-0.13-3.935,0.361c0.046-0.245,0.074-0.491,0.087-0.736c0.062-1.208-0.659-2.588-1.616-3.429
			c-0.981-0.862-2.505-1.445-3.902-1.42c-0.461,0.008-0.922,0.016-1.383,0.024c-0.157-0.188-0.322-0.366-0.499-0.521
			c-0.622-0.547-1.621-1.069-2.614-1.302c-0.016-0.394-0.071-0.787-0.17-1.166c-0.171-0.631-0.5-1.181-0.988-1.649
			c-0.389-0.528-0.905-0.944-1.548-1.249c-0.338-0.189-0.692-0.329-1.059-0.425c0.292-1.153-0.037-2.375-0.653-3.4
			c-0.631-1.049-2.018-1.919-3.298-2.229c-1.174-0.284-2.272-0.17-3.346,0.162c0.006-0.002,0.013-0.005,0.019-0.007
			c-0.214,0.072-0.429,0.129-0.645,0.18c-0.211,0-0.421-0.009-0.635-0.027c-0.473-0.04-0.947,0.018-1.407,0.134
			c-0.017-0.079-0.03-0.159-0.051-0.238c-0.32-1.237-1.358-2.231-2.536-2.898c-1.172-0.664-2.931-0.809-4.252-0.489
			c-1.103,0.267-2.172,0.906-2.898,1.718c-0.124-0.008-0.249-0.017-0.37-0.017c-1.576,0-2.721,0.586-3.902,1.42
			c-1.067,0.753-2.133,1.506-3.199,2.259c-0.195,0.138-0.363,0.301-0.518,0.473c-0.273-0.038-0.551-0.059-0.839-0.05
			c-0.501-0.017-0.978,0.045-1.435,0.172c-0.235-0.905-0.796-1.798-1.491-2.408c-0.893-0.785-2.589-1.551-3.901-1.42
			c-1.719,0.171-2.86,0.406-4.421,1.03c-0.83,0.332-1.58,0.821-2.275,1.345c-0.665,0.052-1.282,0.233-1.862,0.558l-0.63,0.377
			c-0.597-0.404-1.254-0.713-1.913-0.872c-0.995-0.241-2.225-0.219-3.291,0.105c-0.006-0.002,0.101-0.005,0.095-0.007
			c0.09-0.163,0.027-0.328,0.027-0.497v-0.462c0-0.875-0.349-1.692-0.848-2.448c-0.288-0.327-0.67-0.655-0.957-0.982
			c-0.299-0.261-0.626-0.482-0.972-0.674c0.298-0.596,0.452-1.25,0.487-1.92c0.029-0.668-0.13-1.311-0.475-1.888
			c-0.223-0.601-0.603-1.162-1.141-1.601c-0.5-0.473-1.092-0.887-1.776-1.083c-0.658-0.304-1.366-0.578-2.126-0.578h-1.577
			c-1.195,0-2.279,0.515-3.219,1.1c-0.49-0.644-1.159-1.047-1.851-1.403c-1.263-0.649-2.845-0.8-4.252-0.489
			c-0.305,0.067-0.61,0.135-0.915,0.202c-0.477-0.88-1.333-1.685-2.226-2.144c-0.646-0.332-1.381-0.533-2.133-0.61
			c-0.017-0.057-0.028-0.115-0.048-0.172c-0.171-0.631-0.5-1.181-0.988-1.649c-0.389-0.528-0.905-0.944-1.548-1.249
			c-0.525-0.308-1.051-0.617-1.576-0.925c-1.198-0.703-2.758-0.763-4.128-0.51c-0.264-0.554-0.637-1.077-1.118-1.538
			c-2.018-1.932-5.757-1.793-7.804,0c-0.191,0.175-0.393,0.342-0.6,0.503c-0.01,0.006-0.016,0.01-0.026,0.016
			c-0.084,0.043-0.677,0.343-0.957,0.494c-0.493-0.06-0.986-0.048-1.479,0.049c-0.734,0.029-1.418,0.221-2.052,0.575
			c-0.002,0.001-0.004,0.002-0.006,0.003c-0.24-0.179-0.488-0.341-0.741-0.471c-1.161-0.597-2.949-0.883-4.252-0.489
			c-0.48,0.145-0.96,0.29-1.439,0.435c0.019-0.65-0.137-1.257-0.474-1.821c-0.223-0.601-0.603-1.121-1.141-1.561
			c-0.5-0.473-1.092-0.807-1.776-1.003c-0.333-0.154-0.68-0.265-1.039-0.334c-0.489-0.703-1.202-1.289-1.981-1.731
			c-1.172-0.664-2.931-0.809-4.252-0.489c-1.415,0.343-2.493,1.171-3.291,2.221c-1.273-0.598-2.677-0.659-4.075-0.409
			c-0.742,0.133-1.483,0.266-2.225,0.399c-0.185-0.525-0.48-0.993-0.901-1.396c-0.389-0.528-0.905-0.944-1.548-1.249
			c-0.35-0.154-0.701-0.308-1.051-0.462c-0.861-0.439-1.789-0.659-2.785-0.662c-0.489,0.058-0.978,0.115-1.467,0.173
			c-0.342,0.084-0.661,0.202-0.97,0.336c-0.03-0.213-0.068-0.425-0.122-0.631c-0.3-1.156-1.391-2.309-2.536-2.898
			c-1.263-0.65-2.844-0.8-4.252-0.489c-0.701,0.155-1.401,0.309-2.102,0.464c-0.3,0.066-0.584,0.162-0.857,0.276
			c-0.347-0.009-0.694,0.017-1.041,0.085c-0.734,0.029-1.418,0.221-2.052,0.576c-0.701,0.462-1.401,0.924-2.102,1.386
			c-0.022,0.011-0.041,0.025-0.062,0.037c-0.15-0.05-0.301-0.096-0.449-0.132c-0.734-0.202-1.467-0.231-2.201-0.087
			c-0.727,0.029-1.405,0.219-2.033,0.567c-0.454-0.945-1.361-1.824-2.311-2.312c-1.386-0.713-2.727-0.688-4.252-0.489
			c-0.485,0.063-0.97,0.127-1.455,0.19c-0.488-0.773-1.248-1.415-2.085-1.889c-1.172-0.664-2.931-0.809-4.252-0.489
			c-1.371,0.332-2.558,1.175-3.298,2.229c-0.537,0.764-1.073,1.527-1.61,2.291c-0.228,0.324-0.392,0.67-0.51,1.025
			c-0.272,0.09-0.537,0.195-0.787,0.327l-0.988,0.519c-0.993-2.143-4.039-3.472-6.562-2.778c-2.002,0.55-3.691,1.464-5.114,2.688
			c0,0-0.001-0.001-0.001-0.001c-0.932-0.892-2.549-1.421-3.902-1.421c-1.499,0-2.807,0.562-3.902,1.42
			c-1.205,0.945-2.41,1.889-3.615,2.834c-0.014,0.011-0.026,0.025-0.04,0.036c-0.705-0.636-1.649-1.131-2.545-1.348
			c-1.559-0.377-2.83-0.045-4.252,0.489c-0.695,0.261-1.391,0.522-2.086,0.784c-0.339-0.154-0.685-0.278-1.025-0.36
			c-1.473-0.357-2.919-0.097-4.252,0.489c-0.701,0.308-1.401,0.616-2.102,0.924c-1.044,0.459-1.784,1.329-2.254,2.262
			c-0.262,0.068-0.518,0.151-0.765,0.265c-0.684,0.196-1.276,0.529-1.776,1.002c-0.175,0.154-0.35,0.307-0.526,0.461
			c-0.684,0.605-1.157,1.316-1.419,2.138c-0.033,0.215-0.066,0.425-0.099,0.64c-0.276,0.028-0.553,0.06-0.829,0.125
			c-0.439,0.163-0.879,0.294-1.318,0.457c-0.643,0.305-1.159,0.657-1.548,1.185c-0.488,0.468-0.817,0.89-0.988,1.521
			c-0.068,0.191-0.113,0.317-0.147,0.317h-0.786c-0.996,0.526-1.924,0.48-2.785,0.919c-0.372,0.253-0.745,0.762-1.117,1.015
			c-0.684,0.605-1.157,1.318-1.419,2.14c-0.003,0.019-0.006,0.037-0.009,0.056c-0.207,0.079-0.411,0.167-0.609,0.277
			c-0.576,0.273-1.044,0.637-1.416,1.089c-0.662,0.345-1.189,0.816-1.587,1.37c-0.883-1.033-2.279-1.755-4.198-1.755
			c-3.048,0-4.782,1.758-5.216,3.793c-0.152,0.018-0.304-0.008-0.455,0.01c-0.333,0.082-0.644,0.109-0.946,0.238
			c-0.242-0.028-0.487-0.211-0.74-0.211h-0.526c-0.996,0.526-1.925,0.383-2.785,0.822c-0.372,0.253-0.745,0.666-1.117,0.918
			c-0.189,0.167-0.358,0.316-0.514,0.499c-0.395-0.091-0.799-0.207-1.217-0.215c-0.042-0.013-0.081-0.202-0.124-0.214
			c-0.658-0.304-1.366-0.759-2.126-0.759h-1.051c-0.996,0.526-1.923,0.564-2.784,1.003c-0.372,0.253-0.743,0.847-1.116,1.099
			c-0.256,0.227-0.47,0.473-0.667,0.73c-0.289,0.092-0.566,0.208-0.836,0.359c-0.643,0.305-1.149,0.721-1.538,1.249
			c-0.488,0.468-0.797,1.018-0.968,1.649c-0.175,0.462-0.311,0.924-0.486,1.386c-0.47,1.24-0.037,2.617,0.636,3.737
			c0.011,0.017,0.194,0.033,0.194,0.05v1.659c0,0.251,0.01,0.494,0.052,0.733c-0.008,0.179-0.028,0.358-0.016,0.537
			c-0.316,0.07-0.604,0.167-0.897,0.302c-0.684,0.196-1.27,0.53-1.769,1.003c-0.538,0.439-0.905,0.959-1.128,1.561
			c-0.346,0.578-0.449,1.201-0.449,1.868v0.924c0.526,0.799,0.216,1.546,0.632,2.246c-0.457,0.728-0.7,1.51-0.703,2.347
			c0.066,0.43,0.171,0.86,0.237,1.289c0.216,0.676,0.661,1.274,1.162,1.803c-0.254,0.488-0.276,1.004-0.276,1.552v0.462
			c0.526,0.772,0.183,1.495,0.572,2.174c-0.483,0.466-0.836,1.013-1.006,1.64c-0.2,0.56-0.242,1.12-0.144,1.68
			c0,0.016-0.002,0.032-0.001,0.048c-0.029,0.668,0.13,1.29,0.475,1.868c0.221,0.596,0.597,1.111,1.127,1.548
			c0.437,0.505,0.971,0.924,1.606,1.255c0.214,0.079,0.428,0.159,0.643,0.238c0.032,0.012,0.065,0.024,0.098,0.036
			c0.184,0.068,0.368,0.136,0.551,0.204c-0.064,0.03-0.13,0.056-0.192,0.088c-1.46,0.752-2.805,2.131-3.133,3.625
			c-0.263,0.859-0.271,1.719-0.008,2.578c0.185,0.386,0.354,0.772,0.54,1.158c0.184,0.305,0.383,0.579,0.646,0.827
			c-0.405,0.389-0.773,0.83-0.958,1.332c-0.284,0.475-0.502,0.982-0.574,1.517c-0.111,0.245-0.223,0.489-0.334,0.734
			c-0.496,0.11-0.975,0.277-1.433,0.511c-0.372,0.253-0.745,0.506-1.117,0.758c-0.684,0.605-1.157,1.318-1.419,2.14
			c-0.066,0.43-0.131,0.86-0.197,1.289c-0.029,0.668,0.13,1.29,0.475,1.868c0.075,0.202,0.174,0.391,0.284,0.575
			c-0.065,0.044-0.13,0.088-0.194,0.132c-0.538,0.439-0.919,0.959-1.141,1.561c-0.346,0.578-0.504,1.201-0.475,1.868
			c-0.029,0.668,0.13,1.29,0.475,1.868c0.223,0.601,0.603,1.121,1.141,1.561c0.175,0.154,0.35,0.308,0.526,0.462
			c0.689,0.601,1.5,1.017,2.435,1.247c0.079,0.009,0.158,0.019,0.238,0.028c-0.308,0.494-0.485,1.019-0.514,1.58
			c-0.164,0.645-0.131,1.289,0.099,1.934c0.236,0.697,0.57,1.309,1.051,1.863c-0.221,0.343-0.397,0.708-0.522,1.1
			c-0.045,0.292-0.088,0.585-0.133,0.877c-0.117,0.043-0.232,0.084-0.346,0.137c-0.684,0.196-1.27,0.53-1.77,1.003
			c-0.538,0.439-0.906,0.959-1.128,1.561c-0.346,0.578-0.45,1.201-0.45,1.868v0.462c0.526,0.875,0.229,1.69,0.728,2.447
			c0.288,0.327,0.55,0.653,0.837,0.981c0.689,0.601,1.5,1.015,2.435,1.245c0.489,0.058,0.978,0.112,1.467,0.17
			c0.091,0.003,0.179-0.011,0.269-0.013c0.013,0.582,0.163,1.117,0.469,1.629c0.223,0.601,0.603,1.093,1.141,1.532
			c0.5,0.473,1.092,0.749,1.776,0.945c0.038,0.018,0.077,0.037,0.116,0.055c0.438,1.137,1.371,2.17,2.515,2.716
			c0.367,0.175,0.981,0.406,1.38,0.52c0.503,0.144,1.054,0.189,1.583,0.188c1.1-0.001,2.177-0.284,3.097-0.796
			c0.416,0.082,0.836,0.134,1.241,0.154l0.38,0.433c0.052,0.045,0.109,0.082,0.162,0.125c-0.468,0.749-0.682,1.658-0.722,2.456
			c-0.066,1.292,0.651,2.505,1.616,3.429c0.932,0.892,2.549,1.42,3.902,1.42c0.76,0.025,1.468-0.114,2.126-0.418
			c0.082-0.023,0.157-0.055,0.236-0.082c0.106,0.072,0.222,0.145,0.362,0.24c0.243,0.165,0.447,0.326,0.699,0.459
			c0.945,0.495,1.982,0.708,3.071,0.741c0.068,0.002,0.131,0.002,0.199-0.002c0.489-0.058,0.978-0.115,1.467-0.173
			c0.044-0.006,0.088-0.015,0.13-0.028c0.408-0.101,0.788-0.243,1.149-0.414c0.608,0.323,1.26,0.503,1.959,0.531
			c0.733,0.144,1.467,0.116,2.2-0.087c0.539-0.113,1.026-0.304,1.461-0.574c0.019,0.125,0.038,0.25,0.057,0.375
			c0.262,0.822,0.735,1.535,1.419,2.14c0.372,0.253,0.745,0.505,1.117,0.758c0.633,0.354,1.317,0.546,2.052,0.576
			c0.734,0.144,1.467,0.115,2.201-0.087c0.718-0.15,1.344-0.439,1.877-0.868c0.601-0.342,1.074-0.796,1.421-1.361
			c0.176-0.308,0.352-0.615,0.528-0.923c0.499-0.756,0.75-1.572,0.753-2.448c-0.035-0.226-0.069-0.452-0.104-0.678
			c0.226-0.144,0.442-0.302,0.64-0.489c0.175-0.154,0.35-0.308,0.526-0.462c0.684-0.605,1.157-1.318,1.419-2.14l0.118-0.77
			c0.535-0.115,1.044-0.289,1.476-0.511c0.993-0.511,1.651-1.227,2.133-2.074c0.071-0.136,0.152-0.265,0.233-0.394
			c0.701,0.532,1.481,0.899,2.39,1.137c0.328,0.078,0.656,0.121,0.984,0.147c0.224,0.323,0.488,0.633,0.786,0.919
			c0.995,0.952,2.475,1.372,3.902,1.428c0.693,0.023,1.341-0.082,1.95-0.333c0.228,0.445,0.552,0.861,0.981,1.21
			c0.5,0.473,1.092,0.811,1.776,1.007c0.658,0.304,1.366,0.951,2.126,0.425h0.526c0.996,0,1.919-0.231,2.78-0.67
			c0.357-0.243,0.709-0.493,1.067-0.735c0.683-0.003,1.305-0.136,1.905-0.414c0.684-0.196,1.223-0.53,1.723-1.003
			c0.538-0.439,0.813-0.959,1.035-1.561c0.345-0.578,0.789-1.201,0.264-1.868v-0.103c1.052-0.463,1.676-0.923,2.36-1.352
			c0.682,0.717,1.576,1.433,2.257,2.15c0.338,0.356,0.766,0.632,1.239,0.844c-0.227,0.641-0.259,1.283-0.096,1.924
			c0.033,0.645,0.252,1.246,0.655,1.803c0.347,0.565,0.821,1.019,1.421,1.361c0.533,0.429,1.159,0.718,1.877,0.868
			c0.103,0.028,0.205,0.056,0.308,0.084c-2.911,2.658-1.643,8.356,3.804,8.356c0.626,0,1.194-0.078,1.709-0.215
			c0.123,0.614,0.354,1.209,0.712,1.757c0.602,0.922,1.207,1.325,2.169,1.93c0.861,0.439,1.789,0.661,2.785,0.664
			c0.489-0.058,0.978-0.111,1.467-0.169c0.716-0.176,1.358-0.456,1.929-0.849c0.015,0.013,0.026,0.042,0.042,0.055
			c0.5,0.473,1.092,0.781,1.776,0.977c0.658,0.304,1.366,0.892,2.126,0.366h1.051c0.996,0,1.924-0.172,2.784-0.61
			c0.372-0.253,0.743-0.454,1.116-0.707c0.684-0.605,1.155-1.318,1.417-2.14c0.012-0.08,0.02-0.16,0.032-0.24
			c0.323-0.07,0.627-0.171,0.931-0.312c0.684-0.196,1.226-0.53,1.726-1.003c0.538-0.439,0.819-0.959,1.041-1.561
			c0.345-0.578,0.802-1.201,0.276-1.868v-1.386c0-0.672,0.034-1.304-0.258-1.889c0.081-0.102,0.365-0.201,0.438-0.31
			c0.185-0.386,0.371-0.772,0.556-1.158c0.23-0.645,0.263-1.289,0.099-1.934c-0.033-0.645-0.252-1.246-0.655-1.803
			c-0.071-0.115-0.15-0.223-0.232-0.329c0.099,0.03,0.195,0.066,0.297,0.091c0.489,0.058,0.978,0.116,1.467,0.173
			c0.76,0.025,1.468-0.114,2.126-0.418c0.684-0.196,1.276-0.53,1.776-1.003c0.014-0.011,0.025-0.024,0.039-0.036l0.041,0.036
			c0.689,0.601,1.5,1.017,2.435,1.247c0.489,0.058,0.978,0.116,1.467,0.173c0.996-0.003,1.924-0.223,2.785-0.662
			c0.372-0.253,0.745-0.505,1.117-0.758c0.112-0.091,0.212-0.188,0.31-0.286c1.674,1.635,4.742,2.055,6.893,0.918
			c0.041-0.022,0.084-0.04,0.125-0.062c0.277,0.642,0.688,1.214,1.249,1.71c0.372,0.253,0.744,0.506,1.117,0.758
			c0.605,0.308,1.244,0.502,1.916,0.595c0.22,0.652,0.227,1.268,0.611,1.85c0.288,0.327,0.704,0.654,0.991,0.981
			c0.689,0.601,1.494,1.017,2.429,1.247c0.489,0.058,0.966,0.115,1.455,0.173c0.76,0.025,1.445-0.114,2.103-0.418
			c0.684-0.196,1.229-0.53,1.729-1.003c0.538-0.439,0.824-0.959,1.047-1.561c0.346-0.578,0.813-1.201,0.287-1.868v-0.462
			c0-0.811-0.04-1.567-0.469-2.276c0.057-0.027,0.304-0.049,0.36-0.077c0.345,0.241,0.691,0.485,1.036,0.726
			c0.21,0.183,0.435,0.35,0.668,0.499c0.473,0.406,1.02,0.675,1.648,0.854c0.658,0.304,1.366,0.855,2.126,0.329h0.526
			c0.996,0,1.924-0.135,2.785-0.574c0.372-0.253,0.745-0.417,1.117-0.67c0.022-0.019,0.039-0.041,0.06-0.06
			c0.55,0.029,1.086,0.05,1.597,0.069c-0.008,0.021-0.019,0.045-0.026,0.065c-0.099,0.266-0.153,0.548-0.183,0.831
			c-0.309,0.384-0.529,0.813-0.658,1.289c-0.23,0.645-0.263,1.289-0.099,1.934c0.033,0.645,0.252,1.246,0.655,1.803
			c0.699,0.859,1.132,1.366,2.195,1.906c0.46,0.234,0.968,0.418,1.485,0.536c0.269,0.032,0.539,0.064,0.808,0.095
			c-0.666,0.601-1.141,1.368-1.432,2.158c-0.23,0.645-0.263,1.289-0.099,1.934c0.033,0.645,0.252,1.246,0.655,1.803
			c0.151,0.245,0.33,0.466,0.528,0.669c-0.074,0.302-0.106,0.614-0.092,0.937c-0.003,0.308-0.007,0.616-0.01,0.924
			c0.002,0.562,0.118,1.097,0.324,1.611c-1.019-0.011-2.043,0.253-2.936,0.667c-0.643,0.305-1.159,0.721-1.548,1.249
			c-0.488,0.468-0.817,1.018-0.988,1.649c-0.23,0.645-0.263,1.289-0.099,1.934c0.033,0.645,0.252,1.246,0.655,1.803
			c0.35,0.462,0.701,0.924,1.051,1.386c0.491,0.729,1.151,1.309,1.98,1.74c0.439,0.163,0.879,0.326,1.318,0.489
			c1.009,0.287,2.084,0.215,3.082-0.062c-0.171,0.47-0.267,0.957-0.269,1.468c0.066,0.43,0.131,0.859,0.197,1.288
			c0.171,0.631,0.5,1.179,0.988,1.647c0.389,0.528,0.905,0.941,1.548,1.245c0.633,0.354,1.317,0.539,2.052,0.568
			c0.734,0.144,1.467,0.101,2.2-0.101c0.385-0.12,0.77-0.259,1.156-0.385c0.805,0.374,1.718,0.586,2.601,0.585l2.403-0.003
			c0.017,0.114,0.032,0.227,0.061,0.341c0.033,0.645,0.252,1.246,0.655,1.803c0.35,0.462,0.701,0.924,1.051,1.386
			c0.491,0.729,1.15,1.309,1.98,1.74c0.439,0.163,0.879,0.326,1.318,0.489c0.486,0.138,0.988,0.189,1.489,0.179
			c0.21,0.326,0.471,0.625,0.797,0.892c1.024,0.774,2.076,1.425,3.424,1.699c1.394,0.283,2.658,0.293,4.049-0.02
			c1.412-0.319,2.526-1.176,3.298-2.229c0.389-0.531,0.604-1.129,0.689-1.745c0.26-0.028,0.52-0.07,0.78-0.142
			c0.718-0.15,1.344-0.439,1.877-0.868c0.601-0.342,1.075-0.796,1.421-1.361c0.525-0.616,1.051-1.232,1.576-1.848
			c0.499-0.756,0.75-1.572,0.753-2.448c-0.066-0.43-0.131-0.86-0.197-1.289c-0.32-1.237-1.358-2.231-2.536-2.898
			c-0.567-0.317-1.177-0.497-1.825-0.553c0.232-0.511,0.376-1.308,0.384-2.594c0.703,1.638,2.345,2.928,4.933,2.928
			c2.537,0,4.166-1.233,4.891-2.819c0.215,0.014,0.43,0.015,0.646,0.009c-0.059,0.954,0.255,1.923,0.758,2.759
			c0.347,0.565,0.82,1.019,1.421,1.361c0.533,0.429,1.159,0.718,1.877,0.868c0.262,0.072,0.524,0.114,0.786,0.142
			c0.249,0.102,0.505,0.196,0.777,0.273c0.592,0.168,1.207,0.209,1.816,0.163c0.727,0.811,1.786,1.46,2.896,1.721
			c0.698,0.164,1.396,0.327,2.093,0.491c0.167,0.039,0.334,0.069,0.5,0.094c0.187,0.491,0.474,0.93,0.872,1.313
			c0.389,0.528,0.905,0.944,1.548,1.249c0.704,0.302,1.408,0.604,2.112,0.906c0.861,0.439,1.789,0.659,2.785,0.662
			c0.489-0.058,0.978-0.115,1.467-0.173c1.081-0.216,1.997-0.806,2.709-1.536c0.691,0.245,1.435,0.377,2.113,0.377
			c1.221,0,2.377-0.388,3.342-1.017c2.721-0.367,4.669-2.299,4.796-4.786c0.042-0.816-0.278-1.707-0.782-2.461
			c1.025-0.614,1.852-1.693,2.167-2.699c0.339-1.082,0.177-2.074-0.235-3.056c0.048,0.101,0.097,0.194,0.145,0.295
			c-0.065-0.139-0.121-0.292-0.172-0.432c1.207-0.389,2.17-1.187,2.864-2.133c0.525-0.715,0.734-1.61,0.732-2.449
			c0.225,0.056,0.454,0.19,0.689,0.235c0.079,0.254,0.182,0.507,0.324,0.745c0.223,0.601,0.603,1.131,1.141,1.57
			c0.5,0.473,1.092,0.826,1.776,1.021c0.658,0.304,1.366,0.981,2.126,0.455h0.526c0.996,0,1.924-0.26,2.785-0.698
			c0.225-0.153,0.45-0.416,0.675-0.536c0.229,0.111,0.466,0.212,0.72,0.285c0.658,0.304,1.366,0.949,2.126,0.423h0.526
			c0.996,0,1.924-0.229,2.785-0.668c0.372-0.253,0.745-0.511,1.117-0.764c0.684-0.605,1.157-1.318,1.419-2.14
			c0.066-0.43,0.131-0.859,0.197-1.289c0.029-0.668-0.13-1.29-0.475-1.868c-0.057-0.154-0.125-0.302-0.202-0.445
			c1.449-0.021,2.734-0.452,3.787-1.301c0.893-0.72,1.359-1.654,1.534-2.661c0.113,0.013,0.218,0.027,0.331,0.04
			c0.76,0.025,1.45-0.114,2.108-0.418c0.684-0.196,1.239-0.53,1.739-1.003c0.538-0.439,0.845-0.959,1.067-1.561
			c0.346-0.578,0.854-1.201,0.328-1.868v-0.924c0-0.121,0.013-0.24,0.007-0.359c0.48-0.199,0.923-0.476,1.299-0.831
			c0.35-0.308,0.701-0.616,1.051-0.924c0.684-0.605,1.157-1.318,1.419-2.14c0.066-0.43,0.131-0.86,0.197-1.289
			c-0.002-0.527-0.105-1.03-0.287-1.514c0.24-0.086,0.476-0.186,0.707-0.304c0.372-0.253,0.744-0.507,1.117-0.76
			c0.684-0.605,1.156-1.322,1.419-2.144c0.066-0.43,0.13-0.867,0.196-1.296c0.026-0.61-0.114-1.192-0.4-1.729
			c0.269-0.126,0.518-0.265,0.758-0.416c1.097,0.055,2.188-0.189,3.163-0.644l2.059-0.968c1.276-0.595,2.071-1.723,2.503-2.898
			c0.029-0.078,0.045-0.158,0.067-0.236c0.415-0.109,0.818-0.256,1.206-0.454c0.357-0.242,0.714-0.485,1.071-0.727
			c0.692-0.001,1.343-0.134,1.949-0.414c0.684-0.196,1.276-0.53,1.776-1.003c0.538-0.439,0.918-0.96,1.141-1.561
			c0.239-0.4,0.382-0.823,0.442-1.266c0.194-0.128,0.379-0.262,0.541-0.405c0.538-0.439,0.919-0.96,1.141-1.561
			c0.346-0.578,0.504-1.201,0.475-1.869c0.051-0.565-0.028-1.136-0.187-1.692c0.011-0.07,0.021-0.141,0.032-0.211
			c0.725-0.183,1.412-0.412,2.056-0.679c0.767-0.074,1.494-0.284,2.176-0.632c0.071-0.048,0.142-0.107,0.213-0.155
			c0.545,0.26,1.122,0.618,1.732,0.092h0.526c0.996,0,1.924-0.087,2.785-0.525c0.372-0.253,0.745-0.369,1.117-0.622
			c0.684-0.605,1.157-1.318,1.419-2.14c0.066-0.43,0.131-0.859,0.197-1.289c0.029-0.668-0.13-1.291-0.475-1.868
			c-0.072-0.194-0.166-0.377-0.271-0.554c0.828-0.838,1.311-2.083,1.311-3.147C748.603,183.698,748.445,183.076,748.099,182.498z
			 M611.502,120.392c-2.152-0.617-3.139-1.708-3.831-2.834c0.062-0.036,0.121-0.075,0.182-0.111
			c0.144,0.211,0.305,0.413,0.498,0.599c0.389,0.528,0.905,0.944,1.548,1.249c0.515,0.302,1.03,0.605,1.546,0.907
			C611.461,120.266,611.482,120.328,611.502,120.392z"/>
		<path id="XMLID_288_" style="fill-rule:evenodd;clip-rule:evenodd;fill:#CCCCCC;" d="M769.324,319.417
			c0.329-1.012,0.254-2.345-0.274-3.398c0.154-0.136,0.301-0.281,0.429-0.443c0.507-0.443,0.85-0.986,1.03-1.63
			c0.07-0.429,0.141-0.858,0.211-1.287c0.005-0.862-0.225-1.687-0.688-2.474c-0.276-0.355-0.594-0.581-0.87-0.936
			c-0.683-0.683-1.539-1.053-2.486-1.361l-0.5-0.162c-0.418-0.689-1.077-0.526-1.676-0.447c-0.053-0.068-0.102-0.146-0.154-0.213
			c-0.541-0.542-1.167-0.966-1.875-1.274c-0.53-0.453-1.113-0.883-1.745-1.281c0.011-0.07,0.023-0.141,0.035-0.211
			c0.323-0.48,0.575-0.999,0.701-1.551c0.234-0.626,0.276-1.268,0.126-1.924c-0.026-0.641-0.227-1.253-0.603-1.837
			c-0.11-0.186-0.245-0.37-0.389-0.552c0.08-0.44,0.074-0.886-0.029-1.34c-0.026-0.641-0.227-1.253-0.603-1.837
			c-0.329-0.604-0.789-1.105-1.379-1.503c-0.49-0.453-1.067-0.781-1.725-0.996c-0.265-0.341-0.529-0.682-0.794-1.023
			c-0.308-0.308-0.646-0.572-1.007-0.804c0.004-0.082,0.013-0.162,0.009-0.245c-0.048-1.251-0.455-2.569-1.485-3.53l-1.659-1.557
			c-0.787-0.734-1.749-1.303-2.809-1.59c-0.182-0.218-0.375-0.426-0.592-0.63c0.438-0.422,0.751-0.933,0.914-1.52
			c0.07-0.429,0.144-0.865,0.214-1.294c0.005-0.862-0.223-1.69-0.687-2.477c-0.276-0.355-0.551-0.713-0.827-1.068
			c-0.183-0.183-0.376-0.351-0.578-0.507c0.322-0.404,0.576-0.851,0.741-1.352c0.07-0.429,0.141-0.858,0.211-1.287
			c0.005-0.862-0.225-1.687-0.688-2.474c-0.238-0.401-0.476-0.802-0.714-1.203c-0.247-0.454-0.583-0.854-0.978-1.192
			c0.042-0.111,0.066-0.228,0.104-0.343l0.286-0.878c0.707-0.472,0.416-1.222,0.266-1.878c-0.026-0.641-0.157-1.23-0.533-1.814
			c-0.329-0.604-0.754-1.094-1.344-1.491c-0.532-0.492-1.145-0.838-1.875-1.049c-0.112-0.022-0.215-0.042-0.327-0.064
			c0.145-1.012-0.01-2.044-0.637-3.005c-0.739-1.133-1.828-1.94-3.199-2.408c0.118-0.112,0.229-0.232,0.33-0.361
			c0.507-0.443,0.85-0.986,1.03-1.63c0.07-0.429,0.141-0.858,0.211-1.287c0.005-0.862-0.225-1.687-0.688-2.474
			c-0.276-0.355-0.55-0.716-0.826-1.072c-0.683-0.683-1.495-1.188-2.442-1.496l-0.5-0.162c-0.56-0.735-1.433-0.34-2.153-0.255
			c-0.264-0.009-0.521,0.013-0.773,0.048c-0.177-0.183-0.31-0.503-0.476-0.718c-0.683-0.683-1.486-1.217-2.433-1.525l-0.5-0.162
			c-0.56-0.735-1.443-0.31-2.163-0.224c-0.711-0.025-1.383,0.127-2.005,0.422c-0.648,0.251-1.173,0.638-1.57,1.141
			c-0.209,0.183-0.385,0.391-0.539,0.608c-0.237-0.03-0.497,0.027-0.727,0.011c0.262-0.798,0.339-1.713,0.061-2.555
			c-0.368-1.115-1.037-2.171-2.064-2.914c0.092-0.117,0.192-0.246,0.297-0.358c-0.077,0.081-0.152,0.155-0.229,0.236
			c0.696-0.806,1.157-1.699,1.169-2.833c0.011-1.054-0.441-2.336-1.226-3.237c0.712-0.561,1.292-1.31,1.504-2.099
			c0.648-2.404-0.607-4.845-3.081-6.034c-0.723-0.896-1.703-1.622-2.864-2c-0.645-0.21-1.394-0.313-2.126-0.295
			c-0.451-0.915-1.14-1.759-2.102-2.299c-0.447-0.206-0.894-0.412-1.342-0.618c-0.948-0.305-1.899-0.382-2.853-0.231
			c-0.763,0.07-1.526,0.139-2.289,0.209c-0.706,0.091-1.325,0.327-1.859,0.709c-0.497,0.241-0.905,0.57-1.235,0.979
			c-0.166-0.028-0.334-0.051-0.505-0.065c-0.714-0.06-1.428-0.12-2.143-0.18c-1.136-0.095-2.344,0.194-3.286,0.741
			c-0.565-0.232-1.162-0.383-1.777-0.406c-0.282-0.01-0.555-0.001-0.823,0.02c-0.258-0.054-0.52-0.095-0.792-0.108
			c-0.729-0.079-1.414,0.003-2.053,0.245c-0.677,0.139-1.268,0.424-1.772,0.855c-0.737,0.64-1.336,1.464-1.574,2.39
			c-0.203-0.073-0.407-0.139-0.617-0.191c-0.199-1.733-1.368-3.408-3.78-4.192c-2.462-0.8-4.422-0.081-5.597,1.259
			c0.39-1.225,0.499-2.028,0.437-2.585c0.634,0.146,1.269,0.164,1.906,0.038c1.327-0.271,2.621-0.895,3.308-1.972
			c0.195-0.388,0.391-0.777,0.586-1.165c0.268-0.833,0.281-1.687,0.04-2.561c-0.309-0.748-0.619-1.496-0.928-2.244
			c-0.155-0.645-0.466-1.222-0.931-1.733c-0.374-0.572-0.88-1.041-1.516-1.406c-0.225-0.148-0.459-0.269-0.698-0.376
			c0.109-0.612,0.09-1.248-0.116-1.873c-0.409-1.239-1.203-2.4-2.448-3.139c-1.226-0.728-2.431-1.109-3.844-1.271
			c-1.367-0.156-2.569,0.138-3.782,0.558c-0.392,0.152-0.733,0.357-1.034,0.601c-0.473-0.164-0.966-0.271-1.471-0.29
			c-0.468,0.019-0.937,0.038-1.405,0.057c-0.922,0.154-1.729,0.501-2.421,1.043c-0.476,0.331-0.952,0.662-1.428,0.993
			c-0.556,0.405-0.949,0.909-1.18,1.512c-0.063,0.099-0.112,0.203-0.163,0.306l-2.284-0.746c-0.84-0.274-1.774-0.355-2.655-0.248
			c-0.327-0.239-0.651-0.49-0.98-0.724c-0.635-0.419-1.319-0.687-2.062-0.776c-0.707-0.199-1.415-0.235-2.127-0.094
			c-0.706,0.091-1.324,0.324-1.857,0.706c-0.609,0.295-1.091,0.714-1.449,1.261c-0.195,0.388-0.39,0.776-0.586,1.164
			c-0.156,0.486-0.215,0.979-0.198,1.479c-0.863-0.572-1.863-0.972-2.912-1.011c-0.468,0.019-0.937,0.038-1.405,0.057
			c-0.922,0.154-1.729,0.501-2.421,1.043c-0.476,0.331-0.952,0.662-1.428,0.993c-0.556,0.405-0.949,0.909-1.18,1.512
			c-0.355,0.562-0.523,1.185-0.504,1.87c-0.033,0.653,0.111,1.278,0.43,1.874c0.207,0.622,0.569,1.178,1.086,1.666
			c0.721,0.67,1.613,1.237,2.586,1.542c-0.355,0.424-0.631,0.897-0.806,1.431c-0.092,0.294-0.184,0.588-0.276,0.882
			c-0.113,0.303-0.179,0.609-0.202,0.919c-0.252,0.132-0.49,0.286-0.709,0.473c-0.556,0.405-0.949,0.909-1.18,1.512
			c-0.355,0.562-0.523,1.185-0.504,1.87c0.032,0.842,0.247,1.718,0.695,2.496c-0.266-0.053-0.532-0.106-0.798-0.159
			c-0.528-0.048-1.068-0.03-1.578,0.051c-1.178,0.186-1.746,0.534-2.677,1.135c-0.556,0.405-0.949,0.909-1.18,1.512
			c-0.355,0.562-0.523,1.185-0.504,1.87c-0.025,0.493,0.051,0.969,0.227,1.429c-0.059,0.279-0.094,0.563-0.083,0.847
			c0.001,0.021,0.004,0.048,0.005,0.07c-0.493-0.14-1.008-0.286-1.541-0.428c-0.014-0.025-0.024-0.051-0.038-0.076
			c-0.276-0.355-0.579-0.627-0.855-0.982c-0.683-0.683-1.524-1.099-2.471-1.406l-0.5-0.162c-0.56-0.735-1.404-0.43-2.124-0.344
			c-0.653-0.023-1.256,0.063-1.831,0.303c-0.267,0.07-0.533,0.159-0.79,0.268c-0.403,0.122-0.807,0.248-1.21,0.37
			c-0.044-0.044-0.273-0.142-0.319-0.185c0.627-0.542,0.899-1.248,1.15-2.02l0.143-0.439c0.707-0.472,0.455-1.209,0.305-1.866
			c-0.026-0.641-0.137-1.224-0.513-1.808c-0.329-0.604-0.744-1.091-1.334-1.488c-0.532-0.492-1.14-0.836-1.87-1.047
			c-0.483-0.096-0.955-0.189-1.438-0.285c-0.96-0.07-1.855,0.076-2.696,0.435c-0.375,0.222-0.871,0.405-1.246,0.627
			c-0.544,0.434-0.742,1.019-1.153,1.57c-0.667-0.119-1.336-0.132-2.006-0.026c-0.432,0.125-0.864,0.251-1.296,0.376
			c-0.687,0.298-1.254,0.716-1.716,1.241c-0.033-0.033-0.068-0.064-0.1-0.097c-1.695-1.746-4.742-2.295-6.839-1.257
			c-0.063-0.124-0.129-0.247-0.207-0.368c-0.276-0.355-0.552-0.711-0.828-1.066c-0.683-0.683-1.498-1.18-2.444-1.491
			c-0.483-0.096-0.966-0.192-1.449-0.289c-0.96-0.07-1.861,0.075-2.701,0.433l-0.05,0.021c-0.01-0.015-0.016-0.031-0.026-0.046
			c-0.329-0.604-0.789-1.105-1.379-1.503c-0.532-0.492-1.163-0.844-1.893-1.054c-0.483-0.096-0.966-0.192-1.449-0.289
			c-0.105-0.008-0.207-0.003-0.311-0.005c0.11-0.076,0.219-0.153,0.322-0.241c0.556-0.405,0.949-0.909,1.18-1.512
			c0.355-0.562,0.523-1.185,0.504-1.869c-0.057-0.425-0.114-0.849-0.171-1.274c-0.036-0.126-0.276-0.308-0.321-0.43
			c0.459-0.466,0.622-1.078,0.829-1.717l0.428-1.318c0.707-0.472,0.465-1.206,0.315-1.862c-0.026-0.641-0.132-1.222-0.508-1.806
			c-0.329-0.604-0.741-1.09-1.332-1.487c-0.246-0.228-0.504-0.418-0.789-0.585c0.013-0.08,0.03-0.159,0.043-0.238
			c0.005-0.862-0.223-1.686-0.686-2.473c-0.276-0.355-0.567-0.661-0.843-1.017c-0.683-0.683-1.512-1.133-2.459-1.441l-1-0.325
			c-0.56-0.735-1.416-0.395-2.135-0.309c-0.711-0.025-1.369,0.085-1.991,0.38c-0.019,0.007-0.038,0.032-0.057,0.039
			c-0.422-0.551-0.946-1.015-1.572-1.404c-0.447-0.206-0.896-0.408-1.343-0.614c-0.948-0.305-1.9-0.381-2.854-0.229
			c-1.102,0.278-1.803,0.474-2.66,1.165c-0.51,0.411-0.913,0.905-1.22,1.451c-0.448-0.29-0.964-0.54-1.559-0.733
			c-5.18-1.684-8.148,3.344-6.2,6.771c-0.106-0.005-0.212-0.01-0.319-0.015c-0.729-0.079-1.414,0.003-2.053,0.245
			c-0.677,0.139-1.268,0.424-1.772,0.855c-0.556,0.405-0.949,0.909-1.18,1.512c-0.354,0.559-0.521,1.179-0.504,1.859
			c-0.515,0.056-1.008,0.186-1.439,0.42c-0.87,0.471-1.941,0.876-2.811,1.346c-0.518-0.62-0.969-1.251-1.827-2.016l0.032-0.098
			c0.707-0.472,0.477-1.202,0.327-1.858c-0.026-0.641-0.126-1.22-0.502-1.804c-0.329-0.604-0.739-1.089-1.329-1.486
			c-0.485-0.449-1.036-0.768-1.684-0.982c-0.265-0.341-0.522-0.688-0.787-1.029c-0.683-0.683-1.49-1.188-2.437-1.496l-0.5-0.162
			c-0.56-0.735-1.434-0.338-2.154-0.253c-0.711-0.025-1.379,0.113-2,0.408c-0.515,0.2-0.952,0.496-1.307,0.848
			c-0.501-0.426-1.085-0.727-1.751-0.919c-1.375-0.388-2.912-0.446-4.152,0.152c-0.372,0.179-0.719,0.392-1.031,0.631
			c-0.32-0.077-0.645-0.137-0.981-0.165c-0.937-0.055-1.793,0.053-2.624,0.342c-0.038-0.148-0.075-0.295-0.1-0.447
			c-0.196-0.955-0.601-1.839-1.387-2.632c-0.343-0.345-0.773-0.668-1.246-0.943l0.126-0.768c0.005-0.862-0.225-1.687-0.688-2.474
			c-0.119-0.201-0.238-0.401-0.357-0.602c-0.13-0.239-0.286-0.457-0.457-0.663c0.103-0.204,0.206-0.409,0.308-0.613
			c0.268-0.833,0.281-1.687,0.04-2.561c-0.072-0.347-0.144-0.694-0.216-1.041c-0.155-0.645-0.465-1.222-0.931-1.733
			c-0.374-0.572-0.88-1.041-1.516-1.406c-0.635-0.419-1.324-0.673-2.066-0.763c-0.707-0.199-1.417-0.228-2.129-0.087
			c-0.432,0.125-0.864,0.251-1.297,0.376c-0.837,0.364-1.508,0.896-2.011,1.596c-0.057,0.113-0.114,0.226-0.17,0.339
			c-0.33-0.391-0.734-0.724-1.212-0.998c-0.635-0.419-1.324-0.673-2.066-0.763c-0.674-0.19-1.349-0.22-2.027-0.101
			c-0.29-0.274-0.608-0.527-0.965-0.749c-0.036-0.025-0.074-0.048-0.115-0.067c-0.447-0.206-0.894-0.412-1.342-0.618
			c-0.063-0.024-0.124-0.044-0.189-0.063c-1.046-0.305-2.099-0.423-3.15-0.245c-0.281,0.048-0.525,0.138-0.807,0.22
			c-0.163,0.047-0.295,0.081-0.419,0.117c-0.067-0.05-0.129-0.104-0.199-0.151c-0.532-0.492-1.163-0.843-1.893-1.054
			c-1.287-0.418-2.988-0.416-4.15,0.145c-1.204,0.58-2.26,1.513-2.597,2.762c-0.208,0.772-0.285,1.702-0.072,2.559
			c-0.064,0.024-0.129,0.042-0.192,0.069l-0.495,0.294c-0.392-0.107-0.807-0.187-1.228-0.238c-0.716-0.772-1.653-1.374-2.699-1.715
			c-0.503-0.164-1.041-0.292-1.564-0.31c-0.415-0.015-1.071,0.015-1.473,0.068c-1.256,0.166-2.463,0.86-3.231,1.806
			c-0.042,0.006-0.085,0.012-0.127,0.017c-0.711-0.025-1.36,0.055-1.981,0.35c-0.648,0.251-1.161,0.601-1.559,1.104
			c-0.449,0.392-0.758,0.854-0.95,1.404c-0.085-0.029-0.164-0.07-0.252-0.095c-0.483-0.096-0.965-0.196-1.448-0.292
			c-0.96-0.07-1.86,0.073-2.701,0.432c-0.375,0.222-0.725,0.451-1.099,0.674c-0.709,0.565-0.678,1.432-1.449,2.102l-0.143,0.439
			c-0.206,0.635-0.3,1.259-0.15,1.916c0.026,0.641,0.215,1.249,0.591,1.833c0.329,0.604,0.783,1.103,1.373,1.501
			c0.092,0.086,0.189,0.16,0.287,0.237c-0.048,0.292-0.097,0.583-0.145,0.875c-0.002,0.411,0.052,0.813,0.156,1.207
			c-0.629,0.378-1.136,0.858-1.576,1.447c-0.418,0.542-0.649,1.145-0.692,1.809c-0.146,0.542-0.14,1.096,0.001,1.661
			c-0.078-0.016-0.156-0.031-0.235-0.047c-0.96-0.07-1.861,0.075-2.701,0.433c-0.214,0.092-0.428,0.185-0.643,0.277
			c-0.648,0.251-1.17,0.629-1.568,1.132c-0.507,0.443-0.85,0.986-1.03,1.63c-0.234,0.626-0.275,1.267-0.126,1.924
			c0.026,0.641,0.227,1.253,0.603,1.837c0.048,0.062,0.096,0.124,0.144,0.185c-0.162,0.14-0.315,0.29-0.448,0.459
			c-0.507,0.443-0.85,0.986-1.03,1.63c-0.07,0.429-0.141,0.858-0.211,1.287c-0.005,0.862,0.225,1.687,0.688,2.474
			c0.276,0.355,0.552,0.711,0.828,1.066c0.364,0.364,0.767,0.671,1.205,0.929c0.03,0.267,0.061,0.534,0.091,0.801
			c-0.097,0.531-0.047,1.081,0.077,1.62c0.022,0.534,0.235,1.068,0.5,1.563c-0.327,0.154-0.601,0.353-0.87,0.587
			c-0.296,0.31-0.576,0.625-0.872,0.935c-0.516,0.736-0.773,1.556-0.789,2.455c-0.15,1.522,0.703,3.249,1.859,4.416
			c0.049,0.049,0.104,0.095,0.156,0.143c-0.196,0.008-0.392,0.016-0.588,0.024c-0.035,0.001-0.069,0.003-0.104,0.004
			c-0.228,0.009-0.457,0.019-0.685,0.028c-0.706,0.118-1.344,0.352-1.915,0.697c-0.639,0.251-1.157,0.625-1.551,1.124
			c-0.507,0.443-0.85,0.986-1.03,1.63c-0.006,0.015-0.008,0.031-0.014,0.046c-0.266,0.502-0.4,1.048-0.383,1.642
			c-0.032,0.649,0.135,1.278,0.45,1.87c-0.58,0.526-0.477,1.32-1.216,1.891l-0.143,0.439c-0.169,0.521-0.308,1.019-0.217,1.561
			c-0.64,0.349-1.249,0.78-1.663,1.356c-0.195,0.388-0.428,0.765-0.624,1.153c-0.256,0.797-0.266,1.616-0.057,2.45
			c-0.612,0.537-0.548,1.343-1.295,1.94l-0.286,0.878c-0.206,0.635-0.301,1.259-0.151,1.916c0.026,0.641,0.214,1.249,0.59,1.833
			c0.329,0.604,0.783,1.103,1.373,1.501c0.237,0.219,0.48,0.4,0.76,0.565c-0.066,0.167-0.103,0.343-0.151,0.516
			c-0.113,0.214-0.198,0.442-0.276,0.681l-0.513,1.578c-0.005,0.016-0.185-0.026-0.2-0.012c-0.986,0.857-1.824,2.032-1.76,3.357
			c0.024,0.493,0.01,0.974,0.034,1.468c-0.033,0.653,0.092,1.271,0.411,1.868c0.207,0.622,0.56,1.175,1.077,1.663
			c0.211,0.228,0.438,0.423,0.684,0.6c0.108,0.305,0.235,0.606,0.409,0.901c0.276,0.355,0.445,1.035,0.721,1.39
			c0.683,0.683,1.553,1.007,2.338,1.815l1,0.325c0.723,0.235,1.537,0.021,2.257-0.064c0.044,0.002,0.14-0.165,0.184-0.165
			c0.4,0.121,0.82,0.136,1.224,0.171c0.092,0.223,0.207,0.417,0.335,0.634c0.276,0.355,0.502,0.863,0.778,1.219
			c0.683,0.683,1.61,0.835,2.395,1.643l0.5,0.162c0.241,0.078,0.53-0.019,0.769,0.029c0.247,0.216,0.535,0.338,0.826,0.519
			c0.139,0.064,0.291,0.086,0.43,0.15c-0.216,2.069,0.89,4.277,3.788,5.219c1.824,0.593,3.375,0.338,4.534-0.371
			c0.208,0.65,0.563,1.261,1.086,1.793c0.214,0.545,0.547,1.036,1.01,1.473c0.154,0.166,0.321,0.313,0.493,0.452
			c-0.003,0.019-0.006,0.037-0.009,0.056c-0.005,0.862,0.225,1.687,0.688,2.473c0.276,0.355,0.473,0.955,0.748,1.31
			c0.683,0.683,1.58,0.926,2.365,1.734l0.748,0.243c0.032,0.01,0.036,0.144,0.042,0.347c-0.033,0.653,0.15,1.156,0.469,1.752
			c0.207,0.622,0.589,1.117,1.106,1.605c0.367,0.291,0.745,0.551,1.112,0.842c0.243,0.148,0.496,0.264,0.75,0.376
			c-0.035,0.214-0.069,0.424-0.104,0.639c-0.005,0.862,0.225,1.685,0.689,2.472c0.119,0.201,0.238,0.4,0.357,0.601
			c0.329,0.604,0.789,1.105,1.379,1.502c0.2,0.185,0.418,0.343,0.646,0.488c0.159,1.033,0.594,2.089,1.445,2.848
			c0.571,0.509,1.143,1.019,1.714,1.528c1.087,0.97,2.381,1.663,3.893,1.779c0.349,0.027,0.717,0.016,1.086-0.026
			c0.581,0.463,1.161,0.927,1.742,1.39c1.187,0.948,2.293,1.656,3.893,1.779c0.92,0.071,1.97-0.108,2.837-0.495
			c0.01,0.015,0.017,0.032,0.027,0.047c0.854,1.271,1.708,2.542,2.562,3.813c0.776,1.155,1.846,2.094,3.272,2.557
			c1.287,0.418,2.988,0.416,4.15-0.145l0.001-0.001c0.976,1.604,2.299,2.995,4.033,4.137c2.185,1.44,5.493,1.117,7.1-0.614
			l0.779,0.799c0.198,0.203,0.417,0.385,0.648,0.554c0.003,0.374,0.052,0.753,0.168,1.132c0.274,0.892,0.549,1.784,0.823,2.677
			c0.378,1.231,1.246,2.4,2.448,3.139c1.157,0.712,2.875,1.119,4.195,0.849c0.942-0.192,1.864-0.567,2.567-1.152
			c0.442,0.21,0.883,0.42,1.325,0.631c1.389,0.661,2.657,1.099,4.195,0.849c1.055-0.171,2.188-0.726,2.913-1.485
			c0.49,0.525,1.076,0.915,1.759,1.167c0.653,0.364,1.359,0.563,2.12,0.598c0.153,0.012,0.309,0.015,0.468,0.014
			c0.017,0.018,0.03,0.037,0.048,0.054c0.524,0.656,1.047,1.312,1.571,1.968c0.493,0.533,1.084,0.927,1.773,1.182
			c0.309,0.172,0.631,0.305,0.964,0.403c0.225,0.192,0.465,0.371,0.73,0.527c0.618,0.364,1.237,0.727,1.855,1.091
			c1.243,0.731,2.793,1.077,4.195,0.849c1.271-0.206,2.665-0.965,3.308-1.972c0.115-0.18,0.216-0.37,0.311-0.563
			c0.252,0.223,0.52,0.433,0.819,0.619c0.447,0.206,0.894,0.412,1.342,0.618c0.948,0.305,1.899,0.382,2.853,0.231
			c0.381-0.038,0.762-0.076,1.142-0.114c0.706-0.091,1.325-0.327,1.859-0.709c0.525-0.254,0.95-0.608,1.288-1.049
			c0.664,0.356,1.329,0.711,1.993,1.067c1.252,0.67,2.606,1.046,4.001,0.871c0.435,1.245,1.204,2.366,2.444,3.129
			c1.157,0.712,2.875,1.119,4.195,0.849c0.877-0.179,1.736-0.517,2.419-1.034c0.363,0.045,0.727,0.047,1.091,0.004
			c0.711,0.025,1.377-0.109,1.999-0.405c0.648-0.251,1.17-0.629,1.568-1.132c0.495-0.432,0.831-0.962,1.014-1.586
			c0.411,0.286,0.823,0.572,1.234,0.859c1.118,0.778,2.906,1.059,4.195,0.849c0.281-0.046,0.567-0.122,0.851-0.218
			c0.002,0.001,0.003,0.003,0.005,0.004c0.493,0.533,1.084,0.927,1.773,1.182c0.439,0.245,0.904,0.408,1.392,0.504
			c0.219,0.229,0.691,0.698,0.757,0.765c0.008,0.009,0.013,0.015,0.02,0.023c0.147,0.217,0.288,0.437,0.415,0.664
			c1.392,2.338,4.905,3.626,7.422,2.412c0.6-0.289,1.116-0.672,1.539-1.117c1.225,0.665,2.728,1.09,4.084,0.792
			c0.595-0.131,1.19-0.262,1.785-0.392c0.706-0.091,1.325-0.327,1.859-0.709c0.609-0.295,1.092-0.716,1.449-1.263
			c0.037-0.048,0.065-0.1,0.099-0.149c0.739,0.16,1.5,0.196,2.217,0.08c0.992-0.161,2.054-0.661,2.78-1.351
			c0.269,0.158,0.538,0.317,0.808,0.475c1.242,0.731,2.793,1.077,4.195,0.849c0.768-0.124,1.529-0.301,2.194-0.762
			c0.713,0.847,1.585,1.672,2.721,2.041l1.499,0.487c0.723,0.235,1.481,0.193,2.201,0.107c0.711,0.025,1.402-0.186,2.024-0.481
			c0.648-0.251,1.182-0.667,1.58-1.17c0.507-0.443,0.857-1.005,1.036-1.649c0.175-0.648,0.23-1.318,0.131-1.976
			c0.388-0.075,0.768-0.184,1.133-0.34c0.375-0.222,0.839-0.416,1.214-0.638c0.708-0.565,1.293-1.234,1.563-2.066l0.143-0.439
			c0.052-0.161,0.163-0.298,0.128-0.481c0.006,0-0.094-0.036-0.088-0.036c0.913,0.638,2.076,1.039,3.097,1.117
			c0.675,0.052,1.396-0.039,2.089-0.238l0.482,0.554c0.451,0.488,0.982,0.851,1.598,1.106c0.499,0.713,1.061,1.41,1.748,1.983
			c1.292,1.076,2.305,1.652,3.886,2.346c1.207,0.53,3.057,0.325,4.149-0.145c0.849-0.366,1.659-1.041,2.162-1.83
			c0.395,0.262,0.83,0.468,1.311,0.607c0.271,0.098,0.542,0.163,0.813,0.212c0.094,0.212,0.203,0.419,0.346,0.61
			c0.782,1.046,1.563,2.091,2.344,3.137c0.866,1.159,1.773,2.07,3.272,2.557c0.115,0.037,0.237,0.067,0.357,0.098
			c0.439,0.996,1.258,1.935,2.225,2.53c1.157,0.712,2.875,1.119,4.195,0.849c1.327-0.271,2.621-0.895,3.308-1.972
			c0.044-0.069,0.081-0.14,0.122-0.211c0.402,0.253,0.834,0.454,1.296,0.563c0.208,0.049,0.412,0.106,0.612,0.171
			c0.19,0.115,0.376,0.236,0.558,0.37c-0.005-0.004-0.011-0.008-0.016-0.013c0.919,0.648,1.928,1.096,3.132,1.188
			c1.313,0.101,2.901-0.297,3.825-1.1c0.903-0.785,1.594-1.845,1.672-3.032c0.379,0.022,0.758-0.001,1.139-0.077
			c0.706-0.091,1.325-0.327,1.859-0.709c0.609-0.295,1.092-0.716,1.449-1.263c0.21-0.33,0.385-0.686,0.522-1.056
			c1.017,0.085,2.128-0.103,2.889-0.431c0.216-0.093,0.428-0.212,0.635-0.342c0.436,0.15,0.872,0.3,1.308,0.451
			c1.321,0.455,2.95,0.372,4.15-0.145c1.17-0.504,2.282-1.594,2.597-2.762c0.064-0.237,0.113-0.48,0.145-0.727
			c1.032,0.852,2.238,1.452,3.631,1.559c0.731,0.056,1.545-0.047,2.285-0.285c0.453,0.307,0.964,0.562,1.529,0.749
			c0.062,0.02,0.12,0.048,0.181,0.07c0.084,0.05,0.168,0.102,0.25,0.155c0.109,0.106,0.218,0.213,0.322,0.325
			c1.893,2.056,5.735,2.402,7.718,0.679c0.651-0.565,1.106-1.23,1.369-1.943c0.243,0.049,0.491,0.084,0.743,0.105
			c0.468-0.019,0.937-0.038,1.405-0.058c0.922-0.154,1.729-0.501,2.421-1.043c0.262-0.239,0.523-0.477,0.785-0.716
			c0.556-0.405,0.949-0.909,1.18-1.512c0.206-0.326,0.342-0.676,0.422-1.043c0.612-0.092,1.157-0.298,1.637-0.613
			c0.952,0.553,1.905,1.107,2.857,1.66c1.252,0.727,2.785,1.078,4.195,0.849c1.271-0.206,2.665-0.966,3.308-1.972
			c0.358-0.562,0.585-1.188,0.682-1.834c0.029-0.012,0.06-0.019,0.089-0.032c0.214-0.092,0.428-0.185,0.643-0.277
			c0.648-0.251,1.17-0.629,1.568-1.132c0.507-0.443,0.85-0.986,1.03-1.63c0.234-0.626,0.275-1.267,0.126-1.924
			c-0.026-0.641-0.227-1.253-0.603-1.837c-0.027-0.035-0.054-0.07-0.081-0.105c1.193,0.247,2.49,0.143,3.53-0.305
			c1.118-0.481,2.174-1.498,2.542-2.606c0.2-0.086,0.4-0.172,0.6-0.258c0.648-0.251,1.17-0.629,1.568-1.132
			c0.507-0.443,0.85-0.986,1.03-1.63c0.234-0.626,0.276-1.267,0.126-1.924c-0.012-0.309-0.068-0.61-0.161-0.906
			c0.564-0.249,1.031-0.596,1.391-1.05C768.802,320.604,769.145,320.06,769.324,319.417z M619.076,338.051
			c-0.583,0.128-1.167,0.257-1.75,0.385c-0.706,0.091-1.325,0.327-1.859,0.709c-0.241,0.117-0.457,0.259-0.659,0.416
			c-0.047-0.054-0.091-0.109-0.139-0.162c1.006-0.857,2.282-1.59,4.519-1.511C619.151,337.942,619.111,337.995,619.076,338.051z"/>
		<path id="XMLID_282_" style="fill:#FFFFFF;" d="M560.513,57.903c3.838,0,7.35-1.384,10.072-3.678
			c2.288,4.15,6.703,6.963,11.778,6.963c3.301,0,6.319-1.194,8.659-3.168c2.003,1.185,4.332,1.877,6.827,1.877
			c4.26,0,8.05-1.987,10.513-5.079c1.779,3.052,5.079,5.109,8.866,5.109c4.034,0,7.515-2.332,9.193-5.718
			c2.392,2.19,5.568,3.537,9.066,3.537c7.425,0,13.444-6.019,13.444-13.444c0-2.079-0.486-4.039-1.328-5.796
			c-2.166-4.519-6.769-7.647-12.115-7.647c-2.592,0-5.005,0.746-7.058,2.018c-1.882-2.321-4.753-3.806-7.974-3.806
			c-0.445,0-0.881,0.038-1.311,0.093c-0.251,0.032-0.501,0.064-0.746,0.114c-0.129-1.046-0.411-2.044-0.824-2.971
			c-1.638-3.675-5.316-6.241-9.599-6.241c-0.633,0-1.249,0.066-1.851,0.173c-0.205,0.036-0.407,0.08-0.608,0.128
			c-0.241-1.155-0.621-2.259-1.121-3.293C602.081,12.296,597.185,9,591.519,9c-4.962,0-9.331,2.528-11.896,6.365
			c-1.487-0.566-3.093-0.89-4.778-0.89c-6.995,0-12.739,5.344-13.38,12.173c-0.315-0.019-0.632-0.032-0.951-0.032
			c-8.64,0-15.643,7.004-15.643,15.644c0,3.385,1.079,6.517,2.908,9.078C550.614,55.31,555.259,57.903,560.513,57.903z
			 M610.308,40.819c0.053,0.367,0.125,0.727,0.216,1.08c-0.011,0.009-0.02,0.019-0.031,0.028c-0.128-0.357-0.267-0.707-0.424-1.049
			C610.151,40.861,610.228,40.837,610.308,40.819z"/>
	</g>
</g>
</svg>
