<?xml version="1.0" encoding="utf-8"?>
<!-- Generator: Adobe Illustrator 21.0.0, SVG Export Plug-In . SVG Version: 6.00 Build 0)  -->
<svg version="1.1" id="Capa_1" xmlns="http://www.w3.org/2000/svg" xmlns:xlink="http://www.w3.org/1999/xlink" x="0px" y="0px"
	 viewBox="0 0 134.131 39.179" style="enable-background:new 0 0 134.131 39.179;" xml:space="preserve">
<g>
	<path style="fill:#FFFFFF;" d="M83.211,20.933c-0.165-0.068,0.576-1.715-1.293-2.164c-1.869-0.45-2.53,0.225-3.907,0.618
		c-1.377,0.393-3.682,0.857-4.034,1.209c1.138,0,4.526-0.267,5.144-0.267c0.618,0,1.194-0.211,1.476-0.323
		c0.281-0.113,0.316,0.218,0.183,0.351c-0.134,0.134-1.223,1.644,1.096,2.221c2.319,0.576,2.811-0.281,4.624-0.436
		c1.813-0.155,5.087,0.393,6.184,0.267c1.096-0.126,1.518,0.309,2.08,0.576c0.562,0.267,1.054,0.674,1.701,0.871
		c0.647,0.197,3.106,1.813,4.033,2.052c0.457,0.457,1.497,0.85,1.813,1.166c0.316,0.316,0.471,0.316,0.59,0.197
		c-0.14-0.141-0.323,0-0.267-0.253c0.056-0.253-0.056-0.464-0.478-0.562c-0.421-0.098-0.239-0.042-0.169-0.281
		c0.07-0.239,0.323-0.309,0.014-0.436c-0.309-0.126-0.85-0.414-0.731-0.534c0.12-0.12,0.253,0.07,0.365,0.183
		c0-0.393-0.351-0.647-0.703-0.647c-0.351,0-0.871-0.14-1.419-0.239c-0.548-0.098-0.913-0.056-1.405-0.422
		c-0.492-0.365-3.099-1.736-3.289-1.925c-0.19-0.19,2.811,0.253,2.361,0c-0.45-0.253-1.546-0.857-2.192-1.194
		c-0.646-0.337-0.155-0.548-0.576-0.773c-0.422-0.225-0.197-0.604-0.295-1.04c-0.098-0.436,0.211-0.857,0.211-1.349
		c0-0.492,0.323-0.211,0.436-0.618c0.113-0.408,0.59-0.534,0.59-0.97c0-0.436,0.098-0.745,0.098-1.068
		c0-0.323,0.211-0.703,0.07-1.11c-0.14-0.408,0.337-0.717,0.183-1.068c-0.155-0.351-0.014-0.913-0.155-1.293
		c-0.141-0.379,0.126-0.689,0.126-1.195c0-0.506,0.295-0.984,0.197-1.293c-0.098-0.309,0.183-0.506,0.042-0.871
		c-0.141-0.366,0.07-1.026-0.295-1.167c-0.365-0.14,0.155-0.703-0.393-0.829c0.225-0.59,0.351-1.307-0.633-0.45
		c0.464-1.138,0.112-1.335-0.506-0.843c0.126-0.984-0.127-1.518-0.857-0.478c0.141-0.59,0.339-1.705-0.801-0.565
		c0-0.868,0.028-1.585-0.506-0.854c-0.534,0.731-0.857,0.942-1.153,1.012c0.611-0.611,0.632-1.476,0.534-2.038
		c-0.365,0.112-0.815,1.293-1.026,1.504c0.267-1.082,0.169-1.588,0.042-1.883C89.985,2.227,89.1,4.11,88.2,5.347
		c-0.899,1.237-1.434,1.602-1.799,3.12c-0.366,1.518-1.012,1.518-1.012,2.431c0,0.913,1.265,4.16,1.11,6.844
		c-0.914,0-1.736-0.049-2.242,0.625c-0.561,0.748-0.176,1.553-0.499,1.989C83.436,20.792,83.45,21.031,83.211,20.933z"/>
	<path style="fill:#FFFFFF;" d="M118.361,33.689c-0.133-0.055,0.461-1.373-1.036-1.733c-1.497-0.36-2.026,0.18-3.129,0.495
		c-1.103,0.315-2.949,0.687-3.23,0.968c0.912,0,3.624-0.214,4.12-0.214c0.495,0,0.957-0.169,1.182-0.259
		c0.225-0.09,0.253,0.174,0.146,0.281c-0.107,0.107-0.979,1.317,0.878,1.779c1.857,0.461,2.251-0.225,3.703-0.349
		c1.452-0.124,4.075,0.315,4.953,0.214c0.878-0.101,1.216,0.248,1.666,0.462c0.45,0.214,0.844,0.54,1.362,0.698
		c0.518,0.158,2.488,1.452,3.23,1.643c0.366,0.366,1.199,0.681,1.452,0.934c0.253,0.253,0.377,0.253,0.473,0.158
		c-0.112-0.113-0.259,0-0.214-0.203c0.045-0.203-0.045-0.372-0.383-0.45c-0.338-0.079-0.191-0.034-0.135-0.225
		c0.056-0.192,0.259-0.248,0.011-0.349c-0.248-0.101-0.681-0.332-0.585-0.428c0.096-0.096,0.203,0.056,0.293,0.146
		c0-0.315-0.281-0.518-0.563-0.518s-0.698-0.112-1.137-0.191c-0.439-0.079-0.732-0.045-1.125-0.338
		c-0.394-0.293-2.482-1.39-2.634-1.542c-0.152-0.152,2.251,0.203,1.891,0c-0.36-0.203-1.238-0.687-1.756-0.957
		c-0.518-0.27-0.124-0.439-0.461-0.619c-0.338-0.18-0.158-0.484-0.236-0.833c-0.079-0.349,0.169-0.686,0.169-1.081
		c0-0.394,0.259-0.169,0.349-0.495c0.09-0.326,0.473-0.428,0.473-0.777c0-0.349,0.079-0.597,0.079-0.856
		c0-0.259,0.169-0.563,0.056-0.889c-0.112-0.326,0.27-0.574,0.146-0.856c-0.124-0.281-0.011-0.732-0.124-1.035
		c-0.113-0.304,0.101-0.552,0.101-0.957c0-0.405,0.236-0.788,0.158-1.036c-0.079-0.248,0.146-0.405,0.034-0.698
		c-0.113-0.293,0.056-0.822-0.236-0.934c-0.293-0.112,0.124-0.563-0.315-0.664c0.18-0.473,0.281-1.047-0.507-0.36
		c0.371-0.912,0.09-1.069-0.405-0.675c0.101-0.788-0.101-1.216-0.687-0.383c0.113-0.473,0.272-1.366-0.642-0.453
		c0-0.695,0.023-1.269-0.405-0.684c-0.428,0.585-0.687,0.754-0.923,0.81c0.49-0.49,0.507-1.182,0.428-1.632
		c-0.293,0.09-0.653,1.036-0.822,1.204c0.214-0.867,0.135-1.272,0.034-1.508c-0.27,0.405-0.979,1.913-1.7,2.904
		c-0.72,0.991-1.148,1.283-1.441,2.499c-0.293,1.216-0.81,1.216-0.81,1.947c0,0.732,1.013,3.332,0.889,5.482
		c-0.732,0-1.39-0.039-1.795,0.501c-0.449,0.599-0.141,1.244-0.4,1.593C118.542,33.576,118.553,33.768,118.361,33.689z"/>
	<g>
		<path style="fill:#FFFFFF;" d="M44.572,9.874c-0.718,0.067-1.439,0.113-2.159,0.17c-0.069,0.005-0.137,0.026-0.205,0.04
			c0,0.016,0.001,0.033,0.001,0.049c0.551,0.213,1.156,0.157,1.712,0.308c0.573,0.156,1.161,0.162,1.768,0.256
			c-0.305,0.265-0.305,0.265-0.254,0.651c0.003,0.024,0.012,0.049,0.011,0.072c-0.018,0.334,0.153,0.549,0.428,0.707
			c0.084,0.049,0.156,0.12,0.241,0.167c0.079,0.044,0.168,0.102,0.251,0.099c0.304-0.006,0.611-0.015,0.91-0.062
			c0.343-0.053,0.676-0.177,1.021-0.219c0.286-0.036,0.594-0.048,0.87,0.019c0.56,0.135,1.117,0.106,1.679,0.085
			c0.561-0.022,1.123-0.033,1.684-0.068c0.354-0.022,0.706-0.081,1.059-0.123c0.012-0.002,0.023-0.01,0.034-0.013
			c0.179-0.044,0.357-0.087,0.536-0.129c0.082-0.019,0.184-0.01,0.245-0.055c0.117-0.086,0.203-0.043,0.319-0.006
			c0.164,0.052,0.376,0.127,0.508,0.065c0.195-0.091,0.368-0.048,0.55-0.044c0.128,0.002,0.256,0.019,0.384,0.03
			c1.023,0.086,2.048,0.156,3.052,0.394c0.041,0.01,0.086,0.011,0.127,0.004c0.341-0.054,0.684-0.1,1.021-0.174
			c0.225-0.049,0.441-0.137,0.646-0.204c-0.042-0.08-0.061-0.114-0.096-0.178c-0.103,0.006-0.238,0.018-0.374,0.018
			c-0.051,0.001-0.124-0.011-0.149-0.045c-0.108-0.15-0.237-0.14-0.385-0.082c-0.154,0.061-0.297,0.081-0.438-0.053
			c-0.069-0.066-0.185-0.132-0.27-0.122c-0.317,0.037-0.653-0.011-0.942,0.177c-0.033,0.021-0.084,0.022-0.124,0.02
			c-0.732-0.055-1.463-0.111-2.195-0.17c-0.049-0.004-0.099-0.039-0.143-0.066c-0.069-0.043-0.129-0.116-0.203-0.135
			c-0.679-0.18-1.361-0.351-2.04-0.527c-0.061-0.015-0.117-0.046-0.175-0.07c0.006-0.014,0.011-0.028,0.016-0.041
			c0.179-0.025,0.358-0.05,0.569-0.081c-0.052-0.057-0.078-0.086-0.109-0.12c0.07-0.061,0.133-0.135,0.211-0.181
			c0.139-0.081,0.288-0.143,0.433-0.214c0.016-0.008,0.027-0.024,0.04-0.037c0.141-0.125,0.287-0.246,0.423-0.376
			c0.051-0.049,0.104-0.114,0.113-0.178c0.004-0.03-0.091-0.079-0.144-0.111c-0.041-0.024-0.09-0.036-0.135-0.054
			c0.006-0.015,0.013-0.03,0.019-0.045c0.1,0.03,0.202,0.055,0.302,0.089c0.047,0.016,0.119,0.077,0.128,0.068
			c0.048-0.051,0.084-0.114,0.115-0.177c0.018-0.037,0.007-0.11,0.03-0.121c0.148-0.065,0.066-0.298,0.249-0.334
			c0.004,0-0.003-0.044,0-0.067c0.005-0.042,0.005-0.087,0.022-0.124c0.036-0.08,0.102-0.152,0.117-0.235
			c0.019-0.114,0.002-0.234,0-0.362c0.38-0.189,0.769-0.382,1.172-0.581c-0.631-0.281-1.239-0.029-1.857,0.02
			c0.203-0.121,0.408-0.242,0.611-0.362c-0.011-0.021-0.021-0.042-0.032-0.064c-0.335,0.143-0.67,0.286-1.005,0.428
			c0.263-0.264,0.473-0.542,0.511-0.924c-0.086,0.042-0.157,0.095-0.218,0.158c-0.226,0.233-0.442,0.474-0.672,0.703
			c-0.22,0.22-0.483,0.343-0.805,0.338c-0.287-0.005-0.575,0.016-0.862,0.021c-0.173,0.003-0.286-0.099-0.24-0.254
			c0.049-0.166-0.028-0.252-0.127-0.345c-0.069-0.065-0.138-0.132-0.217-0.207c0.141-0.05,0.263-0.107,0.146-0.261
			c-0.071-0.094-0.169-0.168-0.263-0.261c0.177-0.058,0.107-0.144,0.026-0.226c-0.042-0.043-0.094-0.077-0.142-0.115
			c-0.062-0.049-0.181-0.1-0.178-0.145c0.011-0.233-0.162-0.299-0.292-0.4c-0.004-0.09-0.012-0.187-0.064-0.243
			c-0.092-0.1-0.193-0.182-0.278-0.299c-0.148-0.2-0.396-0.326-0.607-0.476c-0.057-0.041-0.133-0.058-0.202-0.086
			c0.071-0.276-0.178-0.281-0.32-0.383c0.126-0.165,0.087-0.285-0.085-0.374c-0.026-0.013-0.042-0.052-0.057-0.082
			c-0.058-0.107-0.115-0.215-0.172-0.323c-0.055-0.161-0.059-0.347-0.282-0.42c-0.032-0.01-0.076-0.056-0.075-0.084
			c0.014-0.234-0.126-0.34-0.32-0.396c-0.013-0.284-0.068-0.349-0.38-0.46C48.59,1.83,48.59,1.807,48.59,1.782
			c-0.004-0.269-0.091-0.333-0.339-0.243c-0.111,0.04-0.218,0.093-0.358,0.153c0.04-0.104,0.084-0.175,0.092-0.25
			c0.01-0.091,0.022-0.218-0.028-0.267c-0.044-0.044-0.189-0.035-0.26,0.005c-0.155,0.088-0.291,0.209-0.42,0.305
			c0.025-0.172,0.071-0.358,0.069-0.542c-0.001-0.084-0.081-0.196-0.157-0.24c-0.046-0.025-0.156,0.052-0.232,0.095
			c-0.039,0.021-0.065,0.067-0.12,0.127c-0.006-0.311,0.022-0.603-0.223-0.86c-0.089,0.156-0.165,0.29-0.248,0.435
			c-0.027-0.173-0.052-0.334-0.077-0.495C46.273,0.004,46.255,0.002,46.237,0c-0.047,0.068-0.103,0.131-0.14,0.204
			c-0.431,0.842-0.807,1.702-0.935,2.652c-0.05,0.366,0.012,0.702,0.193,1.023c0.042,0.073,0.07,0.174,0.058,0.255
			c-0.078,0.512,0.008,0.917,0.443,1.296c1.083,0.942,1.711,2.165,1.982,3.574c0.037,0.193,0.003,0.312-0.172,0.4
			c-0.074,0.037-0.152,0.098-0.191,0.168c-0.138,0.246-0.33,0.235-0.565,0.171c-0.431-0.119-0.867-0.117-1.306-0.032
			C45.262,9.778,44.918,9.841,44.572,9.874L44.572,9.874z M44.572,9.874"/>
	</g>
	<g>
		<path style="fill:#FFFFFF;" d="M54.149,34.608c-1.303,0.122-2.61,0.204-3.916,0.309c-0.125,0.009-0.248,0.048-0.372,0.072
			c0,0.03,0.002,0.059,0.002,0.089c0.999,0.386,2.096,0.285,3.106,0.559c1.039,0.282,2.107,0.293,3.208,0.464
			c-0.554,0.48-0.554,0.48-0.461,1.18c0.006,0.044,0.022,0.088,0.019,0.131c-0.033,0.605,0.278,0.996,0.776,1.282
			c0.153,0.088,0.283,0.217,0.437,0.303c0.143,0.08,0.305,0.185,0.455,0.18c0.551-0.012,1.108-0.027,1.651-0.113
			c0.622-0.097,1.227-0.32,1.852-0.397c0.519-0.065,1.077-0.087,1.577,0.035c1.016,0.245,2.026,0.193,3.046,0.154
			c1.018-0.04,2.037-0.059,3.055-0.124c0.642-0.04,1.281-0.146,1.921-0.224c0.022-0.003,0.042-0.017,0.062-0.023
			c0.324-0.079,0.648-0.158,0.973-0.233c0.149-0.035,0.333-0.018,0.445-0.101c0.212-0.156,0.368-0.079,0.579-0.011
			c0.298,0.094,0.682,0.231,0.921,0.119c0.355-0.165,0.667-0.087,0.998-0.08c0.232,0.005,0.464,0.034,0.697,0.054
			c1.855,0.156,3.715,0.283,5.535,0.714c0.074,0.017,0.156,0.02,0.23,0.008c0.619-0.099,1.241-0.181,1.852-0.315
			c0.408-0.088,0.8-0.249,1.172-0.369c-0.077-0.144-0.111-0.207-0.174-0.323c-0.188,0.011-0.433,0.033-0.679,0.033
			c-0.092,0.001-0.225-0.02-0.271-0.082c-0.195-0.271-0.431-0.254-0.698-0.149c-0.28,0.111-0.539,0.147-0.794-0.097
			c-0.125-0.12-0.335-0.24-0.49-0.222c-0.575,0.067-1.184-0.02-1.709,0.321c-0.059,0.038-0.152,0.041-0.226,0.036
			c-1.327-0.1-2.655-0.201-3.982-0.309c-0.089-0.008-0.179-0.07-0.26-0.119c-0.126-0.078-0.233-0.21-0.367-0.245
			c-1.232-0.327-2.468-0.636-3.7-0.956c-0.11-0.028-0.212-0.084-0.317-0.127c0.01-0.025,0.02-0.05,0.03-0.075
			c0.325-0.046,0.65-0.091,1.033-0.146c-0.095-0.104-0.142-0.156-0.197-0.217c0.127-0.111,0.24-0.246,0.384-0.328
			c0.253-0.146,0.523-0.259,0.785-0.389c0.029-0.014,0.048-0.044,0.072-0.066c0.256-0.226,0.52-0.447,0.767-0.682
			c0.092-0.088,0.189-0.207,0.205-0.322c0.007-0.055-0.164-0.143-0.262-0.202c-0.074-0.044-0.164-0.066-0.246-0.097
			c0.011-0.027,0.023-0.054,0.034-0.081c0.182,0.054,0.367,0.1,0.547,0.162c0.085,0.029,0.216,0.14,0.232,0.124
			c0.087-0.092,0.153-0.207,0.209-0.322c0.033-0.067,0.013-0.2,0.055-0.219c0.268-0.118,0.12-0.541,0.451-0.605
			c0.006-0.001-0.006-0.08,0-0.121c0.009-0.076,0.009-0.158,0.04-0.226c0.065-0.145,0.185-0.276,0.212-0.426
			c0.035-0.207,0.003-0.424,0-0.657c0.688-0.343,1.394-0.692,2.126-1.055c-1.144-0.509-2.247-0.053-3.369,0.037
			c0.369-0.219,0.74-0.438,1.109-0.657c-0.019-0.038-0.039-0.077-0.058-0.116c-0.608,0.259-1.215,0.518-1.823,0.776
			c0.476-0.48,0.858-0.983,0.928-1.676c-0.155,0.076-0.285,0.172-0.395,0.286c-0.41,0.423-0.803,0.861-1.22,1.275
			c-0.4,0.398-0.876,0.623-1.461,0.613c-0.52-0.009-1.042,0.029-1.564,0.038c-0.314,0.006-0.52-0.179-0.435-0.46
			c0.088-0.3-0.05-0.457-0.23-0.627c-0.126-0.119-0.249-0.239-0.393-0.376c0.255-0.09,0.476-0.195,0.265-0.474
			c-0.129-0.17-0.306-0.305-0.478-0.474c0.32-0.104,0.194-0.261,0.046-0.411c-0.077-0.078-0.17-0.14-0.257-0.208
			c-0.112-0.089-0.327-0.181-0.323-0.263c0.02-0.422-0.295-0.542-0.53-0.726c-0.008-0.164-0.022-0.339-0.116-0.441
			c-0.167-0.182-0.349-0.33-0.505-0.542c-0.268-0.363-0.718-0.591-1.101-0.864c-0.104-0.075-0.241-0.105-0.366-0.157
			c0.13-0.501-0.323-0.509-0.58-0.694c0.228-0.299,0.159-0.517-0.154-0.679c-0.048-0.024-0.075-0.095-0.104-0.149
			c-0.106-0.194-0.208-0.39-0.312-0.585c-0.1-0.293-0.107-0.629-0.511-0.763c-0.058-0.019-0.138-0.102-0.136-0.152
			c0.026-0.425-0.228-0.617-0.581-0.719c-0.024-0.516-0.124-0.634-0.69-0.835c-0.001-0.042-0.001-0.085-0.002-0.129
			c-0.007-0.488-0.164-0.604-0.615-0.441c-0.201,0.073-0.395,0.168-0.649,0.277c0.072-0.188,0.152-0.317,0.166-0.453
			c0.018-0.165,0.041-0.395-0.051-0.484c-0.08-0.08-0.344-0.063-0.471,0.009c-0.281,0.159-0.529,0.378-0.761,0.553
			c0.045-0.313,0.128-0.649,0.125-0.983c-0.002-0.153-0.147-0.356-0.284-0.435c-0.083-0.046-0.283,0.095-0.42,0.172
			c-0.07,0.039-0.118,0.121-0.218,0.23c-0.01-0.565,0.04-1.094-0.405-1.559c-0.161,0.284-0.3,0.526-0.45,0.788
			c-0.049-0.313-0.094-0.606-0.139-0.897c-0.033-0.003-0.065-0.007-0.098-0.01c-0.086,0.123-0.187,0.238-0.254,0.371
			c-0.781,1.527-1.464,3.087-1.696,4.81c-0.091,0.664,0.022,1.273,0.351,1.856c0.076,0.133,0.128,0.315,0.106,0.462
			c-0.142,0.928,0.015,1.663,0.804,2.35c1.964,1.71,3.104,3.927,3.595,6.484c0.067,0.35,0.006,0.566-0.312,0.726
			c-0.135,0.067-0.276,0.177-0.347,0.304c-0.25,0.446-0.599,0.427-1.025,0.31c-0.781-0.216-1.573-0.213-2.37-0.058
			C55.4,34.433,54.776,34.548,54.149,34.608L54.149,34.608z M54.149,34.608"/>
	</g>
	<g>
		<path style="fill:#FFFFFF;" d="M24.08,23.497c-0.692,0.044-1.387,0.074-2.081,0.111c-0.066,0.003-0.132,0.017-0.197,0.026
			c0,0.011,0.001,0.021,0.001,0.032c0.531,0.139,1.114,0.103,1.651,0.202c0.552,0.102,1.12,0.106,1.705,0.168
			c-0.294,0.174-0.294,0.174-0.245,0.426c0.003,0.016,0.012,0.032,0.01,0.047c-0.018,0.219,0.148,0.36,0.413,0.463
			c0.081,0.032,0.151,0.079,0.232,0.11c0.076,0.029,0.162,0.067,0.242,0.065c0.293-0.004,0.589-0.01,0.878-0.041
			c0.331-0.035,0.652-0.116,0.984-0.144c0.276-0.023,0.573-0.032,0.838,0.013c0.54,0.089,1.077,0.07,1.619,0.056
			c0.541-0.014,1.083-0.021,1.623-0.045c0.341-0.015,0.681-0.053,1.021-0.081c0.012-0.001,0.022-0.006,0.033-0.008
			c0.172-0.029,0.344-0.057,0.517-0.084c0.079-0.013,0.177-0.007,0.237-0.036c0.112-0.056,0.196-0.028,0.308-0.004
			c0.158,0.034,0.363,0.083,0.489,0.043c0.188-0.06,0.354-0.031,0.531-0.029c0.124,0.002,0.246,0.012,0.37,0.02
			c0.986,0.056,1.975,0.102,2.942,0.258c0.039,0.006,0.083,0.007,0.122,0.003c0.329-0.036,0.66-0.065,0.985-0.114
			c0.217-0.032,0.425-0.09,0.623-0.133c-0.041-0.052-0.059-0.075-0.092-0.117c-0.1,0.004-0.23,0.012-0.361,0.012
			c-0.049,0-0.12-0.007-0.144-0.03c-0.104-0.098-0.229-0.092-0.371-0.054c-0.149,0.04-0.286,0.053-0.422-0.035
			c-0.066-0.043-0.178-0.087-0.26-0.08c-0.305,0.024-0.629-0.007-0.908,0.116c-0.031,0.014-0.081,0.015-0.12,0.013
			c-0.705-0.036-1.411-0.072-2.116-0.112c-0.047-0.003-0.095-0.025-0.138-0.043c-0.067-0.028-0.124-0.076-0.195-0.089
			c-0.655-0.118-1.312-0.23-1.967-0.345c-0.058-0.01-0.112-0.03-0.169-0.046c0.005-0.009,0.011-0.018,0.016-0.027
			c0.173-0.016,0.345-0.033,0.549-0.053c-0.051-0.037-0.076-0.056-0.105-0.079c0.067-0.04,0.128-0.089,0.204-0.118
			c0.134-0.053,0.278-0.094,0.417-0.141c0.015-0.005,0.026-0.016,0.038-0.024c0.136-0.082,0.276-0.161,0.408-0.247
			c0.049-0.032,0.1-0.075,0.109-0.117c0.004-0.02-0.087-0.052-0.139-0.073c-0.04-0.016-0.087-0.024-0.131-0.035
			c0.006-0.01,0.012-0.02,0.018-0.029c0.097,0.019,0.195,0.036,0.291,0.059c0.045,0.011,0.115,0.051,0.123,0.045
			c0.046-0.033,0.081-0.075,0.111-0.116c0.018-0.024,0.007-0.072,0.029-0.079c0.143-0.043,0.064-0.195,0.24-0.219
			c0.003,0-0.003-0.029,0-0.044c0.005-0.027,0.005-0.057,0.021-0.082c0.034-0.052,0.098-0.1,0.112-0.154
			c0.019-0.075,0.002-0.153,0-0.237c0.366-0.124,0.741-0.25,1.13-0.381c-0.608-0.184-1.194-0.019-1.791,0.013
			c0.196-0.079,0.393-0.158,0.589-0.237c-0.01-0.014-0.02-0.028-0.031-0.042c-0.323,0.094-0.646,0.187-0.969,0.28
			c0.253-0.173,0.456-0.355,0.493-0.605c-0.083,0.027-0.151,0.062-0.21,0.103c-0.218,0.153-0.427,0.311-0.648,0.461
			c-0.212,0.144-0.465,0.225-0.776,0.221c-0.276-0.003-0.554,0.011-0.831,0.014c-0.167,0.002-0.276-0.065-0.231-0.166
			c0.047-0.108-0.027-0.165-0.122-0.226c-0.067-0.043-0.133-0.086-0.209-0.136c0.136-0.033,0.253-0.07,0.141-0.171
			c-0.069-0.062-0.163-0.11-0.254-0.171c0.17-0.038,0.103-0.094,0.025-0.148c-0.041-0.028-0.09-0.051-0.137-0.075
			c-0.06-0.032-0.174-0.065-0.172-0.095c0.011-0.153-0.157-0.196-0.281-0.262c-0.004-0.059-0.012-0.122-0.062-0.159
			c-0.088-0.066-0.186-0.119-0.268-0.196c-0.142-0.131-0.382-0.214-0.585-0.312c-0.055-0.027-0.128-0.038-0.194-0.057
			c0.069-0.181-0.172-0.184-0.308-0.251c0.121-0.108,0.084-0.187-0.082-0.245c-0.025-0.009-0.04-0.034-0.055-0.054
			c-0.056-0.07-0.111-0.141-0.166-0.211c-0.053-0.106-0.057-0.227-0.272-0.275c-0.031-0.007-0.073-0.037-0.072-0.055
			c0.014-0.153-0.121-0.223-0.309-0.26c-0.013-0.186-0.066-0.229-0.367-0.302c-0.001-0.015-0.001-0.031-0.001-0.047
			c-0.004-0.176-0.087-0.218-0.327-0.159c-0.107,0.026-0.21,0.061-0.345,0.1c0.038-0.068,0.081-0.115,0.088-0.164
			c0.01-0.059,0.022-0.143-0.027-0.175c-0.043-0.029-0.183-0.023-0.25,0.003c-0.149,0.057-0.281,0.137-0.405,0.2
			c0.024-0.113,0.068-0.234,0.066-0.355c-0.001-0.055-0.078-0.129-0.151-0.157c-0.044-0.017-0.15,0.034-0.223,0.062
			c-0.037,0.014-0.063,0.044-0.116,0.083c-0.005-0.204,0.021-0.395-0.215-0.563c-0.086,0.102-0.16,0.19-0.239,0.285
			c-0.026-0.113-0.05-0.219-0.074-0.324c-0.017-0.001-0.035-0.002-0.052-0.004c-0.046,0.044-0.1,0.086-0.135,0.134
			c-0.415,0.552-0.778,1.115-0.902,1.738c-0.048,0.24,0.012,0.46,0.186,0.67c0.04,0.048,0.068,0.114,0.056,0.167
			c-0.076,0.335,0.008,0.601,0.427,0.849c1.044,0.618,1.65,1.419,1.911,2.342c0.035,0.126,0.003,0.205-0.166,0.262
			c-0.072,0.024-0.147,0.064-0.184,0.11c-0.133,0.161-0.318,0.154-0.545,0.112c-0.415-0.078-0.836-0.077-1.26-0.021
			C24.744,23.434,24.413,23.476,24.08,23.497L24.08,23.497z M24.08,23.497"/>
	</g>
	<g>
		<path style="fill:#FFFFFF;" d="M86.578,33.701c-0.692,0.044-1.387,0.074-2.081,0.111c-0.066,0.003-0.132,0.017-0.197,0.026
			c0,0.011,0.001,0.021,0.001,0.032c0.531,0.139,1.114,0.103,1.651,0.202c0.552,0.102,1.12,0.106,1.705,0.168
			c-0.294,0.174-0.294,0.174-0.245,0.426c0.003,0.016,0.012,0.032,0.01,0.047c-0.018,0.219,0.148,0.36,0.413,0.463
			c0.081,0.032,0.151,0.079,0.232,0.11c0.076,0.029,0.162,0.067,0.242,0.065c0.293-0.004,0.589-0.01,0.878-0.041
			c0.331-0.035,0.652-0.116,0.984-0.144c0.276-0.023,0.573-0.032,0.838,0.013c0.54,0.089,1.077,0.07,1.619,0.056
			c0.541-0.014,1.083-0.021,1.623-0.045c0.341-0.015,0.681-0.053,1.021-0.081c0.012-0.001,0.022-0.006,0.033-0.008
			c0.172-0.029,0.344-0.057,0.517-0.084c0.079-0.013,0.177-0.007,0.237-0.036c0.112-0.056,0.196-0.028,0.308-0.004
			c0.158,0.034,0.363,0.083,0.489,0.043c0.188-0.06,0.354-0.031,0.531-0.029c0.124,0.002,0.246,0.012,0.37,0.02
			c0.986,0.056,1.975,0.102,2.942,0.258c0.039,0.006,0.083,0.007,0.122,0.003c0.329-0.036,0.66-0.065,0.985-0.114
			c0.217-0.032,0.425-0.09,0.623-0.133c-0.041-0.052-0.059-0.075-0.092-0.117c-0.1,0.004-0.23,0.012-0.361,0.012
			c-0.049,0-0.12-0.007-0.144-0.03c-0.104-0.098-0.229-0.092-0.371-0.054c-0.149,0.04-0.286,0.053-0.422-0.035
			c-0.066-0.043-0.178-0.087-0.26-0.08c-0.305,0.024-0.629-0.007-0.908,0.116c-0.031,0.014-0.081,0.015-0.12,0.013
			c-0.705-0.036-1.411-0.072-2.116-0.112c-0.047-0.003-0.095-0.025-0.138-0.043c-0.067-0.028-0.124-0.076-0.195-0.089
			c-0.655-0.118-1.312-0.23-1.967-0.345c-0.058-0.01-0.112-0.03-0.169-0.046c0.005-0.009,0.011-0.018,0.016-0.027
			c0.173-0.016,0.345-0.033,0.549-0.053c-0.051-0.037-0.076-0.056-0.105-0.079c0.067-0.04,0.128-0.089,0.204-0.118
			c0.134-0.053,0.278-0.094,0.417-0.141c0.015-0.005,0.026-0.016,0.038-0.024c0.136-0.082,0.276-0.161,0.408-0.247
			c0.049-0.032,0.1-0.075,0.109-0.117c0.004-0.02-0.087-0.052-0.139-0.073c-0.04-0.016-0.087-0.024-0.131-0.035
			c0.006-0.01,0.012-0.02,0.018-0.029c0.097,0.019,0.195,0.036,0.291,0.059c0.045,0.011,0.115,0.051,0.123,0.045
			c0.046-0.033,0.081-0.075,0.111-0.116c0.018-0.024,0.007-0.072,0.029-0.079c0.143-0.043,0.064-0.195,0.24-0.219
			c0.003,0-0.003-0.029,0-0.044c0.005-0.027,0.005-0.057,0.021-0.082c0.034-0.052,0.098-0.1,0.112-0.154
			c0.019-0.075,0.002-0.153,0-0.237c0.366-0.124,0.741-0.25,1.13-0.381c-0.608-0.184-1.194-0.019-1.791,0.013
			c0.196-0.079,0.393-0.158,0.589-0.237c-0.01-0.014-0.02-0.028-0.031-0.042c-0.323,0.094-0.646,0.187-0.969,0.28
			c0.253-0.173,0.456-0.355,0.493-0.605c-0.083,0.027-0.151,0.062-0.21,0.103c-0.218,0.153-0.427,0.311-0.648,0.461
			c-0.212,0.144-0.465,0.225-0.776,0.221c-0.276-0.003-0.554,0.011-0.831,0.014c-0.167,0.002-0.276-0.065-0.231-0.166
			c0.047-0.108-0.027-0.165-0.122-0.226c-0.067-0.043-0.133-0.086-0.209-0.136c0.136-0.033,0.253-0.07,0.141-0.171
			c-0.069-0.062-0.163-0.11-0.254-0.171c0.17-0.038,0.103-0.094,0.025-0.148c-0.041-0.028-0.09-0.051-0.137-0.075
			c-0.06-0.032-0.174-0.065-0.172-0.095c0.011-0.153-0.157-0.196-0.281-0.262c-0.004-0.059-0.012-0.122-0.062-0.159
			c-0.088-0.066-0.186-0.119-0.268-0.196c-0.142-0.131-0.382-0.214-0.585-0.312c-0.055-0.027-0.128-0.038-0.194-0.057
			c0.069-0.181-0.172-0.184-0.308-0.251c0.121-0.108,0.084-0.187-0.082-0.245c-0.025-0.009-0.04-0.034-0.055-0.054
			c-0.056-0.07-0.111-0.141-0.166-0.211c-0.053-0.106-0.057-0.227-0.272-0.275c-0.031-0.007-0.073-0.037-0.072-0.055
			c0.014-0.153-0.121-0.223-0.309-0.26c-0.013-0.186-0.066-0.229-0.367-0.302c-0.001-0.015-0.001-0.031-0.001-0.047
			c-0.004-0.176-0.087-0.218-0.327-0.159c-0.107,0.026-0.21,0.061-0.345,0.1c0.038-0.068,0.081-0.115,0.088-0.164
			c0.01-0.059,0.022-0.143-0.027-0.175c-0.043-0.029-0.183-0.023-0.25,0.003c-0.149,0.057-0.281,0.137-0.405,0.2
			c0.024-0.113,0.068-0.234,0.066-0.355c-0.001-0.055-0.078-0.129-0.151-0.157c-0.044-0.017-0.15,0.034-0.223,0.062
			c-0.037,0.014-0.063,0.044-0.116,0.083c-0.005-0.204,0.021-0.395-0.215-0.563c-0.086,0.102-0.16,0.19-0.239,0.285
			c-0.026-0.113-0.05-0.219-0.074-0.324c-0.017-0.001-0.035-0.002-0.052-0.004c-0.046,0.044-0.1,0.086-0.135,0.134
			c-0.415,0.552-0.778,1.115-0.902,1.738c-0.048,0.24,0.012,0.46,0.186,0.67c0.04,0.048,0.068,0.114,0.056,0.167
			c-0.076,0.335,0.008,0.601,0.427,0.849c1.044,0.618,1.65,1.419,1.911,2.342c0.035,0.126,0.003,0.205-0.166,0.262
			c-0.072,0.024-0.147,0.064-0.184,0.11c-0.133,0.161-0.318,0.154-0.545,0.112c-0.415-0.078-0.836-0.077-1.26-0.021
			C87.243,33.638,86.911,33.679,86.578,33.701L86.578,33.701z M86.578,33.701"/>
	</g>
	<g>
		<path style="fill:#FFFFFF;" d="M14.121,31.274c-0.767,0.062-1.537,0.104-2.305,0.158c-0.073,0.005-0.146,0.024-0.219,0.037
			c0,0.015,0.001,0.03,0.001,0.045c0.588,0.197,1.234,0.146,1.829,0.286c0.612,0.144,1.24,0.15,1.888,0.237
			c-0.326,0.245-0.326,0.245-0.272,0.603c0.004,0.023,0.013,0.045,0.011,0.067c-0.02,0.309,0.164,0.509,0.457,0.655
			c0.09,0.045,0.167,0.111,0.257,0.155c0.084,0.041,0.179,0.094,0.268,0.092c0.325-0.006,0.652-0.014,0.972-0.058
			c0.366-0.049,0.722-0.164,1.09-0.203c0.305-0.033,0.634-0.045,0.929,0.018c0.598,0.125,1.193,0.098,1.793,0.079
			c0.599-0.02,1.199-0.03,1.798-0.063c0.378-0.021,0.754-0.075,1.131-0.114c0.013-0.001,0.024-0.009,0.037-0.012
			c0.191-0.04,0.382-0.081,0.572-0.119c0.088-0.018,0.196-0.009,0.262-0.051c0.125-0.079,0.217-0.04,0.341-0.006
			c0.175,0.048,0.402,0.118,0.542,0.061c0.209-0.084,0.393-0.044,0.588-0.041c0.137,0.002,0.273,0.017,0.41,0.028
			c1.092,0.08,2.187,0.144,3.258,0.365c0.044,0.009,0.092,0.01,0.136,0.004c0.365-0.05,0.731-0.092,1.09-0.161
			c0.24-0.045,0.471-0.127,0.69-0.189c-0.045-0.074-0.065-0.106-0.102-0.165c-0.11,0.005-0.255,0.017-0.399,0.017
			c-0.054,0.001-0.133-0.01-0.16-0.042c-0.115-0.139-0.254-0.13-0.411-0.076c-0.165,0.057-0.317,0.075-0.467-0.05
			c-0.074-0.061-0.197-0.123-0.288-0.113c-0.338,0.034-0.697-0.01-1.006,0.164c-0.035,0.02-0.089,0.021-0.133,0.018
			c-0.781-0.051-1.563-0.102-2.344-0.158c-0.053-0.004-0.105-0.036-0.153-0.061c-0.074-0.04-0.137-0.107-0.216-0.125
			c-0.725-0.167-1.453-0.325-2.178-0.488c-0.065-0.014-0.125-0.043-0.187-0.065c0.006-0.013,0.012-0.026,0.018-0.038
			c0.191-0.023,0.382-0.047,0.608-0.075c-0.056-0.053-0.084-0.08-0.116-0.111c0.075-0.057,0.142-0.125,0.226-0.167
			c0.149-0.075,0.308-0.132,0.462-0.199c0.017-0.007,0.028-0.023,0.042-0.034c0.151-0.116,0.306-0.228,0.452-0.348
			c0.054-0.045,0.111-0.106,0.121-0.165c0.004-0.028-0.097-0.073-0.154-0.103c-0.044-0.023-0.096-0.034-0.145-0.05
			c0.007-0.014,0.014-0.028,0.02-0.042c0.107,0.027,0.216,0.051,0.322,0.083c0.05,0.015,0.127,0.072,0.137,0.063
			c0.051-0.047,0.09-0.105,0.123-0.164c0.02-0.034,0.008-0.102,0.032-0.112c0.158-0.061,0.071-0.276,0.266-0.309
			c0.004,0-0.004-0.041,0-0.062c0.005-0.039,0.006-0.081,0.024-0.115c0.038-0.074,0.109-0.141,0.125-0.217
			c0.021-0.105,0.002-0.217,0-0.336c0.405-0.175,0.821-0.353,1.252-0.539c-0.673-0.26-1.323-0.027-1.983,0.019
			c0.217-0.112,0.435-0.224,0.653-0.336c-0.011-0.019-0.023-0.039-0.034-0.059c-0.358,0.132-0.715,0.264-1.073,0.396
			c0.28-0.245,0.505-0.502,0.546-0.856c-0.091,0.039-0.168,0.088-0.233,0.146c-0.241,0.216-0.473,0.439-0.718,0.651
			c-0.235,0.203-0.515,0.318-0.86,0.313c-0.306-0.005-0.614,0.015-0.921,0.02c-0.185,0.003-0.306-0.091-0.256-0.235
			c0.052-0.153-0.029-0.233-0.135-0.32c-0.074-0.061-0.147-0.122-0.231-0.192c0.15-0.046,0.28-0.1,0.156-0.242
			c-0.076-0.087-0.18-0.156-0.281-0.242c0.189-0.053,0.114-0.133,0.027-0.21c-0.045-0.04-0.1-0.072-0.151-0.106
			c-0.066-0.045-0.193-0.092-0.19-0.134c0.012-0.216-0.173-0.277-0.312-0.371c-0.004-0.084-0.013-0.173-0.068-0.225
			c-0.098-0.093-0.206-0.168-0.297-0.277c-0.158-0.185-0.423-0.302-0.648-0.441c-0.061-0.038-0.142-0.053-0.215-0.08
			c0.076-0.256-0.19-0.26-0.341-0.354c0.134-0.153,0.093-0.264-0.091-0.347c-0.028-0.012-0.044-0.048-0.061-0.076
			c-0.062-0.099-0.123-0.199-0.184-0.299c-0.059-0.149-0.063-0.321-0.301-0.389c-0.034-0.01-0.081-0.052-0.08-0.078
			c0.015-0.217-0.134-0.315-0.342-0.367c-0.014-0.263-0.073-0.324-0.406-0.426c-0.001-0.021-0.001-0.043-0.001-0.066
			c-0.004-0.249-0.097-0.308-0.362-0.225c-0.118,0.037-0.232,0.086-0.382,0.142c0.042-0.096,0.089-0.162,0.098-0.231
			c0.011-0.084,0.024-0.202-0.03-0.247c-0.047-0.041-0.202-0.032-0.277,0.005c-0.165,0.081-0.311,0.193-0.448,0.282
			c0.027-0.16,0.075-0.331,0.074-0.502c-0.001-0.078-0.086-0.182-0.167-0.222c-0.049-0.023-0.167,0.048-0.247,0.088
			c-0.041,0.02-0.069,0.062-0.128,0.118c-0.006-0.288,0.024-0.558-0.238-0.796c-0.095,0.145-0.177,0.269-0.265,0.403
			c-0.029-0.16-0.055-0.309-0.082-0.458c-0.019-0.001-0.038-0.003-0.058-0.005c-0.051,0.063-0.11,0.121-0.15,0.189
			c-0.46,0.78-0.862,1.576-0.999,2.456c-0.053,0.339,0.013,0.65,0.207,0.948c0.045,0.068,0.075,0.161,0.062,0.236
			c-0.084,0.474,0.009,0.849,0.473,1.2c1.156,0.873,1.827,2.005,2.116,3.311c0.039,0.179,0.004,0.289-0.184,0.371
			c-0.08,0.034-0.163,0.09-0.204,0.155c-0.147,0.228-0.352,0.218-0.603,0.158c-0.46-0.11-0.926-0.109-1.395-0.029
			C14.857,31.185,14.49,31.244,14.121,31.274L14.121,31.274z M14.121,31.274"/>
	</g>
	<path style="fill:#FFFFFF;" d="M6.476,22.848C6.36,22.8,6.88,21.645,5.569,21.33c-1.311-0.315-1.774,0.158-2.74,0.434
		C1.863,22.04,0.246,22.365,0,22.611c0.798,0,3.174-0.187,3.608-0.187c0.434,0,0.838-0.148,1.035-0.227
		c0.197-0.079,0.222,0.153,0.128,0.246c-0.094,0.094-0.858,1.153,0.769,1.557c1.626,0.404,1.971-0.197,3.243-0.306
		c1.271-0.108,3.568,0.276,4.337,0.187c0.769-0.089,1.064,0.217,1.459,0.404c0.394,0.187,0.739,0.473,1.193,0.611
		c0.453,0.138,2.178,1.272,2.829,1.439c0.32,0.32,1.05,0.596,1.271,0.818c0.222,0.222,0.33,0.222,0.414,0.138
		c-0.099-0.099-0.227,0-0.187-0.177c0.039-0.177-0.039-0.325-0.335-0.394c-0.296-0.069-0.168-0.029-0.118-0.197
		c0.049-0.168,0.227-0.217,0.01-0.306c-0.217-0.089-0.596-0.291-0.513-0.374c0.084-0.084,0.177,0.049,0.256,0.128
		c0-0.276-0.246-0.453-0.493-0.453c-0.246,0-0.611-0.099-0.996-0.167c-0.384-0.069-0.641-0.039-0.986-0.296
		c-0.345-0.256-2.173-1.217-2.306-1.35c-0.133-0.133,1.971,0.177,1.656,0c-0.315-0.177-1.084-0.601-1.538-0.838
		c-0.453-0.237-0.108-0.385-0.404-0.542c-0.296-0.158-0.138-0.424-0.207-0.729c-0.069-0.306,0.148-0.601,0.148-0.946
		c0-0.345,0.227-0.148,0.306-0.434c0.079-0.286,0.414-0.375,0.414-0.68c0-0.306,0.069-0.522,0.069-0.749
		c0-0.227,0.148-0.493,0.049-0.779c-0.099-0.286,0.237-0.503,0.128-0.749c-0.108-0.246-0.01-0.641-0.108-0.907
		c-0.099-0.266,0.089-0.483,0.089-0.838c0-0.355,0.207-0.69,0.138-0.907c-0.069-0.217,0.128-0.355,0.03-0.611
		c-0.099-0.256,0.049-0.72-0.207-0.818c-0.256-0.099,0.108-0.493-0.276-0.582c0.158-0.414,0.246-0.917-0.444-0.315
		c0.325-0.798,0.079-0.937-0.355-0.591c0.089-0.69-0.089-1.064-0.601-0.335c0.099-0.414,0.238-1.196-0.562-0.397
		c0-0.609,0.02-1.112-0.355-0.599c-0.375,0.513-0.601,0.66-0.808,0.71c0.429-0.429,0.444-1.035,0.375-1.429
		c-0.256,0.079-0.572,0.907-0.72,1.055c0.187-0.759,0.118-1.114,0.03-1.321c-0.237,0.355-0.858,1.676-1.488,2.543
		c-0.631,0.867-1.005,1.124-1.262,2.188c-0.256,1.065-0.71,1.064-0.71,1.705c0,0.641,0.887,2.918,0.779,4.8
		c-0.641,0-1.217-0.034-1.572,0.439c-0.393,0.524-0.123,1.089-0.35,1.395C6.633,22.749,6.643,22.917,6.476,22.848z"/>
</g>
</svg>
