<?xml version="1.0" encoding="utf-8"?>
<!-- Generator: Adobe Illustrator 21.0.0, SVG Export Plug-In . SVG Version: 6.00 Build 0)  -->
<svg version="1.1" id="Capa_1" xmlns="http://www.w3.org/2000/svg" xmlns:xlink="http://www.w3.org/1999/xlink" x="0px" y="0px"
	 viewBox="0 0 94.708 94.707" style="enable-background:new 0 0 94.708 94.707;" xml:space="preserve">
<g id="XMLID_147_">
	<circle id="XMLID_169_" style="opacity:0.2;fill:#F1C40D;" cx="47.354" cy="47.353" r="47.354"/>
	<circle id="XMLID_152_" style="opacity:0.3;fill:#F1C40D;" cx="47.354" cy="47.354" r="39.422"/>
	<g id="XMLID_148_">
		<path id="XMLID_150_" style="opacity:0.8;fill:#FFAA00;" d="M19.438,47.086l-7.36,6.177l9.028,3.287l-4.804,8.322l9.609,0.001
			l-1.668,9.463l9.03-3.286l1.669,9.463l7.362-6.176l4.804,8.322l4.804-8.322l7.361,6.177l1.669-9.464l9.03,3.287l-1.669-9.464
			l9.609,0l-4.804-8.322l9.03-3.287l-7.36-6.177l7.36-6.177l-9.03-3.287l4.804-8.322l-9.609-0.001l1.669-9.463l-9.03,3.285
			l-1.669-9.462l-7.361,6.176l-4.805-8.321l-4.805,8.321l-7.361-6.176l-1.669,9.462l-9.03-3.286l1.667,9.463L16.303,29.3
			l4.804,8.322l-9.028,3.287L19.438,47.086z"/>
		<circle id="XMLID_149_" style="opacity:0.8;fill:#FFC907;" cx="47.109" cy="47.087" r="26.489"/>
	</g>
</g>
</svg>
