<?xml version="1.0" encoding="utf-8"?>
<!-- Generator: Adobe Illustrator 21.0.0, SVG Export Plug-In . SVG Version: 6.00 Build 0)  -->
<svg version="1.1" id="Capa_1" xmlns="http://www.w3.org/2000/svg" xmlns:xlink="http://www.w3.org/1999/xlink" x="0px" y="0px"
	 viewBox="0 0 330 61.34" style="enable-background:new 0 0 330 61.34;" xml:space="preserve">
<g>
	<g>
		<path style="opacity:0.2;fill-rule:evenodd;clip-rule:evenodd;" d="M8.532,8.636c-11.347,8.28-11.384,38.26-0.055,46.553
			c11.203,8.202,301.844,8.2,313.045,0c11.328-8.294,11.293-38.273-0.055-46.553C310.011,0.279,19.987,0.279,8.532,8.636z"/>
		<path style="fill-rule:evenodd;clip-rule:evenodd;fill:#FFFFFF;" d="M8.532,6.268c-11.347,8.28-11.384,38.26-0.055,46.553
			c11.203,8.202,301.844,8.2,313.045,0c11.328-8.294,11.293-38.273-0.055-46.553C310.011-2.089,19.987-2.089,8.532,6.268z"/>
		<path style="fill-rule:evenodd;clip-rule:evenodd;fill:#FEC31D;" d="M11.463,6.982C1.182,14.486,1.15,41.646,11.414,49.16
			c10.149,7.431,297.023,7.431,307.171,0c10.264-7.513,10.232-34.674-0.048-42.178C308.158-0.589,21.842-0.589,11.463,6.982z"/>
		<g>
			<path style="fill:#FFFFFF;" d="M54.032,23.694c-0.361-2.69-1.744-3.945-4.148-3.765c-2.404,0.18-3.727,1.803-3.967,4.869
				c-0.03,0.376-0.046,0.691-0.046,0.946c0,2.57,0.932,4.472,2.796,5.703c0.676,0.451,1.308,0.677,1.894,0.677
				c1.247,0,2.344-0.962,3.291-2.886l6.312,0.451c-1.879,5.951-4.538,8.866-7.979,8.746s-5.681-0.429-6.718-0.924
				c-1.894-0.902-3.261-2.518-4.103-4.847c-0.496-1.367-0.901-3.517-1.218-6.447c-0.09-0.842-0.135-1.593-0.135-2.254
				c0-3.396,0.856-6.154,2.569-8.273c1.849-2.284,4.434-3.426,7.755-3.426c0.706,0,1.39,0.045,2.051,0.135
				c4.058,0.557,6.583,4.118,7.574,10.685L54.032,23.694z"/>
			<path style="fill:#FFFFFF;" d="M61.245,28.473c0.105-3.426,0.955-6.371,2.548-8.836c1.894-2.945,4.426-4.419,7.597-4.419
				c3.351,0,5.771,0.827,7.259,2.48c1.217,1.353,2.171,3.771,2.862,7.258c0.271,1.368,0.406,2.66,0.406,3.878
				c0,2.614-0.646,4.794-1.939,6.537c-1.894,2.555-4.771,3.771-8.633,3.651c-3.547-0.105-6.146-1.007-7.8-2.705
				C61.892,34.619,61.125,32.005,61.245,28.473z M74.5,23.063c-1.052-0.991-2.044-1.487-2.976-1.487
				c-1.142,0-2.194,0.752-3.155,2.254c-0.856,1.338-1.285,2.638-1.285,3.899c0,1.188,0.391,2.405,1.172,3.652
				c0.872,1.397,1.879,2.097,3.021,2.097c1.308,0,2.503-0.684,3.585-2.052c1.036-1.292,1.555-2.607,1.555-3.944
				C76.416,26.038,75.777,24.566,74.5,23.063z"/>
			<path style="fill:#FFFFFF;" d="M87.552,14.654l0.36,2.525c2.931-2.059,5.335-3.089,7.214-3.089c1.743,0,3.035,0.88,3.877,2.638
				c1.277,2.675,1.916,7.07,1.916,13.188c0,2.194-0.083,4.613-0.248,7.258l-6.086,0.203c0.48-3.246,0.721-5.988,0.721-8.228
				c0-2.735-0.36-4.712-1.082-5.929c-0.466-0.781-0.999-1.172-1.601-1.172c-1.157,0-2.569,1.359-4.237,4.08v11.925l-5.501-0.158
				l-0.924-22.339L87.552,14.654z"/>
			<path style="fill:#FFFFFF;" d="M101.234,36.431l2.66-6.042c3.396,2.209,6.026,3.313,7.89,3.313c0.661,0,1.3-0.194,1.916-0.586
				c0.691-0.436,1.037-0.969,1.037-1.601c0-0.946-1.263-1.743-3.787-2.389c-3.652-0.932-6.109-2.848-7.371-5.749
				c-0.421-0.961-0.632-1.848-0.632-2.659c0-1.729,0.887-3.238,2.66-4.531c1.518-1.112,3.779-1.668,6.785-1.668
				c2.119,0,4.613,0.278,7.484,0.834l-1.916,5.771c-2.18-0.977-3.945-1.465-5.298-1.465c-0.661,0-1.285,0.143-1.871,0.429
				c-0.721,0.346-1.082,0.813-1.082,1.399c0,0.541,0.481,1.121,1.443,1.737c0.661,0.422,1.953,1.008,3.877,1.761
				c1.623,0.632,2.795,1.264,3.517,1.896c1.052,0.918,1.607,2.151,1.668,3.701c0.104,2.543-1.082,4.853-3.562,6.929
				c-1.052,0.888-2.593,1.331-4.621,1.331C109.312,38.842,105.713,38.038,101.234,36.431z"/>
			<path style="fill:#FFFFFF;" d="M120.125,25.318l-0.181-5.613l3.787-0.338l0.181-9.22l5.545-0.361l-0.541,9.13l5.207-0.474
				l0.361,5.613l-5.816,0.519c-0.015,0.631-0.022,1.232-0.022,1.804c0,5.244,0.684,7.957,2.052,8.137
				c1.502,0.196,2.592-0.954,3.269-3.448l3.967,0.541c-0.271,3.606-1.314,5.876-3.133,6.808c-1.293,0.661-2.826,0.991-4.599,0.991
				c-0.736,0-1.488-0.053-2.254-0.157c-2.751-0.376-4.179-5.125-4.283-14.247L120.125,25.318z"/>
			<path style="fill:#FFFFFF;" d="M139.533,38.437c0.045-9.143-0.188-16.446-0.698-21.911l6.312-0.519l-0.203,2.052
				c3.096-1.924,6.252-2.833,9.468-2.728l0.608,5.455c-3.696,0-6.297,0.766-7.799,2.297c-1.037,1.065-1.556,3.774-1.556,8.127
				c0,1.98,0.104,4.314,0.315,7.001L139.533,38.437z"/>
			<path style="fill:#FFFFFF;" d="M167.237,37.648l-0.248-2.209c-2.449,1.653-4.463,2.479-6.041,2.479
				c-1.548,0-2.667-0.812-3.358-2.435c-1.383-3.246-2.014-10.609-1.894-22.091l5.41-0.203c-0.105,2.705-0.158,5.087-0.158,7.146
				c0,7.515,0.729,11.271,2.187,11.271c0.826,0,1.894-1.082,3.201-3.246V13.798h5.229l-0.721,23.579L167.237,37.648z"/>
			<path style="fill:#FFFFFF;" d="M176.299,12.266c0.331,0,0.632,0.045,0.902,0.135c1.262,0.421,2.088,1.202,2.479,2.345
				c0.12,0.346,0.18,0.691,0.18,1.036c0,0.767-0.308,1.526-0.924,2.277c-0.887,1.082-1.908,1.57-3.065,1.465
				c-1.157-0.104-2.097-0.729-2.818-1.871c-0.33-0.525-0.496-1.06-0.496-1.601c0-0.69,0.24-1.42,0.722-2.187
				C174.3,12.799,175.308,12.266,176.299,12.266z M179.726,21.868c-0.24,5.575-0.541,11.105-0.901,16.591L173.053,39
				c0.211-2.345,0.315-4.727,0.315-7.146c0-3.006-0.165-6.057-0.495-9.152L179.726,21.868z"/>
			<path style="fill:#FFFFFF;" d="M181.326,38.437c0.045-9.143-0.188-16.446-0.698-21.911l6.312-0.519l-0.203,2.052
				c3.096-1.924,6.252-2.833,9.468-2.728l0.608,5.455c-3.696,0-6.297,0.766-7.799,2.297c-1.037,1.065-1.556,3.774-1.556,8.127
				c0,1.98,0.104,4.314,0.315,7.001L181.326,38.437z"/>
			<path style="fill:#FFFFFF;" d="M224.337,23.694c-0.361-2.69-1.744-3.945-4.148-3.765c-2.404,0.18-3.727,1.803-3.967,4.869
				c-0.03,0.376-0.046,0.691-0.046,0.946c0,2.57,0.932,4.472,2.796,5.703c0.676,0.451,1.308,0.677,1.894,0.677
				c1.247,0,2.344-0.962,3.291-2.886l6.312,0.451c-1.879,5.951-4.538,8.866-7.979,8.746s-5.681-0.429-6.718-0.924
				c-1.894-0.902-3.261-2.518-4.103-4.847c-0.496-1.367-0.901-3.517-1.218-6.447c-0.09-0.842-0.135-1.593-0.135-2.254
				c0-3.396,0.856-6.154,2.569-8.273c1.849-2.284,4.434-3.426,7.755-3.426c0.706,0,1.39,0.045,2.051,0.135
				c4.058,0.557,6.583,4.118,7.574,10.685L224.337,23.694z"/>
			<path style="fill:#FFFFFF;" d="M237.749,14.384c1.007-0.225,1.991-0.338,2.953-0.338c4.658,0,7.656,2.42,8.994,7.259
				c0.691,2.51,1,5.396,0.925,8.656l-0.181,7.731l-5.838,0.361l-0.046-1.06c-7.334-0.256-11.158-2.06-11.474-5.41
				c-0.045-0.481-0.067-0.834-0.067-1.06c0-2.735,1.097-4.448,3.291-5.14c1.097-0.346,2.187-0.519,3.269-0.519
				c1.442,0,2.915,0.293,4.418,0.879c-0.015-2.584-0.045-3.952-0.09-4.103c-0.301-1.037-1.3-1.623-2.998-1.758
				c-1.442-0.12-2.825,1.082-4.147,3.606l-5.771-0.901C232.55,17.78,234.804,15.046,237.749,14.384z M241.491,28.879
				c-1.578,0-2.404,0.413-2.479,1.239c-0.12,1.203,1.653,2.18,5.32,2.931l-0.158-3.899
				C243.122,28.969,242.228,28.879,241.491,28.879z"/>
			<path style="fill:#FFFFFF;" d="M250.778,36.431l2.66-6.042c3.395,2.209,6.026,3.313,7.89,3.313c0.661,0,1.3-0.194,1.916-0.586
				c0.691-0.436,1.037-0.969,1.037-1.601c0-0.946-1.263-1.743-3.787-2.389c-3.652-0.932-6.109-2.848-7.371-5.749
				c-0.421-0.961-0.632-1.848-0.632-2.659c0-1.729,0.887-3.238,2.66-4.531c1.518-1.112,3.779-1.668,6.785-1.668
				c2.119,0,4.613,0.278,7.484,0.834l-1.916,5.771c-2.18-0.977-3.945-1.465-5.298-1.465c-0.661,0-1.285,0.143-1.871,0.429
				c-0.721,0.346-1.082,0.813-1.082,1.399c0,0.541,0.481,1.121,1.443,1.737c0.661,0.422,1.953,1.008,3.877,1.761
				c1.623,0.632,2.795,1.264,3.517,1.896c1.052,0.918,1.607,2.151,1.668,3.701c0.104,2.543-1.082,4.853-3.562,6.929
				c-1.052,0.888-2.593,1.331-4.621,1.331C258.855,38.842,255.257,38.038,250.778,36.431z"/>
			<path style="fill:#FFFFFF;" d="M277.152,14.384c1.007-0.225,1.991-0.338,2.953-0.338c4.658,0,7.656,2.42,8.994,7.259
				c0.691,2.51,1,5.396,0.925,8.656l-0.181,7.731l-5.838,0.361l-0.046-1.06c-7.334-0.256-11.158-2.06-11.474-5.41
				c-0.045-0.481-0.067-0.834-0.067-1.06c0-2.735,1.097-4.448,3.291-5.14c1.097-0.346,2.187-0.519,3.269-0.519
				c1.442,0,2.915,0.293,4.418,0.879c-0.015-2.584-0.045-3.952-0.09-4.103c-0.301-1.037-1.3-1.623-2.998-1.758
				c-1.442-0.12-2.825,1.082-4.147,3.606l-5.771-0.901C271.953,17.78,274.207,15.046,277.152,14.384z M280.895,28.879
				c-1.578,0-2.404,0.413-2.479,1.239c-0.12,1.203,1.653,2.18,5.32,2.931l-0.158-3.899
				C282.525,28.969,281.631,28.879,280.895,28.879z"/>
			<g>
				<path style="fill:#C96900;" d="M75.014,22.517c-2.684-2.528-5.293-2.194-7.277,0.908c-0.931,1.455-1.403,2.903-1.403,4.304
					c0,1.325,0.433,2.688,1.286,4.049c1.014,1.625,2.245,2.45,3.657,2.45c1.543,0,2.947-0.786,4.17-2.333
					c1.141-1.423,1.72-2.908,1.72-4.414c0-1.619-0.705-3.27-2.095-4.905L75.014,22.517z M74.273,30.961
					c-0.94,1.189-1.92,1.767-2.997,1.767c-0.872,0-1.652-0.57-2.385-1.745c-0.702-1.12-1.058-2.215-1.058-3.254
					c0-1.11,0.393-2.286,1.167-3.495c0.81-1.266,1.659-1.908,2.523-1.908c0.722,0,1.54,0.422,2.431,1.255
					c1.135,1.345,1.71,2.658,1.71,3.901C75.666,28.637,75.198,29.807,74.273,30.961z"/>
				<path style="fill:#C96900;" d="M133.242,30.869c-0.845,3.112-2.054,2.953-2.447,2.901c-0.143-0.019-1.399-0.386-1.399-7.393
					c0-0.36,0.003-0.732,0.009-1.116l5.875-0.524l-0.458-7.112l-5.106,0.465l0.54-9.108l-7.08,0.461l-0.181,9.236l-3.536,0.315
					l1.4-4.215l-0.838-0.162c-7.162-1.387-12.094-1.059-14.854,0.964c-1.97,1.436-2.968,3.165-2.968,5.137
					c0,0.912,0.234,1.907,0.694,2.958c1.353,3.111,4.002,5.189,7.873,6.176c3.133,0.801,3.223,1.576,3.223,1.662
					c0,0.229-0.071,0.578-0.689,0.968c-0.497,0.315-0.992,0.469-1.514,0.469c-1.708,0-4.225-1.074-7.48-3.192l-0.74-0.481
					l-1.973,4.48c0.05-1.351,0.078-2.64,0.078-3.843c0-6.289-0.651-10.708-1.99-13.511c-0.959-2.004-2.534-3.064-4.553-3.064
					c-1.827,0-4.007,0.834-6.641,2.545l-0.299-2.094l-7.002,1.13l0.279,6.746c-0.614-1.989-1.358-3.474-2.257-4.472
					c-1.63-1.811-4.26-2.729-7.816-2.729c-3.427,0-6.195,1.603-8.227,4.762c-1.661,2.57-2.558,5.671-2.667,9.218
					c-0.006,0.177,0.001,0.342-0.001,0.515l-7.093-0.507l-0.223,0.453c-0.806,1.637-1.687,2.467-2.618,2.467
					c-0.433,0-0.93-0.185-1.48-0.553c-1.655-1.093-2.459-2.754-2.459-5.077c0-0.239,0.015-0.534,0.043-0.888
					c0.278-3.548,2.002-4.084,3.275-4.18c2.009-0.155,3.039,0.81,3.349,3.116l0.097,0.721l7.433-0.764l-0.117-0.777
					c-1.042-6.904-3.806-10.711-8.215-11.316c-0.691-0.094-1.416-0.142-2.152-0.142c-3.543,0-6.349,1.246-8.338,3.704
					c-1.815,2.246-2.736,5.188-2.736,8.745c0,0.684,0.047,1.469,0.139,2.334c0.326,3.021,0.738,5.188,1.258,6.622
					c0.907,2.51,2.417,4.283,4.485,5.269c1.143,0.546,3.438,0.872,7.015,0.997c0.078,0.003,0.155,0.004,0.232,0.004
					c3.499,0,6.245-2.808,8.177-8.344c0.243,2.557,1.056,4.571,2.441,5.994c1.786,1.834,4.583,2.821,8.314,2.932
					c0.18,0.006,0.358,0.008,0.534,0.008c3.841,0,6.775-1.332,8.725-3.962c0.574-0.774,1.024-1.635,1.362-2.57l0.222,5.377
					l6.972,0.201V26.342c1.99-3.193,3.099-3.543,3.487-3.543c0.316,0,0.638,0.271,0.956,0.805c0.648,1.093,0.977,2.959,0.977,5.546
					c0,2.192-0.24,4.923-0.712,8.118l-0.132,0.89l7.666-0.256l0.038-0.615c4.339,1.525,7.914,2.305,10.617,2.305
					c2.202,0,3.919-0.507,5.103-1.506c2.655-2.223,3.943-4.758,3.83-7.533c-0.069-1.757-0.716-3.183-1.923-4.236
					c-0.795-0.696-2.019-1.36-3.737-2.029c-1.873-0.733-3.133-1.303-3.746-1.694c-1.067-0.684-1.098-1.065-1.098-1.106
					c0-0.112,0-0.408,0.661-0.726c0.486-0.237,0.99-0.353,1.542-0.353c1.24,0,2.919,0.471,4.991,1.399l0.757,0.339l0.785-2.365
					l0.204,6.353l3.526-0.315c0.188,9.23,1.757,13.739,4.919,14.171c0.798,0.109,1.59,0.164,2.355,0.164
					c1.885,0,3.547-0.361,4.94-1.074c2.059-1.054,3.249-3.55,3.539-7.419l0.053-0.704l-5.319-0.725L133.242,30.869z M52.21,37.687
					c-4.136-0.145-5.774-0.542-6.421-0.852c-1.724-0.821-2.941-2.269-3.72-4.425c-0.472-1.302-0.868-3.412-1.177-6.271
					c-0.086-0.812-0.13-1.543-0.13-2.174c0-3.205,0.809-5.83,2.402-7.802c1.714-2.118,4.06-3.147,7.172-3.147
					c0.669,0,1.325,0.043,1.949,0.128c3.565,0.489,5.796,3.526,6.808,9.277l-4.441,0.457c-0.715-3.277-2.982-3.833-4.822-3.695
					c-1.938,0.145-4.319,1.227-4.659,5.557c-0.032,0.4-0.048,0.735-0.048,1.006c0,2.827,1.054,4.956,3.129,6.327
					c2.364,1.579,4.475,0.811,6.04-2.049l4.857,0.347C57.418,35.327,55.066,37.778,52.21,37.687z M79.375,34.924
					c-1.754,2.366-4.382,3.446-8.008,3.349c-3.329-0.099-5.78-0.933-7.285-2.479c-1.498-1.539-2.2-3.993-2.088-7.296v-0.002
					c0.101-3.271,0.918-6.114,2.429-8.453c1.763-2.742,4.041-4.075,6.966-4.075c3.113,0,5.368,0.751,6.701,2.232
					c1.12,1.245,2.023,3.567,2.684,6.902c0.26,1.315,0.392,2.571,0.392,3.732C81.167,31.273,80.564,33.321,79.375,34.924z
					 M99.963,36.447l-4.509,0.15c0.399-2.889,0.602-5.391,0.602-7.448c0-2.9-0.388-4.965-1.188-6.313
					c-0.608-1.02-1.363-1.538-2.245-1.538c-1.471,0-3.021,1.41-4.876,4.438l-0.111,0.181v11.364l-4.03-0.116l-0.868-20.975
					l4.179-0.674l0.425,2.98l1.001-0.703c5.138-3.609,8.424-3.996,9.983-0.742c1.223,2.561,1.843,6.889,1.843,12.864
					C100.169,31.891,100.1,34.085,99.963,36.447z M117.507,20.111c-3.101-1.287-5.208-1.594-7.039-0.7
					c-1.246,0.598-1.508,1.458-1.508,2.076c0,0.823,0.585,1.598,1.79,2.37c0.705,0.45,2.016,1.048,4.008,1.827
					c1.533,0.597,2.642,1.189,3.295,1.762c0.897,0.783,1.359,1.819,1.412,3.167c0.095,2.319-0.982,4.387-3.296,6.325
					c-2.125,1.794-6.893,1.486-13.922-0.945l1.981-4.501c3.191,1.991,5.668,2.961,7.556,2.961c0.804,0,1.584-0.236,2.316-0.701
					c1.146-0.723,1.387-1.614,1.387-2.235c0-1.795-2.483-2.638-4.352-3.115c-3.447-0.879-5.694-2.62-6.87-5.323
					c-0.377-0.862-0.569-1.655-0.569-2.358c0-1.487,0.77-2.771,2.354-3.926c2.281-1.672,6.607-1.974,12.843-0.859L117.507,20.111z
					 M137.12,32.253c-0.32,2.906-1.215,4.752-2.662,5.494c-1.68,0.859-3.955,1.093-6.41,0.759c-1.302-0.178-3.505-2.17-3.635-13.513
					l-0.009-0.811l-3.556,0.318l-0.132-4.111l3.751-0.335l0.18-9.203l4.01-0.261l-0.542,9.152l5.308-0.482l0.265,4.114l-5.755,0.513
					l-0.016,0.67c-0.015,0.637-0.022,1.245-0.022,1.821c0,5.896,0.834,8.635,2.705,8.88c1.244,0.161,2.891-0.315,3.899-3.362
					L137.12,32.253z"/>
				<path style="fill:#C96900;" d="M196.229,14.582c-2.898-0.098-5.794,0.611-8.603,2.1l0.148-1.496l-7.165,0.589
					c-0.001-0.426-0.074-0.855-0.219-1.272c-0.47-1.37-1.463-2.316-2.953-2.813c-0.346-0.115-0.729-0.173-1.139-0.173
					c-1.2,0-2.398,0.616-3.563,1.831l-0.093,0.12c-0.128,0.203-0.237,0.406-0.336,0.607l0.031-1.026h-6.753V28.15
					c-1.619,2.629-2.369,2.707-2.451,2.707c-0.015,0-1.437-0.286-1.437-10.521c0-2.039,0.053-4.434,0.157-7.116l0.032-0.809
					l-6.934,0.26l-0.008,0.715c-0.004,0.414-0.005,0.81-0.008,1.213l-0.503-0.016c-2.897-0.098-5.794,0.611-8.603,2.1l0.148-1.496
					l-7.964,0.654l0.07,0.755c0.506,5.412,0.74,12.759,0.695,21.837l-0.004,0.781l8.01-0.28l-0.061-0.781
					c-0.208-2.646-0.313-4.982-0.313-6.942c0-5.144,0.73-6.975,1.341-7.602c1.347-1.373,3.786-2.07,7.249-2.072
					c0.202,7.042,0.828,11.735,1.895,14.241c1.019,2.389,2.764,2.891,4.049,2.891c1.511,0,3.295-0.638,5.431-1.944l0.193,1.726
					l5.002-0.375l0.486-15.917l0.066,0.625c0.326,3.055,0.491,6.107,0.491,9.073c0,2.393-0.105,4.774-0.313,7.078l-0.081,0.898
					l7.306-0.685l0.042-0.638c0.31-4.72,0.569-9.518,0.79-14.299c0.167,4.114,0.241,8.858,0.214,14.224l-0.004,0.781l8.01-0.28
					l-0.061-0.781c-0.208-2.646-0.313-4.982-0.313-6.942c0-5.144,0.73-6.975,1.341-7.602c1.349-1.375,3.793-2.072,7.264-2.072h0.838
					l-0.772-6.934L196.229,14.582z M146.684,22.56c-1.207,1.239-1.769,3.988-1.769,8.65c0,1.803,0.087,3.913,0.259,6.279
					l-4.888,0.171c0.026-8.359-0.188-15.23-0.637-20.449l4.662-0.383l-0.265,2.67l1.292-0.803c2.745-1.706,5.567-2.586,8.4-2.622
					l0.443,3.976C150.727,20.165,148.206,21.007,146.684,22.56z M170.115,36.68l-2.213,0.166l-0.306-2.722l-1.027,0.693
					c-2.311,1.56-4.202,2.351-5.621,2.351c-1.245,0-2.094-0.629-2.668-1.979c-1.308-3.068-1.926-10.156-1.841-21.074l3.888-0.146
					c-0.086,2.376-0.129,4.515-0.129,6.366c0,8.539,0.851,12.021,2.937,12.021c1.15,0,2.335-1.113,3.843-3.608l0.108-0.179V14.548
					h3.706L170.115,36.68z M173.874,14.329c0.85-0.872,1.666-1.313,2.425-1.313c0.249,0,0.473,0.033,0.665,0.096
					c1.036,0.346,1.693,0.959,2.009,1.879c0.091,0.264,0.138,0.53,0.138,0.79c0,0.594-0.246,1.184-0.754,1.802
					c-0.725,0.885-1.512,1.281-2.418,1.193c-0.92-0.083-1.656-0.582-2.251-1.523c-0.256-0.408-0.381-0.801-0.381-1.202
					C173.307,15.525,173.497,14.946,173.874,14.329z M178.117,37.772l-4.242,0.397c0.161-2.067,0.243-4.187,0.243-6.315
					c0-2.78-0.143-5.635-0.424-8.497l5.243-0.638C178.715,27.744,178.439,32.8,178.117,37.772z M172.064,22.045l0.134-4.397
					c0.067,0.136,0.137,0.271,0.221,0.405c0.85,1.346,1.988,2.092,3.384,2.218c0.128,0.012,0.255,0.017,0.38,0.017
					c1.259,0,2.379-0.588,3.334-1.753c0.179-0.218,0.335-0.439,0.471-0.662c0.082,1.008,0.159,2.055,0.224,3.181L172.064,22.045z
					 M188.477,22.56c-1.207,1.239-1.769,3.988-1.769,8.65c0,1.803,0.087,3.913,0.259,6.279l-4.888,0.171
					c0.026-8.359-0.188-15.23-0.637-20.449l4.662-0.383l-0.265,2.67l1.292-0.803c2.745-1.706,5.567-2.586,8.4-2.622l0.443,3.976
					C192.52,20.165,189.999,21.007,188.477,22.56z"/>
				<path style="fill:#C96900;" d="M244.301,28.41c-1.087-0.187-2.032-0.281-2.81-0.281c-2.522,0-3.146,1.045-3.226,1.915
					c-0.222,2.221,3.271,3.198,5.916,3.74l0.938,0.192l-0.222-5.463L244.301,28.41z M239.759,30.186
					c0.046-0.503,1.227-0.557,1.732-0.557c0.551,0,1.208,0.055,1.958,0.165l0.094,2.313C239.775,31.207,239.747,30.3,239.759,30.186
					z"/>
				<path style="fill:#C96900;" d="M264.848,24.287c-1.873-0.733-3.134-1.303-3.746-1.694c-1.066-0.684-1.098-1.065-1.098-1.106
					c0-0.112,0-0.408,0.661-0.726c0.486-0.237,0.99-0.353,1.542-0.353c1.239,0,2.919,0.471,4.991,1.399l0.757,0.339l2.446-7.368
					l-0.838-0.162c-7.163-1.386-12.094-1.058-14.854,0.964c-1.97,1.436-2.969,3.165-2.969,5.137c0,0.912,0.233,1.907,0.694,2.958
					c1.353,3.111,4.002,5.189,7.873,6.176c3.132,0.801,3.223,1.576,3.223,1.662c0,0.229-0.071,0.578-0.689,0.968
					c-0.496,0.315-0.991,0.469-1.514,0.469c-1.708,0-4.225-1.074-7.48-3.192l-0.74-0.481l-1.817,4.126l0.08-3.427
					c0.076-3.318-0.244-6.303-0.952-8.873c-1.433-5.182-4.702-7.809-9.717-7.809c-1.01,0-2.058,0.12-3.116,0.356h-0.001
					c-2.956,0.664-5.268,3.227-6.9,7.576c-1.227-5.796-3.874-9.019-7.894-9.571c-0.691-0.094-1.415-0.142-2.151-0.142
					c-3.544,0-6.349,1.246-8.338,3.704c-1.815,2.246-2.736,5.188-2.736,8.745c0,0.684,0.047,1.469,0.139,2.334
					c0.327,3.021,0.738,5.188,1.259,6.622c0.907,2.51,2.416,4.283,4.484,5.269c1.144,0.546,3.438,0.872,7.015,0.997
					c0.078,0.003,0.155,0.004,0.232,0.004c3.689,0,6.545-3.119,8.488-9.274l0.286-0.906l-7.763-0.555l-0.223,0.453
					c-0.806,1.637-1.687,2.467-2.618,2.467c-0.433,0-0.93-0.185-1.48-0.553c-1.654-1.093-2.459-2.754-2.459-5.077
					c0-0.239,0.015-0.534,0.044-0.888c0.277-3.548,2.002-4.084,3.275-4.18c2.012-0.151,3.039,0.811,3.349,3.116l0.097,0.721
					l7.434-0.764l-0.059-0.39l6.108,0.954l0.249-0.476c0.8-1.527,2.044-3.326,3.424-3.207c2.03,0.161,2.262,0.958,2.323,1.159
					c0.015,0.1,0.047,0.585,0.066,2.896c-2.427-0.745-4.78-0.766-7.154-0.018c-1.74,0.548-3.815,2.009-3.815,5.855
					c0,0.24,0.022,0.616,0.07,1.13c0.345,3.656,4.213,5.694,11.501,6.06l0.05,1.135l7.287-0.451l0.024-1.03
					c4.231,1.469,7.726,2.223,10.378,2.223c2.202,0,3.919-0.507,5.103-1.506c2.655-2.223,3.943-4.758,3.829-7.533
					c-0.068-1.757-0.716-3.183-1.923-4.236C267.789,25.62,266.566,24.956,264.848,24.287z M224.955,22.877
					c-0.716-3.277-2.979-3.833-4.822-3.695c-1.938,0.145-4.319,1.227-4.659,5.557c-0.031,0.4-0.048,0.735-0.048,1.006
					c0,2.827,1.054,4.956,3.13,6.327c2.363,1.579,4.476,0.811,6.039-2.049l4.857,0.347c-1.729,4.957-4.089,7.417-6.938,7.317
					c-4.136-0.145-5.774-0.542-6.422-0.852c-1.724-0.821-2.94-2.269-3.72-4.425c-0.473-1.302-0.868-3.412-1.177-6.271
					c-0.087-0.812-0.131-1.543-0.131-2.174c0-3.205,0.809-5.83,2.402-7.802c1.714-2.118,4.061-3.147,7.172-3.147
					c0.669,0,1.325,0.043,1.949,0.128c3.564,0.489,5.796,3.526,6.808,9.277L224.955,22.877z M245.318,37.258l-0.042-0.989
					l-0.693-0.024c-6.862-0.239-10.48-1.831-10.753-4.73c-0.042-0.45-0.064-0.779-0.064-0.99c0-2.424,0.879-3.83,2.767-4.424
					c1.019-0.321,2.042-0.484,3.043-0.484c1.342,0,2.737,0.278,4.146,0.828l1.028,0.401l-0.006-1.104
					c-0.022-3.982-0.075-4.158-0.119-4.307c-0.396-1.362-1.627-2.135-3.656-2.296c-1.697-0.136-3.201,1.016-4.617,3.531
					l-4.364-0.682c1.448-4.002,3.439-6.312,5.926-6.871c0.952-0.212,1.891-0.32,2.79-0.32c4.317,0,7.023,2.194,8.271,6.708
					c0.669,2.429,0.971,5.268,0.897,8.439l-0.164,7.043L245.318,37.258z M265.714,36.938c-2.128,1.794-6.895,1.486-13.923-0.945
					l1.981-4.501c3.191,1.991,5.668,2.961,7.556,2.961c0.805,0,1.584-0.236,2.315-0.701c1.147-0.723,1.388-1.614,1.388-2.235
					c0-1.795-2.483-2.638-4.352-3.115c-3.447-0.879-5.694-2.62-6.87-5.323c-0.377-0.862-0.568-1.655-0.568-2.358
					c0-1.487,0.77-2.771,2.354-3.926c2.281-1.672,6.608-1.974,12.844-0.859l-1.388,4.178c-3.102-1.287-5.21-1.593-7.039-0.7
					c-1.246,0.598-1.508,1.458-1.508,2.076c0,0.823,0.585,1.598,1.79,2.37c0.705,0.45,2.016,1.048,4.008,1.827
					c1.534,0.597,2.643,1.189,3.296,1.762c0.897,0.783,1.359,1.819,1.412,3.167C269.105,32.932,268.027,35,265.714,36.938z"/>
				<path style="fill:#C96900;" d="M289.822,21.105c-1.433-5.182-4.702-7.809-9.717-7.809c-1.01,0-2.058,0.12-3.116,0.356h-0.001
					c-3.208,0.721-5.668,3.65-7.312,8.706l-0.272,0.837l7.172,1.12l0.249-0.476c0.8-1.527,2.044-3.326,3.424-3.207
					c2.03,0.161,2.262,0.958,2.323,1.159c0.015,0.1,0.047,0.585,0.066,2.896c-2.427-0.745-4.781-0.766-7.154-0.018
					c-1.74,0.548-3.815,2.009-3.815,5.855c0,0.24,0.022,0.616,0.07,1.13c0.345,3.656,4.213,5.694,11.501,6.06l0.05,1.135
					l7.287-0.451l0.197-8.42C290.851,26.66,290.53,23.675,289.822,21.105z M289.11,36.986l-4.389,0.271l-0.042-0.989l-0.693-0.024
					c-6.862-0.239-10.48-1.831-10.753-4.73c-0.042-0.45-0.064-0.779-0.064-0.99c0-2.424,0.879-3.83,2.767-4.424
					c1.019-0.321,2.042-0.484,3.043-0.484c1.342,0,2.737,0.278,4.146,0.828l1.028,0.401l-0.006-1.104
					c-0.022-3.982-0.075-4.158-0.119-4.307c-0.396-1.362-1.627-2.135-3.656-2.296c-1.704-0.136-3.201,1.016-4.617,3.531
					l-4.364-0.682c1.448-4.002,3.439-6.312,5.926-6.871c0.952-0.212,1.891-0.32,2.79-0.32c4.317,0,7.023,2.194,8.271,6.708
					c0.669,2.429,0.971,5.268,0.897,8.439L289.11,36.986z"/>
				<path style="fill:#C96900;" d="M283.704,28.41c-1.087-0.187-2.032-0.281-2.81-0.281c-2.522,0-3.146,1.045-3.226,1.915
					c-0.222,2.221,3.271,3.198,5.916,3.74l0.938,0.192l-0.222-5.463L283.704,28.41z M279.162,30.186
					c0.046-0.503,1.227-0.557,1.732-0.557c0.551,0,1.208,0.055,1.958,0.165l0.094,2.313C279.179,31.207,279.15,30.3,279.162,30.186z
					"/>
			</g>
		</g>
		<path style="fill-rule:evenodd;clip-rule:evenodd;fill:#C96900;" d="M318.586,43.482c-10.149,7.43-297.022,7.43-307.171,0
			c-4.56-3.339-7.09-10.557-7.59-18.204c-0.621,9.534,1.906,19.723,7.59,23.882c10.147,7.431,297.023,7.431,307.171,0
			c5.684-4.16,8.211-14.348,7.588-23.882C325.675,32.925,323.146,40.143,318.586,43.482z"/>
		<path style="fill-rule:evenodd;clip-rule:evenodd;fill:#FFAC04;" d="M8.175,40.013c0.932,1.392,2.013,2.571,3.239,3.469
			c10.149,7.43,297.022,7.43,307.171,0c3.915-2.868,6.335-8.597,7.257-15.002C306.794,38.739,33.829,42.499,8.175,40.013z"/>
		<path style="fill-rule:evenodd;clip-rule:evenodd;fill:#FFD30E;" d="M11.463,6.982c-3.08,2.248-5.244,6.264-6.483,10.986
			c17.796-13.564,304.021-15.729,319.128-2.89c-1.283-3.451-3.142-6.322-5.571-8.095C308.158-0.591,21.84-0.591,11.463,6.982z"/>
		<path style="fill-rule:evenodd;clip-rule:evenodd;fill:#FFEF91;" d="M19.567,5.17c-4.369,0.908-7.908,3.118-7.908,4.934
			s3.54,2.553,7.908,1.645c4.367-0.908,7.907-3.118,7.907-4.935C27.474,4.999,23.934,4.262,19.567,5.17z"/>
		<path style="fill-rule:evenodd;clip-rule:evenodd;fill:#FFEF91;" d="M32.674,3.881c-2.463,0.112-4.69,0.985-4.974,1.951
			c-0.289,0.965,1.476,1.655,3.939,1.541c2.461-0.112,4.687-0.985,4.974-1.951C36.897,4.459,35.135,3.768,32.674,3.881z"/>
		<path style="fill-rule:evenodd;clip-rule:evenodd;fill:#FEE147;" d="M313.363,39.402c-2.757,0.982-4.756,2.758-4.465,3.966
			c0.292,1.208,2.763,1.392,5.523,0.411c2.759-0.982,4.758-2.757,4.465-3.966C318.595,38.605,316.121,38.421,313.363,39.402z"/>
		<path style="fill-rule:evenodd;clip-rule:evenodd;fill:#FEE147;" d="M325.843,28.48c-0.922,6.405-3.342,12.133-7.257,15.002
			c-10.149,7.43-297.022,7.43-307.171,0c-1.226-0.898-2.307-2.077-3.239-3.469C5.64,36.229,4.19,30.869,3.824,25.278
			c-0.073,1.112-0.101,2.234-0.089,3.353c0.01-0.772,0.038-1.544,0.089-2.312c0.5,7.649,3.03,14.866,7.59,18.204
			c10.149,7.43,297.022,7.43,307.171,0c4.56-3.338,7.09-10.555,7.588-18.204c0.05,0.768,0.081,1.541,0.091,2.316
			c0.012-1.121-0.018-2.245-0.091-3.358C326.105,26.356,325.994,27.427,325.843,28.48z"/>
		<path style="fill-rule:evenodd;clip-rule:evenodd;fill:#E6E6E6;" d="M8.477,51.544c-5.528-4.046-8.35-13.256-8.473-22.588
			c-0.129,9.758,2.695,19.634,8.473,23.865c11.203,8.2,301.84,8.2,313.045,0c5.777-4.23,8.602-14.107,8.474-23.865
			c-0.123,9.332-2.947,18.543-8.474,22.588C310.322,59.745,19.678,59.745,8.477,51.544z"/>
	</g>
</g>
</svg>
