<?xml version="1.0" encoding="utf-8"?>
<!-- Generator: Adobe Illustrator 21.0.0, SVG Export Plug-In . SVG Version: 6.00 Build 0)  -->
<svg version="1.1" id="Capa_1" xmlns="http://www.w3.org/2000/svg" xmlns:xlink="http://www.w3.org/1999/xlink" x="0px" y="0px"
	 viewBox="0 0 224 381.383" style="enable-background:new 0 0 224 381.383;" xml:space="preserve">
<g>
	<g>
		<g>
			<rect x="4" y="62.385" style="opacity:0.2;" width="220" height="318.998"/>
			<rect y="58.384" style="fill:#FFFFFF;" width="220" height="318.998"/>
			<rect x="9.04" y="65.184" style="fill:#E6E6E6;" width="201.921" height="304.349"/>
			
				<linearGradient id="SVGID_1_" gradientUnits="userSpaceOnUse" x1="525.8069" y1="1391.9054" x2="772.1165" y2="1391.9054" gradientTransform="matrix(0 1 -1 0 1501.9058 -460.6227)">
				<stop  offset="0" style="stop-color:#FFFFFF;stop-opacity:0"/>
				<stop  offset="0.2219" style="stop-color:#FCFCFC;stop-opacity:0.2219"/>
				<stop  offset="0.3578" style="stop-color:#F4F4F4;stop-opacity:0.3578"/>
				<stop  offset="0.4706" style="stop-color:#E6E6E6;stop-opacity:0.4706"/>
				<stop  offset="0.5708" style="stop-color:#D1D1D1;stop-opacity:0.5708"/>
				<stop  offset="0.6626" style="stop-color:#B6B6B6;stop-opacity:0.6626"/>
				<stop  offset="0.7484" style="stop-color:#969696;stop-opacity:0.7484"/>
				<stop  offset="0.8294" style="stop-color:#6F6F6F;stop-opacity:0.8294"/>
				<stop  offset="0.9067" style="stop-color:#424242;stop-opacity:0.9067"/>
				<stop  offset="0.9784" style="stop-color:#101010;stop-opacity:0.9784"/>
				<stop  offset="1" style="stop-color:#000000"/>
			</linearGradient>
			<rect x="9.04" y="65.184" style="opacity:0.2;fill:url(#SVGID_1_);" width="201.921" height="246.31"/>
		</g>
	</g>
	<g>
		<defs>
			<filter id="Adobe_OpacityMaskFilter" filterUnits="userSpaceOnUse" x="60.08" y="340.654" width="104.605" height="27.047">
				<feFlood  style="flood-color:white;flood-opacity:1" result="back"/>
				<feBlend  in="SourceGraphic" in2="back" mode="normal"/>
			</filter>
		</defs>
		<mask maskUnits="userSpaceOnUse" x="60.08" y="340.654" width="104.605" height="27.047" id="XMLID_2_">
		</mask>
		
			<ellipse id="XMLID_124_" transform="matrix(1 -0.0098 0.0098 1 -3.4552 1.115)" style="opacity:0.5;mask:url(#XMLID_2_);fill:#999999;" cx="112.383" cy="354.178" rx="52.305" ry="13.514"/>
		<g>
			<g>
				<g>
					<rect x="90.951" y="281.207" width="39.879" height="4.055"/>
					<path style="fill:#A7A9AC;" d="M113.016,285.913h-4.292c-1.711,0-3.103-1.2-3.103-2.675c0-1.478,1.392-2.681,3.103-2.681h4.292
						c1.71,0,3.102,1.203,3.102,2.681C116.118,284.713,114.727,285.913,113.016,285.913z M108.724,281.858
						c-0.993,0-1.801,0.618-1.801,1.379c0,0.758,0.808,1.374,1.801,1.374h4.292c0.992,0,1.8-0.616,1.8-1.374
						c0-0.761-0.808-1.379-1.8-1.379H108.724z"/>
				</g>
				<g>
					<path style="fill:#D54F2B;" d="M110.891,293.205c13.675,18.695,6.277,59.917,6.277,59.917
						c8.906-6.356,21.098-3.936,21.098-3.936c-12.259-31.54-7.476-63.924-7.476-63.924h-39.84c0,0,4.826,32.384-7.432,63.924
						c0,0,12.192-2.42,21.098,3.936c0,0-7.443-41.222,6.229-59.917"/>
					<path d="M143.595,354.584c0,3.366-3.22,3.569-11.708,3.569c-8.489,0-15.003-0.203-15.003-3.569
						c0-3.363,6.878-6.088,15.365-6.088C140.736,348.497,143.595,351.221,143.595,354.584z"/>
					<path d="M78.533,354.584c0,3.366,3.219,3.569,11.709,3.569c8.485,0,15.002-0.203,15.002-3.569c0-3.363-6.881-6.088-15.37-6.088
						C81.39,348.497,78.533,351.221,78.533,354.584z"/>
				</g>
				<g id="XMLID_201_">
					
						<path id="XMLID_123_" style="fill:#7F4A33;stroke:#35120C;stroke-linecap:round;stroke-linejoin:round;stroke-miterlimit:10;" d="
						M80.872,243.234c0,0-16.624,29.383,9.698,38.692l-0.801-9.147c0,0-13.344-6.738-6.413-23.353L80.872,243.234z"/>
				</g>
				<g>
					<path style="fill:#278C93;" d="M88.593,260.03c0,0-0.886-19.191-3.038-30.583c-0.961,0.631-1.79,1.347-2.376,1.901
						c-4.625,4.367-11.153,17.081-12.212,19.969l14.117,11.62L88.593,260.03z"/>
					<path style="fill:#BDFDFF;" d="M87.164,261.214l-14.948-12.696c-0.597,1.232-1.036,2.218-1.249,2.8l14.117,11.62
						L87.164,261.214z"/>
				</g>
				<g>
					<path style="fill:#7F4A33;stroke:#35120C;stroke-linecap:round;stroke-linejoin:round;stroke-miterlimit:10;" d="
						M197.953,274.445c4.244-2.632,1.991-6.155,1.169-6.96c-0.844-0.824,0.037-1.299,0.037-1.299
						c2.445-1.169,2.776-4.919,0.415-6.997c-0.745-0.658-0.24-1.485-0.24-1.485c1.649-1.587,1.429-4.546,1.429-4.546
						c-0.438-6.664-11.983-4.933-16.493-4.391c-4.506,0.542-0.361-3.098-0.361-3.098c5.362-6.83,4.396-9.683,2.877-11.003
						c-0.783-2.003-1.965-3.253-1.965-3.253s-6.116-7.268-8.925,2.773c-1.601,5.704-5.373,17.718-8.284,21.391
						c-0.453,0.572-0.737,1.281-0.926,2.05c-16.743,1.27-26.401-8.856-26.917-9.682l-0.325,11.523c0,0,8.764,12.236,28.117,20.431
						c0.209,0.392,0.463,0.736,0.78,1.008c0.313,0.27,0.715,0.511,1.183,0.726c4.406,2.03,14.821,1.795,14.821,1.795
						c8.109,0.392,12.444-0.957,12.444-0.957c5.447-2.555,1.872-6.308,1.166-6.957C197.238,274.857,197.953,274.445,197.953,274.445
						z"/>
					<path style="fill:#C98150;stroke:#35120C;stroke-linecap:round;stroke-linejoin:round;stroke-miterlimit:10;" d="
						M197.953,274.445c4.244-2.632,1.991-6.155,1.169-6.96c-0.844-0.824,0.037-1.299,0.037-1.299
						c2.445-1.169,2.776-4.919,0.415-6.997c-0.745-0.658-0.24-1.485-0.24-1.485c1.649-1.587,1.429-4.546,1.429-4.546
						c-0.438-6.664-12.586-4.641-17.095-4.099c-4.506,0.542,0.167-3.938,0.167-3.938c5.363-6.83,4.056-8.794,2.537-10.114
						c-1.642-1.534-5.611-4.968-7.866,3.092c-1.601,5.704-5.373,17.718-8.285,21.391c-2.036,2.57-1.048,7.669-0.271,10.507
						c0.333,1.223,0.421,2.756,0.175,3.88c-0.433,1.991-0.783,4.824-0.424,7.377c4.406,2.03,14.821,1.795,14.821,1.795
						c8.109,0.392,12.266-0.577,12.266-0.577c5.447-2.555,1.872-6.308,1.166-6.957C197.238,274.857,197.953,274.445,197.953,274.445
						z"/>
					<path style="fill:#C98150;" d="M168.82,281.255c-0.175-0.11-0.34-0.224-0.481-0.346
						C168.48,281.03,168.645,281.144,168.82,281.255z"/>
					<path style="fill:#C98150;" d="M169.521,281.635c-0.213-0.098-0.407-0.203-0.59-0.311
						C169.114,281.432,169.309,281.537,169.521,281.635z"/>
					<path style="fill:#C98150;" d="M184.871,231.47c-0.03-0.034-0.051-0.056-0.051-0.056S184.839,231.434,184.871,231.47z"/>
					<path style="fill:#7F4A33;stroke:#35120C;stroke-linecap:round;stroke-linejoin:round;stroke-miterlimit:10;" d="
						M179.133,268.428c-0.844,0.751-3.222,4.151,0.714,7.003c0,0,0.672,0.457-0.054,1.07c-0.717,0.607-3.866,4.509,0.977,7.426
						c0,0,0,0,0.006,0.009c0.198,0.071,3.431,1.319,10.721-0.014c0.017,0.006,0.025-0.006,0.039-0.003
						c3.467-0.297,5.283-0.887,5.283-0.887c5.272-2.57,1.835-6.308,1.152-6.963c-0.686-0.652,0.006-1.065,0.006-1.065
						c4.105-2.64,1.937-6.155,1.152-6.96c-0.819-0.824,0.039-1.302,0.039-1.302c2.363-1.18,2.694-4.922,0.421-7
						c-0.717-0.655-0.223-1.48-0.223-1.48c1.598-1.59,1.395-4.552,1.395-4.552c-0.215-3.521-3.431-4.687-7.065-4.924l-0.028-0.003
						v0.009c-0.017,0-0.037-0.009-0.062-0.011c-2.883-0.503-7.358-0.824-10.78,0.104c-2.521,0.695-4.447,2.846-4.749,5.323
						c0,0-0.088,2.761,1.415,4.436c0,0,0.443,0.858-0.319,1.474c-2.4,1.948-2.296,5.709-0.006,7.011
						C179.167,267.129,179.989,267.643,179.133,268.428z"/>
					<path style="fill:#35120C;stroke:#35120C;stroke-linecap:round;stroke-linejoin:round;stroke-miterlimit:10;" d="
						M199.223,258.678c0,0-5.715,1.177-19.604,0.477L199.223,258.678z"/>
					<path style="fill:#35120C;stroke:#35120C;stroke-linecap:round;stroke-linejoin:round;stroke-miterlimit:10;" d="
						M179.512,267.635c0,0,11.935,0.695,19.322-0.528L179.512,267.635z"/>
					<path style="fill:#35120C;stroke:#35120C;stroke-linecap:round;stroke-linejoin:round;stroke-miterlimit:10;" d="
						M180.13,275.919l17.605-0.661C197.735,275.258,188.782,276.45,180.13,275.919z"/>
					<path style="fill:#35120C;stroke:#35120C;stroke-linecap:round;stroke-linejoin:round;stroke-miterlimit:10;" d="
						M178.764,267.815c0,0-3.219,1.417-9.829,0.641C168.935,268.456,176.863,268.033,178.764,267.815z"/>
				</g>
				<g>
					<path style="fill:#278C93;" d="M133.143,260.038c0,0,0.559-18.524,3.03-30.5c0.961,0.631,2.048,1.347,2.635,1.901
						c4.625,4.367,11.153,17.081,12.212,19.969l-14.117,11.62L133.143,260.038z"/>
					<path style="fill:#BDFDFF;" d="M134.823,261.304l14.948-12.696c0.597,1.232,1.036,2.218,1.249,2.8l-14.117,11.62
						L134.823,261.304z"/>
				</g>
				<g>
					<path style="fill:#69D3D6;" d="M117.964,225.08h-6.818h-6.819l-18.817,4.359l2.014,23.778l3.052,31.892
						c0,0,4.535,3.841,6.349,4.7c3.965,1.874,14.221,2.746,14.221,2.746s10.132-0.21,14.096-2.086
						c1.816-0.857,6.473-5.36,6.473-5.36l3.052-31.892l1.406-23.679L117.964,225.08z"/>
					<g>
						<rect x="108.159" y="231.461" style="fill:#499FAA;" width="6.204" height="24.647"/>
						<circle style="fill:#57999B;" cx="111.848" cy="233.964" r="1.286"/>
						<path style="fill:#BDFDFF;" d="M113.19,231.462c0,0-4.888,10.986-4.917,18.75l-0.114,6.142h6.228v-6.089
							c0-11.583,3.901-16.079,3.901-16.079L113.19,231.462z"/>
						<g>
							<path style="fill:#278C93;" d="M101.605,221.77c-2.378,1.625-5.046,6.035-5.046,6.035l5.413,13.538l7.843-9.78h1.177l0,0
								h-1.177C109.815,231.563,100.455,223.81,101.605,221.77z"/>
							<path style="fill:#278C93;" d="M120.917,221.77c2.378,1.625,5.046,6.055,5.046,6.055l-5.413,13.518l-7.843-9.78h-1.716l0,0
								h1.716C112.708,231.563,122.067,223.81,120.917,221.77z"/>
							<path style="fill:#1A6F75;" d="M120.917,221.781c-0.438-0.299-0.867-0.427-1.267-0.427c-2.571,0-8.486,0-8.486,0
								s-5.721,0-8.293,0c-0.4,0-0.829,0.128-1.267,0.427c-1.149,2.04,8.21,9.781,8.21,9.781h1.35h1.543
								C112.708,231.563,122.067,223.821,120.917,221.781z"/>
						</g>
						<g>
							<circle style="fill:#57999B;" cx="111.848" cy="248.404" r="1.286"/>
							<circle style="fill:#57999B;" cx="111.848" cy="253.965" r="1.286"/>
						</g>
					</g>
				</g>
				<path style="fill:#EFD0B1;" d="M69.575,78.704c0,0,23.156-11.183,36.783-4.334s30.487-5.029,39.668,4.334l13.841,55.272H63.162
					L69.575,78.704z"/>
				<path d="M67.126,99.816l-2.131,18.367c11.852-8.134,28.093-13.154,46.021-13.154c17.257,0,32.95,4.653,44.671,12.255
					l-4.981-19.891c-11.029-5.849-24.776-9.325-39.69-9.325C94.144,88.069,78.762,92.515,67.126,99.816z"/>
				<path style="fill:#EFD0B1;" d="M199.002,144.748c0,0-10.646,25.712-61.091,15.959s-74.123,0-74.123,0
					s-68.313,15.271-19.825-34.936S203.364,108.256,199.002,144.748z"/>
				<path style="fill:#C69C6D;" d="M199.002,147.405c0,0-10.646,25.712-61.091,15.959s-74.123,0-74.123,0
					s-68.313,15.271-19.825-34.936S203.364,110.913,199.002,147.405z"/>
				<g>
					<g>
						
							<path style="fill:#7F4A33;stroke:#35120C;stroke-width:1.3045;stroke-linecap:round;stroke-linejoin:round;stroke-miterlimit:10;" d="
							M75.946,180.373c0,0-2.691-8.239-7.604-8.239c-4.91,0-2.536,15.999,10.298,24.238L75.946,180.373z"/>
						<path style="fill:#7F4A33;stroke:#35120C;stroke-linecap:round;stroke-linejoin:round;stroke-miterlimit:10;" d="
							M146.045,180.373c0,0,2.689-8.239,7.604-8.239c4.913,0,2.531,15.999-10.301,24.238L146.045,180.373z"/>
						<path style="fill:#7F4A33;stroke:#35120C;stroke-linecap:round;stroke-linejoin:round;stroke-miterlimit:10;" d="
							M111.058,122.584c0,0,24.235,0,26.999,0s9.613,4.365,10.323,26.343c1.401,43.083-0.445,54.335-15.88,70.616
							c-7.115,7.502-14.625,10.747-21.442,10.747c-6.628,0-14.331-3.244-21.445-10.747c-15.437-16.281-17.282-27.533-15.883-70.616
							c0.713-21.978,7.559-26.343,10.325-26.343C86.819,122.584,111.058,122.584,111.058,122.584z"/>
						<g>
							<path style="fill:#35120C;" d="M136.982,159.956c-0.246-0.13-0.678-0.254-1.206-0.455c-0.531-0.195-1.169-0.443-1.919-0.607
								c-1.456-0.446-3.288-0.675-5.077-0.808c-3.613-0.175-7.041,0.573-7.638,0.703c-1.264,0.189-3.05,0.864-4.021-1.039
								c-0.539-0.983,0.441-1.965,1.94-2.609c1.495-0.666,3.501-0.974,4.953-1.059c1.443-0.133,4.6-0.042,7.539,0.714
								c0.73,0.209,1.458,0.387,2.133,0.618c0.669,0.257,1.305,0.5,1.889,0.723c1.125,0.525,2.013,0.991,2.493,1.248
								c0.909,0.624,1.957,1.197,2.627,1.948c0.697,0.717,1.146,1.389,1.062,1.92C141.545,162.33,139.04,160.814,136.982,159.956z"
								/>
						</g>
						<g>
							<path style="fill:#35120C;" d="M84.698,159.956c0.246-0.13,0.679-0.254,1.206-0.455c0.532-0.195,1.17-0.443,1.919-0.607
								c1.457-0.446,3.29-0.675,5.077-0.808c3.614-0.175,7.042,0.573,7.641,0.703c1.261,0.189,3.05,0.864,4.021-1.039
								c0.539-0.983-0.441-1.965-1.94-2.609c-1.498-0.666-3.501-0.974-4.953-1.059c-1.446-0.133-4.602-0.042-7.542,0.714
								c-0.728,0.209-1.458,0.387-2.132,0.618c-0.671,0.257-1.306,0.5-1.889,0.723c-1.127,0.525-2.015,0.991-2.495,1.248
								c-0.908,0.624-1.955,1.197-2.627,1.948c-0.698,0.717-1.146,1.389-1.062,1.92C80.137,162.33,82.64,160.814,84.698,159.956z"/>
						</g>
						<g id="XMLID_4_">
							<g id="XMLID_116_">
								<path id="XMLID_120_" style="fill:#FFFFFF;" d="M90.994,164.451c-11.337,3-10.843,19.185,1.474,19.152
									C104.785,183.571,104.187,160.961,90.994,164.451z"/>
								
									<ellipse id="XMLID_119_" transform="matrix(0.0209 -0.9998 0.9998 0.0209 -83.294 262.4673)" cx="92.361" cy="173.761" rx="6.055" ry="4.793"/>
								
									<ellipse id="XMLID_118_" transform="matrix(0.0209 -0.9998 0.9998 0.0209 -82.5413 257.0817)" style="fill:#FFFFFF;" cx="89.986" cy="170.683" rx="2.859" ry="2.859"/>
								
									<ellipse id="XMLID_117_" transform="matrix(0.0209 -0.9998 0.9998 0.0209 -84.2561 266.5995)" style="fill:#FFFFFF;" cx="93.989" cy="176.318" rx="1.093" ry="1.093"/>
							</g>
							<g id="XMLID_8_">
								<path id="XMLID_115_" style="fill:#FFFFFF;" d="M130.875,164.542c11.202,3.471,10.032,19.621-2.273,19.074
									C116.297,183.069,117.84,160.503,130.875,164.542z"/>
								
									<ellipse id="XMLID_30_" transform="matrix(0.0209 -0.9998 0.9998 0.0209 -46.8457 299.7589)" cx="129.625" cy="173.797" rx="6.055" ry="4.793"/>
								
									<ellipse id="XMLID_25_" transform="matrix(0.0209 -0.9998 0.9998 0.0209 -46.0926 294.3733)" style="fill:#FFFFFF;" cx="127.25" cy="170.72" rx="2.859" ry="2.859"/>
								
									<ellipse id="XMLID_9_" transform="matrix(0.0209 -0.9998 0.9998 0.0209 -47.8078 303.8911)" style="fill:#FFFFFF;" cx="131.254" cy="176.355" rx="1.093" ry="1.093"/>
							</g>
						</g>
						<path id="XMLID_3_" style="fill:#562B1C;" d="M102.122,192.265c1.027-1.362,4.09,2.351,8.769,2.655
							c4.68,0.304,6.74-4.664,8.785-3.489c2.045,1.175-2.067,7.601-9.089,8.168C103.565,200.167,101.241,193.433,102.122,192.265z"
							/>
						<g>
							<path d="M127.622,203.134c0,0-0.551,8.46-6.899,12.977c-2.304,1.641-5.376,2.754-9.465,2.754
								c-4.083,0-7.146-1.111-9.452-2.749c-6.349-4.514-6.905-12.982-6.905-12.982H127.622z"/>
							<path style="fill:#FFFFFF;" d="M97.368,203.134h27.988c0,0,0.926,3.223-13.994,3.223S97.368,203.134,97.368,203.134z"/>
							<path style="fill:#FFFFFF;" d="M120.722,216.111c-2.304,1.641-5.376,2.754-9.465,2.754c-4.083,0-7.146-1.111-9.452-2.749
								C104.064,215.749,111.351,214.817,120.722,216.111z"/>
						</g>
					</g>
					<path style="fill:#35120C;" d="M111.184,144.176c0,0-0.934,2.559-3.025,0.569c0,0-2.148,2.386-2.917-0.456
						c0,0-1.872,2.73-3.466-0.568c0,0-2.695,1.932-3.355-0.91c0,0-2.917,2.274-3.301-1.307c0,0-2.53,1.648-3.466-1.08
						c0,0-0.99,2.843-4.511,0.797c0,0-0.33,3.525-3.631,2.046c0,0,1.542,2.672-1.87,3.751c0,0,2.202,1.932-0.66,3.637
						c0,0,2.197,1.762-0.056,3.468c0,0,2.092,3.694-1.486,3.694c0,0,1.87,3.466-1.596,4.604c0,0,2.698,4.32-1.54,4.32
						c0,0,2.584,3.638-1.266,4.434c0,0,1.981,2.614-0.99,3.978c0,0,0.33,2.389-0.549,3.525c-0.879,1.136-3.523-0.229-2.752-2.502
						c0,0-3.025,0.967-2.695-2.841c0,0-3.025-0.113-1.32-4.092c0,0-2.639-1.307-1.044-4.376c0,0-2.422-1.307-0.825-4.604
						c0,0-2.53-2.502-0.384-5.002c0,0-2.313-1.704-0.222-4.319c0,0-2.365-0.397,0.111-4.945c0,0-2.424-3.012,0.273-4.774
						c0,0-2.474-3.638,0.993-4.889c0,0-2.584-4.717,1.486-4.775c0,0-2.256-3.522,2.419-5.853c0,0-1.377-4.719,3.685-5.23
						c0,0-0.604-4.263,3.907-4.433c0,0,0.384-3.922,4.456-3.24c0,0-0.276-4.204,4.787-2.614c0,0-0.165-3.581,4.732-1.933
						c0,0-0.003-3.695,5.39-1.251c0,0,1.707-3.183,4.567-1.136c0,0,1.978-3.524,5.006-0.512c0,0,1.594-1.307,5.117-1.307
						c3.523,0,5.117,1.307,5.117,1.307c3.028-3.012,5.006,0.512,5.006,0.512c2.86-2.046,4.567,1.136,4.567,1.136
						c5.392-2.445,5.39,1.251,5.39,1.251c4.897-1.648,4.732,1.933,4.732,1.933c5.062-1.591,4.787,2.614,4.787,2.614
						c4.072-0.682,4.456,3.24,4.456,3.24c4.511,0.17,3.907,4.433,3.907,4.433c5.063,0.512,3.685,5.23,3.685,5.23
						c4.676,2.331,2.419,5.853,2.419,5.853c4.069,0.057,1.485,4.775,1.485,4.775c3.466,1.251,0.993,4.889,0.993,4.889
						c2.698,1.762,0.273,4.774,0.273,4.774c2.476,4.548,0.111,4.945,0.111,4.945c2.092,2.615-0.222,4.319-0.222,4.319
						c2.146,2.5-0.384,5.002-0.384,5.002c1.596,3.297-0.825,4.604-0.825,4.604c1.594,3.069-1.044,4.376-1.044,4.376
						c1.705,3.979-1.32,4.092-1.32,4.092c0.33,3.809-2.695,2.841-2.695,2.841c0.771,2.273-1.872,3.638-2.752,2.502
						c-0.879-1.136-0.549-3.525-0.549-3.525c-2.971-1.364-0.99-3.978-0.99-3.978c-3.85-0.795-1.266-4.434-1.266-4.434
						c-4.237,0-1.54-4.32-1.54-4.32c-3.466-1.138-1.596-4.604-1.596-4.604c-3.577,0-1.486-3.694-1.486-3.694
						c-2.254-1.705-0.057-3.468-0.057-3.468c-2.863-1.705-0.66-3.637-0.66-3.637c-3.412-1.079-1.87-3.751-1.87-3.751
						c-3.301,1.479-3.631-2.046-3.631-2.046c-3.52,2.046-4.511-0.797-4.511-0.797c-0.936,2.728-3.466,1.08-3.466,1.08
						c-0.384,3.581-3.301,1.307-3.301,1.307c-0.66,2.841-3.355,0.91-3.355,0.91c-1.594,3.297-3.466,0.568-3.466,0.568
						c-0.769,2.842-2.917,0.456-2.917,0.456C112.118,146.735,111.184,144.176,111.184,144.176z"/>
				</g>
				<polygon style="fill:#C7B299;" points="87.567,229.037 123.463,293.534 127.25,291.379 90.951,228.179 				"/>
				<path style="fill:#C7B299;" d="M118.478,294.675l15.368-8.763c0,0,6.358,28.168,0.978,30.777
					C129.443,319.299,122.026,325.822,118.478,294.675z"/>
				<g>
					<path style="fill:#603813;" d="M135.391,293.875l-15.856,8.37c0.194,1.137,0.396,2.188,0.603,3.185l15.77-8.324
						C135.741,295.988,135.566,294.902,135.391,293.875z"/>
					<path style="fill:#603813;" d="M136.779,304.421c-0.089-1.096-0.205-2.212-0.336-3.326l-15.399,8.129
						c0.307,1.113,0.624,2.111,0.95,3.002L136.779,304.421z"/>
				</g>
				<path style="fill:#C69C6D;" d="M62.367,141.556c0,0,50.209-41.947,96.319-5.894c0,0-2.066-32.049-44.457-32.694
					C77.344,102.408,62.367,123.399,62.367,141.556z"/>
			</g>
		</g>
	</g>
	<g>
		<path style="opacity:0.2;fill-rule:evenodd;clip-rule:evenodd;" d="M34.088,56.886h61.499l1.932,3.345l0.009-0.005l7.556,13.087
			l4.624,8.011l4.614-7.989l7.566-13.103v-0.022l1.919-3.323h62.104c3.07,0,5.858-1.253,7.874-3.269
			c2.016-2.016,3.269-4.805,3.269-7.874V14.803c0-3.069-1.253-5.858-3.269-7.874s-4.804-3.269-7.874-3.269H34.088
			c-3.07,0-5.858,1.253-7.874,3.269s-3.269,4.805-3.269,7.874v30.941c0,3.069,1.253,5.858,3.269,7.874h0.02
			C28.254,55.635,31.035,56.886,34.088,56.886L34.088,56.886z M98.662,46.184H34.088c-0.124,0-0.237-0.049-0.318-0.123l0.01-0.01
			c-0.081-0.081-0.133-0.191-0.133-0.308V14.803c0-0.116,0.052-0.227,0.133-0.308c0.08-0.081,0.191-0.133,0.308-0.133h151.824
			c0.116,0,0.227,0.052,0.308,0.133c0.081,0.08,0.133,0.191,0.133,0.308v30.941c0,0.116-0.052,0.227-0.133,0.308
			c-0.08,0.081-0.191,0.133-0.308,0.133h-65.167h-3.063l-1.556,2.697l-3.467,6.003l-0.009-0.005l-2.953,5.113l-2.939-5.091v-0.022
			l-3.477-6.02l-1.545-2.675H98.662z"/>
		<path style="fill-rule:evenodd;clip-rule:evenodd;fill:#FFFFFF;" d="M34.088,53.225h61.499l1.932,3.345l0.009-0.005l7.556,13.087
			l4.624,8.011l4.614-7.988l7.566-13.103v-0.022l1.919-3.323h62.104c3.07,0,5.858-1.253,7.874-3.269
			c2.016-2.016,3.269-4.805,3.269-7.874V11.142c0-3.069-1.253-5.858-3.269-7.874S188.982,0,185.912,0H34.088
			c-3.07,0-5.858,1.253-7.874,3.269s-3.269,4.805-3.269,7.874v30.941c0,3.069,1.253,5.858,3.269,7.874h0.02
			C28.254,51.974,31.035,53.225,34.088,53.225L34.088,53.225z M98.662,42.524H34.088c-0.124,0-0.237-0.049-0.318-0.123l0.01-0.01
			c-0.081-0.081-0.133-0.191-0.133-0.308V11.142c0-0.116,0.052-0.227,0.133-0.308c0.08-0.081,0.191-0.133,0.308-0.133h151.824
			c0.116,0,0.227,0.052,0.308,0.133c0.081,0.081,0.133,0.191,0.133,0.308v30.941c0,0.116-0.052,0.227-0.133,0.308
			c-0.08,0.081-0.191,0.133-0.308,0.133h-65.167h-3.063l-1.556,2.697l-3.467,6.003l-0.009-0.005l-2.953,5.114l-2.939-5.092v-0.022
			l-3.477-6.02l-1.545-2.675H98.662z"/>
		<path style="fill-rule:evenodd;clip-rule:evenodd;fill:#C12564;" d="M34.088,46.186h64.574l3.477,6.02l7.565,13.105l7.565-13.105
			l3.476-6.02h65.167c3.185,0,5.791-2.606,5.791-5.791V9.452c0-3.185-2.606-5.79-5.791-5.79H34.088c-3.185,0-5.791,2.605-5.791,5.79
			v30.942C28.297,43.578,30.903,46.186,34.088,46.186z"/>
		<path style="fill-rule:evenodd;clip-rule:evenodd;fill:#E6E6E6;" d="M97.519,56.571L97.519,56.571L97.519,56.571z M109.709,70.153
			L98.05,50.501H34.088c-3.053,0-5.834-1.251-7.853-3.269h-0.02c-2.016-2.016-3.269-4.805-3.269-7.874v2.725
			c0,3.069,1.253,5.858,3.269,7.874h0.02c2.02,2.017,4.8,3.269,7.853,3.269h61.499l1.941,3.34l7.556,13.087l4.624,8.011l4.614-7.988
			l7.566-13.103v-0.022l1.919-3.323h62.104c3.07,0,5.858-1.253,7.874-3.269c2.016-2.016,3.269-4.805,3.269-7.874v-2.725
			c0,3.069-1.253,5.858-3.269,7.874c-2.016,2.016-4.804,3.269-7.874,3.269h-64.848L109.709,70.153z"/>
		<path style="fill-rule:evenodd;clip-rule:evenodd;fill:#5D1230;" d="M98.662,38.725H34.088c-0.147,0-0.295-0.005-0.441-0.017
			c-2.981-0.227-5.351-2.738-5.351-5.775v7.46c0,3.037,2.37,5.547,5.351,5.775c0.145,0.011,0.292,0.017,0.441,0.017h64.574
			l0.691,1.195l2.786,4.825l7.565,13.105l7.565-13.105l2.786-4.825l0.69-1.195h65.167c0.148,0,0.295-0.005,0.441-0.017
			c2.981-0.227,5.351-2.738,5.351-5.775v-7.46c0,3.037-2.37,5.547-5.351,5.775c-0.145,0.011-0.294,0.017-0.441,0.017h-65.167
			l-2.193,3.798l-1.283,2.221l-7.565,13.105l-7.565-13.105l-1.283-2.221L98.662,38.725z"/>
		<path style="fill-rule:evenodd;clip-rule:evenodd;fill:#E26A9A;" d="M98.662,37.036H34.088c-0.147,0-0.295-0.005-0.441-0.017
			c-2.981-0.227-5.351-2.738-5.351-5.775v1.689c0,3.037,2.37,5.547,5.351,5.775l0.441,0.017h64.574l2.193,3.798l1.283,2.221
			l7.565,13.105l7.565-13.105l1.283-2.221l2.193-3.798h65.167l0.441-0.017c2.981-0.227,5.351-2.738,5.351-5.775v-1.689
			c0,3.037-2.37,5.547-5.351,5.775c-0.145,0.011-0.294,0.017-0.441,0.017h-65.167l-3.476,6.02l-7.565,13.105l-7.565-13.105
			L98.662,37.036z"/>
		<path style="fill-rule:evenodd;clip-rule:evenodd;fill:#DA3F7E;" d="M28.297,14.362c0-3.185,2.606-5.79,5.791-5.79h151.824
			c3.185,0,5.791,2.605,5.791,5.79v-4.91c0-1.38-0.489-2.652-1.302-3.649c-1.065-1.305-2.684-2.141-4.489-2.141H34.088
			c-1.805,0-3.424,0.836-4.489,2.141c-0.813,0.997-1.302,2.269-1.302,3.649V14.362z"/>
		<path style="fill-rule:evenodd;clip-rule:evenodd;fill:#961D4E;" d="M185.912,29.887H34.088c-0.148,0-0.295-0.005-0.441-0.017
			c-2.981-0.227-5.351-2.736-5.351-5.773v7.148c0,3.037,2.37,5.547,5.351,5.775l0.441,0.017h64.574l3.477,6.02l7.565,13.105
			l7.565-13.105l3.476-6.02h65.167l0.441-0.017c2.981-0.227,5.351-2.738,5.351-5.775v-7.148c0,3.038-2.37,5.546-5.351,5.773
			C186.207,29.882,186.06,29.887,185.912,29.887z"/>
	</g>
	<g>
		<g>
			<path style="fill:#FFFFFF;" d="M58.269,19.873c-0.254-1.896-1.229-2.78-2.922-2.652c-1.694,0.127-2.626,1.271-2.796,3.431
				c-0.021,0.265-0.032,0.487-0.032,0.667c0,1.811,0.657,3.15,1.97,4.019c0.477,0.317,0.921,0.477,1.334,0.477
				c0.879,0,1.652-0.678,2.319-2.033l4.447,0.317c-1.324,4.193-3.198,6.247-5.623,6.163c-2.425-0.085-4.002-0.302-4.733-0.651
				c-1.334-0.636-2.298-1.773-2.891-3.415c-0.35-0.964-0.636-2.478-0.858-4.543c-0.063-0.593-0.095-1.122-0.095-1.588
				c0-2.393,0.604-4.336,1.811-5.829c1.303-1.609,3.124-2.414,5.464-2.414c0.498,0,0.979,0.031,1.445,0.095
				c2.859,0.393,4.638,2.901,5.337,7.529L58.269,19.873z"/>
			<path style="fill:#FFFFFF;" d="M67.719,13.313c0.709-0.159,1.403-0.238,2.081-0.238c3.283,0,5.395,1.704,6.337,5.114
				c0.487,1.769,0.704,3.802,0.651,6.099l-0.127,5.448l-4.114,0.254l-0.032-0.746c-5.167-0.18-7.862-1.451-8.085-3.813
				c-0.032-0.339-0.047-0.587-0.047-0.746c0-1.927,0.773-3.135,2.319-3.621c0.773-0.244,1.541-0.365,2.303-0.365
				c1.017,0,2.054,0.206,3.113,0.619c-0.011-1.821-0.032-2.785-0.064-2.891c-0.212-0.73-0.916-1.144-2.112-1.239
				c-1.017-0.085-1.991,0.763-2.922,2.541l-4.066-0.635C64.055,15.706,65.644,13.779,67.719,13.313z M70.356,23.526
				c-1.112,0-1.694,0.291-1.747,0.873c-0.085,0.848,1.165,1.535,3.748,2.065l-0.111-2.748C71.505,23.59,70.875,23.526,70.356,23.526
				z"/>
			<path style="fill:#FFFFFF;" d="M80.871,14.139l0.222,1.779c1.387-1.408,2.621-2.112,3.701-2.112c1.387,0,2.515,1.17,3.383,3.51
				c0.879-1.684,2.054-2.525,3.526-2.525c0.614,0,1.276,0.143,1.985,0.429c1.758,0.71,2.637,3.468,2.637,8.275
				c0,1.801-0.122,3.892-0.365,6.274l-3.129,0.127c0-0.657,0-1.276,0-1.858c0-5.687-0.611-8.529-1.834-8.529
				c-1.212,0-1.818,1.874-1.818,5.622c0,1.409,0.09,3.082,0.27,5.02h-3.59c0.127-1.567,0.191-2.976,0.191-4.225
				c0-2.637-0.276-4.532-0.826-5.687c-0.296-0.614-0.651-0.922-1.064-0.922c-0.731,0-1.647,0.97-2.748,2.907v8.402l-3.542-0.111
				l-0.587-15.74L80.871,14.139z"/>
			<path style="fill:#FFFFFF;" d="M100.788,11.613c3.537,0,5.818,1.372,6.846,4.114c0.254,0.678,0.381,1.323,0.381,1.938
				c0,2.573-2.33,4.41-6.989,5.512l0.508,7.227l-4.193,0.254l-0.254-18.631C98.442,11.751,99.676,11.613,100.788,11.613z
				 M103.758,17.062c-0.042-0.614-1.08-1.165-3.113-1.652l0.254,3.686C102.848,18.354,103.8,17.676,103.758,17.062z"/>
			<path style="fill:#FFFFFF;" d="M113.257,23.304c0.476,1.599,1.487,2.436,3.034,2.51c1.439,0.074,2.414-0.684,2.922-2.271
				l4.447-0.636c-1.133,4.648-3.383,6.973-6.75,6.973c-1.038,0-2.197-0.238-3.479-0.715c-2.373-1.354-3.558-3.96-3.558-7.814
				c0-0.328,0.01-0.693,0.032-1.096c0.233-4.458,2.403-7.047,6.511-7.767c3.896-0.085,6.141,2.624,6.734,8.126L113.257,23.304z
				 M114.472,17.642c-0.588,0.693-0.908,1.532-0.961,2.518l5.956-1.7c-0.688-1.238-1.546-1.858-2.572-1.858
				C115.867,16.601,115.06,16.948,114.472,17.642z"/>
			<path style="fill:#FFFFFF;" d="M123.199,28.847l1.875-4.257c2.393,1.557,4.246,2.335,5.559,2.335c0.466,0,0.916-0.138,1.35-0.413
				c0.488-0.307,0.731-0.683,0.731-1.127c0-0.668-0.89-1.229-2.669-1.685c-2.572-0.656-4.305-2.006-5.193-4.05
				c-0.297-0.678-0.445-1.303-0.445-1.874c0-1.218,0.625-2.282,1.875-3.192c1.069-0.784,2.662-1.176,4.781-1.176
				c1.492,0,3.25,0.196,5.272,0.588l-1.351,4.066c-1.535-0.688-2.779-1.033-3.732-1.033c-0.465,0-0.904,0.102-1.318,0.303
				c-0.508,0.243-0.762,0.572-0.762,0.985c0,0.382,0.339,0.79,1.017,1.225c0.466,0.297,1.376,0.711,2.731,1.24
				c1.145,0.445,1.97,0.891,2.479,1.336c0.74,0.646,1.133,1.517,1.175,2.608c0.074,1.791-0.763,3.419-2.509,4.882
				c-0.742,0.625-1.827,0.938-3.257,0.938C128.891,30.546,126.355,29.98,123.199,28.847z"/>
			<path style="fill:#FFFFFF;" d="M140.051,11.82c0.233,0,0.445,0.031,0.636,0.095c0.89,0.297,1.472,0.848,1.747,1.652
				c0.085,0.243,0.127,0.487,0.127,0.73c0,0.54-0.217,1.075-0.65,1.604c-0.625,0.762-1.346,1.106-2.16,1.032
				c-0.816-0.074-1.478-0.514-1.986-1.318c-0.232-0.371-0.349-0.747-0.349-1.128c0-0.487,0.169-1.001,0.508-1.541
				C138.643,12.196,139.353,11.82,140.051,11.82z M142.466,18.586c-0.169,3.929-0.382,7.825-0.636,11.69l-4.066,0.381
				c0.148-1.651,0.223-3.33,0.223-5.035c0-2.117-0.116-4.267-0.35-6.448L142.466,18.586z"/>
			<path style="fill:#FFFFFF;" d="M146.914,13.504l0.254,1.778c2.064-1.45,3.758-2.176,5.082-2.176c1.229,0,2.139,0.619,2.732,1.858
				c0.899,1.885,1.35,4.982,1.35,9.292c0,1.546-0.059,3.251-0.174,5.114l-4.289,0.143c0.339-2.287,0.508-4.219,0.508-5.797
				c0-1.928-0.254-3.32-0.762-4.178c-0.328-0.55-0.705-0.826-1.128-0.826c-0.815,0-1.812,0.959-2.986,2.875v8.402l-3.876-0.111
				l-0.65-15.74L146.914,13.504z"/>
			<path style="fill:#FFFFFF;" d="M157.206,23.24c0.073-2.414,0.672-4.489,1.794-6.227c1.335-2.075,3.119-3.113,5.354-3.113
				c2.361,0,4.066,0.583,5.114,1.747c0.857,0.953,1.53,2.658,2.017,5.115c0.191,0.963,0.287,1.874,0.287,2.731
				c0,1.843-0.456,3.378-1.367,4.606c-1.334,1.8-3.361,2.657-6.082,2.573c-2.5-0.074-4.332-0.71-5.496-1.906
				C157.661,27.571,157.121,25.729,157.206,23.24z M166.545,19.428c-0.741-0.698-1.439-1.048-2.096-1.048
				c-0.806,0-1.547,0.529-2.225,1.588c-0.604,0.943-0.904,1.858-0.904,2.748c0,0.837,0.274,1.694,0.825,2.573
				c0.614,0.984,1.323,1.478,2.128,1.478c0.922,0,1.764-0.482,2.525-1.446c0.73-0.91,1.097-1.837,1.097-2.779
				C167.896,21.524,167.445,20.487,166.545,19.428z"/>
		</g>
	</g>
</g>
</svg>
