<?xml version="1.0" encoding="utf-8"?>
<!-- Generator: Adobe Illustrator 21.0.0, SVG Export Plug-In . SVG Version: 6.00 Build 0)  -->
<svg version="1.1" id="Capa_1" xmlns="http://www.w3.org/2000/svg" xmlns:xlink="http://www.w3.org/1999/xlink" x="0px" y="0px"
	 viewBox="0 0 224 381.383" style="enable-background:new 0 0 224 381.383;" xml:space="preserve">
<g>
	<g>
		<g>
			<rect x="4" y="62.385" style="opacity:0.2;" width="220" height="318.998"/>
			<rect y="58.384" style="fill:#FFFFFF;" width="220" height="318.998"/>
			<rect x="9.04" y="65.184" style="fill:#E6E6E6;" width="201.921" height="304.349"/>
			
				<linearGradient id="SVGID_1_" gradientUnits="userSpaceOnUse" x1="525.8069" y1="1391.9054" x2="772.1165" y2="1391.9054" gradientTransform="matrix(0 1 -1 0 1501.9058 -460.6227)">
				<stop  offset="0" style="stop-color:#FFFFFF;stop-opacity:0"/>
				<stop  offset="0.2219" style="stop-color:#FCFCFC;stop-opacity:0.2219"/>
				<stop  offset="0.3578" style="stop-color:#F4F4F4;stop-opacity:0.3578"/>
				<stop  offset="0.4706" style="stop-color:#E6E6E6;stop-opacity:0.4706"/>
				<stop  offset="0.5708" style="stop-color:#D1D1D1;stop-opacity:0.5708"/>
				<stop  offset="0.6626" style="stop-color:#B6B6B6;stop-opacity:0.6626"/>
				<stop  offset="0.7484" style="stop-color:#969696;stop-opacity:0.7484"/>
				<stop  offset="0.8294" style="stop-color:#6F6F6F;stop-opacity:0.8294"/>
				<stop  offset="0.9067" style="stop-color:#424242;stop-opacity:0.9067"/>
				<stop  offset="0.9784" style="stop-color:#101010;stop-opacity:0.9784"/>
				<stop  offset="1" style="stop-color:#000000"/>
			</linearGradient>
			<rect x="9.04" y="65.184" style="opacity:0.2;fill:url(#SVGID_1_);" width="201.921" height="246.31"/>
		</g>
	</g>
	<g>
		<defs>
			<filter id="Adobe_OpacityMaskFilter" filterUnits="userSpaceOnUse" x="49.24" y="340.654" width="104.605" height="27.047">
				<feFlood  style="flood-color:white;flood-opacity:1" result="back"/>
				<feBlend  in="SourceGraphic" in2="back" mode="normal"/>
			</filter>
		</defs>
		<mask maskUnits="userSpaceOnUse" x="49.24" y="340.654" width="104.605" height="27.047" id="XMLID_2_">
		</mask>
		
			<ellipse id="XMLID_38_" transform="matrix(1 -0.0098 0.0098 1 -3.4557 1.0091)" style="opacity:0.5;mask:url(#XMLID_2_);fill:#999999;" cx="101.543" cy="354.178" rx="52.305" ry="13.514"/>
		<g>
			<g>
				<g>
					<g id="XMLID_359_">
						
							<rect id="XMLID_360_" x="69.777" y="327.981" transform="matrix(0.1165 -0.9932 0.9932 0.1165 -254.2805 380.4344)" style="fill:#7F4A33;stroke:#35120C;stroke-linecap:round;stroke-linejoin:round;stroke-miterlimit:10;" width="33.821" height="10.315"/>
					</g>
					<g id="XMLID_357_">
						
							<rect id="XMLID_358_" x="112.718" y="316.228" transform="matrix(0.9932 -0.1165 0.1165 0.9932 -37.9995 15.9967)" style="fill:#7F4A33;stroke:#35120C;stroke-linecap:round;stroke-linejoin:round;stroke-miterlimit:10;" width="10.315" height="33.821"/>
					</g>
					<path style="fill:#FFFFFF;" d="M134.93,353.486c0,3.352-3.208,3.555-11.662,3.555c-8.456,0-14.944-0.202-14.944-3.555
						c0-3.35,6.851-6.064,15.304-6.064C132.082,347.422,134.93,350.136,134.93,353.486z"/>
					<path style="fill:#FFFFFF;" d="M70.125,353.486c0,3.352,3.206,3.555,11.663,3.555c8.451,0,14.943-0.202,14.943-3.555
						c0-3.35-6.854-6.064-15.31-6.064C72.971,347.422,70.125,350.136,70.125,353.486z"/>
				</g>
				<path style="fill:#7F4A33;stroke:#35120C;stroke-linecap:round;stroke-linejoin:round;stroke-miterlimit:10;" d="
					M127.414,231.352l-0.523,8.477c0,0,20.461,18,40.1,0.225l-11.324-8.803C145.676,241.683,127.853,232.052,127.414,231.352z"/>
				<g>
					<path style="fill:#C98150;stroke:#35120C;stroke-linecap:round;stroke-linejoin:round;stroke-miterlimit:10;" d="
						M175.67,234.29c0,0,11.686-19.594,5.906-27.663c0,0-1.012-5.079-5.15-6.111c0,0-0.396-1.732-1.862-2.596
						c-1.156-0.681-3.881-1.626-5.667,1.139c-1.789,2.765,1.198,10.015-0.343,13.57c0,0-3.901-5.58-8.733-4.266
						c-4.702,1.277-5.487,1.153-6.761,2.734c-1.274,1.575-0.841,3.156,0.88,4.013c1.718,0.861,3.063,0.149,4.59-0.253
						c1.524-0.405,2.554-0.602,4.193,0.945c2.236,2.109,2.309,5.917,0.256,7.813c-1.088,1.004-3.862,1.597-4.93,0.29
						c-1.274-1.564-0.554-4.272-2.045-6.446c-1.08-1.572-3.617-2.964-5.242-2.374c-1.623,0.593-3.068,2.776-1.955,4.379
						c1.111,1.606,4.252,3.51,4.089,8.972c-0.096,3.181,3.178,8.097,6.024,8.8c1.226,0.307,1.207,0.754,3.066,2.239
						C166.499,243.068,172.481,241.172,175.67,234.29z"/>
				</g>
				<g>
					<path style="fill:#7F4A33;stroke:#35120C;stroke-linecap:round;stroke-linejoin:round;stroke-miterlimit:10;" d="
						M168.867,211.524c1.417,1.171,2.287,2.404,2.287,2.404c1.541-3.555-1.446-10.805,0.343-13.57
						c1.117-1.73,2.602-2.007,3.841-1.806c-0.218-0.232-0.467-0.453-0.772-0.632c-1.156-0.681-3.881-1.626-5.667,1.139
						C167.278,201.563,169.565,207.739,168.867,211.524z"/>
					<path style="fill:#7F4A33;stroke:#35120C;stroke-linecap:round;stroke-linejoin:round;stroke-miterlimit:10;" d="
						M165.58,224.914c2.053-1.895,1.98-5.704-0.256-7.813c-0.986-0.93-1.752-1.224-2.537-1.227c2.167,2.122,2.225,5.864,0.194,7.74
						c-0.584,0.539-1.652,0.948-2.683,1.019c0.099,0.201,0.209,0.395,0.351,0.57C161.718,226.511,164.491,225.918,165.58,224.914z"
						/>
					<path style="fill:#7F4A33;stroke:#35120C;stroke-linecap:round;stroke-linejoin:round;stroke-miterlimit:10;" d="
						M153.941,215.11c0.514,0.258,0.993,0.363,1.456,0.39c-0.671-0.864-0.644-1.983,0.263-3.103
						c1.274-1.581,2.059-1.457,6.761-2.734c1.128-0.307,2.201-0.228,3.189,0.057c-1.54-1.101-3.562-1.962-5.788-1.357
						c-4.702,1.277-5.487,1.153-6.761,2.734C151.787,212.671,152.22,214.252,153.941,215.11z"/>
					<path style="fill:#7F4A33;stroke:#35120C;stroke-linecap:round;stroke-linejoin:round;stroke-miterlimit:10;" d="
						M164.587,240.773c-1.859-1.485-1.839-1.932-3.066-2.239c-0.396-0.098-0.799-0.284-1.201-0.528
						c0.364,0.331,0.816,0.787,1.668,1.467c0.912,0.727,1.885,1.217,2.882,1.499C164.776,240.904,164.679,240.847,164.587,240.773z"
						/>
					<path style="fill:#7F4A33;stroke:#35120C;stroke-linecap:round;stroke-linejoin:round;stroke-miterlimit:10;" d="
						M155.497,229.734c0.163-5.462-2.978-7.366-4.089-8.972c-1.114-1.603,0.332-3.786,1.955-4.379c0.475-0.172,1.029-0.161,1.6-0.04
						c-1.245-1.029-2.979-1.703-4.199-1.26c-1.623,0.593-3.068,2.776-1.955,4.379c1.111,1.606,4.252,3.51,4.089,8.972
						c-0.096,3.181,3.178,8.097,6.024,8.8c0.258,0.064,0.454,0.138,0.631,0.223C157.358,235.671,155.423,232.19,155.497,229.734z"/>
				</g>
				<path style="fill:#35120C;stroke:#35120C;stroke-linecap:round;stroke-linejoin:round;stroke-miterlimit:10;" d="
					M180.553,207.027c0,0-0.059-0.025-0.18-0.065c-0.121-0.037-0.301-0.087-0.537-0.112c-0.236-0.025-0.529-0.034-0.866,0.037
					c-0.338,0.067-0.712,0.262-1.004,0.591l-0.056,0.059c-0.014,0.023-0.011,0.006-0.039,0.048l-0.02,0.034
					c-0.028,0.045-0.056,0.076-0.084,0.138c-0.056,0.121-0.098,0.239-0.127,0.346c-0.059,0.228-0.096,0.458-0.121,0.695
					c-0.054,0.467-0.056,0.953-0.054,1.454c0.003,1.004,0.059,2.059,0.07,3.111c0.02,1.055,0.003,2.104-0.059,3.082
					c-0.065,0.979-0.163,1.896-0.323,2.663c-0.158,0.771-0.312,1.415-0.467,1.848c-0.141,0.441-0.233,0.695-0.233,0.695
					s0.034-0.059,0.096-0.169c0.053-0.112,0.158-0.264,0.253-0.478c0.202-0.419,0.472-1.038,0.695-1.811
					c0.113-0.388,0.214-0.813,0.307-1.263c0.087-0.453,0.18-0.934,0.225-1.434c0.118-1.001,0.152-2.076,0.141-3.139
					c-0.02-1.069-0.076-2.132-0.129-3.119c-0.022-0.492-0.039-0.967-0.031-1.409c0.006-0.219,0.022-0.433,0.056-0.621
					c0.017-0.104,0.042-0.186,0.065-0.253c0.008-0.039,0.045-0.09,0.068-0.132l0.014-0.034c-0.014,0.022,0.011-0.008,0.011-0.011
					l0.039-0.053c0.433-0.582,1.128-0.72,1.569-0.734C180.288,206.973,180.553,207.027,180.553,207.027z"/>
				<path style="fill:#35120C;stroke:#35120C;stroke-linecap:round;stroke-linejoin:round;stroke-miterlimit:10;" d="
					M175.783,201.098c0,0-0.068-0.02-0.208-0.022c-0.135-0.003-0.346,0.006-0.582,0.124c-0.239,0.113-0.495,0.34-0.672,0.669
					c-0.18,0.326-0.29,0.737-0.329,1.184c-0.037,0.45-0.025,0.917-0.022,1.412c0,0.495,0.008,1.018,0.025,1.555
					c0.025,1.077,0.07,2.222,0.082,3.364c0.017,0.577,0.017,1.145,0.014,1.71c-0.006,0.56-0.006,1.114-0.025,1.648
					c-0.025,0.534-0.039,1.049-0.073,1.538c-0.034,0.489-0.079,0.948-0.138,1.375c-0.051,0.422-0.129,0.807-0.174,1.153
					c-0.076,0.34-0.141,0.636-0.197,0.878c-0.143,0.484-0.222,0.759-0.222,0.759s0.124-0.261,0.338-0.717
					c0.087-0.242,0.191-0.529,0.309-0.864c0.09-0.34,0.219-0.723,0.298-1.15c0.093-0.428,0.174-0.891,0.242-1.384
					c0.073-0.495,0.138-1.018,0.174-1.558c0.09-1.086,0.101-2.242,0.09-3.397c-0.022-1.153-0.073-2.306-0.152-3.383
					c-0.056-1.066-0.191-2.093-0.2-2.917c0.011-0.416,0.07-0.79,0.183-1.097c0.118-0.312,0.312-0.537,0.512-0.667
					c0.2-0.132,0.391-0.183,0.523-0.203C175.71,201.09,175.783,201.098,175.783,201.098z"/>
				<path style="fill:#35120C;stroke:#35120C;stroke-linecap:round;stroke-linejoin:round;stroke-miterlimit:10;" d="
					M170.411,232.353c0,0-0.366-0.315-1.004-0.644c-0.326-0.149-0.706-0.335-1.147-0.447c-0.436-0.129-0.923-0.191-1.409-0.197
					c-0.248,0.017-0.492,0.014-0.728,0.073c-0.118,0.028-0.236,0.048-0.351,0.073c-0.11,0.039-0.219,0.082-0.329,0.118
					c-0.219,0.07-0.411,0.183-0.588,0.295c-0.09,0.056-0.177,0.107-0.261,0.158c-0.076,0.062-0.146,0.127-0.217,0.183
					c-0.135,0.121-0.27,0.219-0.363,0.332c-0.093,0.113-0.172,0.214-0.239,0.295c-0.129,0.163-0.202,0.256-0.202,0.256
					s0.09-0.079,0.248-0.214c0.076-0.07,0.169-0.155,0.276-0.25c0.104-0.096,0.25-0.171,0.388-0.276
					c0.07-0.048,0.146-0.101,0.222-0.155c0.082-0.042,0.172-0.082,0.259-0.124c0.177-0.093,0.366-0.177,0.574-0.233
					c0.101-0.034,0.205-0.068,0.307-0.096c0.113-0.022,0.222-0.039,0.329-0.059c0.222-0.053,0.453-0.042,0.681-0.059
					c0.228-0.006,0.458,0.017,0.681,0.037c0.225,0.039,0.447,0.056,0.658,0.112c0.425,0.09,0.813,0.222,1.145,0.343
					c0.323,0.132,0.599,0.236,0.782,0.335C170.304,232.299,170.411,232.353,170.411,232.353z"/>
				<path style="fill:#35120C;stroke:#35120C;stroke-linecap:round;stroke-linejoin:round;stroke-miterlimit:10;" d="
					M168.111,217.461c0,0,0.197,0.92,0.616,2.264c0.217,0.667,0.461,1.454,0.782,2.275c0.312,0.821,0.681,1.687,1.066,2.545
					c0.208,0.422,0.408,0.847,0.621,1.257c0.222,0.408,0.422,0.816,0.653,1.195c0.222,0.38,0.43,0.751,0.661,1.083
					c0.228,0.335,0.43,0.658,0.638,0.942c0.416,0.571,0.785,1.029,1.063,1.33c0.273,0.309,0.428,0.484,0.428,0.484
					s-0.138-0.191-0.38-0.523c-0.118-0.166-0.279-0.354-0.433-0.596c-0.158-0.239-0.338-0.503-0.529-0.796
					c-0.194-0.29-0.38-0.624-0.591-0.962c-0.214-0.34-0.397-0.723-0.619-1.1c-0.219-0.377-0.411-0.788-0.624-1.193
					c-0.208-0.411-0.399-0.835-0.602-1.254c-0.394-0.847-0.771-1.701-1.097-2.514c-0.329-0.81-0.63-1.572-0.872-2.23
					C168.403,218.352,168.111,217.461,168.111,217.461z"/>
				<path style="fill:#35120C;stroke:#35120C;stroke-linecap:round;stroke-linejoin:round;stroke-miterlimit:10;" d="
					M162.553,226.053c0,0,0.2,0.428,0.388,1.094c0.099,0.332,0.183,0.726,0.242,1.147c0.034,0.211,0.037,0.433,0.059,0.655
					c-0.008,0.225,0.02,0.453-0.02,0.675c-0.014,0.225-0.037,0.45-0.093,0.667c-0.037,0.219-0.101,0.427-0.172,0.63
					c-0.059,0.202-0.152,0.385-0.233,0.565c-0.073,0.18-0.172,0.34-0.27,0.481c-0.098,0.141-0.169,0.287-0.256,0.394
					c-0.09,0.11-0.169,0.205-0.231,0.284c-0.127,0.16-0.2,0.253-0.2,0.253s0.09-0.076,0.245-0.208
					c0.076-0.07,0.169-0.155,0.276-0.25c0.107-0.098,0.2-0.231,0.312-0.368c0.115-0.138,0.231-0.292,0.326-0.475
					c0.104-0.177,0.225-0.363,0.293-0.577c0.081-0.211,0.169-0.427,0.211-0.661c0.062-0.231,0.09-0.47,0.11-0.709
					c0.034-0.239,0.003-0.478,0.008-0.717c-0.022-0.233-0.048-0.464-0.09-0.683c-0.082-0.439-0.222-0.832-0.349-1.161
					C162.84,226.43,162.553,226.053,162.553,226.053z"/>
				<path style="fill:#35120C;stroke:#35120C;stroke-linecap:round;stroke-linejoin:round;stroke-miterlimit:10;" d="
					M166.57,223.827c0,0,0.25,0.397,0.624,0.993c0.188,0.293,0.394,0.647,0.619,1.021c0.222,0.377-0.007-0.07,0.21,0.341
					c0.225,0.405,0.43,0.818,0.605,1.215c0.177,0.397,0.329,0.771,0.422,1.102c0.059,0.166,0.084,0.321,0.118,0.458
					c0.037,0.138,0.056,0.259,0.059,0.36c0.023,0.205,0.034,0.321,0.034,0.321s0.011-0.115,0.028-0.323
					c0.014-0.104,0.011-0.228-0.003-0.374c-0.014-0.143-0.014-0.309-0.062-0.481c-0.068-0.352-0.171-0.754-0.335-1.17
					c-0.158-0.419-0.363-0.847-0.585-1.26c-0.447-0.832-0.528-0.76-0.964-1.311C166.902,224.165,166.57,223.827,166.57,223.827z"/>
				<g id="XMLID_353_">
					
						<path id="XMLID_354_" style="fill:#7F4A33;stroke:#35120C;stroke-linecap:round;stroke-linejoin:round;stroke-miterlimit:10;" d="
						M75.405,233.229c0,0-17.572,38.587,8.646,47.859l-0.798-9.111c0,0-12.278-16.031-5.374-32.58L75.405,233.229z"/>
				</g>
				<path style="fill:#7AC943;" d="M79.558,259.569c0,0,6.625-19.032-3.026-30.462c-0.957,0.628-1.783,1.342-2.367,1.893
					c-4.607,4.349-11.109,17.014-12.164,19.89L79.558,259.569z"/>
				<path style="fill:#7AC943;" d="M130.118,255.81c0,0-18.524-11.472-2.704-26.709c0.957,0.628,9.792,4.486,17.92,6.11
					L130.118,255.81z"/>
				<g>
					<path style="fill:#7F4A33;stroke:#35120C;stroke-linecap:round;stroke-linejoin:round;stroke-miterlimit:10;" d="
						M78.369,229.92l15.651-6.87h15.754l16.524,6.94c0,0-12.329,11.144-23.765,11.035C91.097,240.917,78.369,229.92,78.369,229.92z"
						/>
					<path style="fill:#7AC943;" d="M121.66,227.038c0,0-6.717,9.571-19.696,9.373c-12.978,0.197-19.697-9.373-19.697-9.373
						l-5.751,2.063c4.142,7.532,9.813,41.682,9.813,41.682h15.635h15.634c0,0,5.673-34.15,9.816-41.682L121.66,227.038z"/>
				</g>
				<g>
					<path style="fill:#35120C;" d="M67.426,183.178c-0.189-1.182-1.387-2.001-2.689-1.831c-0.038,0.006-3.223,0.391-6.686-1.047
						c1.558,0.304,2.989,0.398,4.134,0.398c0.571,0,1.072-0.022,1.483-0.051c1.26-0.05,2.265-0.999,2.265-2.161
						c0-1.195-1.061-2.163-2.371-2.163c-0.045,0-0.149,0.003-0.309,0.014c-0.973,0.069-2.685,0.07-4.599-0.362
						c0.036-0.197,0.061-0.398,0.061-0.606c0-0.101-0.021-0.195-0.03-0.294c0.861,0.104,1.562,0.13,2.003,0.13
						c0.29,0,0.468-0.009,0.511-0.012c1.308-0.08,2.296-1.11,2.208-2.302c-0.087-1.192-1.238-2.099-2.522-2.014
						c-0.057,0.003-5.367,0.281-8.717-3.668c-0.801-0.944-2.291-1.118-3.326-0.387c-1.036,0.731-1.226,2.09-0.424,3.034
						c0.753,0.887,1.572,1.623,2.417,2.242c-0.554,0.011-1.106,0.19-1.547,0.558c-0.965,0.807-1.032,2.175-0.148,3.056
						c1.127,1.123,2.34,1.995,3.575,2.678c-0.309,0.13-0.595,0.316-0.828,0.57c-0.84,0.916-0.708,2.281,0.297,3.047
						c4.226,3.224,8.997,3.712,11.5,3.712c1.01,0,1.648-0.08,1.733-0.091C66.714,185.457,67.613,184.36,67.426,183.178z"/>
					<path style="fill:#7F4A33;stroke:#35120C;stroke-linecap:round;stroke-linejoin:round;stroke-miterlimit:10;" d="
						M67.548,179.962c0,0-3.098-10.857-7.992-10.857c-4.891,0-4.322,18.807,10.675,26.792L67.548,179.962z"/>
					<path style="fill:#35120C;" d="M157.207,168.294c0.801-0.945,0.61-2.303-0.424-3.034c-1.036-0.732-2.526-0.56-3.328,0.387
						c-3.29,3.877-8.48,3.674-8.727,3.667c-1.319-0.083-2.426,0.825-2.514,2.014c-0.087,1.192,0.902,2.223,2.208,2.302
						c0.043,0.003,0.223,0.012,0.511,0.012c0.429,0,1.101-0.023,1.931-0.12c0.041,0.3,0.109,0.589,0.216,0.862
						c-1.96,0.458-3.719,0.46-4.712,0.389c-0.159-0.012-0.264-0.015-0.307-0.015c-1.31,0-2.371,0.968-2.371,2.163
						c0,1.194,1.061,2.163,2.371,2.163l-0.065,0.001c0.403,0.029,0.895,0.051,1.459,0.051c1.121,0,2.529-0.092,4.066-0.388
						c-3.411,1.387-6.582,1.041-6.648,1.033c-1.288-0.164-2.488,0.653-2.675,1.833c-0.189,1.181,0.71,2.279,2.006,2.451
						c0.086,0.011,0.725,0.091,1.735,0.091c2.502,0,7.272-0.488,11.498-3.712c1.005-0.766,1.139-2.13,0.298-3.047
						c-0.233-0.254-0.518-0.44-0.828-0.57c1.233-0.683,2.446-1.555,3.573-2.677c0.885-0.881,0.818-2.249-0.147-3.056
						c-0.441-0.368-0.993-0.546-1.546-0.558C155.634,169.917,156.453,169.181,157.207,168.294z"/>
					<path style="fill:#7F4A33;stroke:#35120C;stroke-linecap:round;stroke-linejoin:round;stroke-miterlimit:10;" d="
						M137.371,179.962c0,0,3.115-11.541,8.01-11.541c4.894,0,5.026,20.79-10.696,27.477L137.371,179.962z"/>
					<path style="fill:#35120C;" d="M102.306,106.693c-26.553,0-42.858,9.301-42.858,39.8c0,9.086-3.276,15.052,0.109,22.612
						c3.041,5.986,5.586,9.574,5.586,9.574s-0.707-41.405,2.772-44.645c1.662-1.544,17.496,2.647,34.391,2.647
						c18.927,0,33.553-3.7,34.947-1.797c2.665,3.639,3.188,24.533,2.098,43.796c0.379-0.37,0.742-0.755,1.097-1.146
						c6.24-9.316,4.762-18.376,4.762-31.04C145.208,115.994,128.859,106.693,102.306,106.693z"/>
					<g>
						<g>
							<path id="XMLID_352_" style="fill-rule:evenodd;clip-rule:evenodd;fill:#562B1C;" d="M116.395,222.831L116.395,222.831
								c0,11.362-28.124,11.362-28.124,0l0,0C88.271,211.469,116.395,211.469,116.395,222.831z"/>
							<path style="fill:#7F4A33;stroke:#35120C;stroke-linecap:round;stroke-linejoin:round;stroke-miterlimit:10;" d="
								M102.521,122.4c0,0,24.14,0,26.893,0s9.575,4.347,10.282,26.239c1.395,42.913-0.443,54.121-15.817,70.337
								c-7.087,7.473-14.567,10.704-21.358,10.704c-6.602,0-14.275-3.231-21.361-10.704c-15.376-16.217-17.214-27.424-15.82-70.337
								c0.71-21.892,7.529-26.239,10.284-26.239C78.378,122.4,102.521,122.4,102.521,122.4z"/>
							<g>
								<g>
									<path style="fill:#35120C;" d="M128.343,159.625c-0.245-0.129-0.675-0.253-1.201-0.453
										c-0.529-0.194-1.164-0.442-1.911-0.605c-1.45-0.444-3.275-0.672-5.057-0.804c-3.599-0.174-7.013,0.571-7.608,0.7
										c-1.259,0.188-3.038,0.861-4.005-1.035c-0.537-0.979,0.439-1.958,1.932-2.599c1.489-0.664,3.488-0.97,4.933-1.055
										c1.437-0.132,4.582-0.042,7.509,0.712c0.727,0.208,1.453,0.385,2.125,0.616c0.667,0.256,1.299,0.498,1.882,0.72
										c1.121,0.523,2.005,0.987,2.483,1.243c0.906,0.622,1.949,1.192,2.617,1.941c0.695,0.714,1.142,1.384,1.058,1.913
										C132.888,161.99,130.393,160.48,128.343,159.625z"/>
								</g>
							</g>
							<g>
								<g>
									<path style="fill:#35120C;" d="M76.266,159.625c0.245-0.129,0.676-0.253,1.201-0.453c0.53-0.194,1.166-0.442,1.911-0.605
										c1.451-0.444,3.277-0.672,5.057-0.804c3.6-0.174,7.014,0.571,7.61,0.7c1.256,0.188,3.038,0.861,4.005-1.035
										c0.537-0.979-0.439-1.958-1.932-2.599c-1.492-0.664-3.488-0.97-4.933-1.055c-1.44-0.132-4.584-0.042-7.512,0.712
										c-0.726,0.208-1.453,0.385-2.123,0.616c-0.668,0.256-1.301,0.498-1.882,0.72c-1.122,0.523-2.007,0.987-2.485,1.243
										c-0.904,0.622-1.948,1.192-2.617,1.941c-0.695,0.714-1.142,1.384-1.058,1.913C71.722,161.99,74.215,160.48,76.266,159.625z
										"/>
								</g>
							</g>
							<g id="XMLID_341_">
								<g id="XMLID_347_">
									<path id="XMLID_351_" style="fill:#FFFFFF;" d="M82.537,164.102c-11.293,2.988-10.801,19.109,1.468,19.077
										C96.273,183.147,95.677,160.626,82.537,164.102z"/>
									
										<ellipse id="XMLID_350_" transform="matrix(0.0209 -0.9998 0.9998 0.0209 -91.1946 253.629)" cx="83.898" cy="173.376" rx="6.031" ry="4.774"/>
									
										<ellipse id="XMLID_349_" transform="matrix(0.0209 -0.9998 0.9998 0.0209 -90.4449 248.2646)" style="fill:#FFFFFF;" cx="81.532" cy="170.31" rx="2.848" ry="2.848"/>
									
										<ellipse id="XMLID_348_" transform="matrix(0.0209 -0.9998 0.9998 0.0209 -92.153 257.7449)" style="fill:#FFFFFF;" cx="85.52" cy="175.923" rx="1.089" ry="1.089"/>
								</g>
								<g id="XMLID_342_">
									<path id="XMLID_346_" style="fill:#FFFFFF;" d="M122.261,164.193c11.158,3.457,9.992,19.544-2.264,18.999
										C107.74,182.647,109.277,160.17,122.261,164.193z"/>
									
										<ellipse id="XMLID_345_" transform="matrix(0.0209 -0.9998 0.9998 0.0209 -54.89 290.7736)" cx="121.015" cy="173.412" rx="6.031" ry="4.774"/>
									
										<ellipse id="XMLID_344_" transform="matrix(0.0209 -0.9998 0.9998 0.0209 -54.14 285.4093)" style="fill:#FFFFFF;" cx="118.65" cy="170.347" rx="2.848" ry="2.848"/>
									
										<ellipse id="XMLID_343_" transform="matrix(0.0209 -0.9998 0.9998 0.0209 -55.8484 294.8896)" style="fill:#FFFFFF;" cx="122.637" cy="175.959" rx="1.089" ry="1.089"/>
								</g>
							</g>
							<g>
								<path d="M75.442,170.281c0.765-1.735,2.053-3.04,3.482-3.865s2.998-1.199,4.562-1.379c1.434-0.165,2.905-0.169,4.283,0.364
									c2.158,0.834,3.884,2.902,5.281,5.145c-0.135-0.478-0.311-0.938-0.51-1.379c-1.629-3.604-4.116-5.862-8.153-6.003
									c-2.122-0.074-4.233,0.556-6.115,1.769c-0.877,0.565-1.874,1.254-2.584,2.13c-0.325,0.401-0.351,0.502-0.365,1.094
									C75.311,168.644,75.625,169.867,75.442,170.281z"/>
								<path d="M75.186,168.646c-1.145,0.792-2.767,0.196-3.385-1.243c0.008,0.127,0.033,0.251,0.061,0.373
									c0.205,0.867,0.661,1.659,1.301,2.082c0.64,0.423,1.465,0.435,2.071-0.061c0.52-0.426,0.878-1.286,0.707-2.048
									C75.752,168.054,75.49,168.436,75.186,168.646z"/>
								<path d="M75.332,167.801c-1.305,0.114-2.574-1.28-2.646-2.91c-0.035,0.12-0.056,0.245-0.071,0.37
									c-0.109,0.893,0.036,1.851,0.473,2.572c0.437,0.721,1.18,1.166,1.898,1.035c0.615-0.112,1.232-0.703,1.335-1.484
									C76.046,167.562,75.679,167.771,75.332,167.801z"/>
							</g>
							<g>
								<path d="M128.957,170.321c-0.765-1.735-2.053-3.04-3.482-3.865c-1.429-0.825-2.998-1.199-4.562-1.379
									c-1.434-0.165-2.905-0.169-4.283,0.364c-2.158,0.834-3.884,2.902-5.281,5.145c0.135-0.478,0.311-0.938,0.51-1.379
									c1.629-3.604,4.116-5.862,8.153-6.003c2.122-0.074,4.233,0.556,6.115,1.769c0.877,0.565,1.874,1.254,2.584,2.13
									c0.325,0.401,0.351,0.502,0.365,1.094C129.089,168.685,128.775,169.908,128.957,170.321z"/>
								<path d="M129.213,168.686c1.145,0.792,2.767,0.196,3.385-1.243c-0.008,0.127-0.033,0.251-0.061,0.373
									c-0.205,0.867-0.661,1.659-1.301,2.082c-0.64,0.423-1.465,0.435-2.071-0.061c-0.52-0.426-0.878-1.286-0.707-2.048
									C128.648,168.094,128.909,168.477,129.213,168.686z"/>
								<path d="M129.067,167.842c1.305,0.114,2.574-1.28,2.646-2.91c0.036,0.12,0.056,0.245,0.071,0.37
									c0.109,0.893-0.036,1.851-0.473,2.572c-0.437,0.721-1.18,1.166-1.898,1.035c-0.615-0.112-1.232-0.703-1.335-1.484
									C128.354,167.603,128.72,167.812,129.067,167.842z"/>
							</g>
							<path id="XMLID_340_" style="fill:#562B1C;" d="M93.586,191.807c1.023-1.357,4.073,2.341,8.735,2.644
								c4.661,0.303,6.713-4.645,8.75-3.475c2.037,1.171-2.058,7.571-9.053,8.136C95.023,199.678,92.709,192.97,93.586,191.807z"/>
							<path style="fill:#562B1C;" d="M119.553,204.226c-0.278,0.247-0.564,0.478-0.851,0.715c-0.289,0.232-0.589,0.453-0.889,0.675
								c-0.303,0.221-0.616,0.427-0.94,0.622c-0.318,0.205-0.653,0.38-0.985,0.568c-0.167,0.091-0.342,0.165-0.513,0.248
								c-0.173,0.079-0.343,0.167-0.52,0.235c-0.352,0.141-0.702,0.301-1.062,0.42c-0.358,0.13-0.72,0.255-1.087,0.349
								c-0.366,0.1-0.732,0.21-1.101,0.288c-0.369,0.08-0.739,0.181-1.109,0.244c-0.371,0.067-0.745,0.124-1.117,0.183l-1.119,0.138
								c-0.374,0.052-0.745,0.073-1.119,0.109c-0.373,0.034-0.747,0.063-1.12,0.07l-1.118,0.034
								c-0.374,0.016-0.744,0.008-1.116,0.011l-1.115,0.002l0.259-0.001l-1.114-0.002c-0.372-0.002-0.742,0.004-1.115-0.011
								l-1.118-0.033c-0.372-0.005-0.747-0.04-1.119-0.072c-0.373-0.032-0.745-0.059-1.119-0.109l-1.118-0.137
								c-0.373-0.061-0.747-0.113-1.117-0.182c-0.371-0.072-0.741-0.163-1.11-0.244c-0.369-0.078-0.736-0.194-1.102-0.289
								c-0.367-0.093-0.728-0.227-1.086-0.351c-0.358-0.127-0.71-0.282-1.062-0.421l-0.519-0.239
								c-0.172-0.081-0.347-0.154-0.511-0.251l-0.498-0.274c-0.165-0.092-0.325-0.195-0.486-0.291
								c-0.325-0.191-0.634-0.404-0.94-0.619c-0.299-0.224-0.601-0.441-0.89-0.673c-0.288-0.235-0.574-0.467-0.853-0.712l0.072-0.12
								l0.945,0.551c0.315,0.184,0.636,0.355,0.955,0.53c0.325,0.162,0.645,0.336,0.977,0.482c0.166,0.074,0.328,0.155,0.496,0.225
								l0.504,0.206c0.335,0.139,0.681,0.251,1.021,0.377c0.348,0.103,0.692,0.221,1.043,0.312c0.353,0.085,0.701,0.191,1.058,0.258
								c0.357,0.068,0.709,0.157,1.069,0.209c0.359,0.055,0.717,0.121,1.078,0.166l1.083,0.128l1.088,0.089
								c0.362,0.034,0.726,0.046,1.09,0.063c0.364,0.013,0.727,0.041,1.091,0.042l1.092,0.015c0.364,0.01,0.728-0.002,1.092-0.005
								l1.093-0.015l-0.193,0l1.093,0.015c0.364,0.002,0.729,0.016,1.092,0.006l1.092-0.017c0.364,0,0.727-0.027,1.091-0.042
								c0.364-0.021,0.728-0.026,1.09-0.062l1.088-0.09l1.083-0.13c0.362-0.037,0.718-0.112,1.078-0.166
								c0.36-0.052,0.714-0.135,1.069-0.208c0.357-0.068,0.706-0.166,1.058-0.257c0.354-0.083,0.696-0.207,1.043-0.311
								c0.345-0.112,0.684-0.244,1.023-0.371c0.334-0.142,0.674-0.271,1-0.432c0.331-0.149,0.654-0.317,0.976-0.484
								c0.32-0.173,0.64-0.347,0.954-0.531l0.945-0.553L119.553,204.226z"/>
							<path style="fill:#C98150;" d="M117.337,205.581c-4.509-0.796-10.803-6.065-14.535-2.102
								c-3.732-3.964-10.026,1.306-14.535,2.102c4.356,9.239,11.283,12.102,14.494,12.116v0c0.013,0,0.027,0,0.041,0
								c0.013,0,0.028,0,0.041,0v0C106.054,217.683,112.981,214.82,117.337,205.581z"/>
							<path d="M116.405,206.046c0,0-10.94-2.659-13.603-1.143c-2.329-2.315-13.603,1.143-13.603,1.143s1.811,4.183,13.603,4.183
								C114.594,210.229,116.405,206.046,116.405,206.046z"/>
							<g>
								<defs>
									<path id="SVGID_2_" d="M116.405,206.046c0,0-10.94-2.659-13.603-1.143c-2.329-2.315-13.603,1.143-13.603,1.143
										s1.811,4.183,13.603,4.183C114.594,210.229,116.405,206.046,116.405,206.046z"/>
								</defs>
								<clipPath id="SVGID_3_">
									<use xlink:href="#SVGID_2_"  style="overflow:visible;"/>
								</clipPath>
								<path style="clip-path:url(#SVGID_3_);fill:#FFFFFF;" d="M90.74,213.021h24.109c0,0-1.897-2.995-1.897-5.854
									c0-2.859,1.897-7.013,1.897-7.013l-24.109-0.663c0,0,1.647,4.046,1.647,7.54C92.387,210.525,90.74,213.021,90.74,213.021z"
									/>
							</g>
							<g>
								<g>
									<path style="fill:#E6A67B;" d="M115.892,206.806c-0.167,0.091-0.342,0.165-0.513,0.248
										c-0.173,0.079-0.344,0.167-0.521,0.235c-0.352,0.141-0.702,0.301-1.062,0.42c-0.358,0.13-0.72,0.255-1.087,0.349
										c-0.366,0.1-0.732,0.21-1.101,0.288c-0.369,0.08-0.739,0.181-1.109,0.244c-0.371,0.067-0.745,0.124-1.117,0.183
										l-1.118,0.138c-0.374,0.052-0.746,0.073-1.119,0.109c-0.373,0.034-0.748,0.063-1.12,0.07l-1.118,0.034
										c-0.374,0.016-0.744,0.008-1.115,0.011l-1.115,0.002v-0.002l-0.855-0.001c-0.371-0.002-0.742,0.004-1.115-0.011
										l-1.118-0.033c-0.372-0.005-0.747-0.04-1.12-0.072c-0.373-0.032-0.745-0.059-1.119-0.109l-1.119-0.137
										c-0.373-0.061-0.747-0.113-1.117-0.182c-0.371-0.072-0.741-0.163-1.11-0.244c-0.369-0.078-0.736-0.194-1.102-0.289
										c-0.367-0.093-0.728-0.227-1.086-0.351c-0.359-0.127-0.71-0.282-1.062-0.421l-0.519-0.239
										c-0.172-0.081-0.347-0.154-0.511-0.251l-0.498-0.274c-0.165-0.092-0.324-0.195-0.486-0.291
										c-0.074-0.044-0.146-0.092-0.219-0.138c4.367,8.759,11.094,11.591,14.245,11.604h0.082
										c3.149-0.013,9.871-2.845,14.238-11.59c-0.07,0.044-0.138,0.089-0.208,0.131
										C116.559,206.443,116.224,206.617,115.892,206.806z"/>
								</g>
							</g>
						</g>
					</g>
					<g>
						<g>
							<path style="fill:#35120C;" d="M153.781,110.404c-0.225-3.244-4.585-4.267-4.585-4.267s3.323-2.391,1.315-5.635
								c-2.01-3.243-4.256-2.732-4.256-2.732s2.953-3.755,1.384-6.487c-1.571-2.732-5.583-2.903-5.583-2.903s0.621-3.756-2.27-5.805
								c-2.889-2.049-5.322-1.365-5.322-1.365s0.897-3.585-2.546-4.951c-3.445-1.366-5.751,0-5.751,0s-0.612-4.269-4.487-4.61
								c-3.877-0.341-5.396,1.195-5.396,1.195s0.024-3.585-4.095-4.268c-4.119-0.683-4.726,1.195-4.726,1.195
								s-0.674-2.003-3.568-2.345v-0.045c-0.183-0.008-0.355-0.004-0.526-0.001c-0.029-0.001-0.062,0.001-0.091,0
								c-0.029,0.001-0.062-0.001-0.091,0c-0.171-0.003-0.343-0.007-0.526,0.001v0.045c-2.894,0.342-3.57,2.345-3.57,2.345
								s-0.605-1.878-4.724-1.195c-4.119,0.683-4.095,4.268-4.095,4.268s-1.521-1.536-5.396-1.195
								c-3.875,0.341-4.487,4.61-4.487,4.61s-2.308-1.366-5.751,0c-3.443,1.366-2.546,4.951-2.546,4.951s-2.433-0.683-5.324,1.365
								c-2.889,2.049-2.268,5.805-2.268,5.805s-4.012,0.171-5.583,2.903c-1.571,2.732,1.382,6.487,1.382,6.487
								s-2.246-0.511-4.254,2.732c-2.009,3.243,1.313,5.635,1.313,5.635s-4.359,1.024-4.583,4.267c-0.223,3.244,3.27,4.61,3.27,4.61
								c-3.506,5.463,3.331,8.722,3.331,8.722l6.859,5.599h36.426h1.235h36.425l6.859-5.599c0,0,6.838-3.259,3.331-8.722
								C150.511,115.014,154.004,113.648,153.781,110.404z"/>
						</g>
						<g>
							<path style="fill:#BC57BC;" d="M65.936,119.044c0,0-4.506-30.584,35.94-34.374c40.448-3.79,47.176,34.899,30.167,41.685
								C132.043,126.355,87.369,139.904,65.936,119.044z"/>
						</g>
						<polygon style="fill:#6B341D;" points="153.754,136.691 155.202,136.691 156.718,136.688 						"/>
					</g>
					<path style="fill:#35120C;" d="M157.55,138.346c-0.669-0.074-1.304,0.071-1.841,0.359c0.679-2.88,0.964-5.657,0.996-8.01
						c0.028-0.164,0.051-0.33,0.051-0.502c0-1.637-1.327-2.964-2.964-2.964c-0.697,0-1.329,0.251-1.835,0.653
						c-0.09-0.226-0.165-0.453-0.257-0.679c0.063-1.652,0.042-3.391-0.101-5.239c-0.115-1.49-1.552-2.616-3.167-2.507
						c-0.212,0.014-0.417,0.049-0.613,0.101c-0.471-0.763-0.966-1.517-1.485-2.262c-0.11-1.514-0.295-3.068-0.589-4.671
						c-0.269-1.472-1.794-2.467-3.412-2.22c-0.504,0.077-0.948,0.275-1.325,0.544c-0.583-0.578-1.181-1.146-1.805-1.699
						c-0.321-1.467-0.701-2.941-1.212-4.424c-0.492-1.425-2.164-2.216-3.717-1.768c-0.772,0.221-1.372,0.705-1.724,1.308
						c-0.243-0.145-0.504-0.275-0.751-0.417c-0.46-1.355-1.002-2.702-1.662-4.031c-0.674-1.359-2.424-1.964-3.923-1.348
						c-0.939,0.387-1.546,1.165-1.701,2.028c-0.214-0.077-0.416-0.164-0.632-0.239c-0.524-1.437-1.127-2.869-1.842-4.287
						c-0.682-1.356-2.442-1.952-3.932-1.327c-1.255,0.526-1.905,1.752-1.669,2.937c-0.364-0.922-0.752-1.843-1.191-2.763
						c-0.655-1.37-2.407-1.992-3.902-1.399c-1.5,0.596-2.188,2.19-1.533,3.559c0.068,0.142,0.125,0.286,0.191,0.428
						c-0.175-0.015-0.342-0.038-0.518-0.051c-0.291-1.228-0.504-1.985-0.549-2.142c-0.415-1.443-2.035-2.31-3.618-1.929
						c-0.706,0.169-1.274,0.562-1.663,1.068c-0.43-0.222-0.92-0.359-1.449-0.359c-0.954,0-1.794,0.418-2.336,1.057
						c-0.306-0.838-1.052-1.525-2.059-1.765c-1.586-0.381-3.204,0.486-3.618,1.929c-0.051,0.177-0.312,1.104-0.661,2.622
						c-0.211,0.029-0.425,0.055-0.635,0.086c0.14-0.314,0.271-0.629,0.421-0.943c0.655-1.369-0.033-2.962-1.535-3.559
						c-1.493-0.595-3.246,0.029-3.901,1.399c-0.44,0.921-0.828,1.845-1.193,2.769c0.24-1.187-0.41-2.416-1.668-2.944
						c-1.488-0.625-3.247-0.028-3.932,1.327c-0.973,1.931-1.756,3.889-2.383,5.85c-0.092,0.039-0.183,0.079-0.275,0.119
						c0.589-1.336-0.064-2.871-1.518-3.47c-1.495-0.619-3.247-0.012-3.923,1.348c-0.877,1.767-1.564,3.564-2.094,5.371
						c-0.145-1.011-0.906-1.905-2.043-2.231c-1.56-0.449-3.225,0.343-3.717,1.768c-0.886,2.569-1.442,5.117-1.78,7.624
						c-0.046,0.048-0.097,0.093-0.143,0.142c-0.217-1.09-1.15-1.993-2.417-2.186c-1.631-0.252-3.143,0.748-3.414,2.22
						c-0.495,2.698-0.708,5.272-0.707,7.714c-0.495-0.497-1.188-0.831-1.98-0.881c-1.648-0.108-3.052,1.017-3.165,2.507
						c-0.174,2.259-0.176,4.362-0.048,6.33c-0.537-0.495-1.281-0.802-2.105-0.803h-0.002c-1.636,0-2.963,1.211-2.965,2.702
						c-0.007,3.228,0.497,7.383,1.841,11.465c-0.338-0.076-0.693-0.108-1.061-0.068c-1.626,0.174-2.79,1.517-2.599,2.999
						c0.47,3.666,1.851,6.694,3.699,9.187c-0.382-0.039-0.778-0.004-1.158,0.139c-1.211,0.452-1.792,1.716-1.296,2.821
						c0.44,0.98,0.974,1.869,1.579,2.679c-0.076,0.021-0.153,0.034-0.227,0.061c-1.212,0.452-1.794,1.715-1.296,2.821
						c1.957,4.362,5.758,6.953,9.526,8.496c0.849,2.045,8.661,5.935,9.725,7.885c0,0,2.584-6.093,2.48-6.266
						c0.409-0.376,0.67-0.887,0.688-1.459c0.038-1.194-0.993-2.189-2.303-2.223c-0.007,0-0.063-0.002-0.156-0.007
						c-0.153-0.392-0.306-0.81-0.455-1.25c0.221,0.012,0.372,0.018,0.422,0.019c0.024,0.001,0.045,0.001,0.069,0.001
						c1.277,0,2.334-0.928,2.37-2.101c0.036-1.194-0.994-2.189-2.304-2.224c-0.011,0-0.156-0.007-0.358-0.02
						c0.927-0.322,1.657-1.058,1.86-2.012c0.209-0.989-0.21-1.948-0.993-2.559c0.024-0.136,0.042-0.273,0.042-0.416
						c0-0.575-0.209-1.096-0.545-1.51c0.739-0.367,1.305-1.014,1.49-1.824c0.168-0.742-0.017-1.473-0.446-2.056
						c0.937-0.09,1.816-0.563,2.301-1.375c0.51-0.855,0.453-1.846-0.04-2.633c0.061,0.003,0.12,0.017,0.181,0.017
						c0.706,0,1.416-0.229,1.984-0.694c0.712-0.586,1.03-1.415,0.96-2.224c0.184,0.033,0.364,0.078,0.556,0.078
						c0.146,0,0.295-0.01,0.444-0.031c1.62-0.222,2.735-1.598,2.491-3.075c-0.075-0.454-0.218-0.719-0.533-1.298
						c-0.275-0.507-0.562-1.06-0.852-1.637c0.199-0.137,0.399-0.268,0.6-0.398c0.608,1.212,1.085,1.997,1.298,2.237
						c0.585,0.661,1.442,1.005,2.308,1.005c0.653,0,1.312-0.197,1.86-0.6c0.649-0.478,1.008-1.156,1.079-1.859
						c0.52,0.908,1.524,1.466,2.603,1.466c0.375,0,0.756-0.065,1.125-0.203c1.514-0.567,2.238-2.146,1.617-3.528
						c-0.019-0.043-0.425-0.968-0.98-2.545c0.302-0.045,0.601-0.081,0.901-0.117c0.564,1.609,0.995,2.596,1.075,2.775
						c0.47,1.047,1.576,1.681,2.745,1.681c0.372,0,0.749-0.065,1.116-0.2c1.283-0.476,1.991-1.678,1.809-2.875
						c0.18,0.614,0.372,1.227,0.576,1.837c0.389,1.165,1.564,1.915,2.833,1.915c0.288,0,0.58-0.038,0.868-0.118
						c0.758-0.211,1.35-0.677,1.711-1.26c0.509,0.819,1.463,1.378,2.569,1.378c0.738,0,1.405-0.255,1.924-0.663
						c0.304,0.241,0.663,0.431,1.073,0.546c0.29,0.08,0.58,0.118,0.868,0.118c1.269,0,2.443-0.75,2.833-1.915
						c0.204-0.609,0.395-1.22,0.575-1.833c-0.181,1.194,0.526,2.394,1.807,2.87c0.367,0.137,0.746,0.201,1.12,0.201
						c1.168,0,2.275-0.635,2.745-1.682c0.085-0.19,0.566-1.292,1.183-3.085c0.309-0.002,0.62-0.001,0.936,0.006
						c-0.629,1.843-1.102,2.921-1.123,2.969c-0.621,1.381,0.103,2.959,1.617,3.525c0.369,0.138,0.749,0.203,1.125,0.203
						c1.079,0,2.081-0.557,2.603-1.464c0.071,0.702,0.43,1.379,1.078,1.857c0.549,0.404,1.207,0.6,1.86,0.6
						c0.864,0,1.723-0.344,2.308-1.005c0.313-0.353,1.196-1.879,2.231-4.233c0.223,0.089,0.448,0.187,0.672,0.282
						c-0.632,1.392-1.265,2.661-1.854,3.747c-0.317,0.583-0.463,0.85-0.537,1.307c-0.238,1.477,0.88,2.851,2.5,3.07
						c0.147,0.02,0.293,0.03,0.437,0.03c0.192,0,0.372-0.046,0.555-0.078c-0.07,0.81,0.247,1.639,0.961,2.224
						c0.566,0.465,1.276,0.694,1.982,0.694c0.061,0,0.121-0.014,0.182-0.017c-0.494,0.787-0.551,1.778-0.042,2.633
						c0.485,0.813,1.365,1.285,2.302,1.375c-0.429,0.582-0.613,1.314-0.445,2.056c0.29,1.277,1.523,2.155,2.899,2.155
						c0.004,0,0.008-0.001,0.012-0.001c-0.532,0.658-0.742,1.521-0.468,2.366c0.188,0.582,0.573,1.062,1.069,1.4
						c-0.555,0.356-0.95,0.92-1.012,1.584c-0.101,1.074,0.682,2.025,1.795,2.276c-0.323,0.276-0.569,0.635-0.683,1.056
						c-0.317,1.16,0.458,2.333,1.728,2.622c0.205,0.047,0.427,0.088,0.652,0.127c-0.543,3.182-0.88,7.486-1.796,9.733l9.757-6.354
						c0,0,2.396-1.205,4.832-3.979c1.705-2.355,2.848-4.614,4.24-7.71c0.497-1.105-0.082-2.369-1.295-2.822
						c-0.236-0.088-0.48-0.128-0.722-0.145c0.808-1.167,1.52-2.483,2.073-4.003c0.413-1.134-0.261-2.358-1.504-2.734
						c-0.12-0.037-0.242-0.056-0.363-0.074c1.587-2.46,2.796-5.42,3.254-8.977C160.34,139.863,159.175,138.52,157.55,138.346z
						 M86.046,99.419c-0.031,0.008-0.061,0.017-0.092,0.025c0.097-0.212,0.196-0.424,0.299-0.636
						C86.178,99.012,86.117,99.216,86.046,99.419z M123.118,136.168c0.046-0.136,0.091-0.269,0.138-0.411
						c0.014,0.003,0.028,0.005,0.042,0.008C123.236,135.904,123.176,136.038,123.118,136.168z"/>
				</g>
				<g>
					<path style="fill:#29ABE2;" d="M81.99,278.958l20.61,1.885v17.351l-2.438,35.079c0,0-9.973,2.639-22.161,0
						C78.001,333.273,79.552,286.753,81.99,278.958z"/>
					<path style="fill:#29ABE2;" d="M123.209,278.958l-20.609,1.885v17.351l2.437,35.079c0,0,9.972,2.639,22.16,0
						C127.197,333.273,125.646,286.753,123.209,278.958z"/>
				</g>
				<g>
					<path style="fill:#BC57BC;" d="M85.982,241.373c0,0-6.943,5.454-6.353,13.034c0.536,6.894,7.708,7.55,7.708,7.55l14.776-0.058
						l-0.059-17.495l-10.725-4.38l-7.035-13.708l-3.181,1.074L85.982,241.373z"/>
					<path style="fill:#BC57BC;" d="M118.126,241.373c0,0,6.943,5.454,6.353,13.034c-0.536,6.894-7.708,7.55-7.708,7.55
						l-14.776-0.058l0.059-17.495l10.725-4.38l7.059-13.524l3.181,1.074L118.126,241.373z"/>
					
						<ellipse transform="matrix(1 -0.0039 0.0039 1 -1.1278 0.4065)" style="fill:#BC57BC;" cx="102.371" cy="285.771" rx="30.225" ry="30.196"/>
					<path style="fill:#93278F;" d="M82.024,265.155c0,0,19.316-19.972,40.71,0C122.734,265.155,103.865,250.176,82.024,265.155z"/>
				</g>
			</g>
		</g>
	</g>
	<g>
		<path style="opacity:0.2;fill-rule:evenodd;clip-rule:evenodd;" d="M34.088,56.886h61.499l1.932,3.345l0.009-0.005l7.556,13.087
			l4.624,8.011l4.614-7.989l7.566-13.103v-0.022l1.919-3.323h62.104c3.07,0,5.858-1.253,7.874-3.269
			c2.016-2.016,3.269-4.805,3.269-7.874V14.803c0-3.069-1.253-5.858-3.269-7.874s-4.804-3.269-7.874-3.269H34.088
			c-3.07,0-5.858,1.253-7.874,3.269s-3.269,4.805-3.269,7.874v30.941c0,3.069,1.253,5.858,3.269,7.874h0.02
			C28.254,55.635,31.035,56.886,34.088,56.886L34.088,56.886z M98.662,46.184H34.088c-0.124,0-0.237-0.049-0.318-0.123l0.01-0.01
			c-0.081-0.081-0.133-0.191-0.133-0.308V14.803c0-0.116,0.052-0.227,0.133-0.308c0.08-0.081,0.191-0.133,0.308-0.133h151.824
			c0.116,0,0.227,0.052,0.308,0.133c0.081,0.08,0.133,0.191,0.133,0.308v30.941c0,0.116-0.052,0.227-0.133,0.308
			c-0.08,0.081-0.191,0.133-0.308,0.133h-65.167h-3.063l-1.556,2.697l-3.467,6.003l-0.009-0.005l-2.953,5.113l-2.939-5.091v-0.022
			l-3.477-6.02l-1.545-2.675H98.662z"/>
		<path style="fill-rule:evenodd;clip-rule:evenodd;fill:#FFFFFF;" d="M34.088,53.225h61.499l1.932,3.345l0.009-0.005l7.556,13.087
			l4.624,8.011l4.614-7.988l7.566-13.103v-0.022l1.919-3.323h62.104c3.07,0,5.858-1.253,7.874-3.269
			c2.016-2.016,3.269-4.805,3.269-7.874V11.142c0-3.069-1.253-5.858-3.269-7.874S188.982,0,185.912,0H34.088
			c-3.07,0-5.858,1.253-7.874,3.269s-3.269,4.805-3.269,7.874v30.941c0,3.069,1.253,5.858,3.269,7.874h0.02
			C28.254,51.974,31.035,53.225,34.088,53.225L34.088,53.225z M98.662,42.524H34.088c-0.124,0-0.237-0.049-0.318-0.123l0.01-0.01
			c-0.081-0.081-0.133-0.191-0.133-0.308V11.142c0-0.116,0.052-0.227,0.133-0.308c0.08-0.081,0.191-0.133,0.308-0.133h151.824
			c0.116,0,0.227,0.052,0.308,0.133c0.081,0.081,0.133,0.191,0.133,0.308v30.941c0,0.116-0.052,0.227-0.133,0.308
			c-0.08,0.081-0.191,0.133-0.308,0.133h-65.167h-3.063l-1.556,2.697l-3.467,6.003l-0.009-0.005l-2.953,5.114l-2.939-5.092v-0.022
			l-3.477-6.02l-1.545-2.675H98.662z"/>
		<path style="fill-rule:evenodd;clip-rule:evenodd;fill:#C12564;" d="M34.088,46.186h64.574l3.477,6.02l7.565,13.105l7.565-13.105
			l3.476-6.02h65.167c3.185,0,5.791-2.606,5.791-5.791V9.452c0-3.185-2.606-5.79-5.791-5.79H34.088c-3.185,0-5.791,2.605-5.791,5.79
			v30.942C28.297,43.578,30.903,46.186,34.088,46.186z"/>
		<path style="fill-rule:evenodd;clip-rule:evenodd;fill:#E6E6E6;" d="M97.519,56.571L97.519,56.571L97.519,56.571z M109.709,70.153
			L98.05,50.501H34.088c-3.053,0-5.834-1.251-7.853-3.269h-0.02c-2.016-2.016-3.269-4.805-3.269-7.874v2.725
			c0,3.069,1.253,5.858,3.269,7.874h0.02c2.02,2.017,4.8,3.269,7.853,3.269h61.499l1.941,3.34l7.556,13.087l4.624,8.011l4.614-7.988
			l7.566-13.103v-0.022l1.919-3.323h62.104c3.07,0,5.858-1.253,7.874-3.269c2.016-2.016,3.269-4.805,3.269-7.874v-2.725
			c0,3.069-1.253,5.858-3.269,7.874c-2.016,2.016-4.804,3.269-7.874,3.269h-64.848L109.709,70.153z"/>
		<path style="fill-rule:evenodd;clip-rule:evenodd;fill:#5D1230;" d="M98.662,38.725H34.088c-0.147,0-0.295-0.005-0.441-0.017
			c-2.981-0.227-5.351-2.738-5.351-5.775v7.46c0,3.037,2.37,5.547,5.351,5.775c0.145,0.011,0.292,0.017,0.441,0.017h64.574
			l0.691,1.195l2.786,4.825l7.565,13.105l7.565-13.105l2.786-4.825l0.69-1.195h65.167c0.148,0,0.295-0.005,0.441-0.017
			c2.981-0.227,5.351-2.738,5.351-5.775v-7.46c0,3.037-2.37,5.547-5.351,5.775c-0.145,0.011-0.294,0.017-0.441,0.017h-65.167
			l-2.193,3.798l-1.283,2.221l-7.565,13.105l-7.565-13.105l-1.283-2.221L98.662,38.725z"/>
		<path style="fill-rule:evenodd;clip-rule:evenodd;fill:#E26A9A;" d="M98.662,37.036H34.088c-0.147,0-0.295-0.005-0.441-0.017
			c-2.981-0.227-5.351-2.738-5.351-5.775v1.689c0,3.037,2.37,5.547,5.351,5.775l0.441,0.017h64.574l2.193,3.798l1.283,2.221
			l7.565,13.105l7.565-13.105l1.283-2.221l2.193-3.798h65.167l0.441-0.017c2.981-0.227,5.351-2.738,5.351-5.775v-1.689
			c0,3.037-2.37,5.547-5.351,5.775c-0.145,0.011-0.294,0.017-0.441,0.017h-65.167l-3.476,6.02l-7.565,13.105l-7.565-13.105
			L98.662,37.036z"/>
		<path style="fill-rule:evenodd;clip-rule:evenodd;fill:#DA3F7E;" d="M28.297,14.362c0-3.185,2.606-5.79,5.791-5.79h151.824
			c3.185,0,5.791,2.605,5.791,5.79v-4.91c0-1.38-0.489-2.652-1.302-3.649c-1.065-1.305-2.684-2.141-4.489-2.141H34.088
			c-1.805,0-3.424,0.836-4.489,2.141c-0.813,0.997-1.302,2.269-1.302,3.649V14.362z"/>
		<path style="fill-rule:evenodd;clip-rule:evenodd;fill:#961D4E;" d="M185.912,29.887H34.088c-0.148,0-0.295-0.005-0.441-0.017
			c-2.981-0.227-5.351-2.736-5.351-5.773v7.148c0,3.037,2.37,5.547,5.351,5.775l0.441,0.017h64.574l3.477,6.02l7.565,13.105
			l7.565-13.105l3.476-6.02h65.167l0.441-0.017c2.981-0.227,5.351-2.738,5.351-5.775v-7.148c0,3.038-2.37,5.546-5.351,5.773
			C186.207,29.882,186.06,29.887,185.912,29.887z"/>
	</g>
	<g>
		<g>
			<path style="fill:#FFFFFF;" d="M81.545,13.106l2.144,7.576l2.128-7.163l4.67-0.143c0.625,5.887,0.985,11.774,1.08,17.662
				l-4.542-0.286v-9.515l-1.478,5.655h-4.002l-1.191-6.211l-0.413,9.642l-4.257-0.271l0.794-16.677L81.545,13.106z"/>
			<path style="fill:#FFFFFF;" d="M96.571,13.313c0.709-0.159,1.403-0.238,2.081-0.238c3.283,0,5.395,1.704,6.337,5.114
				c0.487,1.769,0.704,3.802,0.651,6.099l-0.127,5.448l-4.114,0.254l-0.032-0.746c-5.167-0.18-7.862-1.451-8.085-3.813
				c-0.032-0.339-0.047-0.587-0.047-0.746c0-1.927,0.773-3.135,2.319-3.621c0.773-0.244,1.541-0.365,2.303-0.365
				c1.017,0,2.054,0.206,3.113,0.619c-0.011-1.821-0.032-2.785-0.064-2.891c-0.212-0.73-0.916-1.144-2.112-1.239
				c-1.017-0.085-1.991,0.763-2.922,2.541l-4.066-0.635C92.907,15.706,94.495,13.779,96.571,13.313z M99.208,23.526
				c-1.112,0-1.694,0.291-1.747,0.873c-0.085,0.848,1.165,1.535,3.748,2.065l-0.111-2.748
				C100.356,23.59,99.726,23.526,99.208,23.526z"/>
			<path style="fill:#FFFFFF;" d="M106.562,29.896l-0.683-19.822c6.565,1.778,10.112,4.108,10.642,6.988
				c0.19,1.038,0.285,2.033,0.285,2.986c0,1.535-0.275,2.827-0.825,3.875C115.091,25.617,111.951,27.608,106.562,29.896z
				 M110.072,16.426l0.143,6.1c1.694-0.509,2.6-1.44,2.716-2.796C113.047,18.375,112.094,17.273,110.072,16.426z"/>
			<path style="fill:#FFFFFF;" d="M118.029,30.261c0.031-6.442-0.133-11.589-0.492-15.439l4.447-0.364l-0.144,1.445
				c2.182-1.355,4.405-1.996,6.671-1.922l0.43,3.844c-2.605,0-4.438,0.539-5.496,1.618c-0.73,0.751-1.096,2.659-1.096,5.726
				c0,1.396,0.074,3.041,0.222,4.934L118.029,30.261z"/>
			<path style="fill:#FFFFFF;" d="M133.643,23.304c0.477,1.599,1.487,2.436,3.034,2.51c1.439,0.074,2.414-0.684,2.922-2.271
				l4.447-0.636c-1.133,4.648-3.383,6.973-6.75,6.973c-1.038,0-2.197-0.238-3.479-0.715c-2.372-1.354-3.558-3.96-3.558-7.814
				c0-0.328,0.01-0.693,0.031-1.096c0.233-4.458,2.403-7.047,6.512-7.767c3.896-0.085,6.141,2.624,6.733,8.126L133.643,23.304z
				 M134.857,17.642c-0.588,0.693-0.908,1.532-0.961,2.518l5.956-1.7c-0.688-1.238-1.546-1.858-2.572-1.858
				C136.253,16.601,135.445,16.948,134.857,17.642z"/>
		</g>
	</g>
</g>
</svg>
