<?xml version="1.0" encoding="utf-8"?>
<!-- Generator: Adobe Illustrator 21.0.0, SVG Export Plug-In . SVG Version: 6.00 Build 0)  -->
<svg version="1.1" id="Capa_1" xmlns="http://www.w3.org/2000/svg" xmlns:xlink="http://www.w3.org/1999/xlink" x="0px" y="0px"
	 viewBox="0 0 224 381.383" style="enable-background:new 0 0 224 381.383;" xml:space="preserve">
<g>
	<g>
		<g>
			<rect x="4" y="62.385" style="opacity:0.2;" width="220" height="318.998"/>
			<rect y="58.384" style="fill:#FFFFFF;" width="220" height="318.998"/>
			<rect x="9.04" y="65.184" style="fill:#E6E6E6;" width="201.921" height="304.349"/>
			
				<linearGradient id="SVGID_1_" gradientUnits="userSpaceOnUse" x1="455.8295" y1="1400.7795" x2="702.139" y2="1400.7795" gradientTransform="matrix(0 1 -1 0 1510.7799 -390.6452)">
				<stop  offset="0" style="stop-color:#FFFFFF;stop-opacity:0"/>
				<stop  offset="0.2219" style="stop-color:#FCFCFC;stop-opacity:0.2219"/>
				<stop  offset="0.3578" style="stop-color:#F4F4F4;stop-opacity:0.3578"/>
				<stop  offset="0.4706" style="stop-color:#E6E6E6;stop-opacity:0.4706"/>
				<stop  offset="0.5708" style="stop-color:#D1D1D1;stop-opacity:0.5708"/>
				<stop  offset="0.6626" style="stop-color:#B6B6B6;stop-opacity:0.6626"/>
				<stop  offset="0.7484" style="stop-color:#969696;stop-opacity:0.7484"/>
				<stop  offset="0.8294" style="stop-color:#6F6F6F;stop-opacity:0.8294"/>
				<stop  offset="0.9067" style="stop-color:#424242;stop-opacity:0.9067"/>
				<stop  offset="0.9784" style="stop-color:#101010;stop-opacity:0.9784"/>
				<stop  offset="1" style="stop-color:#000000"/>
			</linearGradient>
			<rect x="9.04" y="65.184" style="opacity:0.2;fill:url(#SVGID_1_);" width="201.921" height="246.31"/>
		</g>
	</g>
	<g>
		<defs>
			<filter id="Adobe_OpacityMaskFilter" filterUnits="userSpaceOnUse" x="44.596" y="340.654" width="104.605" height="27.047">
				<feFlood  style="flood-color:white;flood-opacity:1" result="back"/>
				<feBlend  in="SourceGraphic" in2="back" mode="normal"/>
			</filter>
		</defs>
		<mask maskUnits="userSpaceOnUse" x="44.596" y="340.654" width="104.605" height="27.047" id="XMLID_2_">
		</mask>
		
			<ellipse id="XMLID_114_" transform="matrix(1 -0.0098 0.0098 1 -3.4559 0.9637)" style="opacity:0.5;mask:url(#XMLID_2_);fill:#999999;" cx="96.899" cy="354.178" rx="52.305" ry="13.514"/>
		<g>
			<g>
				<g>
					<g id="XMLID_112_">
						
							<rect id="XMLID_113_" x="65.109" y="327.899" transform="matrix(0.1165 -0.9932 0.9932 0.1165 -258.3278 375.7148)" style="fill:#EFC392;stroke:#994900;stroke-linecap:round;stroke-linejoin:round;stroke-miterlimit:10;" width="33.804" height="10.309"/>
					</g>
					<g id="XMLID_110_">
						
							<rect id="XMLID_111_" x="108.028" y="316.152" transform="matrix(0.9932 -0.1165 0.1165 0.9932 -38.0215 15.4495)" style="fill:#EFC392;stroke:#994900;stroke-linecap:round;stroke-linejoin:round;stroke-miterlimit:10;" width="10.309" height="33.804"/>
					</g>
					<path d="M130.228,353.391c0,3.351-3.206,3.553-11.656,3.553c-8.451,0-14.936-0.202-14.936-3.553
						c0-3.348,6.848-6.061,15.296-6.061C127.382,347.33,130.228,350.043,130.228,353.391z"/>
					<path d="M65.457,353.391c0,3.351,3.204,3.553,11.657,3.553c8.447,0,14.935-0.202,14.935-3.553c0-3.348-6.85-6.061-15.302-6.061
						C68.302,347.33,65.457,350.043,65.457,353.391z"/>
				</g>
				<g>
					<path style="fill:#EFC392;stroke:#994900;stroke-linecap:round;stroke-linejoin:round;stroke-miterlimit:10;" d="
						M108.099,233.899c0,0,26.19-0.994,40.314-26.327l13.899,9.37c0,0-18.087,22.603-54.986,25.182L108.099,233.899z"/>
					<path style="fill:#9B6534;" d="M148.413,207.572c0,0-4.41,5.143,3.603,9.745s10.296-0.374,10.296-0.374L148.413,207.572z"/>
					<path style="fill:#EFC392;stroke:#994900;stroke-linecap:round;stroke-linejoin:round;stroke-miterlimit:10;" d="
						M146.013,201.791c0,0-0.806-2.928-4.465-5.586c-3.659-2.663-1.001-6.338-1.001-6.338s2.017-3.267,5.394-0.774
						c0,0,2.264,1.347,2.784,5.183c0,0,0.321,1.21,0.782,1.973c0.768,1.27,1.177,1.699,1.177,1.699s1.222,0.726,1.72-0.324
						c0,0,1.186-2.938,1.364-6.307c0.053-0.96,1.086-9.579,1.839-13.314c0.641-3.171,2.511-3.296,3.49-3.393
						c1.08-0.108,2.846,0.408,2.984,2.011c0.259,2.976-1.845,13.133-1.837,15.14l3.15-13.829c0,0,0.821-3.319,3.603-3.636
						c0,0,3.929-0.805,4.427,3.059c0,0,0.129,0.688-0.484,2.319c-0.617,1.629-4.773,14.39-4.773,14.39l6.446-13.938
						c0,0,1.025-2.027,2.812-2.239c1.786-0.204,4.075,1.039,4.261,3.379c0.163,2.046-0.56,3.161-0.56,3.161l-7.779,12.709
						l5.189-7.061c0,0,1.327-1.801,3.217-1.973c1.887-0.164,3.546,1.808,3.388,3.397c0,0,0.162-0.275-0.586,1.404
						c-0.772,1.734-6.688,9.126-6.688,9.126s-1.477,2.487-2.519,4.383c-1.064,1.939-5.457,10.916-11.662,11.509
						c-6.207,0.588-13.789-4.257-14.388-8.766C146.878,205.982,146.593,203.093,146.013,201.791z"/>
					<path style="fill:#EFC392;stroke:#994900;stroke-linecap:round;stroke-linejoin:round;stroke-miterlimit:10;" d="
						M159.785,193.582c0,0,4.094,8.982,10.902,11.262C170.688,204.843,168.221,204.406,159.785,193.582z"/>
					<path style="fill:#EFC392;stroke:#994900;stroke-linecap:round;stroke-linejoin:round;stroke-miterlimit:10;" d="
						M154.356,196.237c0,0,7.183,10.19,2.959,18.652C157.314,214.889,159.601,206.33,154.356,196.237z"/>
				</g>
				<g id="XMLID_108_">
					
						<path id="XMLID_109_" style="fill:#EFC392;stroke:#994900;stroke-linecap:round;stroke-linejoin:round;stroke-miterlimit:10;" d="
						M70.734,233.196c0,0-17.563,38.567,8.642,47.834l-0.797-9.107c0,0-12.272-16.022-5.371-32.563L70.734,233.196z"/>
				</g>
				<g>
					<path style="fill:#AF0573;" d="M71.845,229.071c0,0-11.269-1.282-9.89,8.868l1.841,4.294c0,0,7.455-3.319,11.891,0
						C75.687,242.234,79.205,232.695,71.845,229.071z"/>
					<path style="fill:#EFC392;stroke:#994900;stroke-linecap:round;stroke-linejoin:round;stroke-miterlimit:10;" d="
						M71.845,229.071l5.748-2.062l11.747-3.986h15.746l11.879,3.986l5.751,2.062c0,0-13.437,12.025-24.868,11.917
						S71.845,229.071,71.845,229.071z"/>
					<path style="fill:#E93E96;" d="M116.966,227.009c0,0-6.714,9.566-19.686,9.368c-12.971,0.197-19.687-9.368-19.687-9.368
						l-5.748,2.062c4.14,7.528,8.509,41.66,8.509,41.66H97.28h16.925c0,0,4.372-34.133,8.512-41.66L116.966,227.009z"/>
					<path style="fill:#30307F;" d="M114.204,270.732H97.28H80.354c0,0-15.179,0-13.57,56.802c0,0,8.971,5.464,19.548,0
						c0,0,7.405,3.101,10.948,2.428c3.544,0.673,10.945-2.428,10.945-2.428c10.581,5.464,19.548,0,19.548,0
						C129.383,270.732,114.204,270.732,114.204,270.732z"/>
					<path style="fill:#AF0573;" d="M118.079,240.913c0,0-6.132-9.538,3.579-12.792l4.666-0.249c0,0,0.321,8.154,5.259,10.665
						C131.583,238.537,124.585,245.912,118.079,240.913z"/>
					<polygon style="fill:#AF0573;" points="114.204,270.732 80.354,270.732 79.822,266.813 114.737,266.813 					"/>
					<path style="fill:#131342;" d="M82.908,328.957c0,0-1.882-35.973,1.653-45.863c0,0,3.719,32.764,2.553,44.751
						C87.114,327.845,86.46,326.93,82.908,328.957z"/>
					<path style="fill:#131342;" d="M111.65,328.957c0,0,1.884-35.973-1.65-45.863c0,0-3.72,32.764-2.558,44.751
						C107.442,327.845,108.099,326.93,111.65,328.957z"/>
				</g>
				<g>
					<g>
						<path style="fill:#834C2E;" d="M76.722,231.79c0.939-2.294,1.694-5.101,1.695-8.195c0-3.707-0.899-6.773-1.882-9.021
							c1.253-1.787,2.448-4.023,2.92-6.489c0.834-4.355-1.263-9.682-2.518-12.353c0.331-0.779,0.654-1.617,0.958-2.516
							c1.754-5.184-0.548-12.019-1.986-15.461c0.167-0.623,0.347-1.192,0.539-1.694c-4.337-4.721-7.196-11.038-8.699-17.211
							c-2.172,1.974-4.456,4.894-5.225,8.833c-1.092,5.591,1.926,13.578,3.968,18.117c-0.355,2.289-0.698,4.143-1.012,5.336
							c-0.269,1.024-0.374,2.084-0.355,3.155c-1.194,2.717-2.761,7.326-2.218,11.908c0.262,2.211,1.287,4.515,2.627,6.69
							c-0.994,2.199-2.655,7.186-1.364,14.039c0.494,2.62,1.494,4.829,2.679,6.653c-0.004,0.781,0.027,1.693,0.108,2.767
							c0.322,4.287,2.243,7.725,3.826,9.883c-0.063,0.344-0.079,0.727-0.032,1.164c-1.595,5.939-5.329,18.008-7.107,29.1
							c-2.025,12.63-0.693,15.792,0.398,12.766c1.091-3.026,4.534-12.882,4.534-12.882s-1.396,4.388-2.672,11.87
							c-1.276,7.482-2.132,12.198-2.132,12.198s8.087-14.127,8.063-13.111c-0.024,1.017-3.095,8.3-3.095,8.3s1.586-2.505,5.046-9.7
							c2.725-5.668,3.215-23.378,3.3-30.646c2.084-1.864,4.63-4.8,5.16-8.752C82.956,241.275,78.65,234.51,76.722,231.79z"/>
						<g>
							<path style="fill:#FBB03B;" d="M67.223,248.601c-0.399,1.689,0.603,3.391,2.261,3.806c3.049,0.757,6.098,1.513,9.147,2.27
								c1.658,0.415,3.363-0.695,3.786-2.486l0,0c0.424-1.791-0.605-3.546-2.273-3.917c-3.065-0.688-6.13-1.376-9.196-2.065
								C69.28,245.839,67.622,246.911,67.223,248.601L67.223,248.601z"/>
						</g>
					</g>
					<path style="fill:#834C2E;" d="M141.252,126.008c-8.249-17.55-25.866-24.351-43.151-24.307
						c-17.284-0.044-34.902,6.757-43.151,24.307c-7.375,15.692-9.551,40.879,5.767,51.998l37.384-14.511l37.384,14.511
						C150.803,166.887,148.628,141.701,141.252,126.008z"/>
					<path style="fill:#EFC392;stroke:#994900;stroke-linecap:round;stroke-linejoin:round;stroke-miterlimit:10;" d="
						M62.882,179.958c0,0-3.096-10.851-7.987-10.851c-4.888,0-4.32,18.797,10.669,26.778L62.882,179.958z"/>
					<path style="fill:#EFC392;stroke:#994900;stroke-linecap:round;stroke-linejoin:round;stroke-miterlimit:10;" d="
						M132.668,179.958c0,0,3.113-11.535,8.005-11.535c4.891,0,5.023,20.78-10.69,27.462L132.668,179.958z"/>
					<path style="fill:#834C2E;" d="M97.622,106.727c-26.539,0-42.836,9.296-42.836,39.779c0,9.081-3.274,15.044,0.109,22.6
						c3.04,5.983,5.583,9.569,5.583,9.569s-0.707-41.384,2.77-44.622c1.661-1.543,17.487,2.645,34.373,2.645
						c18.917,0,33.535-3.698,34.928-1.796c2.663,3.637,3.186,24.52,2.097,43.773c0.378-0.37,0.741-0.754,1.096-1.145
						c6.237-9.311,4.759-18.367,4.759-31.023C140.501,116.023,124.16,106.727,97.622,106.727z"/>
					<g>
						<g>
							<path id="XMLID_103_" style="fill-rule:evenodd;clip-rule:evenodd;fill:#D3A171;" d="M111.703,222.804L111.703,222.804
								c0,11.356-28.109,11.356-28.109,0l0,0C83.594,211.448,111.703,211.448,111.703,222.804z"/>
							<path style="fill:#EFC392;stroke:#994900;stroke-linecap:round;stroke-linejoin:round;stroke-miterlimit:10;" d="
								M97.837,122.426c0,0,24.127,0,26.879,0s9.57,4.345,10.277,26.225c1.394,42.89-0.443,54.092-15.809,70.3
								c-7.084,7.469-14.56,10.699-21.347,10.699c-6.599,0-14.267-3.23-21.35-10.699c-15.368-16.208-17.205-27.41-15.812-70.3
								c0.71-21.88,7.525-26.225,10.278-26.225C73.706,122.426,97.837,122.426,97.837,122.426z"/>
							<g>
								<g>
									<path style="fill:#834C2E;" d="M123.644,159.631c-0.245-0.129-0.675-0.253-1.2-0.452c-0.528-0.194-1.164-0.441-1.91-0.604
										c-1.449-0.444-3.273-0.672-5.054-0.804c-3.597-0.174-7.009,0.571-7.604,0.7c-1.258,0.188-3.036,0.86-4.003-1.035
										c-0.537-0.978,0.439-1.956,1.931-2.597c1.488-0.663,3.486-0.97,4.931-1.054c1.437-0.132,4.579-0.042,7.505,0.711
										c0.727,0.208,1.452,0.385,2.124,0.616c0.666,0.256,1.299,0.498,1.881,0.72c1.12,0.523,2.004,0.987,2.482,1.242
										c0.905,0.621,1.948,1.192,2.616,1.939c0.694,0.714,1.141,1.383,1.057,1.912
										C128.187,161.995,125.694,160.486,123.644,159.631z"/>
								</g>
							</g>
							<g>
								<g>
									<path style="fill:#834C2E;" d="M71.595,159.631c0.245-0.129,0.676-0.253,1.2-0.452c0.53-0.194,1.165-0.441,1.91-0.604
										c1.45-0.444,3.275-0.672,5.054-0.804c3.598-0.174,7.01,0.571,7.606,0.7c1.255,0.188,3.036,0.86,4.003-1.035
										c0.537-0.978-0.439-1.956-1.931-2.597c-1.491-0.663-3.486-0.97-4.931-1.054c-1.439-0.132-4.582-0.042-7.508,0.711
										c-0.725,0.208-1.452,0.385-2.122,0.616c-0.668,0.256-1.3,0.498-1.881,0.72c-1.122,0.523-2.006,0.987-2.484,1.242
										c-0.904,0.621-1.947,1.192-2.616,1.939c-0.694,0.714-1.141,1.383-1.057,1.912
										C67.053,161.995,69.545,160.486,71.595,159.631z"/>
								</g>
							</g>
							<g id="XMLID_59_">
								<g id="XMLID_96_">
									<path id="XMLID_101_" style="fill:#FFFFFF;" d="M77.862,164.106c-11.287,2.986-10.795,19.099,1.467,19.067
										C91.591,183.141,90.996,160.632,77.862,164.106z"/>
									
										<ellipse id="XMLID_100_" transform="matrix(0.0209 -0.9998 0.9998 0.0209 -95.771 248.9543)" cx="79.223" cy="173.375" rx="6.027" ry="4.772"/>
									
										<ellipse id="XMLID_98_" transform="matrix(0.0209 -0.9998 0.9998 0.0209 -95.0217 243.5927)" style="fill:#FFFFFF;" cx="76.859" cy="170.311" rx="2.846" ry="2.846"/>
									
										<ellipse id="XMLID_97_" transform="matrix(0.0209 -0.9998 0.9998 0.0209 -96.7288 253.0681)" style="fill:#FFFFFF;" cx="80.844" cy="175.921" rx="1.088" ry="1.088"/>
								</g>
								<g id="XMLID_60_">
									<path id="XMLID_95_" style="fill:#FFFFFF;" d="M117.565,164.197c11.152,3.456,9.987,19.534-2.263,18.989
										C103.052,182.641,104.588,160.176,117.565,164.197z"/>
									
										<ellipse id="XMLID_94_" transform="matrix(0.0209 -0.9998 0.9998 0.0209 -59.4855 286.0793)" cx="116.321" cy="173.411" rx="6.027" ry="4.772"/>
									
										<ellipse id="XMLID_93_" transform="matrix(0.0209 -0.9998 0.9998 0.0209 -58.7359 280.7178)" style="fill:#FFFFFF;" cx="113.956" cy="170.347" rx="2.846" ry="2.846"/>
									
										<ellipse id="XMLID_79_" transform="matrix(0.0209 -0.9998 0.9998 0.0209 -60.4433 290.1931)" style="fill:#FFFFFF;" cx="117.942" cy="175.957" rx="1.088" ry="1.088"/>
								</g>
							</g>
							<path id="XMLID_57_" style="fill:#C4884D;" d="M92.626,194.401c0.599-0.795,2.386,1.372,5.117,1.549
								c2.731,0.178,3.933-2.721,5.126-2.036c1.193,0.686-1.206,4.435-5.303,4.766C93.468,199.012,92.112,195.082,92.626,194.401z"
								/>
							<g>
								<path d="M70.772,170.282c0.764-1.735,2.052-3.039,3.48-3.863s2.996-1.198,4.56-1.378c1.433-0.165,2.904-0.169,4.281,0.363
									c2.156,0.833,3.882,2.901,5.278,5.142c-0.135-0.478-0.31-0.937-0.51-1.378c-1.628-3.602-4.114-5.859-8.149-5.999
									c-2.12-0.074-4.231,0.555-6.112,1.768c-0.877,0.565-1.873,1.253-2.583,2.129c-0.325,0.401-0.35,0.502-0.365,1.093
									C70.64,168.646,70.954,169.868,70.772,170.282z"/>
								<path d="M70.516,168.647c-1.144,0.791-2.765,0.196-3.383-1.242c0.008,0.127,0.033,0.251,0.061,0.373
									c0.205,0.866,0.66,1.658,1.3,2.081c0.64,0.423,1.464,0.435,2.07-0.061c0.519-0.425,0.877-1.286,0.706-2.047
									C71.081,168.055,70.82,168.438,70.516,168.647z"/>
								<path d="M70.662,167.804c-1.305,0.114-2.572-1.279-2.644-2.908c-0.035,0.119-0.056,0.245-0.071,0.37
									c-0.109,0.893,0.036,1.85,0.473,2.571c0.436,0.72,1.18,1.165,1.897,1.035c0.615-0.112,1.231-0.703,1.334-1.483
									C71.375,167.564,71.009,167.773,70.662,167.804z"/>
							</g>
							<g>
								<path d="M124.259,170.322c-0.764-1.735-2.052-3.039-3.48-3.863c-1.428-0.824-2.996-1.198-4.56-1.378
									c-1.433-0.165-2.904-0.169-4.281,0.363c-2.156,0.833-3.882,2.901-5.278,5.142c0.135-0.478,0.31-0.937,0.51-1.378
									c1.628-3.602,4.114-5.859,8.149-5.999c2.12-0.074,4.231,0.555,6.112,1.768c0.877,0.565,1.873,1.253,2.583,2.129
									c0.325,0.401,0.35,0.502,0.365,1.093C124.39,168.686,124.076,169.909,124.259,170.322z"/>
								<path d="M124.514,168.688c1.144,0.791,2.765,0.196,3.383-1.242c-0.008,0.127-0.033,0.251-0.061,0.373
									c-0.205,0.866-0.66,1.658-1.3,2.081s-1.464,0.435-2.07-0.061c-0.519-0.425-0.877-1.286-0.706-2.047
									C123.95,168.096,124.211,168.478,124.514,168.688z"/>
								<path d="M124.369,167.844c1.305,0.114,2.572-1.279,2.644-2.908c0.035,0.119,0.056,0.245,0.071,0.37
									c0.109,0.893-0.036,1.85-0.473,2.571c-0.436,0.72-1.18,1.165-1.897,1.035c-0.615-0.112-1.231-0.703-1.334-1.483
									C123.656,167.605,124.022,167.814,124.369,167.844z"/>
							</g>
							<g>
								<path style="fill-rule:evenodd;clip-rule:evenodd;fill:#E54C3A;" d="M85.29,207.458c8.491-0.189,16.415-0.189,24.906,0
									c-3.208,0.283-5.943,8.019-12.264,8.019C91.611,215.477,88.498,207.741,85.29,207.458L85.29,207.458z"/>
								<path style="fill-rule:evenodd;clip-rule:evenodd;" d="M86.234,207.269c3.491-0.566,7.17,5.377,11.509,5.377
									c4.434,0,8.019-5.943,11.604-5.377c-3.113-0.283-8.962-3.868-11.604-2.358l0,0
									C95.102,203.401,89.252,206.986,86.234,207.269L86.234,207.269z"/>
								<path style="fill-rule:evenodd;clip-rule:evenodd;fill:#FFFFFF;" d="M105.668,206.231c-2.83-1.038-6.132-2.358-7.924-1.321
									l0,0c-1.792-1.038-5,0.283-7.924,1.321c1.792,0.755,4.623,1.321,7.924,1.321
									C101.045,207.552,103.969,206.986,105.668,206.231L105.668,206.231z"/>
								<path style="fill-rule:evenodd;clip-rule:evenodd;fill:#E54C3A;" d="M83.026,206.137c0,0,0.943,2.264,5.66,1.226
									c4.717-1.038,5.189-2.359,7.83-2.075c0.377,0,0.755,0.377,1.132,0.377s0.849-0.377,1.226-0.377
									c2.547-0.283,3.113,1.038,7.736,2.075c4.717,1.038,5.66-1.226,5.66-1.226c-4.717,3.019-10.566-5.66-14.623-3.585
									C93.592,200.477,87.743,209.156,83.026,206.137L83.026,206.137z"/>
							</g>
						</g>
					</g>
					<g>
						<path style="fill:#834C2E;" d="M141.979,163.222h0.964c6.728-60.926-44.406-58.489-44.406-58.489l-0.667,4.349l-0.667-4.349
							c0,0-51.134-2.437-44.406,58.489h0.964l-1.609,0.663c0,0,7.376-1.556,7.83,7.126c1.995-5.268,6.117-9.637,11.501-12.328
							c8.115-4.057,20.229-11.946,26.387-24.912c6.158,12.966,18.272,20.855,26.387,24.912c5.384,2.692,9.506,7.06,11.501,12.328
							c0.454-8.682,7.83-7.126,7.83-7.126L141.979,163.222z"/>
					</g>
				</g>
			</g>
		</g>
	</g>
	<g>
		<path style="opacity:0.2;fill-rule:evenodd;clip-rule:evenodd;" d="M34.088,56.886h61.499l1.932,3.345l0.009-0.005l7.556,13.087
			l4.624,8.011l4.614-7.989l7.566-13.103v-0.022l1.919-3.323h62.104c3.07,0,5.858-1.253,7.874-3.269
			c2.016-2.016,3.269-4.805,3.269-7.874V14.803c0-3.069-1.253-5.858-3.269-7.874s-4.804-3.269-7.874-3.269H34.088
			c-3.07,0-5.858,1.253-7.874,3.269s-3.269,4.805-3.269,7.874v30.941c0,3.069,1.253,5.858,3.269,7.874h0.02
			C28.254,55.635,31.035,56.886,34.088,56.886L34.088,56.886z M98.662,46.184H34.088c-0.124,0-0.237-0.049-0.318-0.123l0.01-0.01
			c-0.081-0.081-0.133-0.191-0.133-0.308V14.803c0-0.116,0.052-0.227,0.133-0.308c0.08-0.081,0.191-0.133,0.308-0.133h151.824
			c0.116,0,0.227,0.052,0.308,0.133c0.081,0.08,0.133,0.191,0.133,0.308v30.941c0,0.116-0.052,0.227-0.133,0.308
			c-0.08,0.081-0.191,0.133-0.308,0.133h-65.167h-3.063l-1.556,2.697l-3.467,6.003l-0.009-0.005l-2.953,5.113l-2.939-5.091v-0.022
			l-3.477-6.02l-1.545-2.675H98.662z"/>
		<path style="fill-rule:evenodd;clip-rule:evenodd;fill:#FFFFFF;" d="M34.088,53.225h61.499l1.932,3.345l0.009-0.005l7.556,13.087
			l4.624,8.011l4.614-7.988l7.566-13.103v-0.022l1.919-3.323h62.104c3.07,0,5.858-1.253,7.874-3.269
			c2.016-2.016,3.269-4.805,3.269-7.874V11.142c0-3.069-1.253-5.858-3.269-7.874S188.982,0,185.912,0H34.088
			c-3.07,0-5.858,1.253-7.874,3.269s-3.269,4.805-3.269,7.874v30.941c0,3.069,1.253,5.858,3.269,7.874h0.02
			C28.254,51.974,31.035,53.225,34.088,53.225L34.088,53.225z M98.662,42.524H34.088c-0.124,0-0.237-0.049-0.318-0.123l0.01-0.01
			c-0.081-0.081-0.133-0.191-0.133-0.308V11.142c0-0.116,0.052-0.227,0.133-0.308c0.08-0.081,0.191-0.133,0.308-0.133h151.824
			c0.116,0,0.227,0.052,0.308,0.133c0.081,0.081,0.133,0.191,0.133,0.308v30.941c0,0.116-0.052,0.227-0.133,0.308
			c-0.08,0.081-0.191,0.133-0.308,0.133h-65.167h-3.063l-1.556,2.697l-3.467,6.003l-0.009-0.005l-2.953,5.114l-2.939-5.092v-0.022
			l-3.477-6.02l-1.545-2.675H98.662z"/>
		<path style="fill-rule:evenodd;clip-rule:evenodd;fill:#C12564;" d="M34.088,46.186h64.574l3.477,6.02l7.565,13.105l7.565-13.105
			l3.476-6.02h65.167c3.185,0,5.791-2.606,5.791-5.791V9.452c0-3.185-2.606-5.79-5.791-5.79H34.088c-3.185,0-5.791,2.605-5.791,5.79
			v30.942C28.297,43.578,30.903,46.186,34.088,46.186z"/>
		<path style="fill-rule:evenodd;clip-rule:evenodd;fill:#E6E6E6;" d="M97.519,56.571L97.519,56.571L97.519,56.571z M109.709,70.153
			L98.05,50.501H34.088c-3.053,0-5.834-1.251-7.853-3.269h-0.02c-2.016-2.016-3.269-4.805-3.269-7.874v2.725
			c0,3.069,1.253,5.858,3.269,7.874h0.02c2.02,2.017,4.8,3.269,7.853,3.269h61.499l1.941,3.34l7.556,13.087l4.624,8.011l4.614-7.988
			l7.566-13.103v-0.022l1.919-3.323h62.104c3.07,0,5.858-1.253,7.874-3.269c2.016-2.016,3.269-4.805,3.269-7.874v-2.725
			c0,3.069-1.253,5.858-3.269,7.874c-2.016,2.016-4.804,3.269-7.874,3.269h-64.848L109.709,70.153z"/>
		<path style="fill-rule:evenodd;clip-rule:evenodd;fill:#5D1230;" d="M98.662,38.725H34.088c-0.147,0-0.295-0.005-0.441-0.017
			c-2.981-0.227-5.351-2.738-5.351-5.775v7.46c0,3.037,2.37,5.547,5.351,5.775c0.145,0.011,0.292,0.017,0.441,0.017h64.574
			l0.691,1.195l2.786,4.825l7.565,13.105l7.565-13.105l2.786-4.825l0.69-1.195h65.167c0.148,0,0.295-0.005,0.441-0.017
			c2.981-0.227,5.351-2.738,5.351-5.775v-7.46c0,3.037-2.37,5.547-5.351,5.775c-0.145,0.011-0.294,0.017-0.441,0.017h-65.167
			l-2.193,3.798l-1.283,2.221l-7.565,13.105l-7.565-13.105l-1.283-2.221L98.662,38.725z"/>
		<path style="fill-rule:evenodd;clip-rule:evenodd;fill:#E26A9A;" d="M98.662,37.036H34.088c-0.147,0-0.295-0.005-0.441-0.017
			c-2.981-0.227-5.351-2.738-5.351-5.775v1.689c0,3.037,2.37,5.547,5.351,5.775l0.441,0.017h64.574l2.193,3.798l1.283,2.221
			l7.565,13.105l7.565-13.105l1.283-2.221l2.193-3.798h65.167l0.441-0.017c2.981-0.227,5.351-2.738,5.351-5.775v-1.689
			c0,3.037-2.37,5.547-5.351,5.775c-0.145,0.011-0.294,0.017-0.441,0.017h-65.167l-3.476,6.02l-7.565,13.105l-7.565-13.105
			L98.662,37.036z"/>
		<path style="fill-rule:evenodd;clip-rule:evenodd;fill:#DA3F7E;" d="M28.297,14.362c0-3.185,2.606-5.79,5.791-5.79h151.824
			c3.185,0,5.791,2.605,5.791,5.79v-4.91c0-1.38-0.489-2.652-1.302-3.649c-1.065-1.305-2.684-2.141-4.489-2.141H34.088
			c-1.805,0-3.424,0.836-4.489,2.141c-0.813,0.997-1.302,2.269-1.302,3.649V14.362z"/>
		<path style="fill-rule:evenodd;clip-rule:evenodd;fill:#961D4E;" d="M185.912,29.887H34.088c-0.148,0-0.295-0.005-0.441-0.017
			c-2.981-0.227-5.351-2.736-5.351-5.773v7.148c0,3.037,2.37,5.547,5.351,5.775l0.441,0.017h64.574l3.477,6.02l7.565,13.105
			l7.565-13.105l3.476-6.02h65.167l0.441-0.017c2.981-0.227,5.351-2.738,5.351-5.775v-7.148c0,3.038-2.37,5.546-5.351,5.773
			C186.207,29.882,186.06,29.887,185.912,29.887z"/>
	</g>
	<g>
		<g>
			<path style="fill:#FFFFFF;" d="M47.197,31.293l2.748-21.22c4.945,1.439,7.735,3.219,8.37,5.336
				c0.223,0.742,0.334,1.504,0.334,2.288c0,1.397-0.365,2.816-1.096,4.256C56.41,24.198,52.958,27.312,47.197,31.293z
				 M53.064,16.046l-0.789,5.844c1.963-1.102,2.96-2.16,2.992-3.177C55.298,17.697,54.564,16.808,53.064,16.046z"/>
			<path style="fill:#FFFFFF;" d="M63.748,23.304c0.477,1.599,1.487,2.436,3.034,2.51c1.439,0.074,2.414-0.684,2.922-2.271
				l4.447-0.636c-1.133,4.648-3.383,6.973-6.75,6.973c-1.038,0-2.197-0.238-3.479-0.715c-2.372-1.354-3.558-3.96-3.558-7.814
				c0-0.328,0.01-0.693,0.031-1.096c0.233-4.458,2.403-7.047,6.512-7.767c3.896-0.085,6.141,2.624,6.733,8.126L63.748,23.304z
				 M64.963,17.642c-0.588,0.693-0.908,1.532-0.961,2.518l5.956-1.7c-0.688-1.238-1.546-1.858-2.572-1.858
				C66.358,16.601,65.551,16.948,64.963,17.642z"/>
			<path style="fill:#FFFFFF;" d="M73.691,28.847l1.874-4.257c2.394,1.557,4.246,2.335,5.56,2.335c0.466,0,0.916-0.138,1.35-0.413
				c0.487-0.307,0.731-0.683,0.731-1.127c0-0.668-0.89-1.229-2.669-1.685c-2.573-0.656-4.305-2.006-5.193-4.05
				c-0.297-0.678-0.445-1.303-0.445-1.874c0-1.218,0.625-2.282,1.874-3.192c1.07-0.784,2.663-1.176,4.781-1.176
				c1.493,0,3.251,0.196,5.273,0.588l-1.351,4.066c-1.535-0.688-2.779-1.033-3.732-1.033c-0.466,0-0.905,0.102-1.318,0.303
				c-0.508,0.243-0.762,0.572-0.762,0.985c0,0.382,0.339,0.79,1.017,1.225c0.466,0.297,1.376,0.711,2.731,1.24
				c1.144,0.445,1.97,0.891,2.478,1.336c0.741,0.646,1.133,1.517,1.176,2.608c0.074,1.791-0.763,3.419-2.51,4.882
				c-0.741,0.625-1.826,0.938-3.256,0.938C79.382,30.546,76.846,29.981,73.691,28.847z"/>
			<path style="fill:#FFFFFF;" d="M91.464,11.613c3.537,0,5.818,1.372,6.846,4.114c0.254,0.678,0.382,1.323,0.382,1.938
				c0,2.573-2.33,4.41-6.989,5.512l0.509,7.227l-4.193,0.254l-0.254-18.631C89.118,11.751,90.353,11.613,91.464,11.613z
				 M94.435,17.062c-0.043-0.614-1.08-1.165-3.113-1.652l0.254,3.686C93.524,18.354,94.477,17.676,94.435,17.062z"/>
			<path style="fill:#FFFFFF;" d="M102.98,9.945l1.397,19.299l-4.32,0.508L99.295,9.945H102.98z"/>
			<path style="fill:#FFFFFF;" d="M109.492,13.314c0.709-0.159,1.402-0.238,2.08-0.238c3.283,0,5.396,1.704,6.338,5.114
				c0.487,1.769,0.704,3.802,0.651,6.099l-0.127,5.448l-4.114,0.254l-0.031-0.746c-5.168-0.18-7.862-1.451-8.085-3.813
				c-0.032-0.339-0.048-0.587-0.048-0.746c0-1.927,0.773-3.135,2.319-3.621c0.772-0.244,1.54-0.365,2.303-0.365
				c1.017,0,2.055,0.206,3.113,0.619c-0.011-1.821-0.032-2.785-0.063-2.891c-0.212-0.73-0.916-1.144-2.112-1.239
				c-1.017-0.085-1.991,0.763-2.923,2.541l-4.066-0.635C105.828,15.706,107.416,13.779,109.492,13.314z M112.129,23.526
				c-1.112,0-1.694,0.291-1.747,0.873c-0.085,0.848,1.164,1.535,3.748,2.065l-0.111-2.748
				C113.277,23.59,112.648,23.526,112.129,23.526z"/>
			<path style="fill:#FFFFFF;" d="M130.744,13.599l0.254,5.353l-6.861,7.799l7.751-1.445l0.762,4.336l-12.833,1.144l-0.636-3.7
				l6.989-8.911l-6.735,0.223l-0.889-4.463L130.744,13.599z"/>
			<path style="fill:#FFFFFF;" d="M137.415,13.314c0.709-0.159,1.402-0.238,2.08-0.238c3.283,0,5.396,1.704,6.338,5.114
				c0.487,1.769,0.704,3.802,0.651,6.099l-0.127,5.448l-4.114,0.254l-0.031-0.746c-5.168-0.18-7.862-1.451-8.085-3.813
				c-0.032-0.339-0.048-0.587-0.048-0.746c0-1.927,0.773-3.135,2.319-3.621c0.772-0.244,1.54-0.365,2.303-0.365
				c1.017,0,2.055,0.206,3.113,0.619c-0.011-1.821-0.032-2.785-0.063-2.891c-0.212-0.73-0.916-1.144-2.112-1.239
				c-1.017-0.085-1.991,0.763-2.923,2.541l-4.066-0.635C133.751,15.706,135.339,13.779,137.415,13.314z M140.052,23.526
				c-1.112,0-1.694,0.291-1.747,0.873c-0.085,0.848,1.164,1.535,3.748,2.065l-0.111-2.748C141.2,23.59,140.57,23.526,140.052,23.526
				z"/>
			<path style="fill:#FFFFFF;" d="M147.405,29.896l-0.683-19.822c6.564,1.778,10.112,4.108,10.642,6.988
				c0.19,1.038,0.286,2.033,0.286,2.986c0,1.535-0.275,2.827-0.826,3.875C155.935,25.617,152.795,27.608,147.405,29.896z
				 M150.916,16.426l0.143,6.1c1.694-0.509,2.6-1.44,2.716-2.796C153.891,18.375,152.939,17.273,150.916,16.426z"/>
			<path style="fill:#FFFFFF;" d="M162.892,13.314c0.709-0.159,1.402-0.238,2.08-0.238c3.283,0,5.396,1.704,6.338,5.114
				c0.487,1.769,0.704,3.802,0.651,6.099l-0.127,5.448l-4.114,0.254l-0.031-0.746c-5.168-0.18-7.862-1.451-8.085-3.813
				c-0.032-0.339-0.048-0.587-0.048-0.746c0-1.927,0.773-3.135,2.319-3.621c0.772-0.244,1.54-0.365,2.303-0.365
				c1.017,0,2.055,0.206,3.113,0.619c-0.011-1.821-0.032-2.785-0.063-2.891c-0.212-0.73-0.916-1.144-2.112-1.239
				c-1.017-0.085-1.991,0.763-2.923,2.541l-4.066-0.635C159.228,15.706,160.816,13.779,162.892,13.314z M165.528,23.526
				c-1.112,0-1.694,0.291-1.747,0.873c-0.085,0.848,1.164,1.535,3.748,2.065l-0.111-2.748
				C166.677,23.59,166.047,23.526,165.528,23.526z"/>
		</g>
	</g>
</g>
</svg>
