<?xml version="1.0" encoding="utf-8"?>
<!-- Generator: Adobe Illustrator 21.0.0, SVG Export Plug-In . SVG Version: 6.00 Build 0)  -->
<svg version="1.1" id="Capa_1" xmlns="http://www.w3.org/2000/svg" xmlns:xlink="http://www.w3.org/1999/xlink" x="0px" y="0px"
	 viewBox="0 0 224 381.383" style="enable-background:new 0 0 224 381.383;" xml:space="preserve">
<g>
	<g>
		<g>
			<rect x="4" y="62.385" style="opacity:0.2;" width="220" height="318.998"/>
			<rect y="58.384" style="fill:#FFFFFF;" width="220" height="318.998"/>
			<rect x="9.04" y="65.184" style="fill:#E6E6E6;" width="201.921" height="304.349"/>
			
				<linearGradient id="SVGID_1_" gradientUnits="userSpaceOnUse" x1="455.3512" y1="1400.9744" x2="701.6607" y2="1400.9744" gradientTransform="matrix(0 1 -1 0 1510.9746 -390.1669)">
				<stop  offset="0" style="stop-color:#FFFFFF;stop-opacity:0"/>
				<stop  offset="0.2219" style="stop-color:#FCFCFC;stop-opacity:0.2219"/>
				<stop  offset="0.3578" style="stop-color:#F4F4F4;stop-opacity:0.3578"/>
				<stop  offset="0.4706" style="stop-color:#E6E6E6;stop-opacity:0.4706"/>
				<stop  offset="0.5708" style="stop-color:#D1D1D1;stop-opacity:0.5708"/>
				<stop  offset="0.6626" style="stop-color:#B6B6B6;stop-opacity:0.6626"/>
				<stop  offset="0.7484" style="stop-color:#969696;stop-opacity:0.7484"/>
				<stop  offset="0.8294" style="stop-color:#6F6F6F;stop-opacity:0.8294"/>
				<stop  offset="0.9067" style="stop-color:#424242;stop-opacity:0.9067"/>
				<stop  offset="0.9784" style="stop-color:#101010;stop-opacity:0.9784"/>
				<stop  offset="1" style="stop-color:#000000"/>
			</linearGradient>
			<rect x="9.04" y="65.184" style="opacity:0.2;fill:url(#SVGID_1_);" width="201.921" height="246.31"/>
		</g>
	</g>
	<g>
		<defs>
			<filter id="Adobe_OpacityMaskFilter" filterUnits="userSpaceOnUse" x="51.003" y="340.654" width="104.605" height="27.047">
				<feFlood  style="flood-color:white;flood-opacity:1" result="back"/>
				<feBlend  in="SourceGraphic" in2="back" mode="normal"/>
			</filter>
		</defs>
		<mask maskUnits="userSpaceOnUse" x="51.003" y="340.654" width="104.605" height="27.047" id="XMLID_2_">
		</mask>
		
			<ellipse id="XMLID_34_" transform="matrix(1 -0.0098 0.0098 1 -3.4556 1.0263)" style="opacity:0.5;mask:url(#XMLID_2_);fill:#999999;" cx="103.306" cy="354.178" rx="52.305" ry="13.514"/>
		<g>
			<g>
				<g>
					<path style="fill:#BC8853;stroke:#994900;stroke-linecap:round;stroke-linejoin:round;stroke-miterlimit:10;" d="
						M130.605,237.913c0,0,25.803-3.03,39.927-28.362l13.899,9.37c0,0-17.7,27.638-54.599,30.217L130.605,237.913z"/>
					<path style="fill:#9B6534;" d="M170.532,209.551c0,0-4.41,5.143,3.603,9.745c8.013,4.602,10.296-0.374,10.296-0.374
						L170.532,209.551z"/>
					<path style="fill:#BC8853;stroke:#994900;stroke-linecap:round;stroke-linejoin:round;stroke-miterlimit:10;" d="
						M168.132,203.77c0,0-0.806-2.928-4.465-5.586c-3.659-2.663-1.001-6.338-1.001-6.338s2.017-3.267,5.394-0.774
						c0,0,2.264,1.347,2.784,5.183c0,0,0.321,1.21,0.782,1.973c0.768,1.27,1.177,1.699,1.177,1.699s1.222,0.726,1.72-0.324
						c0,0,1.186-2.938,1.364-6.307c0.053-0.96,1.086-9.579,1.839-13.314c0.641-3.171,2.511-3.296,3.49-3.393
						c1.08-0.108,2.846,0.408,2.984,2.011c0.259,2.976-1.845,13.133-1.837,15.14l3.15-13.829c0,0,0.821-3.319,3.603-3.636
						c0,0,3.929-0.805,4.427,3.059c0,0,0.129,0.688-0.484,2.32c-0.617,1.629-4.773,14.39-4.773,14.39l6.446-13.938
						c0,0,1.025-2.027,2.812-2.239c1.786-0.204,4.075,1.039,4.261,3.379c0.163,2.046-0.56,3.161-0.56,3.161l-7.779,12.709
						l5.189-7.061c0,0,1.327-1.801,3.217-1.973c1.887-0.164,3.546,1.808,3.388,3.397c0,0,0.162-0.275-0.586,1.404
						c-0.772,1.734-6.688,9.126-6.688,9.126s-1.477,2.487-2.519,4.383c-1.064,1.939-5.457,10.916-11.662,11.508
						c-6.207,0.588-13.789-4.257-14.388-8.766C168.996,207.961,168.712,205.072,168.132,203.77z"/>
					<path style="fill:#EFC392;stroke:#994900;stroke-linecap:round;stroke-linejoin:round;stroke-miterlimit:10;" d="
						M181.904,195.561c0,0,4.094,8.982,10.902,11.262C192.806,206.822,190.34,206.385,181.904,195.561z"/>
					<path style="fill:#EFC392;stroke:#994900;stroke-linecap:round;stroke-linejoin:round;stroke-miterlimit:10;" d="
						M176.475,198.216c0,0,7.183,10.19,2.959,18.652C179.433,216.868,181.72,208.309,176.475,198.216z"/>
				</g>
				<g>
					<g>
						<g>
							<path style="fill:#BC8853;stroke:#994900;stroke-linecap:round;stroke-linejoin:round;stroke-miterlimit:10;" d="
								M91.858,348.511l3.699-31.543l-10.245-1.201l-3.719,31.717c-7.206,0.328-9.691,2.899-9.691,6.027
								c0,3.352,3.206,3.555,11.663,3.555c8.451,0,14.942-0.202,14.942-3.555C98.508,351.434,95.872,349.604,91.858,348.511z"/>
							<path d="M85.499,357.058c-1.797-5.041-4.456-7.875-6.348-9.355c-5.333,0.749-7.248,3.063-7.248,5.807
								c0,3.352,3.206,3.555,11.663,3.555C84.224,357.064,84.866,357.062,85.499,357.058z"/>
							<path d="M97.33,357.816H73.08c-0.648,0-1.178-0.53-1.178-1.178l0,0c0-0.648,0.53-1.178,1.178-1.178h24.25
								c0.648,0,1.178,0.53,1.178,1.178l0,0C98.508,357.286,97.978,357.816,97.33,357.816z"/>
							<path d="M93.062,348.873c0,0-1.817,1.337-1.709,6.589h1.709c0,0-0.289-3.98,1.6-5.969L93.062,348.873z"/>
						</g>
						<g>
							<path style="fill:#C7B299;" d="M83.768,278.982l20.609,1.885v17.35l-2.438,35.078c0,0-9.973,2.639-22.16,0
								C79.779,333.296,81.33,286.777,83.768,278.982z"/>
							<path style="fill:#998675;" d="M100.611,336.999l-20.064-1.934c-1.448-0.07-2.576-1.312-2.507-2.76l0.215-4.467
								c0.07-1.448,1.523-1.89,3.947-1.883l18.89,0.344c1.448,0.07,2.576,1.312,2.507,2.76l-0.215,4.467
								C103.314,334.975,102.059,337.069,100.611,336.999z"/>
						</g>
					</g>
					<g>
						<g>
							<path style="fill:#BC8853;stroke:#994900;stroke-linecap:round;stroke-linejoin:round;stroke-miterlimit:10;" d="
								M127.161,347.483l-3.719-31.717l-10.245,1.201l3.699,31.543c-4.015,1.093-6.65,2.923-6.65,4.999
								c0,3.352,6.491,3.555,14.942,3.555c8.457,0,11.663-0.202,11.663-3.555C136.852,350.382,134.368,347.81,127.161,347.483z"/>
							<path d="M123.255,357.058c1.797-5.041,4.456-7.875,6.348-9.355c5.333,0.749,7.248,3.063,7.248,5.807
								c0,3.352-3.206,3.555-11.663,3.555C124.53,357.064,123.888,357.062,123.255,357.058z"/>
							<path d="M111.424,357.816h24.25c0.648,0,1.178-0.53,1.178-1.178l0,0c0-0.648-0.53-1.178-1.178-1.178h-24.25
								c-0.648,0-1.178,0.53-1.178,1.178l0,0C110.246,357.286,110.776,357.816,111.424,357.816z"/>
							<path d="M115.693,348.873c0,0,1.817,1.337,1.709,6.589h-1.709c0,0,0.289-3.98-1.6-5.969L115.693,348.873z"/>
						</g>
						<g>
							<path style="fill:#C7B299;" d="M124.986,278.982l-20.609,1.885v17.35l2.438,35.078c0,0,9.973,2.639,22.16,0
								C128.975,333.296,127.424,286.777,124.986,278.982z"/>
							<path style="fill:#998675;" d="M108.143,336.999l20.064-1.934c1.448-0.07,2.576-1.312,2.507-2.76l-0.215-4.467
								c-0.07-1.448-1.523-1.89-3.947-1.883l-18.89,0.344c-1.448,0.07-2.576,1.312-2.507,2.76l0.215,4.467
								C105.44,334.975,106.695,337.069,108.143,336.999z"/>
						</g>
					</g>
				</g>
				<g>
					<g id="XMLID_402_">
						
							<path id="XMLID_403_" style="fill:#BC8853;stroke:#994900;stroke-linecap:round;stroke-linejoin:round;stroke-miterlimit:10;" d="
							M72.592,243.822c0,0-15.359,29.791,10.859,39.063l-0.6-9.111c0,0-14.689-7.235-7.785-23.784L72.592,243.822z"/>
					</g>
					<g>
						<path style="fill:#CCCCCC;" d="M81.373,260.331c0,0-0.348-20.027-2.492-31.374c-0.957,0.628-3.408,2.475-3.992,3.026
							c-4.607,4.349-11.109,17.013-12.164,19.89l14.061,11.574L81.373,260.331z"/>
						<path style="fill:#999999;" d="M79.077,261.892L63.97,249.085c-0.595,1.227-1.032,2.209-1.244,2.789l14.061,11.574
							L79.077,261.892z"/>
					</g>
				</g>
				<g>
					<path style="fill:#CCCCCC;" d="M78.852,228.859l18.743-4.341h6.792v67.208c0,0-10.216-0.869-14.164-2.735
						c-1.807-0.856-7.318-5.491-7.318-5.491l-2.046-30.957L78.852,228.859z"/>
					<path style="fill:#CCCCCC;" d="M129.315,228.958l-18.138-4.44h-6.791v67.208c0,0,10.092-0.209,14.04-2.078
						c1.809-0.854,7.414-6.211,7.414-6.211l2.074-30.895L129.315,228.958z"/>
					<polygon style="fill:#999999;" points="104.387,219.507 94.511,219.507 96.936,224.452 104.387,224.518 111.838,224.452 
						114.26,219.507 					"/>
					<polygon style="fill:#9D5C4A;" points="100.899,227.544 104.387,229.67 104.387,232.167 99.45,229.367 					"/>
					<polygon style="fill:#9D5C4A;" points="104.387,229.67 107.875,227.544 109.324,229.367 104.387,232.167 					"/>
					<path style="fill:#999999;" d="M106.856,260.269c-0.805,0-1.455,0.61-1.455,1.362c0,0.751,0.65,1.362,1.455,1.362
						c0.802,0,1.456-0.61,1.456-1.362C108.312,260.88,107.658,260.269,106.856,260.269z M106.339,261.905
						c-0.162,0-0.293-0.123-0.293-0.274c0-0.151,0.131-0.275,0.293-0.275c0.161,0,0.291,0.124,0.291,0.275
						C106.631,261.782,106.5,261.905,106.339,261.905z M107.388,261.919c-0.162,0-0.293-0.123-0.293-0.274
						c0-0.152,0.132-0.274,0.293-0.274c0.16,0,0.292,0.122,0.292,0.274C107.68,261.796,107.549,261.919,107.388,261.919z"/>
					<path style="fill:#999999;" d="M106.856,271.629c-0.805,0-1.455,0.61-1.455,1.362c0,0.753,0.65,1.36,1.455,1.36
						c0.802,0,1.456-0.608,1.456-1.36C108.312,272.239,107.658,271.629,106.856,271.629z M106.339,273.264
						c-0.162,0-0.293-0.122-0.293-0.273c0-0.152,0.131-0.274,0.293-0.274c0.161,0,0.291,0.122,0.291,0.274
						C106.631,273.142,106.5,273.264,106.339,273.264z M107.388,273.277c-0.162,0-0.293-0.122-0.293-0.274
						c0-0.15,0.132-0.273,0.293-0.273c0.16,0,0.292,0.123,0.292,0.273C107.68,273.155,107.549,273.277,107.388,273.277z"/>
					<path style="fill:#999999;" d="M106.856,284.289c-0.805,0-1.455,0.61-1.455,1.361c0,0.751,0.65,1.362,1.455,1.362
						c0.802,0,1.456-0.611,1.456-1.362C108.312,284.898,107.658,284.289,106.856,284.289z M106.339,285.923
						c-0.162,0-0.293-0.122-0.293-0.273c0-0.151,0.131-0.274,0.293-0.274c0.161,0,0.291,0.123,0.291,0.274
						C106.631,285.801,106.5,285.923,106.339,285.923z M107.388,285.937c-0.162,0-0.293-0.123-0.293-0.275
						c0-0.151,0.132-0.274,0.293-0.274c0.16,0,0.292,0.123,0.292,0.274C107.68,285.814,107.549,285.937,107.388,285.937z"/>
					<g>
						<polygon style="fill:#B3B3B3;" points="117.803,243.196 110.982,243.196 111.653,253.298 117.803,254.872 123.845,253.562 
							124.622,243.196 						"/>
					</g>
					<g>
						<polygon style="fill:#BC8853;" points="96.119,226.511 103.729,262.926 111.542,226.511 						"/>
					</g>
					<ellipse style="fill:#9B6534;" cx="104.386" cy="227.147" rx="9.874" ry="4.629"/>
					<polygon style="fill:#999999;" points="112.499,226.511 111.766,225.465 103.729,262.926 95.901,225.465 95.168,226.511 
						103.114,264.042 103.114,291.634 104.387,291.726 104.387,264.017 					"/>
					<polygon style="fill:#999999;" points="94.511,219.507 91.649,226.719 94.511,238.18 100.899,230.143 					"/>
					<polygon style="fill:#999999;" points="114.26,219.507 117.123,226.719 114.26,238.18 107.875,230.143 					"/>
				</g>
				<path style="fill:#3D1C00;" d="M174.709,109.593c0,0-41.928,21.581-72.074,20.082c-30.145,1.499-72.073-20.082-72.073-20.082
					c-8.384-3.924-16.002,14.601,8.495,35.968c20.077,17.511,56.959,20.414,63.578,19.937c6.619,0.477,42.547-2.183,63.578-19.937
					C191.018,124.622,183.092,105.669,174.709,109.593z"/>
				<g>
					<g>
						<g>
							<path style="fill:#BC8853;stroke:#994900;stroke-linecap:round;stroke-linejoin:round;stroke-miterlimit:10;" d="
								M69.326,179.987c0,0-2.68-8.207-7.574-8.207c-4.891,0-2.526,15.935,10.257,24.142L69.326,179.987z"/>
							<path style="fill:#BC8853;stroke:#994900;stroke-linecap:round;stroke-linejoin:round;stroke-miterlimit:10;" d="
								M139.148,179.987c0,0,2.679-8.207,7.574-8.207c4.894,0,2.521,15.935-10.26,24.142L139.148,179.987z"/>
							<path style="fill:#BC8853;stroke:#994900;stroke-linecap:round;stroke-linejoin:round;stroke-miterlimit:10;" d="
								M104.299,122.427c0,0,24.139,0,26.893,0c2.753,0,9.575,4.347,10.282,26.239c1.395,42.912-0.443,54.12-15.817,70.336
								c-7.087,7.473-14.567,10.704-21.358,10.704c-6.602,0-14.275-3.231-21.361-10.704c-15.376-16.217-17.214-27.424-15.82-70.336
								c0.71-21.891,7.529-26.239,10.284-26.239C80.155,122.427,104.299,122.427,104.299,122.427z"/>
							<g>
								<path d="M130.12,159.651c-0.245-0.129-0.675-0.253-1.201-0.453c-0.529-0.194-1.164-0.442-1.911-0.605
									c-1.45-0.444-3.275-0.672-5.057-0.804c-3.598-0.174-7.013,0.571-7.608,0.7c-1.259,0.188-3.037,0.861-4.005-1.035
									c-0.537-0.979,0.439-1.958,1.932-2.599c1.489-0.664,3.487-0.97,4.933-1.055c1.437-0.132,4.582-0.042,7.509,0.712
									c0.727,0.208,1.452,0.385,2.125,0.616c0.667,0.256,1.299,0.498,1.882,0.72c1.121,0.523,2.005,0.987,2.483,1.243
									c0.906,0.621,1.949,1.192,2.617,1.94c0.695,0.714,1.142,1.384,1.057,1.913C134.665,162.016,132.17,160.506,130.12,159.651z"
									/>
							</g>
							<g>
								<path d="M78.043,159.651c0.245-0.129,0.676-0.253,1.201-0.453c0.53-0.194,1.166-0.442,1.911-0.605
									c1.451-0.444,3.277-0.672,5.057-0.804c3.6-0.174,7.014,0.571,7.61,0.7c1.256,0.188,3.037,0.861,4.005-1.035
									c0.537-0.979-0.439-1.958-1.932-2.599c-1.492-0.664-3.487-0.97-4.933-1.055c-1.44-0.132-4.584-0.042-7.512,0.712
									c-0.726,0.208-1.453,0.385-2.123,0.616c-0.668,0.256-1.301,0.498-1.882,0.72c-1.122,0.523-2.007,0.987-2.485,1.243
									c-0.904,0.621-1.948,1.192-2.617,1.94c-0.695,0.714-1.142,1.384-1.058,1.913C73.5,162.016,75.993,160.506,78.043,159.651z"
									/>
							</g>
							<g id="XMLID_391_">
								<g id="XMLID_397_">
									<path id="XMLID_401_" style="fill:#FFFFFF;" d="M84.314,164.128c-11.293,2.988-10.801,19.109,1.468,19.077
										C98.05,183.173,97.455,160.652,84.314,164.128z"/>
									
										<ellipse id="XMLID_400_" transform="matrix(0.0209 -0.9998 0.9998 0.0209 -89.4799 255.4315)" cx="85.676" cy="173.401" rx="6.031" ry="4.774"/>
									
										<ellipse id="XMLID_399_" transform="matrix(0.0209 -0.9998 0.9998 0.0209 -88.7302 250.0672)" style="fill:#FFFFFF;" cx="83.31" cy="170.336" rx="2.848" ry="2.848"/>
									
										<ellipse id="XMLID_398_" transform="matrix(0.0209 -0.9998 0.9998 0.0209 -90.4382 259.5474)" style="fill:#FFFFFF;" cx="87.298" cy="175.949" rx="1.089" ry="1.089"/>
								</g>
								<g id="XMLID_392_">
									<path id="XMLID_396_" style="fill:#FFFFFF;" d="M124.038,164.219c11.158,3.457,9.992,19.544-2.264,18.999
										C109.517,182.673,111.054,160.196,124.038,164.219z"/>
									
										<ellipse id="XMLID_395_" transform="matrix(0.0209 -0.9998 0.9998 0.0209 -53.1758 292.5756)" cx="122.792" cy="173.438" rx="6.031" ry="4.774"/>
									
										<ellipse id="XMLID_394_" transform="matrix(0.0209 -0.9998 0.9998 0.0209 -52.4257 287.2113)" style="fill:#FFFFFF;" cx="120.427" cy="170.372" rx="2.848" ry="2.848"/>
									
										<ellipse id="XMLID_393_" transform="matrix(0.0209 -0.9998 0.9998 0.0209 -54.1341 296.6915)" style="fill:#FFFFFF;" cx="124.415" cy="175.985" rx="1.089" ry="1.089"/>
								</g>
							</g>
							<g>
								<path id="XMLID_408_" style="fill:#7F4C26;" d="M99.089,194.438c0.599-0.795,2.388,1.372,5.12,1.55
									c2.732,0.178,3.935-2.723,5.129-2.037c1.194,0.686-1.207,4.437-5.306,4.769C99.932,199.052,98.575,195.12,99.089,194.438z"
									/>
								<g>
									<path d="M120.427,202.801c0,0-0.548,8.427-6.872,12.925c-2.295,1.634-5.355,2.744-9.427,2.744
										c-4.067,0-7.118-1.107-9.415-2.738c-6.324-4.496-6.878-12.931-6.878-12.931H120.427z"/>
									<path style="fill:#FFFFFF;" d="M90.293,202.801h27.877c0,0,0.922,3.21-13.938,3.21S90.293,202.801,90.293,202.801z"/>
									<path style="fill:#FFFFFF;" d="M113.555,215.726c-2.295,1.634-5.355,2.744-9.427,2.744c-4.067,0-7.118-1.107-9.415-2.738
										C96.963,215.366,104.22,214.438,113.555,215.726z"/>
								</g>
							</g>
							<path style="fill-rule:evenodd;clip-rule:evenodd;" d="M122.81,197.165c-3.891,3.2-11.739,2.103-18.414,2.278
								c-6.697-0.175-14.545,0.922-18.436-2.278c-2.212,6.125,9.376,10.287,18.426,6.679
								C113.456,207.453,125.042,203.29,122.81,197.165z"/>
						</g>
					</g>
					<path style="fill-rule:evenodd;clip-rule:evenodd;" d="M105.908,102.428c5.466-0.78,8.363-7.881,16.341-2.857
						c24.153,15.214,14,27.271,31.087,42.104c8.609,7.473-4.912,30.106-11.82,33.578c-2.039,1.025,3.409-10.315-3.687-11.94
						c-5.422-1.242-12.813-10.629-11.564-7.307c3.744,9.951,9.704,9.707,0.103,5.342c-13.342-6.064-24.228-22.342-23.911-31.394
						c-0.357,10.187-12.522,26.731-22.262,31.981c-1.867,1.006-16.242,8.086-8.352,1.358c8.126-6.929,13.268-18.068,2.662-7.119
						c-6.425,6.631-8.753-0.815-6.974,14.162c1.462,12.306,0.741,2.958-5.251,1.479c-7.476-1.845-9.999-16.271-9.259-23.882
						c1.837-18.871,12.587-24.521,22.376-39.485c5.175-7.912,20.047-17.447,28.111-7.413
						C103.662,101.224,105.621,102.308,105.908,102.428z"/>
				</g>
				<g>
					<path d="M104.373,288.847c-11.406,0-20.881-1.729-21.574-7.19c-0.027,0.216-0.067,0.43-0.067,0.65
						c0,5.765,9.785,10.439,21.642,10.439s21.648-4.673,21.648-10.439c0-0.219-0.04-0.434-0.067-0.65
						C125.26,287.118,115.778,288.847,104.373,288.847z"/>
					<path style="fill:#754C24;" d="M106.249,293.773h-4.275c-1.704,0-3.091-1.195-3.091-2.665c0-1.472,1.386-2.67,3.091-2.67h4.275
						c1.704,0,3.089,1.198,3.089,2.67C109.339,292.577,107.953,293.773,106.249,293.773z M101.974,289.734
						c-0.989,0-1.794,0.616-1.794,1.374c0,0.755,0.805,1.368,1.794,1.368h4.275c0.989,0,1.793-0.613,1.793-1.368
						c0-0.758-0.804-1.374-1.793-1.374H101.974z"/>
				</g>
				<g>
					<path style="fill:#754C24;" d="M123.795,282.217c3.009-0.763,6.204,0.45,8.934,3.032c2.684,2.537,4.928,6.407,6.093,11.004
						c1.166,4.597,1.036,9.068-0.114,12.576c-1.17,3.569-3.401,6.16-6.411,6.922c-3.01,0.764-6.204-0.45-8.934-3.032
						c-2.684-2.537-4.928-6.407-6.093-11.002c-1.166-4.599-1.036-9.069,0.115-12.578C118.554,285.57,120.784,282.98,123.795,282.217
						L123.795,282.217z M132.181,285.83c-2.534-2.393-5.463-3.53-8.19-2.838c-2.727,0.692-4.763,3.086-5.849,6.398
						c-1.107,3.371-1.227,7.683-0.099,12.13c1.128,4.449,3.286,8.182,5.865,10.619c2.533,2.395,5.464,3.53,8.191,2.839
						c2.726-0.692,4.762-3.086,5.848-6.398c1.107-3.371,1.227-7.683,0.098-12.13C136.919,292,134.759,288.268,132.181,285.83
						L132.181,285.83z"/>
					<path style="fill:#754C24;" d="M125.299,283.431c2.918-1.061,6.219-0.173,9.193,2.121c2.924,2.255,5.544,5.879,7.165,10.337
						c1.62,4.456,1.942,8.917,1.147,12.524c-0.806,3.669-2.766,6.47-5.684,7.531c-2.917,1.062-6.218,0.174-9.194-2.119
						c-2.925-2.257-5.546-5.88-7.166-10.338c-1.62-4.457-1.94-8.918-1.147-12.525C120.42,287.294,122.379,284.492,125.299,283.431
						L125.299,283.431z M134.005,286.186c-2.76-2.129-5.79-2.964-8.434-2.003c-2.643,0.961-4.429,3.547-5.177,6.951
						c-0.763,3.465-0.45,7.766,1.118,12.079c1.567,4.313,4.09,7.811,6.899,9.977c2.761,2.129,5.79,2.965,8.435,2.003
						c2.643-0.961,4.428-3.549,5.177-6.952c0.763-3.466,0.45-7.767-1.117-12.079C139.337,291.849,136.815,288.352,134.005,286.186
						L134.005,286.186z"/>
					<path style="fill:#754C24;" d="M123.646,282.688c3.059-0.524,6.148,0.939,8.667,3.726c2.475,2.741,4.408,6.773,5.208,11.448
						c0.799,4.675,0.32,9.121-1.105,12.529c-1.448,3.467-3.873,5.872-6.935,6.397c-3.061,0.523-6.149-0.939-8.667-3.726
						c-2.478-2.74-4.409-6.773-5.209-11.448c-0.799-4.674-0.321-9.121,1.105-12.528
						C118.157,285.618,120.584,283.213,123.646,282.688L123.646,282.688z M131.722,286.951c-2.337-2.586-5.169-3.949-7.942-3.475
						c-2.773,0.475-4.99,2.701-6.335,5.918c-1.368,3.274-1.825,7.562-1.052,12.085c0.775,4.524,2.634,8.414,5.011,11.047
						c2.337,2.586,5.169,3.949,7.942,3.473c2.773-0.474,4.991-2.7,6.334-5.917c1.369-3.274,1.827-7.561,1.054-12.085
						C135.959,293.474,134.1,289.583,131.722,286.951L131.722,286.951z"/>
					<path style="fill:#754C24;" d="M127.512,282.431c2.594,0.17,4.825,1.964,6.333,4.726c1.482,2.715,2.269,6.377,2.009,10.341
						c-0.261,3.964-1.519,7.492-3.344,9.99c-1.855,2.542-4.3,4.028-6.897,3.858c-2.596-0.171-4.826-1.964-6.333-4.726
						c-1.484-2.715-2.27-6.377-2.01-10.341c0.261-3.964,1.518-7.493,3.344-9.99C122.47,283.747,124.916,282.261,127.512,282.431
						L127.512,282.431z M133.259,287.479c-1.399-2.563-3.44-4.225-5.791-4.379c-2.351-0.154-4.591,1.227-6.315,3.585
						c-1.753,2.4-2.962,5.804-3.214,9.639c-0.251,3.837,0.504,7.368,1.927,9.976c1.399,2.562,3.44,4.225,5.792,4.378
						c2.352,0.155,4.592-1.226,6.313-3.584c1.754-2.4,2.963-5.803,3.215-9.639C135.438,293.619,134.683,290.087,133.259,287.479
						L133.259,287.479z"/>
					<path style="fill:#754C24;" d="M125.3,282.304c3.138-0.729,6.214,0.768,8.649,3.775c2.392,2.959,4.173,7.391,4.77,12.594
						c0.599,5.204-0.097,10.211-1.704,14.095c-1.633,3.955-4.215,6.763-7.352,7.493c-3.14,0.728-6.215-0.768-8.649-3.776
						c-2.395-2.958-4.172-7.39-4.771-12.594c-0.598-5.204,0.096-10.209,1.703-14.096C119.58,285.843,122.16,283.033,125.3,282.304
						L125.3,282.304z M133.322,286.709c-2.259-2.791-5.078-4.188-7.922-3.528c-2.844,0.66-5.204,3.259-6.72,6.926
						c-1.543,3.734-2.208,8.561-1.629,13.597c0.578,5.035,2.289,9.31,4.589,12.153c2.259,2.791,5.078,4.188,7.921,3.527
						c2.843-0.66,5.203-3.259,6.719-6.926c1.544-3.733,2.209-8.562,1.631-13.596C137.332,293.825,135.62,289.549,133.322,286.709
						L133.322,286.709z"/>
				</g>
				<g>
					<path style="fill:#F7931E;" d="M80.957,282.986l6.781,2.308c0,0-2.848,36.401-8.309,36.23
						C73.967,321.352,80.957,282.986,80.957,282.986z"/>
					<polygon style="fill:#ED1C24;" points="79.982,288.782 87.194,291.105 87.02,292.745 79.741,290.324 					"/>
					<polygon style="fill:#603813;" points="80.957,282.986 87.738,285.294 87.62,286.68 80.727,284.289 					"/>
					<polygon style="fill:#ED1C24;" points="79.527,291.726 86.862,294.16 86.694,295.605 79.301,293.257 					"/>
					<path style="fill:#ED1C24;" d="M77.372,312.259c-0.154,5.302,0.323,9.21,2.056,9.265c1.661,0.052,3.08-3.289,4.251-7.953
						L77.372,312.259z"/>
					<path d="M82.322,283.451l4.061,1.382c0,0,0.795-7.01-0.187-8.391c-0.982-1.381-4.388-3.275-4.737-2.091
						C81.109,275.535,83.457,277.735,82.322,283.451z"/>
				</g>
				<path style="fill:#CCCCCC;" d="M129.315,228.958c0,0,12.022,3.359,18.276-0.62l2.653,20.628c0,0-10.421,4.568-22.285,2.825
					L129.315,228.958z"/>
				<path style="fill:#999999;" d="M145.343,229.404l2.44,20.53c1.55-0.562,2.461-0.969,2.461-0.969l-2.653-20.628
					C146.927,228.76,146.165,229.11,145.343,229.404z"/>
				<g>
					<path style="fill:#602E0C;" d="M134.449,87.01c-6.732-9.179-14.686-13.768-20.806-8.261
						c-6.119,5.507-11.014,4.895-11.014,4.895s-4.895,0.612-11.015-4.895c-6.119-5.507-14.074-0.918-20.805,8.261
						c-6.731,9.179-7.343,26.316-7.343,26.316v9.984c25.367,6.771,39.163,8.219,39.163,8.219s13.796-1.449,39.163-8.219v-9.984
						C141.792,113.326,141.18,96.189,134.449,87.01z"/>
					<path style="fill:#4C2103;" d="M70.809,87.01c-3.499,4.772-5.343,13.096-6.308,19.993c0.107,0.077,0.202,0.169,0.315,0.24
						c5.427,3.412,14.719-1.605,20.754-11.205c4.131-6.571,5.662-13.584,4.479-18.451C84.178,74.044,76.98,78.595,70.809,87.01z"/>
					<path style="fill:#BA0000;" d="M103.259,132.791c21.74,0,38.595-8.046,38.595-0.342v-6.254
						c0-7.709-16.855-13.957-38.595-13.957c-21.744,0-39.664,6.248-39.664,13.957l-1.422,6.254
						C62.174,124.745,81.515,132.791,103.259,132.791z"/>
					<path style="fill:#4C2103;" d="M134.449,87.01c3.499,4.772,5.343,13.096,6.308,19.993c-0.107,0.077-0.202,0.169-0.315,0.24
						c-5.428,3.412-14.72-1.605-20.754-11.205c-4.132-6.571-5.663-13.584-4.479-18.451C121.08,74.044,128.279,78.595,134.449,87.01z
						"/>
					<g>
						<g>
							<circle style="fill:#FBB03B;" cx="102.629" cy="120.432" r="2.749"/>
						</g>
						<g>
							<circle style="fill:#FBB03B;" cx="93.533" cy="121.731" r="2.749"/>
						</g>
						<g>
							<circle style="fill:#FBB03B;" cx="84.436" cy="123.031" r="2.749"/>
						</g>
						<g>
							<circle style="fill:#FBB03B;" cx="75.34" cy="125.63" r="2.749"/>
						</g>
						<g>
							<circle style="fill:#FBB03B;" cx="111.725" cy="121.731" r="2.749"/>
						</g>
						<g>
							<circle style="fill:#FBB03B;" cx="120.822" cy="123.031" r="2.749"/>
						</g>
						<g>
							<circle style="fill:#FBB03B;" cx="129.918" cy="125.63" r="2.749"/>
						</g>
					</g>
					<path style="fill:#6B3A15;" d="M167.663,112.912c-41.638,18.913-65.027,16.763-65.027,16.763s-23.389,2.15-65.027-16.763H37.52
						c42.581,40.244,65.116,37.583,65.116,37.583s22.536,2.167,65.116-37.583H167.663z"/>
				</g>
				<g>
					<path style="fill:#999999;" d="M78.881,229.881c0,0,0.224,1.857,0.56,4.642c0.317,2.784,0.663,6.507,1.002,10.229
						c0.299,3.724,0.591,7.45,0.751,10.251c0.142,2.802,0.236,4.668,0.236,4.668s-0.224-1.857-0.56-4.64
						c-0.318-2.786-0.663-6.509-1.002-10.232c-0.299-3.724-0.59-7.45-0.75-10.251C78.977,231.747,78.881,229.881,78.881,229.881z"/>
					<path style="fill:#999999;" d="M129.515,229.922c0,0-0.224,1.857-0.56,4.642c-0.317,2.784-0.663,6.507-1.002,10.229
						c-0.299,3.724-0.591,7.45-0.751,10.251c-0.142,2.802-0.236,4.668-0.236,4.668s0.224-1.857,0.56-4.64
						c0.318-2.786,0.663-6.509,1.002-10.232c0.299-3.724,0.59-7.45,0.75-10.251C129.42,231.788,129.515,229.922,129.515,229.922z"/>
				</g>
			</g>
		</g>
	</g>
	<g>
		<path style="opacity:0.2;fill-rule:evenodd;clip-rule:evenodd;" d="M34.088,56.886h61.499l1.932,3.345l0.009-0.005l7.556,13.087
			l4.624,8.011l4.614-7.989l7.566-13.103v-0.022l1.919-3.323h62.104c3.07,0,5.858-1.253,7.874-3.269
			c2.016-2.016,3.269-4.805,3.269-7.874V14.803c0-3.069-1.253-5.858-3.269-7.874s-4.804-3.269-7.874-3.269H34.088
			c-3.07,0-5.858,1.253-7.874,3.269s-3.269,4.805-3.269,7.874v30.941c0,3.069,1.253,5.858,3.269,7.874h0.02
			C28.254,55.635,31.035,56.886,34.088,56.886L34.088,56.886z M98.662,46.184H34.088c-0.124,0-0.237-0.049-0.318-0.123l0.01-0.01
			c-0.081-0.081-0.133-0.191-0.133-0.308V14.803c0-0.116,0.052-0.227,0.133-0.308c0.08-0.081,0.191-0.133,0.308-0.133h151.824
			c0.116,0,0.227,0.052,0.308,0.133c0.081,0.08,0.133,0.191,0.133,0.308v30.941c0,0.116-0.052,0.227-0.133,0.308
			c-0.08,0.081-0.191,0.133-0.308,0.133h-65.167h-3.063l-1.556,2.697l-3.467,6.003l-0.009-0.005l-2.953,5.113l-2.939-5.091v-0.022
			l-3.477-6.02l-1.545-2.675H98.662z"/>
		<path style="fill-rule:evenodd;clip-rule:evenodd;fill:#FFFFFF;" d="M34.088,53.225h61.499l1.932,3.345l0.009-0.005l7.556,13.087
			l4.624,8.011l4.614-7.988l7.566-13.103v-0.022l1.919-3.323h62.104c3.07,0,5.858-1.253,7.874-3.269
			c2.016-2.016,3.269-4.805,3.269-7.874V11.142c0-3.069-1.253-5.858-3.269-7.874S188.982,0,185.912,0H34.088
			c-3.07,0-5.858,1.253-7.874,3.269s-3.269,4.805-3.269,7.874v30.941c0,3.069,1.253,5.858,3.269,7.874h0.02
			C28.254,51.974,31.035,53.225,34.088,53.225L34.088,53.225z M98.662,42.524H34.088c-0.124,0-0.237-0.049-0.318-0.123l0.01-0.01
			c-0.081-0.081-0.133-0.191-0.133-0.308V11.142c0-0.116,0.052-0.227,0.133-0.308c0.08-0.081,0.191-0.133,0.308-0.133h151.824
			c0.116,0,0.227,0.052,0.308,0.133c0.081,0.081,0.133,0.191,0.133,0.308v30.941c0,0.116-0.052,0.227-0.133,0.308
			c-0.08,0.081-0.191,0.133-0.308,0.133h-65.167h-3.063l-1.556,2.697l-3.467,6.003l-0.009-0.005l-2.953,5.114l-2.939-5.092v-0.022
			l-3.477-6.02l-1.545-2.675H98.662z"/>
		<path style="fill-rule:evenodd;clip-rule:evenodd;fill:#C12564;" d="M34.088,46.186h64.574l3.477,6.02l7.565,13.105l7.565-13.105
			l3.476-6.02h65.167c3.185,0,5.791-2.606,5.791-5.791V9.452c0-3.185-2.606-5.79-5.791-5.79H34.088c-3.185,0-5.791,2.605-5.791,5.79
			v30.942C28.297,43.578,30.903,46.186,34.088,46.186z"/>
		<path style="fill-rule:evenodd;clip-rule:evenodd;fill:#E6E6E6;" d="M97.519,56.571L97.519,56.571L97.519,56.571z M109.709,70.153
			L98.05,50.501H34.088c-3.053,0-5.834-1.251-7.853-3.269h-0.02c-2.016-2.016-3.269-4.805-3.269-7.874v2.725
			c0,3.069,1.253,5.858,3.269,7.874h0.02c2.02,2.017,4.8,3.269,7.853,3.269h61.499l1.941,3.34l7.556,13.087l4.624,8.011l4.614-7.988
			l7.566-13.103v-0.022l1.919-3.323h62.104c3.07,0,5.858-1.253,7.874-3.269c2.016-2.016,3.269-4.805,3.269-7.874v-2.725
			c0,3.069-1.253,5.858-3.269,7.874c-2.016,2.016-4.804,3.269-7.874,3.269h-64.848L109.709,70.153z"/>
		<path style="fill-rule:evenodd;clip-rule:evenodd;fill:#5D1230;" d="M98.662,38.725H34.088c-0.147,0-0.295-0.005-0.441-0.017
			c-2.981-0.227-5.351-2.738-5.351-5.775v7.46c0,3.037,2.37,5.547,5.351,5.775c0.145,0.011,0.292,0.017,0.441,0.017h64.574
			l0.691,1.195l2.786,4.825l7.565,13.105l7.565-13.105l2.786-4.825l0.69-1.195h65.167c0.148,0,0.295-0.005,0.441-0.017
			c2.981-0.227,5.351-2.738,5.351-5.775v-7.46c0,3.037-2.37,5.547-5.351,5.775c-0.145,0.011-0.294,0.017-0.441,0.017h-65.167
			l-2.193,3.798l-1.283,2.221l-7.565,13.105l-7.565-13.105l-1.283-2.221L98.662,38.725z"/>
		<path style="fill-rule:evenodd;clip-rule:evenodd;fill:#E26A9A;" d="M98.662,37.036H34.088c-0.147,0-0.295-0.005-0.441-0.017
			c-2.981-0.227-5.351-2.738-5.351-5.775v1.689c0,3.037,2.37,5.547,5.351,5.775l0.441,0.017h64.574l2.193,3.798l1.283,2.221
			l7.565,13.105l7.565-13.105l1.283-2.221l2.193-3.798h65.167l0.441-0.017c2.981-0.227,5.351-2.738,5.351-5.775v-1.689
			c0,3.037-2.37,5.547-5.351,5.775c-0.145,0.011-0.294,0.017-0.441,0.017h-65.167l-3.476,6.02l-7.565,13.105l-7.565-13.105
			L98.662,37.036z"/>
		<path style="fill-rule:evenodd;clip-rule:evenodd;fill:#DA3F7E;" d="M28.297,14.362c0-3.185,2.606-5.79,5.791-5.79h151.824
			c3.185,0,5.791,2.605,5.791,5.79v-4.91c0-1.38-0.489-2.652-1.302-3.649c-1.065-1.305-2.684-2.141-4.489-2.141H34.088
			c-1.805,0-3.424,0.836-4.489,2.141c-0.813,0.997-1.302,2.269-1.302,3.649V14.362z"/>
		<path style="fill-rule:evenodd;clip-rule:evenodd;fill:#961D4E;" d="M185.912,29.887H34.088c-0.148,0-0.295-0.005-0.441-0.017
			c-2.981-0.227-5.351-2.736-5.351-5.773v7.148c0,3.037,2.37,5.547,5.351,5.775l0.441,0.017h64.574l3.477,6.02l7.565,13.105
			l7.565-13.105l3.476-6.02h65.167l0.441-0.017c2.981-0.227,5.351-2.738,5.351-5.775v-7.148c0,3.038-2.37,5.546-5.351,5.773
			C186.207,29.882,186.06,29.887,185.912,29.887z"/>
	</g>
	<g>
		<g>
			<path style="fill:#FFFFFF;" d="M71.547,12.249c-0.212,3.007-0.317,5.729-0.317,8.164c0,2.425,0.105,4.569,0.317,6.433
				l6.099-0.763l-0.127,4.701l-10.166,0.255l-0.635-19.061L71.547,12.249z"/>
			<path style="fill:#FFFFFF;" d="M81.728,9.945l1.397,19.299l-4.32,0.508L78.043,9.945H81.728z"/>
			<path style="fill:#FFFFFF;" d="M88.24,13.314c0.709-0.159,1.402-0.238,2.08-0.238c3.283,0,5.396,1.704,6.338,5.114
				c0.487,1.769,0.704,3.802,0.651,6.099l-0.127,5.448l-4.114,0.254l-0.031-0.746c-5.168-0.18-7.862-1.451-8.085-3.813
				c-0.032-0.339-0.048-0.587-0.048-0.746c0-1.927,0.773-3.135,2.319-3.621c0.772-0.244,1.54-0.365,2.303-0.365
				c1.017,0,2.055,0.206,3.113,0.619c-0.011-1.821-0.032-2.785-0.063-2.891c-0.212-0.73-0.916-1.144-2.112-1.239
				c-1.017-0.085-1.991,0.763-2.923,2.541l-4.066-0.635C84.576,15.706,86.164,13.779,88.24,13.314z M90.877,23.527
				c-1.112,0-1.694,0.291-1.747,0.873c-0.085,0.848,1.164,1.535,3.748,2.065l-0.111-2.748C92.025,23.59,91.395,23.527,90.877,23.527
				z"/>
			<path style="fill:#FFFFFF;" d="M101.741,13.504l0.254,1.778c2.064-1.45,3.759-2.176,5.082-2.176c1.229,0,2.14,0.619,2.732,1.858
				c0.899,1.885,1.35,4.982,1.35,9.292c0,1.546-0.058,3.251-0.174,5.114l-4.289,0.143c0.339-2.287,0.509-4.219,0.509-5.797
				c0-1.928-0.255-3.32-0.763-4.178c-0.328-0.55-0.704-0.826-1.128-0.826c-0.815,0-1.811,0.959-2.986,2.875v8.402l-3.875-0.111
				l-0.651-15.74L101.741,13.504z"/>
			<path style="fill:#FFFFFF;" d="M116.147,23.304c0.476,1.599,1.487,2.436,3.033,2.51c1.44,0.074,2.414-0.684,2.923-2.271
				l4.447-0.636c-1.134,4.648-3.384,6.973-6.751,6.973c-1.037,0-2.197-0.238-3.479-0.715c-2.372-1.354-3.558-3.96-3.558-7.814
				c0-0.328,0.011-0.693,0.032-1.096c0.232-4.458,2.403-7.047,6.511-7.767c3.896-0.085,6.141,2.624,6.734,8.126L116.147,23.304z
				 M117.362,17.642c-0.588,0.693-0.908,1.532-0.961,2.518l5.956-1.7c-0.688-1.238-1.546-1.858-2.573-1.858
				S117.95,16.948,117.362,17.642z"/>
			<path style="fill:#FFFFFF;" d="M127.091,30.261c0.031-6.442-0.133-11.589-0.492-15.439l4.447-0.364l-0.144,1.445
				c2.182-1.355,4.405-1.996,6.671-1.922l0.43,3.844c-2.605,0-4.438,0.539-5.496,1.618c-0.73,0.751-1.096,2.659-1.096,5.726
				c0,1.396,0.074,3.041,0.222,4.934L127.091,30.261z"/>
			<path style="fill:#FFFFFF;" d="M138.591,23.24c0.073-2.414,0.672-4.489,1.794-6.227c1.335-2.075,3.119-3.113,5.354-3.113
				c2.36,0,4.065,0.583,5.114,1.747c0.857,0.953,1.529,2.658,2.017,5.115c0.19,0.963,0.286,1.874,0.286,2.731
				c0,1.843-0.455,3.378-1.366,4.606c-1.334,1.8-3.361,2.657-6.083,2.573c-2.499-0.074-4.331-0.71-5.496-1.906
				C139.046,27.571,138.506,25.729,138.591,23.24z M147.93,19.428c-0.741-0.698-1.44-1.048-2.097-1.048
				c-0.805,0-1.546,0.529-2.224,1.588c-0.604,0.943-0.905,1.858-0.905,2.748c0,0.837,0.275,1.694,0.826,2.573
				c0.613,0.984,1.323,1.478,2.128,1.478c0.922,0,1.764-0.482,2.525-1.446c0.73-0.91,1.097-1.837,1.097-2.779
				C149.28,21.525,148.83,20.487,147.93,19.428z"/>
		</g>
	</g>
</g>
</svg>
