<?xml version="1.0" encoding="utf-8"?>
<!-- Generator: Adobe Illustrator 21.0.0, SVG Export Plug-In . SVG Version: 6.00 Build 0)  -->
<svg version="1.1" id="Capa_1" xmlns="http://www.w3.org/2000/svg" xmlns:xlink="http://www.w3.org/1999/xlink" x="0px" y="0px"
	 viewBox="0 0 224 381.383" style="enable-background:new 0 0 224 381.383;" xml:space="preserve">
<g>
	<g>
		<g>
			<rect x="4" y="62.385" style="opacity:0.2;" width="220" height="318.998"/>
			<rect y="58.384" style="fill:#FFFFFF;" width="220" height="318.998"/>
			<rect x="9.04" y="65.184" style="fill:#E6E6E6;" width="201.921" height="304.349"/>
			
				<linearGradient id="SVGID_1_" gradientUnits="userSpaceOnUse" x1="455.1224" y1="1400.7932" x2="701.4319" y2="1400.7932" gradientTransform="matrix(0 1 -1 0 1510.7935 -389.9381)">
				<stop  offset="0" style="stop-color:#FFFFFF;stop-opacity:0"/>
				<stop  offset="0.2219" style="stop-color:#FCFCFC;stop-opacity:0.2219"/>
				<stop  offset="0.3578" style="stop-color:#F4F4F4;stop-opacity:0.3578"/>
				<stop  offset="0.4706" style="stop-color:#E6E6E6;stop-opacity:0.4706"/>
				<stop  offset="0.5708" style="stop-color:#D1D1D1;stop-opacity:0.5708"/>
				<stop  offset="0.6626" style="stop-color:#B6B6B6;stop-opacity:0.6626"/>
				<stop  offset="0.7484" style="stop-color:#969696;stop-opacity:0.7484"/>
				<stop  offset="0.8294" style="stop-color:#6F6F6F;stop-opacity:0.8294"/>
				<stop  offset="0.9067" style="stop-color:#424242;stop-opacity:0.9067"/>
				<stop  offset="0.9784" style="stop-color:#101010;stop-opacity:0.9784"/>
				<stop  offset="1" style="stop-color:#000000"/>
			</linearGradient>
			<rect x="9.04" y="65.184" style="opacity:0.2;fill:url(#SVGID_1_);" width="201.921" height="246.31"/>
		</g>
	</g>
	<g>
		<g>
			<g>
				<path style="fill:#EE7A5F;" d="M80.641,228.873c0,0-35.777,35.296,13.506,53.779l0.836-16.387c0,0-26.966-7.444-13.336-25.271
					L80.641,228.873z"/>
			</g>
			<g>
				<rect x="86.033" y="280.362" width="39.74" height="4.041"/>
				<path style="fill:#A7A9AC;" d="M108.021,285.051h-4.277c-1.705,0-3.092-1.196-3.092-2.666c0-1.473,1.387-2.672,3.092-2.672
					h4.277c1.704,0,3.091,1.199,3.091,2.672C111.112,283.856,109.726,285.051,108.021,285.051z M103.744,281.011
					c-0.99,0-1.795,0.616-1.795,1.375c0,0.755,0.805,1.369,1.795,1.369h4.277c0.989,0,1.794-0.613,1.794-1.369
					c0-0.758-0.805-1.375-1.794-1.375H103.744z"/>
			</g>
			<defs>
				<filter id="Adobe_OpacityMaskFilter" filterUnits="userSpaceOnUse" x="52.99" y="340.654" width="104.605" height="27.047">
					<feFlood  style="flood-color:white;flood-opacity:1" result="back"/>
					<feBlend  in="SourceGraphic" in2="back" mode="normal"/>
				</filter>
			</defs>
			<mask maskUnits="userSpaceOnUse" x="52.99" y="340.654" width="104.605" height="27.047" id="XMLID_2_">
				<g id="XMLID_15_" style="filter:url(#Adobe_OpacityMaskFilter);">
				</g>
			</mask>
			
				<ellipse id="XMLID_51_" transform="matrix(1 -0.0098 0.0098 1 -3.4555 1.0457)" style="opacity:0.5;mask:url(#XMLID_2_);fill:#999999;" cx="105.293" cy="354.178" rx="52.305" ry="13.514"/>
			<g>
				<path style="fill:#0080C6;" d="M105.904,292.318c13.627,18.63,6.255,59.708,6.255,59.708c8.875-6.334,21.024-3.922,21.024-3.922
					c-12.216-31.43-7.449-63.701-7.449-63.701H86.033c0,0,4.809,32.271-7.406,63.701c0,0,12.15-2.411,21.024,3.922
					c0,0-7.417-41.078,6.207-59.708"/>
				<path style="fill:#530303;" d="M138.493,353.484c0,3.354-3.209,3.557-11.667,3.557c-8.459,0-14.951-0.203-14.951-3.557
					c0-3.351,6.854-6.067,15.311-6.067C135.644,347.417,138.493,350.132,138.493,353.484z"/>
				<path style="fill:#530303;" d="M73.658,353.484c0,3.354,3.208,3.557,11.669,3.557c8.455,0,14.949-0.203,14.949-3.557
					c0-3.351-6.857-6.067-15.317-6.067C76.506,347.417,73.658,350.132,73.658,353.484z"/>
			</g>
			<g>
				<path style="fill:#EE7A5F;" d="M80.611,228.775l18.752-4.343h6.796v67.239c0,0-10.22-0.87-14.171-2.737
					c-1.808-0.856-6.327-4.683-6.327-4.683l-3.041-31.781L80.611,228.775z"/>
				<path style="fill:#EE7A5F;" d="M131.098,228.873l-18.146-4.442h-6.794v67.239c0,0,10.097-0.209,14.047-2.078
					c1.81-0.854,6.451-5.342,6.451-5.342l3.041-31.781L131.098,228.873z"/>
				<polygon style="fill:#DB3B26;" points="106.158,219.418 96.278,219.418 98.703,224.366 106.158,224.431 113.613,224.366 
					116.036,219.418 				"/>
				<polygon style="fill:#9D5C4A;" points="102.669,227.459 106.158,229.586 106.158,232.084 101.219,229.283 				"/>
				<polygon style="fill:#9D5C4A;" points="106.158,229.586 109.648,227.459 111.098,229.283 106.158,232.084 				"/>
				<path style="fill:#DB3B26;" d="M108.628,246.235c-0.805,0-1.456,0.61-1.456,1.363c0,0.752,0.651,1.361,1.456,1.361
					c0.803,0,1.456-0.609,1.456-1.361C110.085,246.845,109.431,246.235,108.628,246.235z M108.112,247.871
					c-0.162,0-0.293-0.123-0.293-0.273c0-0.153,0.131-0.274,0.293-0.274c0.161,0,0.291,0.121,0.291,0.274
					C108.403,247.748,108.272,247.871,108.112,247.871z M109.161,247.884c-0.162,0-0.293-0.122-0.293-0.273
					c0-0.151,0.132-0.274,0.293-0.274c0.16,0,0.292,0.123,0.292,0.274C109.453,247.762,109.321,247.884,109.161,247.884z"/>
				<path style="fill:#DB3B26;" d="M108.628,258.899c-0.805,0-1.456,0.611-1.456,1.363c0,0.752,0.651,1.362,1.456,1.362
					c0.803,0,1.456-0.61,1.456-1.362C110.085,259.51,109.431,258.899,108.628,258.899z M108.112,260.536
					c-0.162,0-0.293-0.123-0.293-0.274c0-0.151,0.131-0.275,0.293-0.275c0.161,0,0.291,0.124,0.291,0.275
					C108.403,260.413,108.272,260.536,108.112,260.536z M109.161,260.55c-0.162,0-0.293-0.123-0.293-0.274
					c0-0.152,0.132-0.274,0.293-0.274c0.16,0,0.292,0.122,0.292,0.274C109.453,260.427,109.321,260.55,109.161,260.55z"/>
				<path style="fill:#DB3B26;" d="M108.628,271.564c-0.805,0-1.456,0.611-1.456,1.363c0,0.753,0.651,1.361,1.456,1.361
					c0.803,0,1.456-0.608,1.456-1.361C110.085,272.175,109.431,271.564,108.628,271.564z M108.112,273.2
					c-0.162,0-0.293-0.122-0.293-0.273c0-0.152,0.131-0.274,0.293-0.274c0.161,0,0.291,0.122,0.291,0.274
					C108.403,273.078,108.272,273.2,108.112,273.2z M109.161,273.214c-0.162,0-0.293-0.122-0.293-0.274
					c0-0.15,0.132-0.273,0.293-0.273c0.16,0,0.292,0.123,0.292,0.273C109.453,273.092,109.321,273.214,109.161,273.214z"/>
				<path style="fill:#DB3B26;" d="M108.628,284.23c-0.805,0-1.456,0.61-1.456,1.362c0,0.751,0.651,1.362,1.456,1.362
					c0.803,0,1.456-0.611,1.456-1.362C110.085,284.84,109.431,284.23,108.628,284.23z M108.112,285.865
					c-0.162,0-0.293-0.122-0.293-0.273c0-0.151,0.131-0.274,0.293-0.274c0.161,0,0.291,0.123,0.291,0.274
					C108.403,285.743,108.272,285.865,108.112,285.865z M109.161,285.88c-0.162,0-0.293-0.123-0.293-0.275
					c0-0.151,0.132-0.274,0.293-0.274c0.16,0,0.292,0.123,0.292,0.274C109.453,285.757,109.321,285.88,109.161,285.88z"/>
				<g>
					<polygon style="fill:#DB3B26;" points="119.58,243.119 112.756,243.119 113.428,253.225 119.58,254.8 125.626,253.489 
						126.403,243.119 					"/>
					<polygon style="fill:#EE7A5F;" points="126.223,245.528 112.917,245.528 112.847,244.48 126.302,244.48 					"/>
				</g>
				<path style="fill:#EFC392;" d="M97.396,226.425c0,0,0.65,9.024,8.31,9.367c7.657-0.343,8.309-9.367,8.309-9.367H97.396z"/>
				<polygon style="fill:#DB3B26;" points="96.278,219.418 93.414,226.634 96.278,238.1 102.669,230.059 				"/>
				<polygon style="fill:#DB3B26;" points="116.036,219.418 118.9,226.634 116.036,238.1 109.648,230.059 				"/>
				<polygon style="fill:#DB3B26;" points="112.654,232.819 111.921,231.772 105.5,235.556 99.079,231.772 98.346,232.819 
					104.884,236.672 104.884,291.579 106.158,291.671 106.158,236.647 				"/>
			</g>
			<path style="fill:#DB3B26;" d="M83.141,260.584c0,0,0.216,1.148,0.54,2.87c0.312,1.722,0.682,4.028,1.046,6.334
				c0.34,2.309,0.675,4.619,0.89,6.358c0.204,1.74,0.34,2.9,0.34,2.9s-0.216-1.148-0.54-2.869c-0.313-1.723-0.682-4.029-1.046-6.335
				c-0.34-2.309-0.675-4.619-0.89-6.358C83.277,261.744,83.141,260.584,83.141,260.584z"/>
			<g>
				<g>
					<g>
						<path style="fill:#EFC392;stroke:#994900;stroke-linecap:round;stroke-linejoin:round;stroke-miterlimit:10;" d="
							M71.037,179.931c0,0-2.681-8.211-7.578-8.211c-4.893,0-2.527,15.943,10.262,24.153L71.037,179.931z"/>
						<path style="fill:#EFC392;stroke:#994900;stroke-linecap:round;stroke-linejoin:round;stroke-miterlimit:10;" d="
							M140.891,179.931c0,0,2.68-8.211,7.577-8.211c4.896,0,2.523,15.943-10.265,24.153L140.891,179.931z"/>
						<path style="fill:#EFC392;stroke:#994900;stroke-linecap:round;stroke-linejoin:round;stroke-miterlimit:10;" d="
							M106.026,122.343c0,0,24.151,0,26.905,0c2.755,0,9.579,4.349,10.287,26.251c1.396,42.932-0.443,54.145-15.825,70.369
							c-7.091,7.476-14.574,10.709-21.368,10.709c-6.605,0-14.281-3.233-21.371-10.709c-15.383-16.224-17.222-27.437-15.827-70.369
							c0.711-21.902,7.532-26.251,10.289-26.251C81.871,122.343,106.026,122.343,106.026,122.343z"/>
						<g>
							<path style="fill:#602700;" d="M131.859,159.584c-0.245-0.129-0.675-0.253-1.201-0.453c-0.529-0.194-1.165-0.442-1.912-0.605
								c-1.45-0.445-3.277-0.673-5.059-0.805c-3.6-0.174-7.016,0.571-7.611,0.701c-1.259,0.188-3.039,0.861-4.007-1.036
								c-0.537-0.979,0.439-1.958,1.933-2.6c1.49-0.664,3.489-0.971,4.935-1.055c1.438-0.132,4.584-0.042,7.513,0.712
								c0.727,0.208,1.453,0.385,2.126,0.616c0.667,0.256,1.3,0.498,1.883,0.72c1.121,0.523,2.006,0.988,2.485,1.244
								c0.906,0.622,1.95,1.193,2.618,1.941c0.695,0.715,1.142,1.384,1.058,1.913C136.406,161.951,133.91,160.44,131.859,159.584z"
								/>
						</g>
						<g>
							<path style="fill:#602700;" d="M79.758,159.584c0.245-0.129,0.677-0.253,1.201-0.453c0.53-0.194,1.166-0.442,1.912-0.605
								c1.452-0.445,3.278-0.673,5.059-0.805c3.602-0.174,7.017,0.571,7.614,0.701c1.256,0.188,3.039,0.861,4.007-1.036
								c0.537-0.979-0.439-1.958-1.933-2.6c-1.493-0.664-3.489-0.971-4.935-1.055c-1.441-0.132-4.586-0.042-7.516,0.712
								c-0.726,0.208-1.453,0.385-2.124,0.616c-0.668,0.256-1.301,0.498-1.882,0.72c-1.123,0.523-2.008,0.988-2.486,1.244
								c-0.905,0.622-1.948,1.193-2.618,1.941c-0.695,0.715-1.142,1.384-1.058,1.913C75.212,161.951,77.707,160.44,79.758,159.584z"
								/>
						</g>
						<g id="XMLID_32_">
							<g id="XMLID_40_">
								<path id="XMLID_47_" style="fill:#FFFFFF;" d="M86.032,164.064c-11.298,2.989-10.806,19.118,1.468,19.086
									C99.775,183.118,99.179,160.586,86.032,164.064z"/>
								
									<ellipse id="XMLID_43_" transform="matrix(0.0209 -0.9998 0.9998 0.0209 -87.7374 257.0907)" cx="87.394" cy="173.341" rx="6.033" ry="4.776"/>
								
									<ellipse id="XMLID_42_" transform="matrix(0.0209 -0.9998 0.9998 0.0209 -86.9874 251.7239)" style="fill:#FFFFFF;" cx="85.027" cy="170.275" rx="2.849" ry="2.849"/>
								
									<ellipse id="XMLID_41_" transform="matrix(0.0209 -0.9998 0.9998 0.0209 -88.6962 261.2085)" style="fill:#FFFFFF;" cx="89.017" cy="175.89" rx="1.089" ry="1.089"/>
							</g>
							<g id="XMLID_35_">
								<path id="XMLID_39_" style="fill:#FFFFFF;" d="M125.774,164.155c11.163,3.459,9.997,19.553-2.265,19.008
									C111.247,182.617,112.784,160.13,125.774,164.155z"/>
								
									<ellipse id="XMLID_38_" transform="matrix(0.0209 -0.9998 0.9998 0.0209 -51.4162 294.2523)" cx="124.528" cy="173.378" rx="6.033" ry="4.776"/>
								
									<ellipse id="XMLID_37_" transform="matrix(0.0209 -0.9998 0.9998 0.0209 -50.6658 288.8855)" style="fill:#FFFFFF;" cx="122.162" cy="170.311" rx="2.849" ry="2.849"/>
								
									<ellipse id="XMLID_36_" transform="matrix(0.0209 -0.9998 0.9998 0.0209 -52.375 298.3701)" style="fill:#FFFFFF;" cx="126.151" cy="175.926" rx="1.089" ry="1.089"/>
							</g>
						</g>
						<path id="XMLID_17_" style="fill:#C4884D;" d="M100.81,194.388c0.6-0.796,2.389,1.373,5.122,1.551
							c2.733,0.178,3.937-2.724,5.131-2.038c1.194,0.686-1.207,4.44-5.309,4.771C101.653,199.004,100.296,195.07,100.81,194.388z"/>
						<g>
							<path d="M122.158,202.755c0,0-0.549,8.431-6.875,12.931c-2.296,1.635-5.357,2.745-9.432,2.745
								c-4.069,0-7.122-1.107-9.419-2.739c-6.327-4.498-6.881-12.937-6.881-12.937H122.158z"/>
							<path style="fill:#FFFFFF;" d="M92.01,202.755h27.89c0,0,0.923,3.212-13.945,3.212S92.01,202.755,92.01,202.755z"/>
							<path style="fill:#FFFFFF;" d="M115.282,215.686c-2.296,1.635-5.357,2.745-9.432,2.745c-4.069,0-7.122-1.107-9.419-2.739
								C98.683,215.326,105.944,214.397,115.282,215.686z"/>
						</g>
					</g>
					<path style="fill:#602700;" d="M143.425,164.48c0.287,4.982-0.156,43.934-14.747,34.532
						c-6.802-4.383-11.027,0.459-22.071,0.459l-0.128-0.002c-6.187-0.064-16.926-4.685-23.055,0.185
						c-11.938,5.794-15.272-22.113-14.518-35.174c0.451-10.697-8.804-7.427-5.994-1.658c2.26,4.64,4.356,17.001,2.826,34.737
						c-1.53,17.735,24.754,34.526,39.203,34.526c0.421,0,0.829-0.012,1.225-0.033l0.314,0.015c0.298,0.013,0.6,0.018,0.913,0.018
						c14.447,0,40.731-16.791,39.201-34.526c-1.529-17.736-0.47-26.045,0.936-32.306C149.603,156.02,142.974,153.783,143.425,164.48
						z M114.26,220.171c-3.013,0.667-4.967-2.195-7.781-2.399c-0.103-0.008-0.208-0.012-0.314-0.012
						c-2.993,0-4.977,3.095-8.111,2.405c-10.694-2.356-14.711-11.385-14.256-15.736c0.524-5.029,11.777-1.717,22.681-1.797h0.094
						c11.505-0.106,22.647-3.388,22.621,2.458C129.175,209.389,124.393,217.933,114.26,220.171z"/>
				</g>
				<g>
					<g>
						<path style="fill:#602700;" d="M154.977,119.964c-3.36-0.765-8.568-1.506-11.595,0.076
							c-3.351,1.754-11.317,5.314-5.672,20.065c2.72,7.119,4.886,16.846,7.682,34.723c2.709-10.782,4.581-25.323,9.768-33.771
							c3.512-5.713,2.984-20.561-5.123-18.462C151.195,121.531,153.185,119.866,154.977,119.964z"/>
					</g>
					<g>
						<path style="fill:#602700;" d="M66.557,114.12c3.775-1.493,9.693-3.423,13.44-2.789c4.163,0.701,12.893,9.005-1.514,21.98
							c-11.305,10.187-9.253,26.029-9.707,42.301c-4.819-8.73-14.313-32.437-12.474-40.515c0.989-4.719,6.671-19.73,16.386-19.898
							C71.185,114.553,68.619,113.593,66.557,114.12z"/>
					</g>
					<g>
						<path style="fill:#602700;" d="M94.087,132.813c-5.124,3.484-9.419,7.379-16.897,10.419c12.028,0.544,26.947-4.52,37.6-9.542
							c-3.62,5.389-11.367,8.076-14.312,9.809c9.759-0.196,30.939-8.745,37.782-13.852c13.659-14.782-7.044-28.668-22.624-33.029
							c-24.501-6.913-45.698,4.933-55.804,23.53c-2.575,5.064-11.367,15.024-18.845,20.4
							C53.418,143.041,82.531,137.401,94.087,132.813z"/>
					</g>
				</g>
			</g>
			<g>
				<path style="fill:#EE7A5F;" d="M131.098,228.873l-0.647,10.901c0,0,20.298,19.45,39.947,1.667l-13.424-10.436
					C146.978,241.442,131.537,229.574,131.098,228.873z"/>
				<polygon style="fill:#DB3B26;" points="167.457,243.831 155.507,232.323 158.352,229.369 170.744,241.203 				"/>
				<g>
					<g>
						<path style="fill:#EFC392;stroke:#994900;stroke-linecap:round;stroke-linejoin:round;stroke-miterlimit:10;" d="
							M179.252,234.233c0,0,11.691-19.603,5.909-27.676c0,0-1.013-5.082-5.152-6.114c0,0-0.397-1.733-1.863-2.597
							c-1.157-0.681-3.883-1.626-5.67,1.14c-1.79,2.766,1.199,10.02-0.343,13.576c0,0-3.903-5.582-8.737-4.268
							c-4.704,1.277-5.49,1.154-6.764,2.735c-1.275,1.576-0.841,3.157,0.881,4.015c1.719,0.861,3.064,0.149,4.592-0.253
							c1.525-0.405,2.555-0.602,4.195,0.945c2.237,2.11,2.31,5.92,0.256,7.816c-1.089,1.005-3.863,1.598-4.933,0.29
							c-1.275-1.564-0.554-4.274-2.046-6.449c-1.08-1.573-3.618-2.966-5.245-2.375c-1.624,0.594-3.07,2.777-1.955,4.381
							c1.111,1.607,4.254,3.512,4.091,8.976c-0.096,3.182,3.179,8.101,6.027,8.804c1.227,0.307,1.207,0.754,3.067,2.24
							C170.077,243.015,176.062,241.119,179.252,234.233z"/>
					</g>
					<path style="fill:#EFC392;stroke:#994900;stroke-linecap:round;stroke-linejoin:round;stroke-miterlimit:10;" d="
						M184.137,206.957c0,0-0.059-0.025-0.18-0.065c-0.121-0.037-0.301-0.087-0.537-0.113c-0.236-0.025-0.529-0.034-0.867,0.037
						c-0.338,0.067-0.712,0.262-1.005,0.591l-0.056,0.059c-0.014,0.023-0.011,0.006-0.039,0.048l-0.02,0.034
						c-0.028,0.045-0.056,0.076-0.084,0.138c-0.056,0.121-0.098,0.239-0.127,0.346c-0.059,0.228-0.096,0.459-0.121,0.695
						c-0.054,0.467-0.056,0.954-0.054,1.455c0.003,1.005,0.059,2.06,0.07,3.112c0.02,1.055,0.003,2.105-0.059,3.084
						c-0.065,0.979-0.163,1.896-0.324,2.665c-0.158,0.771-0.312,1.415-0.467,1.849c-0.141,0.442-0.234,0.695-0.234,0.695
						s0.034-0.059,0.096-0.169c0.053-0.113,0.158-0.264,0.253-0.478c0.203-0.419,0.473-1.038,0.695-1.812
						c0.113-0.388,0.214-0.813,0.307-1.263c0.087-0.453,0.18-0.934,0.225-1.435c0.118-1.002,0.152-2.077,0.141-3.14
						c-0.02-1.069-0.076-2.133-0.129-3.12c-0.022-0.492-0.039-0.968-0.031-1.41c0.006-0.219,0.022-0.433,0.056-0.622
						c0.017-0.104,0.042-0.186,0.065-0.253c0.008-0.039,0.045-0.09,0.068-0.132l0.014-0.034c-0.014,0.022,0.011-0.009,0.011-0.011
						l0.039-0.053c0.433-0.582,1.128-0.72,1.57-0.734C183.872,206.904,184.137,206.957,184.137,206.957z"/>
					<path style="fill:#EFC392;stroke:#994900;stroke-linecap:round;stroke-linejoin:round;stroke-miterlimit:10;" d="
						M179.365,201.026c0,0-0.068-0.02-0.208-0.022c-0.135-0.003-0.346,0.006-0.582,0.124c-0.239,0.113-0.495,0.341-0.672,0.67
						c-0.18,0.326-0.29,0.737-0.329,1.185c-0.037,0.45-0.025,0.917-0.022,1.412c0,0.495,0.008,1.019,0.025,1.556
						c0.025,1.078,0.07,2.223,0.082,3.365c0.017,0.577,0.017,1.145,0.014,1.711c-0.006,0.56-0.006,1.114-0.025,1.649
						c-0.025,0.535-0.039,1.049-0.073,1.539c-0.034,0.49-0.079,0.948-0.138,1.376c-0.051,0.422-0.129,0.808-0.174,1.154
						c-0.076,0.34-0.141,0.636-0.197,0.878c-0.143,0.484-0.222,0.76-0.222,0.76s0.124-0.262,0.338-0.717
						c0.087-0.242,0.191-0.529,0.309-0.864c0.09-0.34,0.22-0.723,0.298-1.151c0.093-0.428,0.174-0.892,0.242-1.384
						c0.073-0.495,0.138-1.019,0.174-1.559c0.09-1.086,0.101-2.243,0.09-3.399c-0.022-1.154-0.073-2.307-0.152-3.385
						c-0.056-1.066-0.191-2.094-0.2-2.918c0.011-0.416,0.07-0.791,0.183-1.097c0.118-0.312,0.312-0.537,0.512-0.667
						c0.2-0.132,0.391-0.183,0.523-0.203C179.292,201.018,179.365,201.026,179.365,201.026z"/>
					<path style="fill:#EFC392;stroke:#994900;stroke-linecap:round;stroke-linejoin:round;stroke-miterlimit:10;" d="
						M173.991,232.295c0,0-0.366-0.315-1.005-0.644c-0.326-0.149-0.706-0.335-1.148-0.447c-0.436-0.129-0.923-0.191-1.41-0.197
						c-0.248,0.017-0.492,0.014-0.729,0.073c-0.118,0.028-0.236,0.048-0.352,0.073c-0.11,0.039-0.22,0.082-0.329,0.118
						c-0.219,0.07-0.411,0.183-0.588,0.295c-0.09,0.056-0.177,0.107-0.262,0.158c-0.076,0.062-0.146,0.127-0.217,0.183
						c-0.135,0.121-0.27,0.219-0.363,0.332c-0.093,0.113-0.172,0.214-0.239,0.295c-0.129,0.163-0.203,0.256-0.203,0.256
						s0.09-0.079,0.248-0.214c0.076-0.07,0.169-0.155,0.276-0.25c0.104-0.096,0.25-0.172,0.388-0.276
						c0.07-0.048,0.146-0.101,0.222-0.155c0.082-0.042,0.172-0.082,0.259-0.124c0.177-0.093,0.366-0.177,0.574-0.234
						c0.101-0.034,0.205-0.068,0.307-0.096c0.113-0.022,0.222-0.039,0.329-0.059c0.222-0.053,0.453-0.042,0.681-0.059
						c0.228-0.006,0.459,0.017,0.681,0.037c0.225,0.039,0.447,0.056,0.658,0.113c0.425,0.09,0.813,0.222,1.145,0.343
						c0.324,0.132,0.599,0.236,0.782,0.335C173.884,232.241,173.991,232.295,173.991,232.295z"/>
					<path style="fill:#EFC392;stroke:#994900;stroke-linecap:round;stroke-linejoin:round;stroke-miterlimit:10;" d="
						M171.689,217.396c0,0,0.197,0.92,0.616,2.265c0.217,0.667,0.461,1.455,0.782,2.276c0.312,0.822,0.681,1.688,1.066,2.546
						c0.208,0.422,0.408,0.847,0.622,1.258c0.222,0.408,0.422,0.816,0.653,1.196c0.222,0.38,0.43,0.751,0.661,1.083
						c0.228,0.335,0.431,0.658,0.639,0.943c0.416,0.571,0.785,1.03,1.064,1.331c0.273,0.31,0.428,0.484,0.428,0.484
						s-0.138-0.191-0.38-0.523c-0.118-0.166-0.279-0.355-0.433-0.597c-0.158-0.239-0.338-0.504-0.529-0.796
						c-0.194-0.29-0.38-0.625-0.591-0.962c-0.214-0.34-0.397-0.723-0.619-1.1c-0.22-0.377-0.411-0.788-0.625-1.193
						c-0.208-0.411-0.4-0.836-0.602-1.255c-0.394-0.847-0.771-1.702-1.097-2.515c-0.329-0.81-0.63-1.573-0.872-2.231
						C171.982,218.288,171.689,217.396,171.689,217.396z"/>
					<path style="fill:#EFC392;stroke:#994900;stroke-linecap:round;stroke-linejoin:round;stroke-miterlimit:10;" d="
						M166.129,225.992c0,0,0.2,0.428,0.388,1.095c0.099,0.332,0.183,0.726,0.242,1.148c0.034,0.211,0.037,0.433,0.059,0.656
						c-0.008,0.225,0.02,0.453-0.02,0.675c-0.014,0.225-0.037,0.45-0.093,0.667c-0.037,0.219-0.101,0.428-0.172,0.63
						c-0.059,0.203-0.152,0.385-0.234,0.565c-0.073,0.18-0.172,0.341-0.27,0.481c-0.098,0.141-0.169,0.287-0.256,0.394
						c-0.09,0.11-0.169,0.205-0.231,0.284c-0.127,0.16-0.2,0.253-0.2,0.253s0.09-0.076,0.245-0.208
						c0.076-0.07,0.169-0.155,0.276-0.25c0.107-0.099,0.2-0.231,0.312-0.369c0.115-0.138,0.231-0.293,0.326-0.476
						c0.104-0.177,0.225-0.363,0.293-0.577c0.082-0.211,0.169-0.428,0.211-0.661c0.062-0.231,0.09-0.47,0.11-0.709
						c0.034-0.239,0.003-0.478,0.008-0.718c-0.022-0.234-0.048-0.464-0.09-0.684c-0.082-0.439-0.222-0.833-0.349-1.162
						C166.416,226.369,166.129,225.992,166.129,225.992z"/>
					<path style="fill:#EFC392;stroke:#994900;stroke-linecap:round;stroke-linejoin:round;stroke-miterlimit:10;" d="
						M169.683,222.919c0,0,0.25,0.397,0.625,0.993c0.188,0.293,0.394,0.647,0.619,1.021c0.222,0.377,0.459,0.777,0.675,1.188
						c0.225,0.405,0.43,0.819,0.605,1.215c0.177,0.397,0.329,0.771,0.422,1.103c0.059,0.166,0.084,0.321,0.118,0.459
						c0.037,0.138,0.056,0.259,0.059,0.36c0.023,0.205,0.034,0.321,0.034,0.321s0.011-0.115,0.028-0.324
						c0.014-0.104,0.011-0.228-0.003-0.374c-0.014-0.143-0.014-0.31-0.062-0.481c-0.068-0.352-0.172-0.754-0.335-1.171
						c-0.158-0.419-0.363-0.847-0.585-1.261c-0.447-0.833-0.993-1.607-1.429-2.158C170.015,223.257,169.683,222.919,169.683,222.919
						z"/>
				</g>
			</g>
		</g>
	</g>
	<g>
		<path style="opacity:0.2;fill-rule:evenodd;clip-rule:evenodd;" d="M34.088,56.886h61.499l1.932,3.345l0.009-0.005l7.556,13.087
			l4.624,8.011l4.614-7.989l7.566-13.103v-0.022l1.919-3.323h62.104c3.07,0,5.858-1.253,7.874-3.269
			c2.016-2.016,3.269-4.805,3.269-7.874V14.803c0-3.069-1.253-5.858-3.269-7.874s-4.804-3.269-7.874-3.269H34.088
			c-3.07,0-5.858,1.253-7.874,3.269s-3.269,4.805-3.269,7.874v30.941c0,3.069,1.253,5.858,3.269,7.874h0.02
			C28.254,55.635,31.035,56.886,34.088,56.886L34.088,56.886z M98.662,46.184H34.088c-0.124,0-0.237-0.049-0.318-0.123l0.01-0.01
			c-0.081-0.081-0.133-0.191-0.133-0.308V14.803c0-0.116,0.052-0.227,0.133-0.308c0.08-0.081,0.191-0.133,0.308-0.133h151.824
			c0.116,0,0.227,0.052,0.308,0.133c0.081,0.08,0.133,0.191,0.133,0.308v30.941c0,0.116-0.052,0.227-0.133,0.308
			c-0.08,0.081-0.191,0.133-0.308,0.133h-65.167h-3.063l-1.556,2.697l-3.467,6.003l-0.009-0.005l-2.953,5.113l-2.939-5.091v-0.022
			l-3.477-6.02l-1.545-2.675H98.662z"/>
		<path style="fill-rule:evenodd;clip-rule:evenodd;fill:#FFFFFF;" d="M34.088,53.225h61.499l1.932,3.345l0.009-0.005l7.556,13.087
			l4.624,8.011l4.614-7.988l7.566-13.103v-0.022l1.919-3.323h62.104c3.07,0,5.858-1.253,7.874-3.269
			c2.016-2.016,3.269-4.805,3.269-7.874V11.142c0-3.069-1.253-5.858-3.269-7.874S188.982,0,185.912,0H34.088
			c-3.07,0-5.858,1.253-7.874,3.269s-3.269,4.805-3.269,7.874v30.941c0,3.069,1.253,5.858,3.269,7.874h0.02
			C28.254,51.974,31.035,53.225,34.088,53.225L34.088,53.225z M98.662,42.524H34.088c-0.124,0-0.237-0.049-0.318-0.123l0.01-0.01
			c-0.081-0.081-0.133-0.191-0.133-0.308V11.142c0-0.116,0.052-0.227,0.133-0.308c0.08-0.081,0.191-0.133,0.308-0.133h151.824
			c0.116,0,0.227,0.052,0.308,0.133c0.081,0.081,0.133,0.191,0.133,0.308v30.941c0,0.116-0.052,0.227-0.133,0.308
			c-0.08,0.081-0.191,0.133-0.308,0.133h-65.167h-3.063l-1.556,2.697l-3.467,6.003l-0.009-0.005l-2.953,5.114l-2.939-5.092v-0.022
			l-3.477-6.02l-1.545-2.675H98.662z"/>
		<path style="fill-rule:evenodd;clip-rule:evenodd;fill:#C12564;" d="M34.088,46.186h64.574l3.477,6.02l7.565,13.105l7.565-13.105
			l3.476-6.02h65.167c3.185,0,5.791-2.606,5.791-5.791V9.452c0-3.185-2.606-5.79-5.791-5.79H34.088c-3.185,0-5.791,2.605-5.791,5.79
			v30.942C28.297,43.578,30.903,46.186,34.088,46.186z"/>
		<path style="fill-rule:evenodd;clip-rule:evenodd;fill:#E6E6E6;" d="M97.519,56.571L97.519,56.571L97.519,56.571z M109.709,70.153
			L98.05,50.501H34.088c-3.053,0-5.834-1.251-7.853-3.269h-0.02c-2.016-2.016-3.269-4.805-3.269-7.874v2.725
			c0,3.069,1.253,5.858,3.269,7.874h0.02c2.02,2.017,4.8,3.269,7.853,3.269h61.499l1.941,3.34l7.556,13.087l4.624,8.011l4.614-7.988
			l7.566-13.103v-0.022l1.919-3.323h62.104c3.07,0,5.858-1.253,7.874-3.269c2.016-2.016,3.269-4.805,3.269-7.874v-2.725
			c0,3.069-1.253,5.858-3.269,7.874c-2.016,2.016-4.804,3.269-7.874,3.269h-64.848L109.709,70.153z"/>
		<path style="fill-rule:evenodd;clip-rule:evenodd;fill:#5D1230;" d="M98.662,38.725H34.088c-0.147,0-0.295-0.005-0.441-0.017
			c-2.981-0.227-5.351-2.738-5.351-5.775v7.46c0,3.037,2.37,5.547,5.351,5.775c0.145,0.011,0.292,0.017,0.441,0.017h64.574
			l0.691,1.195l2.786,4.825l7.565,13.105l7.565-13.105l2.786-4.825l0.69-1.195h65.167c0.148,0,0.295-0.005,0.441-0.017
			c2.981-0.227,5.351-2.738,5.351-5.775v-7.46c0,3.037-2.37,5.547-5.351,5.775c-0.145,0.011-0.294,0.017-0.441,0.017h-65.167
			l-2.193,3.798l-1.283,2.221l-7.565,13.105l-7.565-13.105l-1.283-2.221L98.662,38.725z"/>
		<path style="fill-rule:evenodd;clip-rule:evenodd;fill:#E26A9A;" d="M98.662,37.036H34.088c-0.147,0-0.295-0.005-0.441-0.017
			c-2.981-0.227-5.351-2.738-5.351-5.775v1.689c0,3.037,2.37,5.547,5.351,5.775l0.441,0.017h64.574l2.193,3.798l1.283,2.221
			l7.565,13.105l7.565-13.105l1.283-2.221l2.193-3.798h65.167l0.441-0.017c2.981-0.227,5.351-2.738,5.351-5.775v-1.689
			c0,3.037-2.37,5.547-5.351,5.775c-0.145,0.011-0.294,0.017-0.441,0.017h-65.167l-3.476,6.02l-7.565,13.105l-7.565-13.105
			L98.662,37.036z"/>
		<path style="fill-rule:evenodd;clip-rule:evenodd;fill:#DA3F7E;" d="M28.297,14.362c0-3.185,2.606-5.79,5.791-5.79h151.824
			c3.185,0,5.791,2.605,5.791,5.79v-4.91c0-1.38-0.489-2.652-1.302-3.649c-1.065-1.305-2.684-2.141-4.489-2.141H34.088
			c-1.805,0-3.424,0.836-4.489,2.141c-0.813,0.997-1.302,2.269-1.302,3.649V14.362z"/>
		<path style="fill-rule:evenodd;clip-rule:evenodd;fill:#961D4E;" d="M185.912,29.887H34.088c-0.148,0-0.295-0.005-0.441-0.017
			c-2.981-0.227-5.351-2.736-5.351-5.773v7.148c0,3.037,2.37,5.547,5.351,5.775l0.441,0.017h64.574l3.477,6.02l7.565,13.105
			l7.565-13.105l3.476-6.02h65.167l0.441-0.017c2.981-0.227,5.351-2.738,5.351-5.775v-7.148c0,3.038-2.37,5.546-5.351,5.773
			C186.207,29.882,186.06,29.887,185.912,29.887z"/>
	</g>
	<g>
		<g>
			<path style="fill:#FFFFFF;" d="M87.287,10.549c4.098,0,7.115,1.149,9.054,3.447c0.752,0.89,1.128,1.837,1.128,2.843
				c0,1.874-1.298,3.939-3.892,6.194l6.798,8.069l-5.718-0.063L90.4,25.956v5.003l-4.701-0.302l0.27-20.076
				C86.413,10.56,86.853,10.549,87.287,10.549z M93.339,17.077c0-1.186-0.979-1.927-2.938-2.224v5.083
				C92.359,18.994,93.339,18.041,93.339,17.077z"/>
			<path style="fill:#FFFFFF;" d="M99.295,23.24c0.074-2.414,0.672-4.489,1.795-6.227c1.334-2.075,3.118-3.113,5.353-3.113
				c2.361,0,4.066,0.583,5.114,1.747c0.857,0.953,1.53,2.658,2.018,5.115c0.19,0.963,0.286,1.874,0.286,2.731
				c0,1.843-0.456,3.378-1.366,4.606c-1.334,1.8-3.362,2.657-6.083,2.573c-2.5-0.074-4.331-0.71-5.496-1.906
				S99.21,25.729,99.295,23.24z M108.635,19.428c-0.742-0.698-1.44-1.048-2.097-1.048c-0.806,0-1.547,0.529-2.224,1.588
				c-0.604,0.943-0.905,1.858-0.905,2.748c0,0.837,0.274,1.694,0.825,2.573c0.614,0.984,1.324,1.478,2.129,1.478
				c0.921,0,1.763-0.482,2.525-1.446c0.73-0.91,1.096-1.837,1.096-2.779C109.984,21.524,109.534,20.487,108.635,19.428z"/>
			<path style="fill:#FFFFFF;" d="M117.322,9.945l1.397,19.299l-4.32,0.508l-0.762-19.807H117.322z"/>
			<path style="fill:#FFFFFF;" d="M119.467,23.24c0.074-2.414,0.672-4.489,1.795-6.227c1.334-2.075,3.118-3.113,5.353-3.113
				c2.361,0,4.066,0.583,5.114,1.747c0.857,0.953,1.53,2.658,2.018,5.115c0.19,0.963,0.286,1.874,0.286,2.731
				c0,1.843-0.456,3.378-1.366,4.606c-1.334,1.8-3.362,2.657-6.083,2.573c-2.5-0.074-4.331-0.71-5.496-1.906
				S119.382,25.729,119.467,23.24z M128.807,19.428c-0.742-0.698-1.44-1.048-2.097-1.048c-0.806,0-1.547,0.529-2.224,1.588
				c-0.604,0.943-0.905,1.858-0.905,2.748c0,0.837,0.274,1.694,0.825,2.573c0.614,0.984,1.324,1.478,2.129,1.478
				c0.921,0,1.763-0.482,2.525-1.446c0.73-0.91,1.096-1.837,1.096-2.779C130.156,21.524,129.706,20.487,128.807,19.428z"/>
		</g>
	</g>
</g>
</svg>
