<?xml version="1.0" encoding="utf-8"?>
<!-- Generator: Adobe Illustrator 21.0.0, SVG Export Plug-In . SVG Version: 6.00 Build 0)  -->
<svg version="1.1" id="Capa_1" xmlns="http://www.w3.org/2000/svg" xmlns:xlink="http://www.w3.org/1999/xlink" x="0px" y="0px"
	 viewBox="0 0 224 381.383" style="enable-background:new 0 0 224 381.383;" xml:space="preserve">
<g>
	<g>
		<g>
			<rect x="4" y="62.385" style="opacity:0.2;" width="220" height="318.998"/>
			<rect y="58.384" style="fill:#FFFFFF;" width="220" height="318.998"/>
			<rect x="9.04" y="65.184" style="fill:#E6E6E6;" width="201.921" height="304.349"/>
			
				<linearGradient id="SVGID_1_" gradientUnits="userSpaceOnUse" x1="455.0791" y1="1401.9399" x2="701.3886" y2="1401.9399" gradientTransform="matrix(0 1 -1 0 1511.9402 -389.8948)">
				<stop  offset="0" style="stop-color:#FFFFFF;stop-opacity:0"/>
				<stop  offset="0.2219" style="stop-color:#FCFCFC;stop-opacity:0.2219"/>
				<stop  offset="0.3578" style="stop-color:#F4F4F4;stop-opacity:0.3578"/>
				<stop  offset="0.4706" style="stop-color:#E6E6E6;stop-opacity:0.4706"/>
				<stop  offset="0.5708" style="stop-color:#D1D1D1;stop-opacity:0.5708"/>
				<stop  offset="0.6626" style="stop-color:#B6B6B6;stop-opacity:0.6626"/>
				<stop  offset="0.7484" style="stop-color:#969696;stop-opacity:0.7484"/>
				<stop  offset="0.8294" style="stop-color:#6F6F6F;stop-opacity:0.8294"/>
				<stop  offset="0.9067" style="stop-color:#424242;stop-opacity:0.9067"/>
				<stop  offset="0.9784" style="stop-color:#101010;stop-opacity:0.9784"/>
				<stop  offset="1" style="stop-color:#000000"/>
			</linearGradient>
			<rect x="9.04" y="65.184" style="opacity:0.2;fill:url(#SVGID_1_);" width="201.921" height="246.31"/>
		</g>
	</g>
	<g>
		<defs>
			<filter id="Adobe_OpacityMaskFilter" filterUnits="userSpaceOnUse" x="60.609" y="340.654" width="104.605" height="27.047">
				<feFlood  style="flood-color:white;flood-opacity:1" result="back"/>
				<feBlend  in="SourceGraphic" in2="back" mode="normal"/>
			</filter>
		</defs>
		<mask maskUnits="userSpaceOnUse" x="60.609" y="340.654" width="104.605" height="27.047" id="XMLID_2_">
		</mask>
		
			<ellipse id="XMLID_31_" transform="matrix(1 -0.0098 0.0098 1 -3.4552 1.1201)" style="opacity:0.5;mask:url(#XMLID_2_);fill:#999999;" cx="112.911" cy="354.178" rx="52.305" ry="13.514"/>
		<g>
			<g>
				<g>
					<path style="fill:#A86F3B;stroke:#35120C;stroke-linecap:round;stroke-linejoin:round;stroke-miterlimit:10;" d="
						M201.163,175.828c0.182-0.734,0.242-1.557,0.073-2.316l-0.001-0.015c-0.009-0.033-0.026-0.061-0.036-0.094
						c-0.001-0.004-0.001-0.009-0.002-0.013l-0.003-0.016c-0.072-0.323-0.189-0.635-0.353-0.919
						c-0.088-0.171-0.207-0.331-0.337-0.479c-1.129-1.275-3.072-1.409-4.444-0.514c-0.089,0.08-0.171,0.182-0.256,0.277
						c-0.032-1.991-1.638-3.289-3.335-3.508c-0.793-0.143-1.618-0.055-2.32,0.312c-0.351,0.255-0.666,0.614-0.951,1.038
						c-0.037-0.505-0.071-0.63-0.358-1.123c-0.575-0.981-1.985-1.285-1.985-1.285c-0.514-0.152-1.541-0.29-1.901-0.168
						c-0.623,0.202-1.08,0.389-1.465,0.767c-1.815,1.763-3.017,6.676-2.696,8.918c-1.169,0.564-2.384,1.759-3.122,3.696
						c-1.152,3.021-1.265,4.944-0.747,7.743c0.78,2.073,1.255,2.483,2.297,3.662c1.988,1.874,4.266,2.061,5.995,1.774
						c2.734,3.766,8.303,3.958,12.676,0.472c3.368-2.688,3.969-7.274,5.794-11.371c0.265-0.355,0.505-0.701,0.696-1.008
						c0.178-0.374,0.361-0.744,0.558-1.117c0.475-1.054,0.661-2.059,0.557-3.016c-0.044-0.197-0.1-0.382-0.172-0.567
						c-0.037-0.075-0.078-0.149-0.119-0.22c-0.744-1.176-2.328-1.649-3.583-1.238c-0.06,0.013-0.119,0.039-0.177,0.061
						L201.163,175.828z"/>
					<g id="XMLID_29_">
						
							<path id="XMLID_248_" style="fill:#994900;stroke:#35120C;stroke-linecap:round;stroke-linejoin:round;stroke-miterlimit:10;" d="
							M181.567,182.358c0,0,0.545,0.1,1.358,0.159c0.812,0.054,1.907,0.086,2.957-0.122c0.263-0.042,0.524-0.103,0.778-0.173
							c0.259-0.057,0.493-0.172,0.73-0.25c0.229-0.104,0.448-0.207,0.654-0.302c0.199-0.118,0.384-0.232,0.556-0.332
							c0.321-0.255,0.619-0.439,0.774-0.612c0.177-0.164,0.278-0.256,0.278-0.256s-0.081,0.11-0.226,0.304
							c-0.141,0.204-0.389,0.442-0.689,0.723c-0.336,0.266-0.73,0.556-1.214,0.776c-0.246,0.094-0.492,0.217-0.762,0.285
							c-0.262,0.087-0.537,0.156-0.811,0.209c-0.553,0.092-1.115,0.127-1.637,0.113c-0.523-0.006-1.006-0.085-1.415-0.153
							C182.08,182.573,181.567,182.358,181.567,182.358z"/>
					</g>
					<path style="fill:#994900;stroke:#35120C;stroke-linecap:round;stroke-linejoin:round;stroke-miterlimit:10;" d="
						M188.546,171.927c-0.085,0.295-0.177,0.589-0.252,0.886c-0.126,0.5-0.226,1.007-0.33,1.512
						c-0.103,0.502-0.171,1.012-0.219,1.519l-0.006,0.06c0.162,0.054,0.326,0.101,0.478,0.173c0.202,0.106,0.405,0.193,0.588,0.325
						c0.188,0.114,0.357,0.265,0.517,0.415c0.158,0.155,0.303,0.325,0.419,0.514c0.175,0.227,0.335,0.47,0.419,0.753
						c0.06,0.128,0.087,0.273,0.107,0.418c0.031,0.141,0.046,0.283,0.027,0.427c-0.018,0.144,0.009,0.297-0.039,0.433l-0.12,0.421
						c-0.026,0.151-0.13,0.26-0.192,0.394l-0.147,0.255c0.19,0.031,0.376,0.082,0.569,0.042c0.113-0.011,0.228-0.017,0.339-0.033
						l0.327-0.111c0.227-0.042,0.41-0.202,0.612-0.306c0.184-0.093,0.384-0.291,0.551-0.436c0.225-0.23,0.442-0.489,0.646-0.757
						c0.048-0.117,0.095-0.233,0.117-0.331l0.01-0.051l0.018-0.027c0.3-0.485,0.573-0.991,0.816-1.51
						c0.237-0.52,0.471-1.048,0.681-1.583c0.207-0.538,0.41-1.079,0.588-1.63l0.27-0.825c0.336,0.251-0.207,1.805-0.207,1.805
						c-0.165,0.455-0.306,0.919-0.499,1.369c-0.192,0.446-0.339,0.926-0.577,1.345l-0.337,0.649
						c-0.12,0.212-0.209,0.423-0.365,0.642c-0.038,0.057-0.082,0.111-0.121,0.168c-0.081,0.221-0.172,0.42-0.264,0.626l-0.187,0.419
						c-0.068,0.15-0.076,0.204-0.074,0.392c-0.008,0.319,0.029,0.6,0.076,0.906c0.064,0.295,0.133,0.592,0.272,0.866
						c0.242,0.547,0.711,1.012,1.306,1.176c0.147,0.052,0.3,0.068,0.455,0.075c0.154,0.023,0.309-0.007,0.461-0.013
						c0.313-0.04,0.61-0.124,0.906-0.229c0.413-0.226,0.742-0.564,1.083-0.888c0.329-0.325,0.649-0.662,0.952-1.009
						c0.06-0.153,0.129-0.306,0.175-0.458l0.016-0.053l0.028-0.024c0.343-0.372,0.613-0.759,0.894-1.17
						c0.103-0.154,0.19-0.32,0.288-0.477c0.035-0.068,0.076-0.133,0.11-0.201c0.422-0.838,0.782-1.699,1.126-2.57
						c0,0-0.136,2.214-1.188,3.47c-0.279,0.408-0.589,0.829-0.923,1.187c-0.201,0.602-0.458,1.133-0.713,1.668
						c-0.056,0.131-0.139,0.279-0.173,0.403c-0.051,0.153-0.082,0.297-0.091,0.428c-0.016,0.27-0.001,0.571,0.107,0.848
						c0.185,0.551,0.617,1.034,1.169,1.281c0.274,0.131,0.58,0.187,0.885,0.176c0.305,0.003,0.601-0.096,0.89-0.203
						c0.39-0.206,0.723-0.495,1.044-0.795c0.325-0.301,0.611-0.637,0.89-0.977c0.561-0.681,1.056-1.413,1.513-2.154l-0.008,0.017
						c0.161-0.33,0.312-0.661,0.474-0.986c0.051-0.09,0.082-0.142,0.115-0.235l0.107-0.246c0.064-0.167,0.128-0.328,0.181-0.495
						c0.221-0.663,0.331-1.358,0.29-2.058c0.061,0.072,0.126,0.138,0.183,0.217c0.052,0.647,0.003,1.305-0.176,1.928
						c-0.049,0.182-0.117,0.359-0.178,0.531l-0.103,0.256c-0.029,0.081-0.08,0.188-0.117,0.258c-0.157,0.325-0.333,0.64-0.498,0.96
						l-0.005,0.009l-0.003,0.006c-0.482,0.758-1.061,1.436-1.665,2.087c-0.301,0.327-0.625,0.631-0.949,0.934
						c-0.329,0.296-0.681,0.581-1.082,0.776c-0.284,0.118-0.585,0.23-0.903,0.235c-0.312,0.027-0.628-0.035-0.924-0.145
						c-0.593-0.215-1.094-0.695-1.356-1.288c-0.068-0.153-0.114-0.307-0.15-0.468c-0.028-0.162-0.051-0.324-0.035-0.499
						c0.003-0.179,0.036-0.336,0.074-0.483c0.047-0.177,0.114-0.304,0.17-0.457c0.142-0.348,0.295-0.692,0.437-1.033
						c-0.273,0.289-0.547,0.578-0.834,0.853c-0.346,0.319-0.691,0.662-1.11,0.88c-0.295,0.114-0.597,0.211-0.912,0.26
						c-0.159,0.006-0.316,0.043-0.475,0.024c-0.16-0.001-0.318-0.021-0.474-0.06c-0.635-0.129-1.176-0.597-1.48-1.167
						c-0.325-0.564-0.469-1.223-0.486-1.866c-0.021-0.116,0.006-0.333,0.06-0.477c-0.009,0.008-0.015,0.018-0.024,0.026
						c-0.199,0.161-0.352,0.311-0.6,0.441c-0.226,0.112-0.433,0.272-0.69,0.32l-0.367,0.097c-0.128,0.012-0.26,0.008-0.385,0.01
						c-0.258,0.029-0.505-0.08-0.747-0.122l-0.129-0.021l0.083-0.124l0.23-0.347c0.065-0.122,0.178-0.224,0.21-0.362l0.141-0.394
						c0.053-0.129,0.041-0.277,0.062-0.412c0.021-0.142,0.006-0.28-0.019-0.421c-0.016-0.138-0.041-0.28-0.094-0.408
						c-0.078-0.276-0.228-0.522-0.396-0.747c-0.117-0.181-0.265-0.349-0.428-0.495c-0.161-0.144-0.332-0.287-0.519-0.396
						c-0.181-0.124-0.385-0.209-0.585-0.293c-0.18-0.07-0.37-0.11-0.554-0.16l-0.086-0.015c-0.271-0.049-0.543-0.109-0.824-0.112
						c-0.277-0.031-0.556-0.002-0.83,0.007c-0.279,0.019-0.566,0.084-0.849,0.113l-0.839,0.161
						c-0.565,0.107-1.129,0.219-1.697,0.303c-0.554,0.087-1.105,0.188-1.668,0.231l0.038-0.047c0.536-0.083,1.068-0.219,1.603-0.337
						l1.675-0.376l0.843-0.201l0.426-0.079c0.142-0.02,0.275-0.061,0.426-0.063c0.295-0.021,0.595-0.059,0.887-0.03
						c0.296-0.001,0.678,0.254,0.678,0.254c0.049-0.556,0.144-1.102,0.264-1.642c0.05-0.332,0.096-0.664,0.16-0.998l0.339-1.342
						l0.502-1.297l0.004-0.01C188.678,170.529,188.9,170.934,188.546,171.927z"/>
				</g>
				<g>
					<path style="fill:#FEED00;" d="M138.902,229.032c0,0,26.224-8.777,36.544-35.884l14.383,7.692c0,0-16.576,32.158-52.716,40.041
						L138.902,229.032z"/>
					
						<rect x="181.355" y="186.697" transform="matrix(0.4716 -0.8818 0.8818 0.4716 -74.7094 265.0327)" style="fill:#39B54A;" width="4.855" height="16.311"/>
				</g>
				<g>
					<g>
						<path style="fill:#A86F3B;stroke:#35120C;stroke-linecap:round;stroke-linejoin:round;stroke-miterlimit:10;" d="
							M26.31,175.402c-0.058-0.022-0.117-0.047-0.177-0.061c-1.255-0.411-2.839,0.063-3.583,1.238
							c-0.041,0.071-0.082,0.145-0.119,0.22c-0.071,0.185-0.127,0.37-0.172,0.567c-0.104,0.957,0.082,1.962,0.557,3.016
							c0.197,0.373,0.38,0.743,0.558,1.117c0.19,0.307,0.431,0.653,0.696,1.008c1.826,4.097,2.426,8.683,5.794,11.371
							c4.373,3.487,9.942,3.295,12.676-0.472c1.729,0.287,4.007,0.1,5.995-1.774c1.042-1.179,1.517-1.589,2.297-3.662
							c0.518-2.799,0.405-4.722-0.747-7.743c-0.738-1.937-1.953-3.132-3.122-3.696c0.32-2.242-0.881-7.154-2.696-8.918
							c-0.384-0.378-0.842-0.565-1.465-0.767c-0.361-0.122-1.387,0.017-1.901,0.168c0,0-1.41,0.304-1.985,1.285
							c-0.287,0.493-0.322,0.617-0.358,1.123c-0.284-0.424-0.6-0.783-0.951-1.038c-0.703-0.368-1.527-0.456-2.32-0.312
							c-1.697,0.22-3.303,1.517-3.335,3.508c-0.085-0.094-0.168-0.197-0.256-0.277c-1.372-0.895-3.315-0.761-4.444,0.514
							c-0.129,0.148-0.249,0.309-0.337,0.479c-0.165,0.284-0.281,0.596-0.353,0.919l-0.003,0.016
							c-0.001,0.004-0.001,0.009-0.002,0.013c-0.01,0.032-0.027,0.061-0.036,0.094l-0.001,0.015
							c-0.169,0.759-0.109,1.582,0.073,2.316L26.31,175.402z"/>
						<g id="XMLID_858_">
							
								<path id="XMLID_859_" style="fill:#994900;stroke:#35120C;stroke-linecap:round;stroke-linejoin:round;stroke-miterlimit:10;" d="
								M46.186,182.202c0,0-0.545,0.1-1.358,0.159c-0.812,0.054-1.907,0.086-2.957-0.122c-0.263-0.042-0.524-0.103-0.778-0.173
								c-0.259-0.057-0.493-0.172-0.73-0.25c-0.229-0.104-0.448-0.207-0.654-0.302c-0.199-0.118-0.384-0.232-0.556-0.332
								c-0.321-0.255-0.619-0.439-0.774-0.612c-0.177-0.164-0.278-0.256-0.278-0.256s0.081,0.11,0.226,0.304
								c0.141,0.204,0.389,0.442,0.689,0.723c0.336,0.266,0.73,0.556,1.214,0.776c0.246,0.094,0.492,0.217,0.762,0.285
								c0.262,0.087,0.537,0.156,0.811,0.209c0.553,0.092,1.115,0.127,1.637,0.113c0.523-0.006,1.006-0.085,1.415-0.153
								C45.674,182.417,46.186,182.202,46.186,182.202z"/>
						</g>
						<path style="fill:#994900;stroke:#35120C;stroke-linecap:round;stroke-linejoin:round;stroke-miterlimit:10;" d="
							M39.207,171.771c0.085,0.295,0.177,0.589,0.252,0.886c0.126,0.5,0.226,1.007,0.33,1.512c0.103,0.502,0.171,1.012,0.219,1.519
							l0.006,0.06c-0.162,0.054-0.326,0.101-0.478,0.173c-0.202,0.106-0.405,0.193-0.588,0.325
							c-0.188,0.114-0.357,0.265-0.517,0.415c-0.158,0.155-0.303,0.325-0.419,0.514c-0.175,0.227-0.335,0.47-0.419,0.753
							c-0.06,0.128-0.087,0.273-0.107,0.418c-0.031,0.141-0.046,0.283-0.027,0.427c0.018,0.144-0.009,0.297,0.039,0.433l0.12,0.421
							c0.026,0.151,0.13,0.26,0.192,0.394l0.147,0.255c-0.19,0.031-0.376,0.082-0.569,0.042c-0.113-0.011-0.228-0.017-0.339-0.033
							l-0.327-0.111c-0.227-0.042-0.41-0.202-0.612-0.306c-0.184-0.093-0.384-0.291-0.551-0.436
							c-0.225-0.23-0.442-0.489-0.646-0.757c-0.048-0.117-0.095-0.233-0.117-0.331l-0.01-0.051l-0.018-0.027
							c-0.3-0.485-0.573-0.991-0.816-1.51c-0.237-0.52-0.471-1.048-0.681-1.583c-0.207-0.538-0.41-1.079-0.588-1.63l-0.27-0.825
							c-0.336,0.251,0.207,1.805,0.207,1.805c0.165,0.455,0.306,0.919,0.499,1.369c0.192,0.446,0.339,0.926,0.577,1.345l0.337,0.649
							c0.12,0.212,0.209,0.423,0.365,0.642c0.038,0.057,0.082,0.111,0.121,0.168c0.081,0.221,0.172,0.42,0.264,0.626l0.187,0.419
							c0.068,0.15,0.076,0.204,0.074,0.392c0.008,0.319-0.029,0.6-0.076,0.906c-0.064,0.295-0.133,0.592-0.272,0.866
							c-0.242,0.547-0.711,1.012-1.306,1.176c-0.147,0.052-0.3,0.068-0.455,0.075c-0.154,0.023-0.309-0.007-0.461-0.013
							c-0.313-0.04-0.61-0.124-0.906-0.229c-0.413-0.226-0.742-0.564-1.083-0.888c-0.329-0.325-0.649-0.662-0.952-1.009
							c-0.06-0.153-0.129-0.306-0.175-0.458l-0.016-0.053l-0.028-0.024c-0.343-0.372-0.613-0.759-0.894-1.17
							c-0.103-0.154-0.19-0.32-0.288-0.477c-0.035-0.068-0.076-0.133-0.11-0.201c-0.422-0.838-0.782-1.699-1.126-2.57
							c0,0,0.136,2.214,1.188,3.47c0.279,0.408,0.589,0.829,0.923,1.187c0.201,0.602,0.458,1.133,0.713,1.668
							c0.056,0.131,0.139,0.279,0.173,0.403c0.051,0.153,0.082,0.297,0.091,0.428c0.016,0.27,0.001,0.571-0.107,0.848
							c-0.185,0.551-0.616,1.034-1.169,1.281c-0.274,0.131-0.58,0.187-0.885,0.176c-0.305,0.003-0.601-0.096-0.89-0.203
							c-0.39-0.206-0.723-0.495-1.044-0.795c-0.325-0.301-0.611-0.637-0.89-0.977c-0.561-0.681-1.056-1.413-1.513-2.154l0.008,0.017
							c-0.161-0.33-0.312-0.661-0.474-0.986c-0.051-0.09-0.082-0.142-0.115-0.235l-0.107-0.246
							c-0.064-0.167-0.128-0.328-0.181-0.495c-0.221-0.663-0.331-1.358-0.29-2.058c-0.061,0.072-0.126,0.138-0.183,0.217
							c-0.052,0.647-0.003,1.305,0.175,1.928c0.049,0.182,0.117,0.359,0.178,0.531l0.103,0.256c0.029,0.081,0.08,0.188,0.117,0.258
							c0.157,0.325,0.333,0.64,0.498,0.96l0.005,0.009l0.003,0.006c0.482,0.758,1.061,1.436,1.665,2.087
							c0.301,0.327,0.625,0.631,0.949,0.934c0.329,0.296,0.681,0.581,1.082,0.776c0.284,0.118,0.585,0.23,0.903,0.235
							c0.312,0.027,0.628-0.035,0.924-0.145c0.593-0.215,1.094-0.695,1.356-1.288c0.068-0.153,0.114-0.307,0.15-0.468
							c0.028-0.162,0.051-0.324,0.035-0.499c-0.003-0.179-0.036-0.336-0.074-0.483c-0.047-0.177-0.114-0.304-0.17-0.457
							c-0.142-0.348-0.295-0.692-0.437-1.033c0.273,0.289,0.547,0.578,0.834,0.853c0.346,0.319,0.691,0.662,1.11,0.88
							c0.295,0.114,0.597,0.211,0.912,0.26c0.159,0.006,0.316,0.043,0.475,0.024c0.16-0.001,0.318-0.021,0.474-0.06
							c0.635-0.129,1.176-0.597,1.48-1.167c0.325-0.564,0.469-1.223,0.486-1.866c0.021-0.116-0.006-0.333-0.06-0.477
							c0.009,0.008,0.015,0.018,0.024,0.026c0.199,0.161,0.352,0.311,0.6,0.441c0.226,0.112,0.433,0.272,0.69,0.32L37,180.545
							c0.128,0.012,0.26,0.008,0.385,0.01c0.258,0.029,0.505-0.08,0.747-0.122l0.129-0.021l-0.083-0.124l-0.23-0.347
							c-0.065-0.122-0.178-0.224-0.21-0.362l-0.142-0.394c-0.053-0.129-0.041-0.277-0.062-0.412
							c-0.021-0.142-0.006-0.28,0.019-0.421c0.016-0.138,0.041-0.28,0.094-0.408c0.078-0.276,0.228-0.522,0.396-0.747
							c0.117-0.181,0.265-0.349,0.428-0.495c0.161-0.144,0.332-0.287,0.519-0.396c0.181-0.124,0.385-0.209,0.585-0.293
							c0.18-0.07,0.37-0.11,0.554-0.16l0.086-0.015c0.271-0.049,0.543-0.109,0.824-0.112c0.277-0.031,0.556-0.002,0.83,0.007
							c0.279,0.019,0.566,0.084,0.849,0.113l0.839,0.161c0.565,0.107,1.129,0.219,1.697,0.303c0.554,0.087,1.105,0.188,1.668,0.231
							l-0.038-0.047c-0.536-0.083-1.068-0.219-1.603-0.337l-1.675-0.376l-0.843-0.201l-0.426-0.079
							c-0.142-0.02-0.275-0.061-0.426-0.063c-0.295-0.021-0.595-0.059-0.887-0.03c-0.296-0.001-0.678,0.254-0.678,0.254
							c-0.049-0.556-0.144-1.102-0.264-1.642c-0.05-0.332-0.097-0.664-0.16-0.998l-0.339-1.342l-0.502-1.297l-0.004-0.01
							C39.075,170.373,38.854,170.778,39.207,171.771z"/>
					</g>
					<path style="fill:#FEED00;" d="M88.469,228.876c0,0-26.224-8.777-36.544-35.884l-14.383,7.692c0,0,16.576,32.158,52.716,40.041
						L88.469,228.876z"/>
					
						<rect x="35.433" y="192.268" transform="matrix(0.8818 -0.4716 0.4716 0.8818 -86.6606 43.5614)" style="fill:#39B54A;" width="16.311" height="4.855"/>
				</g>
				<g>
					<rect x="93.888" y="280.436" width="39.72" height="4.038"/>
					<path style="fill:#A7A9AC;" d="M115.865,285.123h-4.275c-1.704,0-3.091-1.195-3.091-2.665c0-1.472,1.386-2.67,3.091-2.67h4.275
						c1.704,0,3.089,1.198,3.089,2.67C118.954,283.928,117.569,285.123,115.865,285.123z M111.59,281.084
						c-0.989,0-1.794,0.616-1.794,1.374c0,0.755,0.805,1.368,1.794,1.368h4.275c0.988,0,1.793-0.613,1.793-1.368
						c0-0.758-0.804-1.374-1.793-1.374H111.59z"/>
				</g>
				<g>
					<path style="fill:#39B54A;" d="M113.749,292.386c13.62,18.62,6.252,59.677,6.252,59.677c8.87-6.33,21.013-3.92,21.013-3.92
						c-12.21-31.413-7.446-63.668-7.446-63.668h-39.68c0,0,4.806,32.254-7.402,63.668c0,0,12.143-2.41,21.013,3.92
						c0,0-7.413-41.057,6.204-59.677"/>
					<path d="M146.321,353.519c0,3.352-3.208,3.555-11.661,3.555c-8.455,0-14.943-0.202-14.943-3.555
						c0-3.349,6.851-6.063,15.303-6.063C143.473,347.456,146.321,350.17,146.321,353.519z"/>
					<path d="M81.52,353.519c0,3.352,3.206,3.555,11.663,3.555c8.451,0,14.942-0.202,14.942-3.555c0-3.349-6.853-6.063-15.309-6.063
						C84.366,347.456,81.52,350.17,81.52,353.519z"/>
				</g>
				<g>
					<path style="fill:#FEED00;" d="M88.469,228.876l18.742-4.341h6.792v67.204c0,0-10.215-0.869-14.164-2.735
						c-1.807-0.856-6.324-4.681-6.324-4.681l-3.04-31.764L88.469,228.876z"/>
					<path style="fill:#FEED00;" d="M138.93,228.974l-18.137-4.44h-6.79v67.204c0,0,10.092-0.209,14.04-2.077
						c1.809-0.854,6.447-5.339,6.447-5.339l3.039-31.764L138.93,228.974z"/>
					<path style="fill:#FFFFFF;" d="M131.905,234.785c0.758-0.237,1.304-0.869,1.304-1.619c0-0.885-0.759-1.606-1.732-1.704
						c0-0.002,0.001-0.02,0.001-0.02h-0.241c0.145-0.285,0.241-0.575,0.241-0.873c0-3.05-7.897-5.522-17.639-5.522
						c-9.742,0-17.639,2.472-17.639,5.522c0,0.298,0.096,0.588,0.241,0.873h-0.241c-1.079,0-1.954,0.772-1.954,1.724
						c0,0.75,0.546,1.382,1.304,1.619c-0.471,0.315-0.779,0.809-0.779,1.37c0,0.927,0.832,1.678,1.872,1.716
						c-0.646,0.281-1.094,0.862-1.094,1.541c0,0.812,0.639,1.489,1.496,1.671c-0.51,0.311-0.846,0.83-0.846,1.418
						c0,0.747,0.541,1.377,1.294,1.616c0.005,0.033,0.011,0.067,0.016,0.099c-0.474,0.315-0.786,0.81-0.786,1.374
						c0,0.748,0.543,1.379,1.298,1.617c0.007,0.039,0.014,0.077,0.021,0.115c-0.333,0.309-0.541,0.725-0.541,1.186
						c0,0.676,0.446,1.256,1.088,1.538c0.007,0.03,0.014,0.061,0.02,0.091c-0.451,0.316-0.746,0.798-0.746,1.346
						c0,0.799,0.619,1.465,1.455,1.66c0.007,0.029,0.014,0.058,0.021,0.087c-0.404,0.316-0.664,0.772-0.664,1.286
						c0,0.787,0.601,1.443,1.418,1.65c-0.391,0.315-0.64,0.764-0.64,1.268c0,0.857,0.711,1.562,1.639,1.696
						c-0.285,0.3-0.464,0.681-0.464,1.103c0,0.82,0.65,1.502,1.519,1.677c-0.235,0.285-0.378,0.632-0.378,1.012
						c0,0.914,0.808,1.654,1.827,1.713c-0.146,0.241-0.236,0.512-0.236,0.805c0,0.848,0.695,1.549,1.609,1.693
						c-0.153,0.246-0.248,0.524-0.248,0.824c0,0.952,0.875,1.724,1.954,1.724c0.219,0,0.426-0.039,0.622-0.098
						c0.015,0.014,0.031,0.026,0.046,0.04c-0.045,0.145-0.076,0.294-0.076,0.451c0,0.952,0.875,1.724,1.954,1.724
						c0.313,0,0.605-0.071,0.867-0.187c0.04,0.021,0.082,0.04,0.122,0.061c0.123,0.847,0.935,1.504,1.929,1.504
						c0.522,0,0.992-0.183,1.343-0.477c0.12,0.016,0.233,0.049,0.354,0.06c0.06-0.006,0.115-0.023,0.174-0.03
						c0.346,0.274,0.799,0.446,1.301,0.446c0.948,0,1.738-0.596,1.915-1.387c0.084-0.041,0.167-0.082,0.25-0.125
						c0.232,0.085,0.486,0.133,0.753,0.133c1.079,0,1.954-0.772,1.954-1.724c0-0.101-0.015-0.2-0.034-0.296
						c0.056-0.052,0.116-0.096,0.171-0.149c0.147,0.031,0.297,0.052,0.455,0.052c1.079,0,1.954-0.772,1.954-1.724
						c0-0.3-0.095-0.578-0.248-0.824c0.914-0.144,1.609-0.845,1.609-1.693c0-0.228-0.053-0.445-0.144-0.645
						c0.033-0.059,0.068-0.118,0.101-0.177c0.926-0.135,1.635-0.84,1.635-1.695c0-0.349-0.119-0.672-0.321-0.944
						c0.014-0.031,0.028-0.064,0.041-0.095c0.818-0.206,1.42-0.863,1.42-1.65c0-0.365-0.13-0.702-0.35-0.981
						c0.019-0.052,0.04-0.102,0.059-0.154c0.841-0.192,1.466-0.86,1.466-1.663c0-0.452-0.202-0.861-0.525-1.168
						c0.015-0.048,0.03-0.096,0.044-0.144c0.735-0.248,1.259-0.871,1.259-1.606c0-0.432-0.186-0.822-0.484-1.124
						c0.027-0.104,0.051-0.208,0.077-0.313c0.715-0.256,1.22-0.873,1.22-1.596c0-0.469-0.214-0.893-0.558-1.204
						c0.026-0.119,0.054-0.238,0.08-0.357c0.507-0.311,0.841-0.828,0.841-1.414c0-0.368-0.133-0.708-0.356-0.988
						c0.026-0.136,0.049-0.269,0.073-0.405c0.628-0.287,1.061-0.858,1.061-1.525c0-0.483-0.226-0.918-0.589-1.231
						c0.018-0.111,0.036-0.224,0.053-0.334c0.627-0.287,1.06-0.858,1.06-1.525c0-0.513-0.259-0.968-0.662-1.284
						c0.008-0.063,0.017-0.129,0.026-0.191c0.749-0.241,1.287-0.87,1.287-1.614c0-0.619-0.373-1.157-0.928-1.461
						c0.003-0.031,0.007-0.064,0.01-0.095c0.956-0.112,1.696-0.827,1.696-1.701C132.684,235.593,132.375,235.1,131.905,234.785z"/>
					<path style="fill:#FF0000;" d="M115.092,270.367c-0.338-0.154-0.705-0.235-1.08-0.235c-0.038,0-0.076,0.001-0.114,0.003
						c-0.029-0.005-0.058-0.009-0.089-0.013c-0.109-0.014-0.218-0.02-0.326-0.02c-0.363,0-0.721,0.076-1.051,0.222
						c-0.25-0.412-0.614-0.754-1.058-0.976c-0.397-0.198-0.873-0.31-1.339-0.31c-0.053,0-0.105,0.001-0.157,0.005
						c-0.115-0.504-0.381-0.972-0.777-1.335c-0.421-0.387-0.969-0.633-1.534-0.699c-0.016-0.329-0.094-0.655-0.235-0.962
						c-0.241-0.525-0.647-0.947-1.143-1.21c0.037-0.481-0.06-0.972-0.292-1.412c-0.264-0.502-0.681-0.896-1.178-1.133
						c0.061-0.412,0.023-0.84-0.121-1.246c-0.187-0.529-0.537-0.974-0.986-1.282c0.122-0.482,0.104-0.999-0.065-1.486
						c-0.187-0.535-0.537-0.983-0.987-1.292c0.143-0.435,0.174-0.909,0.072-1.374c-0.126-0.574-0.438-1.076-0.872-1.439
						c0.184-0.475,0.23-1.002,0.112-1.519c-0.006-0.027-0.034-0.14-0.041-0.166c-0.138-0.527-0.434-0.986-0.835-1.326
						c0.206-0.48,0.266-1.021,0.156-1.554c-0.102-0.489-0.348-0.963-0.693-1.337c0.167-0.426,0.221-0.895,0.146-1.36
						c-0.003-0.011-0.022-0.122-0.023-0.132c-0.095-0.546-0.36-1.04-0.742-1.419c0.231-0.472,0.318-1.013,0.232-1.553
						c-0.088-0.553-0.355-1.082-0.742-1.491c0.269-0.5,0.373-1.084,0.274-1.667c-0.094-0.555-0.362-1.048-0.747-1.425
						c0.327-0.535,0.459-1.186,0.335-1.837c-0.141-0.74-0.587-1.359-1.197-1.732c0.138-0.39,0.184-0.813,0.123-1.24
						c-0.041-0.283-0.127-0.553-0.253-0.801c0.313-0.207,0.582-0.481,0.785-0.811c0.397-0.647,0.489-1.429,0.265-2.141
						c1.128-1.042,6.202-3.016,14.919-3.016c8.723,0,13.799,1.978,14.922,3.019c-0.216,0.708-0.127,1.487,0.266,2.127
						c0.167,0.273,0.379,0.509,0.624,0.699c-0.161,0.28-0.272,0.593-0.318,0.924c-0.066,0.456-0.009,0.91,0.154,1.321
						c-0.58,0.411-0.983,1.054-1.076,1.798c-0.005,0.036-0.019,0.165-0.022,0.2c-0.044,0.538,0.079,1.063,0.338,1.512
						c-0.372,0.396-0.618,0.905-0.686,1.464l-0.025,0.198c-0.06,0.49,0.023,0.976,0.225,1.407c-0.316,0.362-0.53,0.81-0.609,1.298
						l-0.053,0.334c-0.079,0.487-0.015,0.978,0.17,1.42c-0.325,0.358-0.549,0.804-0.636,1.294l-0.069,0.382
						c-0.077,0.412-0.052,0.832,0.066,1.226c-0.263,0.318-0.449,0.697-0.537,1.108l-0.076,0.338
						c-0.11,0.497-0.071,1.006,0.099,1.468c-0.355,0.334-0.617,0.765-0.741,1.252l-0.047,0.189
						c-0.124,0.485-0.113,1.024,0.028,1.519c-0.383,0.326-0.669,0.76-0.812,1.257c-0.162,0.514-0.166,1.079-0.02,1.598
						c-0.395,0.288-0.707,0.686-0.889,1.155l-0.079,0.206c-0.165,0.452-0.199,0.931-0.11,1.389c-0.39,0.269-0.703,0.645-0.9,1.089
						c-0.202,0.462-0.275,0.99-0.212,1.496c-0.419,0.227-0.773,0.567-1.016,0.991l-0.122,0.214c-0.216,0.39-0.325,0.822-0.325,1.256
						c-0.537,0.26-0.976,0.702-1.231,1.257c-0.146,0.321-0.223,0.664-0.233,1.006c-0.501,0.08-0.964,0.317-1.356,0.692l-0.148,0.128
						c-0.354,0.329-0.603,0.744-0.73,1.194c-0.057-0.004-0.114-0.005-0.171-0.005c-0.4,0-0.797,0.093-1.162,0.274
						C115.859,269.552,115.408,269.925,115.092,270.367z"/>
					<g>
						<g>
							<g>
								<path style="fill:#175DD7;" d="M109.152,281.491c-7.153-4.205-12.428-18.702-12.428-35.947c0-6.998,0.87-13.542,2.38-19.132
									l-10.635,2.463l2.006,23.683l3.04,31.764c0,0,4.517,3.825,6.324,4.681c2.14,1.011,6.115,1.728,9.312,2.174V281.491z"/>
							</g>
							<g>
								<path style="fill:#175DD7;" d="M127.7,226.225c1.541,5.63,2.43,12.244,2.43,19.319c0,16.758-4.981,30.923-11.828,35.567
									v10.396c3.237-0.255,7.487-0.78,9.74-1.846c1.809-0.854,6.447-5.339,6.447-5.339l3.039-31.764l1.401-23.584L127.7,226.225z"
									/>
							</g>
						</g>
					</g>
				</g>
				<g>
					<g>
						<path style="fill:#A86F3B;stroke:#35120C;stroke-linecap:round;stroke-linejoin:round;stroke-miterlimit:10;" d="
							M79.032,179.971c0,0-2.68-8.206-7.574-8.206c-4.891,0-2.525,15.934,10.257,24.141L79.032,179.971z"/>
						<path style="fill:#A86F3B;stroke:#35120C;stroke-linecap:round;stroke-linejoin:round;stroke-miterlimit:10;" d="
							M148.85,179.971c0,0,2.679-8.206,7.573-8.206c4.893,0,2.521,15.934-10.259,24.141L148.85,179.971z"/>
						<path style="fill:#A86F3B;stroke:#35120C;stroke-linecap:round;stroke-linejoin:round;stroke-miterlimit:10;" d="
							M114.003,122.413c0,0,24.138,0,26.891,0c2.753,0,9.574,4.347,10.282,26.237c1.395,42.91-0.443,54.117-15.816,70.333
							c-7.087,7.472-14.566,10.704-21.357,10.704c-6.602,0-14.274-3.231-21.359-10.704c-15.375-16.216-17.213-27.423-15.819-70.333
							c0.71-21.89,7.528-26.237,10.283-26.237C89.861,122.413,114.003,122.413,114.003,122.413z"/>
						<g>
							<path d="M139.822,159.635c-0.245-0.129-0.675-0.253-1.201-0.453c-0.529-0.194-1.164-0.442-1.911-0.605
								c-1.45-0.444-3.275-0.672-5.056-0.804c-3.598-0.174-7.012,0.571-7.607,0.7c-1.258,0.188-3.037,0.86-4.005-1.035
								c-0.537-0.979,0.439-1.957,1.932-2.599c1.489-0.664,3.487-0.97,4.933-1.055c1.437-0.132,4.581-0.042,7.509,0.712
								c0.727,0.208,1.452,0.385,2.125,0.616c0.667,0.256,1.299,0.498,1.882,0.72c1.121,0.523,2.005,0.987,2.483,1.243
								c0.906,0.621,1.949,1.192,2.617,1.94c0.695,0.714,1.142,1.384,1.057,1.912C144.367,162,141.873,160.49,139.822,159.635z"/>
						</g>
						<g>
							<path d="M87.749,159.635c0.245-0.129,0.676-0.253,1.201-0.453c0.53-0.194,1.166-0.442,1.911-0.605
								c1.451-0.444,3.276-0.672,5.057-0.804c3.6-0.174,7.014,0.571,7.61,0.7c1.256,0.188,3.037,0.86,4.005-1.035
								c0.537-0.979-0.439-1.957-1.932-2.599c-1.492-0.664-3.487-0.97-4.933-1.055c-1.44-0.132-4.584-0.042-7.512,0.712
								c-0.726,0.208-1.453,0.385-2.123,0.616c-0.668,0.256-1.301,0.498-1.882,0.72c-1.122,0.523-2.007,0.987-2.485,1.243
								c-0.904,0.621-1.947,1.192-2.617,1.94c-0.695,0.714-1.142,1.384-1.057,1.912C83.205,162,85.699,160.49,87.749,159.635z"/>
						</g>
						<g id="XMLID_215_">
							<g id="XMLID_221_">
								<path id="XMLID_225_" style="fill:#FFFFFF;" d="M94.019,164.112c-11.292,2.988-10.8,19.108,1.468,19.076
									C107.755,183.156,107.159,160.636,94.019,164.112z"/>
								
									<ellipse id="XMLID_28_" transform="matrix(0.0209 -0.9998 0.9998 0.0209 -79.9616 265.1183)" cx="95.38" cy="173.385" rx="6.03" ry="4.774"/>
								
									<ellipse id="XMLID_223_" transform="matrix(0.0209 -0.9998 0.9998 0.0209 -79.2119 259.7543)" style="fill:#FFFFFF;" cx="93.015" cy="170.32" rx="2.848" ry="2.848"/>
								
									<ellipse id="XMLID_222_" transform="matrix(0.0209 -0.9998 0.9998 0.0209 -80.9199 269.2339)" style="fill:#FFFFFF;" cx="97.003" cy="175.932" rx="1.089" ry="1.089"/>
							</g>
							<g id="XMLID_216_">
								<path id="XMLID_220_" style="fill:#FFFFFF;" d="M133.741,164.203c11.157,3.457,9.992,19.543-2.264,18.998
									C119.221,182.656,120.758,160.18,133.741,164.203z"/>
								
									<ellipse id="XMLID_219_" transform="matrix(0.0209 -0.9998 0.9998 0.0209 -43.6594 302.2605)" cx="132.495" cy="173.421" rx="6.03" ry="4.774"/>
								
									<ellipse id="XMLID_218_" transform="matrix(0.0209 -0.9998 0.9998 0.0209 -42.9093 296.8965)" style="fill:#FFFFFF;" cx="130.13" cy="170.356" rx="2.848" ry="2.848"/>
								
									<ellipse id="XMLID_217_" transform="matrix(0.0209 -0.9998 0.9998 0.0209 -44.6177 306.3762)" style="fill:#FFFFFF;" cx="134.117" cy="175.968" rx="1.089" ry="1.089"/>
							</g>
						</g>
						<path id="XMLID_26_" style="fill:#724014;" d="M105.103,191.815c1.023-1.357,4.073,2.341,8.734,2.644
							c4.661,0.303,6.713-4.645,8.75-3.475c2.037,1.171-2.058,7.57-9.052,8.136C106.54,199.686,104.226,192.978,105.103,191.815z"/>
						<g>
							<path d="M130.5,202.64c0,0-0.548,8.426-6.872,12.925c-2.295,1.634-5.355,2.743-9.427,2.743c-4.067,0-7.118-1.107-9.414-2.738
								c-6.323-4.495-6.877-12.93-6.877-12.93H130.5z"/>
							<path style="fill:#FFFFFF;" d="M100.368,202.64h27.875c0,0,0.922,3.21-13.938,3.21S100.368,202.64,100.368,202.64z"/>
							<path style="fill:#FFFFFF;" d="M123.628,215.565c-2.295,1.634-5.355,2.743-9.427,2.743c-4.067,0-7.118-1.107-9.414-2.738
								C107.037,215.205,114.294,214.276,123.628,215.565z"/>
						</g>
					</g>
					<path d="M114.129,143.918c0,0-0.93,2.549-3.013,0.567c0,0-2.14,2.376-2.905-0.454c0,0-1.865,2.719-3.452-0.565
						c0,0-2.684,1.924-3.342-0.906c0,0-2.905,2.265-3.288-1.302c0,0-2.52,1.641-3.452-1.076c0,0-0.986,2.831-4.492,0.793
						c0,0-0.329,3.511-3.617,2.038c0,0,1.536,2.662-1.863,3.736c0,0,2.194,1.924-0.657,3.622c0,0,2.189,1.755-0.056,3.454
						c0,0,2.083,3.679-1.48,3.679c0,0,1.862,3.452-1.59,4.586c0,0,2.687,4.303-1.533,4.303c0,0,2.574,3.624-1.261,4.416
						c0,0,1.973,2.603-0.986,3.962c0,0,0.329,2.379-0.547,3.511c-0.876,1.132-3.509-0.228-2.741-2.492c0,0-3.013,0.963-2.684-2.83
						c0,0-3.013-0.113-1.315-4.076c0,0-2.628-1.302-1.04-4.359c0,0-2.412-1.302-0.822-4.586c0,0-2.52-2.492-0.383-4.982
						c0,0-2.304-1.697-0.221-4.302c0,0-2.355-0.395,0.111-4.925c0,0-2.415-3,0.272-4.755c0,0-2.464-3.624,0.989-4.869
						c0,0-2.574-4.698,1.48-4.755c0,0-2.247-3.508,2.41-5.83c0,0-1.372-4.7,3.671-5.209c0,0-0.601-4.246,3.891-4.416
						c0,0,0.383-3.906,4.439-3.227c0,0-0.275-4.188,4.767-2.603c0,0-0.164-3.566,4.713-1.925c0,0-0.003-3.681,5.368-1.246
						c0,0,1.7-3.17,4.549-1.132c0,0,1.97-3.509,4.986-0.509c0,0,1.587-1.302,5.096-1.302c3.509,0,5.096,1.302,5.096,1.302
						c3.016-3,4.986,0.509,4.986,0.509c2.849-2.038,4.549,1.132,4.549,1.132c5.371-2.435,5.368,1.246,5.368,1.246
						c4.878-1.641,4.713,1.925,4.713,1.925c5.042-1.584,4.767,2.603,4.767,2.603c4.056-0.679,4.439,3.227,4.439,3.227
						c4.492,0.17,3.891,4.416,3.891,4.416c5.042,0.509,3.671,5.209,3.671,5.209c4.657,2.322,2.409,5.83,2.409,5.83
						c4.053,0.057,1.479,4.755,1.479,4.755c3.452,1.246,0.989,4.869,0.989,4.869c2.687,1.755,0.272,4.755,0.272,4.755
						c2.466,4.53,0.11,4.925,0.11,4.925c2.083,2.605-0.221,4.302-0.221,4.302c2.137,2.49-0.383,4.982-0.383,4.982
						c1.59,3.284-0.822,4.586-0.822,4.586c1.587,3.057-1.04,4.359-1.04,4.359c1.698,3.963-1.315,4.076-1.315,4.076
						c0.329,3.793-2.684,2.83-2.684,2.83c0.768,2.264-1.865,3.624-2.741,2.492c-0.876-1.132-0.547-3.511-0.547-3.511
						c-2.959-1.359-0.986-3.962-0.986-3.962c-3.835-0.792-1.261-4.416-1.261-4.416c-4.22,0-1.533-4.303-1.533-4.303
						c-3.452-1.133-1.59-4.586-1.59-4.586c-3.563,0-1.48-3.679-1.48-3.679c-2.245-1.698-0.057-3.454-0.057-3.454
						c-2.851-1.698-0.657-3.622-0.657-3.622c-3.398-1.075-1.862-3.736-1.862-3.736c-3.288,1.473-3.617-2.038-3.617-2.038
						c-3.506,2.038-4.493-0.793-4.493-0.793c-0.932,2.717-3.452,1.076-3.452,1.076c-0.383,3.566-3.288,1.302-3.288,1.302
						c-0.657,2.83-3.342,0.906-3.342,0.906c-1.587,3.284-3.452,0.565-3.452,0.565c-0.765,2.83-2.905,0.454-2.905,0.454
						C115.058,146.467,114.129,143.918,114.129,143.918z"/>
				</g>
			</g>
		</g>
	</g>
	<g>
		<path style="opacity:0.2;fill-rule:evenodd;clip-rule:evenodd;" d="M34.088,56.886h61.499l1.932,3.345l0.009-0.005l7.556,13.087
			l4.624,8.011l4.614-7.989l7.566-13.103v-0.022l1.919-3.323h62.104c3.07,0,5.858-1.253,7.874-3.269
			c2.016-2.016,3.269-4.805,3.269-7.874V14.803c0-3.069-1.253-5.858-3.269-7.874s-4.804-3.269-7.874-3.269H34.088
			c-3.07,0-5.858,1.253-7.874,3.269s-3.269,4.805-3.269,7.874v30.941c0,3.069,1.253,5.858,3.269,7.874h0.02
			C28.254,55.635,31.035,56.886,34.088,56.886L34.088,56.886z M98.662,46.184H34.088c-0.124,0-0.237-0.049-0.318-0.123l0.01-0.01
			c-0.081-0.081-0.133-0.191-0.133-0.308V14.803c0-0.116,0.052-0.227,0.133-0.308c0.08-0.081,0.191-0.133,0.308-0.133h151.824
			c0.116,0,0.227,0.052,0.308,0.133c0.081,0.08,0.133,0.191,0.133,0.308v30.941c0,0.116-0.052,0.227-0.133,0.308
			c-0.08,0.081-0.191,0.133-0.308,0.133h-65.167h-3.063l-1.556,2.697l-3.467,6.003l-0.009-0.005l-2.953,5.113l-2.939-5.091v-0.022
			l-3.477-6.02l-1.545-2.675H98.662z"/>
		<path style="fill-rule:evenodd;clip-rule:evenodd;fill:#FFFFFF;" d="M34.088,53.225h61.499l1.932,3.345l0.009-0.005l7.556,13.087
			l4.624,8.011l4.614-7.988l7.566-13.103v-0.022l1.919-3.323h62.104c3.07,0,5.858-1.253,7.874-3.269
			c2.016-2.016,3.269-4.805,3.269-7.874V11.142c0-3.069-1.253-5.858-3.269-7.874S188.982,0,185.912,0H34.088
			c-3.07,0-5.858,1.253-7.874,3.269s-3.269,4.805-3.269,7.874v30.941c0,3.069,1.253,5.858,3.269,7.874h0.02
			C28.254,51.974,31.035,53.225,34.088,53.225L34.088,53.225z M98.662,42.524H34.088c-0.124,0-0.237-0.049-0.318-0.123l0.01-0.01
			c-0.081-0.081-0.133-0.191-0.133-0.308V11.142c0-0.116,0.052-0.227,0.133-0.308c0.08-0.081,0.191-0.133,0.308-0.133h151.824
			c0.116,0,0.227,0.052,0.308,0.133c0.081,0.081,0.133,0.191,0.133,0.308v30.941c0,0.116-0.052,0.227-0.133,0.308
			c-0.08,0.081-0.191,0.133-0.308,0.133h-65.167h-3.063l-1.556,2.697l-3.467,6.003l-0.009-0.005l-2.953,5.114l-2.939-5.092v-0.022
			l-3.477-6.02l-1.545-2.675H98.662z"/>
		<path style="fill-rule:evenodd;clip-rule:evenodd;fill:#C12564;" d="M34.088,46.186h64.574l3.477,6.02l7.565,13.105l7.565-13.105
			l3.476-6.02h65.167c3.185,0,5.791-2.606,5.791-5.791V9.452c0-3.185-2.606-5.79-5.791-5.79H34.088c-3.185,0-5.791,2.605-5.791,5.79
			v30.942C28.297,43.578,30.903,46.186,34.088,46.186z"/>
		<path style="fill-rule:evenodd;clip-rule:evenodd;fill:#E6E6E6;" d="M97.519,56.571L97.519,56.571L97.519,56.571z M109.709,70.153
			L98.05,50.501H34.088c-3.053,0-5.834-1.251-7.853-3.269h-0.02c-2.016-2.016-3.269-4.805-3.269-7.874v2.725
			c0,3.069,1.253,5.858,3.269,7.874h0.02c2.02,2.017,4.8,3.269,7.853,3.269h61.499l1.941,3.34l7.556,13.087l4.624,8.011l4.614-7.988
			l7.566-13.103v-0.022l1.919-3.323h62.104c3.07,0,5.858-1.253,7.874-3.269c2.016-2.016,3.269-4.805,3.269-7.874v-2.725
			c0,3.069-1.253,5.858-3.269,7.874c-2.016,2.016-4.804,3.269-7.874,3.269h-64.848L109.709,70.153z"/>
		<path style="fill-rule:evenodd;clip-rule:evenodd;fill:#5D1230;" d="M98.662,38.725H34.088c-0.147,0-0.295-0.005-0.441-0.017
			c-2.981-0.227-5.351-2.738-5.351-5.775v7.46c0,3.037,2.37,5.547,5.351,5.775c0.145,0.011,0.292,0.017,0.441,0.017h64.574
			l0.691,1.195l2.786,4.825l7.565,13.105l7.565-13.105l2.786-4.825l0.69-1.195h65.167c0.148,0,0.295-0.005,0.441-0.017
			c2.981-0.227,5.351-2.738,5.351-5.775v-7.46c0,3.037-2.37,5.547-5.351,5.775c-0.145,0.011-0.294,0.017-0.441,0.017h-65.167
			l-2.193,3.798l-1.283,2.221l-7.565,13.105l-7.565-13.105l-1.283-2.221L98.662,38.725z"/>
		<path style="fill-rule:evenodd;clip-rule:evenodd;fill:#E26A9A;" d="M98.662,37.036H34.088c-0.147,0-0.295-0.005-0.441-0.017
			c-2.981-0.227-5.351-2.738-5.351-5.775v1.689c0,3.037,2.37,5.547,5.351,5.775l0.441,0.017h64.574l2.193,3.798l1.283,2.221
			l7.565,13.105l7.565-13.105l1.283-2.221l2.193-3.798h65.167l0.441-0.017c2.981-0.227,5.351-2.738,5.351-5.775v-1.689
			c0,3.037-2.37,5.547-5.351,5.775c-0.145,0.011-0.294,0.017-0.441,0.017h-65.167l-3.476,6.02l-7.565,13.105l-7.565-13.105
			L98.662,37.036z"/>
		<path style="fill-rule:evenodd;clip-rule:evenodd;fill:#DA3F7E;" d="M28.297,14.362c0-3.185,2.606-5.79,5.791-5.79h151.824
			c3.185,0,5.791,2.605,5.791,5.79v-4.91c0-1.38-0.489-2.652-1.302-3.649c-1.065-1.305-2.684-2.141-4.489-2.141H34.088
			c-1.805,0-3.424,0.836-4.489,2.141c-0.813,0.997-1.302,2.269-1.302,3.649V14.362z"/>
		<path style="fill-rule:evenodd;clip-rule:evenodd;fill:#961D4E;" d="M185.912,29.887H34.088c-0.148,0-0.295-0.005-0.441-0.017
			c-2.981-0.227-5.351-2.736-5.351-5.773v7.148c0,3.037,2.37,5.547,5.351,5.775l0.441,0.017h64.574l3.477,6.02l7.565,13.105
			l7.565-13.105l3.476-6.02h65.167l0.441-0.017c2.981-0.227,5.351-2.738,5.351-5.775v-7.148c0,3.038-2.37,5.546-5.351,5.773
			C186.207,29.882,186.06,29.887,185.912,29.887z"/>
	</g>
	<g>
		<g>
			<path style="fill:#FFFFFF;" d="M70.34,19.873c-0.254-1.896-1.229-2.78-2.922-2.652c-1.694,0.127-2.626,1.271-2.796,3.431
				c-0.021,0.265-0.032,0.487-0.032,0.667c0,1.811,0.657,3.15,1.97,4.019c0.477,0.317,0.921,0.477,1.334,0.477
				c0.879,0,1.652-0.678,2.319-2.033l4.447,0.317c-1.324,4.193-3.198,6.247-5.623,6.163c-2.425-0.085-4.002-0.302-4.733-0.651
				c-1.334-0.636-2.298-1.773-2.891-3.415c-0.35-0.964-0.636-2.478-0.858-4.543c-0.063-0.593-0.095-1.122-0.095-1.588
				c0-2.393,0.604-4.336,1.811-5.829c1.303-1.609,3.124-2.414,5.464-2.414c0.498,0,0.979,0.031,1.445,0.095
				c2.859,0.393,4.638,2.901,5.337,7.529L70.34,19.873z"/>
			<path style="fill:#FFFFFF;" d="M75.423,23.241c0.074-2.414,0.672-4.489,1.794-6.227c1.334-2.075,3.119-3.113,5.353-3.113
				c2.36,0,4.065,0.583,5.114,1.747c0.857,0.953,1.529,2.658,2.018,5.115c0.189,0.963,0.285,1.874,0.285,2.731
				c0,1.843-0.455,3.378-1.365,4.606c-1.334,1.8-3.362,2.657-6.083,2.573c-2.5-0.074-4.331-0.71-5.496-1.906
				C75.878,27.572,75.338,25.729,75.423,23.241z M84.763,19.428c-0.742-0.698-1.441-1.048-2.098-1.048
				c-0.805,0-1.546,0.529-2.223,1.588c-0.604,0.943-0.905,1.858-0.905,2.748c0,0.837,0.275,1.694,0.826,2.573
				c0.614,0.984,1.324,1.478,2.128,1.478c0.921,0,1.763-0.482,2.526-1.446c0.73-0.91,1.096-1.837,1.096-2.779
				C86.112,21.525,85.662,20.488,84.763,19.428z"/>
			<path style="fill:#FFFFFF;" d="M89.638,28.847l1.875-4.257c2.393,1.557,4.246,2.335,5.559,2.335c0.466,0,0.916-0.138,1.35-0.413
				c0.488-0.307,0.731-0.683,0.731-1.127c0-0.668-0.89-1.229-2.669-1.685c-2.572-0.656-4.305-2.006-5.193-4.05
				c-0.297-0.678-0.445-1.303-0.445-1.874c0-1.218,0.625-2.282,1.875-3.192c1.069-0.784,2.662-1.176,4.781-1.176
				c1.492,0,3.25,0.196,5.272,0.588l-1.351,4.066c-1.535-0.688-2.779-1.033-3.732-1.033c-0.465,0-0.904,0.102-1.318,0.303
				c-0.508,0.243-0.762,0.572-0.762,0.985c0,0.382,0.339,0.79,1.017,1.225c0.466,0.297,1.376,0.711,2.731,1.24
				c1.145,0.445,1.97,0.891,2.479,1.336c0.74,0.646,1.133,1.517,1.175,2.608c0.074,1.791-0.763,3.419-2.509,4.882
				c-0.742,0.625-1.827,0.938-3.257,0.938C95.329,30.546,92.794,29.981,89.638,28.847z"/>
			<path style="fill:#FFFFFF;" d="M102.948,21.017l-0.127-3.955l2.668-0.238l0.127-6.496l3.908-0.254l-0.381,6.433l3.668-0.334
				l0.254,3.955l-4.098,0.365c-0.01,0.444-0.016,0.868-0.016,1.271c0,3.696,0.482,5.607,1.445,5.734
				c1.059,0.138,1.826-0.673,2.303-2.431l2.796,0.382c-0.19,2.541-0.927,4.14-2.208,4.796c-0.91,0.466-1.99,0.699-3.24,0.699
				c-0.519,0-1.048-0.037-1.588-0.111c-1.938-0.265-2.943-3.61-3.018-10.038L102.948,21.017z"/>
			<path style="fill:#FFFFFF;" d="M120.388,23.304c0.477,1.599,1.488,2.436,3.034,2.51c1.44,0.074,2.414-0.684,2.923-2.271
				l4.447-0.636c-1.134,4.648-3.384,6.973-6.751,6.973c-1.038,0-2.197-0.238-3.479-0.715c-2.372-1.354-3.558-3.96-3.558-7.814
				c0-0.328,0.01-0.693,0.031-1.096c0.233-4.458,2.404-7.047,6.512-7.767c3.896-0.085,6.141,2.624,6.734,8.126L120.388,23.304z
				 M121.603,17.642c-0.588,0.693-0.908,1.532-0.961,2.518l5.957-1.7c-0.689-1.238-1.547-1.858-2.573-1.858
				C122.998,16.601,122.19,16.949,121.603,17.642z"/>
			<path style="fill:#FFFFFF;" d="M134.651,13.504l0.254,1.778c2.064-1.45,3.759-2.176,5.082-2.176c1.229,0,2.14,0.619,2.732,1.858
				c0.9,1.885,1.35,4.982,1.35,9.292c0,1.546-0.058,3.251-0.174,5.114l-4.289,0.143c0.34-2.287,0.509-4.219,0.509-5.797
				c0-1.928-0.255-3.32-0.763-4.178c-0.328-0.55-0.704-0.826-1.127-0.826c-0.816,0-1.812,0.959-2.986,2.875v8.402l-3.876-0.111
				l-0.651-15.74L134.651,13.504z M135.716,8.342c0.539,0,1.037,0.175,1.492,0.523c0.562,0.424,1.133,0.636,1.716,0.636
				c0.911,0,1.874-0.492,2.891-1.478l0.826,2.653c-1.355,1.037-2.515,1.557-3.479,1.557c-0.308,0-0.837-0.215-1.589-0.644
				s-1.238-0.644-1.461-0.644c-0.857,0-1.826,0.551-2.906,1.652l-1.111-2.129C133.438,9.051,134.645,8.342,135.716,8.342z"/>
			<path style="fill:#FFFFFF;" d="M145.134,23.241c0.074-2.414,0.672-4.489,1.795-6.227c1.334-2.075,3.119-3.113,5.354-3.113
				c2.36,0,4.065,0.583,5.113,1.747c0.857,0.953,1.53,2.658,2.018,5.115c0.19,0.963,0.286,1.874,0.286,2.731
				c0,1.843-0.456,3.378-1.366,4.606c-1.334,1.8-3.361,2.657-6.083,2.573c-2.499-0.074-4.331-0.71-5.496-1.906
				S145.05,25.729,145.134,23.241z M154.474,19.428c-0.742-0.698-1.44-1.048-2.097-1.048c-0.806,0-1.546,0.529-2.224,1.588
				c-0.604,0.943-0.905,1.858-0.905,2.748c0,0.837,0.274,1.694,0.825,2.573c0.614,0.984,1.324,1.478,2.129,1.478
				c0.922,0,1.764-0.482,2.525-1.446c0.73-0.91,1.096-1.837,1.096-2.779C155.823,21.525,155.374,20.488,154.474,19.428z"/>
		</g>
	</g>
</g>
</svg>
