<?xml version="1.0" encoding="utf-8"?>
<!-- Generator: Adobe Illustrator 21.0.0, SVG Export Plug-In . SVG Version: 6.00 Build 0)  -->
<svg version="1.1" id="Capa_1" xmlns="http://www.w3.org/2000/svg" xmlns:xlink="http://www.w3.org/1999/xlink" x="0px" y="0px"
	 viewBox="0 0 224 381.383" style="enable-background:new 0 0 224 381.383;" xml:space="preserve">
<g>
	<g>
		<g>
			<rect x="4" y="62.385" style="opacity:0.2;" width="220" height="318.998"/>
			<rect y="58.384" style="fill:#FFFFFF;" width="220" height="318.998"/>
			<rect x="9.04" y="65.184" style="fill:#E6E6E6;" width="201.921" height="304.349"/>
			
				<linearGradient id="SVGID_1_" gradientUnits="userSpaceOnUse" x1="454.6233" y1="1401.0088" x2="700.9329" y2="1401.0088" gradientTransform="matrix(0 1 -1 0 1511.0092 -389.439)">
				<stop  offset="0" style="stop-color:#FFFFFF;stop-opacity:0"/>
				<stop  offset="0.2219" style="stop-color:#FCFCFC;stop-opacity:0.2219"/>
				<stop  offset="0.3578" style="stop-color:#F4F4F4;stop-opacity:0.3578"/>
				<stop  offset="0.4706" style="stop-color:#E6E6E6;stop-opacity:0.4706"/>
				<stop  offset="0.5708" style="stop-color:#D1D1D1;stop-opacity:0.5708"/>
				<stop  offset="0.6626" style="stop-color:#B6B6B6;stop-opacity:0.6626"/>
				<stop  offset="0.7484" style="stop-color:#969696;stop-opacity:0.7484"/>
				<stop  offset="0.8294" style="stop-color:#6F6F6F;stop-opacity:0.8294"/>
				<stop  offset="0.9067" style="stop-color:#424242;stop-opacity:0.9067"/>
				<stop  offset="0.9784" style="stop-color:#101010;stop-opacity:0.9784"/>
				<stop  offset="1" style="stop-color:#000000"/>
			</linearGradient>
			<rect x="9.04" y="65.184" style="opacity:0.2;fill:url(#SVGID_1_);" width="201.921" height="246.31"/>
		</g>
	</g>
	<g>
		<defs>
			<filter id="Adobe_OpacityMaskFilter" filterUnits="userSpaceOnUse" x="50.617" y="340.654" width="104.605" height="27.047">
				<feFlood  style="flood-color:white;flood-opacity:1" result="back"/>
				<feBlend  in="SourceGraphic" in2="back" mode="normal"/>
			</filter>
		</defs>
		<mask maskUnits="userSpaceOnUse" x="50.617" y="340.654" width="104.605" height="27.047" id="XMLID_2_">
		</mask>
		
			<ellipse id="XMLID_107_" transform="matrix(1 -0.0098 0.0098 1 -3.4556 1.0225)" style="opacity:0.5;mask:url(#XMLID_2_);fill:#999999;" cx="102.92" cy="354.178" rx="52.305" ry="13.514"/>
		<g>
			<g>
				<g>
					<g>
						<path style="fill:#C5D9FE;" d="M78.857,228.937c0,0-35.761,35.28,13.5,53.755l0.835-16.38c0,0-26.954-7.441-13.33-25.259
							L78.857,228.937z"/>
					</g>
				</g>
				<g>
					<rect x="84.248" y="280.402" width="39.722" height="4.039"/>
					<path style="fill:#A7A9AC;" d="M106.226,285.089h-4.275c-1.704,0-3.091-1.195-3.091-2.665c0-1.472,1.386-2.67,3.091-2.67h4.275
						c1.704,0,3.09,1.198,3.09,2.67C109.315,283.894,107.929,285.089,106.226,285.089z M101.951,281.051
						c-0.989,0-1.794,0.616-1.794,1.374c0,0.755,0.805,1.368,1.794,1.368h4.275c0.989,0,1.793-0.613,1.793-1.368
						c0-0.758-0.804-1.374-1.793-1.374H101.951z"/>
				</g>
				<g>
					<path style="fill:#F4F4F4;" d="M104.109,292.352c13.621,18.621,6.252,59.681,6.252,59.681
						c8.87-6.331,21.015-3.921,21.015-3.921c-12.21-31.415-7.446-63.672-7.446-63.672H84.248c0,0,4.807,32.256-7.402,63.672
						c0,0,12.144-2.41,21.015,3.921c0,0-7.414-41.059,6.204-59.681"/>
					<path d="M136.683,353.49c0,3.352-3.208,3.555-11.662,3.555c-8.456,0-14.944-0.202-14.944-3.555
						c0-3.35,6.851-6.064,15.304-6.064C133.836,347.426,136.683,350.14,136.683,353.49z"/>
					<path d="M71.878,353.49c0,3.352,3.206,3.555,11.663,3.555c8.451,0,14.943-0.202,14.943-3.555c0-3.35-6.854-6.064-15.31-6.064
						C74.725,347.426,71.878,350.14,71.878,353.49z"/>
				</g>
				<g>
					<path style="fill:#C5D9FE;" d="M78.828,228.838l18.743-4.341h6.792v67.209c0,0-10.216-0.869-14.165-2.736
						c-1.807-0.856-6.324-4.681-6.324-4.681l-3.04-31.766L78.828,228.838z"/>
					<path style="fill:#C5D9FE;" d="M129.292,228.937l-18.138-4.44h-6.791v67.209c0,0,10.092-0.209,14.041-2.078
						c1.809-0.854,6.448-5.339,6.448-5.339l3.04-31.766L129.292,228.937z"/>
					<polygon style="fill:#DB3B26;" points="104.363,219.486 94.488,219.486 96.912,224.431 104.363,224.497 111.815,224.431 
						114.237,219.486 					"/>
					<polygon style="fill:#9D5C4A;" points="100.876,227.523 104.363,229.649 104.363,232.146 99.426,229.346 					"/>
					<polygon style="fill:#9D5C4A;" points="104.363,229.649 107.851,227.523 109.301,229.346 104.363,232.146 					"/>
					<path style="fill:#8AB7FF;" d="M106.832,246.291c-0.805,0-1.455,0.61-1.455,1.362c0,0.752,0.65,1.361,1.455,1.361
						c0.802,0,1.456-0.609,1.456-1.361C108.288,246.9,107.635,246.291,106.832,246.291z M106.316,247.926
						c-0.162,0-0.293-0.123-0.293-0.273c0-0.153,0.131-0.274,0.293-0.274c0.161,0,0.291,0.121,0.291,0.274
						C106.607,247.803,106.477,247.926,106.316,247.926z M107.365,247.939c-0.162,0-0.293-0.122-0.293-0.273
						c0-0.151,0.132-0.274,0.293-0.274c0.16,0,0.292,0.123,0.292,0.274C107.657,247.817,107.525,247.939,107.365,247.939z"/>
					<path style="fill:#8AB7FF;" d="M106.832,258.949c-0.805,0-1.455,0.61-1.455,1.362c0,0.751,0.65,1.362,1.455,1.362
						c0.802,0,1.456-0.61,1.456-1.362C108.288,259.56,107.635,258.949,106.832,258.949z M106.316,260.585
						c-0.162,0-0.293-0.123-0.293-0.274c0-0.151,0.131-0.275,0.293-0.275c0.161,0,0.291,0.124,0.291,0.275
						C106.607,260.463,106.477,260.585,106.316,260.585z M107.365,260.599c-0.162,0-0.293-0.123-0.293-0.274
						c0-0.152,0.132-0.274,0.293-0.274c0.16,0,0.292,0.122,0.292,0.274C107.657,260.476,107.525,260.599,107.365,260.599z"/>
					<path style="fill:#8AB7FF;" d="M106.832,271.608c-0.805,0-1.455,0.61-1.455,1.362c0,0.753,0.65,1.361,1.455,1.361
						c0.802,0,1.456-0.608,1.456-1.361C108.288,272.219,107.635,271.608,106.832,271.608z M106.316,273.244
						c-0.162,0-0.293-0.122-0.293-0.273c0-0.152,0.131-0.274,0.293-0.274c0.161,0,0.291,0.122,0.291,0.274
						C106.607,273.122,106.477,273.244,106.316,273.244z M107.365,273.257c-0.162,0-0.293-0.122-0.293-0.274
						c0-0.15,0.132-0.273,0.293-0.273c0.16,0,0.292,0.123,0.292,0.273C107.657,273.135,107.525,273.257,107.365,273.257z"/>
					<path style="fill:#8AB7FF;" d="M106.832,284.268c-0.805,0-1.455,0.61-1.455,1.361c0,0.751,0.65,1.362,1.455,1.362
						c0.802,0,1.456-0.611,1.456-1.362C108.288,284.878,107.635,284.268,106.832,284.268z M106.316,285.903
						c-0.162,0-0.293-0.122-0.293-0.273c0-0.151,0.131-0.274,0.293-0.274c0.161,0,0.291,0.123,0.291,0.274
						C106.607,285.781,106.477,285.903,106.316,285.903z M107.365,285.917c-0.162,0-0.293-0.123-0.293-0.275
						c0-0.151,0.132-0.274,0.293-0.274c0.16,0,0.292,0.123,0.292,0.274C107.657,285.794,107.525,285.917,107.365,285.917z"/>
					<path style="fill:#EFC392;" d="M95.605,226.49c0,0,0.65,9.019,8.306,9.363c7.653-0.343,8.306-9.363,8.306-9.363H95.605z"/>
					<path style="fill:#C4884D;" d="M95.13,221.992c0,0,0.728,9.019,9.299,9.363c8.569-0.343,9.299-9.363,9.299-9.363H95.13z"/>
					<polygon style="fill:#8AB7FF;" points="94.488,219.486 91.625,226.698 94.488,238.159 100.876,230.122 					"/>
					<polygon style="fill:#8AB7FF;" points="114.237,219.486 117.099,226.698 114.237,238.159 107.851,230.122 					"/>
					<polygon style="fill:#8AB7FF;" points="110.856,232.881 110.124,231.834 103.705,235.617 97.287,231.834 96.555,232.881 
						103.09,236.732 103.09,291.614 104.363,291.706 104.363,236.707 					"/>
				</g>
				<path style="fill:#8AB7FF;" d="M81.356,260.633c0,0,0.216,1.148,0.54,2.869c0.312,1.721,0.681,4.026,1.046,6.331
					c0.34,2.308,0.675,4.617,0.89,6.355c0.204,1.74,0.34,2.898,0.34,2.898s-0.216-1.147-0.54-2.867
					c-0.313-1.723-0.681-4.027-1.046-6.332c-0.34-2.308-0.674-4.617-0.889-6.355C81.493,261.792,81.356,260.633,81.356,260.633z"/>
				<g>
					<path style="fill:#BFBDB8;" d="M72.64,78.221c1.38-3.311,3.31-6.896,7.172-7.726c2.565-0.609,5.079-0.95,7.514-1.379
						c-10.055-1.656-20.802,2.507-22.694,28.157c-1.548,20.98-2.223,33.268-2.223,33.268c0,0.947,0.111,1.861,0.316,2.739
						c0.781-3.869,1.704-7.567,2.193-11.486C67.402,106.903,67.675,92.287,72.64,78.221z"/>
					<path style="fill:#F2EEE3;" d="M141.866,124.828c-1.379-15.717-1.93-31.715-9.928-46.057c-2.805-4.94-7.162-7.361-12.101-8.571
						c-0.57,0.036-1.156,0.079-1.756,0.133c-4.284,0.388-9.405,1.553-15.037,1.553c-5.878,0-10.199-1.795-15.382-2.712
						c-0.113-0.021-0.225-0.039-0.337-0.057c-2.435,0.429-4.949,0.769-7.514,1.379c-3.862,0.829-5.792,4.414-7.172,7.726
						c-4.965,14.066-5.238,28.682-7.723,43.574c-0.488,3.919-1.412,7.617-2.193,11.486c3.207,13.702,30.144,18.945,40.839,18.945
						c8.911,0,30.811-3.468,38.785-13.523C142.43,134.062,142.367,129.428,141.866,124.828z"/>
					<path style="fill:#BFBDB8;" d="M141.164,97.274c-3.773-24.049-8.9-27.861-21.326-27.075c4.939,1.21,9.296,3.631,12.101,8.571
						c7.998,14.342,8.549,30.34,9.928,46.057c0.501,4.599,0.563,9.234,0.483,13.875c1.862-2.346,2.966-5.054,2.966-8.161
						C145.315,130.542,144.191,116.584,141.164,97.274z"/>
					<path d="M103.757,119.871c22.017,0,39.086,6.248,39.086,13.953v-21.848c0-7.709-17.069-13.957-39.086-13.957
						c-22.021,0-40.168,6.248-40.168,13.957l-1.44,21.848C62.149,126.119,81.736,119.871,103.757,119.871z"/>
					<g>
						<ellipse style="fill:#F2EEE3;" cx="106.27" cy="140.264" rx="71.523" ry="36.329"/>
						<ellipse style="fill:#C5AD7F;" cx="106.27" cy="142.615" rx="71.523" ry="36.329"/>
					</g>
				</g>
				<g>
					<g>
						<path style="fill:#EFC392;stroke:#994900;stroke-linecap:round;stroke-linejoin:round;stroke-miterlimit:10;" d="
							M69.302,179.966c0,0-2.68-8.207-7.574-8.207c-4.891,0-2.526,15.935,10.257,24.142L69.302,179.966z"/>
						<path style="fill:#EFC392;stroke:#994900;stroke-linecap:round;stroke-linejoin:round;stroke-miterlimit:10;" d="
							M139.125,179.966c0,0,2.679-8.207,7.574-8.207c4.894,0,2.521,15.935-10.26,24.142L139.125,179.966z"/>
						<path style="fill:#EFC392;stroke:#994900;stroke-linecap:round;stroke-linejoin:round;stroke-miterlimit:10;" d="
							M104.275,122.405c0,0,24.139,0,26.893,0s9.575,4.347,10.282,26.239c1.395,42.913-0.443,54.12-15.817,70.337
							c-7.087,7.473-14.567,10.704-21.358,10.704c-6.602,0-14.275-3.231-21.361-10.704c-15.376-16.217-17.214-27.424-15.82-70.337
							c0.71-21.892,7.529-26.239,10.284-26.239C80.132,122.405,104.275,122.405,104.275,122.405z"/>
						<g>
							<path d="M130.097,159.629c-0.245-0.129-0.675-0.253-1.201-0.453c-0.529-0.194-1.164-0.442-1.911-0.605
								c-1.45-0.444-3.275-0.672-5.057-0.804c-3.599-0.174-7.013,0.571-7.608,0.7c-1.259,0.188-3.038,0.861-4.005-1.035
								c-0.537-0.979,0.439-1.958,1.932-2.599c1.489-0.664,3.488-0.97,4.933-1.055c1.437-0.132,4.582-0.042,7.509,0.712
								c0.727,0.208,1.453,0.385,2.125,0.616c0.667,0.256,1.299,0.498,1.882,0.72c1.121,0.523,2.005,0.987,2.483,1.243
								c0.906,0.622,1.949,1.192,2.617,1.941c0.695,0.714,1.142,1.384,1.058,1.913C134.642,161.994,132.147,160.484,130.097,159.629
								z"/>
						</g>
						<g>
							<path d="M78.019,159.629c0.245-0.129,0.676-0.253,1.201-0.453c0.53-0.194,1.166-0.442,1.911-0.605
								c1.451-0.444,3.277-0.672,5.057-0.804c3.6-0.174,7.014,0.571,7.61,0.7c1.256,0.188,3.038,0.861,4.005-1.035
								c0.537-0.979-0.439-1.958-1.932-2.599c-1.492-0.664-3.488-0.97-4.933-1.055c-1.44-0.132-4.584-0.042-7.512,0.712
								c-0.726,0.208-1.453,0.385-2.123,0.616c-0.668,0.256-1.301,0.498-1.882,0.72c-1.122,0.523-2.007,0.987-2.485,1.243
								c-0.904,0.622-1.948,1.192-2.617,1.941c-0.695,0.714-1.142,1.384-1.058,1.913C73.476,161.994,75.969,160.484,78.019,159.629z
								"/>
						</g>
						<g id="XMLID_6_">
							<g id="XMLID_53_">
								<path id="XMLID_105_" style="fill:#FFFFFF;" d="M84.291,164.107c-11.293,2.988-10.801,19.109,1.468,19.077
									C98.027,183.152,97.431,160.63,84.291,164.107z"/>
								
									<ellipse id="XMLID_104_" transform="matrix(0.0209 -0.9998 0.9998 0.0209 -89.4817 255.3866)" cx="85.652" cy="173.38" rx="6.031" ry="4.774"/>
								
									<ellipse id="XMLID_71_" transform="matrix(0.0209 -0.9998 0.9998 0.0209 -88.732 250.0223)" style="fill:#FFFFFF;" cx="83.286" cy="170.314" rx="2.848" ry="2.848"/>
								
									<ellipse id="XMLID_70_" transform="matrix(0.0209 -0.9998 0.9998 0.0209 -90.44 259.5026)" style="fill:#FFFFFF;" cx="87.274" cy="175.927" rx="1.089" ry="1.089"/>
							</g>
							<g id="XMLID_7_">
								<path id="XMLID_54_" style="fill:#FFFFFF;" d="M124.014,164.197c11.158,3.457,9.992,19.544-2.264,18.999
									C109.494,182.651,111.031,160.174,124.014,164.197z"/>
								
									<ellipse id="XMLID_52_" transform="matrix(0.0209 -0.9998 0.9998 0.0209 -53.1772 292.5312)" cx="122.769" cy="173.416" rx="6.031" ry="4.774"/>
								
									<ellipse id="XMLID_13_" transform="matrix(0.0209 -0.9998 0.9998 0.0209 -52.4271 287.1668)" style="fill:#FFFFFF;" cx="120.403" cy="170.351" rx="2.848" ry="2.848"/>
								
									<ellipse id="XMLID_12_" transform="matrix(0.0209 -0.9998 0.9998 0.0209 -54.1355 296.6471)" style="fill:#FFFFFF;" cx="124.391" cy="175.963" rx="1.089" ry="1.089"/>
							</g>
						</g>
						<g>
							<path id="XMLID_5_" style="fill:#C4884D;" d="M99.089,194.417c0.599-0.795,2.388,1.372,5.12,1.55
								c2.732,0.178,3.935-2.723,5.129-2.037c1.194,0.686-1.207,4.437-5.306,4.769C99.931,199.03,98.575,195.099,99.089,194.417z"/>
							<g>
								<path d="M120.427,202.78c0,0-0.548,8.427-6.872,12.925c-2.295,1.634-5.355,2.744-9.427,2.744
									c-4.067,0-7.118-1.107-9.415-2.738c-6.324-4.496-6.878-12.931-6.878-12.931H120.427z"/>
								<path style="fill:#FFFFFF;" d="M90.293,202.78h27.877c0,0,0.922,3.21-13.939,3.21S90.293,202.78,90.293,202.78z"/>
								<path style="fill:#FFFFFF;" d="M113.555,215.705c-2.295,1.634-5.355,2.744-9.427,2.744c-4.067,0-7.118-1.107-9.415-2.738
									C96.963,215.345,104.22,214.417,113.555,215.705z"/>
							</g>
						</g>
					</g>
					<path d="M104.06,106.697c-26.553,0-48.056,9.301-48.056,39.8c0,9.086,1.922,15.052,5.307,22.612
						c3.041,5.986,5.586,9.574,5.586,9.574s-0.707-41.405,2.772-44.645c1.662-1.544,17.496,2.647,34.391,2.647
						c18.927,0,33.553-3.7,34.946-1.797c2.665,3.639,3.188,24.533,2.098,43.796c0.379-0.37,0.742-0.755,1.097-1.146
						c6.24-9.316,9.96-18.376,9.96-31.04C152.16,115.998,130.613,106.697,104.06,106.697z"/>
					<g>
						<path d="M66.896,178.683c-1.998-11.921-5.266-31.781-4.475-42.205c0.491-6.479,2.26-18.591,11.214-13.888
							c-0.191-3.467,1.111-9.701,4.454-11.273c-1.113,1.74-1.115,5.203,0,7.806c3.715-5.636,9-9.535,14.569-10.839
							c10.395-2.597,38.898-1.981,46.7,17.755c4.465,11.293,3.921,39.017,1.746,52.644c0,0-0.298-39.642-19.004-37.665
							c0,0,2.044,7.184,4.769,11.577c0,0-9.272-2.449-17.495-8.91c0.436,2.395,3.894,6.713,12.919,11.109
							c-12.982-0.209-35.77-3.605-44.308-11.845C68.582,143.576,66.896,178.683,66.896,178.683z"/>
					</g>
				</g>
				<path style="fill:#C5AD7F;" d="M54.8,133.509c0,0,54.307-29.355,100.073,2.349c0,0-0.374-25.36-44.239-28.942
					C72.466,103.8,55.8,119.226,54.8,133.509z"/>
				<g>
					<path style="fill:#FBF4D3;" d="M80.426,229.764c0,0,0.906,0.107,1.632,15.205c0.726,15.097-1.523,35.72,1.481,31.306
						s0.277,0.404,3.264,0c2.987-0.404,1.938-6.486,3.317-3.209c1.379,3.277,2.219,3.8,2.91,0s-0.017,4.557,1.447,3.209
						s2.766-10.417,1.09-18.385c-1.676-7.968-4.249-17.44-4.218-23.936c0,0,0.636-9.069-1.629-8.935
						C87.454,225.154,77.043,226.747,80.426,229.764z"/>
					<g>
						<path style="fill:#C6B28F;" d="M83.677,237.183c-0.282,0.026-0.121,7.974,0.361,17.751c0.482,9.777,1.101,17.682,1.383,17.655
							c0.282-0.027,0.121-7.974-0.361-17.751C84.579,245.061,83.96,237.157,83.677,237.183z"/>
						<path style="fill:#C6B28F;" d="M92.66,258.396c-0.647-6.575-1.354-11.872-1.579-11.829c-0.225,0.042,0.117,5.407,0.764,11.982
							s1.354,11.872,1.579,11.829C93.649,270.336,93.307,264.971,92.66,258.396z"/>
						<path style="fill:#C6B28F;" d="M87.464,245.903c-0.227,0.021-0.146,5.405,0.18,12.026c0.326,6.621,0.774,11.97,1.001,11.949
							s0.146-5.405-0.18-12.026C88.139,251.232,87.691,245.882,87.464,245.903z"/>
					</g>
				</g>
				<polygon points="123.515,227.523 84.548,286.991 88.774,289.321 127.798,228.571 				"/>
				<g>
					<path d="M75.817,275.007l28.812,15.696c0,0-9.207,20.974-25.324,12.194S75.817,275.007,75.817,275.007z"/>
					<path style="fill:#A67C52;" d="M79.982,301.654c-4.044-2.203-6.489-5.287-7.266-9.166c-1.255-6.257,2.051-13.038,3.517-15.643
						l26.626,14.506c-1.4,2.648-5.322,9.117-11.247,11.443C87.934,304.238,84.021,303.855,79.982,301.654z"/>
					<path d="M75.817,275.007l-4.43,8.132c-0.684,1.255-0.216,2.842,1.039,3.525l9.832,5.357l-4.623,8.487l0.426,4.671l4.21-2.146
						l4.623-8.487l9.832,5.357c1.255,0.684,2.842,0.216,3.525-1.039l4.43-8.132L75.817,275.007z"/>
					<path style="fill:#A67C52;" d="M78.965,300.783l5.056-9.281l-10.973-5.978c-0.629-0.343-0.862-1.133-0.519-1.763l3.809-6.991
						l26.582,14.482l-3.809,6.991c-0.343,0.63-1.134,0.862-1.763,0.519l-10.973-5.978l-5.053,9.275l-2.142,1.092L78.965,300.783z"/>
					
						<rect x="73.968" y="283.877" transform="matrix(0.8781 0.4784 -0.4784 0.8781 147.19 -7.9005)" style="fill:#FCEE21;" width="30.271" height="2.195"/>
					
						<rect x="73.18" y="285.871" transform="matrix(0.8781 0.4784 -0.4784 0.8781 147.7857 -7.3475)" style="fill:#0071BC;" width="30.271" height="1.098"/>
					
						<rect x="72.655" y="286.835" transform="matrix(0.8781 0.4784 -0.4784 0.8781 148.1828 -6.9788)" style="fill:#C1272D;" width="30.271" height="1.098"/>
					
						<rect x="78.957" y="295.152" transform="matrix(0.8781 0.4784 -0.4784 0.8781 151.9258 -3.4839)" width="7.688" height="2.653"/>
				</g>
				<g>
					<path style="fill:#C5D9FE;" d="M129.292,228.937l-0.68,11.45c0,0,11.873,25.888,31.768,34.047l-0.627-22.632
						C142.384,253.624,129.818,229.778,129.292,228.937z"/>
					<polygon style="fill:#8AB7FF;" points="162.481,275.491 157.293,273.095 157.293,251.982 163.865,251.473 					"/>
					<g>
						<path style="fill:#EFC392;stroke:#994900;stroke-linecap:round;stroke-linejoin:round;stroke-miterlimit:10;" d="
							M159.571,249.83c2.9-3.659,6.657-15.626,8.252-21.307c2.798-10.001,8.89-2.762,8.89-2.762s6.491,6.84-0.908,14.2
							c0,0-4.129,3.625,0.36,3.085c4.491-0.54,15.991-2.264,16.427,4.373c0,0,0.219,2.947-1.423,4.528c0,0-0.503,0.824,0.239,1.479
							c2.351,2.07,2.022,5.805-0.413,6.969c0,0-0.878,0.473-0.037,1.294c0.818,0.801,3.063,4.311-1.164,6.933
							c0,0-0.711,0.411,0,1.066c0.703,0.647,4.264,4.385-1.161,6.93c0,0-4.317,1.344-12.395,0.953c0,0-12.698,0.287-15.941-2.512
							c-2.368-2.039-1.477-7.883-0.821-10.901c0.245-1.119,0.158-2.647-0.174-3.864C158.527,257.469,157.543,252.389,159.571,249.83
							z"/>
						<path style="fill:#FBCC97;" d="M174.381,240.642c0.022,0.003,0.048,0.014,0.065,0.017l0.003-0.011L174.381,240.642z"/>
						<path style="fill:#FBCC97;" d="M174.448,240.648l0.028,0.006C174.479,240.355,174.46,240.501,174.448,240.648z"/>
						<g>
							<path style="fill:#EFC392;stroke:#994900;stroke-linecap:round;stroke-linejoin:round;stroke-miterlimit:10;" d="
								M171.826,277.142c-0.006-0.008-0.006-0.008-0.006-0.008c-4.823-2.905-0.828-5.859-0.114-6.463
								c0.723-0.61,0.053-1.066,0.053-1.066c-3.921-2.841-1.553-6.227-0.712-6.975c0.852-0.782,0.034-1.294,0.034-1.294
								c-2.281-1.297-2.385-5.043,0.006-6.983c0.759-0.613,0.318-1.468,0.318-1.468c-1.496-1.668-1.409-4.418-1.409-4.418
								c0.301-2.466,1.55-4.203,4.062-4.895c2.491-0.676-0.742-0.047-0.77-0.039c-2.557,0.707-3.824,2.418-4.125,4.856
								c0,0-0.079,2.75,1.474,4.424c0,0,0.461,0.858-0.326,1.468c-2.464,1.932-2.343,5.678,0.017,6.983c0,0,0.852,0.518-0.025,1.294
								c-0.869,0.748-3.31,4.126,0.759,6.983c0,0,0.692,0.456-0.053,1.063c-0.74,0.605-4.83,3.547,0.173,6.469c0,0,0,0,0.003,0.008
								C171.291,277.12,171.918,277.175,171.826,277.142z"/>
							<path style="fill:#C4884D;" d="M191.515,274.028c0.004-0.031,0-0.06,0.003-0.091
								C191.516,273.968,191.519,273.997,191.515,274.028z"/>
						</g>
						<path style="fill:#EFC392;stroke:#994900;stroke-linecap:round;stroke-linejoin:round;stroke-miterlimit:10;" d="
							M190.059,252.918c0,0-4.692,1.173-18.527,0.475L190.059,252.918z"/>
						<path style="fill:#EFC392;stroke:#994900;stroke-linecap:round;stroke-linejoin:round;stroke-miterlimit:10;" d="
							M171.425,261.839c0,0,10.888,0.692,18.246-0.526L171.425,261.839z"/>
						<path style="fill:#EFC392;stroke:#994900;stroke-linecap:round;stroke-linejoin:round;stroke-miterlimit:10;" d="
							M172.041,270.091l16.535-0.658C188.576,269.433,180.658,270.62,172.041,270.091z"/>
						<path style="fill:#EFC392;stroke:#994900;stroke-linecap:round;stroke-linejoin:round;stroke-miterlimit:10;" d="
							M170.68,262.019c0,0-3.206,1.412-9.79,0.638C160.89,262.658,168.787,262.236,170.68,262.019z"/>
					</g>
				</g>
			</g>
		</g>
	</g>
	<g>
		<path style="opacity:0.2;fill-rule:evenodd;clip-rule:evenodd;" d="M34.088,56.886h61.499l1.932,3.345l0.009-0.005l7.556,13.087
			l4.624,8.011l4.614-7.989l7.566-13.103v-0.022l1.919-3.323h62.104c3.07,0,5.858-1.253,7.874-3.269
			c2.016-2.016,3.269-4.805,3.269-7.874V14.803c0-3.069-1.253-5.858-3.269-7.874s-4.804-3.269-7.874-3.269H34.088
			c-3.07,0-5.858,1.253-7.874,3.269s-3.269,4.805-3.269,7.874v30.941c0,3.069,1.253,5.858,3.269,7.874h0.02
			C28.254,55.635,31.035,56.886,34.088,56.886L34.088,56.886z M98.662,46.184H34.088c-0.124,0-0.237-0.049-0.318-0.123l0.01-0.01
			c-0.081-0.081-0.133-0.191-0.133-0.308V14.803c0-0.116,0.052-0.227,0.133-0.308c0.08-0.081,0.191-0.133,0.308-0.133h151.824
			c0.116,0,0.227,0.052,0.308,0.133c0.081,0.08,0.133,0.191,0.133,0.308v30.941c0,0.116-0.052,0.227-0.133,0.308
			c-0.08,0.081-0.191,0.133-0.308,0.133h-65.167h-3.063l-1.556,2.697l-3.467,6.003l-0.009-0.005l-2.953,5.113l-2.939-5.091v-0.022
			l-3.477-6.02l-1.545-2.675H98.662z"/>
		<path style="fill-rule:evenodd;clip-rule:evenodd;fill:#FFFFFF;" d="M34.088,53.225h61.499l1.932,3.345l0.009-0.005l7.556,13.087
			l4.624,8.011l4.614-7.988l7.566-13.103v-0.022l1.919-3.323h62.104c3.07,0,5.858-1.253,7.874-3.269
			c2.016-2.016,3.269-4.805,3.269-7.874V11.142c0-3.069-1.253-5.858-3.269-7.874S188.982,0,185.912,0H34.088
			c-3.07,0-5.858,1.253-7.874,3.269s-3.269,4.805-3.269,7.874v30.941c0,3.069,1.253,5.858,3.269,7.874h0.02
			C28.254,51.974,31.035,53.225,34.088,53.225L34.088,53.225z M98.662,42.524H34.088c-0.124,0-0.237-0.049-0.318-0.123l0.01-0.01
			c-0.081-0.081-0.133-0.191-0.133-0.308V11.142c0-0.116,0.052-0.227,0.133-0.308c0.08-0.081,0.191-0.133,0.308-0.133h151.824
			c0.116,0,0.227,0.052,0.308,0.133c0.081,0.081,0.133,0.191,0.133,0.308v30.941c0,0.116-0.052,0.227-0.133,0.308
			c-0.08,0.081-0.191,0.133-0.308,0.133h-65.167h-3.063l-1.556,2.697l-3.467,6.003l-0.009-0.005l-2.953,5.114l-2.939-5.092v-0.022
			l-3.477-6.02l-1.545-2.675H98.662z"/>
		<path style="fill-rule:evenodd;clip-rule:evenodd;fill:#C12564;" d="M34.088,46.186h64.574l3.477,6.02l7.565,13.105l7.565-13.105
			l3.476-6.02h65.167c3.185,0,5.791-2.606,5.791-5.791V9.452c0-3.185-2.606-5.79-5.791-5.79H34.088c-3.185,0-5.791,2.605-5.791,5.79
			v30.942C28.297,43.578,30.903,46.186,34.088,46.186z"/>
		<path style="fill-rule:evenodd;clip-rule:evenodd;fill:#E6E6E6;" d="M97.519,56.571L97.519,56.571L97.519,56.571z M109.709,70.153
			L98.05,50.501H34.088c-3.053,0-5.834-1.251-7.853-3.269h-0.02c-2.016-2.016-3.269-4.805-3.269-7.874v2.725
			c0,3.069,1.253,5.858,3.269,7.874h0.02c2.02,2.017,4.8,3.269,7.853,3.269h61.499l1.941,3.34l7.556,13.087l4.624,8.011l4.614-7.988
			l7.566-13.103v-0.022l1.919-3.323h62.104c3.07,0,5.858-1.253,7.874-3.269c2.016-2.016,3.269-4.805,3.269-7.874v-2.725
			c0,3.069-1.253,5.858-3.269,7.874c-2.016,2.016-4.804,3.269-7.874,3.269h-64.848L109.709,70.153z"/>
		<path style="fill-rule:evenodd;clip-rule:evenodd;fill:#5D1230;" d="M98.662,38.725H34.088c-0.147,0-0.295-0.005-0.441-0.017
			c-2.981-0.227-5.351-2.738-5.351-5.775v7.46c0,3.037,2.37,5.547,5.351,5.775c0.145,0.011,0.292,0.017,0.441,0.017h64.574
			l0.691,1.195l2.786,4.825l7.565,13.105l7.565-13.105l2.786-4.825l0.69-1.195h65.167c0.148,0,0.295-0.005,0.441-0.017
			c2.981-0.227,5.351-2.738,5.351-5.775v-7.46c0,3.037-2.37,5.547-5.351,5.775c-0.145,0.011-0.294,0.017-0.441,0.017h-65.167
			l-2.193,3.798l-1.283,2.221l-7.565,13.105l-7.565-13.105l-1.283-2.221L98.662,38.725z"/>
		<path style="fill-rule:evenodd;clip-rule:evenodd;fill:#E26A9A;" d="M98.662,37.036H34.088c-0.147,0-0.295-0.005-0.441-0.017
			c-2.981-0.227-5.351-2.738-5.351-5.775v1.689c0,3.037,2.37,5.547,5.351,5.775l0.441,0.017h64.574l2.193,3.798l1.283,2.221
			l7.565,13.105l7.565-13.105l1.283-2.221l2.193-3.798h65.167l0.441-0.017c2.981-0.227,5.351-2.738,5.351-5.775v-1.689
			c0,3.037-2.37,5.547-5.351,5.775c-0.145,0.011-0.294,0.017-0.441,0.017h-65.167l-3.476,6.02l-7.565,13.105l-7.565-13.105
			L98.662,37.036z"/>
		<path style="fill-rule:evenodd;clip-rule:evenodd;fill:#DA3F7E;" d="M28.297,14.362c0-3.185,2.606-5.79,5.791-5.79h151.824
			c3.185,0,5.791,2.605,5.791,5.79v-4.91c0-1.38-0.489-2.652-1.302-3.649c-1.065-1.305-2.684-2.141-4.489-2.141H34.088
			c-1.805,0-3.424,0.836-4.489,2.141c-0.813,0.997-1.302,2.269-1.302,3.649V14.362z"/>
		<path style="fill-rule:evenodd;clip-rule:evenodd;fill:#961D4E;" d="M185.912,29.887H34.088c-0.148,0-0.295-0.005-0.441-0.017
			c-2.981-0.227-5.351-2.736-5.351-5.773v7.148c0,3.037,2.37,5.547,5.351,5.775l0.441,0.017h64.574l3.477,6.02l7.565,13.105
			l7.565-13.105l3.476-6.02h65.167l0.441-0.017c2.981-0.227,5.351-2.738,5.351-5.775v-7.148c0,3.038-2.37,5.546-5.351,5.773
			C186.207,29.882,186.06,29.887,185.912,29.887z"/>
	</g>
	<g>
		<g>
			<path style="fill:#FFFFFF;" d="M84.135,11.725c3.483,0,5.781,1.286,6.894,3.859c0.296,0.688,0.444,1.335,0.444,1.938
				c0,2.478-2.414,4.404-7.243,5.781l-0.254,7.48l-4.066-0.127l0.381-18.504C81.699,11.867,82.98,11.725,84.135,11.725z
				 M87.343,17.061c-0.042-0.614-0.953-1.122-2.731-1.524l-0.128,3.558C86.433,18.353,87.386,17.676,87.343,17.061z"/>
			<path style="fill:#FFFFFF;" d="M96.714,13.313c0.71-0.159,1.403-0.238,2.081-0.238c3.282,0,5.396,1.704,6.337,5.114
				c0.488,1.769,0.705,3.802,0.652,6.099l-0.127,5.448l-4.114,0.254l-0.032-0.746c-5.167-0.18-7.861-1.451-8.084-3.813
				c-0.032-0.339-0.048-0.587-0.048-0.746c0-1.927,0.772-3.135,2.319-3.621c0.772-0.244,1.54-0.365,2.303-0.365
				c1.017,0,2.055,0.206,3.113,0.619c-0.011-1.821-0.032-2.785-0.064-2.891c-0.211-0.73-0.916-1.144-2.111-1.239
				c-1.018-0.085-1.991,0.763-2.923,2.541l-4.066-0.635C93.05,15.706,94.639,13.779,96.714,13.313z M99.35,23.526
				c-1.111,0-1.693,0.291-1.746,0.873c-0.086,0.848,1.164,1.535,3.748,2.065l-0.111-2.748C100.5,23.59,99.87,23.526,99.35,23.526z"
				/>
			<path style="fill:#FFFFFF;" d="M109.183,11.82c0.232,0,0.445,0.031,0.635,0.095c0.891,0.297,1.473,0.848,1.748,1.652
				c0.084,0.243,0.127,0.487,0.127,0.73c0,0.54-0.217,1.075-0.651,1.604c-0.625,0.762-1.345,1.106-2.16,1.032
				s-1.478-0.514-1.985-1.318c-0.232-0.371-0.35-0.747-0.35-1.128c0-0.487,0.17-1.001,0.508-1.541
				C107.774,12.196,108.483,11.82,109.183,11.82z M111.597,18.586c-0.169,3.929-0.381,7.825-0.635,11.69l-4.066,0.381
				c0.148-1.651,0.223-3.33,0.223-5.035c0-2.117-0.117-4.267-0.35-6.448L111.597,18.586z"/>
			<path style="fill:#FFFFFF;" d="M111.724,28.847l1.875-4.257c2.393,1.557,4.246,2.335,5.559,2.335c0.466,0,0.916-0.138,1.35-0.413
				c0.488-0.307,0.731-0.683,0.731-1.127c0-0.668-0.89-1.229-2.669-1.685c-2.572-0.656-4.305-2.006-5.193-4.05
				c-0.297-0.678-0.445-1.303-0.445-1.874c0-1.218,0.625-2.282,1.875-3.192c1.069-0.784,2.662-1.176,4.781-1.176
				c1.492,0,3.25,0.196,5.272,0.588l-1.351,4.066c-1.535-0.688-2.779-1.033-3.732-1.033c-0.465,0-0.904,0.102-1.318,0.303
				c-0.508,0.243-0.762,0.572-0.762,0.985c0,0.382,0.339,0.79,1.017,1.225c0.466,0.297,1.376,0.711,2.731,1.24
				c1.145,0.445,1.97,0.891,2.479,1.336c0.74,0.646,1.133,1.517,1.175,2.608c0.074,1.791-0.763,3.419-2.509,4.882
				c-0.742,0.625-1.827,0.938-3.257,0.938C117.415,30.546,114.88,29.98,111.724,28.847z"/>
			<path style="fill:#FFFFFF;" d="M130.308,13.313c0.709-0.159,1.402-0.238,2.08-0.238c3.283,0,5.396,1.704,6.338,5.114
				c0.487,1.769,0.704,3.802,0.651,6.099l-0.127,5.448l-4.114,0.254l-0.031-0.746c-5.168-0.18-7.862-1.451-8.085-3.813
				c-0.032-0.339-0.048-0.587-0.048-0.746c0-1.927,0.773-3.135,2.319-3.621c0.772-0.244,1.54-0.365,2.304-0.365
				c1.016,0,2.054,0.206,3.113,0.619c-0.012-1.821-0.033-2.785-0.064-2.891c-0.212-0.73-0.916-1.144-2.112-1.239
				c-1.017-0.085-1.991,0.763-2.923,2.541l-4.066-0.635C126.643,15.706,128.231,13.779,130.308,13.313z M132.944,23.526
				c-1.111,0-1.694,0.291-1.747,0.873c-0.085,0.848,1.165,1.535,3.748,2.065l-0.11-2.748
				C134.093,23.59,133.463,23.526,132.944,23.526z"/>
		</g>
	</g>
</g>
</svg>
