<?xml version="1.0" encoding="utf-8"?>
<!-- Generator: Adobe Illustrator 21.0.0, SVG Export Plug-In . SVG Version: 6.00 Build 0)  -->
<svg version="1.1" id="Capa_1" xmlns="http://www.w3.org/2000/svg" xmlns:xlink="http://www.w3.org/1999/xlink" x="0px" y="0px"
	 viewBox="0 0 300 61.34" style="enable-background:new 0 0 300 61.34;" xml:space="preserve">
<style type="text/css">
	.st0{opacity:0.2;fill-rule:evenodd;clip-rule:evenodd;}
	.st1{fill-rule:evenodd;clip-rule:evenodd;fill:#FFFFFF;}
	.st2{fill-rule:evenodd;clip-rule:evenodd;fill:#FEC31D;}
	.st3{fill-rule:evenodd;clip-rule:evenodd;fill:#C96900;}
	.st4{fill-rule:evenodd;clip-rule:evenodd;fill:#FFAC04;}
	.st5{fill-rule:evenodd;clip-rule:evenodd;fill:#FFD30E;}
	.st6{fill-rule:evenodd;clip-rule:evenodd;fill:#FFEF91;}
	.st7{fill-rule:evenodd;clip-rule:evenodd;fill:#FEE147;}
	.st8{fill-rule:evenodd;clip-rule:evenodd;fill:#E6E6E6;}
	.st9{fill:#FFFFFF;}
	.st10{fill:#C96900;}
</style>
<g>
	<g>
		<path class="st0" d="M7.756,8.636c-10.316,8.28-10.349,38.26-0.05,46.553c10.184,8.202,274.404,8.2,284.586,0
			c10.298-8.294,10.267-38.273-0.05-46.553C281.828,0.279,18.17,0.279,7.756,8.636z"/>
		<path class="st1" d="M7.756,6.268c-10.316,8.28-10.349,38.26-0.05,46.553c10.184,8.202,274.404,8.2,284.586,0
			c10.298-8.294,10.267-38.273-0.05-46.553C281.828-2.089,18.17-2.089,7.756,6.268z"/>
		<path class="st2" d="M10.421,6.982c-9.346,7.504-9.375,34.664-0.044,42.178c9.227,7.431,270.021,7.431,279.246,0
			c9.331-7.513,9.302-34.674-0.044-42.178C280.143-0.589,19.857-0.589,10.421,6.982z"/>
		<path class="st3" d="M289.623,43.482c-9.227,7.43-270.02,7.43-279.246,0c-4.146-3.339-6.445-10.557-6.9-18.204
			c-0.565,9.534,1.733,19.723,6.9,23.882c9.225,7.431,270.021,7.431,279.246,0c5.167-4.16,7.465-14.348,6.898-23.882
			C296.069,32.925,293.769,40.143,289.623,43.482z"/>
		<path class="st4" d="M7.432,40.013c0.847,1.392,1.83,2.571,2.945,3.469c9.227,7.43,270.02,7.43,279.246,0
			c3.559-2.868,5.76-8.597,6.597-15.002C278.904,38.739,30.754,42.499,7.432,40.013z"/>
		<path class="st5" d="M10.421,6.982c-2.8,2.248-4.767,6.264-5.893,10.986C20.706,4.404,280.91,2.239,294.644,15.078
			c-1.166-3.451-2.857-6.322-5.064-8.095C280.143-0.591,19.855-0.591,10.421,6.982z"/>
		<path class="st6" d="M17.788,5.17c-3.972,0.908-7.19,3.118-7.19,4.934s3.218,2.553,7.19,1.645c3.97-0.908,7.188-3.118,7.188-4.935
			C24.976,4.999,21.758,4.262,17.788,5.17z"/>
		<path class="st6" d="M29.703,3.881c-2.239,0.112-4.263,0.985-4.522,1.951c-0.262,0.965,1.342,1.655,3.581,1.541
			C31,7.26,33.024,6.388,33.285,5.422C33.543,4.459,31.94,3.768,29.703,3.881z"/>
		<path class="st7" d="M284.876,39.402c-2.507,0.982-4.323,2.758-4.059,3.966c0.266,1.208,2.512,1.392,5.02,0.411
			c2.509-0.982,4.325-2.757,4.059-3.966C289.632,38.605,287.382,38.421,284.876,39.402z"/>
		<path class="st7" d="M296.221,28.48c-0.838,6.405-3.038,12.133-6.597,15.002c-9.227,7.43-270.02,7.43-279.246,0
			c-1.115-0.898-2.098-2.077-2.945-3.469c-2.305-3.784-3.623-9.144-3.955-14.735c-0.066,1.112-0.092,2.234-0.081,3.353
			c0.009-0.772,0.035-1.544,0.081-2.312c0.455,7.649,2.754,14.866,6.9,18.204c9.227,7.43,270.02,7.43,279.246,0
			c4.146-3.338,6.445-10.555,6.898-18.204c0.046,0.768,0.073,1.541,0.083,2.316c0.011-1.121-0.017-2.245-0.083-3.358
			C296.459,26.356,296.358,27.427,296.221,28.48z"/>
		<path class="st8" d="M7.707,51.544c-5.026-4.046-7.591-13.256-7.703-22.588c-0.118,9.758,2.45,19.634,7.703,23.865
			c10.184,8.2,274.4,8.2,284.586,0c5.252-4.23,7.82-14.107,7.703-23.865c-0.112,9.332-2.679,18.543-7.703,22.588
			C282.111,59.745,17.889,59.745,7.707,51.544z"/>
	</g>
	<g>
		<path class="st9" d="M45.106,11.725l0.023,7.258l-10.37-0.18v3.787h8.814l-0.181,5.771L34.76,28.18v3.606h9.49l-0.157,7.033
			l-15.555-0.226l0.587-27.072L45.106,11.725z"/>
		<path class="st9" d="M51.577,14.654l0.36,2.525c2.931-2.059,5.335-3.089,7.214-3.089c1.743,0,3.035,0.88,3.877,2.638
			c1.277,2.675,1.916,7.07,1.916,13.188c0,2.194-0.083,4.613-0.248,7.258l-6.086,0.203c0.48-3.246,0.721-5.988,0.721-8.228
			c0-2.735-0.36-4.712-1.082-5.929c-0.466-0.781-0.999-1.172-1.601-1.172c-1.157,0-2.569,1.359-4.237,4.08v11.925l-5.501-0.158
			l-0.924-22.339L51.577,14.654z"/>
		<path class="st9" d="M64.899,25.317l-0.181-5.613l3.787-0.338l0.181-9.22l5.545-0.361l-0.541,9.13l5.207-0.474l0.361,5.613
			l-5.816,0.519c-0.015,0.631-0.022,1.232-0.022,1.804c0,5.244,0.684,7.957,2.052,8.137c1.502,0.196,2.592-0.954,3.269-3.448
			l3.967,0.541c-0.271,3.606-1.314,5.876-3.133,6.808c-1.293,0.661-2.826,0.991-4.599,0.991c-0.736,0-1.488-0.053-2.254-0.157
			c-2.751-0.376-4.179-5.125-4.283-14.247L64.899,25.317z"/>
		<path class="st9" d="M84.307,38.437c0.045-9.143-0.188-16.446-0.698-21.911l6.312-0.519l-0.203,2.052
			c3.096-1.924,6.252-2.833,9.468-2.728l0.608,5.455c-3.696,0-6.297,0.766-7.799,2.297c-1.037,1.065-1.556,3.774-1.556,8.127
			c0,1.98,0.104,4.314,0.315,7.001L84.307,38.437z"/>
		<path class="st9" d="M106.466,28.563c0.676,2.27,2.111,3.457,4.306,3.563c2.043,0.105,3.426-0.97,4.147-3.224l6.312-0.902
			c-1.607,6.598-4.801,9.896-9.58,9.896c-1.473,0-3.118-0.338-4.937-1.015c-3.366-1.923-5.05-5.62-5.05-11.091
			c0-0.465,0.015-0.983,0.045-1.555c0.331-6.327,3.411-10.001,9.241-11.023c5.529-0.12,8.715,3.724,9.557,11.532L106.466,28.563z
			 M108.19,20.526c-0.834,0.985-1.289,2.176-1.364,3.573l8.453-2.411c-0.977-1.759-2.194-2.638-3.651-2.638
			C110.17,19.051,109.024,19.543,108.19,20.526z"/>
		<path class="st9" d="M140.55,33.207c0.706,1.548,1.06,2.765,1.06,3.651c0,0.947-0.662,2.021-1.984,3.224
			c-1.908,1.743-5.102,2.539-9.58,2.39c-4.463-0.136-7.025-1.232-7.687-3.291c-0.211-0.646-0.316-1.24-0.316-1.781
			c0-1.247,0.526-2.299,1.578-3.156c-0.466-1.111-0.698-2.313-0.698-3.606c0-1.277,0.796-2.427,2.39-3.449
			c-1.939-1.518-2.908-3.298-2.908-5.342c0-0.586,0.09-1.218,0.271-1.894c0.751-2.855,2.683-4.696,5.793-5.522
			c1.292-0.346,2.494-0.519,3.606-0.519c1.608,0,3.044,0.346,4.306,1.036c0.496-1.036,1.225-1.87,2.187-2.502l4.171,3.652
			c-1.623,0.33-2.607,1.052-2.953,2.164c0.946,0.991,1.359,2.6,1.239,4.823c-0.12,2.24-1.074,3.938-2.862,5.095
			c-1.293,0.842-3.119,1.263-5.478,1.263c-0.917,0-1.916-0.061-2.998-0.181c-1.338,0.391-2.007,0.925-2.007,1.601
			c0,0.226,0.075,0.466,0.226,0.722c2.66-0.677,4.981-1.007,6.966-0.992C137.874,30.608,139.768,31.479,140.55,33.207z
			 M136.808,35.935c-0.226-0.872-0.887-1.308-1.983-1.308c-0.512,0-1.496,0.112-2.953,0.338c-3.006,0.466-4.486,1.127-4.441,1.983
			c0.03,0.691,1.112,1.037,3.246,1.037c0.391,0,0.954-0.022,1.691-0.067c2.975-0.181,4.463-0.751,4.463-1.713
			C136.83,36.114,136.822,36.025,136.808,35.935z M135.567,21.688c-0.075-1.082-0.428-1.78-1.06-2.096
			c-0.421-0.211-1.322-0.331-2.705-0.361c-2.404-0.045-3.629,0.632-3.674,2.029c-0.045,1.412,1.209,2.239,3.765,2.479
			c0.315,0.03,0.623,0.045,0.924,0.045C134.756,23.784,135.673,23.085,135.567,21.688z"/>
		<path class="st9" d="M147.943,14.384c1.007-0.225,1.991-0.338,2.953-0.338c4.658,0,7.656,2.42,8.994,7.259
			c0.691,2.51,1,5.396,0.925,8.656l-0.181,7.731l-5.838,0.361l-0.046-1.06c-7.334-0.256-11.158-2.06-11.474-5.41
			c-0.045-0.481-0.067-0.834-0.067-1.06c0-2.735,1.097-4.448,3.291-5.14c1.097-0.346,2.187-0.519,3.269-0.519
			c1.442,0,2.915,0.293,4.418,0.879c-0.015-2.584-0.045-3.952-0.09-4.103c-0.301-1.037-1.3-1.623-2.998-1.758
			c-1.442-0.12-2.825,1.082-4.147,3.606l-5.771-0.901C142.744,17.78,144.998,15.046,147.943,14.384z M151.686,28.879
			c-1.578,0-2.404,0.413-2.479,1.239c-0.12,1.203,1.653,2.18,5.32,2.931l-0.158-3.899C153.316,28.969,152.422,28.879,151.686,28.879
			z"/>
		<path class="st9" d="M162.393,38.437c0.045-9.143-0.188-16.446-0.698-21.911l6.312-0.519l-0.203,2.052
			c3.096-1.924,6.252-2.833,9.468-2.728l0.608,5.455c-3.696,0-6.297,0.766-7.799,2.297c-1.037,1.065-1.556,3.774-1.556,8.127
			c0,1.98,0.104,4.314,0.315,7.001L162.393,38.437z"/>
		<path class="st9" d="M205.403,23.694c-0.361-2.69-1.744-3.945-4.148-3.765c-2.404,0.18-3.727,1.803-3.967,4.869
			c-0.03,0.376-0.046,0.691-0.046,0.946c0,2.57,0.932,4.472,2.796,5.703c0.676,0.451,1.308,0.677,1.894,0.677
			c1.247,0,2.344-0.962,3.291-2.886l6.312,0.451c-1.879,5.951-4.538,8.866-7.979,8.746s-5.681-0.429-6.718-0.924
			c-1.894-0.902-3.261-2.518-4.103-4.847c-0.496-1.367-0.901-3.517-1.218-6.447c-0.09-0.842-0.135-1.593-0.135-2.254
			c0-3.396,0.856-6.154,2.569-8.273c1.849-2.284,4.434-3.426,7.755-3.426c0.706,0,1.39,0.045,2.051,0.135
			c4.058,0.557,6.583,4.118,7.574,10.685L205.403,23.694z"/>
		<path class="st9" d="M218.815,14.384c1.007-0.225,1.991-0.338,2.953-0.338c4.658,0,7.656,2.42,8.994,7.259
			c0.691,2.51,1,5.396,0.925,8.656l-0.181,7.731l-5.838,0.361l-0.046-1.06c-7.334-0.256-11.158-2.06-11.474-5.41
			c-0.045-0.481-0.067-0.834-0.067-1.06c0-2.735,1.097-4.448,3.291-5.14c1.097-0.346,2.187-0.519,3.269-0.519
			c1.442,0,2.915,0.293,4.418,0.879c-0.015-2.584-0.045-3.952-0.09-4.103c-0.301-1.037-1.3-1.623-2.998-1.758
			c-1.442-0.12-2.825,1.082-4.147,3.606l-5.771-0.901C213.616,17.78,215.87,15.046,218.815,14.384z M222.558,28.879
			c-1.578,0-2.404,0.413-2.479,1.239c-0.12,1.203,1.653,2.18,5.32,2.931l-0.158-3.899C224.188,28.969,223.294,28.879,222.558,28.879
			z"/>
		<path class="st9" d="M231.845,36.431l2.66-6.042c3.396,2.209,6.026,3.313,7.89,3.313c0.661,0,1.3-0.194,1.916-0.586
			c0.691-0.436,1.037-0.969,1.037-1.601c0-0.946-1.263-1.743-3.787-2.389c-3.652-0.932-6.109-2.848-7.371-5.749
			c-0.421-0.961-0.632-1.848-0.632-2.659c0-1.729,0.887-3.238,2.66-4.531c1.518-1.112,3.779-1.668,6.785-1.668
			c2.119,0,4.613,0.278,7.484,0.834l-1.916,5.771c-2.18-0.977-3.945-1.465-5.298-1.465c-0.661,0-1.285,0.143-1.871,0.429
			c-0.721,0.346-1.082,0.813-1.082,1.399c0,0.541,0.481,1.121,1.443,1.737c0.661,0.422,1.953,1.008,3.877,1.761
			c1.623,0.632,2.795,1.264,3.517,1.896c1.052,0.918,1.607,2.151,1.668,3.701c0.104,2.543-1.082,4.853-3.562,6.929
			c-1.052,0.888-2.593,1.331-4.621,1.331C239.922,38.842,236.323,38.038,231.845,36.431z"/>
		<path class="st9" d="M258.219,14.384c1.007-0.225,1.991-0.338,2.953-0.338c4.658,0,7.656,2.42,8.994,7.259
			c0.691,2.51,1,5.396,0.925,8.656l-0.181,7.731l-5.838,0.361l-0.046-1.06c-7.334-0.256-11.158-2.06-11.474-5.41
			c-0.045-0.481-0.067-0.834-0.067-1.06c0-2.735,1.097-4.448,3.291-5.14c1.097-0.346,2.187-0.519,3.269-0.519
			c1.442,0,2.915,0.293,4.418,0.879c-0.015-2.584-0.045-3.952-0.09-4.103c-0.301-1.037-1.3-1.623-2.998-1.758
			c-1.442-0.12-2.825,1.082-4.147,3.606l-5.771-0.901C253.02,17.78,255.273,15.046,258.219,14.384z M261.961,28.879
			c-1.578,0-2.404,0.413-2.479,1.239c-0.12,1.203,1.653,2.18,5.32,2.931l-0.158-3.899C263.592,28.969,262.697,28.879,261.961,28.879
			z"/>
		<g>
			<path class="st10" d="M78.017,30.869c-0.845,3.111-2.054,2.951-2.447,2.901c-0.143-0.02-1.399-0.387-1.399-7.394
				c0-0.36,0.003-0.732,0.009-1.116l5.875-0.524l-0.458-7.112l-5.106,0.465l0.54-9.108l-7.08,0.461l-0.181,9.236l-3.154,0.281
				c-0.257-0.964-0.559-1.819-0.91-2.556c-0.959-2.004-2.534-3.064-4.553-3.064c-1.827,0-4.007,0.834-6.641,2.545l-0.299-2.094
				l-6.346,1.024l-0.012-3.832l-17.463-0.222l-0.619,28.571l17.054,0.247l0.191-8.544H35.51v-2.091l8.61,0.18l0.228-7.286H35.51
				v-2.274l9.899,0.172l0.781,18.888l6.972,0.2V26.342c1.99-3.193,3.099-3.543,3.487-3.543c0.316,0,0.638,0.271,0.956,0.805
				c0.648,1.093,0.977,2.959,0.977,5.546c0,2.192-0.24,4.923-0.712,8.118l-0.132,0.889l7.666-0.256l0.042-0.68
				c0.166-2.653,0.25-5.11,0.25-7.305c0-1.399-0.038-2.691-0.102-3.908l2.109-0.189c0.188,9.23,1.757,13.739,4.919,14.171
				c0.798,0.108,1.59,0.164,2.355,0.164c1.885,0,3.547-0.361,4.94-1.073c2.058-1.055,3.249-3.551,3.539-7.419l0.053-0.704
				l-5.319-0.725L78.017,30.869z M34.01,18.04v5.3H42.8l-0.133,4.255l-8.657-0.181v5.122h9.473l-0.124,5.522l-14.055-0.204
				l0.555-25.574l14.5,0.185l0.019,5.754L34.01,18.04z M63.989,36.447l-4.509,0.15c0.399-2.89,0.602-5.391,0.602-7.448
				c0-2.9-0.388-4.965-1.188-6.313c-0.608-1.02-1.363-1.538-2.245-1.538c-1.471,0-3.021,1.41-4.876,4.438l-0.111,0.181v11.365
				l-4.03-0.116l-0.868-20.975l4.179-0.674l0.425,2.98l1.001-0.703c5.138-3.609,8.425-3.995,9.983-0.742
				c1.223,2.561,1.843,6.889,1.843,12.864C64.194,31.891,64.125,34.085,63.989,36.447z M81.895,32.253
				c-0.32,2.905-1.215,4.752-2.662,5.493c-1.68,0.859-3.954,1.092-6.41,0.759c-1.302-0.178-3.505-2.17-3.635-13.513l-0.009-0.811
				L65.624,24.5l-0.132-4.111l3.751-0.335l0.18-9.203l4.01-0.261l-0.542,9.152l5.308-0.482l0.265,4.114l-5.755,0.513l-0.016,0.67
				c-0.015,0.637-0.022,1.245-0.022,1.821c0,5.896,0.834,8.635,2.705,8.881c1.244,0.158,2.891-0.316,3.899-3.363L81.895,32.253z"/>
			<path class="st10" d="M99.209,14.582c-2.902-0.092-5.793,0.611-8.602,2.1l0.148-1.496l-7.964,0.654l0.071,0.755
				c0.505,5.412,0.739,12.759,0.695,21.837l-0.004,0.78l8.01-0.28l-0.062-0.78c-0.208-2.646-0.313-4.982-0.313-6.942
				c0-5.144,0.73-6.975,1.341-7.602c1.349-1.375,3.792-2.072,7.263-2.072h0.838l-0.773-6.934L99.209,14.582z M91.457,22.56
				c-1.206,1.239-1.768,3.988-1.768,8.65c0,1.803,0.087,3.912,0.259,6.278L85.06,37.66c0.027-8.359-0.187-15.231-0.637-20.449
				l4.662-0.383l-0.264,2.67l1.292-0.803c2.744-1.706,5.566-2.586,8.4-2.622l0.443,3.976C95.5,20.165,92.979,21.007,91.457,22.56z"
				/>
			<path class="st10" d="M115.935,21.324c-1.114-2.006-2.563-3.023-4.307-3.023c-1.681,0-3.03,0.585-4.009,1.741l0,0
				c-0.939,1.109-1.457,2.46-1.541,4.017l-0.056,1.05l10.373-2.959L115.935,21.324z M107.727,23.063
				c0.184-0.773,0.527-1.451,1.036-2.052c0.691-0.814,1.628-1.21,2.865-1.21c0.942,0,1.758,0.474,2.479,1.442L107.727,23.063z"/>
			<path class="st10" d="M122.222,27.1l-7.874,1.126l-0.143,0.447c-0.619,1.932-1.69,2.796-3.397,2.703
				c-1.637-0.079-2.721-0.815-3.362-2.303l13.876-3.773l-0.069-0.636c-0.887-8.226-4.374-12.323-10.318-12.202l-0.113,0.011
				c-6.193,1.086-9.511,5.03-9.861,11.723c-0.031,0.586-0.046,1.118-0.046,1.594c0,5.734,1.826,9.685,5.428,11.742l0.11,0.052
				c1.893,0.704,3.642,1.062,5.198,1.062c5.148,0,8.616-3.522,10.309-10.469L122.222,27.1z M111.65,37.146
				c-1.361,0-2.915-0.318-4.617-0.946c-3.108-1.804-4.619-5.209-4.619-10.409c0-0.453,0.014-0.958,0.044-1.516
				c0.312-5.964,3.114-9.338,8.565-10.314c4.909-0.099,7.773,3.267,8.663,10.229l-14.159,3.851l0.219,0.736
				c0.762,2.561,2.487,3.978,4.986,4.098c1.582,0.078,3.65-0.44,4.743-3.294l4.74-0.678
				C118.625,34.445,115.816,37.146,111.65,37.146z"/>
			<path class="st10" d="M134.844,18.922c-0.335-0.168-1.014-0.396-3.027-0.441c-3.594-0.071-4.396,1.461-4.438,2.755
				c-0.041,1.288,0.697,2.898,4.442,3.25c0.34,0.033,0.671,0.048,0.996,0.048c1.356,0,2.302-0.31,2.893-0.946
				c0.462-0.498,0.666-1.156,0.605-1.955C136.22,20.274,135.725,19.361,134.844,18.922z M134.819,21.744
				c0.042,0.553-0.147,0.757-0.209,0.824c-0.283,0.305-0.903,0.466-1.793,0.466c-0.277,0-0.561-0.014-0.854-0.042
				c-2.077-0.195-3.115-0.771-3.085-1.709c0.011-0.327,0.042-1.306,2.695-1.306c0.069,0,0.14,0.001,0.213,0.002
				c1.72,0.038,2.242,0.209,2.387,0.282c0.374,0.187,0.591,0.684,0.646,1.477V21.744z"/>
			<path class="st10" d="M130.676,38.735c0.401,0,0.98-0.022,1.737-0.068c2.218-0.135,5.167-0.537,5.167-2.462
				c0-0.131-0.011-0.262-0.032-0.392l-0.014-0.066c-0.181-0.698-0.773-1.87-2.709-1.87c-0.558,0-1.561,0.113-3.068,0.347
				c-2.411,0.374-5.167,1.025-5.076,2.758C126.757,38.735,129.604,38.735,130.676,38.735z M131.986,35.706
				c1.757-0.272,2.513-0.329,2.838-0.329c0.907,0,1.143,0.337,1.248,0.711c0.005,0.039,0.008,0.078,0.008,0.117
				c0,0.008-0.162,0.746-3.758,0.964c-0.718,0.044-1.266,0.066-1.646,0.066c-2.005,0-2.445-0.317-2.495-0.317c0,0-0.001,0-0.001,0
				C128.219,36.847,128.654,36.223,131.986,35.706z"/>
			<path class="st10" d="M154.495,28.41c-1.087-0.187-2.032-0.281-2.81-0.281c-2.522,0-3.146,1.045-3.226,1.915
				c-0.222,2.221,3.271,3.199,5.916,3.74l0.938,0.192l-0.222-5.463L154.495,28.41z M149.953,30.186
				c0.045-0.503,1.227-0.557,1.732-0.557c0.551,0,1.208,0.055,1.958,0.165l0.094,2.313C149.97,31.207,149.942,30.3,149.953,30.186z"
				/>
			<path class="st10" d="M177.295,14.582c-2.901-0.095-5.794,0.611-8.603,2.1l0.148-1.496l-7.964,0.654l0.07,0.755
				c0.28,2.994,0.473,6.602,0.586,10.746c-0.102-2.275-0.405-4.368-0.92-6.237c-1.433-5.182-4.702-7.809-9.717-7.809
				c-1.009,0-2.058,0.12-3.116,0.356h-0.001c-1.477,0.332-2.787,1.154-3.94,2.414l-5.208-4.56l-0.477,0.313
				c-0.859,0.564-1.559,1.282-2.088,2.139c-2.174-0.956-4.776-1.059-7.791-0.253c-3.376,0.897-5.505,2.935-6.325,6.054
				c-0.196,0.735-0.296,1.437-0.296,2.087c0,1.991,0.822,3.766,2.445,5.29c-1.279,1.032-1.926,2.207-1.926,3.501
				c0,1.196,0.189,2.334,0.563,3.393c-0.958,0.937-1.442,2.068-1.442,3.37c0,0.617,0.119,1.295,0.353,2.011
				c0.776,2.417,3.517,3.663,8.375,3.812c0.354,0.012,0.7,0.018,1.04,0.018c4.129,0,7.178-0.874,9.07-2.603
				c1.5-1.364,2.23-2.6,2.23-3.778c0-1.004-0.369-2.3-1.127-3.963c-0.815-1.798-2.615-2.811-5.356-3.015
				c1.05-0.23,1.95-0.588,2.692-1.071c1.907-1.235,2.966-3.045,3.171-5.374l5.628,0.879l0.25-0.476
				c0.799-1.526,2.063-3.32,3.423-3.207c2.03,0.161,2.262,0.958,2.323,1.159c0.015,0.1,0.047,0.585,0.066,2.896
				c-2.426-0.745-4.782-0.766-7.154-0.018c-1.74,0.548-3.815,2.009-3.815,5.855c0,0.24,0.023,0.616,0.071,1.13
				c0.344,3.656,4.213,5.693,11.5,6.06l0.05,1.136l7.287-0.451l0.197-8.42c0.015-0.658,0.002-1.292-0.014-1.923
				c0.077,3.157,0.109,6.609,0.091,10.377l-0.004,0.78l8.01-0.28l-0.061-0.78c-0.208-2.646-0.313-4.982-0.313-6.942
				c0-5.144,0.73-6.975,1.341-7.602c1.349-1.375,3.793-2.072,7.264-2.072h0.838l-0.772-6.934L177.295,14.582z M140.257,23.205
				c-0.143,1.92-0.96,3.346-2.506,4.347c-1.63,1.061-4.305,1.374-7.984,0.965l-0.149-0.017l-0.144,0.042
				c-1.69,0.493-2.547,1.274-2.547,2.32c0,0.36,0.111,0.73,0.329,1.102l0.285,0.486l0.546-0.14c2.583-0.657,4.856-1.001,6.777-0.969
				c2.709,0.014,4.346,0.726,5.001,2.175l0.001,0.002c0.658,1.442,0.992,2.566,0.992,3.34c0,0.712-0.601,1.635-1.74,2.67
				c-1.749,1.599-4.792,2.343-9.051,2.193c-4.091-0.124-6.445-1.057-6.997-2.773c-0.185-0.568-0.279-1.09-0.279-1.549
				c0-1.019,0.426-1.86,1.302-2.575l0.434-0.354l-0.216-0.518c-0.425-1.013-0.64-2.129-0.64-3.316c0-1.014,0.669-1.936,2.044-2.818
				l0.89-0.571l-0.832-0.651c-1.764-1.379-2.621-2.934-2.621-4.751c0-0.52,0.083-1.092,0.246-1.703
				c0.684-2.598,2.404-4.23,5.262-4.989c1.223-0.327,2.371-0.493,3.413-0.493c1.473,0,2.801,0.318,3.946,0.944l0.694,0.38
				l0.342-0.714c0.358-0.747,0.84-1.362,1.466-1.867l2.709,2.372c-1.12,0.483-1.846,1.241-2.164,2.263l-0.131,0.421l0.305,0.319
				c0.781,0.817,1.124,2.226,1.032,4.175l-0.078,0.24L140.257,23.205z M131.16,30.143c-0.841,0.13-1.721,0.303-2.639,0.518
				c0.16-0.188,0.538-0.42,1.234-0.637C130.238,30.075,130.707,30.115,131.16,30.143z M141.45,19.845
				c-0.19-0.654-0.442-1.241-0.799-1.716c0.354-0.638,1.09-1.063,2.234-1.296l0.372-0.076
				C142.593,17.617,141.991,18.649,141.45,19.845z M159.901,36.986l-4.389,0.271l-0.042-0.989l-0.693-0.024
				c-6.862-0.239-10.48-1.831-10.753-4.73c-0.042-0.45-0.064-0.779-0.064-0.99c0-2.424,0.879-3.83,2.767-4.424
				c1.019-0.321,2.042-0.484,3.043-0.484c1.342,0,2.737,0.278,4.146,0.828l1.028,0.401l-0.006-1.104
				c-0.022-3.982-0.075-4.158-0.119-4.307c-0.396-1.362-1.627-2.135-3.656-2.296c-1.696-0.133-3.201,1.016-4.617,3.531l-4.365-0.682
				c1.449-4.002,3.44-6.312,5.927-6.871c0.951-0.212,1.89-0.32,2.79-0.32c4.317,0,7.023,2.194,8.271,6.708
				c0.669,2.429,0.971,5.268,0.897,8.439L159.901,36.986z M169.543,22.56c-1.207,1.239-1.769,3.988-1.769,8.65
				c0,1.803,0.087,3.912,0.259,6.278l-4.888,0.172c0.026-8.359-0.188-15.231-0.637-20.449l4.662-0.383l-0.265,2.67l1.292-0.803
				c2.745-1.706,5.567-2.586,8.4-2.622l0.443,3.976C173.586,20.165,171.065,21.007,169.543,22.56z"/>
			<path class="st10" d="M225.367,28.41c-1.087-0.187-2.032-0.281-2.81-0.281c-2.522,0-3.146,1.045-3.226,1.915
				c-0.222,2.221,3.271,3.199,5.916,3.74l0.938,0.192l-0.222-5.463L225.367,28.41z M220.825,30.186
				c0.046-0.503,1.227-0.557,1.732-0.557c0.551,0,1.208,0.055,1.958,0.165l0.094,2.313C220.842,31.207,220.813,30.3,220.825,30.186z
				"/>
			<path class="st10" d="M245.914,24.287c-1.873-0.733-3.134-1.303-3.746-1.694c-1.066-0.684-1.098-1.065-1.098-1.106
				c0-0.112,0-0.408,0.661-0.726c0.486-0.237,0.99-0.353,1.542-0.353c1.239,0,2.919,0.471,4.991,1.399l0.757,0.339l2.446-7.368
				l-0.838-0.162c-7.162-1.386-12.094-1.058-14.854,0.964c-1.97,1.436-2.969,3.165-2.969,5.137c0,0.912,0.233,1.907,0.694,2.958
				c1.353,3.111,4.002,5.189,7.873,6.176c3.132,0.801,3.223,1.576,3.223,1.662c0,0.229-0.071,0.578-0.689,0.968
				c-0.496,0.315-0.991,0.469-1.514,0.469c-1.708,0-4.225-1.074-7.48-3.192l-0.74-0.481l-1.817,4.126l0.08-3.427
				c0.076-3.318-0.244-6.303-0.952-8.873c-1.433-5.182-4.702-7.809-9.717-7.809c-1.01,0-2.058,0.12-3.116,0.356h-0.001
				c-2.956,0.664-5.268,3.227-6.9,7.576c-1.227-5.796-3.874-9.019-7.894-9.571c-0.691-0.094-1.415-0.142-2.151-0.142
				c-3.544,0-6.349,1.246-8.338,3.704c-1.815,2.246-2.736,5.188-2.736,8.745c0,0.684,0.047,1.469,0.139,2.334
				c0.327,3.021,0.738,5.188,1.259,6.622c0.907,2.511,2.416,4.283,4.484,5.269c1.144,0.546,3.438,0.872,7.015,0.997
				c0.078,0.002,0.155,0.004,0.232,0.004c3.689-0.001,6.545-3.119,8.488-9.274l0.286-0.906l-7.763-0.555l-0.223,0.453
				c-0.806,1.637-1.687,2.467-2.618,2.467c-0.433,0-0.93-0.185-1.48-0.553c-1.654-1.093-2.459-2.754-2.459-5.077
				c0-0.239,0.015-0.534,0.044-0.888c0.277-3.548,2.002-4.084,3.275-4.18c2.008-0.152,3.039,0.811,3.349,3.116l0.097,0.721
				l7.434-0.764l-0.059-0.39l6.108,0.954l0.249-0.476c0.8-1.527,2.055-3.315,3.424-3.207c2.03,0.161,2.262,0.958,2.323,1.159
				c0.015,0.1,0.047,0.585,0.066,2.896c-2.427-0.746-4.781-0.766-7.154-0.018c-1.74,0.548-3.815,2.009-3.815,5.855
				c0,0.24,0.022,0.616,0.07,1.13c0.345,3.656,4.213,5.693,11.501,6.06l0.05,1.136l7.287-0.451l0.024-1.03
				c4.231,1.469,7.726,2.223,10.378,2.223c2.202,0,3.919-0.508,5.103-1.506c2.655-2.224,3.943-4.759,3.829-7.533
				c-0.068-1.757-0.716-3.183-1.923-4.236C248.855,25.62,247.633,24.956,245.914,24.287z M206.021,22.877
				c-0.715-3.277-2.976-3.831-4.822-3.695c-1.938,0.145-4.319,1.227-4.659,5.557c-0.031,0.4-0.048,0.735-0.048,1.006
				c0,2.827,1.054,4.956,3.13,6.327c2.363,1.577,4.475,0.81,6.039-2.05l4.857,0.347c-1.729,4.957-4.099,7.405-6.938,7.317
				c-4.136-0.144-5.774-0.542-6.422-0.851c-1.724-0.822-2.94-2.27-3.72-4.426c-0.473-1.302-0.868-3.412-1.177-6.271
				c-0.087-0.812-0.131-1.543-0.131-2.174c0-3.205,0.809-5.83,2.402-7.802c1.714-2.118,4.061-3.147,7.172-3.147
				c0.669,0,1.325,0.043,1.949,0.128c3.564,0.489,5.796,3.526,6.808,9.277L206.021,22.877z M230.773,36.986l-4.389,0.271
				l-0.042-0.989l-0.693-0.024c-6.862-0.239-10.48-1.831-10.753-4.73c-0.042-0.45-0.064-0.779-0.064-0.99
				c0-2.424,0.879-3.83,2.767-4.424c1.019-0.321,2.042-0.484,3.043-0.484c1.342,0,2.737,0.278,4.146,0.828l1.028,0.401l-0.006-1.104
				c-0.022-3.982-0.075-4.158-0.119-4.307c-0.396-1.362-1.627-2.135-3.656-2.296c-1.702-0.132-3.201,1.017-4.617,3.531l-4.364-0.682
				c1.448-4.002,3.439-6.312,5.926-6.871c0.952-0.212,1.891-0.32,2.79-0.32c4.317,0,7.023,2.194,8.271,6.708
				c0.669,2.429,0.971,5.268,0.897,8.439L230.773,36.986z M246.78,36.938c-2.128,1.794-6.895,1.486-13.923-0.945l1.981-4.501
				c3.191,1.991,5.668,2.961,7.556,2.961c0.805,0,1.584-0.236,2.315-0.701c1.147-0.723,1.388-1.614,1.388-2.235
				c0-1.795-2.483-2.638-4.352-3.115c-3.447-0.879-5.694-2.62-6.87-5.323c-0.377-0.862-0.568-1.655-0.568-2.358
				c0-1.487,0.77-2.771,2.354-3.926c2.282-1.672,6.608-1.973,12.844-0.859l-1.388,4.178c-3.102-1.287-5.21-1.593-7.039-0.7
				c-1.246,0.598-1.508,1.458-1.508,2.076c0,0.823,0.585,1.598,1.79,2.37c0.705,0.45,2.016,1.048,4.008,1.827
				c1.534,0.597,2.643,1.189,3.296,1.762c0.897,0.783,1.359,1.819,1.412,3.167C250.171,32.932,249.094,35,246.78,36.938z"/>
			<path class="st10" d="M270.889,21.105c-1.433-5.182-4.702-7.809-9.717-7.809c-1.01,0-2.058,0.12-3.116,0.356h-0.001
				c-3.208,0.721-5.668,3.65-7.312,8.706l-0.272,0.837l7.172,1.12l0.249-0.476c0.8-1.527,2.055-3.315,3.424-3.207
				c2.03,0.161,2.262,0.958,2.323,1.159c0.015,0.1,0.047,0.585,0.066,2.896c-2.426-0.746-4.781-0.766-7.154-0.018
				c-1.74,0.548-3.815,2.009-3.815,5.855c0,0.24,0.022,0.616,0.07,1.13c0.345,3.656,4.213,5.693,11.501,6.06l0.05,1.136l7.287-0.451
				l0.197-8.42C271.917,26.66,271.597,23.675,270.889,21.105z M270.177,36.986l-4.389,0.271l-0.042-0.989l-0.693-0.024
				c-6.862-0.239-10.48-1.831-10.753-4.73c-0.042-0.45-0.064-0.779-0.064-0.99c0-2.424,0.879-3.83,2.767-4.424
				c1.019-0.321,2.042-0.484,3.043-0.484c1.342,0,2.737,0.278,4.146,0.828l1.028,0.401l-0.006-1.104
				c-0.022-3.982-0.075-4.158-0.119-4.307c-0.396-1.362-1.627-2.135-3.656-2.296c-1.7-0.132-3.201,1.017-4.617,3.531l-4.364-0.682
				c1.448-4.002,3.439-6.312,5.926-6.871c0.952-0.212,1.891-0.32,2.79-0.32c4.317,0,7.023,2.194,8.271,6.708
				c0.669,2.429,0.971,5.268,0.897,8.439L270.177,36.986z"/>
			<path class="st10" d="M264.771,28.41c-1.087-0.187-2.032-0.281-2.81-0.281c-2.522,0-3.146,1.045-3.226,1.915
				c-0.222,2.221,3.271,3.199,5.916,3.74l0.938,0.192l-0.222-5.463L264.771,28.41z M260.229,30.186
				c0.046-0.503,1.227-0.557,1.732-0.557c0.551,0,1.208,0.055,1.958,0.165l0.094,2.313C260.245,31.207,260.217,30.3,260.229,30.186z
				"/>
		</g>
	</g>
</g>
</svg>
