<?xml version="1.0" encoding="utf-8"?>
<!-- Generator: Adobe Illustrator 21.0.0, SVG Export Plug-In . SVG Version: 6.00 Build 0)  -->
<svg version="1.1" id="Capa_1" xmlns="http://www.w3.org/2000/svg" xmlns:xlink="http://www.w3.org/1999/xlink" x="0px" y="0px"
	 viewBox="0 0 250.4 258.4" style="enable-background:new 0 0 250.4 258.4;" xml:space="preserve">
<style type="text/css">
	.st0{opacity:0.2;fill-rule:evenodd;clip-rule:evenodd;}
	.st1{fill-rule:evenodd;clip-rule:evenodd;fill:#FFFFFF;}
	.st2{fill-rule:evenodd;clip-rule:evenodd;fill:#5CA8F0;}
	.st3{fill:#FFFFFF;}
</style>
<g>
	<path class="st0" d="M125.2,258.4c-16.4,0-71.8-2-97.4-27.1C1.9,205.7,0,149.9,0,133.4C0,116.9,2.1,61,28,35.6
		C45.6,18.3,81.9,8,125.2,8c43.3,0,79.6,10.3,97.2,27.6c25.9,25.5,28,81.3,28,97.8c0,16.5-1.9,72.3-27.8,97.9
		C197,256.4,141.6,258.4,125.2,258.4z"/>
	<path class="st1" d="M125.2,250.4c-16.4,0-71.8-2-97.4-27.1C1.9,197.7,0,141.9,0,125.4C0,108.9,2.1,53,28,27.6
		C45.6,10.3,81.9,0,125.2,0c43.3,0,79.6,10.3,97.2,27.6c25.9,25.5,28,81.3,28,97.8c0,16.5-1.9,72.3-27.8,97.9
		C197,248.4,141.6,250.4,125.2,250.4z"/>
	<path class="st2" d="M37.1,36.9C5,68.4,4.9,182.4,36.9,214c31.6,31.2,144.9,31.2,176.5,0c32-31.6,31.9-145.6-0.2-177.1
		C180.9,5,69.4,5,37.1,36.9z"/>
	<g>
		<g>
			<path class="st3" d="M77.8,133.7c-1.1,0-2-0.8-2-1.8v70.4h50.5l5.6-29.4c19.3-4.2,33.6-19,33.6-36.7c0-0.8,0-1.6-0.1-2.4H77.8z"
				/>
			<path class="st3" d="M174.5,128.3c0,1-0.9,1.8-2,1.8H77.8c-1.1,0-2-0.8-2-1.8v-7.5c0-1,0.9-1.8,2-1.8h94.7c1.1,0,2,0.8,2,1.8
				V128.3z"/>
			<path class="st3" d="M174.5,113.1c0-1.3-1-2.3-2.3-2.3H78.1c-1.3,0-2.3,1-2.3,2.3l0,0c0,1.3,1,2.3,2.3,2.3h94.2
				C173.5,115.4,174.5,114.4,174.5,113.1L174.5,113.1z"/>
			<path class="st3" d="M106.1,112.4c0,1.7-1.2,3-2.7,3H78.6c-1.5,0-2.7-1.3-2.7-3V51.1c0-1.7,1.2-3,2.7-3h25.2c1.5,0,2.7,1.3,2.7,3
				L106.1,112.4z"/>
		</g>
	</g>
</g>
</svg>
