<?xml version="1.0" encoding="utf-8"?>
<!-- Generator: Adobe Illustrator 21.0.0, SVG Export Plug-In . SVG Version: 6.00 Build 0)  -->
<svg version="1.1" id="Capa_1" xmlns="http://www.w3.org/2000/svg" xmlns:xlink="http://www.w3.org/1999/xlink" x="0px" y="0px"
	 viewBox="0 0 264.666 206.393" style="enable-background:new 0 0 264.666 206.393;" xml:space="preserve">
<style type="text/css">
	.st0{opacity:0.2;}
	.st1{fill:#FFFFFF;}
	.st2{fill:#754C24;}
	.st3{fill:#8C6239;}
	.st4{fill:#603813;}
	.st5{fill:#42210B;}
</style>
<g>
	<path class="st0" d="M262.174,177.168L142.841,13.346C140.394,9.986,136.489,8,132.333,8s-8.061,1.986-10.508,5.346L2.492,177.168
		c-1.829,2.511-2.698,5.594-2.451,8.69l0.685,8.57c0.54,6.757,6.181,11.964,12.958,11.964h237.296
		c6.778,0,12.419-5.208,12.959-11.965l0.685-8.569C264.872,182.762,264.003,179.679,262.174,177.168z"/>
	<path class="st1" d="M262.174,169.168L142.841,5.346C140.394,1.986,136.489,0,132.333,0s-8.061,1.986-10.508,5.346L2.492,169.168
		c-1.829,2.511-2.698,5.594-2.451,8.69l0.685,8.57c0.54,6.757,6.181,11.964,12.958,11.964h237.296
		c6.778,0,12.419-5.208,12.959-11.965l0.685-8.569C264.872,174.762,264.003,171.679,262.174,169.168z"/>
	<g>
		<path class="st2" d="M132.333,13L13,176.822c0.386,4.83,0.299,3.74,0.685,8.571h237.296c0.386-4.83,0.299-3.74,0.685-8.571
			L132.333,13z"/>
		<g>
			<polygon class="st3" points="132.333,25.289 30.007,173.858 234.658,173.858 			"/>
			<polygon class="st4" points="234.658,173.858 132.333,25.289 30.007,173.858 38.767,173.858 132.333,37.3 225.899,173.858 			"/>
			<g>
				<polygon class="st5" points="77.994,173.858 84.807,173.858 84.807,106.531 77.994,116.601 				"/>
				<polygon class="st5" points="179.859,106.531 179.859,173.858 186.672,173.858 186.672,116.601 				"/>
				<path class="st5" d="M132.333,25.289l-9.98,12.745l4.99,8.657l1.125-1.015c0.121-0.109,0.306-0.015,0.458-0.064l0,128.246h6.813
					l0-128.247c0.153,0.049,0.337-0.045,0.458,0.064l1.125,1.016l4.99-8.657L132.333,25.289z"/>
			</g>
		</g>
	</g>
</g>
</svg>
