<?xml version="1.0" encoding="utf-8"?>
<!-- Generator: Adobe Illustrator 21.0.0, SVG Export Plug-In . SVG Version: 6.00 Build 0)  -->
<svg version="1.1" id="Capa_1" xmlns="http://www.w3.org/2000/svg" xmlns:xlink="http://www.w3.org/1999/xlink" x="0px" y="0px"
	 viewBox="0 0 120.994 241.358" style="enable-background:new 0 0 120.994 241.358;" xml:space="preserve">
<style type="text/css">
	.st0{opacity:0.2;}
	.st1{fill:#FFFFFF;}
	.st2{fill:#1A1A1A;}
	.st3{fill:#FFD30E;}
	.st4{fill:#4D4D4D;}
</style>
<g>
	<path class="st0" d="M120.34,104.623c1.563-6.068,0.206-12.212-3.181-16.952c1.437-1.999,2.538-4.271,3.181-6.761
		c1.563-6.068,0.207-12.213-3.182-16.953c1.438-2,2.539-4.272,3.182-6.763c1.359-5.279,0.582-10.769-2.18-15.439
		c-2.762-4.691-7.189-8.027-12.471-9.393l-31.256-8.066C72.5,14.803,64.239,8.001,54.475,8.001c-1.1,0-2.205,0.09-3.27,0.263
		c-5.381,0.869-10.1,3.783-13.281,8.197c-3.188,4.42-4.463,9.816-3.59,15.19l1.017,6.272l-9.866-2.546
		c-1.666-0.429-3.381-0.646-5.094-0.646c-9.289,0-17.404,6.287-19.738,15.304c-1.357,5.273-0.582,10.76,2.18,15.44
		c0.309,0.523,0.645,1.023,0.993,1.512c-1.43,1.999-2.528,4.271-3.173,6.762c-1.562,6.067-0.203,12.21,3.184,16.948
		c-1.437,2-2.539,4.273-3.184,6.766c-1.587,6.165-0.16,12.409,3.349,17.177c-0.708,0.954-1.363,1.951-1.896,3.034
		c-2.404,4.884-2.762,10.415-1.004,15.575c1.756,5.157,5.412,9.321,10.295,11.723l7.965,3.919c-4.22,1.859-7.17,6.073-7.17,10.98
		v17.194c0,13.414,7.176,25.121,17.783,31.366c0.013,0.213,0.02,0.427,0.043,0.638c-0.048,0.439-0.078,0.883-0.078,1.334v3.827
		c0,0.667,0.068,1.316,0.173,1.953c-0.061,1.004-0.009,2.019,0.188,3.026c1.202,6.128,5.255,13.196,12.777,14.213
		c3.797,4.927,9.696,7.932,16.121,7.935c0.004,0,0.008,0,0.008,0c6.422-0.004,12.315-3.002,16.112-7.919
		c7.584-0.97,11.663-8.075,12.87-14.229c0.22-1.121,0.259-2.252,0.16-3.366c0.071-0.529,0.121-1.065,0.121-1.614v-3.827
		c0-0.452-0.03-0.896-0.078-1.334c0.022-0.21,0.03-0.424,0.043-0.637c10.605-6.245,17.781-17.952,17.781-31.366v-17.194
		c0-6.627-5.373-12-12-12h-3.254l15.988-5.255c8.551-2.801,14.318-11.04,14.023-20.034c-0.135-4.108-1.532-7.969-3.83-11.175
		C118.588,109.402,119.695,107.122,120.34,104.623z"/>
	<path class="st1" d="M120.34,96.622c1.563-6.068,0.206-12.212-3.181-16.952c1.437-1.999,2.538-4.271,3.181-6.761
		c1.563-6.068,0.207-12.213-3.182-16.953c1.438-2,2.539-4.272,3.182-6.763c1.359-5.279,0.582-10.769-2.18-15.439
		c-2.762-4.691-7.189-8.027-12.471-9.393l-31.256-8.066C72.5,6.803,64.239,0,54.475,0c-1.1,0-2.205,0.09-3.27,0.263
		c-5.381,0.869-10.1,3.783-13.281,8.197c-3.188,4.42-4.463,9.816-3.59,15.19l1.017,6.272l-9.866-2.546
		c-1.666-0.429-3.381-0.646-5.094-0.646c-9.289,0-17.404,6.287-19.738,15.304c-1.357,5.273-0.582,10.76,2.18,15.44
		c0.309,0.523,0.645,1.023,0.993,1.512c-1.43,1.999-2.528,4.271-3.173,6.762c-1.562,6.067-0.203,12.21,3.184,16.948
		c-1.437,2-2.539,4.273-3.184,6.766c-1.587,6.165-0.16,12.409,3.349,17.177c-0.708,0.954-1.363,1.951-1.896,3.034
		c-2.404,4.884-2.762,10.415-1.004,15.575c1.756,5.157,5.412,9.321,10.295,11.723l7.965,3.919c-4.22,1.859-7.17,6.073-7.17,10.98
		v17.194c0,13.414,7.176,25.121,17.783,31.366c0.013,0.213,0.02,0.427,0.043,0.638c-0.048,0.439-0.078,0.883-0.078,1.334v3.827
		c0,0.667,0.068,1.316,0.173,1.953c-0.061,1.004-0.009,2.019,0.188,3.026c1.202,6.128,5.255,13.196,12.777,14.213
		c3.797,4.927,9.696,7.932,16.121,7.935c0.004,0,0.008,0,0.008,0c6.422-0.004,12.315-3.002,16.112-7.919
		c7.584-0.97,11.663-8.075,12.87-14.229c0.22-1.121,0.259-2.252,0.16-3.366c0.071-0.529,0.121-1.065,0.121-1.614v-3.827
		c0-0.452-0.03-0.896-0.078-1.334c0.022-0.21,0.03-0.424,0.043-0.637c10.605-6.245,17.781-17.952,17.781-31.366V151.87
		c0-6.627-5.373-12-12-12h-3.254l15.988-5.255c8.551-2.801,14.318-11.04,14.023-20.034c-0.135-4.108-1.532-7.969-3.83-11.175
		C118.588,101.402,119.695,99.122,120.34,96.622z"/>
	<g>
		<path class="st2" d="M73.544,213.559H44.948c-1.42,0-2.608-3.317-2.872-4.66h34.339C76.151,210.242,74.963,213.559,73.544,213.559
			z"/>
		<rect x="41.94" y="195.905" class="st2" width="34.532" height="3.829"/>
		<rect x="41.94" y="202.402" class="st2" width="34.532" height="3.827"/>
		<path class="st2" d="M59.205,221.357c-3.469-0.001-6.454-2.12-7.724-5.13h15.449C65.66,219.237,62.674,221.356,59.205,221.357z"/>
		<path class="st3" d="M108.72,69.916c-1.133,4.391-5.831,7.161-10.218,6.025L18.303,55.245c-2.17-0.559-3.993-1.931-5.13-3.861
			c-1.139-1.929-1.457-4.188-0.897-6.359c0.959-3.705,4.296-6.295,8.117-6.295c0.706,0,1.414,0.09,2.104,0.268l80.196,20.696
			C107.17,60.851,109.873,65.435,108.72,69.916z"/>
		<path class="st3" d="M98.502,52.227L54.363,40.836c-3.227-0.832-5.655-3.494-6.184-6.781L46.18,21.73
			c-0.36-2.212,0.165-4.432,1.477-6.249c1.309-1.817,3.249-3.015,5.463-3.372C53.575,12.035,54.029,12,54.476,12
			c4.13,0,7.604,2.963,8.266,7.048l1.121,6.912l38.83,10.021c2.169,0.561,3.992,1.931,5.13,3.862
			c1.139,1.93,1.457,4.188,0.898,6.357C107.586,50.593,102.888,53.366,98.502,52.227z"/>
		<path class="st3" d="M78.803,145.365H62.027v-20.204c0-2.112,0.787-4.132,2.224-5.687l3.684-3.996l-49.632-12.806
			c-4.479-1.156-7.181-5.741-6.028-10.221c1.133-4.388,5.79-7.168,10.221-6.026l80.196,20.694c3.582,0.926,6.168,4.155,6.288,7.853
			c0.121,3.697-2.248,7.086-5.765,8.239l-24.413,8.023V145.365z"/>
		<path class="st3" d="M20.392,62.443c0.706,0,1.411,0.091,2.104,0.269l80.196,20.694c4.478,1.156,7.181,5.741,6.028,10.222
			c-1.133,4.391-5.774,7.171-10.224,6.027L18.303,78.958c-4.479-1.156-7.181-5.741-6.028-10.221
			C13.234,65.032,16.571,62.443,20.392,62.443z"/>
		<path class="st3" d="M24.103,111.149l27.162,13.369c2.891,1.421,4.685,4.305,4.685,7.526v13.321H39.174v-8.1l-22.479-11.061
			c-4.151-2.042-5.867-7.082-3.824-11.231C14.859,110.928,20.011,109.14,24.103,111.149z"/>
		<path class="st4" d="M94.217,151.87H24.192v17.194c0,13.328,10.443,24.171,23.282,24.171h23.469
			c12.835,0,23.275-10.843,23.275-24.171V151.87z M88.297,165.792c0,12.475-10.148,22.623-22.621,22.623
			c-1.478,0-2.677-1.197-2.677-2.676c0-1.48,1.199-2.677,2.677-2.677c9.521,0,17.267-7.745,17.267-17.269
			c0-1.476,1.199-2.676,2.677-2.676C87.098,163.116,88.297,164.316,88.297,165.792z"/>
	</g>
</g>
</svg>
