<?xml version="1.0" encoding="utf-8"?>
<!-- Generator: Adobe Illustrator 21.0.0, SVG Export Plug-In . SVG Version: 6.00 Build 0)  -->
<svg version="1.1" id="Capa_1" xmlns="http://www.w3.org/2000/svg" xmlns:xlink="http://www.w3.org/1999/xlink" x="0px" y="0px"
	 viewBox="0 0 181.09 240.589" style="enable-background:new 0 0 181.09 240.589;" xml:space="preserve">
<style type="text/css">
	.st0{opacity:0.2;}
	.st1{fill:#FFFFFF;}
	.st2{fill:#603813;}
	.st3{fill:#4FB1ED;}
	.st4{fill:#754C24;}
	.st5{fill:#76CAF4;}
</style>
<g>
	<path class="st0" d="M172.778,189.272V87.314C172.778,42.839,136.634,8,90.493,8S8.208,42.839,8.208,87.314V189.31
		C3.403,191.219,0,195.901,0,201.387v26.202c0,7.18,5.82,13,13,13h155.09c7.18,0,13-5.82,13-13v-26.202
		C181.09,195.862,177.638,191.154,172.778,189.272z"/>
	<path class="st1" d="M172.778,181.272V79.314C172.778,34.839,136.634,0,90.493,0S8.208,34.839,8.208,79.314V181.31
		C3.403,183.219,0,187.901,0,193.387v26.202c0,7.18,5.82,13,13,13h155.09c7.18,0,13-5.82,13-13v-26.202
		C181.09,187.862,177.638,183.154,172.778,181.272z"/>
	<path class="st2" d="M90.493,13c-38.265,0-69.284,28.05-69.284,66.315v114.072h138.569V79.315C159.778,41.05,128.758,13,90.493,13z
		 M149.139,182.75H31.847V79.316c0-31.743,25.213-55.678,58.646-55.678s58.646,23.935,58.646,55.678V182.75z"/>
	<g>
		<path class="st3" d="M31.847,182.75V79.316c0-31.743,25.213-55.678,58.646-55.678s58.646,23.935,58.646,55.678V182.75H31.847z"/>
	</g>
	<rect x="13" y="193.387" class="st4" width="155.09" height="26.202"/>
	<g>
		<path class="st5" d="M34.497,182.75h8.093L148.991,76.348c-0.126-2.481-0.382-4.915-0.811-7.283L34.497,182.75z"/>
		<polygon class="st5" points="149.139,101.459 149.139,85.005 51.394,182.75 67.849,182.75 		"/>
		<path class="st5" d="M31.847,108.268v6.433l85.317-85.317c-1.48-0.684-2.988-1.323-4.543-1.891L31.847,108.268z"/>
	</g>
	<rect x="85.174" y="18.535" class="st2" width="10.638" height="169.317"/>
	
		<rect x="85.226" y="45.933" transform="matrix(3.026563e-11 -1 1 3.026563e-11 -20.5636 201.6542)" class="st2" width="10.638" height="130.352"/>
</g>
</svg>
