<?xml version="1.0" encoding="utf-8"?>
<!-- Generator: Adobe Illustrator 21.0.0, SVG Export Plug-In . SVG Version: 6.00 Build 0)  -->
<svg version="1.1" id="Capa_1" xmlns="http://www.w3.org/2000/svg" xmlns:xlink="http://www.w3.org/1999/xlink" x="0px" y="0px"
	 viewBox="0 0 269.085 222.64" style="enable-background:new 0 0 269.085 222.64;" xml:space="preserve">
<style type="text/css">
	.st0{opacity:0.2;}
	.st1{fill:#FFFFFF;}
	.st2{fill:#994A16;}
	.st3{fill:#A3D19F;}
	.st4{fill:#AF5715;}
	.st5{fill:#EABEE2;}
	.st6{fill:#873A0F;}
	.st7{fill:#80D2FF;}
</style>
<g>
	<path class="st0" d="M267.718,62.388L251.52,29.92c-2.276-4.561-6.87-7.199-11.643-7.199c-1.95,0-3.93,0.44-5.793,1.37
		l-34.256,17.09l-12.962-25.982C184.589,10.639,179.995,8,175.222,8c-1.95,0-3.93,0.44-5.793,1.37L7.197,90.307
		c-3.085,1.539-5.433,4.241-6.526,7.511c-1.093,3.271-0.843,6.841,0.696,9.926l16.198,32.468c2.276,4.561,6.87,7.199,11.643,7.199
		c1.95,0,3.93-0.44,5.793-1.37l34.256-17.09l9.726,19.496l-34.256,17.09c-3.085,1.539-5.433,4.241-6.526,7.511
		c-1.093,3.271-0.843,6.841,0.696,9.926l16.198,32.468c2.276,4.561,6.87,7.199,11.643,7.199c1.95,0,3.93-0.44,5.793-1.37
		l162.231-80.938c3.085-1.539,5.433-4.241,6.526-7.511c1.093-3.271,0.843-6.841-0.696-9.926l-12.962-25.981l34.256-17.09
		c3.085-1.539,5.433-4.241,6.526-7.511C269.507,69.043,269.257,65.473,267.718,62.388z"/>
	<path class="st1" d="M267.718,54.388L251.52,21.92c-2.276-4.561-6.87-7.199-11.643-7.199c-1.95,0-3.93,0.44-5.793,1.37
		l-34.256,17.09L186.865,7.199C184.589,2.639,179.995,0,175.222,0c-1.95,0-3.93,0.44-5.793,1.37L7.197,82.307
		c-3.085,1.539-5.433,4.241-6.526,7.511c-1.093,3.271-0.843,6.841,0.696,9.926l16.198,32.468c2.276,4.561,6.87,7.199,11.643,7.199
		c1.95,0,3.93-0.44,5.793-1.37l34.256-17.09l9.726,19.496l-34.256,17.09c-3.085,1.539-5.433,4.241-6.526,7.511
		c-1.093,3.271-0.843,6.841,0.696,9.926l16.198,32.468c2.276,4.561,6.87,7.199,11.643,7.199c1.95,0,3.93-0.44,5.793-1.37
		l162.231-80.938c3.085-1.539,5.433-4.241,6.526-7.511c1.093-3.271,0.843-6.841-0.696-9.926l-12.962-25.981l34.256-17.09
		c3.085-1.539,5.433-4.241,6.526-7.511C269.507,61.043,269.257,57.473,267.718,54.388z"/>
	
		<rect id="XMLID_44_" x="100.131" y="30.697" transform="matrix(-0.8948 0.4464 -0.4464 -0.8948 294.733 28.2383)" class="st2" width="87.819" height="36.284"/>
	
		<rect id="XMLID_42_" x="16.481" y="72.43" transform="matrix(-0.8948 0.4464 -0.4464 -0.8948 154.8617 144.6577)" class="st3" width="87.819" height="36.284"/>
	
		<rect id="XMLID_41_" x="137.662" y="105.926" transform="matrix(-0.8948 0.4464 -0.4464 -0.8948 399.4321 154.0284)" class="st4" width="87.819" height="36.284"/>
	
		<rect id="XMLID_39_" x="54.012" y="147.658" transform="matrix(-0.8948 0.4464 -0.4464 -0.8948 259.5608 270.4478)" class="st5" width="87.819" height="36.284"/>
	
		<rect id="XMLID_21_" x="164.785" y="45.417" transform="matrix(-0.8948 0.4464 -0.4464 -0.8948 423.8137 27.2675)" class="st6" width="87.819" height="36.284"/>
	
		<rect id="XMLID_4_" x="81.136" y="87.15" transform="matrix(-0.8948 0.4464 -0.4464 -0.8948 283.943 143.6864)" class="st7" width="87.819" height="36.284"/>
</g>
</svg>
