<?xml version="1.0" encoding="utf-8"?>
<!-- Generator: Adobe Illustrator 21.0.0, SVG Export Plug-In . SVG Version: 6.00 Build 0)  -->
<svg version="1.1" id="Capa_1" xmlns="http://www.w3.org/2000/svg" xmlns:xlink="http://www.w3.org/1999/xlink" x="0px" y="0px"
	 viewBox="0 0 239.803 248.001" style="enable-background:new 0 0 239.803 248.001;" xml:space="preserve">
<style type="text/css">
	.st0{opacity:0.2;}
	.st1{fill:#FFFFFF;}
	.st2{fill:#333333;}
	.st3{fill:#666666;}
</style>
<g>
	<path class="st0" d="M12.342,248.001C5.526,248.001,0,242.475,0,235.659v-33.152c0-5.76,3.945-10.599,9.282-11.96
		c0.173-0.677,0.406-1.344,0.697-1.994l7.633-16.995C18.8,91.874,83.28,27.25,162.907,25.819l17.45-7.837
		c0.649-0.292,1.316-0.524,1.993-0.698c1.36-5.337,6.199-9.283,11.96-9.283h33.152c6.816,0,12.342,5.526,12.342,12.342v124.525
		c0,6.816-5.526,12.342-12.342,12.342H194.31c-5.761,0-10.598-3.946-11.96-9.282c-0.677-0.174-1.344-0.406-1.993-0.698l-17.146-7.7
		c-16.915,1.17-30.502,14.639-31.854,31.505l7.87,17.521c0.293,0.649,0.524,1.317,0.699,1.994c5.337,1.361,9.282,6.2,9.282,11.96
		v33.152c0,6.816-5.526,12.342-12.342,12.342H12.342z"/>
	<path class="st1" d="M12.342,240C5.526,240,0,234.474,0,227.658v-33.152c0-5.76,3.945-10.599,9.282-11.96
		c0.173-0.677,0.406-1.344,0.697-1.994l7.633-16.995C18.8,83.873,83.28,19.25,162.907,17.818l17.45-7.837
		c0.649-0.292,1.316-0.524,1.993-0.698C183.71,3.946,188.549,0,194.31,0h33.152c6.816,0,12.342,5.526,12.342,12.342v124.525
		c0,6.816-5.526,12.342-12.342,12.342H194.31c-5.761,0-10.598-3.946-11.96-9.282c-0.677-0.174-1.344-0.406-1.993-0.698l-17.146-7.7
		c-16.915,1.17-30.502,14.639-31.854,31.505l7.87,17.521c0.293,0.649,0.524,1.317,0.699,1.994c5.337,1.361,9.282,6.2,9.282,11.96
		v33.152c0,6.816-5.526,12.342-12.342,12.342H12.342z"/>
	<rect x="15.318" y="192.444" class="st2" width="121.078" height="32.234"/>
	<rect x="192.251" y="15.322" class="st2" width="32.234" height="121.078"/>
	<path class="st3" d="M164.341,32.623c-72.737,0-131.913,59.174-131.913,131.911h0.192l-8.651,19.259h103.776l-8.65-19.259h-0.163
		c0-25.037,20.37-45.406,45.409-45.406v-0.03l19.259,8.65V23.972L164.341,32.623z M155.299,109.256
		c-24.703,0-44.791,20.09-44.791,44.787c0,3.834-3.105,6.943-6.944,6.943c-3.838,0-6.942-3.109-6.942-6.943
		c0-32.352,26.32-58.672,58.678-58.672c3.828,0,6.942,3.108,6.942,6.942C162.241,106.147,159.127,109.256,155.299,109.256z"/>
</g>
</svg>
