<?xml version="1.0" encoding="utf-8"?>
<!-- Generator: Adobe Illustrator 21.0.0, SVG Export Plug-In . SVG Version: 6.00 Build 0)  -->
<svg version="1.1" id="Capa_1" xmlns="http://www.w3.org/2000/svg" xmlns:xlink="http://www.w3.org/1999/xlink" x="0px" y="0px"
	 viewBox="0 0 145.976 241.357" style="enable-background:new 0 0 145.976 241.357;" xml:space="preserve">
<style type="text/css">
	.st0{opacity:0.2;}
	.st1{fill:#FFFFFF;}
	.st2{fill:#00A5F5;}
</style>
<g>
	<path class="st0" d="M72.9,241.357c-41.48,0-67.711-31.767-72.186-63.146C-4,145.135,15.754,111.998,26.367,94.195
		c2.52-4.226,4.867-8.121,7.057-11.754c17.045-28.295,23.424-38.882,27.637-64.396c0.957-5.794,5.967-10.045,11.84-10.045h0.002
		c5.873,0.001,10.883,4.252,11.838,10.047c4.131,25.043,10.842,36.146,27.055,62.971c2.439,4.035,5.074,8.396,7.924,13.174
		c15.713,26.356,29.676,54.774,25.514,84.018C140.895,208.625,116.41,241.357,72.9,241.357z"/>
	<path class="st1" d="M72.9,233.356c-41.48,0-67.711-31.767-72.186-63.146C-4,137.135,15.754,103.997,26.367,86.194
		c2.52-4.226,4.867-8.121,7.057-11.754c17.045-28.295,23.424-38.882,27.637-64.396C62.018,4.251,67.027,0,72.9,0h0.002
		c5.873,0.001,10.883,4.252,11.838,10.047c4.131,25.043,10.842,36.146,27.055,62.971c2.439,4.035,5.074,8.396,7.924,13.174
		c15.713,26.356,29.676,54.774,25.514,84.018C140.895,200.624,116.41,233.356,72.9,233.356z"/>
	<path class="st2" d="M109.414,92.339C87.131,54.986,78.065,43.308,72.9,12c-5.17,31.308-13.943,42.986-36.226,80.339
		c-11.59,19.443-28.022,48.52-24.078,76.179c3.943,27.664,26.631,52.839,60.304,52.839c34.46,0,56.507-25.175,60.451-52.839
		C137.289,140.859,121.004,111.781,109.414,92.339z M34.471,133.999c3.466,0,6.276,2.81,6.276,6.276c0,3.466-2.81,6.276-6.276,6.276
		c-3.466,0-6.276-2.81-6.276-6.276C28.194,136.808,31.004,133.999,34.471,133.999z M76.272,208.736
		c-28.439,0-51.576-23.137-51.576-51.581c0-3.366,2.732-6.103,6.102-6.103c3.371,0,6.104,2.737,6.104,6.103
		c0,21.715,17.661,39.374,39.37,39.374c3.371,0,6.104,2.729,6.104,6.105C82.376,206.007,79.643,208.736,76.272,208.736z"/>
</g>
</svg>
