<?xml version="1.0" encoding="utf-8"?>
<!-- Generator: Adobe Illustrator 21.0.0, SVG Export Plug-In . SVG Version: 6.00 Build 0)  -->
<svg version="1.1" id="Capa_1" xmlns="http://www.w3.org/2000/svg" xmlns:xlink="http://www.w3.org/1999/xlink" x="0px" y="0px"
	 viewBox="0 0 431.873 337.322" style="enable-background:new 0 0 431.873 337.322;" xml:space="preserve">
<style type="text/css">
	.st0{fill-rule:evenodd;clip-rule:evenodd;fill:#AA0000;}
	.st1{fill-rule:evenodd;clip-rule:evenodd;fill:#CCCCCC;}
	.st2{opacity:0.2;fill-rule:evenodd;clip-rule:evenodd;}
	.st3{fill-rule:evenodd;clip-rule:evenodd;fill:#FFFFFF;}
	.st4{fill-rule:evenodd;clip-rule:evenodd;fill:#C96900;}
	.st5{fill-rule:evenodd;clip-rule:evenodd;fill:#FEE147;}
	.st6{fill-rule:evenodd;clip-rule:evenodd;fill:#FFD30E;}
	.st7{fill-rule:evenodd;clip-rule:evenodd;fill:#FFAC04;}
	.st8{fill-rule:evenodd;clip-rule:evenodd;fill:#FF5555;}
	.st9{fill-rule:evenodd;clip-rule:evenodd;fill:#E6E6E6;}
	.st10{fill-rule:evenodd;clip-rule:evenodd;fill:#FF2A2A;}
	.st11{fill-rule:evenodd;clip-rule:evenodd;fill:#FF8080;}
	.st12{fill-rule:evenodd;clip-rule:evenodd;fill:#FE8D00;}
	.st13{fill-rule:evenodd;clip-rule:evenodd;fill:#FEC31D;}
</style>
<g>
	<g>
		<g>
			<path class="st0" d="M110.103,0h211.429c7.8,0,5.414,26.362,5.414,39.544H104.689C104.689,26.362,103.356,0,110.103,0z"/>
			<path class="st1" d="M109.064,24.459c0.05-10.068,0.612-20.388,3.388-23.51C111.782,0.335,111.002,0,110.103,0
				c-4.654,0-5.464,12.54-5.517,24.647C106.058,24.582,107.551,24.519,109.064,24.459z"/>
			<path class="st1" d="M319.331,0.821c3.197,2.921,3.591,13.16,3.46,23.244c1.507,0.052,3,0.104,4.475,0.159
				C327.434,12.251,326.849,0,321.533,0C320.697,0,319.968,0.288,319.331,0.821z"/>
		</g>
		<g>
			<path class="st2" d="M37.99,334.704c-17.662-4.752-33.01-22.042-34.324-40.873c-4.785-68.552-4.882-145.364-0.317-218.282
				c1.37-21.894,17.938-39.77,39.249-43.04c61.885-9.497,284.793-9.497,346.677,0c21.312,3.27,37.882,21.147,39.251,43.04
				c4.562,72.917,4.465,149.731-0.318,218.282c-1.312,18.827-16.662,36.118-34.323,40.873
				C380.91,338.193,50.96,338.195,37.99,334.704z"/>
			<path class="st3" d="M39.031,329.575c-17.587-4.752-32.873-22.04-34.181-40.871C0.085,220.151-0.01,143.34,4.535,70.421
				C5.9,48.527,22.397,30.652,43.621,27.381c61.626-9.497,283.009-9.497,344.634,0c21.221,3.271,37.722,21.146,39.086,43.04
				c4.544,72.917,4.442,149.73-0.319,218.283c-1.307,18.824-16.593,36.121-34.177,40.871
				C379.926,333.063,51.948,333.065,39.031,329.575z"/>
			<path class="st4" d="M44.916,322.068c-17.083-4.616-31.93-21.405-33.203-39.702C7.081,215.778,6.99,143.443,11.408,72.613
				c1.325-21.265,17.354-38.632,37.967-41.808c59.862-9.226,273.264-9.226,333.126,0c20.613,3.176,36.643,20.548,37.967,41.808
				c4.413,70.83,4.317,143.165-0.307,209.753c-1.269,18.289-16.123,35.088-33.202,39.702
				C374.411,325.456,57.464,325.457,44.916,322.068z"/>
			<path class="st5" d="M8.191,152.146c0.171-23.384,1.244-47.905,3.217-79.534c1.325-21.266,17.354-38.632,37.967-41.808
				c59.862-9.224,273.264-9.224,333.126,0c20.613,3.176,36.643,20.547,37.967,41.808c1.97,31.629,3.043,56.15,3.214,79.534
				c-0.183,24.288-1.358,85.726-3.521,116.9c-1.269,18.286-16.121,35.087-33.203,39.702c-12.544,3.388-329.494,3.389-342.041,0
				c-17.083-4.615-31.93-21.407-33.202-39.702C9.546,237.874,8.371,176.434,8.191,152.146z"/>
			<path class="st6" d="M8.197,151.267c0.192-23.12,1.261-47.422,3.211-78.654c1.325-21.266,17.354-38.632,37.967-41.808
				c59.862-9.224,273.264-9.224,333.126,0c20.613,3.176,36.643,20.547,37.967,41.808c1.944,31.207,3.014,55.493,3.206,78.594
				c-0.202,24.003-1.375,85.238-3.513,116.047c-1.269,18.285-16.121,35.087-33.203,39.701c-12.544,3.388-329.494,3.389-342.041,0
				c-17.083-4.615-31.929-21.407-33.202-39.701C9.574,236.47,8.4,175.251,8.197,151.267z"/>
			<path class="st5" d="M52.166,35.486c65.02-8.825,271.355-8.688,330.334,0.401c20.613,3.176,36.644,20.542,37.967,41.809
				c0.488,7.849,0.924,16.704,1.303,26.324c-0.005-2.076-0.022-4.129-0.041-6.156c-0.37-9.208-0.792-17.695-1.262-25.252
				c-1.324-21.266-17.354-38.632-37.967-41.808c-59.862-9.226-273.264-9.226-333.126,0c-20.613,3.176-36.64,20.538-37.967,41.808
				c-0.645,10.314-1.192,22.348-1.644,35.59c-0.03,2.418-0.055,4.865-0.076,7.34c0.466-14.132,1.04-26.948,1.72-37.846
				c0.677-10.834,5.168-20.652,12.134-28.1c-1.072,2.514-1.23,5.005-0.253,7.159c2.69,5.931,12.929,7.086,22.872,2.579
				s15.824-12.968,13.138-18.896C58.13,37.861,55.538,36.186,52.166,35.486z"/>
			<path class="st7" d="M301.538,268.636c-55.477,0-250.39-13.789-291.94-35.712c0.549,10.643,1.254,21.944,2.115,34.33
				c1.273,18.295,16.119,35.087,33.202,39.701c12.547,3.389,329.497,3.388,342.041,0c17.082-4.615,31.936-21.415,33.203-39.701
				c0.353-5.09,0.681-9.998,0.982-14.753C386.414,262.73,357.016,268.636,301.538,268.636z"/>
		</g>
		<g>
			<path class="st2" d="M115.045,21.553c58.052-4.638,149.298-6.388,201.958,0.58c0.088,7.532,0.816,23.186,0.816,26.692
				c0,5.206-4.455,9.463-9.896,9.463h-91.988h-91.989c-5.443,0-9.895-4.257-9.895-9.463
				C114.051,45.376,114.945,28.953,115.045,21.553z"/>
			<path class="st3" d="M215.936,53.133h-90.308c-5.344,0-9.715-4.371-9.715-9.714c0-9.178,3.399-43.419-5.692-43.419h105.715
				H321.65c-9.09,0-5.693,34.24-5.693,43.419c0,5.343-4.371,9.714-9.716,9.714H215.936z"/>
			<path class="st8" d="M215.936,46.738h-84.938c-5.027,0-9.138-3.845-9.138-8.545C121.86,30.12,125.055,0,116.505,0h99.431h99.429
				c-8.549,0-5.353,30.12-5.353,38.193c0,4.7-4.112,8.545-9.138,8.545H215.936z"/>
			<path class="st9" d="M125.628,51.447c-5.168,0-9.426-4.089-9.701-9.192c-0.009,0.423-0.014,0.811-0.014,1.164
				c0,5.343,4.371,9.714,9.715,9.714h90.308h90.306c5.344,0,9.716-4.371,9.716-9.714c0-0.352-0.006-0.741-0.015-1.164
				c-0.274,5.103-4.532,9.192-9.701,9.192h-90.306H125.628z"/>
			<path class="st10" d="M207.614,39.544c-28.738-1.586-55.735-4.569-80.784-9.11c-1.553-0.281-3.099-0.568-4.637-0.862
				c-0.013,0.32-0.028,0.636-0.042,0.946c-0.146,3.225-0.291,5.952-0.291,7.675c0,0.459,0.039,0.911,0.114,1.35
				c0.698,4.064,4.488,7.195,9.023,7.195h84.938h84.938c4.409,0,8.114-2.959,8.957-6.858
				C273.794,41.348,239.625,41.31,207.614,39.544z"/>
			<path class="st11" d="M121.308,6.169c63.661-3.199,126.895-3.562,189.849-2.048C312.062,1.583,313.405,0,315.365,0h-198.86
				C118.95,0,120.434,2.462,121.308,6.169z"/>
		</g>
		<g>
			<path class="st5" d="M32.252,266.835C18.419,234.489,20.96,147.403,32.306,107.95c11.451-39.824,353.303-39.824,364.755,0
				c11.344,39.454,13.754,126.088,0.054,158.886C385.916,293.64,43.452,293.017,32.252,266.835z"/>
			<path class="st12" d="M32.252,258.467C18.419,226.123,20.96,139.036,32.306,99.582c11.451-39.824,353.303-39.824,364.755,0
				c11.344,39.454,13.754,126.088,0.054,158.886C385.916,285.274,43.452,284.65,32.252,258.467z"/>
			<path class="st13" d="M32.252,262.908c-13.833-32.765-11.292-120.978,0.054-160.943c11.451-40.34,353.303-40.34,364.755,0
				c11.344,39.965,13.754,127.72,0.054,160.943C385.916,290.06,43.452,289.429,32.252,262.908z"/>
		</g>
	</g>
</g>
</svg>
