<?xml version="1.0" encoding="utf-8"?>
<!-- Generator: Adobe Illustrator 22.0.1, SVG Export Plug-In . SVG Version: 6.00 Build 0)  -->
<svg version="1.1" id="Capa_1" xmlns="http://www.w3.org/2000/svg" xmlns:xlink="http://www.w3.org/1999/xlink" x="0px" y="0px"
	 viewBox="0 0 80.169 132.094" style="enable-background:new 0 0 80.169 132.094;" xml:space="preserve">
<g id="XMLID_528_">
	<g id="XMLID_274_">
		
			<path style="fill:#EFC392;stroke:#994900;stroke-width:0.5187;stroke-linecap:round;stroke-linejoin:round;stroke-miterlimit:10;" d="
			M78.743,83.373c-0.919-0.309-1.728-0.18-3.94,0.262c-2.805,0.562-4.45,0.742-5.047,0.592c-1.135-0.29-0.257-1.269-0.257-1.269
			c1.853-2.01,0.128-3.509,0.128-3.509s-2.088-1.886-2.295,0.824c-0.281,3.695-2.369,4.597-3.087,5.588
			c-0.501,0.692-0.549,1.731-0.314,2.461c0.101,0.314,0.288,0.731,0.196,1.146c-0.172,0.789,0.04,1.795,0.673,2.314
			c1.184,0.968,3.462,1.164,4.629,1.199c0.156,0.052,0.341,0.107,0.555,0.159c0.797,0.193,1.181,0.228,1.181,0.228
			c0.383,0.092,0.942-0.229,1.115-0.756l0.103-0.315c0.174-0.526-0.107-1.05-0.49-1.141c0,0-0.072-0.029-0.216-0.077
			c0.005-0.01,0.008-0.023,0.013-0.033c0.455,0.066,0.677,0.075,0.677,0.075c0.433,0.079,0.989-0.302,1.094-0.884l0.064-0.348
			c0.105-0.58-0.279-1.134-0.71-1.213c0,0-0.137-0.044-0.419-0.113c0.448,0.046,0.667,0.051,0.667,0.051
			c0.495,0.07,1.106-0.328,1.193-0.924l0.053-0.355c0.071-0.493-0.241-0.952-0.63-1.14c0.01-0.037,0.023-0.061,0.023-0.061
			c0.296-0.308,3.771,0.859,5.227,0.167C80.488,85.559,80.009,83.797,78.743,83.373z"/>
		<g id="XMLID_511_">
			
				<path id="XMLID_1156_" style="fill:#994900;stroke:#994900;stroke-width:0.5187;stroke-linecap:round;stroke-linejoin:round;stroke-miterlimit:10;" d="
				M68.71,84.966c0,0-0.314,2.994-2.704,4.059C66.006,89.025,68.396,88.367,68.71,84.966z"/>
			
				<path style="fill:#994900;stroke:#994900;stroke-width:0.5187;stroke-linecap:round;stroke-linejoin:round;stroke-miterlimit:10;" d="
				M68.396,91.675l0.102-0.315c0.095-0.287,0.464-0.675,0.915-0.654c0.008,0,0.236-0.016,0.643,0.036
				c0.231,0.079,0.553,0.17,0.982,0.248c0.155,0.029,0.291,0.051,0.419,0.072c0.136,0.04-0.398-0.217-0.695-0.288
				c-0.259-0.063-0.479-0.101-0.666-0.126c-0.285-0.097-0.431-0.174-0.434-0.176c-0.431-0.166-0.639-0.679-0.574-1.034l0.064-0.349
				c0.057-0.316,0.402-0.76,0.897-0.762c0.006-0.001,0.19-0.024,0.527-0.009c0.25,0.064,0.569,0.132,0.965,0.189
				c0.347,0.05,0.628,0.083,0.855,0.107c0.136,0.033-0.488-0.215-0.87-0.285c-0.39-0.072-0.702-0.102-0.94-0.113
				c-0.43-0.111-0.645-0.209-0.647-0.209c-0.506-0.163-0.774-0.681-0.722-1.044l0.051-0.355c0.048-0.326,0.414-0.783,0.981-0.799
				c0.012,0,0.589-0.081,1.671,0.074c1.017,0.147,1.488,0.276,1.492,0.278c0.011,0.002-0.456-0.229-1.477-0.377
				c-1.099-0.16-1.671-0.078-1.695-0.074c-0.564,0.015-1.01,0.468-1.072,0.884l-0.05,0.355c-0.004,0.022-0.006,0.045-0.007,0.071
				c-0.017,0.4,0.272,0.915,0.79,1.082c0.007,0.003,0.112,0.049,0.309,0.113c-0.102,0.005-0.162,0.012-0.168,0.013
				c-0.499,0.004-0.916,0.44-0.992,0.845l-0.062,0.349c-0.005,0.024-0.006,0.05-0.009,0.075c-0.033,0.384,0.181,0.89,0.642,1.067
				c0.003,0.002,0.035,0.02,0.096,0.048c-0.184-0.009-0.289-0.002-0.297-0.001c-0.455-0.022-0.895,0.36-1.016,0.727L68.3,91.651
				c-0.008,0.024-0.014,0.047-0.02,0.072c-0.079,0.35,0.053,0.819,0.449,1.004C68.739,92.734,68.19,92.364,68.396,91.675z"/>
		</g>
		<path id="XMLID_510_" style="fill:#CCCCCC;" d="M47.477,86.268c0,0,9.608,6.399,17.311-0.99l0.573,6.867
			c0,0-6.909,4.592-18.154-0.938L47.477,86.268z"/>
		<polygon id="XMLID_461_" style="fill:#FFFFFF;" points="64.788,85.278 65.36,92.242 63.334,93.118 62.746,86.815 		"/>
	</g>
	<path style="opacity:0.2;" d="M61.465,125.607c0,3.583-11.241,6.487-25.107,6.487c-13.865,0-25.105-2.904-25.105-6.487
		s11.241-6.487,25.105-6.487C50.225,119.121,61.465,122.025,61.465,125.607z"/>
	<g id="XMLID_1043_">
		<g id="XMLID_1386_">
			<g id="XMLID_1391_">
				<rect id="XMLID_1396_" x="26.269" y="110.812" style="fill:#0071BC;" width="6.697" height="15.432"/>
			</g>
			<rect id="XMLID_1390_" x="39.085" y="110.812" style="fill:#0071BC;" width="6.697" height="15.432"/>
			<path id="XMLID_1389_" style="fill:#0071BC;" d="M49.583,107.3c-1.583,7.178-6.113,6.812-12.766,6.812h-1.178
				c-0.614,0-1.216,0.003-1.793,0.003c-5.67,0-9.532-0.302-10.972-6.815H49.583z"/>
			<path id="XMLID_1388_" style="fill:#4C2B18;" d="M33.463,124.73c-0.196-0.256-0.453-0.529-0.788-0.737
				c-0.326-0.223-0.706-0.418-1.119-0.589c-0.413-0.171-0.86-0.327-1.334-0.435c-0.944-0.232-1.974-0.372-3.006-0.416
				c-0.517-0.018-1.05,0.012-1.54,0.042c-0.495,0.003-1.008,0.116-1.492,0.185c-0.244,0.036-0.474,0.125-0.701,0.192
				c-0.227,0.067-0.447,0.143-0.646,0.264c-0.419,0.185-0.762,0.47-1.042,0.755c-0.117,0.167-0.233,0.324-0.329,0.479
				c-0.057,0.175-0.111,0.34-0.162,0.495c-0.041,0.318-0.072,0.599-0.037,0.824c0.024,0.228,0.103,0.399,0.158,0.504
				c0.068,0.1,0.103,0.153,0.103,0.153s-0.008-0.016-0.016-0.033c0.011,0.017,0.023,0.033,0.035,0.05
				c-0.009-0.008-0.019-0.016-0.019-0.016s0.026,0.032,0.067,0.083c0.004,0.005,0.008,0.01,0.012,0.015
				c0.004,0.005,0.005,0.006,0.009,0.011c0.06,0.07,0.126,0.189,0.287,0.273c0.144,0.114,0.341,0.196,0.571,0.28
				c0.229,0.084,0.497,0.144,0.79,0.196c0.586,0.086,1.272,0.167,2.004,0.185c0.731,0.014,1.511,0.028,2.291,0.043
				c0.781-0.015,1.562-0.04,2.296-0.087c0.734-0.046,1.418-0.16,1.997-0.292c0.581-0.132,1.045-0.349,1.324-0.56
				c0.28-0.218,0.353-0.413,0.362-0.404c0,0-0.012,0.012-0.032,0.031c0.012-0.017,0.028-0.033,0.039-0.05
				c-0.002,0.005-0.007,0.019-0.007,0.019s0.009-0.015,0.02-0.035c0.006-0.01,0.011-0.02,0.017-0.03
				c0.014-0.026,0.03-0.053,0.053-0.094c0.034-0.051,0.067-0.116,0.079-0.206c0.016-0.081,0.055-0.202,0.034-0.31
				C33.754,125.297,33.634,124.999,33.463,124.73z"/>
			<path id="XMLID_1387_" style="fill:#4C2B18;" d="M50.768,124.966c-0.051-0.156-0.105-0.321-0.162-0.496
				c-0.096-0.154-0.213-0.312-0.329-0.479c-0.281-0.286-0.624-0.571-1.042-0.756c-0.2-0.121-0.419-0.196-0.647-0.263
				c-0.227-0.068-0.457-0.157-0.701-0.192c-0.485-0.069-0.998-0.182-1.493-0.185c-0.49-0.03-1.023-0.06-1.54-0.042
				c-1.033,0.045-2.062,0.184-3.006,0.416c-0.474,0.108-0.921,0.264-1.335,0.435c-0.413,0.172-0.793,0.366-1.119,0.59
				c-0.335,0.207-0.592,0.481-0.788,0.736c-0.171,0.269-0.291,0.567-0.278,0.784c-0.021,0.108,0.018,0.228,0.034,0.309
				c0.012,0.091,0.045,0.156,0.079,0.206c0.023,0.04,0.037,0.065,0.052,0.091c0.007,0.012,0.014,0.025,0.021,0.037
				c0.009,0.016,0.018,0.032,0.018,0.032s-0.005-0.012-0.006-0.017c0.01,0.016,0.024,0.03,0.035,0.045
				c-0.018-0.018-0.029-0.028-0.029-0.028c0.008-0.009,0.082,0.186,0.362,0.404c0.28,0.211,0.745,0.428,1.324,0.56
				c0.58,0.132,1.263,0.245,1.997,0.292c0.735,0.048,1.516,0.072,2.296,0.087c0.78-0.014,1.561-0.029,2.291-0.043
				c0.732-0.017,1.419-0.099,2.004-0.185c0.293-0.052,0.561-0.112,0.79-0.196c0.229-0.084,0.426-0.166,0.571-0.28
				c0.161-0.084,0.227-0.204,0.287-0.273c0.004-0.005,0.006-0.007,0.009-0.012c0.004-0.005,0.007-0.01,0.011-0.014
				c0.041-0.051,0.067-0.084,0.067-0.084s-0.01,0.009-0.02,0.016c0.012-0.017,0.025-0.033,0.036-0.05
				c-0.008,0.018-0.016,0.034-0.016,0.034s0.036-0.053,0.103-0.153c0.055-0.104,0.134-0.275,0.158-0.503
				C50.84,125.565,50.809,125.284,50.768,124.966z"/>
		</g>
		<g id="XMLID_1370_">
			<path id="XMLID_1380_" style="fill:#CCCCCC;" d="M25.318,85.78c0,0-18.405,8.161-9.11,21.975l2.868-4.665
				c0,0-3.995-7.97,5.23-13.462L25.318,85.78z"/>
		</g>
		<g id="XMLID_1323_">
			<g id="XMLID_1367_">
				<path id="XMLID_1369_" style="fill:#F7941E;" d="M50.212,99.139c0,3.399-0.213,6.068-0.629,8.161H22.874
					c-0.415-2.094-0.629-4.762-0.629-8.161c0-7.572,0.679-12.911,4.24-14.274c2.225-0.854,2.617-0.391,9.154-0.391h1.178
					c0.957,0,1.84-0.004,2.661-0.004c4.535,0,4.894-0.419,6.684,0.315C50.002,86.357,50.212,91.18,50.212,99.139z"/>
				<path id="XMLID_1368_" style="fill:#FFFFFF;" d="M50.208,98.69c-0.011,1.216-0.05,2.334-0.118,3.361H22.368
					c-0.071-1.027-0.109-2.146-0.12-3.361h3.66c-0.649-9.049,1.155-14.561,1.384-15.219c0.008-0.028,0.017-0.048,0.02-0.059
					l0.081,0.03l1.499,0.546l1.58,0.574c-0.02,0.056-1.86,5.314-1.19,14.127h13.964c0.669-8.813-1.172-14.071-1.191-14.127
					l3.157-1.15c0.092,0.249,2.083,5.84,1.406,15.277H50.208z"/>
			</g>
			<g id="XMLID_1324_">
				<polygon id="XMLID_1366_" style="fill:#CCCCCC;" points="35.788,87.721 40.197,91.95 48.32,85.419 				"/>
				<polygon id="XMLID_1325_" style="fill:#CCCCCC;" points="36.724,87.716 32.298,91.96 24.149,85.408 				"/>
			</g>
		</g>
		<g id="XMLID_1228_">
			<path id="XMLID_1252_" style="fill:#4C2B18;" d="M50.002,104.621c-0.103,0.993-0.242,1.883-0.419,2.679H22.874
				c-0.177-0.796-0.317-1.686-0.419-2.679H50.002z"/>
			<path id="XMLID_1229_" style="fill:#FFD825;" d="M37.83,107.858h-3.203c-1.027,0-1.863-0.836-1.863-1.863
				c0-1.095,0.836-1.931,1.863-1.931h3.203c1.028,0,1.864,0.836,1.864,1.864C39.694,107.022,38.858,107.858,37.83,107.858z
				 M34.627,104.996c-0.514,0-0.932,0.419-0.932,0.932c0,0.58,0.418,0.998,0.932,0.998h3.203c0.514,0,0.932-0.418,0.932-0.931
				c0-0.58-0.419-0.999-0.932-0.999H34.627z"/>
		</g>
		<g id="XMLID_1044_">
			<g id="XMLID_1116_">
				
					<path id="XMLID_1117_" style="fill:#EFC392;stroke:#994900;stroke-width:0.5187;stroke-linecap:round;stroke-linejoin:round;stroke-miterlimit:10;" d="
					M27.164,108.072c-0.034,0.239-0.235,0.546-0.59,0.536c-0.47-0.009-1.724-0.111-2.74-0.418c0,0,1.418,0.612,2.466,0.852
					c0.307,0.068,0.808,0.196,0.808,0.658c0,0,0.129,0.829-0.732,0.732c0,0-0.41-0.003-0.78-0.115
					c-0.925-0.277-2.732-1.025-3.025-1.168c0,0,1.926,0.992,2.6,1.229c0.672,0.236,0.701,0.406,0.652,0.803
					c-0.053,0.397-0.196,0.68-0.713,0.598c-0.45-0.077-0.679-0.223-0.679-0.223l-2.945-1.483l1.591,0.921
					c0,0,0.518,0.185,0.457,0.605c-0.067,0.417-0.391,0.615-0.786,0.609c-0.353-0.008-0.619-0.065-0.945-0.318
					c-0.33-0.255-1.792-1.052-1.792-1.052s-0.349-0.32-0.703-0.643c-0.363-0.334-1.991-1.592-1.785-2.913c0,0-0.02-0.843,0.79-1.488
					l0.123-0.445c0,0,0.246-1.105,1.681-1.029c0,0,0.647,0.033,1.014,0.067c0.33,0.033,0.848,0.07,1.504,0.125l-0.056,1.334
					c-0.125-0.06-0.226-0.099-0.25-0.099c-0.097-0.005-0.22,0.225-0.019,0.385c0,0,0.57,0.409,1.286,0.628
					c0.207,0.063,1.927,0.356,2.965,0.503C27.272,107.365,27.197,107.853,27.164,108.072z"/>
			</g>
			<polygon id="XMLID_1115_" style="fill:#FFFFFF;" points="19.959,103.912 19.076,103.091 16.208,107.756 16.943,108.513 			"/>
		</g>
	</g>
	<g id="XMLID_529_">
		
			<path id="XMLID_1042_" style="fill:#EFC392;stroke:#994900;stroke-width:0.5187;stroke-linecap:round;stroke-linejoin:round;stroke-miterlimit:10;" d="
			M63.901,65.505c-0.108,0.123-0.219,0.245-0.335,0.366c-0.116,0.123-0.235,0.243-0.361,0.364c-0.123,0.119-0.253,0.241-0.386,0.36
			c-0.134,0.119-0.272,0.238-0.415,0.356c-0.143,0.118-0.292,0.235-0.444,0.352c-0.153,0.117-0.31,0.231-0.472,0.346
			c-0.002-0.642-0.004-1.285-0.006-1.926c-0.003-0.642-0.004-1.284-0.006-1.926c-0.002-0.641-0.004-1.282-0.006-1.924
			c-0.003-0.642-0.004-1.284-0.006-1.926c-0.002-0.641-0.004-1.284-0.006-1.925c-0.003-0.642-0.004-1.284-0.006-1.926
			c0,0,0.05-0.082,0.141-0.208c0.09-0.128,0.223-0.3,0.388-0.482c0.166-0.181,0.363-0.37,0.585-0.531
			c0.223-0.162,0.47-0.295,0.732-0.364c0.261-0.068,0.54-0.071,0.825,0.028c0.285,0.099,0.579,0.299,0.87,0.637
			c0.217,0.254,0.434,0.593,0.625,1.003c0.193,0.41,0.362,0.889,0.483,1.423c0.122,0.532,0.197,1.12,0.204,1.744
			c0.007,0.624-0.056,1.284-0.209,1.965c-0.155,0.68-0.399,1.382-0.759,2.086C64.982,64.102,64.51,64.809,63.901,65.505z"/>
		
			<path id="XMLID_1021_" style="fill:#EFC392;stroke:#994900;stroke-width:0.5187;stroke-linecap:round;stroke-linejoin:round;stroke-miterlimit:10;" d="
			M9.315,65.844c0.108,0.122,0.22,0.243,0.337,0.365c0.115,0.12,0.236,0.241,0.362,0.36c0.126,0.12,0.256,0.239,0.389,0.358
			c0.135,0.118,0.274,0.236,0.418,0.353c0.143,0.117,0.292,0.233,0.446,0.348c0.152,0.116,0.31,0.23,0.474,0.344
			c-0.001-0.642-0.004-1.284-0.006-1.926c-0.001-0.641-0.004-1.284-0.006-1.926c-0.001-0.641-0.004-1.283-0.006-1.924
			c-0.001-0.642-0.003-1.284-0.006-1.927c-0.001-0.641-0.003-1.283-0.006-1.924c-0.001-0.641-0.003-1.284-0.006-1.925
			c0,0-0.051-0.082-0.141-0.208c-0.092-0.127-0.225-0.298-0.391-0.479c-0.165-0.179-0.365-0.367-0.589-0.528
			c-0.222-0.16-0.471-0.292-0.733-0.359C9.588,54.781,9.31,54.78,9.025,54.88c-0.285,0.1-0.576,0.302-0.866,0.643
			c-0.216,0.254-0.431,0.595-0.621,1.006c-0.189,0.41-0.355,0.891-0.473,1.425c-0.119,0.533-0.19,1.122-0.193,1.745
			c-0.003,0.623,0.064,1.283,0.221,1.964c0.159,0.679,0.407,1.379,0.771,2.082C8.226,64.447,8.702,65.152,9.315,65.844z"/>
		
			<path id="XMLID_1020_" style="fill:#EFC392;stroke:#994900;stroke-width:0.5187;stroke-linecap:round;stroke-linejoin:round;stroke-miterlimit:10;" d="
			M18.061,80.688c-1.814-1.936-3.329-4.185-4.546-6.683c-1.203-2.471-2.114-5.185-2.732-8.076c-0.605-2.827-0.929-5.827-0.972-8.932
			c-0.047-3.115,0.252-6.236,0.937-9.277c0.668-2.956,1.675-5.737,2.977-8.279c1.302-2.542,2.898-4.844,4.745-6.84
			c1.56-1.686,3.298-3.153,5.188-4.359c1.904-1.217,3.962-2.17,6.145-2.818c2.23-0.662,4.544-0.98,6.87-0.987
			c2.372,0.001,4.65,0.34,6.808,0.977c2.157,0.637,4.193,1.572,6.08,2.764c1.887,1.193,3.626,2.645,5.19,4.314
			c1.858,1.984,3.469,4.276,4.786,6.81c1.317,2.535,2.341,5.311,3.028,8.261c0.703,3.037,1.022,6.155,0.993,9.271
			c-0.025,3.107-0.331,6.107-0.919,8.939c-0.6,2.894-1.494,5.614-2.683,8.092c-1.203,2.505-2.703,4.763-4.506,6.71
			c-1.497,1.618-3.202,3.019-5.115,4.165c-1.914,1.147-4.034,2.04-6.361,2.639c-2.464,0.635-5.017,0.902-7.559,0.881
			c-2.559-0.02-4.934-0.335-7.125-0.913c-2.256-0.594-4.316-1.466-6.182-2.582C21.225,83.641,19.543,82.269,18.061,80.688z"/>
		<path id="XMLID_1018_" style="fill:#482E1D;" d="M70.401,51.926l0.013-1.255l0.024-2.194c-0.01-0.732,0.053-1.469-0.018-2.201
			l-0.169-2.202c-0.035-0.367-0.046-0.737-0.117-1.1l-0.175-1.096l-0.177-1.097c-0.048-0.368-0.138-0.729-0.226-1.091l-0.258-1.088
			c-0.09-0.362-0.162-0.729-0.285-1.085c-0.24-0.714-0.415-1.441-0.712-2.149c-0.015-0.036-0.028-0.073-0.042-0.109l1.725-0.261
			l0.612-0.251l0.309-1.629l0.091-1.312c-0.116-0.374-0.194-0.759-0.355-1.121l-0.439-1.1c-0.132-0.373-0.337-0.716-0.515-1.071
			c-0.191-0.348-0.351-0.715-0.573-1.047l-0.656-1.002c-0.212-0.34-0.487-0.634-0.729-0.953c-0.246-0.317-0.502-0.625-0.786-0.907
			c-0.282-0.284-0.543-0.592-0.846-0.855l-0.902-0.796l-0.958-0.725c-0.327-0.23-0.67-0.437-1.005-0.655
			c-0.214-0.129-0.434-0.247-0.653-0.368l0.465-0.312l2.569-1.724l-2.534-1.722L62.1,16.782c-0.323-0.232-0.664-0.418-1.004-0.609
			c-0.341-0.184-0.675-0.399-1.025-0.555l-1.046-0.493c-0.35-0.161-0.707-0.288-1.061-0.433c-0.354-0.146-0.71-0.278-1.07-0.391
			c-0.716-0.252-1.438-0.463-2.165-0.651c-0.363-0.098-0.728-0.169-1.092-0.255c-0.364-0.087-0.73-0.156-1.096-0.222
			c-0.731-0.143-1.464-0.25-2.2-0.348c-0.62-0.079-1.242-0.137-1.866-0.188l0.241-1.717l0.356-2.537l-2.467-0.06
			c-0.831-0.02-1.667-0.105-2.495-0.063l-1.243,0.034l-1.234,0.106c-0.413,0.03-0.821,0.078-1.226,0.144
			c-0.407,0.061-0.815,0.114-1.219,0.184l-1.203,0.247c-0.403,0.075-0.794,0.191-1.19,0.287c-0.396,0.099-0.792,0.2-1.179,0.323
			c-0.389,0.121-0.782,0.227-1.166,0.36c-0.772,0.255-1.534,0.535-2.289,0.834c-0.527,0.215-1.05,0.443-1.57,0.679l-0.313-1.691
			L29.706,6.66l-2.638,1.469l-2.323,1.294l-1.159,0.649c-0.379,0.227-0.731,0.493-1.098,0.738l-2.174,1.501
			c-0.691,0.541-1.37,1.098-2.053,1.647c-0.336,0.282-0.696,0.536-1.01,0.842l-0.969,0.887c-0.65,0.586-1.291,1.181-1.892,1.819
			c-0.616,0.621-1.225,1.249-1.8,1.917c-0.113,0.128-0.226,0.254-0.339,0.381l-1.855-1.737l-1.11,2.155
			c-0.368,0.716-0.791,1.408-1.1,2.144l-0.489,1.092L7.27,24.566c-0.15,0.368-0.265,0.744-0.389,1.118
			c-0.117,0.375-0.258,0.745-0.354,1.125c-0.216,0.754-0.419,1.51-0.584,2.272c-0.178,0.759-0.319,1.525-0.449,2.29
			c-0.13,0.765-0.232,1.533-0.322,2.302c-0.083,0.77-0.14,1.542-0.178,2.316c-0.01,0.217-0.015,0.436-0.022,0.654L3.72,36.44
			L1.89,36.143l0.223,1.715l0.227,1.746c0.085,0.581,0.133,1.165,0.247,1.741l0.31,1.73c0.096,0.577,0.229,1.149,0.369,1.718
			l0.405,1.707l0.479,1.688c0.155,0.563,0.323,1.122,0.516,1.674l0.559,1.658l0.627,1.633c0.205,0.545,0.459,1.072,0.687,1.607
			c0.226,0.536,0.478,1.06,0.735,1.582c0.248,0.525,0.508,1.044,0.787,1.554c0.53,1.032,1.133,2.026,1.758,3
			c0.633,0.969,1.293,1.921,2.044,2.796c0,0-1.054-14.33,6.373-18.08c3-1.514,7.795,0.645,18.373,0.613
			c11.852-0.036,16.638-1.788,19.344,0.33c2.568,2.011,5.813,5.029,5.165,16.988l1.079-1.519l0.534-0.762
			c0.173-0.258,0.367-0.501,0.523-0.77l0.985-1.596l0.487-0.806l0.439-0.83l0.439-0.832c0.143-0.279,0.303-0.551,0.426-0.841
			l0.783-1.723l0.345-0.888c0.111-0.298,0.24-0.588,0.329-0.898l0.288-0.921c0.003-0.013,0.007-0.025,0.01-0.038l1.46,0.449
			L70.401,51.926z"/>
		<path id="XMLID_1017_" d="M49.007,74.569c0.006,1.902-1.037,4.591-3.154,6.776c-2.045,2.116-5.095,3.759-9.172,3.772
			c-4.077,0.012-7.136-1.613-9.195-3.716c-2.128-2.173-3.188-4.856-3.193-6.758c-0.006-1.737,1.187-2.142,3.151-2.076l0.017,0
			c0.002-0.001,0.002-0.001,0.002-0.001c2.262,0.078,5.539,0.77,9.184,0.759c3.532-0.011,6.716-0.679,8.967-0.802l0.007,0
			c0.004,0,0.008,0,0.011,0C47.72,72.408,49.001,72.77,49.007,74.569z"/>
		<path id="XMLID_1006_" style="fill:#FFFFFF;" d="M28.593,75.101c0.446,0.365,1.031,0.637,1.759,0.836
			c0.68,0.188,1.488,0.311,2.433,0.39c0.865,0.071,1.843,0.106,2.942,0.113c0.267,0.003,0.542,0.003,0.825,0.003
			c1.09-0.004,2.067-0.025,2.941-0.077c1.197-0.069,2.198-0.197,3.025-0.406c0.826-0.212,1.48-0.507,1.978-0.919
			c0.126-0.102,0.242-0.214,0.348-0.334c0.113-0.124,0.217-0.26,0.305-0.404c0.094-0.152,0.167-0.308,0.223-0.462
			c0.057-0.157,0.098-0.312,0.128-0.465c0.031-0.15,0.052-0.299,0.07-0.443c0.018-0.145,0.029-0.282,0.043-0.41
			c-0.796,0.043-1.708,0.155-2.711,0.283c-1.005,0.127-2.099,0.266-3.259,0.371c-0.96,0.087-1.963,0.145-2.999,0.149
			c-0.183,0-0.366-0.002-0.548-0.004c-1.097-0.016-2.157-0.092-3.161-0.19c-1.042-0.103-2.025-0.227-2.929-0.333
			c-0.943-0.113-1.797-0.205-2.543-0.229c0.014,0.13,0.027,0.266,0.047,0.41c0.019,0.143,0.043,0.292,0.077,0.444
			c0.032,0.151,0.076,0.31,0.134,0.465c0.058,0.155,0.131,0.313,0.224,0.468c0.087,0.145,0.188,0.282,0.301,0.41
			C28.349,74.886,28.465,74.996,28.593,75.101z"/>
		<g id="XMLID_986_">
			<path id="XMLID_1005_" style="fill:#FFFFFF;" d="M72.074,41.472c0.004,0.992-0.024,1.978-0.081,2.953
				c-6.82-2.139-20.462-3.57-36.17-3.522c-15.178,0.046-28.416,1.46-35.435,3.521c-0.053-0.903-0.082-1.817-0.085-2.736
				C0.233,18.762,16.254,3.333,36.072,3.272C55.894,3.213,72.004,18.546,72.074,41.472z"/>
			<path id="XMLID_1003_" style="fill:#B3B3B3;" d="M36.209,49.15C13.682,49.218,4.867,49.526,0.312,45.55
				c-2.814-2.457,13.705-5.419,36.232-5.487c22.529-0.067,39.065,2.794,36.265,5.268c-4.53,4.003-13.347,3.748-35.874,3.816
				L36.209,49.15z"/>
			<path id="XMLID_1002_" style="fill:#808080;" d="M0.354,43.772c0,0,1.083-0.322,2.988-0.85c0.966-0.221,2.14-0.489,3.485-0.797
				c1.354-0.263,2.88-0.574,4.556-0.848c1.68-0.24,3.493-0.572,5.428-0.768c0.967-0.113,1.96-0.229,2.975-0.348
				c1.015-0.116,2.057-0.181,3.114-0.275c2.115-0.194,4.305-0.314,6.533-0.419c2.233-0.097,4.485-0.122,6.77-0.16
				c1.128,0.018,2.256,0.036,3.38,0.054c1.122,0.01,2.244,0.039,3.362,0.101c2.234,0.084,4.428,0.222,6.542,0.41
				c2.118,0.141,4.157,0.394,6.089,0.62c1.935,0.202,3.749,0.53,5.428,0.771c1.675,0.279,3.202,0.589,4.555,0.855
				c1.343,0.311,2.515,0.583,3.479,0.806c1.908,0.541,2.986,0.87,2.986,0.87s-1.116-0.199-3.048-0.579
				c-0.975-0.149-2.158-0.33-3.515-0.537c-1.363-0.163-2.899-0.346-4.576-0.546c-0.84-0.081-1.715-0.166-2.621-0.253
				c-0.905-0.093-1.839-0.191-2.805-0.253c-1.928-0.149-3.96-0.31-6.066-0.413c-1.052-0.054-2.122-0.134-3.205-0.168
				c-1.081-0.036-2.177-0.072-3.28-0.109c-2.201-0.11-4.472-0.061-6.724-0.102c-2.227,0.021-4.49,0.027-6.697,0.106
				c-2.211,0.098-4.39,0.131-6.494,0.285c-2.106,0.111-4.139,0.256-6.066,0.415c-0.965,0.064-1.901,0.155-2.806,0.25
				c-0.905,0.087-1.781,0.172-2.621,0.253c-1.677,0.198-3.214,0.38-4.577,0.54c-1.357,0.203-2.54,0.381-3.513,0.527
				C1.468,43.58,0.354,43.772,0.354,43.772z"/>
			<path id="XMLID_987_" style="fill:#E6E6E6;" d="M33.139,0.018c-2.799,0.009-4.578,2.246-3.956,4.976l3.289,25.656
				c0.623,2.726,6.743,2.708,7.349-0.023l3.152-25.675C43.579,2.219,41.785-0.008,38.987,0L33.139,0.018z"/>
		</g>
		<g id="XMLID_549_">
			<path id="XMLID_802_" style="fill:#482E1D;" d="M28.818,53.886c1.124-1.874-2.743-3.383-5.045-3.431
				c-2.301-0.048-5.461,4.235-4.971,5.268c0.49,1.034,2.348-2.815,5.161-2.756S27.758,55.654,28.818,53.886z"/>
			<g id="XMLID_593_">
				<path id="XMLID_801_" style="fill:#FFFFFF;" d="M23.818,56.156c-6.761,1.789-6.467,11.441,0.879,11.422
					C32.042,67.559,31.686,54.074,23.818,56.156z"/>
				<path id="XMLID_800_" d="M27.491,61.768c-0.042,1.994-1.355,3.583-2.933,3.55c-1.578-0.033-2.824-1.676-2.782-3.67
					c0.042-1.994,1.355-3.583,2.933-3.55C26.287,58.131,27.532,59.774,27.491,61.768z"/>
				<path id="XMLID_595_" style="fill:#FFFFFF;" d="M24.921,59.909c-0.02,0.941-0.799,1.689-1.74,1.669
					c-0.941-0.02-1.689-0.799-1.669-1.74c0.02-0.941,0.799-1.689,1.74-1.669C24.194,58.188,24.941,58.967,24.921,59.909z"/>
				<path id="XMLID_594_" style="fill:#FFFFFF;" d="M26.256,63.247c-0.008,0.36-0.305,0.646-0.665,0.638
					c-0.36-0.007-0.646-0.305-0.638-0.665c0.008-0.36,0.305-0.646,0.665-0.638C25.978,62.589,26.263,62.887,26.256,63.247z"/>
			</g>
			<path id="XMLID_567_" style="fill:#482E1D;" d="M43.479,53.59c-1.044-1.92,2.882-3.265,5.184-3.217
				c2.301,0.048,5.279,4.459,4.746,5.472c-0.533,1.012-2.228-2.911-5.041-2.97C45.555,52.816,44.464,55.402,43.479,53.59z"/>
			<g id="XMLID_551_">
				<path id="XMLID_566_" style="fill:#FFFFFF;" d="M48.38,56.068c6.681,2.07,5.983,11.702-1.356,11.375
					C39.686,67.117,40.606,53.659,48.38,56.068z"/>
				
					<ellipse id="XMLID_564_" transform="matrix(0.0209 -0.9998 0.9998 0.0209 -14.9363 107.9228)" cx="47.634" cy="61.587" rx="3.611" ry="2.859"/>
				<path id="XMLID_563_" style="fill:#FFFFFF;" d="M47.923,59.788c-0.02,0.941-0.799,1.689-1.74,1.669
					c-0.941-0.02-1.689-0.799-1.669-1.74c0.02-0.941,0.799-1.689,1.74-1.669C47.195,58.067,47.942,58.846,47.923,59.788z"/>
				<path id="XMLID_552_" style="fill:#FFFFFF;" d="M49.257,63.126c-0.008,0.36-0.305,0.646-0.665,0.638
					c-0.36-0.007-0.646-0.305-0.638-0.665c0.008-0.36,0.305-0.646,0.665-0.638C48.979,62.468,49.265,62.766,49.257,63.126z"/>
			</g>
		</g>
		<path id="XMLID_548_" style="fill:#C4884D;" d="M33.372,67.867c0.361-0.46,1.387,0.832,2.989,0.965
			c1.602,0.134,2.34-1.556,3.033-1.14c0.694,0.416-0.756,2.592-3.167,2.743C33.817,70.585,33.063,68.262,33.372,67.867z"/>
	</g>
</g>
</svg>
