<?xml version="1.0" encoding="utf-8"?>
<!-- Generator: Adobe Illustrator 21.0.0, SVG Export Plug-In . SVG Version: 6.00 Build 0)  -->
<svg version="1.1" xmlns="http://www.w3.org/2000/svg" xmlns:xlink="http://www.w3.org/1999/xlink" x="0px" y="0px"
	 viewBox="0 0 160.477 274.915" style="enable-background:new 0 0 160.477 274.915;" xml:space="preserve">
<style type="text/css">
	.st0{opacity:0.2;}
	.st1{fill:#0071BC;}
	.st2{fill:#4C2B18;}
	.st3{fill:#EFC392;stroke:#994900;stroke-linecap:round;stroke-linejoin:round;stroke-miterlimit:10;}
	.st4{fill:#994900;stroke:#994900;stroke-linecap:round;stroke-linejoin:round;stroke-miterlimit:10;}
	.st5{fill:#CCCCCC;}
	.st6{fill:#FFFFFF;}
	.st7{fill:#F7941E;}
	.st8{fill:#F1F2F2;}
	.st9{fill:#D1D3D4;}
	.st10{fill:#FFD825;}
	.st11{fill:#482E1D;}
	.st12{fill:#B3B3B3;}
	.st13{fill:#808080;}
	.st14{fill:#E6E6E6;}
	.st15{fill:#C4884D;}
	.st16{fill:none;}
	.st17{clip-path:url(#XMLID_3_);fill:#FFFFFF;}
</style>
<g id="Sombra">
	
		<ellipse id="XMLID_18_" transform="matrix(1 -0.0098 0.0098 1 -2.5879 0.9951)" class="st0" cx="100.511" cy="265.253" rx="48.407" ry="9.651"/>
</g>
<g id="Cuerpo-Cabeza">
	<g id="XMLID_591_">
		<g id="XMLID_592_">
			<g id="XMLID_874_">
				<path id="XMLID_875_" class="st1" d="M82.535,240.255l-12.69-0.395c0,0-3.675-5.802-3.675-14.424
					c0-7.658,4.586-14.82,4.586-14.82l12.69,0.395c0,0-4.293,8.418-4.574,14.424C78.568,231.923,82.535,240.255,82.535,240.255z"/>
			</g>
			<path id="XMLID_873_" class="st1" d="M124.421,231.676l9.571-8.344c0,0-1.765-10.055-6.029-14.66
				c-5.463-5.899-13.198-7.394-13.198-7.394l-9.571,8.343c0,0,8.373,2.456,13.284,7.494
				C123.009,221.761,124.421,231.676,124.421,231.676z"/>
			<path id="XMLID_770_" class="st2" d="M83.839,237.443c-0.037-0.099-0.077-0.204-0.118-0.313
				c-0.057-0.105-0.139-0.211-0.215-0.326c-0.142-0.249-0.378-0.411-0.598-0.635c-0.497-0.357-1.111-0.713-1.832-0.913
				c-0.354-0.133-0.736-0.19-1.128-0.294c-0.395-0.057-0.805-0.139-1.228-0.168c-0.845-0.081-1.742-0.112-2.663-0.06
				c-0.922,0.04-1.87,0.139-2.825,0.287c-0.953,0.162-1.913,0.362-2.863,0.606c-0.473,0.138-0.939,0.256-1.416,0.414
				c-0.458,0.158-0.909,0.283-1.368,0.468c-0.457,0.171-0.912,0.34-1.341,0.548c-0.438,0.187-0.857,0.406-1.267,0.626
				c-0.814,0.451-1.577,0.949-2.209,1.548c-0.638,0.586-1.155,1.256-1.468,1.962c-0.324,0.702-0.416,1.428-0.353,2.039
				c0.062,0.611,0.206,1.125,0.39,1.515c0.072,0.196,0.2,0.364,0.28,0.507c0.112,0.128,0.199,0.24,0.281,0.321
				c0.177,0.145,0.271,0.221,0.271,0.221s-0.022-0.025-0.048-0.053c0.036,0.03,0.073,0.059,0.111,0.086
				c-0.041-0.022-0.062-0.033-0.062-0.033c0.009-0.018,0.246,0.299,0.893,0.513c0.637,0.197,1.611,0.258,2.726,0.109
				c1.119-0.133,2.397-0.41,3.742-0.757c1.348-0.342,2.765-0.761,4.181-1.182c0.705-0.227,1.41-0.455,2.104-0.678
				c0.694-0.225,1.368-0.482,2.02-0.728c1.301-0.501,2.498-1.043,3.468-1.621c0.49-0.279,0.914-0.587,1.268-0.883
				c0.354-0.298,0.63-0.595,0.83-0.861c0.189-0.273,0.313-0.505,0.355-0.677c0.053-0.166,0.081-0.254,0.081-0.254
				s-0.016,0.029-0.042,0.075c0.016-0.045,0.04-0.088,0.052-0.133c-0.005,0.026-0.011,0.058-0.011,0.058s0.046-0.113,0.093-0.336
				C83.975,238.215,84.004,237.861,83.839,237.443z"/>
			<path id="XMLID_771_" class="st2" d="M140.997,216.928c0,0,0,0.023,0,0.068c0-0.044,0.279-0.088,0.271-0.132
				c0.011,0.032,0.168,0.064,0.168,0.064s0.051-0.12,0.01-0.345c-0.03-0.11-0.05-0.241-0.107-0.4
				c-0.086-0.141-0.152-0.334-0.289-0.492c-0.251-0.352-0.622-0.726-1.126-1.077c-0.503-0.352-1.179-0.624-1.95-0.681
				c-0.769-0.069-1.604,0.057-2.426,0.332c-0.831,0.261-1.636,0.686-2.425,1.18c-0.391,0.251-0.786,0.512-1.162,0.803
				c-0.39,0.274-0.758,0.589-1.13,0.906c-0.384,0.311-0.711,0.645-1.073,0.969c-0.369,0.34-0.698,0.69-1.049,1.037
				c-0.674,0.713-1.314,1.456-1.918,2.21c-0.594,0.763-1.14,1.544-1.622,2.331c-0.493,0.78-0.901,1.579-1.24,2.358
				c-0.179,0.384-0.307,0.782-0.449,1.155c-0.099,0.392-0.234,0.755-0.29,1.129c-0.175,0.728-0.162,1.438-0.091,2.046
				c0.124,0.592,0.357,1.155,0.661,1.432c0.285,0.346,0.61,0.494,0.828,0.565c0.218,0.066,0.339,0.081,0.339,0.081
				s-0.031,0.076-0.053,0.069c0.043,0.01,0.089,0.105,0.133,0.105c-0.05,0-0.08,0-0.08,0s0.091-0.069,0.261-0.034
				c0.171,0.047,0.434,0.006,0.765-0.025c0.329-0.046,0.724-0.164,1.155-0.33c0.431-0.166,0.906-0.397,1.387-0.69
				c0.977-0.568,2.031-1.357,3.101-2.251c0.532-0.45,1.083-0.917,1.617-1.414c0.533-0.499,1.073-1.006,1.614-1.512
				c1.056-1.033,2.111-2.07,3.062-3.083c0.957-1.007,1.818-1.991,2.479-2.904c0.671-0.902,0.799-1.784,0.935-2.437
				C141.431,217.288,140.997,216.927,140.997,216.928z"/>
			<g id="XMLID_822_">
				<path class="st3" d="M2.525,154.819c-0.047,0.008-0.096,0.014-0.141,0.029c-0.989,0.218-1.851,1.148-1.884,2.215
					c0.001,0.063,0.003,0.127,0.007,0.192c0.025,0.15,0.06,0.294,0.108,0.441c0.304,0.673,0.819,1.264,1.544,1.775
					c0.275,0.169,0.541,0.343,0.804,0.52c0.245,0.128,0.539,0.264,0.853,0.395c2.803,1.995,4.988,4.79,8.261,5.252
					c4.248,0.598,7.851-1.7,8.189-5.254c1.254-0.485,2.685-1.496,3.268-3.509c0.229-1.185,0.382-1.641,0.089-3.314
					c-0.75-2.051-1.573-3.277-3.512-4.823c-1.243-0.992-2.511-1.308-3.503-1.224c-0.662-1.606-3.371-4.382-5.258-4.839
					c-0.401-0.1-0.776-0.045-1.267,0.064c-0.286,0.06-0.91,0.552-1.19,0.853c0,0-0.813,0.75-0.81,1.623
					c0.002,0.437,0.028,0.533,0.201,0.881c-0.353-0.169-0.701-0.283-1.033-0.315c-0.608,0.031-1.187,0.295-1.655,0.698
					c-1.035,0.807-1.59,2.29-0.835,3.618c-0.093-0.029-0.188-0.065-0.277-0.083c-1.255-0.056-2.486,0.79-2.735,2.072
					c-0.028,0.148-0.044,0.301-0.036,0.448c0.002,0.252,0.047,0.503,0.125,0.745l0.004,0.012c0.001,0.003,0.003,0.006,0.004,0.009
					c0.006,0.025,0.006,0.051,0.013,0.076l0.005,0.01c0.184,0.567,0.544,1.088,0.951,1.501L2.525,154.819z"/>
				<g id="XMLID_858_">
					<path id="XMLID_859_" class="st4" d="M18.305,151.561c0,0-0.321,0.279-0.835,0.635c-0.516,0.352-1.226,0.8-2.001,1.072
						c-0.19,0.075-0.386,0.137-0.581,0.189c-0.193,0.063-0.393,0.079-0.579,0.12c-0.192,0.021-0.376,0.038-0.55,0.055
						c-0.177,0-0.344-0.004-0.497-0.003c-0.311-0.043-0.58-0.049-0.75-0.102c-0.181-0.039-0.283-0.06-0.283-0.06
						s0.097,0.041,0.268,0.113c0.173,0.08,0.429,0.14,0.737,0.209c0.326,0.045,0.699,0.083,1.104,0.039
						c0.199-0.034,0.41-0.049,0.614-0.109c0.207-0.045,0.416-0.106,0.618-0.178c0.401-0.155,0.786-0.351,1.125-0.564
						c0.343-0.208,0.631-0.448,0.875-0.653C18.05,151.903,18.305,151.561,18.305,151.561z"/>
				</g>
				<path id="XMLID_829_" class="st5" d="M64.187,166.474c0,0-20.419,3.953-37.205-9.978l-6.573,10.357
					c0,0,22.751,14.925,49.331,6.718L64.187,166.474z"/>
				
					<rect id="XMLID_828_" x="16.019" y="158.868" transform="matrix(0.5358 -0.8443 0.8443 0.5358 -125.395 93.2902)" class="st6" width="12.268" height="3.654"/>
				<path class="st4" d="M9.628,147.392c0.171,0.162,0.346,0.32,0.511,0.487c0.278,0.281,0.542,0.577,0.807,0.87
					c0.264,0.292,0.507,0.602,0.737,0.918l0.027,0.037c-0.086,0.098-0.176,0.194-0.248,0.3c-0.092,0.148-0.193,0.285-0.261,0.444
					c-0.08,0.148-0.133,0.314-0.18,0.476c-0.044,0.164-0.073,0.332-0.076,0.503c-0.027,0.218-0.038,0.441,0.017,0.661
					c0.01,0.108,0.049,0.214,0.093,0.318c0.034,0.105,0.08,0.205,0.148,0.293c0.068,0.088,0.11,0.2,0.194,0.271l0.244,0.231
					c0.076,0.089,0.187,0.121,0.281,0.185l0.197,0.111c-0.113,0.095-0.216,0.201-0.36,0.25c-0.079,0.037-0.158,0.077-0.237,0.11
					l-0.26,0.054c-0.166,0.06-0.349,0.026-0.524,0.037c-0.158,0.011-0.367-0.042-0.534-0.074c-0.238-0.064-0.482-0.151-0.722-0.248
					c-0.078-0.059-0.154-0.117-0.206-0.173l-0.026-0.03l-0.022-0.01c-0.388-0.204-0.765-0.431-1.128-0.679
					c-0.359-0.251-0.719-0.508-1.067-0.78c-0.347-0.275-0.692-0.553-1.024-0.847l-0.5-0.44c-0.124,0.297,0.841,1.111,0.841,1.111
					c0.286,0.237,0.56,0.487,0.863,0.709c0.301,0.219,0.585,0.48,0.905,0.663l0.476,0.297c0.162,0.093,0.303,0.198,0.491,0.282
					c0.047,0.023,0.097,0.042,0.145,0.064c0.14,0.115,0.277,0.211,0.418,0.311l0.287,0.204c0.103,0.072,0.129,0.105,0.202,0.23
					c0.13,0.208,0.215,0.407,0.303,0.628c0.073,0.219,0.143,0.443,0.158,0.678c0.053,0.456-0.075,0.946-0.404,1.286
					c-0.077,0.092-0.171,0.162-0.271,0.227c-0.093,0.075-0.207,0.116-0.309,0.171c-0.222,0.096-0.451,0.156-0.688,0.202
					c-0.361,0.012-0.71-0.083-1.062-0.164c-0.344-0.087-0.686-0.184-1.022-0.295c-0.099-0.077-0.205-0.152-0.294-0.234l-0.031-0.029
					l-0.028-0.005c-0.372-0.112-0.701-0.263-1.046-0.424c-0.128-0.062-0.25-0.137-0.376-0.203c-0.05-0.031-0.102-0.058-0.151-0.09
					c-0.605-0.389-1.179-0.817-1.745-1.259c0,0,0.953,1.409,2.138,1.829c0.343,0.161,0.712,0.318,1.072,0.424
					c0.368,0.319,0.744,0.57,1.122,0.824c0.088,0.064,0.2,0.13,0.271,0.198c0.093,0.081,0.17,0.164,0.227,0.247
					c0.116,0.172,0.223,0.377,0.26,0.602c0.093,0.436-0.004,0.924-0.273,1.302c-0.13,0.193-0.31,0.349-0.516,0.461
					c-0.2,0.121-0.434,0.171-0.667,0.213c-0.338,0.016-0.671-0.045-1-0.118c-0.332-0.072-0.652-0.183-0.968-0.298
					c-0.636-0.231-1.248-0.522-1.839-0.833l0.012,0.008c-0.235-0.155-0.464-0.315-0.698-0.466c-0.069-0.039-0.11-0.062-0.167-0.11
					l-0.167-0.121c-0.107-0.085-0.213-0.167-0.313-0.256c-0.404-0.352-0.748-0.768-0.994-1.246
					c-0.012,0.072-0.029,0.141-0.036,0.215c0.218,0.448,0.507,0.863,0.868,1.205c0.103,0.101,0.217,0.192,0.325,0.281l0.168,0.129
					c0.051,0.042,0.126,0.093,0.178,0.125c0.23,0.154,0.47,0.293,0.703,0.44l0.007,0.004l0.005,0.003
					c0.614,0.313,1.261,0.535,1.914,0.729c0.326,0.099,0.659,0.173,0.991,0.247c0.332,0.067,0.677,0.118,1.017,0.091
					c0.234-0.033,0.476-0.076,0.688-0.197c0.216-0.104,0.401-0.268,0.554-0.456c0.308-0.373,0.452-0.886,0.393-1.38
					c-0.014-0.127-0.045-0.247-0.083-0.368c-0.045-0.118-0.093-0.234-0.172-0.343c-0.072-0.117-0.155-0.208-0.237-0.29
					c-0.1-0.099-0.194-0.156-0.29-0.235c-0.229-0.175-0.464-0.342-0.692-0.512c0.293,0.084,0.587,0.169,0.883,0.238
					c0.353,0.076,0.715,0.168,1.076,0.148c0.239-0.039,0.477-0.093,0.704-0.184c0.107-0.058,0.225-0.095,0.323-0.169
					c0.106-0.063,0.202-0.138,0.29-0.225c0.369-0.332,0.544-0.853,0.522-1.348c-0.005-0.499-0.167-0.991-0.407-1.422
					c-0.032-0.085-0.134-0.218-0.225-0.292c0.009,0.002,0.017,0.006,0.026,0.008c0.194,0.029,0.353,0.068,0.568,0.058
					c0.193-0.014,0.392,0.01,0.58-0.058l0.281-0.079c0.089-0.042,0.175-0.096,0.258-0.143c0.182-0.081,0.302-0.25,0.446-0.372
					l0.077-0.064l-0.103-0.05l-0.287-0.139c-0.09-0.055-0.205-0.079-0.28-0.158l-0.247-0.205c-0.085-0.064-0.135-0.167-0.202-0.248
					c-0.069-0.085-0.113-0.183-0.152-0.285c-0.043-0.097-0.082-0.201-0.097-0.306c-0.056-0.213-0.053-0.434-0.03-0.648
					c0.007-0.166,0.039-0.334,0.089-0.494c0.05-0.158,0.107-0.319,0.189-0.464c0.072-0.152,0.173-0.288,0.272-0.422
					c0.092-0.117,0.201-0.217,0.303-0.322l0.051-0.043c0.16-0.138,0.316-0.284,0.5-0.395c0.171-0.129,0.367-0.218,0.551-0.319
					c0.192-0.096,0.407-0.166,0.605-0.256l0.617-0.221c0.415-0.15,0.831-0.296,1.239-0.461c0.4-0.159,0.803-0.307,1.192-0.498
					l-0.043-0.016c-0.387,0.154-0.791,0.272-1.19,0.402l-1.253,0.405l-0.635,0.196l-0.312,0.114
					c-0.102,0.042-0.205,0.067-0.306,0.125c-0.203,0.101-0.416,0.193-0.598,0.326c-0.196,0.114-0.349,0.432-0.349,0.432
					c-0.249-0.349-0.525-0.672-0.814-0.981c-0.162-0.2-0.323-0.401-0.495-0.596l-0.747-0.754l-0.838-0.661l-0.007-0.005
					C8.996,146.52,9.007,146.874,9.628,147.392z"/>
			</g>
			<g id="XMLID_113_">
				<g>
					<path class="st3" d="M156.618,119.346c0.16-0.558,0.228-1.187,0.119-1.773l0-0.012c-0.006-0.025-0.019-0.048-0.025-0.073
						c-0.001-0.003-0.001-0.007-0.001-0.01l-0.002-0.012c-0.047-0.25-0.127-0.492-0.246-0.714c-0.063-0.133-0.15-0.259-0.245-0.377
						c-0.831-1.008-2.316-1.163-3.392-0.514c-0.07,0.059-0.136,0.135-0.204,0.205c0.029-1.527-1.167-2.565-2.462-2.779
						c-0.604-0.131-1.239-0.086-1.787,0.177c-0.276,0.186-0.527,0.453-0.757,0.77c-0.015-0.388-0.037-0.485-0.244-0.87
						c-0.414-0.768-1.487-1.039-1.487-1.039c-0.39-0.13-1.173-0.264-1.453-0.181c-0.483,0.138-0.839,0.269-1.144,0.548
						c-1.439,1.303-2.493,5.036-2.308,6.763c-0.912,0.4-1.875,1.284-2.493,2.749c-0.965,2.285-1.103,3.755-0.782,5.915
						c0.542,1.61,0.895,1.937,1.662,2.869c1.473,1.49,3.214,1.695,4.547,1.522c1.994,2.961,6.257,3.259,9.704,0.705
						c2.654-1.969,3.239-5.468,4.749-8.56c0.213-0.265,0.406-0.524,0.56-0.754c0.147-0.282,0.297-0.561,0.458-0.841
						c0.392-0.795,0.563-1.56,0.508-2.297c-0.029-0.152-0.067-0.296-0.116-0.439c-0.027-0.059-0.056-0.116-0.085-0.172
						c-0.538-0.922-1.74-1.327-2.713-1.046c-0.046,0.009-0.093,0.026-0.137,0.042L156.618,119.346z"/>
					<g>
						<g id="XMLID_17_">
							<path id="XMLID_148_" class="st4" d="M141.42,123.822c0,0,0.415,0.091,1.037,0.159c0.621,0.063,1.459,0.117,2.27-0.014
								c0.203-0.025,0.405-0.064,0.601-0.111c0.2-0.037,0.383-0.118,0.566-0.172c0.179-0.073,0.349-0.146,0.509-0.214
								c0.156-0.085,0.301-0.168,0.435-0.24c0.253-0.187,0.486-0.32,0.61-0.448c0.14-0.121,0.22-0.188,0.22-0.188
								s-0.065,0.082-0.181,0.227c-0.114,0.153-0.31,0.328-0.548,0.535c-0.265,0.195-0.575,0.407-0.951,0.562
								c-0.191,0.065-0.383,0.153-0.592,0.198c-0.203,0.06-0.416,0.105-0.628,0.138c-0.427,0.055-0.858,0.067-1.258,0.042
								c-0.4-0.019-0.769-0.092-1.081-0.156C141.807,124,141.42,123.822,141.42,123.822z"/>
						</g>
						<path class="st4" d="M147.052,116.015c-0.073,0.224-0.151,0.446-0.217,0.672c-0.11,0.38-0.201,0.766-0.294,1.15
							c-0.093,0.382-0.158,0.771-0.209,1.159l-0.006,0.046c0.123,0.045,0.247,0.086,0.361,0.145
							c0.152,0.087,0.305,0.159,0.442,0.265c0.141,0.092,0.267,0.212,0.385,0.332c0.117,0.123,0.223,0.257,0.307,0.406
							c0.128,0.179,0.244,0.37,0.301,0.589c0.042,0.1,0.059,0.212,0.071,0.324c0.02,0.109,0.027,0.218,0.01,0.328
							c-0.017,0.11-0.001,0.228-0.042,0.331l-0.104,0.32c-0.024,0.115-0.107,0.196-0.158,0.297l-0.12,0.192
							c0.145,0.029,0.286,0.073,0.435,0.048c0.087-0.005,0.175-0.007,0.261-0.016l0.254-0.077c0.175-0.026,0.32-0.144,0.478-0.218
							c0.143-0.066,0.303-0.212,0.434-0.32c0.179-0.17,0.352-0.363,0.516-0.563c0.04-0.089,0.079-0.176,0.098-0.25l0.009-0.039
							l0.015-0.02c0.243-0.364,0.466-0.744,0.666-1.135c0.196-0.392,0.389-0.79,0.565-1.195c0.174-0.407,0.344-0.816,0.495-1.234
							l0.229-0.625c0.251,0.202-0.208,1.378-0.208,1.378c-0.139,0.345-0.26,0.696-0.42,1.036c-0.16,0.336-0.285,0.701-0.478,1.015
							l-0.276,0.488c-0.097,0.159-0.172,0.319-0.297,0.483c-0.031,0.043-0.066,0.083-0.097,0.125
							c-0.068,0.168-0.143,0.318-0.219,0.473l-0.155,0.316c-0.056,0.113-0.063,0.154-0.067,0.298
							c-0.015,0.245,0.006,0.46,0.033,0.697c0.041,0.228,0.086,0.457,0.185,0.671c0.171,0.426,0.518,0.795,0.969,0.937
							c0.111,0.044,0.228,0.06,0.347,0.07c0.117,0.022,0.237,0.003,0.353,0.002c0.241-0.022,0.471-0.078,0.701-0.151
							c0.323-0.162,0.584-0.412,0.854-0.651c0.261-0.241,0.515-0.49,0.757-0.747c0.05-0.115,0.107-0.231,0.146-0.346l0.014-0.04
							l0.022-0.018c0.273-0.276,0.49-0.566,0.717-0.873c0.083-0.115,0.154-0.24,0.233-0.358c0.029-0.051,0.062-0.1,0.09-0.151
							c0.346-0.631,0.646-1.281,0.932-1.939c0,0-0.164,1.693-1.004,2.628c-0.225,0.305-0.474,0.619-0.74,0.885
							c-0.17,0.456-0.382,0.856-0.592,1.26c-0.047,0.099-0.114,0.21-0.144,0.304c-0.043,0.116-0.071,0.225-0.081,0.325
							c-0.02,0.207-0.016,0.438,0.059,0.653c0.127,0.427,0.445,0.809,0.861,1.014c0.207,0.108,0.439,0.159,0.673,0.159
							c0.234,0.01,0.463-0.057,0.687-0.132c0.305-0.148,0.568-0.36,0.822-0.581c0.257-0.222,0.485-0.472,0.708-0.724
							c0.448-0.507,0.847-1.054,1.218-1.61l-0.007,0.013c0.133-0.249,0.257-0.499,0.39-0.743c0.042-0.068,0.067-0.107,0.094-0.177
							l0.089-0.186c0.053-0.126,0.107-0.248,0.152-0.374c0.187-0.502,0.291-1.032,0.278-1.57c0.045,0.057,0.093,0.109,0.134,0.171
							c0.022,0.497-0.033,1-0.187,1.473c-0.042,0.138-0.099,0.272-0.151,0.402l-0.086,0.193c-0.024,0.061-0.066,0.142-0.097,0.195
							c-0.129,0.245-0.273,0.482-0.408,0.723l-0.004,0.007l-0.003,0.005c-0.39,0.568-0.852,1.072-1.333,1.555
							c-0.24,0.243-0.496,0.467-0.752,0.69c-0.26,0.218-0.538,0.427-0.85,0.565c-0.221,0.083-0.455,0.16-0.698,0.155
							c-0.24,0.012-0.481-0.044-0.704-0.136c-0.449-0.181-0.82-0.562-1.005-1.024c-0.048-0.119-0.079-0.238-0.102-0.363
							c-0.017-0.125-0.03-0.25-0.013-0.383c0.007-0.137,0.037-0.256,0.07-0.368c0.041-0.134,0.096-0.23,0.143-0.345
							c0.118-0.263,0.245-0.522,0.363-0.78c-0.217,0.214-0.435,0.428-0.662,0.631c-0.273,0.235-0.548,0.489-0.874,0.644
							c-0.229,0.08-0.464,0.146-0.706,0.174c-0.122,0-0.243,0.025-0.365,0.005c-0.123-0.005-0.243-0.025-0.362-0.059
							c-0.483-0.116-0.885-0.489-1.103-0.935c-0.234-0.441-0.327-0.95-0.322-1.443c-0.013-0.089,0.014-0.255,0.059-0.364
							c-0.007,0.006-0.012,0.013-0.019,0.02c-0.157,0.118-0.278,0.229-0.472,0.322c-0.177,0.08-0.34,0.197-0.537,0.226l-0.284,0.065
							c-0.099,0.006-0.199-0.001-0.295-0.003c-0.199,0.015-0.385-0.075-0.569-0.113l-0.098-0.02l0.067-0.093l0.186-0.259
							c0.053-0.091,0.142-0.167,0.171-0.272l0.119-0.298c0.044-0.097,0.039-0.211,0.059-0.314c0.02-0.108,0.012-0.214-0.003-0.323
							c-0.008-0.106-0.024-0.216-0.061-0.315c-0.052-0.214-0.16-0.406-0.283-0.583c-0.085-0.142-0.194-0.274-0.314-0.391
							c-0.119-0.115-0.247-0.229-0.387-0.317c-0.136-0.1-0.289-0.17-0.44-0.241c-0.136-0.059-0.28-0.095-0.42-0.138l-0.065-0.014
							c-0.207-0.045-0.413-0.098-0.629-0.108c-0.212-0.032-0.426-0.017-0.637-0.017c-0.214,0.007-0.436,0.049-0.654,0.064
							l-0.647,0.101c-0.436,0.066-0.871,0.137-1.309,0.187c-0.427,0.051-0.852,0.114-1.285,0.132l0.03-0.035
							c0.413-0.049,0.825-0.139,1.238-0.215l1.294-0.243l0.652-0.131l0.329-0.049c0.11-0.012,0.212-0.039,0.329-0.037
							c0.227-0.008,0.458-0.029,0.681,0.001c0.227,0.007,0.513,0.213,0.513,0.213c0.052-0.425,0.14-0.841,0.247-1.251
							c0.047-0.253,0.092-0.507,0.15-0.76l0.296-1.019l0.42-0.981l0.003-0.008C147.191,114.947,147.35,115.263,147.052,116.015z"/>
					</g>
				</g>
				<path id="XMLID_16_" class="st5" d="M108.11,158.724c0,0,19.846-6.223,27.996-26.458l10.705,5.99
					c0,0-12.927,23.942-40.215,29.35L108.11,158.724z"/>
				
					<rect id="XMLID_118_" x="140.524" y="127.533" transform="matrix(0.4883 -0.8727 0.8727 0.4883 -43.8078 192.6196)" class="st6" width="3.654" height="12.268"/>
			</g>
			<path id="XMLID_755_" class="st7" d="M116.059,181.685c1.293,6.313,1.912,11.351,1.937,15.397l-49.608,10.161
				c-1.566-3.73-2.98-8.604-4.273-14.918c-2.881-14.062-3.652-24.24,2.442-28.125c3.809-2.432,4.713-1.722,16.855-4.209l2.189-0.447
				c1.774-0.365,3.416-0.709,4.939-1.022c8.424-1.725,8.931-2.638,12.533-1.959C110.807,158.026,113.03,166.903,116.059,181.685z"/>
			<path id="XMLID_724_" class="st8" d="M115.881,180.856c0.442,2.26,0.795,4.351,1.06,6.287l-51.49,10.547
				c-0.521-1.884-1.019-3.944-1.502-6.197l6.8-1.393c-4.65-16.561-3.397-27.485-3.221-28.795c0.005-0.055,0.012-0.093,0.014-0.116
				l0.162,0.026l2.991,0.444l3.152,0.465c-0.015,0.112-1.433,10.576,3.164,26.693l25.937-5.314
				c-2.11-16.625-7.528-25.689-7.586-25.786l5.425-3.338c0.267,0.428,6.092,10.053,8.424,27.842L115.881,180.856z"/>
			<polygon id="XMLID_719_" class="st9" points="85.22,167.411 95.02,173.587 107.621,158.368 			"/>
			<polygon id="XMLID_717_" class="st9" points="86.958,167.047 80.352,176.614 62.722,167.542 			"/>
			<path id="XMLID_713_" class="st1" d="M117.995,197.082c-0.21,13.937-8.762,14.977-21.118,17.509l-2.189,0.448
				c-1.142,0.234-2.256,0.47-3.328,0.69c-10.532,2.157-17.82,3.065-22.973-8.486L117.995,197.082z"/>
			<path id="XMLID_605_" class="st2" d="M117.755,191.947c0.187,1.884,0.265,3.589,0.24,5.134l-49.608,10.161
				c-0.632-1.41-1.229-3.01-1.797-4.814L117.755,191.947z"/>
			<path id="XMLID_599_" class="st10" d="M89.715,203.881c-1.668,0-3.122-1.188-3.456-2.825l-0.025-0.118
				c-0.391-1.913,0.844-3.784,2.752-4.175l5.948-1.218c0.235-0.048,0.474-0.073,0.713-0.073c1.669,0,3.123,1.188,3.457,2.825
				l0.026,0.121c0.391,1.91-0.843,3.78-2.752,4.171l-5.949,1.218C90.195,203.857,89.954,203.881,89.715,203.881z M95.647,197.239
				c-0.12,0-0.24,0.012-0.358,0.037l-5.948,1.218c-0.954,0.196-1.571,1.132-1.377,2.086l0.025,0.118
				c0.193,0.941,1.138,1.574,2.085,1.38l5.95-1.218c0.954-0.196,1.571-1.131,1.376-2.084l-0.026-0.122
				C97.207,197.833,96.48,197.239,95.647,197.239z"/>
			<g id="XMLID_80_">
				<path id="XMLID_15_" class="st3" d="M130.626,120.364c-0.182,0.259-0.369,0.516-0.565,0.772c-0.196,0.259-0.4,0.516-0.615,0.773
					c-0.211,0.255-0.435,0.514-0.665,0.771c-0.231,0.256-0.472,0.513-0.721,0.769c-0.249,0.256-0.51,0.513-0.776,0.768
					c-0.27,0.256-0.545,0.508-0.832,0.763c-0.139-1.231-0.278-2.461-0.416-3.69c-0.141-1.229-0.278-2.459-0.416-3.69
					c-0.139-1.227-0.278-2.457-0.416-3.686c-0.141-1.23-0.278-2.459-0.416-3.69c-0.139-1.229-0.278-2.459-0.416-3.688
					c-0.141-1.23-0.278-2.46-0.416-3.69c0,0,0.078-0.167,0.226-0.428c0.147-0.264,0.365-0.621,0.643-1.005
					c0.28-0.381,0.618-0.785,1.009-1.141c0.393-0.357,0.838-0.664,1.327-0.851c0.486-0.185,1.019-0.249,1.588-0.12
					c0.567,0.13,1.172,0.451,1.802,1.039c0.469,0.441,0.957,1.044,1.409,1.79c0.457,0.745,0.88,1.627,1.225,2.625
					c0.346,0.994,0.614,2.105,0.757,3.299c0.145,1.194,0.163,2.473,0.013,3.81c-0.154,1.336-0.475,2.733-1.015,4.157
					C132.402,117.448,131.646,118.904,130.626,120.364z"/>
				<path id="XMLID_246_" class="st3" d="M26.082,132.493c0.233,0.211,0.473,0.419,0.722,0.628c0.246,0.205,0.504,0.412,0.77,0.614
					c0.267,0.204,0.541,0.404,0.82,0.605c0.284,0.198,0.574,0.396,0.876,0.589c0.299,0.193,0.608,0.385,0.927,0.574
					c0.316,0.19,0.643,0.375,0.98,0.559c-0.138-1.23-0.278-2.459-0.416-3.69c-0.138-1.229-0.277-2.46-0.416-3.69
					c-0.138-1.229-0.278-2.458-0.416-3.685c-0.138-1.23-0.277-2.461-0.416-3.691c-0.138-1.229-0.275-2.458-0.416-3.687
					c-0.138-1.229-0.275-2.459-0.416-3.688c0,0-0.114-0.147-0.315-0.369c-0.204-0.224-0.494-0.525-0.851-0.837
					c-0.355-0.309-0.776-0.627-1.239-0.888c-0.46-0.261-0.964-0.46-1.479-0.533c-0.519-0.07-1.052-0.015-1.578,0.237
					c-0.524,0.252-1.04,0.7-1.525,1.414c-0.36,0.532-0.7,1.232-0.978,2.06c-0.277,0.826-0.492,1.783-0.606,2.83
					c-0.116,1.047-0.129,2.19-0.003,3.385c0.126,1.195,0.393,2.446,0.836,3.718c0.447,1.269,1.071,2.558,1.915,3.828
					C23.7,130.044,24.762,131.296,26.082,132.493z"/>
				<path id="XMLID_245_" class="st3" d="M45.966,159.104c-3.883-3.328-7.26-7.32-10.118-11.852
					c-2.826-4.482-5.142-9.492-6.935-14.903c-1.755-5.291-3.006-10.972-3.741-16.915c-0.746-5.96-0.829-12.004-0.155-17.977
					c0.659-5.805,2.004-11.348,3.964-16.493c1.96-5.146,4.535-9.894,7.655-14.106c2.635-3.559,5.657-6.736,9.026-9.446
					c3.393-2.733,7.137-4.992,11.184-6.693c4.135-1.737,8.503-2.834,12.958-3.336c4.547-0.497,8.984-0.327,13.252,0.44
					c4.267,0.768,8.366,2.131,12.234,4.02c3.867,1.89,7.506,4.306,10.854,7.177c3.978,3.411,7.548,7.466,10.604,12.045
					c3.057,4.581,5.603,9.685,7.54,15.196c1.986,5.672,3.252,11.581,3.853,17.559c0.606,5.96,0.65,11.773,0.119,17.325
					c-0.541,5.672-1.683,11.073-3.441,16.072c-1.778,5.054-4.179,9.697-7.225,13.807c-2.528,3.416-5.502,6.46-8.927,9.059
					c-3.426,2.602-7.302,4.758-11.637,6.396c-4.589,1.734-9.425,2.783-14.303,3.278c-4.909,0.499-9.527,0.396-13.847-0.252
					c-4.449-0.664-8.581-1.903-12.391-3.648C52.65,164.097,49.137,161.821,45.966,159.104z"/>
				<path id="XMLID_225_" class="st11" d="M140.228,92.972l-0.239-2.408l-0.416-4.209c-0.173-1.401-0.206-2.826-0.498-4.214
					l-0.787-4.184c-0.144-0.696-0.243-1.403-0.456-2.084l-0.565-2.063l-0.57-2.066c-0.17-0.695-0.418-1.368-0.662-2.043l-0.724-2.03
					c-0.249-0.675-0.463-1.362-0.773-2.019c-0.609-1.318-1.099-2.674-1.816-3.968c-0.036-0.067-0.069-0.133-0.104-0.2l3.251-0.863
					l1.119-0.609l0.249-3.188l-0.101-2.533c-0.3-0.693-0.532-1.414-0.917-2.073l-1.072-2.016c-0.331-0.688-0.797-1.301-1.213-1.944
					c-0.44-0.626-0.823-1.297-1.318-1.886l-1.468-1.783c-0.477-0.607-1.066-1.113-1.598-1.673c-0.538-0.556-1.093-1.093-1.698-1.573
					c-0.601-0.485-1.166-1.02-1.8-1.46l-1.896-1.336l-1.988-1.189c-0.675-0.371-1.375-0.697-2.064-1.044
					c-0.437-0.202-0.884-0.381-1.329-0.567l0.825-0.695l4.562-3.845l-5.218-2.768l-2.017-1.07c-0.668-0.376-1.361-0.661-2.052-0.956
					c-0.693-0.281-1.377-0.623-2.082-0.848l-2.108-0.725c-0.705-0.236-1.415-0.404-2.124-0.607
					c-0.709-0.206-1.419-0.384-2.133-0.525c-1.425-0.333-2.854-0.585-4.286-0.792c-0.716-0.111-1.431-0.171-2.147-0.259
					c-0.716-0.091-1.431-0.145-2.148-0.196c-1.431-0.121-2.859-0.171-4.289-0.205c-1.205-0.021-2.409-0.002-3.615,0.033l0.101-3.342
					l0.148-4.937l-4.74,0.404c-1.597,0.135-3.217,0.15-4.794,0.404l-2.375,0.327l-2.342,0.462c-0.785,0.144-1.557,0.322-2.32,0.534
					c-0.766,0.203-1.538,0.389-2.297,0.609l-2.254,0.727c-0.757,0.228-1.481,0.533-2.221,0.801c-0.738,0.272-1.475,0.55-2.191,0.867
					c-0.719,0.313-1.452,0.599-2.159,0.935c-1.425,0.651-2.827,1.348-4.211,2.08c-0.966,0.523-1.919,1.07-2.865,1.631l-0.955-3.176
					l-1.752-5.831l-4.748,3.37l-4.181,2.968l-2.084,1.488c-0.678,0.515-1.298,1.099-1.948,1.645l-3.851,3.335
					c-1.211,1.183-2.395,2.392-3.589,3.587c-0.585,0.612-1.22,1.173-1.758,1.825l-1.67,1.904c-1.122,1.26-2.226,2.534-3.243,3.883
					c-1.05,1.319-2.084,2.652-3.047,4.052c-0.189,0.269-0.38,0.535-0.57,0.802l-3.92-2.938l-1.674,4.364
					c-0.555,1.449-1.22,2.865-1.657,4.34l-0.708,2.196l-0.587,2.215c-0.211,0.736-0.351,1.482-0.51,2.225
					c-0.145,0.744-0.337,1.482-0.442,2.23c-0.255,1.491-0.485,2.982-0.642,4.477c-0.182,1.493-0.291,2.989-0.379,4.483
					c-0.088,1.494-0.122,2.988-0.133,4.48c0.003,1.493,0.056,2.984,0.147,4.476c0.026,0.419,0.064,0.838,0.096,1.258l-2.443-0.126
					l-3.568-0.184l0.788,3.24l0.801,3.299c0.284,1.095,0.5,2.204,0.839,3.285l0.958,3.251c0.306,1.086,0.68,2.153,1.068,3.215
					l1.135,3.187l1.273,3.134c0.415,1.047,0.855,2.082,1.34,3.1l1.419,3.061l1.545,2.997c0.507,1.001,1.106,1.957,1.654,2.935
					c0.545,0.979,1.14,1.931,1.742,2.877c0.586,0.955,1.192,1.895,1.835,2.813c1.232,1.866,2.597,3.645,3.999,5.38
					c1.416,1.723,2.881,3.409,4.506,4.928c0,0-5.033-27.242,8.411-35.991c5.432-3.533,15.075-0.403,35.341-2.69
					c22.708-2.56,31.512-6.926,37.143-3.435c5.344,3.315,12.198,8.415,13.471,31.472l1.748-3.138l0.863-1.573
					c0.278-0.53,0.598-1.036,0.841-1.586l1.553-3.265l0.765-1.646l0.667-1.683l0.666-1.687c0.215-0.566,0.466-1.119,0.64-1.701
					l1.138-3.467l0.475-1.774c0.15-0.595,0.337-1.178,0.441-1.791l0.358-1.826c0.003-0.026,0.007-0.049,0.011-0.074l2.893,0.554
					L140.228,92.972z"/>
				<g id="XMLID_10_">
					<path id="XMLID_13_" class="st6" d="M141.235,72.587c0.217,1.901,0.369,3.795,0.466,5.676
						c-13.521-2.666-39.967-2.539-70.061,0.855c-29.08,3.28-54.152,8.773-67.172,14.2c-0.291-1.72-0.539-3.464-0.738-5.225
						C-1.224,44.168,26.236,11.229,64.205,6.947C102.18,2.664,136.281,28.662,141.235,72.587z"/>
					<path id="XMLID_12_" class="st12" d="M74.114,94.842c-43.159,4.869-59.988,7.313-69.554,0.65
						c-5.909-4.116,25.126-13.267,68.287-18.135c43.163-4.866,75.457-2.859,70.611,2.47c-7.84,8.625-24.791,9.99-67.951,14.858
						L74.114,94.842z"/>
					<path id="XMLID_219_" class="st13" d="M4.266,92.075c0,0,2.008-0.844,5.547-2.257c1.805-0.626,3.998-1.387,6.511-2.259
						c2.539-0.79,5.399-1.705,8.553-2.583c3.168-0.812,6.574-1.831,10.242-2.614c1.83-0.42,3.708-0.851,5.628-1.292
						c1.922-0.435,3.904-0.78,5.911-1.182c4.012-0.817,8.186-1.507,12.432-2.177c4.258-0.656,8.569-1.176,12.94-1.731
						c2.165-0.203,4.332-0.406,6.489-0.608c2.152-0.217,4.308-0.397,6.464-0.514c4.299-0.308,8.533-0.506,12.624-0.59
						c4.09-0.174,8.049-0.119,11.801-0.091c3.75-0.02,7.296,0.227,10.566,0.337c3.27,0.182,6.261,0.456,8.909,0.681
						c2.64,0.314,4.942,0.588,6.838,0.814c3.77,0.635,5.906,1.039,5.906,1.039s-2.181-0.147-5.963-0.469
						c-1.9-0.081-4.206-0.178-6.85-0.29c-2.646-0.026-5.629-0.054-8.886-0.085c-1.627,0.021-3.322,0.043-5.077,0.067
						c-1.754,0.012-3.566,0.021-5.429,0.104c-3.726,0.119-7.654,0.239-11.713,0.483c-2.027,0.119-4.096,0.19-6.177,0.352
						c-2.08,0.159-4.187,0.319-6.309,0.481c-4.241,0.251-8.584,0.823-12.908,1.218c-4.264,0.508-8.6,0.995-12.813,1.612
						c-4.216,0.653-8.386,1.175-12.385,1.912c-4.012,0.656-7.878,1.361-11.539,2.071c-1.837,0.326-3.611,0.697-5.325,1.07
						c-1.717,0.357-3.376,0.704-4.97,1.036c-3.173,0.732-6.081,1.403-8.659,1.998c-2.558,0.675-4.787,1.264-6.623,1.749
						C6.361,91.474,4.266,92.075,4.266,92.075z"/>
					<path id="XMLID_11_" class="st14" d="M57.898,1.326c-5.363,0.605-8.301,5.268-6.535,10.369l11.698,48.478
						c1.767,5.094,13.493,3.772,14.08-1.589l0.642-49.869c0.586-5.366-3.319-9.258-8.681-8.654L57.898,1.326z"/>
				</g>
				<path id="XMLID_81_" class="st15" d="M72.614,131.311c0.594-0.958,2.833,1.302,5.932,1.222c3.099-0.08,4.157-3.475,5.574-2.823
					c1.417,0.651-0.905,5.128-5.493,5.923C74.037,136.427,72.104,132.133,72.614,131.311z"/>
			</g>
		</g>
	</g>
</g>
<g id="Ojos-Abiertos">
	<g id="XMLID_1_">
		<g id="XMLID_6_">
			<path id="XMLID_8_" class="st6" d="M51.839,110.876c-12.582,4.85-9.988,23.287,4.086,21.706
				C69.999,131.001,66.48,105.232,51.839,110.876z"/>
			
				<ellipse id="XMLID_7_" transform="matrix(0.9961 -0.0883 0.0883 0.9961 -10.4961 5.2893)" cx="54.569" cy="121.346" rx="5.511" ry="6.962"/>
			
				<ellipse id="XMLID_177_" transform="matrix(0.9961 -0.0883 0.0883 0.9961 -10.2253 5.0038)" class="st6" cx="51.469" cy="118.126" rx="3.287" ry="3.287"/>
			
				<ellipse id="XMLID_164_" transform="matrix(0.9961 -0.0883 0.0883 0.9961 -10.7276 5.4925)" class="st6" cx="56.751" cy="124.064" rx="1.257" ry="1.257"/>
		</g>
		<g id="XMLID_105_">
			<path id="XMLID_111_" class="st6" d="M98.894,105.542c13.239,2.562,13.927,21.168-0.206,22.086
				C84.556,128.546,83.489,102.56,98.894,105.542z"/>
			
				<ellipse id="XMLID_109_" transform="matrix(0.9961 -0.0883 0.0883 0.9961 -9.8769 9.1576)" cx="98.626" cy="116.277" rx="5.511" ry="6.962"/>
			
				<ellipse id="XMLID_5_" transform="matrix(0.9961 -0.0883 0.0883 0.9961 -9.606 8.8726)" class="st6" cx="95.526" cy="113.058" rx="3.287" ry="3.287"/>
			
				<ellipse id="XMLID_107_" transform="matrix(0.9961 -0.0883 0.0883 0.9961 -10.1084 9.3609)" class="st6" cx="100.808" cy="118.996" rx="1.257" ry="1.257"/>
		</g>
	</g>
</g>
<g id="Cejas">
	<path id="XMLID_9_" class="st11" d="M60.945,105.473c1.759-3.828-5.969-5.907-10.39-5.515c-4.421,0.392-9.575,9.264-8.419,11.142
		c1.156,1.878,3.907-5.889,9.311-6.368C56.85,104.254,59.284,109.086,60.945,105.473z"/>
	<path id="XMLID_159_" class="st11" d="M88.981,101.825c-2.405-3.459,4.837-6.864,9.258-7.256
		c4.421-0.392,11.055,7.437,10.247,9.488s-4.882-5.11-10.285-4.632C92.797,99.904,91.25,105.089,88.981,101.825z"/>
</g>
<g id="Boca_1">
	<path id="XMLID_1537_" d="M103.986,140.866c0.412,3.644-1.021,9.018-4.618,13.65c-3.474,4.486-8.973,8.277-16.783,9.16
		c-7.81,0.881-14.016-1.589-18.405-5.186c-4.536-3.716-7.132-8.636-7.542-12.279c-0.377-3.328,1.825-4.355,5.601-4.641l0.032-0.003
		c0.003-0.001,0.003-0.001,0.003-0.001c4.352-0.327,10.778,0.309,17.761-0.479c6.766-0.764,12.728-2.716,17.017-3.425l0.013-0.002
		c0.007,0,0.016-0.001,0.022-0.003C101.065,136.997,103.596,137.42,103.986,140.866z"/>
	<g>
		<path id="XMLID_1536_" class="st6" d="M64.975,146.184c0.932,0.606,2.11,1.003,3.547,1.233c1.343,0.217,2.918,0.282,4.745,0.235
			c1.673-0.045,3.554-0.185,5.662-0.403c0.513-0.051,1.039-0.109,1.582-0.169c2.087-0.238,3.956-0.484,5.62-0.767
			c2.279-0.384,4.17-0.84,5.713-1.414c1.538-0.58,2.729-1.284,3.598-2.177c0.22-0.223,0.419-0.461,0.598-0.713
			c0.19-0.262,0.36-0.543,0.499-0.838c0.148-0.312,0.255-0.626,0.329-0.933c0.076-0.312,0.123-0.618,0.148-0.918
			c0.028-0.294,0.037-0.584,0.041-0.863c0.004-0.281-0.003-0.546-0.004-0.795c-1.516,0.251-3.24,0.657-5.136,1.112
			c-1.898,0.454-3.967,0.952-6.167,1.397c-1.822,0.368-3.732,0.69-5.717,0.916c-0.35,0.038-0.702,0.073-1.052,0.107
			c-2.105,0.199-4.153,0.277-6.098,0.301c-2.019,0.022-3.929-0.008-5.684-0.021c-1.831-0.019-3.488-0.014-4.922,0.096
			c0.054,0.246,0.109,0.504,0.176,0.776c0.067,0.27,0.144,0.551,0.24,0.835c0.094,0.283,0.211,0.577,0.355,0.863
			c0.144,0.286,0.316,0.573,0.527,0.85c0.196,0.259,0.419,0.501,0.662,0.722C64.462,145.822,64.709,146.009,64.975,146.184z"/>
	</g>
</g>
<g id="Boca_2">
	<g id="XMLID_251_">
		<g id="XMLID_252_">
			<path id="XMLID_261_" d="M86.462,151.122c-0.178,5.661-1.396,10.471-4.498,10.812c-3.103,0.341-5.61-4.028-6.738-9.577
				c-1.66-8.17-2.081-10.092,4.498-10.815C86.651,140.781,86.729,142.649,86.462,151.122z"/>
			
				<ellipse id="XMLID_260_" transform="matrix(0.994 -0.1092 0.1092 0.994 -16.0834 9.7334)" class="st16" cx="80.843" cy="151.739" rx="5.652" ry="10.257"/>
			<path id="XMLID_259_" class="st15" d="M79.256,163.26c0,0,0.359,0.143,0.907,0.277c0.272,0.076,0.597,0.122,0.938,0.17
				c0.344,0.039,0.713,0.059,1.075,0.013c0.365-0.012,0.724-0.094,1.049-0.202c0.321-0.113,0.63-0.223,0.865-0.374
				c0.495-0.263,0.792-0.519,0.803-0.504c0,0-0.063,0.073-0.172,0.201c-0.115,0.123-0.268,0.318-0.51,0.486
				c-0.116,0.091-0.242,0.191-0.393,0.269c-0.147,0.082-0.297,0.188-0.478,0.239c-0.346,0.133-0.735,0.242-1.132,0.272
				c-0.798,0.063-1.582-0.129-2.115-0.364C79.555,163.514,79.256,163.26,79.256,163.26z"/>
			<g id="XMLID_253_">
				<defs>
					<path id="XMLID_254_" d="M86.462,151.122c-0.178,5.661-1.396,10.471-4.498,10.812c-3.103,0.341-5.61-4.028-6.738-9.577
						c-1.66-8.17-2.081-10.092,4.498-10.815C86.651,140.781,86.729,142.649,86.462,151.122z"/>
				</defs>
				<clipPath id="XMLID_3_">
					<use xlink:href="#XMLID_254_"  style="overflow:visible;"/>
				</clipPath>
				<path id="XMLID_210_" class="st17" d="M67.474,145.713c0.779,0.508,1.76,0.845,2.962,1.04c1.123,0.184,2.439,0.246,3.966,0.209
					c1.398-0.033,2.974-0.147,4.739-0.323c0.429-0.043,0.868-0.089,1.322-0.139c1.745-0.192,3.311-0.393,4.704-0.624
					c1.906-0.319,3.49-0.692,4.779-1.171c1.291-0.48,2.286-1.067,3.015-1.811c0.184-0.189,0.351-0.385,0.502-0.595
					c0.158-0.22,0.301-0.454,0.42-0.7c0.125-0.26,0.214-0.521,0.279-0.782c0.063-0.259,0.103-0.515,0.126-0.765
					c0.025-0.251,0.032-0.491,0.035-0.725c0.002-0.232,0-0.455,0-0.664c-1.269,0.206-2.715,0.542-4.301,0.917
					c-1.588,0.374-3.319,0.79-5.159,1.153c-1.525,0.302-3.126,0.569-4.783,0.751c-0.295,0.032-0.589,0.061-0.882,0.088
					c-1.761,0.16-3.473,0.219-5.103,0.233c-1.688,0.017-3.286-0.015-4.754-0.032c-1.529-0.018-2.916-0.019-4.116,0.069
					c0.045,0.205,0.09,0.421,0.146,0.648c0.054,0.226,0.118,0.462,0.198,0.701c0.078,0.239,0.175,0.481,0.295,0.722
					c0.12,0.24,0.264,0.479,0.44,0.712c0.164,0.218,0.35,0.42,0.55,0.604C67.045,145.408,67.251,145.568,67.474,145.713z"/>
			</g>
		</g>
	</g>
</g>
<g id="Boca_3">
	<g>
		<path id="XMLID_917_" class="st15" d="M64.453,144.793c0.477-1.234,3.522,2.697,13.872,2.802
			c10.35,0.105,13.967-6.661,15.437-5.759c1.47,0.902-5.702,8.223-15.461,8.124C68.542,149.862,63.541,147.149,64.453,144.793z"/>
		<path id="XMLID_916_" class="st15" d="M85.906,151.566c-1.803,0.384-3.337,1.042-5.23,1.131c-1.92,0.089-3.862-0.456-5.753-0.274
			c-0.522,0.051-0.607,0.688-0.129,0.888c2.991,1.256,9.095,1.519,11.43-1.185C86.441,151.875,86.245,151.494,85.906,151.566z"/>
	</g>
</g>
</svg>
