<?xml version="1.0" encoding="utf-8"?>
<!-- Generator: Adobe Illustrator 22.0.1, SVG Export Plug-In . SVG Version: 6.00 Build 0)  -->
<svg version="1.1" xmlns="http://www.w3.org/2000/svg" xmlns:xlink="http://www.w3.org/1999/xlink" x="0px" y="0px"
	 viewBox="0 0 140.931 251.97" style="enable-background:new 0 0 140.931 251.97;" xml:space="preserve">
<style type="text/css">
	.st0{fill:#EFC392;stroke:#994900;stroke-linecap:round;stroke-linejoin:round;stroke-miterlimit:10;}
	.st1{fill:#994900;stroke:#994900;stroke-linecap:round;stroke-linejoin:round;stroke-miterlimit:10;}
	.st2{fill:#CCCCCC;}
	.st3{fill:#FFFFFF;}
	.st4{opacity:0.2;}
	.st5{fill:#0071BC;}
	.st6{filter:url(#Adobe_OpacityMaskFilter);}
	.st7{filter:url(#Adobe_OpacityMaskFilter_1_);}
	.st8{mask:url(#XMLID_3_);fill:url(#XMLID_4_);}
	.st9{opacity:0.5;fill:#0071BC;}
	.st10{fill:#4C2B18;}
	.st11{fill:#F7941E;}
	.st12{fill:#FFD825;}
	.st13{fill:#482E1D;}
	.st14{fill:#B3B3B3;}
	.st15{fill:#808080;}
	.st16{fill:#E6E6E6;}
	.st17{fill:#C4884D;}
	.st18{fill:#D39A66;}
	.st19{opacity:0.05;fill:#8B5E3C;}
</style>
<g id="Brazo-Mano">
	<g>
		<g id="XMLID_804_">
			<path id="XMLID_775_" class="st0" d="M103.648,136.646c0,0-2.523-0.362-5.793,1.556c-3.277,1.918-5.211-1.36-5.211-1.36
				s-1.834-2.647,1.216-4.405c0,0,1.795-1.289,4.92-0.4c0,0,1.039,0.159,1.779,0.06c1.238-0.163,1.701-0.332,1.701-0.332
				s0.969-0.697,0.329-1.435c0,0-1.86-1.896-4.391-3.167c-0.721-0.361-6.999-4.051-9.621-5.884
				c-2.222-1.558-1.692-3.039-1.436-3.825c0.278-0.867,1.27-2.052,2.549-1.618c2.375,0.8,9.478,5.83,11.025,6.496l-9.575-7.065
				c0,0-2.275-1.747-1.587-3.994c0,0,0.701-3.289,3.841-2.373c0,0,0.571,0.131,1.619,1.149c1.045,1.021,9.462,8.504,9.462,8.504
				l-8.552-9.638c0,0-1.214-1.47-0.775-2.916c0.442-1.441,2.166-2.784,4.028-2.142c1.626,0.563,2.241,1.493,2.241,1.493l7.162,10.25
				l-3.686-6.361c0,0-0.94-1.623-0.438-3.136c0.509-1.507,2.581-2.119,3.748-1.465c0,0-0.154-0.217,0.885,0.923
				c1.071,1.175,4.77,8.208,4.77,8.208s1.414,1.973,2.524,3.407c1.134,1.472,6.562,7.864,4.93,12.833
				c-1.629,4.97-7.901,9.171-11.569,8.117C107.163,137.388,104.843,136.638,103.648,136.646z"/>
			<path id="XMLID_1_" class="st1" d="M101.963,123.299c0,0,8.28-0.132,12.321-4.6C114.283,118.7,113.119,120.448,101.963,123.299z"
				/>
			<path id="XMLID_553_" class="st1" d="M102.18,128.367c0,0,10.247-2.102,15.334,3.987
				C117.515,132.354,111.702,127.721,102.18,128.367z"/>
		</g>
		<g id="XMLID_96_">
			<path id="XMLID_721_" class="st2" d="M90.881,165.285c0,0,10.488,3.341,20.98-7.632c10.488-10.976-0.478-19.644-0.478-19.644
				l10.893-10.575c0,0,14.454,17.253,4.213,32.02c-13.362,19.282-38.074,16.003-38.074,16.003l-2.394-4.323L90.881,165.285z"/>
			<polygon id="XMLID_720_" class="st3" points="113.974,140.852 124.707,130.887 122.276,127.434 111.383,138.009 			"/>
		</g>
	</g>
</g>
<g id="Cuerpo-Cabeza">
	<g id="XMLID_98_">
		<path id="XMLID_46_" class="st4" d="M120.651,241.835c0.051,5.328-21.574,9.862-48.31,10.123
			c-26.734,0.263-48.449-3.848-48.5-9.177c-0.053-5.329,21.578-9.863,48.311-10.125C98.887,232.395,120.599,236.503,120.651,241.835
			z"/>
		<g id="XMLID_654_">
			<g id="XMLID_687_">
				<g id="XMLID_692_">
					<rect id="XMLID_697_" x="52.089" y="213.74" class="st5" width="12.911" height="29.754"/>
					<defs>
						<filter id="Adobe_OpacityMaskFilter" filterUnits="userSpaceOnUse" x="52.089" y="213.74" width="12.911" height="29.754">
							<feFlood  style="flood-color:white;flood-opacity:1" result="back"/>
							<feBlend  in="SourceGraphic" in2="back" mode="normal"/>
						</filter>
					</defs>
					<mask maskUnits="userSpaceOnUse" x="52.089" y="213.74" width="12.911" height="29.754" id="XMLID_3_">
						<g id="XMLID_59_" class="st6">
							<defs>
								
									<filter id="Adobe_OpacityMaskFilter_1_" filterUnits="userSpaceOnUse" x="52.089" y="213.74" width="12.911" height="29.754">
									<feFlood  style="flood-color:white;flood-opacity:1" result="back"/>
									<feBlend  in="SourceGraphic" in2="back" mode="normal"/>
								</filter>
							</defs>
							<mask maskUnits="userSpaceOnUse" x="52.089" y="213.74" width="12.911" height="29.754" id="XMLID_3_">
								<g id="XMLID_70_" class="st7">
								</g>
							</mask>
							<linearGradient id="XMLID_4_" gradientUnits="userSpaceOnUse" x1="58.5449" y1="243.4935" x2="58.5449" y2="213.7395">
								<stop  offset="0" style="stop-color:#999999"/>
								<stop  offset="0.0802" style="stop-color:#707070"/>
								<stop  offset="0.1729" style="stop-color:#484848"/>
								<stop  offset="0.2643" style="stop-color:#292929"/>
								<stop  offset="0.3525" style="stop-color:#121212"/>
								<stop  offset="0.4362" style="stop-color:#050505"/>
								<stop  offset="0.5108" style="stop-color:#000000"/>
								<stop  offset="0.5565" style="stop-color:#060606"/>
								<stop  offset="0.6176" style="stop-color:#171717"/>
								<stop  offset="0.6875" style="stop-color:#333333"/>
								<stop  offset="0.7638" style="stop-color:#5A5A5A"/>
								<stop  offset="0.8454" style="stop-color:#8C8C8C"/>
								<stop  offset="0.93" style="stop-color:#C8C8C8"/>
								<stop  offset="1" style="stop-color:#FFFFFF"/>
							</linearGradient>
							<rect id="XMLID_60_" x="52.089" y="213.74" class="st8" width="12.911" height="29.754"/>
						</g>
					</mask>
					<rect id="XMLID_693_" x="52.089" y="213.74" class="st9" width="12.911" height="29.754"/>
				</g>
				<rect id="XMLID_691_" x="76.798" y="213.74" class="st5" width="12.911" height="29.754"/>
				<path id="XMLID_690_" class="st5" d="M97.038,206.969c-3.053,13.84-11.786,13.134-24.612,13.134h-2.272
					c-1.184,0-2.344,0.006-3.457,0.006c-10.932,0-18.378-0.583-21.154-13.14H97.038z"/>
				<path id="XMLID_689_" class="st10" d="M65.959,240.576c-0.378-0.494-0.873-1.02-1.519-1.421
					c-0.629-0.429-1.361-0.806-2.158-1.135c-0.797-0.33-1.658-0.631-2.572-0.839c-1.821-0.448-3.806-0.716-5.796-0.803
					c-0.997-0.035-2.024,0.024-2.969,0.081c-0.955,0.006-1.944,0.224-2.877,0.357c-0.47,0.069-0.914,0.242-1.352,0.371
					c-0.438,0.129-0.861,0.275-1.245,0.508c-0.807,0.356-1.469,0.905-2.01,1.456c-0.226,0.322-0.448,0.625-0.634,0.924
					c-0.11,0.337-0.214,0.655-0.312,0.955c-0.079,0.612-0.139,1.156-0.072,1.588c0.047,0.439,0.198,0.769,0.305,0.971
					c0.13,0.192,0.199,0.294,0.199,0.294s-0.014-0.031-0.031-0.064c0.021,0.033,0.045,0.064,0.068,0.096
					c-0.018-0.015-0.037-0.031-0.037-0.031s0.05,0.062,0.128,0.16c0.008,0.01,0.015,0.02,0.024,0.03
					c0.007,0.009,0.01,0.012,0.017,0.022c0.116,0.135,0.243,0.365,0.554,0.527c0.278,0.22,0.658,0.378,1.1,0.541
					c0.441,0.163,0.958,0.278,1.523,0.378c1.129,0.166,2.452,0.322,3.864,0.356c1.409,0.026,2.914,0.054,4.417,0.082
					c1.506-0.029,3.012-0.076,4.427-0.168c1.415-0.089,2.733-0.308,3.851-0.563c1.119-0.255,2.014-0.672,2.553-1.08
					c0.541-0.42,0.681-0.797,0.697-0.779c0,0-0.024,0.023-0.062,0.061c0.024-0.033,0.054-0.063,0.076-0.097
					c-0.004,0.01-0.014,0.036-0.014,0.036s0.017-0.029,0.039-0.068c0.012-0.019,0.022-0.039,0.033-0.058
					c0.028-0.049,0.058-0.102,0.103-0.182c0.066-0.098,0.129-0.223,0.152-0.397c0.031-0.157,0.105-0.39,0.066-0.598
					C66.52,241.668,66.288,241.094,65.959,240.576z"/>
				<path id="XMLID_688_" class="st10" d="M99.323,241.03c-0.098-0.3-0.202-0.62-0.312-0.957c-0.186-0.297-0.41-0.601-0.634-0.923
					c-0.542-0.552-1.203-1.102-2.01-1.458c-0.385-0.233-0.807-0.378-1.247-0.507c-0.438-0.13-0.882-0.303-1.351-0.371
					c-0.934-0.133-1.923-0.352-2.878-0.357c-0.945-0.057-1.972-0.116-2.969-0.081c-1.991,0.086-3.976,0.355-5.796,0.803
					c-0.914,0.208-1.775,0.51-2.574,0.839c-0.797,0.331-1.529,0.706-2.158,1.137c-0.646,0.4-1.141,0.927-1.519,1.419
					c-0.329,0.519-0.561,1.093-0.536,1.512c-0.04,0.208,0.035,0.439,0.066,0.596c0.024,0.176,0.087,0.3,0.152,0.397
					c0.044,0.076,0.072,0.126,0.1,0.174c0.013,0.024,0.026,0.048,0.041,0.072c0.018,0.032,0.035,0.061,0.035,0.061
					s-0.009-0.024-0.012-0.032c0.02,0.03,0.047,0.057,0.068,0.087c-0.035-0.035-0.055-0.054-0.055-0.054
					c0.016-0.018,0.158,0.359,0.697,0.779c0.539,0.407,1.436,0.825,2.553,1.08c1.118,0.255,2.436,0.473,3.851,0.563
					c1.416,0.092,2.922,0.139,4.427,0.168c1.504-0.028,3.009-0.056,4.418-0.082c1.412-0.034,2.735-0.19,3.864-0.356
					c0.564-0.1,1.081-0.215,1.523-0.378c0.442-0.163,0.822-0.321,1.1-0.541c0.311-0.163,0.438-0.393,0.554-0.527
					c0.008-0.01,0.011-0.013,0.018-0.022c0.008-0.009,0.014-0.018,0.022-0.027c0.08-0.099,0.13-0.161,0.13-0.161
					s-0.02,0.017-0.038,0.032c0.023-0.032,0.047-0.064,0.069-0.097c-0.016,0.035-0.031,0.065-0.031,0.065s0.069-0.102,0.199-0.296
					c0.107-0.201,0.258-0.53,0.305-0.97C99.462,242.185,99.402,241.642,99.323,241.03z"/>
			</g>
			<g id="XMLID_671_">
				<path id="XMLID_681_" class="st2" d="M50.254,165.479c0,0-35.486,15.735-17.563,42.369l5.53-8.994
					c0,0-7.702-15.366,10.084-25.956L50.254,165.479z"/>
			</g>
			<g id="XMLID_664_">
				<g id="XMLID_668_">
					<path id="XMLID_670_" class="st11" d="M98.251,191.234c0,6.554-0.412,11.698-1.213,15.735H45.543
						c-0.8-4.037-1.213-9.182-1.213-15.735c0-14.599,1.31-24.894,8.174-27.521c4.29-1.647,5.046-0.755,17.65-0.755h2.272
						c1.844,0,3.548-0.007,5.13-0.007c8.744,0,9.435-0.809,12.886,0.606C97.847,166.591,98.251,175.889,98.251,191.234z"/>
					<path id="XMLID_669_" class="st3" d="M98.244,190.37c-0.021,2.344-0.097,4.5-0.227,6.48H44.567
						c-0.136-1.98-0.211-4.137-0.231-6.48h7.056c-1.251-17.446,2.227-28.074,2.669-29.342c0.016-0.054,0.032-0.092,0.038-0.113
						l0.155,0.059l2.89,1.052l3.045,1.107c-0.038,0.108-3.586,10.245-2.294,27.237H84.82c1.291-16.992-2.259-27.129-2.295-27.237
						l6.086-2.218c0.177,0.48,4.017,11.259,2.71,29.455H98.244z"/>
				</g>
				<g id="XMLID_665_">
					<polygon id="XMLID_667_" class="st2" points="70.441,169.22 78.943,177.373 94.604,164.782 					"/>
					<polygon id="XMLID_666_" class="st2" points="72.246,169.211 63.713,177.394 48.001,164.761 					"/>
				</g>
			</g>
			<g id="XMLID_659_">
				<path id="XMLID_663_" class="st10" d="M97.847,201.804c-0.198,1.915-0.467,3.63-0.809,5.165H45.543
					c-0.341-1.535-0.611-3.251-0.807-5.165H97.847z"/>
				<path id="XMLID_660_" class="st12" d="M74.378,208.044h-6.176c-1.98,0-3.592-1.611-3.592-3.592c0-2.111,1.611-3.722,3.592-3.722
					h6.176c1.982,0,3.593,1.611,3.593,3.593C77.972,206.433,76.36,208.044,74.378,208.044z M68.203,202.526
					c-0.99,0-1.796,0.807-1.796,1.797c0,1.119,0.806,1.925,1.796,1.925h6.176c0.99,0,1.797-0.806,1.797-1.796
					c0-1.119-0.807-1.926-1.797-1.926H68.203z"/>
			</g>
			<g id="XMLID_657_">
				<path id="XMLID_658_" class="st0" d="M53.813,208.457c-0.066,0.46-0.453,1.052-1.137,1.034
					c-0.905-0.018-3.324-0.214-5.282-0.806c0,0,2.735,1.181,4.755,1.644c0.592,0.132,1.559,0.378,1.559,1.269
					c0,0,0.249,1.598-1.412,1.412c0,0-0.791-0.006-1.504-0.221c-1.784-0.535-5.268-1.976-5.833-2.253c0,0,3.713,1.913,5.013,2.369
					c1.296,0.454,1.351,0.782,1.257,1.548c-0.103,0.765-0.378,1.311-1.374,1.153c-0.867-0.149-1.31-0.431-1.31-0.431l-5.678-2.859
					l3.067,1.775c0,0,0.999,0.356,0.882,1.166c-0.129,0.804-0.753,1.187-1.515,1.175c-0.681-0.015-1.194-0.126-1.822-0.614
					c-0.636-0.491-3.456-2.027-3.456-2.027s-0.672-0.617-1.355-1.239c-0.7-0.643-3.839-3.07-3.442-5.616c0,0-0.038-1.624,1.523-2.87
					l0.237-0.858c0,0,0.475-2.13,3.24-1.983c0,0,1.246,0.064,1.956,0.129c0.637,0.064,1.635,0.135,2.899,0.24l-0.108,2.572
					c-0.24-0.116-0.437-0.19-0.482-0.19c-0.186-0.009-0.423,0.434-0.037,0.743c0,0,1.099,0.789,2.479,1.211
					c0.398,0.122,3.716,0.686,5.716,0.97C54.022,207.095,53.878,208.035,53.813,208.457z"/>
			</g>
			<g id="XMLID_655_">
				<polygon id="XMLID_656_" class="st3" points="39.922,200.437 38.22,198.854 32.69,207.848 34.107,209.308 				"/>
			</g>
		</g>
		<g id="XMLID_100_">
			<path id="XMLID_653_" class="st0" d="M124.073,125.171c-0.203,0.243-0.412,0.482-0.63,0.72c-0.218,0.241-0.443,0.479-0.68,0.717
				c-0.232,0.236-0.478,0.475-0.729,0.71c-0.253,0.235-0.514,0.47-0.784,0.704c-0.27,0.234-0.552,0.467-0.84,0.698
				c-0.291,0.232-0.587,0.459-0.895,0.688c-0.032-1.238-0.065-2.476-0.096-3.712c-0.034-1.237-0.065-2.474-0.096-3.712
				c-0.033-1.235-0.065-2.471-0.096-3.708c-0.034-1.238-0.065-2.474-0.096-3.712c-0.032-1.236-0.065-2.474-0.096-3.71
				c-0.034-1.238-0.065-2.474-0.096-3.712c0,0,0.092-0.16,0.262-0.407c0.169-0.25,0.417-0.587,0.727-0.946
				c0.312-0.355,0.684-0.729,1.104-1.05c0.422-0.322,0.892-0.589,1.396-0.733c0.5-0.142,1.037-0.16,1.592,0.017
				c0.553,0.179,1.128,0.551,1.705,1.19c0.429,0.48,0.863,1.123,1.249,1.905c0.391,0.782,0.736,1.697,0.993,2.721
				c0.259,1.021,0.43,2.15,0.47,3.352c0.041,1.202-0.052,2.477-0.316,3.797c-0.269,1.318-0.709,2.682-1.371,4.054
				C126.094,122.419,125.215,123.804,124.073,125.171z"/>
			<path id="XMLID_652_" class="st0" d="M18.872,128.223c0.214,0.23,0.435,0.458,0.665,0.688c0.227,0.226,0.466,0.454,0.714,0.678
				c0.248,0.226,0.504,0.449,0.765,0.674c0.266,0.222,0.538,0.444,0.822,0.662c0.281,0.218,0.572,0.436,0.874,0.652
				c0.299,0.217,0.608,0.429,0.928,0.642c-0.031-1.238-0.065-2.474-0.096-3.712c-0.031-1.236-0.063-2.474-0.096-3.712
				c-0.031-1.236-0.065-2.473-0.096-3.708c-0.031-1.238-0.063-2.476-0.095-3.714c-0.031-1.236-0.062-2.473-0.096-3.709
				c-0.031-1.236-0.062-2.474-0.096-3.711c0,0-0.101-0.156-0.282-0.395c-0.184-0.241-0.447-0.565-0.776-0.907
				c-0.327-0.338-0.719-0.692-1.158-0.991c-0.436-0.299-0.921-0.541-1.428-0.659c-0.511-0.115-1.047-0.106-1.592,0.1
				c-0.544,0.206-1.097,0.608-1.641,1.277c-0.405,0.499-0.804,1.167-1.153,1.967c-0.347,0.799-0.644,1.734-0.849,2.767
				c-0.206,1.034-0.318,2.171-0.295,3.372c0.022,1.202,0.18,2.471,0.512,3.776c0.336,1.302,0.846,2.641,1.577,3.979
				C16.71,125.577,17.66,126.917,18.872,128.223z"/>
			<path id="XMLID_651_" class="st0" d="M36.382,156.452c-3.581-3.651-6.6-7.92-9.056-12.682c-2.428-4.71-4.302-9.901-5.621-15.447
				c-1.291-5.423-2.047-11.19-2.266-17.175c-0.228-6.003,0.211-12.031,1.398-17.923c1.158-5.727,2.977-11.133,5.374-16.089
				c2.397-4.957,5.373-9.465,8.845-13.392c2.933-3.318,6.218-6.222,9.809-8.631c3.616-2.43,7.541-4.356,11.721-5.702
				c4.27-1.374,8.716-2.088,13.198-2.204c4.573-0.103,8.978,0.451,13.165,1.583c4.185,1.133,8.15,2.845,11.841,5.061
				c3.689,2.217,7.106,4.938,10.194,8.088c3.669,3.742,6.875,8.091,9.524,12.916c2.65,4.828,4.745,10.133,6.199,15.791
				c1.489,5.822,2.239,11.819,2.321,17.826c0.089,5.991-0.369,11.785-1.378,17.27c-1.029,5.604-2.633,10.886-4.817,15.715
				c-2.208,4.881-5.001,9.3-8.39,13.132c-2.814,3.185-6.04,5.961-9.676,8.254c-3.638,2.296-7.686,4.109-12.146,5.366
				c-4.722,1.331-9.63,1.959-14.532,2.03c-4.934,0.074-9.526-0.429-13.774-1.447c-4.375-1.045-8.385-2.637-12.03-4.704
				C42.61,162.004,39.307,159.433,36.382,156.452z"/>
			<path id="XMLID_650_" class="st13" d="M136.006,98.711l-0.03-2.42l-0.051-4.229c-0.051-1.411,0.038-2.833-0.132-4.242
				l-0.422-4.237c-0.083-0.706-0.121-1.419-0.274-2.116l-0.385-2.104l-0.389-2.108c-0.109-0.707-0.298-1.399-0.483-2.093
				l-0.546-2.085c-0.19-0.694-0.343-1.397-0.596-2.078c-0.493-1.366-0.863-2.759-1.467-4.11c-0.03-0.069-0.057-0.139-0.086-0.208
				l3.314-0.578l1.168-0.51l0.523-3.154l0.118-2.532c-0.239-0.716-0.408-1.454-0.734-2.145l-0.894-2.101
				c-0.27-0.714-0.682-1.365-1.04-2.041c-0.384-0.662-0.708-1.363-1.15-1.993l-1.308-1.903c-0.423-0.646-0.966-1.201-1.448-1.805
				c-0.488-0.6-0.994-1.183-1.555-1.714c-0.556-0.535-1.074-1.117-1.667-1.61l-1.773-1.495l-1.878-1.356
				c-0.641-0.428-1.31-0.813-1.966-1.219c-0.418-0.239-0.848-0.456-1.275-0.68l0.882-0.621l4.877-3.437l-4.959-3.208l-1.917-1.24
				c-0.633-0.433-1.299-0.776-1.962-1.13c-0.666-0.339-1.318-0.74-2.001-1.025l-2.037-0.904c-0.682-0.296-1.375-0.524-2.064-0.788
				c-0.688-0.266-1.381-0.505-2.079-0.707c-1.391-0.454-2.792-0.829-4.202-1.16c-0.704-0.172-1.411-0.294-2.117-0.443
				c-0.706-0.152-1.413-0.268-2.123-0.38c-1.415-0.244-2.834-0.418-4.255-0.575c-1.198-0.125-2.4-0.21-3.604-0.28l0.389-3.32
				l0.574-4.906l-4.757-0.007c-1.603-0.003-3.218-0.128-4.811-0.012l-2.394,0.12l-2.373,0.258c-0.795,0.075-1.579,0.187-2.358,0.332
				c-0.781,0.136-1.566,0.255-2.341,0.408l-2.309,0.529c-0.774,0.162-1.521,0.403-2.282,0.606c-0.759,0.208-1.517,0.421-2.258,0.675
				c-0.744,0.249-1.498,0.471-2.232,0.745c-1.476,0.526-2.933,1.098-4.375,1.708c-1.007,0.438-2.004,0.9-2.996,1.377l-0.677-3.246
				l-1.242-5.96l-5.021,2.947l-4.421,2.595l-2.205,1.303c-0.72,0.454-1.388,0.982-2.083,1.471l-4.125,2.989
				c-1.309,1.074-2.593,2.176-3.885,3.264c-0.635,0.559-1.317,1.064-1.909,1.667l-1.828,1.752c-1.227,1.158-2.437,2.332-3.567,3.589
				c-1.16,1.223-2.306,2.462-3.385,3.773c-0.212,0.251-0.425,0.5-0.637,0.75l-3.651-3.266l-2.045,4.203
				c-0.678,1.395-1.463,2.749-2.025,4.18l-0.895,2.127l-0.777,2.156c-0.274,0.715-0.478,1.446-0.7,2.173
				c-0.209,0.729-0.464,1.448-0.633,2.184c-0.383,1.464-0.741,2.929-1.026,4.405c-0.31,1.471-0.549,2.953-0.765,4.433
				c-0.217,1.481-0.379,2.966-0.52,4.452c-0.126,1.487-0.202,2.978-0.241,4.472c-0.01,0.419-0.009,0.841-0.013,1.261l-2.423-0.336
				L3.255,71.3l0.505,3.296l0.513,3.356c0.189,1.116,0.307,2.239,0.553,3.345L5.5,84.619c0.211,1.109,0.491,2.204,0.786,3.295
				l0.856,3.273l0.997,3.232c0.323,1.078,0.672,2.148,1.068,3.204l1.15,3.172l1.281,3.119c0.418,1.041,0.933,2.045,1.394,3.067
				c0.458,1.023,0.968,2.023,1.487,3.016c0.501,1.002,1.024,1.991,1.586,2.961c1.066,1.966,2.273,3.855,3.519,5.705
				c1.262,1.839,2.576,3.646,4.063,5.299c0,0-2.661-27.575,11.489-35.13c5.717-3.051,15.053,0.901,35.441,0.374
				c22.844-0.589,31.992-4.178,37.301-0.213c5.037,3.764,11.425,9.438,10.701,32.518l2.012-2.975l0.995-1.493
				c0.323-0.504,0.685-0.981,0.975-1.508l1.829-3.119l0.904-1.574l0.81-1.619l0.81-1.623c0.263-0.545,0.561-1.075,0.785-1.639
				l1.433-3.355l0.626-1.726c0.2-0.58,0.437-1.144,0.594-1.746l0.514-1.788c0.005-0.025,0.011-0.048,0.017-0.073l2.834,0.802
				L136.006,98.711z"/>
			<g id="XMLID_520_">
				<path id="XMLID_531_" class="st3" d="M138.769,78.489c0.052,1.913,0.04,3.813-0.026,5.695c-13.24-3.824-39.598-5.982-69.872-5.2
					c-29.255,0.755-54.708,4.062-68.148,8.344c-0.142-1.738-0.238-3.498-0.284-5.269C-0.702,37.869,29.501,7.426,67.698,6.439
					C105.901,5.453,137.628,34.3,138.769,78.489z"/>
				<path id="XMLID_530_" class="st14" d="M69.977,94.862c-43.418,1.123-60.396,2.103-69.35-5.361
					c-5.532-4.611,26.179-11.047,69.598-12.168c43.422-1.119,75.422,3.67,70.134,8.561c-8.556,7.915-25.561,7.811-68.981,8.932
					L69.977,94.862z"/>
				<path id="XMLID_523_" class="st15" d="M0.629,86.072c0,0,2.074-0.668,5.722-1.769c1.852-0.468,4.103-1.037,6.682-1.689
					c2.597-0.567,5.527-1.232,8.744-1.834c3.227-0.535,6.708-1.256,10.43-1.719c1.859-0.26,3.767-0.527,5.719-0.801
					c1.952-0.267,3.957-0.44,5.991-0.667c4.068-0.468,8.285-0.794,12.574-1.095c4.299-0.286,8.639-0.432,13.041-0.606
					c2.175-0.015,4.35-0.03,6.518-0.045c2.163-0.031,4.326-0.023,6.485,0.046c4.31,0.064,8.544,0.233,12.628,0.502
					c4.09,0.18,8.03,0.577,11.765,0.928c3.738,0.304,7.249,0.857,10.497,1.248c3.242,0.463,6.198,0.995,8.817,1.448
					c2.603,0.541,4.873,1.013,6.742,1.401c3.701,0.958,5.794,1.545,5.794,1.545s-2.16-0.334-5.901-0.982
					c-1.886-0.244-4.174-0.541-6.799-0.881c-2.633-0.254-5.604-0.54-8.845-0.852c-1.623-0.12-3.314-0.244-5.064-0.372
					c-1.748-0.14-3.554-0.288-5.417-0.365c-3.723-0.203-7.646-0.423-11.711-0.53c-2.03-0.057-4.097-0.165-6.184-0.183
					c-2.086-0.021-4.198-0.044-6.327-0.066c-4.247-0.116-8.623,0.079-12.965,0.098c-4.292,0.138-8.654,0.249-12.904,0.499
					c-4.257,0.287-8.456,0.446-12.504,0.835c-4.054,0.306-7.966,0.675-11.674,1.066c-1.858,0.166-3.658,0.383-5.397,0.606
					c-1.741,0.208-3.425,0.409-5.041,0.602c-3.224,0.456-6.179,0.873-8.799,1.243c-2.606,0.452-4.878,0.846-6.749,1.171
					C2.768,85.654,0.629,86.072,0.629,86.072z"/>
				<path id="XMLID_522_" class="st16" d="M61.9,0.295c-5.395,0.139-8.725,4.531-7.406,9.766l7.466,49.308
					c1.32,5.228,13.117,4.923,14.165-0.366l4.947-49.627c1.047-5.295-2.507-9.51-7.901-9.371L61.9,0.295z"/>
			</g>
			<g id="XMLID_117_">
				<path id="XMLID_115_" class="st17" d="M65.331,131.065c0.675-0.903,2.71,1.542,5.805,1.73c3.094,0.188,4.442-3.102,5.797-2.331
					c1.355,0.771-1.344,5.03-5.985,5.426S64.753,131.84,65.331,131.065z"/>
			</g>
		</g>
	</g>
</g>
<g id="Ojos-Cerrados">
	<g>
		<g id="XMLID_781_">
			<path id="XMLID_785_" class="st18" d="M59.617,121.112c0,0-4.418-12.507-11.865-11.745c-7.45,0.765-9.236,13.91-9.236,13.91
				S48.68,116.258,59.617,121.112z"/>
			<path id="XMLID_784_" class="st19" d="M59.617,121.112c0,0-0.231-0.509-0.671-1.376c-0.431-0.872-1.113-2.083-2.001-3.477
				c-0.453-0.692-0.971-1.419-1.557-2.153c-0.311-0.351-0.628-0.711-0.954-1.079c-0.362-0.327-0.694-0.701-1.077-1.027
				c-0.772-0.633-1.611-1.258-2.568-1.615c-0.905-0.452-2.027-0.503-2.927-0.49c-0.52,0.137-1.147,0.173-1.578,0.389
				c-0.441,0.199-0.894,0.367-1.305,0.697c-0.861,0.546-1.557,1.327-2.186,2.103c-0.308,0.396-0.557,0.831-0.845,1.225
				c-0.243,0.426-0.482,0.843-0.713,1.249c-0.425,0.838-0.785,1.655-1.088,2.424c-0.586,1.545-1.009,2.869-1.254,3.811
				c-0.255,0.938-0.378,1.484-0.378,1.484s0.095-2.249,1.058-5.494c0.256-0.805,0.57-1.668,0.952-2.565
				c0.214-0.44,0.434-0.893,0.659-1.355c0.267-0.442,0.532-0.901,0.844-1.342c0.653-0.856,1.369-1.761,2.363-2.4
				c0.448-0.366,1.024-0.614,1.6-0.857c0.576-0.258,1.096-0.276,1.646-0.425c1.315-0.059,2.47,0.071,3.555,0.585
				c1.102,0.425,1.986,1.165,2.799,1.871c0.397,0.368,0.747,0.765,1.099,1.143c0.315,0.406,0.621,0.805,0.92,1.192
				c0.558,0.801,1.038,1.582,1.455,2.317C59.066,118.93,59.617,121.112,59.617,121.112z"/>
			<path id="XMLID_782_" class="st13" d="M37.257,123.711c0,0,1.163-1.028,3.16-2.232c1.003-0.59,2.203-1.259,3.58-1.781
				c0.675-0.3,1.415-0.494,2.15-0.754c0.756-0.179,1.52-0.415,2.31-0.534c0.79-0.122,1.581-0.278,2.379-0.301
				c0.397-0.023,0.794-0.058,1.187-0.064c0.391,0.015,0.778,0.056,1.159,0.086c0.379,0.053,0.756,0.085,1.115,0.16
				c0.356,0.101,0.702,0.204,1.034,0.319c0.331,0.111,0.653,0.218,0.965,0.322c0.303,0.125,0.579,0.295,0.85,0.431
				c0.536,0.291,1.021,0.556,1.422,0.834c0.385,0.311,0.709,0.59,0.964,0.834c0.522,0.465,0.785,0.757,0.787,0.757
				c0.041,0.045,0.037,0.116-0.009,0.157c-0.028,0.025-0.063,0.033-0.097,0.026l-0.015-0.003c0.001,0-0.401-0.084-1.044-0.279
				c-0.328-0.086-0.712-0.208-1.138-0.356c-0.439-0.105-0.935-0.223-1.475-0.352c-0.522-0.16-1.105-0.253-1.717-0.344
				c-0.305-0.045-0.614-0.106-0.929-0.173c-0.321-0.033-0.649-0.067-0.983-0.1c-0.331-0.048-0.666-0.118-1.009-0.158
				c-0.347-0.009-0.697-0.047-1.053-0.075c-0.712-0.098-1.44-0.025-2.174-0.009c-0.734,0.03-1.459,0.177-2.183,0.265
				c-0.709,0.172-1.427,0.278-2.093,0.494c-1.351,0.373-2.587,0.837-3.637,1.269c-2.096,0.889-3.376,1.731-3.376,1.731
				c-0.05,0.033-0.117,0.019-0.149-0.031C37.206,123.808,37.218,123.746,37.257,123.711z"/>
		</g>
		<g id="XMLID_776_">
			<path id="XMLID_780_" class="st18" d="M81.121,121.388c0,0,4.418-12.507,11.865-11.745c7.447,0.765,9.236,13.91,9.236,13.91
				S92.056,116.534,81.121,121.388z"/>
			<path id="XMLID_779_" class="st19" d="M81.121,121.388c0,0,0.551-2.183,2.152-5.164c0.416-0.735,0.896-1.516,1.455-2.317
				c0.299-0.387,0.605-0.786,0.92-1.192c0.351-0.379,0.702-0.776,1.099-1.143c0.813-0.706,1.698-1.446,2.799-1.87
				c1.085-0.513,2.24-0.642,3.554-0.585c0.552,0.149,1.071,0.166,1.647,0.425c0.577,0.243,1.153,0.491,1.601,0.858
				c0.993,0.638,1.708,1.544,2.361,2.399c0.312,0.442,0.577,0.9,0.845,1.342c0.224,0.462,0.444,0.914,0.658,1.354
				c0.384,0.898,0.696,1.76,0.952,2.565c0.964,3.245,1.059,5.494,1.059,5.494s-0.123-0.546-0.378-1.484
				c-0.245-0.941-0.669-2.265-1.255-3.81c-0.303-0.769-0.662-1.586-1.088-2.424c-0.231-0.406-0.47-0.823-0.713-1.25
				c-0.287-0.394-0.536-0.828-0.845-1.225c-0.627-0.776-1.323-1.557-2.186-2.103c-0.41-0.331-0.863-0.499-1.305-0.697
				c-0.429-0.217-1.056-0.253-1.576-0.39c-0.899-0.012-2.021,0.038-2.927,0.49c-0.957,0.357-1.796,0.982-2.568,1.615
				c-0.382,0.326-0.716,0.699-1.077,1.027c-0.325,0.368-0.643,0.729-0.954,1.079c-0.586,0.735-1.104,1.461-1.557,2.153
				c-0.888,1.394-1.57,2.605-2.001,3.477C81.352,120.878,81.121,121.388,81.121,121.388z"/>
			<path id="XMLID_777_" class="st13" d="M103.351,124.16c0,0-1.28-0.842-3.375-1.732c-1.052-0.431-2.288-0.896-3.639-1.269
				c-0.666-0.216-1.384-0.322-2.092-0.494c-0.725-0.089-1.45-0.236-2.184-0.265c-0.734-0.016-1.462-0.09-2.174,0.009
				c-0.356,0.027-0.706,0.064-1.052,0.074c-0.344,0.04-0.68,0.109-1.011,0.157c-0.334,0.035-0.662,0.068-0.983,0.1
				c-0.313,0.067-0.623,0.128-0.929,0.173c-0.612,0.091-1.195,0.184-1.717,0.344c-0.541,0.129-1.036,0.248-1.475,0.352
				c-0.426,0.148-0.81,0.27-1.138,0.356c-0.643,0.195-1.046,0.279-1.044,0.279l-0.015,0.003c-0.06,0.012-0.119-0.026-0.13-0.086
				c-0.009-0.036,0.003-0.072,0.025-0.098c0.001,0,0.265-0.292,0.787-0.757c0.255-0.243,0.579-0.522,0.964-0.833
				c0.401-0.278,0.886-0.543,1.422-0.834c0.271-0.136,0.546-0.306,0.85-0.431c0.312-0.104,0.634-0.212,0.965-0.322
				c0.333-0.115,0.678-0.218,1.034-0.319c0.359-0.075,0.735-0.107,1.115-0.16c0.381-0.029,0.768-0.072,1.159-0.086
				c0.393,0.006,0.79,0.04,1.187,0.064c0.798,0.023,1.589,0.179,2.379,0.3c0.79,0.119,1.554,0.356,2.31,0.534
				c0.735,0.261,1.475,0.455,2.15,0.754c1.377,0.522,2.577,1.192,3.58,1.781c1.996,1.204,3.16,2.232,3.16,2.232
				c0.045,0.038,0.051,0.106,0.013,0.152C103.458,124.182,103.397,124.189,103.351,124.16z"/>
		</g>
	</g>
</g>
<g id="Cejas">
	<g id="XMLID_698_">
		<path id="XMLID_534_" class="st13" d="M56.315,104.486c2.167-3.613-5.287-6.524-9.724-6.618
			c-4.437-0.094-10.531,8.162-9.587,10.155c0.944,1.993,4.528-5.426,9.951-5.312C52.378,102.826,54.27,107.896,56.315,104.486z"/>
		<path id="XMLID_533_" class="st13" d="M84.582,103.925c-2.012-3.702,5.559-6.294,9.996-6.2c4.437,0.094,10.176,8.601,9.148,10.552
			c-1.028,1.951-4.294-5.613-9.717-5.728C88.586,102.433,86.481,107.418,84.582,103.925z"/>
	</g>
</g>
<g id="Boca_3">
	<g>
		<path id="XMLID_841_" d="M96.185,147.97c0,3.954-6.432,14.421-26.279,14.421c-18.861,0-25.088-10.468-25.088-14.421
			c0-3.611,2.481-4.442,6.563-4.291h0.035c0.003,0,0.003,0,0.006,0c4.699,0.173,11.505,1.629,19.078,1.629
			c7.342,0,13.966-1.368,18.646-1.61h0.012c0.009,0,0.016,0,0.026-0.001C93.523,143.473,96.185,144.23,96.185,147.97z"/>
		<g id="XMLID_119_">
			<path id="XMLID_132_" class="st3" d="M83.743,160.215c-1.127-2.563-6.375-4.504-12.69-4.504c-6.739,0-12.267,2.209-12.862,5.028
				c3.206,1.014,7.074,1.653,11.715,1.653C75.566,162.392,80.103,161.524,83.743,160.215z"/>
			<path id="XMLID_153_" class="st3" d="M71.053,153.026c8.75,0,15.844-3.037,15.844-6.783c0-0.795-0.336-1.555-0.923-2.264
				c-4.306,0.477-9.656,1.33-15.475,1.33c-5.373,0-10.342-0.728-14.464-1.216c-0.528,0.676-0.826,1.398-0.826,2.15
				C55.209,149.989,62.303,153.026,71.053,153.026z"/>
		</g>
	</g>
</g>
</svg>
