<?xml version="1.0" encoding="utf-8"?>
<!-- Generator: Adobe Illustrator 21.0.0, SVG Export Plug-In . SVG Version: 6.00 Build 0)  -->
<svg version="1.1" id="Capa_1" xmlns="http://www.w3.org/2000/svg" xmlns:xlink="http://www.w3.org/1999/xlink" x="0px" y="0px"
	 viewBox="0 0 90.31 39.807" style="enable-background:new 0 0 90.31 39.807;" xml:space="preserve">
<style type="text/css">
	.st0{opacity:0.2;fill-rule:evenodd;clip-rule:evenodd;}
	.st1{fill-rule:evenodd;clip-rule:evenodd;fill:#FFFFFF;}
	.st2{fill-rule:evenodd;clip-rule:evenodd;fill:#FF5555;}
	.st3{fill-rule:evenodd;clip-rule:evenodd;fill:#E6E6E6;}
	.st4{fill-rule:evenodd;clip-rule:evenodd;fill:#FF8080;}
	.st5{fill-rule:evenodd;clip-rule:evenodd;fill:#AA0000;}
	.st6{fill-rule:evenodd;clip-rule:evenodd;fill:#FF2A2A;}
	.st7{fill-rule:evenodd;clip-rule:evenodd;fill:#FFAAAA;}
	.st8{fill-rule:evenodd;clip-rule:evenodd;fill:#F43737;}
	.st9{fill-rule:evenodd;clip-rule:evenodd;fill:#C12564;}
	.st10{fill-rule:evenodd;clip-rule:evenodd;fill:#F4F4F4;}
	.st11{fill-rule:evenodd;clip-rule:evenodd;fill:#E26A9A;}
	.st12{fill-rule:evenodd;clip-rule:evenodd;fill:#5D1230;}
	.st13{fill-rule:evenodd;clip-rule:evenodd;fill:#DA3F7E;}
	.st14{fill-rule:evenodd;clip-rule:evenodd;fill:#961D4E;}
	.st15{fill:#F15A24;}
	.st16{fill:#009245;}
	.st17{fill:#FBB03B;}
</style>
<g>
	<g>
		<path class="st0" d="M80.812,6.871c7.787,0,9.523,7.714,9.497,15.383c-0.026,7.583-1.059,15.123-9.497,15.123
			c-24.184,0-33.368,0-57.552,0c-8.438,0-9.472-7.54-9.498-15.123c-0.025-7.669,1.711-15.383,9.498-15.383
			C47.445,6.871,56.628,6.871,80.812,6.871z"/>
		<path class="st1" d="M80.812,5.361c7.787,0,9.523,7.715,9.497,15.384c-0.026,7.582-1.059,15.122-9.497,15.122
			c-24.184,0-33.368,0-57.552,0c-8.438,0-9.472-7.54-9.498-15.122c-0.025-7.669,1.711-15.384,9.498-15.384
			C47.445,5.361,56.628,5.361,80.812,5.361z"/>
		<path class="st2" d="M78.119,7.538c7.209,0,8.816,6.165,8.792,12.293c-0.024,6.059-0.981,12.085-8.792,12.085
			c-22.389,0-29.777,0-52.165,0c-7.812,0-8.768-6.026-8.793-12.085c-0.024-6.128,1.584-12.293,8.793-12.293
			C48.343,7.538,55.73,7.538,78.119,7.538z"/>
		<path class="st3" d="M23.261,34.771c-8.284,0-9.431-7.269-9.495-14.709c0,0.003,0,0.005,0,0.007
			c-0.003,0.225-0.003,0.451-0.003,0.676c0.026,7.582,1.06,15.122,9.498,15.122h57.552c8.438,0,9.472-7.54,9.497-15.122
			c0.001-0.228,0-0.456-0.002-0.683c-0.064,7.44-1.211,14.709-9.495,14.709H23.261z"/>
		<path class="st4" d="M78.118,29.425H25.954c-7.283,0-8.608-5.238-8.773-10.857c-0.015,0.42-0.021,0.842-0.02,1.264
			c0.025,6.06,0.981,12.085,8.793,12.085h52.164c7.812,0,8.769-6.025,8.793-12.085c0.001-0.422-0.004-0.843-0.02-1.264
			C86.727,24.187,85.402,29.425,78.118,29.425z"/>
		<path class="st5" d="M17.161,19.782v0.049c0.025,6.06,0.981,12.085,8.793,12.085h52.164c7.812,0,8.769-6.025,8.793-12.085v-0.049
			c-0.001-0.329-0.008-0.658-0.02-0.987c-0.165,5.619-1.49,10.857-8.773,10.857H25.954c-7.283,0-8.608-5.238-8.773-10.857
			C17.169,19.123,17.163,19.453,17.161,19.782z"/>
		<path class="st6" d="M86.321,23.312c-35.346,3.569-48.57,3.882-68.465,0.385c0.953,3.311,3.151,5.728,8.098,5.728h52.164
			C83.256,29.425,85.428,26.819,86.321,23.312z"/>
		<path class="st7" d="M25.954,8.544h52.164c6.533,0,8.465,5.061,8.753,10.572c0.008-0.182,0.015-0.365,0.02-0.548
			c-0.189-5.273-1.8-10.254-7.389-10.948c-0.436-0.054-0.897-0.082-1.384-0.082H25.954c-0.486,0-0.947,0.028-1.384,0.082
			c-5.59,0.694-7.2,5.675-7.389,10.948c0.006,0.183,0.012,0.366,0.02,0.548C17.489,13.605,19.422,8.544,25.954,8.544z"/>
		<g>
			<path class="st5" d="M78.651,10.321c4.425,0,5.412,4.39,5.398,8.753c-0.015,4.314-0.602,8.604-5.398,8.604
				c-13.744,0-20.908,0-34.651,0c-4.795,0-5.382-4.29-5.397-8.604c-0.015-4.363,0.972-8.753,5.397-8.753
				C57.743,10.321,64.907,10.321,78.651,10.321z"/>
			<path class="st4" d="M78.651,11.307c4.425,0,5.412,4.14,5.398,8.256c-0.015,4.069-0.602,8.116-5.398,8.116
				c-13.744,0-20.908,0-34.651,0c-4.795,0-5.382-4.047-5.397-8.116c-0.015-4.115,0.972-8.256,5.397-8.256
				C57.743,11.307,64.907,11.307,78.651,11.307z"/>
			<path class="st8" d="M78.651,11.307c4.425,0,5.412,3.913,5.398,7.803c-0.015,3.845-0.602,7.67-5.398,7.67
				c-13.744,0-20.908,0-34.651,0c-4.795,0-5.382-3.825-5.397-7.67c-0.015-3.89,0.972-7.803,5.397-7.803
				C57.743,11.307,64.907,11.307,78.651,11.307z"/>
		</g>
	</g>
	<g>
		<path class="st0" d="M6.865,5.73c3.854-3.205,8.547-4.42,13.014-3.794c4.476,0.627,8.731,3.094,11.697,7.25
			c2.969,4.16,4.095,9.223,3.516,14.044c-0.58,4.832-2.868,9.423-6.718,12.625c-3.854,3.204-8.547,4.419-13.014,3.794
			c-4.477-0.627-8.731-3.094-11.697-7.25c-2.969-4.159-4.095-9.223-3.516-14.045C0.728,13.523,3.013,8.931,6.865,5.73L6.865,5.73z
			 M19.296,6.91c-3.295-0.461-6.754,0.433-9.59,2.791c-2.84,2.36-4.525,5.737-4.95,9.283c-0.427,3.555,0.401,7.288,2.586,10.349
			c2.187,3.064,5.315,4.883,8.6,5.343c3.295,0.461,6.753-0.433,9.59-2.791c2.839-2.361,4.525-5.736,4.95-9.283
			c0.427-3.555-0.401-7.287-2.586-10.349C25.71,9.189,22.582,7.37,19.296,6.91z"/>
		<path class="st1" d="M6.865,3.952c3.854-3.204,8.547-4.419,13.014-3.793c4.476,0.627,8.731,3.094,11.697,7.25
			c2.969,4.159,4.095,9.223,3.516,14.044c-0.58,4.832-2.868,9.423-6.718,12.624c-3.854,3.205-8.547,4.42-13.014,3.794
			c-4.477-0.627-8.731-3.094-11.697-7.25c-2.969-4.159-4.095-9.224-3.516-14.045C0.728,11.745,3.013,7.153,6.865,3.952L6.865,3.952z
			 M19.296,5.132c-3.295-0.462-6.754,0.432-9.59,2.79c-2.84,2.361-4.525,5.737-4.95,9.282c-0.427,3.556,0.401,7.288,2.586,10.35
			c2.187,3.064,5.315,4.882,8.6,5.343c3.295,0.46,6.753-0.434,9.59-2.791c2.839-2.361,4.525-5.736,4.95-9.282
			c0.427-3.555-0.401-7.287-2.586-10.349C25.71,7.41,22.582,5.591,19.296,5.132z"/>
		<path class="st9" d="M8.285,4.955c6.692-5.562,16.296-4.218,21.451,3.005c5.155,7.222,3.908,17.586-2.784,23.15
			c-6.692,5.562-16.295,4.217-21.451-3.004C0.348,20.884,1.593,10.518,8.285,4.955z"/>
		
			<ellipse transform="matrix(0.7922 -0.6102 0.6102 0.7922 -6.0869 14.0708)" class="st10" cx="17.619" cy="15.974" rx="11.941" ry="11.941"/>
		<path class="st11" d="M26.952,28.021c-6.247,5.193-15.032,4.366-20.365-1.642c-0.38-0.428-0.743-0.882-1.085-1.361
			c-1.828-2.562-2.852-5.52-3.111-8.518c-0.348,4.009,0.655,8.164,3.111,11.606c5.155,7.222,14.759,8.567,21.451,3.004
			c4.318-3.59,6.368-9.179,5.895-14.633c-0.314,3.629-1.736,7.14-4.187,9.893C28.138,26.956,27.568,27.509,26.952,28.021z"/>
		<path class="st12" d="M2.326,18.275c0.044,3.441,1.081,6.896,3.176,9.831c5.155,7.222,14.759,8.567,21.451,3.004
			c3.852-3.202,5.899-7.994,5.96-12.863c-0.007-0.434-0.028-0.868-0.065-1.302c-0.314,3.63-1.736,7.141-4.187,9.893
			c-0.522,0.587-1.092,1.139-1.708,1.651c-6.247,5.194-15.032,4.367-20.365-1.641c-0.38-0.428-0.743-0.882-1.085-1.362
			c-1.828-2.561-2.852-5.519-3.111-8.518C2.353,17.403,2.331,17.839,2.326,18.275z"/>
		<path class="st13" d="M8.285,6.5c6.692-5.562,16.296-4.218,21.451,3.005c1.672,2.341,2.67,5.012,3.028,7.742
			c0.033-0.256,0.061-0.513,0.083-0.771c-0.261-2.998-1.284-5.955-3.111-8.517c-5.155-7.223-14.759-8.567-21.45-3.005
			c-3.503,2.912-5.514,7.14-5.894,11.544c0.022,0.257,0.05,0.514,0.084,0.771C3.013,13.148,4.988,9.242,8.285,6.5z"/>
		<path class="st14" d="M26.952,25.166c-6.692,5.562-16.295,4.217-21.45-3.004c-0.254-0.356-0.493-0.721-0.716-1.091
			c-0.989-1.64-1.674-3.411-2.066-5.23c-0.101,0.472-0.184,0.949-0.246,1.428c0.357,2.732,1.355,5.405,3.028,7.747
			c0.342,0.479,0.704,0.933,1.084,1.361c5.333,6.008,14.118,6.836,20.365,1.642c0.616-0.512,1.185-1.065,1.708-1.652
			c2.277-2.557,3.665-5.768,4.104-9.122c-0.063-0.476-0.145-0.952-0.247-1.423c-0.397,1.85-1.09,3.633-2.068,5.258
			C29.532,22.607,28.362,23.994,26.952,25.166z"/>
		<path class="st3" d="M15.359,36.14c-4.476-0.627-8.731-3.094-11.697-7.25c-2.292-3.212-3.486-6.963-3.644-10.725
			c-0.183,4.329,0.999,8.752,3.644,12.456c2.966,4.156,7.221,6.622,11.697,7.25c4.467,0.625,9.16-0.59,13.015-3.794
			c3.849-3.201,6.137-7.792,6.718-12.624c0.131-1.099,0.176-2.21,0.128-3.32c-0.022,0.532-0.064,1.062-0.128,1.589
			c-0.581,4.832-2.869,9.423-6.718,12.624C24.519,35.55,19.826,36.765,15.359,36.14z"/>
		<g>
			<ellipse class="st15" cx="17.857" cy="5.431" rx="0.647" ry="0.664"/>
			<path class="st15" d="M25.585,8.988c0.253-0.258,0.253-0.681,0-0.939c-0.253-0.26-0.663-0.26-0.916,0
				c-0.252,0.258-0.252,0.681,0,0.939C24.922,9.248,25.332,9.248,25.585,8.988z"/>
			<ellipse class="st15" cx="28.139" cy="15.974" rx="0.647" ry="0.664"/>
			<path class="st15" d="M24.669,23.899c0.253,0.261,0.663,0.261,0.916,0c0.253-0.26,0.253-0.68,0-0.939
				c-0.253-0.259-0.663-0.259-0.916,0C24.418,23.219,24.418,23.639,24.669,23.899z"/>
			<ellipse class="st15" cx="17.857" cy="26.518" rx="0.647" ry="0.664"/>
			<path class="st15" d="M10.127,22.96c-0.253,0.26-0.253,0.68,0,0.939c0.253,0.259,0.663,0.261,0.916,0
				c0.253-0.26,0.253-0.68,0-0.939C10.791,22.701,10.38,22.701,10.127,22.96z"/>
			<ellipse class="st15" cx="7.573" cy="15.974" rx="0.647" ry="0.664"/>
			<path class="st15" d="M11.043,8.049c-0.253-0.26-0.663-0.26-0.916,0c-0.253,0.258-0.253,0.679,0,0.939
				c0.253,0.26,0.663,0.26,0.916,0C11.296,8.73,11.296,8.307,11.043,8.049z"/>
		</g>
		<g>
			<g>
				<g>
					<path class="st16" d="M24.286,8.615c0,0-5.83,5.978-6.462,6.626c-0.67-0.578-5.77-4.97-5.77-4.97
						c-0.224-0.193-0.563-0.168-0.755,0.056c-0.192,0.223-0.166,0.562,0.056,0.754l6.152,5.299c0.214,0.184,0.535,0.172,0.733-0.032
						l6.813-6.986c0.206-0.213,0.203-0.549-0.01-0.756C24.831,8.397,24.492,8.403,24.286,8.615z"/>
				</g>
			</g>
		</g>
		<circle class="st17" cx="17.857" cy="15.974" r="1.717"/>
	</g>
</g>
</svg>
