<?xml version="1.0" encoding="utf-8"?>
<!-- Generator: Adobe Illustrator 21.0.0, SVG Export Plug-In . SVG Version: 6.00 Build 0)  -->
<svg version="1.1" id="Capa_1" xmlns="http://www.w3.org/2000/svg" xmlns:xlink="http://www.w3.org/1999/xlink" x="0px" y="0px"
	 viewBox="0 0 78.172 24.905" style="enable-background:new 0 0 78.172 24.905;" xml:space="preserve">
<style type="text/css">
	.st0{fill:#FFFFFF;}
	.st1{fill:#AA0000;}
</style>
<g>
	<g>
		<path class="st0" d="M13.686,2.862l0.018,5.66L5.618,8.382v2.953h6.873l-0.141,4.5l-6.732-0.141v2.813h7.4l-0.123,5.484
			L0.766,23.815L1.223,2.704L13.686,2.862z"/>
		<path class="st0" d="M15.057,23.692c0.035-7.13-0.146-12.825-0.545-17.086l4.922-0.404l-0.158,1.6
			c2.414-1.5,4.875-2.209,7.383-2.127l0.475,4.254c-2.883,0-4.91,0.597-6.082,1.791c-0.809,0.831-1.213,2.943-1.213,6.337
			c0,1.545,0.082,3.365,0.246,5.46L15.057,23.692z"/>
		<path class="st0" d="M28.17,23.692c0.035-7.13-0.146-12.825-0.545-17.086l4.922-0.404l-0.158,1.6
			c2.414-1.5,4.875-2.209,7.383-2.127l0.475,4.254c-2.883,0-4.91,0.597-6.082,1.791c-0.809,0.831-1.213,2.943-1.213,6.337
			c0,1.545,0.082,3.365,0.246,5.46L28.17,23.692z"/>
		<path class="st0" d="M40.897,15.923c0.082-2.672,0.744-4.969,1.986-6.891c1.477-2.297,3.451-3.445,5.924-3.445
			c2.613,0,4.5,0.645,5.66,1.934c0.949,1.055,1.693,2.941,2.232,5.66c0.211,1.066,0.316,2.074,0.316,3.023
			c0,2.039-0.504,3.738-1.512,5.098c-1.477,1.992-3.721,2.941-6.732,2.848c-2.766-0.082-4.793-0.785-6.082-2.109
			S40.803,18.677,40.897,15.923z M51.233,11.704c-0.82-0.773-1.594-1.16-2.32-1.16c-0.891,0-1.711,0.586-2.461,1.758
			c-0.668,1.043-1.002,2.057-1.002,3.041c0,0.926,0.305,1.875,0.914,2.848c0.68,1.09,1.465,1.635,2.355,1.635
			c1.02,0,1.951-0.533,2.795-1.6c0.809-1.008,1.213-2.033,1.213-3.076C52.727,14.024,52.229,12.876,51.233,11.704z"/>
		<path class="st0" d="M57.737,23.692c0.035-7.13-0.146-12.825-0.545-17.086l4.922-0.404l-0.158,1.6
			c2.414-1.5,4.875-2.209,7.383-2.127l0.475,4.254c-2.883,0-4.91,0.597-6.082,1.791c-0.809,0.831-1.213,2.943-1.213,6.337
			c0,1.545,0.082,3.365,0.246,5.46L57.737,23.692z"/>
		<path class="st0" d="M70.76,22.638c-0.327-0.539-0.49-1.049-0.49-1.529c0-0.41,0.117-0.803,0.351-1.178
			c0.502-0.797,1.167-1.23,1.997-1.301c0.829-0.07,1.553,0.27,2.172,1.02c0.433,0.516,0.648,1.055,0.648,1.617
			c0,0.258-0.041,0.504-0.122,0.738c-0.281,0.809-0.871,1.365-1.771,1.67c-0.21,0.07-0.42,0.105-0.63,0.105
			C72.214,23.78,71.497,23.399,70.76,22.638z M71.272,15.853c0.258-2.332,0.387-5.15,0.387-8.455c0-1.98-0.047-4.137-0.141-6.469
			l5.783,1.195c-1.066,5.777-1.928,10.582-2.584,14.414L71.272,15.853z"/>
	</g>
	<g>
		<path class="st1" d="M40.247,10.679h0.838l-0.64-5.732l-0.649-0.021c-2.194-0.067-4.389,0.437-6.519,1.516l0.105-1.061
			l-5.947,0.489l-0.103-0.923l-0.649-0.021c-2.201-0.067-4.389,0.437-6.519,1.516l0.105-1.061l-5.824,0.478l-0.012-3.738
			L0.489,1.945L0,24.555l13.628,0.197l0.157-6.995H6.368V16.46l6.709,0.141l0.188-6.016H6.368v-1.44l7.598,0.132
			c0.253,3.872,0.369,8.692,0.341,14.411l-0.004,0.78l6.59-0.229l-0.062-0.781c-0.162-2.065-0.244-3.883-0.244-5.401
			c0-4.164,0.627-5.43,0.998-5.812c1.02-1.04,2.886-1.566,5.547-1.566h0.03c0.194,3.616,0.282,7.962,0.257,13.01l-0.004,0.78
			l6.59-0.229l-0.062-0.781c-0.162-2.065-0.244-3.883-0.244-5.401c0-4.164,0.627-5.43,0.998-5.812
			C35.72,11.206,37.586,10.679,40.247,10.679z M4.868,7.619v4.466h6.849l-0.093,2.985l-6.756-0.141v4.328h7.383l-0.089,3.974
			l-10.63-0.154L1.957,3.463l10.981,0.14l0.013,4.156L4.868,7.619z M20.514,11.197c-0.972,1-1.425,3.179-1.425,6.86
			c0,1.362,0.064,2.952,0.19,4.737l-3.468,0.122c0.017-6.357-0.146-11.605-0.484-15.624l3.273-0.269L18.38,9.242l1.292-0.803
			c2.065-1.284,4.187-1.96,6.315-2.017l0.31,2.773C23.621,9.306,21.724,9.963,20.514,11.197z M33.627,11.197
			c-0.972,1-1.425,3.179-1.425,6.86c0,1.362,0.064,2.952,0.19,4.737l-3.468,0.122c0.017-6.357-0.146-11.605-0.484-15.624
			l3.273-0.269l-0.219,2.218l1.292-0.803c2.065-1.284,4.187-1.96,6.315-2.017l0.31,2.773C36.734,9.306,34.837,9.963,33.627,11.197z"
			/>
		<path class="st1" d="M51.748,11.158c-2.169-2.046-4.324-1.766-5.928,0.739c-0.743,1.161-1.12,2.32-1.12,3.445
			c0,1.064,0.346,2.156,1.027,3.244c0.823,1.319,1.829,1.988,2.992,1.988c1.256,0,2.394-0.634,3.38-1.88
			c0.914-1.14,1.378-2.333,1.378-3.546c0-1.303-0.563-2.625-1.673-3.931L51.748,11.158z M50.926,17.76
			c-0.7,0.886-1.422,1.315-2.207,1.315c-0.619,0-1.182-0.419-1.72-1.283c-0.531-0.847-0.8-1.671-0.8-2.449
			c0-0.834,0.297-1.721,0.884-2.637c0.6-0.937,1.215-1.412,1.829-1.412c0.518,0,1.115,0.312,1.775,0.928
			c0.855,1.016,1.289,2,1.289,2.928C51.977,16.024,51.634,16.877,50.926,17.76z"/>
		<path class="st1" d="M69.813,10.679h0.838l-0.639-5.732l-0.649-0.021c-2.204-0.077-4.389,0.437-6.519,1.516l0.104-1.061
			l-6.574,0.54l0.07,0.755c0.101,1.074,0.187,2.249,0.26,3.516c-0.464-1.391-1.02-2.44-1.68-3.173
			c-1.303-1.448-3.396-2.182-6.218-2.182c-2.732,0-4.938,1.275-6.554,3.788c-1.312,2.029-2.02,4.476-2.106,7.273
			c-0.101,2.952,0.574,5.195,2.005,6.665c1.424,1.462,3.643,2.248,6.596,2.336c0.143,0.004,0.283,0.006,0.423,0.006
			c3.05,0,5.382-1.061,6.936-3.157c0.356-0.48,0.634-1.015,0.876-1.573c0.007,1.136,0.01,2.297,0.004,3.514l-0.004,0.78l6.59-0.229
			l-0.061-0.781c-0.162-2.065-0.244-3.883-0.244-5.401c0-4.164,0.627-5.43,0.998-5.812C65.286,11.206,67.152,10.679,69.813,10.679z
			 M54.902,20.855c-1.333,1.799-3.336,2.633-6.107,2.544c-2.552-0.075-4.424-0.709-5.567-1.883
			c-1.135-1.166-1.667-3.039-1.581-5.568v-0.002c0.078-2.521,0.706-4.71,1.868-6.508c1.341-2.087,3.072-3.101,5.293-3.101
			c2.38,0,4.097,0.567,5.103,1.686c0.854,0.948,1.545,2.732,2.055,5.304c0.2,1.014,0.302,1.981,0.302,2.878
			C56.266,18.069,55.807,19.634,54.902,20.855z M63.194,11.197c-0.973,1-1.426,3.179-1.426,6.86c0,1.362,0.063,2.952,0.19,4.737
			l-3.469,0.122c0.018-6.357-0.146-11.605-0.484-15.624l3.273-0.269l-0.22,2.218l1.292-0.803c2.065-1.284,4.188-1.96,6.316-2.017
			l0.309,2.773C66.3,9.306,64.404,9.963,63.194,11.197z"/>
		<path class="st1" d="M70.73,0l0.039,0.959c0.093,2.311,0.14,4.477,0.14,6.438c0,3.262-0.129,6.079-0.382,8.373l-0.076,0.684
			l4.876,0.97l0.13-0.759c0.652-3.812,1.521-8.658,2.582-14.405l0.134-0.722L70.73,0z M74.109,15.652l-2.021-0.402
			c0.213-2.214,0.32-4.852,0.32-7.853c0-1.708-0.035-3.567-0.105-5.541L76.43,2.71C75.497,7.778,74.717,12.125,74.109,15.652z"/>
		<path class="st1" d="M72.554,17.883c-1.072,0.091-1.937,0.646-2.57,1.651c-0.308,0.495-0.464,1.024-0.464,1.574
			c0,0.618,0.201,1.264,0.599,1.918l0.103,0.133c0.88,0.91,1.786,1.371,2.694,1.371c0.29,0,0.582-0.049,0.87-0.146
			c1.126-0.381,1.879-1.099,2.239-2.135c0.108-0.313,0.163-0.645,0.163-0.983c0-0.741-0.277-1.447-0.82-2.095
			C74.393,17.991,73.306,17.813,72.554,17.883z M74.608,21.759c-0.206,0.591-0.62,0.975-1.301,1.205
			c-0.616,0.208-1.229-0.064-1.948-0.786c-0.225-0.39-0.339-0.749-0.339-1.069c0-0.27,0.077-0.524,0.235-0.778
			c0.378-0.6,0.831-0.902,1.426-0.953c0.586-0.049,1.067,0.189,1.534,0.755c0.318,0.379,0.473,0.75,0.473,1.135
			C74.688,21.441,74.662,21.603,74.608,21.759z"/>
	</g>
</g>
</svg>
