<?xml version="1.0" encoding="utf-8"?>
<!-- Generator: Adobe Illustrator 21.0.0, SVG Export Plug-In . SVG Version: 6.00 Build 0)  -->
<svg version="1.1" id="Capa_1" xmlns="http://www.w3.org/2000/svg" xmlns:xlink="http://www.w3.org/1999/xlink" x="0px" y="0px"
	 viewBox="0 0 64 64" style="enable-background:new 0 0 64 64;" xml:space="preserve">
<g>
	<g>
		<path style="opacity:0.2;fill-rule:evenodd;clip-rule:evenodd;" d="M6.873,9.013c-9.142,8.639-9.17,39.916-0.044,48.571
			c9.024,8.556,41.319,8.556,50.342,0c9.126-8.655,9.099-39.932-0.044-48.571C47.9,0.29,16.1,0.29,6.873,9.013z"/>
		<path style="fill-rule:evenodd;clip-rule:evenodd;fill:#FFFFFF;" d="M6.873,6.542c-9.142,8.639-9.17,39.916-0.044,48.571
			c9.024,8.556,41.319,8.556,50.342,0c9.126-8.655,9.099-39.932-0.044-48.571C47.9-2.181,16.1-2.181,6.873,6.542z"/>
		<path style="fill-rule:evenodd;clip-rule:evenodd;fill:#FEC31D;" d="M9.233,7.287C0.95,15.114,0.926,43.452,9.194,51.293
			c8.176,7.752,37.435,7.752,45.611,0c8.268-7.841,8.244-36.178-0.039-44.006C46.406-0.616,17.594-0.616,9.233,7.287z"/>
		<path style="fill-rule:evenodd;clip-rule:evenodd;fill:#C96900;" d="M54.806,45.367c-8.176,7.753-37.435,7.753-45.611,0
			c-3.674-3.483-5.711-11.013-6.114-18.993c-0.5,9.949,1.535,20.576,6.114,24.919c8.176,7.752,37.435,7.752,45.611,0
			c4.579-4.343,6.614-14.969,6.114-24.919C60.516,34.354,58.479,41.884,54.806,45.367z"/>
		<path style="fill-rule:evenodd;clip-rule:evenodd;fill:#FFAC04;" d="M6.585,41.749c0.752,1.452,1.621,2.68,2.609,3.617
			c8.176,7.753,37.435,7.753,45.611,0c3.155-2.992,5.103-8.968,5.846-15.65C45.307,40.421,27.25,44.342,6.585,41.749z"/>
		<path style="fill-rule:evenodd;clip-rule:evenodd;fill:#FFD30E;" d="M9.233,7.287c-2.483,2.346-4.224,6.534-5.222,11.46
			c14.335-14.15,43.075-16.411,55.244-3.015c-1.035-3.601-2.533-6.596-4.489-8.445C46.406-0.616,17.594-0.616,9.233,7.287z"/>
		<path style="fill-rule:evenodd;clip-rule:evenodd;fill:#FFFF79;" d="M15.762,5.395c-3.517,0.948-6.369,3.253-6.369,5.148
			c0,1.897,2.852,2.665,6.369,1.716c3.519-0.948,6.369-3.252,6.369-5.147C22.131,5.216,19.281,4.447,15.762,5.395z"/>
		<path style="fill-rule:evenodd;clip-rule:evenodd;fill:#FFFF79;" d="M26.319,2.832c-1.982,0.119-3.776,1.029-4.007,2.036
			c-0.231,1.006,1.189,1.727,3.173,1.609c1.982-0.117,3.776-1.029,4.007-2.035C29.723,3.435,28.301,2.715,26.319,2.832z"/>
		<path style="fill-rule:evenodd;clip-rule:evenodd;fill:#FEE147;" d="M50.599,41.112c-2.221,1.025-3.833,2.877-3.597,4.138
			c0.236,1.261,2.227,1.452,4.448,0.428c2.223-1.023,3.833-2.877,3.599-4.136C54.813,40.279,52.822,40.087,50.599,41.112z"/>
		<path style="fill-rule:evenodd;clip-rule:evenodd;fill:#FEE147;" d="M60.651,29.717c-0.742,6.682-2.691,12.657-5.846,15.65
			c-8.176,7.753-37.435,7.753-45.611,0c-0.988-0.937-1.857-2.165-2.609-3.617c-2.042-3.948-3.209-9.542-3.504-15.376
			c-0.059,1.161-0.081,2.332-0.072,3.5c0.008-0.807,0.031-1.613,0.072-2.414c0.403,7.98,2.44,15.509,6.114,18.994
			c8.176,7.752,37.435,7.752,45.611,0c3.674-3.485,5.711-11.014,6.114-18.994c0.041,0.802,0.063,1.61,0.072,2.417
			c0.01-1.17-0.013-2.341-0.072-3.503C60.862,27.501,60.773,28.618,60.651,29.717z"/>
		<path style="fill-rule:evenodd;clip-rule:evenodd;fill:#E6E6E6;" d="M6.829,53.779c-4.451-4.222-6.726-13.83-6.825-23.565
			c-0.104,10.181,2.17,20.483,6.825,24.899c9.025,8.556,41.317,8.556,50.342,0c4.655-4.415,6.93-14.718,6.826-24.899
			c-0.099,9.735-2.374,19.343-6.826,23.565C48.147,62.335,15.853,62.335,6.829,53.779z"/>
	</g>
	<g>
		<path style="fill-rule:evenodd;clip-rule:evenodd;fill:#C96900;" d="M43.059,12.341c-1.041-0.585-2.312-0.56-3.781,0.005
			l-0.086,0.034l-0.156,0.085L16.249,24.961l-0.18,0.099l-0.123,0.102c-1.084,0.883-1.54,1.857-1.469,2.903v0.008
			c0.07,0.986,0.617,1.849,1.55,2.608l0.125,0.102l0.179,0.097l21.859,11.988l0.125,0.068l0.109,0.042
			c1.352,0.528,2.682,0.847,3.922,0.418c1.446-0.502,2.37-1.722,2.393-4.176l0.008-0.015v-23.45h-0.008
			C44.744,14.082,44.159,12.963,43.059,12.341z M40.99,39.839c-0.055,0.019-0.448-0.124-0.947-0.316l-21.2-11.625l21.91-12.014
			v23.32h0.008C40.765,39.723,41.133,39.791,40.99,39.839z M40.969,15.636c0.01-0.04,0.015-0.062,0.06-0.035
			C41.114,15.649,41.055,15.638,40.969,15.636z"/>
		<path style="fill-rule:evenodd;clip-rule:evenodd;fill:#FFFFFF;" d="M40.027,14.1L17.239,26.598
			c-1.126,0.918-0.964,1.795,0.083,2.644L39.18,41.229c1.903,0.742,3.54,0.965,3.57-2.026v-23.45
			C42.755,13.874,41.77,13.432,40.027,14.1z"/>
	</g>
</g>
</svg>
