<?xml version="1.0" encoding="utf-8"?>
<!-- Generator: Adobe Illustrator 21.0.0, SVG Export Plug-In . SVG Version: 6.00 Build 0)  -->
<svg version="1.1" id="Capa_1" xmlns="http://www.w3.org/2000/svg" xmlns:xlink="http://www.w3.org/1999/xlink" x="0px" y="0px"
	 viewBox="0 0 64 64" style="enable-background:new 0 0 64 64;" xml:space="preserve">
<g>
	<g>
		<path style="opacity:0.2;fill-rule:evenodd;clip-rule:evenodd;" d="M6.873,9.013c-9.142,8.639-9.17,39.916-0.044,48.571
			c9.024,8.556,41.319,8.556,50.342,0c9.126-8.655,9.099-39.932-0.044-48.571C47.9,0.29,16.1,0.29,6.873,9.013z"/>
		<path style="fill-rule:evenodd;clip-rule:evenodd;fill:#FFFFFF;" d="M6.873,6.542c-9.142,8.639-9.17,39.916-0.044,48.571
			c9.024,8.556,41.319,8.556,50.342,0c9.126-8.655,9.099-39.932-0.044-48.571C47.9-2.181,16.1-2.181,6.873,6.542z"/>
		<path style="fill-rule:evenodd;clip-rule:evenodd;fill:#FEC31D;" d="M9.233,7.287C0.95,15.114,0.926,43.452,9.194,51.293
			c8.176,7.752,37.435,7.752,45.611,0c8.268-7.841,8.244-36.178-0.039-44.006C46.406-0.616,17.594-0.616,9.233,7.287z"/>
		<path style="fill-rule:evenodd;clip-rule:evenodd;fill:#C96900;" d="M54.806,45.367c-8.176,7.753-37.435,7.753-45.611,0
			c-3.674-3.483-5.711-11.013-6.114-18.993c-0.5,9.949,1.535,20.576,6.114,24.919c8.176,7.752,37.435,7.752,45.611,0
			c4.579-4.343,6.614-14.969,6.114-24.919C60.516,34.354,58.479,41.884,54.806,45.367z"/>
		<path style="fill-rule:evenodd;clip-rule:evenodd;fill:#FFAC04;" d="M6.585,41.749c0.752,1.452,1.621,2.68,2.609,3.617
			c8.176,7.753,37.435,7.753,45.611,0c3.155-2.992,5.103-8.968,5.846-15.65C45.307,40.421,27.25,44.342,6.585,41.749z"/>
		<path style="fill-rule:evenodd;clip-rule:evenodd;fill:#FFD30E;" d="M9.233,7.287c-2.483,2.346-4.224,6.534-5.222,11.46
			c14.335-14.15,43.075-16.411,55.244-3.016c-1.035-3.6-2.533-6.594-4.489-8.445C46.406-0.616,17.594-0.616,9.233,7.287z"/>
		<path style="fill-rule:evenodd;clip-rule:evenodd;fill:#FFFF79;" d="M15.762,5.395c-3.517,0.948-6.369,3.253-6.369,5.149
			c0,1.896,2.852,2.663,6.369,1.716c3.519-0.948,6.369-3.252,6.369-5.148C22.131,5.216,19.281,4.447,15.762,5.395z"/>
		<path style="fill-rule:evenodd;clip-rule:evenodd;fill:#FFFF79;" d="M26.319,2.832c-1.982,0.119-3.776,1.029-4.007,2.036
			c-0.231,1.006,1.189,1.727,3.173,1.609c1.982-0.117,3.776-1.029,4.007-2.035C29.723,3.435,28.301,2.715,26.319,2.832z"/>
		<path style="fill-rule:evenodd;clip-rule:evenodd;fill:#FEE147;" d="M50.599,41.112c-2.221,1.025-3.833,2.877-3.597,4.138
			c0.236,1.261,2.227,1.452,4.448,0.428c2.223-1.023,3.833-2.877,3.599-4.138C54.813,40.279,52.822,40.087,50.599,41.112z"/>
		<path style="fill-rule:evenodd;clip-rule:evenodd;fill:#FEE147;" d="M60.651,29.717c-0.742,6.682-2.691,12.657-5.846,15.65
			c-8.176,7.753-37.435,7.753-45.611,0c-0.988-0.937-1.857-2.165-2.609-3.617c-2.042-3.948-3.209-9.54-3.504-15.376
			c-0.059,1.161-0.081,2.33-0.072,3.5c0.008-0.807,0.031-1.613,0.072-2.414c0.403,7.98,2.44,15.51,6.114,18.994
			c8.176,7.752,37.435,7.752,45.611,0c3.674-3.485,5.711-11.014,6.114-18.994c0.041,0.802,0.063,1.61,0.072,2.417
			c0.01-1.17-0.013-2.341-0.072-3.503C60.862,27.501,60.773,28.618,60.651,29.717z"/>
		<path style="fill-rule:evenodd;clip-rule:evenodd;fill:#E6E6E6;" d="M6.829,53.779c-4.451-4.222-6.726-13.83-6.825-23.565
			c-0.104,10.181,2.17,20.483,6.825,24.899c9.025,8.556,41.317,8.556,50.342,0c4.655-4.415,6.93-14.718,6.826-24.899
			c-0.099,9.735-2.374,19.343-6.826,23.565C48.147,62.335,15.853,62.335,6.829,53.779z"/>
	</g>
	<g>
		<path style="fill-rule:evenodd;clip-rule:evenodd;fill:#C96900;" d="M47.723,25.127l-0.18-0.097L24.756,12.533L24.6,12.449
			l-0.086-0.034c-1.469-0.565-2.741-0.591-3.781-0.004c-1.1,0.62-1.685,1.739-1.68,3.411h-0.008v23.45l0.008,0.015
			c0.023,2.454,0.947,3.676,2.391,4.176c1.241,0.43,2.572,0.109,3.924-0.417l0.109-0.041l0.125-0.07l21.859-11.986l0.177-0.097
			l0.127-0.103c0.932-0.758,1.48-1.622,1.548-2.607v-0.008c0.073-1.046-0.383-2.02-1.467-2.905L47.723,25.127z M22.761,15.67
			c0.047-0.026,0.051-0.004,0.06,0.036C22.737,15.707,22.678,15.716,22.761,15.67z M23.749,39.592
			c-0.499,0.193-0.892,0.335-0.947,0.316c-0.143-0.05,0.226-0.116,0.229-0.637h0.008V15.953l21.91,12.014L23.749,39.592z"/>
		<path style="fill-rule:evenodd;clip-rule:evenodd;fill:#FFFFFF;" d="M23.765,14.17c-1.743-0.67-2.73-0.229-2.723,1.651v23.45
			c0.029,2.992,1.667,2.77,3.57,2.028l21.859-11.988c1.045-0.849,1.209-1.725,0.083-2.645L23.765,14.17z"/>
	</g>
</g>
</svg>
