<?xml version="1.0" encoding="utf-8"?>
<!-- Generator: Adobe Illustrator 21.0.0, SVG Export Plug-In . SVG Version: 6.00 Build 0)  -->
<svg version="1.1" id="Capa_1" xmlns="http://www.w3.org/2000/svg" xmlns:xlink="http://www.w3.org/1999/xlink" x="0px" y="0px"
	 viewBox="0 0 60.497 120.679" style="enable-background:new 0 0 60.497 120.679;" xml:space="preserve">
<g>
	<path style="opacity:0.2;" d="M60.17,52.311c0.781-3.034,0.103-6.106-1.59-8.476c0.718-0.999,1.269-2.135,1.59-3.381
		c0.782-3.034,0.104-6.107-1.591-8.476c0.719-1,1.27-2.136,1.591-3.382c0.68-2.64,0.291-5.384-1.09-7.72
		c-1.381-2.346-3.595-4.014-6.235-4.696l-15.628-4.033C36.25,7.402,32.119,4,27.238,4c-0.55,0-1.103,0.045-1.635,0.131
		c-2.69,0.435-5.05,1.892-6.641,4.099c-1.594,2.21-2.231,4.908-1.795,7.595l0.508,3.136l-4.933-1.273
		c-0.833-0.214-1.69-0.323-2.547-0.323c-4.645,0-8.702,3.144-9.869,7.652c-0.679,2.637-0.291,5.38,1.09,7.72
		c0.154,0.262,0.322,0.512,0.497,0.756c-0.715,1-1.264,2.135-1.586,3.381c-0.781,3.034-0.102,6.105,1.592,8.474
		c-0.718,1-1.27,2.137-1.592,3.383c-0.793,3.083-0.08,6.205,1.674,8.589c-0.354,0.477-0.682,0.976-0.948,1.517
		c-1.202,2.442-1.381,5.208-0.502,7.788c0.878,2.579,2.706,4.661,5.147,5.861l3.982,1.96c-2.11,0.93-3.585,3.036-3.585,5.49v8.597
		c0,6.707,3.588,12.561,8.892,15.683c0.006,0.107,0.01,0.214,0.021,0.319c-0.024,0.219-0.039,0.441-0.039,0.667v1.914
		c0,0.333,0.034,0.658,0.086,0.977c-0.03,0.502-0.004,1.01,0.094,1.513c0.601,3.064,2.627,6.598,6.389,7.107
		c1.898,2.464,4.848,3.966,8.061,3.968c0.002,0,0.004,0,0.006,0c3.209-0.002,6.156-1.501,8.054-3.96
		c3.792-0.485,5.832-4.038,6.435-7.115c0.11-0.56,0.129-1.126,0.08-1.683c0.036-0.265,0.061-0.532,0.061-0.807v-1.914
		c0-0.226-0.015-0.448-0.039-0.667c0.011-0.105,0.015-0.212,0.021-0.319c5.303-3.122,8.891-8.976,8.891-15.683v-8.597
		c0-3.313-2.687-6-6-6h-1.627l7.994-2.627c4.275-1.4,7.159-5.52,7.012-10.017c-0.067-2.054-0.766-3.985-1.915-5.587
		C59.294,54.701,59.847,53.561,60.17,52.311z"/>
	<path style="fill:#FFFFFF;" d="M60.17,48.311c0.781-3.034,0.103-6.106-1.59-8.476c0.718-0.999,1.269-2.135,1.59-3.381
		c0.782-3.034,0.104-6.107-1.591-8.476c0.719-1,1.27-2.136,1.591-3.382c0.68-2.64,0.291-5.384-1.09-7.72
		c-1.381-2.346-3.595-4.014-6.235-4.696L37.217,8.147C36.25,3.401,32.119,0,27.238,0c-0.55,0-1.103,0.045-1.635,0.131
		c-2.69,0.435-5.05,1.892-6.641,4.099c-1.594,2.21-2.231,4.908-1.795,7.595l0.508,3.136l-4.933-1.273
		c-0.833-0.214-1.69-0.323-2.547-0.323c-4.645,0-8.702,3.144-9.869,7.652c-0.679,2.637-0.291,5.38,1.09,7.72
		c0.154,0.262,0.322,0.512,0.497,0.756c-0.715,1-1.264,2.135-1.586,3.381c-0.781,3.034-0.102,6.105,1.592,8.474
		c-0.718,1-1.27,2.137-1.592,3.383c-0.793,3.083-0.08,6.205,1.674,8.589c-0.354,0.477-0.682,0.976-0.948,1.517
		c-1.202,2.442-1.381,5.208-0.502,7.788c0.878,2.579,2.706,4.661,5.147,5.861l3.982,1.96c-2.11,0.93-3.585,3.036-3.585,5.49v8.597
		c0,6.707,3.588,12.561,8.892,15.683c0.006,0.107,0.01,0.214,0.021,0.319c-0.024,0.219-0.039,0.441-0.039,0.667v1.914
		c0,0.333,0.034,0.658,0.086,0.977c-0.03,0.502-0.004,1.01,0.094,1.513c0.601,3.064,2.627,6.598,6.389,7.107
		c1.898,2.464,4.848,3.966,8.061,3.968c0.002,0,0.004,0,0.006,0c3.209-0.002,6.156-1.501,8.054-3.96
		c3.792-0.485,5.832-4.038,6.435-7.115c0.11-0.56,0.129-1.126,0.08-1.683c0.036-0.265,0.061-0.532,0.061-0.807v-1.914
		c0-0.226-0.015-0.448-0.039-0.667c0.011-0.105,0.015-0.212,0.021-0.319c5.303-3.122,8.891-8.976,8.891-15.683v-8.597
		c0-3.313-2.687-6-6-6h-1.627l7.994-2.627c4.275-1.4,7.159-5.52,7.012-10.017c-0.067-2.054-0.766-3.985-1.915-5.587
		C59.294,50.701,59.847,49.561,60.17,48.311z"/>
	<g>
		<path style="fill:#1A1A1A;" d="M36.772,106.779H22.474c-0.71,0-1.304-1.658-1.436-2.33h17.169
			C38.075,105.121,37.482,106.779,36.772,106.779z"/>
		<rect x="20.97" y="97.952" style="fill:#1A1A1A;" width="17.266" height="1.914"/>
		<rect x="20.97" y="101.201" style="fill:#1A1A1A;" width="17.266" height="1.914"/>
		<path style="fill:#1A1A1A;" d="M29.603,110.679c-1.734-0.001-3.227-1.06-3.862-2.565h7.725
			C32.83,109.618,31.337,110.678,29.603,110.679z"/>
		<path style="fill:#FFAC04;" d="M54.36,34.958c-0.567,2.196-2.916,3.58-5.109,3.013l-40.1-10.348
			c-1.085-0.279-1.997-0.966-2.565-1.93c-0.57-0.965-0.729-2.094-0.449-3.179c0.479-1.853,2.148-3.147,4.059-3.147
			c0.353,0,0.707,0.045,1.052,0.134l40.098,10.348C53.585,30.425,54.936,32.718,54.36,34.958z"/>
		<path style="fill:#FFAC04;" d="M49.251,26.114l-22.07-5.696c-1.614-0.416-2.827-1.747-3.092-3.391l-0.999-6.162
			c-0.18-1.106,0.082-2.216,0.738-3.124c0.654-0.909,1.625-1.507,2.731-1.686C26.787,6.018,27.015,6,27.238,6
			c2.065,0,3.802,1.481,4.133,3.524l0.56,3.456l19.415,5.01c1.084,0.28,1.996,0.966,2.565,1.931c0.57,0.965,0.729,2.094,0.449,3.179
			C53.793,25.297,51.444,26.683,49.251,26.114z"/>
		<path style="fill:#FFAC04;" d="M39.401,72.683h-8.388V62.58c0-1.056,0.394-2.066,1.112-2.843l1.842-1.998L9.151,51.336
			c-2.24-0.578-3.591-2.87-3.014-5.11c0.567-2.194,2.895-3.584,5.11-3.013L51.346,53.56c1.791,0.463,3.084,2.077,3.144,3.927
			c0.061,1.849-1.124,3.543-2.882,4.119l-12.206,4.012V72.683z"/>
		<path style="fill:#FFAC04;" d="M10.196,31.222c0.353,0,0.705,0.045,1.052,0.134l40.098,10.347c2.239,0.578,3.59,2.871,3.014,5.111
			c-0.567,2.195-2.887,3.586-5.112,3.013L9.151,39.479c-2.24-0.578-3.591-2.87-3.014-5.11C6.617,32.516,8.286,31.222,10.196,31.222z
			"/>
		<path style="fill:#FFAC04;" d="M12.051,55.575l13.581,6.684c1.446,0.711,2.343,2.153,2.343,3.763v6.661h-8.388v-4.05l-11.239-5.53
			c-2.076-1.021-2.933-3.541-1.912-5.616C7.43,55.464,10.006,54.57,12.051,55.575z"/>
		<path style="fill:#4D4D4D;" d="M47.109,75.935H12.096v8.597c0,6.664,5.222,12.085,11.641,12.085h11.735
			c6.417,0,11.637-5.422,11.637-12.085V75.935z M44.148,82.896c0,6.238-5.074,11.311-11.31,11.311c-0.739,0-1.339-0.599-1.339-1.338
			c0-0.74,0.599-1.339,1.339-1.339c4.761,0,8.634-3.872,8.634-8.634c0-0.738,0.599-1.338,1.339-1.338
			C43.549,81.558,44.148,82.158,44.148,82.896z"/>
	</g>
</g>
</svg>
