<?xml version="1.0" encoding="utf-8"?>
<!-- Generator: Adobe Illustrator 21.0.0, SVG Export Plug-In . SVG Version: 6.00 Build 0)  -->
<svg version="1.1" id="Capa_1" xmlns="http://www.w3.org/2000/svg" xmlns:xlink="http://www.w3.org/1999/xlink" x="0px" y="0px"
	 viewBox="0 0 116.034 120" style="enable-background:new 0 0 116.034 120;" xml:space="preserve">
<g>
	<path style="opacity:0.2;" d="M5.972,120C2.674,120,0,117.326,0,114.028V97.987C0,95.2,1.909,92.859,4.491,92.2
		c0.084-0.328,0.196-0.65,0.337-0.965l3.693-8.223c0.574-38.557,31.774-69.827,70.304-70.519l8.443-3.792
		c0.314-0.141,0.637-0.254,0.964-0.338c0.658-2.582,2.999-4.492,5.787-4.492h16.041c3.298,0,5.972,2.674,5.972,5.972v60.254
		c0,3.298-2.674,5.972-5.972,5.972H94.021c-2.788,0-5.128-1.909-5.787-4.491c-0.328-0.084-0.65-0.196-0.964-0.338l-8.297-3.726
		c-8.185,0.566-14.759,7.083-15.413,15.244l3.808,8.478c0.142,0.314,0.254,0.637,0.338,0.965c2.582,0.659,4.491,3,4.491,5.787
		v16.041c0,3.298-2.674,5.972-5.972,5.972H5.972z"/>
	<path style="fill:#FFFFFF;" d="M5.972,116.129c-3.298,0-5.972-2.674-5.972-5.972V94.116c0-2.787,1.909-5.129,4.491-5.787
		c0.084-0.328,0.196-0.65,0.337-0.965l3.693-8.223C9.097,40.584,40.296,9.314,78.826,8.622l8.443-3.792
		c0.314-0.141,0.637-0.254,0.964-0.338C88.892,1.909,91.233,0,94.021,0h16.041c3.298,0,5.972,2.674,5.972,5.972v60.254
		c0,3.298-2.674,5.972-5.972,5.972H94.021c-2.788,0-5.128-1.909-5.787-4.491c-0.328-0.084-0.65-0.196-0.964-0.338l-8.297-3.726
		c-8.185,0.566-14.759,7.083-15.413,15.244l3.808,8.478c0.142,0.314,0.254,0.637,0.338,0.965c2.582,0.659,4.491,3,4.491,5.787
		v16.041c0,3.298-2.674,5.972-5.972,5.972H5.972z"/>
	<rect x="7.412" y="93.118" style="fill:#333333;" width="58.586" height="15.597"/>
	<rect x="93.024" y="7.414" style="fill:#333333;" width="15.597" height="58.586"/>
	<path style="fill:#666666;" d="M79.52,15.785c-35.195,0-63.829,28.633-63.829,63.828h0.093l-4.186,9.319h50.214l-4.186-9.319
		h-0.079c0-12.115,9.856-21.971,21.972-21.971v-0.014l9.319,4.185V11.6L79.52,15.785z M75.144,52.866
		c-11.953,0-21.673,9.721-21.673,21.671c0,1.855-1.503,3.36-3.36,3.36c-1.857,0-3.359-1.504-3.359-3.36
		c0-15.654,12.736-28.39,28.392-28.39c1.852,0,3.359,1.504,3.359,3.359C78.504,51.361,76.997,52.866,75.144,52.866z"/>
</g>
</svg>
