<?xml version="1.0" encoding="utf-8"?>
<!-- Generator: Adobe Illustrator 21.0.0, SVG Export Plug-In . SVG Version: 6.00 Build 0)  -->
<svg version="1.1" id="Capa_1" xmlns="http://www.w3.org/2000/svg" xmlns:xlink="http://www.w3.org/1999/xlink" x="0px" y="0px"
	 viewBox="0 0 108.162 152.962" style="enable-background:new 0 0 108.162 152.962;" xml:space="preserve">
<g>
	<g>
		<g>
			<g>
				<path style="fill:#ED1C24;" d="M12.318,4.728C8.788,2.35,8.542,3.045,6.333,6.852c-0.913,1.573-3.861,7.975-0.983,8.569
					c-0.365,0.592-1.943,6.218-1.521,6.99c1.526,2.789,3.245-2.264,3.818-3.669c-0.211-1.514,3.788-9.034,1.978-9.813
					c0.546-0.805,0.431-1.605,0.789-2.109c0.275-0.387,2.214-1.021,2.604-1.498C13.325,4.948,12.36,4.759,12.318,4.728z"/>
				<path style="fill:#ED1C24;" d="M21.661,8.165c0.382,0.063-0.579-3.638-1.456-4.199c0.729,0.291-3.598,3.341-3.911,3.786
					c-1.034,1.47-1.147,4.647-0.084,5.99c1.265,1.598,2.047,1.149,3.951-0.815c0.703-0.725,3.374-4.086,2.633-5.09
					C22.762,7.792,21.814,8.19,21.661,8.165z"/>
				<path style="fill:#ED1C24;" d="M69.257,3.683c-1.879-1.344-2.883-0.973-4.058,0.339c-0.446,0.498-6.676,4.705-6.762,4.754
					c-1.514,0.874-3.723,2.731-4.673,3.193c-2.387,1.161-4.607-0.136-6.864,0.298c-2.543,0.489-1.181,1.279-2.505,1.927
					c-1.985,0.971-3.766-0.363-5.271,0.046c-0.931,0.253-2.162,1.451-2.966,2.093c-0.62,0.495-4.942,5.132-4.419,5.865
					c0.48-0.187,0.887-0.477,1.22-0.871c-0.493,0.329,0.16,4.239-1.412,4.592c3.768,1.325-2.751,3.077-3.424,3.589
					c-0.054,0.041-1.342,1.366-2.833,2.78c0.144,0.669,0.214,1.471,0.268,2.393c0.18,3.044,1.281,0.877-0.454,6.561
					c-1.735,5.684,3.282,5.43,5.861,3.504s4.935-6.447,8.784-4.935c0,0,1.762,0.977,1.339,4.004
					c-0.423,3.027,1.539,6.919,3.495,4.607c1.956-2.312,1.952-2.1,2.227-5.342c0.275-3.242,0.949-5.206,1.785-1.024
					c0,0,0.367,2.902,2.392,0.4c2.026-2.502-3.016-4.577-1.042-8.068c1.353-2.391,1.58-3.243,1.59-3.543
					c-0.027-0.042-0.043-0.092-0.037-0.16c0.143-1.748,2.835-4.149,3.357-5.59c0.661-1.825,0.481-3.881,1.225-5.701
					c0.73-1.786,2.215-3.923,3.414-5.275c0.21-0.237,1.605,0.075,1.693-0.025c0.678-0.761,0.81-2.164,1.582-2.813
					c1.971-1.658,3.111-2.045,5.889-2.888C70.487,9.132,71.039,4.957,69.257,3.683z"/>
			</g>
		</g>
		<path style="fill:#FEC31D;" d="M40.535,78.557c-0.028,0.045-0.054,0.091-0.082,0.136C40.481,78.648,40.507,78.602,40.535,78.557
			c-0.989,1.601-1.816,3.306-2.796,4.608l0,0c0.93,1.032,1.82,2.689,1.899,5.312c0.171,5.651,4.155,8.398,6.544,6.828
			c2.389-1.57-1.234-4.041,2.464-5.381c3.697-1.339,8.088-4.214,13.206-4.892c5.118-0.678,12.105,2.989,14.712-0.349
			c2.607-3.337,3.197-4.597,10.284-6.011c6.378-1.272,9.183-1.138,11.788-3.627l0,0l0,0c-0.294-0.746-0.538-1.588-0.678-2.618
			c-0.085-0.628-0.192-1.299-0.282-1.988l0,0l0,0c-0.187-1.437-0.293-2.959,0.075-4.376c0.439-1.69,3.542-5.258,3.367-6.998
			c-0.498-4.954-6.416-1.506-9.914-1.519c-3.306-0.013-5.777,0.693-8.033-1.214c-2.133-1.804-3.045-4.818-5.319-6.086
			c-0.487-0.272-3.443-1.053-4.117-1.143c-2.04-0.271-4.927,0.623-7.166,0.529c-1.023-0.043-2.282,0.033-3.336-0.151
			c-2.204,3.248-5.172,8.263-3.976,10.195c1.832,2.959-0.035,2.17-3.366,3.987c0,0-2.236,1.227-2.621,4.643
			c-0.385,3.416-0.212,3.596-1.674,4.344c-1.462,0.748-2.661-1.111-2.661-1.111s-0.868-2.523-2.017,0.243
			c-1.149,2.766-1.656,1.627-4.136,3.908C41.903,76.5,41.184,77.505,40.535,78.557L40.535,78.557z"/>
		<path style="fill-rule:evenodd;clip-rule:evenodd;fill:#0183FF;" d="M61.923,49.008c-1.469-1.411-2.849-3.029-3.043-3.227
			c-0.934-1.446,0.945-4.617,0.945-4.763c0.011-1.965-1.089-2.894-1.756-4.572c-0.776-1.951-2.161-6.036-3.575-6.441
			c0.041,0.012-2.623,1.367-2.957,0.84c-0.009,0.3-0.237,1.152-1.59,3.543c-1.975,3.491,3.068,5.567,1.042,8.068
			s-2.392-0.4-2.392-0.4c-0.836-4.182-1.51-2.218-1.785,1.024c-0.275,3.242-0.271,3.03-2.227,5.342
			c-1.956,2.312-3.918-1.58-3.495-4.607c0.423-3.027-1.339-4.004-1.339-4.004c-3.849-1.512-6.205,3.009-8.784,4.935
			c-2.579,1.926-7.597,2.181-5.861-3.504c1.735-5.684,0.634-3.517,0.454-6.561c-0.054-0.922-0.124-1.724-0.268-2.393
			c-1.603,1.52-3.441,3.142-4.23,3.38c-0.075,0.651,1.587,3.055,1.519,4.48c-0.079,1.671-1.265-0.139-2.526-2.127
			c0.001,1.331-0.018,3.104-0.117,3.966c-0.17,1.479,2.348,2.658,3.867,4.382c1.519,1.724,0.434,3.044-0.545,2.601
			c-0.98-0.443-2.453-0.895-2.505,1.716c-0.051,2.611,1.238,5.248,4.974,5.534s2.11,3.995,1.565,6.596
			c-0.545,2.601,1.99,7.608,2.356,9.436c0.366,1.828-0.199,2.961-0.199,2.961s-0.887,2.03-1.722,3.997
			c-0.835,1.967-0.545,3.583,0.287,4.376c0.832,0.793,2.372,1.458,1.775,3.071c-0.596,1.612-2.354,1.225-3.693,1.128
			c-1.339-0.097-1.295,1.245-1.295,1.245c-0.31,1.406-0.861,1.617-0.861,1.617c-2.601,0.383-0.965,1.453-0.965,1.453
			s1.911,3.356,3.653,3.074c1.742-0.282,4.907-3.964,7.446-7.444c2.539-3.48,1.129-1.778,3.076-3.858s3.152-5.904,5.632-8.185
			c2.48-2.281,2.987-1.141,4.136-3.908c1.149-2.766,2.017-0.243,2.017-0.243s1.199,1.859,2.661,1.111
			c1.462-0.748,1.289-0.928,1.674-4.344c0.385-3.416,2.621-4.643,2.621-4.643c3.33-1.817,5.197-1.028,3.366-3.987
			c-1.196-1.933,1.772-6.948,3.976-10.195C62.735,49.394,62.279,49.255,61.923,49.008z"/>
		<g>
			<path style="fill:#FF8500;" d="M19.127,105.904c-0.629-0.554-1.189-1.161-1.411-1.715c-0.627-1.566,0.981-3.84,0.585-5.26
				c-0.396-1.42,1.574-1.052,1.762-2.448c0.188-1.397,1.222-0.929,1.803,0.683c0.58,1.612,2.021,2.534,3.694,3.227
				c1.673,0.693,1.812-0.813,0.744-1.54c-1.068-0.727-0.58-1.612-0.58-1.612l0.824-2.06c-1.72,0.168-3.571-3.077-3.571-3.077
				s-1.637-1.07,0.965-1.453c0,0,0.551-0.211,0.861-1.617c0,0-0.044-1.342,1.295-1.245c1.339,0.097,3.097,0.484,3.693-1.128
				c0.596-1.612-0.944-2.278-1.775-3.071c-0.832-0.793-1.122-2.409-0.287-4.376c0.835-1.967,1.722-3.997,1.722-3.997
				s0.565-1.134,0.199-2.961c-0.366-1.828-2.901-6.834-2.356-9.436c0.545-2.601,2.171-6.311-1.565-6.596s-5.026-2.923-4.974-5.534
				c0.051-2.611,1.525-2.159,2.505-1.716c0.98,0.443,2.065-0.877,0.545-2.601c-1.519-1.724-4.038-2.903-3.867-4.382
				c0.099-0.863,0.118-2.635,0.117-3.966c-1.045-1.647-2.141-3.415-2.702-3.426c-0.803,0.772,0.37,4.999,1.599,6.276
				c0.104-0.391-3.875,3.272-3.66,3.494c-0.16-0.542-0.448-0.994-0.851-1.364c0.41,0.666-1.512,2.857-1.51,2.875
				c0.126,1.594,5.61,8.145,3.567,8.105c-0.025,1.255,0.64,0.969-0.458,0.948c-0.471,1.768,1.693,2.217,1.56,3.853
				c-0.046,0.563-2.364,2.909-2.334,2.957c0.858,1.398,1.959,3.406,1.825,6.228c-0.061,1.279-1.674,3.92-1.518,4.231
				c0.147,0.538,0.909,2.68,1.086,2.866c0.175,0.2,1.082-1.346,1.108-1.025c-0.006-0.068,0.336,2.95,0.369,3.147
				c-0.001-0.009,0.002-0.017,0.001-0.025c0.004,0.046,0.003,0.045-0.001,0.025c0.145,2.137-3.855,3.468-4.641,5.955
				c0.177-0.559-0.791,2.299-0.795,2.518c-1.488-0.029-10.621,0.731-7.616,5.774c3.258,0.064-0.457,2.338-0.579,1.234
				c-1.657,1.699-2.332,0.958-0.811,3.121c1.197,1.703,3.204,1.796,4.027,2.411c0.449,0.335,0.735,1.71,1.208,1.966
				c1.332,0.721,3.542,0.594,4.479,1.174c1.041,0.645,1.283,2.06,1.159,3.531C14.556,104.962,16.808,105.471,19.127,105.904z"/>
		</g>
		<g>
			<path style="fill-rule:evenodd;clip-rule:evenodd;fill:#0DA401;" d="M97.676,70.44c-0.089-0.688-0.158-1.396-0.167-2.103
				C97.519,69.044,97.587,69.751,97.676,70.44z"/>
			<path style="fill-rule:evenodd;clip-rule:evenodd;fill:#0DA401;" d="M40.535,78.557L40.535,78.557
				c-0.028,0.045-0.054,0.091-0.082,0.136C40.481,78.648,40.507,78.602,40.535,78.557z"/>
			<path style="fill-rule:evenodd;clip-rule:evenodd;fill:#0DA401;" d="M98.444,74.518c-0.018-0.052-0.034-0.107-0.051-0.16
				C98.41,74.412,98.427,74.466,98.444,74.518z"/>
			<path style="fill-rule:evenodd;clip-rule:evenodd;fill:#0DA401;" d="M97.039,86.38c1.265-4.345,5.133-2.577,3.724-6.787
				c-0.572-1.709-1.475-2.891-2.128-4.547l0,0c-2.605,2.489-5.41,2.355-11.788,3.627c-7.087,1.414-7.677,2.673-10.284,6.011
				c-2.607,3.337-9.595-0.33-14.712,0.349c-5.118,0.678-9.508,3.553-13.206,4.892c-3.697,1.339-0.075,3.811-2.464,5.381
				c-2.389,1.57-6.373-1.177-6.544-6.828c-0.08-2.623-0.969-4.28-1.899-5.312c0.01-0.014,0.02-0.03,0.03-0.044
				c-0.199,0.267-0.403,0.524-0.618,0.753c-1.947,2.08-0.537,0.378-3.076,3.858c-2.539,3.48-5.704,7.162-7.446,7.444
				c-0.027,0.004-0.055,0-0.082,0.003l-0.824,2.06c0,0-0.488,0.885,0.58,1.612c1.068,0.727,0.929,2.233-0.744,1.54
				c-1.673-0.693-3.114-1.616-3.694-3.227c-0.58-1.612-1.614-2.079-1.803-0.683c-0.188,1.397-2.158,1.028-1.762,2.448
				c0.396,1.42-1.212,3.694-0.585,5.26c0.222,0.554,0.782,1.161,1.411,1.715c2.205,0.411,4.47,0.754,4.906,0.6
				c0.348-2.637,2.095-0.966,3.477-0.224c0.635,0.341,1.013,1.599,1.682,1.997c1.963,1.165,4.362,0.728,6.069,1.383
				c3.903,1.497,5.57,4.175,6.348,6.788c0.59,1.978,4.971,2.203,6.095,3.83c1.739,2.517,0.329,3.63,3.033,3.683
				c1.904,0.037,0.571,4.202,0.719,4.454c0.943,1.593,2.482,0.798,3.61,1.035c0.741,0.155,3.264,1.141,4.775,0.787
				c0.399-0.094,3.521-2.728,3.575-2.677c0.486,0.458,13.111,4.395,13.868,4.571c0.803,0.187-5.042,8.832-5.592,9.661
				c2.166,0.214,5.668,0.879,6.454,3.789c2.28-7.071,3.205-14.974,4.493-22.306c0.943-5.368-2.842-10.565-2.844-10.568
				c-0.897-1.667-3.79-5.022-1.666-7.822c1.284-1.692,6.475-0.477,7.791-0.583c0.952-0.076-3.482-7.064-6.02-3.786
				c0.052-1.799,0.104-3.598,0.156-5.397c3.466,1.232,10.406,0.096,14.217,0.171c0,0.004-1.961-2.241-0.19-2.635
				c2.676,4.971,3.888-2.382,6.794-1.527c1.517,0.446,2.578,6.669,1.929,7.6c-0.045,0.065,0.507,1.314,0.504,1.504
				c0.417,0.008,1.571-0.325,2.01-0.503C105.257,99.691,102.503,83.945,97.039,86.38z"/>
			<path style="fill-rule:evenodd;clip-rule:evenodd;fill:#0DA401;" d="M97.677,70.447c0.05,0.38,0.103,0.753,0.157,1.117
				C97.781,71.199,97.726,70.827,97.677,70.447z"/>
			<path style="fill-rule:evenodd;clip-rule:evenodd;fill:#0DA401;" d="M98.27,73.947c-0.018-0.067-0.036-0.134-0.054-0.202
				C98.234,73.813,98.252,73.88,98.27,73.947z"/>
			<path style="fill-rule:evenodd;clip-rule:evenodd;fill:#0DA401;" d="M98.114,73.306c-0.014-0.066-0.029-0.13-0.042-0.198
				C98.085,73.175,98.1,73.24,98.114,73.306z"/>
			<path style="fill-rule:evenodd;clip-rule:evenodd;fill:#0DA401;" d="M38.329,82.311l0.003-0.004L38.329,82.311z"/>
		</g>
	</g>
	<g>
		<g>
			<g>
				<path style="fill:#ED1C24;" d="M12.318,4.728C8.788,2.35,8.542,3.045,6.333,6.852c-0.913,1.573-3.861,7.975-0.983,8.569
					c-0.365,0.592-1.943,6.218-1.521,6.99c1.526,2.789,3.245-2.264,3.818-3.669c-0.211-1.514,3.788-9.034,1.978-9.813
					c0.546-0.805,0.431-1.605,0.789-2.109c0.275-0.387,2.214-1.021,2.604-1.498C13.325,4.948,12.36,4.759,12.318,4.728z"/>
				<path style="fill:#ED1C24;" d="M21.661,8.165c0.382,0.063-0.579-3.638-1.456-4.199c0.729,0.291-3.598,3.341-3.911,3.786
					c-1.034,1.47-1.147,4.647-0.084,5.99c1.265,1.598,2.047,1.149,3.951-0.815c0.703-0.725,3.374-4.086,2.633-5.09
					C22.762,7.792,21.814,8.19,21.661,8.165z"/>
				<path style="fill:#ED1C24;" d="M69.257,3.683c-1.879-1.344-2.883-0.973-4.058,0.339c-0.446,0.498-6.676,4.705-6.762,4.754
					c-1.514,0.874-3.723,2.731-4.673,3.193c-2.387,1.161-4.607-0.136-6.864,0.298c-2.543,0.489-1.181,1.279-2.505,1.927
					c-1.985,0.971-3.766-0.363-5.271,0.046c-0.931,0.253-2.162,1.451-2.966,2.093c-0.62,0.495-4.942,5.132-4.419,5.865
					c0.48-0.187,0.887-0.477,1.22-0.871c-0.493,0.329,0.16,4.239-1.412,4.592c3.768,1.325-2.751,3.077-3.424,3.589
					c-0.054,0.041-1.342,1.366-2.833,2.78c0.144,0.669,0.214,1.471,0.268,2.393c0.18,3.044,1.281,0.877-0.454,6.561
					c-1.735,5.684,3.282,5.43,5.861,3.504s4.935-6.447,8.784-4.935c0,0,1.762,0.977,1.339,4.004
					c-0.423,3.027,1.539,6.919,3.495,4.607c1.956-2.312,1.952-2.1,2.227-5.342c0.275-3.242,0.949-5.206,1.785-1.024
					c0,0,0.367,2.902,2.392,0.4c2.026-2.502-3.016-4.577-1.042-8.068c1.353-2.391,1.58-3.243,1.59-3.543
					c-0.027-0.042-0.043-0.092-0.037-0.16c0.143-1.748,2.835-4.149,3.357-5.59c0.661-1.825,0.481-3.881,1.225-5.701
					c0.73-1.786,2.215-3.923,3.414-5.275c0.21-0.237,1.605,0.075,1.693-0.025c0.678-0.761,0.81-2.164,1.582-2.813
					c1.971-1.658,3.111-2.045,5.889-2.888C70.487,9.132,71.039,4.957,69.257,3.683z"/>
			</g>
		</g>
		<path style="fill:#FEC31D;" d="M40.535,78.557c-0.028,0.045-0.054,0.091-0.082,0.136C40.481,78.648,40.507,78.602,40.535,78.557
			c-0.989,1.601-1.816,3.306-2.796,4.608l0,0c0.93,1.032,1.82,2.689,1.899,5.312c0.171,5.651,4.155,8.398,6.544,6.828
			c2.389-1.57-1.234-4.041,2.464-5.381c3.697-1.339,8.088-4.214,13.206-4.892c5.118-0.678,12.105,2.989,14.712-0.349
			c2.607-3.337,3.197-4.597,10.284-6.011c6.378-1.272,9.183-1.138,11.788-3.627l0,0l0,0c-0.294-0.746-0.538-1.588-0.678-2.618
			c-0.085-0.628-0.192-1.299-0.282-1.988l0,0l0,0c-0.187-1.437-0.293-2.959,0.075-4.376c0.439-1.69,3.542-5.258,3.367-6.998
			c-0.498-4.954-6.416-1.506-9.914-1.519c-3.306-0.013-5.777,0.693-8.033-1.214c-2.133-1.804-3.045-4.818-5.319-6.086
			c-0.487-0.272-3.443-1.053-4.117-1.143c-2.04-0.271-4.927,0.623-7.166,0.529c-1.023-0.043-2.282,0.033-3.336-0.151
			c-2.204,3.248-5.172,8.263-3.976,10.195c1.832,2.959-0.035,2.17-3.366,3.987c0,0-2.236,1.227-2.621,4.643
			c-0.385,3.416-0.212,3.596-1.674,4.344c-1.462,0.748-2.661-1.111-2.661-1.111s-0.868-2.523-2.017,0.243
			c-1.149,2.766-1.656,1.627-4.136,3.908C41.903,76.5,41.184,77.505,40.535,78.557L40.535,78.557z"/>
		<path style="fill-rule:evenodd;clip-rule:evenodd;fill:#0183FF;" d="M61.923,49.008c-1.469-1.411-2.849-3.029-3.043-3.227
			c-0.934-1.446,0.945-4.617,0.945-4.763c0.011-1.965-1.089-2.894-1.756-4.572c-0.776-1.951-2.161-6.036-3.575-6.441
			c0.041,0.012-2.623,1.367-2.957,0.84c-0.009,0.3-0.237,1.152-1.59,3.543c-1.975,3.491,3.068,5.567,1.042,8.068
			s-2.392-0.4-2.392-0.4c-0.836-4.182-1.51-2.218-1.785,1.024c-0.275,3.242-0.271,3.03-2.227,5.342
			c-1.956,2.312-3.918-1.58-3.495-4.607c0.423-3.027-1.339-4.004-1.339-4.004c-3.849-1.512-6.205,3.009-8.784,4.935
			c-2.579,1.926-7.597,2.181-5.861-3.504c1.735-5.684,0.634-3.517,0.454-6.561c-0.054-0.922-0.124-1.724-0.268-2.393
			c-1.603,1.52-3.441,3.142-4.23,3.38c-0.075,0.651,1.587,3.055,1.519,4.48c-0.079,1.671-1.265-0.139-2.526-2.127
			c0.001,1.331-0.018,3.104-0.117,3.966c-0.17,1.479,2.348,2.658,3.867,4.382c1.519,1.724,0.434,3.044-0.545,2.601
			c-0.98-0.443-2.453-0.895-2.505,1.716c-0.051,2.611,1.238,5.248,4.974,5.534s2.11,3.995,1.565,6.596
			c-0.545,2.601,1.99,7.608,2.356,9.436c0.366,1.828-0.199,2.961-0.199,2.961s-0.887,2.03-1.722,3.997
			c-0.835,1.967-0.545,3.583,0.287,4.376c0.832,0.793,2.372,1.458,1.775,3.071c-0.596,1.612-2.354,1.225-3.693,1.128
			c-1.339-0.097-1.295,1.245-1.295,1.245c-0.31,1.406-0.861,1.617-0.861,1.617c-2.601,0.383-0.965,1.453-0.965,1.453
			s1.911,3.356,3.653,3.074c1.742-0.282,4.907-3.964,7.446-7.444c2.539-3.48,1.129-1.778,3.076-3.858s3.152-5.904,5.632-8.185
			c2.48-2.281,2.987-1.141,4.136-3.908c1.149-2.766,2.017-0.243,2.017-0.243s1.199,1.859,2.661,1.111
			c1.462-0.748,1.289-0.928,1.674-4.344c0.385-3.416,2.621-4.643,2.621-4.643c3.33-1.817,5.197-1.028,3.366-3.987
			c-1.196-1.933,1.772-6.948,3.976-10.195C62.735,49.394,62.279,49.255,61.923,49.008z"/>
		<g>
			<path style="fill:#FF8500;" d="M19.127,105.904c-0.629-0.554-1.189-1.161-1.411-1.715c-0.627-1.566,0.981-3.84,0.585-5.26
				c-0.396-1.42,1.574-1.052,1.762-2.448c0.188-1.397,1.222-0.929,1.803,0.683c0.58,1.612,2.021,2.534,3.694,3.227
				c1.673,0.693,1.812-0.813,0.744-1.54c-1.068-0.727-0.58-1.612-0.58-1.612l0.824-2.06c-1.72,0.168-3.571-3.077-3.571-3.077
				s-1.637-1.07,0.965-1.453c0,0,0.551-0.211,0.861-1.617c0,0-0.044-1.342,1.295-1.245c1.339,0.097,3.097,0.484,3.693-1.128
				c0.596-1.612-0.944-2.278-1.775-3.071c-0.832-0.793-1.122-2.409-0.287-4.376c0.835-1.967,1.722-3.997,1.722-3.997
				s0.565-1.134,0.199-2.961c-0.366-1.828-2.901-6.834-2.356-9.436c0.545-2.601,2.171-6.311-1.565-6.596s-5.026-2.923-4.974-5.534
				c0.051-2.611,1.525-2.159,2.505-1.716c0.98,0.443,2.065-0.877,0.545-2.601c-1.519-1.724-4.038-2.903-3.867-4.382
				c0.099-0.863,0.118-2.635,0.117-3.966c-1.045-1.647-2.141-3.415-2.702-3.426c-0.803,0.772,0.37,4.999,1.599,6.276
				c0.104-0.391-3.875,3.272-3.66,3.494c-0.16-0.542-0.448-0.994-0.851-1.364c0.41,0.666-1.512,2.857-1.51,2.875
				c0.126,1.594,5.61,8.145,3.567,8.105c-0.025,1.255,0.64,0.969-0.458,0.948c-0.471,1.768,1.693,2.217,1.56,3.853
				c-0.046,0.563-2.364,2.909-2.334,2.957c0.858,1.398,1.959,3.406,1.825,6.228c-0.061,1.279-1.674,3.92-1.518,4.231
				c0.147,0.538,0.909,2.68,1.086,2.866c0.175,0.2,1.082-1.346,1.108-1.025c-0.006-0.068,0.336,2.95,0.369,3.147
				c-0.001-0.009,0.002-0.017,0.001-0.025c0.004,0.046,0.003,0.045-0.001,0.025c0.145,2.137-3.855,3.468-4.641,5.955
				c0.177-0.559-0.791,2.299-0.795,2.518c-1.488-0.029-10.621,0.731-7.616,5.774c3.258,0.064-0.457,2.338-0.579,1.234
				c-1.657,1.699-2.332,0.958-0.811,3.121c1.197,1.703,3.204,1.796,4.027,2.411c0.449,0.335,0.735,1.71,1.208,1.966
				c1.332,0.721,3.542,0.594,4.479,1.174c1.041,0.645,1.283,2.06,1.159,3.531C14.556,104.962,16.808,105.471,19.127,105.904z"/>
		</g>
		<g>
			<path style="fill-rule:evenodd;clip-rule:evenodd;fill:#0DA401;" d="M97.676,70.44c-0.089-0.688-0.158-1.396-0.167-2.103
				C97.519,69.044,97.587,69.751,97.676,70.44z"/>
			<path style="fill-rule:evenodd;clip-rule:evenodd;fill:#0DA401;" d="M40.535,78.557L40.535,78.557
				c-0.028,0.045-0.054,0.091-0.082,0.136C40.481,78.648,40.507,78.602,40.535,78.557z"/>
			<path style="fill-rule:evenodd;clip-rule:evenodd;fill:#0DA401;" d="M98.444,74.518c-0.018-0.052-0.034-0.107-0.051-0.16
				C98.41,74.412,98.427,74.466,98.444,74.518z"/>
			<path style="fill-rule:evenodd;clip-rule:evenodd;fill:#0DA401;" d="M97.039,86.38c1.265-4.345,5.133-2.577,3.724-6.787
				c-0.572-1.709-1.475-2.891-2.128-4.547l0,0c-2.605,2.489-5.41,2.355-11.788,3.627c-7.087,1.414-7.677,2.673-10.284,6.011
				c-2.607,3.337-9.595-0.33-14.712,0.349c-5.118,0.678-9.508,3.553-13.206,4.892c-3.697,1.339-0.075,3.811-2.464,5.381
				c-2.389,1.57-6.373-1.177-6.544-6.828c-0.08-2.623-0.969-4.28-1.899-5.312c0.01-0.014,0.02-0.03,0.03-0.044
				c-0.199,0.267-0.403,0.524-0.618,0.753c-1.947,2.08-0.537,0.378-3.076,3.858c-2.539,3.48-5.704,7.162-7.446,7.444
				c-0.027,0.004-0.055,0-0.082,0.003l-0.824,2.06c0,0-0.488,0.885,0.58,1.612c1.068,0.727,0.929,2.233-0.744,1.54
				c-1.673-0.693-3.114-1.616-3.694-3.227c-0.58-1.612-1.614-2.079-1.803-0.683c-0.188,1.397-2.158,1.028-1.762,2.448
				c0.396,1.42-1.212,3.694-0.585,5.26c0.222,0.554,0.782,1.161,1.411,1.715c2.205,0.411,4.47,0.754,4.906,0.6
				c0.348-2.637,2.095-0.966,3.477-0.224c0.635,0.341,1.013,1.599,1.682,1.997c1.963,1.165,4.362,0.728,6.069,1.383
				c3.903,1.497,5.57,4.175,6.348,6.788c0.59,1.978,4.971,2.203,6.095,3.83c1.739,2.517,0.329,3.63,3.033,3.683
				c1.904,0.037,0.571,4.202,0.719,4.454c0.943,1.593,2.482,0.798,3.61,1.035c0.741,0.155,3.264,1.141,4.775,0.787
				c0.399-0.094,3.521-2.728,3.575-2.677c0.486,0.458,13.111,4.395,13.868,4.571c0.803,0.187-5.042,8.832-5.592,9.661
				c2.166,0.214,5.668,0.879,6.454,3.789c2.28-7.071,3.205-14.974,4.493-22.306c0.943-5.368-2.842-10.565-2.844-10.568
				c-0.897-1.667-3.79-5.022-1.666-7.822c1.284-1.692,6.475-0.477,7.791-0.583c0.952-0.076-3.482-7.064-6.02-3.786
				c0.052-1.799,0.104-3.598,0.156-5.397c3.466,1.232,10.406,0.096,14.217,0.171c0,0.004-1.961-2.241-0.19-2.635
				c2.676,4.971,3.888-2.382,6.794-1.527c1.517,0.446,2.578,6.669,1.929,7.6c-0.045,0.065,0.507,1.314,0.504,1.504
				c0.417,0.008,1.571-0.325,2.01-0.503C105.257,99.691,102.503,83.945,97.039,86.38z"/>
			<path style="fill-rule:evenodd;clip-rule:evenodd;fill:#0DA401;" d="M97.677,70.447c0.05,0.38,0.103,0.753,0.157,1.117
				C97.781,71.199,97.726,70.827,97.677,70.447z"/>
			<path style="fill-rule:evenodd;clip-rule:evenodd;fill:#0DA401;" d="M98.27,73.947c-0.018-0.067-0.036-0.134-0.054-0.202
				C98.234,73.813,98.252,73.88,98.27,73.947z"/>
			<path style="fill-rule:evenodd;clip-rule:evenodd;fill:#0DA401;" d="M98.114,73.306c-0.014-0.066-0.029-0.13-0.042-0.198
				C98.085,73.175,98.1,73.24,98.114,73.306z"/>
			<path style="fill-rule:evenodd;clip-rule:evenodd;fill:#0DA401;" d="M38.329,82.311l0.003-0.004L38.329,82.311z"/>
		</g>
	</g>
	<g style="opacity:0.2;">
		<path style="fill-rule:evenodd;clip-rule:evenodd;" d="M1.34,28.317c1.096,2.002,2.641,2.302,3.465,2.302c0,0,0.001,0,0.001,0
			c3.026,0,4.4-3.522,5.31-5.853c0.062-0.157,0.115-0.296,0.161-0.409c0.149-0.365,0.22-0.755,0.209-1.147
			c0.098-0.476,0.544-1.704,0.846-2.533c0.49-1.348,1.043-2.871,1.348-4.201c0.131,1.335,0.544,2.611,1.305,3.572
			c0.401,0.506,1.621,2.046,3.657,2.046c1.991,0,3.414-1.468,4.558-2.648c0.885-0.913,5.184-5.629,2.887-8.739
			c-0.271-0.372-0.627-0.667-1.031-0.868c-0.404-1.253-1.015-2.469-1.686-3.191c-0.304-0.339-0.685-0.604-1.114-0.775
			c-0.344-0.137-0.7-0.203-1.051-0.203c-1.036,0-2.027,0.57-2.527,1.543c-0.058,0.113-0.107,0.227-0.149,0.343
			c-0.478,0.432-1.252,1.052-1.712,1.421c-0.012-0.048-0.02-0.097-0.035-0.145c-0.307-0.989-1.044-1.704-2.206-2.132
			c-1.589-1.045-2.816-1.645-4.181-1.645c-2.673,0-3.9,2.119-5.32,4.574L3.877,9.969c-0.391,0.675-3.778,6.697-2.149,10.336
			c0.091,0.205,0.196,0.398,0.312,0.581C1.286,23.249,0.462,26.713,1.34,28.317z M12.777,13.265
			c0.016-0.007,0.032-0.015,0.047-0.022c0.025-0.012,0.049-0.024,0.074-0.036c-0.027,0.116-0.051,0.233-0.074,0.352
			c-0.017-0.093-0.028-0.194-0.05-0.281C12.775,13.274,12.776,13.27,12.777,13.265z"/>
		<path style="fill-rule:evenodd;clip-rule:evenodd;" d="M108.062,103.525l-0.044-0.206c-1.5-7.068-3.463-11.673-5.948-13.906
			c1.214-0.968,2.545-2.714,1.386-6.177c-0.389-1.162-0.889-2.104-1.331-2.936c-0.315-0.593-0.612-1.154-0.848-1.751
			c0,0,0-0.001-0.001-0.002c-0.057-0.145-0.109-0.289-0.157-0.434c-0.001-0.003-0.001-0.007-0.002-0.01l-0.023-0.073
			c-0.001-0.004-0.003-0.007-0.004-0.01c-0.031-0.098-0.059-0.198-0.087-0.297l-0.04-0.149c-0.002-0.006-0.004-0.011-0.006-0.017
			c-0.024-0.094-0.044-0.191-0.065-0.287c0-0.001,0-0.003,0-0.004l-0.035-0.162c-0.001-0.006-0.004-0.011-0.005-0.017
			c-0.031-0.162-0.058-0.328-0.082-0.498c-0.038-0.282-0.08-0.572-0.124-0.869c-0.052-0.359-0.106-0.728-0.155-1.102
			c-0.092-0.711-0.137-1.274-0.143-1.772c0-0.008-0.002-0.015-0.003-0.023c-0.006-0.523,0.031-1.031,0.148-1.482
			c0.112-0.351,0.735-1.351,1.147-2.012c1.286-2.065,2.502-4.015,2.302-6.003c-0.329-3.274-2.469-5.229-5.722-5.229
			c-1.401,0-2.834,0.337-4.22,0.662c-1.032,0.243-2.1,0.493-2.786,0.493l-0.101,0c-0.781,0-1.516,0.035-2.165,0.067
			c-0.55,0.026-1.07,0.051-1.534,0.051c-1.218,0-1.826-0.167-2.411-0.661c-0.652-0.551-1.226-1.398-1.834-2.294
			c-0.978-1.44-2.085-3.072-3.935-4.103c-1.034-0.577-4.491-1.394-5.127-1.478c-0.385-0.051-0.786-0.076-1.225-0.076
			c-1.11,0-2.246,0.162-3.346,0.319c-0.966,0.138-1.88,0.268-2.625,0.268c-0.001,0-0.151-0.001-0.225-0.004
			c-0.355-0.015-0.737-0.017-1.129-0.02c-0.664-0.003-1.351-0.007-1.839-0.091l-0.001,0c-0.058-0.01-0.105-0.02-0.144-0.029
			c-0.82-0.812-1.595-1.667-2.079-2.208c0.071-0.317,0.259-0.885,0.739-1.871c0.198-0.408,0.423-0.869,0.427-1.542
			c0.012-2.066-0.786-3.467-1.368-4.489c-0.235-0.412-0.438-0.768-0.589-1.148c-0.095-0.24-0.2-0.513-0.313-0.808
			c-1.2-3.125-2.239-5.543-3.877-6.71c0.422-0.595,0.783-1.19,1.01-1.815c0.42-1.158,0.573-2.301,0.708-3.31
			c0.115-0.858,0.224-1.669,0.475-2.284c0.446-1.091,1.31-2.441,2.137-3.521c0.075,0.004,0.151,0.006,0.229,0.006
			c1.193,0,1.913-0.61,2.235-0.972c0.639-0.718,0.959-1.51,1.216-2.147c0.062-0.154,0.149-0.37,0.211-0.497
			c1.317-1.088,2.034-1.393,4.09-2.027c0.082,0.005,0.164,0.008,0.246,0.008c0.001,0,0.001,0,0.001,0
			c1.745,0,3.205-1.169,3.809-3.05c0.694-2.163,0.238-5.316-1.974-6.898c-1.293-0.924-2.5-1.374-3.691-1.374
			c-1.916,0-3.206,1.117-4.029,2.014c-0.843,0.682-5.422,3.805-6.242,4.346c-0.876,0.514-1.865,1.24-2.741,1.882
			c-0.563,0.413-1.412,1.036-1.683,1.174c-0.303,0.147-0.62,0.211-1.057,0.211c-0.423,0-0.912-0.061-1.429-0.125
			c-0.627-0.078-1.337-0.166-2.093-0.166c-0.559,0-1.076,0.047-1.58,0.144c-1.834,0.353-2.956,1.031-3.611,2.238
			c-0.283-0.005-0.655-0.078-1.048-0.156c-0.569-0.112-1.213-0.24-1.931-0.24c-0.486,0-0.955,0.06-1.393,0.18
			c-1.34,0.364-2.528,1.375-3.482,2.187c-0.184,0.156-0.357,0.304-0.51,0.427c-0.619,0.495-2.077,2.078-3.049,3.246
			c-1.486,1.785-3.521,4.23-1.911,6.486c0.024,0.035,0.05,0.069,0.076,0.102c-0.459,0.476-0.75,1.11-0.791,1.805
			c-0.008,0.138-0.006,0.274,0.005,0.408c-0.178,0.072-0.338,0.136-0.461,0.184c-0.867,0.344-1.39,0.551-1.856,0.906
			c-0.169,0.128-0.227,0.188-0.611,0.572c-0.46,0.461-1.416,1.42-2.453,2.404l0,0c-2.239,2.122-3.064,2.663-3.255,2.775
			c-0.027,0.01-0.052,0.024-0.078,0.035c-0.759-0.798-1.561-1.26-2.599-1.28c-0.018,0-0.037-0.001-0.055-0.001
			c-0.733,0-1.438,0.284-1.968,0.793c-1.772,1.704-1.177,5.109-0.096,7.628c-0.03,0.029-0.062,0.058-0.094,0.087
			c-0.246-0.068-0.5-0.102-0.755-0.102c-0.639,0-1.28,0.215-1.805,0.648c-0.652,0.537-1.007,1.312-1.032,2.105
			c-0.132,0.21-0.372,0.554-0.799,1.074c-0.192,0.234-0.778,0.947-0.704,2.109c0.101,1.277,0.864,2.534,2.318,4.829
			c0.398,0.629,0.978,1.544,1.362,2.232c-0.008,0.026-0.016,0.053-0.023,0.08c-0.208,0.281-0.366,0.604-0.46,0.957
			c-0.544,2.041,0.381,3.501,1.036,4.31c-0.287,0.328-0.581,0.652-0.727,0.813c-0.515,0.566-1.884,2.072-0.76,3.902
			c0.724,1.181,1.489,2.602,1.411,4.552c-0.079,0.383-0.53,1.361-0.749,1.838c-0.564,1.225-1.058,2.298-0.625,3.505
			c0.19,0.648,0.895,2.927,1.637,3.812l-0.001,0.001c0.021,0.023,0.079,0.086,0.079,0.086c0.107,0.112,0.223,0.216,0.348,0.309
			c-0.248,0.228-0.548,0.479-0.782,0.677c-1.228,1.032-2.756,2.317-3.377,4.282l0.013,0.004c-0.088,0.217-0.169,0.441-0.245,0.668
			c-2.513,0.293-6.619,1.209-8.243,4.067c-0.451,0.794-0.993,2.26-0.422,4.174c-0.066,0.05-0.13,0.098-0.194,0.145
			c-3.021,2.242-1.268,4.736-0.326,6.076c1.313,1.868,3.146,2.531,4.241,2.928c0.039,0.014,0.08,0.029,0.123,0.045
			c0.328,0.732,0.787,1.696,1.841,2.267c1.124,0.61,2.391,0.807,3.408,0.966c0.222,0.035,0.513,0.08,0.746,0.125
			c0.026,0.186,0.042,0.476,0.008,0.879c-0.215,2.532,2.181,3.074,3.612,3.398c0.929,0.21,2.116,0.453,3.256,0.665
			c0.001,0,0.003,0.001,0.004,0.001c2.439,0.455,4.144,0.686,5.065,0.686c0.505,0,0.919-0.063,1.303-0.198
			c0.334-0.117,0.637-0.293,0.897-0.515c0.024,0.038,0.048,0.076,0.069,0.108c0.373,0.589,0.884,1.396,1.804,1.942
			c1.689,1.002,3.433,1.18,4.836,1.323c0.645,0.065,1.312,0.133,1.666,0.269c2.475,0.949,3.907,2.475,4.644,4.948
			c0.722,2.424,3.153,3.353,4.928,4.031c0.536,0.205,1.329,0.508,1.623,0.708c0.332,0.508,0.426,0.868,0.544,1.316
			c0.349,1.326,0.982,2.68,2.863,3.231c-0.038,0.253-0.078,0.488-0.103,0.63c-0.148,0.848-0.301,1.725,0.268,2.685
			c0.654,1.106,1.945,2.424,4.375,2.424c0.248,0,0.498-0.013,0.745-0.027c0.123-0.007,0.245-0.016,0.401-0.016
			c0.118,0.031,0.27,0.078,0.449,0.132c1.037,0.31,2.603,0.778,4.117,0.778c0.494,0,0.961-0.051,1.391-0.151
			c0.77-0.181,1.274-0.533,3.357-2.191c1.115,0.404,2.829,0.976,5.534,1.845c1.275,0.409,2.729,0.869,4.004,1.265
			c-0.749,1.249-1.953,3.155-3.887,6.047l-0.171,0.256c-0.551,0.83-0.627,1.888-0.199,2.788c0.427,0.9,1.295,1.51,2.286,1.608
			c1.355,0.133,3.675,0.532,3.991,1.703c0.328,1.214,1.415,2.068,2.672,2.098c0.023,0.001,0.047,0.001,0.069,0.001
			c1.229,0,2.322-0.793,2.701-1.968c1.812-5.619,2.785-11.655,3.725-17.492c0.282-1.75,0.562-3.488,0.862-5.194
			c1.048-5.963-2.457-11.447-3.229-12.566c-0.176-0.313-0.379-0.633-0.591-0.97c-0.994-1.576-1.553-2.67-1.363-3.351
			c0.189-0.031,0.496-0.063,0.968-0.063c0.854,0,1.814,0.101,2.662,0.191c0.715,0.075,1.331,0.14,1.848,0.14
			c0.154,0,0.293-0.006,0.417-0.016c1.63-0.131,2.808-1.488,2.741-3.156c-0.058-1.453-1.397-3.832-3.306-5.448
			c1.49-0.028,3.004-0.126,4.475-0.222c1.428-0.093,2.778-0.18,3.838-0.18c0.111,0,0.362,0.004,0.38,0.004
			c0.816,0,1.568-0.348,2.094-0.922c1.576-0.182,2.635-1.279,3.436-2.214c0.233,0.973,0.391,2.082,0.363,2.674
			c-0.437,1.052-0.067,2.02,0.216,2.757c0.053,0.139,0.11,0.282,0.15,0.397c0.109,0.514,0.36,0.993,0.73,1.378
			c0.522,0.543,1.238,0.857,1.991,0.872c0.019,0,0.072,0.001,0.072,0.001c1.226,0,3.041-0.703,3.058-0.71
			c1.005-0.406,1.692-1.35,1.768-2.431C108.178,104.148,108.144,103.828,108.062,103.525z"/>
	</g>
	<g>
		<path style="fill-rule:evenodd;clip-rule:evenodd;fill:#FFFFFF;" d="M1.34,23.774c1.096,2.002,2.641,2.302,3.465,2.302
			c0,0,0.001,0,0.001,0c3.026,0,4.4-3.522,5.31-5.853c0.062-0.157,0.115-0.296,0.161-0.409c0.149-0.365,0.22-0.755,0.209-1.147
			c0.098-0.476,0.544-1.704,0.846-2.533c0.49-1.348,1.043-2.871,1.348-4.201c0.131,1.335,0.544,2.611,1.305,3.572
			c0.401,0.506,1.621,2.046,3.657,2.046c1.991,0,3.414-1.468,4.558-2.648c0.885-0.913,5.184-5.629,2.887-8.739
			c-0.271-0.372-0.627-0.667-1.031-0.868c-0.404-1.253-1.015-2.469-1.686-3.191c-0.304-0.339-0.685-0.604-1.114-0.775
			c-0.344-0.137-0.7-0.203-1.051-0.203c-1.036,0-2.027,0.57-2.527,1.543c-0.058,0.113-0.107,0.227-0.149,0.343
			c-0.478,0.432-1.252,1.052-1.712,1.421c-0.012-0.048-0.02-0.097-0.035-0.145c-0.307-0.989-1.044-1.704-2.206-2.132
			c-1.589-1.045-2.816-1.645-4.181-1.645c-2.673,0-3.9,2.119-5.32,4.574L3.877,5.427c-0.391,0.675-3.778,6.697-2.149,10.336
			c0.091,0.205,0.196,0.398,0.312,0.581C1.286,18.706,0.462,22.17,1.34,23.774z M12.777,8.723c0.016-0.007,0.032-0.015,0.047-0.022
			c0.025-0.012,0.049-0.024,0.074-0.036c-0.027,0.116-0.051,0.233-0.074,0.352c-0.017-0.093-0.028-0.194-0.05-0.281
			C12.775,8.732,12.776,8.727,12.777,8.723z"/>
		<path style="fill-rule:evenodd;clip-rule:evenodd;fill:#FFFFFF;" d="M108.062,98.982l-0.044-0.206
			c-1.5-7.068-3.463-11.673-5.948-13.906c1.214-0.968,2.545-2.714,1.386-6.177c-0.389-1.162-0.889-2.104-1.331-2.936
			c-0.315-0.593-0.612-1.154-0.848-1.751c0-0.001,0-0.001,0-0.001c-0.058-0.145-0.109-0.29-0.157-0.435
			c-0.001-0.003-0.001-0.007-0.002-0.01l-0.023-0.073c-0.001-0.004-0.003-0.007-0.004-0.011c-0.031-0.098-0.059-0.198-0.087-0.297
			l-0.04-0.149c-0.002-0.006-0.004-0.011-0.006-0.017c-0.024-0.094-0.044-0.191-0.065-0.287c0-0.001,0-0.003,0-0.004l-0.035-0.162
			c-0.001-0.006-0.004-0.011-0.005-0.017c-0.031-0.162-0.058-0.328-0.082-0.498c-0.038-0.282-0.08-0.572-0.124-0.869
			c-0.052-0.359-0.106-0.728-0.155-1.102c-0.092-0.711-0.137-1.274-0.143-1.772c0-0.008-0.002-0.015-0.003-0.023
			c-0.006-0.523,0.031-1.031,0.148-1.482c0.112-0.351,0.735-1.351,1.147-2.012c1.286-2.065,2.502-4.015,2.302-6.003
			c-0.329-3.274-2.469-5.229-5.722-5.229c-1.401,0-2.834,0.337-4.22,0.662c-1.032,0.243-2.1,0.493-2.786,0.493l-0.101,0
			c-0.781,0-1.516,0.035-2.165,0.067c-0.55,0.026-1.07,0.051-1.534,0.051c-1.218,0-1.826-0.167-2.411-0.661
			c-0.652-0.551-1.226-1.398-1.834-2.294c-0.978-1.44-2.085-3.072-3.935-4.103c-1.034-0.577-4.491-1.394-5.127-1.478
			c-0.385-0.051-0.786-0.076-1.225-0.076c-1.11,0-2.246,0.162-3.346,0.319c-0.966,0.138-1.88,0.268-2.625,0.268
			c-0.001,0-0.151-0.001-0.225-0.004c-0.355-0.015-0.737-0.017-1.129-0.02c-0.664-0.003-1.351-0.007-1.839-0.091l-0.001,0
			c-0.058-0.01-0.105-0.02-0.144-0.029c-0.82-0.812-1.595-1.667-2.079-2.208c0.071-0.317,0.259-0.885,0.739-1.871
			c0.198-0.408,0.423-0.869,0.427-1.542c0.012-2.066-0.786-3.467-1.368-4.489c-0.235-0.412-0.438-0.768-0.589-1.148
			c-0.095-0.24-0.2-0.513-0.313-0.808c-1.2-3.125-2.239-5.543-3.877-6.71c0.422-0.595,0.783-1.19,1.01-1.815
			c0.42-1.158,0.573-2.301,0.708-3.31c0.115-0.858,0.224-1.669,0.475-2.284c0.446-1.091,1.31-2.441,2.137-3.521
			c0.075,0.004,0.151,0.006,0.229,0.006c1.193,0,1.913-0.61,2.235-0.972c0.639-0.718,0.959-1.51,1.216-2.147
			c0.062-0.154,0.149-0.37,0.211-0.497c1.317-1.088,2.034-1.393,4.09-2.027c0.082,0.005,0.164,0.008,0.246,0.008
			c0.001,0,0.001,0,0.001,0c1.745,0,3.205-1.169,3.809-3.05c0.694-2.163,0.238-5.316-1.974-6.898C69.615,0.449,68.408,0,67.217,0
			c-1.916,0-3.206,1.117-4.029,2.014c-0.843,0.682-5.422,3.805-6.242,4.346c-0.876,0.514-1.865,1.24-2.741,1.882
			c-0.563,0.413-1.412,1.036-1.683,1.174c-0.303,0.147-0.62,0.211-1.057,0.211c-0.423,0-0.912-0.061-1.429-0.125
			c-0.627-0.078-1.337-0.166-2.093-0.166c-0.559,0-1.076,0.047-1.58,0.144c-1.834,0.353-2.956,1.031-3.611,2.238
			c-0.283-0.005-0.655-0.078-1.048-0.156c-0.569-0.112-1.213-0.24-1.931-0.24c-0.486,0-0.955,0.06-1.393,0.18
			c-1.34,0.364-2.528,1.375-3.482,2.187c-0.184,0.156-0.357,0.304-0.51,0.427c-0.619,0.495-2.077,2.078-3.049,3.246
			c-1.486,1.785-3.521,4.23-1.911,6.486c0.024,0.035,0.05,0.069,0.076,0.102c-0.459,0.476-0.75,1.11-0.791,1.805
			c-0.008,0.138-0.006,0.274,0.005,0.408c-0.178,0.072-0.338,0.136-0.461,0.184c-0.867,0.344-1.39,0.551-1.856,0.906
			c-0.169,0.128-0.227,0.188-0.611,0.572c-0.46,0.461-1.416,1.42-2.453,2.404l0,0c-2.239,2.122-3.064,2.663-3.255,2.775
			c-0.027,0.01-0.052,0.024-0.078,0.035c-0.759-0.798-1.561-1.26-2.599-1.28c-0.018,0-0.037-0.001-0.055-0.001
			c-0.733,0-1.438,0.284-1.968,0.793c-1.772,1.704-1.177,5.109-0.096,7.628c-0.03,0.029-0.062,0.058-0.094,0.087
			c-0.246-0.068-0.5-0.102-0.755-0.102c-0.639,0-1.28,0.215-1.805,0.648c-0.652,0.537-1.007,1.312-1.032,2.105
			c-0.132,0.21-0.372,0.554-0.799,1.074c-0.192,0.234-0.778,0.947-0.704,2.109c0.101,1.277,0.864,2.534,2.318,4.829
			c0.398,0.629,0.978,1.544,1.362,2.232c-0.008,0.026-0.016,0.053-0.023,0.08c-0.208,0.281-0.366,0.604-0.46,0.957
			c-0.544,2.041,0.381,3.501,1.036,4.31c-0.287,0.328-0.581,0.652-0.727,0.813c-0.515,0.566-1.884,2.072-0.76,3.902
			c0.724,1.181,1.489,2.602,1.411,4.552c-0.079,0.383-0.53,1.361-0.749,1.838c-0.564,1.225-1.058,2.298-0.625,3.505
			c0.19,0.648,0.895,2.926,1.637,3.812l-0.001,0.001c0.021,0.023,0.079,0.086,0.079,0.086c0.107,0.112,0.223,0.216,0.348,0.309
			c-0.248,0.228-0.548,0.479-0.782,0.677c-1.228,1.032-2.756,2.317-3.377,4.282l0.013,0.004c-0.088,0.217-0.169,0.441-0.245,0.668
			c-2.513,0.293-6.619,1.209-8.243,4.067c-0.451,0.794-0.993,2.26-0.422,4.174c-0.066,0.05-0.13,0.098-0.194,0.145
			c-3.021,2.242-1.268,4.736-0.326,6.076c1.313,1.868,3.146,2.531,4.241,2.928c0.039,0.014,0.08,0.029,0.123,0.045
			c0.328,0.732,0.787,1.696,1.841,2.267c1.124,0.61,2.391,0.807,3.408,0.966c0.222,0.035,0.513,0.08,0.746,0.125
			c0.026,0.186,0.042,0.476,0.008,0.879c-0.215,2.532,2.181,3.074,3.612,3.398c0.929,0.21,2.116,0.453,3.256,0.665
			c0.001,0,0.003,0.001,0.004,0.001c2.439,0.455,4.144,0.686,5.065,0.686c0.505,0,0.919-0.063,1.303-0.198
			c0.334-0.117,0.637-0.293,0.897-0.515c0.024,0.038,0.048,0.076,0.069,0.108c0.373,0.589,0.884,1.396,1.804,1.942
			c1.689,1.002,3.433,1.18,4.836,1.323c0.645,0.065,1.312,0.133,1.666,0.269c2.475,0.949,3.907,2.475,4.644,4.948
			c0.722,2.424,3.153,3.353,4.928,4.031c0.536,0.205,1.329,0.508,1.623,0.708c0.332,0.508,0.426,0.868,0.544,1.316
			c0.349,1.326,0.982,2.68,2.863,3.231c-0.038,0.253-0.078,0.488-0.103,0.63c-0.148,0.848-0.301,1.725,0.268,2.685
			c0.654,1.106,1.945,2.424,4.375,2.424c0.248,0,0.498-0.013,0.745-0.027c0.123-0.007,0.245-0.016,0.401-0.016
			c0.118,0.031,0.27,0.078,0.449,0.132c1.037,0.31,2.603,0.778,4.117,0.778c0.494,0,0.961-0.051,1.391-0.151
			c0.77-0.181,1.274-0.533,3.357-2.191c1.115,0.404,2.829,0.976,5.534,1.845c1.275,0.409,2.729,0.869,4.004,1.265
			c-0.749,1.249-1.953,3.155-3.887,6.047l-0.171,0.256c-0.551,0.83-0.627,1.888-0.199,2.788c0.427,0.9,1.295,1.51,2.286,1.608
			c1.355,0.133,3.675,0.532,3.991,1.703c0.328,1.214,1.415,2.068,2.672,2.098c0.023,0.001,0.047,0.001,0.069,0.001
			c1.229,0,2.322-0.793,2.701-1.968c1.812-5.619,2.785-11.655,3.725-17.492c0.282-1.75,0.562-3.488,0.862-5.194
			c1.048-5.963-2.457-11.447-3.229-12.566c-0.176-0.313-0.379-0.633-0.591-0.97c-0.994-1.576-1.553-2.67-1.363-3.351
			c0.189-0.031,0.496-0.063,0.968-0.063c0.854,0,1.814,0.101,2.662,0.191c0.715,0.075,1.331,0.14,1.848,0.14
			c0.154,0,0.293-0.006,0.417-0.016c1.63-0.131,2.808-1.488,2.741-3.156c-0.058-1.453-1.397-3.832-3.306-5.448
			c1.49-0.028,3.004-0.126,4.475-0.222c1.428-0.093,2.778-0.18,3.838-0.18c0.111,0,0.362,0.004,0.38,0.004
			c0.816,0,1.568-0.348,2.094-0.922c1.576-0.182,2.635-1.279,3.436-2.214c0.233,0.973,0.391,2.082,0.363,2.674
			c-0.437,1.052-0.067,2.02,0.216,2.757c0.053,0.139,0.11,0.282,0.15,0.397c0.109,0.514,0.36,0.993,0.73,1.378
			c0.522,0.543,1.238,0.857,1.991,0.872c0.019,0,0.072,0.001,0.072,0.001c1.226,0,3.041-0.703,3.058-0.71
			c1.005-0.406,1.692-1.35,1.768-2.431C108.178,99.605,108.144,99.286,108.062,98.982z"/>
	</g>
	<g>
		<g>
			<g>
				<path style="fill:#ED1C24;" d="M12.318,4.728C8.788,2.35,8.542,3.045,6.333,6.852c-0.913,1.573-3.861,7.975-0.983,8.569
					c-0.365,0.592-1.943,6.218-1.521,6.99c1.526,2.789,3.245-2.264,3.818-3.669c-0.211-1.514,3.788-9.034,1.978-9.813
					c0.546-0.805,0.431-1.605,0.789-2.109c0.275-0.387,2.214-1.021,2.604-1.498C13.325,4.948,12.36,4.759,12.318,4.728z"/>
				<path style="fill:#ED1C24;" d="M21.661,8.165c0.382,0.063-0.579-3.638-1.456-4.199c0.729,0.291-3.598,3.341-3.911,3.786
					c-1.034,1.47-1.147,4.647-0.084,5.99c1.265,1.598,2.047,1.149,3.951-0.815c0.703-0.725,3.374-4.086,2.633-5.09
					C22.762,7.792,21.814,8.19,21.661,8.165z"/>
				<path style="fill:#ED1C24;" d="M69.257,3.683c-1.879-1.344-2.883-0.973-4.058,0.339c-0.446,0.498-6.676,4.705-6.762,4.754
					c-1.514,0.874-3.723,2.731-4.673,3.193c-2.387,1.161-4.607-0.136-6.864,0.298c-2.543,0.489-1.181,1.279-2.505,1.927
					c-1.985,0.971-3.766-0.363-5.271,0.046c-0.931,0.253-2.162,1.451-2.966,2.093c-0.62,0.495-4.942,5.132-4.419,5.865
					c0.48-0.187,0.887-0.477,1.22-0.871c-0.493,0.329,0.16,4.239-1.412,4.592c3.768,1.325-2.751,3.077-3.424,3.589
					c-0.054,0.041-1.342,1.366-2.833,2.78c0.144,0.669,0.214,1.471,0.268,2.393c0.18,3.044,1.281,0.877-0.454,6.561
					c-1.735,5.684,3.282,5.43,5.861,3.504s4.935-6.447,8.784-4.935c0,0,1.762,0.977,1.339,4.004
					c-0.423,3.027,1.539,6.919,3.495,4.607c1.956-2.312,1.952-2.1,2.227-5.342c0.275-3.242,0.949-5.206,1.785-1.024
					c0,0,0.367,2.902,2.392,0.4c2.026-2.502-3.016-4.577-1.042-8.068c1.353-2.391,1.58-3.243,1.59-3.543
					c-0.027-0.042-0.043-0.092-0.037-0.16c0.143-1.748,2.835-4.149,3.357-5.59c0.661-1.825,0.481-3.881,1.225-5.701
					c0.73-1.786,2.215-3.923,3.414-5.275c0.21-0.237,1.605,0.075,1.693-0.025c0.678-0.761,0.81-2.164,1.582-2.813
					c1.971-1.658,3.111-2.045,5.889-2.888C70.487,9.132,71.039,4.957,69.257,3.683z"/>
			</g>
		</g>
		<path style="fill:#FEC31D;" d="M40.535,78.557c-0.028,0.045-0.054,0.091-0.082,0.136C40.481,78.648,40.507,78.602,40.535,78.557
			c-0.989,1.601-1.816,3.306-2.796,4.608l0,0c0.93,1.032,1.82,2.689,1.899,5.312c0.171,5.651,4.155,8.398,6.544,6.828
			c2.389-1.57-1.234-4.041,2.464-5.381c3.697-1.339,8.088-4.214,13.206-4.892c5.118-0.678,12.105,2.989,14.712-0.349
			c2.607-3.337,3.197-4.597,10.284-6.011c6.378-1.272,9.183-1.138,11.788-3.627l0,0l0,0c-0.294-0.746-0.538-1.588-0.678-2.618
			c-0.085-0.628-0.192-1.299-0.282-1.988l0,0l0,0c-0.187-1.437-0.293-2.959,0.075-4.376c0.439-1.69,3.542-5.258,3.367-6.998
			c-0.498-4.954-6.416-1.506-9.914-1.519c-3.306-0.013-5.777,0.693-8.033-1.214c-2.133-1.804-3.045-4.818-5.319-6.086
			c-0.487-0.272-3.443-1.053-4.117-1.143c-2.04-0.271-4.927,0.623-7.166,0.529c-1.023-0.043-2.282,0.033-3.336-0.151
			c-2.204,3.248-5.172,8.263-3.976,10.195c1.832,2.959-0.035,2.17-3.366,3.987c0,0-2.236,1.227-2.621,4.643
			c-0.385,3.416-0.212,3.596-1.674,4.344c-1.462,0.748-2.661-1.111-2.661-1.111s-0.868-2.523-2.017,0.243
			c-1.149,2.766-1.656,1.627-4.136,3.908C41.903,76.5,41.184,77.505,40.535,78.557L40.535,78.557z"/>
		<path style="fill-rule:evenodd;clip-rule:evenodd;fill:#662D91;" d="M61.923,49.008c-1.469-1.411-2.849-3.029-3.043-3.227
			c-0.934-1.446,0.945-4.617,0.945-4.763c0.011-1.965-1.089-2.894-1.756-4.572c-0.776-1.951-2.161-6.036-3.575-6.441
			c0.041,0.012-2.623,1.367-2.957,0.84c-0.009,0.3-0.237,1.152-1.59,3.543c-1.975,3.491,3.068,5.567,1.042,8.068
			s-2.392-0.4-2.392-0.4c-0.836-4.182-1.51-2.218-1.785,1.024c-0.275,3.242-0.271,3.03-2.227,5.342
			c-1.956,2.312-3.918-1.58-3.495-4.607c0.423-3.027-1.339-4.004-1.339-4.004c-3.849-1.512-6.205,3.009-8.784,4.935
			c-2.579,1.926-7.597,2.181-5.861-3.504c1.735-5.684,0.634-3.517,0.454-6.561c-0.054-0.922-0.124-1.724-0.268-2.393
			c-1.603,1.52-3.441,3.142-4.23,3.38c-0.075,0.651,1.587,3.055,1.519,4.48c-0.079,1.671-1.265-0.139-2.526-2.127
			c0.001,1.331-0.018,3.104-0.117,3.966c-0.17,1.479,2.348,2.658,3.867,4.382c1.519,1.724,0.434,3.044-0.545,2.601
			c-0.98-0.443-2.453-0.895-2.505,1.716c-0.051,2.611,1.238,5.248,4.974,5.534s2.11,3.995,1.565,6.596
			c-0.545,2.601,1.99,7.608,2.356,9.436c0.366,1.828-0.199,2.961-0.199,2.961s-0.887,2.03-1.722,3.997
			c-0.835,1.967-0.545,3.583,0.287,4.376c0.832,0.793,2.372,1.458,1.775,3.071c-0.596,1.612-2.354,1.225-3.693,1.128
			c-1.339-0.097-1.295,1.245-1.295,1.245c-0.31,1.406-0.861,1.617-0.861,1.617c-2.601,0.383-0.965,1.453-0.965,1.453
			s1.911,3.356,3.653,3.074c1.742-0.282,4.907-3.964,7.446-7.444c2.539-3.48,1.129-1.778,3.076-3.858s3.152-5.904,5.632-8.185
			c2.48-2.281,2.987-1.141,4.136-3.908c1.149-2.766,2.017-0.243,2.017-0.243s1.199,1.859,2.661,1.111
			c1.462-0.748,1.289-0.928,1.674-4.344c0.385-3.416,2.621-4.643,2.621-4.643c3.33-1.817,5.197-1.028,3.366-3.987
			c-1.196-1.933,1.772-6.948,3.976-10.195C62.735,49.394,62.279,49.255,61.923,49.008z"/>
		<path style="fill:#FF8500;" d="M19.127,105.904c-0.629-0.554-1.189-1.161-1.411-1.715c-0.627-1.566,0.981-3.84,0.585-5.26
			c-0.396-1.42,1.574-1.052,1.762-2.448c0.188-1.397,1.222-0.929,1.803,0.683c0.58,1.612,2.021,2.534,3.694,3.227
			c1.673,0.693,1.812-0.813,0.744-1.54c-1.068-0.727-0.58-1.612-0.58-1.612l0.824-2.06c-1.72,0.168-3.571-3.077-3.571-3.077
			s-1.637-1.07,0.965-1.453c0,0,0.551-0.211,0.861-1.617c0,0-0.044-1.342,1.295-1.245c1.339,0.097,3.097,0.484,3.693-1.128
			c0.596-1.612-0.944-2.278-1.775-3.071c-0.832-0.793-1.122-2.409-0.287-4.376c0.835-1.967,1.722-3.997,1.722-3.997
			s0.565-1.134,0.199-2.961c-0.366-1.828-2.901-6.834-2.356-9.436c0.545-2.601,2.171-6.311-1.565-6.596s-5.026-2.923-4.974-5.534
			c0.051-2.611,1.525-2.159,2.505-1.716c0.98,0.443,2.065-0.877,0.545-2.601c-1.519-1.724-4.038-2.903-3.867-4.382
			c0.099-0.863,0.118-2.635,0.117-3.966c-1.045-1.647-2.141-3.415-2.702-3.426c-0.803,0.772,0.37,4.999,1.599,6.276
			c0.104-0.391-3.875,3.272-3.66,3.494c-0.16-0.542-0.448-0.994-0.851-1.364c0.41,0.666-1.512,2.857-1.51,2.875
			c0.126,1.594,5.61,8.145,3.567,8.105c-0.025,1.255,0.64,0.969-0.458,0.948c-0.471,1.768,1.693,2.217,1.56,3.853
			c-0.046,0.563-2.364,2.909-2.334,2.957c0.858,1.398,1.959,3.406,1.825,6.228c-0.061,1.279-1.674,3.92-1.518,4.231
			c0.147,0.538,0.909,2.68,1.086,2.866c0.175,0.2,1.082-1.346,1.108-1.025c-0.006-0.068,0.336,2.95,0.369,3.147
			c-0.001-0.009,0.002-0.017,0.001-0.025c0.004,0.046,0.003,0.045-0.001,0.025c0.145,2.137-3.855,3.468-4.641,5.955
			c0.177-0.559-0.791,2.299-0.795,2.518c-1.488-0.029-10.621,0.731-7.616,5.774c3.258,0.064-0.457,2.338-0.579,1.234
			c-1.657,1.699-2.332,0.958-0.811,3.121c1.197,1.703,3.204,1.796,4.027,2.411c0.449,0.335,0.735,1.71,1.208,1.966
			c1.332,0.721,3.542,0.594,4.479,1.174c1.041,0.645,1.283,2.06,1.159,3.531C14.556,104.962,16.808,105.471,19.127,105.904z"/>
		<g>
			<path style="fill-rule:evenodd;clip-rule:evenodd;fill:#0DA401;" d="M97.676,70.44c-0.089-0.688-0.158-1.396-0.167-2.103
				C97.519,69.044,97.587,69.751,97.676,70.44z"/>
			<path style="fill-rule:evenodd;clip-rule:evenodd;fill:#0DA401;" d="M40.535,78.557L40.535,78.557
				c-0.028,0.045-0.054,0.091-0.082,0.136C40.481,78.648,40.507,78.602,40.535,78.557z"/>
			<path style="fill-rule:evenodd;clip-rule:evenodd;fill:#0DA401;" d="M98.444,74.518c-0.018-0.052-0.034-0.107-0.051-0.16
				C98.41,74.412,98.427,74.466,98.444,74.518z"/>
			<path style="fill-rule:evenodd;clip-rule:evenodd;fill:#0DA401;" d="M97.039,86.38c1.265-4.345,5.133-2.577,3.724-6.787
				c-0.572-1.709-1.475-2.891-2.128-4.547l0,0c-2.605,2.489-5.41,2.355-11.788,3.627c-7.087,1.414-7.677,2.673-10.284,6.011
				c-2.607,3.337-9.595-0.33-14.712,0.349c-5.118,0.678-9.508,3.553-13.206,4.892c-3.697,1.339-0.075,3.811-2.464,5.381
				c-2.389,1.57-6.373-1.177-6.544-6.828c-0.08-2.623-0.969-4.28-1.899-5.312c0.01-0.014,0.02-0.03,0.03-0.044
				c-0.199,0.267-0.403,0.524-0.618,0.753c-1.947,2.08-0.537,0.378-3.076,3.858c-2.539,3.48-5.704,7.162-7.446,7.444
				c-0.027,0.004-0.055,0-0.082,0.003l-0.824,2.06c0,0-0.488,0.885,0.58,1.612c1.068,0.727,0.929,2.233-0.744,1.54
				c-1.673-0.693-3.114-1.616-3.694-3.227c-0.58-1.612-1.614-2.079-1.803-0.683c-0.188,1.397-2.158,1.028-1.762,2.448
				c0.396,1.42-1.212,3.694-0.585,5.26c0.222,0.554,0.782,1.161,1.411,1.715c2.205,0.411,4.47,0.754,4.906,0.6
				c0.348-2.637,2.095-0.966,3.477-0.224c0.635,0.341,1.013,1.599,1.682,1.997c1.963,1.165,4.362,0.728,6.069,1.383
				c3.903,1.497,5.57,4.175,6.348,6.788c0.59,1.978,4.971,2.203,6.095,3.83c1.739,2.517,0.329,3.63,3.033,3.683
				c1.904,0.037,0.571,4.202,0.719,4.454c0.943,1.593,2.482,0.798,3.61,1.035c0.741,0.155,3.264,1.141,4.775,0.787
				c0.399-0.094,3.521-2.728,3.575-2.677c0.486,0.458,13.111,4.395,13.868,4.571c0.803,0.187-5.042,8.832-5.592,9.661
				c2.166,0.214,5.668,0.879,6.454,3.789c2.28-7.071,3.205-14.974,4.493-22.306c0.943-5.368-2.842-10.565-2.844-10.568
				c-0.897-1.667-3.79-5.022-1.666-7.822c1.284-1.692,6.475-0.477,7.791-0.583c0.952-0.076-3.482-7.064-6.02-3.786
				c0.052-1.799,0.104-3.598,0.156-5.397c3.466,1.232,10.406,0.096,14.217,0.171c0,0.004-1.961-2.241-0.19-2.635
				c2.676,4.971,3.888-2.382,6.794-1.527c1.517,0.446,2.578,6.669,1.929,7.6c-0.045,0.065,0.507,1.314,0.504,1.504
				c0.417,0.008,1.571-0.325,2.01-0.503C105.257,99.691,102.503,83.945,97.039,86.38z"/>
			<path style="fill-rule:evenodd;clip-rule:evenodd;fill:#0DA401;" d="M97.677,70.447c0.05,0.38,0.103,0.753,0.157,1.117
				C97.781,71.199,97.726,70.827,97.677,70.447z"/>
			<path style="fill-rule:evenodd;clip-rule:evenodd;fill:#0DA401;" d="M98.27,73.947c-0.018-0.067-0.036-0.134-0.054-0.202
				C98.234,73.813,98.252,73.88,98.27,73.947z"/>
			<path style="fill-rule:evenodd;clip-rule:evenodd;fill:#0DA401;" d="M98.114,73.306c-0.014-0.066-0.029-0.13-0.042-0.198
				C98.085,73.175,98.1,73.24,98.114,73.306z"/>
			<path style="fill-rule:evenodd;clip-rule:evenodd;fill:#0DA401;" d="M38.329,82.311l0.003-0.004L38.329,82.311z"/>
		</g>
	</g>
</g>
</svg>
