<?xml version="1.0" encoding="utf-8"?>
<!-- Generator: Adobe Illustrator 21.0.0, SVG Export Plug-In . SVG Version: 6.00 Build 0)  -->
<svg version="1.1" id="Capa_1" xmlns="http://www.w3.org/2000/svg" xmlns:xlink="http://www.w3.org/1999/xlink" x="0px" y="0px"
	 viewBox="0 0 138.984 137.221" style="enable-background:new 0 0 138.984 137.221;" xml:space="preserve">
<g>
	<g>
		<g>
			<g>
				<path style="fill-rule:evenodd;clip-rule:evenodd;fill:#054700;" d="M21.862,0h95.154c3.511,0,2.437,11.864,2.437,17.797H19.425
					C19.425,11.864,18.825,0,21.862,0z"/>
				<path style="fill-rule:evenodd;clip-rule:evenodd;fill:#CCCCCC;" d="M21.394,11.008c0.023-4.531,0.275-9.176,1.525-10.581
					C22.617,0.151,22.267,0,21.862,0c-2.095,0-2.459,5.644-2.483,11.093C20.041,11.064,20.713,11.035,21.394,11.008z"/>
				<path style="fill-rule:evenodd;clip-rule:evenodd;fill:#CCCCCC;" d="M116.025,0.37c1.439,1.315,1.616,5.923,1.557,10.461
					c0.678,0.023,1.35,0.047,2.014,0.072C119.672,5.513,119.409,0,117.016,0C116.64,0,116.312,0.13,116.025,0.37z"/>
			</g>
			<g>
				<path style="opacity:0.2;fill-rule:evenodd;clip-rule:evenodd;" d="M17.098,136.043c-7.949-2.139-14.856-9.92-15.447-18.395
					c-2.154-30.852-2.197-48.702-0.143-81.519c0.617-9.853,8.073-17.898,17.664-19.37c27.852-4.274,72.79-4.274,100.641,0
					c9.591,1.472,17.048,9.517,17.665,19.37c2.054,32.817,2.01,50.667-0.143,81.519c-0.591,8.474-7.498,16.255-15.447,18.395
					C116.048,137.613,22.936,137.614,17.098,136.043z"/>
				<path style="fill-rule:evenodd;clip-rule:evenodd;fill:#FFFFFF;" d="M17.566,129.734c-7.915-2.139-14.794-9.918-15.383-18.394
					C0.038,80.488-0.005,62.638,2.041,29.82c0.614-9.854,8.038-17.898,17.591-19.37c27.735-4.275,71.987-4.275,99.722,0
					c9.551,1.472,16.976,9.516,17.591,19.37c2.046,32.817,2.001,50.667-0.143,81.52c-0.588,8.473-7.467,16.256-15.381,18.394
					C115.604,131.305,23.38,131.305,17.566,129.734z"/>
				<path style="fill-rule:evenodd;clip-rule:evenodd;fill:#999999;" d="M20.215,126.356c-7.689-2.077-14.37-9.634-14.943-17.868
					C3.187,78.519,3.146,62.684,5.134,30.807c0.597-9.571,7.81-17.386,17.087-18.816c26.941-4.153,67.602-4.153,94.542,0
					c9.278,1.429,16.491,9.247,17.087,18.816c1.987,31.877,1.944,47.713-0.138,77.681c-0.572,8.231-7.255,15.791-14.943,17.868
					C113.123,127.881,25.862,127.882,20.215,126.356z"/>
				<path style="fill-rule:evenodd;clip-rule:evenodd;fill:#F2F2F2;" d="M3.686,66.601c0.077-10.524,0.56-21.56,1.448-35.794
					c0.597-9.571,7.81-17.386,17.087-18.816c26.941-4.152,67.602-4.152,94.542,0c9.278,1.429,16.491,9.247,17.087,18.816
					c0.887,14.234,1.37,25.27,1.447,35.794c-0.082,10.931-0.61,21.863-1.585,35.892c-0.571,8.231-7.255,15.79-14.943,17.868
					c-5.646,1.526-92.908,1.526-98.555,0c-7.689-2.078-14.37-9.634-14.943-17.868C4.296,88.464,3.768,77.532,3.686,66.601z"/>
				<path style="fill-rule:evenodd;clip-rule:evenodd;fill:#CCCCCC;" d="M3.689,66.205C3.776,55.8,4.257,44.863,5.134,30.807
					c0.597-9.571,7.81-17.386,17.087-18.816c26.941-4.152,67.602-4.152,94.542,0c9.278,1.429,16.491,9.247,17.087,18.816
					c0.876,14.045,1.357,24.975,1.443,35.371c-0.091,10.803-0.618,21.643-1.581,35.509c-0.571,8.231-7.255,15.79-14.943,17.868
					c-5.646,1.525-92.908,1.526-98.555,0c-7.689-2.077-14.37-9.633-14.943-17.868C4.308,87.832,3.78,76.999,3.689,66.205z"/>
				<path style="fill-rule:evenodd;clip-rule:evenodd;fill:#F2F2F2;" d="M23.478,14.098c29.262-3.972,66.743-3.91,93.286,0.181
					c9.278,1.429,16.491,9.245,17.087,18.816c0.22,3.533,0.416,7.518,0.586,11.847c-0.002-0.934-0.01-1.858-0.018-2.77
					c-0.166-4.144-0.356-7.964-0.568-11.365c-0.596-9.571-7.81-17.386-17.087-18.816c-26.941-4.153-67.602-4.153-94.542,0
					c-9.277,1.429-16.49,9.243-17.087,18.816c-0.29,4.642-0.537,10.058-0.74,16.017c-0.014,1.088-0.025,2.19-0.034,3.303
					c0.21-6.36,0.468-12.128,0.774-17.033c0.304-4.876,2.326-9.295,5.461-12.646c-0.482,1.131-0.553,2.252-0.114,3.222
					c1.21,2.669,5.819,3.189,10.293,1.16s7.122-5.836,5.913-8.504C26.162,15.167,24.995,14.413,23.478,14.098z"/>
				<path style="fill-rule:evenodd;clip-rule:evenodd;fill:#B3B3B3;" d="M80.327,102.309c-30.182,0-57.307-6.206-76.006-16.072
					c0.247,4.79,0.564,9.876,0.952,15.45c0.573,8.234,7.254,15.79,14.943,17.868c5.647,1.526,92.909,1.525,98.555,0
					c7.688-2.077,14.372-9.637,14.943-17.868c0.159-2.291,0.306-4.5,0.442-6.64C118.525,99.651,100.081,102.309,80.327,102.309z"/>
			</g>
			<g>
				<path style="opacity:0.2;fill-rule:evenodd;clip-rule:evenodd;" d="M24.086,9.7c26.126-2.088,67.191-2.875,90.891,0.261
					c0.04,3.39,0.367,10.435,0.367,12.013c0,2.343-2.005,4.259-4.454,4.259H69.492h-41.4c-2.449,0-4.454-1.916-4.454-4.259
					C23.639,20.422,24.041,13.03,24.086,9.7z"/>
				<path style="fill-rule:evenodd;clip-rule:evenodd;fill:#FFFFFF;" d="M69.492,23.913H28.849c-2.405,0-4.372-1.967-4.372-4.372
					C24.477,15.41,26.006,0,21.915,0h47.577h47.577c-4.091,0-2.562,15.41-2.562,19.541c0,2.405-1.967,4.372-4.373,4.372H69.492z"/>
				<path style="fill-rule:evenodd;clip-rule:evenodd;fill:#0DA401;" d="M69.492,21.035H31.266c-2.262,0-4.112-1.73-4.112-3.846
					C27.153,13.556,28.591,0,24.743,0h44.749h44.748c-3.848,0-2.409,13.556-2.409,17.189c0,2.115-1.851,3.846-4.113,3.846H69.492z"
					/>
				<path style="fill-rule:evenodd;clip-rule:evenodd;fill:#E6E6E6;" d="M28.849,23.154c-2.326,0-4.242-1.84-4.366-4.137
					c-0.004,0.19-0.006,0.365-0.006,0.524c0,2.405,1.967,4.372,4.372,4.372h40.643h40.642c2.405,0,4.373-1.967,4.373-4.372
					c0-0.159-0.003-0.333-0.007-0.524c-0.123,2.297-2.039,4.137-4.366,4.137H69.492H28.849z"/>
				<path style="fill-rule:evenodd;clip-rule:evenodd;fill:#0A8300;" d="M65.747,17.797c-12.934-0.714-25.084-2.056-36.357-4.1
					c-0.699-0.127-1.395-0.256-2.087-0.388c-0.006,0.144-0.013,0.286-0.019,0.426c-0.066,1.451-0.131,2.679-0.131,3.454
					c0,0.207,0.018,0.41,0.051,0.608c0.314,1.829,2.02,3.238,4.061,3.238h38.227h38.226c1.984,0,3.652-1.332,4.031-3.086
					C95.531,18.609,80.153,18.592,65.747,17.797z"/>
				<path style="fill-rule:evenodd;clip-rule:evenodd;fill:#41BA2F;" d="M26.905,2.777c28.651-1.439,57.109-1.603,85.442-0.922
					C112.754,0.713,113.358,0,114.24,0H24.743C25.844,0,26.512,1.108,26.905,2.777z"/>
			</g>
			<g>
				<g>
					<path style="fill:#FFFFFF;" d="M50.161,6.431c-0.106,1.512-0.16,2.88-0.16,4.104c0,1.219,0.053,2.297,0.16,3.234l3.066-0.383
						l-0.064,2.363l-5.11,0.128l-0.319-9.582L50.161,6.431z"/>
					<path style="fill:#FFFFFF;" d="M55.279,5.272l0.703,9.702L53.81,15.23l-0.383-9.957H55.279z"/>
					<path style="fill:#FFFFFF;" d="M58.552,6.965c0.357-0.08,0.706-0.12,1.046-0.12c1.65,0,2.712,0.857,3.186,2.571
						c0.245,0.889,0.354,1.911,0.328,3.066l-0.064,2.739L60.98,15.35l-0.016-0.375c-2.598-0.09-3.953-0.729-4.064-1.917
						c-0.016-0.17-0.024-0.295-0.024-0.375c0-0.969,0.389-1.576,1.166-1.821c0.388-0.122,0.774-0.184,1.158-0.184
						c0.511,0,1.033,0.104,1.565,0.312c-0.005-0.916-0.016-1.4-0.032-1.453c-0.107-0.367-0.46-0.575-1.062-0.623
						c-0.511-0.042-1.001,0.383-1.469,1.278l-2.044-0.319C56.711,8.168,57.509,7.2,58.552,6.965z M59.878,12.1
						c-0.559,0-0.852,0.146-0.878,0.439c-0.042,0.426,0.585,0.772,1.884,1.038l-0.056-1.381C60.456,12.131,60.139,12.1,59.878,12.1z
						"/>
					<path style="fill:#FFFFFF;" d="M65.34,7.062l0.127,0.894c1.038-0.729,1.89-1.094,2.555-1.094c0.618,0,1.075,0.311,1.374,0.934
						c0.453,0.948,0.679,2.504,0.679,4.671c0,0.777-0.029,1.634-0.088,2.571l-2.156,0.072c0.17-1.15,0.255-2.121,0.255-2.915
						c0-0.969-0.127-1.668-0.383-2.1c-0.165-0.277-0.354-0.416-0.567-0.416c-0.41,0-0.91,0.482-1.501,1.445v4.224l-1.948-0.056
						l-0.328-7.913L65.34,7.062z"/>
					<path style="fill:#FFFFFF;" d="M72.582,11.988c0.239,0.804,0.748,1.225,1.525,1.262c0.724,0.037,1.213-0.343,1.469-1.142
						l2.235-0.319c-0.569,2.337-1.7,3.505-3.394,3.505c-0.521,0-1.104-0.12-1.748-0.359c-1.192-0.681-1.79-1.991-1.79-3.928
						c0-0.165,0.006-0.349,0.016-0.551c0.117-2.241,1.209-3.542,3.275-3.904c1.958-0.042,3.087,1.319,3.385,4.085L72.582,11.988z
						 M73.193,9.141c-0.295,0.349-0.456,0.771-0.482,1.266l2.994-0.854c-0.347-0.623-0.777-0.935-1.294-0.935
						S73.488,8.793,73.193,9.141z"/>
					<path style="fill:#FFFFFF;" d="M78.084,15.485c0.016-3.239-0.066-5.826-0.247-7.761l2.235-0.184L80,8.267
						c1.097-0.682,2.215-1.003,3.354-0.966l0.216,1.932c-1.31,0-2.23,0.271-2.763,0.813c-0.367,0.378-0.551,1.337-0.551,2.879
						c0,0.702,0.037,1.528,0.111,2.48L78.084,15.485z"/>
					<path style="fill:#FFFFFF;" d="M83.864,11.956c0.037-1.214,0.338-2.257,0.902-3.13c0.671-1.043,1.567-1.565,2.691-1.565
						c1.187,0,2.044,0.293,2.57,0.878c0.432,0.479,0.77,1.336,1.015,2.571c0.096,0.484,0.144,0.942,0.144,1.373
						c0,0.926-0.229,1.698-0.687,2.316c-0.671,0.905-1.69,1.336-3.059,1.293c-1.256-0.038-2.177-0.356-2.763-0.958
						C84.093,14.133,83.821,13.207,83.864,11.956z M88.56,10.04c-0.373-0.351-0.724-0.527-1.054-0.527
						c-0.405,0-0.777,0.266-1.118,0.798c-0.304,0.474-0.455,0.934-0.455,1.381c0,0.42,0.139,0.852,0.415,1.293
						c0.309,0.495,0.665,0.743,1.07,0.743c0.463,0,0.886-0.242,1.27-0.727c0.367-0.458,0.551-0.923,0.551-1.397
						C89.238,11.094,89.012,10.572,88.56,10.04z"/>
				</g>
			</g>
		</g>
		<g>
			<g>
				<path style="fill-rule:evenodd;clip-rule:evenodd;fill:#808080;" d="M69.493,108.29c21.917,0,39.793-17.875,39.793-39.793
					S91.41,28.703,69.493,28.703S29.699,46.58,29.699,68.498S47.576,108.29,69.493,108.29z"/>
				<path style="fill-rule:evenodd;clip-rule:evenodd;fill:#DCB000;" d="M69.493,108.186c-21.161,0-38.455-16.511-39.722-37.352
					c-0.043,0.807-0.072,1.62-0.072,2.441c0,21.981,17.813,39.793,39.794,39.793c21.98,0,39.793-17.812,39.793-39.793
					c0-0.821-0.029-1.634-0.07-2.441C107.949,91.674,90.653,108.186,69.493,108.186z"/>
			</g>
			<g>
				<path style="fill-rule:evenodd;clip-rule:evenodd;fill:#FEE147;" d="M69.493,111.621c21.917,0,39.793-17.875,39.793-39.793
					S91.41,32.035,69.493,32.035S29.699,49.911,29.699,71.828S47.576,111.621,69.493,111.621z"/>
				<path style="fill-rule:evenodd;clip-rule:evenodd;fill:#F2F2F2;" d="M69.493,111.514c-21.161,0-38.455-16.51-39.722-37.352
					c-0.043,0.807-0.072,1.621-0.072,2.442c0,21.98,17.813,39.793,39.794,39.793c21.98,0,39.793-17.813,39.793-39.793
					c0-0.821-0.029-1.636-0.07-2.442C107.949,95.005,90.653,111.514,69.493,111.514z"/>
			</g>
		</g>
	</g>
	<g>
		<defs>
			<path id="SVGID_1_" d="M69.493,111.621c21.917,0,39.793-17.875,39.793-39.793S91.41,32.035,69.493,32.035
				S29.699,49.911,29.699,71.828S47.576,111.621,69.493,111.621z"/>
		</defs>
		<clipPath id="SVGID_2_">
			<use xlink:href="#SVGID_1_"  style="overflow:visible;"/>
		</clipPath>
		<g style="clip-path:url(#SVGID_2_);">
			<g>
				<g>
					<g>
						<g id="XMLID_21_">
							<path id="XMLID_22_" style="fill:#BC8853;" d="M80.21,102.006c0,0,6.247,11.043-3.645,14.541l0.301-3.438
								c0,0,5.015-2.532,2.41-8.776L80.21,102.006z"/>
						</g>
						<g>
							<path style="fill:#CCCCCC;" d="M77.03,107.86c0,0,0.21-6.962,1.139-11.462c0.361,0.237,0.77,0.506,0.99,0.714
								c1.738,1.641,4.192,6.419,4.589,7.505l-5.305,4.367L77.03,107.86z"/>
							<path style="fill:#999999;" d="M77.645,108.349l5.634-4.785c0.225,0.463,0.389,0.833,0.47,1.052l-5.305,4.367L77.645,108.349
								z"/>
						</g>
					</g>
					<g>
						<g>
							<g>
								<g id="XMLID_19_">
									
										<rect id="XMLID_20_" x="56.375" y="133.768" transform="matrix(0.1165 -0.9932 0.9932 0.1165 -79.3437 182.2353)" style="fill:#BC8853;" width="12.761" height="3.892"/>
								</g>
							</g>
							<g>
								<path style="fill:#C7B299;" d="M60.983,115.272l7.776,0.711v6.546l-0.92,13.235c0,0-3.763,0.996-8.361,0
									C59.479,135.764,60.064,118.212,60.983,115.272z"/>
								<path style="fill:#998675;" d="M67.338,137.161l-7.57-0.73c-0.546-0.026-0.972-0.495-0.946-1.041l0.081-1.686
									c0.026-0.546,0.575-0.713,1.489-0.711l7.127,0.13c0.546,0.026,0.972,0.495,0.946,1.041l-0.081,1.686
									C68.358,136.398,67.885,137.188,67.338,137.161z"/>
							</g>
						</g>
						<g>
							<g>
								<g id="XMLID_17_">
									
										<rect id="XMLID_18_" x="72.817" y="129.333" transform="matrix(0.9932 -0.1165 0.1165 0.9932 -15.2982 9.6316)" style="fill:#BC8853;" width="3.892" height="12.761"/>
								</g>
							</g>
							<g>
								<path style="fill:#C7B299;" d="M76.535,115.272l-7.776,0.711v6.546l0.92,13.235c0,0,3.763,0.996,8.361,0
									C78.04,135.764,77.455,118.212,76.535,115.272z"/>
								<path style="fill:#998675;" d="M70.18,137.161l7.57-0.73c0.546-0.026,0.972-0.495,0.946-1.041l-0.081-1.686
									c-0.026-0.546-0.575-0.713-1.489-0.711l-7.127,0.13c-0.546,0.026-0.972,0.495-0.946,1.041l0.081,1.686
									C69.161,136.398,69.634,137.188,70.18,137.161z"/>
							</g>
						</g>
					</g>
					<g>
						<g id="XMLID_15_">
							<path id="XMLID_16_" style="fill:#BC8853;" d="M56.756,101.968c0,0-5.795,11.24,4.097,14.738l-0.226-3.438
								c0,0-5.542-2.73-2.937-8.974L56.756,101.968z"/>
						</g>
						<g>
							<path style="fill:#CCCCCC;" d="M60.069,108.197c0,0-0.131-7.556-0.94-11.837c-0.361,0.237-1.286,0.934-1.506,1.142
								c-1.738,1.641-4.192,6.419-4.589,7.505l5.305,4.367L60.069,108.197z"/>
							<path style="fill:#999999;" d="M59.202,108.786l-5.7-4.832c-0.225,0.463-0.389,0.833-0.47,1.052l5.305,4.367L59.202,108.786z
								"/>
						</g>
					</g>
					<g>
						<path style="fill:#CCCCCC;" d="M59.129,96.36l7.072-1.638h2.563v25.358c0,0-3.854-0.328-5.344-1.032
							c-0.682-0.323-2.761-2.072-2.761-2.072l-0.772-11.68L59.129,96.36z"/>
						<path style="fill:#CCCCCC;" d="M78.169,96.397l-6.843-1.675h-2.562v25.358c0,0,3.808-0.079,5.297-0.784
							c0.682-0.322,2.797-2.343,2.797-2.343l0.782-11.657L78.169,96.397z"/>
						<polygon style="fill:#999999;" points="68.763,92.831 65.037,92.831 65.952,94.697 68.763,94.722 71.574,94.697 
							72.488,92.831 						"/>
						<polygon style="fill:#9D5C4A;" points="67.447,95.864 68.763,96.666 68.763,97.608 66.9,96.552 						"/>
						<polygon style="fill:#9D5C4A;" points="68.763,96.666 70.079,95.864 70.626,96.552 68.763,97.608 						"/>
						<path style="fill:#999999;" d="M69.695,108.211c-0.304,0-0.549,0.23-0.549,0.514c0,0.284,0.245,0.514,0.549,0.514
							c0.303,0,0.549-0.23,0.549-0.514C70.244,108.441,69.997,108.211,69.695,108.211z M69.5,108.828
							c-0.061,0-0.111-0.046-0.111-0.103c0-0.057,0.049-0.104,0.111-0.104c0.061,0,0.11,0.047,0.11,0.104
							C69.61,108.782,69.56,108.828,69.5,108.828z M69.896,108.833c-0.061,0-0.111-0.046-0.111-0.103
							c0-0.057,0.05-0.103,0.111-0.103c0.06,0,0.11,0.046,0.11,0.103C70.006,108.787,69.956,108.833,69.896,108.833z"/>
						<path style="fill:#999999;" d="M69.695,112.497c-0.304,0-0.549,0.23-0.549,0.514c0,0.284,0.245,0.513,0.549,0.513
							c0.303,0,0.549-0.229,0.549-0.513C70.244,112.727,69.997,112.497,69.695,112.497z M69.5,113.114
							c-0.061,0-0.111-0.046-0.111-0.103c0-0.057,0.049-0.103,0.111-0.103c0.061,0,0.11,0.046,0.11,0.103
							C69.61,113.068,69.56,113.114,69.5,113.114z M69.896,113.119c-0.061,0-0.111-0.046-0.111-0.103
							c0-0.057,0.05-0.103,0.111-0.103c0.06,0,0.11,0.046,0.11,0.103C70.006,113.073,69.956,113.119,69.896,113.119z"/>
						<path style="fill:#999999;" d="M69.695,117.274c-0.304,0-0.549,0.23-0.549,0.514c0,0.283,0.245,0.514,0.549,0.514
							c0.303,0,0.549-0.23,0.549-0.514C70.244,117.504,69.997,117.274,69.695,117.274z M69.5,117.89
							c-0.061,0-0.111-0.046-0.111-0.103c0-0.057,0.049-0.103,0.111-0.103c0.061,0,0.11,0.046,0.11,0.103
							C69.61,117.844,69.56,117.89,69.5,117.89z M69.896,117.896c-0.061,0-0.111-0.046-0.111-0.104c0-0.057,0.05-0.103,0.111-0.103
							c0.06,0,0.11,0.046,0.11,0.103C70.006,117.849,69.956,117.896,69.896,117.896z"/>
						<g>
							<polygon style="fill:#B3B3B3;" points="73.825,101.769 71.251,101.769 71.505,105.581 73.825,106.175 76.105,105.68 
								76.398,101.769 							"/>
						</g>
						<g>
							<polygon style="fill:#BC8853;" points="65.644,95.474 68.515,109.214 71.463,95.474 							"/>
						</g>
						<ellipse style="fill:#9B6534;" cx="68.763" cy="95.714" rx="3.726" ry="1.747"/>
						<polygon style="fill:#999999;" points="71.824,95.474 71.547,95.079 68.515,109.214 65.561,95.079 65.285,95.474 
							68.283,109.634 68.283,120.045 68.763,120.08 68.763,109.625 						"/>
						<polygon style="fill:#999999;" points="65.037,92.831 63.957,95.553 65.037,99.877 67.447,96.844 						"/>
						<polygon style="fill:#999999;" points="72.488,92.831 73.568,95.553 72.488,99.877 70.079,96.844 						"/>
					</g>
					<path style="fill:#3D1C00;" d="M95.296,51.361c0,0-15.82,8.143-27.194,7.577c-11.374,0.566-27.193-7.577-27.193-7.577
						c-3.163-1.481-6.038,5.509,3.205,13.571c7.575,6.607,21.491,7.702,23.988,7.522c2.498,0.18,16.053-0.824,23.988-7.522
						C101.449,57.031,98.459,49.88,95.296,51.361z"/>
					<g>
						<g>
							<g>
								<path style="fill:#BC8853;" d="M68.73,56.203c0,0,9.108,0,10.147,0c1.039,0,3.613,1.64,3.88,9.9
									c0.526,16.191-0.167,20.42-5.968,26.538c-2.674,2.819-5.496,4.039-8.058,4.039c-2.491,0-5.386-1.219-8.059-4.039
									c-5.801-6.119-6.495-10.347-5.969-26.538c0.268-8.26,2.841-9.9,3.88-9.9C59.62,56.203,68.73,56.203,68.73,56.203z"/>
								<path style="fill:#BC8853;" d="M55.535,77.921c0,0-1.011-3.096-2.858-3.096c-1.845,0-0.953,6.012,3.87,9.109L55.535,77.921z
									"/>
								<path style="fill:#BC8853;" d="M81.878,77.921c0,0,1.011-3.096,2.858-3.096c1.846,0,0.951,6.012-3.871,9.109L81.878,77.921z
									"/>
								<g>
									<path d="M78.472,70.247c-0.092-0.049-0.255-0.096-0.453-0.171c-0.2-0.073-0.439-0.167-0.721-0.228
										c-0.547-0.168-1.236-0.254-1.908-0.303c-1.358-0.066-2.646,0.215-2.87,0.264c-0.475,0.071-1.146,0.325-1.511-0.391
										c-0.203-0.369,0.166-0.739,0.729-0.98c0.562-0.25,1.316-0.366,1.861-0.398c0.542-0.05,1.729-0.016,2.833,0.269
										c0.274,0.079,0.548,0.145,0.802,0.232c0.251,0.097,0.49,0.188,0.71,0.272c0.423,0.197,0.757,0.372,0.937,0.469
										c0.342,0.234,0.735,0.45,0.987,0.732c0.262,0.27,0.431,0.522,0.399,0.722C80.187,71.14,79.246,70.57,78.472,70.247z"/>
								</g>
								<g>
									<path d="M58.824,70.247c0.092-0.049,0.255-0.096,0.453-0.171c0.2-0.073,0.44-0.167,0.721-0.228
										c0.548-0.168,1.236-0.254,1.908-0.303c1.358-0.066,2.646,0.215,2.871,0.264c0.474,0.071,1.146,0.325,1.511-0.391
										c0.203-0.369-0.166-0.739-0.729-0.98c-0.563-0.25-1.316-0.366-1.861-0.398c-0.543-0.05-1.73-0.016-2.834,0.269
										c-0.274,0.079-0.548,0.145-0.801,0.232c-0.252,0.097-0.491,0.188-0.71,0.272c-0.423,0.197-0.757,0.372-0.938,0.469
										c-0.341,0.234-0.735,0.45-0.987,0.732c-0.262,0.27-0.431,0.522-0.399,0.722C57.109,71.14,58.05,70.57,58.824,70.247z"/>
								</g>
								<g id="XMLID_4_">
									<g id="XMLID_10_">
										<path id="XMLID_14_" style="fill:#FFFFFF;" d="M61.19,71.937c-4.261,1.127-4.075,7.21,0.554,7.198
											C66.372,79.123,66.148,70.625,61.19,71.937z"/>
										
											<ellipse id="XMLID_13_" transform="matrix(0.0209 -0.9998 0.9998 0.0209 -15.0065 135.5476)" cx="61.703" cy="75.436" rx="2.275" ry="1.801"/>
										
											<ellipse id="XMLID_12_" transform="matrix(0.0209 -0.9998 0.9998 0.0209 -14.7233 133.5238)" style="fill:#FFFFFF;" cx="60.811" cy="74.279" rx="1.074" ry="1.074"/>
										
											<ellipse id="XMLID_11_" transform="matrix(0.0209 -0.9998 0.9998 0.0209 -15.3681 137.1006)" style="fill:#FFFFFF;" cx="62.315" cy="76.397" rx="0.411" ry="0.411"/>
									</g>
									<g id="XMLID_5_">
										<path id="XMLID_9_" style="fill:#FFFFFF;" d="M76.177,71.971c4.21,1.304,3.77,7.374-0.854,7.168
											C70.699,78.934,71.279,70.453,76.177,71.971z"/>
										
											<ellipse id="XMLID_8_" transform="matrix(0.0209 -0.9998 0.9998 0.0209 -1.3089 149.5622)" cx="75.707" cy="75.449" rx="2.275" ry="1.801"/>
										
											<ellipse id="XMLID_7_" transform="matrix(0.0209 -0.9998 0.9998 0.0209 -1.0256 147.5384)" style="fill:#FFFFFF;" cx="74.815" cy="74.293" rx="1.074" ry="1.074"/>
										
											<ellipse id="XMLID_6_" transform="matrix(0.0209 -0.9998 0.9998 0.0209 -1.6705 151.1151)" style="fill:#FFFFFF;" cx="76.32" cy="76.41" rx="0.411" ry="0.411"/>
									</g>
								</g>
								<path id="XMLID_3_" style="fill:#7F4C26;" d="M66.763,83.373c0.226-0.3,0.901,0.518,1.932,0.585
									c1.031,0.067,1.485-1.027,1.935-0.768c0.45,0.259-0.455,1.674-2.002,1.799C67.081,85.114,66.569,83.63,66.763,83.373z"/>
								<path id="XMLID_2_" style="fill:#7F4C26;" d="M64.303,87.652c0.153-0.404,1.158,0.873,4.541,0.881
									c3.383,0.008,4.548-2.212,5.031-1.921c0.483,0.291-1.843,2.702-5.033,2.694C65.653,89.298,64.012,88.424,64.303,87.652z"/>
								<path id="XMLID_1_" style="fill:#7F4C26;" d="M71.332,89.812c-0.588,0.13-1.088,0.349-1.706,0.383
									c-0.627,0.034-1.263-0.139-1.881-0.075c-0.171,0.018-0.197,0.226-0.04,0.291c0.981,0.403,2.976,0.474,3.733-0.416
									C71.508,89.912,71.442,89.788,71.332,89.812z"/>
								<path style="fill-rule:evenodd;clip-rule:evenodd;" d="M75.714,84.402c-1.468,1.207-4.429,0.793-6.948,0.859
									c-2.527-0.066-5.488,0.348-6.956-0.859c-0.835,2.311,3.537,3.881,6.952,2.52C72.185,88.283,76.556,86.713,75.714,84.402z"/>
							</g>
						</g>
						<path style="fill-rule:evenodd;clip-rule:evenodd;" d="M69.337,48.657c2.062-0.294,3.155-2.974,6.165-1.078
							c9.113,5.74,5.282,10.289,11.729,15.886c3.248,2.82-1.853,11.359-4.46,12.669c-0.769,0.387,1.286-3.892-1.391-4.505
							c-2.046-0.468-4.834-4.01-4.363-2.757c1.413,3.754,3.661,3.663,0.039,2.016c-5.034-2.288-9.141-8.43-9.022-11.845
							c-0.135,3.843-4.725,10.086-8.4,12.066c-0.704,0.38-6.128,3.051-3.151,0.512c3.066-2.614,5.006-6.817,1.004-2.686
							c-2.424,2.502-3.303-0.307-2.631,5.343c0.552,4.643,0.28,1.116-1.981,0.558c-2.821-0.696-3.773-6.139-3.493-9.011
							c0.693-7.12,4.749-9.252,8.443-14.898c1.953-2.985,7.564-6.583,10.606-2.797C68.489,48.203,69.229,48.612,69.337,48.657z"/>
					</g>
					<g>
						<path style="fill:#602E0C;" d="M80.106,42.84c-2.54-3.463-5.541-5.195-7.85-3.117C69.947,41.801,68.1,41.57,68.1,41.57
							s-1.847,0.231-4.156-1.847c-2.309-2.078-5.31-0.346-7.85,3.117c-2.54,3.463-2.77,9.929-2.77,9.929v3.767
							c9.571,2.555,14.776,3.101,14.776,3.101s5.205-0.547,14.776-3.101v-3.767C82.876,52.769,82.645,46.303,80.106,42.84z"/>
						<path style="fill:#4C2103;" d="M56.094,42.84c-1.32,1.8-2.016,4.941-2.38,7.543c0.041,0.029,0.076,0.064,0.119,0.09
							c2.048,1.287,5.554-0.605,7.831-4.228c1.559-2.479,2.136-5.125,1.69-6.962C61.138,37.948,58.422,39.665,56.094,42.84z"/>
						<path style="fill:#BA0000;" d="M68.338,60.113c8.203,0,14.562-3.036,14.562-0.129v-2.36c0-2.909-6.359-5.266-14.562-5.266
							c-8.204,0-14.965,2.357-14.965,5.266l-0.536,2.36C52.836,57.077,60.134,60.113,68.338,60.113z"/>
						<path style="fill:#4C2103;" d="M80.106,42.84c1.32,1.8,2.016,4.941,2.38,7.543c-0.04,0.029-0.076,0.064-0.119,0.09
							c-2.048,1.287-5.554-0.605-7.83-4.228c-1.559-2.479-2.137-5.125-1.69-6.962C75.061,37.948,77.777,39.665,80.106,42.84z"/>
						<g>
							<g>
								<circle style="fill:#FBB03B;" cx="68.1" cy="55.45" r="1.037"/>
							</g>
							<g>
								<circle style="fill:#FBB03B;" cx="64.668" cy="55.94" r="1.037"/>
							</g>
							<g>
								<circle style="fill:#FBB03B;" cx="61.236" cy="56.431" r="1.037"/>
							</g>
							<g>
								<circle style="fill:#FBB03B;" cx="57.804" cy="57.411" r="1.037"/>
							</g>
							<g>
								<circle style="fill:#FBB03B;" cx="71.532" cy="55.94" r="1.037"/>
							</g>
							<g>
								<circle style="fill:#FBB03B;" cx="74.964" cy="56.431" r="1.037"/>
							</g>
							<g>
								<circle style="fill:#FBB03B;" cx="78.396" cy="57.411" r="1.037"/>
							</g>
						</g>
						<path style="fill:#6B3A15;" d="M92.637,52.613c-15.71,7.136-24.535,6.325-24.535,6.325s-8.825,0.811-24.535-6.325h-0.034
							c16.066,15.184,24.568,14.18,24.568,14.18s8.503,0.818,24.569-14.18H92.637z"/>
					</g>
					<g>
						<path d="M68.758,118.994c-4.303,0-7.878-0.652-8.14-2.713c-0.01,0.082-0.025,0.162-0.025,0.245
							c0,2.175,3.692,3.938,8.165,3.938c4.474,0,8.168-1.763,8.168-3.938c0-0.083-0.015-0.164-0.025-0.245
							C76.638,118.341,73.061,118.994,68.758,118.994z"/>
						<path style="fill:#754C24;" d="M69.466,120.852h-1.613c-0.643,0-1.166-0.451-1.166-1.005c0-0.556,0.523-1.008,1.166-1.008
							h1.613c0.643,0,1.166,0.452,1.166,1.008C70.631,120.401,70.109,120.852,69.466,120.852z M67.853,119.328
							c-0.373,0-0.677,0.232-0.677,0.518c0,0.285,0.304,0.516,0.677,0.516h1.613c0.373,0,0.676-0.231,0.676-0.516
							c0-0.286-0.303-0.518-0.676-0.518H67.853z"/>
					</g>
					<g>
						<path style="fill:#754C24;" d="M76.086,116.492c1.135-0.288,2.341,0.17,3.371,1.144c1.013,0.957,1.859,2.417,2.299,4.152
							c0.44,1.735,0.391,3.421-0.043,4.745c-0.442,1.347-1.283,2.324-2.419,2.612c-1.136,0.288-2.341-0.17-3.371-1.144
							c-1.013-0.957-1.859-2.417-2.299-4.151c-0.44-1.735-0.391-3.422,0.043-4.746C74.108,117.757,74.95,116.78,76.086,116.492
							L76.086,116.492z M79.25,117.855c-0.956-0.903-2.061-1.332-3.09-1.071c-1.029,0.261-1.797,1.164-2.207,2.414
							c-0.418,1.272-0.463,2.899-0.037,4.577c0.425,1.679,1.24,3.087,2.213,4.007c0.956,0.904,2.061,1.332,3.091,1.071
							c1.028-0.261,1.797-1.164,2.206-2.414c0.418-1.272,0.463-2.899,0.037-4.577C81.037,120.183,80.222,118.775,79.25,117.855
							L79.25,117.855z"/>
						<path style="fill:#754C24;" d="M76.653,116.95c1.101-0.4,2.346-0.065,3.468,0.8c1.103,0.851,2.092,2.218,2.703,3.9
							c0.611,1.681,0.733,3.364,0.433,4.725c-0.304,1.384-1.044,2.441-2.145,2.841c-1.101,0.401-2.346,0.066-3.469-0.8
							c-1.103-0.852-2.093-2.219-2.704-3.9c-0.611-1.682-0.732-3.365-0.433-4.726C74.813,118.408,75.551,117.35,76.653,116.95
							L76.653,116.95z M79.938,117.99c-1.042-0.803-2.184-1.118-3.182-0.756c-0.997,0.363-1.671,1.338-1.953,2.623
							c-0.288,1.307-0.17,2.93,0.422,4.557c0.591,1.627,1.543,2.947,2.603,3.764c1.042,0.803,2.185,1.119,3.183,0.756
							c0.997-0.363,1.671-1.339,1.953-2.623c0.288-1.308,0.17-2.93-0.422-4.557C81.95,120.126,80.998,118.807,79.938,117.99
							L79.938,117.99z"/>
						<path style="fill:#754C24;" d="M76.03,116.67c1.154-0.198,2.32,0.354,3.27,1.406c0.934,1.034,1.663,2.555,1.965,4.319
							c0.301,1.764,0.121,3.441-0.417,4.727c-0.546,1.308-1.461,2.216-2.617,2.414c-1.155,0.197-2.32-0.354-3.27-1.406
							c-0.935-1.034-1.663-2.556-1.965-4.319c-0.302-1.764-0.121-3.442,0.417-4.727C73.959,117.775,74.874,116.868,76.03,116.67
							L76.03,116.67z M79.077,118.278c-0.882-0.976-1.95-1.49-2.996-1.311c-1.046,0.179-1.883,1.019-2.39,2.233
							c-0.516,1.235-0.689,2.853-0.397,4.56c0.292,1.707,0.994,3.175,1.891,4.168c0.882,0.976,1.95,1.49,2.996,1.311
							c1.046-0.179,1.883-1.019,2.39-2.232c0.517-1.235,0.689-2.853,0.398-4.56C80.675,120.739,79.974,119.271,79.077,118.278
							L79.077,118.278z"/>
						<path style="fill:#754C24;" d="M77.488,116.573c0.979,0.064,1.82,0.741,2.39,1.783c0.559,1.024,0.856,2.406,0.758,3.902
							c-0.098,1.496-0.573,2.827-1.262,3.769c-0.7,0.959-1.623,1.52-2.602,1.456c-0.979-0.064-1.821-0.741-2.39-1.783
							c-0.56-1.024-0.857-2.406-0.758-3.902c0.098-1.495,0.573-2.827,1.262-3.769C75.586,117.069,76.509,116.509,77.488,116.573
							L77.488,116.573z M79.657,118.477c-0.528-0.967-1.298-1.594-2.185-1.652c-0.887-0.058-1.732,0.463-2.383,1.353
							c-0.661,0.906-1.117,2.19-1.213,3.637c-0.095,1.448,0.19,2.78,0.727,3.764c0.528,0.967,1.298,1.594,2.185,1.652
							c0.887,0.058,1.733-0.463,2.382-1.352c0.662-0.905,1.118-2.189,1.213-3.637C80.479,120.794,80.194,119.461,79.657,118.477
							L79.657,118.477z"/>
						<path style="fill:#754C24;" d="M76.654,116.525c1.184-0.275,2.344,0.29,3.263,1.424c0.902,1.116,1.574,2.789,1.8,4.752
							c0.226,1.963-0.036,3.852-0.643,5.318c-0.616,1.492-1.59,2.552-2.774,2.827c-1.185,0.275-2.345-0.29-3.263-1.425
							c-0.903-1.116-1.574-2.788-1.8-4.752c-0.226-1.963,0.036-3.852,0.642-5.318C74.495,117.86,75.469,116.8,76.654,116.525
							L76.654,116.525z M79.68,118.187c-0.852-1.053-1.916-1.58-2.989-1.331c-1.073,0.249-1.963,1.23-2.536,2.613
							c-0.582,1.409-0.833,3.23-0.615,5.13c0.218,1.9,0.864,3.513,1.731,4.585c0.852,1.053,1.916,1.58,2.989,1.331
							c1.073-0.249,1.963-1.23,2.535-2.613c0.583-1.408,0.833-3.231,0.615-5.13C81.193,120.872,80.547,119.259,79.68,118.187
							L79.68,118.187z"/>
					</g>
					<g>
						<path style="fill:#F7931E;" d="M59.923,116.782l2.558,0.871c0,0-1.075,13.734-3.135,13.67
							C57.286,131.258,59.923,116.782,59.923,116.782z"/>
						<polygon style="fill:#ED1C24;" points="59.555,118.969 62.276,119.845 62.21,120.464 59.464,119.551 						"/>
						<polygon style="fill:#603813;" points="59.923,116.782 62.481,117.653 62.437,118.176 59.836,117.274 						"/>
						<polygon style="fill:#ED1C24;" points="59.383,120.08 62.151,120.998 62.087,121.543 59.298,120.657 						"/>
						<path style="fill:#ED1C24;" d="M58.57,127.827c-0.058,2.001,0.122,3.475,0.776,3.496c0.627,0.02,1.162-1.241,1.604-3.001
							L58.57,127.827z"/>
						<path d="M60.438,116.958l1.532,0.521c0,0,0.3-2.645-0.071-3.166c-0.371-0.521-1.656-1.236-1.787-0.789
							C59.98,113.971,60.866,114.801,60.438,116.958z"/>
					</g>
					<path style="fill:#999999;" d="M59.129,96.708c0,0,0.084,0.701,0.211,1.752c0.12,1.05,0.25,2.455,0.378,3.86
						c0.113,1.405,0.223,2.811,0.283,3.868c0.054,1.057,0.089,1.761,0.089,1.761s-0.084-0.701-0.211-1.751
						c-0.12-1.051-0.25-2.456-0.378-3.86c-0.113-1.405-0.222-2.811-0.283-3.868C59.165,97.413,59.129,96.708,59.129,96.708z"/>
					<path style="fill:#999999;" d="M78.233,96.724c0,0-0.084,0.701-0.211,1.752c-0.12,1.05-0.25,2.455-0.378,3.86
						c-0.113,1.405-0.223,2.811-0.283,3.868c-0.054,1.057-0.089,1.761-0.089,1.761s0.084-0.701,0.211-1.751
						c0.12-1.051,0.25-2.456,0.378-3.86c0.113-1.405,0.222-2.811,0.283-3.868C78.197,97.428,78.233,96.724,78.233,96.724z"/>
				</g>
			</g>
		</g>
	</g>
</g>
</svg>
