<?xml version="1.0" encoding="utf-8"?>
<!-- Generator: Adobe Illustrator 21.0.0, SVG Export Plug-In . SVG Version: 6.00 Build 0)  -->
<svg version="1.1" id="Capa_1" xmlns="http://www.w3.org/2000/svg" xmlns:xlink="http://www.w3.org/1999/xlink" x="0px" y="0px"
	 viewBox="0 0 72.988 120.678" style="enable-background:new 0 0 72.988 120.678;" xml:space="preserve">
<g>
	<path style="opacity:0.2;" d="M36.45,120.678c-20.74,0-33.855-15.883-36.093-31.573C-2,72.568,7.877,55.999,13.184,47.097
		c1.26-2.113,2.434-4.061,3.528-5.877C25.234,27.073,28.424,21.78,30.53,9.023C31.009,6.126,33.514,4,36.45,4h0.001
		c2.937,0,5.441,2.126,5.919,5.023c2.065,12.521,5.421,18.073,13.527,31.485c1.22,2.018,2.537,4.198,3.962,6.587
		c7.856,13.178,14.838,27.387,12.757,42.009C70.447,104.312,58.205,120.678,36.45,120.678z"/>
	<path style="fill:#FFFFFF;" d="M36.45,116.678c-20.74,0-33.855-15.883-36.093-31.573C-2,68.567,7.877,51.999,13.184,43.097
		c1.26-2.113,2.434-4.061,3.528-5.877C25.234,23.073,28.424,17.779,30.53,5.022C31.009,2.125,33.514,0,36.45,0h0.001
		c2.937,0,5.441,2.126,5.919,5.023c2.065,12.521,5.421,18.073,13.527,31.485c1.22,2.018,2.537,4.198,3.962,6.587
		c7.856,13.178,14.838,27.387,12.757,42.009C70.447,100.312,58.205,116.678,36.45,116.678z"/>
	<path style="fill:#00A5F5;" d="M54.707,46.169C43.566,27.493,39.032,21.654,36.45,6c-2.585,15.654-6.972,21.493-18.113,40.169
		C12.542,55.891,4.326,70.43,6.298,84.259c1.972,13.832,13.315,26.42,30.152,26.42c17.23,0,28.254-12.588,30.226-26.42
		C68.644,70.43,60.502,55.891,54.707,46.169z M17.235,66.999c1.733,0,3.138,1.405,3.138,3.138c0,1.733-1.405,3.138-3.138,3.138
		c-1.733,0-3.138-1.405-3.138-3.138C14.097,68.404,15.502,66.999,17.235,66.999z M38.136,104.368
		c-14.219,0-25.788-11.569-25.788-25.791c0-1.683,1.366-3.051,3.051-3.051c1.685,0,3.052,1.368,3.052,3.051
		c0,10.858,8.83,19.687,19.685,19.687c1.685,0,3.052,1.365,3.052,3.052C41.188,103.003,39.821,104.368,38.136,104.368z"/>
</g>
</svg>
