<?xml version="1.0" encoding="utf-8"?>
<!-- Generator: Adobe Illustrator 21.0.0, SVG Export Plug-In . SVG Version: 6.00 Build 0)  -->
<svg version="1.1" id="Capa_1" xmlns="http://www.w3.org/2000/svg" xmlns:xlink="http://www.w3.org/1999/xlink" x="0px" y="0px"
	 viewBox="0 0 91.115 124.315" style="enable-background:new 0 0 91.115 124.315;" xml:space="preserve">
<g>
	<path style="opacity:0.2;" d="M0,124.315v-23.021h4.341V45.621C4.341,23.407,22.429,6,45.531,6s41.19,17.407,41.19,39.621v55.673
		h4.394v23.021H0z"/>
	<path style="fill:#FFFFFF;" d="M0,118.315V95.294h4.341V39.621C4.341,17.407,22.429,0,45.531,0s41.19,17.407,41.19,39.621v55.673
		h4.394v23.021H0z"/>
	<g>
		<path style="fill:#603813;" d="M45.532,4.59C25.317,4.59,8.93,19.409,8.93,39.623v60.262h73.204V39.623
			C82.134,19.409,65.746,4.59,45.532,4.59z M76.513,94.266H14.55V39.624c0-16.77,13.319-29.414,30.982-29.414
			s30.982,12.644,30.982,29.414V94.266z"/>
		<g>
			<path style="fill:#4FB1ED;" d="M14.55,94.266V39.624c0-16.77,13.319-29.414,30.982-29.414s30.982,12.644,30.982,29.414v54.642
				H14.55z"/>
		</g>
		<rect x="4.594" y="99.886" style="fill:#754C24;" width="81.932" height="13.842"/>
		<g>
			<path style="fill:#76CAF4;" d="M15.95,94.266h4.275l56.21-56.21c-0.066-1.311-0.202-2.596-0.428-3.847L15.95,94.266z"/>
			<polygon style="fill:#76CAF4;" points="76.513,51.322 76.513,42.629 24.876,94.266 33.569,94.266 			"/>
			<path style="fill:#76CAF4;" d="M14.55,54.919v3.399l45.072-45.072c-0.782-0.362-1.578-0.699-2.4-0.999L14.55,54.919z"/>
		</g>
		<rect x="42.722" y="7.514" style="fill:#603813;" width="5.62" height="89.447"/>
		
			<rect x="42.749" y="21.988" transform="matrix(2.977891e-11 -1 1 2.977891e-11 -10.8602 101.9789)" style="fill:#603813;" width="5.62" height="68.863"/>
	</g>
</g>
</svg>
