<?xml version="1.0" encoding="utf-8"?>
<!-- Generator: Adobe Illustrator 21.0.0, SVG Export Plug-In . SVG Version: 6.00 Build 0)  -->
<svg version="1.1" id="Capa_1" xmlns="http://www.w3.org/2000/svg" xmlns:xlink="http://www.w3.org/1999/xlink" x="0px" y="0px"
	 viewBox="0 0 555.7 420.2" style="enable-background:new 0 0 555.7 420.2;" xml:space="preserve">
<style type="text/css">
	.st0{opacity:0.5;}
	.st1{fill:#42210B;}
	.st2{opacity:0.5;fill:#CCCCCC;}
	.st3{fill:#FFFFFF;}
	.st4{opacity:0.5;fill:#FFFFFF;}
</style>
<g id="Marco-casa" class="st0">
	<path class="st1" d="M555.7,160.5L277.9,0l0,0l0,0L0,160.5h36.2l0,259.7h20.4h442.6h20.4l0-259.7H555.7z M499.1,402.9H56.6V289.2
		h442.6V402.9z M499.1,271.9H56.6V164.7h442.6V271.9z M56.6,148.8L277.8,20.9l221.3,127.9L56.6,148.8z"/>
	<g>
		<rect x="276.6" y="271.9" class="st1" width="20.4" height="148.3"/>
		<rect x="303" y="148.8" class="st1" width="20.4" height="140.4"/>
	</g>
</g>
<g id="Cocina">
	<rect x="297.1" y="289.2" class="st2" width="202.1" height="113.7"/>
	<g class="st0">
		<rect x="373.3" y="335.1" class="st3" width="49.5" height="35.2"/>
		<path class="st3" d="M375.4,333.3h45.4c0.4,0,0.7-0.3,0.7-0.7v-1.4c0-0.4-0.3-0.7-0.7-0.7h-45.4c-0.4,0-0.7,0.3-0.7,0.7v1.4
			C374.7,333,375,333.3,375.4,333.3z"/>
		<path class="st3" d="M422.7,308.9c0-0.1,0.1-0.1,0.1-0.1V308c0-0.4-0.4-0.8-0.8-0.8h-20.2c-0.4,0-0.8,0.4-0.8,0.8v0.7
			c0,0.1,0,0.1,0.1,0.1h-5.9c0-0.1,0.1-0.1,0.1-0.1V308c0-0.4-0.4-0.8-0.8-0.8h-20.2c-0.4,0-0.8,0.4-0.8,0.8v0.7
			c0,0.1,0,0.1,0.1,0.1H365v74.9h66.3v-74.9H422.7z M413.5,311.9c2,0,3.6,1.6,3.6,3.6c0,2-1.6,3.6-3.6,3.6c-2,0-3.6-1.6-3.6-3.6
			C409.9,313.6,411.5,311.9,413.5,311.9z M404.6,311.9c2,0,3.6,1.6,3.6,3.6c0,2-1.6,3.6-3.6,3.6c-2,0-3.6-1.6-3.6-3.6
			C401,313.6,402.6,311.9,404.6,311.9z M370.2,311.9h28v7.2h-28V311.9z M425.9,371c0,1.4-1.1,2.5-2.5,2.5h-50.5
			c-1.4,0-2.5-1.1-2.5-2.5v-40c0-1.4,1.1-2.5,2.5-2.5h50.5c1.4,0,2.5,1.1,2.5,2.5V371z M422.4,319.2c-2,0-3.6-1.6-3.6-3.6
			c0-2,1.6-3.6,3.6-3.6c2,0,3.6,1.6,3.6,3.6C426,317.6,424.4,319.2,422.4,319.2z"/>
	</g>
</g>
<g id="Sala">
	<rect x="56.6" y="289.2" class="st2" width="220.1" height="113.7"/>
	<path class="st4" d="M217,338.5c-2.7,0-4.9,0.5-4.9,3.2v-11.5v-0.1V330c0-3.8-3.1-6.8-6.8-6.8h-32v24.5c0.6-0.8,1.6-1.3,2.7-1.3
		h32.4c1.9,0,3.4,1.5,3.4,3.4v1.3c0-1.9-1.5-3.4-3.4-3.4h-32.4c-1.9,0-3.4,1.5-3.4,3.4c0-1.9-1.5-3.4-3.4-3.4h-32.4
		c-1.9,0-3.4,1.5-3.4,3.4v-1.3c0-1.9,1.5-3.4,3.4-3.4h32.4c1.1,0,2,0.5,2.7,1.3v-24.5h-31.7c-3.8,0-6.8,3.1-6.8,6.8v0.1v0.1v11.5
		c0-2.7-2.2-3.2-4.9-3.2c-2.7,0-4.9,0.5-4.9,3.2v25.6h7.9l0.7,6.9h2.6l0.7-6.9h74.9l0.7,6.9h2.6l0.7-6.9h7.9v-25.6
		C221.9,339,219.7,338.5,217,338.5z M192.1,336.6c-0.7,0-1.3-0.6-1.3-1.3c0-0.7,0.6-1.3,1.3-1.3c0.7,0,1.3,0.6,1.3,1.3
		C193.4,336,192.8,336.6,192.1,336.6z M152.9,334.1c0.7,0,1.3,0.6,1.3,1.3c0,0.7-0.6,1.3-1.3,1.3c-0.7,0-1.3-0.6-1.3-1.3
		C151.6,334.6,152.2,334.1,152.9,334.1z M212.1,356.6h-0.4v-1.3h0.4V356.6z"/>
</g>
<g id="Bano">
	<rect x="323.4" y="164.7" class="st2" width="175.7" height="107.2"/>
	<g class="st0">
		<g>
			<path class="st3" d="M386.6,222.7c-0.6,0-1-0.4-1-0.9v36.6h26.3l2.9-15.3c10.1-2.2,17.5-9.9,17.5-19.1c0-0.4,0-0.8-0.1-1.3H386.6
				z"/>
			<path class="st3" d="M436.9,219.9c0,0.5-0.5,0.9-1,0.9h-49.3c-0.6,0-1-0.4-1-0.9V216c0-0.5,0.5-0.9,1-0.9h49.3c0.6,0,1,0.4,1,0.9
				V219.9z"/>
			<path class="st3" d="M436.9,212c0-0.7-0.5-1.2-1.2-1.2h-49c-0.7,0-1.2,0.5-1.2,1.2l0,0c0,0.7,0.5,1.2,1.2,1.2h49
				C436.3,213.2,436.9,212.7,436.9,212L436.9,212z"/>
			<path class="st3" d="M401.3,211.6c0,0.9-0.6,1.6-1.4,1.6H387c-0.8,0-1.4-0.7-1.4-1.6v-31.9c0-0.9,0.6-1.6,1.4-1.6H400
				c0.8,0,1.4,0.7,1.4,1.6L401.3,211.6z"/>
		</g>
	</g>
</g>
<g id="Habitacion">
	<rect x="56.6" y="164.7" class="st2" width="246.4" height="107.2"/>
	<g class="st0">
		<path class="st3" d="M222.4,223.7v-2.9v-7.4c0-1.6-1.3-2.9-3-2.9h-79.3c-1.6,0-3,1.3-3,2.9v7.4v2.9h-6.6v4.7h4v13.4h4.7l2.9-13.4
			h75.1l2.9,13.4h4.7v-13.4h4v-4.7H222.4z"/>
		<path class="st3" d="M151.4,207.6l1.7-5.6c0.2-0.6,0.9-1.2,1.6-1.2h17.7c0.7,0,1.4,0.5,1.6,1.2l1.7,5.6c0.2,0.6-0.2,1.2-0.9,1.2
			h9.8c-0.7,0-1.1-0.5-0.9-1.2l1.7-5.6c0.2-0.6,0.9-1.2,1.6-1.2h17.7c0.7,0,1.4,0.5,1.6,1.2l1.7,5.6c0.2,0.6-0.2,1.2-0.9,1.2h13.5
			v-11.5c0-1.6-1.3-2.8-2.9-2.8h-76.3c-1.6,0-2.9,1.3-2.9,2.8v11.5h13.5C151.6,208.8,151.2,208.2,151.4,207.6z"/>
	</g>
</g>
</svg>
