<?xml version="1.0" encoding="utf-8"?>
<!-- Generator: Adobe Illustrator 21.0.0, SVG Export Plug-In . SVG Version: 6.00 Build 0)  -->
<svg version="1.1" id="Capa_1" xmlns="http://www.w3.org/2000/svg" xmlns:xlink="http://www.w3.org/1999/xlink" x="0px" y="0px"
	 viewBox="0 0 260.9 148.3" style="enable-background:new 0 0 260.9 148.3;" xml:space="preserve">
<style type="text/css">
	.st0{fill:#CCCCCC;}
	.st1{fill:#42210B;}
	.st2{fill:#603813;}
	.st3{fill:#754C24;}
	.st4{fill:#F7931E;}
	.st5{fill:#4DA159;}
	.st6{fill:#844538;}
	.st7{opacity:0.1;fill:#231F20;}
	.st8{fill:#FFCB94;}
	.st9{fill:#D4905D;}
	.st10{fill:#EF9020;}
	.st11{fill:#D37416;}
	.st12{fill:#FDA52D;}
	.st13{fill:#FFBC6C;}
	.st14{fill:#29ABE2;}
	.st15{fill:#B0A08D;}
	.st16{fill:#CC6D0E;}
	.st17{fill:#E9EDE4;}
	.st18{fill:#008600;}
	.st19{fill:#C5D800;}
	.st20{fill:#7FB905;}
	.st21{fill:#006A00;}
</style>
<g>
	<g>
		<g>
			<path class="st0" d="M20.4,17.3V131h220.1V17.3H20.4z M155.6,72.8h-48.5V24.3h48.5V72.8z"/>
			<path class="st1" d="M260.9,0H0l0,148.3h260.9V0z M240.5,131H20.4V17.3h220.1V131z"/>
		</g>
		<g>
			<g>
				<g>
					<g>
						
							<rect x="206.3" y="103.7" transform="matrix(-1 -4.498103e-11 4.498103e-11 -1 441.3362 210.6657)" class="st2" width="28.7" height="3.3"/>
						
							<rect x="210.1" y="107" transform="matrix(-1 -4.486912e-11 4.486912e-11 -1 441.3362 221.5949)" class="st3" width="21.2" height="7.6"/>
						
							<rect x="231.3" y="107" transform="matrix(-1 -4.371049e-11 4.371049e-11 -1 464.8274 238.0188)" class="st1" width="2.3" height="24"/>
						
							<rect x="207.8" y="107" transform="matrix(-1 -4.371049e-11 4.371049e-11 -1 417.845 238.0188)" class="st1" width="2.3" height="24"/>
						<circle class="st4" cx="220.7" cy="110.8" r="1.1"/>
					</g>
					<g id="Plant_3_">
						<g id="Plant_4_">
							<g>
								<g>
									<g>
										<g>
											<path class="st5" d="M220.7,87.9l1.6-1.6c-1.1-1.2-0.5-3.7,1.3-5.5c1.9-1.9,4.9-2,5.6-1.3c0.7,0.7,0.6,3.7-1.3,5.6
												c-1.8,1.8-4.3,2.4-5.5,1.4l-1.8,1.9V87.9z"/>
										</g>
										<g>
											<path class="st5" d="M220.7,87.9l-1.6-1.6c1.1-1.2,0.5-3.7-1.3-5.5c-1.9-1.9-4.9-2-5.6-1.3c-0.7,0.7-0.6,3.7,1.3,5.6
												c1.8,1.8,4.3,2.4,5.5,1.4l1.8,1.9V87.9z"/>
										</g>
									</g>
									<path class="st6" d="M220.3,81.8C220.3,81.8,220.3,81.7,220.3,81.8c0-0.2,0.1-0.4,0.3-0.4s0.3,0.1,0.3,0.3l0.2,10.9h-1
										L220.3,81.8z"/>
								</g>
								<g>
									<path class="st7" d="M222.3,86.3c-1.1-1.2-0.5-3.7,1.3-5.5c1.9-1.9,4.9-2,5.6-1.3L222.3,86.3L222.3,86.3z"/>
									<path class="st7" d="M212.1,79.5l6.9,6.9l-0.1,0.1c-1.2,1.1-3.7,0.5-5.5-1.4C211.5,83.2,211.4,80.2,212.1,79.5z"/>
								</g>
							</g>
							<g>
								<polygon class="st8" points="216.5,103.7 224.8,103.7 225.6,94.4 215.8,94.4 								"/>
								<rect x="215" y="91.8" class="st9" width="11.4" height="2.6"/>
							</g>
						</g>
					</g>
				</g>
			</g>
			<g id="Sofa_2_">
				<g>
					<g>
						<path class="st10" d="M157.9,91.3h-52c-3,0-5.4,2.4-5.4,5.4v0.1v0.1V117h62.9V96.9v-0.1v-0.1C163.4,93.7,161,91.3,157.9,91.3z
							"/>
					</g>
					<g>
						<rect x="131.5" y="91.3" class="st11" width="0.5" height="21.2"/>
					</g>
				</g>
				<g>
					<path class="st12" d="M131.8,119.7c0,1.5-1.2,2.7-2.7,2.7h-25.9c-1.5,0-2.7-1.2-2.7-2.7v-7.2c0-1.5,1.2-2.7,2.7-2.7h25.9
						c1.5,0,2.7,1.2,2.7,2.7V119.7z"/>
					<path class="st12" d="M163.1,119.7c0,1.5-1.2,2.7-2.7,2.7h-25.9c-1.5,0-2.7-1.2-2.7-2.7v-7.2c0-1.5,1.2-2.7,2.7-2.7h25.9
						c1.5,0,2.7,1.2,2.7,2.7V119.7z"/>
				</g>
				<path d="M167.3,102.5c-2.2,0-3.9,0.4-3.9,2.6V117h-62.9v-11.9c0-2.2-1.8-2.6-3.9-2.6c-2.2,0-3.9,0.4-3.9,2.6v20.4h7.8h62.9h7.8
					v-20.4C171.2,102.9,169.5,102.5,167.3,102.5z"/>
				<g>
					<circle class="st13" cx="116.1" cy="102" r="1"/>
					<circle class="st13" cx="147.4" cy="102" r="1"/>
				</g>
				<g>
					<g>
						<polygon class="st2" points="101.5,131 99.5,131 98.9,125.5 102,125.5 						"/>
					</g>
					<g>
						<polygon class="st2" points="164.4,131 162.4,131 161.8,125.5 165,125.5 						"/>
					</g>
				</g>
			</g>
			<g>
				<g id="TV-Sala">
					<g>
						<path d="M77.2,81.3H35.4c-0.8,0-1.4,0.6-1.4,1.4V110c0,0.8,0.6,1.4,1.4,1.4h4.2v0.9H73v-0.9h4.2c0.8,0,1.4-0.6,1.4-1.4V82.8
							C78.6,82,78,81.3,77.2,81.3z"/>
						<rect x="39.6" y="83.5" class="st14" width="33.4" height="25.8"/>
					</g>
				</g>
				<g>
					<rect x="30.2" y="112.4" class="st2" width="52.2" height="18.7"/>
					<rect x="32.6" y="114.9" class="st15" width="47.5" height="13.6"/>
					<path class="st10" d="M60.7,121.8c0,0.6-0.5,1-1,1h-5.6c-0.6,0-1-0.5-1-1l0,0c0-0.6,0.5-1,1-1h5.6
						C60.2,120.7,60.7,121.2,60.7,121.8L60.7,121.8z"/>
				</g>
			</g>
			<g>
				<g>
					<rect x="33.6" y="33.2" class="st16" width="46.6" height="31.5"/>
					<rect x="33.6" y="32.5" class="st4" width="46.6" height="31.5"/>
					<rect x="36.2" y="34.5" class="st16" width="41.5" height="27.4"/>
					<rect x="37.5" y="35.7" class="st17" width="39" height="25.1"/>
				</g>
				<g>
					<path class="st18" d="M61.2,38.2c-2.4,0-4.3,4.5-4.3,10h8.6C65.5,42.7,63.6,38.2,61.2,38.2z"/>
					<path class="st19" d="M44.1,38.2c-2.4,0-4.3,4.5-4.3,10h8.6C48.4,42.7,46.5,38.2,44.1,38.2z"/>
				</g>
				<g>
					<path class="st20" d="M52.7,58.2c2.4,0,4.3-4.5,4.3-10h-8.6C48.4,53.7,50.3,58.2,52.7,58.2z"/>
					<path class="st21" d="M69.8,58.2c2.4,0,4.3-4.5,4.3-10h-8.6C65.5,53.7,67.5,58.2,69.8,58.2z"/>
				</g>
			</g>
		</g>
	</g>
</g>
</svg>
