<?xml version="1.0" encoding="utf-8"?>
<!-- Generator: Adobe Illustrator 21.0.0, SVG Export Plug-In . SVG Version: 6.00 Build 0)  -->
<svg version="1.1" id="Capa_1" xmlns="http://www.w3.org/2000/svg" xmlns:xlink="http://www.w3.org/1999/xlink" x="0px" y="0px"
	 viewBox="0 0 250.4 258.4" style="enable-background:new 0 0 250.4 258.4;" xml:space="preserve">
<style type="text/css">
	.st0{opacity:0.2;fill-rule:evenodd;clip-rule:evenodd;}
	.st1{fill-rule:evenodd;clip-rule:evenodd;fill:#FFFFFF;}
	.st2{fill-rule:evenodd;clip-rule:evenodd;fill:#2C6BBB;}
	.st3{fill:#333333;}
	.st4{fill:#999999;}
	.st5{fill:#4FB1ED;}
	.st6{fill:#FFFFFF;}
	.st7{fill:#666666;}
</style>
<g>
	<path class="st0" d="M125.2,258.4c-16.4,0-71.8-2-97.4-27.1C1.9,205.7,0,149.9,0,133.4C0,116.9,2.1,61,28,35.6
		C45.6,18.3,81.9,8,125.2,8c43.3,0,79.6,10.3,97.2,27.6c25.9,25.5,28,81.3,28,97.8c0,16.5-1.9,72.3-27.8,97.9
		C197,256.4,141.6,258.4,125.2,258.4z"/>
	<path class="st1" d="M125.2,250.4c-16.4,0-71.8-2-97.4-27.1C1.9,197.7,0,141.9,0,125.4C0,108.9,2.1,53,28,27.6
		C45.6,10.3,81.9,0,125.2,0c43.3,0,79.6,10.3,97.2,27.6c25.9,25.5,28,81.3,28,97.8c0,16.5-1.9,72.3-27.8,97.9
		C197,248.4,141.6,250.4,125.2,250.4z"/>
	<path class="st2" d="M37.1,36.9C5,68.4,4.9,182.4,36.9,214c31.6,31.2,144.9,31.2,176.5,0c32-31.6,31.9-145.6-0.2-177.1
		C180.9,5,69.4,5,37.1,36.9z"/>
	<g>
		<g>
			<path class="st3" d="M119.6,54.5c0,0.8-0.7,1.5-1.5,1.5H79.3c-0.8,0-1.5-0.7-1.5-1.5v-1.4c0-0.8,0.7-1.5,1.5-1.5h38.8
				c0.8,0,1.5,0.7,1.5,1.5V54.5z"/>
			<path class="st3" d="M172.6,54.5c0,0.8-0.7,1.5-1.5,1.5h-38.8c-0.8,0-1.5-0.7-1.5-1.5v-1.4c0-0.8,0.7-1.5,1.5-1.5h38.8
				c0.8,0,1.5,0.7,1.5,1.5V54.5z"/>
		</g>
		<rect x="61.5" y="54.8" class="st4" width="127.5" height="144"/>
		<path class="st3" d="M178.6,174.2c0,2.7-2.2,4.9-4.9,4.9H76.6c-2.7,0-4.9-2.2-4.9-4.9v-77c0-2.7,2.2-4.9,4.9-4.9h97.2
			c2.7,0,4.9,2.2,4.9,4.9V174.2z"/>
		<g>
			<rect x="77.6" y="105.3" class="st5" width="95.2" height="67.7"/>
		</g>
		<path class="st6" d="M170.2,100.4c0,0.8-0.6,1.4-1.4,1.4H81.5c-0.8,0-1.4-0.6-1.4-1.4v-2.7c0-0.8,0.6-1.4,1.4-1.4h87.3
			c0.8,0,1.4,0.6,1.4,1.4V100.4z"/>
		<g>
			<path class="st3" d="M164.9,67.7c0,3.9,3.1,7,7,7c3.8,0,7-3.1,7-7c0-3.8-3.1-7-7-7C168,60.7,164.9,63.8,164.9,67.7z"/>
			<path class="st3" d="M147.8,67.7c0,3.9,3.1,7,7,7c3.9,0,7-3.1,7-7c0-3.8-3.1-7-7-7C150.9,60.7,147.8,63.8,147.8,67.7z"/>
			<path class="st3" d="M130.7,67.7c0,3.9,3.1,7,7,7c3.8,0,7-3.1,7-7c0-3.8-3.1-7-7-7C133.9,60.7,130.7,63.8,130.7,67.7z"/>
			<rect x="71.5" y="60.7" class="st7" width="53.8" height="13.9"/>
		</g>
	</g>
</g>
</svg>
