<?xml version="1.0" encoding="utf-8"?>
<!-- Generator: Adobe Illustrator 21.0.0, SVG Export Plug-In . SVG Version: 6.00 Build 0)  -->
<svg version="1.1" id="Capa_1" xmlns="http://www.w3.org/2000/svg" xmlns:xlink="http://www.w3.org/1999/xlink" x="0px" y="0px"
	 viewBox="0 0 200 84" style="enable-background:new 0 0 200 84;" xml:space="preserve">
<style type="text/css">
	.st0{opacity:0.2;fill-rule:evenodd;clip-rule:evenodd;}
	.st1{fill-rule:evenodd;clip-rule:evenodd;fill:#FFFFFF;}
	.st2{fill-rule:evenodd;clip-rule:evenodd;fill:#E6E6E6;}
	.st3{fill:#FFFFFF;}
</style>
<g>
	<g>
		<path class="st0" d="M6.3,31.3c-8.3,8.3-8.3,38.3,0,46.6c8.2,8.2,179.4,8.2,187.6,0c8.3-8.3,8.3-38.3,0-46.6
			C185.3,22.9,14.7,22.9,6.3,31.3z"/>
		<path class="st1" d="M6.3,28.9c-8.3,8.3-8.3,38.3,0,46.6c8.2,8.2,179.4,8.2,187.6,0c8.3-8.3,8.3-38.3,0-46.6
			C185.3,20.6,14.7,20.6,6.3,28.9z"/>
		<path class="st2" d="M6.2,74.2c-4.1-4-6.1-13.3-6.2-22.6c-0.1,9.8,2,19.6,6.2,23.9c8.2,8.2,179.3,8.2,187.6,0
			c4.2-4.2,6.3-14.1,6.2-23.9c-0.1,9.3-2.2,18.5-6.2,22.6C185.6,82.4,14.4,82.4,6.2,74.2z"/>
	</g>
	<g>
		<g>
			<g>
				<path class="st3" d="M95.6,3.4c-1.6-0.3-3-0.5-4.2-0.5c-1.9,0-3.4,0.4-4.4,1.2c-0.5,0.4-0.9,0.8-1.2,1.1c-1.3-2.4-3.4-3-5.1-3
					l-0.3,0l-0.1,0c-1.9,0.3-3.4,1.1-4.4,2.3l-0.1-1.2l-1.3,0c-0.1,0-0.2,0-0.3,0c-1,0-2,0.2-2.9,0.5l0-0.2l-6.6,0.5l0,0.2
					c-1-0.7-2.3-1-4-1c-2.1,0-3.8,1-5,2.8l-0.4-5.7h-5.7l0.1,3.9c-1-0.6-2.3-1-3.9-1c-2.1,0-3.8,1-5.1,2.8c-1.1-3.1-3-4-4.6-4.3
					c-0.4-0.1-0.8-0.1-1.3-0.1c-2.2,0-3.9,0.8-5.2,2.3c-1.1,1.4-1.7,3.1-1.7,5.2c0,0.4,0,0.8,0.1,1.3c0.2,1.7,0.4,2.9,0.7,3.7
					c0.6,1.6,1.5,2.7,2.9,3.4c0.5,0.2,1.4,0.5,4.1,0.6l0.2,0c1.6,0,3-0.8,4-2.5c0.2,0.3,0.4,0.6,0.7,0.9c1.1,1.2,2.8,1.8,5.1,1.9
					l0.3,0c1.7,0,3.1-0.4,4.2-1.3l0,0.7l6.1-0.7c1.1,0.7,2.5,1.2,4.3,1.2l0.3,0c1.7,0,3.1-0.4,4.2-1.3l0,1l6.5-0.2l-0.1-1.6
					c-0.1-1.4-0.2-2.5-0.2-3.5c0-2.6,0.4-3.2,0.4-3.2c0.4-0.4,1.3-0.7,2.5-0.7c0,0.1,0,0.1,0,0.2c0,0.3,0,0.6,0,0.9
					c0,3.4,1.1,5.8,3.4,7.1l0.1,0.1l0.1,0c1.1,0.4,2.1,0.6,3.1,0.6c1.1,0,2.3-0.3,3.4-1.1l0.7,0.2c2.5,0.9,4.5,1.3,6.1,1.3
					c1.4,0,2.5-0.4,3.4-1c1.7-1.4,2.5-3,2.4-4.8c0-1.2-0.5-2.3-1.4-3c-0.1-0.1-0.2-0.1-0.3-0.2l1.9-5.8L95.6,3.4z M35.4,11.4
					c-0.2,0.4-0.3,0.5-0.4,0.6c0,0-0.1,0-0.1-0.1c-0.4-0.2-0.8-0.7-0.8-1.7c0-0.1,0-0.2,0-0.4c0.1-1.1,0.4-1.1,0.7-1.2l0.1,0
					c0.2,0,0.4,0,0.4,0.7l0.2,1.4l0.1,0L35.4,11.4z M39.2,10.5c0,0.1,0,0.2,0,0.3l-1.6-0.1L39.2,10.5z M46.5,12.3
					c-0.2,0.2-0.4,0.5-0.6,0.5c0,0-0.1-0.1-0.3-0.4c-0.3-0.4-0.4-0.8-0.4-1.1c0-0.4,0.1-0.8,0.4-1.2c0.2-0.3,0.3-0.4,0.4-0.5
					c0.1,0,0.2,0.1,0.4,0.3c0.4,0.5,0.6,0.9,0.6,1.3C47,11.5,46.8,11.9,46.5,12.3z M61.4,12.3c-0.2,0.2-0.4,0.5-0.6,0.5
					c0,0-0.1-0.1-0.3-0.4C60.2,12,60,11.6,60,11.3c0-0.4,0.1-0.8,0.4-1.2c0.2-0.3,0.3-0.4,0.4-0.5c0.1,0,0.2,0.1,0.4,0.3
					c0.4,0.5,0.6,0.9,0.6,1.3C61.9,11.5,61.7,11.9,61.4,12.3z"/>
				<path class="st3" d="M170,9.5l1.9-5.8l-1.7-0.3c-1.6-0.3-3-0.5-4.2-0.5c-1.9,0-3.4,0.4-4.4,1.2c-0.5,0.4-0.9,0.8-1.2,1.1
					c-1.3-2.4-3.4-3-5.1-3l-0.3,0l-0.1,0c-2.3,0.4-4,1.5-5,3.2c-1.1-2.1-3.9-3.7-8.4-5l-2-0.5l0.1,3.4c-1.1-0.8-2.4-1.1-3.5-1.1
					l-0.3,0l-0.1,0c-1.9,0.3-3.4,1.1-4.4,2.3l-0.1-1.2l-1.3,0c-0.1,0-0.2,0-0.3,0c-1,0-2,0.2-2.9,0.5l0-0.2l-6.5,0.5
					c-1.1-0.9-2.4-1.4-4.1-1.4c-0.6,0-1.2,0.1-1.9,0.2c-1.1,0.2-2,0.9-2.8,1.8c-0.9-1.5-2.6-3.1-6.1-3.1c-0.9,0-2,0.1-3.1,0.3
					l-1.2,0.2l-0.3,16.3l6,0.2l0.2-6c2-0.7,3.5-1.6,4.4-2.7l0.1,0c-0.4,0.6-0.7,1.4-0.7,2.6c0,0.1,0,0.4,0,0.7
					c0.2,2.3,2.2,3.7,6,4.1l0,0.7l3.9-0.2l0,0.4l6.5-0.2l-0.1-1.6c-0.1-1.4-0.2-2.5-0.2-3.5c0-2.6,0.4-3.2,0.4-3.2
					c0.4-0.4,1.3-0.7,2.5-0.7c0,0.1,0,0.1,0,0.2c0,0.3,0,0.6,0,0.9c0,3.4,1.1,5.8,3.4,7.1l0.1,0.1l0.1,0c1.1,0.4,2.1,0.6,3.1,0.6
					c1.2,0,2.5-0.3,3.7-1.3l0.1,2.1l2-0.9c4.4-1.9,6.3-3.3,7.1-4.3c0.5,1.6,1.5,2.9,2.9,3.7l0.1,0.1l0.1,0c1.1,0.4,2.1,0.6,3.1,0.6
					c1.1,0,2.3-0.3,3.4-1.1l0.7,0.2c2.5,0.9,4.5,1.3,6.1,1.3c1.4,0,2.5-0.4,3.4-1c1.7-1.4,2.5-3,2.4-4.8c0-1.2-0.5-2.3-1.4-3
					C170.2,9.7,170.1,9.6,170,9.5z"/>
			</g>
			<path d="M36.9,9.2c-0.2-1.4-0.9-2.1-2.2-2s-1.9,0.9-2.1,2.5c0,0.2,0,0.4,0,0.5c0,1.3,0.5,2.3,1.5,3c0.4,0.2,0.7,0.4,1,0.4
				c0.6,0,1.2-0.5,1.7-1.5l3.3,0.2c-1,3.1-2.4,4.6-4.1,4.5s-3-0.2-3.5-0.5c-1-0.5-1.7-1.3-2.1-2.5c-0.3-0.7-0.5-1.8-0.6-3.4
				c0-0.4-0.1-0.8-0.1-1.2c0-1.8,0.4-3.2,1.3-4.3c1-1.2,2.3-1.8,4-1.8c0.4,0,0.7,0,1.1,0.1c2.1,0.3,3.4,2.1,3.9,5.6L36.9,9.2z"/>
			<path d="M40.6,11.7c0.1-1.8,0.5-3.3,1.3-4.6c1-1.5,2.3-2.3,3.9-2.3c1.7,0,3,0.4,3.8,1.3c0.6,0.7,1.1,2,1.5,3.8
				c0.1,0.7,0.2,1.4,0.2,2c0,1.4-0.3,2.5-1,3.4c-1,1.3-2.5,2-4.5,1.9c-1.8-0.1-3.2-0.5-4.1-1.4S40.5,13.5,40.6,11.7z M47.5,8.9
				C47,8.4,46.4,8.1,46,8.1c-0.6,0-1.1,0.4-1.6,1.2c-0.4,0.7-0.7,1.4-0.7,2c0,0.6,0.2,1.3,0.6,1.9c0.5,0.7,1,1.1,1.6,1.1
				c0.7,0,1.3-0.4,1.9-1.1c0.5-0.7,0.8-1.4,0.8-2.1C48.5,10.4,48.2,9.7,47.5,8.9z"/>
			<path d="M53.9,1.9l1,14.2l-3.2,0.4L51.2,1.9H53.9z"/>
			<path d="M55.5,11.7c0.1-1.8,0.5-3.3,1.3-4.6c1-1.5,2.3-2.3,3.9-2.3c1.7,0,3,0.4,3.8,1.3c0.6,0.7,1.1,2,1.5,3.8
				c0.1,0.7,0.2,1.4,0.2,2c0,1.4-0.3,2.5-1,3.4c-1,1.3-2.5,2-4.5,1.9c-1.8-0.1-3.2-0.5-4.1-1.4S55.4,13.5,55.5,11.7z M62.4,8.9
				c-0.5-0.5-1.1-0.8-1.5-0.8c-0.6,0-1.1,0.4-1.6,1.2c-0.4,0.7-0.7,1.4-0.7,2c0,0.6,0.2,1.3,0.6,1.9c0.5,0.7,1,1.1,1.6,1.1
				c0.7,0,1.3-0.4,1.9-1.1c0.5-0.7,0.8-1.4,0.8-2.1C63.4,10.4,63,9.7,62.4,8.9z"/>
			<path d="M66.7,16.9c0-4.8-0.1-8.5-0.4-11.4l3.3-0.3l-0.1,1.1c1.6-1,3.3-1.5,4.9-1.4l0.3,2.8c-1.9,0-3.3,0.4-4.1,1.2
				c-0.5,0.6-0.8,2-0.8,4.2c0,1,0.1,2.2,0.2,3.6L66.7,16.9z"/>
			<path d="M78.2,11.7c0.4,1.2,1.1,1.8,2.2,1.9c1.1,0.1,1.8-0.5,2.2-1.7l3.3-0.5c-0.8,3.4-2.5,5.1-5,5.1c-0.8,0-1.6-0.2-2.6-0.5
				c-1.8-1-2.6-2.9-2.6-5.8c0-0.2,0-0.5,0-0.8c0.2-3.3,1.8-5.2,4.8-5.7c2.9-0.1,4.5,1.9,5,6L78.2,11.7z M79.1,7.6
				c-0.4,0.5-0.7,1.1-0.7,1.9l4.4-1.3c-0.5-0.9-1.1-1.4-1.9-1.4S79.6,7.1,79.1,7.6z"/>
			<path d="M85.6,15.8l1.4-3.1c1.8,1.1,3.1,1.7,4.1,1.7c0.3,0,0.7-0.1,1-0.3c0.4-0.2,0.5-0.5,0.5-0.8c0-0.5-0.7-0.9-2-1.2
				c-1.9-0.5-3.2-1.5-3.8-3c-0.2-0.5-0.3-1-0.3-1.4c0-0.9,0.5-1.7,1.4-2.4c0.8-0.6,2-0.9,3.5-0.9c1.1,0,2.4,0.1,3.9,0.4l-1,3
				c-1.1-0.5-2.1-0.8-2.8-0.8c-0.3,0-0.7,0.1-1,0.2C90.2,7.5,90,7.8,90,8.1c0,0.3,0.3,0.6,0.8,0.9c0.3,0.2,1,0.5,2,0.9
				c0.8,0.3,1.5,0.7,1.8,1c0.5,0.5,0.8,1.1,0.9,1.9c0.1,1.3-0.6,2.5-1.9,3.6c-0.5,0.5-1.3,0.7-2.4,0.7
				C89.8,17.1,87.9,16.7,85.6,15.8z"/>
			<path d="M105.5,3.2c2.6,0,4.3,0.9,5.1,2.8c0.2,0.5,0.3,1,0.3,1.4c0,1.8-1.8,3.3-5.3,4.3l-0.2,5.5l-3-0.1l0.3-13.7
				C103.7,3.3,104.6,3.2,105.5,3.2z M107.8,7.1c0-0.5-0.7-0.8-2-1.1l-0.1,2.6C107.2,8.1,107.9,7.6,107.8,7.1z"/>
			<path d="M114.7,4.4c0.5-0.1,1-0.2,1.5-0.2c2.4,0,4,1.3,4.7,3.8c0.4,1.3,0.5,2.8,0.5,4.5l-0.1,4l-3,0.2l0-0.6
				c-3.8-0.1-5.8-1.1-6-2.8c0-0.3,0-0.4,0-0.6c0-1.4,0.6-2.3,1.7-2.7c0.6-0.2,1.1-0.3,1.7-0.3c0.8,0,1.5,0.2,2.3,0.5
				c0-1.3,0-2.1,0-2.1c-0.2-0.5-0.7-0.8-1.6-0.9c-0.8-0.1-1.5,0.6-2.2,1.9l-3-0.5C112,6.1,113.2,4.7,114.7,4.4z M116.7,11.9
				c-0.8,0-1.3,0.2-1.3,0.6c-0.1,0.6,0.9,1.1,2.8,1.5l-0.1-2C117.5,12,117.1,11.9,116.7,11.9z"/>
			<path d="M122.3,16.9c0-4.8-0.1-8.5-0.4-11.4l3.3-0.3l-0.1,1.1c1.6-1,3.3-1.5,4.9-1.4l0.3,2.8c-1.9,0-3.3,0.4-4.1,1.2
				c-0.5,0.6-0.8,2-0.8,4.2c0,1,0.1,2.2,0.2,3.6L122.3,16.9z"/>
			<path d="M133.8,11.7c0.4,1.2,1.1,1.8,2.2,1.9c1.1,0.1,1.8-0.5,2.2-1.7l3.3-0.5c-0.8,3.4-2.5,5.1-5,5.1c-0.8,0-1.6-0.2-2.6-0.5
				c-1.8-1-2.6-2.9-2.6-5.8c0-0.2,0-0.5,0-0.8c0.2-3.3,1.8-5.2,4.8-5.7c2.9-0.1,4.5,1.9,5,6L133.8,11.7z M134.7,7.6
				c-0.4,0.5-0.7,1.1-0.7,1.9l4.4-1.3c-0.5-0.9-1.1-1.4-1.9-1.4S135.1,7.1,134.7,7.6z"/>
			<path d="M141.7,16.6L141.2,2c4.8,1.3,7.5,3,7.9,5.2c0.1,0.8,0.2,1.5,0.2,2.2c0,1.1-0.2,2.1-0.6,2.9
				C148,13.4,145.7,14.9,141.7,16.6z M144.3,6.7l0.1,4.5c1.3-0.4,1.9-1.1,2-2.1S145.8,7.3,144.3,6.7z"/>
			<path d="M152.9,11.7c0.4,1.2,1.1,1.8,2.2,1.9c1.1,0.1,1.8-0.5,2.2-1.7l3.3-0.5c-0.8,3.4-2.5,5.1-5,5.1c-0.8,0-1.6-0.2-2.6-0.5
				c-1.8-1-2.6-2.9-2.6-5.8c0-0.2,0-0.5,0-0.8c0.2-3.3,1.8-5.2,4.8-5.7c2.9-0.1,4.5,1.9,5,6L152.9,11.7z M153.8,7.6
				c-0.4,0.5-0.7,1.1-0.7,1.9l4.4-1.3c-0.5-0.9-1.1-1.4-1.9-1.4S154.3,7.1,153.8,7.6z"/>
			<path d="M160.3,15.8l1.4-3.1c1.8,1.1,3.1,1.7,4.1,1.7c0.3,0,0.7-0.1,1-0.3c0.4-0.2,0.5-0.5,0.5-0.8c0-0.5-0.7-0.9-2-1.2
				c-1.9-0.5-3.2-1.5-3.8-3c-0.2-0.5-0.3-1-0.3-1.4c0-0.9,0.5-1.7,1.4-2.4c0.8-0.6,2-0.9,3.5-0.9c1.1,0,2.4,0.1,3.9,0.4l-1,3
				c-1.1-0.5-2.1-0.8-2.8-0.8c-0.3,0-0.7,0.1-1,0.2c-0.4,0.2-0.6,0.4-0.6,0.7c0,0.3,0.3,0.6,0.8,0.9c0.3,0.2,1,0.5,2,0.9
				c0.8,0.3,1.5,0.7,1.8,1c0.5,0.5,0.8,1.1,0.9,1.9c0.1,1.3-0.6,2.5-1.9,3.6c-0.5,0.5-1.3,0.7-2.4,0.7
				C164.5,17.1,162.6,16.7,160.3,15.8z"/>
		</g>
	</g>
</g>
</svg>
