<?xml version="1.0" encoding="utf-8"?>
<!-- Generator: Adobe Illustrator 21.0.0, SVG Export Plug-In . SVG Version: 6.00 Build 0)  -->
<svg version="1.1" id="Capa_1" xmlns="http://www.w3.org/2000/svg" xmlns:xlink="http://www.w3.org/1999/xlink" x="0px" y="0px"
	 viewBox="0 0 200 83.6" style="enable-background:new 0 0 200 83.6;" xml:space="preserve">
<style type="text/css">
	.st0{opacity:0.2;fill-rule:evenodd;clip-rule:evenodd;}
	.st1{fill-rule:evenodd;clip-rule:evenodd;fill:#FFFFFF;}
	.st2{fill-rule:evenodd;clip-rule:evenodd;fill:#E6E6E6;}
	.st3{fill:#FFFFFF;}
</style>
<g>
	<g>
		<path class="st0" d="M6.3,30.9c-8.3,8.3-8.3,38.3,0,46.6c8.2,8.2,179.4,8.2,187.6,0c8.3-8.3,8.3-38.3,0-46.6
			C185.3,22.6,14.7,22.6,6.3,30.9z"/>
		<path class="st1" d="M6.3,28.6c-8.3,8.3-8.3,38.3,0,46.6c8.2,8.2,179.4,8.2,187.6,0c8.3-8.3,8.3-38.3,0-46.6
			C185.3,20.2,14.7,20.2,6.3,28.6z"/>
		<path class="st2" d="M6.2,73.8c-4.1-4-6.1-13.3-6.2-22.6C-0.1,61,2,70.9,6.2,75.1c8.2,8.2,179.3,8.2,187.6,0
			c4.2-4.2,6.3-14.1,6.2-23.9c-0.1,9.3-2.2,18.5-6.2,22.6C185.6,82,14.4,82,6.2,73.8z"/>
	</g>
	<g>
		<g>
			<path class="st3" d="M155.1,9.2l1.9-5.8L155.4,3c-1.6-0.3-3-0.5-4.2-0.5c-1.9,0-3.4,0.4-4.4,1.2c-0.5,0.4-0.9,0.8-1.2,1.1
				c-1.3-2.4-3.4-3-5.1-3l-0.3,0l-0.1,0c-2.4,0.4-4.1,1.6-5.1,3.4c-0.1-0.3-0.2-0.5-0.3-0.8c-0.7-1.4-1.9-2.2-3.4-2.2
				c-0.8,0-1.6,0.2-2.6,0.7l-0.1-0.6L123,3.3l0,0.6c-1-0.7-2.3-1-4-1c-1.7,0-3.1,0.6-4.3,1.8c0,0,0,0,0,0c0-0.3-0.1-0.7-0.2-1
				c-0.4-1-1.1-1.8-2.2-2.2c-0.3-0.1-0.6-0.1-0.9-0.1c-0.9,0-1.8,0.4-2.7,1.3l-0.1,0.1l-0.1,0.1c0,0.1-0.1,0.1-0.1,0.2
				c-1-1.2-2.2-1.9-3.6-1.9l-0.2,0c-2.1,0.1-2.8,0.2-3.2,0.3c-1.1,0.3-2.2,1-3,2.1C98.2,4,98,4.3,97.9,4.8c-1.1-1.6-2.8-2.5-5-2.5
				c-0.6,0-1.2,0.1-1.9,0.2c-1.7,0.4-3,1.6-3.9,3.6L87,4.5l-2.5,0.2L84.7,0l-6,0.4l0,1.8c-0.3-0.3-0.7-0.5-1.2-0.7
				c-0.3-0.1-0.6-0.1-0.9-0.1c-0.9,0-1.8,0.4-2.7,1.3l-0.1,0.1c0,0,0-0.1,0-0.1c-0.6-1.5-2.2-2.3-4.7-2.3c-1.2,0-2.7,0.2-4.5,0.5
				l-1.2,0.2v2.6c-1.1-0.9-2.4-1.4-4-1.4c-0.6,0-1.2,0.1-1.9,0.2c-0.7,0.2-1.4,0.5-1.9,1l0-1.1l-5.9-0.5V1.6l-6.7-0.4l0.5,16.9h11.6
				l0.1-2.6c1,0.9,2.6,1.4,4.8,1.7l0,0.7l3.4-0.2v1.2l1.8-0.3c2.8-0.5,6.2-1.4,8.3-3c0,0.4,0,0.7-0.1,1.1l-0.2,1.8l6.1-0.6l0.1-1.3
				c0-0.3,0-0.5,0-0.8c0.5,1.4,1.4,2.4,2.7,2.6c0.5,0.1,0.9,0.1,1.4,0.1c1.2,0,2.2-0.2,3.1-0.7c0.9-0.5,1.6-1.3,2-2.4
				c1,0.9,2.6,1.5,4.9,1.7l0,0.7l5.9-0.4l0-1.2c1.2,1,2.6,1.5,4.4,1.5c0.4,0,0.9,0,1.3-0.1c1-0.1,2.2-0.6,3.2-1.8c0,0.2,0,0.5,0,0.7
				l-0.2,1.8l6.1-0.6l0.1-1.2c1.1,1,2.7,1.5,4.8,1.6l0.3,0c1.7,0,3.1-0.4,4.3-1.3l0,0.7l5.8,0.2v-0.3l6.3-0.2l0.1-1.4
				c0-0.1,0-0.2,0-0.4c0.5,0.6,1,1,1.7,1.4l0.1,0.1l0.1,0c1.1,0.4,2.1,0.6,3.1,0.6c1.1,0,2.3-0.3,3.4-1.1l0.7,0.2
				c2.5,0.9,4.5,1.3,6.1,1.3c1.4,0,2.5-0.4,3.4-1c1.7-1.4,2.5-3,2.4-4.8c0-1.2-0.5-2.3-1.4-3C155.3,9.3,155.2,9.2,155.1,9.2z
				 M73.6,6.4C73.6,6.4,73.6,6.5,73.6,6.4c0.1,0.2,0.2,0.4,0.3,0.5L73.3,7C73.4,6.8,73.5,6.6,73.6,6.4z M73.2,7.2l0.1,1.2
				c-0.2-0.2-0.4-0.3-0.6-0.5C72.9,7.6,73,7.4,73.2,7.2z M84.4,11l-0.1,0.5c0-0.2,0-0.5,0-0.8l3.1-0.3l0-0.7l0.8,0.1
				c-0.3,0.4-0.5,1-0.6,1.6L84.4,11z M104.4,8.7l-0.2,1.4c-0.1,0.7-0.2,0.7-0.4,0.7l-0.1,0c-0.3,0-0.6,0-0.7-1.2c0-0.2,0-0.3,0-0.4
				c0-1.1,0.4-1.5,0.8-1.7c0,0,0.1-0.1,0.1-0.1c0.1,0.1,0.2,0.3,0.4,0.6l0.3,0.6L104.4,8.7z M106.4,8.9l1.7-0.1c0,0.1,0,0.2,0,0.3
				L106.4,8.9z M119.7,11.9c-0.2,0.2-0.4,0.5-0.6,0.5c0,0-0.1-0.1-0.3-0.4c-0.3-0.4-0.4-0.8-0.4-1.1c0-0.4,0.1-0.8,0.4-1.2
				c0.2-0.3,0.3-0.4,0.4-0.5c0.1,0,0.2,0.1,0.4,0.3c0.4,0.5,0.6,0.9,0.6,1.3C120.1,11.2,120,11.5,119.7,11.9z M129.6,15.7l-0.2,1.6
				v-6.8c0.2-0.3,0.3-0.5,0.4-0.6c0.1,0.4,0.2,0.9,0.2,1.8C130,12.8,129.8,14.1,129.6,15.7z"/>
			<path d="M48.3,3v5.3h2.4l0.1-4.9l3.3,0.3l-0.4,12.9h-3.3l0.1-5.3h-2.2l-0.1,5.3H45L44.6,2.8L48.3,3z"/>
			<path d="M57.9,4c0.5-0.1,1-0.2,1.5-0.2c2.4,0,4,1.3,4.7,3.8c0.4,1.3,0.5,2.8,0.5,4.5l-0.1,4l-3,0.2l0-0.6c-3.8-0.1-5.8-1.1-6-2.8
				c0-0.3,0-0.4,0-0.6c0-1.4,0.6-2.3,1.7-2.7c0.6-0.2,1.1-0.3,1.7-0.3c0.8,0,1.5,0.2,2.3,0.5c0-1.3,0-2.1,0-2.1
				c-0.2-0.5-0.7-0.8-1.6-0.9c-0.8-0.1-1.5,0.6-2.2,1.9l-3-0.5C55.2,5.8,56.3,4.3,57.9,4z M59.8,11.5c-0.8,0-1.3,0.2-1.3,0.6
				c-0.1,0.6,0.9,1.1,2.8,1.5l-0.1-2C60.7,11.6,60.2,11.5,59.8,11.5z"/>
			<path d="M64.9,17.1V2.4C66.6,2,68,1.9,69.1,1.9c1.9,0,3,0.5,3.3,1.4c0.1,0.3,0.2,0.7,0.2,1.1c0,1.2-0.7,2.4-2.1,3.7
				c2.2,1.6,3.3,3,3.3,4.3C73.9,14.3,70.9,15.9,64.9,17.1z M67.6,5l0.1,2c1.3-0.9,2-1.5,2-1.9c0-0.2-0.2-0.3-0.7-0.3
				C68.6,4.9,68.2,4.9,67.6,5z M67.6,10.9v2.5c1.7-0.6,2.6-1.2,2.6-1.7C70.2,11.2,69.4,10.9,67.6,10.9z"/>
			<path d="M76.6,2.9c0.2,0,0.3,0,0.5,0.1c0.7,0.2,1.1,0.6,1.3,1.2c0.1,0.2,0.1,0.4,0.1,0.5c0,0.4-0.2,0.8-0.5,1.2
				c-0.5,0.6-1,0.8-1.6,0.8s-1.1-0.4-1.5-1c-0.2-0.3-0.3-0.6-0.3-0.8c0-0.4,0.1-0.7,0.4-1.1C75.6,3.2,76.1,2.9,76.6,2.9z M78.4,7.9
				c-0.1,2.9-0.3,5.8-0.5,8.6l-3,0.3c0.1-1.2,0.2-2.5,0.2-3.7c0-1.6-0.1-3.1-0.3-4.8L78.4,7.9z"/>
			<path d="M78.3,9.7l-0.1-2.9l2-0.2l0.1-4.8l2.9-0.2l-0.3,4.7l2.7-0.2L85.8,9l-3,0.3c0,0.3,0,0.6,0,0.9c0,2.7,0.4,4.1,1.1,4.2
				c0.8,0.1,1.3-0.5,1.7-1.8l2.1,0.3c-0.1,1.9-0.7,3.1-1.6,3.5c-0.7,0.3-1.5,0.5-2.4,0.5c-0.4,0-0.8,0-1.2-0.1
				c-1.4-0.2-2.2-2.7-2.2-7.4L78.3,9.7z"/>
			<path d="M91.3,4c0.5-0.1,1-0.2,1.5-0.2c2.4,0,4,1.3,4.7,3.8c0.4,1.3,0.5,2.8,0.5,4.5l-0.1,4l-3,0.2l0-0.6c-3.8-0.1-5.8-1.1-6-2.8
				c0-0.3,0-0.4,0-0.6c0-1.4,0.6-2.3,1.7-2.7c0.6-0.2,1.1-0.3,1.7-0.3c0.8,0,1.5,0.2,2.3,0.5c0-1.3,0-2.1,0-2.1
				c-0.2-0.5-0.7-0.8-1.6-0.9c-0.8-0.1-1.5,0.6-2.2,1.9l-3-0.5C88.6,5.8,89.8,4.3,91.3,4z M93.3,11.5c-0.8,0-1.3,0.2-1.3,0.6
				c-0.1,0.6,0.9,1.1,2.8,1.5l-0.1-2C94.1,11.6,93.7,11.5,93.3,11.5z"/>
			<path d="M108.8,10.7c-0.5,3.4-1.8,5.3-3.9,5.6c-0.3,0-0.7,0.1-1.1,0.1c-1.7,0-3.1-0.6-4-1.8c-0.9-1.1-1.3-2.5-1.3-4.3
				c0-0.3,0-0.7,0.1-1.2c0.3-2.3,0.6-3.8,1.2-4.5c0.7-0.8,1.4-1.4,2.2-1.6c0.5-0.1,1.4-0.2,2.8-0.3c1.8-0.1,3.2,1.5,4.1,4.5
				l-3.3,0.2c-0.5-1-1.1-1.5-1.7-1.5c-0.3,0-0.6,0.1-1,0.3c-1,0.6-1.5,1.6-1.5,3c0,0.1,0,0.3,0,0.5c0.1,1.6,0.8,2.4,2.1,2.5
				s2-0.6,2.2-2L108.8,10.7z"/>
			<path d="M111.4,2.9c0.2,0,0.3,0,0.5,0.1c0.7,0.2,1.1,0.6,1.3,1.2c0.1,0.2,0.1,0.4,0.1,0.5c0,0.4-0.2,0.8-0.5,1.2
				c-0.5,0.6-1,0.8-1.6,0.8s-1.1-0.4-1.5-1c-0.2-0.3-0.3-0.6-0.3-0.8c0-0.4,0.1-0.7,0.4-1.1C110.4,3.2,110.9,2.9,111.4,2.9z
				 M113.2,7.9c-0.1,2.9-0.3,5.8-0.5,8.6l-3,0.3c0.1-1.2,0.2-2.5,0.2-3.7c0-1.6-0.1-3.1-0.3-4.8L113.2,7.9z"/>
			<path d="M113.8,11.3c0.1-1.8,0.5-3.3,1.3-4.6c1-1.5,2.3-2.3,3.9-2.3c1.7,0,3,0.4,3.8,1.3c0.6,0.7,1.1,2,1.5,3.8
				c0.1,0.7,0.2,1.4,0.2,2c0,1.4-0.3,2.5-1,3.4c-1,1.3-2.5,2-4.5,1.9c-1.8-0.1-3.2-0.5-4.1-1.4S113.7,13.2,113.8,11.3z M120.6,8.5
				c-0.5-0.5-1.1-0.8-1.5-0.8c-0.6,0-1.1,0.4-1.6,1.2c-0.4,0.7-0.7,1.4-0.7,2c0,0.6,0.2,1.3,0.6,1.9c0.5,0.7,1,1.1,1.6,1.1
				c0.7,0,1.3-0.4,1.9-1.1c0.5-0.7,0.8-1.4,0.8-2.1C121.6,10.1,121.3,9.3,120.6,8.5z"/>
			<path d="M127.4,4.1l0.2,1.3c1.5-1.1,2.8-1.6,3.8-1.6c0.9,0,1.6,0.5,2,1.4c0.7,1.4,1,3.7,1,6.9c0,1.1,0,2.4-0.1,3.8l-3.2,0.1
				c0.3-1.7,0.4-3.1,0.4-4.3c0-1.4-0.2-2.4-0.6-3.1c-0.2-0.4-0.5-0.6-0.8-0.6c-0.6,0-1.3,0.7-2.2,2.1v6.2l-2.9-0.1l-0.5-11.6
				L127.4,4.1z"/>
			<path d="M138.1,11.4c0.4,1.2,1.1,1.8,2.2,1.9c1.1,0.1,1.8-0.5,2.2-1.7l3.3-0.5c-0.8,3.4-2.5,5.1-5,5.1c-0.8,0-1.6-0.2-2.6-0.5
				c-1.8-1-2.6-2.9-2.6-5.8c0-0.2,0-0.5,0-0.8c0.2-3.3,1.8-5.2,4.8-5.7c2.9-0.1,4.5,1.9,5,6L138.1,11.4z M139,7.2
				c-0.4,0.5-0.7,1.1-0.7,1.9l4.4-1.3c-0.5-0.9-1.1-1.4-1.9-1.4S139.4,6.7,139,7.2z"/>
			<path d="M145.4,15.5l1.4-3.1c1.8,1.1,3.1,1.7,4.1,1.7c0.3,0,0.7-0.1,1-0.3c0.4-0.2,0.5-0.5,0.5-0.8c0-0.5-0.7-0.9-2-1.2
				c-1.9-0.5-3.2-1.5-3.8-3c-0.2-0.5-0.3-1-0.3-1.4c0-0.9,0.5-1.7,1.4-2.4c0.8-0.6,2-0.9,3.5-0.9c1.1,0,2.4,0.1,3.9,0.4l-1,3
				C153,7,152,6.7,151.3,6.7c-0.3,0-0.7,0.1-1,0.2c-0.4,0.2-0.6,0.4-0.6,0.7c0,0.3,0.3,0.6,0.8,0.9c0.3,0.2,1,0.5,2,0.9
				c0.8,0.3,1.5,0.7,1.8,1c0.5,0.5,0.8,1.1,0.9,1.9c0.1,1.3-0.6,2.5-1.9,3.6c-0.5,0.5-1.3,0.7-2.4,0.7
				C149.6,16.7,147.7,16.3,145.4,15.5z"/>
		</g>
	</g>
</g>
</svg>
