<?xml version="1.0" encoding="utf-8"?>
<!-- Generator: Adobe Illustrator 21.0.0, SVG Export Plug-In . SVG Version: 6.00 Build 0)  -->
<svg version="1.1" id="Capa_1" xmlns="http://www.w3.org/2000/svg" xmlns:xlink="http://www.w3.org/1999/xlink" x="0px" y="0px"
	 viewBox="0 0 40.8 40.8" style="enable-background:new 0 0 40.8 40.8;" xml:space="preserve">
<style type="text/css">
	.st0{fill-rule:evenodd;clip-rule:evenodd;fill:#9BCAF5;}
	.st1{fill:#603813;}
	.st2{fill:#A67C52;}
	.st3{fill:#C2B59B;}
	.st4{fill:#FFFFFF;}
	.st5{fill:#F07100;}
</style>
<g>
	<path class="st0" d="M4.4,4.3c-5.8,5.7-5.8,26.5,0,32.2c5.8,5.7,26.3,5.7,32.1,0c5.8-5.7,5.8-26.5,0-32.2
		C30.5-1.4,10.3-1.4,4.4,4.3z"/>
	<g>
		<polygon class="st1" points="3.2,22.4 3.2,24 4.6,24 4.6,28.7 6.2,28.7 7.3,24 33.5,24 34.6,28.7 36.2,28.7 36.2,24 37.6,24 
			37.6,22.4 		"/>
		<path class="st2" d="M33.7,12.1H7.1c-0.6,0-1,0.4-1,1v4h28.7v-4C34.7,12.5,34.3,12.1,33.7,12.1z"/>
		<g>
			<g>
				<path class="st3" d="M18.4,14.7c-0.1-0.2-0.3-0.4-0.6-0.4h-6.2c-0.2,0-0.5,0.2-0.6,0.4l-0.6,2c-0.1,0.2,0.1,0.4,0.3,0.4h7.9
					c0.2,0,0.4-0.2,0.3-0.4L18.4,14.7z"/>
				<path class="st4" d="M18.4,14.7c-0.1-0.2-0.3-0.4-0.6-0.4h-6.2c-0.2,0-0.5,0.2-0.6,0.4l-0.6,2c-0.1,0.2,0.1,0.4,0.3,0.4h7.9
					c0.2,0,0.4-0.2,0.3-0.4L18.4,14.7z"/>
				<path class="st4" d="M29.7,14.7c-0.1-0.2-0.3-0.4-0.6-0.4H23c-0.2,0-0.5,0.2-0.6,0.4l-0.6,2c-0.1,0.2,0.1,0.4,0.3,0.4H30
					c0.2,0,0.4-0.2,0.3-0.4L29.7,14.7z"/>
			</g>
		</g>
		<path class="st5" d="M34.3,17.7H6.5c-0.6,0-1,0.5-1,1v2.6v1h1h27.7h1v-1v-2.6C35.3,18.2,34.8,17.7,34.3,17.7z"/>
	</g>
</g>
</svg>
