<?xml version="1.0" encoding="utf-8"?>
<!-- Generator: Adobe Illustrator 21.0.0, SVG Export Plug-In . SVG Version: 6.00 Build 0)  -->
<svg version="1.1" id="Capa_1" xmlns="http://www.w3.org/2000/svg" xmlns:xlink="http://www.w3.org/1999/xlink" x="0px" y="0px"
	 viewBox="0 0 42.3 40.8" style="enable-background:new 0 0 42.3 40.8;" xml:space="preserve">
<style type="text/css">
	.st0{fill:#603813;}
	.st1{fill:#4FB1ED;}
	.st2{fill:#76CAF4;}
	.st3{fill:#8C6239;}
</style>
<g>
	<g>
		<rect x="2.5" class="st0" width="37.3" height="37.3"/>
		<g>
			<g>
				<rect x="5.5" y="3.1" class="st1" width="14.4" height="14.4"/>
			</g>
			<g>
				<rect x="22.4" y="3.1" class="st1" width="14.4" height="14.4"/>
			</g>
			<g>
				<rect x="5.5" y="19.8" class="st1" width="14.4" height="14.4"/>
			</g>
			<g>
				<rect x="22.4" y="19.8" class="st1" width="14.4" height="14.4"/>
			</g>
		</g>
		<g>
			<polygon class="st2" points="5.5,11.1 5.5,15.5 17,3.1 13,3.1 			"/>
			<polygon class="st2" points="18.6,3.1 5.5,17.2 5.5,17.5 6.6,17.5 19.9,3.1 			"/>
			<polygon class="st2" points="22.4,11.1 22.4,15.5 33.9,3.1 29.8,3.1 			"/>
			<polygon class="st2" points="35.5,3.1 22.4,17.2 22.4,17.5 23.4,17.5 36.8,3.1 			"/>
			<polygon class="st2" points="5.5,27.9 5.5,32.3 17,19.8 13,19.8 			"/>
			<polygon class="st2" points="18.6,19.8 5.5,34 5.5,34.2 6.6,34.2 19.9,19.8 			"/>
			<polygon class="st2" points="22.4,27.9 22.4,32.3 33.9,19.8 29.8,19.8 			"/>
			<polygon class="st2" points="35.5,19.8 22.4,34 22.4,34.2 23.4,34.2 36.8,19.8 			"/>
		</g>
	</g>
	<rect y="37.3" class="st3" width="42.3" height="3.5"/>
	<g>
		<path d="M17.7,16.5L17.7,16.5c0.2,0,0.4,0.2,0.4,0.5v4.6h-1l0,0V17v0C17.1,16.7,17.3,16.5,17.7,16.5
			C17.6,16.5,17.6,16.5,17.7,16.5z"/>
		<path d="M24.8,16.5L24.8,16.5c0.2,0,0.4,0.2,0.4,0.5v4.6h-1l0,0V17v0C24.2,16.7,24.5,16.5,24.8,16.5
			C24.8,16.5,24.8,16.5,24.8,16.5z"/>
	</g>
</g>
</svg>
