<?xml version="1.0" encoding="utf-8"?>
<!-- Generator: Adobe Illustrator 21.0.0, SVG Export Plug-In . SVG Version: 6.00 Build 0)  -->
<svg version="1.1" id="Capa_1" xmlns="http://www.w3.org/2000/svg" xmlns:xlink="http://www.w3.org/1999/xlink" x="0px" y="0px"
	 viewBox="0 0 51 35.7" style="enable-background:new 0 0 51 35.7;" xml:space="preserve">
<style type="text/css">
	.st0{fill:#D15A09;}
	.st1{fill:#AF4904;}
	.st2{clip-path:url(#SVGID_2_);}
	.st3{opacity:0.2;}
	.st4{fill:#F47C27;}
	.st5{fill:#F69652;}
</style>
<g>
	<polygon class="st0" points="25.5,0 2.3,31.8 48.7,31.8 	"/>
	<rect y="31.8" class="st1" width="51" height="3.9"/>
	<g>
		<defs>
			<polygon id="SVGID_1_" points="25.5,0 2.3,31.8 48.7,31.8 			"/>
		</defs>
		<clipPath id="SVGID_2_">
			<use xlink:href="#SVGID_1_"  style="overflow:visible;"/>
		</clipPath>
		<g class="st2">
			<g class="st3">
				<path d="M7.1,30.2H6.7c-1.5,0-2.6-1.2-2.6-2.6V23h5.7v4.6C9.8,29,8.6,30.2,7.1,30.2z"/>
				<path d="M14.6,30.2h-0.4c-1.5,0-2.6-1.2-2.6-2.6V23h5.7v4.6C17.2,29,16,30.2,14.6,30.2z"/>
				<path d="M22,30.2h-0.4c-1.5,0-2.6-1.2-2.6-2.6V23h5.7v4.6C24.6,29,23.5,30.2,22,30.2z"/>
				<path d="M29.4,30.2H29c-1.5,0-2.6-1.2-2.6-2.6V23H32v4.6C32,29,30.9,30.2,29.4,30.2z"/>
				<path d="M36.9,30.2h-0.4c-1.5,0-2.6-1.2-2.6-2.6V23h5.7v4.6C39.5,29,38.3,30.2,36.9,30.2z"/>
				<path d="M44.3,30.2h-0.4c-1.5,0-2.6-1.2-2.6-2.6V23h5.7v4.6C46.9,29,45.7,30.2,44.3,30.2z"/>
				<path d="M14.6,21h-0.4c-1.5,0-2.6-1.2-2.6-2.6v-4.6h5.7v4.6C17.2,19.9,16,21,14.6,21z"/>
				<path d="M22,21h-0.4c-1.5,0-2.6-1.2-2.6-2.6v-4.6h5.7v4.6C24.6,19.9,23.5,21,22,21z"/>
				<path d="M29.4,21H29c-1.5,0-2.6-1.2-2.6-2.6v-4.6H32v4.6C32,19.9,30.9,21,29.4,21z"/>
				<path d="M36.9,21h-0.4c-1.5,0-2.6-1.2-2.6-2.6v-4.6h5.7v4.6C39.5,19.9,38.3,21,36.9,21z"/>
				<path d="M22,12.1h-0.4c-1.5,0-2.6-1.2-2.6-2.6V4.9h5.7v4.6C24.6,10.9,23.5,12.1,22,12.1z"/>
				<path d="M29.4,12.1H29c-1.5,0-2.6-1.2-2.6-2.6V4.9H32v4.6C32,10.9,30.9,12.1,29.4,12.1z"/>
			</g>
			<g>
				<path class="st4" d="M7.1,29.6H6.7c-1.5,0-2.6-1.2-2.6-2.6v-4.6h5.7V27C9.8,28.4,8.6,29.6,7.1,29.6z"/>
				<path class="st5" d="M14.6,29.6h-0.4c-1.5,0-2.6-1.2-2.6-2.6v-4.6h5.7V27C17.2,28.4,16,29.6,14.6,29.6z"/>
				<path class="st4" d="M22,29.6h-0.4c-1.5,0-2.6-1.2-2.6-2.6v-4.6h5.7V27C24.6,28.4,23.5,29.6,22,29.6z"/>
				<path class="st5" d="M29.4,29.6H29c-1.5,0-2.6-1.2-2.6-2.6v-4.6H32V27C32,28.4,30.9,29.6,29.4,29.6z"/>
				<path class="st4" d="M36.9,29.6h-0.4c-1.5,0-2.6-1.2-2.6-2.6v-4.6h5.7V27C39.5,28.4,38.3,29.6,36.9,29.6z"/>
				<path class="st5" d="M44.3,29.6h-0.4c-1.5,0-2.6-1.2-2.6-2.6v-4.6h5.7V27C46.9,28.4,45.7,29.6,44.3,29.6z"/>
				<path class="st5" d="M14.6,20.4h-0.4c-1.5,0-2.6-1.2-2.6-2.6v-4.6h5.7v4.6C17.2,19.3,16,20.4,14.6,20.4z"/>
				<path class="st4" d="M22,20.4h-0.4c-1.5,0-2.6-1.2-2.6-2.6v-4.6h5.7v4.6C24.6,19.3,23.5,20.4,22,20.4z"/>
				<path class="st5" d="M29.4,20.4H29c-1.5,0-2.6-1.2-2.6-2.6v-4.6H32v4.6C32,19.3,30.9,20.4,29.4,20.4z"/>
				<path class="st4" d="M36.9,20.4h-0.4c-1.5,0-2.6-1.2-2.6-2.6v-4.6h5.7v4.6C39.5,19.3,38.3,20.4,36.9,20.4z"/>
				<path class="st4" d="M22,11.5h-0.4c-1.5,0-2.6-1.2-2.6-2.6V4.3h5.7v4.6C24.6,10.3,23.5,11.5,22,11.5z"/>
				<path class="st5" d="M29.4,11.5H29c-1.5,0-2.6-1.2-2.6-2.6V4.3H32v4.6C32,10.3,30.9,11.5,29.4,11.5z"/>
			</g>
		</g>
	</g>
</g>
</svg>
