<?xml version="1.0" encoding="utf-8"?>
<!-- Generator: Adobe Illustrator 21.0.0, SVG Export Plug-In . SVG Version: 6.00 Build 0)  -->
<svg version="1.1" id="Capa_1" xmlns="http://www.w3.org/2000/svg" xmlns:xlink="http://www.w3.org/1999/xlink" x="0px" y="0px"
	 viewBox="0 0 200 82.9" style="enable-background:new 0 0 200 82.9;" xml:space="preserve">
<style type="text/css">
	.st0{opacity:0.2;fill-rule:evenodd;clip-rule:evenodd;}
	.st1{fill-rule:evenodd;clip-rule:evenodd;fill:#FFFFFF;}
	.st2{fill-rule:evenodd;clip-rule:evenodd;fill:#E6E6E6;}
	.st3{fill:#FFFFFF;}
</style>
<g>
	<g>
		<path class="st0" d="M6.3,30.2c-8.3,8.3-8.3,38.3,0,46.6c8.2,8.2,179.4,8.2,187.6,0c8.3-8.3,8.3-38.3,0-46.6
			C185.3,21.8,14.7,21.8,6.3,30.2z"/>
		<path class="st1" d="M6.3,27.8c-8.3,8.3-8.3,38.3,0,46.6c8.2,8.2,179.4,8.2,187.6,0c8.3-8.3,8.3-38.3,0-46.6
			C185.3,19.5,14.7,19.5,6.3,27.8z"/>
		<path class="st2" d="M6.2,73.1C2.2,69,0.1,59.8,0,50.5c-0.1,9.8,2,19.6,6.2,23.9c8.2,8.2,179.3,8.2,187.6,0
			c4.2-4.2,6.3-14.1,6.2-23.9c-0.1,9.3-2.2,18.5-6.2,22.6C185.6,81.3,14.4,81.3,6.2,73.1z"/>
	</g>
	<g>
		<g>
			<path class="st3" d="M131.2,8.4l1.9-5.8l-1.7-0.3c-1.6-0.3-3-0.5-4.2-0.5c-1.9,0-3.4,0.4-4.4,1.2c-0.6,0.5-1.1,0.9-1.4,1.4
				c-0.1-0.2-0.2-0.3-0.3-0.4c-1.1-1.2-2.7-1.8-4.9-1.8c-2.2,0-4,1-5.2,3c-0.1,0.1-0.1,0.2-0.2,0.4c-0.9-1.7-2.1-2.2-3.2-2.2
				c0,0,0,0,0,0c-0.5,0-0.9,0.1-1.4,0.2c0.1-0.5,0.1-1,0.2-1.5l0.2-1.6L99.8,0l0,1.5C99,0.8,98.1,0.5,97,0.5l-0.2,0
				c-2.1,0.1-2.8,0.2-3.2,0.3c-1.1,0.3-2.2,1-3,2.1c-0.2,0.2-0.3,0.5-0.4,0.7c-1.3-2-3.2-2.5-4.8-2.5l-0.3,0l-0.1,0
				c-1.6,0.3-2.9,0.9-3.8,1.8l0.1-2.3l-1.6,0.1C76,1,71.9,1.3,67.6,1.8l-1.4,0.1l0.4,6.2L71,7.4l0.2,10l6.1,0.7L77.1,6.9l2-0.1
				C79.1,7.3,79,7.8,79,8.3c0,0.3,0,0.6,0,0.9c0,3.4,1.1,5.8,3.4,7.1l0.1,0.1l0.1,0c1.1,0.4,2.1,0.6,3.1,0.6c1.6,0,3.4-0.5,4.9-2.6
				c0.1,0.1,0.1,0.2,0.2,0.4c1.3,1.6,3,2.3,5.2,2.3c0.4,0,0.9,0,1.3-0.1c1-0.1,2.1-0.6,3-1.6l0.1,2.1l5.5-0.3l0,0.2h5.8l0.1-1.2
				c1.1,0.8,2.6,1.3,4.5,1.4l0.3,0c1.8,0,3.3-0.5,4.4-1.5l0,0c2.5,0.9,4.5,1.3,6.1,1.3c1.4,0,2.5-0.4,3.4-1c1.7-1.4,2.5-3,2.4-4.8
				c0-1.2-0.5-2.3-1.4-3C131.4,8.6,131.3,8.5,131.2,8.4z M96.6,8l-0.2,1.4c-0.1,0.7-0.2,0.7-0.4,0.7l-0.1,0c-0.3,0-0.6,0-0.7-1.2
				c0-0.2,0-0.3,0-0.4c0-1.1,0.4-1.5,0.8-1.7c0,0,0.1-0.1,0.1-0.1c0.1,0.1,0.2,0.3,0.4,0.6L96.7,8L96.6,8z M98.6,8.2l1.5-0.1l0,0.3
				L98.6,8.2z M106,14.4c0-0.8-0.1-1.6-0.1-2.4c0,0,0.1-0.1,0.1-0.1c0,0.3,0,0.7,0,1.3C106.1,13.6,106.1,14,106,14.4z M116.9,11.2
				c-0.2,0.2-0.4,0.5-0.6,0.5c0,0-0.1-0.1-0.3-0.4c-0.3-0.4-0.4-0.8-0.4-1.1c0-0.4,0.1-0.8,0.4-1.2c0.2-0.3,0.3-0.4,0.4-0.5
				c0.1,0,0.2,0.1,0.4,0.3c0.4,0.5,0.6,0.9,0.6,1.3C117.4,10.4,117.2,10.8,116.9,11.2z"/>
			<path d="M68,6.4l-0.2-3.2c4.3-0.4,8.3-0.8,11.9-1l-0.1,3.1l-4,0.2l0.2,10.9l-3.1-0.4L72.5,5.7L68,6.4z"/>
			<path d="M82.9,10.6c0.4,1.2,1.1,1.8,2.2,1.9c1.1,0.1,1.8-0.5,2.2-1.7l3.3-0.5c-0.8,3.4-2.5,5.1-5,5.1c-0.8,0-1.6-0.2-2.6-0.5
				c-1.8-1-2.6-2.9-2.6-5.8c0-0.2,0-0.5,0-0.8c0.2-3.3,1.8-5.2,4.8-5.7c2.9-0.1,4.5,1.9,5,6L82.9,10.6z M83.8,6.5
				c-0.4,0.5-0.7,1.1-0.7,1.9l4.4-1.3c-0.5-0.9-1.1-1.4-1.9-1.4S84.3,5.9,83.8,6.5z"/>
			<path d="M101,10c-0.5,3.4-1.8,5.3-3.9,5.6c-0.3,0-0.7,0.1-1.1,0.1c-1.7,0-3.1-0.6-4-1.8c-0.9-1.1-1.3-2.5-1.3-4.3
				c0-0.3,0-0.7,0.1-1.2c0.3-2.3,0.6-3.8,1.2-4.5c0.7-0.8,1.4-1.4,2.2-1.6C94.5,2.1,95.5,2,96.9,2c1.8-0.1,3.2,1.5,4.1,4.5l-3.3,0.2
				c-0.5-1-1.1-1.5-1.7-1.5c-0.3,0-0.6,0.1-1,0.3c-1,0.6-1.5,1.6-1.5,3c0,0.1,0,0.3,0,0.5c0.1,1.6,0.8,2.4,2.1,2.5s2-0.6,2.2-2
				L101,10z"/>
			<path d="M101.3,1.6l3.6,0.3c-0.2,1.4-0.3,2.8-0.4,4.2c1.2-0.8,2.3-1.2,3.2-1.3c1.1,0,1.8,0.8,2.3,2.5c0.3,1,0.4,2.3,0.4,3.7
				c0,1.9,0,3.5-0.1,4.8h-2.8c0.1-1,0.1-1.9,0.1-2.7c0-2.3-0.3-3.4-0.9-3.4s-1.4,0.6-2.2,1.7c0,1.4,0.1,2.8,0.2,4.3l-2.8,0.2
				L101.3,1.6z"/>
			<path d="M111,10.6c0.1-1.8,0.5-3.3,1.3-4.6c1-1.5,2.3-2.3,3.9-2.3c1.7,0,3,0.4,3.8,1.3c0.6,0.7,1.1,2,1.5,3.8
				c0.1,0.7,0.2,1.4,0.2,2c0,1.4-0.3,2.5-1,3.4c-1,1.3-2.5,2-4.5,1.9c-1.8-0.1-3.2-0.5-4.1-1.4S110.9,12.4,111,10.6z M117.9,7.8
				c-0.5-0.5-1.1-0.8-1.5-0.8c-0.6,0-1.1,0.4-1.6,1.2c-0.4,0.7-0.7,1.4-0.7,2c0,0.6,0.2,1.3,0.6,1.9c0.5,0.7,1,1.1,1.6,1.1
				c0.7,0,1.3-0.4,1.9-1.1c0.5-0.7,0.8-1.4,0.8-2.1C118.9,9.3,118.5,8.6,117.9,7.8z"/>
			<path d="M121.5,14.7l1.4-3.1c1.8,1.1,3.1,1.7,4.1,1.7c0.3,0,0.7-0.1,1-0.3c0.4-0.2,0.5-0.5,0.5-0.8c0-0.5-0.7-0.9-2-1.2
				c-1.9-0.5-3.2-1.5-3.8-3c-0.2-0.5-0.3-1-0.3-1.4c0-0.9,0.5-1.7,1.4-2.4c0.8-0.6,2-0.9,3.5-0.9c1.1,0,2.4,0.1,3.9,0.4l-1,3
				C129,6.3,128.1,6,127.4,6c-0.3,0-0.7,0.1-1,0.2c-0.4,0.2-0.6,0.4-0.6,0.7c0,0.3,0.3,0.6,0.8,0.9c0.3,0.2,1,0.5,2,0.9
				c0.8,0.3,1.5,0.7,1.8,1c0.5,0.5,0.8,1.1,0.9,1.9c0.1,1.3-0.6,2.5-1.9,3.6c-0.5,0.5-1.3,0.7-2.4,0.7
				C125.7,16,123.8,15.6,121.5,14.7z"/>
		</g>
	</g>
</g>
</svg>
