<?xml version="1.0" encoding="utf-8"?>
<!-- Generator: Adobe Illustrator 21.0.0, SVG Export Plug-In . SVG Version: 6.00 Build 0)  -->
<svg version="1.1" id="Capa_1" xmlns="http://www.w3.org/2000/svg" xmlns:xlink="http://www.w3.org/1999/xlink" x="0px" y="0px"
	 viewBox="0 0 200 82.6" style="enable-background:new 0 0 200 82.6;" xml:space="preserve">
<style type="text/css">
	.st0{opacity:0.2;fill-rule:evenodd;clip-rule:evenodd;}
	.st1{fill-rule:evenodd;clip-rule:evenodd;fill:#FFFFFF;}
	.st2{fill-rule:evenodd;clip-rule:evenodd;fill:#E6E6E6;}
	.st3{fill:#FFFFFF;}
</style>
<g>
	<g>
		<path class="st0" d="M6.3,29.9c-8.3,8.3-8.3,38.3,0,46.6c8.2,8.2,179.4,8.2,187.6,0c8.3-8.3,8.3-38.3,0-46.6
			C185.3,21.5,14.7,21.5,6.3,29.9z"/>
		<path class="st1" d="M6.3,27.5c-8.3,8.3-8.3,38.3,0,46.6c8.2,8.2,179.4,8.2,187.6,0c8.3-8.3,8.3-38.3,0-46.6
			C185.3,19.1,14.7,19.1,6.3,27.5z"/>
		<path class="st2" d="M6.2,72.8c-4.1-4-6.1-13.3-6.2-22.6c-0.1,9.8,2,19.6,6.2,23.9c8.2,8.2,179.3,8.2,187.6,0
			c4.2-4.2,6.3-14.1,6.2-23.9c-0.1,9.3-2.2,18.5-6.2,22.6C185.6,81,14.4,81,6.2,72.8z"/>
	</g>
	<g>
		<g>
			<path class="st3" d="M140.5,8.1l1.9-5.8L140.7,2c-1.6-0.3-3-0.5-4.2-0.5c-1.9,0-3.4,0.4-4.4,1.2c-0.6,0.5-1.1,0.9-1.4,1.4
				c-0.1-0.2-0.2-0.3-0.3-0.4c-1.1-1.2-2.7-1.8-4.9-1.8c-1.7,0-3.1,0.6-4.3,1.8c0,0,0,0,0,0c0-0.3-0.1-0.7-0.2-1
				c-0.4-1-1.1-1.8-2.2-2.2c-0.3-0.1-0.6-0.1-0.9-0.1c-0.9,0-1.8,0.4-2.7,1.3l-0.1,0.1L115,1.9C115,1.9,115,2,115,2
				c-1-1.2-2.2-1.9-3.6-1.9l-0.2,0c-2.1,0.1-2.8,0.2-3.2,0.3c-0.9,0.2-1.7,0.7-2.4,1.4c-0.4-0.7-1.1-1.2-1.9-1.5
				c-0.3-0.1-0.6-0.1-0.9-0.1c-0.9,0-1.8,0.4-2.7,1.3L100,1.7l-0.1,0.1c0,0,0,0,0,0l-4-1.2l-1,5.6l-1.4-5.1l-3.2,1.5L90.1,2l-1.3,0
				c-0.1,0-0.2,0-0.3,0c-1,0-2,0.2-2.9,0.5l0-0.2l-5.9,0.5c-1.3-1.4-2.9-1.8-4.3-1.8l-0.3,0l-0.1,0c-2,0.4-3.5,1.2-4.5,2.6l0.9-2.6
				l-1.7-0.3C68,0.2,66.5,0,65.1,0c-1.6,0-3,0.3-4.2,0.9c-2.2,1.1-2.7,2.9-2.7,4.2c0,0.7,0.2,1.4,0.5,2.1c0.2,0.5,0.5,1,0.8,1.4
				L56.7,15l1.5,0.5c2.8,1,5,1.5,6.7,1.5c1.5,0,2.8-0.4,3.6-1.1c0.7-0.6,1.3-1.3,1.7-2c0.5,0.8,1.2,1.5,2.1,2l0.1,0.1l0.1,0
				c1.1,0.4,2.1,0.6,3.1,0.6c1.2,0,2.6-0.3,3.9-1.5c0,0.1,0,0.1,0,0.2l0,1.6l6.5-0.2l-0.1-1.6c-0.1-1.4-0.2-2.5-0.2-3.5
				c0-2.6,0.4-3.2,0.4-3.2c0,0,0,0,0,0c0.4-0.4,1.4-0.7,2.7-0.7l3.5,9.6l5.9,0.2l1.5-5.8c0,0.1,0,0.2,0,0.3c0,1.2-0.1,2.4-0.2,3.6
				l-0.2,1.8l6.1-0.6l0.1-1.3c0-0.2,0-0.4,0-0.6c1.2,1.2,2.8,1.8,4.7,1.8c0.4,0,0.9,0,1.3-0.1c1-0.1,2.2-0.6,3.2-1.8
				c0,0.2,0,0.5,0,0.7l-0.2,1.8l6.1-0.6l0.1-1.2c1.1,1,2.7,1.5,4.8,1.6l0.3,0c1.8,0,3.3-0.5,4.4-1.5l0,0c2.5,0.9,4.5,1.3,6.1,1.3
				c1.4,0,2.5-0.4,3.4-1c1.7-1.4,2.5-3,2.4-4.8c0-1.2-0.5-2.2-1.4-3C140.6,8.2,140.6,8.2,140.5,8.1z M110.9,7.7l-0.2,1.4
				c-0.1,0.7-0.2,0.7-0.4,0.7l-0.1,0c-0.3,0-0.6,0-0.7-1.2c0-0.2,0-0.3,0-0.4c0-1.1,0.4-1.5,0.8-1.7c0,0,0.1-0.1,0.1-0.1
				c0.1,0.1,0.2,0.3,0.4,0.6l0.3,0.6L110.9,7.7z M112.9,7.9l1.7-0.1c0,0.1,0,0.2,0,0.3L112.9,7.9z M126.1,10.9
				c-0.2,0.2-0.4,0.5-0.6,0.5c0,0-0.1-0.1-0.3-0.4c-0.3-0.4-0.4-0.8-0.4-1.1c0-0.4,0.1-0.8,0.4-1.2c0.2-0.3,0.3-0.4,0.4-0.5
				c0.1,0,0.2,0.1,0.4,0.3c0.4,0.5,0.6,0.9,0.6,1.3C126.6,10.1,126.5,10.5,126.1,10.9z"/>
			<path d="M58.7,14.2l1.6-3.5c1.9,1.3,3.5,1.9,4.5,1.9c0.4,0,0.8-0.1,1.1-0.3c0.4-0.2,0.6-0.6,0.6-0.9c0-0.6-0.7-1-2.2-1.4
				c-2.1-0.5-3.5-1.6-4.3-3.3c-0.2-0.5-0.4-1.1-0.4-1.5c0-1.2,0.6-2.2,1.9-2.8c1-0.5,2.2-0.7,3.6-0.7c1.2,0,2.6,0.2,4.3,0.5
				l-1.1,3.3c-1.2-0.6-2.2-0.8-3-0.8c-0.4,0-0.7,0.1-1.1,0.3c-0.4,0.2-0.6,0.5-0.6,0.8c0,0.3,0.3,0.7,0.8,1c0.4,0.3,1.1,0.6,2.2,1
				c0.9,0.4,1.6,0.7,2,1.1c0.6,0.5,0.9,1.2,1,2.1c0.1,1.5-0.6,2.8-2,4c-0.6,0.5-1.5,0.8-2.7,0.8C63.4,15.6,61.3,15.1,58.7,14.2z"/>
			<path d="M73,10.3c0.4,1.2,1.1,1.8,2.2,1.9c1.1,0.1,1.8-0.5,2.2-1.7l3.3-0.5c-0.8,3.4-2.5,5.1-5,5.1c-0.8,0-1.6-0.2-2.6-0.5
				c-1.8-1-2.6-2.9-2.6-5.8c0-0.2,0-0.5,0-0.8c0.2-3.3,1.8-5.2,4.8-5.7c2.9-0.1,4.5,1.9,5,6L73,10.3z M73.9,6.1
				c-0.4,0.5-0.7,1.1-0.7,1.9l4.4-1.3c-0.5-0.9-1.1-1.4-1.9-1.4S74.3,5.6,73.9,6.1z"/>
			<path d="M81.1,15.4c0-4.8-0.1-8.5-0.4-11.4L84,3.8l-0.1,1.1c1.6-1,3.3-1.5,4.9-1.4l0.3,2.8c-1.9,0-3.3,0.4-4.1,1.2
				c-0.5,0.6-0.8,2-0.8,4.2c0,1,0.1,2.2,0.2,3.6L81.1,15.4z"/>
			<path d="M89.4,4.9l3.1-1.5l2.7,9.7L97,2.6l3.2,0.9L97,16l-3.7-0.1L89.4,4.9z"/>
			<path d="M102.7,1.8c0.2,0,0.3,0,0.5,0.1c0.7,0.2,1.1,0.6,1.3,1.2c0.1,0.2,0.1,0.4,0.1,0.5c0,0.4-0.2,0.8-0.5,1.2
				c-0.5,0.6-1,0.8-1.6,0.8s-1.1-0.4-1.5-1c-0.2-0.3-0.3-0.6-0.3-0.8c0-0.4,0.1-0.7,0.4-1.1C101.7,2.1,102.2,1.8,102.7,1.8z
				 M104.5,6.8c-0.1,2.9-0.3,5.8-0.5,8.6l-3,0.3c0.1-1.2,0.2-2.5,0.2-3.7c0-1.6-0.1-3.1-0.3-4.8L104.5,6.8z"/>
			<path d="M115.3,9.6c-0.5,3.4-1.8,5.3-3.9,5.6c-0.3,0-0.7,0.1-1.1,0.1c-1.7,0-3.1-0.6-4-1.8c-0.9-1.1-1.3-2.5-1.3-4.3
				c0-0.3,0-0.7,0.1-1.2c0.3-2.3,0.6-3.8,1.2-4.5c0.7-0.8,1.4-1.4,2.2-1.6c0.5-0.1,1.4-0.2,2.8-0.3c1.8-0.1,3.2,1.5,4.1,4.5
				l-3.3,0.2c-0.5-1-1.1-1.5-1.7-1.5c-0.3,0-0.6,0.1-1,0.3c-1,0.6-1.5,1.6-1.5,3c0,0.1,0,0.3,0,0.5c0.1,1.6,0.8,2.4,2.1,2.5
				s2-0.6,2.2-2L115.3,9.6z"/>
			<path d="M117.9,1.8c0.2,0,0.3,0,0.5,0.1c0.7,0.2,1.1,0.6,1.3,1.2c0.1,0.2,0.1,0.4,0.1,0.5c0,0.4-0.2,0.8-0.5,1.2
				c-0.5,0.6-1,0.8-1.6,0.8s-1.1-0.4-1.5-1c-0.2-0.3-0.3-0.6-0.3-0.8c0-0.4,0.1-0.7,0.4-1.1C116.8,2.1,117.4,1.8,117.9,1.8z
				 M119.7,6.8c-0.1,2.9-0.3,5.8-0.5,8.6l-3,0.3c0.1-1.2,0.2-2.5,0.2-3.7c0-1.6-0.1-3.1-0.3-4.8L119.7,6.8z"/>
			<path d="M120.2,10.3c0.1-1.8,0.5-3.3,1.3-4.6c1-1.5,2.3-2.3,3.9-2.3c1.7,0,3,0.4,3.8,1.3c0.6,0.7,1.1,2,1.5,3.8
				c0.1,0.7,0.2,1.4,0.2,2c0,1.4-0.3,2.5-1,3.4c-1,1.3-2.5,2-4.5,1.9c-1.8-0.1-3.2-0.5-4.1-1.4S120.2,12.1,120.2,10.3z M127.1,7.5
				c-0.5-0.5-1.1-0.8-1.5-0.8c-0.6,0-1.1,0.4-1.6,1.2c-0.4,0.7-0.7,1.4-0.7,2c0,0.6,0.2,1.3,0.6,1.9c0.5,0.7,1,1.1,1.6,1.1
				c0.7,0,1.3-0.4,1.9-1.1c0.5-0.7,0.8-1.4,0.8-2.1C128.1,9,127.8,8.2,127.1,7.5z"/>
			<path d="M130.7,14.4l1.4-3.1c1.8,1.1,3.1,1.7,4.1,1.7c0.3,0,0.7-0.1,1-0.3c0.4-0.2,0.5-0.5,0.5-0.8c0-0.5-0.7-0.9-2-1.2
				c-1.9-0.5-3.2-1.5-3.8-3c-0.2-0.5-0.3-1-0.3-1.4c0-0.9,0.5-1.7,1.4-2.4c0.8-0.6,2-0.9,3.5-0.9c1.1,0,2.4,0.1,3.9,0.4l-1,3
				c-1.1-0.5-2.1-0.8-2.8-0.8c-0.3,0-0.7,0.1-1,0.2c-0.4,0.2-0.6,0.4-0.6,0.7c0,0.3,0.3,0.6,0.8,0.9c0.3,0.2,1,0.5,2,0.9
				c0.8,0.3,1.5,0.7,1.8,1c0.5,0.5,0.8,1.1,0.9,1.9c0.1,1.3-0.6,2.5-1.9,3.6c-0.5,0.5-1.3,0.7-2.4,0.7
				C134.9,15.7,133.1,15.2,130.7,14.4z"/>
		</g>
	</g>
</g>
</svg>
