<?xml version="1.0" encoding="utf-8"?>
<!-- Generator: Adobe Illustrator 21.0.0, SVG Export Plug-In . SVG Version: 6.00 Build 0)  -->
<svg version="1.1" id="Capa_1" xmlns="http://www.w3.org/2000/svg" xmlns:xlink="http://www.w3.org/1999/xlink" x="0px" y="0px"
	 viewBox="0 0 200 61.3" style="enable-background:new 0 0 200 61.3;" xml:space="preserve">
<style type="text/css">
	.st0{opacity:0.2;fill-rule:evenodd;clip-rule:evenodd;}
	.st1{fill-rule:evenodd;clip-rule:evenodd;fill:#FFFFFF;}
	.st2{fill-rule:evenodd;clip-rule:evenodd;fill:#E6E6E6;}
</style>
<g>
	<path class="st0" d="M6.3,8.6c-8.3,8.3-8.3,38.3,0,46.6c8.2,8.2,179.4,8.2,187.6,0c8.3-8.3,8.3-38.3,0-46.6
		C185.3,0.3,14.7,0.3,6.3,8.6z"/>
	<path class="st1" d="M6.3,6.3c-8.3,8.3-8.3,38.3,0,46.6c8.2,8.2,179.4,8.2,187.6,0c8.3-8.3,8.3-38.3,0-46.6
		C185.3-2.1,14.7-2.1,6.3,6.3z"/>
	<path class="st2" d="M6.2,51.5C2.2,47.5,0.1,38.3,0,29c-0.1,9.8,2,19.6,6.2,23.9c8.2,8.2,179.3,8.2,187.6,0
		c4.2-4.2,6.3-14.1,6.2-23.9c-0.1,9.3-2.2,18.5-6.2,22.6C185.6,59.7,14.4,59.7,6.2,51.5z"/>
</g>
</svg>
