<?xml version="1.0" encoding="utf-8"?>
<!-- Generator: Adobe Illustrator 21.0.0, SVG Export Plug-In . SVG Version: 6.00 Build 0)  -->
<svg version="1.1" id="Capa_1" xmlns="http://www.w3.org/2000/svg" xmlns:xlink="http://www.w3.org/1999/xlink" x="0px" y="0px"
	 viewBox="0 0 40.8 40.8" style="enable-background:new 0 0 40.8 40.8;" xml:space="preserve">
<style type="text/css">
	.st0{fill-rule:evenodd;clip-rule:evenodd;fill:#5CA8F0;}
	.st1{fill:#FFFFFF;}
</style>
<g>
	<path class="st0" d="M4.4,4.3c-5.8,5.7-5.8,26.5,0,32.2c5.8,5.7,26.3,5.7,32.1,0c5.8-5.7,5.8-26.5,0-32.2
		C30.5-1.4,10.3-1.4,4.4,4.3z"/>
	<g>
		<g>
			<path class="st1" d="M11.8,22c-0.2,0-0.4-0.1-0.4-0.3v12.8h9.2l1-5.4c3.5-0.8,6.1-3.5,6.1-6.7c0-0.1,0-0.3,0-0.4H11.8z"/>
			<path class="st1" d="M29.4,21c0,0.2-0.2,0.3-0.4,0.3H11.8c-0.2,0-0.4-0.1-0.4-0.3v-1.4c0-0.2,0.2-0.3,0.4-0.3H29
				c0.2,0,0.4,0.1,0.4,0.3V21z"/>
			<path class="st1" d="M29.4,18.2c0-0.2-0.2-0.4-0.4-0.4H11.8c-0.2,0-0.4,0.2-0.4,0.4l0,0c0,0.2,0.2,0.4,0.4,0.4H29
				C29.2,18.6,29.4,18.4,29.4,18.2L29.4,18.2z"/>
			<path class="st1" d="M16.9,18.1c0,0.3-0.2,0.5-0.5,0.5h-4.5c-0.3,0-0.5-0.2-0.5-0.5V6.9c0-0.3,0.2-0.5,0.5-0.5h4.6
				c0.3,0,0.5,0.2,0.5,0.5L16.9,18.1z"/>
		</g>
	</g>
</g>
</svg>
