<?xml version="1.0" encoding="utf-8"?>
<!-- Generator: Adobe Illustrator 21.0.0, SVG Export Plug-In . SVG Version: 6.00 Build 0)  -->
<svg version="1.1" id="Capa_1" xmlns="http://www.w3.org/2000/svg" xmlns:xlink="http://www.w3.org/1999/xlink" x="0px" y="0px"
	 viewBox="0 0 64 64" style="enable-background:new 0 0 64 64;" xml:space="preserve">
<style type="text/css">
	.st0{opacity:0.2;fill-rule:evenodd;clip-rule:evenodd;}
	.st1{fill-rule:evenodd;clip-rule:evenodd;fill:#FFFFFF;}
	.st2{fill-rule:evenodd;clip-rule:evenodd;fill:#00A5F5;}
	.st3{fill-rule:evenodd;clip-rule:evenodd;fill:#003280;}
	.st4{fill-rule:evenodd;clip-rule:evenodd;fill:#0059E1;}
	.st5{fill-rule:evenodd;clip-rule:evenodd;fill:#00CFFF;}
	.st6{fill-rule:evenodd;clip-rule:evenodd;fill:#93D5FA;}
	.st7{fill-rule:evenodd;clip-rule:evenodd;fill:#E6E6E6;}
	.st8{fill:#FFFFFF;}
	.st9{fill:#42210B;}
	.st10{fill:#9BCAF5;}
	.st11{fill:#3F8DDF;}
	.st12{fill:#2C6BBB;}
	.st13{fill:#5CA8F0;}
	.st14{fill:#8C6239;}
</style>
<g>
	<g>
		<path class="st0" d="M6.9,9c-9.1,8.6-9.2,39.9,0,48.6c9,8.6,41.3,8.6,50.3,0c9.1-8.7,9.1-39.9,0-48.6C47.9,0.3,16.1,0.3,6.9,9z"/>
		<path class="st1" d="M6.9,6.5c-9.1,8.6-9.2,39.9,0,48.6c9,8.6,41.3,8.6,50.3,0c9.1-8.7,9.1-39.9,0-48.6C47.9-2.2,16.1-2.2,6.9,6.5
			z"/>
		<path class="st2" d="M9.2,7.3c-8.3,7.8-8.3,36.2,0,44c8.2,7.8,37.4,7.8,45.6,0c8.3-7.8,8.2-36.2,0-44C46.4-0.6,17.6-0.6,9.2,7.3z"
			/>
		<path class="st3" d="M54.8,45.4c-8.2,7.8-37.4,7.8-45.6,0c-3.7-3.5-5.7-11-6.1-19C2.6,36.3,4.6,47,9.2,51.3
			c8.2,7.8,37.4,7.8,45.6,0c4.6-4.3,6.6-15,6.1-24.9C60.5,34.4,58.5,41.9,54.8,45.4z"/>
		<path class="st4" d="M6.6,41.7c0.8,1.5,1.6,2.7,2.6,3.6c8.2,7.8,37.4,7.8,45.6,0c3.2-3,5.1-9,5.8-15.7
			C45.3,40.4,27.3,44.3,6.6,41.7z"/>
		<path class="st5" d="M9.2,7.3C6.8,9.6,5,13.8,4,18.7c14.3-14.2,43.1-16.4,55.2-3c-1-3.6-2.5-6.6-4.5-8.4
			C46.4-0.6,17.6-0.6,9.2,7.3z"/>
		<path class="st6" d="M15.8,5.4c-3.5,0.9-6.4,3.3-6.4,5.1c0,1.9,2.9,2.7,6.4,1.7c3.5-0.9,6.4-3.3,6.4-5.1
			C22.1,5.2,19.3,4.4,15.8,5.4z"/>
		<path class="st6" d="M26.3,2.8c-2,0.1-3.8,1-4,2c-0.2,1,1.2,1.7,3.2,1.6c2-0.1,3.8-1,4-2C29.7,3.4,28.3,2.7,26.3,2.8z"/>
		<path class="st6" d="M50.6,41.1c-2.2,1-3.8,2.9-3.6,4.1c0.2,1.3,2.2,1.5,4.4,0.4c2.2-1,3.8-2.9,3.6-4.1
			C54.8,40.3,52.8,40.1,50.6,41.1z"/>
		<path class="st6" d="M60.7,29.7c-0.7,6.7-2.7,12.7-5.8,15.7c-8.2,7.8-37.4,7.8-45.6,0c-1-0.9-1.9-2.2-2.6-3.6
			c-2-3.9-3.2-9.5-3.5-15.4C3,27.5,3,28.7,3,29.9c0-0.8,0-1.6,0.1-2.4c0.4,8,2.4,15.5,6.1,19c8.2,7.8,37.4,7.8,45.6,0
			c3.7-3.5,5.7-11,6.1-19c0,0.8,0.1,1.6,0.1,2.4c0-1.2,0-2.3-0.1-3.5C60.9,27.5,60.8,28.6,60.7,29.7z"/>
		<path class="st7" d="M6.8,53.8C2.4,49.6,0.1,39.9,0,30.2c-0.1,10.2,2.2,20.5,6.8,24.9c9,8.6,41.3,8.6,50.3,0
			c4.7-4.4,6.9-14.7,6.8-24.9c-0.1,9.7-2.4,19.3-6.8,23.6C48.1,62.3,15.9,62.3,6.8,53.8z"/>
	</g>
	<g>
		<polygon class="st8" points="11.4,42.4 11.4,23.3 10.8,23.6 7.5,19.5 32.4,5.1 57.3,19.5 54,23.6 53.4,23.3 53.4,42.4 		"/>
		<polygon class="st9" points="32.4,7.3 32.4,7.3 32.4,7.3 10.4,20 11.3,21.2 13.3,20 13.3,40.5 51.5,40.5 51.5,20 53.5,21.2 
			54.5,20 		"/>
		<rect x="14.9" y="20.3" class="st10" width="19.5" height="8.5"/>
		<rect x="14.9" y="30.1" class="st11" width="17.4" height="9"/>
		<rect x="33.9" y="30.1" class="st12" width="16" height="9"/>
		<rect x="36" y="20.3" class="st13" width="13.9" height="8.5"/>
		<polygon class="st14" points="14.9,19 32.4,8.9 49.9,19 		"/>
	</g>
</g>
</svg>
