<?xml version="1.0" encoding="utf-8"?>
<!-- Generator: Adobe Illustrator 21.0.0, SVG Export Plug-In . SVG Version: 6.00 Build 0)  -->
<svg version="1.1" id="Capa_1" xmlns="http://www.w3.org/2000/svg" xmlns:xlink="http://www.w3.org/1999/xlink" x="0px" y="0px"
	 viewBox="0 0 64 64" style="enable-background:new 0 0 64 64;" xml:space="preserve">
<style type="text/css">
	.st0{opacity:0.2;fill-rule:evenodd;clip-rule:evenodd;}
	.st1{fill-rule:evenodd;clip-rule:evenodd;fill:#FFFFFF;}
	.st2{fill-rule:evenodd;clip-rule:evenodd;fill:#00A5F5;}
	.st3{fill-rule:evenodd;clip-rule:evenodd;fill:#003280;}
	.st4{fill-rule:evenodd;clip-rule:evenodd;fill:#0059E1;}
	.st5{fill-rule:evenodd;clip-rule:evenodd;fill:#00CFFF;}
	.st6{fill-rule:evenodd;clip-rule:evenodd;fill:#93D5FA;}
	.st7{fill-rule:evenodd;clip-rule:evenodd;fill:#E6E6E6;}
	.st8{fill:#FFFFFF;}
	.st9{fill:#00A5F5;}
	.st10{fill:#4D4D4D;}
	.st11{fill:#FFAC04;}
</style>
<g>
	<g>
		<path class="st0" d="M6.9,9c-9.1,8.6-9.2,39.9,0,48.6c9,8.6,41.3,8.6,50.3,0c9.1-8.7,9.1-39.9,0-48.6C47.9,0.3,16.1,0.3,6.9,9z"/>
		<path class="st1" d="M6.9,6.5c-9.1,8.6-9.2,39.9,0,48.6c9,8.6,41.3,8.6,50.3,0c9.1-8.7,9.1-39.9,0-48.6C47.9-2.2,16.1-2.2,6.9,6.5
			z"/>
		<path class="st2" d="M9.2,7.3c-8.3,7.8-8.3,36.2,0,44c8.2,7.8,37.4,7.8,45.6,0c8.3-7.8,8.2-36.2,0-44C46.4-0.6,17.6-0.6,9.2,7.3z"
			/>
		<path class="st3" d="M54.8,45.4c-8.2,7.8-37.4,7.8-45.6,0c-3.7-3.5-5.7-11-6.1-19C2.6,36.3,4.6,47,9.2,51.3
			c8.2,7.8,37.4,7.8,45.6,0c4.6-4.3,6.6-15,6.1-24.9C60.5,34.4,58.5,41.9,54.8,45.4z"/>
		<path class="st4" d="M6.6,41.7c0.8,1.5,1.6,2.7,2.6,3.6c8.2,7.8,37.4,7.8,45.6,0c3.2-3,5.1-9,5.8-15.7
			C45.3,40.4,27.3,44.3,6.6,41.7z"/>
		<path class="st5" d="M9.2,7.3C6.8,9.6,5,13.8,4,18.7c14.3-14.2,43.1-16.4,55.2-3c-1-3.6-2.5-6.6-4.5-8.4
			C46.4-0.6,17.6-0.6,9.2,7.3z"/>
		<path class="st6" d="M15.8,5.4c-3.5,0.9-6.4,3.3-6.4,5.1c0,1.9,2.9,2.7,6.4,1.7c3.5-0.9,6.4-3.3,6.4-5.1
			C22.1,5.2,19.3,4.4,15.8,5.4z"/>
		<path class="st6" d="M26.3,2.8c-2,0.1-3.8,1-4,2c-0.2,1,1.2,1.7,3.2,1.6c2-0.1,3.8-1,4-2C29.7,3.4,28.3,2.7,26.3,2.8z"/>
		<path class="st6" d="M50.6,41.1c-2.2,1-3.8,2.9-3.6,4.1c0.2,1.3,2.2,1.5,4.4,0.4c2.2-1,3.8-2.9,3.6-4.1
			C54.8,40.3,52.8,40.1,50.6,41.1z"/>
		<path class="st6" d="M60.7,29.7c-0.7,6.7-2.7,12.7-5.8,15.7c-8.2,7.8-37.4,7.8-45.6,0c-1-0.9-1.9-2.2-2.6-3.6
			c-2-3.9-3.2-9.5-3.5-15.4C3,27.5,3,28.7,3,29.9c0-0.8,0-1.6,0.1-2.4c0.4,8,2.4,15.5,6.1,19c8.2,7.8,37.4,7.8,45.6,0
			c3.7-3.5,5.7-11,6.1-19c0,0.8,0.1,1.6,0.1,2.4c0-1.2,0-2.3-0.1-3.5C60.9,27.5,60.8,28.6,60.7,29.7z"/>
		<path class="st7" d="M6.8,53.8C2.4,49.6,0.1,39.9,0,30.2c-0.1,10.2,2.2,20.5,6.8,24.9c9,8.6,41.3,8.6,50.3,0
			c4.7-4.4,6.9-14.7,6.8-24.9c-0.1,9.7-2.4,19.3-6.8,23.6C48.1,62.3,15.9,62.3,6.8,53.8z"/>
	</g>
	<g>
		<path class="st8" d="M48.9,7.6L46.2,9c-0.6,0.3-0.9,0.9-0.8,1.5c0,0,0,0,0,0l-1.1,1.3c-6.4,3.3-9.1,11-6.5,17.6
			c-1.3-1.9-3.3-3.3-5.3-4.6c-0.5-0.3-1-0.6-1.4-0.9c-2.9-1.8-4-2.5-5.6-4.7c-0.4-0.6-1.2-0.8-1.9-0.5l0,0c-0.7,0.3-1,1.1-0.8,1.8
			c0.8,2.6,0.7,3.9,0.4,7.5c0,0.5-0.1,0.9-0.1,1.5C23,30.1,23,31.1,23,32.2c-0.1-0.1-0.3-0.3-0.5-0.4c0-0.2,0-0.5,0-0.7
			c-0.1-0.7-0.6-1.2-1.1-1.6c0-0.2,0-0.5,0-0.7c-0.1-0.7-0.6-1.2-1.1-1.6c0-0.2,0-0.5,0-0.7c-0.1-0.6-0.5-1.2-1-1.5
			c-0.5-0.4-1.2-0.5-1.8-0.3l-3.3,0.7c-0.7-0.8-1.9-1.1-2.9-0.6c-0.1,0.1-0.2,0.1-0.3,0.2c-0.5,0.4-0.9,0.9-1,1.6
			c-0.1,0.6,0,1.3,0.4,1.8l0.2,0.3l-0.7,0.2c-0.2,0-0.4,0.1-0.6,0.2c-1,0.5-1.5,1.6-1.3,2.7c0.1,0.6,0.5,1.2,1,1.5c0,0,0,0,0.1,0
			c0,0.2,0,0.5,0,0.7c0.1,0.7,0.6,1.2,1.1,1.6c0,0.2,0,0.5,0,0.7c0.1,0.7,0.6,1.2,1.1,1.6c0,0.1,0,0.2,0,0.3c0,0.6,0.3,1.2,0.7,1.7
			c0.5,0.5,1.1,0.7,1.7,0.7l0.6,0c-0.2,0.4-0.2,0.9,0,1.3l0.8,1.7c0.7,1.3,1.9,2.1,3.3,2.3c0,0,0,0.1,0,0.1l0.2,0.4
			c0,0.1,0.1,0.1,0.1,0.2c0,0.1,0.1,0.2,0.2,0.3c0.6,0.7,1.4,1,2.1,0.9c0.6,0.3,1.4,0.3,2,0l0,0c0.7-0.3,1.1-0.9,1.3-1.6
			c0.6-0.4,0.8-1.3,0.6-2.2c0-0.1-0.1-0.3-0.2-0.4c0-0.1,0-0.1-0.1-0.2l-0.2-0.4c0,0,0-0.1,0-0.1c0.7-1.2,0.8-2.7,0.2-4l-0.3-0.6
			c0.1,0.2,0.3,0.5,0.4,0.7c2,2.9,6.1,4.7,10.3,2.7c2.5-1.3,3.9-3.3,4.3-5.5l0.1,0.1c0.4,0.7,1.3,1,2,0.7l10.3-5.1
			c0.7-0.4,1-1.3,0.7-2L50.9,27c-0.3-0.6-0.9-0.9-1.5-0.8c0,0,0,0,0,0l-1.3-1.1c-0.4-1.2,0-2.6,1.1-3.3l1.6-0.1c0,0,0,0,0,0
			c0.4,0.4,1.1,0.5,1.7,0.2l2.7-1.4c0.7-0.4,1-1.3,0.7-2L50.9,8.3C50.6,7.5,49.6,7.2,48.9,7.6z"/>
		<g>
			<path class="st9" d="M31.6,26c-3.9-2.5-5.4-3.2-7.4-6c1,3.3,0.7,4.8,0.4,9.5c-0.2,2.4-0.4,6,1.3,8.5c1.7,2.5,5.1,3.8,8.3,2.2
				c3.3-1.6,4.2-5.1,3.3-8C36.6,29.3,33.7,27.3,31.6,26z M26.4,33.6c0.3-0.2,0.7,0,0.9,0.3c0.2,0.3,0,0.7-0.3,0.9
				c-0.3,0.2-0.7,0-0.9-0.3C25.9,34.2,26,33.8,26.4,33.6z M34,38.8c-2.7,1.4-6.1,0.2-7.4-2.5c-0.2-0.3,0-0.7,0.3-0.9
				c0.3-0.2,0.7,0,0.9,0.3c1,2.1,3.6,3,5.7,1.9c0.3-0.2,0.7,0,0.9,0.3C34.4,38.3,34.3,38.6,34,38.8z"/>
			<path class="st10" d="M40.6,35.5l10.3-5.1l-1.4-2.7l-10.3,5.1L40.6,35.5z M46.8,10.3l5.1,10.3l2.7-1.4L49.6,8.9L46.8,10.3z
				 M45.2,12.9C39,16,36.5,23.5,39.6,29.7l0,0l0.1,2l8.8-4.4L46.9,26l0,0c-1.1-2.1-0.2-4.7,1.9-5.8l0,0l2-0.1l-4.4-8.8L45.2,12.9z
				 M47.7,19.8c-2.1,1-3,3.6-1.9,5.7c0.2,0.3,0,0.7-0.3,0.9c-0.3,0.2-0.7,0-0.9-0.3c-1.4-2.7-0.2-6.1,2.5-7.4c0.3-0.2,0.7,0,0.9,0.3
				C48.1,19.3,48,19.7,47.7,19.8z"/>
			<g>
				<path class="st11" d="M23.3,44.7L20.6,46c-0.1,0.1-0.4-0.2-0.5-0.3l3.3-1.6C23.4,44.2,23.5,44.6,23.3,44.7z"/>
				
					<rect x="19.3" y="43.6" transform="matrix(0.8958 -0.4444 0.4444 0.8958 -17.2759 13.9851)" class="st11" width="3.7" height="0.4"/>
				
					<rect x="19.6" y="44.3" transform="matrix(0.8958 -0.4444 0.4444 0.8958 -17.522 14.1885)" class="st11" width="3.7" height="0.4"/>
				<path class="st11" d="M22.3,46.1c-0.3,0.2-0.7,0.1-1-0.1l1.5-0.7C22.8,45.6,22.7,45.9,22.3,46.1z"/>
				<path class="st11" d="M19.8,29.1c0.1,0.5-0.2,1-0.7,1.1L10.4,32c-0.2,0-0.5,0-0.7-0.1c-0.2-0.1-0.3-0.3-0.4-0.6
					c-0.1-0.4,0.1-0.8,0.5-1c0.1,0,0.1-0.1,0.2-0.1l8.7-1.8C19.3,28.3,19.7,28.6,19.8,29.1z"/>
				<path class="st11" d="M18,27.9l-4.8,1c-0.4,0.1-0.7-0.1-0.9-0.4l-0.8-1.1c-0.1-0.2-0.2-0.4-0.2-0.7c0-0.2,0.2-0.4,0.4-0.6
					c0,0,0.1-0.1,0.1-0.1c0.4-0.2,0.9-0.1,1.1,0.3l0.4,0.6l4.2-0.9c0.2,0,0.5,0,0.7,0.1c0.2,0.1,0.3,0.3,0.4,0.6
					C18.8,27.3,18.5,27.8,18,27.9z"/>
				<path class="st11" d="M20.6,37.8L19,38.6l-1-1.9c-0.1-0.2-0.1-0.4-0.1-0.7l0.2-0.6l-5.4,1.1c-0.5,0.1-1-0.2-1.1-0.7
					c-0.1-0.5,0.2-1,0.7-1.1L21,33c0.4-0.1,0.8,0.1,1,0.5c0.2,0.4,0.1,0.8-0.2,1.1l-2,1.9L20.6,37.8z"/>
				<path class="st11" d="M11,32.6c0.1,0,0.1-0.1,0.2-0.1l8.7-1.8c0.5-0.1,1,0.2,1.1,0.7c0.1,0.5-0.2,1-0.7,1.1l-8.7,1.8
					c-0.5,0.1-1-0.2-1.1-0.7C10.4,33.2,10.6,32.8,11,32.6z"/>
				<path class="st11" d="M13.7,37.2l3.3,0c0.3,0,0.7,0.2,0.8,0.5l0.6,1.3l-1.6,0.8L16.4,39l-2.7,0c-0.5,0-0.9-0.4-0.9-0.9
					C12.8,37.6,13.2,37.2,13.7,37.2z"/>
				<path class="st11" d="M22.4,37.7l-6.8,3.4l0.8,1.7c0.6,1.3,2.2,1.8,3.4,1.2l2.3-1.1c1.2-0.6,1.7-2.2,1.1-3.4L22.4,37.7z
					 M22.5,39.4c0.6,1.2,0.1,2.7-1.1,3.3c-0.1,0.1-0.3,0-0.4-0.1c-0.1-0.1,0-0.3,0.1-0.4c0.9-0.5,1.3-1.6,0.8-2.5
					c-0.1-0.1,0-0.3,0.1-0.4C22.2,39.2,22.4,39.2,22.5,39.4z"/>
			</g>
		</g>
	</g>
</g>
</svg>
