<?xml version="1.0" encoding="utf-8"?>
<!-- Generator: Adobe Illustrator 21.0.0, SVG Export Plug-In . SVG Version: 6.00 Build 0)  -->
<svg version="1.1" id="Capa_1" xmlns="http://www.w3.org/2000/svg" xmlns:xlink="http://www.w3.org/1999/xlink" x="0px" y="0px"
	 viewBox="0 0 51 35.7" style="enable-background:new 0 0 51 35.7;" xml:space="preserve">
<style type="text/css">
	.st0{fill:#BF0E20;}
	.st1{clip-path:url(#SVGID_2_);}
	.st2{fill:#ED4860;}
	.st3{fill:#840013;}
	.st4{fill:#A67C52;}
	.st5{fill-rule:evenodd;clip-rule:evenodd;fill:#754C24;}
</style>
<g>
	<polygon class="st0" points="25.5,0 2.3,31.8 48.7,31.8 	"/>
	<g>
		<defs>
			<polygon id="SVGID_1_" points="25.5,2.6 5.4,30.4 45.6,30.4 			"/>
		</defs>
		<clipPath id="SVGID_2_">
			<use xlink:href="#SVGID_1_"  style="overflow:visible;"/>
		</clipPath>
		<g class="st1">
			<g>
				<g>
					<path class="st2" d="M71.8,29c-0.6,0.4-1.3,0.8-2.4,0.8c-1.4,0-2.1-0.5-2.7-0.9c-0.6-0.4-1.1-0.8-2.2-0.8
						c-1.1,0-1.6,0.4-2.2,0.8c-0.6,0.4-1.3,0.9-2.7,0.9c-1.4,0-2.1-0.5-2.7-0.9c-0.6-0.4-1.1-0.8-2.2-0.8c-1.1,0-1.6,0.4-2.2,0.8
						c-0.6,0.4-1.3,0.9-2.7,0.9s-2.1-0.5-2.7-0.9C46.5,28.4,46,28,44.9,28c-1.1,0-1.6,0.4-2.2,0.8c-0.6,0.4-1.3,0.9-2.7,0.9
						s-2.1-0.5-2.7-0.9c-0.6-0.4-1.1-0.8-2.2-0.8c-1.1,0-1.6,0.4-2.2,0.8c-0.6,0.4-1.3,0.9-2.7,0.9c-1.4,0-2.1-0.5-2.7-0.9
						c-0.6-0.4-1.1-0.8-2.2-0.8c-1.1,0-1.6,0.4-2.2,0.8c-0.6,0.4-1.3,0.9-2.7,0.9c-1.4,0-2.1-0.5-2.7-0.9c-0.6-0.4-1.1-0.8-2.2-0.8
						c-1.1,0-1.6,0.4-2.2,0.8c-0.6,0.4-1.3,0.9-2.7,0.9s-2.1-0.5-2.7-0.9C7.2,28.4,6.7,28,5.6,28c-1.1,0-1.6,0.4-2.2,0.8
						c-0.6,0.4-1.3,0.9-2.7,0.9s-2.1-0.5-2.7-0.9C-2.6,28.4-3.1,28-4.2,28c-1.1,0-1.6,0.4-2.2,0.8c-0.6,0.4-1.3,0.9-2.7,0.9
						s-2.1-0.5-2.7-0.9c-0.6-0.4-1.1-0.8-2.2-0.8c-1.1,0-1.6,0.4-2.2,0.8c-0.6,0.4-1.3,0.9-2.7,0.9c-0.9,0-1.5-0.2-2-0.5l0.3-0.6
						c0.4,0.3,0.9,0.4,1.7,0.4c1.1,0,1.6-0.4,2.2-0.8c0.6-0.4,1.3-0.9,2.7-0.9c1.4,0,2.1,0.5,2.7,0.9c0.6,0.4,1.1,0.8,2.2,0.8
						c1.1,0,1.6-0.4,2.2-0.8c0.6-0.4,1.3-0.9,2.7-0.9s2.1,0.5,2.7,0.9c0.6,0.4,1.1,0.8,2.2,0.8c1.1,0,1.6-0.4,2.2-0.8
						c0.6-0.4,1.3-0.9,2.7-0.9s2.1,0.5,2.7,0.9c0.6,0.4,1.1,0.8,2.2,0.8c1.1,0,1.6-0.4,2.2-0.8c0.6-0.4,1.3-0.9,2.7-0.9
						s2.1,0.5,2.7,0.9c0.6,0.4,1.1,0.8,2.2,0.8c1.1,0,1.6-0.4,2.2-0.8c0.6-0.4,1.3-0.9,2.7-0.9c1.4,0,2.1,0.5,2.7,0.9
						c0.6,0.4,1.1,0.8,2.2,0.8c1.1,0,1.6-0.4,2.2-0.8c0.6-0.4,1.3-0.9,2.7-0.9c1.4,0,2.1,0.5,2.7,0.9c0.6,0.4,1.1,0.8,2.2,0.8
						c1.1,0,1.6-0.4,2.2-0.8c0.6-0.4,1.3-0.9,2.7-0.9c1.4,0,2.1,0.5,2.7,0.9c0.6,0.4,1.1,0.8,2.2,0.8c1.1,0,1.6-0.4,2.2-0.8
						c0.6-0.4,1.3-0.9,2.7-0.9c1.4,0,2.1,0.5,2.7,0.9c0.6,0.4,1.1,0.8,2.2,0.8c1.1,0,1.6-0.4,2.2-0.8c0.6-0.4,1.3-0.9,2.7-0.9
						c1.4,0,2.1,0.5,2.7,0.9c0.6,0.4,1.1,0.8,2.2,0.8c1,0,1.6-0.3,2.1-0.7L71.8,29z"/>
				</g>
				<g>
					<path class="st2" d="M70.2,26c-0.2,0-0.5,0.1-0.7,0.1c-1.4,0-2.1-0.5-2.7-0.9c-0.6-0.4-1.1-0.8-2.2-0.8c-1.1,0-1.6,0.4-2.2,0.8
						C61.7,25.5,61,26,59.6,26c-1.4,0-2.1-0.5-2.7-0.9c-0.6-0.4-1.1-0.8-2.2-0.8c-1.1,0-1.6,0.4-2.2,0.8c-0.6,0.4-1.3,0.9-2.7,0.9
						s-2.1-0.5-2.7-0.9c-0.6-0.4-1.1-0.8-2.2-0.8c-1.1,0-1.6,0.4-2.2,0.8C42,25.5,41.3,26,40,26s-2.1-0.5-2.7-0.9
						c-0.6-0.4-1.1-0.8-2.2-0.8c-1.1,0-1.6,0.4-2.2,0.8c-0.6,0.4-1.3,0.9-2.7,0.9c-1.4,0-2.1-0.5-2.7-0.9c-0.6-0.4-1.1-0.8-2.2-0.8
						c-1.1,0-1.6,0.4-2.2,0.8c-0.6,0.4-1.3,0.9-2.7,0.9c-1.4,0-2.1-0.5-2.7-0.9c-0.6-0.4-1.1-0.8-2.2-0.8c-1.1,0-1.6,0.4-2.2,0.8
						c-0.6,0.4-1.3,0.9-2.7,0.9s-2.1-0.5-2.7-0.9c-0.6-0.4-1.1-0.8-2.2-0.8c-1.1,0-1.6,0.4-2.2,0.8C2.8,25.5,2.1,26,0.7,26
						s-2.1-0.5-2.7-0.9c-0.6-0.4-1.1-0.8-2.2-0.8c-1.1,0-1.6,0.4-2.2,0.8C-7,25.5-7.7,26-9.1,26s-2.1-0.5-2.7-0.9
						c-0.6-0.4-1.1-0.8-2.2-0.8c-1.1,0-1.6,0.4-2.2,0.8c-0.6,0.4-1.3,0.9-2.7,0.9c0,0-0.1,0-0.1,0l0.3-0.6c1,0,1.4-0.4,2-0.8
						c0.6-0.4,1.3-0.9,2.7-0.9c1.4,0,2.1,0.5,2.7,0.9c0.6,0.4,1.1,0.8,2.2,0.8c1.1,0,1.6-0.4,2.2-0.8c0.6-0.4,1.3-0.9,2.7-0.9
						s2.1,0.5,2.7,0.9c0.6,0.4,1.1,0.8,2.2,0.8c1.1,0,1.6-0.4,2.2-0.8c0.6-0.4,1.3-0.9,2.7-0.9s2.1,0.5,2.7,0.9
						c0.6,0.4,1.1,0.8,2.2,0.8c1.1,0,1.6-0.4,2.2-0.8c0.6-0.4,1.3-0.9,2.7-0.9s2.1,0.5,2.7,0.9c0.6,0.4,1.1,0.8,2.2,0.8
						c1.1,0,1.6-0.4,2.2-0.8c0.6-0.4,1.3-0.9,2.7-0.9c1.4,0,2.1,0.5,2.7,0.9c0.6,0.4,1.1,0.8,2.2,0.8c1.1,0,1.6-0.4,2.2-0.8
						c0.6-0.4,1.3-0.9,2.7-0.9c1.4,0,2.1,0.5,2.7,0.9c0.6,0.4,1.1,0.8,2.2,0.8c1.1,0,1.6-0.4,2.2-0.8c0.6-0.4,1.3-0.9,2.7-0.9
						c1.4,0,2.1,0.5,2.7,0.9c0.6,0.4,1.1,0.8,2.2,0.8c1.1,0,1.6-0.4,2.2-0.8c0.6-0.4,1.3-0.9,2.7-0.9c1.4,0,2.1,0.5,2.7,0.9
						c0.6,0.4,1.1,0.8,2.2,0.8c1.1,0,1.6-0.4,2.2-0.8c0.6-0.4,1.3-0.9,2.7-0.9c1.4,0,2.1,0.5,2.7,0.9c0.6,0.4,1.1,0.8,2.2,0.8
						c0.2,0,0.3,0,0.4,0L70.2,26z"/>
				</g>
				<g>
					<path class="st2" d="M68,22c-0.5-0.2-0.9-0.5-1.3-0.7c-0.6-0.4-1.1-0.8-2.2-0.8c-1.1,0-1.6,0.4-2.2,0.8
						c-0.6,0.4-1.3,0.9-2.7,0.9c-1.4,0-2.1-0.5-2.7-0.9c-0.6-0.4-1.1-0.8-2.2-0.8c-1.1,0-1.6,0.4-2.2,0.8c-0.6,0.4-1.3,0.9-2.7,0.9
						s-2.1-0.5-2.7-0.9c-0.6-0.4-1.1-0.8-2.2-0.8c-1.1,0-1.6,0.4-2.2,0.8c-0.6,0.4-1.3,0.9-2.7,0.9s-2.1-0.5-2.7-0.9
						c-0.6-0.4-1.1-0.8-2.2-0.8c-1.1,0-1.6,0.4-2.2,0.8c-0.6,0.4-1.3,0.9-2.7,0.9c-1.4,0-2.1-0.5-2.7-0.9c-0.6-0.4-1.1-0.8-2.2-0.8
						c-1.1,0-1.6,0.4-2.2,0.8c-0.6,0.4-1.3,0.9-2.7,0.9c-1.4,0-2.1-0.5-2.7-0.9c-0.6-0.4-1.1-0.8-2.2-0.8c-1.1,0-1.6,0.4-2.2,0.8
						c-0.6,0.4-1.3,0.9-2.7,0.9s-2.1-0.5-2.7-0.9c-0.6-0.4-1.1-0.8-2.2-0.8c-1.1,0-1.6,0.4-2.2,0.8c-0.6,0.4-1.3,0.9-2.7,0.9
						s-2.1-0.5-2.7-0.9c-0.6-0.4-1.1-0.8-2.2-0.8c-1.1,0-1.6,0.4-2.2,0.8c-0.6,0.4-1.3,0.9-2.7,0.9s-2.1-0.5-2.7-0.9
						c-0.6-0.4-1.1-0.8-2.2-0.8c-1.1,0-1.6,0.4-2.2,0.8c-0.1,0.1-0.2,0.2-0.4,0.3l0.7-1.2c0.5-0.2,1.1-0.4,1.9-0.4
						c1.4,0,2.1,0.5,2.7,0.9c0.6,0.4,1.1,0.8,2.2,0.8c1.1,0,1.6-0.4,2.2-0.8c0.6-0.4,1.3-0.9,2.7-0.9s2.1,0.5,2.7,0.9
						c0.6,0.4,1.1,0.8,2.2,0.8c1.1,0,1.6-0.4,2.2-0.8c0.6-0.4,1.3-0.9,2.7-0.9s2.1,0.5,2.7,0.9c0.6,0.4,1.1,0.8,2.2,0.8
						c1.1,0,1.6-0.4,2.2-0.8c0.6-0.4,1.3-0.9,2.7-0.9s2.1,0.5,2.7,0.9c0.6,0.4,1.1,0.8,2.2,0.8c1.1,0,1.6-0.4,2.2-0.8
						c0.6-0.4,1.3-0.9,2.7-0.9c1.4,0,2.1,0.5,2.7,0.9c0.6,0.4,1.1,0.8,2.2,0.8c1.1,0,1.6-0.4,2.2-0.8c0.6-0.4,1.3-0.9,2.7-0.9
						c1.4,0,2.1,0.5,2.7,0.9c0.6,0.4,1.1,0.8,2.2,0.8c1.1,0,1.6-0.4,2.2-0.8c0.6-0.4,1.3-0.9,2.7-0.9c1.4,0,2.1,0.5,2.7,0.9
						c0.6,0.4,1.1,0.8,2.2,0.8c1.1,0,1.6-0.4,2.2-0.8c0.6-0.4,1.3-0.9,2.7-0.9c1.4,0,2.1,0.5,2.7,0.9c0.6,0.4,1.1,0.8,2.2,0.8
						c1.1,0,1.6-0.4,2.2-0.8c0.6-0.4,1.3-0.9,2.7-0.9c1.4,0,2.1,0.5,2.7,0.9c0.1,0,0.1,0.1,0.2,0.1L68,22z"/>
				</g>
				<g>
					<path class="st2" d="M65,16.8c-0.2,0-0.3,0-0.5,0c-1.1,0-1.6,0.4-2.2,0.8c-0.6,0.4-1.3,0.9-2.7,0.9c-1.4,0-2.1-0.5-2.7-0.9
						c-0.6-0.4-1.1-0.8-2.2-0.8c-1.1,0-1.6,0.4-2.2,0.8c-0.6,0.4-1.3,0.9-2.7,0.9s-2.1-0.5-2.7-0.9c-0.6-0.4-1.1-0.8-2.2-0.8
						c-1.1,0-1.6,0.4-2.2,0.8C42,18,41.3,18.5,40,18.5s-2.1-0.5-2.7-0.9c-0.6-0.4-1.1-0.8-2.2-0.8c-1.1,0-1.6,0.4-2.2,0.8
						c-0.6,0.4-1.3,0.9-2.7,0.9c-1.4,0-2.1-0.5-2.7-0.9c-0.6-0.4-1.1-0.8-2.2-0.8c-1.1,0-1.6,0.4-2.2,0.8c-0.6,0.4-1.3,0.9-2.7,0.9
						c-1.4,0-2.1-0.5-2.7-0.9c-0.6-0.4-1.1-0.8-2.2-0.8c-1.1,0-1.6,0.4-2.2,0.8c-0.6,0.4-1.3,0.9-2.7,0.9S8.5,18,7.8,17.6
						c-0.6-0.4-1.1-0.8-2.2-0.8c-1.1,0-1.6,0.4-2.2,0.8c-0.6,0.4-1.3,0.9-2.7,0.9S-1.3,18-2,17.6c-0.6-0.4-1.1-0.8-2.2-0.8
						c-1.1,0-1.6,0.4-2.2,0.8C-7,18-7.7,18.5-9.1,18.5s-2.1-0.5-2.7-0.9c-0.6-0.4-1.1-0.8-2.1-0.8l0.3-0.6c1.1,0.1,1.7,0.5,2.3,0.9
						c0.6,0.4,1.1,0.8,2.2,0.8c1.1,0,1.6-0.4,2.2-0.8c0.6-0.4,1.3-0.9,2.7-0.9s2.1,0.5,2.7,0.9c0.6,0.4,1.1,0.8,2.2,0.8
						c1.1,0,1.6-0.4,2.2-0.8c0.6-0.4,1.3-0.9,2.7-0.9s2.1,0.5,2.7,0.9c0.6,0.4,1.1,0.8,2.2,0.8c1.1,0,1.6-0.4,2.2-0.8
						c0.6-0.4,1.3-0.9,2.7-0.9s2.1,0.5,2.7,0.9c0.6,0.4,1.1,0.8,2.2,0.8c1.1,0,1.6-0.4,2.2-0.8c0.6-0.4,1.3-0.9,2.7-0.9
						c1.4,0,2.1,0.5,2.7,0.9c0.6,0.4,1.1,0.8,2.2,0.8c1.1,0,1.6-0.4,2.2-0.8c0.6-0.4,1.3-0.9,2.7-0.9c1.4,0,2.1,0.5,2.7,0.9
						c0.6,0.4,1.1,0.8,2.2,0.8c1.1,0,1.6-0.4,2.2-0.8c0.6-0.4,1.3-0.9,2.7-0.9c1.4,0,2.1,0.5,2.7,0.9c0.6,0.4,1.1,0.8,2.2,0.8
						c1.1,0,1.6-0.4,2.2-0.8c0.6-0.4,1.3-0.9,2.7-0.9c1.4,0,2.1,0.5,2.7,0.9c0.6,0.4,1.1,0.8,2.2,0.8c1.1,0,1.6-0.4,2.2-0.8
						c0.6-0.4,1.3-0.9,2.7-0.9c0.1,0,0.1,0,0.2,0L65,16.8z"/>
				</g>
				<g>
					<path class="st2" d="M63.1,13.3c-0.3,0.1-0.5,0.3-0.8,0.5c-0.6,0.4-1.3,0.9-2.7,0.9c-1.4,0-2.1-0.5-2.7-0.9
						c-0.6-0.4-1.1-0.8-2.2-0.8c-1.1,0-1.6,0.4-2.2,0.8c-0.6,0.4-1.3,0.9-2.7,0.9s-2.1-0.5-2.7-0.9C46.5,13.4,46,13,44.9,13
						c-1.1,0-1.6,0.4-2.2,0.8c-0.6,0.4-1.3,0.9-2.7,0.9s-2.1-0.5-2.7-0.9c-0.6-0.4-1.1-0.8-2.2-0.8c-1.1,0-1.6,0.4-2.2,0.8
						c-0.6,0.4-1.3,0.9-2.7,0.9c-1.4,0-2.1-0.5-2.7-0.9c-0.6-0.4-1.1-0.8-2.2-0.8c-1.1,0-1.6,0.4-2.2,0.8c-0.6,0.4-1.3,0.9-2.7,0.9
						c-1.4,0-2.1-0.5-2.7-0.9c-0.6-0.4-1.1-0.8-2.2-0.8c-1.1,0-1.6,0.4-2.2,0.8c-0.6,0.4-1.3,0.9-2.7,0.9s-2.1-0.5-2.7-0.9
						C7.2,13.4,6.7,13,5.6,13c-1.1,0-1.6,0.4-2.2,0.8c-0.6,0.4-1.3,0.9-2.7,0.9s-2.1-0.5-2.7-0.9C-2.6,13.4-3.1,13-4.2,13
						c-1.1,0-1.6,0.4-2.2,0.8c-0.6,0.4-1.3,0.9-2.7,0.9s-2.1-0.5-2.7-0.9c-0.1-0.1-0.2-0.2-0.3-0.2l0.3-0.6c0.2,0.1,0.3,0.2,0.5,0.3
						c0.6,0.4,1.1,0.8,2.2,0.8c1.1,0,1.6-0.4,2.2-0.8c0.6-0.4,1.3-0.9,2.7-0.9s2.1,0.5,2.7,0.9c0.6,0.4,1.1,0.8,2.2,0.8
						c1.1,0,1.6-0.4,2.2-0.8c0.6-0.4,1.3-0.9,2.7-0.9s2.1,0.5,2.7,0.9c0.6,0.4,1.1,0.8,2.2,0.8c1.1,0,1.6-0.4,2.2-0.8
						c0.6-0.4,1.3-0.9,2.7-0.9s2.1,0.5,2.7,0.9c0.6,0.4,1.1,0.8,2.2,0.8c1.1,0,1.6-0.4,2.2-0.8c0.6-0.4,1.3-0.9,2.7-0.9
						c1.4,0,2.1,0.5,2.7,0.9c0.6,0.4,1.1,0.8,2.2,0.8c1.1,0,1.6-0.4,2.2-0.8c0.6-0.4,1.3-0.9,2.7-0.9c1.4,0,2.1,0.5,2.7,0.9
						c0.6,0.4,1.1,0.8,2.2,0.8c1.1,0,1.6-0.4,2.2-0.8c0.6-0.4,1.3-0.9,2.7-0.9c1.4,0,2.1,0.5,2.7,0.9c0.6,0.4,1.1,0.8,2.2,0.8
						c1.1,0,1.6-0.4,2.2-0.8c0.6-0.4,1.3-0.9,2.7-0.9c1.4,0,2.1,0.5,2.7,0.9c0.6,0.4,1.1,0.8,2.2,0.8c1.1,0,1.6-0.4,2.2-0.8
						c0.3-0.2,0.6-0.4,1-0.6L63.1,13.3z"/>
				</g>
				<g>
					<path class="st2" d="M61.6,10.5c-0.5,0.3-1.1,0.5-2,0.5c-1.4,0-2.1-0.5-2.7-0.9c-0.6-0.4-1.1-0.8-2.2-0.8
						c-1.1,0-1.6,0.4-2.2,0.8c-0.6,0.4-1.3,0.9-2.7,0.9s-2.1-0.5-2.7-0.9c-0.6-0.4-1.1-0.8-2.2-0.8c-1.1,0-1.6,0.4-2.2,0.8
						C42,10.5,41.3,11,40,11s-2.1-0.5-2.7-0.9c-0.6-0.4-1.1-0.8-2.2-0.8c-1.1,0-1.6,0.4-2.2,0.8c-0.6,0.4-1.3,0.9-2.7,0.9
						c-1.4,0-2.1-0.5-2.7-0.9c-0.6-0.4-1.1-0.8-2.2-0.8c-1.1,0-1.6,0.4-2.2,0.8c-0.6,0.4-1.3,0.9-2.7,0.9c-1.4,0-2.1-0.5-2.7-0.9
						c-0.6-0.4-1.1-0.8-2.2-0.8c-1.1,0-1.6,0.4-2.2,0.8c-0.6,0.4-1.3,0.9-2.7,0.9s-2.1-0.5-2.7-0.9C7.2,9.6,6.7,9.3,5.6,9.3
						c-1.1,0-1.6,0.4-2.2,0.8C2.8,10.5,2.1,11,0.7,11s-2.1-0.5-2.7-0.9c-0.6-0.4-1.1-0.8-2.2-0.8c-1.1,0-1.6,0.4-2.2,0.8
						C-7,10.5-7.7,11-9.1,11c-0.6,0-1.1-0.1-1.5-0.2l0.3-0.6c0.3,0.1,0.7,0.2,1.1,0.2c1.1,0,1.6-0.4,2.2-0.8
						c0.6-0.4,1.3-0.9,2.7-0.9s2.1,0.5,2.7,0.9c0.6,0.4,1.1,0.8,2.2,0.8c1.1,0,1.6-0.4,2.2-0.8c0.6-0.4,1.3-0.9,2.7-0.9
						s2.1,0.5,2.7,0.9c0.6,0.4,1.1,0.8,2.2,0.8c1.1,0,1.6-0.4,2.2-0.8c0.6-0.4,1.3-0.9,2.7-0.9s2.1,0.5,2.7,0.9
						c0.6,0.4,1.1,0.8,2.2,0.8c1.1,0,1.6-0.4,2.2-0.8c0.6-0.4,1.3-0.9,2.7-0.9c1.4,0,2.1,0.5,2.7,0.9c0.6,0.4,1.1,0.8,2.2,0.8
						c1.1,0,1.6-0.4,2.2-0.8c0.6-0.4,1.3-0.9,2.7-0.9c1.4,0,2.1,0.5,2.7,0.9c0.6,0.4,1.1,0.8,2.2,0.8c1.1,0,1.6-0.4,2.2-0.8
						c0.6-0.4,1.3-0.9,2.7-0.9c1.4,0,2.1,0.5,2.7,0.9c0.6,0.4,1.1,0.8,2.2,0.8c1.1,0,1.6-0.4,2.2-0.8c0.6-0.4,1.3-0.9,2.7-0.9
						c1.4,0,2.1,0.5,2.7,0.9c0.6,0.4,1.1,0.8,2.2,0.8c0.7,0,1.2-0.2,1.6-0.4L61.6,10.5z"/>
				</g>
				<g>
					<path class="st2" d="M59.7,7.2c0,0-0.1,0-0.1,0c-1.4,0-2.1-0.5-2.7-0.9c-0.6-0.4-1.1-0.8-2.2-0.8c-1.1,0-1.6,0.4-2.2,0.8
						c-0.6,0.4-1.3,0.9-2.7,0.9s-2.1-0.5-2.7-0.9c-0.6-0.4-1.1-0.8-2.2-0.8c-1.1,0-1.6,0.4-2.2,0.8C42,6.7,41.3,7.2,40,7.2
						s-2.1-0.5-2.7-0.9c-0.6-0.4-1.1-0.8-2.2-0.8c-1.1,0-1.6,0.4-2.2,0.8c-0.6,0.4-1.3,0.9-2.7,0.9c-1.4,0-2.1-0.5-2.7-0.9
						c-0.6-0.4-1.1-0.8-2.2-0.8c-1.1,0-1.6,0.4-2.2,0.8c-0.6,0.4-1.3,0.9-2.7,0.9c-1.4,0-2.1-0.5-2.7-0.9c-0.6-0.4-1.1-0.8-2.2-0.8
						c-1.1,0-1.6,0.4-2.2,0.8c-0.6,0.4-1.3,0.9-2.7,0.9S8.5,6.7,7.8,6.3C7.2,5.9,6.7,5.5,5.6,5.5C4.6,5.5,4,5.9,3.4,6.3
						C2.8,6.7,2.1,7.2,0.7,7.2S-1.3,6.7-2,6.3c-0.6-0.4-1.1-0.8-2.2-0.8c-1.1,0-1.6,0.4-2.2,0.8c-0.5,0.4-1.1,0.8-2.2,0.9l0.4-0.7
						c0.5-0.1,0.9-0.4,1.3-0.7c0.6-0.4,1.3-0.9,2.7-0.9s2.1,0.5,2.7,0.9c0.6,0.4,1.1,0.8,2.2,0.8c1.1,0,1.6-0.4,2.2-0.8
						c0.6-0.4,1.3-0.9,2.7-0.9s2.1,0.5,2.7,0.9c0.6,0.4,1.1,0.8,2.2,0.8c1.1,0,1.6-0.4,2.2-0.8c0.6-0.4,1.3-0.9,2.7-0.9
						s2.1,0.5,2.7,0.9c0.6,0.4,1.1,0.8,2.2,0.8c1.1,0,1.6-0.4,2.2-0.8c0.6-0.4,1.3-0.9,2.7-0.9c1.4,0,2.1,0.5,2.7,0.9
						c0.6,0.4,1.1,0.8,2.2,0.8c1.1,0,1.6-0.4,2.2-0.8c0.6-0.4,1.3-0.9,2.7-0.9c1.4,0,2.1,0.5,2.7,0.9c0.6,0.4,1.1,0.8,2.2,0.8
						c1.1,0,1.6-0.4,2.2-0.8c0.6-0.4,1.3-0.9,2.7-0.9c1.4,0,2.1,0.5,2.7,0.9c0.6,0.4,1.1,0.8,2.2,0.8c1.1,0,1.6-0.4,2.2-0.8
						c0.6-0.4,1.3-0.9,2.7-0.9c1.4,0,2.1,0.5,2.7,0.9c0.6,0.4,1.1,0.7,2,0.8L59.7,7.2z"/>
				</g>
			</g>
		</g>
	</g>
	<path class="st3" d="M49,35.7H2c-1.1,0-2-0.9-2-2v0c0-1.1,0.9-2,2-2H49c1.1,0,2,0.9,2,2v0C51,34.8,50.1,35.7,49,35.7z"/>
	<g>
		<polygon class="st4" points="38.3,28.4 38.3,31.8 12.7,31.8 12.7,28.4 13.7,27.3 14,27 15.7,25.1 15.9,24.8 17.6,22.9 17.9,22.5 
			19.6,20.6 19.9,20.3 21.6,18.4 21.9,18.1 23.6,16.2 23.9,15.8 25.5,14.1 27.1,15.8 27.3,16.2 29.1,18.1 29.3,18.4 31,20.3 
			31.3,20.6 33,22.5 33.3,22.9 35,24.8 35.3,25.1 37,27 37.3,27.3 		"/>
		<g>
			<rect x="12.7" y="29.3" class="st5" width="25.5" height="0.3"/>
			<polygon class="st5" points="37.3,27.3 13.7,27.3 14,27 37,27 			"/>
			<polygon class="st5" points="35.3,25.1 15.7,25.1 15.9,24.8 35,24.8 			"/>
			<polygon class="st5" points="33.3,22.9 17.6,22.9 17.9,22.5 33,22.5 			"/>
			<polygon class="st5" points="31.3,20.6 19.6,20.6 19.9,20.3 31,20.3 			"/>
			<polygon class="st5" points="29.3,18.4 21.6,18.4 21.9,18.1 29.1,18.1 			"/>
			<polygon class="st5" points="27.3,16.2 23.6,16.2 23.9,15.8 27.1,15.8 			"/>
		</g>
		<g>
			<g>
				<path class="st3" d="M39.3,30.5L25.5,14.9L11.7,30.5c-0.4,0.5-1.1,0.5-1.5-0.1l0,0c-0.4-0.5-0.4-1.3,0-1.8l15.3-17.2l15.3,17.2
					c0.4,0.5,0.5,1.3,0.1,1.8l0,0C40.4,30.9,39.8,31,39.3,30.5z"/>
			</g>
		</g>
	</g>
</g>
</svg>
