<?xml version="1.0" encoding="utf-8"?>
<!-- Generator: Adobe Illustrator 21.0.0, SVG Export Plug-In . SVG Version: 6.00 Build 0)  -->
<svg version="1.1" id="Capa_1" xmlns="http://www.w3.org/2000/svg" xmlns:xlink="http://www.w3.org/1999/xlink" x="0px" y="0px"
	 viewBox="0 0 141.5 25.9" style="enable-background:new 0 0 141.5 25.9;" xml:space="preserve">
<style type="text/css">
	.st0{fill:#FFFFFF;}
	.st1{fill:#054700;}
</style>
<g>
	<path class="st0" d="M13.7,2.9l0,5.7L5.6,8.4v3h6.9l-0.1,4.5l-6.7-0.1v2.8H13L12.9,24L0.8,23.8L1.2,2.7L13.7,2.9z"/>
	<path class="st0" d="M14.7,8.5l4.1-3.8l4.6,5.6c1.6-1.9,3.2-3.7,4.7-5.5l4.6,3.9c-2,1.9-4,3.8-6,5.7l6.1,7.5l-4.5,3
		c-1.6-2.4-3.3-4.6-5-6.8c-2,2.1-4,4.2-5.9,6.5l-3.5-4.2c2.1-2.1,4.1-4.1,6.1-6.2C18.2,12.2,16.5,10.3,14.7,8.5z"/>
	<path class="st0" d="M48.9,15c-0.8,5.1-2.7,7.9-5.9,8.3c-0.5,0.1-1,0.1-1.6,0.1c-2.6,0-4.6-0.9-6-2.7c-1.3-1.7-2-3.8-2-6.5
		c0-0.5,0-1.1,0.1-1.8c0.4-3.5,1-5.7,1.8-6.7c1-1.2,2.1-2,3.4-2.4c0.7-0.2,2.1-0.3,4.3-0.4c2.7-0.1,4.8,2.2,6.2,6.8l-4.9,0.4
		c-0.7-1.5-1.6-2.3-2.6-2.3c-0.5,0-1,0.2-1.5,0.5c-1.5,1-2.2,2.4-2.2,4.5c0,0.2,0,0.4,0,0.7c0.2,2.4,1.2,3.7,3.1,3.8s3-0.8,3.2-2.9
		L48.9,15z"/>
	<path class="st0" d="M54.5,16c0.5,1.8,1.6,2.7,3.4,2.8c1.6,0.1,2.7-0.8,3.2-2.5l4.9-0.7c-1.3,5.1-3.7,7.7-7.5,7.7
		c-1.1,0-2.4-0.3-3.8-0.8c-2.6-1.5-3.9-4.4-3.9-8.6c0-0.4,0-0.8,0-1.2C51,7.7,53.4,4.8,58,4c4.3-0.1,6.8,2.9,7.5,9L54.5,16z
		 M55.8,9.7c-0.7,0.8-1,1.7-1.1,2.8l6.6-1.9c-0.8-1.4-1.7-2.1-2.8-2.1S56.5,9,55.8,9.7z"/>
	<path class="st0" d="M69.7,1.2l1.5,21.4l-4.8,0.6L65.6,1.2H69.7z"/>
	<path class="st0" d="M76.6,16c0.5,1.8,1.6,2.7,3.4,2.8c1.6,0.1,2.7-0.8,3.2-2.5l4.9-0.7c-1.3,5.1-3.7,7.7-7.5,7.7
		c-1.1,0-2.4-0.3-3.8-0.8c-2.6-1.5-3.9-4.4-3.9-8.6c0-0.4,0-0.8,0-1.2c0.3-4.9,2.7-7.8,7.2-8.6c4.3-0.1,6.8,2.9,7.5,9L76.6,16z
		 M78,9.7c-0.7,0.8-1,1.7-1.1,2.8l6.6-1.9c-0.8-1.4-1.7-2.1-2.8-2.1S78.6,9,78,9.7z"/>
	<path class="st0" d="M92.4,5.1l0.3,2c2.3-1.6,4.2-2.4,5.6-2.4c1.4,0,2.4,0.7,3,2.1c1,2.1,1.5,5.5,1.5,10.3c0,1.7-0.1,3.6-0.2,5.7
		l-4.7,0.2c0.4-2.5,0.6-4.7,0.6-6.4c0-2.1-0.3-3.7-0.8-4.6c-0.4-0.6-0.8-0.9-1.2-0.9c-0.9,0-2,1.1-3.3,3.2v9.3l-4.3-0.1L88,5.9
		L92.4,5.1z"/>
	<path class="st0" d="M102.8,13.5l-0.1-4.4l3-0.3l0.1-7.2l4.3-0.3l-0.4,7.1l4.1-0.4l0.3,4.4l-4.5,0.4c0,0.5,0,1,0,1.4
		c0,4.1,0.5,6.2,1.6,6.3c1.2,0.2,2-0.7,2.5-2.7l3.1,0.4c-0.2,2.8-1,4.6-2.4,5.3c-1,0.5-2.2,0.8-3.6,0.8c-0.6,0-1.2,0-1.8-0.1
		c-2.1-0.3-3.3-4-3.3-11.1L102.8,13.5z"/>
	<path class="st0" d="M122.1,16c0.5,1.8,1.6,2.7,3.4,2.8c1.6,0.1,2.7-0.8,3.2-2.5l4.9-0.7c-1.3,5.1-3.7,7.7-7.5,7.7
		c-1.1,0-2.4-0.3-3.8-0.8c-2.6-1.5-3.9-4.4-3.9-8.6c0-0.4,0-0.8,0-1.2c0.3-4.9,2.7-7.8,7.2-8.6c4.3-0.1,6.8,2.9,7.5,9L122.1,16z
		 M123.4,9.7c-0.7,0.8-1,1.7-1.1,2.8l6.6-1.9c-0.8-1.4-1.7-2.1-2.8-2.1S124.1,9,123.4,9.7z"/>
	<path class="st0" d="M134.1,22.6c-0.3-0.5-0.5-1-0.5-1.5c0-0.4,0.1-0.8,0.4-1.2c0.5-0.8,1.2-1.2,2-1.3c0.8-0.1,1.6,0.3,2.2,1
		c0.4,0.5,0.6,1.1,0.6,1.6c0,0.3,0,0.5-0.1,0.7c-0.3,0.8-0.9,1.4-1.8,1.7c-0.2,0.1-0.4,0.1-0.6,0.1
		C135.6,23.8,134.8,23.4,134.1,22.6z M134.6,15.9c0.3-2.3,0.4-5.2,0.4-8.5c0-2,0-4.1-0.1-6.5l5.8,1.2c-1.1,5.8-1.9,10.6-2.6,14.4
		L134.6,15.9z"/>
	<g>
		<path class="st1" d="M43.5,14.4c-0.3,2.2-1.4,2.4-2.4,2.3c-0.9-0.1-2.2-0.5-2.4-3.1c0-0.3,0-0.5,0-0.7c0-1.8,0.6-3,1.8-3.8
			c0.4-0.3,0.7-0.4,1.1-0.4c0.7,0,1.3,0.6,1.9,1.8l0.2,0.5l6.4-0.5l-0.3-0.9c-1.6-5-3.9-7.5-7-7.3c-2.2,0.1-3.7,0.2-4.4,0.4
			C37,3.1,35.7,4,34.6,5.4c-0.5,0.6-0.9,1.6-1.2,3L28,3.8l-0.5,0.6c-1.3,1.6-2.7,3.2-4.1,4.8l-4.5-5.6l-4.4,4.1l0-5.6L0.5,1.9
			L0,24.6l13.6,0.2l0.1-3.4l3.7,4.4l0.6-0.7c1.7-2,3.5-3.9,5.3-5.8c1.5,2,3,4,4.5,6.1l0.4,0.6l5.8-3.8l-6.2-7.6
			c1.8-1.8,3.6-3.5,5.4-5.2c-0.2,0.9-0.3,1.9-0.4,3.1c-0.1,0.7-0.1,1.3-0.1,1.8c0,2.8,0.7,5.1,2.2,6.9c1.6,2,3.8,3,6.6,3
			c0.6,0,1.2,0,1.7-0.1c3.5-0.5,5.7-3.5,6.5-9l0.1-0.8l-6.1-0.6L43.5,14.4z M12.2,23.2L1.5,23.1L2,3.5l11,0.1l0,4.2L4.9,7.6v4.5h6.8
			l-0.1,3l-6.8-0.1v4.3h7.4L12.2,23.2z M6.4,17.8v-1.3l6.7,0.1l0.2-6H6.4V9.1l8,0.1c1.6,1.6,3.1,3.2,4.6,4.9
			c-1.7,1.8-3.4,3.5-5.2,5.3l0-1.7H6.4z M26.2,14l-0.5,0.5l6,7.3l-3.2,2.1c-1.5-2.1-3.1-4.2-4.7-6.2L23.3,17l-0.6,0.6
			c-1.8,1.9-3.6,3.8-5.3,5.8l-2.5-3c1.9-1.9,3.8-3.8,5.6-5.7l0.5-0.5l-0.4-0.5c-1.5-1.8-3.1-3.5-4.7-5.1l3-2.7l4.6,5.7l0.6-0.7
			c1.5-1.7,2.9-3.3,4.2-5l3.4,2.9C29.8,10.5,28,12.2,26.2,14z M44.9,15.3l3.1,0.3c-0.8,4.3-2.5,6.6-5.1,6.9c-0.5,0.1-1,0.1-1.5,0.1
			c-2.4,0-4.2-0.8-5.5-2.4c-1.2-1.5-1.8-3.5-1.8-6c0-0.5,0-1.1,0.1-1.7c0.4-4.1,1.1-5.7,1.6-6.3c0.9-1.1,1.9-1.8,3-2.1
			c0.4-0.1,1.5-0.3,4.1-0.4c0,0,0.1,0,0.1,0c2.1,0,3.8,1.8,5.1,5.4l-3.5,0.2c-1.3-2.3-3-2.8-4.9-1.6c-1.7,1.1-2.5,2.8-2.5,5.1
			c0,0.2,0,0.4,0,0.8c0.3,3.5,2.2,4.4,3.8,4.5C43,18.4,44.4,17.3,44.9,15.3z"/>
		<path class="st1" d="M62,10.3c-0.9-1.6-2.1-2.4-3.5-2.4c-1.4,0-2.5,0.5-3.3,1.4c-0.8,0.9-1.2,2-1.2,3.2l-0.1,1l8.5-2.4L62,10.3z
			 M55.7,11.5c0.1-0.5,0.4-0.9,0.7-1.3c0.5-0.6,1.2-0.9,2.1-0.9c0.6,0,1.2,0.3,1.7,0.9L55.7,11.5z"/>
		<path class="st1" d="M64.8,0.5l0.3,7.9c-1.3-3.5-3.7-5.2-7.2-5.1l-0.1,0c-4.9,0.9-7.5,4-7.8,9.3c0,0.5,0,0.9,0,1.3
			c0,4.5,1.5,7.7,4.3,9.3l0.1,0.1c1.5,0.6,2.9,0.8,4.1,0.8c3.2,0,5.5-1.7,7-4.9l0.2,4.9l6.3-0.7L70.4,0.5H64.8z M58.5,22.5
			c-1,0-2.2-0.2-3.5-0.7c-2.4-1.4-3.5-4-3.5-8c0-0.4,0-0.7,0-1.2c0.2-4.6,2.4-7.1,6.5-7.9c0,0,0.1,0,0.1,0c3.6,0,5.7,2.5,6.4,7.7
			l-11.1,3l0.2,0.7c0.6,2.1,2,3.2,4,3.3c1.3,0.1,2.9-0.3,3.8-2.6l3.3-0.5C63.7,20.5,61.6,22.5,58.5,22.5z M60.5,15.6L60.3,16
			c-0.5,1.4-1.2,2.1-2.5,2c-1.1-0.1-1.9-0.5-2.4-1.5l9.9-2.7l0,1.1L60.5,15.6z M67.2,22.3L66.9,15l0.1-0.3l-0.1,0L66.4,2H69
			l1.4,19.9L67.2,22.3z"/>
		<path class="st1" d="M84.1,10.3c-0.9-1.6-2.1-2.4-3.5-2.4c-1.4,0-2.5,0.5-3.3,1.4c-0.8,0.9-1.2,2-1.2,3.2l-0.1,1l8.5-2.4
			L84.1,10.3z M77.8,11.5c0.1-0.5,0.4-0.9,0.7-1.3c0.5-0.6,1.2-0.9,2.1-0.9c0.6,0,1.2,0.3,1.7,0.9L77.8,11.5z"/>
		<path class="st1" d="M112.9,17.7c-0.6,2.3-1.5,2.2-1.7,2.1c0,0-0.9-0.3-0.9-5.6c0-0.2,0-0.5,0-0.7l4.6-0.4l-0.4-5.9l-4,0.4
			l0.4-7.1L105,0.9l-0.1,7.2l-2.2,0.2c-0.2-0.7-0.4-1.3-0.7-1.9C101.2,4.8,100,4,98.3,4c-1.4,0-3.1,0.6-5.1,1.9L93,4.3l-5.8,0.9
			l0.1,3.5c-1.3-3.7-3.7-5.5-7.3-5.4l-0.1,0c-4.9,0.9-7.5,4-7.8,9.3c0,0.5,0,0.9,0,1.3c0,4.5,1.5,7.7,4.3,9.3l0.1,0.1
			c1.5,0.6,2.9,0.8,4.1,0.8c3.2,0,5.6-1.8,7.2-5.2L88,24l5.8,0.2v-9.9c1.5-2.5,2.3-2.6,2.6-2.6c0.2,0,0.5,0.3,0.6,0.5
			c0.5,0.8,0.7,2.3,0.7,4.2c0,1.7-0.2,3.8-0.6,6.3L97,23.6l6.3-0.2l0-0.7c0.1-2.1,0.2-4,0.2-5.7c0-1,0-2-0.1-2.9l1.3-0.1
			c0.2,7.2,1.4,10.7,4,11c0.6,0.1,1.3,0.1,1.9,0.1c1.5,0,2.8-0.3,3.9-0.9c1.7-0.8,2.6-2.8,2.8-5.9l0.1-0.7l-4.4-0.6L112.9,17.7z
			 M80.7,22.5c-1,0-2.2-0.2-3.5-0.7c-2.4-1.4-3.5-4-3.5-8c0-0.4,0-0.7,0-1.2c0.2-4.6,2.4-7.1,6.5-7.9c3.7-0.1,5.9,2.5,6.6,7.7
			l-11.1,3l0.2,0.7c0.6,2.1,2,3.2,4,3.3c1.3,0.1,2.9-0.3,3.8-2.6l3.3-0.5C85.9,20.5,83.8,22.5,80.7,22.5z M82.6,15.6L82.5,16
			c-0.5,1.4-1.2,2.1-2.5,2c-1.1-0.1-1.9-0.5-2.4-1.5l10-2.7l0,1.1L82.6,15.6z M101.9,22l-3.2,0.1c0.3-2.2,0.4-4.1,0.4-5.6
			c0-2.3-0.3-3.9-0.9-5c-0.6-1.1-1.4-1.3-1.9-1.3c-1.2,0-2.5,1.1-3.9,3.5l-0.1,0.2v8.7l-2.8-0.1L88.8,6.5L91.8,6l0.3,2.4l1-0.7
			c3.9-2.7,6.4-3.1,7.5-0.6c0.9,2,1.4,5.3,1.4,10C102.1,18.5,102,20.2,101.9,22z M115.9,19c-0.3,2.1-0.9,3.5-2,4
			c-1.3,0.7-3,0.8-4.9,0.6c-1-0.1-2.6-1.7-2.7-10.4l0-0.8l-2.8,0.2l-0.1-2.9l2.9-0.3l0.1-7.2l2.8-0.2l-0.4,7.1l4.2-0.4l0.2,2.9
			l-4.5,0.4l0,0.7c0,0.5,0,1,0,1.4c0,4.8,0.7,6.9,2.3,7.1c1,0.1,2.3-0.2,3.2-2.6L115.9,19z"/>
		<path class="st1" d="M129.6,10.3c-0.9-1.6-2.1-2.4-3.5-2.4c-1.4,0-2.5,0.5-3.3,1.4c-0.8,0.9-1.2,2-1.2,3.2l-0.1,1l8.5-2.4
			L129.6,10.3z M123.3,11.5c0.1-0.5,0.4-0.9,0.7-1.3c0.5-0.6,1.2-0.9,2.1-0.9c0.6,0,1.2,0.3,1.7,0.9L123.3,11.5z"/>
		<path class="st1" d="M134.1,0l0,1c0.1,2.3,0.1,4.5,0.1,6.4c0,2.8-0.1,5.3-0.3,7.3l-5.9,0.8L128,16c-0.5,1.4-1.2,2.1-2.5,2
			c-1.1-0.1-1.9-0.5-2.4-1.5l10.8-2.9l-0.1-0.6c-0.7-6.4-3.4-9.7-8-9.7c-0.1,0-0.1,0-0.2,0l-0.1,0c-4.9,0.9-7.5,4-7.8,9.3
			c0,0.5,0,0.9,0,1.3c0,4.5,1.5,7.7,4.3,9.3l0.1,0.1c1.5,0.6,2.9,0.8,4.1,0.8c3.9,0,6.6-2.5,8-7.5l4.6,0.9l0.1-0.8
			c0.7-3.8,1.5-8.7,2.6-14.4l0.1-0.7L134.1,0z M126.1,22.5c-1,0-2.2-0.2-3.5-0.7c-2.4-1.4-3.5-4-3.5-8c0-0.4,0-0.7,0-1.2
			c0.2-4.6,2.4-7.1,6.5-7.9c0,0,0.1,0,0.1,0c3.6,0,5.7,2.5,6.4,7.7l-11.1,3l0.2,0.7c0.6,2.1,2,3.2,4,3.3c1.3,0.1,2.9-0.3,3.8-2.6
			l3.3-0.5C131.4,20.5,129.2,22.5,126.1,22.5z M137.5,15.7l-2-0.4c0.2-2.2,0.3-4.9,0.3-7.9c0-1.7,0-3.6-0.1-5.5l4.1,0.9
			C138.8,7.8,138.1,12.1,137.5,15.7z"/>
		<path class="st1" d="M135.9,17.9c-1.1,0.1-1.9,0.6-2.6,1.7c-0.3,0.5-0.5,1-0.5,1.6c0,0.6,0.2,1.3,0.6,1.9l0.1,0.1
			c0.9,0.9,1.8,1.4,2.7,1.4c0.3,0,0.6,0,0.9-0.1c1.1-0.4,1.9-1.1,2.2-2.1c0.1-0.3,0.2-0.6,0.2-1c0-0.7-0.3-1.4-0.8-2.1
			C137.7,18,136.7,17.8,135.9,17.9z M138,21.8c-0.2,0.6-0.6,1-1.3,1.2c-0.6,0.2-1.2-0.1-1.9-0.8c-0.2-0.4-0.3-0.7-0.3-1.1
			c0-0.3,0.1-0.5,0.2-0.8c0.4-0.6,0.8-0.9,1.4-1c0.6,0,1.1,0.2,1.5,0.8c0.3,0.4,0.5,0.8,0.5,1.1C138,21.4,138,21.6,138,21.8z"/>
	</g>
</g>
</svg>
